<svg xmlns="http://www.w3.org/2000/svg" viewBox="0 0 529.9 496.8"><style>.st0{fill:#f7f7f7}</style><g id="Слой_2"><path class="st0" d="M129.3 273.2c.2-.2.4-.5.6-.7-.7-.6-1.4-1.2-2.2-1.8-2.5-1.2-4.7-2.2-6.6-2.9l8.2 5.4zm2.8 1.9l.8.5c-.2-.2-.4-.5-.6-.7l-.2.2z"/><path class="st0" d="M338.9 41.2c-7.1-9.9-19.4-19.2-31.9-15.9-8.7 2.3-26.1 19.3-11.7 26.9 5 2.6 29.1-8 18 7.3-5.5 7.7-17.5 11.6-26.3 13.9 1.7 5 5.4 7.5 8.6 11.2-10.9 4.1-21.3 16.2-30.5 23.4-11.1 8.7-20.7 19.6-31 28.6-10.5 9.3-23.5 15.6-35 23.5-2.3-.6-4.6-1.1-7.1-1.2-12.1-.3-23.8 3-34.4 8.7-13.2 7.1-17.6 17-26.7 27.8-8.6 10.2-18.3 10-29.8 14.5 14.1.7 27.1 11.4 16.9 25.9-11.6 16.5-23.3 12.7-33.8-1.8-1.6 20.4-19.6 22.3-31.2 36.3-20.1 24.2-33.4 51-18.6 80.8C47 376 73.9 396.6 99 408.9c25.9 12.8 61.9 20.3 82.2-8.6 8.5-12.1 13.7-29.1 17.7-42.8 3.8-12.9 6.8-21.8 14.9-33.6-6.9 8-15.6 5.8-18.9-4.6-2.3-7.3.2-17.8 3-24.7 3.3-8.3 9.6-16.1 19.3-11.8 7.2 3.1 12.2 13.5 17.6 19.1-3.5-16.8 9-22.7 18.4-33.6 9-10.4 12.1-27.4 8.2-41.2-2.6-9-8.9-15.5-15.1-21.7 3.9-2.1 6.9-5.4 8.2-10.9l-3.7-.5c-17.2-15.5.9-39.4 12.3-52.8 13.6-16 25.6-32.9 38.4-49.7 4.1 2.5 7.8 5 12 6.9 2.9-11.1 16.9-17.1 24.7-24 10.3-9.1 8.3-22.6.7-33.2zM164.4 302.6c-2.4-1.4-7.4-3.9-13.2-7-12.6 18.4-26.7 36.5-41.3 48.3 10.5-17.8 22.3-35.2 34.6-52-2.3-1.3-4.6-2.6-6.9-4-13 18.4-25.2 44.7-42.9 54.2 12.2-19.3 26.5-37.7 40.8-55.6-2.6-1.6-5.1-3.3-7.4-5-9.7 15.5-19.8 31.8-32.9 38.9 9-14.3 19.2-28.1 29.7-41.5-6.3-5.3-10.2-10.6-8.2-15 3.6 1.8 7.6 4.1 11.1 6.8.8.4 1.7.8 2.6 1.3 8.1-10.2 16.3-20.3 24.2-30.2 14.5-18.1 23.8-40 39.2-57.6 4.4-5 10.1-9.8 13.3-9.1-4.2 6.4-8.7 12.7-13.6 18.7-.5.6-.9 1.3-1 1.9-3.4 4.7-6.7 9.5-10 14.1-12 16.8-24.5 32.9-38 48.3-3.8 4.4-7.5 9.7-11.2 15.4 2.8 1.5 5.7 3.3 8.6 5.2 4.1-5.1 8.2-10.2 12.2-15.2 14.5-18.1 23.8-40 39.2-57.6 4.4-5 10.1-9.8 13.3-9.1-4.2 6.4-8.7 12.7-13.6 18.7-.5.6-.8 1.3-1 1.9-3.4 4.8-6.7 9.5-10 14.1-12 16.8-24.5 32.9-38 48.3l-.1.1c2.1 1.4 4.2 2.9 6.2 4.5 6.4-8.5 12.9-16.9 19.5-25.2 9.8-12.3 25.6-29.4 32.3-45.7 8.3-10.8 15.3-22.4 22.1-34.2.7-.4 1.3-.7 2-1.1.4 1.6.2 3-.1 4.4-10.7 27.1-36.8 53.7-52.3 78.5-5.4 8.6-11.4 18.2-17.9 28 4.4 4.5 7.9 9.1 8.7 13.5z"/></g><path d="M289.6 348.7c.3.7.4 1.7 1.4 1.2.6-2.6-3.3-12.8-4.3-16-5 .3-12.1 1.7-17.2 5.7-5.3-.7-8.1 2.5-14.7 3.4-.1 1.3-1.1 4.4-2.2 4.9 1.2 2.9 1.3 5.3.6 7.2 4.9.3 9.1-2.6 14.4-2.8 2.1 9.8 8.6 22.4 9.3 32.9.2 2.1 2.7 6 2.6 8.7v.4c0-.1.1-.2.3.5.5 1.8-1.8 4.7.4 6.7-.1.1-1.1-.2-1.1-.2 0 4.8 1.1 9.8-2.3 13.3-7.6 1.8-13.9-6.7-13.9-13.1 0-.5 1.1-.1.7-1.2-4.3-11.2-8.1 1.7-15.3 1.4 0 3.7-3.2 3.8-4 7.5l.3 1c2.3-.4 2.6 4.7 4.2 3.5.9 1.4.1 1.9-.2 2.7 3.9.9 4.4 7.8 8.3 8.5-1 1.2.7 2 2 3.1 3.1 2.7 11 5.7 14.8 5.5 2.3-1.6 4.3.1 9.3-2.3-.1-.6-.5-1.3.1-1.6.2.3.3.9.8.8 5.8-5.8 11-8.3 10.9-17.9 1.9-.3-.7-5.5 1.5-5.7-1.4-6.9-1.2-8.2-3.7-15.7.5-.2.7.2 1.1.2-2.6-9.5-6.1-23.1-8.5-35.2-1.3.2-.3-3-1.8-4.2 2.5-.9 4.5-2 6.2-3.2zm87.2 20.9c.6 4.5-8.2 3.8-9.7 6.1-.7-1.6-.9 1.2-2.4-.9.3 1.4-2.1 1.5-3.4 1-.1-.7-.7-1.7-.1-2.1 0 .2.7 1.1.8.8 2.4-5.5 2.4-13.6 7.8-17.6.5-4-2.3-8.9-2.4-11.4-3.1.1-5.9.8-9.6 2.9l-.4-1.4c-2.9 2-4.5.2-6.1 2.4-2.4-1-5.9 2-7.7 2.3.2 0-1.2-1.1-1.4-1.2-.8-.1-1.6 1.2-2.3 1.2-1.2.1-3-2.1-4.5.8 1.6 5.8 2.4 8.9 5.3 12.6 6.1-1.3 6.4-2.3 11.2-2.8-.6 6.1-1.6 12.1-3.7 17.4.2 1.2.6 1.8 1.2 2.3l-1.4.4c1.8 3.5 3.5 8.2 6 11.3 2.8-.4 4.5-3.5 7.2-2.2-.6-2.3.9.9 2.4-.7-.1-.6-.5-1.3.1-1.6.8 2.4 3.9-1.3 4.6-.3-.1-.6-.5-1.4 0-1.6.9 1.3 1 .4 1.4-.4 1.5 1.8 5.6-3 8.5-1.5 0-.4-.3-.9.2-1.1.7 1.7 2-.7 3.2.1-.6-1.2-.3-1.8 1-1.9-3.5-4.3-.5-11.7-5.8-12.9zm-48.8-9.9c-4.3 2.4-6.6 1.8-9.2 5.9-5.5.7-10.4 1.6-12.9.7l.4 1.4c-4.6.8-4.7 3.9-7.2 5.8.2.8.5 1.6.7 2.4-2.5 1.1-.4 8.1-1.9 11.1 2.4 11.1 5.8 18.2 14.3 19.8 3.3-2.1 4.6.1 6.1-2.4 3.1 1.5 7.4-5.7 8.5-8.3.8.5 1.6 1 2.5 1.3 1.2 5.7 4.5 5.6 9.6 3.9.3-12-2.9-23.7-7.1-39.3-2 .8-2.3-1.9-3.8-2.3zm-13.4 16.6c1.3-1.4 2.5 1.8 1.9-.6 1.9 2.1 2.4 6.9 2.9 9.6-1.2-.8-.3 4.2 0 5.2-4.3 3.2-5.2-1.7-7.7-2.9 0-4.3 1.2-7.9 2.9-11.3zm107.8-19.6c-4.5 2-6 1.2-7.9 3.4-6.5-.1-8.2 2-14.4 2.8l-.7-2.4c4.5-6.6 7.8-11.6 10.1-18.8 1.5 1 1.6-2.5 3.2-1.5-.7-2.1-1.7-5.2.2-2.7-1.1-4.4-2.1-5.8-3.2-9-4.2-.7-10.1 2.3-11.7 3-1.4.6-2.8-1-3.9-.9 0 0 .3 1.1-.2 1.1-1.6.2-4.7-.3-6.1 2.4-2.7-.5-6.2 2.6-10.9 2.2 1 2.9 2.4 3.8.8 6.1 2.6-1.3 2.4 3.9 2.6 5 2 .1 2.3-.7 3 1.2 1.9-1.7 3.8-.7 6.6-2.5.3 2.3.9.3 1.4 1.1-1.2 3.8-.4 10.7-1.7 13.6.1-.2-.5-1-.8-.8.9 3.1-1.4 5.5-.6 8.6 1 3.8 2.6 6.2 3 10.1 1.3-.9 1.2.8 1.5 1.6 10.3-2.9 19.6-7.5 33.3-13.2-1.4-6.3-1.4-6.4-3.6-10.4z" fill-rule="evenodd" clip-rule="evenodd" fill="#fff" id="Режим_изоляции"/></svg>