<svg version="1.1" id="Слой_1" xmlns="http://www.w3.org/2000/svg" x="0" y="0" viewBox="0 0 841.9 595.3" xml:space="preserve"><style>.st0{fill:#fff}</style><path class="st0" d="M548.8 292.7c0-4.3-.7-8 .2-11.3 1.2-4.8 3.9-8.8 9.1-10.6 2.3-.8 5.6-1.8 4.2-5.7-.9-2.3-4.4-4.4-7.1-3-3.6 1.8-7.5.8-10.8 2-2.4.9-4.6 1.8-7 1.6-5.9-.5-9.7 2.1-11.8 7.5-.4 1.1-1 2.2-1.8 3.8 3.5.2 7.2.4 11.5.7-.4 7.6-3.4 14.1-7.8 19.7-1.7 2.2-6 3.1-9.1 3.1-8.7.1-17.2 1.1-25.5 3.9-2.8.9-6.3.1-9.8.1v-6.2c0-9.6 4.9-16.1 14.4-18.9 1.5-.4 2.7-.1 3.1-2.4 2.2-13.4 6-26.3 11.1-38.9.5-1.4.4-3 .5-4.3-4.8-3.1-8.5 2-13.6.7.6-5.6-1.2-11.3 1.9-17.1 1.4-2.5 2.7-3.7 5.6-4 2.6-.3 5.3-1.2 7.6-2.5 6-3.4 12.4-4.5 19.1-5.2 6.3-.7 12.7-1.4 18.8-3.5 4-1.3 8.4-.6 12.7-1.9 7-2.1 14.8-1.9 22.3-2.7.8 2.4 1.4 4.4 2.1 6.3 2.7 8.3 1.6 11.1-6.8 17.3-.8.6-1.9 1.5-2 2.4-.7 7.8 1 15.3 4.4 22.3 2.7 5.5 6.8 10.4 4.4 18.2 5.4-1.2 10-1.5 14-3.2 2.5-1.1 3 .5 3.4 1.3 1.8 3.3.2 18.1-1 22.1-1.4 5-5.6 6.5-9 6.3-15.6-.8-30.9 3.2-47.3 2.1zm-17.6-52.6c5.4 1.3 10.3 0 15.4-1.3 4.8-1.3 5.1-1.1 3.3-5.7-.8-2.2-1.3-4.8-2.8-6.5-2.3-2.7-4.5 2.3-7.3.6-1.1-.7-2.9-.1-3.5-.1-1.9 4.8-3.4 8.7-5.1 13zm-126.1 12.2H396c0-7-.1-13.7.1-20.3.1-4.3 4.3-8.7 8.5-8.7 12.6-.2 25.2-1.1 37.7.3 7.8.8 16.5 2.1 22.2 9.1 4 0 4.6 3.4 6 6 3.3 6 5.6 12.3 4.8 19.3-.5 4.6-1.7 8.9-5.3 12.3-3.6 3.3-6.7 7-10.3 10.2-3.9 3.5-8.4 5.8-13.7 6.7-3.6.6-7.1 1.7-11 2.6v8.6c.9.1 2.4.8 3.2.3 4.6-2.8 10.2-1.3 15-3.6 1.8-.9 4.3-.9 5.1 3.2.7 3.7 1.7 6.4-.2 10.2-2.3 4.8-4.6 7.8-9.7 7.6-13.2-.5-25.2 4.2-37.6 7.4-5.3 1.4-10.8 1.7-16.8 2.6 0-3.5.5-6.4-.1-9.1-1.5-6.5 2.2-10.2 6.4-13.8 3.6-3 4.8-7.1 1.9-10.4-3-3.4-2.6-6.1-1.1-10.1 3.8-9.7 6.2-19.6 4-30.4zm42.7 9.3c-.2-8.1-3.2-9.8-15.1-8.7.1 3 .3 6 .4 8.7h14.7zM369.3 292c1.4.9 2.9 2.5 4.5 2.7 3.4.3 5.7 3 6.4 5.1 1.1 3.5 1.7 8.6 0 11.3-2.8 4.3-7.3 7.8-11.8 10.7-6.2 4.1-17.7 7.3-24.7 7.8-4 .3-7.4 2.8-11.8 2.1-3.9-.6-7.8.1-11.8 1.5-3.7 1.3-8.2.3-13.2.3.8-4.5.7-8.9 2.4-12.5 1.4-2.8 4.8-4.9 7.7-6.7 2.3-1.5 3.9-2.8 3.6-5.9-1.4-14.6 2-29.1 2.1-43.4-3.5-3.1-5.9.6-8.7.9-2.7.3-5.3 1.2-7.9 1.8-1.9-10.9 1.9-19.7 10.2-23.7 1.3-.6 2.9-1.5 4.2-1.3 14.3 1.4 28.4-2.3 42.7-2.2 16.4.1 22 7.6 26.8 20.4.8 2.1-1.2 4.2-1.5 5.9-1.7 12.2-9.6 19.3-19.2 25.2zm-27.5 22.1c6.2 0 11.4.1 16.5 0 3.2-.1 5.3-2.7 4.8-5.6-.5-3.1-6.1-6.4-9.2-5.5-3.4 1-6.8 2.1-10.1 3.4-.8.3-1.7 1.5-1.9 2.4-.3 1.6-.1 3.2-.1 5.3zm4-48c-.7 3.4.1 6.7 2.6 6.9 4.2.5 9.3 2.6 12.5-2.7-4.1-4.3-9-5.3-15.1-4.2zm332.7-60c0 7.5-.3 14.8.1 22.1.4 7.1 1.4 14.2 2.2 22.1 2.5-.7 5-1.4 7.5-1.9 2.3-.5 4.6-.6 7.1-1 .5 1.8 1.1 4.4 1.8 7 1.8 6.1.2 12-4.8 15.7-1.3 1-3.5 1.5-5.2 1.3-3.6-.4-6.7.9-9.8 2.2-1.1.5-2.1 1.6-3.1 1.7-5.6.2-11 .4-16.6 1.7-5.5 1.3-11.4.3-17.3.3-1.5-6 0-11.4 3.1-15.9 2.9-4.3 7.7-6.2 13.3-5.2.4-2.7.7-5.1 1.2-7.5.4-2 1-3.9 1.9-7.3-3.9 1.9-6.5 2.7-8.5 4.3-4 3.3-9.2 3.1-13.7 4.1-3.8.8-8.9-1.7-12.4-4.1-1.9-1.3-2.3-5.4-2.6-8.3-.9-7.6.7-16.8 3.8-24.6-5.1-4-9.9 1.7-15.5.4v-9.3c.1-6.7 3.7-9.8 10.6-11.9 7.2-2.2 14.9-1.9 21.9-5.5 3.3-1.7 4.4.6 4.4 5 0 5.6-1 10.3-5.1 14.5-1 1.1-1.4 4-.7 5.3 1.7 3.2 1.4 6.6 1.9 9.9.3 2.1 1.9 4.5 3.6 5.7 1.9 1.3 6.6-1.5 7.8-4.2.9-1.9 1.4-3.9 2-5.9.5-1.7.7-3.6 1.2-5.3.7-2.6 2.5-5.2-2.3-6.1-1.9-.4-4.1-2.7-1.4-5.9 2-2.4 2.4-6 3.6-9.1 1.6-4 4.7-6.3 9-5.7 7 1 13.6-1.9 20.5-2.1 1.1 0 2.1-1.4 3.2-1.5 1-.1 2.8.3 3 .9.9 2.9 1.8 5.8 2 8.8s.9 6.2-2.2 8.8c-3.6 2.9-6 7.7-11.9 6.4-1.3-.4-2.2-.1-3.6.1zm-292.2-35.2c-6.9 2.7-11.8 7.6-19 7.9-1.5.1-4.8-.2-4.8-.2s-1.4 10.6-2.2 12.1c-1.9 3.8-6.5 4.5-8.1 3-.6-.5-.7-1.7-.7-2.6.2-2.9 1.8-17.8 1.9-22.7.1-5.6-.5-11.2 1.9-16.6 1.8-4 3.8-5.5 9.2-5.6 1.4 0 .2 3.6 0 5.6-.5 5.3-.9 11.3-1.5 16.8 7.9 1.2 15 .2 21.7-3.6 1.5-.8 3.5-2.4 3.5-2.4s2.4-8 6.4-14.4c.6-.9 1.5-2.9 2.6-3.4 1.8-.8 4.7-1.3 5.8-.6 3.3 2.1-.6 4.1-1.4 5.4-4.8 8.4-6.3 17.3-5.6 26.7.3 4 3.4 9.9 5.9 13.1 3 3.9 6.9 2.5 10.6 2.5 1 0 2.8-2.4 2.8-3.4-.3-4.8.1-8.8.6-12.8 1.4-10.5 7.1-18.8 14.5-26.5 2.4-2.5 4.8-5.1 8.4-7-.4 1.2-.5 2.6-1.2 3.7-2.7 4.2-5.6 8.3-9 13.3 9.3.2 16.8-3.1 24.6-5.3 7.5-2.1 13.7-7.3 22.4-8.1-2 3.6-3.6 7-5.5 10.1-2.9 4.6-2.5 9.6-2.2 14.5.4 5.5 5.4 9.9 11.2 10 6.4.1 13.3 1.5 18.8-3.7.3-.3 2 .2 2.4.7s.3 2.1-.1 2.5c-7.1 5.7-13.8 12.2-23.9 13.3-1.9.2-8.8.9-13.6-3.2-2.9-2.5-4.4-5.7-4.6-9.8-.3-7.1.2-14 4.1-21.2-7.5 2.3-14.3 4.3-20.9 6.6-.9.3-5.3 3 .5 3.4 1 .1 2.6 1.7 2.6 2.6.4 5.6 1.4 11.4-2.5 16.2-2.6 3.3-5.6 6.4-8.9 8.8-2.6 1.9-5.8 4.1-9.2 2.9-4.2-1.5-6.7-5.2-6.7-5.2s-11.6 8.2-13.6 8.8c-5.6 1.7-12.5-.5-15.8-5.2-.8-1.2-1.1-2.9-1.1-4.3-.3-7.2-.3-14.6-.3-22.7zm40 7.7c-.3.5-1.2 1.2-1.2 1.8.2 2.7 4.7 7.5 7.4 7.8.6.1 2-1.4 2.1-2.1.2-3.7-3.3-6.8-8.3-7.5zM270.4 129c2.9-4.6 8.2-13.6 8.2-13.6s20.2.6 23.3-.6c1.7-.7 3.8-1.3 4.6-2.6 2.8-4.2 5-8.9 7.6-13.2 8.2-13.3 18.2-25 33.1-31.1 3.3-1.4 6.7-2.6 10.2-3.2 7-1.3 11.9 2.7 16.1 7.6 2 2.3 1.3 5.1.2 7.8-5.4 13-16.3 22.6-26.9 29.3-15.9 10.1-32.9 13.2-35.1 13.5-3.7 16.3-6.1 32.8-4.3 50.3 7-5.4 14.6-6.8 22.8-6.1 7.8.7 11 6.3 7.8 13.7-3.1 7.3-8.6 12.9-14.7 16.9-7.6 4.9-17.3 4.6-22.1-5.4-2.1-4.3-4.1-8.8-4-13.8.2-7.4-.3-14.8.1-22.2.6-9.7 1.9-19.4 5.5-28.6.3-.7 1.1-3.4 1.1-3.4s-3.2.4-4 .6c-.7.2-18.8 3.1-29.5 4.1zm42.3-15.2c2-1.3 22.1-6 29.6-8.4 8.1-2.6 14-7.5 19.5-13.4 2-2.2 1.9-8.1 0-10.4-3.5-4.3-12.6-6.8-17.7-4.7-13.7 5.5-23.2 15.3-28.8 28.9-.8 2-2.6 4.7-2.6 8zm15.1 74.1c1.7-3.3 0-5.6-2.5-7.2-1.7-1.1-4.4-.9-5.7-2.2-2.6-2.6-4.3-2-6.1.5-1.7 2.4-.9 5.7 2 7.2 3.8 1.9 7.9 3.2 12.3 1.7zm-41.1 31.4c-3.9 3.8-6.8 6.7-9.8 9.6-9.5-5.8-13.6-11.9-16.6-23-1.5-5.5-1.5-11-1.4-16.4.1-3.7 1.5-15.4 1.1-18.6-2.5 1.7-5.1 3.4-7.6 5.3-2.9 2.3-5.7 4.8-8.6 7.1-4.8 3.8-9.6 5.4-15.4 5-1.9-.1-7.8-.5-8.3-7.8-.9-11.9 4.1-21.4 13.1-28.9 2.3-1.9 5-3.3 7.8-4.5 2.7-1.2 5-2.1 8.5-2.6 6.9-1 14.9 1.5 17.2 9.2.8.4 1.9-.3 4.1-1.6.7-.4 2-.6 2.5-.3.6.4 1 1.8.8 2.4-1.1 2.8-3 5.3-3.6 8.1-.6 3.1-2.6 16.8-2 20.4 1.1 6.9 2.5 13.7 4.4 20.4.7 2.5 2.9 4.7 4.7 6.7 2.6 3.2 5.6 6 9.1 9.5zm-25.5-53.2c0-4-4.5-8.3-5.5-9.6-1.7-2.1-12.8-6.2-21.6-.1-3.9 2.7-4.7 9.8-4.9 13.4-.2 3.5 4.1 6.5 7.7 7 4.2.5 8-.4 11.5-2.4 4.1-2.5 8.1-5.2 12.8-8.3z"/><path class="st0" d="M161.5 174.3c-2.3 5.5-3.2 10-3 15 .2 4.4 4.2 6.6 8.5 6.8 5 .3 8.8-1.7 12.5-5 5.6-5 9.5-11.3 13.3-17.7 5-8.2 8.8-17.4 17.4-24.5-.2 2.6.2 4.7-.7 6-4.4 6.9-5.9 15-8.4 22.5-2.8 8.3-.4 22.2 10.6 26.8 1.1.5 10.3 3.5 14 3.4 2.4-.1 2.5 2 1.4 3.2-3.3 3.9-16.6 6.3-18.5 6.4-4.2.3-7.6-1.2-11-3.7-4.1-3.1-5.1-7.6-6.5-11.8-1.3-3.9.2-14 1.7-18.4-4.4 4.5-6.5 6.3-10.5 11.3-6.8 8.4-15 14.1-24.8 13.6-2.7-.1-6-2-7-3.9-1.8-3-6.8-21.1 11-30zm435.6-15.8c-2.7 2.7-5.6 5.4-8.2 8.2-4.8 5.3-11.1 7.3-17.9 8.1-1.3.1-3.1-.5-3.8.2-4.9 5.1-9.2-2.2-13.9-.6-.4.1-2-2.2-2.5-3.6-1.8-4.4-3.3-8.9-5.2-13.9-1.6 1.2-3 2.2-4.4 3.4-3.9 3.2-5.8 4.4-9.4 7.8-3.9 3.6-10.6 4.8-15.3 4.9-8.2.2-6.5-9-6.3-10 1.7-11.3 5.7-21.7 13.9-29.9.5-.5 2.1 0 3.2 0-.1.9.1 1.9-.3 2.6-4.8 7.6-6.2 12.9-5.3 21 .3 2.9 1.8 4.6 4.7 4.7 7.9 0 14-3.1 18.5-9.7 3.5-5.1 7.7-9.8 11.7-14.5.5-.6 2.1-.3 3.2-.4-.2 1.1.1 2.8-.5 3.2-3.8 2.4-3.4 6.2-2.7 9.5.9 4 1.9 9 4.7 11.4s6.9 4.6 11.5 4.6c4.8 0 8.9-1.6 13.1-3.5 3.4-1.5 6.9-3.1 10.3-4.6.4.2.7.6.9 1.1zm-458.9 45.6c-5.9 12.1-14.3 15.8-23.8 21.2-4.6 2.6-10.4 3.6-14.9 2.6-2.7-.6-9.3-3.1-10.6-8.8-.5-2.1-1.3-5-.7-7.4 2.3-9.4 8.2-15.8 15.4-21.3 4.9-3.8 10.3-6.9 14.6-11.4 3.2-3.4 4.3-8.8 2.3-11.8-2.6-3.9-6.7-4.8-11.4-2-6.2 3.7-10.2 14.3-14.2 15.5s1.2-9.4 3.7-12.5c4.1-5.1 8.9-14.7 21.1-16.6 6.8-1.1 10.7 2 11.5 8.9 1 8.4-4 14-8.4 19.7-4 5.2-9.8 8.4-15 12.4-4.8 3.7-10.4 13.1-6.6 17.3 7.5 8.4 18.8 7.6 29-.2 2-1.5 3.6-3.7 5.6-5.4.3-.6 1.4-.2 2.4-.2zm460-120.5c-11.4 12.2-22.4 21.7-37.3 26.1-9.5 2.7-20.9 1-27.5-5.3-4.7-4.5-5.6-10.5-1.8-15.7 1.7-2.3 4-4.1 6.5-6.6.9 1 2.2 1.9 2.7 3 .3.6-1.1 2-.8 2.6 2.8 7.4 9.1 10.7 16.1 11.6 11.4 1.4 21.7-1.8 30.7-9.5 2.7-2.4 5.7-5.5 11.4-6.2z"/></svg>