<svg xmlns="http://www.w3.org/2000/svg" viewBox="0 0 529.9 496.8"><path d="M88.6 194.5c6.4-10.9 7.6-26.7 8.2-39.5 25.9 8.5 44.9 20.5 72 26.5-22.7-14.3-79.5-69.2-42.1-97.6 20.9-15.9 81.3 9 98.4 23.4-17.5-25.4-34.6-57.9-46.5-87.3 10.7-4.9 22.5-13.7 33.8-16.7C216.7 18 223.2 29 223.2 29c24.6 49.9 58.1 95.5 82.8 144.6 25.3-.9 51.5 5.4 76.5 10-.5 8.7.5 17.8 2.3 25.8 11.3 4.4 34.9 7.6 37.4 8.8.9 5.2 1.8 23.5-.2 28.6-6.3 1-17.9 1.1-27.8 2.5.9 13.8-7.3 24.4-11.4 36.2-5.2 15.5-10.4 33.6-12.5 49.5-2.7-1.5-3.7-2.2-5.7-4.4 6.3-19.3 3.3-43 5.3-63.3-8.1.2-11.6-6.9-11.4-14-21.9 1.5-44.8 7.8-65.6 11.2-20.4 3.2-41.1 4.3-61.5 6.2 0 4-.1 7.7-.9 9.7-3.2 9-9 10-10.8 20.1-1.2 7 0 17.2.4 24.8.4 9 .2 22.7 3.4 30.3-.9-.2-7.9-2.4-8.9-2.8-.7-12.1-2.1-22.4-3.9-33.8-.9-5.1.5-12.1-1.7-16.8-2.3-5.1-7.7-5.7-10.9-9.7-4.5-5.7-6.9-10.4-6.1-15.7-10.4 2.1-16.6 3.8-26.5 7.7-11.3-14-25.2-29.3-38.8-44.5.1 7-1.7 12.5-9.3 12.2 7.1 21.7 7.7 46 12 68.4-15.1-7.4-7.7-43.5-13.9-57.4-4-8.8-10.3-13.1-12.6-22.9-2-8-.7-18.8.1-27.6-5.2-6.2-10-12.3-14.4-18.2zm94.4 58.8c2.8 6.1 1.5 8.5 8.4 8.4 4.1-.1 8.4-1.5 12.5-2.5 24.1-5.2 29.2-5.4 29.2-5.4 25.4-4.5 50.8-7.4 76.3-10.4 6.2-.7 12.3-1.2 18.7-1.2 9.1 0 17.2-3.1 26.1-4.7 13.5-2.6 27.6-2.8 41-5 4.5-.7 13.3-.2 17.2-2.5 4.9-2.9 2.1-4.4-2.1-6.2-4.2-1.8-8.2-2.4-12.8-4.1-2.8-1-12.5-4.1-12.5-4.4-2 .6-3.4.8-5.7 1.2.3.2.7.5.9.8 2.7 1.6 5.2 3.8 6.8 5.7-1.6.2-2.8.9-5.4 1.2-3.3-1.4-6.3-3-9-4.4-1.5-.8-2.4-1.5-3.1-2-1.1.1-2.3.2-3.4.2 1 .6 8.3 6.6 8.3 9.5-1.3-.2-2.7 1-4.2.5-3.6-2.5-6.9-4.3-9-6.1-1.8-1.5-3.2-2.7-3.4-3.6-1.7.1-3.4.2-4.9.2-3.4.2-6.9.5-10.3.8 3.8 2.7 7.6 5.8 9.6 9.5-1.6-.1-2.7.5-4 .2-3.6-1.9-7.6-4.1-11.4-8-.4-.3-.6-.6-.9-.9-1.1.2-4.8.7-4.8.7-.1 0-.3 0-.4.1 3.9 3 7.7 7.1 9.7 9.8-.2.3-.4.8-.4 1.2-3.9-.7-11.7-6.1-13.8-10.3-.7.1-1.2.2-1.9.3 3.5 2.6 7.6 8.1 8.4 11.2-4.4-.1-7.1-4.1-9.8-7.4-.7-.8-2.1-1.9-2.9-3.1-2.8.5-10.3 1.7-10.7 1.8 2.8 2.5 5.2 5.6 5.5 7.6-1.2.7-2.4.5-4.7.9-3.1-2.6-4.7-4.4-8.3-7.3-.8.1-1.5.2-2.3.3 2.1 2.4 4 4.9 5.7 8-.2.5-1.2 1.9-1.6 2.2-3.7-2.5-7.3-5.5-9.6-9.5-2.6.3-13.3 1.4-13.6 1.4.1.2.3.2.4.4 3 2.6 5.8 5.1 6.9 9.3-1.4 1.2-3.1 1.3-4.9.8-3.3-3.2-7.9-6.2-7.8-9.7-5 .7-10.1 1.5-15 2.5 3.7 2.4 7.1 5.3 9.5 8.9-1.3.2-2.8.9-4.7.5-3.8-2.8-7.7-5.1-10.2-8.3-1.3.2-2.6.5-3.9.8 3.5 3.3 7 7.6 7.7 10-4.2-.5-9.4-4.6-12.2-9.1l-4.8.9c2.6 2.9 5 5.9 7.1 9.3-4.4-1-8.5-4.5-12-8.4-2.9.5-5.8 1.1-8.7 1.5-2.8.5-5.6.9-8.4 1.3 3.1 3.1 6.6 6.7 7.9 8.8-1.2 0-2.8.5-3.9.7-4.1-1.7-8.2-4.4-11.3-7.2-.5-.5-.9-.8-1.3-1.3-3.4.4-6.8.5-10.3.6 2.3 1.8 4.4 3.7 6.1 5.3 3.8 3.4 5 6.5-1.2 6.6-7-5-10.9-8-14.7-11.4-4.2.5-8.4 1.2-12.6 1.1.6-.3 3.8 8.8 4.9 11.4z" fill="#fff"/><path d="M258.8 410.2c.7 10.4 7.3 24.5 5.1 34.2 3.2 5.1 1.6 9.8 0 14.6-4.8-.2-4.7-9.1-7.5-12.7-2.6 3.6-19.7 22-23.8 8.8-1.5-4.8-7.4-7.6-8.4-16.7 2.6.7-1-9.7 2-8.8-2.7-4 2.2-5.8 1.7-10.1 2-1.4 3.5.2 2.7-2.8 9.8-2.5 12.3-.5 18.6.2.9-.5.1-2.2 2.2-1.9-1.8-2.9.5-2-.6-5.4 2.4-1.5 5-1.4 8 .6zm-26.3 15.6c-6.7 6.4-3.7 21.8 4.6 25.9 2.8 1.4 6.4-.3 9.4.4-.1-.8-.5-1.8.2-2.1 6.7-2 4.5-7.3 5.1-12.4-.5 0-1.2.3-1.4-.3 2.5-4.7-4.6-12.3-4.4-16.3-4.3-1.2-8-1.3-10.3-1.6.5 2.8-.4.2-1.3.3 1.6 3.5-4.2 2.2-1.9 6.1zm-30.6-12.4c.3 14.6 4.3 28.9 5 45.3.2 5.3-.2 12.9-2 17.2-.5 1.2-2.2 1.6-2.7 2.7-.6 1.7-.8 4.9-3 7-3 2.8-11.5 7.4-14.1 7.7-3.4.4-6.7-2.3-10.3-1.6-8.1-8.3-20.6-20.2-18.7-32.8 2.2-1 6.4-.7 7.4-2.6 3.1 7.1 3.1 8.6 6.5 17.1.3.7 1.3.3 2 .2 2.5 6.2 4.9 6.9 9.1 10.9 2-2.8 11.1-1.1 9.9-5.9 6-1.1 7-11 6.3-16.2 4.4-7.8-1-15.4-1.3-23.3-.1-2.7.1-7.2-2.2-12.7.5 0 .8.5 1.4.4-6.1-14.3-8.1-29.6-10.7-41.1-.1-1.6-2.8 1.1-2.3-1.5-8.8 2.6-8.3 1.1-15 3.8-2.3-6.2.4-5.7.3-10.5 2 3.1 10.3-3.2 11.1-.7 4-6 12.1-1.4 16.1-7.5 3.5 2.2 5.4-.5 8.1.7.2 3.3 1.7 4.4 2.3 7.1-3.8 1.8-4.7 1.4-8.3 1.4-3.2 4.1.6 9.2 1.7 16.3.6 3.7-1.6 9.5 2.2 15.4-1.3-.8-2.1 4.7 1.2 3.2zm127.4-35.3c12.3.1 22-4.8 30.8-4.3-.8 1.2.2 2.8 1.4 3.1-.8 3-2.2 5.7-2.6 9-2-1.3-.2 1.2-2.4 1.3-2 7.4-8.5 8.5-8.7 16.8-2.4-1.1-.9 4-3.6 4.4 1.8 5.5 1.4 6.4 1.9 11.3 8.4-2.4 12.2-2.8 15.2-5.9 1.9 1.7.4.2 2.5-.6.3 1.7 1 .9.6-.2 5.3 2.4 11.7-4.9 12.6 3.1.1.7-2.8 1.2-.7 2.9-4.3.9-4.8 3.5-9.3 3-.2 3.7-2.8.2-3.3 2.9-5.1-1.9-14.2 6.6-20.2 4.4-.6.2-.3.9-.3 1.5-6.4-.8-3.4-9.3-5.5-12.5 2.6-3.7 3.1-11.7 4.5-17.8 1.1.8 4.2-5.4 1.5-5.3 1.9-1.7 3.5-3.7 3.8-6.5-4.2-8.2-15 2.3-18.9-1.5.9-2.2.6-3.5-.7-6.1.9-.7 2.4-1 1.4-3zm-25 13.6c0 3.1 1.8 3 2.4 4.9-2.2 7.6-6.9 13.5-8.3 21.6-1.5-.8-.8.3-2.5.6-1.4 6-6.1 12.2-2 17.2 6.4-4.3 17.7-4.6 24.9-7-.8 4.1 1.6 6 .7 8.9.5-1.5-4-1.7-1.2.3-11.1 1.3-22 7.8-28.2 7.1-5.2-7.6-1.1-12.6-2-20.3 2.9-2.4 4.1-6 3.5-10.6 4.1-2.3 3.4-5.5 3.9-9.3-4.3-5.7-14 3-19.7.8-.4-2.6-1.1-4.9-2.1-6.4 3.7-4.2 23.2-2.9 30.6-7.8z" fill-rule="evenodd" clip-rule="evenodd" fill="#fff"/></svg>