<svg xmlns="http://www.w3.org/2000/svg" viewBox="0 0 529.9 496.8"><path d="M60.5 284.3c.1-2 .2-4 2-5.3 111.9-34.8 205.3-90.9 273.7-154.4-5.4-12.2-10.8-24.4-16.3-36.7-5.2-35.4 79.7-64.7 71.3-7.5-3.2 21.3-39.8 33.6-49.9 50.7-1.1 8.8 12.4 17.8 10.4 28.3-8.3-.8-10.6-17.3-18.9-17.9-42.1 24.3-71.4 53.5-109.6 79.3 42-3.7 86.6-14.6 131.4-25.4 8-6-1.8-18.9 1.2-26.9 9-3.1 4.1 18.3 13.4 20.4 15.1 11.9 53.1-14.7 70.2-4.9 43.3 24.8-25.6 77.2-52.3 45.2-5.5-9.7-6.6-17.7-9.6-26.5-91.6-1.9-205.9 53.4-302.7 103.7 7.9-12.3 26.8-19.7 44.4-28.4 21.5-10.8 49-17.9 57.2-34.2-35.1 4.3-81.6 38-115.9 40.5zM383.1 62.1C368 37 311.7 73.7 334.6 101.2c21.8 26.2 61.5-17.3 48.5-39.1zm62 134.9c-13-23-75.4 7.4-49.1 32.7 16.5 15.9 62.4-9.3 49.1-32.7zm-74.9 95.9c-7.8 12.2 1.9 9.3-9.1 18.2.5-2 .9-3.9 2.7-4.6-4-3.6-3.3 6-3.8 9-4.3-7.9-8.2 15.3-20.3 19.5 1.9-6 15.6-17.5 12.6-16.4-7 4.5-11.4 11.6-17.4 17 1 3.2 2.6-2.2 3.5 1.7-2.9 6.2-5.8.2-7.7 3.1-26.9 41-99.8 82-153.7 108.3 56.5-3.4 120-42.7 139.8-76.8 2.8-.9 3.5 1.6 1.9 1.9 15.2-21.5 46.6-46.1 67.3-72.1 7.2 15.6 14.2 31.5 28.6 34.7-7.8-11.4-12.9-25.2-21.4-29.3 8.5-2.3 7.7-14.1 15.7-16.8 11.4 2.1 6.7 28.2 18.8 33.9-3.5-29.1-21.6-68.5-45.3-64.6-7.6 1.3-11.1 12.5-18.9 17.2-11.8 7.1-29 6.9-44.2 9.7-67.1 12.5-144.5 37.6-172.5 74.4 55.9-41.6 132.9-61.7 223.4-68z" fill-rule="evenodd" clip-rule="evenodd" fill="#f7f7f7"/></svg>