<svg xmlns="http://www.w3.org/2000/svg" viewBox="0 0 529.9 496.8"><style>.st0{fill-rule:evenodd;clip-rule:evenodd;fill:#f7f7f7}</style><g id="Слой_2"><path class="st0" d="M212 212.7c5.9-2.4 11.6-3.6 17.1-3.3 1.5-6.7 4.3-13.2 13-18.9-2.7 6.2-8.1 11.9-6 18.7 7.5 1.9 15.4.4 22.2 7.4-1.2 1.4-3.4 0-5.2-.2-5.9-.6-16.1-2.8-22.6 3.5-4.3 4.1-6.1 10.9-7.1 16-.3 1.4-.1 3.5-1.5 4.1-4.2-9-4.5-17.5 5.2-24.6-4.5-4.6-10-2.3-15.1-2.7z"/><path class="st0" d="M218.5 178.9c1.8-1.4 3.6-2.7 5.4-4.1 10.1-5.7 17.5 4.7 26.4 3.7 4.1-.5 7.7-2.9 11.2-3.9 3.9-1.1 9.1-1.9 13.2-.4 8.7 3.1 19.7 17.8 22.5 27.8 1.3 4.5.1 9.3.8 14.4 1.8 11.8 8.7 25.6 15.1 39.4 6.7 14.3 14.6 29.1 23 40.5 2.5 3.3 6.1 6.1 6.8 10.4-6.4 6.1-12.1-1.4-16.8-4.9-10.7-7.9-20-15.2-31.8-22.8-4.6-2.9-12.2-8.9-16.7-5.5-4.8 3.6.3 14.3 3.9 19.7 4.7 7.2 11.4 14.5 16.9 22.4 3.4 4.9 13.7 17.6 8.5 21.2-3.3 2.3-10.1-3.8-14.5-7.2-14.3-10.9-27.5-23.6-41.7-33.9-9.1-6.6-19.4-11.2-28.5-17.7-9.4-6.8-18.9-12.6-28.3-19.4-1.4-1.9-2.9-3.8-4.3-5.8-.8-2.4-2.3-5.7-2.6-8.1-1.5-12 1.6-24.8 13.3-33.7 2-1.5 4.9-2.4 6.6-4.5 2.6-3.1 2-10.8 3.6-15.3 2.1-5.4 5.1-9 8-12.3zm76.3 75.1c-2.2-2.2 2.5-7.5 3-9.3 2.8-9.7-4.4-16.1-8.3-26.9-1-2.8.8-6.3.5-9.9-.6-7.9-5.8-23.5-14.4-28.4-7.9-4.4-16.1 5.2-25.1 5.4-7 .2-11.9-6.4-19.1-6.6-6.3-.2-14.2 5.1-16.8 11.7-2.2 5.5 1 13.6-2.3 18.3-4 5.8-9.6 6.1-13.9 9.5-8.5 6.7-11 19.9-6.5 28 4.9 8.9 11.8 12.8 18.3 16.9 4.7 2.9 9.3 6.3 13.9 9.1 9.3 5.6 19.9 5.1 28.5 11.7.2 1.4-.3 2.6-2.2 3.7 13.7 6.4 27.9 20.2 40.5 33.7 4.2 4.5 8 10 13.5 11.9-2.7-15.7-23.8-33.1-33.1-49.9-5-8.8 7-19 15.7-17.9 11 1.4 26.2 19.8 36.1 29.1 3.3 3.1 6.8 7.8 11.1 6.7.5-4.9-3.9-8.7-6.8-13-9.1-13.4-18.3-27.6-25.1-39.9-1.8 2.1-4.5 9.2-7.5 6.1z"/></g></svg>