<svg version="1.1" id="Слой_1" xmlns="http://www.w3.org/2000/svg" xmlns:xlink="http://www.w3.org/1999/xlink" x="0" y="0" viewBox="0 0 329.1 329.1" xml:space="preserve"><style>.st2{fill:#fff}</style><path fill="#ee7d00" d="M0 0h329.1v329.1H0z"/><defs><path id="SVGID_1_" d="M0 0h329.1v329.1H0z"/></defs><clipPath id="SVGID_2_"><use xlink:href="#SVGID_1_" overflow="visible"/></clipPath><g id="Слой_2_8_" clip-path="url(#SVGID_2_)"><path class="st2" d="M323.7 158c2.4-4.6 5.1-8.7 7.7-11.2 10.9-10.8 19.9-7.6 33-10-8.1-10.2-23.3-16.5-33.1-26-3.8 9.3 5.6 12.3 4.5 19.3-.6 3.8-11.8 12-14.4 15.3-1.2 1.5-2.2 2.9-3.2 4.4-15.5-21-35.6-36.2-55.9-54.3-23.6-21-56.5-40.6-36.4-92.9l.3-2.5c5.3-12.2 21.2-32.8 17-48.8-15.9 4.2-76.9 61.3-89.7 74.6-15.7 16.2-83.8 69-97.9 100.3 26.5 2.5 54-8.6 82.1-5.3 35.3 4.1 64.8 15.5 90.3 37.2 2.9 2 5.8 4 8.8 6.2-.3.1-.8.3-1.2.3-2.5-2.1-4.9-4.2-7.1-6.1-.2-.2-.3-.3-.5-.4-11.4-7.6-21.8-13.5-27.1-15.6-23.1-8.7-44.3 2.1-62.9 17.1-56.3 45.5-16.2 109.6 37.2 137.6 28.5 15 60.6 17.5 89 10.4 1.4 1 2.7 2.1 4.1 3 .3-.3 5.3-2.2 5.9-2.3-.2-1.1-.4-2.2-.8-3.3 50.6-16.8 85.9-65.3 60.4-127.5-3-7.1-6.4-13.6-10.1-19.5zm-72.4 34.4c.6 7.1-1.1 15.7-4.1 24.3-1.7-2.1-4-3.6-6.3-4.3-.5-10.3-6.8-20.5-14-30.2 1.5-1.5 2.8-3.1 4.2-4.7 6.9 5.1 13.7 10.2 20.2 14.9zm-13.6 42.2l.9.9c-1.5 2.5-2.9 4.9-4.4 7.1 0-1.2.2-2.3.5-3.4-.5.8-.9 1.5-1.4 2.4-.9-3.1-4-5.3-6.8-5.3.3-.9.7-1.8.8-2.7.7-10.2-10-19.3-23.2-28.9 2.1-2.2 4.2-4.4 6.4-6.5 8.1 8.3 15.1 15.7 20.5 19.9-2.7 5 1.6 15.2 9 14.6-.3.7-.7 1.3-1 2-.7-.2-1.4-.3-2.1-.5l-.4 1.7c.5-.6.9-1 1.2-1.3zm-17.1 22.5c-.7-4.4-6.2-6.8-11.2-6.5l-1.4 2c-.5-.3-1-.8-1.5-1.1.2-.2.3-.3.6-.5l-.9.3c-7-5.2-14.2-9.3-21.6-13.1 1.4-2.8 2.7-5.6 3.9-8.5 7.8 6.2 16.9 12.8 24.8 14 2.9.4 5.9 0 8.4-1.7 0 .3-.1.4-.1.7l.1-.7c.1-.1.3-.2.3-.3l.1-.1c.6 4.4 2.7 9 5.6 9.1-.2.2-.3.4-.6.6-1.9 2.2-4.1 4-6.5 5.8zM169 230.5c-10.1-4.5-27.3-12-33.6-21.4.3-2.6.6-5.1 1.1-7.7 2.1-.7 4.3-.8 6.8-.4 10.3 1.3 22.9 11.5 31 16.9.9.6 2.1 1.5 3.4 2.6-2.7 3.6-5.1 7.2-7.4 10.6-.6-.2-1-.4-1.3-.6zm32-22c13 9.7 22.8 19.1 21.4 24.4-.3 1.5-1 3.1-3.2 4.8-1.2.9-2.7 1.2-4.9.9-6.2-.8-15.3-7.4-23.3-13.8 2.4-5 4.6-9.5 6.9-12.6.9-1.2 1.9-2.5 3.1-3.7zm-35.6-49.6c9.2 4.3 23.4 17.1 36.2 29.9l1.5 1.5c-2.5 2.6-5 5.3-7.5 8.1-1.8-1.3-3.5-2.5-5.3-3.8-15.6-10.3-30.4-21.6-34.4-28.9 3-3 6.2-5.2 9.5-6.8zm57.7 27.2c6.8 9.2 12.5 18.5 12.7 26.8-.5.3-.9.7-1.4 1.1-4.4-3.8-11.8-11.2-20-19.5 2.9-2.8 5.9-5.6 8.7-8.4zm9.5 33l1.2.9-1.3 1.2c-.1-.8 0-1.5.1-2.1zM220.4 174c-2.1-2.7-4.2-5.2-6.2-7.6 2.9 1.7 5.9 3.6 8.8 5.6-.8.6-1.7 1.2-2.6 2zm-16.5-13.2c3.4 5.2 8 10.8 12.5 16.5-3.2 2.7-6.4 5.8-9.7 9.2l-1.4-1.4c-11.5-11.3-23.3-22.7-33.5-28.7 10.3-2.9 21.2-.5 32.1 4.4zm-53.4 10.5c.5-.6 1-1.3 1.5-1.9 5.6 9.7 20.7 19.1 35.1 29.4 1.6 1.1 3.2 2.2 4.9 3.3-3.9 4.6-7.9 9.4-11.5 14.1-1.4-1.1-2.6-2.1-3.6-2.7-7.8-5.1-20.5-15.9-33.1-17.8-2.1-.3-4.1-.3-6.1 0 2.6-8.7 6.8-17 12.8-24.4zm-15.4 45.5c8.9 8.9 23.5 14.3 31.6 18.4l.6.3c-6.4 10.3-10.5 19.5-10.7 25.2 11.1 4.4 19.2-5.6 25.7-18 6.9 3.5 13.6 7.3 19.9 12-.6 1.5-.5 3.3.3 5.7l.8-1.1c-.1-1.2 0-2.3.4-3.5.4.3.9.7 1.3 1l-1.7 2.5c.2 2.3 1.1 4.4 2.6 6-11.1 5.3-22.8 9.6-31 16.9-2.3-1.2-4.4-2.4-6.5-3.7-21.1-13.3-33-37.4-33.3-61.7zm53.4 71.4c13.5-4.9 30.5-17.4 41.3-26.8 1.5 11.8 9 23 18.4 32.7-19.2 3.8-41.4.7-59.7-5.9zm75.2.7c-8.6-11.5-20.4-24-26.1-34.9.3-.3.7-.7.9-1 2.8-3.2 5.2-6.8 7.2-10.5 11.6 11.1 27.2 24.7 40.5 24.3-.4.9-.9 1.7-1.4 2.7-5 8.8-12.4 15.2-21.1 19.4zm23.4-23.9c-9.2-12.1-23.8-21.6-38.8-27.4 2.9-6.4 5-13.3 6.4-19.8.8-3.4 1.9-13.7 1.8-21.8 5.4 3.7 10.5 6.8 15.4 8.8.3-1.8 0-3.8-.8-5.8-9.9-11.9-21.9-22.7-32.5-31.7.3-.3.4-.8.7-1.1 14.6 10.9 28.3 23.4 31.9 32.8 16.1 19.5 26.6 42.2 15.9 66z"/><path class="st2" d="M236.4 236.6l.3-.9c-.9 1.1-1.5 2.2-1.9 3.4.5-.8 1.1-1.6 1.6-2.5zm-29.2 14.3c.7-.2 1.5-.3 2.3-.3l1.2-1.8c-1.5.6-2.6 1.3-3.5 2.1z"/></g></svg>