<svg version="1.1" id="Слой_1" xmlns="http://www.w3.org/2000/svg" xmlns:xlink="http://www.w3.org/1999/xlink" x="0" y="0" viewBox="0 0 329.1 329.1" xml:space="preserve"><style>.st2{fill:#fff}</style><path fill="#ee7d00" d="M0 0h329.1v329.1H0z"/><defs><path id="SVGID_1_" d="M0 0h329.1v329.1H0z"/></defs><clipPath id="SVGID_2_"><use xlink:href="#SVGID_1_" overflow="visible"/></clipPath><g id="Слой_2_2_" clip-path="url(#SVGID_2_)"><path class="st2" d="M244.5 250.7l.7-.5c0-.1-.1-.1-.1-.2-.2.1-.5.4-.6.7zm3.4-2.4l7.8-5.4c-1.8.7-3.9 1.7-6.2 2.9-.7.6-1.4 1.2-2 1.7 0 .3.2.6.4.8z"/><path class="st2" d="M320.8 244.1c-11.3-13.3-28.6-14.8-30.4-34.4-9.8 14-20.9 17.9-32.4 2.2-10-13.7 2.4-24.1 15.9-25-11.1-4.1-20.4-3.7-28.8-13.4-8.9-10.2-13.2-19.6-26-26.2-10.3-5.3-21.5-8.3-33-7.8-2.3.1-4.5.6-6.7 1.2-11.1-7.4-23.7-13.3-33.9-22-9.9-8.5-19.4-18.8-30.1-26.9-9-6.8-19.1-18.2-29.6-21.9 3-3.6 6.5-6 8.1-10.8-8.4-2-19.9-5.6-25.4-12.9C57.7 31.7 81 41.6 85.8 39c13.6-7.4-3.3-23.5-11.6-25.6-12.1-3-23.7 6.2-30.4 15.8-7.2 10.3-8.8 23.2 1.3 31.9 7.5 6.5 21.1 12 24 22.6 4-1.9 7.5-4.4 11.4-6.8 12.5 15.8 24.3 31.8 37.6 47 11.1 12.7 28.8 35.3 12.6 50.4l-3.5.6c1.3 5.2 4.2 8.4 8 10.3-5.9 6.1-11.9 12.3-14.2 21-3.5 13.3-.3 29.5 8.5 39.4 9.2 10.3 21.3 15.7 18.2 31.9 5.1-5.5 9.7-15.5 16.5-18.6 9.2-4.2 15.3 3.1 18.6 11 2.7 6.6 5.4 16.6 3.2 23.7-3 10-11.4 12.3-18.1 4.7 7.9 11.2 10.9 19.6 14.8 32 4.1 13.2 9.3 29.3 17.6 40.8 20 27.3 54.2 19.6 78.9 7 23.8-12.2 49.4-32.3 60.9-56.6 13.6-29.1.3-54.4-19.3-77.4zm-71.6 12.1c-2.2 1.7-4.6 3.3-7 4.9 14 16.9 27.9 34.3 39.9 52.6-17.1-8.9-29.2-33.8-41.9-51.3-2.1 1.4-4.3 2.7-6.5 3.9 12.1 15.9 23.6 32.4 34 49.3-14.2-11.1-28-28.3-40.3-45.6-5.6 3.1-10.3 5.5-12.6 6.9.8-4.2 4-8.7 8.4-12.9-6.3-9.2-12.3-18.4-17.5-26.5-15.2-23.5-40.7-48.6-51.3-74.4-.4-1.4-.6-2.7-.2-4.2.6.3 1.4.6 2 .9 6.7 11.2 13.6 22.3 21.6 32.4 6.6 15.5 22.1 31.7 31.6 43.3 6.4 7.8 12.8 15.7 19 23.8 1.9-1.6 3.9-3 5.9-4.4 0-.1-.1-.1-.1-.1-13.2-14.6-25.4-29.8-37.1-45.8-3.3-4.3-6.5-8.9-9.8-13.4-.2-.6-.5-1.2-1-1.8-4.8-5.6-9.2-11.6-13.3-17.6 3-.8 8.6 3.8 12.9 8.6 15 16.6 24.3 37.4 38.4 54.6 3.9 4.8 7.9 9.6 12 14.4 2.8-1.9 5.5-3.5 8.2-5.1-3.6-5.4-7.2-10.5-10.9-14.6-13.2-14.6-25.4-29.8-37.1-45.8-3.3-4.3-6.5-8.9-9.8-13.4-.2-.7-.5-1.2-1-1.8-4.8-5.6-9.2-11.6-13.3-17.7 3.1-.8 8.6 3.8 12.9 8.6 15 16.6 24.3 37.4 38.4 54.6 7.7 9.5 15.7 18.9 23.7 28.5.8-.5 1.6-.9 2.5-1.3 3.3-2.7 7.1-4.9 10.5-6.7 1.9 4.2-1.6 9.3-7.7 14.5 10.2 12.7 20.2 25.8 29 39.3-13.1-6.6-23.1-22-32.5-36.7z"/></g></svg>