<svg xmlns="http://www.w3.org/2000/svg" xmlns:xlink="http://www.w3.org/1999/xlink" viewBox="0 0 329.1 329.1"><path fill="#ee7d00" d="M0 0h329.1v329.1H0z"/><defs><path id="a" d="M0 0h329.1v329.1H0z"/></defs><clipPath id="b"><use xlink:href="#a" overflow="visible"/></clipPath><g clip-path="url(#b)"><path d="M245 169.9c-4.7-12.7-12.8-32.5-15.1-45.4s-13.8-27.5-24.3-20c-10.4 7.6-2.3 20.1-2.3 20.1s-41 41.2-57.7 76.5-30 58.3-39.2 56c-9.2-2.3 2.3-23.7 2.3-23.7s9.2-8.1 8.1-15.8c6.9-6.6 11.6-19.3 9.8-26.3 10.4 1.1 20.2-16.3 17.9-24.6 7.5-8.3 12.1-22.7 12.1-22.7l13.3-25 4.6.6s-2.6 3.1.7 5.1c3.4 1.9 8.6-10.6 7.8-12.9s-4.5-1.6-6.4 1.8c-2.4-.2-3.4-1.8-3.4-1.8s5.7-16.6 8.6-18.9c3.1 1.4 3.6 2.6 3.6 2.6s-3.1 5.2-.5 6.6 9.3-8.8 9.5-12.1-3.4-3.4-5.7.2c-2.9-.9-4.3-2.4-4.3-2.4l9.1-18.6 4.5 1.2s-3.4 4.1-.7 5.7 5.9-2.4 7.6-5.5 2.4-7.6 0-8.1c-2.4-.4-5.5 3.1-5.5 3.1l-3.1-2.1 9.5-21.9 4.1.7s-2.4 5.9.9 7.1c3.3 1.2 5.9-5.2 8.1-9.8 2.1-4.5-.7-8.1-5.5-3.6-3.4.5-4.1-.9-4.1-.9s17.8-34.3 20.2-43c2.4-8.8 6.6-21.9-7.3-27.3-14.1-5.5-30.5-12.8-34.2-17.3-3.8-4.5-6.4-4.3-10.5-2.9-7.8-5.2-11.6-8.8-15.2-10.1-4.3 7.1 0 10.8 5.8 13.1s11.6 6.4 11.6 6.4-3.5 5.8 0 8.1 9.2 0 9.2 0 11.6 13.3 15.6 18.5c4.1 5.2 4.6 12.7-11 43.9s-57.2 102.7-73.9 127.9-37.6 41.8-46.2 61.5c-8.6 19.6-26.5 38-14.4 66.4 12.1 28.3 43.3 28.3 65.2 18.5 22-9.8 50.8-46.2 58.3-61.2s30-40.7 34-41.7 4.6 2.5 7.5 10 10.3 14.5 15.6 11.8c5.4-2.7 10.2-35.1 5.4-47.8zm-105.3-27.7c7.6-.5 9.5 5.5 9.1 9.8-.5 4.3-6.9 10.1-11.3 9.3-4.1-.7-5.9-4.8-6.1-6.9-.2-2.2.8-11.7 8.3-12.2zm-15.4 30.5c2.1-2.9 7.6-6.9 10.7-5.7 3.1 1.2 3.6 7.6 0 12.1s-10.6 7.7-12.7 3.8c-1.6-2.9-.1-7.4 2-10.2zm-11.4 17.1c6.9-1.1 13.8 7.6 5.7 14.7-8.1 7.1-16.4 1.5-16.8-3.6-.3-4.7 4.2-9.9 11.1-11.1zm-1.9 25.4c3.4 10.5-11.6 13.3-14.8 9.8-6.6-7.4 11.5-20.3 14.8-9.8zM99.5 244c-8.5 9.4-20.1-3-15.9-9.8 7-11.1 24.5.4 15.9 9.8z" fill="#fff"/></g></svg>