<svg xmlns="http://www.w3.org/2000/svg" xmlns:xlink="http://www.w3.org/1999/xlink" viewBox="0 0 329.1 329.1"><path fill="#ee7d00" d="M0 0h329.1v329.1H0z"/><defs><path id="a" d="M0 0h329.1v329.1H0z"/></defs><clipPath id="b"><use xlink:href="#a" overflow="visible"/></clipPath><g clip-path="url(#b)"><path d="M379.9 145.5c-6.7-10.9-7.9-26.9-8.8-39.7-27.4 8.5-47.5 20.6-76.1 26.6 23.9-14.4 84.1-69.6 44.5-98.2-22-15.9-85.9 9.1-104 23.5C254 32.2 272-.5 284.6-30.1c-11.4-5-23.8-13.7-35.7-16.8-4.4 14.8-11.3 25.8-11.3 25.8-26.1 50.2-61.4 96.1-87.4 145.4-26.7-.9-54.4 5.4-80.8 10.1.5 8.8-.6 17.8-2.4 26-12 4.4-36.9 7.7-39.6 8.9-.9 5.2-1.9 23.6.3 28.8 6.6.9 18.9 1.1 29.4 2.5-1 13.9 7.8 24.5 12 36.4 5.5 15.6 10.9 33.8 13.2 49.8 2.9-1.4 3.9-2.2 6-4.4-6.6-19.4-3.5-43.2-5.6-63.6 8.5.2 12.2-6.9 12.1-14.1 23.2 1.5 47.3 7.8 69.4 11.2 21.6 3.3 43.4 4.3 65 6.3 0 4 .2 7.8.9 9.8 3.4 9.1 9.5 10 11.4 20.2 1.3 7 0 17.4-.4 25-.5 9.1-.3 22.8-3.6 30.4.9-.1 8.4-2.4 9.3-2.9.7-12.1 2.2-22.6 4.2-33.9.9-5.2-.5-12.1 1.8-17 2.4-5.1 8.1-5.8 11.5-9.8 4.8-5.7 7.2-10.5 6.4-15.8 10.9 2.1 17.6 3.7 28 7.8 12-14.1 26.6-29.4 41-44.8-.1 7 1.9 12.6 9.8 12.2-7.5 21.8-8.1 46.2-12.7 68.8 15.9-7.5 8-43.7 14.7-57.6 4.2-8.9 10.8-13.2 13.4-23 2.1-8.1.7-19-.1-27.8 5.4-6.3 10.6-12.4 15.1-18.3zm-99.8 59.1c-2.9 6.1-1.6 8.6-8.9 8.5-4.3-.1-8.8-1.4-13.3-2.6-25.5-5.2-30.8-5.4-30.8-5.4-26.8-4.6-53.7-7.5-80.6-10.5-6.5-.7-13-1.2-19.8-1.2-9.6 0-18.2-3.1-27.6-4.8-14.3-2.6-29.1-2.9-43.4-5-4.8-.7-14.1-.2-18.2-2.5-5.1-3-2.2-4.5 2.2-6.3 4.5-1.8 8.7-2.4 13.4-4 3-1 13.2-4.1 13.3-4.5 2.1.7 3.5.8 6 1.3-.4.3-.7.5-.9.8-2.8 1.7-5.5 3.8-7.2 5.7 1.7.2 2.9.9 5.7 1.2 3.5-1.4 6.6-3.1 9.5-4.5 1.5-.7 2.5-1.4 3.3-2.1 1.2.1 2.3.2 3.5.2-1.1.7-8.8 6.6-8.8 9.5 1.4-.2 2.8 1 4.5.5 3.7-2.4 7.3-4.3 9.5-6.2 1.9-1.5 3.4-2.7 3.6-3.6 1.8.1 3.5.1 5.1.2 3.6.2 7.3.5 10.8.7-4 2.7-8 5.9-10.2 9.6 1.7-.1 2.9.5 4.2.1 3.7-2 8-4.1 12-8l.9-.9c1.1.2 5.1.7 5.1.7h.5c-4.1 3-8.1 7.2-10.3 9.9.2.4.4.7.5 1.2 4.2-.7 12.4-6.2 14.6-10.4.7.1 1.3.2 2 .3-3.7 2.6-8 8.2-8.9 11.2 4.7-.1 7.5-4.2 10.4-7.5.7-.7 2.2-2 3.1-3.1 3 .5 10.8 1.7 11.3 1.8-3 2.6-5.4 5.7-5.8 7.6 1.2.7 2.5.5 5 .9 3.3-2.6 5-4.4 8.8-7.3.8.1 1.7.2 2.4.3-2.2 2.4-4.2 4.9-6.1 8 .2.5 1.3 1.9 1.7 2.2 3.9-2.4 7.7-5.6 10.2-9.5 2.8.3 14 1.4 14.4 1.4-.2.1-.3.3-.5.4-3.2 2.6-6.2 5.2-7.3 9.4 1.5 1.2 3.3 1.3 5.1.7 3.5-3.3 8.4-6.3 8.2-9.8 5.3.7 10.6 1.6 15.9 2.5-3.9 2.3-7.6 5.3-10 8.9 1.4.3 2.9.9 5 .5 4-2.9 8.1-5.2 10.8-8.3 1.4.3 2.7.5 4.1.7-3.7 3.3-7.4 7.6-8.1 10.1 4.4-.5 9.9-4.6 12.9-9.2 1.7.4 3.4.7 5 .9-2.7 2.9-5.3 5.9-7.5 9.4 4.6-1 9-4.6 12.7-8.5 3.1.6 6.2 1.1 9.2 1.6s5.9.9 8.9 1.3c-3.3 3.2-6.9 6.8-8.3 8.9 1.2 0 3 .5 4.2.7 4.3-1.7 8.7-4.4 12-7.2.6-.5.9-.8 1.4-1.3 3.5.4 7.2.6 10.8.7-2.3 1.8-4.7 3.7-6.4 5.3-4 3.5-5.3 6.5 1.3 6.6 7.4-5 11.5-8 15.5-11.5 4.5.5 8.9 1.2 13.4 1.1-.3.5-3.7 9.5-5 12.2z" fill="#fff"/></g></svg>