<svg version="1.1" id="Слой_1" xmlns="http://www.w3.org/2000/svg" xmlns:xlink="http://www.w3.org/1999/xlink" x="0" y="0" viewBox="0 0 329.1 329.1" xml:space="preserve"><style>.st2{fill:#fff}</style><path fill="#ee7d00" d="M0 0h329.1v329.1H0z"/><defs><path id="SVGID_1_" d="M0 0h329.1v329.1H0z"/></defs><clipPath id="SVGID_2_"><use xlink:href="#SVGID_1_" overflow="visible"/></clipPath><g id="Слой_2_7_" clip-path="url(#SVGID_2_)"><path class="st2" d="M197.1-41.8L26.7 196.4l166 118.6L363 76.8 197.1-41.8zm-3 310.2c-8.4-1.8-2-22.6-.3-30.5 2.9-12.6 7.5-24.8 9.5-36.1 1.7-8.6 2.5-24.2-5.2-26.2-7.2-2-13.6 9.2-17.8 15.2-10.7 15.2-18.6 28.9-27.6 43.9-4.1 6.5-7.3 18.8-18.2 14.5-1.4-5.6 1.8-10.9 3.1-16.2 4.7-18.3 6.9-40.3 8-61.5.9-20.1 2.5-40.5-1.2-56.1-1.6-6.7-5.5-12-6.1-18.2-1.6-13.7 4.6-37.4 13.7-45.5 4.3-3.9 11.1-5.5 16.5-6.1 4.7-.5 10.3.7 15.7-.8 11.4-3.3 15.3-19.7 30.6-17.8 2.9.8 5.9 1.6 8.8 2.4 5.1 2.7 10.7 5.5 15.7 11.2 4.2 4.7 7.5 14.5 12.2 17 3.1 1.6 7.3 1.4 10.5 2.2 18.8 5 29 19.2 33.3 34.7.8 3.1.7 8 .9 11.2-.9 3.1-1.7 6.1-2.5 9.3-8 13.1-16.9 25.1-25 38.1-7.8 12.6-18.2 23.5-26.2 36.1-12.3 19.7-22.2 42.2-34.3 62.6-3.7 6.9-8.9 17.7-14.1 16.6z"/><path class="st2" d="M238.8 178.7c-2.9-.4-4.1-1.7-4.6-3.4 7.3-12.4 20.5-17.1 29.2-28.6 4.3-5.8 8.2-12.2 12.6-18.2 5.9-8.2 12.4-16.6 14-29.9 1.4-12.3-8.2-27.2-22.1-31.3-7.1-2-14.1.4-22-4.7-6.4-4.2-6.5-15.8-12-21.3-6.5-6.8-19-9.4-26.5-6-8.8 3.9-11.5 14.5-20.1 17.8-11.2 4.3-26.2-3.4-33.6 6-8.1 10.2-6.7 32-3.4 42.1 1.4 4.7 5.5 8 5.6 12 .7 15.3-5 26.9 3.4 37.3 1.6 2 10.1 6.1 8.5 9.9-2.2 5.4-9-2.1-12.3-3.8-2.2 18.6-6.3 40.5-10.9 61.7-1.4 6.7-4.8 13.6-1.8 19.4 5.8-.8 7.7-8.2 10.2-13.9 7.5-16.5 17-46.7 29.8-53.9 10.1-5.8 29.9.7 28.2 14.1-3.1 25.4-20.3 57.4-15.7 78.1 5.9-5.1 7.7-13.7 10.7-21.4 8.6-23.1 19.2-47.3 32.8-62zm7.6-76.4c-3.9-5.8-9.4-13.2-16.7-16.1-11.1-4.3-22.5 3.4-29.6 7.2-2.1 1-4.1 3.8-6.3 2.7 4.8-11.9 15.3-14.3 23.5-20.3-.9-9.4-10.3-13.7-16.9-19.9 13.6 2.6 20.1 9.3 25.5 16.6 6.7-3.1 14.3-4.6 22.8-4.4-6.1 3-14 3-17.3 11 15.4 3.8 19.4 14.3 18.7 27.6-1.9-.2-2.8-2.8-3.7-4.4z"/></g></svg>