<svg version="1.1" id="Слой_1" xmlns="http://www.w3.org/2000/svg" xmlns:xlink="http://www.w3.org/1999/xlink" x="0" y="0" viewBox="0 0 329.1 329.1" xml:space="preserve"><style>.st2{fill:#fff}</style><path fill="#ee7d00" d="M0 0h329.1v329.1H0z"/><defs><path id="SVGID_1_" d="M0 0h329.1v329.1H0z"/></defs><clipPath id="SVGID_2_"><use xlink:href="#SVGID_1_" overflow="visible"/></clipPath><g id="Слой_2" clip-path="url(#SVGID_2_)"><path class="st2" d="M-40.2 213.4c73.7-47.3 142.3-88.2 211-140.7-18-27.3 11.3-56.9 41.3-58.5-1.8 1.3-13.4 3.6-8 3.2 1.4 2.5 10.1 2.7 13.8-2.8-1.3-.6-5 .7-4.8-1.3 24.8-.9 27.4 10.5 35.5 27 10.7 21.5 28.7 62.1.6 77.3 4.6 6.3 2.1 11.5 6.4 16.9.8 1 4 .9 5.6 2.4 3.7 3.3 5.8 7.7 7 9.2 2.8 3.7 7.7 7.1 8.9 10.3 2.8 8.3 3.2 27.1-4.2 28.6-6.2 1.2-21.3-12.5-23.7-18.3-4-9.6-.8-19.9-3.6-27.3-1-2.9-3.3-.9-4.6-3.3-1.3-2.3 1.5-8-4.1-10-4.5 2-10.2-2.1-16.3-1.3-8.1 1.2-13.2 8.7-21.1 10.9-10.3 13.8-25.3 22.9-38.4 33.6-26.8 22.1-51.7 42.5-80.4 64.2-5.3 3.9-13.3 9.2-21.5 14.7-7.6 5.1-15 14.6-20.6 15.7-21.3 4.4-47.3-8.3-68.1-5.4-8.1-3.4-6.8-16.9-13-19.3.9-8.5 1.6-17.1 2.3-25.8zm6.1 19.8c-1.9 2.9 3.2 4.2.6 4.9-.2-1.1-2.6-4.7-3.7-2.3 2 2.1 7.3 6.4 6.1 8.3-3-1-3.9-3.9-6.4-5.4-1.2 10.7 5.6 13.9 8.5 14.2 1.6-2.3 1.8-3.4 2.3-4.6 1.2 3.2 4.7 9.1 8.1 7.4-8.7-4.5-8.8-21.2-15.5-22.5zM71 186.5c1.6 1.4 5.6 5.3 7.5 3.5-3.2-3.1-7.1-5.8-8.9-10.3 5 3.1 9 4.6 13 5.9-2-2.1-2.6-5.5-3.2-8.9 14.5-9 36.5-24.1 51.1-34.6 1.4-.9 8.9-6.5 9.4-7.9.3-.9-3.2-12.9-.7-15.5-1.4 0-3.6-.6-4 .7 2.5 1.4-2.6 2.4-3.2 3.6 2.8.7 4.3 2.3 4.4 5.1.3 6.8-15.5 6.7-11.6.1 1.9.7 2.5 2.6 5.6 2.3.2-2 2.7-1 2.3-3.7-2.1.3-5-3.4-5.7-1.4 1.1.3 1.4 1.2 1.8 2-1.8-2.2-2.8.3-5.8-.5-1.2 4.6-5.6 5.3-8.4 8.1-.1-.8.1-1.9-.8-2-4.4 4.2-10.6 6.5-14.4 11.5 3.6.6 7.6-3.6 8.9-2.1-12.3 7.7-27 12.4-36.6 23.2.8.7 2.7 4.8.6 4.9-3.1-.4-3.2-7.9-6.4-5.4 2.2 1.9 3.9 4.4 5.2 7.1-2.6-2.4-4.1-.7-5.5-3.3-1.5 1.4-4.8.6-6 2.4-.6 4.6 5.3 3.8 5.2 8.1-3.1-2.1-6.3-6.6-6.7-1.5 1-5-8.2-2.9-6.7-.5-.5-.5 3.6 5.9 6.1 8.3-3.5-.9-4.7-3.7-7.2-5.4-.2 1.4.1 3.5-1.3 3.8 0-1 .2-2 .2-2.9-3 .4-1.9.5-4.8-.3-2.2 1.2 1 2.4-1.2 2.8 0-.6-.1-1.2-.8-1 .4 4.4 4.8 5.4 6.1 9.2-2.5-1.8-4.5-4-7.3-5.4.4 1.7-5.5 3.8-3 .6-2.5 0-3.5 1.5-5.1 2.5 1.8 1.9 6.6 5.7 5.2 7.2-1.9-1.4-3.5-3-5.5-4.3-.2 1.4.1 3.5-1.2 3.7.1-.9.2-2 .3-2.9-2.9.6-3.4.9-4.7-1.4-2 1.6.2 2.8.6 4.8-1.4-.3-1.5-1.7-2.8-2.1-.6 3.8 6.2 5.9 4.2 8.1-1.9-1.4-2.5-3.8-5.5-4.3 0 5.8-2.4-.4-5.8.5-.5 1.5 1.2 2.5-.2 2.8 0-1-1.6-1.3-1.9-.1 1.8 1.8 6.6 5.6 5.2 7.1-3.1-2.1-6.3-6.6-6.6-1.4-.4-2.4-4.3-2.1-5.7-1.4.5 0 1.1.9 0 1-1.1 0-1.3-1.5-1.9-.1 1.8 2.4 6.6 6.9 6.1 8.3-2.4-1.6-4.2-3.6-6.4-5.4-.2 1.5 0 3.6-1.3 3.8.4-3.3-3.3 0-4.6-3.3-1.2 2.3 3.8 3.6.6 4.9.8-2.5-1.8-2-2.6-3.1.3 4.4 4.8 5.4 6.1 9.2-2.8-1.5-4.8-3.7-7.3-5.4-1.6 2.1 2.1 3.9-.3 3.8-.9-4-3.5-1.7-5.6-2.3 1.3 1 1.6 2.7 2.6 4.1-1.4-.4-3.7-4.5-4.7-2.3 2.1 2.2 7.2 6.3 6.1 8.2-2.4-1.6-4.2-3.6-6.3-5.3-.2 1.5.1 3.5-1.2 3.7-.1-2.8-2.6-.8-4.6-3.3-1.5 2.3 3.6 3.4.6 3.9.1-1.4-3.4-4-3.6-2.2 2.6 1.9 6.7 7.3 6.1 9.2-2-2-3.6-4.1-6.4-5.4-.5 1.7 1.3 2.5-.2 2.9-.9-3.9-2.9-1.3-5.7-1.4 1.3.4 1 2.2 1.7 3-1.3-.4-1.5-1.7-2.7-2.2-.1 4.5 5.1 4.6 5.1 9.1-2.5-2-4.4-4.7-7.2-6.3-.7 8.2 5.8 14.1 7.5 15.1 4.1-.7 2.7-1.7 4.2-4.6 1.2 4.1 4.9 6 8 8.4-1.4-6.6-8.7-8.1-9.4-15.2 2.2 3.8 6.3 3.4 8.2 5.5 3.1-.9 0-2.5 2.2-3.8 1.3 2.8 6 7.3 8.1 6.4-3-5.8-12.6-10.8-10.2-18.2-.3 7 7.9 12.3 11 6.6 2.1 2.5 6.8 7.2 9.2 6.5-2.8-5.6-9.4-8-11.5-14.4 2.5 2 4.9 4.2 8.2 5.5 1.1-2.8 1.7-3.5 2.3-4.7 1.5 3 5.9 8.1 9.2 6.5-3.1-3.6-9.6-9.1-9.6-12.4 1.4 3.2 7.1 1.7 4.4 4.3 3.6 1.1 3.6-2.1 6-2.4 1.7 1.9 5.6 6.5 8.3 4.5-3.2-4.4-9-6.6-10.6-12.4 4.1 2.6 7.1 5.8 12.3 2.9 2 1.7 5.8 6.3 8.4 4.5-5-3.8-9-8.5-12.4-13.5 4.4 4.4 6.5 1.9 9.2 5.6 2-1.6-1.1-3.1 2.2-3.7 2 2.1 7.1 6.5 9.2 5.6-4.2-4.8-9.6-8.5-12.4-14.5 2.1 2.6 5.5 4.2 9.2 5.6.6-1.1 1.3-2 2.2-2.7 2.5 1.5 6.1 6.6 9.3 4.6-3.3-3.2-10.1-8-9.8-11.4 2.8 2.9 5 .9 7.4 4.5.3-1.7.9-3.2 2.3-3.7 1.6 2.6 7.4 6.1 9.2 5.6-3.1-3.8-10.3-9.1-10.6-12.5 2.9 1.5 5.3 4.9 5.7 1.4.9 4.1 3.1.3 5.7.5 1.6 1.6 5.7 5.8 7.4 4.5-3.5-4.2-8.1-7.5-10.6-12.4 3.3 2.7 7 4.1 10.5 1.4zm129.4-122c-1.5 3.3-1.7 1.8-5 2.5 0 12.9 4.7 21.6 10.2 29.8 10.1-.9 10.9-12.9 21-8.9 7.1-3 12.4-8 19.2-11.1 2.9-27.8-28.1-35.2-26.5-56.2-5.5-.8-9.4.1-12.6 1.9 3.1 3.2 9.5 7.8 6.7 13.1 1.7.3 3.2.9 3.7 2.3.4 4.8.6 16.9 4.2 19.6 2.2 7.7-5.1 12.5-4.4 18.9-1.1-.3-.5-1.2.2-2-6.1.8-9.2-7.2-16.7-9.9zm-15.3 22.9c-8-.6-11.3 7.1-15.5 13.3-3-1.9-6.2 5.2-6.8.4-4.8 5.7-9.6 6-14.3 10.4 2.3 4.3 4.6 8.6 7.8 12.2.3-3.5.2-7.4 4.3-6.4-.4 1.2-.3 6 .7 3 11.3-8.2 20.9-17 32.6-21.5-1.7-3.4-2.9-14.8-7.5-15.1 3 1.6-4.5 1.4-1.3 3.7zm-42.3 45.9c2-4.5 4-3.6 7.2-5.2 3.7-14.1-13-7.8-7.2 5.2zM124.3 275c-2.4-1.1-2.6-4.8-3-5.8 1.4-1.1 1.9.5 3.6-1 .7 1.5 1.5 2.9 2.3 4.5-1.3-.4-3.6.6-2.9 2.3zm13.8-7.7c-2.1.2-1.7-3.3-2.3-4.5 1-.4 1.8-.8 1.6-1.6 1.9-.1 3.2 1.2 4.2 3.6-.9.8-4.1 1-3.5 2.5zM113 279.9c-1.8-.6-1.4 1.4-3.8 1.9-.9-1.7-1.7-3.4-2.6-5.1 1.3-.6 2.6-1.3 3.8-1.9.9 1.6 1.7 3.3 2.6 5.1zm17.1-9.4c-1.5-1.7.2-2.5-1.3-4.2 1.8.6 1-.9 3.2-1.7 2.8 1.9 2.2 4.8-1.9 5.9zm98-63.9c-.2 1 0 2.2.9 3.5-1.1-.2-1.6.1-.9 1.3-2.2 1.8-3.5.7-5.5 2-.9-3.1 2.3-4.9 5.5-6.8zm-13.2 2.7c2.1.2 2.5 4.4 2.9 5.8-2.6-.4-1.2-4-2.9-5.8z"/><path class="st2" d="M-13.9 308.9c9.5-3.1 12.9-7 22.2-10.3.4.7-.1 1 0 1.6 7.2-2.2 13.8-8.5 21-9.7 5.4-1 10.7 3.2 14.9.6-4-.6-8.3.3-11.9-1.2 19.6-8.5 49.4-22.3 66.5-28.5 1.4 2.7 2.6 5.3 2.3 6.1-2.1 1.9-2.3-1.6-3.9-1.3.4 1 1.4 2.3.7 2.9-18.5 8.4-39.6 16.3-53.9 24.6-12.7 3.2-37.2 17.3-53.9 23.1 1.8 3.5 3.4 6.9 5.3 10.3 35.9-17.6 77.5-38.8 113.6-53.9-2.5-2.9 4.7-.1 8.4-2.5-9.7 1.8 4.9-4.3 8.1-3.3-12.1 3 8.1-8.8 10-5.8-2.9-2.3 14.7-8.8 6.8-4.2 2.7 1.2 4.3-2.5 4.5-3.9 2.4-.8 3.7 1.9 6.7-1-2.1 1.8-4.7 3.5-1.2 7.2 2-.9.8-2.8 3.2-1.7 1.5-2.8-3.9-6-.3-8.7 1.8.7 2.8 4.5 4.2 6.8 2.3-.5 1.3-2 3.5-2.6 1.6-1.6-3.5-5.5-1.9-7.1 3.3-2.1 3.8 4.9 6.1 5.8.9-1.6 1.6-3.7 3.5-2.6 1.1-1.1-3.9-4.2-1.9-7.1 2.4-1 3.1 3.7 4.9 4.8 2 0 1.7-3.3 3.2-1.7 2.7-1.5-2.7-5.6-1.3-7.5 1.1-2.5 3.1 2.6 4.5 4.2 1.5-.7 1.3-2 3.6-2.5 1.6-1.4-3.3-5-1.6-6.5 3 1.5 6.1 5.8 8 1.6.8-2.5-5.2-5.7-.7-7.7 1 1.9 1.9 3.8 2.9 5.8 1.3-.6 2.3-2.9 3.6-2.5 1.2-1.5-2.7-4.9-1.7-6.5 6.8-2.6 18.9-20.4 28.1-13.3 2.3-1.2.8-3.7 2.3-5.2 6.7 1.1 4.2-8.2 9-6.2 3.4 1.8-3.4 4.1-2.2 6.8 11 3.3 20.6 21.3 32.1 28.3-5.8-10.2-16.4-19.9-24-29.9-.6-1.8 3.7-3.8 1.6-6.4-.5 1.1.8 1-.3 2.5-.6-.8-1.5-2.1-3.9-1.3.3-2.3 4-1.6 5.5-2 1-5.4-2.7-9.2-7.5-14.8-2.7-3.1-5.4-7.7-6.8-8.7-10-7.1-21.7 10.4-29.3 15.5 2.6 2.4 5.2 3.1 8.4.6-2 9.4-10.9 14.3-22.9 23.6-18.9 14.6-49.5 30.1-74.8 40.8-1 .4 0-1.2-1.3-.9-4.7 1.2-10.3 4.2-15.5 6.2-19.3 7-40.6 18.3-60.3 24.7 14.3-8.8 24.9-13.9 36.8-21.7-1.7-.4 2.1-1 0 0 1.4-2.3 3.8-2.8 1.9-4.1-22.1 7-51 21.3-70 30.4.1-.8 1.4-1.9 0-1.6-2.8-.1 0 .2-.7 2-6.1.9-14 7.5-20 8.4 2 3.4 3.9 7.3 5.8 11.2zm172.3-68.8c-1.9-.6-3.6-2.3-4.9-4.8 2.5-.8 3.6 2.6 4.9 4.8zm-7.1 3.5c-2.8-.5-4-2.8-4.2-5.2 2.3-.8 3 3.3 4.2 5.2zm-7 3.6c-2.6.6-3.8-3.9-4.2-5.2 2.2-.8 2.8 3.3 4.2 5.2zm-7.1 3.6c-2.3.8-2.9-3.2-4.2-5.2 3.2-.5 3.6 3.8 4.2 5.2zm-7.1 3.5c-2 .6-5.8-4.6-2.6-5.1.8 1.7 1.7 3.4 2.6 5.1zm-7.8 3.9c-2.1-.4-2.9-5-3.9-4.5-.2-.8 1.1-1.1.6-2 3.3 1.2 3.5 4 3.3 6.5zm42.3-22c-2 .1-3-2.9-4.2-5.1 2-.2 4.4 3.5 4.2 5.1zm-49.1 24.6c-1 .7-1.4-.1-2.3.3-1.1-3.3-2.7-3.9-1.3-5.8 2.4-1.5 3.8 4.5 3.6 5.5zm-6.7 2.6c-.9.5-1.7.9-2.6 1.3.2-2.2-2.9-3.4-2.2-6.1.8.1 1.5.2 1.3-.7 1.7 0 2.2 3.9 3.5 5.5zm61.6-33.4c-1.6.2-3.8-1.3-3.2-3.2 1.3.3 2.3 1.6 3.2 3.2zm13.5-8.4c-.4 2.5-4.8-2.5-4.2-3.5 2.1-.7 2.4 3.5 4.2 3.5zm8.7-5.1c-2.4.7-3-3.9-5.2-3.8 6.4-5.3 14.1-11.2 19.4-13 2.4 1.9-2.6 4.1.6 4.5-3.9 4.4-11.4 7.6-14.8 12.3zM30.9 283.9c-.1 1.9-4.4 2.5-6.1 3.9.2-1.9 4.4-2.4 6.1-3.9z"/><path class="st2" d="M116.3 278.2c-.9-1.9-2.5-4-2-5.5 1.1-1.6 3.3.4 2.6-1.3 1.6-.5 1.9 3 2.9 4.2-2.2.6-1.4 2.2-3.5 2.6zm32.8-16.5c-2.1-.3-3.9-.5-3.8 1.9-2.5-.2-1.4-3.6-2.6-5.1 1.3-.6 2.6-1.3 3.9-2 .8 1.8 1.7 3.5 2.5 5.2z"/></g></svg>