<svg version="1.1" id="Слой_1" xmlns="http://www.w3.org/2000/svg" xmlns:xlink="http://www.w3.org/1999/xlink" x="0" y="0" viewBox="0 0 329.1 329.1" xml:space="preserve"><style>.st2{fill:#fff}</style><path fill="#ee7d00" d="M0 0h329.1v329.1H0z"/><defs><path id="SVGID_1_" d="M0 0h329.1v329.1H0z"/></defs><clipPath id="SVGID_2_"><use xlink:href="#SVGID_1_" overflow="visible"/></clipPath><g id="Слой_2_3_" clip-path="url(#SVGID_2_)"><path class="st2" d="M186.7 53.6c2.4-1.5 4.6-3.1 7.1-4.6 8.4 4.4 20.2 4.6 22.9 16.3 5.4-.4 9.6-3.8 12.4.4-11 7.8-19.5-4-29-5-.8-3.1 2.4-3.1 3.2-5.1-1.4-3.2-1.6 2-3.6 2.3-2.6.6.1-1.8-3.1-2.4-1.8-.3-5.9 1.7-6.5 1.7-7.2-.5-15.5-2.4-22.9-1.1-6.1 1.1-13.3 3.6-16.5-2.8 10.3-9 19.7-1.8 32.8-3.1 2.9-1.1 1.6 3 3.2 3.4zm-18 111.4c1.8 4.4-4.7 5.2-6.1 4.5.1-2.9 3.1-3.8 6.1-4.5zM122 195.2c.3-2.4 3.8-4.4 5.2-3.5-.4.8-.9 1.6-.6 2.9-1.5.3-3.1.4-4.6.6zm-35 9c.4-1.3 8.2-3.3 7.5.1-2.2-.3-4.3-.9-7.5-.1z"/><path class="st2" d="M133.7 62.8c5.1 2 9.6-3.8 13.6-5.5 1 11.3 14.1 10.5 23.7 7.6.3 9.2 3.7 17.8 9.6 16.9-.4.8-.7 1.7-.6 3 4.5-1.4 11.5-1.9 17.6-4 .9 10.7 8.2 16.1 19.5 12-4 4-1.3 12.5 2.7 14.8 11.4-.2 14.9-6.9 21.5-11.1 7.5 10.8 10 23.4 9 36 .2.9 1.3.5 2.1.6-.6 9.4-10.2 16.2-10.5 23.1-.1 1.3-2.2 1-3.7 1.4-13.1 20-40.4 28.7-59.3 44.2-14.1-.3-30.7 4.6-39.5 11.4-6-7.3-9.4-4.8-19.5-5.2-5-.1-8-1.5-11.8-3.3-1.1-1.8 6.3-1 2.5-2.2.5-2.6 4.2.3 2.1 1.6 5.7-2.6 9.2.7 13.9-2.5-2-3.4-5.1-2-6.5.8 1.2-4.9-5.4-1-9.9-3.5.8-2.5 1-5.4 4-6.2 1.8 2.7.1 3.7 1.6 5.5 1.4-1.3 3.7-1.7 4.3-3.3 1.2.3 2.1.9 2.2 2.5 3.4.3 3.8-2.2 5.6-.6.8-.2 2.5-3.4.7-2.9.6-1.5 2.8-1.7 4.4-2.5-.8 1.4-2.4 2.2-2.4 4.1 4.3 2.3 6.1-4.8 11.8-4.3-3.6 5.3-12.2 8-17 7.7 1.9 1.8 3.5-.1 2.3 3.6.8-2.6 4.9-2.5 7.3-3.7-.1 2.8-3.9 2.6-5.3 4.5 3.9 3.5 12.4-.7 15.6-4.7.3 2.5 1.7 1.7.4 3.7 2.2-.6 3.9-1.4 4.3-3.4-.6-1.9-4.2.2-4.9-1.2-.4-1.7.9-2.1.5-3.9 1.1 1.8 3.4 2.3 5.1 3.2 2.1-1.8 1.8-5.3 4.9-6.3-5 2.8 5.9 5.5-1.1 6.8 3.5-.1 6.6.7 9.8 3.6-2.4-2.6-4.5-5.7-8.3-6.6-.4-3.5.8-2.8-.7-5.6-1.9 3.3-6.2-.8-8-3.8 1.3.8 2.1 2.3 4 2.4 5.7-7.7 9.4-6.9 18-8.8-.7-1.2-1.7-2.1-3.1-2.4-.3-3.3 3.2 1.6 2.6-1.3 1.7 0 2.4 1.4 2.3 3.6 8.2 1.6 8.6-6 4.5-9.1-1.9.1-.8 2.6-3.5 2.3-3.8-7.4 4.5-10.7 9.6-15.4-.2-3.4-4.7-1.3-4.4-5.2 1.1-2.9 5.9-.4 6.5-.8 6.4-3.9 4.5-13.7-5.3-12.8 1.8-4.2-3.3-4.9-1.1-9.3-1-.7-5.2-5.7-5-1.4-2.5-2.2-6-8.6-10.2-5.4-3-.6.8-2.6 1.5-3.1-.2-1.7-5.1-2.7-5-1.4-3.4-1.6 1.1-4.1 1.2-5.9-2.7.1-2.7 2.5-5.4 2.6.2-2.1-3.4-4.9-4.1-2.4-1.4-.2.3-1.3-.3-2.8-7.8-7-17.3-13.1-20.9-23.1-.3-1.6-1.8-1.9-3.9-1.5 1.9-3.2-2.7-9.1-5.4-5.9-2 0-.9-3.9-1.6-5.5 1.5.2 1.2 2.9 4 1.4-1.1-1.8-3.9-1.5-4.4-4.2.9-.1 1.9-.3 2.8-.3-.9-2.1-2.8-2.9-4.2-4.3 2.6-6.6-3.2-4.6 2.9-7.9-.2-.9-1.2-.7-2-.8 2.1-7.3 10.3-1.6 15.5-4.7-.6.1 8.6 8.2.8 11.1zm99.4 13.8c6.8-4.6 12.1 2 14.1 6.9-3-.2-9.4-5.2-14.1-6.9zm30.1 37.2c-4.2-8.4-6.2-19.3-11.7-26.1 5-1.3 10 16 11.7 26.1z"/><path class="st2" d="M246.4 235.4c10.9-8.7 19.3-25.8 26.1-44-8.3 59.4-59.8 88.8-130.3 92.4-58.4 3-120.8-7.4-160.1-29.3 6.5 2 16.8 8 27.5 8.1-3.5-.4-8.2-5.3-10.9-3.5-2.1.2.1-2.6 1.7-2.2-.4-2-4.2.2-5-1.4.1-5.5-7.6-9.5-12.7-11.8 2.1-3.6.2-6.6-4.7-7-.4-2 .4-3.1 2.4-3.1-8-6.4.4-19.8-8.3-21.8.2-6.9 3.8-7.7 5.9-14-2.8 2.4-2.2 3.1-6.2 3.7 2.5-3.4 5.7-6.3 9.3-8.8-.6-1.4-3-.4-2.3-3.6 2.9-.9 4.4.1 6.7.1-1 4.3-3.3 3.5-1 7.7 4.7 5.2 13-.1 16.7-3-.1-1.9-2.7-.9-2.3-3.6 3.9-.9 2.9-3.1 6.5-.8-4.2-3.7 4.6-7 5.3-12 4.6 1 7.6 3.9 12.8 4.1.6 5.1 3.4 7.3 7.6 7.6.8 3-8.2-3.8-10.5-.7 2.6 2.7 6.5 4 11 4.4 2.2-.4 1.7 1 .1.9-5.9-.5-10.5-2.3-14.9-4.8-2.4 2-2.8 4.2-6.5 1.7-.8 5-14.1 10-11.4 7.1-5.8 6.6-.3 12.9-1 23.9 5.8 2.3 6.3 14.6 16.2 8.4 2 6.7 17.5 3.5 12.9-3.4 3.4-.9.6-1.6 5.3-2.5.6-2.1-1-5.7 4-6.2 2.3 12.6 10.1 18 19.6 21.4.3 1.6-.7 1.7-.6 2.9 4.2-1.9 3.5 2.1 8.8 2.7 6.3-8.5 8.7-15.1 16.3-22.8 2.3 9.9 7.1 16.7 11.4 24.3 18.6 1.2 8.4-18.4 20.6-26.2 5.3 8.7 7.5 18.2 15 22 10.1-2 7.9-13.7 11.9-20.4 6.8 5.2 7.2 18.8 13 22.1 2.1-1-2.9-2-1.6-5.5 3.6-1.6 10.1-2.8 7.7-6.6 4.3 1.9 4-4.7 9.3-2.1-4.6-2.8 2.4-1.1 1.4-4 2.8.5-.3 3.1.5 4.7 1.1-.5 2.7-6.8 3.6-2.3 1.9-5.1 5.3-8.8 5.8-15 6.4 3.6 11.9 8.6 17.7 13 11.3-5.4 8.3-21.8 13.2-31.9 8.2 2.8 7.5 7.5 13.5 9.9 3.9-1.1 4.7-4.9 9.8-5.1.3 2.4-2.8 2.3-5.3 2.5 3.2 2.8 3 4.7 3.9 9 8.7-6.9 11.4-26.1 14.1-40.6 3.6 3.7 8.1 1.5 9.2 6.4-.8 3.3-1.4 0-1.4 4 7.4 1.8 9.8-7.6 10.8-13.6 1.4 0 .6 2.7 2.2 2.7 2.4-2.6-6.3-19.1 1.1-22-1.9-8.6-3.7-19.3-5.6-30.6 7.6 19.4 9.6 42 7.4 61.7 0 .1-1.5-1-1.2-1.7-.7 1.9 0 4.4-.2 6.6-.2 17.3-11.7 39.6-21.8 51.9zm-138.5 8.1c-.5-2.5 5.4.2 3.4-3.3-2.8-.7-6.4 2.3-3.4 3.3z"/><path class="st2" d="M195.6 215c2.2.7.3 3.9 4.2 3.3-1.2 3.4-1.5.1.6 4.6-1.2.7-2.2 1.7-2.4 3.1-3.6-1.5-4.9-6-9.4-6.5.3-.9.6-1.6 1.6-2-.4-1.3-1.6.1-1.7 1.2-3.3-.5.8-2 .6-2.9 3.3.5.3 2.1 2.3 3.5-.2-4.6 4.2-.8 4.2-4.3zm-159-12.3c.4-5 18.1-17.4 22.1-5.6 9.3.4 16.6 3.3 25.2 4.7-6.6-1.8-18.4.9-27.7-1.5-3.5-.9-5.9-5.8-9.3-5.6-4 .3-7.6 7-10.3 8z"/></g></svg>