<svg version="1.1" id="Слой_1" xmlns="http://www.w3.org/2000/svg" xmlns:xlink="http://www.w3.org/1999/xlink" x="0" y="0" viewBox="0 0 329.1 329.1" xml:space="preserve"><style>.st2{fill:#fff}</style><path fill="#ee7d00" d="M0 0h329.1v329.1H0z"/><defs><path id="SVGID_1_" d="M0 0h329.1v329.1H0z"/></defs><clipPath id="SVGID_2_"><use xlink:href="#SVGID_1_" overflow="visible"/></clipPath><g id="Слой_2_1_" clip-path="url(#SVGID_2_)"><path class="st2" d="M169.7 101.8c-6.5 10.7-17.4 18.3-17.2 34.2 3 .1 4-4 5.8-6.1 6.2-7.6 15.4-21.8 30.1-22.2 9.7-.1 19.5 5.6 26.6 10.3 1.9 1.3 4.1 3.9 6.3 3-5.5-15.4-14.9-25.3-34.2-22.4 0-10.5 8.9-14.4 14.4-20.7-9.7 4-17.6 9.2-23.7 15.9-9.5-5.8-20.2-10.3-36.8-6.8 10.5 4.2 23.3 4.6 28.7 14.8z"/><path class="st2" d="M326.8 126.4c-19.1 10.2-39.1 18.2-59.5 24.4 2.6-13.4 5.5-26.7 7.6-40.4-.6-4-1.2-7.8-1.6-11.7-1.8-3.7-4-9.2-6.3-12.4-12.1-15.5-30.5-26.8-54.3-23.5-4 .6-8.5 2.8-13 2.5-6.5-.6-14.8-10.2-21.8-13.5-8.4-4.1-16-4.7-23.2-5.4-3.7.5-7.4 1.1-11.1 1.5-18.3 5-14.9 25.7-26.3 34.8-5.3 4.2-12.3 5.5-17.4 8.4-5.8 3.3-12.7 8.3-15.8 14.7-6.5 13.5-2.2 43.3 6.1 58.1 1.2 2.2 2.8 4.1 4.6 6-17.3.5-34.5 1.1-51.8 1.6-5.1.2-5.1 8.3 0 8.1 19.8-.7 39.8-1.3 59.8-1.9 1.2 1.2 2.2 2.5 3.3 3.9 11.6 15.8 19.5 39.7 28 63 8.8 24.4 16.7 50.4 20.1 73.4 1.1 6.8-.1 14.1 4.1 19.8 14.4-.2 12.3-15.6 13.8-25.1 3.2-21.4 5.5-40.7 10.5-63 1.9-8.8 3.9-24.5 13-25.7 9.8-1.4 16.2 16.7 18.4 27.2 2.9 13.8 3.5 29.8 6.3 45.5 1.8 9.7 4.4 36.2 14.8 34.3 6.4-1.2 7.1-16 8.4-25 4-28.9 4.6-59.1 9-87.4 2.9-18.1 9.5-35.4 12.5-53.3.4-2 .7-3.9 1.1-5.8 22.4-6.4 44.2-15.2 65.2-26.3 4.2-2.3.1-9.2-4.5-6.8zm-221.4 36c-8.5-9.9-20.4-34-16.2-49.4 4-14.1 24.6-12.6 35.2-22.8 8.3-7.9 6.3-21.1 14.4-29.8 7-7.5 22.4-10.5 33-5.8 8.8 3.9 14.5 16.9 23.7 18.6 11.3 2 18.2-4.1 27.1-5.1 17.7-2 35.6 10.3 39.9 25 4.6 16 1.2 28.5-1.6 40.6-1.5 6.8-2.7 13.7-4.1 20.3-10.5 2.8-21.2 5.1-32 7-.6-7.8-1.8-15.6-4.4-23-.6-1.6-1.4-3.3-2.8-4.1-1.3-.6-2.8-.5-4.2-.2-19.7 2.7-39.6 5.4-59.3 8.1-1.1.1-2.3.4-3 1.2-.8.8-.9 2.1-1.1 3.2-.5 3.7-.8 7.4-1.3 11.1l1.2-1.2c.6 4 1.2 7.9 2 11.9-12.7.7-25.3 1.2-38 1.5-2.7-2.5-6-4.2-8.5-7.1zm130.5 44.1c1.4 1.8 3.4 2.7 6.9 1.6-8.4 23.2-8.9 55.7-7.8 85.9.4 10 2.3 20.8-1.9 29.4-15.1-21.4-10.7-65.8-19.3-96.1-4.6-16-30-13.9-38.7-2.6-11.1 14.4-7.4 53.1-8.2 75.3-.2 7.5 1.2 16.9-5 20.5-6.2-5-5.6-14.6-7.2-22.9-4.9-26-10.7-53-17-75 4.4.4 15.6 5.5 15.8-1.6 0-5.1-11.6-5.8-14.4-7.2-13.3-7.2-13.7-21.4-20-36.9 11.6-.4 23.1-.8 34.5-1.5 1.4 5.7 3 11.3 4.9 16.8.6 1.5 1.2 3.2 2.7 3.9.9.5 1.9.5 2.9.4 16.8-.4 33.6-1.4 50.3-3.3 2.8-.4 5.8-.7 7.9-2.7 2.7-2.5 2.8-6.5 2.9-10 0-4 .1-7.9 0-11.9 9.9-1.6 19.7-3.7 29.5-6.2-4.8 16-16.4 27.4-18.8 44.1z"/></g></svg>