<svg version="1.1" id="Слой_1" xmlns="http://www.w3.org/2000/svg" xmlns:xlink="http://www.w3.org/1999/xlink" x="0" y="0" viewBox="0 0 329.1 329.1" xml:space="preserve"><style>.st2{fill:#fff}</style><path fill="#ee7d00" d="M0 0h329.1v329.1H0z"/><defs><path id="SVGID_1_" d="M0 0h329.1v329.1H0z"/></defs><clipPath id="SVGID_2_"><use xlink:href="#SVGID_1_" overflow="visible"/></clipPath><g clip-path="url(#SVGID_2_)"><path class="st2" d="M213.8 73.5l.6.2c-2.1 1-4.5 3-3.4 4.9.6 1.1 2 1.4 3.2 2 4 1.6 6.3 5.7 9.6 8.7.7.6 1.5 1.2 2.2.9.4-.2.7-.4 1-.8 2.3-3.2.6-7.8-2.1-10.5-2.9-3.1-6.9-5-11.1-5.4zm-15.3-10.1c.2-.5.4-1 .8-1.6-19.6-10.4-43.9-11.9-64.4-3.5-20.4 8.4-36.7 26.4-43.3 47.4h.6c1.4-.1 3 .6 3.9 1.7 10.4-16.4 22.8-33 40.9-39.5 18.9-6.7 39.5-.9 59.6-.4.9-1.4 1.5-2.7 1.9-4.1zM51.7 248.7c-.3 0-.4 0-.5.2-.7.4-1.2 1.6-1.5 2.8-1.1 4-1.9 8-.2 10.9.1.2.2.4.3.4.1-.1.5-.4.7-1.1 2-4.1 2.6-8.7 2-13.1-.3-.1-.6-.1-.8-.1z"/><path class="st2" d="M255.4 58.4c-2.4-2.3-4.9-4.4-7.4-6.5-27.3-22.6-62.2-42.4-99-34.7-1.1.2-2.2.1-3.1-.3-4 1-8.1 2.2-12.1 3.6C117.5 26 102.5 34.2 88 43.3c-4.2 6.2-12.2 10.2-17 16-8 9.5-13.5 21.6-17.4 33.4-4.1 12.7-6.5 26.1-6.1 39.5.2 6.3.9 12.7 1.3 18.9.4.6.6 1.2.6 2 .2 3.8.2 7.5.1 11.3v.5c0 .5-.1 1-.2 1.5 1.8 22.1-9.7 44.7-25.3 61.1-18.1 19.1-41.4 32.1-62 48.6-16.3 13-30.9 28.2-43.2 45-7.5 10.1-14.3 21.4-15.7 33.9-1.5 12.6 4 26.7 15.4 31.9 5.4 2.5 11.6 2.8 17.6 2.2 29.1-2.6 53.3-23.5 71.5-46.6s32.6-49.1 53.6-69.6c18.7-18.1 44.9-31.2 70-27.8 12.4 3.4 25.6 5 39.2 4.1 65.1-4.2 114.3-60.3 110.1-125.3-1.7-25-10.9-47.4-25.1-65.5zM41.2 275.7c-2 2.9-5.5 4.8-9.5 5.1-.8 0-1.4.1-2.2 0-4.3-.4-8.3-2.4-11.3-4.2-.4-.2-.8-.7-.8-1.2s.1-1 .4-1.6c1.6-2 4.8-2.5 6.9-1 .8.6 1.1 1.7.5 2.5-.1.1-.2.3-.4.4 1.6.7 3.3 1.2 5 1.3 3.5.3 6.7-1.1 8.3-3.3 2-3.1 1.1-7.1-.4-9.6-1.7-3.1-4.6-5.7-7.3-8l-.5-.5c-1.4-1.3-2.8-2.5-4.1-3.9-.2.3-.5.5-.7.8-2.5 2.8-6.1 4.5-9.7 4.8.7.7 1.2 1.4 1.9 2.3.6.9.5 2-.3 2.6s-2 .5-2.6-.3c-1.5-2.1-3.4-3.8-5.4-5.5-.7-.6-1-1.6-.5-2.4s1.3-1.2 2.2-.9c4 1.4 8.9.1 11.7-3.2.5-.5.8-1.1 1-1.5-.6-1-1.1-2-1.6-2.9-.3-.6-.2-1.4.3-1.9s1.2-.7 1.9-.6c1.9.5 3.3 2.5 3.3 4.6 1.4 1.8 3.3 3.6 5 5.3l.5.5c3 2.6 5.9 5.5 8 9 2.8 4.4 2.8 9.7.4 13.3zM64 256c-.7.7-1.9.8-2.5 0l-5-4.5c.1 4.1-.7 8.2-2.5 11.9-.9 2-2.3 3.1-3.9 3.2-.3 0-.6 0-.9-.1-1-.2-2-1-2.7-2.2-2.4-4.2-1.6-9.2-.1-13.8.5-1.8 1.3-3.9 3.1-4.9.1 0 .1 0 .2-.1l-.7-.6c-1.2-1.1-2.6-2.1-3.6-1.9-1.6.2-2.2 3.1-2.2 5 .1.9.4 1.5.5 1.7 1 .1 1.7.9 1.6 1.9-.1 1-.9 1.8-1.9 1.8-2.3-.1-3.8-2.2-3.9-5.2-.1-3.8 1.5-8.1 5.3-8.7 2.9-.4 5.3 1.7 6.7 2.9l4.9 4.4c.4.4.9.7 1.5 1 2.3 1.9 4.4 3.9 6.4 5.9.3.5.4 1.6-.3 2.3zm24.8-22.3c-6.1 4.7-13.7 10.5-16.6 18.5-.2.6-.9 1.2-1.6 1.2h-.3c-.8-.1-1.4-.7-1.7-1.4-1-3.7-2.5-7.2-4.1-10.9-.6-1.5-1.3-3.1-2-4.7-1.4-3.3-2.8-7.4-3.2-11.9-2.2 2-4.6 3.7-7.3 4.8-1 .3-2-.1-2.4-1-.3-1 .1-2 1-2.4 3.7-1.5 7-4.1 9-7.7.5-.8 1.3-1.1 2.2-.8.8.3 1.3 1.2 1.3 2-.8 5.6 1.1 11.2 2.9 15.6.6 1.5 1.3 3.1 1.9 4.6 1 2.2 1.9 4.6 2.9 6.9 3.1-5.3 7.9-9.5 12.4-13.1-.1-.2-.3-.6-.3-1-.1-1 .8-1.8 1.8-1.9l3-.1c.8 0 1.6.4 1.9 1.3 0 .7-.2 1.5-.8 2zm4.3-18.8c-.3 1.7-1.5 2.6-2.3 3.2-5.6 4-10.3 9.3-13.9 15.3-.3.5-.8.8-1.5.9h-.5c-.8-.2-1.3-.8-1.5-1.6l-3.6-23-3.4 4.3c-.6.8-1.8.9-2.7.3-.8-.6-.9-1.8-.3-2.7l6.1-7.5c.5-.5 1.2-.8 1.9-.6.6.2 1.2.8 1.4 1.4l3.5 22.4c3.4-4.7 7.6-8.9 12.2-12.4.2-.1.7-.6.8-.7.2-1 1-1.7 2.1-1.5 1.1.2 1.8 1.1 1.7 2.2zM233.2 193c-22.2 27-62.5 40.5-95.6 28-.4-.1-.8-.2-1.3-.3-19.1-4.2-33.2-17.9-46.6-31.4-14.3-14.3-19.1-32.7-19.2-52.7-.1-19.4 3.3-39 14-55.6 10.1-15.6 23.2-25.1 39.3-33.7 3.5-3.5 8.1-4.7 12.9-5.5 6.5-1.2 13.2-2.5 19.9-2.8 13.6-.6 27.1 1 39.7 6 9 3.5 16.7 8.6 23.3 14.8 4.6 3.6 8.8 7.7 12.5 12 6.6 6.4 12.2 14.1 16.4 22.1 16.1 30.7 6.1 73.1-15.3 99.1z"/></g></svg>