<svg version="1.1" id="Слой_1" xmlns="http://www.w3.org/2000/svg" xmlns:xlink="http://www.w3.org/1999/xlink" x="0" y="0" viewBox="0 0 329.1 329.1" xml:space="preserve"><style>.st2{fill:#fff}</style><path fill="#ee7d00" d="M0 0h329.1v329.1H0z"/><defs><path id="SVGID_1_" d="M0 0h329.1v329.1H0z"/></defs><clipPath id="SVGID_2_"><use xlink:href="#SVGID_1_" overflow="visible"/></clipPath><g id="Слой_2_4_" clip-path="url(#SVGID_2_)"><path class="st2" d="M-13 147.4c-15.7 1.9.1 2.5.1 2.5v-26.2s-23.8-7.4-1.3-11.6c45.4-8 95-18.3 137.9-8.7 4 0 7.6-.2 10.4-1.5.6 2.1 5 .1 2.2 3 24-4.7 39.6 4.8 57.6 13.7 38.5.5 67.4-8.1 74.6-36.8 2.8 40.5-67.1 51-97.6 33.5.2 4.1-8.6-1.6-12.6-2.8-6.9 1.5-21.2 4-31.9 7.4-40 19.5-92.3 23.7-139.4 27.5z"/><path class="st2" d="M148 237.6c-3.9-6.2-8.8-11.4-11-19.5-27 4.8-71.9 6.4-104.8 5.7-7.5 9.4-27.5 7.1-41.2 10.8-8.1 0-3.8 2.7-3.8 2.7v-31.5s2.1 2.1 1.9-.2c2.3 2.1 2.5 3 3.4 8.2 2.1-.5-.1-4.7 4-3.3-7.3-.2.1-5.8-5.3-5.1 10.6-2.9 32.1 1.2 40.6 4.8 32.5-2.4 71 .7 98.6-6.4 2.2-.5 2.1 1.5 2.2 3.1.7-13.8 1.8-27 4-34.5 3.4-2.8 3-1.7 3.9-7.4 15.8-27.2 64.4-39.3 92.9-19.7 13.9 9.6 23.5 28.4 25.4 43.8 5.4 44.8-35.9 80.7-87.1 68.5-13.3-11.1-23.6-14-32.2-27.9 2.6-1.5 4.8 6.8 8.5 7.9zm11.7-177.1c1.6-.5-.5-1.3-.1-3.1 5.9.8 10.6 3 14.8 5.8.5 2.1-3-.1-3.1-1 4.5 6.8 10.5 3.7 16 11.9 1.7-.5.8-3.3 4.1-2.2 2.4 11.7 17.2 10.3 21.5 20.1-21.4-5.1-36.5-16.8-51.9-28.3-11-1.6-19.7 1.9-33.1 5.2-44.7 11.2-97.4 20-142.5 30.7-5.8 2.3 1.8 7.4 1.8 7.4V71.5s-11.4-1.3-2.7-2.1c41.2-2.2 84.4-8.6 125.3-12.5 21.3-2.1 37.9-7.1 49 2.5.7-.1.8.5.9 1.1z"/><path class="st2" d="M184.7 61.7c-8.5-1.5-14.9-6.8-22.1-9.7-12.3-5.1-23.2-15-35.9-19.6-12.3-4.2-28.5 1.9-43.7 4.6-32.6 6.2-66.4 12.9-99 20-5.9 1.5 3.1 10 3.1 10V33.9s-7.7-3.5-4.1-3.9c39.6-1.2 83.8-8.3 120.2-11.2 14.5-1.2 23.5.8 33.5 6.2 5.6 2.9 10.4 9.4 14.9 11 2.5.7 4.4-1.2 6.2-.2 6.5 3.4 17.2 14.9 17.2 17.1 3.4-1.8 6.4 4.6 9.7 8.8zm82.7 265.4c-10-5.3-11-20.6-20.7-26.4-16.3.8-30.4 8.8-46.5 10.9-29.4 3.7-59.4-1.5-88.3 1.9-3 .4-5.1 2.7-8.2 3.4-10.8 2.4-24.7 2.2-35.2 3.3-24.6 2.4-49-4.6-76-2.7h-5.6v-41.4s-7.8 2.8 4.3 3c22.3 1.7 51.5 3 80.2 5.7 4.1 1.7 4.8 11.6 9.7 9.1 2.3-1.5-5.7-1-4.2-5.1 28.8 5 53.5 14.4 86.7 14.8-.5-2.3-5.2-.2-7.3-.8 1.3-2.4 7.1-.6 10.3-1.3 12.5 16.5 66-12 81.9-6.9 11.5 3.7 10.9 20.2 21.7 26.2.8 3.6-1.5 4.6-2.8 6.3zm-184-32.3c5 2.3 20 4.8 28.2 3.3-8.5-.7-21.9-7.3-28.2-3.3z"/></g></svg>