<svg xmlns="http://www.w3.org/2000/svg" xmlns:xlink="http://www.w3.org/1999/xlink" viewBox="0 0 329.1 329.1"><path fill="#ee7d00" d="M0 0h329.1v329.1H0z"/><defs><path id="a" d="M0 0h329.1v329.1H0z"/></defs><clipPath id="b"><use xlink:href="#a" overflow="visible"/></clipPath><g clip-path="url(#b)"><path d="M54.3 260.5l6-5.7c-1.6 1.4-3.3 2.9-5.3 4.6-.2.4-.5.8-.7 1.1zm168.3-158.2c-4.4-3.5-11.1-10.1-16.3-10.8 6 4 6.6 7.3 10.8 10.6 1.4-1.4 4.4 2 5.5.2zM55 259.4c.6-.9 1.1-1.9 1.6-2.8l.5.2c1.9-1.3 3.6-2.7 5.4-4.1l-2.1 2.1 2.3-2.3c24.4-19.8 36.9-44.2 65.4-48.2 25.7-3.7 56.1 18.1 85.1 26.5 19.5 5.7 37.7-3.5 54.2-11 9.1-4.1 20.9-8.1 26.4-13.6 11.9-12.2 10.3-33 6.9-37.1.1 3.6 2.1 6.4.9 10.4-3.4-6-5.1-14-6.1-18.4-1.6-6.8-5.9-13.9-1.2-21.8 4 7.7 1.3 22 6.8 26.6-4.8-8.4-2.9-49.5-18.5-35.3 5-1.9.2 7.7 1.4 11.8.9-2.4 1.9-4.6 4-3.8 1.9 18.6 12.1 29.4 9.9 49.3-3.6-14.3-6.5-32.9-17.8-41.7 3.3 15.7 26.3 42.3 4.1 54.5-10.2 5.6-28.4 11.9-43.1 16-22.4 6.4-47.4-13.8-73.1-23.4-15.5-5.7-27.8-4.8-40.2-7 29.7-31.3 63.6-58.7 89.6-84.3.1-10-53 42.3-77.3 64.1-8.4 7.6-16 20.1-27 20.1 14.2-13.1 28.3-24.5 42-35.6 1-.8 14.2-11.5 8-7.6-9.2 5.8-19.3 15.7-28.3 22.8-10.7 8.5-25.8 27.1-42.1 18.8 8.2-4.3 23-12.2 26.3-16-10.5 4.7-22 15-34.5 14.4-3.2-.2-6.4-2.8-9.6-3.3-11.9-1.7-26.8 1-36.7 2.2-30.5 3.7-60.6 4.3-103.5 9.2l-25 54.7c25.6-1.4 35.9-2.5 41.5-2.9 18-1.2 35.2-6.2 52.7-10.7l3.6 1.6C-10 246.3-37 279.9-37.3 300.4c16.1 15.2 68.8-21.2 92.3-41zm-8.4-67.7c-1.4-1.9-.9-.3-1-2.7 7.8-5.9 21 2.7 27.5-6.4 2.3 2.1-1.3 3.5.2 4.5.9-.1 1.9-.3 3.2.3 1-2.4.3-4.2-2.1-5.4 3.8 1.1 11.4 4.7 9.4 6.5 8.1-.4 28 4.6 36.8.1l-2.5 5.6c5.1-4.9 12.3-4.3 19.4-3.4.7-3.1-2.4-.1-3.7-1.7 7.1-3.9 18.4 8.4 23.8 4.1 2.1.8-1 3.5-1.2 5.1 6.4-3.3 13.9-1.3 16.2 6.3.6-1.5 2.1-3.4.8-4.2 17.5 13.1 44 20 60.4 22 16.6-7.5 40.5-15 57.4-22.9-3.2-.4 1.9-4.4 3.3-9.7-.5 3.7-1.7 6.9-3.3 9.7-8.2 14.4-29.2 19.3-46.8 26.7-27.8 11.6-49-7.1-84.8-19.8-11.5-4.1-33.8-9.2-40.6-4-.7.5 1 1.6 1.4 1.7-12.8-.7-28.1-1.2-38.4 5.9-10.1 6.9-23 6.2-35.6 9.4-4-7-6.7-21.5.2-27.7zm237.5 15.8c-2.2-2.2-6.8 1.7-10.3 3.1-12.7 5-27 9.8-38.2 15 14.8-1.4 32.7-12.4 48.5-18.1zm-76.7-125c1.5-2.6-.8-3.8.6-6.4 10.7 7.1 25.5-8.7 23.4-15.4-.4.4-1.3.7-2.1.6-2.6-7.4-14.3.9-17.3-1.2.1-.9.8-1.9-.1-2.2-4.7 9.4-8.3 18.4-4.5 24.6zm7.1-30.2c-6.6-1-9.3 10.7-8.1 15.3 2.8-4.9 4.5-12.6 8.1-15.3zm5.6-7.5c8-3.9 17.9-2.6 27.2-3.2-9.5-1.6-23.5-4.1-27.2 3.2zm-94.8 119.1c-5.4 3.8-3.5 2.6.3 0-.2 0-.3.1-.3 0zm11.5-8c-1.9 1.6-7.5 5.5-11.3 8.1 4.4 0 10.4-5.8 11.3-8.1zM237 71.5c2.1-3.3 8.6-5.5 7.9-9.8-2.3 3-8 7.3-7.9 9.8zm-7.5 36.3c-1.3-.7-2.6-1.3-4-1.9 1.2.6 2.6 1.2 4 1.9zm7.1 10.7c48.4 14.6 75.8-60.9 17.5-79.4-3.1-.9-7.7-1.2-12.8-1.3 3.9 4.1 7.5 1.4 12 3.2 15.2 6.1 20.5 23.1 25.7 31.9-.7-2.6-4.7-7.9.1-10 .7 3.3-.8 3.9-.7 6.4 16.6 27.9-25.8 60.6-51.4 39.1 1.1.3 2.6 1.4 3.2.3-3-1.5-10.8-2-5.1-3.5-7.2-.1-9.4-12.6-14.7-16.8 1.6 5.1 5.3 9.3 8.1 13.8-3.3-1.3-3.9-7.7-8.4-6 7.3 3-3 13.1 4 9 5.8 5.4 13.4 10.6 22.5 13.3zm31-67.7c.7-4.7 6 6.2 8.5 8.4-4.2.7-3.1-7-8.5-8.4zm-36.4 9.1c.2.3.2.6.3.9.1-.3.1-.6-.3-.9z" fill="#fff"/></g></svg>