<svg version="1.1" id="Слой_1" xmlns="http://www.w3.org/2000/svg" x="0" y="0" viewBox="0 0 578.7 541.6" xml:space="preserve"><style>.st0{fill:#ee8027}</style><circle class="st0" cx="338.4" cy="350.5" r="33.6"/><path class="st0" d="M183.9 160.2h103.9v15.5H183.9zm0-43.3h103.9v15.5H183.9zm0 86.6h211V219h-211zm0 43.2h211v15.5h-211z"/><path class="st0" d="M439.4 166.3L325.6 52.5l-2.3-2.3H157.5c-11.3 0-20.6 9.2-20.6 20.6v356.4c0 11.3 9.2 20.6 20.6 20.6h139.6v43.5l41.7-24.7 40.9 24.9v-43.7h41.5c11.3 0 20.6-9.2 20.6-20.6V168.6l-2.4-2.3zm-25-2.3h-81.3c-2.9 0-5.2-2.3-5.2-5.2V77.5l86.5 86.5zm-76 232.2c-25.2 0-45.7-20.5-45.7-45.7s20.5-45.7 45.7-45.7 45.7 20.5 45.7 45.7-20.5 45.7-45.7 45.7zm.5 51.7l-25.8 15.3v-56.4c7.7 3.5 16.3 5.4 25.3 5.4s17.6-2 25.3-5.4V463l-24.8-15.1zm82.3-16.2h-41.5v-35.4c12.5-11.3 20.4-27.6 20.4-45.8 0-34-27.7-61.7-61.7-61.7s-61.7 27.7-61.7 61.7c0 18.1 7.9 34.5 20.4 45.8v35.4H157.5c-2.5 0-4.6-2-4.6-4.6V70.7c0-2.5 2-4.6 4.6-4.6H312v92.6c0 11.7 9.5 21.2 21.2 21.2h92.6v247.2c-.1 2.6-2.1 4.6-4.6 4.6z"/></svg>