<svg xmlns="http://www.w3.org/2000/svg" viewBox="0 0 952 1118"><path d="M332.3 609.2h36.1v36.5h-36.1zm37.9 0h36.1v36.5h-36.1zm37.8 0h36.1v36.5H408zm37.9 0H482v36.5h-36.1z" fill="#f58220"/><path d="M335.4 654.2c-.2.1-.6.2-1.1.2-1.2 0-2.1-.8-2.1-2.2 0-1.3.9-2.3 2.2-2.3.5 0 .9.1 1 .2l-.1.5c-.2-.1-.5-.2-.9-.2-1 0-1.7.6-1.7 1.8 0 1.1.6 1.7 1.6 1.7.3 0 .7-.1.9-.2l.2.5zm3.5-3.7h-1.3v-.5h3.2v.5h-1.3v3.8h-.6v-3.8zm7.6 1.7c0 1.5-.9 2.3-2 2.3s-1.9-.9-1.9-2.2c0-1.4.8-2.3 2-2.3s1.9.9 1.9 2.2zm-3.3 0c0 .9.5 1.7 1.4 1.7.9 0 1.4-.8 1.4-1.8 0-.9-.4-1.8-1.4-1.8-1 .1-1.4 1-1.4 1.9zm9.4.3c0-.6-.1-1.3-.1-1.9-.2.5-.3 1-.5 1.6l-.8 2.1h-.4l-.7-2c-.2-.6-.4-1.2-.5-1.7 0 .5 0 1.2-.1 1.9l-.1 1.8h-.5l.3-4.3h.7l.7 2.1c.2.5.3 1 .4 1.4.1-.4.3-.9.5-1.4l.8-2.1h.7l.3 4.3h-.5l-.2-1.8zm4 .5l-.4 1.3h-.6l1.5-4.3h.7l1.5 4.3h-.6l-.5-1.3h-1.6zm1.4-.4l-.4-1.2c-.1-.3-.2-.5-.2-.8-.1.2-.1.5-.2.8l-.4 1.2h1.2zm4.1-2.1h-1.3v-.5h3.2v.5h-1.3v3.8h-.6v-3.8zm7.6 1.7c0 1.5-.9 2.3-2 2.3s-1.9-.9-1.9-2.2c0-1.4.8-2.3 2-2.3s1.9.9 1.9 2.2zm-3.3 0c0 .9.5 1.7 1.4 1.7.9 0 1.4-.8 1.4-1.8 0-.9-.4-1.8-1.4-1.8-1 .1-1.4 1-1.4 1.9zm8.6-2.1v4.3h-.6v-3.8H373v1.3c0 .9 0 2-.6 2.4-.2.1-.4.2-.7.2l-.1-.4c.2 0 .3-.1.5-.2.3-.3.4-1.2.4-1.9v-1.8h2.5zm6.5 2.1c0 1.5-.9 2.3-2 2.3s-1.9-.9-1.9-2.2c0-1.4.8-2.3 2-2.3 1.1 0 1.9.9 1.9 2.2zm-3.4 0c0 .9.5 1.7 1.4 1.7.9 0 1.4-.8 1.4-1.8 0-.9-.4-1.8-1.4-1.8-.9.1-1.4 1-1.4 1.9zm8.2-2.1v.5h-1.7v3.8h-.6v-4.3h2.3zm2.8 0v1.8c0 .7 0 1.2-.1 1.8.2-.4.5-.9.8-1.4l1.4-2.2h.6v4.3h-.5v-1.8c0-.7 0-1.2.1-1.7-.2.5-.5 1-.8 1.4l-1.3 2.1h-.6v-4.3h.4zm5 4.3c.1-.1.1-.2.2-.4.2-.5.3-1.1.6-1.4.1-.1.2-.2.4-.2-.5-.1-.9-.5-.9-1.1 0-.4.2-.7.4-.9.3-.2.7-.3 1.2-.3.4 0 .7 0 1 .1v4.2h-.6v-1.9h-.4c-.3 0-.5.1-.6.2-.3.3-.4.9-.6 1.3 0 .1-.1.2-.1.3h-.6zm2.4-3.9c-.1 0-.3-.1-.5-.1-.5 0-1 .2-1 .8 0 .5.5.8 1.1.8h.5v-1.5zm9.4-.4v3.8h.4v1.5h-.4v-1H403v1h-.4v-1.5h.3c.2-.3.3-.6.4-.9.1-.5.2-1.1.2-1.8v-1.1h2.4zm-1.9 1.2c0 .7-.1 1.3-.2 1.8-.1.3-.2.6-.3.8h1.9v-3.4H404v.8zm8.4.9c0 1.5-.9 2.3-2 2.3s-1.9-.9-1.9-2.2c0-1.4.8-2.3 2-2.3 1.1 0 1.9.9 1.9 2.2zm-3.4 0c0 .9.5 1.7 1.4 1.7.9 0 1.4-.8 1.4-1.8 0-.9-.4-1.8-1.4-1.8-.9.1-1.4 1-1.4 1.9zm6.4-2.1v1.9h.2l1.5-1.9h.7l-1.6 2c.7.1 1 .5 1.2 1.1.2.4.3.8.5 1.2h-.6c-.2-.3-.3-.7-.4-1-.2-.6-.5-1-1.2-1h-.2v2h-.6v-4.3h.5zm5.7.4h-1.3v-.5h3.2v.5h-1.3v3.8h-.6v-3.8zm7.6 1.7c0 1.5-.9 2.3-2 2.3s-1.9-.9-1.9-2.2c0-1.4.8-2.3 2-2.3s1.9.9 1.9 2.2zm-3.3 0c0 .9.5 1.7 1.4 1.7s1.4-.8 1.4-1.8c0-.9-.4-1.8-1.4-1.8-1 .1-1.4 1-1.4 1.9zm5.8-2.1c.3 0 .6-.1 1.1-.1.5 0 .9.1 1.2.4.2.2.4.5.4.9s-.1.7-.3.9c-.3.3-.8.5-1.3.5h-.4v1.7h-.6v-4.3zm.6 2.1h.5c.7 0 1.1-.3 1.1-.9 0-.6-.4-.8-1-.8h-.5v1.7zm4.8.8l-.4 1.3h-.6l1.5-4.3h.7l1.5 4.3h-.6l-.5-1.3h-1.6zm1.4-.4l-.4-1.2c-.1-.3-.2-.5-.2-.8-.1.2-.1.5-.2.8l-.4 1.2h1.2zm9-2.5v.5h-1.7v3.8h-.6v-4.3h2.3zm5.7 2.1c0 1.5-.9 2.3-2 2.3s-1.9-.9-1.9-2.2c0-1.4.8-2.3 2-2.3s1.9.9 1.9 2.2zm-3.3 0c0 .9.5 1.7 1.4 1.7.9 0 1.4-.8 1.4-1.8 0-.9-.4-1.8-1.4-1.8-.9.1-1.4 1-1.4 1.9zm5.9-2.1c.3 0 .6-.1 1.1-.1.5 0 .9.1 1.2.4.2.2.4.5.4.9s-.1.7-.3.9c-.3.3-.8.5-1.3.5h-.4v1.7h-.6v-4.3zm.5 2.1h.5c.7 0 1.1-.3 1.1-.9 0-.6-.4-.8-1-.8h-.5v1.7zm7.2-2.1v3.8h.4v1.5h-.4v-1h-2.7v1h-.4v-1.5h.3c.2-.3.3-.6.4-.9.1-.5.2-1.1.2-1.8v-1.1h2.2zm-1.9 1.2c0 .7-.1 1.3-.2 1.8-.1.3-.2.6-.3.8h1.9v-3.4h-1.3v.8zm8.3.9c0 1.5-.9 2.3-2 2.3s-1.9-.9-1.9-2.2c0-1.4.8-2.3 2-2.3s1.9.9 1.9 2.2zm-3.3 0c0 .9.5 1.7 1.4 1.7.9 0 1.4-.8 1.4-1.8 0-.9-.4-1.8-1.4-1.8-.9.1-1.4 1-1.4 1.9zm6.4-2.1v1.8h2.1v-1.8h.6v4.3h-.6v-2h-2.1v2h-.5v-4.3h.5zm6.1 2.9l-.4 1.3h-.6l1.5-4.3h.7l1.5 4.3h-.6l-.5-1.3h-1.6zm1.4-.4l-.4-1.2c-.1-.3-.2-.5-.2-.8-.1.2-.1.5-.2.8l-.4 1.2h1.2z"/><path d="M332.3 609.2v36.5h8.3c.9 0 .9-.9.9-.9v-6.5c0-.4.4-.7.8-.7 0 0 1.6.5 3.9.5 1.4 0 5.5-.2 5.5-4.1v-17.3c0-.4.4-.8.8-.8h15.1c1 0 .9-.9.9-.9v-5.7h-36.2zm28.9 36.5h7.1v-6.5c-.7 2.7-2.9 5.1-7.1 6.5zm32.9-25l7.9-.8c.4 0 .6-.4.4-.8l-4.8-7.7c-.2-.4-.5-.7-.5-.7-.1 0-.2.4-.4.8l-3 8.5c-.3.4 0 .7.4.7zm11.7 6.7c-.2-.4-.8-.6-1.2-.6l-11.7 1.2c-.4 0-.9.4-1 .8l-1.8 5.4c-.1.4-.6.8-1 .8l-15.4 1.6c-.4 0-.7-.3-.5-.7l10-25.9s.4-.9-.6-.9h-12.3v36.5h36.1V628l-.6-.6zm20.3 11.2s16.1 6.3 17.1 6.7c1 .4.9-.5.9-.5v-9s.1-.9-1-.7l-17 3.1c-.4 0-.5.2 0 .4zM408 609.2v20s-.2 1 .9.8h.1l23.2-4.2c.4-.1.4-.3 0-.4l-18.2-7.1c-.4-.2-.6-.6-.4-1l2.3-5.8c.2-.4.6-.6 1-.5 0 0 25.8 10.1 26.3 10.3 1.1.4.9-.6.9-.6v-11.4H408zm0 31.9v4.5h13c1.1 0 0-.4 0-.4l-12.1-4.7c0 .1-.9-.2-.9.6zm73.2-15.5l-7 6.4c-.3.3-.2.5.2.4l6.9-1.3s.7-.1.7-.9v-4.4c-.1-.9-.8-.2-.8-.2zM456 643.4l-1.4-7.6c-.1-.4.1-1 .4-1.3l17.8-16.2c.3-.3.2-.5-.2-.4l-19.2 3.6c-.4.1-.8-.2-.9-.6l-1.2-6.2c-.1-.4.2-.8.6-.9 0 0 24.3-4.6 23.7-4.5-.4.1.9-.2 0-.2h-29.8v36.5h36.1V640c0-.9-.9-.7-.9-.7l-24.2 4.6c-.3.2-.8-.1-.8-.5z" fill="#fff"/><path d="M486.9 614.4c-2 0-3.7-1.6-3.7-3.7 0-2 1.6-3.7 3.7-3.7 2 0 3.7 1.6 3.7 3.7s-1.7 3.7-3.7 3.7zm0-6.8c-1.7 0-3.1 1.4-3.1 3.1 0 1.7 1.4 3.1 3.1 3.1s3.1-1.4 3.1-3.1c0-1.7-1.4-3.1-3.1-3.1z"/><path d="M488.3 612.4c-.2.1-.7.2-1.2.2-.6 0-1.1-.2-1.4-.5-.3-.3-.5-.8-.5-1.3 0-1.1.8-1.9 2-1.9.4 0 .8.1 1 .2l-.1.5c-.2-.1-.4-.2-.8-.2-.8 0-1.3.5-1.3 1.3s.5 1.3 1.2 1.3c.2 0 .4 0 .5-.1v-.9h-.7v-.5h1.3v1.9z"/></svg>