<svg data-name="Слой 1" xmlns="http://www.w3.org/2000/svg" viewBox="0 0 158.33 48.37"><path d="M.03 2.2v36.5h8.3a.88.88 0 00.9-.9v-6.5a.77.77 0 01.8-.7 14.36 14.36 0 003.9.5c1.4 0 5.5-.2 5.5-4.1V9.7a.86.86 0 01.8-.8h15.1a.81.81 0 00.9-.9V2.3L.03 2.2zm28.9 36.5h7.1v-6.5c-.7 2.7-2.9 5.1-7.1 6.5zm32.9-25l7.9-.8c.4 0 .6-.4.4-.8l-4.8-7.7a3 3 0 00-.5-.7c-.1 0-.2.4-.4.8l-3 8.5c-.3.4 0 .7.4.7zm11.7 6.7a1.43 1.43 0 00-1.2-.6L60.63 21a1.19 1.19 0 00-1 .8l-1.8 5.4a1.19 1.19 0 01-1 .8l-15.4 1.6c-.4 0-.7-.3-.5-.7l10-25.9s.4-.9-.6-.9h-12.3v36.5h36.1V21zm20.3 11.2l17.1 6.7c1 .4.9-.5.9-.5v-9s.1-.9-1-.7l-17 3.1c-.4 0-.5.2 0 .4zM75.73 2.2v20s-.2 1 .9.8h.1l23.2-4.2c.4-.1.4-.3 0-.4l-18.2-7.1a.73.73 0 01-.4-1l2.3-5.8a.88.88 0 011-.5l26.3 10.3c1.1.4.9-.6.9-.6V2.3l-36.1-.1zm0 31.9v4.5h13c1.1 0 0-.4 0-.4l-12.1-4.7c0 .1-.9-.2-.9.6zm73.2-15.5l-7 6.4c-.3.3-.2.5.2.4l6.9-1.3a.86.86 0 00.7-.9v-4.4c-.1-.9-.8-.2-.8-.2zm-25.2 17.8l-1.4-7.6a1.57 1.57 0 01.4-1.3l17.8-16.2c.3-.3.2-.5-.2-.4l-19.2 3.6a.78.78 0 01-.9-.6l-1.2-6.2a.78.78 0 01.6-.9s24.3-4.6 23.7-4.5c-.4.1.9-.2 0-.2h-29.8v36.5h36.1V33c0-.9-.9-.7-.9-.7l-24.2 4.6a.57.57 0 01-.8-.5z" fill="#fff"/><path d="M154.63 7.4a3.7 3.7 0 113.7-3.7 3.69 3.69 0 01-3.7 3.7zm0-6.8a3.1 3.1 0 103.1 3.1 3.12 3.12 0 00-3.1-3.1z"/><path d="M156.03 5.4a3.26 3.26 0 01-1.2.2 2 2 0 01-1.4-.5 1.9 1.9 0 01-.5-1.3 1.87 1.87 0 012-1.9 2.51 2.51 0 011 .2l-.1.5a1.55 1.55 0 00-.8-.2 1.21 1.21 0 00-1.3 1.3 1.18 1.18 0 001.2 1.3.75.75 0 00.5-.1V4h-.7v-.5h1.3zM3.3 47.19a2.85 2.85 0 01-1.15.21A2 2 0 010 45.19a2.17 2.17 0 012.27-2.28 2.33 2.33 0 011 .19l-.14.46a2.07 2.07 0 00-.88-.18 1.61 1.61 0 00-1.69 1.79 1.58 1.58 0 001.67 1.75 2.28 2.28 0 00.92-.18zm3.51-3.73H5.49V43h3.24v.48H7.4v3.87h-.57zm7.63 1.65a2 2 0 01-2 2.29 2 2 0 01-2-2.21 2.06 2.06 0 012-2.28 2 2 0 012 2.2zm-3.38.07c0 .93.5 1.76 1.39 1.76s1.39-.82 1.39-1.81-.45-1.76-1.38-1.76-1.4.85-1.4 1.81zm9.51.24c0-.61-.07-1.34-.07-1.88-.14.51-.33 1.06-.54 1.65l-.77 2.11h-.46l-.7-2.07c-.21-.61-.38-1.17-.51-1.69 0 .54 0 1.27-.08 1.92l-.12 1.87h-.53l.3-4.35h.72l.74 2.1c.18.54.33 1 .44 1.47.11-.44.26-.92.45-1.47l.78-2.1h.72l.27 4.35h-.48zm3.93.58l-.45 1.37h-.58l1.47-4.35h.68l1.49 4.35h-.6L26.04 46zm1.42-.44l-.42-1.25c-.1-.29-.16-.54-.23-.8-.06.26-.14.53-.22.79l-.43 1.26zm4.12-2.1h-1.31V43h3.22v.48h-1.33v3.87h-.57zm7.63 1.65a2 2 0 01-2 2.29 2 2 0 01-2-2.21 2.06 2.06 0 012-2.28 2 2 0 012 2.2zm-3.38.07c0 .93.5 1.76 1.39 1.76s1.39-.82 1.39-1.81-.45-1.76-1.38-1.76-1.4.85-1.4 1.81zM42.98 43v4.35h-.56v-3.88h-1.44v1.32c0 .94 0 2-.65 2.4a1.3 1.3 0 01-.67.21l-.07-.45a1 1 0 00.46-.23 3.05 3.05 0 00.38-1.89V43zm6.45 2.11a2 2 0 01-2 2.29 2 2 0 01-1.95-2.21 2.06 2.06 0 012-2.28 2 2 0 011.95 2.2zm-3.37.07c0 .93.5 1.76 1.38 1.76s1.4-.82 1.4-1.81-.45-1.76-1.39-1.76-1.39.85-1.39 1.81zM54.23 43v.47h-1.75v3.88h-.56V43zm2.76 0v1.83c0 .69 0 1.26-.05 1.84a15.74 15.74 0 01.81-1.44l1.41-2.24h.57v4.35h-.53v-3.62a12.7 12.7 0 01-.81 1.47l-1.36 2.16h-.6V43zm5.08 4.33a3 3 0 00.17-.4 4.19 4.19 0 01.66-1.45.86.86 0 01.36-.22 1.08 1.08 0 01-1-1.07 1.12 1.12 0 01.4-.89 2 2 0 011.25-.33 5.44 5.44 0 011 .09v4.29h-.56v-1.89h-.42a.79.79 0 00-.62.22 4.21 4.21 0 00-.58 1.35 2.84 2.84 0 01-.14.32zm2.36-3.89a2 2 0 00-.53-.06c-.56 0-1 .21-1 .81s.46.83 1.08.83h.48zm9.39-.44v3.89h.38v1.49h-.47v-1h-2.74v1h-.44v-1.49h.18a5.85 5.85 0 00.43-1 6.5 6.5 0 00.2-1.84V43zm-1.91 1.28a6.13 6.13 0 01-.18 1.72 4.13 4.13 0 01-.36.82h1.93V43.4h-1.35zm8.41.83a2 2 0 01-2 2.29 2 2 0 01-1.95-2.21 2.06 2.06 0 012-2.28 2 2 0 011.95 2.2zm-3.37.07c0 .93.5 1.76 1.38 1.76s1.4-.82 1.4-1.81-.45-1.76-1.39-1.76-1.39.85-1.39 1.81zM83.36 43v1.93h.18L85.03 43h.7l-1.64 2a1.47 1.47 0 011.22 1.13 10.49 10.49 0 00.48 1.23h-.61a6.65 6.65 0 01-.39-1 1.18 1.18 0 00-1.22-1h-.18v2h-.55V43zm5.71.46h-1.34V43h3.22v.48h-1.33v3.87h-.57zm7.66 1.65a2 2 0 01-2 2.29 2 2 0 01-2-2.21 2.06 2.06 0 012-2.28 2 2 0 012 2.2zm-3.38.07c0 .93.51 1.76 1.39 1.76s1.4-.82 1.4-1.81-.46-1.76-1.39-1.76-1.43.85-1.43 1.81zM99.18 43a6.11 6.11 0 011.08-.08 1.76 1.76 0 011.22.36 1.15 1.15 0 01.38.91 1.29 1.29 0 01-.34.93 1.8 1.8 0 01-1.32.47 2.17 2.17 0 01-.46 0v1.74h-.56zm.56 2.1a2.11 2.11 0 00.47 0c.68 0 1.09-.33 1.09-.93s-.41-.85-1-.85a2.12 2.12 0 00-.53.05zm4.79.9l-.45 1.37h-.58l1.48-4.35h.67l1.49 4.35h-.6l-.47-1.37zm1.43-.44l-.43-1.25a7.49 7.49 0 01-.22-.8 7.76 7.76 0 01-.22.79l-.42 1.26zm9-2.56v.47h-1.75v3.88h-.56V43zm5.77 2.11a2 2 0 01-2 2.29 2 2 0 01-2-2.21 2.06 2.06 0 012-2.28 2 2 0 012 2.2zm-3.38.07c0 .93.51 1.76 1.39 1.76s1.4-.82 1.4-1.81-.45-1.76-1.39-1.76-1.44.85-1.44 1.81zm5.82-2.18a6.19 6.19 0 011.08-.08 1.74 1.74 0 011.22.36 1.15 1.15 0 01.38.91 1.29 1.29 0 01-.33.93 1.83 1.83 0 01-1.33.47 2 2 0 01-.45 0v1.74h-.57zm.57 2.1a2 2 0 00.46 0c.68 0 1.09-.33 1.09-.93s-.41-.85-1-.85a2 2 0 00-.53.05zm7.17-2.1v3.89h.38v1.49h-.44v-1h-2.82v1h-.44v-1.49h.33a5.07 5.07 0 00.42-1 6.47 6.47 0 00.21-1.84V43zM129 44.28a5.81 5.81 0 01-.22 1.78 4.13 4.13 0 01-.35.82h1.92v-3.42H129zm8.42.83a2 2 0 01-2 2.29 2 2 0 01-2-2.21 2.06 2.06 0 012-2.28 2 2 0 012 2.2zm-3.38.07c0 .93.5 1.76 1.39 1.76s1.39-.82 1.39-1.81-.45-1.76-1.39-1.76-1.39.85-1.39 1.81zm6.42-2.18v1.82h2.1V43h.57v4.35h-.57v-2h-2.1v2h-.56V43zm6.11 3l-.46 1.37h-.58l1.48-4.35h.72l1.48 4.35h-.6l-.46-1.37zm1.42-.44l-.42-1.25a7.66 7.66 0 01-.23-.8c-.07.26-.14.53-.22.79l-.43 1.26z"/></svg>