<svg version="1.1" id="Слой_1" xmlns="http://www.w3.org/2000/svg" x="0" y="0" viewBox="0 0 908.6 293.2" xml:space="preserve"><style>.st0{fill:#fff}</style><path class="st0" d="M425 39c0 1.4 1.1 1 1.8 1 2.2-.2 3.5 1.3 4.1 2.8.6 1.5-.1 3-1.4 4.4-1.4 1.4-2.8 2-4.8 1.9-2.7-.2-5.3 0-8 0-4.2-.1-8.2.4-12.2 1.9-1.7.6-3.7.3-5.6.9-1.7.6-3.7.7-5.5 1.1-1.8.4-3.7.2-5.6 1-2.3.9-5.3-.9-6.5-3.2-.3-.5-.4-1.5-.2-1.9 1.2-1.5 2.2-3.5 4.3-3.7 1.3-.2 2.4-.8 3.6-1 5.2-.7 10.2-2.1 15.3-2.9 3.9-.6 7.9-1.8 12.1-1.2.7.1 1.8.4 1.8-1 2.1-.1 4.5-.1 6.8-.1zm-14 73c-.3-5.9.6-11.9 3.9-17.4.5-4.7 3.8-8.7 3.1-13.7-.1-.7.5-1.4.7-2.2.4-1.4-1-3.2-2.3-2.6-2.1.9-4.2 2-6.2 3.2-1.5.8-2.9 1.8-4.4 2.8-3.8 2.6-6.2 6.3-8 10.4-1.5 3.4-2.4 7-4.8 10-2.2 2.6-2.7 2.7-5.6 1.8-1.5-.5-1.6-1.4-1.9-2.2-.4-1.1-.7-2.6-.4-3.7 1.1-3.4 2-7 3.9-9.8 2.6-3.8 1.5-7.8 1.8-11.8.1-1.2-1.4-.9-2-.7-2.1.9-4.4 1.7-6.2 3-3.5 2.5-6.9 5.2-10.2 8-1.1.9-2.3 2.2-2.4 3.4-.2 2.5-.6 4.6-2.1 6.7-1.3 1.9-2 4.1-3 6.2-.3.6-.4 1.2-.7 1.7-1 1.4-2.3 2.3-4.2 1.9-1.5-.3-2.9-2-3.2-3.8-.1-.7-.2-1.8-.6-2.1-.6-.4-1.7-.4-2.4 0-3.4 1.7-7.1 2.1-10.7 3.2l-6.3 1.8c-1.7.4-3.4.8-5.1 1-1.6.2-3.3-.4-4.6 1-4.5-.1-9.2.6-13.6-1-3.2-1.2-5.6-3.6-6.7-6.9-.4-1.2-.9-1.2-1.7-.8-2.1 1-4.1 2.1-6.2 3.2-3.4 1.9-7 2.7-10.9 2.6-2.4-.1-4.7-1.5-5.2-3.7-.7-3-2.3-6.1-.1-9.2 1-10.6 9.1-18.9 15.5-22.9 2.1-1.3 4.8-2.4 7.6-2.2.7 0 1.4.1 2 0 5.1-1 8.8 2 12.7 4.3 1 .6 1.4 1.9 2.3 2.7 4.3 3.4 4.6 5.7.6 9.7-3.3 3.3-5.2 7.4-7.4 11.5-.9 1.6-.5 2 1.4 3.1 2.5 1.4 5.1.4 7.7.7 1.1-1.5 2.7-.8 4.1-1 1.4-.2 2.7-.8 4.1-.9 4.3-.3 8.2-1.8 12.3-3 3.4-1 6.8-2.1 10.3-2.9 3.3-.7 4.5-3 5.9-5.3 1.8-3 2-6.5 3-9.7.6-1.8 1.2-3.5 1.7-5.3.6-2.3 1.9-3.1 4.3-2.8 2 .2 3.3 1.2 4.1 3.4.7 2 .7 2 2.3.8 4-3.1 8.8-4.5 13.5-6 4.3-1.4 7.4 1.1 8.2 5.7.1.6 0 1.4.3 1.9.4.6.8 1.7 2.1.5 4.6-3.9 10.1-6 15.7-7.8 3.5-1.1 7.2-.5 8.4 1.8.8 1.5 1.3 3.2 1.4 4.9.2 3.7.4 7.4 0 11-.5 4.1-2.2 8.1-3.4 12.1-1.2 3.8-3.1 7.4-3.7 11.5-.7 4.9-1.1 7.6.4 12.1 2.1 1.4.1 2.9-.3 3.7-.7 1.2-2.4 1.8-3.7 2.6-.1.1-.3.1-.5 0-1.6-.5-4.5-5-4.6-7V112zM308.3 75.7c-1.6.5-3.4.7-4.9 1.4-3.9 1.9-6.4 5.5-9.4 8.5-.6.6-.7 1.7-1 2.5-.6 1.7-1.2 3.5-1.9 5.2-.4 1.2-.1 1.7 1.4 1.6 3.3-.1 6.1-1.9 8.4-3.7 4.8-3.7 9-8.1 13.4-12.2.8-.7.3-1.1-.2-1.4-1.6-1.1-3.5-2-5.8-1.9zm121 135.3c2.4.3 5-.7 7.7-1.9 7.6-3.5 13.3-8.4 17.6-11.9 4.1-3.5 8-7.3 11.9-11 3.1-3 5.8-2.3 8 1.7.6 1.1.6 1.5-.1 2.5-1.4 1.9-2.6 3.9-3.9 5.8-4.2 5.7-6.6 12.2-9.4 18.6-1.1 2.5-2.5 5-3.7 7.5-1 2.1-.1 3.4 2 2.7 2.5-.9 5.3-.1 7.4-1.3 2.3-1.3 5 .8 6.9-1.5.1-.2.6 0 1 0 6.6.4 13-1.5 19.6-1.1 6.1.4 12.3.1 18.5.1 2 0 3.5.3 4.4 2.5 1.2 2.9.2 5.8-2.7 6.4-1.1.2-2.4.4-3.5 0-5.5-2.1-11.1-.4-16.6-.9-3.4 1.8-7 .9-10.6.9-1.8 0-3.4.5-5.1 1-1.7.5-3.5-.6-5.2.9-.6.5-1.9.1-2.9.1-2.1 0-4.1.6-6.1.8-2.1.2-4.1.9-6 1.4-1.9.5-3.7 1.4-5.7 1.9-1.4.4-2.3 1.9-3 3.5-2.6 5.9-6.5 11.1-10.2 16.2-2.6 3.6-6.4 5.9-10.1 8.1-.8.5-1.8.5-2.5 1-3.6 2.7-7.7 2.2-11.7 1.8-1.5-.2-3.1-2.2-4.2-3.7-1.4-2-1.8-4.5-2.9-6.8-1-2 .4-4.3 2-6 4-4.5 8.6-8.3 13.8-11.3 2.7-1.6 5.3-3.2 8.1-4.5 2.8-1.3 5.2-3.3 8.5-3.7 1.3-.1 2.5-1.1 3.7-1.9.7-.4 1.5-1 1.7-1.7 1.5-5.4 4.5-10.2 6.5-15.3.1-.3 0-.7 0-1-.3 0-.7-.1-1 .1-1.1.7-2.2 1.3-3.1 2.1-4 3.3-9 4.9-13.8 6.5-2.5.9-5.6.1-8.4.3-5.4.4-9.3-2.3-13.3-5.5-2.5-2.1-2.6-4.8-1.7-7.1 1.6-4.2 2.8-8.5 4.7-12.6 1.6-3.5 3.1-7.1 5.1-10.4 1.2-2 2.5-4 4-5.8 2-2.5 4-5 6.3-7.4 1.9-2 4.9-1.8 6.8.3 1.1 1.2 1.3 3 .4 4.4-.7 1.1-1.2 2.3-2.1 3.1-4.5 4.2-7.1 9.7-10.2 14.8-2.6 4.3-4.1 9.3-5.6 14.1-.1.4.1 1.1.4 1.4 2.2 2.3 5 1.7 8.3 1.8zm-9.9 47.1c1.7-.4 3.7-.3 5-1.2 5.4-3.6 9.8-8.2 13-13.8.2-.3.1-.7.2-1-.3 0-.7-.1-1 0-.7.3-1.4.7-2.1 1-4 1.8-7.4 4.6-11 7.1-2 1.4-3.6 3.4-5.3 5.2-.4.5-.2 1.5-.1 2.3.1.1.9.2 1.3.4zM110.3 166c1.2 0 2.3.1 3.5 0 2.6-.2 4.3.7 5.2 3.3.7 1.9 2.4 3.7 2.4 5.6 0 1.8-1.4 3.7-2.3 5.5-1.3 2.6-2 5.5-3 8.2-.7 1.8.1 4.2.2 6.3 2.4 0 5 .4 7.3-.2 5.7-1.5 11.3-3.2 16.4-6.2 1.7-1 3.7-1.9 5.5-2.3 3.9-1 5.3-4 6.3-6.9 1.7-5.3 4.1-10.3 5.3-15.8.5-2.2 1.4-4.5 1.7-6.7.3-2.1 1.4-3.5 2.7-4.9 1.2-1.3 3-1.3 4-.5 1.7 1.3 4 2.7 2.4 5.6-.3 6.7-3.2 12.6-5.2 18.8-.3.9-.4 1.8-.8 2.7-.6 1.4-1.3 2.8-1.9 4.1 1.6-.7 3.4-1 4.8-2 3.9-2.9 8.5-4.5 12.6-7.2 3.6-2.4 8.1-3.7 12.3-5.3.7-.3 1.7-.1 2.5 0 1.1.1 2.4-.5 3.2.8.6.9 1.3 1.8 1.7 2.8.4 1.1-1.3 3.6-3 4.4-2.4 1.1-4.8 2-7.2 3-1.7.7-3.7 1-5.1 2.1-5.2 3.7-10.9 6.5-16.6 9.5-.7.4-1.4.6-2 1.1-1.2.8-1.1 1.3.5 2.4 5.8 4.1 11.6 8.1 17.3 12.4 2 1.5 3.6 3.4 5.3 5.3 1.3 1.4 1.2 4.3 0 5.7-1.6 1.8-2.9 2.1-5.1 1-1.1-.5-2.2-1.2-3.1-2.1-6.2-6.3-13.4-11.1-21.1-15.3-.1-.1-.3-.1-.4-.2-4-2.5-4.3-2.4-6.2 1.6-2.3 4.9-5 9.6-8 14.2-1 1.5-2.2 2.4-3.5 2.3-1.4-.1-3.2-.9-4-2-1.1-1.4-1.1-3.4.1-5 2.7-3.8 4.9-7.9 7-12.1.2-.4 0-1.1 0-1.7-.5 0-1 0-1.3.2-5 2.3-9.9 4.5-15.5 4.7-2.7 1.9-5.7.6-8.6 1-2.9.4-4.2-2.6-6.7-3.1-.5-2.1-2.3-3.6-2.5-6-.2-2.3 1.2-4.8-.8-7-1.8 1.3-3.5 2.9-5.5 3.7-4.1 1.7-7.7 4.7-12.3 5.4-.8 1.5-1.4.1-2.2 0-2.4-.5-3.1-2.7-4-4.4-.9-1.6.4-3.9-1.2-5.5 1.2-1.5.8-3.3 1.3-4.9.9-2.9 4.1-6.5 6.6-8.7 3.4-3 7.5-4.5 11.5-6.2 3-1.2 6.6-1.2 9.9-1.7-.4-.1-.4.1-.4.2zm-18.5 20.1c.5-.2.8-.3 1-.4 4-2.1 7.7-4.7 11.4-7.3 1.3-.9 3-1.3 3.3-3.2-1.5.3-3.1.5-4.5.9-4.2 1.3-8.2 3.2-11.2 6.6-.6.6-.7 1.7-.9 2.6.1.2.7.5.9.8zM762 135.9c.3 7-3.6 12-8.5 15.9-6 4.7-12.6 8.6-19.6 11.8-2.7 1.2-5.3 2.6-8.1 3.4-1.6.5-2.1 1.2-3 2.5-5.6 9.1-10.1 19-16.5 27.7-1.3 1.7-1.8 4-3.4 5.6-.3.3 0 1.2.1 1.9.5-.2.9-.5 1.4-.6 2.5-.4 5.1-1 7.6-.9 2.5 0 5 .6 7.5 1.1 2 .4 3.7 3.3 3.3 5.5-.7 3.8-1.9 7.8-4.1 10.7-2.7 3.6-5.8 7.2-10 9.3-1.9 1-3.9 1.9-6 2.3-3.9.8-9.5-2.3-11.8-5.8-1.6-2.4-1.5-5.4-3-7.8 1.7-3.4 1.1-7.3 2.8-10.8 3.5-7.4 7.7-14.2 12.1-20.9.7-1 1.6-2 2-3.2 1-2.7 2.4-5 4-7.3.5-.7.8-1.7 1-2.6.1-.5.6-1.9-1-1-.9.5-2.2.5-3 1.1-2.1 1.7-5 .8-7 2.3-3.9-.3-7.2 2-10.9 2.6-2.8.4-5.6 1.2-8.4 1.4-2.9.2-4.5-1.5-4.5-4.3s1.4-4.3 4.4-4.6c5.2-.6 10.2-1.9 15.2-3.2 5.2-1.4 10.4-2.8 15.5-4.7 2.5-.9 4.7-2.2 7.3-2.9.9-.3 1.2-.8 1.8-1.6 4.6-6.4 8.8-13 14.4-18.5 5-4.9 10.6-9 17.6-10.5 2.7-.6 5.6-.7 8.3-.3 1.1.2 2.9 1.7 2.6 3.7-.2.7-.1 1.7-.1 2.7zm-51.7 75.9c-1.5.4-2.9.7-4.2 1.2-2.8 1.1-5.6 2.4-7.4 4.9-.4.6-.8 1.5-.6 2.2.5 2.2 3 3 5.2 2.3 4.4-1.5 6.4-5.4 9.3-8.5.1-.1 0-.8-.3-1-.6-.5-1.3-.8-2-1.1zm42.5-72.6c-.7-.1-.6-1.3-1.9-.7-6.6 2.8-11 8.2-15.9 13-.2.2-.2.8 0 .9.2.2.7.2 1 .1 6.4-3 11.9-7.3 16.6-12.6.1-.1.1-.4.2-.7zM583.1 80.1c.4 4.6-2.1 8.1-4.4 11.7-3.7 5.9-9.7 9.3-14.8 13.6-2.5 2.2-5.9 3.4-8.9 5-1.8 1-3.4.9-4.8-.7-2.5-2.9-6.1-5-7.2-9-.3-1.1-1-.8-1.9-.4-2.6 1.4-4.7 3.6-7.9 4-2 .2-4 1.9-5.8 1.5-3.8-.7-7.6-1.9-9.5-6.1-1.5-3.1-2.2-6.3-2-9.7 0-.6 0-1.4-1-.6-1.5 1.2-3.1 2.2-4.5 3.6-4.9 4.6-10.9 7.2-16.9 9.8-1.7.7-4.7-.7-5.5-2.7-1.5-3.6-3.3-7.2-1.1-11.3.9-1.6 1.1-3.5 1.9-5.2 1.4-3 3.8-3.4 6.2-1.2 1.7 1.5 3 3 1 5.3-.6.6-.7 1.7-.9 2.6-.1.4-.1 1.1.1 1.3.2.3 1 .4 1.3.2 1.3-.9 2.5-2 3.9-2.8 3-1.6 5.7-3.6 8-6.1 4.3-4.5 9.3-8.4 12.8-13.7.9-1.4 2.2-2.5 3.5-3.5 3.4-2.9 6.6-2.1 7.8 2.3.3 1.1-.2 2.8-.9 3.7-3.3 3.9-4.7 8.8-6.2 13.4-.8 2.7-.5 5.9-.4 8.8.1 1.6 2.2 2.3 4.1 2 4.7-.8 8.1-3.8 11.8-6.5 1.3-1 1.8-2.3 2.3-4.1.8-3.1 2.5-6 4.4-8.6.5-.8.9-1.6 1.4-2.4 3.3-5.1 8.1-7.2 14.9-9.6 8.4-2.9 16.1 3.9 18.7 10.5.7 1.5.4 3.3.5 4.9zm-7.8.4c-.8-1.3-1.9-2.6-2.2-4-.3-1.3-.9-2.1-2-2.5-3.6-1.2-7.2-.7-9.9 1.5-3.8 3.1-7.7 6.4-8.2 12-1.5 1.1-1.5 3.2-.8 3.9 1.3 1.5.5 2.1-.1 3.3-1.2 2.2-1 3.4.6 5.4.7.8 1.3 1.4 2.4.4 1.6-1.5 3.7-2.4 5.4-3.6 5.1-3.5 9.6-7.7 13-12.9.6-1 1.1-2.2 1.8-3.5zM732.2 110c-2.5 0-5.3.5-7.2-1.6-2.6-2.8-6.3-4.8-7-9.1-.2-1.2-.7-2.4-1-3.6-.4-2.2-.8-2.4-2.6-.7-1 .9-1.9 1.9-2.8 2.8-3.9 3.7-8.2 6.8-13.4 8.6-4.9 1.7-11.5-1-14.1-5.4-1.6-2.7-2.2-5.8-3-8.8-.2-.9-.2-2 .1-2.9.7-2.7 4.3-4.1 6.4-2.3 1.1 1 1.7 2.6 2.4 4 .2.4-.1 1 0 1.5 1 5 4.7 6.6 9 3.8 1.9-1.2 3.6-2.7 5.2-4.2 2.2-2 4.3-4.2 6.4-6.4.3-.3.5-1 .3-1.3-.1-.3-.8-.5-1.2-.5-1.8-.1-3.7.1-5.5-.1-1.7-.2-3.5-.5-4.9-1.3-1.3-.7-2.4-1.9-3.2-3.1-.8-1.2.8-2.4.8-3.5 0-2.8 1-5.4 2.3-7.5 1.8-2.7 4.3-5.2 7-7 2.7-1.8 6.1-3.3 9.4-2.3 2.9.8 6.2 1.7 7.4 5.2.3.7 1.1 1.2 1.6 1.8.6.9 1.1.7 1.8 0 1.1-1.2 2.1-2.4 4.1-2.2 2 .3 4.2 1.4 4.4 3 .3 2-.2 3.8-1.8 5-4.6 3.3-7.1 7.7-8.3 13.2-.4 1.7-1.2 3.6-.7 5.1 1 2.9 1.5 6 3.3 8.6 1.6 2.2 4.8 2.7 8.5 1.8 5.5-1.5 10.7-4 16-6 3-1.1 6.1-2.2 9.2-3.1.5-.2 1.3.2 1.9.5 3.8 2.1 4.1 5.6.6 7.9-.9.6-2 .8-3 1.1-4.1 1.5-8 3.2-12 4.8-5.2 2-10.4 4.8-16.4 4.2zM708 75c3 .2 5.4-1.5 8-2.5.4-.2 1-.9 1-1-.6-1.1-1.2-2.3-2.1-3.1-.6-.4-1.8-.3-2.6 0-2.6 1.1-4.4 2.9-5.7 5.5-.4.9-.4 1.1.5 1.1h.9zm-551-.3c-.3 7-2.3 13.6-4.4 20.2-1.3 4-3.6 7.5-4.7 11.6-.2.6-1.3.9-.2 1.8 1.3 1.1 2.2 3 3.6 3.4 4 1.1 2.3 4.1 2.6 6.4 0 .3-.5.7-.8.9-2.4 1.1-4.5 1.8-7.1-.2-2-1.6-4.1-3.2-5.8-5.1-2.5-2.7-2.8-5.6-1.3-9.2 2.3-5.4 5-10.6 6.5-16.3.5-2.1 1.1-4.2 1.6-6.3.1-.5 0-1 0-1.5.1-1.4 2.1-2.9.7-3.9-1.6-1.2-2.9 1-4.5 1.6-5.7 2.1-10.2 6-14.1 10.5-1.8 2.1-3.5 4.4-4.2 7.2-.4 1.9-1.5 3.4-2.9 4.8-1.3 1.2-2.2 2.1-4.2 1-1.9-1-3.2-1.9-2.9-4.3.3-2.1 1.2-3.8 1.9-5.7 1.9-4.7 3.2-9.6 3.1-14.7 0-1.6-.7-2.2-2-1.7-6.9 2.5-13.3 5.6-16.5 12.9-2.4 5.5-5.2 10.9-8.4 16-.9 1.4-1.6 2.8-3.4 3.1-3.1.4-4.8-2.1-4.7-5.5.4-7.8 4.5-13.9 8.9-19.8 1.6-2.1 3.2-6.5 3.1-10.2-.1-2.8.5-4.8 3.5-5.5.7-.2 1.5-1 2-.8.9.3 1.8 1.1 2.4 1.8.5.5.8 1.3 1 2.1.3 1.2 1 1.2 1.8.7 5-3.3 10.6-4 16.4-3.8 3.1.1 4.6 1.4 4.8 4.6.1 1.3 0 2.7 0 4 0 .4.3.9.4 1.3.4-.3.7-.7 1.1-.9 5.4-4.1 11.5-6.6 17.9-8.8 1.8-.6 4-.6 5.9-.1 1.8.4 2.3 2.5 2.7 4.1.5 1.3.2 2.8.2 4.3z"/><path class="st0" d="M28.6 205.4c.5-1.6 1-2.9 1.5-4.2 2-5.3 4-10.7 6-16 1.2-3.2 3-6.1 3.1-9.7.1-2 2.2-3.2 3-5.2 2.3-6.2 5.1-12.2 7.9-18.2 1.6-3.3 3.2-3.8 6.1-2.4 2.1 1 2.5 2.4 1.9 4.8-.8 3.5-2.2 6.7-3.9 9.9-.2.3-.1 1 .1 1.3.2.3.9.4 1.3.2 2-.9 3.9-1.9 5.8-2.9 5-2.8 10.5-4.4 15.8-6.5 1.7-.7 3.7-1.2 5.4.5 1.1 1.1 2.4 2.6 2 3.8-.6 1.8-1.5 3.6-4 4.3-9.7 2.6-18.6 7.4-27.5 11.9-.6.3-1.2.6-1.5 1.1-.3.4-.4 1.3-.1 1.6 5.2 6.2 8.6 13.7 13.9 19.7 5 5.7 9.8 11.9 17.3 14.6.6.2 1.1.6 1.6.9 1.6 1 3.3 3.8 2.8 5.1-.8 2.1-3 2.7-4.7 3.9-.2.1-.7.1-.9-.1-2.9-2.2-6.6-2.8-9.3-5.3-2.5-2.3-5.2-4.5-7.7-6.7-5.1-4.5-8.6-10.3-12.4-15.9-1.7-2.6-3.5-5.2-5.3-7.8-1-1.4-2.1-1.2-2.7.5-1.4 4.4-3 8.7-4.8 13-.8 1.8-1.4 3.8-2.3 5.6-1.2 2.6-4.4 3.3-6.6 1.5-.9-.7-1.2-2.1-1.8-3.3zM662 188.1c.3 5.8-1.8 11.1-3.9 16.4-1.6 4-2.9 8.1-4.9 12-.7 1.4.1 3.5-1.8 4.8-1.6 1.1-5.1 1-6.1-.5-.2-.2-.2-.6-.2-.9-.1-3.5.2-6.9 1.8-10.3 2.2-4.7 4-9.7 5.7-14.6.8-2.2 1.1-4.6 1.5-6.9.2-1-.1-1.9-1-2.6-1.1-.9-1.6.2-2.5.3-5.3 1.2-8.3 5.3-11.6 9-3.1 3.4-4.9 7.6-6.8 11.7-1.1 2.2-2.8 3.6-4.4 5.1-1.5 1.4-5.6-.4-5.7-2.6-.1-1.8-.6-3.7.8-5.7s1.9-4.5 3.7-6.5c1.5-1.6 1.5-3.7 1.5-5.9s.1-2.4-.8-3.4c-.6-.7-1-.6-1.5 0-.2.2-.6.2-.9.3-8.1 3.9-8 3.9-11.9 11.6-2.3 4.4-4.6 8.8-7.1 13-1.4 2.5-5.3 2.7-7.2.5-.5-.5-.6-1.4-.7-2.2-.5-4 1.2-7.4 2.6-10.9 1.2-3 2.6-6 5.2-8.4 2.7-2.5 4.6-7 5.3-10.8.3-1.4.7-2.7 1-4.1.5-2.4 2-3.9 4.2-3.8 2 .1 3.7 1.8 3.8 4.1 0 .7-.2 1.4.1 2 .2.4 1.3.9 1.3.8 1.5-1.9 4-.4 5.8-1.8.9-.7 2.9-.2 4.4-.1 2.4.1 3.6 1 4.4 3.5.6 1.7 1.5 2.1 2.7 1.2 1.8-1.3 3.3-3.1 5.3-4.1 3.4-1.7 6.9-4 11-1.6 1 .6 4.6 2.4 5 3 2 2.7 2 2.7 2 6.2-.1.9-.1 1.5-.1 2.2zm-405-86.9v-9.5c0-.8-.1-1.7 0-2.5.1-1 .9-2.7.6-2.9-1.6-1.1-2.2.8-3 1.6-4.6 4.3-8.7 9-11.8 14.6-.8 1.5-2.4 2.7-3.8 3.9-1.9 1.7-4.5 1.4-5.8-.7-.6-1-1.1-2.3-1.2-3.5-.2-3.9.3-7.8-1-11.6-.3-1-.2-2.2-.3-3.4-.9 1-2 1.8-2.7 2.9-5.7 8.4-11.6 16.6-19.1 23.6-1.8 1.7-3.8 1.6-5.4 1-1.1-.4-1.8-2.4-2.4-3.8-.2-.5.2-1.6.7-2.1 2.5-2.7 5-5.5 7.5-8.4 4.7-5.3 8.7-11.1 12.5-16.9 2.8-4.3 6-8.3 8.3-13 1-2.1 3.1-1.7 4.8-1.5 1.7.3 2.9 1.5 3.1 3.2.4 2.7 1.4 5.3 1.1 8.1-.2 1.6.1 3.1.8 4.6.7 1.3.3 3.2.4 4.8 2-.7 2.3-2.8 3.5-4.2 4.6-5.1 10-9.3 15.5-13.3 1.3-1 3-1.7 4.9-1.3 1.8.3 3.8 1.9 3.7 3.7-.2 3.3-.3 6.8-1.3 9.9-.5 1.5-.6 2.8-.6 4.2-.1 7.8 0 15.6 0 23.5 0 2.7-1.3 4.9-3.3 5.5-.7.2-1.9.3-2.3-.1-1.8-1.6-3.8-3-3.4-6.1.3-3.3 0-6.8 0-10.3zm148.3 67c.1 1.8-.8 2.8-1.9 4-5.7 6.3-12.9 9.9-20.6 13-5.4 2.2-11 4-16.5 6.1-.7.3-1.4.6-2 1.1-.5.3-1.1 1-1 1.4.2.5.8 1.2 1.4 1.3 8.4 2.4 16.1 6.3 23.8 10.2 4.7 2.4 9.4 5.3 13.2 9 1.7 1.6 1.9 4.5.7 6.1-1.8 2.2-2.9 2.4-5.8.7-2.8-1.6-5.7-3.3-8.3-5.4-4.2-3.3-9.2-5.2-13.9-7.4-3.9-1.8-8.1-3-11.9-5.1-1-.6-2.4-.7-3.6-1-.8-.3-2.1-1-2.4-.7-.7.7-1.2 1.8-1.4 2.9-.5 3-.7 6-1 9.1-.2 1.7-2.7 4.8-4.3 4.5-1.3-.2-2.8-1.3-3.6-2.4-1.2-1.7-1.5-3.8-.9-5.9.2-.7.8-1.4.8-2.2 0-6.6 2-12.7 4.2-18.7 2-5.5 3.7-11.1 6.8-16.2 1.9-3.1 2.7-3.7 5.7-3.2 2.3.3 3.7 2.7 2.8 5-1 2.4-2.1 4.8-3.1 7.2-.2.4-.4 1.2-.3 1.3.5.3 1.2.6 1.7.5 2-.4 3.8-1.4 5.6-2.1 5.8-2.5 11.9-4.1 17.5-7.2 4.1-2.2 7.9-4.7 11.1-8.1 2.2-2.3 4.2-2.2 6.1.1.5.3.7 1.2 1.1 2.1zm-165.2 31.4c-.4-4.5 1.1-7.9 2.8-11.4 2.9-5.9 6.6-11.2 11.2-15.8 1.7-1.7 4.6-1.9 6.1-.7 2.2 1.8 2.4 2.8.8 5.8-.5 1-1.1 2-1.8 2.7-3.9 4-6.6 8.8-9.2 13.7-.9 1.7-1 3.4-.9 5.1.1 2.5 1.2 3.2 3.5 1.9 5.1-2.9 9.8-6.3 14.3-10.1 4.5-3.9 8.6-8.1 13-12 1.8-1.6 3.9-2.9 5.5-4.7 1.2-1.4 2.9-1.5 4-1 1.3.6 2.6 1.7 2.7 3.7.1 1.9-.5 3.6-1.5 4.9-3 4.4-5.4 9.1-7 14.1-.7 2.2-1.1 4.5-1.6 6.8-.1.4.2 1.1.5 1.2.3.2 1-.1 1.3-.3 1.4-1 2.7-2.3 4.2-3.1 2.4-1.2 4.5-.7 6.1 1.1 1.2 1.4 1.1 3.2 0 4.8-2.4 3.2-6 4.8-9.4 6.2-5.9 2.5-11.5-1.6-11.7-8-.1-2.3.6-4.4 1-6.6.1-.5.1-1.4-.9-.6-1.1.9-2.3 1.6-3.5 2.5-4.4 3.5-8.7 7.4-14.2 9.1-6.8 2.2-11.7 1-14.7-4.8-1.1-1.7-.2-3.4-.6-4.5zm198.8-111c.9-6.7 1.9-13.7 5.1-20.1 1.4-2.8 3.7-5 6-7 1.3-1.1 3-1.1 4.4.4 1.2 1.3 2.2 1 3.8.5 5.7-1.9 11.4-1.2 16.8 1.2 1.7.7 3.3 1.7 5 2.4 2 .8 2.6 2.7 3.6 4.3.2.3.3.9.2 1.3-.9 2.8-1.7 5.6-2.9 8.3-1.3 2.8-3.3 5-5.5 7.3-4.3 4.4-8.9 8.4-14.3 11.3-3.9 2.1-12.7 4.5-15.6 4.7-1.7.1-2.7-.7-3.8-1.8-1-1.1-1.8-2-1.8-3.8 0-3-.6-5.8-1-9zm9.1 1.1v1.4c-.2 1.5.4 2.2 1.9 1.9.8-.1 1.5-.5 2.2-.6 3.8-.7 6.7-3.1 9.9-4.9 4.7-2.6 7.5-7 10.8-10.9 1.9-2.3 1.2-2.7-1.2-4.6-2-1.6-4.7.3-6.3-1.8-.2-.2-1.6.8-2.5.9-6.3.5-9.2 4.5-10.9 9.9-.6 1.9-.8 4.6-2.1 5.4-1.7 1-1.9 2.1-1.8 3.3zM610.7 117h-2.5c-5.5 0-9.5-3.1-11.2-8.6-.9-2.7-2-5.4 0-8.2 1.5-11.7 5.2-18.8 8.3-26 2.3-5.5 4.9-10.9 7.4-16.4.2-.5 0-1.1-.1-1.7-.5 0-1 0-1.3.2-3.4 1.7-6.2 4.1-8.3 7.4l-1.5 2.4c-1.1 1.6-2.9 1.3-4 .8-1.1-.6-2.4-1.5-2.6-3.3-.2-3.1 1.3-5.6 3-7.7 2.4-3 5.2-5.6 8.9-7.2 3.9-1.6 7.7-2.7 12-2.5 2.5.1 3.9 1.8 4.2 4.3.4 3.8-1.3 7.1-2.5 10.5-1.5 4.5-3.8 8.7-5.6 13.2-2.8 7-6.4 13.7-8.5 21-1 3.4-1.8 6.8-1.5 10.3.2 1.8.9 2.8 2.6 2.7 3-.2 6.2 1 9.1-.9.5-.3 1.3-.1 2 0 1.2.1 2.8-.6 3.6.9.6 1.1 1.2 2.2 1.4 3.4.3 1.7-2.3 4.3-4.4 4.7-2.8.5-5.7.9-8.5 1.4v-.7zm-48.6 99c-3-.1-5.7.5-7.9-1.4-2.8-2.3-5.1-5.1-6.1-8.5-1.2-4.1-2.7-8.2-2.1-12.6 1.1-7.1 3.7-13.3 10-17.6 4.4-3 9-4.9 14.4-5.1 1.7-.1 3.4-1.5 5.1-.8 2 .8 4 1 6.1.9 1.8 0 3.1 1.6 3.2 2.6.3 2 .7 4 1.1 6.1.3 1.4-.9 2.9-1 4.6-.1 1.7-2.7 3.1-4.5 2.8-1.5-.2-3.3-2-3.3-3.6 0-1.7.2-3.6-1.6-4.3-1.2-.4-2.8-.4-4.1.8-.7.6-2.3-.1-3.4.1-4.2.7-10.4 5.7-12.3 9.9-.1.3-.6.5-.6.7 0 4.2-.6 8.5 1 12.6 1.5 3.7 6.1 5 10.3 2.9 5.2-2.5 10.5-4.5 15.2-8 2-1.5 4.7-2.2 7.2-3.1 2.3-.8 5.1.4 6.2 2.4.6 1.2-1 4.6-2.8 5.6-7 3.7-13.9 7.4-20.9 11-3.1 1.4-6.3 2.5-9.2 2zM168 92.4c-.5-7.7 2.2-14.5 5.3-21.3 1.4-2.9 3.6-3.9 6.4-2.8 1 .4 1.6.9 2.5-.1.3-.3 1-.1 1.3-.4 4-3.6 9-3.2 13.8-2.8 3 .2 5.7 1.9 7.6 4.4 2.5 3.3 3.9 8.9 3 13.2-.6 2.5-1.7 5.1-3.3 7.1-2.8 3.3-6 6.2-10 8.4-4.1 2.2-8.3 4-12.7 5.5-2.1.7-4.3.4-6.5 1.3-1.9.8-3.8-.3-5.3-1.4-1.7-1.2-1.5-3.4-2-5.1-.5-1.8-.1-4-.1-6zm9-1.6v1.8c0 2.4.6 3 2.8 2.3 3.1-.9 6.2-2 9-3.4 3.5-1.8 6.1-4.8 8.7-7.7 2.1-2.3 1.9-6.3-.1-8.7-.4-.5-1-1-1.5-1-3.8-.5-7.3.4-10.3 2.8-1.8 1.5-3.8 3-4.8 5-1.4 2.8-4.7 5.2-3.8 8.9zm600 104.3c.7 8.7-4.2 14-11.1 17.9-3.6 2-7.3 4.3-11.8 4-2.2 1.5-4.7 1-7.1 1-5-.1-9.7-4.7-10-9.7-.1-1.7-.7-3.3-.2-5.2.5-1.7.4-3.7 1-5.6.6-2.2 2-4 3.2-5.6 2.6-3.5 5.4-6.8 9.8-8.3 3.8-1.2 7.6-2.7 11.5-3.6 2.5-.6 5 .4 7.2 1.8 1.6 1 3.9.8 4.6 3.4.4 1.6 2.3 2.7 2.8 4.3.5 1.8.1 3.8.1 5.6zM750.5 209c0 .1.1.2.1.3 1.7-.4 3.4-.8 5-1.3 4.8-1.5 8.9-4.2 12.1-8.2 1.5-1.8 1.9-4.2 1.2-6.4-.6-1.9-1.7-3.8-4.1-4.2-1.8-.3-3.1.8-4.5 1.9-2.5 1.9-3.7 4.8-5.2 7.4-1.7 2.8-2.2 3.1-5.2 1.9-.6-.2-1.1-.5-1.7-.7-.3-.1-.9-.4-1-.3-1.6 1.7-2.3 3.7-2.2 6.1.1 1.8 1.6 2.5 2.6 3.4.5.5 1.9.1 2.9.1zm-700-104.8c-2.3-.3-5.5-.3-8.3-1.3-6.4-2.3-9.9-7.5-7.8-13.8 1.9-5.6 5.5-10.1 9.9-13.9 2.5-2.1 5.6-3.4 8.2-5.4 5.2-4.1 11.2-5.3 17.5-4.8 4 .3 7.4 4 7.9 7.8.2 1.6.1 3.3 0 5 0 1.6-1.5 4-2.8 4.1-1.4.2-2.8.3-4-1.2-1.3-1.5-2.6-2.9-2.2-5.1.3-1.2-.3-1.7-1.6-1.7-3.3 0-6 1.1-8.9 2.8-4.2 2.4-8 5.2-11.4 8.7-1.3 1.4-2.5 2.9-3.5 4.5-.5.9-.5 2.1-.6 3.2 0 .2.7.8.9.8 1.7-.5 3 1.1 4.6 1.1 1.8 0 3.8.4 5.5-.1 6.4-1.6 13.2-1.2 19.4-3.8 2.8-1.1 6.1.5 7.1 2.9.8 1.9.1 4-1.8 4.9-1.7.8-3.4 1.6-5.2 1.9-1.6.3-3.1.3-4.6 1-1.4.6-3.3-.5-4.6 1.1-.1.1-.3 0-.5 0-4 .5-8.2.9-13.2 1.3z"/><path class="st0" d="M631.5 104c-2.7.3-5.5-.6-8.3-1.9-1.1-.5-1.6-1.3-2.3-2.1-1.9-2.1-.2-4.1.4-5.6 2.7-7.1 6.9-13.5 10.8-20 .6-1 1.7-1.6 2.4-2.5 1-1.4 2.4-.9 3.6-.8 1.1.1 2.7 2.4 2.8 3.6.2 2.2-.6 3.9-1.8 5.7-2.7 4.2-5.2 8.5-7.8 12.7-.8 1.3-.5 1.7.9 1.9 2.5.3 4.7-.7 6.8-1.6 5.6-2.3 10.4-5.9 14.9-9.9 2.9-2.6 5.8-5.2 8.8-7.8.9-.8 4-1.1 5-.5 1.4.8 1.2 2.2 1.2 3.5.1 1.7-.2 3.1-1.6 4.4-3.4 3-5.2 7.1-7 11.1-.7 1.5-.5 3.5-.3 5.3 0 .5 1.1 1.2 1.8 1.5 1.1.5 2.4.7 3.6 1 3.1 1 4.5 3.6 3.5 6.4-.3 1-3.6 2.9-4.8 2.6-2.1-.5-4.3-1-6.1-2-1.8-1-3.5-2.5-4.7-4.2-1.1-1.6-1.7-3.6-2.3-5.5-.4-1.4-.9-1.4-2-.8-1.6.9-3.3 1.8-4.9 2.6-3.6 1.7-8.4 2.9-12.6 2.9zM511.2 210.3c-3.4-.4-6.8-.1-10.1-1.2-5.6-1.8-10.7-4-12.5-10.1-.7-2.4-1-5.3-.4-7.7.7-2.5 1.2-5 2.4-7.5 2.5-5 6.2-8.2 10.9-10.8 3.9-2.1 7.7-4 12.4-4 5.3 0 7.8-.1 10.8 3.3 2.4 2.6 2.7 5.9 2.2 9-.3 1.9-2.5 3.1-4.3 3.4-1 .2-2.5-1.4-3.6-2.4-.6-.6-.7-1.7-1-2.5-.9-2.7-1.4-3.3-3.7-2.6-7.3 2.1-13.8 5.4-16.9 13-1.8 4.5-.1 8.6 4.5 9.8 1.9.5 3.8 1.5 6.1 1.2 2.6-.3 5.3-.1 8-.1 3.2.1 6.2-.9 9.3-1.8 2.8-.8 6.6 1.6 6.6 4.5 0 1.1-.3 2.8-1.9 3.3-1.8.6-3.4 1.7-5.2 1.9-4.5.6-9.1.9-13.6 1.3zm-193-1.5c-.7-.2-2.6 0-4.5-.4-4.6-.9-7.2-4-9.2-7.6-1-1.8-1.7-4.3-1.3-6.3.6-3.6 1-7.3 2.6-10.9 1.9-4.2 3.9-8.2 6.9-11.6 3.6-4 8-7.3 14-7.1 3.8.1 6.9 1.4 9.2 4.4.9 1.1 2.8 1.8 2.1 3.6-.7 1.8-1.1 4-3.7 4.4-.5.1-.8.7-1.5 0-.9-.8-2-1.5-3.1-2.1-1.1-.7-2.4-2-3.4-1.8-1.6.2-3.2 1.2-4.4 2.4-4.5 4.2-8.1 8.8-9 15.3-.3 2-1.1 3.6 0 5.7 1.2 2.4 2.7 3.2 5.3 3.3 4.4.2 8.5-1 12.5-2.4 1.5-.5 2.8-.6 4.2-.6 1.6 0 3.9 3.9 3.1 5.2-1 1.4-2.3 3.2-3.8 3.6-4.9 1.4-9.6 3.7-16 2.9zM681 149.7c0 2.1-1.1 3.6-3.1 4.3-3.6 1.2-7.4 2.3-11 3.6-3.5 1.3-7.1 2.7-10.6 3.2-5 .7-9.9 2.7-15.1 2.3-1.2-.1-2.4 1-3.6.9-4.7-.5-9.4-.8-13.7-3-2.8-1.4-3.4-3.7-2-6.6 1.3-2.5 2.7-3.4 4.7-2 2.5 1.8 5.1 1.5 7.8 1.6h7c3.4 0 6.5-1.2 9.7-1.7 8.3-1.4 16.1-4.3 24-7.1 3.4-1.1 6 1 5.9 4.5zM109 51.4c-.1-1.5-.2-3.3 1.8-4.8 2.3-1.9 4.2-2.6 5.7-.4 1.7 2.4 3.5 2.1 5.2 1.5 5.8-2.1 11.8-3 17.9-4 4.1-.7 8.1-.6 12.1-.8 2.3-.1 4.2 1.6 4.4 3.5.3 3.1-1.1 5-4 5.4-1.1.2-2.3 0-3.5 0-7.4.5-14.8 1.4-21.9 3.8-3-.6-5.2 2.3-8.1 2.1-.9 1.4-2.3.9-3.6 1-1.8.2-3-.5-4.3-1.8-1.3-1.3-2-2.5-1.7-4.3v-1.2zm738.4 164.1c-.5 1.1-1 2.2-1.7 3.2-.8 1.3-1.9 2.5-2.7 3.9-2.2 3.9-4.9 4.7-7.9 1.9-2.3-2.1-4-4.9-5.6-7.6-1.3-2.3-.5-5.9 1.5-7.4 2.3-1.6 4.7-2.9 7.2-4.2 1.3-.7 4.4 1 4.7 2.8.3 2.2 1.2 3.6 3.2 4.7.6.3.8 1.5 1.3 2.7zM873 218v-1.5c0-1.6-.2-3.2 1.3-4.5 1.7-1.4 3.2-3.1 5.7-3.1h4c2.2.1 3.9 1.8 3.9 4 0 1.2-.1 2.3 0 3.5.1 1.4-.2 2.5-1.4 3.5-.7.6-1.3 1.4-1.6 2.3-1.4 3.5-1.8 3.8-5.1 3.8h-1.5c-4 0-5.3-1.4-5.4-5.5.1-.8.1-1.7.1-2.5zm-66-1.7c-.5 1.2-1 3.8-2.5 5.3-1.2 1.2-3.4 2.3-5.6.9-2.2-1.4-4.7-2.3-7-3.5-1.8-.9-3.4-2.1-2.9-4.5.1-.5.1-1 .4-1.3 3.1-3.2 6.3-6 11.3-5.2 3.2.5 6.2 3.9 6.3 8.3z"/></svg>