<svg width="328" height="288" fill="none" xmlns="http://www.w3.org/2000/svg"><g clip-path="url(#clip0)" fill-rule="evenodd" clip-rule="evenodd" fill="#EE7D00"><path d="M43.536 97.835a.949.949 0 00-.69-.876c.092-.083.061-.268.206-.3-1.444-1.608-.114-5.216.783-7.061 0-.258-.175.134-.392 0 .35-2.815 2.134-4.206 3.722-5.784a1.309 1.309 0 001.289-.587c2.453-.279 3.597-.588 5.391.288a1.473 1.473 0 00.691 1.083c.315 1.48.446 2.993.392 4.505-.598 4.443-4.68 7.784-7.949 9.278a19.139 19.139 0 00-2.154-.093c-.206 0-.206-.154-.103-.298-.516.278-.63-.423-1.186-.155zm2.856-3.629a2.681 2.681 0 002.65 1.175 3.938 3.938 0 003.432-3.917c-.123 0-.227 0-.196-.196.505-.124-.268-.928.196-1.031-.134-.093-.123-.33-.288-.392a2.835 2.835 0 00-1.774-3.237v-.299c-.886-.093-1.979-.495-2.546-.093a1.39 1.39 0 00-1.371.392c-.97 1.629-1.856 5.031-1.278 6.67.402.227.515.732.783 1.031.175.02.206-.113.392-.103zm95.639-2.546c-.134 1.289-1.763 3.32-3.093 2.845a34.16 34.16 0 00-4.412.588c.062-1.03 1.206-1.928 1.866-2.753 0-1.35-.134-2.381-.103-3.628-.155-.145-.495.35-.783.391a26.935 26.935 0 00-6.568.196c.31.804-.216 2.062.196 2.949 0 .103.155.092.289.092 0 .196-.268.134-.196.392 0 .083.103.103.103.206.866-.226 1.856.145 2.938-.206-.309 0 0 .32 0 .392a5.287 5.287 0 01-2.742 2.948c-.082 0-.464-.216-.691-.196a7.726 7.726 0 01-1.031.104 10.63 10.63 0 00-3.731.391 12.378 12.378 0 012.164-3.092s.114.154.093.195c.31-.731.134-3.216.196-4.123a18.767 18.767 0 010-2.846c-.216-.804-.35-2.37.299-3.03-1.031 0-1.536.37-2.361.288a5.264 5.264 0 013.536-3.33c1.124.072 2.763-.7 3.825.392a7.216 7.216 0 01-2.742 3.093 18.768 18.768 0 000 2.845c.288-.216.371-.124.783-.299.712.237 2.062-.505 2.743-.196a6.596 6.596 0 013.34-.288c.288-.743-.227-2.062.196-2.743-.207 0-.908-.227-1.031.093-.578-.505-1.268-.072-1.866-.392a6.12 6.12 0 012.556-3.092c.628.222 1.3.29 1.959.195.578.372 1.165-.061 1.67 0 .134 0 .258.29.392.3.134.01.206-.31.299-.3.093.01.227.361.392.403.33.082.928-.475 1.031.185.123-.32.526-.186.484.206.196-.35.743.145.784.392.185 1.031-1.969 2.464-2.454 3.093-.216.062-.35-.68-.392-.196-.268-.608-1.031-.371-1.031-.68 0 2.824.093 5.33.196 8.04.114 0 .176 0 .196.094a6.186 6.186 0 012.701.082zm-82.309 10.99c1.663.191 3.34.222 5.01.092-.732 1.722-1.742 3.186-3.093 3.238-.289 0-.546-.176-.887-.196-.34-.021-.731.175-1.03.103a3.36 3.36 0 00-1.031-.196c-.186 0-.186.289-.289.289-.103 0-.258-.196-.299-.196-.526 0-1.03.371-1.567.391-.268 0-.825-.422-.98 0-.072-.381-.7-.195-1.278-.092.289-1.361 1.64-3.299 3.093-3.093a8.486 8.486 0 010-2.454c-.371 0 0-.793 0-1.567a6.073 6.073 0 010-.886c.113-1.176.144-3.578.289-4.505-.062-.083-.454-.31-.485-.104.072-.824.866-2.061.392-3.092.083 0 .093.103.196.103-.145-1.165.185-2.31-.103-3.248.082 0 .103.103.206.103a23.408 23.408 0 01.185-3.721 12.604 12.604 0 00-2.742-.392c.155-.887 2.134-3.97 3.145-2.949a.432.432 0 00.391-.195c.217 0 .103.288.289.299a21.276 21.276 0 014.711.092c.114 0 1.114-.268 1.475.196.35-.36.216 0 .587.196.206.083.536-.093.784 0 .247.093.381.505.587.588.206.082.743 0 .98.103 0 0 .082.32.196.392.37.216 1.196.33 1.278.876.134-.237.299.185.392-.093.495.382.608 1.155 1.03 1.567 0 .093-.123.083-.195.103.969 2.578-2.062 5.732-4.516 7.062-.969.536-2.7 1.495-3.928 1.371a3.66 3.66 0 01-2.257.392 7.64 7.64 0 00-.289 4.32c0 .113-.103 0-.103 0-.258 1.628.505 3.556-.144 5.103zm.587-12.268c.103-.134.33-.124.392-.289 2.814.464 5.051-.248 7.856-1.474.422-.722-.237-1.103-.3-1.866a.537.537 0 00-.288.093c-.196-.516-.33-.794-.794-.774 0-.556-.35-.381-.484-.391-.134-.01 0-.29-.103-.3-.392.124-1.155-1.03-1.96-.783a.35.35 0 00-.587-.299c.072-.268-.196-.196-.196-.392-1.175-.175-2.062-.412-3.34-.587a49.497 49.497 0 00-.196 7.062z"/><path d="M149.392 81.454c.113-.237.092.175 0 .103.288.227 1.329-.072 1.278.288 1.227 0 1.454.557 2.454.3 0 .432.34.577 0 .876 0 .123.175.082.288.103a7.827 7.827 0 00.495 2.845 4.803 4.803 0 01-2.649 3.02c-.104-.855-.516-2.195-.588-3.33-.134-.278-.206.3-.495.186a6.436 6.436 0 00-.887-.783 28.003 28.003 0 00-.092 5.598c0 .629 0 3.237 1.175 2.443 1.175.175 2.196-.299 3.093.206a9.003 9.003 0 01-2.454 3.093 4.123 4.123 0 00-3.732.588c-.649-.846-1.691 0-2.649-.196.278-1.423 1.402-2.062 2.062-3.093-.052-2.69-.722-6.34.103-9.124-.371-.103-.279.237-.588.196 0-.165.093-.175.093-.299-.332.13-.7.13-1.031 0-.66 1.175-1.144 2.526-2.65 2.846a6.013 6.013 0 013.042-6.279c.525.413.948-.062 1.278.392.299.072.186-.268.485-.196.742.382 1.123.196 1.969.217zm-41.794 0c0-.227.268 0 .196.196a15.273 15.273 0 013.092-.093 3.417 3.417 0 01-1.427 2.57 3.431 3.431 0 01-2.892.523 23.697 23.697 0 001.278 4.7c.258.743.268 3.753.784 4.227 1.031-.309 2.309.227 3.629-.103-.691 2.31-2.825 3.01-4.217 4.32-.66.608-1.031 1.515-1.969 1.866.381-1.258 1.361-1.918 1.969-2.949a21.022 21.022 0 00-4.021-.092 17.819 17.819 0 00-5.01-.196c1.031 2.062-.68 3.525-1.866 4.505-.969-.691-.526-2.35-1.03-3.526.185-.155.236-.423.391-.588 0-.206-.196-.268-.289-.391a6.65 6.65 0 012.846-3.31c-.206.269.227.103.392.403.175 0 .206-.124.391-.104 1.454-2.7 2.732-5.577 4.021-8.433-.557 0-1.382-.35-1.959-.103-.134 0-.124-.567-.289-.196.207-1.288 1.495-2.36 2.454-3.237a4.97 4.97 0 003.526.01zm-4.217 11.577c.093 0 .155.278.289.299.134.02.825-.36.495 0a1.152 1.152 0 011.031 0c.392-.711-.505-1.124-.103-1.773-.258-.093-.32-.392-.485-.588a.269.269 0 00.196-.289c-.66-.886-.33-2.061-1.031-2.948-.753 1.804-1.814 3.464-2.062 5.495.629.196 1.114-.196 1.67-.196zM78.464 82.144c.114 0 0 .093 0 .093.31.36 1.031-.381 1.175.103.248-.454 1.031.206 1.031-.392 1.817.33 3.678.33 5.495 0-.835 2.794-.907 6.392-3.536 7.155.168-1.152.399-2.295.69-3.423.073-.309-.267-.196-.195-.495-1.031.227-2.062-.061-2.846.093-.484 3-.061 5.485-.391 8.835a13.4 13.4 0 003.825-.103c.113 1.536-1.238 2.402-2.207 3.227-.773-.103-1.443-.289-2.061.196a6.887 6.887 0 00-2.743-.196c-1.03-.093-2-.588-3.247-.093.629-1.515 2.062-3.587 3.732-3.093.67-1.165.247-3.092.299-4.412a30.47 30.47 0 01.484-4.216c-.711-.454-1.68.484-2.062-.196-.154.33-.134.216-.598.196-.618 1.175-1.165 2.422-2.546 2.845-.485-2.35 0-5.505 2.258-6.773.732 1.185 2.123.794 3.443.65zm44.217.392a1.614 1.614 0 00.783 1.278c.196.464.144 1.32.588 1.269-.067.918-.036 1.84.093 2.752a12.376 12.376 0 01-5.155 6.567 4.803 4.803 0 01-2.845.3v-.3c-.32.412-.805-.288-1.083-.288.546.092-.722-.67-.392-1.031-.134 0-.278 0-.288.103-.217-.444-.217-1.32-.784-1.67-.453-1.444.361-2.63.876-3.918.176-.443.134-.98.299-1.381a9.69 9.69 0 013.629-4.124 5.41 5.41 0 013.093-.3c.68.413.567.877 1.186.743zm-6.774 5.103c.341.052.155.567.093.784a.445.445 0 01.402.196 4.777 4.777 0 001.856 2.65c.103 0 .268-.125.299-.104.227.144.186.629.484.196.392.68 1.578 0 1.97.103.154-.31.433-.484.587-.784-.268-1.69 0-3.092-1.278-4.123 0-.124.134-.134.103-.3-.382-.226-1.175-.546-1.175-1.03-2.011-1.175-3.042.67-3.31 2.412h-.031zm-23.412-3.804c.587.402 1.577.062 2.546.392 0 0 0 .598.196.093.35.422 1.031 1.03.887 1.567h.391c-.268.608.34 1.484.392 2.061.289 3.495-2.546 5.568-4.711 7.65a10.413 10.413 0 01-3.144.103c-1.825-1.484-2.227-4.041-1.269-6.773-.092-.289-.144.227-.391.103 1.154-2.062 2.618-4.382 5-4.907-.031-.175.093-.186.103-.289zm1.66 6.567c0 .062 0 .114.103.103-.516-2.144-2.114-3.732-4.217-3.433-.381 1.753-.144 4.701 1.567 5.093v.299c.798.224 1.631.29 2.454.196a4.287 4.287 0 00.093-2.278v.02zm-48.01 118.175c.062.433-.124.619-.557.557-.062-.46.124-.646.557-.557zm4.566 22.505c.918.124.763 0 1.66.145-.227.165-1.66.371-1.66-.145z"/><path d="M8.248 177.969c.175-.33.154-.32.69-.546 1.29-.557 5.547-2.351 7.217-2.062.763.124 1.474 1.381 2.216 1.392.464 0 1.135-.784 1.66-.97 1.66-.618 4.124 0 5.949.135 1.824.134 3.268.68 4.845.969a2.417 2.417 0 001.317 1.683 2.419 2.419 0 002.137-.024c2.113 1.732 4.618 3.268 5.67 5.949.247.618.144 1.268.556 1.794.856 1.113 2.598 1.154 3.877 1.804 2.721 1.763 2.608 4.639 2.897 7.608.103 1.031 2.061 1.928 2.773 2.763a7.216 7.216 0 011.66 3.319c.165 1.423-.66 2.815-.557 3.732.103.918 1.36 1.372 1.247 1.939.248-.66.619.082 1.103 0a35.022 35.022 0 011.66 4.422c-.68.907-1.03 2.856-.412 3.598.35.454 1.124.444 1.515.835 1.031 1.031 1.402 5.392.279 6.773.165.341.526-.278.69.145-.268 1.443 0 3.938-.134 5.392a9.375 9.375 0 01-3.763 2.639c-.38-.598.732-.691.825-1.248-.154-2.319.866-3.093 1.382-5.154.268-1.031.175-1.959.69-2.351-.402-1.588.186-4.175-1.793-4.711-.557-.145-.887.175-1.382.144-.299 0-.546-.371-.835-.412-.68-.114-1.598.361-2.206-.279a1.878 1.878 0 011.515-.835c.413-2 2.567-3.835 2.217-6.639-.753-1.464-2.35-1.917-3.093-2.907-.825.165-2.299-.68-3.732-.134-.938 1.186-2.721 1.577-3.33 2.763.072-.258.794-.578.97-.279a3.212 3.212 0 00-1.465 1.423c-.113 2.134 1.031 3.093 1.516 4.557.443-.227 2 1.515 2.907.557.155.433.062.36-.134.69 1.031-.505 1.856.196 2.897-.134-1.619.629-3.175 2.062-4.557 2.485a1.093 1.093 0 00-.144-1.516c-1.103-.113-2.248.289-3.454.279-.639 1.031.114 2.484 0 3.866 1.423-.423 2.279-2.804 4.01-1.66 0 .546-.484-.155-.412.412.33 1.031-.526 2.124-.556 3.186a3.176 3.176 0 00.835 2.629c.268.288.567.546.69.69-.474.743-1.03-.278-.69.825-.444 0-1.031-.959-1.114-.412-.082.319.608 1.031.69 1.66.929-.227.733-1.567 1.393-2.062.598.69 1.247 0 2.206.412a2.335 2.335 0 00-1.248.278c-.185.392.732.351.279.557-.536.495-1.031.196-1.794.412a4.316 4.316 0 00-.69 1.66c.6.522 1.248.985 1.937 1.382h-5.402c-1.165-1.206-.866-3.093-2.206-4.011-.35-1.762.66-2.154.97-3.175.015-.555.06-1.109.133-1.66.134-.422.392-.639.413-.969.082-1.092-.475-2.773-.547-4.01 0-.794-1.134-1.495-1.392-2.217a6.464 6.464 0 01.279-4.288c-.784-1.66-1.248-3.629-2.907-4.423-.124-1.959-2.67-5.804-.134-6.185-.114.896-1.526 1.031-.691 2.061.65-.103.845-1.03.825-1.381a1.462 1.462 0 001.804-.969c-.753-.464-1.124.618-1.66.278.206-.525-.619 0-.412-.556.567-.825 1.71-.887 1.793-1.939.134-1.804-2.165-2.216-3.32-.824.052-.835-.7-.866-.69-1.66 2.258-1.598.31-6.186-2.495-3.876-.37-.495-1.33-.423-1.66-.969 1.031-4-2.731-5.042-6.082-3.866-.536-.248-.732-.835-1.103-1.248-2.175-.515-4.949-1.66-7.608-1.103-1.65.34-2.804 2.01-4.124 2.351-.701-.918-2.268-.712-3.175-.145v-3.866c.34-.587.113-1.732.69-2.062.413.093-.134.299 0 .557 1.32-1.68 4.124-1.856 6.64-2.35 0-.186-.351-.114-.557-.145a1.4 1.4 0 011.103-.268c-.608.505.268 0 .835.134 0-.299-.495-.062-.69-.134.144-.319.865-.051 1.247-.144a2.06 2.06 0 01-.145 2.216c.691-.061 1.64-1.577 2.062-.556-.154 0-.103-.279-.278-.279.175.557.66.392.825 1.382-.505-2.67 1.092-3.093 4.123-2.763-.464.412-.082.155.413.144.051-.34-.63.072-.413-.422.578.113 1.433.536 2.062.144-.072-.217-1.03-.248-1.381-.557-.289.536-1.516.516-2.495.279-.371-.475 0-.475-.547-.557-.546-.083-.247.309-.278.557-1.237-1.207-1.36 1.03-3.041.824.124-.629-.35-.66-.278-1.237-.217-.206-.65-.185-.835-.423-2.372 1.227-7.217.073-8.021 2.774-.557.051-.34.082-.825.268-.196-.083 0-.526-.278-.547l.03-1.608zm31.958 21.856c-.07.377-.266.718-.556.969.093 1.206.237 2.35.969 2.907 0-.165 0-.392.144-.412a3.317 3.317 0 001.505 1.793.374.374 0 00-.412.279c.433.227.567-.516.69-.134-.432.526.867.258.97.691-.165 0-.392 0-.413.134a.895.895 0 001.103.134c.134-.258-.412-.454 0-.547a5.102 5.102 0 004.289.691c.835-.773.382-1.742.412-2.773.031-1.031.65-2.062.557-3.32a4.266 4.266 0 00-2.484-3.175c-1.877-.547-2.186.721-3.877 1.103a4.116 4.116 0 00-3.185 2.629c-.072-.402.69-.681.288-.969zm-13.402-21.433c-.206 0-1.134-.052-.69.134.783 0-.134.123 0 .278.134.155.577 0 .69.278a2.455 2.455 0 011.66-.144c-.31 0-.443.114-.422.412 1.68 0 1.938 1.949 1.938 2.774 0-.186.381-.176.412 0-.196.175-.68.536-.134.69 0-.453.175-.742.557-.835 0 .66.196 1.103.69 1.248 0-.722.207-1.268.825-1.382a10.26 10.26 0 003.877 1.248 1.036 1.036 0 01-.413-.279c.588 0 .701.506.97-.134-.454-.247-1.032-.309-1.248-.835-.058.158-.154.3-.279.413-.525-1.423-3.165 0-3.32-2.062-.824-.371-1.257-1.144-1.937-1.66-.918.072-2.897.516-3.042-.412.124.288-.7-.206-.278.134.062 0 .144.01.144.134zm8.433 5.154c0-.278.382-.175.279-.556-.444-.165-.103.453-.557.278 0-.165 0-.33-.278-.278-.041.35.37.309.536.515l.02.041zm-23.897-.866c.722-.453.897.083 1.382 0 0-.278-.186-.278-.278-.422.247.072.793-.557.556 0 .908-.196 0-.804-.556-.413-.073.701-1.104.227-1.104.835zm5.67.268c.691 0 1.104-.185.97-.969a.71.71 0 00-.763-.172.697.697 0 00-.39.371.701.701 0 00.132.77h.052zm-2.762.279c-.103.381.268.278.278.556.959-.092 1.67-.443 1.794-1.381a1.863 1.863 0 00-2.124.825h.052zm7.464-.134c-.052.39.047.784.278 1.103.66-.103.887.216 1.526.144 0-.165.154-.216.268-.278.175-1.093-1.031-.825-1.382-1.382.34.763-.37-.02-.752.413h.062zm-10.237.69c.226.413 2.742-.505 2.061-.969-.268.784-1.639.423-2.113 1.021l.052-.052zm12.587-.556c.33 0 .412.237.835.134-.051-.392-.917-.557-.886-.134h.051zm2.217.134c-.258-.413-1.031.185-1.103-.134 0-.083 0-.165-.145-.134-.165.598 1.134.742 1.196.268h.052zm-.279 1.67c.907.433 2.227-.34 1.938-1.113-.907-.351-2.061.082-1.99 1.113H26zm4.701.825c-.185.608.103 1.927.97 1.938 1.03-.65-.135-1.598-.279-2.351-.835-.123-1.237-.577-1.794-.412.3.299.804.433 1.052.866l.051-.041zm6.784.412a.886.886 0 01.134-.691c-.371.083-.413-.855-.69-.412.411.093.185.866.504 1.103h.052zm-4.98 1.113c0 .392-.123.949.279.959.093-.422-.248-.402-.145-.825.279 0 .279-.185.413-.278.134-.093.474.711.69.278-.236 0-.309-.237-.267-.556-.557-.031-.568.422-1.021.422h.051zm11.825 6.361c-.381.444.33.485 0 .969.392 0 .897.072 1.103-.144-.845-1.155-.897-3.247-1.526-4.124-.742-1.031-2.948-1.103-3.32-2.629-.618.299-.937.763-1.659.279a5.423 5.423 0 002.217 3.041c-.485.381 1.103.979 1.103 1.794.526.237.866-.402.969-.134-.103.526.876.319 1.113.948zm-8.721-3.598c-.609-.546-.537-1.773-1.794-1.659-.608 1.154 1.237 2.175 1.814 1.659h-.02zm1.402 1.938c-.145.588-.598.866-.413 1.794.103.279.773 0 .835.279 0 1.185.866 1.443 1.516 1.938-.083-.32-.268-.835 0-1.103-.485-.248-1.083-1.093-.547-1.526-1.495-.186-.587-.928-1.391-1.382zm2.216 2.062c-.072-.577-.423-1.123-.969-.969.515.145.505.804.97.969zm.557 2.217c.35.742-.145-1.227-.557-.557.279.103.32.402.557.567v-.01zm-1.103 7.33v-.557c-.186-.144-.516-.134-.701-.278a.897.897 0 00.7.845v-.01zm-.835 1.381v.691c.917.124 2.123.608 3.04.278-.288-1.258-1.814-1.247-3.04-.959v-.01zm1.381 2.907c-.206 1.031 1.124 1.784 1.114 2.629 1.185-.422 2.38-.845 2.35-2.495-1.062-.742-3.155-1.711-3.464-.123v-.011zm1.382 4.289c.917.907 1.092 1.474 1.113 3.454a1.467 1.467 0 001.515.134c-.422-1.598-1.618-3.536-.969-4.98-1.453-.794-1.123 1.588-1.66 1.402v-.01zm4.01 12.031c-.578-1.031.794-2.258.7-3.186-.308.341-.236 1.031-.834 1.114-.186-.351.402-.578 0-.691-.98.557-2.66 1.103-2.35 2.485 1.102.185 1.03-.805 1.938-.825-.062.526.257 1.381.546 1.113v-.01zm-.69 1.103c.061-.567-.496-.515-.547-.969-.588.536-.763-.505-1.114-.134.444-.072.103.629.423.691.072-.402.216.206.412.134 0-.237-.206-.351 0-.413h.279c-.083.485.041.804.546.701v-.01zm-.413.412c.175.207.577.66.69.145-.103 0-.268 0-.278-.145.175 0 .33 0 .279-.268-.248.083-.578.083-.691.279v-.011z"/><path d="M40.474 203.289c-.886-1.227-.32-1.526 0 0zm30.258-53.268c-4.371-.114-2.062 1.959-6.186.484.588-.185 1.165-.371 1.619 0 .299-1.618-2.062.062-2.918.423 1.372-2.351-5.257.258-8.247-2.196 1.845-.443 6.99 1.289 6.247.681-2.257-1.104-4.783-1.135-7.144-1.836-.68.753.97.33.093 1.165-2.062.217-.959-1.484-2.062-1.525C37.361 146.722 15.289 134.186 0 124.33c9.763 14.144 29.897 24.454 41.856 24.196.68.567.144 1.165-.196.773 7.938.567 19.268 4.856 29.278 6.186-2.917 4.309-5.938 8.629-4.526 12.876 1.743-3.825 4.526-7.309 4.227-10.155 1.928 1.835 4.856-.216 6.835 1.444 1.248 3.299-6.268 6.185-5.825 10.185 6.99-5.464 14.372-16.361 9.64-21.886-1.526-1.784-4.99-.928-7.433-2.217-3.712-1.948-6.34-6.443-9.475-9.948C50.62 120.309 31.96 104.175 18 102.701c19.588 7.99 36.887 24.835 52.732 47.32zM20.619 236c2.454 1.505 5.845 4.206 4.02 7.67-1.484-.237-3.783.34-4.02-1.144-.68.185.165.845-.577.763v-1.145c.309-.062.33.175.577.186-.485-1.856-1.732-4.815 0-6.33zm32.071 7.629c.588.196-.082.649-.185.773-1.165-.516-1.783.124-2.69.381.247 0 .577-.835.195-.381-.525-1.144 2.33.165 2.68-.773zm-13.814 1.577c.485-.072-.185-.546-.577-.381.196-.536.773-.248 1.155-.196-.361.371 0 .484 0 .969-.423.443-.753-.072-1.34 0v-.578c.299.011.732-.092.762.186z"/><path d="M50.773 244.825c.083-.423.949-.072 1.34-.196a.94.94 0 01-1.34.196zm-.763.959c.598.134.248.515.186.958-.485-.02-.454-.711-.186-.958zm15.733 2.69h.577c-.103.278.227 1.031-.196.959-.639.196-.299-.598-.381-.959zm-17.083 1.918c.588 0 .144.494.773.762-.051.341-.33.444-.773.392v-1.154zm0 1.536c-.051.185 1.144.453 1.536.381-.59.31-1.277.38-1.917.196.175-.196.443-.196.381-.577zm-21.68.196c1.04.035 2.075.162 3.092.381-.412 2.742-2.062 5.155-4.412 4.794-.907-1.113-.268-2.165-.578-3.258.794.093.846-.567 1.722-.381a3.616 3.616 0 01.175-1.536zm13.432.185c0-.422.815-.082 1.155-.185.237.618-.629.144-.392.763a.935.935 0 00-.577-.196c0-.186.237-.145.392-.186-.031-.227-.35-.165-.578-.196zm21.877.196c.088.457.216.905.381 1.34 1.33-.299 1.196.856 2.31.773a6.721 6.721 0 01-.774 3.258c-3.268.701-3.907-2.515-4.598-4.989a7.788 7.788 0 012.68-.382zm-30.33 5.371c-.691-.526-.722-2.309-.773-2.876.412-.516 1.412 0 1.731.185 1.031-.711 1.66-.763 1.733-2.299.618.083 1.66-.247 1.721.382-.526 2.464-1.32 4.701-4.412 4.608zm20.731-4.608h1.733c0 1.227.927 1.505 1.536 2.113.7-.196 1.113-.67 1.917-.763-.392.392.072.382.382.567-.155 1.701-.547 3.165-1.722 3.846-2.588-.619-3.278-3.124-3.845-5.763zm2.495 5.948a5.41 5.41 0 001.732 0c-.072.516-.505.65-.958.774.299-.815-1.073.041-.774-.774z"/><path d="M26.98 241.753c0-.361-.908-1.124-.774-.382a5.504 5.504 0 01.577-3.257c2.557-3.897 6.02 2.443 6.34 5.371.207-5.041 5.691-8.98 9.403-5.155 1.536 1.577 1.505 3.516 1.917 6.33.33 0 .495-.32.577 0 .588-.371.516-1.392.578-2.299 1.144-2.062 1.752-4.608 4.598-5.155 4.206-.835 6.185 2.598 6.34 7.289 1.34-2.959 3.093-9.381 7.093-6.185.288 1.443.876 2.587 1.154 4.03 1.186-2.402 2.155-5.01 4.99-5.752a37.61 37.61 0 011.155 4.031c-1.165-.145-2.062 1.474-1.918 2.68-1.505.062-3.268 1.165-4.423.382-.103-.423.372-.268.392-.567.02-.299-.247.072-.577 0a1.241 1.241 0 00.185-.959c-.206.371-.474.897-.567 0a3.245 3.245 0 01-1.35.381c.825-.505-3.34-.092-2.68 1.722.536.093-.155-1.031.38-.959.537.072.382.918.197 1.34-1.64-.247-5.31.475-6.918-.381a1.815 1.815 0 00-1.144-2.299c-.69.948-3.794-.33-3.65 2.299a6.52 6.52 0 01-1.917.196c.454.443 1.722.072 2.495.185-.402.217.36 1.413 0 1.547-.97 0-.196-.567-.382-1.351-1.35.918.598 1.65.567 2.495.32-.33 1.206-.072 1.155-.763a2.45 2.45 0 011.732.763c.742-.216.938-1.031.959-1.917.34.278.433.175.381-.382 2.567.072 4.186 0 6.907 0 .062 1.031.062 1.598-.577 1.536.856.103 1.237.681 1.928.959a1.557 1.557 0 012.062-.196c1.34-.752.814-1.67.773-2.691.711-.092 2.505-.659 3.835-.762.258 1.082.392 1.639 1.732 1.917.423 1.392-.34 1.65 0 2.691-.34.433-.907.639-.773 1.536-.526-1.031-3.753-1.134-4.413-3.093-.494 1.361-1.134 2.577-2.876 2.691 0 .474.835 1.814.763 1.144.258.062.155.485.196.773-.608.165-.732-.175-.959-.391-.268.061-.165.484-.196.773-.969.123-1.948.227-2.876.381a2.76 2.76 0 01-.196-2.299c-.34-.69-1.948-.093-2.062-.958-.165.752-.855.567-1.34.185.67.979-.175.144-.763.773 0 .258.474.155.763.196-.36.464-.454 1.206-.959 1.526-.258-.062-.154-.474-.196-.763-.587 0-.32.948-.381 1.536-.36.34-1.268.134-1.918.186.279-.299-.051-1.031-.381-1.341-.536-.082.144 1.031-.382.959-.876.103-.453-1.031-.773-1.536.464.938.268-.701.96 0-.64-.701-2.156-.526-3.455-.567-.432.103.238.299-.185.567-.588-.134-.701.196-1.155.196-.165-.619.495-.402.578-.763-1.134 0-1.207 1.093-1.155 2.299a1.64 1.64 0 01-1.155.186c-.082-.938-.257-1.784-.381-2.681-.567.712-.248 2.31-1.155 2.681.907.453 2.63.072 3.846.196.608.268-.68.195-.96.195-.216 1.289.867 1.299.764 2.495 1.093-.144 2.154-.752 3.093 0 1.175-.381-.269-2.062 1.154-2.113-.505 1.299-.288 3.412-1.536 4.412.804-.154.887-1.031 1.722-1.154a7.218 7.218 0 01-3.454 3.092 6.364 6.364 0 00-4.03-1.144c0-.526-.32-.392 0-.773-.95.082-2.96.526-2.681 1.154-.928.712-2.268-.793-2.495-.773a13.664 13.664 0 01-1.536-5.154c1.196-.114.577 1.587.959 2.299 1.257-.196 1.731-.67 2.876 0 .69-.103 1.886-2.237.773-2.299-.557-.33.98-.155 1.34-.196-1.134.051-.587-1.588-.959-2.299a.503.503 0 01-.774.25.503.503 0 01-.184-.25 1.514 1.514 0 01-2.062.567c.629-.65 0-.722 1.144-.949-.34-.464-1.495-.113-1.917 0-.547.526-.536 1.629-.96 2.299a2.348 2.348 0 01-.38-2.299c-.774.186-.506 1.402-.763 2.062h-1.61a.926.926 0 010-1.154c-.598-.134-.37.536-.958.391a5.223 5.223 0 01-.578-1.536c.34 0 .402.237.763.196-.629-.897-2.505-.495-4.03-.392a2.62 2.62 0 011.535-.381c-.268-.433-1.33-.072-1.917-.196a3.835 3.835 0 010 2.691c-.97-.433-3.093.299-2.877-1.34a.925.925 0 00-.38.958c-.94-.257-.166-1.031.185-1.536 0-.227-.35-.165-.578-.196.33-.175.392-.783.773-.381-.34-.68-1.257-.794-1.732-1.34-.164-.474.34-1.505 0-.959-.628-.289.33-.546.392-.773.66 1.031 1.608.093 3.258 0a2.382 2.382 0 01-.381-2.114c.185 0 .144.237.185.382 1.495-1.371 5.237.309 8.062 0a3.45 3.45 0 00.392 2.691 17.36 17.36 0 01.567-3.093c.268.464-.155 1.886-.382 2.495.485 0 1.887.556 1.918-.382 0-.536-1.175.165-1.145-.381-.69-.382 1.217.402 1.34-.196.557.165-.247.484 0 .959.073.371.743.154.578.773a6.629 6.629 0 00.763-2.495c.443.268.072 1.33.196 1.917.794-.103.062-1.731.577-2.113-.835-.185-1.03.217-1.536.382-.783.144 0-1.238-.959-.959.083-.423.938-.072 1.34-.186-1.113.897 1.124.443 2.3.567-.166-.464-1.33.062-1.537-.381.949-1.949-5.01-2.701-4.598-.186a66.672 66.672 0 01-7.68-.577c-.093-.412.278-.371.577-.382-.866-1.36-2.32-1.031-3.092-1.35-.021-.773.309.041.587.031zm18.04 6.185c.103-1.031.279-2.061.382-3.092-.526 0-.392.319-.773 0a7.308 7.308 0 00.391 3.051v.041zm.763 6.33c-.33-.175-.422-.598-.381-1.144-.526.113-1.526-.247-1.732.186.598 1.268-2.062 4.123-.959 4.03 0 .413-1.608.289-.959.774a10.428 10.428 0 003.093-2.31c-.113.763.433.856.959.959.31-.66-.268-1.031.196-1.536 0 .113.154.227.185 0-.381-.629-.814.474-.958 0 .134-.258 0-.794.556-1v.041zm-25.525-10.402c.186 0 .155.237.196.382.041.144.154-.227.196-.382.464.423 2.185 0 3.835.196-.722 1.227.227 3.01-1.155 3.639.083.433 1.031 0 1.155.392-.062.577-.598.68-.382 1.536-.742-1.309-1.66.237-2.495.382.238-.918 1.031-1.248 1.537-1.918-.485-.124-1.578 1.031-2.691.381-.402-1.03-.268-1.824-.763-2.494.412.113.299-.64.959-.774.123-.701-.423-.732-.392-1.34z"/><path d="M50.773 245.206h1.155c0 .887-.866.268-1.155.578.062.268.485.165.773.195.722.382-.917-.051-.773.382-.577-.237.217-.67 0-1.155zm17.268 6.526c.526.186.815.588 1.34.773.32 1.65-1.206 2.887-2.299 1.918.207-1.021.835-1.598.959-2.691zM220.866 70.928c-.907-.907-.691-2.557-.546-3.928a.783.783 0 01.546-.134c.227-2.64 1.711-4.124 3.248-5.825 1.36-1.536 2.309-2.773 3.793-3.257.701-.227 1.093-1.134 1.897-1.031.155 0 .248 0 .268.134.361.608 0 1.474 0 2.175a34.4 34.4 0 00-8.804 8.124 4.728 4.728 0 01-.402 3.742zm18.154-8.268c.155 0 .237 0 .268.134a2.998 2.998 0 01-3.794 2.484c-.061 2.722-8.628 6.784-7.041.815-1.66.505-2.453 1.886-3.66 2.845 1.681-4.835 7.464-5.618 13.145-5.422.392-.3.711-.599 1.082-.856zm-5.958 2.845c.149.378.328.743.536 1.093.247-.536.876-.67 1.031-1.227-.485.052-1.248-.093-1.567.134zm-3.66.815c.701 0 1.237.35 1.216-.536-.598-.01-1.196-.031-1.216.525v.01zm.268 1.36c-.052-.33.247-.299.134-.68h-.681c-.092.505.361.454.547.68zm11.113-4.206c0 1.536-1.67 2.062-2.577 2.31a2.867 2.867 0 012.577-2.31zm.135 2.309c.548.26 1.162.354 1.763.269.216 1.195-1.588.566-2.062.401-.093-.432.237-.412.299-.67z"/><path d="M237.804 66.866a.358.358 0 01.268.402c-2.237 3.093-5.041 6.32-10.701 5.557a2.299 2.299 0 01.268-1.35c4.711 1.02 7.98-1.887 10.165-4.609zm4.062 1.35c-.742.135-1.67-.65-2.711-.67.381-1.062 2.783-.422 2.711.67zm-30.763 8.402c-1.557 1.784-4.526 2.866-7.454 2.846 1.258-1.32 3.475-1.68 5.021-2.712 0 .248-.165.29-.134.547.948-.196 1.639-1.258 2.567-.68zm.413 1.63c-.186 2.793-3.732 3.402-6.505 4.061-.341-.206-.062-.948 0-1.216 2.525-.588 5.175-1.062 6.505-2.845zm-10.433.133c0 .516.484.598.67.949-.351 1.227-1.609 1.546-2.299 2.443 0-.897 1.257-1.629 2.062-2.175-.526-.289-1.495.124-2.165.134.453-.546.649-1.412 1.732-1.35zm.669 1.897a2.064 2.064 0 01-1.484 1.361c.165-.783.876-1.03 1.484-1.36zm1.093.681c.474.464-.721 1.515-1.227 1.897.227-.815.897-1.186 1.227-1.897zm2.567 2.299c.279 1.35-2.649 1.711-3.928 1.082.433-2.02 1.99-.598 3.928-1.082zm34.011 1.36c1.969.63 4.185 1.753 4.474 4.464-1.031.114-1.351-1.463-2.062-2.164a12.232 12.232 0 01-2.577-1.763c.02-.237.206-.289.165-.537zm-26.145 5.402c.433 1.032-.824 1.516-1.36 2.578-.671 1.34-.165 3.35-1.485 4.072-1.68-3.124 1.454-4.917 2.845-6.65zm11.784 13.568c.268-.825 1.031-.093 1.629-.134.845-.062 1.793-.794 2.979-1.031a21.33 21.33 0 002.309-.279c1.227-.515 2.062-1.969 2.846-2.577.226 0 .247.113.268.278-.732.763-1.505 2.464-2.98 2.98-.711.247-1.793 0-2.711.268-1.289.258-3.175 1.804-4.34.495zm57.866 78.598c.66 0 .938.402 1.485.536-.372.319-1.031-.237-1.619-.134a.67.67 0 00.134-.402zm-102.722 46.742c.526.258-.598 1.031-.948 1.361 0-.774.742-.804.948-1.361zm25.206.948c-.67 0-1.762.609-2.845.413-.588-.114.113-.083.278-.145a5.44 5.44 0 012.567-.268zm-9.072 1.897c-1.134.577-2.608.237-4.072.268a4.768 4.768 0 014.072-.268zM182.103 233c.815.402 1.773.67 2.577 1.083-.804.556-2.927.391-2.577-1.083zm8.268 24.247c-.381.856.959-.062.949.681a9.585 9.585 0 012.577 0c-.557 1.969-2.113 2.948-3.247 4.34a19.289 19.289 0 01-6.64-1.361c.165-2.536 1.846-3.567 3.516-4.608.691.35 1.392.69 2.062 1.082.268-.505.288.165.783-.134z"/><path d="M92 265.515a17.01 17.01 0 01.402-6.907c-.65.495-2.515-.175-3.381-.68.36-3.175-1.279-9.712 3.783-9.217.505-1.134.196-2.247.546-3.515-1.03-.258-2.061.433-2.979-.413.361-1.773-.598-5.938 2.3-5.01.35-1.33.216-3.691 1.762-4.206.082 0 2.196.196 3.258.134 6.185-.32 12.598.546 16.938.412 3.093-3.185 5.845-6.618 10.165-8.536 1.165.093 1.969-.876 2.979-1.226 1.289-.433 2.516-.165 3.66-.537.093-.216.66 0 .536-.412.691.124 2.217.134 2.577-.402 2.124.258 5.052-1.66 7.856-1.629.309-3.093 0-6.041.134-9.35a15.715 15.715 0 00-3.247.412c-.237-2.948.319-5.155 2.062-6.103a1.756 1.756 0 002.061.412c.444-8.69.289-18.67.681-26.556-1.031.144-1.928.505-2.98.67-.288.062-.257-.196-.278-.402-7.216 1.763-13.577 4.123-20.454 6.371 1.031 3.093 3.217 5.876 3.794 9.206.578 3.33-1.556 5.783-3.257 8.247a14.68 14.68 0 016.639 1.629c1.381 2.526-.67 4.32-2.062 5.691-3.67 1.66-7.062-.68-10.155 1.763a2.176 2.176 0 01-1.093 0c-.165.237-.257 1.268 0 1.484-.69 2.969-3.907 3.402-5.556 5.423-1.475-1.093-3.516-1.247-4.877-2.299-1.36-1.051-1.69-2.546-2.979-3.392 0-.525.289-.701.412-1.082-4.907-.34-11.216.309-17.752.268-.114 0-.392-.278-.547-.268-.154.01-.474.299-.474.299-.773-.072-2.288-.67-3.526.134-1.247-.67-3.092-.742-4.608-1.083-1.082.825-1.526 2.279-2.845 2.578-2.062.464-4.402-1.928-4.608-3.794-.32-2.969 3.33-6.629 5.69-7.722a3.096 3.096 0 012.98.402 6.61 6.61 0 00.134 2.062c.32.402 2.886-.237 2.577.949a8.982 8.982 0 004.124-.134c5.392.082 10.526.927 16.124-.537-.475-5.731 2.762-9.422 4.195-14.371-.371-.226-.629.815-1.216.815 0-.464.103-1.093-.134-1.351-4.505.681-12.134 1.444-15.722-.546-.165-.433.268-.835-.268-1.217 3.928-4.515 10.701-6.185 16.124-9.216.773-4.052 2.928-8.598.67-12.062.062-3.526-.443-6.124-.268-9.485.258-4.731 2.278-8.989 3.093-13.144.443-2.237.453-4.577.804-6.773.577-3.526 1.134-7.309 3.392-8.536 0 .185 0 .381-.134.402 1.237-.629 1.835-2.227 2.979-3.247 1.031-.877 2.546-1.65 3.794-2.578 1.247-.928 2.361-2.216 3.526-2.711a23.458 23.458 0 003.793-1.485 22.343 22.343 0 013.382-1.897c2.546-1.031 5.062-1.783 7.732-2.711 1.526-.536 2.938-1.433 4.464-1.897a33.286 33.286 0 008.814-3.66c1.196-.783 2.062-2.061 3.382-2.979a29.068 29.068 0 014.886-2.577c1.804-.825 3.763-1.031 5.691-1.763 1.144-.423 2.206-1.093 3.381-1.485 2.485-.835 4.969-1.433 7.32-2.443 1.031-.464 1.917-1.268 2.979-1.763.866-.402 1.846-.587 2.712-1.03a20.197 20.197 0 012.165-1.496c1.402-.556 3.092-.185 4.474-.804 6.185 1.784 13.742-.093 19.515 1.217-.866-1.804-2.505-4-3.392-6.237a5.03 5.03 0 01-6.185-1.763 76.194 76.194 0 01-2.711-12.01 64.635 64.635 0 01-5.691-9.362 35.479 35.479 0 01-4.124-10.968c-.783-4.98 1.299-9.279 3.258-12.609.268 1.815-1.299 2.949-1.763 4.475.464 0 1.031-1.145 1.351-1.763.298.402-.093 1.257-.269 1.628.238.413.423-.37.547 0a5.022 5.022 0 01-.413 1.63c.516-.176.248-1.114.815-1.227.072.433-.237.484-.134.958.258-.062.103-.525.546-.412a10.68 10.68 0 00-.278 1.36c.32-.05.082-.649.546-.546-.257.196 0 .887-.268 1.083.351 0 .103-.526.536-.402-.092.721-.33 1.288-.402 2.062a9.314 9.314 0 00.67-1.897c.227.758.18 1.572-.134 2.299.578.082.103-.887.681-.805-.165 1.227-.206 3.392-.402 5.279.67-.732.371-2.433.948-3.247.34-.227.33-.495.804-.815.495.577.433 2.412.279 3.093.814 1.31 1.113 4.123 1.618 6.37a13.91 13.91 0 01.815 3.248c0 .547-.382 1.031-.402 1.63-.093 3.092 1.938 5.958 3.092 8 2.062 3.659 4.464 7.628 6.64 10.7a42.466 42.466 0 005.969 10.31c0 .185.33.113.536.134.35 1.969 2.536 3.237 3.525 5.01.382.113.351-.186.681-.134a1.028 1.028 0 00.268.948c4.124 3.639 7.959 7.485 14.093 9.083.196.196.422.103.402-.279a9.017 9.017 0 004.474 1.361c4.629.279 8.134-1.587 11.113-3.66a19.446 19.446 0 004.475-4.608c2.278-3.309 3.68-8.247 4.196-13.278.113-1.114-.073-2.3.134-3.392.123-.618.577-1.154.68-1.752.402-2.33-.155-5.021-.268-7.454-.165-3.516-.825-7.32.67-9.629.34.343.656.708.948 1.093.64.31 2.062-.134 2.176.67 2.062-3.784-.784-8.65-.949-12.371-1.216-.567-1.67-2.887-3.526-3.248a5.98 5.98 0 01-.814 2.062c1.495.804 3.278 1.237 3.66 2.846.567 2.36-1.691 4.762-2.846 6.37 1.031-2.525-1.773-5.546-3.927-3.257-.248-.619-.268-1.784-.815-1.35a22.935 22.935 0 00-2.165-9.217c-1.031-2-1.474-2.433-3.66-3.392-.835-.36-1.618-.969-2.309-1.216-3.144-1.114-7.577.68-10.701.814-1.786.02-3.566-.21-5.288-.68-3.949-1.031-7.939-3.877-12.372-4.877a12.644 12.644 0 00-2.165 0 20.113 20.113 0 00-2.979-.268c-3.093.269-5.402 2.01-7.588 2.846-.278.175-.309.598-.412.948-.866 0-1.402.402-1.484 1.217a10.31 10.31 0 01-4.743.68v-.814a2.805 2.805 0 01-1.763.814c-.196-1.113.485-1.556.134-2.443-.268-.35-.618.36-1.216.134 0-1.206.68-2 .268-3.247-.454-.392-.608.66-1.031.68.299-2.588 2.165-3.619 3.794-4.876a21.272 21.272 0 012.845-6.516c1.753-.587 1.969-2.722 3.928-3.093a3.387 3.387 0 01-.402 2.062c.268.32.969.196 1.216.547a4.327 4.327 0 01-1.319 3.226c1.907.423 4.721.072 7.319-.402 0 .949 0 1.99-.948 2.062a10.763 10.763 0 006.371 2.711c.382-.474-.412-.938-.134-1.762-.995-.01-1.989.035-2.979.134-.124-1.114.68-1.3.948-2.062a6.484 6.484 0 01-1.629.268 1.602 1.602 0 01.229-1.294 1.605 1.605 0 011.122-.685c-.206-.196-1.031.185-1.485.144a1.731 1.731 0 01.536-1.361c-1.948-.227-2.629.773-4.196 1.217-.103-.413.135-.495.135-.805-.475 0-1.031.712-1.217.536 0-1.299 1.093-1.433 1.619-2.164-.165-.29-.547.33-.949.268-.474-.62.175-1.68.681-2.444-.464-.288-.743.227-1.217.145.454-2.856 3.268-4.918 5.825-5.691.412-.103.495.134.814.134 1.083-1.557 4.639-1.444 7.041-1.495 3.403-.062 6.516 1.155 9.629 1.629 1.536.237 3.196 0 4.598.402a30.587 30.587 0 019.629 5.02c.938.722 2.062 1.33 2.845 2.062 2.217 1.949 3.887 5.918 5.423 8.938a43.371 43.371 0 014.062 11.34c.773 0 .835-.793 1.629-.814 2.134 4.732 5.804 11.165 3.783 18.423.753 1.32-1.113 2.062-1.618 2.98a2.775 2.775 0 01-2.309-.537c-.124.454.453 1.35.546 2.062 0 .526-.289.701-.402 1.031-.196 5.258.732 9.546.536 14.36-.144 3.475-.65 6.826-.68 10.166 1.092 1.443 1.752 3.309 2.711 4.886 2.062 1.031 4.185 2.062 6.371 2.98.359.057.724.057 1.082 0 2 .866 3.65 3.165 5.691 4.742 4.196.732 6.279 4.031 10.31 5.691 1.556 1.763 3.649 3.412 5.154 5.278.544.879 1.18 1.698 1.897 2.443.32 0 .392.227.814.134 2.372 2.897 6.021 4.124 8.671 6.506 1.191.36 2.296.96 3.247 1.763 3.784-5.815 8.856-9.495 12.876-15.042-.216-.855.237-2.402-.134-3.391-2.732-2.516-6.649-3.836-8.247-7.454-.773-2.928-2.062-5.093-1.763-7.856.211-.746.484-1.473.814-2.175.114-.36 0-.866.134-1.217.949-2.515 3.856-4.402 3.928-7.04-2.175-3.403-3.505-6.99-5.278-10.846a58.393 58.393 0 00-2.99-6.423 26.431 26.431 0 01-1.495-3.093c-1.433-3.092-3.629-5.958-5.154-9.082-.722-1.495-1.186-3.093-2.433-4.196-1.103-3.753-3.856-6.67-5.691-10.03-2.062-3.764-3.361-8-6.186-10.97a14.71 14.71 0 00-1.484-3.526c-.742-.113-.66.598-1.361.536a4.22 4.22 0 01-2.577-2.061c-.392-3.093 1.907-7.846 4.608-8.402 2.299-.464 3.794 1.134 5.289 2.175.165 1.206.484 2.495-.413 3.093.949 1.463 1.536 3.092 2.444 4.608 1.598 2.67 2.422 5.69 3.793 8.402 2.681 5.299 6.567 9.866 9.619 14.907 2.309 3.784 4.35 8.082 6.918 11.784 1.082 3.608 3.68 5.969 4.742 9.216 1.093-1.206 3.443-3.99 5.825-3.794 1.103.093 1.845 1.031 1.628 2.846.516.154 1.207-.97 2.062-.547 1.444.753 2.062 4.062 1.495 6.371-.505 2.062-2.01 3.165-2.99 5.021-.556 1.03-.412 2.278-.67 3.093-.257.814-.876 1.103-.948 1.629-.495 3.36 5.154 2.309 6.093.268.938-2.042 0-6.918-2.299-6.918a3.766 3.766 0 011.897-2.299c3.164 1.546 2.762 7 .804 9.619 1.113-.186 1.742-1.155 2.711-1.083 1.897.68 1.299 4.835.412 6.505a26.916 26.916 0 01-.412 9.217 102.472 102.472 0 013.258 12.196c-.815 2.062-2.66 3.031-3.794 4.742-2.433.753-4.299 3.093-6.773 2.979a3.064 3.064 0 01-1.093-.268c-1.113-.866-2.907-1.484-4.196-2.443-.505 1.031.897 2.165 1.351 3.093 1.876.866 3.175 3.093 6.237 2.309a9.956 9.956 0 004.196-2.577c.453-.722.257-1.691.546-2.443a9.678 9.678 0 012.907-3.722c.732 1.412 1.031 3.33 1.629 5.02.784 2.062.536 5.671.546 9.073a103.41 103.41 0 00-3.659-10.969c-.784 2.958-3.897 6.659-7.052 7.721-3.742 1.258-5.814-1.185-7.856-2.845-.278-.711-.35-1.639-1.082-1.897.227-.464-.196-1.196.134-1.763a32.76 32.76 0 00-2.845 1.763c-1.031 1.938-2.99 3.35-4.207 5.289-.814 1.319-1.031 2.938-2.165 4.195.723.898 1.49 1.758 2.299 2.578 0 1.154-.247 2-.268 3.093a8.38 8.38 0 01-2.567-1.897c-.299 1.917-.216 5.422-2.061 5.958.051-2.391.412-4.732.68-7.319-3.608-3.691-9.753-5.402-13.01-9.34-.413-.103-.258-.103-.681 0-1.69-1.804-3.309-3.701-5.154-5.557a21.333 21.333 0 00-4.227-3.505 10.488 10.488 0 01-3.516-2.712c-1.319-.525-2.391-1.309-3.793-1.762-.145 3.092.567 6.185.814 9.35.103 1.474-.093 2.815.134 4.206.093.619.206 1.34.268 2.165.134 1.918.66 3.567.814 5.557.186 2.412.598 4.371.681 7.32a9.598 9.598 0 01-1.588 1.938c-4.35-2.609-9.773-2.897-14.773-3.794 1.691 3.474 3.32 6.721 5.021 9.886a8.345 8.345 0 01-1.763 1.897c-4.65.691-8.763 2.567-13.145 4.062a60.373 60.373 0 00-11.546 5.474 68.965 68.965 0 00-9.887 7.217c.854.115 1.716.16 2.578.134 1.371 0 3.515.969 5.412 1.495 1.897.526 3.691.783 5.021 1.763.536.391.732 1.144 1.35 1.35.134 1.309 1.258 3.423.268 4.742.887 1.681.66 4.372-.948 5.021 0 .691.206.784.68 1.217.155 1.34.454 2.525.681 3.793a90.337 90.337 0 017.989-4.608 75.363 75.363 0 019.217-3.392c3.185-1.031 6.185-2.216 9.618-2.979a78.039 78.039 0 0112.062-1.753c2.248-2.793 2.98-7.525 3.928-11.525.433-1.815.608-3.227 2.062-4.196 4.67 1.309 7.608 2.392 12.206 4.062.402-.289-.185-.712 0-1.227.485.464 1.32.587 1.753 1.093 3.629.464 4.886 3.556 8.814 4.061.65-2.226.196-5.845 2.98-5.69.329 1.299-.258 3.835-.268 5.959 1.154.855 2.979.731 3.927.68.609 0 1.444.402 2.062.412.753 0 1.629-.34 2.578-.412a9.398 9.398 0 002.164-.134 27.61 27.61 0 002.578-1.629 30.901 30.901 0 006.773-5.557c-.103 1.176-1.289 1.969-2.165 2.846a24.339 24.339 0 01-5.423 4.608c-1.474.835-2.505 1.938-4.196 2.175-.711.093-1.36-.113-2.061 0a22.144 22.144 0 01-6.186-.144c-.691 6.794 0 15.196 0 21.959.412.35.856-.145 1.485 0a10.643 10.643 0 00-.268 3.525c2.453.918 4.824 1.114 6.371 2.846 5.072-.299 8.309.546 13.01.67v1.495c-4.505-.206-9.485-.825-15.464-.547-5.979.279-12.155-.35-17.206.134.062.485.361.732.268 1.361 10.732 0 21.948-.402 32.392-.68v1.495c-5.289-.093-11.691.185-17.619.536-4.856.288-9.598-.33-14.361 0 .402 2.268 1.454 1.969 3.66 2.175 2.701.247 7.567 1.031 9.887.67a4.95 4.95 0 001.35-.67c0 .206-.062.515.145.536 5.536-.361 11.773-1.299 16.938-1.629v1.227c-5.598.722-11.567 1.186-17.351 1.897-.917 1.423-1.649 3.041-3.526 3.515.186 8.969.32 16.423.815 26.155.299 5.701.825 11.536.814 18.021.1 2.406.055 4.815-.134 7.216h-1.288c.276-1.839.321-3.706.134-5.557a1781.08 1781.08 0 00-.547-14.36c-.227-5.464-.711-10.949-.68-16.124 0-4.722-.382-9.052-.402-13.691 0-.299.443-1.093-.268-1.216-1.031.484-.526 1.711-.547 2.433-.093 5.257-.618 11.536-.67 17.35-.072 6.825-.618 13.402-.278 20.866.154 3.371.319 7.309.68 10.309h-1.35c-1.382-17.35.185-34.02.536-50.814a4.37 4.37 0 01-3.248-4.34 18.907 18.907 0 01-3.525-.402c.051 1.67 1.711 3.515.814 5.154a8.186 8.186 0 01-3.093 10.846c.536-1.145 1.588-1.763 2.176-2.846a22.91 22.91 0 01-7.866 5.557c.855.959.494 2.113.814 3.093.258.794.608 1.175.814 2.062a5.955 5.955 0 001.361 2.711c0 1.67.732 2.701 1.083 4.062.35 1.361.165 1.66.402 3.392.639 4.732 2.484 9.556 2.165 14.226 0 .578-.392.691-.536 1.083-.268 1.031.505 2.227 0 3.258a13.127 13.127 0 012.061 2.979h-5.597c-.495-3.433-3.732-4.124-5.289-6.505-.897.134-.66-.876-1.619-.681-.103-.732-1.371-.876-1.031-1.216-.422-.258-1.567-.361-1.226-.949-.372.31-.846-.154-.949-.546a32.928 32.928 0 00-4.742-2.433c-.495-.216-.887-.629-1.351-.814-.835-.33-1.814-.536-2.711-.815-.361-.103-.814 0-1.082-.134-.268-.134-1.031-.794-1.897-.68-.609.082-.949.752-1.495.814-.65-.113-.495-.422-.815-.67a44.8 44.8 0 00-14.226 1.217c-2.567.67-4.969 2.134-7.454 3.381-5 2.536-9.454 5.361-12.062 10.031h-.948a49.833 49.833 0 016.103-7.041c-.454.144-.67-.103-1.083-.279-2.433 2.701-5.361 4.124-7.319 7.32h-.815c.444-.546.938-1.031 1.351-1.629a13.173 13.173 0 00-1.485 1.629h-4.474a28.786 28.786 0 003.32-5.443c-.877.402-1.165-.464-2.062-.268a34.693 34.693 0 01-3.526 5.69h-.814c.958-1.525 2.412-3.268 2.577-5.154-1.846.505-3.093 2.794-3.526 5.154h-3.392a21.38 21.38 0 012.444-3.391c-1.908.268-3.536 1.979-4.743 3.391h-1.494c.425-.686.926-1.323 1.494-1.897-.618.104-1.278 1.341-1.897 1.897h-1.144a20.322 20.322 0 004.021-4.391c-2.268.464-3.258 2.608-4.609 4.34h-3.659a56.506 56.506 0 013.659-5.423c.578-.752-.845.794-1.082 1.083-1.196 1.474-2.34 3.092-3.526 4.34h-1.216a40.87 40.87 0 016.371-7.722c-1.144-.154-1.546 1.114-2.062 1.763-1.608 2.062-3.557 3.99-5.423 5.959h-1.36a45.155 45.155 0 016.371-7.588c-2.516 2.062-5.031 5.361-7.856 7.588h-2.309a82.197 82.197 0 017.721-9.217 15.462 15.462 0 00-5.69 3.928c-1.516 1.578-3.743 2.949-4.062 5.289h-1.351a46.12 46.12 0 0110.433-10.701c-1.185-.876-2.433-.196-3.928-.413 0-.742.537-1.03.805-1.484-3.609 2.278-7.691 4.959-10.31 8.67a7.398 7.398 0 00-1.752 3.928h-1.454c4.186-7.784 10.825-13.114 18.835-17.072a38.406 38.406 0 010-3.928c-2.752 0-3.886 1.196-6.639.68.928-2.495 3.33-3.814 6.103-4.123a3.09 3.09 0 01.67-2.165c-2.866.979-6.381 1.113-10.309 1.35-9.217.577-18.825 1.175-22.897-5.959-.515.382-1.113-.092-1.495-.268-1.227-4.299-2.062-8.69-2.979-13.288-.093-.402-.289.134-.547 0 .217-.588.928-1.289.547-2.062-.413 0-.98.917-1.495 1.227-2.557.226-5.773 1.536-8.804 2.061-1.536-.67-4.175.66-6.371 1.083-.815.155-1.67-.258-2.165.546-.176-.051-.217-.247-.402-.278-1.031.598-2.506.845-3.258 1.763.319 4.237.412 9.381.412 13.825 2.588-1.753 6.433-.186 9.619 0a21.723 21.723 0 013.392.134c.608.154 1.175.659 1.752.814.577.155 1.33 0 2.062.134 2.064.378 4.146.65 6.237.815.722.721.722 2.164.681 3.659 1.144.093 1.958 1.382 2.164 2.846-.628.546-.752 1.587-2.164 1.35-1.031 4-.66 8.577-1.083 12.196 1.113-.68 1.876-1.866 3.247-2.577a25.188 25.188 0 013.526-1.031 33.102 33.102 0 014.062-1.485c.918-.154 1.526-1.031 2.577-.546a3.486 3.486 0 011.897-.402 9.45 9.45 0 01-4.062 4.464 11.965 11.965 0 00-5.154 1.093c-.474.226-.629.546-1.031.67a22.018 22.018 0 00-4.742 1.494 6.884 6.884 0 01-.268 2.98h-2.578c-.072-.196.155-.701-.134-.681a7.05 7.05 0 00-.68.681h-18.361a10.92 10.92 0 01.134-4.34c-.897.402-2.062-.227-2.711.278-1.176-1.031-2.227-1.474-4.609-1.361.155 1.031-.855 1.423-1.03 2.309-.176.887.268 2.186-.547 3.093h-5.423v-.134c-.484 0 .341-.505-.144-.546-.072.288-.278.443-.402.68h-23.072c.289-1.175.34-1.773.536-2.979-.577.917-.165 2.062-.814 2.979h-2.062c-.258-.938.577-1.917 0-2.299a10.873 10.873 0 01-.547 2.299h-2.979c-.052-.67.258-.886 0-1.35-.113.598-.732.701-.814 1.35h-5.248c-.072-.422.32-.556-.134-.68-.082.288-.289.443-.412.68h-.815c-.299-.268.268-1.031-.134-1.35-.68.257-1.03.866-1.484 1.35l-5.557.041zm184.423-239.71c-1.402-.32-2.526-.846-3.66-.135-1.32 2.062-.608 5.155 1.897 5.557.608-.072.763-.588 1.35-.68.134.721.743 1.03.681 1.896.202.108.387.247.546.413.052 1.65 1.485 2.628 2.299 3.927 1.268 2.062 2.165 4.31 3.258 6.506 1.526 3.093 3.649 5.752 5.154 8.67a216.74 216.74 0 002.444 4.608c0 .474.361 0 .402.268 3.763 7.217 7.422 14.34 10.979 21.65 1.578 3.257 2.732 6.958 4.742 10.03a4.132 4.132 0 011.351-3.092 4.476 4.476 0 01-2.165.536c-1.113-1.825.433-4.052.536-5.959-1.433-2.99-3.484-5.69-4.876-8.536-.474-1.031-.784-2.175-1.351-3.093-.33-.546-.886-.948-1.216-1.484-2.536-4.052-4.124-8.31-7.052-12.062-1.464-1.897-2.587-3.908-3.928-5.825-3.278-4.701-5.154-10.412-8-15.041.31-.33-.288-.505-.134-1.031a9.265 9.265 0 01-1.329-2.516c1.556-2.144-.681-3.67-1.928-4.608zm-70.464 3.927c.123.124.402 0 .814.134 0-.206.516-.629.134-.804-.051.495-.969.134-.948.67zm-2.866 1.526c.35 0 .474.247.68.402a3.384 3.384 0 001.382-.98c-.279 0 0-.587-.268-.67a3.02 3.02 0 00-1.794 1.248zm-8.536 4.34c.381-.443 1.031-.134 1.216-.546-.474.061-.474-.34-.68-.547.031.444-.877.69-.516 1.062l-.02.03zm20.618 4.608c.072-.495-1.031-.495-1.093-.412.433.03.567.392 1.093.381v.031zm-28.866 18.155c0-.845.382-1.97 0-2.711.031.845-.629 2.051 0 2.68v.03zm124.67 23.412a9.616 9.616 0 002.423-2.443c-.093-1.67-.32-3.196-1.629-3.66-1.035.3-2.034.71-2.979 1.227.422 2.237-2.227 2.64-2.299 4.33 0 .886.711 1.134.67 2.443.392-.113.361.186.68.134-.082-.629-.422-.897-.402-1.216 1.567 1.216 2.908-.866 3.526-1.361-.216-.093-.216.639.01.546zm-.412 1.619c.165 1.711.897 4.381.268 6.37.155.671.464-.535.948-.401-.134.402.31.237.547.268 1.113-.382 1.948-1.97 2.577-2.98.856-1.391 1.66-1.855 1.897-3.257.33-2.062-.103-4.876-1.897-5.413-1.072 2.176-2.804 3.701-4.34 5.413zm-111.66 6.237c.299-1.547-.938-2.68-1.618-3.794a148.202 148.202 0 01-2.176-3.66c-.742-.618-1.031-1.629-1.897-2.165 1.207 3.897.959 9.248 5.691 9.619zm108.547 1.216c-.506.712-.949 1.918-1.897 1.763-2.433 3.093-4.67 6.959-2.712 11.928 1.031 2.526 1.64 4.784 3.382 6.103 1.165.866 2.701 1.846 3.794 2.567a9.745 9.745 0 011.907 1.495c1.031 2.062-.938 5.742.134 7.309.691 1.031 2.309 1.134 3.526 1.908.494.309.773.969 1.484 1.082 1.711.258 4.464-1.814 5.557-2.577a2.94 2.94 0 01-2.309-3.392 336.572 336.572 0 00-3.248-6.093 54.196 54.196 0 00-2.979-4.608 105.123 105.123 0 01-5.423-9.031c-.175-.33-.505.155-.546-.134a9.07 9.07 0 00-1.351-2.845c.103-1.031 1.248-1.526 1.763-2.433a9.071 9.071 0 00.402-7.052 2.735 2.735 0 00-1.867 2.854c.039.41.17.805.383 1.156zm1.897 3.66c.226-.783 1.381-2.062.814-2.711a7.506 7.506 0 00-.814 2.711zm1.896-2.299c-.464 1.3-1.371 2.155-1.762 3.526 2.113 3.165 3.639 6.928 6.103 9.753.121.259.211.533.268.814 3.02 3.35 4.577 8.144 7.041 12.052-.114.298-.351.463-.268.958.67.392.773.557 1.484.949-1.649-9.495-5.154-16.495-9.206-23.99a3.028 3.028 0 01-1.216-.268c-.557-1.495-.402-5.03-2.444-3.794zm8.805 6.773c.567.145.752-.113 1.082.134-.124.784-.887.918-1.082 1.629 1.701-.969 2.587-2.742 2.443-5.556-.639-1.145-1.681-1.382-2.577-2.062-.846 1.66-.98 4.721.134 5.855zm-2.299-2.845c0-.567.732-1.155.536-1.495-.351.32-1.268.918-.536 1.495zm-134.969 2.711c-.918.237-2.753.124-3.928.547-1.176.422-2.423 1.577-3.66 2.165a61.25 61.25 0 01-6.124 2.701c-2.154.742-4.453 1.453-6.649 2.309-4.207 1.639-9.279 2.814-12.732 5.289-1.134.804-1.866 1.979-2.846 2.711-3.371 2.474-7.412 3.247-11.649 5.01-3.876 1.609-8.351 2.413-11.928 4.475-1.773 1.03-3.227 2.556-5.691 2.701-1.732 1.948-4.371 2.979-6.185 4.608a10.302 10.302 0 00-2.567 4.124c-1.196 2.896-1.402 6.257-1.897 10.02-.258 1.866-.969 3.485-1.093 5.423-1.155 1.319-1.103 2.835-1.484 4.742-.196 1.031-.588 2.062-.681 2.99-.104 2.533.035 5.07.412 7.577-.046.814-.046 1.63 0 2.443.165.856 1.104 1.774.949 2.846a15.32 15.32 0 0113.814 1.629c.835-1.217 1.237-2.454 2.062-3.794.825-1.34 2.145-2.217 2.712-3.258.182-.576.32-1.165.412-1.763 1.526-4.062 4.124-7.598 9.072-8.402.876-.783 1.598-2.062 2.577-2.979a5.222 5.222 0 012.444-1.485c1.371 0 1.484 1.33 2.433 2.062.613.275 1.247.499 1.897.67.752.351 1.505.897 2.309.681.794-2.217 5.577-5.238 6.093-.815a13.758 13.758 0 014.206-.268 7.587 7.587 0 014.876 1.629c.55.458 1.14.865 1.763 1.216 2.165.825 4.423-.381 6.639-.68 2.423-.309 4.722.268 7.041-.134a35.22 35.22 0 00-.536 6.516c2.32-.165 4.444.247 6.093-.279 7.928.856 16.722-.299 25.474-1.35-.536-1.815-2.216-3.65-3.381-5.289.319-.385.507-.862.536-1.361-2.309-4.67-4.907-9.34-7.588-13.948-.484-.846-1.195-1.505-1.628-2.31-.433-.804-.598-1.979-1.083-2.979a24.707 24.707 0 00-1.897-2.711c-.412-.619-.557-1.382-.948-2.062-1.031-1.722-2.619-3.186-3.093-5.155a6.092 6.092 0 011.763-2.062c3.144.402 8.103-1.237 11.34-2.433a13.41 13.41 0 00-4.474-2.979 32.24 32.24 0 01-7.32-7.866 5.353 5.353 0 012.062-2.165c.299-.134.763 0 1.031-.134a26.68 26.68 0 005.825-3.392 41.37 41.37 0 004.062-2.845c.268-.227.824-.67.68-1.031-6.289-1.289-13.268.227-19.515-1.155zm26.02 2.98c-.309-1.609-2.423-.918-3.093-1.897-.546.35-1.567 0-2.175 0a48.308 48.308 0 01-12.062 8.804c2.681 4.526 7.474 6.639 11.248 9.763-1.701 4.66-7.64 5.093-12.598 6.505 4.855 6.773 7.835 14.588 12.371 20.866.315-4.023.18-8.069-.402-12.062a5.09 5.09 0 00.536-.948c-.227-.485-.186-1.258-.536-1.629a4.761 4.761 0 012.062-2.299 20.034 20.034 0 005.422 1.897c-.154-1.763.32-3.846-.814-5.155 0-.629.608-.567.536-1.227-.186-5.402-.083-13.123.412-19.783-.309-.464-.928-.608-1.082-1.217a2.983 2.983 0 00.175-1.618zm19.103 14.495c-1.742-.949-3.701-.939-5.422-1.619-3.671-1.454-7.701-4.969-10.155-7.32-.289-.278-.732-.752-1.083-.68a129.755 129.755 0 00-.144 17.526 32.115 32.115 0 014.206 4.33c1.547.381 2.444 1.917 3.794 2.711.691.412 1.773.722 2.577 1.227 1.248.783 1.959 1.67 4.062 1.031 6.021-4.32 12.794-9.155 18.433-14.093 3.093-2.68 4.289-6.619 6.639-10.031-1.773-2.392-1.03-6.402-.68-9.484a35.445 35.445 0 00-2.577 3.927c-.866 1.578-1.031 3.176-2.062 4.475-3.732 4.927-10.196 9.123-17.474 7.721-.062.237.195.351 0 .413.02-.073 0-.155-.114-.134zm93.907-11.65c.196-1.546.268-3.526-.268-4.196-1.897.887-.319 2.619.268 4.196zm-77.371 32.248c3.237-4.475 7.918-7.526 8.402-14.763 0-.423-.391.34-.412-.145 1.031-3.711.856-8.103.814-11.783 0-.547.392-1.279-.402-1.629-1.629 1.763-3.577 3.928-4.34 6.103.34-.299.711-1.124 1.031-.948a8.375 8.375 0 01-2.165 2.845 88.956 88.956 0 01-8.247 7.856 66.965 66.965 0 01-5.959 4.742c-1.65 1.093-3.33 2.247-4.742 3.392-.402.319-1.186.711-1.031 1.35 5.072-2.062 10.969-4.474 16.495-6.505-.671 3.639.309 6.598.556 9.485zm10.835-21.413c-.051 8.969-4.123 14.949-8.804 20.196-.649.732-1.928 1.742-2.062 2.299-.144.763.475 2.598.536 4.206.114 2.742.403 6.392-1.896 7.454a11.645 11.645 0 00-4.464-3.093 8.83 8.83 0 00-1.495-.412c-.557.206-1.66 2.247-2.165 2.845-.887 1.031-1.753 1.897-2.443 2.711-3.341 3.98-5.485 8.392-7.99 12.598-1.351 2.258-2.866 4.279-3.66 6.639 6.773-4.927 13.464-10.103 21.814-13.546 3.97-1.639 8.31-2.722 12.598-4.34a60.605 60.605 0 00-6.505-11.918 4.716 4.716 0 011.763-2.165c2.248 1.506 4.547 1.65 6.918 2.062 3.391.547 6.67 1.536 10.02 2.175.217-2.639-.67-5.072-.948-7.453-.443-3.825-.784-8.155-1.031-11.928-.258-3.32-.804-5.484-.268-7.309-.804-.175-.227-.815-.413-1.227-1.835-1.753-4.422-5.392-7.721-4.196a6.742 6.742 0 00-2.062-1.495c.206 2.474-.165 4.289.278 5.897zm-37.257 18.165a24.724 24.724 0 01-6.774-5.423c.155 1.413.176 1.784.268 3.392 2.805.165 4.557 2.155 6.506 2.031zm81.299.402c.329-.371.659-1.794 1.216-1.031.454-1.031 1.68-2.062 1.907-2.845-.866 1.35-2.824 2.371-3.123 3.876zm-71.815 1.227c.248.289 0 1.103.268 1.35 1.031-1.216 3.66-1.577 3.928-3.092-1.361.608-2.722 1.227-4.196 1.742zm-3.258.402c.177.799.27 1.615.279 2.433a2.68 2.68 0 001.216-1.031c-.453-.526.052-1.196-.412-1.629-.134.268-.588.237-1.083.227zm-5.556.134c.103.928-.093 1.361.278 1.897a5.062 5.062 0 011.031-1.897c-.608.093-.845-.237-1.309 0zm3.391.134c0 .237-.412.845-.134.949.083-.372.928-.691.671-.949-.011.34-.454.041-.537 0zm6.093 4.887c.206-.207.825.35 1.227.402.268-.454.711-.722.949-1.217-.629 0-1.598.33-2.176 0-.103.093-.34.753 0 .815zm-9.484 2.433c-.227.587-.949 1.391-1.351 1.36.103-.515-.165-.649-.134-1.092-1.557-.392-2.299.855-3.66 1.361.014 2.808.193 5.614.536 8.402a109.053 109.053 0 017.598-9.897 29.822 29.822 0 01-2.989-.134zm8.402.134c0 .587-.742.525-.815 1.031 1.763 2.061 2.444 5.927 4.207 8.402 1.69-2.413 3.69-4.526 5.288-7.042-3.598-.608-5.381-1.494-8.68-2.391zm-52.866 40.793c0-.082 0-.164.134-.134 2.691-1.731 5.711-2.567 8.536-3.793 5.155-2.258 10.629-4.804 15.856-5.567 1.515-.217 2.515-.444 3.659-.67a167.92 167.92 0 0116.804-2.444c1.031-3.031 2.908-5.556 4.877-8.804.67-1.113 1.216-2.464 2.062-3.928.556-1.031 2.247-2.804 2.309-3.659.062-.856-.876-2.279-1.227-3.093a50.48 50.48 0 00-4.464-8.536c-3.897 2.835-5.557 7.917-8.948 11.247.117 1.444.162 2.892.134 4.34 1.948 0 3.866-.484 6.371-.412-1.773 2.206-3.258 4.701-6.505 5.423-.31 2.443.886 7.474-1.897 8 .144-1.681.062-2.712.134-4.341-1.619.134-1.258-1.629-2.299-2.299-7.567 2.227-14.928 5.413-22.763 7.32-4.371 1.031-9.052 1.031-13.402 2.701.685 2.829.898 5.751.629 8.649zm68.165-38.762c.546-.33.412.257.804.412-.258-.309.268-.876-.134-1.217-.114.351-.516.454-.65.805h-.02zm-38.351 3.659c.052 2.516 3.289 3.279 2.062 5.825a52.23 52.23 0 013.392 5.155 9.352 9.352 0 012.567-.536c.423-4.609-.536-9.186-.134-13.959-2.361 1.433-5.413 2.155-7.866 3.515h-.021zm-65.587 6.372a3.297 3.297 0 00-2.165-1.897c0-.083 0-.165-.134-.134-2.536 2.299-4.361 5.309-8.681 5.824-1.206 1.227-1.536 3.505-2.165 5.011-.629 1.505-2.062 2.288-3.093 3.793-1.608 2.289-2.453 5.444-3.257 8.547 6.556-2.577 12.711-4.794 18.969-7.732.721-2.144 1.557-4.227 3.392-5.691.855-.68 2.876-1.268 3.257-2.299.382-1.031-.206-2.402 0-3.66-2.309.217-3.824-1.02-6.103-1.762h-.02zm8.247-1.763c-.825 1.958.351 4.464-.134 6.639a2.652 2.652 0 001.897.278c.212-1.438.346-2.887.402-4.34.062-.381-.505.34-.536-.134-.031-.474.309-.68.402-1.031-.485-.66-.732-1.546-1.99-1.412h-.041zm23.845 4.608c-2.587-1.474-7.103 1.165-10.309.546-1.722-.34-2.856-1.989-4.464-2.845-1.897.082-3.515-.433-5.154-.144a17.526 17.526 0 00-.403 4.618c1.691-.474 3.093-.557 4.196.536a3.099 3.099 0 001.361 2.165c4.753.98 11.608-.484 17.072-.804.33-1.206.33-3.093.681-4.618-1.134.278-2.041-.062-2.938.546h-.042zm39.176 4.608c-1.031.186-2.062.701-3.093.949-3.722.897-6.629 2.134-10.031 2.979-4.536 1.144-9 2.433-13.691 3.258A920.861 920.861 0 00155 175.402c-.423 0-.392-.423-.948-.268-6.186.67-12.196 3.093-17.351 4.34a48.27 48.27 0 00-5.557 1.753 207.183 207.183 0 01-22.763 6.917c-1.835.454-3.618 1.454-5.556 1.897-3.68.835-7.33 1.67-10.97 2.165a52.14 52.14 0 008.939-.268 2.22 2.22 0 011.897-.948c.515-.103.093.721.68.536 4.423-2.175 11.536-1.887 15.464-4.196.516-.103.093.722.68.546 3.176-1.422 6.939-2.794 10.701-4.072 5.155-1.742 11.341-3.557 15.722-3.381 6.66-2.444 14.134-3.31 20.464-4.753 3.093-.691 6.124-1.66 9.351-2.433 3.092-.732 6.072-1.371 9.072-1.897 6.639-1.165 12.371-3.34 18.433-5.01 2.979-1.784 7.33-2.598 11.113-3.928a.142.142 0 00.106-.139.14.14 0 00-.106-.139 26.796 26.796 0 01-4.618.814h-.031zm-65.32.681c-.093-.444.969-.918.278-1.031-1.773.402-2.69 1.649-4.206 2.299-.742 1.031-.536 2.061-.948 3.247-1.031 3.093-5.083 3.711-7.99 4.887-6.051 2.433-12.773 5.453-18.433 7.453a1.367 1.367 0 00-1.031-.278c-4.845 1.299-9.02 3.268-13.69 4.742a3.9 3.9 0 00-.805 1.093 78.72 78.72 0 00-8.917 4.412c2.31.557 3.928-.412 5.825-.68 1.144-.155 2.37-.072 3.525-.268 2.248-.371 4.578-1.196 6.774-1.763 9.206-2.34 17.948-5.351 26.422-7.99 2.134-.67 4.186-1.773 6.371-2.309 3.031-.722 5.949-1.196 8.134-2.711 3.701.402 8.371-2.413 12.062-1.619 8.248-1.897 16.897-3.299 24.742-4.608 3.588-.598 6.959-1.67 10.567-2.577 3.609-.908 7.299-1.495 10.846-3.093-5.876.711-11.866 1.701-18.165 1.618-5.485-.062-10.722-.278-16.258.145-4.701.35-12.835 2.247-16.392.268a13.822 13.822 0 00-.412-1.629c-2.443-1.815-5.495-.268-8.268.392h-.031zm147.423 4.876c-.701-.237-1.495-.175-2.165-.413-1.268-.443-2.402-1.298-3.66-1.618a76.536 76.536 0 01-4.608-1.361c-.67 5.155-2.464 9.103-4.196 13.155 2.062-.052 3.495.464 5.412.536.155-.072-.103-.773.279-.949a54.463 54.463 0 016.907 4.341c.154-.403-.65-.506-.268-.681.443.454 1.68.846 1.484 1.485-.196 0-.422-.567-.402 0 2.846 2.123 2.877 6.556.402 9.082.969 3.175 2.578 6.67 3.66 10.165 2.217 0 3.041 0 4.742-.134a11.251 11.251 0 014.073-2.845c-.299-1.299.195-3.093 1.618-3.392-.227-8.371-.691-15.144-.536-22.897a13.28 13.28 0 01-7.66-3.258c-1.959.598-3.154-.577-5.041-1.216h-.041zm14.227 2.165c.277-1.38.371-2.791.278-4.196-.227 1.35-.608 3.175-.237 4.196h-.041zm-188.763 5.01a14.053 14.053 0 00-12.134-2.567c-1.031 2.907-1.227 5.825-2.062 8.938 4.855-1.742 9.464-2.907 14.227-4.732.113-.804.804-1.732.68-2.309a1.84 1.84 0 01-.67.67h-.041zm188.659.959c-.154-1.629.361-2.639-.134-3.392.052.99-.309 2.67.145 3.382l-.011.01zm-72.628 2.165c.144 0 .34-.062.134-.134-1.031-1.031-2.567-1.505-3.794-2.309-.825.103-1.413-.537-2.444-.403a15.116 15.116 0 00-7.855-1.494c.113.701.258 1.371.402 2.061 4.612.057 9.189.826 13.567 2.279h-.01zm-39.506 1.495a141.842 141.842 0 0122.897-3.794c.299-.474 0-1.588.268-2.062-2.309.67-4.536.144-6.907.948-7.216.805-17.721 2.145-24.526 5.825v.815a32.942 32.942 0 018.402-2.299c-.03.206-.505.525-.134.567zm24.66-3.794a6.708 6.708 0 01.134-2.062h-.814c-.031.918-.175 1.959.629 2.062h.051zm-47.02-.547c-6.959 2.506-15.351 3.238-21.815 5.011.227 8.928 0 18.031-.134 27.649a7.9 7.9 0 012.846.134c.268 2.753-1.031 5.712-3.66 5.557.247 3.155-.052 5.155.134 8.536 2.876-2.588 7.773-4.206 12.464-4.742 1.247-.928 2.721-.237 4.072-.413a21.825 21.825 0 004.33-1.35c.237.309.763-.227 1.216-.134.196-.794-.288-1.34-.402-2.062 0 0 .289-.165.268-.268-.299-2.969-1.763-5.598-2.299-7.99-.2-.798-.29-1.62-.268-2.443.103-.526.773-.753.949-1.351.299-1.082-.248-2.061-.547-3.257-.123.082-.495.567-.546.278 0-.691.546-1.258.825-2.062-.485-.402-.64.382-1.227.279.165-.299.144-.763.402-.949-.32 0-.392.227-.804.134-.072-1.392-.681-2.278-.681-3.526 0-2.948 3.98-6.371 6.103-7.989.186-3.598-.886-6.103-.948-9.083-.083.206-.206.124-.33.041h.052zm33.34 3.248c-4.784.804-9.279 1.495-13.402 2.577-2.062.526-4.629 1.103-5.691 2.578a8.57 8.57 0 012.309.814c.258-.186.485 0 .67-.412a9.66 9.66 0 003.939-.949c6.67-.402 12.907-3.67 21.649-4.062.515-.835 1.402-1.309 2.062-2.062-3.876-.031-7.464.825-11.588 1.516h.052zm16.66-1.217c-.103 0-.155.114-.134.279 2.391 2.618 7.433 2.587 10.711 4.33.618-.722 1.495 0 2.567 0 .227.546.34 1.196 1.361.948-.052-1.031-.639-1.443-.681-2.443a41.753 41.753 0 00-13.876-3.114h.052zm32.154 6.887c-.299 1.68.691 3.485 2.175 3.66 1.031.123 3.361-.887 4.877-1.351a75.252 75.252 0 0114.495-2.711c-.093-1.794 1.649-3.505 3.391-3.928a14.043 14.043 0 001.897 3.928c1.866-.196 3.897 1.361 5.155.68.051.32-.247.289-.144.67.525.155.484-.474.814-.134a3.27 3.27 0 01-.268 1.083c1.082.361 1.856 1.031 3.247 1.093.413.855 1.248 1.608 1.361 3.092 1.444-.721 0-2.278 0-3.391 0-.444.444-.918.402-1.351-.082-.959-1.113-1.474-1.618-2.062-.825.825-1.031-.247-1.495-.814a13.378 13.378 0 00-3.248-2.309c-.329.175.073 1.031-.278 1.226-.433-.329-1.144-.391-1.484-.814v-1.216c-1.846-.928-3.629-.454-5.835-.279-7.372.598-17.031 1.258-22.897 4.124 2.69-.567 5.474-1.753 8-2.062-2.835.969-5.732 1.835-8.547 2.866zm-33.33 6.773a18.33 18.33 0 013.093-.536c-.412-4.361-1.185-6.185-1.897-10.165-.773.134-.969.835-1.618 1.031-.196-.216-.856-.67-.949-.536 1.567 2.67.98 6.753 1.413 10.227l-.042-.021zm-37.113-9.752c.227.278 0 1.031.268 1.226.309-.144.485-.433.948-.412-.103-.474.145-1.289 0-1.35a3.282 3.282 0 01-1.185.556l-.031-.02zm-35.639-.268c0-.083 0-.165-.134-.134-.578.176-1.167.31-1.763.402.144 6.412-.392 14.505-.413 23.041 0 1.227-.381 2.443.135 3.381a4.55 4.55 0 002.061.134c.664-8.921.712-17.876.145-26.804l-.031-.02zm71 10.309c.969-.495.598-2.175.546-3.392-.113-2.536-.453-5.33-1.629-6.505.237.051.248-.753-.134-.536h-.268c.701 3.938.887 7.639 1.516 10.443l-.031-.01zm-45.804-4.742c-.31 0-.392-.238-.804-.134-.732 1.185-2.64 1.278-2.99 2.701-.134.577.34.969.278 1.494-.062.526-.928.578-.546 1.217a10.157 10.157 0 003.093-2.165 50.604 50.604 0 0110.494-6.464c-.165-.433-.154-1.031-.412-1.35-2.608 1.67-6.948 2.154-9.082 4.711l-.031-.01zm75.484-.949c-.577 0-1.402.722-1.763.134-3.02 1.722-6.247 3.237-9.35 4.876.085 1.286.313 2.559.68 3.794a9.907 9.907 0 011.897-1.618c.053.531.237 1.041.536 1.484 2.835-1.464 5.155-3.402 8.402-4.474.423-1.567.866-3.093 2.175-3.794-.206 1.031.403.433.537.547.072.814-.557 1.195 0 1.762 1.031-.577.123-3.092 1.216-3.659-3.567 1.123-6.825 3.278-10.309 4.062 1.948-1.114 4.165-1.939 6.01-3.104l-.031-.01zm-78.051 6.639c.783.206 1.35.382 2.299.681 2.123-1.495 4.464-2.763 6.639-4.206a36.317 36.317 0 012.062-3.66 33.408 33.408 0 00-10.969 7.196l-.031-.011zm110.031-4.062c.948 1.887.804 4.877.814 7.722a14.43 14.43 0 013.66-.68c-.732-2.258-.65-3.877-1.897-6.103-.093-.506.546-.969.268-1.217-.474.041-2.34-.144-2.815.289l-.03-.011zm-2.176 0c-.103 0-.154.114-.134.268.371 1.732 1.031 3.609 1.495 5.423.144.608 0 2.062.681 2.165.556-2.185-.134-7.175-2.011-7.845l-.031-.011zm-92.412.268c-.155 3.093 1.031 7.279 1.763 10.031.505-.061.701 0 1.031-.412a33.775 33.775 0 00-2.165-9.619c-.443.403-.248.124-.598.011l-.031-.011zm-2.093 12.743a7.213 7.213 0 00.949 3.794c-.258.587.103.938 0 1.226.659 1.681 1.546 5.433 1.216 7.042a27.14 27.14 0 013.258-1.897c-.722-2.877-2.062-5.31-1.361-8.248-.691 0-1.031.371-1.619.413a40.654 40.654 0 01-.814-4.062c.423-.124.825-.258.948-.681a65.22 65.22 0 01-1.762-9.897 5.937 5.937 0 00-2.846 1.217c0 1.876.557 3.732.536 5.289.237 0 .351-.196.413 0a15.94 15.94 0 001.082 5.804zm-65.763 6.752c.66-.876 1.124-1.958 2.444-2.175 4.371-4.639.773-11.01-1.897-15.309a17.467 17.467 0 01-2.444-.547c-3.433 1.64-7.474 2.124-11.649 2.578-1.299 4.67-5.155 9.051-3.526 14.907a17.664 17.664 0 003.66-.402c-.474-1.423-.722-4.031 1.35-4.474 0 1.907 1.031 2.763 1.031 4.608.396.145.831.145 1.227 0-.175-1.66.144-4.227 1.897-4.742-.567 2.175.598 3.649.536 5.154.794.052 1.031.32 1.763.134.526-2.546 1.639-5.227 3.526-5.958-2.186 2.546-2.794 8.701.134 10.845.732-1.66 2.288-3.227 2.711-4.753-.062.134-.649.475-.763.134zM255.01 198c.258.845.206 2.237 1.217 2.175a12.625 12.625 0 00-1.031-3.526c-.495-1.556-.227-3.731-1.083-4.608h-.268a23.75 23.75 0 001.165 5.99V198zm-2.062-5.278c0-.114-.113-.155-.268-.134-.551.495-1.141.947-1.762 1.35a59.56 59.56 0 011.618 7.856c.959-.217 1.505-.846 2.443-1.031-.711-2.619-1.732-4.938-2-8.01l-.031-.031zm-29.371 13.175c.85-.138 1.707-.231 2.567-.278a56.786 56.786 0 01-1.763-8.392c-.958 0-2.433-.093-2.979 0 2 1.948 2.412 5.422 2.175 8.67zm81.165-8.66c-.309.67.557 1.268 0 1.897h2.578c-.289-.454.329-1.454 0-1.897-.382.34-.464.979-1.093 1.031 0-.495.082-1.031-.268-1.227-.145.351-.804.093-1.217.196zm-84.969.134a.36.36 0 00-.268-.125.36.36 0 00-.268.125c.526 2.794 1.753 6.021 1.897 8.67.423.371.67.124 1.351.134.597-3.227-1.093-6.587-2.712-8.814v.01zm65.866 2.711a15.906 15.906 0 01-3.804.403c1.423 2.422 1.856 5.824 2.577 8.938.815-.145 2.506-.093 3.66-.268-.701-3.495-1.165-6.67-2.433-9.083v.01zm14.495 2.062c3.495.083 7.938-.154 11.34-.134-2.258-1.123-8.897-2.598-11.34.093v.041zM281.979 210c.464 0 .65-.34 1.217-.268a12.371 12.371 0 00-.949-5.969c-.36-.897-.639-2.237-1.494-2.299a35.967 35.967 0 011.226 8.495V210zm-93.639-6.639c0 3.258 1.114 5.381 1.763 7.99.474.082.443-.64.815-.269-.763-2.67-.949-4.814-1.629-7.855-.423-.114-.475.196-.949.093v.041zm71.011 10.165c.237-.392.917-.351.948-.949-1.031-2.938-2.062-5.793-2.979-8.814 0-.103-.124-.155-.279-.134a23.533 23.533 0 002.31 9.856v.041zm-5.97-7.588c-.082.866.537 1.897.815 2.98.278 1.082.319 2.175.68 3.092.217.557.691 1.031.815 1.495.288 1.134-.196 2.062.402 2.846a7.648 7.648 0 012.309-2.176c-1.031-3.02-2.144-5.979-1.897-10.309-1.608.247-2.979.639-3.124 2.031v.041zm-184.69 5.516c.185 2.061 2.608 3.608 4.464 3.927.051-1.628 1.03-2.288 2.061-2.979 2.035.491 4.102.836 6.186 1.031 5.01.134 10.031-.072 15.175 0 4.691.062 9.341-.526 13.815-.814.618 0 1.34.391 1.897-.268-.567-.299 0-1.897-.536-2.176-.537-.278-.722.536-1.227.547a25.46 25.46 0 00-10.155-.681c-.371.083-.34.567-.814.547-.475-.021-.567-.341-.949-.413-4.422 1.567-9.278 1.433-13.402 1.083-2.639-.217-5.227.484-7.856.144v-.68c-.917.453-2.206-.299-3.525-.268.185-.753-.217-1.207 0-2.176-2.175-1.196-5.382.495-5.134 3.176zm57.587.134c-.793-2.506-3.732-2.856-6.773-3.093-.794 1.423-1.907 2.526-2.443 4.206 3.443-1.34 6.392.217 9.216-1.113zm92.547-2.578a2.64 2.64 0 001.495-.268c-.557.031-1.31-.165-1.495.268zm83.505 1.495c.66.969 1.155 2.062 2.309 2.567.093-.299.402-.402.681-.536.154.351-.423.577.134.536 1.36.279 4.237-.113 4.195-2.433-2.319.206-5.288-.134-7.35-.134h.031zm-161.093.536a6.818 6.818 0 00-.134 1.217c2.876-.722 6.526-.371 9.485-.268v-1.083a34.017 34.017 0 00-9.351.134zm144.124 2.691c.268-.278.33-.753.546-1.083-1.897.66-4.123.124-5.969.949-.959.433-1.546 1.753-2.299 2.299a5.95 5.95 0 01-1.897.948 38.547 38.547 0 01-4.34 1.083s0-.289-.134-.268c-.737.173-1.461.401-2.165.68-6.062.938-11.567 1.175-16.67 5.011-.464 0 .206-.743-.134-.671-2.062 1.598-4.124 3.268-4.742 6.361 1.031 1.196.556 2.691 1.495 3.66.701-2.856 2.567-4.557 4.329-6.371-.216.959.887.876.815 1.495-.072.618-2.206.959-1.217 2.577 1.061.57 2.201.98 3.382 1.217 2.134.577 5.299.103 7.319-.134 6.959-.825 17.372-2.959 23.31-5.97 2.443-1.226 4.938-2.061 6.505-3.381 1.093-.907 1.814-2.722 2.711-3.526.258.464.547.773.815.681-.609-1.928-1.516-3.938-.949-5.691a4.435 4.435 0 00-.814-1.217 5.688 5.688 0 01-2.444 1.897c-1.031-1.031-3.36.361-3.659-.68-1.691.423-2.763-.144-3.794.134zm-86.454 7.722c-4.886 1.082-7.907 1.845-12.866 3.391-1.185-.103-2.062.629-3.526 1.031a18.52 18.52 0 00-2.061.402 12.165 12.165 0 00-1.361 1.763 7.993 7.993 0 01-2.701 2.444c0 1.03.371 1.608.402 2.577 4.866 7.938 15.536 6.041 24.526 5.691 2.907-.114 7.051 0 9.484-1.629.258.103.093.402.412.134 3.526-.918 7.093-2.588 11.238-2.98a34.44 34.44 0 006.237-1.495c2.701-.69 4.917-1.03 6.371-2.567 4.814-1.989 11.453-10.762 5.423-15.463-.454 0-.464.443-.949.402-.258-.237.103-.341 0-.804a3.904 3.904 0 00-2.062-.681c-1.464 1.681-2.062 2.309-4.196 2.062-.134-.227-.629-.093-.68-.402-.495.546-1.309-.32-1.897.268-1.144-.639-2.206.433-3.66-.134-2.763.474-4.845.742-7.721 1.082-.176.227-.598.217-.815.402-1.835.124-3.886.124-5.412.949a95.511 95.511 0 00-9.629 2.443 2.916 2.916 0 01-1.763.134c-.062.639-.722.062-.67.547 0-.299-.485-.062-.68-.134-.196-.073-.155.391-.403.402-.061-.299-.67 0-.948-.134.062.422.309.515-.093.319v-.02zM144.268 214c-.052 9.165 0 17.948-.402 26.969-.082 1.938-.093 3.928-.268 5.825-.083.866-.474 1.701-.546 2.577-.227 2.815.072 5.742-.134 8.536a19.326 19.326 0 014.742.268c.206-11.701-.134-20.618-.547-31.701.145-.505-.453-.268-.536-.546.243-.361.383-.782.402-1.217.361-3.701-.391-6.639-.134-10.711a8.415 8.415 0 00-2.515.021l-.062-.021zm115.464.814c.443 0 1.711-.154 1.897-.814a3.379 3.379 0 00-1.835.835l-.062-.021zm-149.052-.268c-.484.444-1.412.289-2.061.268.474 1.516 1.567 2.413 2.175 3.794.422-.67.907.299 1.484-.134.093-1.825-.938-2.68-1.577-3.907l-.021-.021zm-2.824 4.341c-.629-1.227-1.897-2.227-1.093-3.805-1.155-.092-2.464.165-3.248 0a9.839 9.839 0 004.341 3.805zm189.051 1.907c0-.103.103-.155.268-.134-.206-.505.145-.773-.268-.949.052.371-.422.856 0 1.083zm-62.742 10.711a15.584 15.584 0 01-5.289 2.443c-2.062.506-4.196 1.32-6.237 1.619-2.721.402-5.526.505-7.856 1.629a17.34 17.34 0 00.135 2.577c1.886-.227 5.051-1.031 6.917-.546a6.689 6.689 0 01-.546 1.082c.639-.123 1.443-.093 2.062-.268.339.219.582.558.68.949-1.835 2.299-6 2.495-8.949 2.309.068.81.068 1.623 0 2.433.588-.062 1.856-1.351 2.712-.402 4.124-.897 9.278-.938 13.278-1.083 1.588-.061 3.237-.329 4.753-.278.804 0 1.618.382 2.433.412.814.031 1.443-.288 2.165-.278.721.01 1.309.072 1.907.144 3.948.433 8.247.671 12.371 1.083.814.072 1.598.237 2.165.268 3.526.186 7.021.835 10.433 1.082a47.185 47.185 0 01.134-5.69c-3.093.206-4.66-.639-7.856 0 1.505-3.433 4.609-3.464 7.856-3.526a2.461 2.461 0 01.268-1.629c-5.701 2.196-11.907 2.299-18.021 1.629a5.124 5.124 0 00-1.484-.804 13.562 13.562 0 01-1.804-4.474c-.33-.093-.495.659-.681.268-.773-3.969-1.36-6.908-2.443-10.712-1.907 4.835-5.124 7.114-9.124 9.763h.021zm-96.217-3.526c-.257.052-.515-.319-.804-.268-.505.083-1.092.66-1.763.815-1.03.227-2.061.598-2.979.814-1.423.309-3 .258-4.474.536-4.608.877-8.949 2.67-11.794 6.237 8.938 1.413 17.34 1.402 26.155 1.897-.073-4.835.216-8.247.268-12.196 0-.103-.114-.154-.268-.134-.763 1.258-2.908 2.042-4.361 2.299h.02zm136.598 6.237c.196 1.372-.113 3.042.134 4.196 1.712-.34 4.413-1.082 5.825-.402-1.031 2.567-3.093 3.557-5.959 3.093-.061 2.196.382 5.031-.278 7.32 3.33 1.031 7.928 2.515 10.845 5.278.227-.722.495.887 1.031.278 1.33 1.681 4.32 3.093 5.011 4.475.092.226.649 0 .68.268.32.196-.258.433.278.402.052-3.093-1.598-6.103-1.628-8.938-.763-2.464-.372-6.433-2.176-8.815.578.144-.69-1.845-1.082-3.093-.072-.268.082-.618 0-.814-.083-.196-.361-.113-.402-.268-.279-.928-.34-1.815-.547-2.711-1.031-.279-1.134-1.578-1.484-2.165.309-1.031 1.402-1.939 1.618-2.578-3.515 1.516-7.464 3.578-11.886 4.474h.02zm-2.464 13.537c.114-1.722.145-3.526.134-5.413 0-2.917-.68-5.866.949-7.866-1.124.134-2.196.33-3.382.413 0 3.835-.422 7.278-.278 11.649 0 .227.382.072.413.268-.155 0-.464.588-.135.681.093-.124 1.897.319 2.299.268zm-138.618-8.402c-.557-.052-1.031-.372-1.629-.403-4.371-.268-8.907-.175-13.402-.68-1.258-.134-2.464-.711-3.66-.814-.247 0-.433.268-.68.278-.248.01-.804-.268-1.031-.278-5.155-.227-11.485-.227-18.835-.268a24.756 24.756 0 01-.268 2.577c2.054.213 4.12.302 6.185.268 1.31.062 2.815 0 3.938.134.629.103 1.031.474 1.619.546 2.526.31 5.412-.309 8.402-.278 2.67 0 5.536.938 8.402 1.227 6.949.68 13.309.258 19.516.536a7.73 7.73 0 000-2.845c-2.846-.145-5.722.288-8.557.01v-.01zm77.505-.949c.395 2.876.533 5.78.412 8.68.588-.278.897 0 1.351-.412.227-2.237-.856-5.051-.402-7.041.165-.773 1.258-1.485 1.031-2.062-.547.526-1.701.454-2.392.845v-.01zm-45.258 3.526c-1.659-.371-2.989-.763-4.608-1.217a21.265 21.265 0 00-3.928-.278c-2.546-.217-5.062-1.124-7.453-.804-.134 0-.155.103-.268.134a11.145 11.145 0 00.268 3.381c8.082 1.031 12.649 1.093 21.958 1.495a9.009 9.009 0 00-.144-1.897c-1.598-1.381-3.742-.34-5.825-.804v-.01zm-74.123 1.361c1.144 1.031 2.268 0 3.092-.681.103.464-.206.516-.144.949 1.546.876 2.062-1.609 3.526-2.062-2 .299-4.557-.413-6.186-.402-.196.66-.04 1.629-.288 2.206v-.01zm12.474 1.031a55.867 55.867 0 0113 .268c.505-.856 1.68-1.031 2.175-1.897-6.051-1.382-12.66.062-17.526-1.083.98.794 1.227 2.227 2.351 2.773v-.061zm-6.124-1.835c.588.134 1.103-.516.949-.681-.103.412-.732.33-.949.681zm29.402 3.659c.65.186 1.505-.216 2.309-.144 1.207.237 2.431.375 3.66.412 2.371-.113 6.021-.711 8.536-.948.258-.33.083-1.093.134-1.629a21.515 21.515 0 00-4.742-.268c-4.742.155-9.917-.247-14.361-.268 1.866-.031 3.011 2.392 4.485 2.845h-.021zm-8.247-1.897c.412.093.258-.381.67-.278 0-.309 0-.505-.268-.536-.124.268-.268.536-.392.814h-.01zm33.876.949c0 .433.722 1.247.949 1.897 5.247.082 8.113.175 13.546.536.608-.433 1.031-1.031 1.629-1.485-6.155-.525-10.206-.299-16.114-.948h-.01zM111.34 246c.258-.062.825.186.681-.268h-.681V246zm4.34.144a8.674 8.674 0 00-3.525-.144c1.113.175 2.659.546 3.556.144h-.031zm55.011.268c-.093.413.144.495.134.815 1.227 0 1.577.093 2.577.134.041-1.155-1.66-1.258-2.68-.949h-.031zm-3.248 2.165c0-.391.784-.649.402-.948-.051.278-.742.66-.371.948h-.031zm44.042 3.66c.185.052.639 0 .814 0 1.103.33 2.134 1.175 2.979 1.217a3.5 3.5 0 003.794-2.712 2.058 2.058 0 01-.412-1.082c-1.124-.299-1.794-1.392-3.093-1.485-.753-.062-1.722.578-2.577.815-2.114.577-5.052.928-5.825 2.299 1.48.161 2.938.479 4.35.948h-.03zm44.711-2.979c.309-.33 1.155-.114 1.361-.547a6.903 6.903 0 01-.949-.134c.093.423-.34.361-.381.681h-.031zm-84.412.134c.309.082.628-.794.134-.681.082.33-.217.299-.104.681h-.03zm-81.31.814c-.134 2.062-.237 3.66-.402 6.093.71.44 1.486.761 2.3.948.257-2.845.288-5.154.401-7.989-.154.886-1.082 1.041-2.268.948h-.03zm129.949.536c0-.412 1.103-.515.68-.948-.206.227-.917.67-.649.948h-.031zm-122.763-.67c0 .866.247 1.897.268 2.98 0 1.587-.31 3.773.948 4.329-.34-1.762-.948-5.36.268-7.216-.474.021-1.206-.289-1.453-.093h-.031zm6.185 2.846c.145-.949.207-1.97.413-2.846h-.413c.176.959-.34 2.021.073 2.835l-.073.011zm-3.515 3.927c.206.444-.701.732 0 .815.856-.464.299-1.938.402-2.846.165-1.402 0-2.783.134-4.34a2.474 2.474 0 01-1.03-.134 15.38 15.38 0 00.566 6.505h-.072zm28.041-6.103c.371-.093-.093.639.278.547.124-.413.66-.423.671-.949a2.946 2.946 0 00-.877.402h-.072zm-10.155.279c-.34 1.319.238 2.773.403 4.061.134 1.031-.258 3.155 1.36 3.392a36.12 36.12 0 010-7.453c-.092.103-1.123-.073-1.69 0h-.073zm123.856 2.701c-1.711-.877-3.618-1.939-5.423-2.062-.762 0-2.134-.804-2.989-.67-1.031.165-1.815 1.247-3.093 1.897 1.309.618 3.361 1.268 4.474.68a50.501 50.501 0 007.052 2.165 4.652 4.652 0 00.051-2.01h-.072zm-121.01-2.165c0 2.247-.526 5.495 1.35 6.917.073-1.907-.33-4.886 0-7.319-.659-.093-.958.175-1.35 0v.402zm-11.794 4.206c.536-.691.155-2.773 0-3.526.01 1.227.144 2.732.072 3.526h-.072zm58.402 4.464c.526.082.66-.237 1.217-.134.241-1.933.379-3.877.412-5.825 0-.742.495-1.814-.536-2.062-.114 0-.278 0-.278.134.701 2.557-.021 5.474-.743 7.887h-.072zm-2.299-7.217c0 2.402.155 4.856.134 7.32.456-.064.907-.157 1.351-.278.453-2.279 1.257-5.403 0-7.042h-1.485zm-54.031 2.609c-.319-.774-.453 1.732-.134 1.907a6.975 6.975 0 01.134-1.907zm6.371 4.34h.268c.227-.361-.525-1.505-.536-1.629.165.495-.278 1.577.299 1.629h-.031zm-20.33-.402c.073-.206.207-.341.279-.547-.175 0-.186-.175-.413-.134.103.217-.123.701.165.681h-.03zm125.073 1.484c.641-.731 1.33-1.42 2.061-2.062-1.041.176-1.979 1.825-2.03 2.062h-.031zm-16.794 2.712c1.031-1.392 2.989-2.691 3.515-4.196a18.67 18.67 0 00-3.484 4.196h-.031zm4.33.268c1.031-1.382 2.577-2.928 2.979-4.464-.887 1.474-2.412 3.062-2.948 4.464h-.031zm3.928-2.165a6.123 6.123 0 011.628-1.629c-.051-.227.207-.34 0-.402a5.65 5.65 0 00-1.598 2.031h-.03zm-12.372 2.711c1.402-1.351 3.093-3.093 4.207-4.34-1.289 1.402-3.846 2.33-4.134 4.34h-.073zm26.021.546c1.175-1.309 3.093-2.628 3.247-4.474-1.649.763-2.525 3.083-3.175 4.474h-.072zm-11.34-1.494c.804-.908 1.835-1.588 2.567-2.578-1.382.217-2.052 1.887-2.536 2.578h-.031z"/><path d="M213.144 70.433a11.92 11.92 0 013.093 7.041c.155 2.062-.216 4.32-.134 6.505.083 2.475-.165 7.64 2.299 7.32.804-.103.67-.856 1.351-1.227 3.371 1.196 5.288-1.825 7.453-2.433 1.598-.453 3.217 0 4.206-1.495-.257-1.897-1.268-3.206-.134-4.876 1.516 2.412 1.248 6.608-1.226 8-.959.536-2.207.34-3.65.804-2.402.784-4.288 3.444-7.216 2.444-.65.34-.722 1.154-1.495 1.216-2.433.206-2.165-4.392-2.299-6.907-.083-1.63.103-3.402.134-5.155a14.674 14.674 0 00-2.248-8.144c-3.659-2.928-10.721 1.35-12.608 3.794-.567-1.279 1.145-2.186 2.175-3.258.846-.887 1.258-1.949 1.753-2.3 2.299-1.618 5.887-.906 8.546-1.329zm79.134 146.392c.34-.34 1.248-.072 1.485.134a2.976 2.976 0 01-1.485-.134zm7.175 3.835c.207-.145.155 1.103.279 1.495-.186.123-.309-.949-.279-1.495zm-67.886 1.495a11.523 11.523 0 01-3.392 1.897c1.155-.609 2.217-1.31 3.392-1.897zm27.371 1.082c-.474.732-1.886 1.402-2.711 2.299-.34.381-.33 1.165-.949.959.279-1.505 2.382-2.32 3.66-3.258zm-69.784 2.031c.341.258-.618.371-.402.949-2.495.494-4.123 1.835-5.969 2.989.114-1.185 1.753-1.659 2.846-2.175a58.99 58.99 0 003.525-1.763zM240.103 90.02c.32 1.578-1.082 3.01-2.062 4.34-2.288 3.238-5.299 7.094-10.02 7.722a13.545 13.545 0 01-8.413-1.484c-2.113-1.031-3.876-1.825-5.154-3.392.762-2.062 4.618-.67 6.371-.948.515 0 0 .113.134.412 2.886-.722 6.845-1.33 8.938-3.258.328.241.694.426 1.082.547a21.149 21.149 0 014.887-2.062c.557-.196 1.196-.196 1.619-.413 1.02-.432 1.371-1.958 2.618-1.463zm-8.402 5.423c.062.763.608 1.031.546 1.897 1.186.103 1.207-.959 1.897-1.35-.206-1.495-1.474-1.155-2.443-.536v-.01zm-3.649 1.093c.064.89.291 1.76.67 2.567a7.553 7.553 0 003.092-1.216c-.061-.835-.515-1.3-.67-2.062-1.053.129-2.09.37-3.092.721v-.01zm-3.258.938c-.454.887.134 1.217.134 2.31a4.122 4.122 0 003.247-.403c.041-2.299-1.794-2.835-3.381-1.897v-.01zm-2.175 2.31c.793 0 1.226.257 1.762-.135.361-2.299-3-2.03-1.762.145v-.01z"/><path d="M234.547 216.732c3.886-.557 7.33 1.196 6.505 5.155-.392 1.876-3.547 4.773-5.279 5.556-.474.206-1.03.186-1.628.402-1.207.454-2.454 1.165-3.66 1.763-3.289 1.629-7.763 2.608-11.928 3.928a74.381 74.381 0 01-8.804 2.062c-2.949.557-5.959 1.474-8.67 1.763-6.279.67-12.846 1.185-18.165-.134-2.175-.536-3.876-2.815-5.155-3.928.402-.175.34-.794.402-.949.145-.453 1.598 0 2.176 0-.217 2.062.701 3.526 2.567 3.794 1.03.155 2.216-.381 3.257-.412.753 0 1.547.268 2.299.278a111.342 111.342 0 0037-6.237 25.122 25.122 0 005.011-2.299c2.391-1.567 6.855-4.124 6.505-7.866a3.554 3.554 0 00-2.433-2.876z"/></g><defs><clipPath id="clip0"><path fill="#fff" d="M0 0h328v288H0z"/></clipPath></defs></svg>