<svg width="328" height="288" fill="none" xmlns="http://www.w3.org/2000/svg"><g clip-path="url(#clip0)" fill-rule="evenodd" clip-rule="evenodd" fill="#EE7D00"><path d="M84.738 218.016c1.203.379 4.02-.891 3.764.936-.39-1.437-2.895.757-3.764-.936zm-77.213 1.57c5.502.613 8.119.056 14.7 0 0 .78.703.747.936 1.248-3.174 4.455-4.354 10.858-6.57 16.271 2.606 2.049 3.73-.601 7.205.312-.1 1.57-3.441-.112-3.13 1.871-.757-.201-4.554-.813-4.7.312-.623.066-1.257-1.392-1.87-.312-.457-.067-.111-.936-.624-.936a3.176 3.176 0 011.56-1.882c-.112-3.419 2.082-4.622 2.227-7.796h.935c-.679-2.416 2.885-4.755 1.56-7.796-3.442 1.537-12.251-2.227-13.131 2.495 1.648 1.325 2.54-1.704 3.13-.312 2.884-1.347 3.753.145 6.871-.624 1.626 2.161-1.815 3.23-1.247 6.259h-.936c.234 4.032-4.967 9.055-4.377 12.519 1.905-.78 4.9.924 6.248-.947 2.951 1.548 6.805-.368 9.7-.312.123-1.236-.278-2.996.312-3.753-1.48-.446-.768 1.314-2.227.946.757-1.436 2.138-2.227 2.818-3.753 1.18 2.228.122 4.878.312 7.796-.635-.156-1.46-.679-1.57.624-3.854-.969-11.984 1.949-17.82 0 3.174-6.048 6.114-11.816 7.506-18.142-3.04.501-6.838.245-8.442 2.227a2.039 2.039 0 01-1.258 2.228c-2.06-2.039-1.927-4.845-1.247-7.796 1.18-.346 2.762.891 3.13-.747zm30.293 3.742c7.473-7.918 11.794 8.687 6.882 14.088-1.47.145-1.37 0-2.227.936-5.49.579-6.448-8.865-4.655-15.024zm1.87 13.454c1.114-.335.903.779 1.883.634 5.09.268 5.334-13.297 1.57-15.335-7.773-.379-5.624 11.827-3.452 14.701zm-7.416 7.428c-.657 1.114 0 .579.612.936-.234 1.704.39 2.539.323 4.065-1.604-.212-.323.501-.635 1.57-.267-.189-.557-.379-.612 0-.958-.2-1.448-.857-1.259-2.227-3.096 0-6.07.189-5.947 3.441 1.994 2.517 4.221 3.675 6.26 6.571 3.708 2.383 10.178 8.442 7.505 14.389 0 0-.5-.401-.623-.312 0 4.032-3.664 3.82-6.26 4.076 0-.98-1.536-1.203-1.558-.323-.257-.668-1.181-.69-1.259-1.559-.211.869-1.515.123-1.871-.635-2.116-.1-2.662.713-4.065.635-1.548-2.862.09-5.568.936-7.796.467.479 1.614 0 1.57-.935 1.737 1.848 1.76 4.254 3.43 6.57 4.165 1.415 6.604-.356 7.195-4.065-4.155-5.223-8.208-10.557-13.131-15.012-.58-2.862 1.002-3.586.936-5.947 2.372-1.114 2.65-2.751 6.259-2.228.902-.2.835-1.448 2.194-1.214zm15.012 12.196c.535 1.314 1.704 3.987.312 5.323.278 5.179-.79 11.037 2.818 14.389-.702 1.57-1.671-.412-1.57 1.259-1.114-.335-3.632.701-3.754-.624-.58 0-.19 1.058-.624 1.247-1.113-.133-.668-1.826-1.57-2.227.356-3.208 4.199-5.725 1.882-8.13 1.582-1.114 0-3.408.312-5.947-.4-.98-.646-.167-1.56-.624-.667-3.564 1.46-3.519 3.754-4.666z"/><path d="M48.732 225.211c.2.1.479-.758.312-.936 1.258 1.415 1.993 8.197.935 11.572-.523 1.692-2.372 2.227-1.87 3.441-3.242 2.316-3.063 3.397-9.077 3.129-1.114-.891-1.849-1.815-3.13-1.882-2.105-2.929-4.366-6.537-3.753-10.936.557-3.965 3.341-7.473 5.635-9.701.947 0 2.06.178 1.871-.946.88.835 3.275-.145 3.765.311-.49.891-2.16 1.114-3.13.635-.59 1.515-4.265.925-3.764 4.377-2.072.357-2.072 2.662-3.441 4.377-.112 3.341 0 5.569.946 7.506 1.804 3.531 5.669 3.687 8.442 4.065.368 0 .267-.568.312-.935 5.97-.579 7.206-6.916 6.57-13.142-.11-.356-.545-.791-.623-.312a9.646 9.646 0 00-3.441-5.624 5.214 5.214 0 013.441 5.001zm12.552-.936c.645.813.657 2.227.623 3.753-.367-.055-.267-.568-.312-.935.234 2.494.38 8.041 4.377 9.689 5.569-.735 5.29-16.171-1.882-15.325 1.682-2.595 4.065 1.326 5.635 1.871 0 1.114-.222 2.529.936 2.506 0 3.341-.156 5.669-.312 9.389-2.617 5.089-9.968 1.113-9.065-4.7-.078-.446-.936-.1-.947-.624 1.114-.267 0-3.965 1.258-3.118a14.391 14.391 0 01-.311-2.506zm12.596 27.753a52.684 52.684 0 01.612 16.272c.668 1.113 2.394 1.113 1.882 3.441-.746-.301-3.564.468-4.377-.624 2.005-5.145 1.047-11.76.312-17.819-.646.134-.824-.223-1.247-.323-4.455 2.706-2.45 10.981-3.13 16.271-.479-.479-1.114-.846-1.57-.623-1.548-5.001-.546-11.65-3.753-14.389-1.56.412-2.15 1.815-3.442 2.494.769 3.453-.59 8.097.936 12.83-.746 1.014-.557 2.985-1.871 3.441a8.047 8.047 0 01-2.818-1.882c2.094-5.101 2.662-12.763 0-17.518 1.292 0 1.96-.546 3.441-.312 0 .768-.055 1.515.624 1.559.924 0 1.77-.111 1.57-1.247 1.994-.145 4.69.935 4.69 3.753 1.87-1.036 2.082-3.519 4.688-5.001 1.804.49 1.481-.445 3.452-.323zm29.635-37.765c-.279 2.294.69 4.332 0 7.195-2.372-1.526-3.72-.836-5.636-2.818-.701.334-.11 1.971-.311 2.818-1.67-.914-1.493 3.998-2.495 3.753-.178 1.837.768 4.566.624 5.635 0 .223-.624.301-.624.312 0 3.252.501 3.942 2.227 6.259-.089.835 1.214-.835.947.624-.323 1.113-3.597.924-5.947.935-.991.78-1.726 1.682-3.13 1.248.234-2.696 1.014-3.342 1.871-5.001-1.503-5.101-.646-12.073-2.227-17.207.736.148 1.48.252 2.227.312-1.325 7.172 1.526 14.857 0 19.401.145 1.592 4.734.935 5.012-.312-2.227-1.537-3.987-6.838-1.882-9.077-.245-3.731.067-8.52 1.247-9.7a10.011 10.011 0 004.388-.936c1.359 1.058 1.192 0 1.882 1.248 1.493-.657 0-2.395 0-3.442-8.43.635-11.571.791-20.97.936a5.044 5.044 0 00-.312 3.452c.913-.723.612-.857 1.882-.946-.568 1.325-1.481 2.472-1.57 3.441-1.326-1.726-1.326-4.51-1.56-6.56 3.14 0 6.348-1.715 9.077-.323.557-1.325 3.051-1.536 3.43-.623-.089-.513.3-.535.323-.936 4.444.134 6.771.368 11.527.312z"/><path d="M63.778 217.704c1.114.747 3.341 0 4.7.624 1.904.902 2.862 3.252 4.377 5.635.534.847 1.737 1.526 1.87 1.871a16.92 16.92 0 01.636 5.324c-.09 1.459-.691 4.922-2.506 5.947v1.559c-1.894.724-3.954 3.018-6.248 1.559-.245.223-1.003 1.326-.947 0-.133.39-2.973.268-2.818.312-2.873-.946-4.065-3.697-5.947-6.248-.167-2.906-.5-6.036.323-9.076 1.27.234.546-2.484 1.56-1.559.356-3.631 3.641-4.088 5-5.948zm-1.871 2.228c-.724 2.06-2.762 3.218-3.441 5.936-.891 3.541.2 7.328 1.247 10.636.924.746 2.227 1.113 2.818 2.227 15.77 4.967 12.429-25.459-.624-18.833v.034zM48.22 247.34c.334 2.227-1.114 2.662-.936 4.689a4.123 4.123 0 01-5.323-.936c2.628-.535 3.051-2.873 6.259-3.753zm44.425 4.065a2.733 2.733 0 012.495-.936c.601 1.381-.278 2.45-.612 4.377a8.998 8.998 0 01-4.69-3.441c-2.293 0-2.371.39-4.075 0-2.484 3.218 3.051 5.68 4.688 7.796.869-1.537.513 1.448 2.517.623a8.243 8.243 0 011.248 5.636c-.178 1.57-1.27 2.227-1.882 3.441-.814 1.593.322.858-.624 2.506-.457.791-3.14 1.258-2.506 0-.78.39-.98-.156-1.247.312-3.13-1.838-4.9-4.7-8.453-4.7.233-1.481-.346-2.15-.312-3.43.81.178 1.121-.134.935-.936.646.178 2.228-.512 1.883.613a2.112 2.112 0 012.227-.936c-2.027 4.945 2.328 6.783 5.635 6.571.847-2.227 2.228-3.809 2.228-6.883-3.43-1.481-6.95-5.267-9.077-9.076-.178-1.593.746-1.882 0-3.119 3.074-2.015 8.03-.289 9.622 1.582zM79.381 55.66c-4.455 1.014-6.382-.155-9.767 2.785-5.034-.869-9.667-1.359-11.627-2.785v1.393c-4.288-.557-5.212 2.227-7.907 3.252v2.327c-2.55.3-2.462 7.072-4.69 9.289-.846 10.513.268 17.64 7.44 21.394 3.453-1.014 4.043 1.258 6.048-.457 2.35 2.105 8.085-3.051 9.767-5.123a10.882 10.882 0 001.86 1.86c-.434 5.38 2.495 6.17 7.44 6.047 3.452-10.59 3.708-21.817 4.187-36.752-1.983.023-1.548-2.439-2.751-3.23zM64.903 76.12c-.891-1.115-1.359 3.674-1.392 4.654-4.633 1.615-4.143-2.84-5.992-4.666a21.638 21.638 0 015.569-9.3c1.559-.88 1.703 2.284 1.86 0 1.124 2.362.278 6.772.01 9.3l-.055.011zM48.22 35.613c0 .724-.067 1.615.924 1.392 1.225-2.138.523-12.25.468-15.347-4.455-1.036-11.137-1.681-16.706.457-4.455-1.983-7.862 0-13.954-.925-.457 1.114-2.228 3.598-3.252 3.72a8.91 8.91 0 01-1.393 6.515c4.266 1.604 8.765.167 13.487 1.393-.768 9.265 1.626 22.151-.467 31.629-.424 1.915.768 6.002 0 8.375-.067.222-.112.334-.134.39-.022.055.156-.19.134.545 0 1.715-2.852 3.664-1.393 6.036-.167.09-.924-.478-.935-.467-1.27 4.22-1.581 9.032-5.569 11.137-7.216-.424-10.524-9.656-8.831-15.347.133-.468 1.002.2.924-.936-.802-11.059-7.662-.623-13.954-2.795-.958 3.341-3.876 2.55-5.569 5.568v.98c2.15.29 1.047 4.867 2.784 4.188.401 1.481-.4 1.76-.924 2.328 3.196 1.76 1.86 8.063 5.112 9.767-1.214.757.089 1.904.935 3.252 2.005 3.207 8.22 7.941 11.627 8.843 2.495-.836 3.82 1.247 8.843.467.067-.545-.078-1.325.457-1.403.111.368 0 .924.468.936 6.682-3.586 11.95-4.455 14.478-13.03 1.793.244.88-5.09 2.784-4.645.59-6.437 1.114-7.55.935-14.879.468 0 .557.368.925.457.211-9.11.768-22.107 1.86-33.49-1.17-.144.534-2.683-.457-4.187 2.172.135 4.348-.18 6.393-.924zm119.533 46.074c-5.68-1.85-7.796-.424-13.487-1.392v-2.362c5.691-4.621 10.024-8.185 13.955-13.943 1.114 1.258 2.049-1.849 3.252-.479 0-2.06-.167-5.056.935-2.316.201-4.221-.334-5.67-.467-8.843-3.52-1.76-9.556-.657-11.137-.468-1.348.167-2.228-1.626-3.241-1.86 0 0-.056 1.014-.468.936-1.47-.29-4.132-1.493-6.047.467-2.295-1.113-6.237.69-10.235-.935.111 2.818 1.113 3.976-.936 5.568 2.673-.445 1.114 4.065.936 5.123 1.771.658 2.227 0 2.327 1.86 2.105-1.035 3.52.424 6.504-.467-.389 2.16.735.49.936 1.403-2.083 3.018-3.185 9.344-5.123 11.627.145-.167-.201-1.114-.457-.936 0 3.007-2.661 4.522-2.795 7.44-.156 3.597.657 6.159 0 9.767 1.403-.468.824 1.036.935 1.86 9.868.122 19.323-1.437 33.022-2.784.345-6.025.445-6.114-.468-10.235-4.533.557-5.669-.48-7.941.969zm-43.724-1.392c-.657 4.176-8.263 1.113-10.235 2.784-.167-1.57-1.113.824-1.859-1.392-.078 1.336-2.295.78-3.253 0 .078-.69-.167-1.715.468-1.86-.111.178.279 1.114.468.935 3.62-4.198 5.758-11.46 11.627-13.487 1.515-3.34.334-8.508.924-10.702a18.253 18.253 0 00-9.299 0v-1.392c-3.074.98-4.087-.98-6.047.467-1.883-1.57-5.814.223-7.44 0 .145 0-.757-1.336-.935-1.403-.669-.256-1.715.613-2.328.468-1.047-.245-2.094-2.64-4.188-.468-.156 5.569-.245 8.531 1.404 12.563 5.713.423 6.27-.29 10.691.467a56.648 56.648 0 01-7.907 14.412 3.042 3.042 0 00.501 2.327h-1.425c.634 3.586.89 8.175 2.327 11.627 2.617.39 4.867-1.893 6.972 0 .056-2.227.579 1.025 2.328 0 .066-.545-.078-1.314.467-1.392.067 2.317 3.843-.111 4.177.936.078-.557-.078-1.326.468-1.404.467 1.415.768.602 1.403 0 .868 2.005 5.746-1.18 7.907.936.1-.356 0-.924.457-.936.144 1.716 1.982-.11 2.795.936-.278-1.214.189-1.682 1.392-1.403-2.071-4.778 2.528-10.547-1.86-13.02z"/><path opacity=".6" d="M38.441 52.854c-2.127 9.79-1.626 20.047-3.72 31.184-.668 3.575-2.227 8.609-4.176 11.137-.557.69-1.838.68-2.328 1.392-.701 1.002-1.325 3.152-3.263 4.188-2.584 1.381-9.266 3.007-11.137 2.784-2.483-.29-4.32-2.662-6.983-2.784-4.421-6.939-11.26-16.962-7.93-25.048 1.727-.3 4.634.602 5.57-.467 1.024 5.256.835 6.225 1.87 12.551.067.546.847.401 1.392.468.769 4.544 2.328 5.468 4.645 8.832 1.904-1.504 7.963 1.113 7.918-2.317 4.377.256 6.682-6.159 6.972-9.767 4.32-4.455 1.782-10.447 2.795-15.815.754-2.885.913-5.894.468-8.842.367.089.457.467.924.467-1.993-10.558-.969-21.16-.924-29.301.178-1.114-2.127.256-1.403-1.403-6.571.289-5.97-.68-11.137 0-.624-4.511 1.214-3.72 1.86-6.972.868 2.394 7.795-.39 7.907 1.392 3.775-3.341 8.742 1.113 12.551-2.328 2.083 2.094 3.843.58 5.569 1.86-.346 2.227.523 3.196.456 5.123-2.951.557-3.564.156-6.047-.468-2.907 2.228-1.114 6.237-1.392 11.137-.167 2.606-2.629 6.126-.925 10.703-.679-.78-2.082 2.74.468 2.294zm106.982.468c8.621 2.138 16.205.512 22.33 2.328a1.485 1.485 0 00-.06 1.89c.141.181.321.327.528.426-1.058 1.893-2.45 3.453-3.252 5.569-1.225-1.203-.368.757-1.871.478-2.584 4.611-7.328 4.21-8.832 9.768-1.492-1.114-1.292 2.494-3.252 2.316.334 4.02-.067 4.455-.468 7.907 6.259-.211 8.988.167 11.628-1.392 1.113 1.426.278.178 1.859 0-.055 1.114.568.791.468 0 3.341 2.473 9.032-1.336 8.375 4.188-.067.49-2.127.323-.935 1.86-3.163-.112-3.932 1.503-6.972.467-.769 2.44-1.994-.334-2.795 1.392-3.264-2.127-11.071 2.016-14.88-.467-.456 0-.367.568-.467.935-4.355-1.603-.88-6.838-1.86-9.31 2.405-2.027 4.054-7.317 6.047-11.137.624.735 3.765-2.874 1.86-3.252a6.86 6.86 0 003.72-3.731c-1.637-6.204-10.914-1.014-13.019-4.177 1.013-1.314.957-2.227.456-4.187.68-.423 1.805-.379 1.392-1.871zm-27.441 5.112c-.501 2.06.791 2.317.935 3.72-2.739 4.71-7.016 7.874-9.299 13.03-.936-.78-.601 0-1.86 0-1.938 3.798-6.248 7.128-4.187 11.137 5.178-1.77 13.186-.1 18.598-.468-1.202 2.584.156 4.3-.924 6.048.557-.913-2.539-1.838-.935 0-8.008-1.014-16.706 1.492-20.927 0-2.428-5.925 1.247-8.576 1.86-13.966 2.417-1.114 3.831-3.341 4.187-6.515 3.241-.88 3.342-3.107 4.188-5.569-2.071-4.555-10.324-.378-13.955-2.784a11.75 11.75 0 00-.467-4.655c3.274-2.105 16.816 2.082 22.786.022zm-39.069 1.86c-1.225 7.027 1.236 17.64-1.86 23.722 1.426 3.93-.412 6.804-2.327 9.767-3.341-.97-1.827-6.86-3.252-9.767-2.428 1.948-17.374 11.381-18.143 1.86-.278-3.464-4.009-6.327-3.252-12.563 1.738.88.836-6.682 2.785-5.569-1.214-3.174 2.55-3.552 2.795-6.515 1.66-.623 2.428.757 2.328-1.403 7.317 0 8.687 1.76 13.019 3.263.724-.2.4-1.47 1.86-.935-.824-2.228.668-1.259.468-3.72a5.324 5.324 0 015.58 1.86zM57.987 66.34c-5.758 3.174-6.081 13.944-.936 18.142 1.771 1.437 4.566.891 6.515 1.86.067-.546-.078-1.325.457-1.392 5.067-.223 4.299-4.12 5.569-7.45-.368-.1-.925 0-.936-.457 2.528-2.751-1.292-9.01-.468-11.627a46.015 46.015 0 00-6.971-2.796c-.067 1.927-.301.09-.925 0 .535 2.528-3.319.69-2.305 3.72z"/><path d="M122.236 119.053h1.604c2.695.356 2.617 3.341 4.455 4.455a15.63 15.63 0 002.628.846 5.566 5.566 0 012.539 1.782c1.192 1.804 1.114 6.114.29 8.375a29.673 29.673 0 01-1.882 2.829c-1.337 2.461-1.994 6.025-2.729 9.5a57.796 57.796 0 00-1.414 10.825c.173.97.108 1.967-.189 2.907-2.061.256-2.061-1.983-2.439-3.286-.88-2.984-1.593-5.68-2.74-8.753-.435-1.203-1.025-3.342-2.35-3.342-1.325 0-1.949 2.707-2.06 4.232-.156 2.016.078 4.311 0 6.594 0 1.403.078 5.234-1.415 5.167-.946 0-1.347-2.127-1.693-3.341-1.113-4.043-1.815-8.308-3.018-12.251-.768-2.517-2.038-4.844-2.817-7.339-.78-2.495-1.76-5.034-2.54-7.618v-1.804c.159-.643.379-1.27.657-1.871a8.209 8.209 0 017.251-4.455 8.551 8.551 0 001.871.089c.924-.211 1.915-1.737 2.828-2.349a8.803 8.803 0 013.163-1.192zm3.676 24.835c-.112-.724 1.525-1.046 1.882-1.314 1.882-1.403 1.459-3.642 2.227-6.214.212-.68 1.036-1.047 1.504-1.782 1.002-1.582 2.227-5.235 1.325-7.339-.847-1.938-3.742-1.303-5.457-2.54-1.348-.969-1.314-2.884-2.64-3.953a4.623 4.623 0 00-4.8-.19c-1.18.713-1.726 2.696-3.007 3.108-1.57.501-2.662-.223-3.953-.19a5.563 5.563 0 00-5.179 4.333c-.2 1.972.163 3.961 1.047 5.735.456 1.225.846 2.506 1.314 3.675.935 2.35 2.985 3.754 3.664 6.204a.827.827 0 01-.935.378c1.648 3.13 2.361 7.729 2.817 12.039.156 1.437.078 3.007.847 4.143 1.704-3.341.233-9.555.846-14.021.323-2.361 3.987-2.562 5.457-1.114 1.849 1.816 2.105 7.406 2.64 10.536.178 1.058.178 2.417 1.113 2.817.78-.835.513-2.227.568-3.341.178-3.797.479-7.796.936-11.003-.602.089-2.094 1.036-2.228.033h.012z"/><path d="M116.2 124.51a9.095 9.095 0 013.675 1.793 6.58 6.58 0 015.079-1.704c-1.37.768-3.185 1.114-3.765 2.639 1.114 1.404 2.829 2.228 3.108 4.455-.412.089-.635-.467-.936-.746-1.024-.958-2.628-2.784-4.711-2.539a7.34 7.34 0 00-3.575 1.971c-.245.212-.512.646-.846.568.479-2.283 1.626-3.898 4.455-3.864-.234-1.437-1.571-1.782-2.484-2.573zM227.225 20.245c.601.768-.746 1.86-1.292 2.15-1.425.723-3.341 1.013-5.012 1.715-4.555 1.915-9.266 4.232-12.596 7.294a2.865 2.865 0 011.003-1.86c4.154-4.143 11.727-6.782 17.752-9.299h.145zm14.456 2.15c.545.579-.891 1.559-1.292 2.15-3.341 1.235-6.738 1.47-10.302 1.993-3.564.523-6.749 1.403-10.168 1.113.178-2.595 3.274-2.105 5.724-2.427a96.034 96.034 0 003.72-.58c4.054-.69 8.72-.601 12.173-2.227l.145-.022zm-5.847 10.157c0-1.315.88-1.682 1.57-2.284 5.747.569 10.502-2.227 14.601-4.298.167 0 .256 0 .289.144-1.258 2.618-4.878 3.642-8.163 4.867-2.673.991-5.725 1.994-8.297 1.57zm23.02-5.725c-2.372 5.568-11.015 6.96-17.318 7.45.534-2.427 2.896-2.104 5.568-2.583 3.921-.702 9.333-1.648 11.75-4.867zm3.575 4.722c.245 0 .267.111.29.29-1.615 1.97-2.985 4.165-5.435 5.29 1.236-2.328 3.82-3.32 5.145-5.58zm2.005 1.838c.245-.067.267.1.289.278-1.359 2.027-1.938 4.845-4.009 6.16 1.247-2.117 1.927-4.823 3.72-6.438zm-42.655 13.765a3.72 3.72 0 011.292.712c.579 0 .657-.39 1.002-.568.647.28 1.27.616 1.86 1.003.501.078.356-.502.857-.435a1.614 1.614 0 011.003.724c.445 0 .557-.4.857-.579 1.738 1.86 3.998 6.048 1.003 7.874-.524-.29-.089-.668-.29-1.28-.434-.112-.267.39-.713.278a4.559 4.559 0 01-.857-1.86c-1.003.434-1.214-.535-1.715-1.002-.624 0-.535.712-1.114.712-.59-.99-1.771-2.071-2.862-1.715-1.604-1.314-3.843-1.191-6.582-1.28-.657.289-1.259 1.269-2.294.712-.591 2.228-3.464.702-4.723 0 1.348-2.05 4.533-2.829 6.872-3.441 2.005.29 3.753-.568 5.724.579.412.067.346-.39.68-.434zm4.733 13.308a6.576 6.576 0 00-4.154-4.287c-.067.991-1.114 1.982-1.726 2.862.245.379 1.325-.078 1.581.29-.223.991-1.615.657-2.294.568a19.098 19.098 0 01-5.157-2.005 3.49 3.49 0 00.435-.713c.802.145 1.203.702 2.004.858a3.451 3.451 0 011.003-2.44c-1.515.168-3.776.168-5.157.87 0-.635.579-.758.713-1.292a15.746 15.746 0 015.301-.858c1.832-.2 3.685-.006 5.435.568 1.526.78 4.722 4.321 2.016 5.58zm-7.161-3.14c.067-.869 0-.98.145-1.726h-1.003a1.53 1.53 0 00.858 1.726zm31.774-2.15a15.133 15.133 0 015.568.146c.346.3-.122.634.145.857a2.884 2.884 0 011.715.145c.312.29 0 .568-.133.858 2.049.189 1.659 2.35 2.283 3.72a8.737 8.737 0 01-1.715 2.004c-.579-.768-1.849-1.56-1.715-2.573-.769-.434-1.894-.5-2.15-1.436-1.437 0-1.403-.09-2.862-.145-.245-.279 0-.178 0-.568-2.74.534-6.27-.357-8.453 1.114-.145 0-.089-.29-.278-.29-1.615.345-2.462 1.448-3.72 2.15-2.127 4.354-.29 9.844 2.138 12.74.189 1.582.791 2.038.579 4.143-1.425 3.976-7.116 4.655-10.168 2.729-2.918.646-4.689-1.894-6.871-1.292-3.776-1.37-2.406-6.916.434-8.308a9.743 9.743 0 01-1.114 2.004c0 1.205.391 2.377 1.114 3.341.802.825 1.849.412 3.341.858.913.278 1.715 1.114 2.428 1.292.713.178 1.637-.2 2.428 0 .838.39 1.701.725 2.584 1.002a9.658 9.658 0 004.154-.434c.1-1.114-.39-1.727-.579-2.862-1.727-2.662-3.219-5.48-3.141-8.91.1-5.223 3.642-9.066 8.297-10.591a9.842 9.842 0 015.568-2.283.786.786 0 01.123.59zm-40.082.569c0 .512-.479.479-.568.869.49-.134 1.047-.2 1.57-.29-.278 1.348-2.327.902-3.575 1.28.078-.823.947-.857 1.86-.857a6.224 6.224 0 00-2.428-.713c.179-1.581 2.061-.311 3.141-.29zm47.232 10.881a1.483 1.483 0 01-.713.857 9.55 9.55 0 00-1.86-.145c.234-1.414 1.348-.534 2.573-.713zm-1.86 1.436c0 .647-.468.992-1.002.713.167-.5.467-.969 1.002-.713zm-37.354 7.005c.134 0 .112.179.145.29-1.459 2.406-4.377 3.341-7.306 4.299a10.212 10.212 0 00-1.993 4.455c-.735-2.083 1.403-5.892 3.43-6.582.334-.112.78 0 1.114-.145 1.681-.457 3.385-1.882 4.61-2.317zm-13.163 5.736c.234 0 .267.1.278.278-1.114 1.404 0 3.564-.145 5.012-1.726-.835-.891-3.887-.133-5.29zm37.787 8.72c.156 1.114-3.207 1.448-4.455 1.437-5.1 0-8.631-1.56-12.885-2.573-4.589-1.114-9.656-1.648-11.727-4.455-.112-.39.278-.29.278-.568 1.002 0 1.648 1.025 2.584 1.57 2.539 1.482 6.092 1.883 9.734 2.718 5.457 1.28 10.268 3.798 16.471 1.871zm2.284-5.579c3.641 1.703 1.882 7.896-.568 9.444a29.57 29.57 0 011.425-4.722c-.445-1.303-1.882-3.297-.857-4.722zm-8.153 8.308c-1.96 2.316-6.482.947-9.734.278-3.252-.668-6.336-1.77-7.45-3.575.2-.133.289-.378.434-.568a8.188 8.188 0 012.294 1.715c4.544 1.626 9.801 3.642 14.456 2.15zm-10.591 9.444a7.801 7.801 0 01-1.414 3.72c-.969-1.091-.546-4.655 1.414-3.72zm-41.653 77.291c2.696.345 4.054.546 6.861.713-1.036 4.02-.435 9.956-4.856 11.883 0-2.595.98-5.179.568-7.44-1.515-.189-2.161.457-3.007-.434-4.923-.512-9.233 1.615-13.743.858a.71.71 0 00-.423.434c-.256 0-.334-.245-.29-.579-3.174.846-11.582-.379-15.324-.134.434-2.227 2.015-3.23 3.441-4.455 2.717.145 8.787-.646 10.736.579 5.045-.467 10.859.179 16.037-1.425zm17.463 5.435c.502-.123.145.378 0 .434 1.593.557 2.384-.356 3.431.29 2.984 1.815.423 6.682-1.716 7.439a3.43 3.43 0 01-4.454-3.864c-1.114-.68-3.007-.39-5.001 0 .635-2.528 3.842-2.907 5.869-2.573.747-.457 1.147-1.292 1.871-1.726zm-.868 2.862a3.489 3.489 0 001.271 2.386 3.5 3.5 0 002.593.766c-.167-2.406-1.904-3.675-3.864-3.152z"/><path d="M130.322 271.719a22.273 22.273 0 014.722-9.879c4.611-6.136 11.137-10.624 17.173-14.879 1.036-.735 2.061-1.47 3.152-2.149 1.091-.68 2.35-1.114 3.43-1.86 2.228-1.448 4.243-2.985 6.449-4.299 4.5-2.505 8.848-5.276 13.019-8.297-3.898 1.114-7.997 1.114-11.594 2.149-3.842 1.114-7.651 2.406-11.449 3.575a46.062 46.062 0 01-11.593 1.86c-4.043.178-7.897 1.281-11.594 1.437a43.078 43.078 0 01-9.299-.869c-.123-.624-.657-.189-.724-.278a43.443 43.443 0 01-4.143-3.341c-1.114-1.003-2.551-1.805-3.865-2.863-1.481-1.915-2.428-2.661-3.152-5.434a10.447 10.447 0 01-.289-2.005 70.52 70.52 0 01.857-13.175 87.89 87.89 0 014.722-17.029c2.863-7.796 7.006-16.215 10.169-23.9 1.113-2.684 2.027-5.379 3.151-8.018 2.339-5.48 4.455-11.026 6.582-16.316 4.366-10.914 10.491-20.047 19.033-26.729 4.311-3.341 8.554-7.038 13.888-8.731.334-3.464 4.021-4.377 6.582-6.159 5.012-3.486 9.489-8.442 14.478-11.449a70.575 70.575 0 011.259-7.562c.534-2.528.824-5.48 1.715-7.595.345-.825 1.693-1.549 1.86-2.428a11.04 11.04 0 00-.423-2.584 14.786 14.786 0 00-.435-2.996 2.726 2.726 0 01-4.009-.29c-.902-1.113-1.002-2.928-1.114-4.298-1.113-3.04-3.853-7.451-2.862-11.137a7.484 7.484 0 013.152-4.155 8.597 8.597 0 013.285-.568c-.401-6.414-1.347-13.62 1.582-19.322a31.402 31.402 0 014.009-5.569 26.641 26.641 0 015.012-4.733 71.85 71.85 0 0121.305-9.188c4.031-1.036 8.464-.568 12.741-.434 1.981.136 3.944.472 5.858 1.002 1.904.34 3.769.87 5.568 1.582 1.114.545 2.072 1.414 3.141 1.993.59.334 1.114.668 1.726 1.014.613.345.913.656 1.281.857.448.205.88.443 1.292.713 1.971 1.38 3.586 2.862 5.435 4.299a53.151 53.151 0 004.588 5.29c.691 1.949 1.671 3.34 1.994 5.301.323 1.96-.223 3.586-.279 5.569 0 .89.256 1.781.279 2.717 0 1.114-.212 2.328-.134 3.441.267 1.414.408 2.85.423 4.288-.134 1.292-.601 2.717-.857 4.01-.947 4.777-1.938 8.23-4.01 11.738.345 0 1.114-.724 1.292 0-1.114 2.483-1.693 5.312-2.862 7.874-.512 1.113-1.437 2.026-1.86 3.14-1.114 3.018-1.548 6.092-2.584 8.91a43.908 43.908 0 01-4.12 7.34c-3.91 6.292-8.008 13.642-15.325 16.025-.512.167-1.503.101-1.57 1.003.2.412.657-.847.857-.424-.067 1.114-.289.925-.713 1.994 1.927.813 2.729 2.394 4.155 3.864.556.58 1.291 1.025 1.859 1.582 1.058 1.036 2.384 2.985 3.431 3.285.412.123.969-.245 1.436-.133.404.241.778.528 1.114.857 1.225 1.047 2.439 1.671 3.43 2.428a84.904 84.904 0 006.872 5.157c1.615 1.258 3.107 3.341 4.577 4.722.557.512 1.27.924 1.715 1.436.414.59.786 1.208 1.114 1.849 1.347 2.094 2.339 4.288 3.72 6.448 1.381 2.161 2.951 3.876 4.154 5.87.423.69.49 1.57.857 2.294 1.47 2.84 4.321 4.967 5.725 7.439 1.804 3.141 2.394 6.282 4.154 9.445 1.392-2.306 5.702-3.286 8.163-1.86.746-4.455 4.745-8.342 9.155-7.295 1.214-1.414 3.107-2.138 4.154-3.731-1.314-3.742 1.994-6.337 4.867-7.295 1.114.579 2.138-.1 3.43.145.59-.089 1.314-1.27 2.005-1.726 2.339-4.934-.646-8.219-3.43-10.157-4.511-1.793-8.91-3.887-13.309-5.869-3.23-1.437-6.883-2.684-9.745-4.455a11.552 11.552 0 00-3.43-1.726c-2.573-1.649-4.199-4.188-6.293-6.438-.902.691-1.603-.066-2.873-.434-2.339-1.893-3.954-4.533-6.682-6.003.078-1.013-1.292-1.748-1.726-2.728-.212-.98-1.727-1.515-1.716-2.718 0-1.982 3.954-3.263 4.723-5-.825-1.448-.769-3.152-1.437-4.878-.936-2.44-2.896-5.301.289-6.682 2.228 1.113 3.987 1.113 5.725 2.717 2.394 2.227 2.595 5.401 4.154 8.163 1.938 3.442 5.424 4.789 6.682 8.164 2.049 1.024 2.428 3.564 4.009 4.867.58.479 2.161.568 2.718.857.557.29.813.847 1.292 1.114.479.267 1.113.546 1.715.857 1.114.635 2.717 1.526 3.586 2.005 1.504.835 2.807 1.537 3.853 2.005a25.066 25.066 0 005.302 1.57c.701-.267 1.381-1.826 2.572-1.715.446 0 1.114.167 1.114 1.002a4.034 4.034 0 013.007-.289c2.227.39 3.987 1.904 5.869 3.007a51.86 51.86 0 015.869 4.009c3.664 4.455 9.2 12.251 8.297 19.468a7.913 7.913 0 01-.568 1.859c-1.314 3.197-4.009 5.346-8.018 6.148-2.228 5.079-6.059 8.442-10.447 11.315 1.983 3.186 1.604 6.527-1.002 8.732-.323.267-.969.345-1.002.857a72.16 72.16 0 012.004 7.585c.613 2.818.853 5.705.713 8.586-.301 2.729-1.682 5.313-2.428 8.019-.746 2.706-1.436 5.568-2.294 8.163-.368.513.624-.846.579 0-.579 1.359-.256 2.718-.724 4.143-.312.969-1.18 1.749-1.57 2.718-.568 1.414-.936 3.185-1.437 4.867a90.957 90.957 0 01-3.998 11.738 13.934 13.934 0 00-1.114 2.149c.043.77.136 1.537.279 2.295a77.668 77.668 0 01-.568 8.007 45.664 45.664 0 01-2.862 10.591c-2.573 7.184-6.616 12.251-9.879 18.61h-10.736c-.423-1.113-1.114-1.982-1.426-3.151-1.18-.513-1.225-1.326-2.004-2.139a12.5 12.5 0 01-3.586-2.439c-.613 0-.802-.1-1.426-.712-.468.657-.401 0-.857-.145a10.082 10.082 0 01-3.865-.713c-1.336.267-2.807.757-3.731 0-.757.668-1.682.301-2.706.29-1.905 0-3.876.813-5.869 1.28a65.328 65.328 0 00-11.316 3.865c-1.982.846-4.131 1.236-5.869 2.005-.345.155-.991.757-1.57 1.002-.69.233-1.36.52-2.005.857h-8.52c2.027-2.027 5.569-3.452 8.732-4.866 3.809-1.693 7.283-2.907 11.593-4.578 4.366-1.191 9.155-3.397 12.741-3.575.535-.456 1.415-.222 2.005-.434.323 0 .156.412.423.434 3.62-.824 7.05-.156 10.591-.868v.434c1.671-.189 2.562.735 3.865.434-.089.791.379.134.869.279 1.035 1.236 2.539.735 3.285 2.294.735-.713.223.768 1.114.289a3.071 3.071 0 001.86 2.139 66.2 66.2 0 003.719 7.74c6.627-7.796 9.901-19.178 13.454-29.636.379-.144.39-.657.713-.857a22.575 22.575 0 00-.424-6.304c-.423-3.809-1.258-8.029-1.113-11.872-.68.223-.902.914-1.571 1.114.223 2.227-1.614 4.132-.712 6.437-1.114 3.341-.29 6.326-.724 10.157-.112 1.036-.646 1.86-.858 3.007-.245 1.337-.089 2.706-.434 4.009-.123.49-.557.847-.713 1.292a33.533 33.533 0 01-2.862 7.017 15.232 15.232 0 01-4.867 5.435c.479-3.976 1.76-7.652 1.86-12.251-.657-1.114-1.548-1.114-2.573-1.86-1.281 2.16-2.684 4.945-4.722 5.858-.212-1.904.757-4.121 0-6.003-.534-1.325-4.02-.145-5.446.145-3.174.635-7.339 1.37-10.302 1.86-1.57.256-2.494.412-4.287.857a21.88 21.88 0 00-3.876 1.003c-.145 0-.089-.29-.278-.29-3.91.835-9.467 2.885-14.601 4.455-13.799 5.156-26.729 10.168-39.503 16.705h-15.447c2.528-2.773 7.317-4.521 10.87-6.437 4.388-2.35 11.582-4.633 16.46-7.016 2.328-1.114 4.154-2.227 6.304-3.152 7.628-3.452 16.516-7.451 25.336-8.731 1.916-2.228 4.555-1.927 7.44-2.862.267-.078.456-.323.713-.424 1.191-.49 2.617-.434 3.731-.857 1.859-.713 4.332-1.37 6.437-2.15a20.804 20.804 0 005.869-2.717c4.455-.223 7.985-2.049 12.017-3.731a69.067 69.067 0 0010.591-3.853 13.11 13.11 0 012.729-5.012c-3.341 1.247-6.315 2.818-9.879 3.864-.902.257-1.982 0-2.717.858-.301-.49-.735 0-1.114-.29-3.341 1.448-6.047.479-8.453 1.86-8.709 1.214-16.104 4.321-25.615 6.449-.167 0-.123.256-.145.423a45.306 45.306 0 00-8.731 2.294c-.223.1-.357.089-.424.423-.189 0-.233-.245-.434-.289a3.002 3.002 0 01-2.149.724c-2.105 1.202-3.72.891-5.29 2.004-4.099.858-7.963 3.631-11.884 5.29-5.034 2.139-9.912 3.653-14.6 6.449a65.67 65.67 0 00-8.587 4.143 21.923 21.923 0 00-6.159 2.862c-.234 0-.245-.134-.423-.145-5.936 3.564-13.364 5.691-18.465 10.023h-14.345c2.417-5.29 8.186-7.873 12.596-10.736a11.44 11.44 0 014.01-5.145 25.039 25.039 0 012.428-.869c1.793-.79 3.686-2.294 5.869-2.717a4.206 4.206 0 012.294.145c2.294-1.181 4.277-2.684 6.682-3.72a15.058 15.058 0 017.863-7.016c1.392-.579 2.962-.546 4.455-1.003a50.413 50.413 0 005.29-2.428c1.726-.801 3.452-1.67 5.012-2.572 3.341-1.938 6.86-3.497 9.733-5.012.49-.267 1.426-.2 1.582-1.002-1.738-.223-3.453-1.994-4.867-2.584a21.024 21.024 0 01-2.584 2.584c-3.508 1.837-7.451 4.611-11.449 6.682-2.795 1.47-5.68 2.818-8.586 4.577-.568.346-1.114.568-1.715.858-2.417 1.247-4.956 2.428-7.306 3.864a8.726 8.726 0 00-3.431 1.437c-3.341 2.227-6.86 4.522-10.457 6.872-2.606 1.704-5.112 3.497-7.718 5.29-.925.635-1.905.891-2.862 1.425-.958.535-1.793 1.526-2.729 2.15-.935.623-1.659.69-2.428 1.113-.768.424-1.47 1.225-2.294 1.715a248.064 248.064 0 00-7.295 4.589c.178.458.178.967 0 1.425h-5.101c.268-1.347-1.47-2.394-1.425-3.719 0-1.114 2.161-3.03 3.341-4.154 2.807-2.796 5.479-3.921 8.442-6.293 4.087-3.263 8.698-5.702 13.364-8.731 6.783-4.455 13.821-9.344 21.328-12.451a32.021 32.021 0 017.729-4.155c4.455-2.873 9.388-4.666 13.598-7.439-3.564-.846-5.925-3.241-10.602-2.584a7.798 7.798 0 01-2.139 2.005.936.936 0 01-.857 0c-2.851 2.138-6.17 2.65-9.311 4.154 0-.223.067-.546-.145-.568-9.388 4.811-17.563 10.87-26.907 15.737a55.846 55.846 0 01-8.297 5.568c-2.784 1.715-5.345 3.853-8.018 5.724-5.402 3.776-10.837 7.663-10.736 15.459-.401.267-.323 1.013-.568 1.425l-2.985.045zm71.566-237.586c-.389-.423.301-1.025.568-1.437a27.954 27.954 0 018.309-8.731c-1.782 2.728-4.923 4.198-6.594 7.306-1.67 3.107-2.505 6.749-3.719 10.157 1.96-1.96 3.842-4.756 5.869-6.148-2.784 4.165-6.794 7.016-9.3 11.471a13.225 13.225 0 01-.857 4.722c.356.902-.145 2.228-.145 3.341 0 1.749.234 3.475.145 5.29a61.252 61.252 0 00.423 13.376c.98 6.058.969 11.003 2.718 15.458 2.227 3.341 4.388 7.54 7.873 9.155 0 .557.747.312.724.868 4.455 2.128 7.919 5.146 12.307 7.295a25.62 25.62 0 008.152 1.749c5.569-1.548 11.338-2.005 15.748-5.146 2.773-1.982 4.722-6.103 6.871-9.31a44.553 44.553 0 005.569-10.736 108.402 108.402 0 003.341-12.875c.924-4.454 2.873-8.698 3.575-12.74.646-3.665-.089-7.518-.423-11.739-.234-2.929-.847-6.404 1.57-6.871.123 4.766.924 10.324 1.002 15.458.279-1.637 1.036-3.163 1.003-5.012 0-1.114-.524-2.283-.568-3.43-.045-1.147.156-2.316.133-3.441 0-.947-.323-1.916-.278-2.863.234-1.418.376-2.85.423-4.287-.2-2.228-1.203-3.575-2.005-5.569a48.156 48.156 0 00-12.629-11.493c-1.737-1.058-3.753-1.67-5.29-3.152a56.552 56.552 0 00-18.187-2.717c-3.513.164-6.983.84-10.301 2.004a84.741 84.741 0 00-8.298 3.442c-2.873 1.202-5.334 2.95-7.873 4.154-3.431 3.074-6.404 6.025-7.44 11.448a33.032 33.032 0 00-.434 9.3c-.178-1.77.434-3.943 1.86-4.288-.179 2.383 0 4.355-.29 6.682 1.247-2.439.457-6.905 3.152-7.873a34.62 34.62 0 00-1.114 7.729c2.083-3.03 2.996-7.217 4.589-10.736.356-.112-.257-.112-.179.189zm-13.887 17.886c-.78 2.829 0 4.655.712 7.016 2.517 2.595 1.17 9.01 5.446 9.444-.1-1.96.145-5.501.29-7.873-.256-.078-.602.423-.724 0 .713-.769-.29-3.008.724-2.863-.49-1.392.211-3.463 0-4.577a2.119 2.119 0 01-1.437 1.292c-1.102-1.348-2.606-3.731-5.011-2.44zm75.575 9.878a25.102 25.102 0 002.005-7.294c0-.112-.123-.178-.29-.145-.356 2.595-1.548 5.123-1.715 7.44zm-2.717 9.59c.412-2.161 1.815-3.342 2.005-5.725-.535.457-.401.713-1.003.568-.145 1.815-1.036 3.642-1.002 5.156zm-67.847 13.019a26.177 26.177 0 00-1.002 4.878c-.423 2.74-1.114 4.71-.29 6.682a42.172 42.172 0 005.569 9.6 15.75 15.75 0 002.283 3.575 31.822 31.822 0 002.74 3.218 17.677 17.677 0 012.439 2.005 73.413 73.413 0 006.158 7.005c1.782.223 1.671.279 3.286.435 6.27-3.754 13.542-6.493 19.89-10.168.602-1.526.401-2.306 1.292-3.72-2.873.512-5.735 1.904-8.731 2.004-8.308.29-14.356-5.679-21.038-9.009-.423-1.014-1.403-1.114-2.149-1.727-3.754-2.973-7.262-10.023-7.874-15.881-.134-1.336.39-2.684-.423-3.865.2 2.373-1.526 3.542-2.15 4.968zm-4.299 10.736c-4.945 2.528-8.13 6.983-12.596 10.023a58.93 58.93 0 00-5.29 3.575c.223.523-.122 1.114.435 1.437-.891 1.292-.769 3.029-1.014 4.866-.289 2.228-1.002 4.567-1.425 6.872-.903 4.911-1.582 10.112-2.439 14.478 6.526 0 11.404 2.361 18.465 2.862-2.551 3.887-5.313 7.574-8.153 11.137 2.428 1.047 4.455 3.531 7.162 4.722 2.138 2.362 4.8 3.464 6.86 6.003a90.224 90.224 0 0118.187 14.323c-2.15-10.815-5.658-19.345-8.164-30.07-1.269-3.241-2.227-7.64-3.152-11.026-1.325 1.114-3.441 1.581-5.011 2.573-1.114.712-1.849 2.227-3.007 2.004 1.047-7.005 1.57-13.364 2.294-20.603 0-.457-.412.356-.423-.145a51.159 51.159 0 00-2.15-6.593 33.85 33.85 0 01-2.149-5.29 6.578 6.578 0 01.29-2.573c.434-2.751.278-6.314 1.57-8.598l-.29.023zm17.897 26.06c-2.227-2.227-3.697-5.178-6.582-6.682-3.519-4.744-7.484-9.633-9.588-15.325.089 1.382-.836 1.749-1.292 2.584-.791 3.163 1.303 5.257 2.427 8.297.669 1.782.791 3.765 1.727 5.302.1-.335.423-.435.712-.58 3.743 2.473 8.81 4.411 12.596 6.404zm65.553-15.168c.546 0 .379.768.857.846a18.175 18.175 0 017.162-4.455 6.417 6.417 0 00-1.292-2.004c-1.66 2.461-4.199 4.031-6.727 5.613zm-.279-4.455c.502.133.813-1.114.568-.858-.245.256-.601.368-.568.869v-.011zm-2.149 1.114c.735-.168 1.247-1.326 1.281-1.716-.245.791-1.381.658-1.281 1.76v-.044zm4.143 4.866c.635.335.913 1.114 1.726 1.571.579-1.76 2.462-2.974 3.007-4.299-1.314 1.214-3.285 1.726-4.733 2.773v-.045zm8.731 4.622c-.2.167-.824 1.114-.568.858 1.448-1.114 2.462-2.695 4.155-3.575a6.049 6.049 0 00-1.727-2.584c-1.57 1.537-2.06 2.695-1.86 5.301zm-6.682-3.007c.268.791.925 1.114 1.437 1.715.245-.523.713-1.57.434-2.149-.178.367-.98.835-1.113.724-.056-.457.723-.791.423-1.002a1.92 1.92 0 01-1.181.712zm14.478 11.304c4.845 3.987 11.872 4.778 17.185 8.587a44.453 44.453 0 018.297 3.441c.256.145.323.591.434.713.112.123.969.401 1.114.579 3.553 3.575 1.437 9.689-1.426 13.019 4.455 1.56 7.34 4.143 12.307 4.154 2.016-4.844.891-10.379-1.281-14.311a25.635 25.635 0 00-1.726-2.149c-.089-.145.1-.445 0-.579-1.036-1.337-2.762-2.862-3.865-4.143a20.247 20.247 0 00-6.437-4.867c-.056-.568-.802-.445-.858-1.002a10.49 10.49 0 01-3.586-1.437c-1.681.067-2.873-.713-3.998-1.002 0 0 0 .323-.145.289a28.283 28.283 0 01-8.219-3.72c-.211-.144-.445.067-.568 0-.122-.066-.145-.478-.289-.568-.368-.256-.947-.434-1.426-.723a32.036 32.036 0 00-6.303-3.152 31.211 31.211 0 00-2.863-3.998c-1.113 1.692-3.341 2.338-4.287 4.143 2.372 2.238 3.976 5.568 7.874 6.726h.066zm-60.039-.323c1.448-.334 2.305-.445 3.719-.857-2.16 5.034-4.376 11.137-6.147 16.605a9.71 9.71 0 01-3.152 4.711c-1.114-1.815-3.207-2.695-4.577-4.288-.346 1.671-2.762 3.03-1.715 4.722-.435.747-1.482 2.74-2.15 1.86-2.884 6.181-5.847 12.251-8.731 18.465 1.113 2.595 1.993 6.894 3.007 9.589 5.435-3.953 12.685-6.103 19.746-8.441-1.27-6.683-5.157-10.024-7.44-16.461a4.755 4.755 0 012.005-2.294c5.646 2.517 11.716 3.697 17.028 5.568.279-9.288 2.551-18.454 3.865-27.063-3.152-2.672-5.858-4.633-8.297-8.297-.858 0-1.426-1.113-2.439-1.715-1.281 2.874-3.531 5.502-4.722 7.896zm-14.167 1.86c.112 1.047-.345 1.404 0 2.15 3.832-2.083 8.13-3.085 12.741-4.154.134.267-.434.478 0 .568a25.506 25.506 0 004.722-7.585c-5.245 3.497-11.738 5.769-17.463 9.066v-.045zm-53.535-5.568a.868.868 0 00-.568.133 62.154 62.154 0 00-9.444 6.449c-6.215 4.844-9.768 11.894-12.886 19.601-.134.323-.312.735-.434 1.002-.501 1.192-.813 2.361-1.281 3.586-1.325 3.408-3.341 6.816-4.577 10.024-.368.946-.346 2.027-1.114 2.728-1.804 7.184-5.791 13.431-8.453 20.325-1.403 3.62-2.851 7.262-4.143 11.015-.858 1.247-1.114 3.14-1.86 4.455-.534 3.341-1.949 6.682-2.584 10.156a94.271 94.271 0 00-1.002 10.447c-.29 5.079.702 7.796 3.152 10.458.289.312.668.156 1.113.568.446.412 1.003 1.871 1.426 1.113.212 1.114 1.314.49 1.292 1.715 1.114-.334.835 1.114 1.715.568.245.947 1.27 1.114 1.726 1.86 0-.111 0-.278.134-.278 1.359 1.949 3.72 1.481 5.568 2.294 0-.178 0-.412.134-.434 1.303.958 3.62-.056 5.012.568 1.436-.769 3.263-.067 4.867-1.003 4.287-.189 8.297-.723 12.172-.712.055-.166.151-.315.279-.435 3.909-.289 8.72-1.96 12.317-3.43 4.689-1.437 8.353-1.704 12.451-2.862 1.192.256 2.228-.49 3.342-.29-.468-2.127.545-4.009.712-6.147.346-4.533-.969-9.556-.434-14.601-2.305.78-3.809.334-5.435.568-.223-.156-.301-.468-.713-.434-3.586 0-6.381-.346-9.6.434-8.753-.278-14.834 1.693-23.187 1.86-2.907 3.23-3.508 7.885-7.295 10.168-.234-1.515 1.448-3.063 2.428-4.722a31.98 31.98 0 012.562-3.943c-2.439.724-5.469 1.404-7.596 3.007-.623.468-.935 1.515-1.86 1.426 1.571-3.341 4.455-5.401 7.451-7.295-.29-.534-.512-.635-.858-.145-.356-1.202-1.425-.79-2.294-1.436a9.278 9.278 0 014.01-4.578 47.333 47.333 0 014.866 2.44 84.921 84.921 0 013.575-11.739c.847-2.383 2.105-4.767 2.573-7.161.535-2.673 2.227-5.457 4.299-6.014a30.536 30.536 0 00-.434 8.019 135.258 135.258 0 00-1.426 17.173c4.343-.568 10.435-1.671 14.745-1.426 0-.3.379-.289.568-.434 4.288.368 9.133-.869 13.031.434a5.945 5.945 0 012.717-.144 2.038 2.038 0 011.86-.568c-.512 1.113-.156 2.717-.289 4.454 2.227-.133 3.341.335 4.866.145-.144.145-.289 1.014 0 1.114 6.627.913 14.233-2.294 19.902-5.569.557-6.593 1.526-13.063.423-19.89-.3-.479-.534.545-.712.144-2.573-4.454-7.028-7.005-10.302-10.736-.757 0-.846-.512-1.292-.857-.445-.345-.702-.357-1.002-.579-1.682-1.225-3.007-2.339-5.012-3.72-.568-.39-2.394-.947-2.573-1.86-.512 0-.69-.356-1.113-.434-4.099-4.31-9.188-6.905-13.599-10.725 2.807-3.542 5.569-7.094 8.164-10.881-6.326-.29-12.529-2.784-18.321-2.862 1.359-7.674 3.052-16.338 4.288-24.769.078 0 .167-.111 0-.145-1.537 1.303-4.443 1.359-6.047 2.84v-.033zm33.5 4.855c.735-.167.846-.957 1.57-1.113 0 .401.68.88.858.278-.913-.512-2.139-.724-3.007-1.281a6.26 6.26 0 01.579 2.15v-.034zm118.23-.133c.446 0 .613.289 1.003 0-.29 0-.19-.39-.579-.29 0 .268-.401.112-.424.323v-.033zm1.571.568a37.215 37.215 0 017.439 5.568c.657 1.303 2.228 1.693 2.573 3.341 2.974 2.785 5.223 7.908 5.301 13.365 0 2.706-1.225 4.789-2.004 7.161a8.84 8.84 0 005.301-2.149c1.481-7.618-2.15-12.875-5.157-17.463-1.949-1.727-3.007-4.344-5.724-5.29 0-.546-.524-.535-.568-1.014-3.118-1.047-4.555-3.341-7.596-3.575.179-.033.413-.078.49.089l-.055-.033zm-84.586 1.759a6.752 6.752 0 01.724-1.859c-.835.245-.791 1.236-.724 1.859zm12.028 27.052c-.568.223-1.036 2.105-2.005 2.15 0 0-1.113-.613-1.291-.713a10.775 10.775 0 00-3.141-1.114c-1.927-.479-4.065-1.448-6.014-2.004a24.571 24.571 0 01-4.299-1.292 25.985 25.985 0 002.862 5.301c1.326 2.227 1.938 5.09 2.862 8.163.925 3.074-4.276 3.909-6.871 4.722-1.693.524-3.341 1.359-5.145 2.005-2.172.78-10.024 3.118-9.589 5.435a62.349 62.349 0 011.715 8.731 57.297 57.297 0 010 9.3c-.089 1.047-.513 2.038-.579 3.007-.134 2.105.167 3.853-.713 5.869a25.493 25.493 0 019.021-3.152c1.515-3.152 3.775-3.686 7.15-4.722.635.479.568 1.626 1.114 2.15.501.278.779-.702 1.581-.568 1.244.025 2.486.118 3.72.278.2 0 .456-.29.568-.278.701.055 1.826.323 2.728.423.245 0 .691.1.847.145 2.294.657 5.457.801 7.595 1.715.357.534.267 1.113.423 1.581a88.294 88.294 0 019.021-5.012c2.885-2.75 6.683-4.599 9.589-7.305.401.122.368-.201.713-.145 5.101-4.344 11.516-7.373 17.318-11.015-1.047-.1-1.559-.724-2.428-1.002a6.505 6.505 0 012.15-2.149 5.036 5.036 0 01.712-2.428c-1.525-2.306-1.904-5.736-3.574-7.874-.201-.301.066-.423-.145-.858a66.434 66.434 0 01-7.585-10.881c-1.035-2.472-3.073-4.343-4.454-6.682-1.749-3.04-2.896-6.682-6.014-8.442-.212-.969-1.203-1.191-1.994-2.004-.468-.479-.624-1.192-1.013-1.582-.067-.067-.446-.178-.568-.278-.902-.724-1.749-1.248-2.573-1.86-.824-.613-1.86-1.804-2.584-2.294-.356-.245-.813-.179-1.113-.435-.301-.256-.201-.646-.424-.857a19.178 19.178 0 00-3.575-2.005 230.808 230.808 0 00-4.009 27.965l.011.011zm-29.647-25.492c.457 0 .502-.357.58-.713h-.435c.123.412-.2.379-.145.713zm-21.895 10.313c.691-1.938.869-4.377 2.005-5.87-.635-1.459-.368-3.207-1.003-4.454-.389 3.508-.813 6.927-1.002 10.324zm23.9-9.021c.401-.513 1.348-.468 1.582-1.114-.78.011-1.894.49-1.56 1.114h-.022zm-11.727 2.439c.946-.869 3.029-1.359 3.14-2.573a10.367 10.367 0 00-3.14 2.573zm16.026-1.86c1.225-.067 2.227.234 3.152-.579-1.203.111-2.283-.078-3.152.579zm-20.047 1.86a4.739 4.739 0 002.863-1.437c-.813.445-2.384.824-2.852 1.437h-.011zm22.464 1.002c1.503-.891 3.341-1.426 4.733-2.439a5.022 5.022 0 00-4.744 2.439h.011zm-15.882 4.009c-.512-1.247.847-3.831.29-5.568-1.114 2.962-4.945 3.174-7.306 4.867 1.036 2.372 1.214 4.889 2.149 7.161 1.337-2.372 3.921-4.221 4.878-6.46h-.011zm1.86-3.441c0 .59-.245.824 0 1.114.279-.335.991-.245 1.437-.435 0-.512.356-1.436.134-1.715-.413.546-1.003 1.069-1.56 1.036h-.011zm-7.161-.423a10.711 10.711 0 00-2.428 1.715 12.274 12.274 0 003.152-1.86c-.145.156-.512.078-.713.145h-.011zm12.596 2.572a1.162 1.162 0 01-.568.568c1.192 2.339 3.341 3.698 4.154 6.449.902-.902 1.582-2.807 2.15-3.575-1.526-.936-3.575-2.428-5.725-3.442h-.011zm-6.148.858c-1.804 2.74-4.176 4.9-6.014 7.584 2.228 6.181 3.408 12.741 5.725 18.61 2.973-5.568 5.334-11.839 8.442-17.318-1.281-3.341-3.943-5.223-5.435-8.308-.067-.446.2-.557.289-.858a11.053 11.053 0 00-2.995.29h-.012zm100.055 15.748c-.2 1.369.657 2.049.58 2.862.868-1.181 2.327-1.782 3.151-3.007-1.08-.29-2.606-.858-3.731.145zm5.157-.145c-.691.178-1.894 1.604-2.718 2.227-2.227 1.816-3.552 3.063-5.568 4.733a31.133 31.133 0 00-2.862 2.284c-1.359 1.492-2.406 3.641-4.455 4.009.857.134 4.121-.479 5.568.145 4.555-4.221 9.734-7.796 14.478-11.884-1.458-.367-2.862-1.926-4.443-1.514zm7.016 2.862a3.008 3.008 0 01-.837 3.266 3.024 3.024 0 01-1.023.599 6.692 6.692 0 01-1.726-3.342c-4.188 3.542-8.798 6.683-12.73 10.458a20.054 20.054 0 016.003 2.428 84.552 84.552 0 016.304-5.724c2.172-1.738 4.455-3.787 7.295-3.152.4.701 1.024 1.113 1.436 1.86.813-1.571 2.116-3.419 2.428-5.012a20.186 20.186 0 01-7.15-1.381zm-.289 6.582a32.877 32.877 0 00-9.445 7.306 9.279 9.279 0 012.863 2.428c2.572-3.252 6.281-5.368 9.299-8.153-.535-.679-1.815-1.971-2.717-1.581zm-24.19 4.065c-.145 0-1.114 1.448-.145.713.969-.735 3.029-3.341 4.455-3.998-1.537-.379-2.862.623-4.299 1.113-.26.7-.264 1.469-.011 2.172zm12.596 4.154c-4.455-2.227-9.934-4.455-14.601-1.57 4.455-.223 9.745 2.762 14.033 4.577-.668 2.005-1.693 1.225-3.152.568-.713-.323-1.448-.345-2.005-.568-2.372-.98-5.858-3.129-8.909-3.152-.829.096-1.643.287-2.428.568-1.025.212-2.227.112-3.007 1.114a5.98 5.98 0 001.57 0c3.197 1.637 7.006 1.938 10.313 3.341a16.013 16.013 0 002.862 2.005 5.37 5.37 0 01-1.436 1.57c-2.172-1.938-6.293-3.475-10.157-4.455-.691-.178-1.559 0-2.294-.144-.468-.112-.891-.502-1.292-.58a5.834 5.834 0 00-5.29 2.295c2.795.701 5.679 2.383 8.731 2.717a27.101 27.101 0 014.143.29c2.94.857 5.457 3.909 6.448 6.871-.234.724-.545.735 0 1.281-.724 1.804-2.316 1.114-3.864.434a34.085 34.085 0 01-4.01-2.149c-1.314-.802-2.461-2.105-3.719-2.573-1.749-.657-3.586-.512-5.725-.713 1.96 2.105 5.123 4.088 7.729 6.003.401-.256.635-.679 1.281-.713.089.658-.345.802-.423 1.292 1.559.936 3.464 1.571 4.722 2.428a22.554 22.554 0 001.715 4.01c-2.016 3.185-1.347 9.689-1.437 13.598 2.384 4.199 9.667 5.357 14.178 3.864a78.042 78.042 0 002.428-7.584c1.203-4.833 3.619-9.466 2.584-14.89-1.304-6.682-2.829-15.592-8.309-19.323-.434-.1-.267.401-.712.29a.537.537 0 00.178-.372.51.51 0 00-.145-.386v.056zm-22.898.145c.056.947-1.459 1.782-.579 2.862a22.581 22.581 0 005.012-3.441 7.268 7.268 0 00-4.433.523v.056zm28.054 1.715c.702 1.526 1.437 3.04 2.15 4.577a2.713 2.713 0 011.993-1.28 16.189 16.189 0 00-1.715-5.302 16.926 16.926 0 01-2.428 1.949v.056zm-18.61 8.442c-3.898-.557-7.651-.824-11.137-2.294-2.906 4.588-8.341 6.281-13.03 9.165-6.036 3.709-12.039 8.364-17.752 12.452-4.344 3.107-10.024 5.123-14.022 8.308a42.6 42.6 0 005.569 1.715c3.174-3.341 7.573-5.569 11.593-8.019 3.108-1.882 6.037-4.087 9.01-6.159 5.992-4.154 12.028-8.174 18.187-12.016.245-1.27 1.036-3.007 2.428-3.341 2.042-.13 4.089.162 6.014.857a15.749 15.749 0 013.441 2.15 24.94 24.94 0 005.012 2.717c-.969-2.673-3.297-3.976-5.313-5.591v.056zm-10.88 4.009c-1.482 2.417-4.054 3.609-6.582 5.157-6.605 4.031-13.209 8.809-19.323 13.164-1.749 1.247-3.508 2.316-5.157 3.575a9.521 9.521 0 00-3.151 1.859c-1.181.635-2.551 1.114-3.286 2.15 1.203.323 2.874.501 3.152 1.437.334 1.113-1.114 2.684-2.149 3.14-2.462 1.114-6.092.368-7.874 0-1.203 2.005-3.497 2.907-5.569 4.01 1.871 2.416 5.569 2.984 7.15 5.724 14.824-13.52 34.28-22.408 49.237-35.783-2.383-1.303-4.143-3.163-6.482-4.488l.034.055zm7.873 5.725c0-.089 0-.167-.144-.145-.265.352-.551.686-.858 1.002-1.893 1.648-4.31 2.918-6.437 4.577a203.03 203.03 0 01-19.468 14.033c-1.581 3.675-4.777 4.756-7.729 6.872-1.258.891-3.129 1.949-3.575 2.717-.445.769-.156 1.526-.289 2.294-.212 1.114-.836 1.938-.858 2.996 14.478-9.856 26.941-21.717 41.931-31.05.29-.679 1.114-.791 1.437-1.437a21.795 21.795 0 00-4.01-1.915v.056zm-6.292 29.268c1.114.757.936 2.55 1.114 4.009 1.292-.189 1.837 0 2.862-.29a41.422 41.422 0 006.326-14.856c1.559-1.114.824-3.486 1.002-6.148.267-4.02 1.726-7.362-.289-9.311-4.455 5.469-11.772 8.175-16.706 13.176a44.846 44.846 0 002.428 5.724 9.355 9.355 0 001.715 4.288c-.479.601.624 1.492 1.002 2.439.279.679-.111 1.258.579 1.57 0-.379-.601-.913-.033-.601zm-138.99-12.741c.746-.1 1.559-.078 2.439-.145-.089-4.455.757-7.573.858-12.028-1.504 3.876-2.217 9.11-3.297 12.195v-.022zm77.436-7.729c1.058 2.573 3.241 4.009 4.154 6.682.245-.512.813-.713 1.114-1.114-1.37-.701-1.281-2.472-2.863-2.862a8.994 8.994 0 00-1.581-3.007c-.267.412-.568.112-.824.323v-.022zm7.45 2.005a4.093 4.093 0 001.715 2.283 10.04 10.04 0 013.865.144c1.938-.545 4.032 0 6.003-1.002a97.144 97.144 0 00-12.307-2.138c0 .49.58.401.724.735v-.022zm-7.161 5.724c-.267-.479-.289-1.114-.568-1.57-.122-.179-.635-.212-.724-.29-.801-.78-.757-1.849-1.715-2.584-1.86 1.604-4.455 1.058-6.682 1.715-.434.134-1.114.401-1.57.58-2.038.924-4.21 2.16-6.304 3.341-2.094 1.18-4.132 2.65-6.437 3.285-1.114.323-1.715.713-2.584.858a54.344 54.344 0 01-7.729 1.291c.446 2.996-.546 7.796-.278 10.881a1.01 1.01 0 01.857-.579c3.687 1.114 10.113-.824 14.311-1.281 1.916.747 4.065.624 5.87 1.571.189.1.211.479.434.568.223.089.557-.089.857 0 .301.089.635.59 1.003.724 2.227.813 5.045.512 7.295.289a18.23 18.23 0 0012.161 6.582c-.534-1.113-2.506-2.06-4.009-2.717-2.072-1.548-4.644-2.617-5.435-5.446.991-.98 1.47-2.896 2.862-3.007a12.21 12.21 0 013.441 1.292c1.114.545 2.094 1.492 3.007 1.715 1.448 1.113 2.584 2.572 4.455 3.341.446.1.178-.501.713-.29.078.446-.312.557 0 .858 1.659.245 2.005.869 3.72.713.189-.847-.446-.88-.423-1.571-.457.078-.635.424-1.114.435.078-.457.423-.635.434-1.114-1.815-2.773-5.635-3.53-7.729-6.014-.456-.067-.512.256-1.002.145.278-.268 0-.524 0-.858a20.582 20.582 0 01-5.012-3.152c.969-1.392.49-3.53 2.138-4.154 1.003-.367 2.84.19 4.155.29 2.583.178 5.29.145 7.016.713.512-.101.768-.468 1.292-.568a.91.91 0 01-.145.712c2.562.58 4.989 1.114 7.584.145-.768-1.392-3.875-2.294-5.011-1.57v-.579c-2.439-.167-4.912-2.228-7.295-1.86-.356-.167.345-.59-.29-.568-2.717-.98-7.617-1.247-10.301-.145-.179-.958-.758-1.225-1.248-2.105v-.022zm6.159-.145a19.356 19.356 0 016.582.713 3.19 3.19 0 001.002-1.114c-2.428.468-5.112-.49-7.551.423l-.033-.022zm48.658 11.137c-.624.201-.39-.468-.424-.857-.167 0-.412 0-.434-.134.212-1.426-1.481-3.341-1.425-5.012-.769-.133-.357-1.258-1.003-2.004.089-.735 1.036-1.348.858-1.86-4.221 3.419-8.13 7.139-12.886 10.023-.401 1.025-2.227 1.348-2.149 2.439a8.91 8.91 0 00.434 2.428c.302.937.54 1.893.713 2.862 0-.468-.134.368-.145.435-.245 1.113-1.826 1.971-2.428 3.341 4.177-1.292 7.507-2.384 11.137-3.341 3.074-.769 7.117-1.37 10.024-1.86-.123-.401.2-.368.144-.713-.623-.88-1.536-2.228-1.436-3.341-.412.145-1.337-1.704-.98-2.361v-.045zm-93.317-1.57c0 .924-.301 2.138-.29 3.341 0 1.882-.668 3.486-.713 5 0 .546.535 1.047 0 1.437.702.145 0 .813.568 1.437.735-.234 1.738-.178 2.295-.579 0-5.09 1.247-10.257 0-14.167.167-.445.523-.712.423-1.436-1.114-.078-1.849 0-2.718-.134-.222 1.047.29 1.214-.144 2.138.245 0 .367-.211.434 0-.546.947.111 1.827.145 3.007v-.044zm111.515-1.248c1.949.524 3.452 2.44 5.869 2.729a15.044 15.044 0 008.308-1.437c.167-.835.88-1.882.713-2.572-3.854 2.65-10.157 1.715-14.167-.579-.055.857-.512 1.225-.723 1.859zm-69.128-1.28c-.22.464-.413.94-.579 1.425 1.704.936 3.252 2.005 4.867 3.007a43.783 43.783 0 014.878-3.719c-3.519-.19-5.925-.312-9.188-.713h.022zm67.936 4.009c-.446 1.982-2.049 3.586-2.15 5.435 2.373-1.192 4.745-1.559 6.872-3.43-1.426.1-3.118-1.348-4.644-2.005h-.078zm8.442 6.003c.1 1.86-.256 6.771.568 7.451 0 0 .055-.212.145-.145-.212 1.114.467 1.67.144 3.007a85.912 85.912 0 005.157-16.037c-1.738 1.28-4.6 1.837-6.872 2.149.412.156.279.869.713 1.002-.757 1.114.312 1.804-.29 2.439.212.023.446-.033.468.134h-.033zm-54.249 4.455c-1.926 3.463-4.287 6.504-8.731 7.439 0-.523-1.537-.256-2.294-.423-.546-.134-1.036-.824-1.426-.29 0-.612-.468-.3-1.002-.568-.123-.556-.59-.746-1.002-1.002.334.835-.958 1.949-1.716 2.573-1.358-.49-2.873-1.003-4.866-1.715.055 5.056-4.455 9.656-9.311 11.593a8.484 8.484 0 00-3.72.279c-.078-.579-.813-.1-1.113-.279-.112-.066 0-.356-.145-.434-.501-.189-.847.067-1.281-.29-.134-.1 0-.59-.145-.712-.145-.123-.568-.123-.713-.29-.367-.379 0-1.114-.723-1.114a49.902 49.902 0 01-5.146 2.863c0 .445-.1 1.047.145 1.28-1.904 3.197-5.346 7.072-9.021 8.91-1.671.813-3.642 1.503-5.156 1.114-.279 0-.179.389-.568.289-.268-.367-1.214 0-1.292-.579-.323.635-.947-.423-1.114-1.114-1.392 1.025-2.673 1.348-3.998 2.295-2.161 5.435-7.161 8.72-12.028 10.591-.401-.579-1.559-.234-2.15-.278-.278-.279-.857-1.281-1.291-1.114-1.827.557-5.859 3.452-7.585 4.577.468.735 1.526.869 1.582 2.005.278 0 .278-.201.423-.29-.323.624.301.991.579 1.437 1.114-1.325 3.196-1.76 4.455-3.007 4.722-1.582 8.408-4.934 13.453-6.872a9.613 9.613 0 014.01-1.86c8.441-4.454 18.465-9.833 27.051-14.311a1.49 1.49 0 001.292-.579c3.23-1.013 5.569-2.906 8.732-4.009 2.918-2.227 6.003-2.684 9.01-4.455 7.361-3.14 14.277-5.568 21.472-8.731a10.234 10.234 0 004.009-1.292c-.735-1.737-1.515-5.357-.713-7.295-2.606 1.893-5.19 3.854-7.929 5.647l-.034.011zm-16.605 2.004c.345-.512.869-.846 1.114-1.436-3.197-2.484-6.181-5.09-10.447-6.148 1.214 3.887 6.192 5.201 9.366 7.573l-.033.011zm8.731-3.441c.646 1.615-.879 1.994-1.113 3.152 1.259.466 2.55.839 3.864 1.114a24.52 24.52 0 012.718-2.863c0-2.038-.089-2.918-.279-5.011-1.938.991-3.274 2.572-5.156 3.597l-.034.011zm-54.571 2.005a2.694 2.694 0 011.726-.858.738.738 0 01.424-.423c.434-.145 1.046-.111 1.113-.579-.646.067-1.57.456-2.149.145-.089.657-1.08 1.28-1.047 1.704l-.067.011zm-27.842 36.473c3.419-2.773 7.628-4.766 11.137-7.439 11.649-7.339 22.942-15.024 34.78-22.185 3.509-1.927 8.71-4.176 11.739-6.582a48.657 48.657 0 01-5.157-.434c-2.929 3.575-7.283 5.646-11.304 7.729-4.02 2.082-7.796 3.931-11.593 5.869-2.328 1.203-4.388 2.84-6.582 3.865-10.781 5.045-19.746 12.529-29.781 18.041a21.446 21.446 0 01-5.568 3.999c.223 1.603 1.114 2.784 1.292 4.299a63.023 63.023 0 0111.037-7.162zm24.189-34.201c.802-.691 1.816-1.114 2.584-1.86-1.292-.446-2.472 1.158-2.584 1.871v-.011zm50.529 0c.312.211.701.345.857.712a10.324 10.324 0 001.727-2.004c-1.27-.724-2.094.434-2.584 1.303v-.011zm-1.003 1.57c-.412-.067-.445-.501-1.002-.423-.111.512.891.623 1.002.434v-.011zm-8.586 4.455c-2.428.245-5.012 1.982-7.306 3.43a7.003 7.003 0 007.74-.568c-.245-.345 0-1.381.134-2.149-.267-.58-.869-.056-.568-.713zm-24.045 12.161a2.434 2.434 0 00-.579-.423c-1.971 1.014-4.009 2.606-6.003 3.141 0 .189-.49.534-.145.579.479-.457.724 0 1.281.278 0-.1 0-.278.145-.278.062.162.161.307.289.423 1.704-.378 5.279-.724 6.872-2.717-.624-.579-1.548-1.27-1.86-1.003zm-25.047 14.601c.39.1.289-.29.568-.29.134.491.456.09.857.435 1.526-.858 4.333-1.214 4.578-2.862 0 .089-.602-.535-1.003-.58-1.358 1.37-3.931 1.604-5 3.297z"/><path d="M241.826 64.325c1.681-3.118 9.032-3.998 11.304-.991.757.991 2.394 3.686.145 4.143a8.483 8.483 0 00-2.584-3.72c-.98.546-1.314 1.738-2.283 2.294.479.234 1.247.179 1.715.424 0 .69-.78.556-1.003 1.002-2.227-.735-4.61-1.303-6.014-2.862h-1.113c.167-.368.434-.446-.167-.29zm4.855-1.114c.211.302.359.643.435 1.003.501-.1 1.325-.991.713-1.292-.056.39-1.081-.145-1.148.267v.023zm-3.998.713c1.27-.312 1.827.802 2.718 1.292-.078-.434.579-1.938.144-2.15-.99.137-1.954.418-2.862.836v.022zM106.344 114.52c1.047 1.114 1.837-.557 3.107-.434a2.017 2.017 0 011.43 1.053 2.026 2.026 0 01.051 1.775c-.601 2.016-3.586 2.985-6.159 2.406a5.4 5.4 0 01-2.316-6.059c.423-2.049 2.394-3.151 2.316-5.111-1.47-.145-1.47 2.383-2.717 2.806-3.697.167-3.185-4.577-1.459-6.393 2.417-2.539 8.486-1.447 9.533 2.228 1.092 3.842-2.483 5.179-3.786 7.729zm.334 1.871a2.073 2.073 0 01-1.76-2.005c.112-1.893 3.018-3.04 3.731-4.878 1.481-3.842-3.486-6.036-6.248-4.577-.913.501-2.829 3.831-.835 4.644 1.025-1.114 1.314-3.341 3.441-2.862.314.105.592.295.804.549.213.253.351.56.399.888.245 2.305-2.907 4.198-2.606 7.138a4.155 4.155 0 001.593 2.74c2.372.412 4.677-.367 4.332-2.472-.869-.245-1.66 1.002-2.885.835h.034zm-15.971 2.116c0 2.773.134 6.259 0 9.433.58 0 1.793-.167 1.771.679 0 1.114-3.753.913-5.825 1.002-1.258 0-2.918.78-3.051-.289-.1-.869 1.347-1.114 2.383-1.314-.312-6.148.357-13.12-.19-19.078-.89 0-2.316.49-2.227-.613.09-.746 2.027-.857 3.052-.846a25.554 25.554 0 014.455.312c3.597.779 6.515 3.942 5.769 7.395-.48 2.227-2.094 2.617-3.932 3.742-.378-.167-1.336-.201-2.205-.423zm-.078-1.337l1.615.145a36.2 36.2 0 00-.3-7.796c-.613-.122-.903-.501-1.704-.468.167 2.662 0 5.636.39 8.119zm-3.174 11.137c.802.19 1.192-.133 1.95 0-.146-3.552.389-7.651-.469-10.602.435-2.506-.122-5.747 0-8.609l-1.726-.156c.59 5.947-.2 13.142.245 19.312v.055zm6.26-11.393c3.04-.846 2.126-5.891-.301-6.682a51.97 51.97 0 01.3 6.682zm-12.608-5.434c-2.74 6.604-5.223 13.498-7.996 20.046 1.604.39 3.786-.278 3.642 1.571-.97.579-3.464-.546-4.711 0a18.294 18.294 0 00-6.003-.457c-.947 0-2.695.557-2.718-.457 0-1.392 4.066-.857 5.235-1.258.668-1.994 1.38-4.054 2.105-6.159.304-.664.507-1.37.601-2.094 0-.679-.969-1.626-1.526-2.294a24.03 24.03 0 01-3.73-7.406c-.98-.167-3.03 1.036-3.04-.278-.012-1.315 2.494-.591 3.207-1.56.857 1.225 4.154-.211 4.32 1.014.168 1.225-1.926.746-3.05.846a26.125 26.125 0 004.454 8.097c1.66-2.228 2.517-5.468 3.73-8.264.123-.256-.188-.869.224-1.203-.746-.323-3.085.669-3.341-.412-.257-1.08 2.728-1.113 4.454-1.113.992 0 5.67-.257 5.88.634.212.891-.846.925-1.737.747zm-3.697.066c-.97 4.177-3.04 7.017-4.087 11.137-.156.346-.646.279-.78.646-.913 2.651-1.782 5.38-2.695 8.052.69.112 1.114-.089 1.837.067 2.662-6.47 5.457-13.364 7.796-19.879a7.372 7.372 0 00-2.071-.023z"/><path d="M55.17 123.842c0 3.341-.146 6.815-.224 10.223 1.036-.345 2.083-.189 1.994.602-.122 1.113-2.717.635-4.065.746-2.227.189-5.569.958-5.836 0-.334-1.359 2.294-.88 3.174-1.114-.646-5.568-.089-12.184-.156-18.253-.356 0-1.113.456-1.414-.223 0-1.114 1.258-1.437 2.227-1.648a31.28 31.28 0 014.544-.357 28.76 28.76 0 013.341-.512c3.264.212 6.827 5.412 3.831 8.342a12.157 12.157 0 01-4.399 2.16 8.917 8.917 0 01-3.018.034zm4.287-2.061c1.481-.657 2.884-1.114 2.762-3.23a4.522 4.522 0 00-2.94-3.652 8.283 8.283 0 01.178 6.882zm-4.61-6.571c.278 2.228.122 4.901.356 7.206.857.512 1.447-.078 2.45 0-.078-.702.68-1.025.88-1.76a9.143 9.143 0 00-.334-5.156c-.914-.902-2.083-.379-3.353-.29zm-1.437 0c-.58.201-1.437.078-2.072.223.256 6.137-.457 13.064.212 18.866a16.938 16.938 0 012.071-.223c.111-6.47.434-13.086-.211-18.899v.033zm-6.337.925c-.078 4.31.066 9.433-.869 13.843a17.13 17.13 0 01-4.522.201c-.712-1.192-.055-3.52-.579-4.867-2.461 1.47-4.911 4.02-7.796 5.635-.467.256-1.537 1.236-2.138 1.036-.601-.201-.68-2.094-.757-2.94-.301-3.275-.535-6.783-.724-10.024-2.228-1.782 2.907-2.595 4.254-2.795 1.014 1.86.568 4.922 1.114 7.172 1.258-.378 2.55-1.682 3.809-2.417a31.758 31.758 0 012.071-5.624c1.648-.156 4.455.602 6.137.78zm-5.28.534c-.4 1.025-1.046 2.473-1.47 3.754a8.59 8.59 0 01-.322 1.303 11.728 11.728 0 01-2.762 2.105c-.624.423-2.44 1.971-3.13 1.759-.69-.211-.412-1.18-.423-2.082 0-1.794-.68-3.965-.59-5.803-.746.167-1.403.423-2.105.635.312 3.887.445 7.941.857 11.761 2.573-.914 5.034-3.475 7.451-5.257.735-.546 1.96-1.838 2.706-1.604.746.234.379 1.114.424 2.094.044.98.567 2.227.189 3.497.858.058 1.719.035 2.572-.067.49-4.065.324-7.584.658-11.515a39.002 39.002 0 01-4.054-.58zm-17.15 3.742a38.79 38.79 0 01-2.228 5.235 4.816 4.816 0 00-.768 1.67c.41 1.105 1.01 2.13 1.77 3.03.568.712 1.37 1.113 1.66 1.993.958.067 2.695-.668 2.717.457.023 1.125-1.76.712-3.151.935-1.058.178-2.484.702-3.252.735a24.08 24.08 0 00-3.085.123.478.478 0 00-.268-.334 1.235 1.235 0 011.248-1.326c-.379-1.303-1.46-2.038-2.072-3.151-1.28.746-1.815 2.394-2.227 4.198.612.078 1.303-.278 1.837.067.947 1.804-2.494 1.114-3.998 1.169-.78 0-2.005.568-3.14.735-.346 0-.724-.066-1.025 0-.869.19-2.962 1.471-2.985 0 0-.801 2.55-1.258 3.52-1.414 1.113-2.227 1.982-4.767 3.196-6.883-1.114-2.038-3.609-2.873-4.332-5.212-.758.178-2.562.624-2.529-.434 0-1.337 5.045-.635 5.814-1.927.947.925 5.012-1.314 5.212.178.2 1.493-2.695.724-3.508 1.315 1.002 1.57 2.75 2.528 3.72 4.131.946-1.113 1.592-2.672 2.506-3.864-.401 0-.847-.312-.858-.691 0-.701 1.114-.813 1.258-1.425 1.37.289 5.814-1.481 6.081-.368.212.902-.59.824-1.113 1.058zm-3.553 8.598c-.368-.568-.858-.824-.902-1.325a4.612 4.612 0 01.468-1.793 33.656 33.656 0 002.46-5.101c0-.089-.066-.134-.189-.123a6.998 6.998 0 01-1.358.279c-.59.991-1.359 2.049-2.228 3.586-.78 1.292-2.773 4.889-3.474 2.038-1.348-1.693-3.085-3.063-4.455-4.722-3.341.512-.2 2.172 1.392 3.82 1.18 1.225 2.64 3.04.724 3.241a24.272 24.272 0 00-2.44 5.312c.825-.078 1.727-.612 2.685-.167.098-.961.323-1.904.668-2.806.479-1.036 1.793-3.341 3.152-3.085.512.078 1.77 1.826 2.405 2.773.446.679.791 1.882 1.448 2.082.657.201 1.481-.345 2.228-.412-.958-.946-1.76-2.327-2.584-3.597zm54.37 12.741c1.404 1.67 1.293 4.855 1.593 7.628-.545.546-1.247-.467-1.27.958-.757-1.67.747-5.323-.322-7.317a15.893 15.893 0 00-2.228 7.306c-.646-.523-.59-1.737-1.581-1.915a19 19 0 013.809-6.66zm4.11 72.468c1.994-5.101 4.622-9.578 5.725-15.592.646 5.279-2.83 11.772-5.725 15.592zm-50.216-72.145c-.669 1.57-5.123 2.494-5.402 5.078-.212 1.704 2.094 3.653 2.54 5.09 1.392 4.455.634 10.535 2.227 16.204 3.185 11.36 3.864 28.522 5.078 39.414-.5 0-1.214-.145-1.27.323-2.728-13.632-4.521-34.469-5.724-48.635-.1-1.259-.646-1.827-.635-3.497.04-.742.04-1.486 0-2.228-.545-2.45-3.14-4.254-2.539-6.994.512-2.35 4.377-3.608 5.725-4.755z"/><path d="M73.234 212.949c-.958-.323-.557.713-.635 1.269-1.225-3.987-.557-10.145 0-14.3a100.563 100.563 0 01-5.101 12.775c-.501-.524.546-2.228.635-3.186-1.114 1.504-1.348 3.954-2.228 5.725 2.684-10.146 7.329-23.588 7.306-37.187 0-1.47.301-1.826-.312-2.55-.122-.535.245-.59.635-.635-1.314-4.455-.39-9.321-.958-13.364-7.795 13.598-12.072 31.117-12.707 51.486-.111 4.355-.668-2.829-.646-4.455-.367.056-.256.579-.312.958-.846-.69 0-2.116.958-1.269-1.036-1.471.368-2.116-.323-4.132h-1.27c-.222-1.248 1.114 0 1.593 0-.746-1.359-2.561-1.738 0-.958.646-1.27-.29-3.018.635-4.455 0-.958-2.361.446-1.916-.958.758 0 .947.546 1.916.323A104.7 104.7 0 0164 180.551c0-.612-1.114.368-1.916 0 0-1.113 1.337-1.002 2.55-.958 2.228-10.524 5.046-18.175 6.683-28.288h1.916c.089 1.114-.245 2.584.323 3.186 1.046-.657.679-2.718 2.227-2.863 1.28 7.106-2.44 16.817-1.905 25.738 1.114-.189.401-2.127.947-2.851-.256-1.114.479-1.815.323-.323.735 6.003-.534 12.563-1.27 18.12 1.682-3.92 2.473-8.754 3.81-13.03.902 0-.38 2.082.957 1.592-1.114.345-.345.791-1.28.947.211.323.734.334.634.958-.256-.067-.312-.323-.635-.323-.2 4.544-4.733 11.137-2.227 15.591-.568-.801-.535-.222-1.27-.634.156.467.468.802.635 1.269 1.214-1.848 1.793-4.577 2.54-7.629-.145-.478-.413.123-.958 0 2.873-2.539 1.514-6.615 3.185-7.951-.501.066-1.114-.813.312-.947-1.114.512-.992-1.749 0-1.27.768-.69-1.537-.991-1.593-1.915-.134-1.626.768-2.228.958-3.497.98.234.935-.546 1.904-.312.1-1.114 1.014-2.539 0-2.862 1.337-5.023 2.784-9.923 5.09-13.988-.056-3.62.735-10.302 4.766-13.666-.077-.4-.634-.323-.634 0-.847-.378.824-.835.958-1.269.456 2.829-4.756 6.682-.958 9.21 4.12.1 2.116-5.936 3.497-8.575.312 1.882 1.214 7.929-1.593 8.575 2.227 3.698-2.027 6.025-2.54 11.761-.344 3.786-.077 6.682-.634 10.814-.935-5.001-.579-9.422.312-15.592-.602.245-.212.947-.947.323-7.517 15.313-12.128 35.048-14.934 54.015-.613.79 0-.535 0-.958zm6.971-33.667c-.835-.758.134-2.395.323-3.186-1.66-.167-1.503 1.47-1.592 2.863.79-.435.98 1.236 1.27.323zM72.9 200.876c.947.201-.311.668 0 1.27.59 0 .669-.245.312-.635a1.45 1.45 0 01.958.312c.178-.702-.935-1.749-1.27-.947zm-59.807-54.671c4.188 8.319 6.805 20.124 8.91 28.599.323.435.523-.133.958.635-.279 1.882 1.503 3.341.635 4.767 4.11 9.555 5.69 21.661 8.263 32.743.245 2.082-.5 2.828-.312.323-5.635-16.828-9.956-34.982-14.945-52.456-.056-1.214.256-.111.957-.312-1.537-4.822-2.561-10.157-4.766-14.299 1.158-2.139 1.982-2.061.3 0zm-4.721 1.269c-.546 1.248-1.526 2.072-1.905 3.497 2.228 8.687 7.506 15.737 8.264 24.156.59.802.68.145 1.27.947 1.314 7.729 6.682 17.14 8.586 25.749.468 2.105.568 4.588 1.27 6.994 1.113 3.82 3.107 6.883.312 9.856 2.617-4.388-1.537-10.257-3.81-15.258-2.65-5.846-4.176-13.453-6.682-20.347-2.572-7.105-4.454-14.278-6.682-20.336-.39-1.036 1.025-.245.635-1.27-1.18-3.875-6.003-10.914-1.258-13.988zm-7.629 4.444c.824.846-.958 1.782-.947 2.862-.713-.735.78-1.949.947-2.862z"/><path d="M2.97 163.044c.323.211.334.735.957.635-.913-3.542-3.263-5.647-4.777-8.576 6.816 5.791 8.375 16.505 13.041 26.406 3.753 7.996 8.052 15.592 9.845 22.274.58 2.149.256 3.943 1.281 5.724.69 1.214 3.285 2.172 2.54 4.455-.335 1.014-.357-1.381-1.593-2.55a28.493 28.493 0 01-4.767-6.983c-3.063-6.148-5.29-13.665-8.264-20.693-2.973-7.027-6.058-13.865-8.263-20.692zm-10.491-7.629c-1.381 3.196.924 3.931 2.539 6.047 9.544 12.429 14.556 30.449 23.21 43.223-.123 3.43 2.026 6.682 4.131 8.91-.29 1.28.858 4.031.312 3.497-.991.646-.223-1.66-.635-2.863-1.035-3.029-4.31-5.323-6.036-8.263-3.63-6.17-6.615-13.598-10.168-20.659-3.553-7.061-7.796-13.755-10.18-20.66.725.346.569 1.56 1.281 1.905-.768-3.486-6.314-6.326-4.454-11.137zm114.433 12.396c-1.671 1.826-1.426-.145-2.551 2.227.29-.134.568-.279.635-.635.613.702-.824.802-1.269.958 1.258.646-2.128 1.982-2.54 4.455.847-.513 2.328-3.475 2.228-2.863a29.782 29.782 0 01-2.228 3.82c-.501-.111.279-.556-.323-.634-.868.712.089 1.113-.311 1.581-5.636 6.259-10.413 21.539-13.365 32.743-.534-11.137 4.165-24.501 8.91-29.246.089-.568-.3-.646-.312-.312 2.918-3.486 6.025-10.246 9.533-14.946-2.461-1.035-4.967-2.015-5.724-4.766 1.86 1.258 4.009 1.926 4.766 3.497.19-1.715 1.961-1.849 2.228-3.497-.524-2.228-4.332-.624-5.402-2.862 4.455 0 10.636 2.583 10.491 7.317 0 1.525-1.67 2.483-2.227 4.131-.846 2.484-.49 5.847-.635 8.91-.623 13.442-2.962 29.224-7.952 35.638 5.19-12.039 6.772-27.63 6.048-45.516zm-18.443 8.898c.713.145.134 1.57.323 2.227 1.748-1.47.991-3.474 1.27-6.348 1.113 2.228-.257 4.812 0 7.618-.769.134.178-1.448-.958-.947-.87 1.326-.379 2.573-.635 5.402-1.136-2.562.111-5.012 0-7.952zm-2.228 22.251c-1.537-1.247.19-4.666.635-7.628a26.41 26.41 0 01.958-5.402 28.324 28.324 0 01-1.904 11.761c1.057-1.181.2.055.311 1.269zm-34.636 9.534a308.063 308.063 0 01.947-36.229c.2-1.994 1.983-3.341 2.55-5.09 2.484-7.873-1.826-18.042 1.582-24.791 1.793 9.11-3.14 21.517 1.28 28.288-1.002 10.525.246 27.999-2.227 38.145a15.456 15.456 0 01-4.132-.323zm-14.01-69.918c.735 2.094-1.392 7.629 1.904 7.941 2.84-1.66-.601-5.235-.634-7.941 3.864 1.949 3.508 7.05 3.808 11.137.747 9.711 3.542 21.517 4.455 29.869.078-3.642-.913-8.753-1.592-13.364 3.597 12.184 5.178 30.983 1.27 43.857a179.167 179.167 0 00-6.683-53.402c-2.795 16.082-1.526 37.298.635 52.456-6.393-11.271-5.569-29.324-5.402-42.911 1.315 4.02.156 9.177 1.593 11.761-.223-6.582.646-16.272 0-22.274-.1-.858-.345-2.228-.958-2.228 1.036-4.265-.991-10.224 1.604-14.901zm-1.27 42.32c.39 0 .746.09.635.635 0 5.624.847-3.185 0-2.862.123 1.014.067 1.904-.612 2.183l-.023.044zm11.438 4.132c0 .412 0 2.295.323 1.27.234-2.15-.512-3.341-.323-5.402-.067-.256-.267-.378-.635-.323.146 1.481.365 2.953.657 4.411l-.022.044zm.657 12.073c-.111-.858.29-3.876-.312-3.174.112.802-.3 3.82.312 3.174zm112.005-59.528c.412 3.898 5.858 8.587 1.971 11.371-4.8 0-2.45-8.286-3.797-11.203-3.163 7.094.545 15.357-.312 21.75.868-.134 1.414 1.86 1.67 3.085 1.047 5.168 1.47 12.384 1.905 19.367h1.993a162.227 162.227 0 010-22.441c2.606 6.794 5.112 14.378 7.384 22.441h3.196c-2.528-9.388-5.468-19.701-7.016-28.833-1.002-5.847-1.158-13.242-6.994-15.537zm13.298 38.98c.423 1.76.891 3.564 1.347 5.379h.624c-.657-1.86-1.303-3.675-1.971-5.368v-.011zm-14.356 5.379h.88a20.309 20.309 0 00-1.192-4.031c.1 1.381.201 2.672.312 4.042v-.011z"/></g><defs><clipPath id="clip0"><path fill="#fff" d="M0 0h328v288H0z"/></clipPath></defs></svg>