<svg width="328" height="288" fill="none" xmlns="http://www.w3.org/2000/svg"><g clip-path="url(#clip0)" fill="#EE7D00"><path fill-rule="evenodd" clip-rule="evenodd" d="M187.085 94.209c.849 1.5 2.128-.148 3.456.295a2.226 2.226 0 01.922 3.37c-1.131 2.041-4.599 2.361-7.219 1.107a5.926 5.926 0 01-1.021-7.084c.947-2.103 3.333-2.817 3.69-4.92-1.525-.529-2.128 2.239-3.616 2.374-4.034-.713-2.325-5.695 0-7.232 3.222-2.152 9.507.492 9.728 4.698.271 4.39-3.911 4.969-5.94 7.392zm-.086 2.115a2.326 2.326 0 01-1.415-2.595c.591-2.017 3.998-2.558 5.203-4.354 2.533-3.775-2.288-7.379-5.621-6.444-1.107.307-3.972 3.444-2.017 4.796 1.366-.922 2.226-3.296 4.391-2.25a1.978 1.978 0 01.947 1.844c-.295 2.546-4.145 3.813-4.526 7.06a4.47 4.47 0 001.058 3.308c2.46 1.021 5.116.738 5.251-1.61-.873-.444-2.029.7-3.271.245zm-17.746-1.599c-.652 2.989-1.366 6.777-2.227 10.171.628.16 1.981.259 1.759 1.23-.295 1.23-4.28.074-6.53-.332-1.366-.258-3.333.123-3.21-1.045.098-.972 1.709-.861 2.877-.849 1.181-6.801 3.641-14.107 4.44-20.65-.971-.196-2.619 0-2.226-1.23.271-.799 2.398-.442 3.493-.172a27.23 27.23 0 014.76 1.415c3.689 1.71 6.075 5.83 4.427 9.371-1.045 2.227-2.89 2.313-5.141 3.075-.492-.258-1.512-.541-2.422-.984zm.233-1.463l1.722.553a39.74 39.74 0 001.562-8.486c-.64-.27-.849-.762-1.722-.91-.443 2.915-1.34 6.063-1.537 8.843h-.025zm-6.149 11.179c.824.394 1.328.136 2.103.443.713-3.862 2.287-8.142 2.078-11.536 1.07-2.595 1.23-6.223 2.054-9.273l-1.82-.59c-.726 6.64-3.321 14.192-4.341 20.993l-.074-.037zm9.605-10.675c3.468-.172 3.69-5.83 1.23-7.269a56.764 56.764 0 01-1.23 7.269zM160.643 84.8c-4.55 6.457-8.904 13.283-13.529 19.678 1.636.787 4.157.603 3.555 2.558-1.23.394-3.604-1.426-5.067-1.156a19.99 19.99 0 00-6.359-1.943c-1.033-.209-3.038 0-2.828-1.156.295-1.513 4.599 0 5.952-.086 1.205-1.993 2.435-4.042 3.69-6.15a8.495 8.495 0 001.156-2.115c.135-.738-.652-1.98-1.095-2.841a26.548 26.548 0 01-2.213-8.88c-1.021-.418-3.518.382-3.223-1.045.295-1.427 2.841 0 3.85-.886.615 1.525 4.513.775 4.403 2.128-.111 1.353-2.263.344-3.493.172a28.76 28.76 0 002.865 9.84c2.325-2.03 4.034-5.29 6.027-7.995.184-.258 0-.984.516-1.23-.713-.529-3.48 0-3.505-1.23-.024-1.23 3.198-.48 5.03-.147 1.083.184 6.15 1.094 6.15 2.115 0 1.021-.972.812-1.882.37zm-4.009-.824c-2.054 4.268-4.981 6.838-7.097 10.97-.246.345-.75.16-.984.517-1.635 2.644-3.222 5.362-4.845 8.019.713.295 1.23.184 1.955.516 4.428-6.321 9.114-13.085 13.197-19.542a8.61 8.61 0 00-2.226-.455v-.025z"/><path fill-rule="evenodd" clip-rule="evenodd" d="M129.699 91.872c-.799 3.603-1.808 7.305-2.718 10.958 1.23-.111 2.288.308 2.005 1.132-.394 1.143-3.075 0-4.563-.173-2.46-.356-6.26-.332-6.285-1.451 0-1.537 2.694-.381 3.69-.455.664-6.15 2.853-13.147 4.243-19.678-.381-.123-1.23.234-1.463-.603.258-1.23 1.697-1.23 2.767-1.23 1.657.134 3.301.393 4.919.775a30.74 30.74 0 013.69.246c3.468 1.034 6.051 7.49 2.115 9.925a13.526 13.526 0 01-5.264 1.23 9.843 9.843 0 01-3.136-.676zm5.129-1.23c1.746-.357 3.382-.553 3.689-2.816a4.999 4.999 0 00-2.287-4.65 9.198 9.198 0 01-1.414 7.515l.012-.049zm-3.395-8.203c-.246 2.46-1.045 5.313-1.352 7.846.799.763 1.586.283 2.644.615.074-.775.971-.947 1.365-1.685a9.994 9.994 0 00.885-5.633c-.762-1.155-2.14-.885-3.542-1.094v-.05zm-1.537-.332a18.76 18.76 0 01-2.275-.27c-1.23 6.677-3.69 13.983-4.354 20.39.768.035 1.532.121 2.288.259 1.685-6.912 3.628-13.996 4.341-20.38zm-6.149-8.757c-1.12 4.637-2.202 10.196-4.28 14.758a19.152 19.152 0 01-4.92-.885c-.467-1.451.799-3.8.554-5.387-3.001.996-6.261 3.148-9.753 4.194-.566.16-1.956.96-2.559.59-.602-.369-.221-2.46-.098-3.345.467-3.604 1.058-7.44 1.636-10.958-2.017-2.46 3.763-2.079 5.264-1.968.627 2.152-.603 5.387-.603 7.945 1.439-.098 3.136-1.23 4.686-1.685a34.482 34.482 0 013.579-5.584c1.857.246 4.673 1.734 6.494 2.325zm-5.805-.689c-.689 1.009-1.735 2.398-2.46 3.69a9.489 9.489 0 01-.664 1.316 12.647 12.647 0 01-3.469 1.599c-.787.307-3.111 1.537-3.812 1.143-.701-.393-.16-1.365 0-2.349.418-1.93.233-4.427.775-6.383-.849 0-1.624.099-2.46.16-.603 4.268-1.451 8.67-1.919 12.877 2.989-.357 6.26-2.521 9.298-3.862.923-.393 2.546-1.488 3.308-1.058.763.43.123 1.23 0 2.35-.123 1.119 0 2.594-.639 3.824.913.26 1.847.441 2.792.541 1.512-4.255 2.177-8.092 3.48-12.298a42.827 42.827 0 01-4.267-1.55h.037zM95.46 64.384a43.576 43.576 0 01-3.69 5.092c-.48.578-1.143 1.144-1.23 1.623a10.841 10.841 0 001.23 3.69c.443.91 1.23 1.562 1.304 2.558 1.02.295 3.075-.074 2.829 1.144s-2.079.344-3.69.246c-1.23-.074-2.84.16-3.69 0a29.918 29.918 0 00-3.357-.615.515.515 0 00-.21-.418 1.352 1.352 0 011.661-1.12c-.086-1.512-1.07-2.558-1.463-3.91-1.562.504-2.546 2.14-3.42 3.984.652.234 1.477 0 1.968.517.578 2.177-2.964.64-4.6.295-.836-.184-2.287.135-3.554 0-.38 0-.775-.233-1.107-.233-.984 0-3.554.86-3.21-.69.185-.86 3.038-.737 4.12-.676 1.76-2.09 3.284-4.649 5.105-6.641-.665-2.46-3.186-3.973-3.407-6.666-.849 0-2.903.062-2.608-1.082.37-1.427 5.584.54 6.728-.664.787 1.23 5.719-.197 5.571 1.45-.147 1.649-3.075.136-4.095.567.7 1.943 2.349 3.394 3.013 5.35 1.291-1.009 2.361-2.46 3.69-3.555-.43-.135-.85-.54-.763-.96.148-.75 1.402-.59 1.697-1.229 1.402.64 6.63-.197 6.642 1.082 0 1.009-.837.738-1.464.861zm-5.903 8.4c-.271-.7-.738-1.094-.652-1.635a5.288 5.288 0 01.934-1.833 37.102 37.102 0 003.85-4.92c0-.098-.061-.16-.184-.184a7.195 7.195 0 01-1.538 0c-.86.922-1.943 1.882-3.32 3.308-1.144 1.23-4.17 4.6-4.219 1.366-1.045-2.153-2.595-4.047-3.69-6.15-3.69-.258-.737 2.288.566 4.452.984 1.611 2.115 3.911 0 3.69a27.603 27.603 0 00-3.91 5.129c.91.123 2.016-.234 2.926.48.347-1.01.818-1.973 1.402-2.866.775-.997 2.73-3.112 4.145-2.57.541.22 1.476 2.459 1.919 3.59.32.837.406 2.214 1.057 2.583.652.37 1.685 0 2.46.086-.64-1.267-1.156-3.013-1.746-4.526z"/><path d="M15.37 72.341c.48-.688 1.734-.676 2.263-1.353 1.956-2.46 3.42-7.379 4.071-10.86 2.042-10.835 1.55-20.834 3.653-30.328-2.46.443-1.132-2.976-.455-2.263-1.66-4.44.738-7.871.898-10.405.32-4.796-1.476-8.72 1.352-10.86 2.46.603 3.026.997 5.892.455 0-1.869-.787-2.84-.455-4.92C30.89.579 29.182 2.03 27.153 0c-3.69 3.308-8.536-.996-12.213 2.263-.172-1.796-6.801.91-7.711-1.427-.628 3.173-2.46 2.46-1.808 6.79 5.054-.665 4.464.282 10.86 0-.714 1.61 1.524.282 1.352 1.364 0 7.884-1.033 18.24.91 28.509-.455 0-.54-.37-.91-.455.443 2.87.288 5.801-.455 8.609-.971 5.227 1.488 11.069-2.718 15.386-.283 3.517-2.521 9.753-6.776 9.507 0 3.357-5.842.787-7.7 2.263-2.25-3.272-3.775-4.182-4.525-8.61-.53-.073-1.23.074-1.353-.454-.996-6.15-.824-7.11-1.82-12.225-.91 1.045-3.752.172-5.424.454-3.247 7.933 3.419 17.686 7.748 24.438 2.583.123 4.366 2.46 6.789 2.718 1.845.21 8.338-1.377 10.86-2.718 1.82-.996 2.435-3.1 3.111-4.07zm39.061 1.39c1.39 2.829-.11 8.61 3.173 9.507 1.857-2.89 3.69-5.682 2.263-9.507 3.013-5.953.64-16.247 1.808-23.085a5.202 5.202 0 00-5.436-1.808c.21 2.46-1.23 1.415-.443 3.69-1.426-.517-1.107.701-1.82.898-4.218-1.452-5.547-3.186-12.668-3.161.111 2.09-.651.75-2.263 1.353-.295 2.89-3.898 3.271-2.718 6.334-1.894-1.046-1.008 6.272-2.705 5.436-.738 6.05 2.89 8.843 3.16 12.212.75 9.2 15.288.062 17.65-1.869zM41.345 56.574c-.984-2.951 2.767-1.156 2.263-3.628.603.099.849 1.882.91 0a44.433 44.433 0 016.777 2.718c-.8 2.558 2.915 8.61.455 11.315 0 .443.553.357.91.455-1.23 3.222-.516 7.023-5.436 7.232-.529.086-.381.836-.455 1.365-1.882-.947-4.612-.418-6.322-1.808-5.054-4.083-4.735-14.574.898-17.649zm11.5 205.955c-.099 1.156.418 1.697 1.414 1.771 0-.996.86-1.021 1.759-1.07-.283-2.189-2.079.074-3.21-.701h.037zm6.653-27.537c.066.142.116.29.148.443 1.685 6.666-.664 16.911 8.486 15.546 1.87-1.415 4.649-4.92.701-5.658-.221 1.316.664 3.69-1.058 3.53 0-.529.123-1.304-.356-1.402-1.464.344-.148 1.636-2.46 1.402.086-1.968-.357-.221-.701-.344-2.005-.701-.947-3.087-1.414-4.243-.296-.714-1.316-.308-1.058-1.058.074-.431.381-.221.7 0 .21-1.648-1.955-7.133 0-8.474 3.063.098 3.37-.381 6.36-.357-1.341-2.103-4.305.382-6.36 0-1.549-3.345 1.23-6.075.714-8.473-1.427-.111-1.734-1.341-2.46-2.128.677 1.107-.528 1.685-.7 2.829-.37 2.459.356 6.752-.357 8.129a2.47 2.47 0 01-.222.258h.037zm0 0c-.344-.762-.54.849 0 0zm35.076-50.425l.111-.356a.242.242 0 00-.16.142.251.251 0 00.012.214h.037zm-26-34.436a5.525 5.525 0 00-4.218 1.414 7.847 7.847 0 00-3.062-1.488c.762.652 1.87.947 2.041 2.189-2.324 0-3.283 1.316-3.69 3.223.271 0 .493-.296.702-.48a6.148 6.148 0 012.976-1.636c1.734-.209 3.062 1.316 3.911 2.116.258.233.443.688.787.615-.233-1.87-1.636-2.583-2.582-3.69.504-1.341 1.955-1.611 3.099-2.251l.037-.012zm7.823-129.137c3.53 2.337 11.56-1.722 13.528 2.706-.873 2.46-.922 4.575-4.083 5.436-.344 3.124-1.71 5.227-4.07 6.334-.591 5.214-4.17 7.797-1.809 13.528 4.096 1.452 12.57-.996 20.367 0-1.562-1.795 1.451-.898.898 0 1.058-1.71-.271-3.37.91-5.89-5.276.368-13.061-1.23-18.104.454-1.98-3.898 2.202-7.133 4.046-10.835 1.23 0 .91-.75 1.82 0 2.227-5.006 6.384-8.093 9.04-12.668-.135-1.365-1.39-1.623-.897-3.616-5.818 2.005-18.977-2.078-22.138 0 .455 1.463.61 3.002.455 4.526l.037.025zm60.879 21.732a6.648 6.648 0 01-3.69 3.616c1.857.369-1.23 3.874-1.808 3.16-1.931 3.69-3.542 8.892-5.891 10.86.959 2.46-2.46 7.503 1.82 9.052.099-.344 0-.885.443-.898 3.69 2.46 11.302-1.61 14.488.455.775-1.684 1.968 1.009 2.718-1.365 2.964 1.021 3.689-.553 6.776-.455-1.156-1.5.849-1.316.911-1.808.639-5.374-4.92-1.66-8.142-4.07.098.774-.517 1.119-.455 0-1.55.184-.738 1.39-1.808 0-2.571 1.524-5.215 1.143-11.315 1.352.394-3.296.775-3.788.455-7.687 1.906.173 1.722-3.382 3.173-2.262 1.451-5.4 6.063-5.006 8.609-9.507 1.464.283.627-1.624 1.82-.443a39.333 39.333 0 013.161-5.436 1.453 1.453 0 01-.455-2.263c-5.891-1.759-13.27-.185-21.719-2.263.393 1.451-.689 1.414-1.353 1.808.479 1.857.529 2.804-.455 4.07 2.066 3.112 11.081-1.955 12.717 4.084zM340.832 265.16a13.995 13.995 0 01-.283-6.272c-.221-.185-.209-.615-.418-.836.357-.333.209-1.452.148-2.227-.062-.774-.468-1.414-.418-1.807 0-.087.295 0 .27-.283-.086-1.23-.602-2.694-.688-4.034 0-.751-.234-1.316-.283-1.821-.222-2.213.147-5.608-.554-6.961a20.333 20.333 0 00-.553-6.149c-.345-1.759-.234-4.305-.701-6.408-.295-1.34-1.488-2.767-1.119-3.763a23.666 23.666 0 01-1.661-6.691c0-.295-.381.209-.418-.283a53.526 53.526 0 00-1.402-6.407c.209-4.674-1.562-8.892-1.39-13.787-.221-1.328-.947-2.829-.701-4.046a1.065 1.065 0 01-.418-.271c0-1.599-.689-2.632-.689-4.046-.381.098-.27-.283-.418-.418-.098-2.067-1.058-3.026-1.537-5.154a1.717 1.717 0 01-.972-1.807c-.246-.062-.356.209-.418 0-.16-1.562-1.427-2.362-1.82-4.182-.234 0-.357.209-.406 0 .221.098.221-.652 0-.554 0 .16 0 .32-.283.271 0-1.23-1.34-1.623-.971-2.46-.64-.098.209.394-.419.283a1.095 1.095 0 00-.984-1.39 22.33 22.33 0 00-2.927-5.436 9.264 9.264 0 00-5.977-3.21c-.135-.59-.861-.381-1.23-.971-.11.516-.307-.209-.688.283-1.034-1.587-3.051-2.546-4.92-3.481.172 0 .332 0 .283-.283-.529-.197-.271.382-.701.283-.431-.098-.086-.48-.271-.566-.873.283-1.795-.959-2.656-.688-.357-1.021-1.107-.775-2.226-1.402-1.624.455-3.038-1.156-5.289-.972-.332-.221-.369-.738-.565-1.107l-.406.418a17.809 17.809 0 01-3.346-3.689c-.442-.086-1.672-1.144-1.672-1.673-.259.418-.75-.086-.566-.553-1.796-.173-2.816-1.624-4.452-2.374-.135-.984-1.23-2.042-.984-3.345-1.39-.541-1.316-2.46-1.943-3.616.283 0 .27-.381.553-.418-.184.565.308.442.283.836.701-.283.787.258 1.107.689 1.5-.136 2.005.639 3.21 1.402.775-.148 1.574-.492 2.374.135 3.751-.492 10.724-1.906 9.47-8.08-.246-.086-.578.406-.701 0 0-.185.578-.418.147-.554-.184.185-.664.406-.701 0 0-.762-.479-2.177-1.525-2.238a5.445 5.445 0 001.525-4.317c2.46-4.919 6.457-8.769 6.974-14.488.086-1.045.221-2.091.27-3.198.099-2.545-.713-4.329-1.107-6.69-.984-.91-.467-1.956-.283-2.927 0-.148-.159-.283-.147-.554.086-1.34 1.094-2.791 1.119-3.898a6.396 6.396 0 00-1.673-4.182 7.617 7.617 0 01-.283-.971c-.319 0-.59-.148-.688-.419.418-4.993-.492-8.806-.984-12.827-.111-.984-1.23-2.017-1.39-3.063-.147-1.599 1.55-4.489 1.82-5.706a13.76 13.76 0 00-.147-2.374 8.343 8.343 0 00-.689-4.92 12.41 12.41 0 001.943-10.724 35.057 35.057 0 00-3.062-8.781c-.172-.32-.529-.283-.837-.554-.307-.27-.282-.602-.553-.836-1.23-.996-3.284-1.857-3.48-4.046a1.325 1.325 0 01-.566-1.39c-.837-3.382-3.751-4.698-5.99-6.69-1.845-.738-4.021-1.452-5.854-2.091-2.866-.984-5.805-2.239-8.769-3.063a37.095 37.095 0 00-11.708-.836c-.492 0-1.058-.32-1.525-.283a14.98 14.98 0 00-2.657.566 26.687 26.687 0 00-9.335 4.92 5.457 5.457 0 00-1.943 1.537c-1.636-1.66-3.198-3.346-5.436-4.047-3.69 3.825-6.395 8.745-9.47 13.234-3.468.812-7.502 1.414-10.171 2.927-2.005 1.144-3.21 2.374-5.436 2.927-3.149.775-5.313 4.354-6.408 7.244-2.164 5.731-1.23 10.503.701 15.189a1.751 1.751 0 01.972 1.107c-1.55 3.357-3.69 7.022-4.735 11.29-1.341 5.3-2.177 10.688 1.39 14.353.73 1.19 1.25 2.496 1.537 3.862.516 1.918 1.66 3.812 1.525 5.288a4.004 4.004 0 01-1.222 2.772 4.007 4.007 0 01-2.812 1.127c-1.685 1.426-3.419 2.804-3.763 5.571a5.287 5.287 0 005.571 1.23c-.098.381.283.283.283.566-1.464 2.238-2.817 7.563 1.525 7.096a6.689 6.689 0 003.087-1.943 5.818 5.818 0 01-2.804 1.23c-4.17.16-2.46-4.686-1.12-6.691.948-1.426 1.735-3.394 2.792-4.735.578-.738 1.415-1.082 1.808-1.955.222 0 .246.135.418.147-2.164 3.69-5.989 6.346-5.436 12.299 4.33.467 6.15-3.874 7.527-7.244 1.021.972-.27 3.579-1.23 5.018a8.637 8.637 0 01-1.525 1.636c.206-.166.439-.295.689-.382 1.23-.319 1.722.578 2.46 1.39.393.123.356-.197.701-.135-.123.627.32.701.418 1.119.418.098.406-.246.836-.147a20.607 20.607 0 002.362 5.017c.504 2.559 4.329 3.69 5.989 5.018 1.98.148 4.354 1.353 6.555.972a9.07 9.07 0 00.136 2.656c-1.23.898-1.722 2.14-2.792 2.915-.873.64-1.956.738-2.78 1.23a10.786 10.786 0 00-4.009 5.67 13.594 13.594 0 01-1.23 4.452 7.491 7.491 0 01-2.792 3.21c-1.636 1.23-3.087 1.98-4.464 3.062-1.378 1.083-2.054 2.558-3.333 3.899-1.464.197-3.911 1.697-5.719 1.537a16.128 16.128 0 00-10.024 9.47c-.861 2.559-.725 5.424-2.238 7.798-1.156 4.477-3.124 8.425-4.317 12.545-1.685 5.866-5.116 10.613-7.379 15.742a30.3 30.3 0 00-2.226 8.351 14.326 14.326 0 00-1.119 4.919 48.373 48.373 0 00-1.673 5.855c-.64 3.431-1.673 7.059-2.46 10.306a8.998 8.998 0 00-.283 2.792c-.319 1.414-.861 2.619-1.107 3.689-.295 1.353-.147 2.768-.418 4.182-.27 1.414-.688 2.816-.836 3.899-.258 1.894-1.033 3.603-1.39 5.436-.074.332.197.639.136.971-.246 1.39-1.095 2.706-1.39 4.047-.701 3.111-1.476 6.801-2.927 8.916-1.771-2.533-1.857-5.141-2.46-7.945-.959-4.12-.48-8.818-1.673-13.651-.787-3.973-1.033-7.835-1.672-11.844-.935.086-1.87.922-2.46.836.541-1.131-.922-1.98-.418-3.062l-.418-.418c0-1.808-.923-3.567-.554-5.572.701-3.8 3.788-6.961 4.92-11.069.135-.479 0-1.045.147-1.537 1.648-6.235 6.223-10.368 5.289-16.997-.64-.504-.345-1.119-.837-1.66 1.968-2.89 5.24-6.002 7.945-9.753 2.19-3.05 5.99-7.195 6.826-10.872.615-2.73-1.23-4.169-2.091-6.273-1.045-.405-2.558-1.611-3.48-1.672h-.135c.27.307-.234 0 0 0-.197-.222-1.046.393-.837-.271-4.858-.565-7.133 2.608-9.322 5.842a104.077 104.077 0 01-6.691 9.064c0 .259.16.308.136.554a55.372 55.372 0 00-3.616 5.436 8.363 8.363 0 00-4.047 2.46 33.298 33.298 0 00-6.69 10.023c-2.595 1.771-3.69 5.338-5.153 8.228-.48.935-1.39 1.66-1.119 2.927-1.034 1.427-2.288 2.62-3.198 4.169-.111 1.058.529 2.251.418 3.21.43-.233.664.861 1.23.418-1.488 2.313-3.69 7.22.553 8.081v.418a5.496 5.496 0 012.792 1.23c-1.586 3.074.959 6.887.418 10.306a2.892 2.892 0 00-.836-.27 7.526 7.526 0 00-5.153 4.169c-.578 1.23.75 2.669.27 3.763.173 0 .406 0 .419.148v1.045c.75.812.442 2.202.836 3.346.27.774 1.033 1.414.701 2.238.184.332.418-.258.553.135.136.394-.344.111-.27.418a15.927 15.927 0 011.611 4.379 3.898 3.898 0 01-1.194 1.406 3.896 3.896 0 01-1.709.697c-.934-1.525-3.259-1.685-5.3-2.116-1.464 1.636-2.706 3.05-4.231 3.53-1.919 4.12-3.235 8.732-7.773 9.839-2.066-4.6-1.894-7.207-2.128-13.418 2.694-.959 4.44.726 5.301-1.771-1.55.123-3.468.935-4.919-.701 1.389.209.418-1.943.701-2.829-2.841.259-2.017 2.116-2.116 3.887-.639.885-2.988.074-3.173 1.414 2.005 0 2.644-.59 3.53.701a7.502 7.502 0 01-5.645 6.715 4.142 4.142 0 004.587-1.771c-.307 1.144 1.23.492 1.058 1.415-1.624 7.096 6.395 10.048 8.83 3.542.123 1.008 2.325.898 3.174 2.115.381-1.906-1.489-1.574-2.116-2.46.209-.627-.43-2.078.357-2.127 0 .418 0 1.008.356 1.057-.516-2.619 1.046-3.185 2.116-4.23 1.513-.246 2.681 1.033 3.53.356 2.238 3.555-2.46 6.15-3.887 7.06 2.079.75 4.686-.886 5.658-2.829.356-.726.479-4.452 1.414-5.288 1.23-1.07 2.718-1.968 3.849-3.198.591 2.792.972 5.793 1.759 8.375 0 .283-.184.283-.283.419 1.23 3.037 1.648 8.006 2.792 10.589-.32.393.135.688-.135 1.119.775.615.689 2.091 1.107 3.062h5.854c.143-.429.332-.842.566-1.23-.664.443-.468-.934-1.402-.553-.16-.861-.775-1.23-1.23-1.82a6.567 6.567 0 00-1.279-3.186c.135 0 .16.111.27.136-.184-.443-.713-1.833-.406-1.808a116.745 116.745 0 01-2.791-11.979.966.966 0 00.282.418c.074-.492-.233-.615-.418-.836-.713-3.272-.873-5.707-1.672-9.065-.923-.282-.332-2.324-1.23-2.779-.357-2.017-1.71-4.206-1.538-5.854-.147-.32-.43-.492-.418-.972 3.161-.147 5.879-2.005 8.609-1.673 1.796-1.229 4.674-1.094 6.408-1.389 1.23.356 2.337-.431 3.198-.837.984 2.116.172 4.453 1.119 6.15-.197 2.656.972 4.809.972 7.662.159 0 .393 0 .418.148-.345.578.074 1.525-.136 2.078 0-.148.173-.098.136.148.479 3.689.16 7.268 1.23 10.589-.173 0-.332 0-.283.27 1.057 1.98 1.143 4.6 2.656 7.109 0-.221 0-.48.271-.418 0 1.008 1.759 0 1.955-.135a19.672 19.672 0 004.6-6.556c.086-.221-.086-.59 0-.836.308-.947 1.082-1.869 1.39-2.927.848-2.878 1.426-4.846 1.943-7.379.283-1.329.984-2.632 1.23-3.899.553-2.46.836-4.919 1.23-7.379.639-3.591 1.758-7.38 2.091-10.454.897-2.903 1.672-7.515 2.791-11.008 1.476-6.862 2.829-13.454 5.018-20.76 5.83-9.839 9.421-21.535 13.529-32.739a56.944 56.944 0 00.553 12.299c-.196-.16-.344-.148-.418.135.8.775 1.07 2.46 1.808 3.689 0-.135.246-.172.283 0a9.439 9.439 0 001.673 3.198c-.209 1.316.159 3.37-.419 4.92.505 1.586-.615 4.366.554 5.989-.185.295.074.418-.135.836.233 0 .356-.209.418 0a14.741 14.741 0 001.107 4.453c0-.099 0-.271.147-.271-.381 1.045.591 1.39.689 2.361.307 2.805-2.042 5.941-2.46 8.782-.258 4.612-2.25 8.006-2.46 11.979-1.832 7.527-3.394 16.628-5.989 23.269a59.024 59.024 0 01-3.198 10.589c-1.168 3.235-1.869 6.678-3.628 9.47-1.5 3.69-2.46 8.117-5.436 10.307a21.732 21.732 0 00-3.062 1.955h2.656c6.383-5.928 9.655-15.386 12.816-24.597 1.5-4.44 3.173-8.61 3.898-13.099a90.223 90.223 0 003.616-12.298c.16-.64 0-1.402.148-2.091.209-.898.811-1.734.971-2.644 0-.283-.172-.665-.135-.972.246-1.229.571-2.441.972-3.628.455-2.042.651-3.788 1.119-5.99.332-1.635 1.23-3.16 1.525-4.587.283-1.648-.099-2.829.836-4.182-.32 1.439.566 2.94.135 4.034 0-.073.123-.159.148 0a50.724 50.724 0 00-.984 6.15c-.664 1.131-.738 2.878-1.66 3.763.172 2.669-2.989 6.273-1.23 8.351v.701c.836.59 1.23 1.697 1.943 2.361a.616.616 0 01-.135.419 25.13 25.13 0 014.317 5.3c.578-.123.529.406.836.554.135 1.414 2.46 3.062 1.956 4.317 1.229 1.66.614 4.206 1.525 6.272.356.812.799 1.562 1.229 2.374-.159 0-.147.209-.135.406.836.418.431 1.414.972 1.537-.308.996.479 1.882.553 2.927 0-.16 0-.394.148-.418.732 2.723.965 5.557.688 8.363 0-.086.123-.16.148 0-.541 4.6 1.759 7.601 1.23 11.831.381 1.341.652 3.198 1.107 4.92 1.34-.148 4.034.32 4.464-.283-.295-.615-.209-2.115-.565-3.616 0-.16-.333-.147-.406-.418-.246-.812-.529-2.583-.148-2.091-1.008-1.562-.529-3.689-.701-5.436-.123-1.39-1.07-3.148-.689-3.628-1.451-2.681-.27-9.101-.971-12.397a4.2 4.2 0 01-.984-1.808s.307-.184.283-.283c-.357-1.771-1.685-3.689-1.808-4.919a19.589 19.589 0 01-1.673-5.707c0 .148.148.209.271.271-.591-.726-.554-3.752-1.23-2.928.393-.848-.726-2.349-1.525-2.927-.381-2.078-2.362-2.558-2.792-4.587-.763.123-1.095-1.168-1.808-1.537-.812-1.968-2.275-2.62-3.062-4.735.652-4.576 3.259-8.425 3.898-12.951.084-1.463.319-2.914.701-4.329a9.641 9.641 0 01-.147-2.78c-.234-.061-.357.209-.418 0 .283-.516-.246-1.426-.136-2.238-.651.135-.959-.984-1.537-1.66a6.487 6.487 0 00.283-1.538c-.504 0-.861.8-1.119.554-1.083-2.891-1.599-6.457-2.362-8.351a42.07 42.07 0 00.554-8.609c-1.009-2.558-3.407-4.785-3.764-8.216-.086-.812.173-1.734.148-2.644-.098-2.829-.824-5.99-.553-8.499 0 .099 0 .271-.148.271-.086-.492.16-.664.283-.972 3.8-.799 9.47-2.213 12.532-5.017 0 .319.824-.074.554.565.652-.602.75.209 1.119.418.369.21.357-.172.553-.147.64.098.874.996 1.23 1.23.652-.566.849.565 1.119.565 0 0 .173-.356.283-.282.111.073.369.639.136.553.369.123.307-.295.701-.271.415.145.793.38 1.106.689a.383.383 0 01.419-.27c2.177.836 4.526.332 6.407 1.229-1.746 5.412-5.657 8.61-7.662 13.8.111 0 .16.11.148.283.725.147 1.07.615 1.66.135.492.639 1.045.504 1.82.418.536.512 1.213.85 1.944.972-.074.356-.185.492.147.701 1.648.332 2.989 3.689 3.198 5.571 0-.111.123-.16.283-.135-.406.898 1.316 2.103.836 2.644.812.184 1.55 1.23 2.091 2.091.381 0 .283-.234.553 0 .935 1.488 3.8 2.619 4.182 4.181.443.148.369 0 .701.136.529 1.475 1.771 1.906 1.808 3.345.836.209.504 2.017 1.23 1.525.098.381-.283.283-.283.566.615.221.713.947.971 1.525a83.844 83.844 0 004.182 7.945c.246.369.713.553.972.971a56.643 56.643 0 013.062 5.99c.209.32.344-.172.43.147a23.83 23.83 0 002.645 4.735c.587 2.225.823 4.528.701 6.826.996 4.92.565 9.901 1.106 15.189 0 .16-.147.074-.282 0 .311 3.657.36 7.331.147 10.995-.074.504.492.345.418.837-.221 0-.221-.21-.283.147a10.39 10.39 0 00.542 3.911c-.197-.147-.332-.147-.419.148 1.476 7.748 2.46 16.234 5.301 23.822 1.068.08 2.142.03 3.198-.147a17.89 17.89 0 01-1.525-4.317 5.332 5.332 0 01-1.402-2.226 89.227 89.227 0 01-3.345-17.969 41.779 41.779 0 00-.578-6.69c-.099-.344-.382-.492-.419-.836-.209-2.226.468-4.563.566-6.826 0-.8-.111-1.71-.147-2.46-.21-3.851-.21-7.71 0-11.561.565-6.272-1.427-11.253-1.808-16.714a31.463 31.463 0 00-.837-5.719c-.098-.381-.246-.848-.283-1.107.086.529.185-1.34 0-1.672 1.39-1.402 1.845-3.69 1.808-6.556a22.149 22.149 0 014.329-5.153 17.51 17.51 0 004.034-3.763 96.465 96.465 0 019.052-7.515c1.316-1.057 2.46-2.324 3.69-3.345 3.222-2.693 7.527-4.809 9.199-8.916-.135-.64-1.229-.308-1.229-1.39-.271 0-.308.147-.566.135a6.476 6.476 0 00-.972-1.119c-.701-.677-2.828-2.288-2.927-3.481-.234 0-.357.209-.418 0a87.105 87.105 0 0011.069-4.034c1.52.408 3.012.918 4.464 1.525 0-.16 0-.393.136-.418a7.435 7.435 0 002.459.701 2.35 2.35 0 002.46 1.119c.248.392.58.724.972.972.233.086.356-.246.553-.148.197.099-.061.394 0 .419.566.369 1.292.073 1.23.565 0 .246-2.804 1.968-3.616 2.78-4.919 4.919-9.076 13.246-7.662 21.314 0-.148.221-.332.271-.136-.529.997.283 1.771.418 2.645 0 .184-.271.246-.283.418.067.416.161.826.283 1.23a16.413 16.413 0 001.537 3.763c.689 1.107 1.009 2.792 1.673 3.628-.345-.43 1.365.677.688 1.107 1.23.135 1.513 1.23 2.657 1.537-1.611 4.071-1.894 8.364-2.374 13.099a25.254 25.254 0 00-.135 5.571c-.947 3.542-.381 8.806-.148 13.651 0 .579-.209 1.23-.135 1.944.099.996-.11 1.23.283 1.672-.467.529 0 2.005.271 2.657a18.837 18.837 0 00.418 5.424c.197.75-.135 1.685 0 2.373.074.345.381.603.418.972.221 1.808-.209 3.603.566 5.153-.443 1.783.836 2.952.553 4.92.172 1.451 1.23 3.689.972 5.571.172 0 .393 0 .418.135-.209 1.661 1.23 3.936.836 5.719.935.787.566 3.69 1.538 5.018.33 2.219.84 4.407 1.525 6.543h4.735a51.271 51.271 0 00-1.808-6.691c-.172-.651 0-1.562-.271-2.361 0-.135-.381-.295-.418-.418a49.383 49.383 0 01-1.119-5.436c-.111-.381-.517-.664 0-.836a.389.389 0 01-.263-.063.378.378 0 01-.155-.22c-.529-1.304-.357-3.075-.701-4.6-.861-2.091-1.095-5.166-1.944-7.933 0-2.767-1.106-5.067-.701-8.08-.676-5.104-1.463-9.581-1.229-13.799-.751-2.718-.283-7.613-.554-10.171.135 0 .172.123.271.147-.023-5.034.306-10.065.984-15.053.172-1.157 0-2.46.836-3.198.147.627.725.787 1.39.553.073.615.676.726.971 1.12 0-.111 0-.283.148-.283a3.912 3.912 0 002.226 1.672 12.775 12.775 0 001.672 2.644c0 .087-.344.542 0 .566a.153.153 0 01.054-.076.145.145 0 01.088-.029.145.145 0 01.141.105c0 1.71 2.14 2.743 2.915 4.735 0-.172 0-.332.283-.283 1.747 3.469 3.456 6.076 4.317 10.036 0 .185-.246.123-.271.271 1.23 1.955.8 5.583 1.39 7.379-.48 1.365.246 2.644-.147 4.317a6.91 6.91 0 010 3.616c0 2.669-.074 5.141 0 7.809.246 8.536 2.681 16.997 2.373 25.914.824 2.251.418 6.149.972 8.609h3.763a113.645 113.645 0 00-1.107-13.652 36.368 36.368 0 00-.565-8.215c.123-3.837-1.71-8.818-1.23-12.68-.898-3.948-.369-8.142-.554-11.844.763-2.091-.332-4.661.283-6.826-.701-1.783 0-4.046-.836-5.571.504-.812-.775-2.251-.283-3.481-.603-.295-.541-.959-.418-1.672a44.718 44.718 0 01-1.673-4.317c.148 0 .172.111.283.135.135-.418-.307-.246-.553-.283.172-1.143-1.144-.811-.837-2.09-.32-.062-.455-.296-.701-.419a9.192 9.192 0 00-1.82-3.197s0 .332-.135.27c0-.836-.849-.91-.972-1.672a.37.37 0 01-.418.283 1.573 1.573 0 00-.972-1.808c.173-1.23-1.131-2.202-1.402-3.481-.393-.123-.356.197-.688.135-.259-.246.159-.406-.136-.701-1.131.283-1.635-1.586-2.656-1.389.11-.48-.209-.542-.136-.972-.541.553-1.131-.418-1.119-.836-.27 0-.27.184-.418.27-.246-.848-.455-.885-.971-1.39-.314.28-.696.471-1.107.554a10.733 10.733 0 01-5.301-7.096c0 .11-.111.159-.283.135a47.134 47.134 0 01-1.525-5.153c0-.197.221-.234.271-.419-.861-1.574-.456-4.255-.824-5.436.467-.615-.197-2.656.553-3.345a14.87 14.87 0 011.23-4.317 7.894 7.894 0 012.226-3.345c2.078-1.476 3.308-2.779 5.424-3.062.221.516.824.061 1.119-.136.098.554 1.156 1.144 1.402.689.335.157.624.398.836.701 1.859.5 3.674 1.154 5.424 1.956-.246.774 1.23.75 1.119 1.808 1.316.27.996 1.672 2.226 2.459-.295 0-.061.492-.135.701a.592.592 0 01.553.271c1.316 2.976 3.555 5.51 5.301 8.609-.086.32-.209.972.135 1.107 0-.111 0-.271.136-.283a19.804 19.804 0 001.672 3.21c-.172.836 1.23 1.599.566 2.46 1.488 1.746 1.082 4.366 2.079 6.272-.16 0-.32 0-.271.271.344.073.271.541.553.971.16 1.698.578 5.326.837 7.527.307 2.644.775 4.059.984 6.15.283 3 .356 6.149 1.66 8.215-.135 1.857 1.07 3.616.984 6.149.898.689.43 2.718 1.39 3.346-.566 0 0 .369-.283.701.455 0 .43.59.701.836 1.377 6.875 1.463 14.832 2.644 21.867 0 .369-.443.308-.418.701.947-.061.147.652.135.554 0 .233.381.492.418.836.461 3.51.556 7.059.283 10.589.48 2.817.726 6.457 1.119 9.839.655 2.737.842 5.564.554 8.363 1.117.073 2.239.024 3.345-.147-.074-2.595.627-4.612.554-6.826-.185-3.923-1.661-7.994-1.329-12.385zm-44.275-125.939a1.226 1.226 0 01-.601 1.389c-.16.087-.337.138-.518.148.402-.484.768-.998 1.094-1.537h.025zm-88.047-19.678a4.02 4.02 0 01-.135-2.644c.393 1.082 1.23 2.459 2.644 2.09.049.529-1.697.96-2.534.591l.025-.037zm-44.276 78.294c-.11-.099-.381-.222-.418 0 .259-.714 1.501-1.648 2.226-2.374 0-.135.173-.111.283-.135-.762.861-1.414 1.734-2.14 2.546l.049-.037zm1.23-19.506a10.943 10.943 0 002.091-1.119c.443.762 1.119 1.303 1.525 2.091-.479.824-1.623.971-2.361 1.537a19.018 19.018 0 01-1.279-2.472l.024-.037zm1.673 3.481c.947-.246 1.5-.911 2.46-1.107.725.246.762 1.23 1.107 1.808a27.37 27.37 0 01-2.78 1.672c-1.058-.701-.701-1.082-.812-2.337l.025-.036zm4.919 6.825c-.492-1.734-1.992-2.459-2.779-3.898.75-.173 1.377-.48 2.091-.701.799.75.172 3.628 1.389 3.492.185-.159-.676.763-.774 1.144l.073-.037zm-.553-8.916a15.473 15.473 0 002.091-1.107c.477.817.806 1.712.971 2.644a5.15 5.15 0 00-2.09.836c-.492-.651-.64-1.623-1.046-2.336l.074-.037zm1.943 6.555c-.197-1.009-.32-2.091-.553-3.075.861 0 1.07-.602 1.955-.553.75 1.771-.529 2.595-1.476 3.665l.074-.037zm2.927-3.763c-.529-.492.308-.812.418-1.12.259.32-.467.751-.491 1.156l.073-.036zm1.12-5.855c.27.485.436 1.022.485 1.575a3.947 3.947 0 01-.203 1.635c-.75.086-1.131.541-1.82.689a11.68 11.68 0 00-.689-2.46c.443-.701 1.882-.467 2.153-1.402l.074-.037zm-1.956-3.21a3.69 3.69 0 011.537 2.239c-.861.258-1.463.762-2.373.971a3.583 3.583 0 00-.972-1.808c.443-.492 1.439-.59 1.734-1.365l.074-.037zm-.836-.688c-.32.418-1.156.332-1.525.688-.578-.295-.689-1.07-1.12-1.525.8-.233 1.821.554 2.571.874l.074-.037zm-1.525 4.735c-.739.475-1.537.851-2.374 1.119-.295-.91-1.009-1.414-1.39-2.239a22.573 22.573 0 012.362-.971 3.893 3.893 0 011.328 2.128l.074-.037zm-3.628-5.99c-.296 1.501 1.512 1.23 1.672 2.644-.826.519-1.715.933-2.644 1.23-.763-.725-1.107-2.459-2.226-2.361.443-1.181 1.771-1.501 3.124-1.476l.074-.037zm-4.182 2.927a5.985 5.985 0 011.402 1.673c-.32.701-1.23.824-1.956 1.107-.245-.258-.368-.64-.701-.837.222-.737.886-1.143 1.181-1.906l.074-.037zm-2.46 3.346c.16.209.394.332.418.688-.418.197-.91.308-1.119.701-.332-.381.517-.824.59-1.353l.111-.036zm.689 1.389c.91.578 1.23 1.771 1.673 2.792-1.095 0-2.288-.787-3.899-.984.381-.812 1.537-1.008 2.115-1.771l.111-.037zm-4.317 9.618c.455.209-.295.332-.135.689a12.295 12.295 0 013.345 2.927 1.23 1.23 0 000 1.39 14.18 14.18 0 00-3.911-4.6c.221 0 .492-.099.59-.369l.111-.037zm3.628 9.605c-.061.837-1.426 1.55-1.82 2.46-.295-.996 1.23-1.537 1.709-2.423l.111-.037zm-8.228-6.272c.332.787 1.747.492 2.239 1.119a1.869 1.869 0 001.107-.701 12.212 12.212 0 013.062 5.018 22.721 22.721 0 01-4.452-.701c-.935-.295-1.956-1.07-2.792-.972-1.796.234-2.46 2.694-3.481 4.047a11.05 11.05 0 00-4.735.418c1.599-3.887 3.678-8.732 8.942-8.191l.11-.037zm-.27 6.69c.246.086.688.689.971.283.074.664-1.045.603-1.082-.246l.111-.037zm-1.402-.553a6.748 6.748 0 00-1.956 2.091c-.234-.185.787-1.439.984-2.091h.972zm-12.299 10.442c.984-2.325 1.045-5.867 3.899-5.572 2.459-1.377 4.415 1.021 5.989 1.82.64.702 1.082 2.19 2.091 2.079a13.553 13.553 0 002.226 3.21c0 .418-.369.48-.418.836 1.328-.529 2.128 1.784 2.644 3.063a8.276 8.276 0 01-4.452-1.107 9.055 9.055 0 00-1.23-2.657 7.497 7.497 0 00-1.119-.971c-.172-.197-.16-.677-.418-.837-2.94-1.869-7.564-.086-10.171 2.226-.419-.848.504-1.143.897-2.054l.062-.036zm-3.493 8.781c-1.328-2.669 1.476-5.559 4.6-6.408a13.879 13.879 0 013.062-.418 5.054 5.054 0 012.927 1.39c.074 0 0 .357 0 .418 0 .062.763.32.837.418.504.627.75 1.587 1.23 2.226a26.752 26.752 0 012.644 4.465c-.185.799 0 .59.147 1.389-2.988-1.131-4.501-4.636-7.527-5.436-2.508-.602-5.546.874-7.981 1.993l.061-.037zm10.454 4.919c-.271-.196.295-.725.283-1.119.32.308-.295.787-.344 1.119h.061zm-1.402 1.944c.244-.484.523-.948.836-1.39.013.357-1.439 2.583-.898 1.39h.062zm-2.226 3.48c-.148-.246.492-.898.836-1.107.468-1.033-.381 1.021-.898 1.107h.062zm-.836-9.753c-.455 0-.689-.233-1.23-.135.147-.221 1.082-.541 1.168.135h.062zm8.498 20.342c-2.46.972-5.891.849-9.335 2.374-.393-.467.394-.652.418-1.119a55.244 55.244 0 01-1.525-8.781c3.862-1.575 5.24-5.621 7.515-8.769 1.168.393 1.623 1.365 2.792 1.106 1.869-.381 3.775-4.218 2.373-6.813 2.386.406 5.104-1.66 5.289-3.345.209-1.894-1.71-3.37-2.226-4.748a33.206 33.206 0 015.706-8.498c.123 0 .136 0 .148.147 1.451 1.562 1.599 4.772.689 7.515-.91 2.743-3.21 5.288-4.034 8.498-.332 1.23-.48 2.46-.837 3.69-1.34 4.538-4.587 8.302-5.017 11.844-.296 2.398.701 4.231.836 6.407a9.607 9.607 0 00-2.853.492h.061zm127.132-114.93c-.91 0-2.263-1.23-2.915-1.39-1.168-2.46 0-6.949.837-9.618h.27c.271 2.46-1.377 5.781-.418 9.2a1.623 1.623 0 001.956-.148c2.927-2.263 3.062-9.765 1.23-13.369.455.086.467.406.971.136 2.546 4.587 1.205 12.36-1.931 15.189zm5.301 2.791c2.46-4.796 6.703-10.183 6.826-16.861.24-.12.434-.314.553-.554.308 2.94-1.045 8.855-2.361 11.696-1.107 2.374-4.083 3.604-5.018 5.719zm2.374-39.712c.369.221.209 1.094.688 1.537-.172.234-.282.541-.688.553a5.22 5.22 0 000-2.09zm.27-6.273a4.08 4.08 0 01.837 1.956c-.468-.468-.554-1.304-.837-1.956zm-1.39 11.992c.136-.75.763-1.009.972-1.673.603.48-.381 1.488-.972 1.673zm2.46 6.26c.246.922 1.82 1.082 1.39 2.238a20.303 20.303 0 01-7.109-5.854c.16-.689.849-.824 1.12-1.402.664 2.054 1.697 4.809 4.648 5.018h-.049zm6.15 8.215c1.033 4.145-.554 9.581-2.927 12.68.799-3.886 2.877-8.055 2.951-12.68h-.024zm1.537 20.773c-.246-1.415 1.082-2.46 2.226-2.927-.246.885-1.709 1.795-2.201 2.927h-.025zm-2.657-4.046c1.427-2.46 3.813-5.117 4.92-8.364-.64 3.198-2.275 6.654-4.895 8.364h-.025zm3.051-21.044c.221-.418.701-.59.836-1.107.566.123.689.689.689 1.39-.419-.344-.935-.061-1.525-.283zm1.106-40.118c-.332-.172-.442-.566-.553-.972.295-.64 1.119-.738 1.39-1.39a2.816 2.816 0 01-.787 2.362h-.05zm-.369-4.575c0-.246.173-.296.148-.554a1.476 1.476 0 011.107 1.673 5.73 5.73 0 01-1.255-1.12zm.837-3.764c.295.222 0 .984.283 1.23-.701.246-.935.922-1.39 1.402-.381-.369.873-1.033.135-1.402.32-.418.627-.8.972-1.254v.024zm-1.39-8.769c.172.418.566.64.553 1.23-.516-.234-.651-.836-.836-1.402.099.086.209.406.283.148v.024zm-3.481 73.412c.333-1.009 1.489-2.46 1.956-3.69.111 1.377-1.045 2.767-1.956 3.665v.025zm-2.459-81.775c.824 1.095.664 2.46 1.537 3.628-1.131.099-1.23-1.98-2.238-2.46.248-.376.465-.77.652-1.18l.049.012zm-.701 16.444c0 .245.172.295.147.553-.258.074-.578.074-.701.283-.209-.074.074-.923.504-.861l.05.025zm5.018 6.69c.282.381-.099 1.291-.136 1.808-3.689 3.394-9.716 5.313-14.352 3.48 4.649-.393 11.487-1.857 14.438-5.313l.05.025zm-17.182-30.12c.136.234.517.222.418.69a5.282 5.282 0 013.481 2.09c.406.64 1.23 1.082.701 1.955-1.759-1.266-5.153-1.623-4.6-4.735zm-.971 38.446c.209.21.787 0 .688.554.64-.32.714.184 1.23.283 6.826 1.23 12.213-2.46 15.878-5.99-1.23 2.263-4.6 3.69-6.543 5.707a13.958 13.958 0 01-7.797 2.238 1.234 1.234 0 00-1.402-.418c-.123-.615-1.083-.406-.972-1.23-.554.455-.369-.689-.689 0a1.789 1.789 0 01-.283-.971c-.196 0-.283.7-.418.27-.135-.43.295-.221.308-.443zm-.283-39.147c-.259.21-.209.726-.701.701-.295-.738-1.107-.934-1.673-1.39.689-.245 1.414.726 2.374.69zm-1.956 47.781c1.71-.357 2.005 1.796 3.493 2.09.394 1.145 1.747 1.317 2.079 2.46-2.153-1.758-4.428-2.2-7.38-3.197a.097.097 0 00-.086 0c.259-.517.64-1.537.923-2.103.578.123 1.254.233.971.75zm-1.525-45.505c-.676-.345-.75.135-1.537-.27.074-.53.184-.64-.271-.837.566-.185 1.341.64 1.796 1.057l.012.05zm-3.062 11.29c.197.074.344.209.553.283-.246.172-.369.467-.836.418.061-.32.295-.443.283-.75v.049zm-.984-.701c.295 0 .369.098.566.147a57.385 57.385 0 00-12.127 11.07c-.307-1.132 1.39-2.091 2.226-2.928.836-.836 1.833-1.894 2.792-2.792 2.103-1.967 4.452-3.69 6.408-5.57.123-.136.135-.062.135.024v.049zm-10.725 29.492a16.923 16.923 0 01-3.48-11.991c1.463.713 1.795 3.185 3.345 3.345-.935 4.6.812 9.569 2.361 13.529a4.56 4.56 0 00-1.807-.836c0-.701.565-.923.553-1.673-.676-.529-1.574-1.39-.972-2.374zm10.171-32.874a6.573 6.573 0 01-.971.971c-.64-.197-1.427-.246-2.091-.418a19.086 19.086 0 013.062-.553zM254.175 27.07c1.931-.123 3.309-1.366 5.166-1.39.086.332-.775.898-.984 1.39-1.894-.246-2.3.578-3.198 1.537a6.683 6.683 0 00-2.374.553c.013-.602 1.034-1.377 1.39-2.09zm-4.919 7.526c.197 0 .393 0 .418-.135.59.529 1.144.308 2.091.554 0 .418-.369.467-.418.836a8.711 8.711 0 01-2.227-.418c-.061-.43.283-.418.185-.837h-.049zm-11.278-5.99c4.563 2.534 6.838 5.732 9.47 10.172.578 0 .639-.664 1.107-.836 2.459.233 4.009.824 7.108 1.107 2.313.22 4.821 1.697 7.244 2.373 1.23.332 2.313.394 3.899.701-3.394 3.001-6.629 6.15-9.839 9.335a104.07 104.07 0 00-10.306-12.299c-4.92-1.156-10.061-.75-15.325-.418 2.079-3.505 4.403-6.826 6.691-10.134h-.049zm14.537 42.358a5.88 5.88 0 01-1.119-3.21c-.086 0-.172.074-.136.135a7.696 7.696 0 01-.282-4.735c.467 1.894.676 5.055 1.537 7.81zm-8.781-.566a30.571 30.571 0 01-.283-11.56c.811-1.98 2.25-3.334 2.792-5.572.184 0 .11.344.135.553.898-.356 1.156-1.352 2.091-1.672a.451.451 0 00.418.418 22.333 22.333 0 00-4.92 11.844c-.135 2.029.308 4.046-.233 5.99zm5.3-17.132c.517.221.542.935 1.107 1.107-1.23 1.562-2.054 3.431-3.21 5.018a30.967 30.967 0 012.103-6.125zm-14.758 7.38a6.668 6.668 0 01-1.537-3.346c2.533-1.107 4.23-4.17 6.961-4.17-1.476 2.842-4.932 3.703-5.436 7.515h.012zm1.943 1.401c-.381-.307 0-.971.148-1.23.59.185-.173.763-.16 1.23h.012zm-.271-9.839c-1.143 1.23-2.742 1.144-4.046 1.808-1.82.947-4.009 4.305-5.436 5.854.172-1.906 0-4.28 1.402-5.153 1.907-1.267 5.83-1.894 8.068-2.57l.012.061zm-10.035 3.764c-.222-.468.467-1.23.701-1.673.221-.098-.505 1.18-.714 1.611l.013.062zm-3.481 5.854a9.053 9.053 0 015.289-9.618 22.221 22.221 0 00-5.301 9.556l.012.062zm-.147-9.335a12.079 12.079 0 003.763-.836c.098.455-.652.996-1.107 1.39a12.41 12.41 0 00-3.899 5.017c-.713-2.472.665-4.009 1.23-5.632l.013.061zm-2.362 11.278c.492-.061.16.689.554.701 0 1.009-.837 1.23-1.107 1.956-.16-.726.467-1.808.541-2.718l.012.061zm-1.119-19.358a5.596 5.596 0 01-3.062 2.09c.922-.848 2.103-1.377 3.05-2.152l.012.062zm-8.498 5.706c.123-2.09 2.558-2.533 4.181-3.332.357.332-1.402.885-1.672 1.525a5.005 5.005 0 00-2.522 1.746l.013.061zm1.992 18.473c-.455-.836.184-1.353.283-2.226.135-1.23-.443-2.607-.283-3.763 0-.394.381-.603.553-1.12.615-1.807 0-3.898 1.23-4.735.197.43.431.087.701-.135 0 .554-.762 1.55-.984 2.361.382 1.55-1.106 5.498-.135 7.81a9.698 9.698 0 00-1.365 1.808zm.972 15.041a4.912 4.912 0 01.553-2.927 5.665 5.665 0 01-.603 2.928h.05zm18.116 46.539a23.61 23.61 0 01-8.499-4.046 70.627 70.627 0 01-4.919-10.442c-1.488-2.324-2.337-5.276-3.69-7.662.418-1.23-.947-2.57-.566-3.345-1.5-3.518-.848-7.527-.418-11.426.114-2.088.49-4.154 1.119-6.15.64-1.696 1.55-3.394 2.226-5.005.677-1.61 1.23-3.554 2.362-4.747.061-.234-.099-.258-.271-.27 3.075-5.08 3.69-12.422 5.99-17.97.504 1.6-.554 3.088-.136 4.318 2.46-1.919 4.17-4.65 6.543-6.69 0 .897-.713 1.438-.836 2.373-.369 2.865 2.78 5.436 3.062 7.932 1.304-.504 1.907-1.709 2.657-2.779-.258-2.558 2.46-3.271 3.198-5.3.344.811-.209 1.93-.271 2.791.455.357 1.045-1.07 1.39-.836 0 4.563-.972 11.757 2.927 14.906v.553c.885.43 1.5 1.488 2.46 2.091.184.11.27-.197.406-.135.135.061.073.381.147.418.271.123.873.16 1.119.27.591.283.935.825 1.673.984.553.123 1.07.345 1.39.419.56.006 1.119.051 1.672.135l.406.418c1.202.186 2.426.186 3.628 0 .787-.234 1.23-.96 1.808-1.537 1.931.196 4.034.934 5.719.565 1.23.185 1.624.96 2.792.419a11.929 11.929 0 005.399 1.918c.886.886 2.694.837 3.345 1.956.517 0 .394-.16.837 0 .407.801 1.1 1.42 1.943 1.734 1.156 1.955 2.989 3.234 3.493 5.854.356.184.381.726.689.972-.111.393-.443.565-.419 1.119-1.451-1.857-1.906-4.698-3.763-6.15-.64.32-1.137.869-1.39 1.538 2.079 1.93 2.644 5.018 4.182 7.379a21.648 21.648 0 003.763 3.69 10.358 10.358 0 003.997 2.287c-1.463 2.706-3.124 5.239-5.989 6.555a4.63 4.63 0 00-1.525-2.521 2.358 2.358 0 00-2.045 1.149 2.362 2.362 0 00-.046 2.344c-2.115.16-3.075-2.029-4.046-3.493-2.558 1.119-2.251 4.317-3.198 6.555-.947 2.239-2.349 3.825-3.345 5.719-1.907.923-2.767 3.247-4.6 4.735a33.35 33.35 0 01-10.725 5.289c-2.939.947-6.149 2.078-9.199 1.955-1.39 0-2.706-.221-4.034-.283-.492 0-1.082-.086-1.537-.135-2.595-.283-4.022.099-6.925-.418h.05zm43.328 12.299a12.023 12.023 0 01-2.373-3.481c.418-.332.701.972 1.389.418-.221.492.566.123 1.119.984.005.681-.056 1.361-.184 2.03l.049.049zm-12.963 10.737c-.073.307.271.196.283.418-.455 1.033-1.586 1.377-2.46 1.943-1.033-2.78-4.919-.812-5.571 1.39.086.221.627-.283.836-.406.382.861-1.648 1.045-2.09 1.107a2.647 2.647 0 00-2.374-2.78c-2.263-.197-2.337 2.669-3.899 2.079a3.824 3.824 0 00-.836-2.46c-1.427-.344-2.288.504-3.345 1.23a19.23 19.23 0 00-3.063-5.166c0-.233.111-.258.283-.27a4.592 4.592 0 00-1.119-1.119c.541-.246 0-.898-.553-.837.602-.861-1.169-1.07-.419-1.672-.479.27-.504-.086-.283-.418-.061-.197-.172 0-.418 0a20.638 20.638 0 01-1.107-13.529 35.673 35.673 0 0029.813-9.47 45.86 45.86 0 001.426 16.898.653.653 0 01.418-.135c-.405 1.23.369 1.23.837 2.226.098.197-.197.283-.136.418.222.455.087-.258.419.136.159.196 0 .688.135.836.369.566 1.107 1.021 1.119 1.402.012.381-.59.726-.701.972-.627 1.451-.738 3.689-2.091 4.735-2.029-1.046-4.255.737-5.153 2.422l.049.05zm3.69.836a2.097 2.097 0 01-1.23-1.23c.332 0 .406.234.836.135.013.283.505.726.283 1.046l.111.049zm-7.379 4.169c-.787-.406-1.71-.701-1.808-1.808a3.698 3.698 0 011.685 1.759l.123.049zm-7.244.984c-1.046-.32-2.362-1.131-1.943-2.091a2.653 2.653 0 011.82 2.042l.123.049zm-7.798-2.644c.886.172 1.23.91 1.673 1.525-.529.381-.91-.566-1.537-.554.159-.319-.259-.614-.259-1.02l.123.049zm5.855 48.617c.098-1.23-1.476-1.624-1.23-2.792-.086-.307-.222.172-.419-.135-.307-2.534-2.373-4.588-2.791-6.691a14.807 14.807 0 01-2.362-4.181c-.196 0-.393 0-.418.147-.221-1.131-1.34-1.365-1.673-2.373-.344.553-.897-.542-1.119-.972-.123.061-.246.123-.27.283-1.476-1.23-2.731-2.669-4.329-3.764v-.701c-.751 0-.542-.897-.689-1.229a17.21 17.21 0 01-1.23-2.645s.652-1.143-.418-.971c.283-.517-.209-.369-.135-.984-.32.615-.394-.357-.837-.418.123-.369.308.319.554.283.061-.812-.96-.529-.837-1.39-.688.369-.701-.664-1.23-.837a3.466 3.466 0 01-2.226-.701c-1.02.394-1.451-.541-2.791-.135a50.208 50.208 0 015.571-8.916c.726-1.784 1.648-3.961 2.226-5.437a76.58 76.58 0 00-8.498-1.229c0-.382.233-.283 0-.554-.443-.172-.099.443-.554.271-1.23-1.23-3.013-2.546-4.6-2.362 0-.492-.356-.233-.971-.283.369-1.033 1.365-1.414 2.091-2.09a24.8 24.8 0 006.542-10.171c.382 0 .259-.578.566-.689v-.898a15.329 15.329 0 003.899-3.763c.295 0 .492.885.283.971 0 .271.516-.209.689.148-.48 1.23.135 2.656-.419 3.48.345 1.366.726 2.718.419 3.346.073-.615.467.196.553.553.142.83.331 1.651.566 2.46.158.421.342.832.553 1.23 0 .061.381-.074.418 0 .037.074-.283.135-.283.135.136.418.505.234.837.701.332.467.197 2.029.984 1.673-.234.369.196.885.553 1.389 1.23 1.759 2.214 4.084 3.481 5.855 0 .246-.173.295-.136.553.136-.086.136-.32.419-.283a32.048 32.048 0 001.672 5.301c0 .135-.172.098-.283.135a10.034 10.034 0 011.39 4.317c.086.32.221-.16.418.148.086 3.935 1.796 7.207 2.239 10.589h-.283c.098.48.295 1.021.418 1.525.344 1.488.615 4.009 1.673 5.018-.21.59.319 1.23.701 1.673a36.471 36.471 0 001.106 4.599c-.541.996.394 1.993.419 3.063 0 .369-.099.639-.136.553 1.119 2.337-.11 5.633 1.107 7.527-.799.049-.701-.172-1.304-.381l.124.049zm3.898-11.844c-1.131-4.108-.996-7.195-3.345-11.007.344-.935-.554-1.943-.271-2.78-.479-.172-.43-2.201-.701-3.689 0-.099-.406-.431-.418-.554-.012-.123.32-.233.271-.418-.332-1.599-1.033-2.792-1.39-4.046-.123-.431.184-.837 0-1.525-.185-.689-.517-1.501-.701-2.374a50.02 50.02 0 01-1.39-5.288c-.541-.148-.418-.972-.836-1.23.16-.628.799-.787 1.119-1.23.615 0 1.402.479 1.673 0 .442 1.759 1.771 2.681 3.333 2.091.627-.234.824-1.156 1.537-1.538 1.131-.59 2.46-.086 2.927-.971 1.07 3.468 5.018.332 5.153-2.091a21.566 21.566 0 002.374-1.808c.467.504.726 1.23 1.39 1.525a4.651 4.651 0 003.898-4.034c0-.258-.196-.726-.135-.984.467-1.869 2.952-3.148 3.063-5.006.811.222.528.849.836 1.39 1.107-1.23-.246 1.156-.418 1.39-7.011 9.482-9.384 24.966-14.07 36.503a29.914 29.914 0 00-4.022 7.625l.123.049zm33.293-33.206c-1.513.491-3.345.713-4.735 1.229-.588.271-1.192.505-1.808.701-1.82.505-4.674 3.764-4.735 5.018.09.689.324 1.352.689 1.944.086.159.43.11.565.282.333.406.099.898.419.972.319.074.246.615.553.972.308.356.886.123.701.983.812.517 1.624 1.587 2.915 2.362-3.112 3.517-7.244 5.817-10.725 9.064-1.894 1.771-3.689 3.69-5.571 5.559-.885.873-2.091 1.623-3.062 2.46-2.866 2.656-6.285 5.436-7.798 9.482-.602-1.131.443-1.869.824-3.062.677-2.079.504-4.625 1.402-6.15.701-4.39 3.764-8.227 5.436-12.114 1.058-2.46 1.599-5.19 2.46-7.945a67.007 67.007 0 002.374-8.08 39.034 39.034 0 012.644-7.527c1.623-5.338 4.661-9.273 7.81-13.086a90.99 90.99 0 004.169 10.159c.369.246.529-.074.984.147.061 0 .283.615.418.689.135.074.504-.074.689 0 .184.074.467.689.701.837 0 0 .283-.173.418-.136.135.037.123.492.418.701.295.209.566 0 .701.136.32.295.283.762.554.971.565.455 2.164 1.23 2.459 2.644-.75-.024-1.254.554-1.992.788h.123zm-156.711 9.162a1.126 1.126 0 00-.123 1.082c6.285-2.078 13.357-10.515 19.678-12.938-.775 3.407-5.559 6.026-9.064 9.027-2.866 2.46-6.039 4.723-6.949 7.38 15.693-13.873 34.437-29.517 51.569-33.428a24.743 24.743 0 003.013 4.489c6.482 4.71 16.862-8.265 7.638-10.86-3.69-1.033-9.483 5.694-12.853 4.181-1.832 0-1.918-4.157-3.443-3.173-.197 1.624 2.238 3.567 1.008 5.067-7.809 4.096-15.631 8.204-23.269 10.848 5.916-6.58 9.999-13.393 16.714-19.887 1.574-.258 2.78 2.693 4.354 2.46-.099-2.042-3.05-3.1-3.247-4.785 1.095-3.689 7.379-7.649 6.936-11.77-1.106-11.068-15.545-1.623-12.926 4.723l4.735 6.063c-9.875 15.017-24.671 29.813-43.894 41.521h.123zm67.434-33.12c3.579 3.689-3.788 10.576-7.613 8.387-6.198-3.493 3.997-12.052 7.49-8.387h.123zm-25.04-12.68c-5.547-4.059 3.235-13.529 7.207-9.544 3.321 3.456-2.042 13.405-7.33 9.544h.123zM82.226 239.678c.136-.602.443.074 1.046 0a10.994 10.994 0 001.07-4.919c-1.058-.123-1.415-.96-1.771-1.771-3.296-.136-4.92 1.955-7.06 4.587-.59-.467-.27-1.857-1.414-1.759 0 .431-.11.837-.713.701-.074 2.091 1.23 2.817.713 5.301 1.636.541-1.611 6.887 1.759 7.773.295-6.322.971-12.164 5.3-15.189 1.44 1.464 2.251 2.73.357 3.53.984-.185-.283 1.906.713 1.746zm21.745-78.294c12.298 20.219 19.678 39.664 19.198 57.804 3.69-11.499-2.681-31.78-10.134-47.965-1.685-3.689-4.329-7.305-4.588-10.896-.184-2.374 1.698-4.809.812-6.629-2.743-5.633-13.873-3.555-20.588.086 3.025 1.734 7.871-3.21 10.036-1.095.64 2.128-1.993 3.69-1.23 5.891-2.14-1.23-5.854-.221-9.47-.16 2.865 2.571 7.379 1.673 11.72.861-2.373 8.191-2.914 18.375-5.103 24.856.172-.061.442 0 .578.455-4.293 9.347-3.1 28.791 4.685 41.348-2.52-15.459-4.772-37.154-.086-49.059.332-.837-1.39-.566-.504-2.116.947-.393 0 .763.873.48.271-2.103 1.119-4.108 1.021-6.26-.221-.8-.627 3.862-1.611 5.153-.91-3.21 3.431-7.539 1.094-7.268.579-.529 2.731-1.833 1.341-2.153.123.48-.221.873-.566 1.23.246-3.567 1.095-1.082 2.522-4.563zm-8.142-25.151h-.443c.026.034.06.061.099.079a.276.276 0 00.344-.079zm29.886.701c-4.563-.11-2.202 2.042-6.408.505.615-.185 1.23-.382 1.685 0 .307-1.685-2.165.073-3.038.455 1.427-2.46-5.485.258-8.609-2.3 1.919-.468 7.293 1.34 6.518.713-2.349-1.156-4.993-1.23-7.453-1.918-.713.799 1.009.344.099 1.229-2.14.234-.996-1.549-2.091-1.586-15.496-.554-38.532-13.529-54.484-23.86 10.184 14.759 31.215 25.483 43.673 25.237.418.357.394.701.234.861 8.253.701 19.838 5.043 30.095 6.371-3.038 4.501-6.149 9.003-4.71 13.43 1.82-3.985 4.71-7.625 4.403-10.589 2.017 1.919 5.067-.221 7.133 1.5 1.291 3.444-6.543 6.433-6.088 10.627 7.293-5.695 15.005-17.059 10.073-22.839-1.599-1.857-5.215-.96-7.761-2.3-3.874-2.029-6.617-6.715-9.839-10.38-14.365-16.112-33.858-32.936-48.395-34.437 20.379 8.216 38.433 25.828 54.963 49.281zM74.257 160.72c.48-.885 1.23-1.5 1.574-2.349.738-1.882.75-5.473-.246-6.973a4.713 4.713 0 00-2.103-1.488 12.675 12.675 0 01-2.202-.701c-1.488-.886-1.439-3.383-3.69-3.69h-1.315a7.663 7.663 0 00-2.669 1.008c-.75.517-1.574 1.796-2.349 1.968a7.227 7.227 0 01-1.562-.074 6.824 6.824 0 00-6.026 3.69 10.183 10.183 0 00-.554 1.562v1.414c.652 2.153 1.451 4.182 2.116 6.334.664 2.152 1.71 4.01 2.349 6.15.996 3.259 1.574 6.813 2.46 10.171.294 1.045.627 2.791 1.414 2.816 1.23 0 1.131-3.124 1.23-4.292.073-1.907-.123-3.813 0-5.485.086-1.23.553-3.518 1.721-3.53 1.169-.013 1.587 1.82 1.956 2.816.947 2.558 1.537 4.809 2.275 7.293.32 1.083.32 2.94 2.03 2.731.256-.794.31-1.64.16-2.46a46.739 46.739 0 011.23-9.003 31.99 31.99 0 012.2-7.908zm-3.05 5.399c-.382 2.718-.628 6.002-.787 9.163 0 .996.184 2.115-.468 2.816-.787-.332-.787-1.463-.934-2.349-.443-2.607-.665-7.256-2.202-8.769-1.23-1.23-4.268-1.021-4.538.935-.517 3.69.713 8.904-.701 11.671a7.474 7.474 0 01-.701-3.443c-.394-3.591-.984-7.379-2.35-10.024a.685.685 0 00.775-.307c-.565-2.042-2.263-3.21-3.05-5.166-.393-.971-.7-2.041-1.094-3.062a8.719 8.719 0 01-.861-4.772 4.609 4.609 0 014.304-3.603c1.07 0 1.98.578 3.284.159 1.07-.344 1.525-1.992 2.46-2.582a3.808 3.808 0 013.997.16c1.095.885 1.07 2.459 2.19 3.283 1.426 1.033 3.836.492 4.537 2.116.701 1.623-.258 4.796-1.094 6.149-.381.615-1.082.922-1.23 1.488-.664 2.14-.295 4.01-1.882 5.166-.295.233-1.648.492-1.562 1.107.148.787 1.378-.013 1.907-.136zm166.672-51.138c1.612-.074 3.296.246 4.92.135 1.623-.11 3.148-.418 4.6-.553 1.451-.135 3.382 0 3.751-1.537-5.953 1.832-12.496-2.608-19.358-1.525a14.604 14.604 0 00-7.527-2.792c-1.23-1.304-2.46-2.645-3.764-3.899 0 .184-.197.271-.135.553 2.73 4.084 6.789 8.474 12.68 9.753 1.61.18 3.236.134 4.833-.135zm-6.825-2.792c3.345-.713 6.838.492 10.035 1.119-5.522 1.169-11.905-.147-15.324-3.345 1.931.025 3.751 1.316 5.289 2.226zm-9.052-25.827c1.488 1.316 4.353.7 6.272 1.23.529.147 1.23.824 1.66.836.751 0 1.784-1.23 2.03-1.918-2.251-2.965-5.043-7.38-10.38-5.892.344-.516-.148-1.61.073-2.053a5.332 5.332 0 00-1.611 2.336 1.671 1.671 0 01-.135-1.39 2.183 2.183 0 00-1.171 1.223 2.188 2.188 0 00.052 1.692c1.992.443 1.758 2.706 3.21 3.997v-.061zm8.191.332a12.386 12.386 0 01-4.92-.541 12.577 12.577 0 002.46-2.534 3.592 3.592 0 012.46 3.136v-.061zm-3.469-2.46l-.467.849-.836-1.082 1.303.233zm-3.074-2.902a3.295 3.295 0 00-1.402 3.21c-.6-.9-1.088-1.871-1.452-2.89a21.169 21.169 0 012.854-.259v-.061zm-2.46 20.354c-2.361.664-3.69 2.337-3.69 5.436 1.009-.676 1.132-2.226 1.39-3.689.787-.456 2.017-.591 2.275-1.685l.025-.062zm25.077 13.529a37.089 37.089 0 01-6.149 1.39c-2.288.319-4.846 1.229-6.974.971-1.107-.147-2.177-1.328-3.48-1.673-.541-.135-1.07 0-1.538-.135a4.916 4.916 0 01-3.062-3.21c0-.086 0-.16-.135-.135a1.644 1.644 0 00-.701 1.673c2.238 2.053 5.337 4.612 9.753 4.452a51.31 51.31 0 006.69-1.107c2.177-.357 4.748-.664 5.572-2.177l.024-.049zm12.397-25.643c.369-.37 1.23-.947.972-1.525a2.324 2.324 0 01-1.943.553c.246-.442.725-.664.836-1.23-3.198 1.365-5.793-.934-8.228-.971-3.321 0-5.337 3.16-6.543 5.854.504-.664 1.587-.308 2.226-.566a10.392 10.392 0 008.917 1.808 12.411 12.411 0 003.603-1.316c.271 0 .173.381.554.283.307-.566 1.23-.947.836-1.808a2.1 2.1 0 001.23-1.402c-.861-.012-1.82.578-2.484.369l.024-.05zm-9.949 1.537c-.136 0-1.87-.369-1.981-.369a5.816 5.816 0 00-1.746.21 5.163 5.163 0 012.214-2.46c.098-.074 2.177-.43 2.275-.505.185.505-1.365 1.796-.787 3.173l.025-.049zm5.177-1.23l-.701.947-.799-.8 1.5-.147zm-1.881 2.386a5.29 5.29 0 001.967-3.333c1.968.455 2.534 1.402 3.69 2.644-1.992.505-3.407 1.329-5.682.69h.025zm12.643-5.153c-.357-.75-1.378-.849-1.808-1.525a22.018 22.018 0 00-5.854-.836c-2.067-.123-4.096-.886-5.99-.972-3.443-.172-7.379.283-7.797 2.46.479-.578 1.463-.664 2.078-1.107 6.371.467 13.344 1.02 19.346 1.98h.025zm25.077 152.837c-.504-5.793-1.685-12.299-1.119-19.506-.886.467-2.792 0-3.751.135 0-1.144.086-2.46-.701-2.779a67.466 67.466 0 00-.136-10.59c6.568-1.561 5.203-12.089-1.82-12.298a6.649 6.649 0 00-5.005 2.09c-3.579 4.108.172 11.5 5.288 10.59.48 4.317.578 10.368-.553 13.651a25.853 25.853 0 00-5.719-.553 40.007 40.007 0 00-2.645-14.5c-.565-1.845.763-3.087 1.12-5.006.615-3.37-.603-7.146-3.899-7.81.603.861 1.611.714 2.226 1.538 1.07 1.439 1.082 3.689 1.107 6.272-1.328 1.537-1.365 3.493-1.525 5.707 0 .811-.468 1.66-.554 2.459a43.842 43.842 0 00.554 11.426h-1.23c-.406-2.189-.935-4.809-1.39-7.527-.455-2.718-1.23-5.694-1.537-8.08-.099-.738.393-1.119.836-1.808a16.58 16.58 0 002.361-4.182c-1.106.369-1.119 1.845-2.226 2.226.382.542-.983 1.562-1.389 2.239.246.848-.431 1.23-.554 2.226.006.827.097 1.651.271 2.46.32 3.8.566 8.461.566 12.298h-1.23c-.406-1.881-.603-3.911-.984-5.989-.382-2.079-1.119-4.268-.972-6.149.222-2.694 3.05-4.034 3.345-6.691a13.533 13.533 0 00-2.644 2.46c-.295 1.525-1.759 2.287-1.955 4.181-.369 3.53.873 7.921.701 11.844a2.993 2.993 0 00-1.402 0 12.231 12.231 0 00-1.39 1.673c.246 9.839 2.128 20.231 2.927 29.258 1.23 5.08 7.748 5.99 12.299 4.735 2.964.861 6.469-.455 9.47-1.229 2.029-1.845 4.206-3.752 3.898-7.109-.344-2.398-.43-5.018-.664-7.662h.025zm-10.306 14.352c-.505 0-.886-.319-1.402-.282-.517.036-1.083.344-1.661.418-1.869.209-3.566-.431-5.301-.418a25.686 25.686 0 01-3.48-2.46 34.548 34.548 0 01-2.091-9.839c-.221-2.066-.406-4.157-.701-6.273a103.279 103.279 0 01-.972-12.397c4.207.382 9.446-.602 14.353.136.615.098 1.23.381 1.808.418 1.439.086 2.681-.763 4.046-.837 1.021 0 1.796.701 2.645 0-.09 6.581.321 13.16 1.229 19.678.406 3.542 0 6.617.419 9.901a19.094 19.094 0 01-8.917 1.955h.025zM252.65 110.627c-3.271-1.143-5.682-3.886-7.527-5.989 1.316 4.624 5.928 5.952 8.228 9.605a13.14 13.14 0 00.554 3.69c.91-2.534.541-5.965-1.255-7.306zm-18.952-22.95a16.299 16.299 0 01-1.943 4.502 16.957 16.957 0 01-2.374 4.046c-2.46 2.559-7.736 5.461-4.034 9.606 2.927 2.46 8.216 1.107 11.831 1.672.861-.75 2.214-.319 3.21-.836a4.587 4.587 0 002.374-4.452 2.9 2.9 0 00-1.955 2.644c-.948-.295-1.759.468-2.46.554a25.644 25.644 0 01-2.644-.419c-1.894 0-3.887.505-5.437.148-1.549-.357-2.459-1.513-3.48-2.091-2.177-2.57.332-3.862 1.943-5.436a21.27 21.27 0 004.6-6.826c1.23-2.46 2.3-3.874 1.82-6.272a12.854 12.854 0 00-7.244-5.99 27.447 27.447 0 00-7.81-1.39c2.669 2.03 6.494 2.165 9.618 3.9 2.042 1.106 4.378 3.628 3.985 6.64zM94.845 265.002c-2.46-.479-2.632 1.378-4.243 1.771-.283.455-.16 5.067-1.058 3.53-.123 1.537 0 2.632.701 2.46-2.164 3.849-6.986 4.71-10.601 6.002 2.275-4.686 4.046-7.995-.701-12.004.27 1.045-1.353.406-1.415.344 1.082-3.222.37-5.091.713-8.117-1.23.222-.442-1.685-1.414-1.771A4.912 4.912 0 0174 260.045c.59 2.46-1.366 4.268-.357 6.002.652-2.768.86-5.965 3.542-6.715.775 6.506-.96 6.936-1.415 12.716-.504-.135-.602-.418-1.07 0a2.312 2.312 0 00.357 1.772c-2.3 1.992-6.15 7.243-9.839 4.919-3.173-1.931-.615-5.448 0-9.187 1.156-.074.443-1.046.357-2.116-.738-3.099.381 2.645-1.07 2.116 0 1.427-.099 2.73-1.058 3.185-.074-.43-.393-.221-.7 0 .184-2.755-.813-7.379 2.828-10.601.332 9.027 1.562.135 1.058-2.46-.861-.357-.75-.111-2.128-.357-2.005 2.952-1.759 4.28-2.817 7.38 1.403 6.149.566 11.757-4.92 12.716-4.402-1.156-.282-9.839-2.459-11.659.234 1.23-.602 1.292-1.414 1.402a10.7 10.7 0 01-4.243 10.958c2.533 1.157 3.406-1.832 4.92-2.459.196 1.328 1.635 1.426 2.115 2.459 3 .357 4.92-2.275 7.071-3.886 1.415 2.238 3.173 3.936 5.301 3.886 2.128-.049 4.096-3.689 5.3-2.115-.257-1.23.727-1.156 1.059-1.771.43.627.258 1.857 1.057 2.115-1.414-.184-.529 2.054 0 2.128 0-1.697.615.603 1.771 0 0-.418 0-1.008.345-1.058 6.764.123 10.048-2.545 13.073-4.919.898.271 1.34 1.008 2.46 1.058-2.952-3.69 3.148-4.575 1.722-10.553zm-17.317 13.074c-.602.074-.91-.603-1.058 0-1.684-.541-.442-2.669-.196-2.73.184-1.107.221-2.964 1.23-3.284-.492-.209 0-1.353-.701-1.402a2.044 2.044 0 001.057-2.46c2.226-.344 1.685 2.091 3.173 2.46.677 4.772-2.201 4.28-3.505 7.416zm13.43-6.014c.173-1.107-.64-1.23-.356-2.46 1.586.123.553-2.189 2.46-2.46.897 1.821-.246 4.662-2.103 4.92zm-14.684 3.284a2.462 2.462 0 01-.16.602c.221-.455.233-.615.16-.602zm-23.725-24.364c.406-5.301-3.308-9.003-6.715-9.187-1.008-1.944-.652-6.433 3.53-5.301a6.754 6.754 0 003.542 2.829c-1.008-3.801-8.08-5.769-9.839-2.46 1.451 1.131-1.562 2.632 0 3.886 0-.418-.061-1.008.357-1.058 0 2.46 2.312 2.632 3.185 4.231 6.408-.418 5.129 9.261-1.414 7.072-.837-1.07-2.177-3.468-2.46-3.886 0 1.377.123 4.821 1.058 3.173.664 2.988 2.127 3.554 6.002 3.542a25.502 25.502 0 012.754-2.841zm196.645-28.865c-2.558-.788-3.234 2.152-4.919 3.345-1.538-1.095-2.755.553-3.346 1.943 1.366-.455 2.276.873 3.493.283.394.369.271.529.419.971 3.8 2.657 7.92-4.304 4.353-6.542zm-.418 5.017c-1.488-.221-2.878-1.229-2.374-2.927a2.693 2.693 0 012.349 2.927h.025zM44.346 273.87c-4.243.123-8.13 1.377-8.474 3.529 1.095-.307 1.698-.295 3.173-.701.246 1.771-.32 2.731-.344 4.243-1.611-.479-.738.824-1.07 1.403a31.135 31.135 0 01-3.173 2.127c-1.464.443-1.464.48-2.115 1.058-1.5-.59-5.99-.972-7.773-3.185-.787-.984-1.722-6.679-2.46-5.289.75-3.825-.21-5.952.701-8.843 1.623.652.652-1.845 1.771-.701 1.771-5.62 10.65-5.792 13.418-1.771-.148-1.709.75-.344 1.414-1.402-.295-1.131.308-1.34.714-1.771-.64 0-.837-.357-.714-1.058-1.316 0-1.131-.528-1.77.357-2.239-1.98-3.518-.332-7.761-1.07v1.07c-3.874-.971-7.17 3.284-8.83 7.06-.087-.271 0-.701-.357-.714-.837 4.76-.086 11.77 1.77 14.845.923.836 2.706.824 2.817 2.46 2.558 0 3.825 1.377 6.359 1.758.086-.27 0-.688.356-.701.074.271 0 .701.357.701.074-.27 0-.688.344-.701 0 .431.11.837.714.701a5.203 5.203 0 013.53-1.057 3.245 3.245 0 013.185-2.46c.775 1.439.209 3.69 2.46 4.243 0-3.579-2.128-4.723-1.415-7.773.074.271 0 .701.357.713a14.278 14.278 0 00-.714-4.599 10.538 10.538 0 013.887-1.759c-.295-.123-.43-.381-.381-.75l.024.037zm-14.07-18.657c2.817 1.525 3.936.614 5.658 2.127-.148-1.611 1.377-.787 2.829-1.414 2.029-2.976 3.21-7.379.7-9.839 1.021 4.772-4.919 11.438-5.3 3.53-.406-.062-.996.061-1.058-.357-1.968-7.096-.135-16.124-.357-21.548-.54.492-2.115.714-2.46.357a2.56 2.56 0 01-2.115 3.087c-.947-2.164-6.838-.357-9.187-.701-2.804 2.103-6.297 4.92-7.06 9.532-1.23 7.108 2.706 12.397 5.301 16.603 1.12-.209 1.083.664 1.76 0 2.41 4.575 10.06 2.767 11.29-1.377zm-7.772-1.058c-1.23-.185-.874-.873-1.76-1.759-.134-.148-.959.16-1.057 0-.098-.16.221-1.107 0-1.414-1.34-1.845-3.16-4.526-3.185-7.072 0-6.223 4.39-10.097 10.958-8.474-2.042 5.202 2.177 19.813-4.944 18.719h-.012zm88.674-9.839c-1.722-1.673-3.407-7.379 0-7.379-.259-2.989 2.459-3.161 3.874-3.53-.074 1.23 1.119 5.571-.345 3.886a6.793 6.793 0 01-2.459 6.703c0-.43-.111-.836-.714-.701-.442 1.39.837 1.045 1.771 1.058 1.316-1.156 3.075-2.116 4.243-4.243 2.226 2.878 4.453 2.361 8.831 1.771.627-1.439.725-3.432 1.402-3.887-.775-.393-.787-1.549-1.058-2.46-.848.702-1.709-.614-2.46.357a2.671 2.671 0 01.089 3.118c-.207.308-.476.57-.79.769-2.988-.197-2.705-3.69-4.243-5.301-.233-5.473-3.911-15.521-.701-21.904a3.048 3.048 0 00-3.542-1.759c.222.91-.135 1.23-1.057 1.058.246 6.69-.615 14.168.713 20.133-2.263.32-2.73 2.324-4.243 1.758-.947 3.69-3.8 5.363-4.588 9.188-1.229-.763-1.389 2.25-3.886 1.414 0-1.23-.221-4.071-1.058-2.46-1.672-3.271.566-9.371-1.414-11.659a4.587 4.587 0 00-3.185 1.058c.811 2.644-1.009 5.214-.701 8.486-.357 0-.419-.295-.714-.357-.442 3.567-.344 5.67-2.46 7.06-4.698 3.087-2.595-10.688-3.173-13.418-1.23.246-1.82 3.689-2.115 6.002-.91-.935-.713.491-.713 1.414-.898-.64-2.362 2.976-1.058 3.53.43-1.329.701-2.829 2.115-3.173.763 3.935 1.722 6.604 3.53 7.059 3.026.775 3.985-2.374 5.3-3.173-.368-2.029.825-2.46 1.772-3.185 1.685 6.051 8.179 3.898 10.589 0a3.6 3.6 0 002.46 2.718l-.012.049zm-36.823 23.158c-.406.443-.713 2.792 0 3.186-.123-.984 1.009-2.485 0-3.186zm33.207-2.115a5.543 5.543 0 00-4.243 2.46c-.554-.603.43-1.587-.714-2.128.111 1.439-.123.799-1.057.713 0 1.452-.615 2.214-.345 3.887-1.02-1.046-.652.848-.713 1.758-1.673.923-2.263 2.928-4.243 3.543 2.226 1.008 4.317-2.571 6.014-4.244.344 1.034.861 3.764-.357 4.244 1.046.135.689 1.66 1.415 2.115.688-4.747 1.23-9.642 2.828-11.659.578.713 2.116.479 2.46 1.414.468-2.238-1.082-.283-1.045-2.103z"/></g><defs><clipPath id="clip0"><path fill="#fff" d="M0 0h328v288H0z"/></clipPath></defs></svg>