<svg width="328" height="288" fill="none" xmlns="http://www.w3.org/2000/svg"><g clip-path="url(#clip0)" fill="#EE7D00"><path fill-rule="evenodd" clip-rule="evenodd" d="M64.311 143.668c.164-.403.316-.794.782-.92 24.932.971 47.645-3.617 65.871-11.483-.227-2.831-.446-5.667-.656-8.507 1.475-7.462 20.571-7.311 14.823 3.567-2.155 4.046-10.361 3.907-13.613 6.604-.844 1.689 1.261 4.462 0 6.416-1.6-.756-.895-4.21-2.521-4.941-10.171 1.878-18.125 5.659-27.616 8.117 8.685 2.231 18.415 3.24 28.146 4.248 2.042-.63.983-3.92 2.155-5.294 2.017 0-.479 3.945 1.261 5.042 2.193 3.466 11.684.832 14.432 4.021 6.92 8.054-10.613 13.663-13.701 5.344-.22-1.99-.22-3.998 0-5.987-18.239-6.907-45.112-3.945-68.064-.756 2.52-1.904 6.794-2.042 10.928-2.521 5.042-.631 11.104-.114 13.865-2.786-7.31-1.676-19.02 1.777-26.092-.164zm80.492-21.604c-1.26-6.113-15.125-2.76-12.503 4.387 2.508 6.806 13.6.907 12.503-4.387zm2.836 31.511c-.97-5.533-15.642-3.869-12.163 3.076 2.181 4.298 13.172 2.508 12.163-3.139v.063zM18.457 126.627h1.664c2.798.365 2.722 3.491 4.6 4.6.885.372 1.8.667 2.735.883a5.795 5.795 0 012.635 1.853c1.26 1.878 1.26 6.302.302 8.709a32.89 32.89 0 01-1.953 2.937c-1.387 2.521-2.08 6.302-2.836 9.882a58.623 58.623 0 00-1.475 11.256 6.302 6.302 0 01-.202 3.025c-2.13.264-2.13-2.067-2.52-3.416-.92-3.101-1.664-5.911-2.85-9.1-.453-1.261-1.058-3.53-2.432-3.53-1.374 0-2.042 2.811-2.155 4.412-.164 2.092.088 4.474 0 6.844 0 1.462.088 5.445-1.475 5.382-.97 0-1.386-2.218-1.765-3.516-1.16-4.21-1.878-8.647-3.125-12.731-.807-2.609-2.13-5.042-2.937-7.626-.807-2.584-1.828-5.23-2.647-7.928v-1.764c.176-.67.408-1.323.693-1.954a8.562 8.562 0 017.563-4.601c.645.104 1.3.138 1.953.101.958-.214 1.98-1.802 2.937-2.445a9.23 9.23 0 013.29-1.273zm3.781 25.839c-.113-.769 1.576-1.097 1.954-1.374 1.966-1.462 1.525-3.781 2.344-6.466.215-.706 1.084-1.084 1.563-1.853 1.046-1.638 2.332-5.432 1.374-7.638-.958-2.206-3.895-1.349-5.672-2.635-1.399-.995-1.374-2.999-2.748-4.109a4.795 4.795 0 00-4.978-.201c-1.26.756-1.803 2.811-3.139 3.227-1.626.529-2.76-.215-4.109-.19a5.767 5.767 0 00-5.357 4.5 10.93 10.93 0 001.084 5.975c.48 1.26.883 2.596 1.362 3.781.983 2.445 3.113 3.907 3.78 6.441a.893.893 0 01-.982.403c1.714 3.252 2.458 8.029 2.936 12.516.164 1.5.089 3.126.883 4.311 1.777-3.466.24-9.945.882-14.583.34-2.445 4.147-2.66 5.672-1.172 1.929 1.89 2.193 7.701 2.735 10.965.19 1.097.19 2.521 1.185 2.925.807-.87.53-2.269.58-3.517.189-3.958.504-8.054.983-11.445-.605.164-2.193 1.172-2.294.164l-.038-.025z"/><path fill-rule="evenodd" clip-rule="evenodd" d="M12.193 132.324a9.761 9.761 0 013.78 1.866 6.82 6.82 0 015.282-1.765c-1.437.794-3.315 1.122-3.92 2.735 1.185 1.475 2.937 2.357 3.24 4.702-.442.101-.669-.492-.984-.782-1.071-.996-2.722-2.899-4.89-2.647a7.667 7.667 0 00-3.782 2.055c-.264.227-.529.68-.882.592.492-2.382 1.69-4.046 4.6-4.008-.113-1.576-1.5-1.954-2.444-2.748zm25.31 34.372c2.785-.302 6.1 2.092 9.276 3.781.19.971-1.399.996.114 2.042-2.32-.378-5.143-4.6-8.029-4.89a20.263 20.263 0 006.201 7.55c-1.008.328-2.268-.605-3.163.328a24.05 24.05 0 01-4.4-8.811zm80.252 47.418c-4.021-5.773-6.92-11.772-12.529-17.243 6.063 3.076 10.512 11.42 12.529 17.243zM4.857 216.093c1.26 1.84-.97 7.21 1.563 9.403 1.664 1.437 5.395.378 7.248.933 5.76 1.701 11.684 6.844 18.906 9.214 14.395 4.714 33.188 16.259 45.691 22.751-.34.567-1.033 1.184-.567 1.588-16.537-6.781-39.994-19.802-55.976-28.675-1.437-.782-2.42-.618-4.185-1.815a25.302 25.302 0 00-2.382-1.589c-3-1.159-6.769.303-9.277-2.294-2.168-2.243-.756-7.26-1.02-9.516z"/><path fill-rule="evenodd" clip-rule="evenodd" d="M111.868 219.988c-1.02.781.353 1.109.908 1.588-5.143-1.55-11.231-6.655-15.264-10.235a126.269 126.269 0 019.932 14.52c-.907.164-1.941-2.155-2.937-2.949.782 2.294 3.265 4.26 4.513 6.466-8.899-10.084-19.928-24.679-34.448-34.397-1.576-1.047-1.74-1.614-2.937-1.475-.668-.265-.466-.693-.227-1.135-5.735-1.802-10.222-6.302-14.923-8.533 8.936 18.062 24.566 35.141 45.842 50.418 4.575 3.227-3.492-1.261-5.206-2.521-.201.441.429.706.794 1.021-1.348.416-2.268-1.513-.68-1.928-2.294.063-1.992-1.904-4.626-2.61l-.908 1.336c-1.487-.642.77-1.197 1.135-1.689-1.98-.176-3.68 1.488-1.021-.68-.895-1.614-3.429-1.853-4.298-3.87-1.009-.668-1.26 2.836-2.382 1.362.529-.807 1.26-.605 1.714-1.815a136.152 136.152 0 01-16.184-16.172c-.681-.403-.366 1.399-1.362 2.029-1.26-.844-.126-2.13.807-3.39-9.605-9.983-15.793-18.403-25.41-27.352l1.36-2.029c1.261.668 2.522 2.092 3.618 1.928 0-1.575-2.407-2.659-1.462-4.424 8.508 3.706 16.21 14.621 26.104 20.445.567-1.261-1.992-1.954-2.37-3.063-1.336-.505-1.588-1.803-.113-.568 6.932 3.505 13.033 9.542 18.427 14.319-2.974-4.613-7.562-8.911-11.18-13.386.593-1.008 1.941 1.891 2.383.114-.404 1.411.592.932.1 2.042.492 0 .87-.542 1.475 0-.252.226-.567.113-.794.453 4.701 3.467 8.533 13.046 15.024 13.512-1.26 0-.605.404-1.588.895.618.164 1.26.076 1.815.24-1.096-2.635-3.604-5.193-6.302-8.168-.605-.189-.164.517-.68 1.008-.668-4.865-5.975-6.302-6.214-9.062-.29.58-1.652.592-.794-1.034-.265 1.576-2.521-.189-1.35-.907-.188-1.261-2.155.932-3.175.34-1.828-1.008-1.816-2.395-3.05-3.529.945-.87.088-1.387 1.033-2.256-1.059-.858-1.98-2.899-3.05-2.042-4.412-5.042-8.61-10.084-11.345-15.428-3.894-2.521-10.461-8.155-11.167-14.861-.479-.201-.794.441-.454.681-1.008.643-.302-1.487-.68-1.929 3.352 1.526 3.705 9.819 9.163 7.563 3.038-4.323-4.828-6.491-6.668-9.857 2.244 1.009 9.328 4.374 8.03 7.828 5.52.264 4.978 6.466 10.726 11.117 3.781 3.075 7.046 4.84 11.079 8.42-6-2.521-10.474-6.126-16.386-11.483-.176.807.857.92-.34 1.26 10.991 18.97 28.75 37.99 46.964 54.578.454 1.184-.567-.366-.971-.706zm-30.93-31.511c-1.413.353-2.522-1.853-3.177-2.609-1.361 1.651.492 2.646 1.916 3.781.1-1.235 2.03-.252 1.235-1.223l.025.051zm17.797 23.255c.907-.857.504.819 1.361.907.441-.617.214-.882-.454-.781a1.914 1.914 0 011.021-.794c-.655-.693-2.546-.29-1.928.668zM-2.328 236.348c11.873 1.488 26.343 7.135 36.893 10.954.693 0 .227-.656 1.349-.555 1.815 1.639 4.663.794 5.546 2.735 13.134 2.433 27.162 9.416 40.838 14.584 2.395 1.26 2.66 2.521.114.567-21.983-6.012-44.431-14.394-66.64-21.566-1.336-.807 0-.353.34-1.261-6.302-1.815-12.604-4.537-18.667-5.155-1.462-2.685-.794-3.491.227-.303zm-2.054 5.988c.945 1.487 1.134 3.113 2.37 4.537 10.915 3.782 22.158 3.252 31.687 8.47 1.26 0 .63-.63 1.916-.68 9.188 4.121 23.04 5.168 33.616 9.251 2.52.996 5.306 2.672 8.369 3.643 4.878 1.538 9.554 1.613 10.739 6.718-2.81-5.936-12.05-5.697-19.007-6.844-8.143-1.361-17.344-5.168-26.47-7.437-9.428-2.331-18.415-5.47-26.47-7.424-1.373-.315.48-1.26-.907-1.588-4.991-1.437-15.944-1.437-15.843-8.646z"/><path fill-rule="evenodd" clip-rule="evenodd" d="M8.373 259.238c.454-.189 1.021.176 1.362-.555-4.425-1.563-8.357-.579-12.605-1.046 11.054-3.126 23.62 2.836 37.46 4.954 11.231 1.714 22.399 2.521 30.793 5.394 2.698.921 4.374 2.521 7.008 2.748 1.79.114 4.664-1.966 6.567.467.845 1.071-1.714-.618-3.781-.126a37.046 37.046 0 01-10.865.088c-8.722-1.046-18.352-4.034-27.957-5.962-9.604-1.929-19.12-3.428-27.982-5.962zm-15.642 5.748c2.42 3.781 4.853 1.815 8.256 1.6 20.092-1.26 42.918 6.303 62.72 6.164 3.567 2.584 8.609 2.622 12.453 1.954 1.16 1.26 4.916 1.953 3.958 2.155 0 1.512-1.941-.945-3.504-1.374-3.97-1.059-8.823.794-13.134.542-9.188-.542-19.247-2.659-29.318-3.92-10.07-1.26-20.242-1.525-29.318-3.932.883-.505 2.055.529 2.937 0-4.248-1.652-11.243 2.231-15.05-3.189zm91.408-87.185c.655-.668 1.764.983 2.596 1.26-.315-2.924-3-3.541-5.873-5.898 3.176.453 4.966 3.781 8.142 5.457-.416.895-1.412-1.26-1.702.328.794 1.878 2.521 2.244 5.32 4.538-3.593-.618-5.32-3.706-8.483-5.685zm22.108 18.276c-2.433.757-4.853-3.529-7.689-6.125-1.89-1.74-3.932-3.164-5.041-4.891a36.553 36.553 0 0111.18 10.449c-.542-1.979.176-.164 1.55.567zm-14.546 43.788a392.059 392.059 0 01-38.027-26.873c-1.992-1.625-2.118-4.474-3.618-6.302-6.617-8.281-20.545-10.953-25.31-19.423 11.004 4.613 20.697 18.743 31.096 18.906 10.512 8.584 30.049 19.739 39.073 29.646a20.224 20.224 0 01-3.214 4.046zM7.037 204.774c2.773.706 7.147 6.945 9.844 3.656.252-4.235-6.025-3.114-8.936-5.042 4.852-2.723 10.083 1.26 14.596 3.882 10.89 6.151 25.498 11.609 35.065 16.613-3.844-2.672-9.995-5.294-15.377-7.84 15.566 4.878 36.767 16.638 47.707 30.011a230.17 230.17 0 00-61.761-31.07c15.125 14.482 38.695 28.297 56.405 36.83-16.588-1.26-35.293-15.012-49.65-24.919 5.244 1.475 9.908 6.391 13.69 6.706-7.185-4.462-16.89-12.327-23.735-15.907-.983-.517-2.66-1.26-3.05-.58-3.908-4.122-11.672-6.189-14.798-12.34zm44.191 31.587c.315-.378.643-.731 1.135-.214 6.012 4.021-2.798-3.189-3.05-2.055 1.197.656 2.117 1.349 1.915 2.269zm12.605-9.252c.416.341 2.42 1.702 1.588.58-2.118-1.79-3.895-1.827-6-3.529-.315-.101-.58 0-.781.454a55.247 55.247 0 005.18 2.495h.013zm13.348 7.966c-.996-.491-3.92-3.075-3.618-1.941.983.492 3.895 3.076 3.605 1.941h.013zM64.199 46.614c-1.26 7.563 1.336 18.983-2.004 25.575 1.538 4.235-.441 7.335-2.521 10.524-3.63-1.046-1.966-7.386-3.504-10.524-2.61 2.155-18.667 12.302-19.55 2.042-.302-3.782-4.31-6.82-3.504-13.538 1.878.933.895-7.184 3-6.012-1.26-3.39 2.697-3.781 3.013-7.02 1.79-.681 2.634.806 2.52-1.513 7.89 0 9.366 1.903 14.042 3.516.794-.214.428-1.575 2.004-1.008-.882-2.432.731-1.361.504-4.008a5.747 5.747 0 016 1.966zM41.637 53.17c-6.202 3.415-6.554 15.05-1.008 19.562 1.915 1.55 4.928.958 7.02 2.004.088-.593-.088-1.425.504-1.5 5.458-.252 4.639-4.45 6.025-8.03-.39-.113-.995 0-1.008-.503 2.722-2.962-1.387-9.693-.504-12.53a47.968 47.968 0 00-7.563-3.012c-.075 2.08-.328.101-1.008 0 .605 2.736-3.555.744-2.458 4.009zm-21.05-14.534c-2.307 10.499-1.765 21.59-4.02 33.59-.72 3.857-2.358 9.277-4.513 12.038-.58.743-1.979.73-2.521 1.5-.756 1.084-1.424 3.403-3.504 4.512-2.786 1.487-9.983 3.252-12.037 3.012-2.685-.315-4.664-2.873-7.563-3.012-4.689-7.487-12.075-18.29-8.47-27.074 1.853-.316 5.042.642 6.012-.505 1.11 5.672.908 6.719 2.004 13.538.088.592.92.428 1.5.504.832 4.903 2.521 5.899 5.042 9.529 2.042-1.639 8.571 1.26 8.52-2.521 4.727.277 7.198-6.63 7.563-10.525 4.664-4.802 1.929-11.268 3.013-17.054.815-3.108.987-6.351.504-9.529.403.101.504.505.996.505-2.143-11.344-1.046-22.852-.996-31.587.201-1.26-2.282.277-1.5-1.513-7.084.303-6.44-.73-12.037 0C-2.088 9.18-.16 10.036.584 6.482c.945 2.52 8.37-.416 8.533 1.5 4.059-3.605 9.415 1.16 13.525-2.521 2.18 2.332 4.07.693 5.962 2.08-.379 2.382.554 3.453.491 5.52-3.176.605-3.781.164-6.516-.504-3.139 2.37-1.148 6.718-1.5 12.037-.19 2.811-2.836 6.605-.996 11.533-.756-.857-2.269 2.987.504 2.509zm105.007-4.096c9.29 2.306 17.47.554 24.062 2.52a1.62 1.62 0 00-.368 1.389 1.619 1.619 0 00.885 1.132c-1.147 2.03-2.647 3.781-3.517 6.012-1.26-1.26-.39.82-2.004.504-2.798 5.042-7.915 4.55-9.529 10.525-1.601-1.26-1.386 2.697-3.516 2.52.365 4.312 0 4.866-.492 8.521 6.756-.239 9.693.177 12.604-1.512 1.173 1.55.29.202 1.992 0-.063 1.26.618.857.504 0 3.592 2.672 9.743-1.437 9.025 4.512-.063.542-2.294.353-1.008 2.005-3.404-.101-4.223 1.625-7.563.504-.819 2.634-2.143-.353-3 1.512-3.529-2.294-11.949 2.18-16.058-.504-.479 0-.391.618-.504.996-4.689-1.715-.933-7.361-2.004-10.084 2.596-2.193 4.386-7.903 6.516-12.037.693.794 4.071-3.1 2.004-3.517a7.33 7.33 0 004.021-4.008c-1.765-6.68-11.76-1.096-14.041-4.512 1.096-1.4 1.046-2.521.504-4.513.718-.39 1.928-.353 1.487-1.966zm-16.751-12.114c-.541 2.219.858 2.521 1.009 4.008-2.962 5.042-7.563 8.496-10.084 14.042-.995-.832-.642 0-2.004 0-2.092 4.096-6.718 7.688-4.512 12.037 5.584-1.916 14.218-.1 20.053-.504-1.26 2.785.177 4.626-1.008 6.516.618-.983-2.722-1.979-.996 0-8.634-1.096-18.037 1.601-22.562 0-2.609-6.403 1.35-9.264 2.004-15.037 2.61-1.26 4.122-3.567 4.513-7.02 3.504-.959 3.554-3.353 4.512-6.025-2.218-4.904-11.13-.404-15.037-3a12.808 12.808 0 00-.504-5.042c3.58-2.256 18.176 2.244 24.616.025zm36.389 65.783a17.44 17.44 0 01.706 5.873 13.36 13.36 0 01-6.428.555v1.676c1.852.832 5.041-.542 6.428.845a14.14 14.14 0 01-.277 4.613c-1.727.731-4.273-.227-6.429.277-.277.366-.075 1.261-.29 1.677a56.43 56.43 0 016.857 0c1.084.844.202 2.647.139 4.046 0 .756.479 1.449-.139 1.815-.617.365-1.147-.088-1.815-.139-3.542-.265-8.42.265-11.041.139-.593-2.521 1.26-6.706 0-9.353.315-3.995 0-7.877.832-11.18 1.827-.97 4.172-.34 6.302-.416 1.802-.063 3.579-1.084 5.155-.428zm-10.084 2.382c.258 5.73.119 11.47-.415 17.18 2.886-.542 6.176-.101 9.365-.139.141-.69.234-1.389.277-2.092a65.6 65.6 0 00-6.983.138c-.983-1.046 0-3.592 0-5.041 1.525-.883 4.386-.467 6.706-.568v-1.65c-2.521-.303-5.357.592-6.706-.417.328-1.386.126-3.315.555-4.613 1.26-1.122 4.487.126 6.151-.832-.416-.655 0-2.193-.568-2.66-2.407.895-5.659.215-8.356.706l-.026-.012zm26.86 10.071c3 3.781 1.891 9.668-3.504 9.92-3.1.138-5.936-.92-9.214-.984-.68-5.861 1.437-12.05 1.122-18.024.378-.491.933-.832 1.109-1.525 1.412-.945 2.824-1.26 5.584-.983 3.076.365 5.874.983 6.996 2.937 1.626 2.86 1.386 7.777-2.093 8.659zm-4.613-.277c.101-1.349 3.151-.908 4.185-1.4 1.89-.907 2.143-4.55.706-6.428-.744-.958-6.063-2.067-7.828-1.815-2.521.353-2.142 2.924-2.382 5.307a562.915 562.915 0 01-1.26 11.734c2.949.253 8.533 2.017 10.474-.277 1.122-1.26.239-3.315-.277-5.042-.492-1.374-3.769-.39-3.618-2.079zm28.209-10.059c.089 1.26-.605 2.345-.832 3.782-.189 1.16 0 3.214-.983 3.491-.983.277-2.621-1.765-4.6-1.122a80.312 80.312 0 01-2.093 10.487c1.16.454 3.429-.189 4.046.832 0 2.798-4.159.076-5.596 1.538-1.487-.958-7.109 1.134-7.815 0-.92-1.475 2.156-1.841 3.353-2.093.101-3.441.681-6.403.832-9.78-1.487-.593-3.164.365-4.323.138-.832-1.664.491-4.349 0-5.722 1.033-2.017 3.869-1.69 6.567-1.677 2.697.013 6.302-.113 9.213-.29.87-.063 1.702-.44 2.231.416zm-15.919 2.093c-.101 1.058-.366 1.966-.416 3.075 1.84 0 2.786-.189 4.323-.277.517 1.575.164 3.567 0 5.584a62.344 62.344 0 00-.693 6.566c.756-.075 1.475-.201 2.231-.277.567-3.781 2.521-7.411 1.815-11.596.87-1.588 4.021-.655 5.874-.416-.101-1.185.832-2.773.416-3.353-4.16.593-9.882-.39-13.55.694zm-60.073 19.272c.971 4.474-6.214 5.722-7.411 1.966-2.521 1.802-8.546 4.954-11.584 1.815a9.248 9.248 0 01-1.953-4.059c-.731-4.411 4.424-10.423 9.907-8.659-.215-1.853.668-5.962-1.11-6.428-2.961-.756-1.915 3.895-3.92 5.168a2.911 2.911 0 01-3.352-.278 10.611 10.611 0 012.937-8.243c.29-.24 1.008-.428 1.537-.832.53-.403.757-.92 1.26-1.122a6.302 6.302 0 017.69 2.799c.983 2.269.289 5.873.416 8.936.126 3.063 1.121 7.991 2.924 8.521.945.277 2.621-.315 2.659.416zm-7.411-8.357c-.252-3.214.718-6.403-.277-8.672-.769-1.74-2.874-2.37-5.168-1.954-1.84 1.803-5.055 3.883-4.6 7.248 1.26-1.853 1.814-5.52 4.738-5.584 4.362-.1 3.517 5.937 3.643 9.643-1.828 1.474-4.185-.189-6.302.693a9.097 9.097 0 00-3.492 4.059c-.655 1.726.076 4.676 1.4 5.583 1.323.908 4.02.504 5.306 0 1.979-.781 3.454-2.521 5.445-3.075.895.769 1.185 2.836 2.66 2.937a2.76 2.76 0 001.953-1.122c-4.159-.252-4.966-5.571-5.306-9.756z"/><path fill-rule="evenodd" clip-rule="evenodd" d="M154.182 97.864c-.492-1.26.252-3.68-.139-5.042 2.395-1.651 6.302-.605 6.705 1.954.467 3.327-3.163 4.07-6.566 3.088zm1.815-3.782v2.093c4.361 1.374 2.709-3.555-.013-2.08l.013-.013zm-27.528 17.609a92.958 92.958 0 01-4.462.983c-1.626-2.761-.568-8.193-1.122-12.012a55.134 55.134 0 00-6.302 1.122c-1.878 2.42 1.903 8.117-.139 10.196-.845.858-3.681.782-4.475-.289-.1-4.122 1.009-10.765-.416-14.382.568-.63.076-1.487.568-2.231a25.42 25.42 0 016.705-.706c.782 0 1.475.403 2.231.416a25.175 25.175 0 003.214-.693 27.432 27.432 0 003.214-.416c1.526-.441 1.198 3.605 1.11 5.584-.152 3.705.176 9.113-.126 12.428zm-1.815-15.92c-4.236 1.097-8.824.328-13.273.832 1.412 3.504.504 10.361.416 14.117.555.076.693-.252 1.26-.139-.289-3.541-1.26-6.63-.277-10.083a22.284 22.284 0 019.504-1.538c1.046 3.013.555 7.563.693 11.458.643.075.87-.253 1.538-.139.555-4.424.076-9.945.139-14.508zM70.778 98.14c1.651-2.52 7.096-4.6 9.075-1.108 2.76 4.852-1.979 12.516-.277 17.457.214.617.882 1.462 1.26 1.538 1.626.327 2.231-2.181 3.908-1.122 1.386 2.924-1.941 5.974-5.168 5.873a4.94 4.94 0 01-4.89-2.936 13.045 13.045 0 01-.971-1.815c-1.374-4.916 1.6-8.748 1.109-13.412-3.151.681-2.924 5.988-3.907 9.366-.24.806-.807 1.525-.984 2.231-.365 1.6-.176 3.541-.416 5.306a58.602 58.602 0 01-1.676 7.563c-.958 3.441-1.916 8.558-6.012 6.705-.48-2.874 1.424-5.634 2.105-9.226.403-2.156.29-4.639.554-7.122.265-2.483.719-4.941.845-7.411.277-5.47-.668-14.57 3.353-14.936 1.184-.126 2.331 1.184 2.092 3.05zm8.823 19.424c-5.647-3.554 2.168-17.268-2.395-20.532-3.24-.265-5.041 2.054-6.012 4.046-.416.932-.277 2.332-1.4 2.243-1.827-.151-.239-4.563-.97-6.15-1.94 2.52-1.374 6.302-1.537 9.919-.404 8.899-1.26 18.201-3.643 25.209 1.815-2.521 2.584-5.861 3.353-9.365.769-3.504.945-7.475 1.399-11.344.151-.454.769-.441.983-.832.87-4.412 1.084-10.89 6.705-9.642 2.143 4.159-1.613 9.012-.693 13.965.215 1.198 1.16 1.916 1.538 3.214 1.714.681 4.474 1.11 5.445-.554a3.333 3.333 0 01-2.798-.177h.025zM45.355 98.847c0 1.437.996 3.781.277 5.041-1.525.114-3.491-.365-5.041.278-1.337 3.516-.681 8.999-1.538 12.995a15.988 15.988 0 01-5.445-.706c-.694-2.874.479-6.189.138-9.63-1.89-.869-5.142-.365-6.995-1.26a20.975 20.975 0 01-.958-6.013c1.046-.844 2.433-.466 3.781-.416 4.992.152 11.294-.92 15.781-.29zm-17.747 1.966c.214 1.134.53 2.168.693 3.353 2.521.605 6.769-.278 7.412 2.092a6.309 6.309 0 01-.139 1.538 50.104 50.104 0 01-.416 7.26c.97-.088 1.525.239 2.52.151.303-4.033-.264-11.344 1.955-12.718 1.058-.63 2.52-.365 4.197-.567 0-.554-.252-.769-.139-1.386-6.113-.202-10.487.97-16.083.277zm33.943 9.63a24.049 24.049 0 01-9.352.832c-.454 4.373 3.479 4.537 6.428 3.075.542-.277 1.929-1.739 2.786-1.538 1.815.429.315 3.605 0 4.059-1.097 1.588-4.475 2.748-6.983 2.849-5.584 0-10.626-5.509-8.105-11.66a13.54 13.54 0 016.706-6.428 13.03 13.03 0 015.306-.554c2.597 1.449 3.958 5.508 3.214 9.365zm-3.63-7.412a8.997 8.997 0 00-4.474.416c-2.723 1.147-6.202 4.79-5.861 8.71.504 5.685 8.47 7.222 11.873 3.781-4.059 2.849-9.983.164-9.214-4.752.492-3.176 4.046-.718 6.706-1.815-1.853 0-3.782.114-4.89-.693a4.034 4.034 0 014.348-4.386c1.84.327 3.92 4.563 1.399 5.042a15.086 15.086 0 012.23-.278c-.453-2.344-.403-5.281-2.117-6.025zm-3.63 4.336a5.278 5.278 0 002.66 0 1.374 1.374 0 00-2.66 0zm98.353-.554c-.366-1.475.365-3.265-.139-4.198 1.991-2.596 6.302-.642 6.567 1.954.315 3.013-3.845 3.302-6.428 2.244zm2.079-3.479a12.931 12.931 0 00-.277 2.092c.958-.075 2.244.189 2.798-.29a2.195 2.195 0 00-2.521-1.802zm-62.013 5.71c.882-2.206 6.226-2.647 6.844-.139.807 3.24-4.714 5.597-6.428 3.214-.58-.806-.24-1.676-.416-3.075zm2.092.555a3.654 3.654 0 00-.139 1.399c1.362.327 2.9-.227 3.076-1.538-.87-.517-1.941.012-2.937.176v-.037zm156.976-95.757c6.504 2.849 10.02 13.563 7.134 21.226-.63-.075-.832.277-1.26.454a6.899 6.899 0 01-1.967-1.26c0-.454.164-1.173-.302-1.261 2.155-4.89.781-12.226-1.664-16.386-.681-.945-1.752-1.65-1.941-2.773zm1.625 35.658a4.758 4.758 0 01-.756 2.887c-2.521-.29-3.643-1.765-6.529-2.13-5.546-.694-11.546 1.79-14.848 4.247-.151-1.26 1.26-1.953 2.118-2.52a20.17 20.17 0 012.873-1.828 30.813 30.813 0 015.761-1.26c4.146-.908 8.243-2.282 11.381.604zm45.326 27.592c.152.617-.806.895-.756.15.366.064.328-.276.756-.15zm-25.171 15.314c.151 0 .126.19.151.302-2.344 5.433-13.865 6.227-18.188 1.816 2.962.176 5.369 1.726 8.042 1.827a14.558 14.558 0 009.995-3.945zm53.669 42.149c.114.97-.239 1.475-1.26 1.361 0-.126-.126-.265-.303-.302-.163-1.286.971-1.828 1.563-1.059zm-85.344 19.713c-1.954-1.058-.189-3.932 1.26-3.945 2.534-.012.681 4.437-1.26 3.945zm1.512 3.479a2.52 2.52 0 012.42-3.63 2.524 2.524 0 01-1.142 3.373 2.512 2.512 0 01-1.278.257zm10.463-.756c-.064 1.79-1.601 2.281-3.038 2.269-.328-.555-.139-.731-.303-1.362.744-.781 2.055-1.941 3.341-.907zm-4.098.151c-.201 1.752-1.424 4.097-3.34 2.735a2.703 2.703 0 01.986-2.203 2.705 2.705 0 012.354-.532zm-19.259 36.238c-.378 0-.466.277-.756 0 .088-.378-.341-1.45 0-1.979-1.173-1.26-2.736-1.424-4.097-2.118a3.175 3.175 0 011.979-2.52c.933.781 2.735.794 3.176 1.663 1.551-1.386 3.404-2.521 5.307-1.058 1.891 4.083-1.866 8.558-5.307 6.97-.126-.252-.453-.441-.302-.958zm4.248-1.059a3.254 3.254 0 00-2.42-3.34 2.441 2.441 0 001.227 3.109c.372.176.782.256 1.193.231zm-13.336 60.186c1.374-1.121 3.403-.605 5.155.303.719 3.781-3.138 6.907-6.062 4.853.164-.807-.567-1.349-.151-2.282-2.005-.958-3.782-2.622-5.925-3.781a4.682 4.682 0 011.828-2.433 18.793 18.793 0 015.155 3.34zm3.328 3.177c-.58-.568-1.034-1.261-2.269-1.261a1.6 1.6 0 002.269 1.261z"/><path fill-rule="evenodd" clip-rule="evenodd" d="M351.793 128.946c-4.928 1.992-9.516 6.592-15.616 5.912a10.78 10.78 0 01-11.823 3.491c-2.71 2.899-4.563 6.643-6.819 10.008a21.49 21.49 0 015.041 8.936c1.387 5.471.404 11.685.152 17.432 1.5 2.761 2.029 6.807 2.735 10.777.34 1.891 1.084 3.655 1.361 5.445.416 2.609.945 6.63-.302 8.193 1.562-.353 3.541-1.109 4.701-1.361.794 11.142 4.664 24.843 5.458 36.83.441 6.58 1.336 12.705.605 19.865a31.706 31.706 0 01-3.177 10.159c-1.815 3.781-3.214 6.567-7.739 7.273a5.83 5.83 0 01-1.966-2.723c-.794 0-.907.718-1.513.908-.794-1.084-2.092-1.324-3.037-1.967-.946-.643-1.677-1.727-2.735-1.979.63-.176-.467-.668-1.059-.907-.303-1.198-1.261-.819-1.513-1.966-.592.189-1.172-.769-1.361-1.374-.529.315-.744-1.261-1.828-1.362 0-1.26-1.915-2.016-2.268-3.478-1.084-.215-1.727-2.521-2.736-2.887a1.057 1.057 0 00-.756-1.059c-.189-.781-.857-.97-.756-1.663-2.168-1.664-3.202-4.967-5.042-6.53-1.26-2.294-2.004-4.31-3.643-6.214a5.553 5.553 0 00-1.663-2.873c-.479-.908 0-1.261-.605-1.677-.063.265.227.391 0 .454-.089-.996-1.261-1.941-1.059-2.722-.706.138-.756-2.005-1.513-1.816a11.859 11.859 0 00-1.979-4.247 5.945 5.945 0 00-1.966-3.643c.555-.542-.201-1.966-.605-1.966.34-.454-.403-2.143-.756-2.887a34.833 34.833 0 00.151 15.466 3.048 3.048 0 01.756 2.281c.467 0 .391.24.757.605a17.64 17.64 0 002.873 5.156c-.403.39.19.453.152.907.932 0 .58 2.143 1.374 1.513v1.058c1.361.605 1.084 2.231 2.521 2.887-.139.996 1.411 1.928 1.361 2.874 1.26.365 1.664 2.747 2.521 3.037.252 1.399 1.966 2.03 1.815 3.341.605 0 .655.554 1.071.756.656 1.424 1.727 2.937 2.521 4.399a41.038 41.038 0 003.038 4.235c.806 2.231 2.823 4.046 3.176 6.214 1.197.428.769 2.004 1.815 2.521a16.475 16.475 0 002.584 5.609c0 .428-.416-.366-.303.302.416.214.442.832.757.756.466 2.698 1.651 4.147 2.13 6.517h-5.773c-1.689-4.853-3.517-7.802-5.458-12.126 0-.529-.554.379-.605-.151.706-.718-1.348-1.727-.907-2.722-.567.29-.328-.152-.757-.315-.214-1.967-2.331-3.126-2.873-5.294-.303.832-.341-1.513-1.072-.618a4.964 4.964 0 00-1.966-3.176c-.517-2.118-1.891-2.521-2.13-3.945-.189-.391-.719 0-.756-.303-1.059-2.521-2.786-3.693-3.63-5.911-.303-.492-.353.542-.618 0 .302 0-.227-.568.164-.757-.278-.466-.479.416-.618 0-.592-1.26-.744-1.941-1.664-2.521-.201-1.563-1.474-2.52-2.117-4.235 0-.542-.303.643-.454 0-.076-1.058-.492-1.008-.605-2.13-.416-.264-.302.668-.466.151-.164-.516-.29-1.109-.454-1.663-.164-.555-.303.428-.454 0-.479-2.194-2.092-4.059-2.117-6.517 0-.542-.505.315-.454-.151.063-3.681-.807-7.853.302-11.218-.769 0-.403 1.26-1.058 1.361.42-1.376.625-2.809.605-4.247 2.848-3.971 4.474-9.983 9.1-11.672-.34.731-.844 1.26-1.26 1.966a7.135 7.135 0 011.827 4.399c.416.265.429.114.756.303-.352.516.24 1.071.454 1.512.794 1.727 1.122 3.101 1.815 4.399a32.01 32.01 0 002.433 4.248c.34 2.042 2.307 3.239 2.269 5.155.264.29.857.265.907.756v.908c.353.214.58-.391.605 0a4.364 4.364 0 001.374 2.432c0 .202-.227.29-.151.605.63-.378.277.845 1.059 1.059-.416.429-.164.101.302.756.063.101-.202.24-.151.303.05.063.454-.151.454-.151.239.378.264.743.453 1.059.479.794.921 1.903 1.815 2.281 0 1.361 1.601 1.954 1.815 3.327 1.198 1.135 1.778 2.887 3.189 3.782a2.932 2.932 0 001.664 1.979c-.126 1.336 2.193 2.205 2.13 3.479 1.034 0 .845 1.26 2.118 1.512a1.38 1.38 0 00.151.908c3.429 2.306 6.403 8.155 10.159 11.533 2.269.151 4.601 0 5.761-1.677a18.285 18.285 0 001.827-4.689c.562-2.337.867-4.73.908-7.134 0-1.588.239-3.214.302-4.852a53.802 53.802 0 00-.756-6.214c-.328-3.63-.101-7.563-.605-11.067-.189-1.261-.681-2.521-.92-3.781-.265-1.437-.214-2.925-.454-4.387-1.26-7.84-3.29-15.125-3.63-23.205a33.87 33.87 0 01-11.231 2.736c-1.701.164-3.378 1.071-5.041.151.401 1.897.654 3.823.756 5.76 0 .845-.441 1.626-.454 2.42.163 1.442.467 2.865.908 4.248.277 1.525.403 2.975.605 4.55 0 .252.416.088.453.303.858 6.617 2.773 13.638 5.609 18.339-.617.908-1.096 1.941-2.268 2.281a52.285 52.285 0 01-4.248-12.125c-.214 1.891-1.916 4.26-.908 5.911-.731.845-1.26 1.891-2.432 2.269.63-4.273 2.521-9.403 1.979-13.335-2.395.441-4.009 1.651-6.366 2.117.984-2.294 3.53-3.025 6.063-3.781-1.954-15.251-6.68-24.037-11.218-36.376-.479-.253-.63.554-.769.151a4.39 4.39 0 01-.605-3.189 2.089 2.089 0 01-2.42.454c-.517-.857.454-2.231.303-2.723-.605-.517-.605-2.218-1.362-2.886a128.913 128.913 0 01-8.041 11.974 116.914 116.914 0 00-7.563 12.44c-2.42 4.185-5.18 8.193-7.562 12.428-2.383 4.236-5.534 8.143-7.424 12.731-5.269 6.113-8.824 13.865-12.882 21.226a2.59 2.59 0 00-.151 1.26c-4.324 5.773-7.714 12.491-11.836 18.491.958 2.811 1.928 4.248 2.886 6.97 0 .542.505-.315.454.151v.908c.227.454.504 0 .756.466.076.744.063.807.152 1.362 1.878 3.012 3.163 6.377 4.55 9.087a54.729 54.729 0 01-6.517-.151c.076-.92-.819-.983-.756-2.269-1.878-2.193-2.18-5.344-3.945-7.272-.29-1.261-.882-3.441-1.361-3.341-.366-.302-.694.555-.92.908-.996 1.588-1.904 3.567-2.723 5.042-.454.138.454.126.151.605a163.475 163.475 0 01-2.269 3.642c-.781 1.21-1.26 3.101-3.188 2.874.655-1.512 1.663-2.685 2.42-4.084-.395.084-.547-.067-.454-.453 1.424-2.282 2.823-5.546 4.55-7.891.58-.781 1.702-1.701 1.828-2.42.126-.718-.631-1.512-.92-2.281a11.518 11.518 0 00-.908-2.723c-4.248 4.929-6.201 12.025-10.008 16.827.177-.945.214-2.017.303-3.038 1.777-1.525 1.815-4.172 2.886-6.214 1.79-3.415 4.739-6.012 6.214-9.705a66.098 66.098 0 01-2.723-9.857c-2.785-9.554-2.016-19.058-1.071-29.103-.87.441-.353 2.269-1.059 2.886-.479-4.222 1.261-7.714 1.664-11.344.117-1.896.425-3.775.92-5.609.996-3.302 2.03-6.403 3.177-9.239 1.676-4.121 2.42-8.382 4.55-11.974 0-.403-.479-1.021-.152-1.26.593-.24.316.403.605.453.757-1.26-.252-3.365-1.058-3.932a11.083 11.083 0 00-1.059-3.34c-.088-.366-.328.529-.454-.152-.075-1.172-1.361-1.815-2.432-2.42.39-1.159-1.551-1.777-1.261-2.886-.567.328-.328-.303-.756 0-.618-3.164-2.521-4.815-2.735-7.878-3.87-5.042-7.563-9.731-11.521-14.709-1.575-.101-1.84-1.5-3.025-1.979a8.544 8.544 0 01-.605-1.815c2.622-3.58 7.563-4.903 9.844-8.823-2.937-1.626-6.037-2.71-8.634-5.156-.718-1.84-3.05-2.747-3.781-4.84-.933.391-.946-1.424-1.664-1.26-.353-1.513-2.118-2.521-1.828-3.933.29-1.411 3.542-3.441 5.458-4.399 1.588-.794 3.58-1.676 5.042-2.432.605-.315 1.424-.467 1.828-.757.642-.453 1.071-1.411 1.663-1.966.782-.744 1.878-1.059 1.967-1.966-2.521-.202-3.908-2.042-5.458-1.979.441-.378.189-.265-.303-.151-1.058-2.118-1.865-4.576-2.873-6.819-1.009-2.244-2.269-2.899-2.584-5.156-.719-.945-1.765-1.575-1.967-3.037-1.411-.202-1.575-1.55-2.886-2.118a7.853 7.853 0 00-3.63-.151c-.958.24-2.181 1.084-3.34 1.513-.845.315-1.841.277-2.42.605-.58.327-.971 1.26-1.513 1.827-1.26 1.399-3.088 2.382-3.945 3.328-.139.743.202 1.008.302 1.525-.542-.126-.705-.618-1.373-.618-1.563 1.626-2.988 3.378-4.538 5.042-.303-.151-.24-.668-.756-.605a62.587 62.587 0 00-6.681 8.193c-2.924 4.046-5.52 8.331-8.331 12.428-5.622 8.18-12.037 15.919-16.386 25.209-3.529 7.562-8.369 14.117-11.672 21.528a121.667 121.667 0 00-4.247 12.126 87.242 87.242 0 00-3.782 20.318 2.448 2.448 0 01.303 1.966c.176 1.059 1.26 2.66 1.26 3.945.567.429 1.261 1.362 1.261 1.967 1.021-.378.63 1.386 1.525 1.26-.114.454.265.441.151.908.832 0 .945.668 1.261 1.26a44.868 44.868 0 015.155 3.781 5.15 5.15 0 011.966.908c.643-.164 2.206.769 2.886 1.059.795-.265 1.652.164 2.723.605 0-.177 0-.429.151-.454.366.227-.29.479.315.454 1.677-.164 2.887.517 4.689 0 .378.403.731.277 1.525.453.984-.1 2.017.001 2.723-.151 2.672-.554 4.5-.63 6.819-1.059a25.511 25.511 0 0011.344-5.457c3.945-3.114 7.474-4.84 8.823-9.554.24 0 .126.39.454.302 2.647-5.533 5.546-12.68 6.365-18.188-.454-.315-.076-.807-.302-1.513-1.916.353-2.988-.39-3.933.152 0-.29-.101-.517-.315-.618-1.021.378-2.029-.202-3.176-.454a26.296 26.296 0 01-4.853-1.059c-.353-.163-.504-.554-.908-.605-.403-.05 0 .379-.151.303-.151-.076-.302-.429-.605-.605-.302-.176-.655-.202-.756-.454.101.24-.303.656-.315.303-.378-.542-1.021-.391-1.513-1.059 0 .706-.34-.177-.605-.151-.895.264-1.399 1.727-2.269 1.512-.063-.907.845-1.525.454-2.269-.139-.516-.807.114-.756-.768a37.194 37.194 0 01-11.672 9.402c-4.411 2.32-8.609 5.647-13.865 6.517-.201.416-1.122.895-1.361.769.681-2.256 2.307-3.555 3.781-5.042a32.638 32.638 0 0010.159-4.399c1.261-.781 2.521-1.172 3.782-1.815 2.697-1.399 4.915-3.378 7.285-4.853.845-1.676 2.256-2.798 3.176-4.399-.1-.365-.302-1.411-.151-1.525 2.609 1.009 4.979 1.803 6.97 2.735.732-2.76 2.017-4.953 1.979-8.495a40.268 40.268 0 01-2.584-6.063c-.264-.92-.176-1.966-.453-2.873a48.493 48.493 0 00-3.946-8.042c-.567.076-.529-.466-.907-.605-1.172-3.315-3.882-5.118-4.853-8.647.605-.832 1.374-2.231 2.282-2.269 1.512.807 2.609 2.042 4.235 2.736-1.727-4.135-5.244-7.122-5.748-11.987.719-.933 1.198-2.118 2.42-2.521 1.929 1.26 2.95 3.189 4.853 4.55.416.454-.328-.554.302-.302.883 1.336 1.904 3.34 3.177 3.781-.946-3.378-2.269-8.395-3.025-12.428-.53-2.811-.92-6.126 2.117-7.122 4.487 4.601 6.744 9.681 9.554 15.92.568-5.395-1.134-13.361 2.736-15.466 3.97 9.718 4.903 19.285 6.667 29.86a41.804 41.804 0 013.177-5.042c1.058-1.474 2.079-3.592 4.399-3.781.075 3.252-1.916 5.319-2.269 8.029a24.073 24.073 0 00-.152 5.458c.101 1.172.555 2.432.605 3.781.278 7.096-5.344 11.823-8.646 15.466a29.875 29.875 0 01-1.815 7.562c.088.315.769 0 .605.605-.164.605-1.059 1.261-.908 1.677.542-.555 1.437.101 1.815 0-.201 8.495-4.147 15.995-7.877 22.889.302.731.605-.958 1.512-.605-1.147 7.084-1.033 14.017-1.361 21.831.592 5.571.214 12.378.756 18.642 0-.151.063-.378.151-.151-.042 2.386.11 4.772.454 7.134 0 .416.353 1.261-.151 1.361.189.336.341.691.454 1.059-.139.416-.668-.29-.303.303.076.378 0 .315.454.453-.492 2.748.819 5.042.302 7.122.315.353.315 1.008.605 1.374.505 5.684 3.404 13.865 5.458 19.398-1.878-.189-4.525.391-5.911-.303.403-.428-1.727-3.995-1.362-5.608-.605 0-.403-.706-.756-.908-.517-3.491-1.449-7.348-2.281-11.52.479-.391 0-.744.151-1.815-.63-4.803-1.109-9.013-1.361-13.802-.114-2.143-.139-4.664-.152-6.517 0-5.42-.428-9.617-.453-15.012 0-3.075 0-5.747.302-9.554.321-1.596.422-3.229.303-4.853-.177-.831-1.084-1.348-.908-2.268-5.521 6.075-12.163 11.772-20.318 14.709a50.46 50.46 0 00-9.391 1.664 48.868 48.868 0 00-7.436-.303c-.466-.58-1.059-.075-1.664-.151-1.828-.227-3.693-1.538-5.155-1.26 0-.492-.53-.492-.756-.757-.492-.189-.114.492-.605.303.315-.504 0-.454-.316-.151-.554-.706-1.613-.984-2.52-1.677a13.126 13.126 0 00-2.736-1.966c-.315-1.071-1.638-1.714-2.42-2.735-.781-1.021-.97-2.319-1.815-2.521-.088-1.021-.806-1.412-.92-2.433 0 .454 0 .53-.302.315-1.992-7.562.491-15.339 1.827-22.448 1.803-4.513 2.773-9.252 4.551-13.638a98.19 98.19 0 016.214-12.277c4.575-7.979 8.495-16.134 13.335-23.658 2.382-3.681 5.042-7.21 7.739-10.765 2.698-3.554 4.765-7.562 7.273-11.218 3.781-5.482 7.563-11.104 12.125-15.616 1.551-1.538 2.773-3.605 4.853-4.551.202.379-.441.631 0 .769 0-.454.353-.567.605-.769-.176-.781-1.172-1.008-1.512-1.966-.09-.601-.14-1.207-.152-1.815a47.789 47.789 0 01-1.26-5.306c-.391-5.37-.504-9.706.454-13.802 1.462-6.302 3.882-12.214 5.609-17.647a33.25 33.25 0 001.966-7.272 31.032 31.032 0 00-.303-5.042c-.516-8.407 2.433-16.386 5.609-22.902a62.47 62.47 0 014.551-6.97c3.1-4.651 5.243-7.424 9.1-10.16a31.2 31.2 0 018.634-5.155c3.567-1.626 7.26-3.504 11.52-3.945 1.021.68 2.294.53 3.341.92.932-.718 1.197-1.361 1.663-1.676 3.782-2.395 12.542-2.004 17.647-1.664a21.693 21.693 0 0110.764 3.34c.907.53 1.764 1.349 2.874 1.966 1.651.908 3.567 1.26 5.306 2.118 5.722 2.76 12.768 6.504 15.125 12.138a12.592 12.592 0 01-.151 9.857c4.601 3.315 6.479 7.562 8.495 13.033a44.461 44.461 0 012.421 8.029c.693 4.033 1.588 7.978 3.781 10.31 3.088 3.29 6.92 5.042 8.823 8.647a27.189 27.189 0 011.979 17.583c-.227.983-.252 2.08-.454 3.038a57.987 57.987 0 01-3.34 10.915c-.466 1.097-1.387 1.903-1.815 2.874-.643 1.462-.542 2.798-1.261 4.096 0 .088-.441.227-.605.454-.605.87-.945 1.26-1.512 1.966-2.521 3.227-6.655 11.344-2.887 15.781 3.467.63 6.504-.189 6.983-3.34a13.403 13.403 0 01-2.445-2.004c2.685-2.521 5.571-1.5 8.344.151a10.803 10.803 0 015.609 7.563 5.563 5.563 0 011.815-.454c-1.424-2.521-2.861-3.781-3.327-6.302a8.167 8.167 0 01.756-5.156 16.596 16.596 0 016.516-7.436 45.3 45.3 0 004.551-3.025c.353-.328.567-.794.907-1.059a31.51 31.51 0 014.399-2.521c3.139-1.701 8.206-3.164 11.067-.756h.151v3.34c-1.374-.517-2.987-2.344-4.096-2.13a6.65 6.65 0 011.058 2.521 4.234 4.234 0 01-2.722 1.512c-.681-1.6-1.059-3.491-2.521-4.247.101-.315.781-.568.151-.757a7.627 7.627 0 01-1.512.605c.907 1.778 2.521 2.849 3.34 4.702a4.843 4.843 0 01-2.584 1.512 40.376 40.376 0 01-3.63-4.701 6.754 6.754 0 00-1.979 1.374 7.336 7.336 0 013.416 3.844c-.92.454-1.336 1.412-2.735 1.361-1.059-1.159-2.395-4.575-4.248-3.025 1.249.859 2.33 1.94 3.189 3.189a10.338 10.338 0 01-2.723 1.513c-1.021-.895-1.664-2.181-2.886-2.887-1.021.303-1.462 1.16-2.118 1.828a4.056 4.056 0 013.63 2.269 3.953 3.953 0 01-2.521 1.512 4.827 4.827 0 00-2.52-1.966c-1.122 1.966-2.42 4.802-1.261 7.424a4.799 4.799 0 013.391-2.823c-.996 1.386-3.088 5.041-1.362 6.667a5.047 5.047 0 013.933-4.247c-1.197 1.79-2.521 4.966-1.664 7.436.706-1.979 2.042-4.121 4.097-4.247a13.591 13.591 0 00-2.282 6.214c.492.126.668.554 1.059.756.756-1.765 1.689-4.185 3.781-4.084-.731 1.563-1.689 3.781-.453 5.458 0-.189.277-.139.453-.151 0 2.42 3.681 1.625 5.156 1.058a10.629 10.629 0 00-.605-6.062c.995-.379 1.449-1.261 2.886-1.261.756 1.525.479 4.172.605 5.912a6.052 6.052 0 001.361-.605 10.793 10.793 0 00-.453-4.84 4.087 4.087 0 012.886-1.526 12.99 12.99 0 01.139 4.853 7.18 7.18 0 001.373-.605c.278-1.097.606-3.781-.151-4.853.303-.353.542-.769 1.059-.907l.05 5.949zM239.614 5.082c-7.79 1.412-14.546 5.156-20.318 9.1 0-.087-.114-.176-.152 0a45.012 45.012 0 00-7.121 7.727c-1.45 2.093-2.735 3.946-4.248 6.214a36.657 36.657 0 00-2.722 4.853 55.57 55.57 0 00-3.643 10.462 68.925 68.925 0 00-.908 8.041c-.138 2.219.442 4.336.303 6.97a18.588 18.588 0 01-.756 3.946c-.87 2.911-1.677 5.697-2.735 8.482a83.406 83.406 0 00-4.248 14.105c-1.009 5.47-.908 13.247 1.071 17.432a72.335 72.335 0 0110.311-8.496c-2.03-2.281-1.626-8.293 0-10.751a6.843 6.843 0 013.327 2.269 12.856 12.856 0 00-1.059 7.562c2.521-1.689 5.975-1.525 8.95-.302 1.437 2.748 2.962 5.584 4.247 7.739a24.37 24.37 0 005.597 8.823c0 .479-.24.844-.152 1.26a16.092 16.092 0 004.853 1.828c.126-2.849-1.424-6.151-1.26-9.1 4.071.529 3.781 5.47 4.399 9.403.416 0 1.575.327 1.663 0 .706-1.929.404-4.866 2.433-5.458.164-1.916 1.563-3.555 0-4.702 0 .391 0 .782-.454.757a6.988 6.988 0 01-.769-2.521c-4.436-5.723-7.335-12.983-10.146-20.319-.492 2.446-3.655.996-5.76 1.967a4.953 4.953 0 01-4.097-4.4c-.34-2.52.971-3.932.908-5.608 0-1.26-1.261-2.357-1.362-3.328a5.989 5.989 0 01-.302 1.815c0-1.953-1.059-3.516-.769-5.306-4.853-17.319.719-36.162 9.1-47.002 4.563-3.517 7.475-8.697 13.349-10.916 1.071-.932 2.281-.907 3.478-1.815 1.828-.718 3.782-.894 6.063-1.512 1.261-.366 3.013-1.147 3.643-1.26 6.163-.63 12.012 1.36 20.016 1.512-3.139-1.576-7.475-1.815-11.218-2.13-7.349-.68-14.521 2.143-19.071 1.903-.138.353-.277.214-.454.756h.013zM290.7 20.85c-1.261-6.113-6-9.755-11.672-11.822-3.063-1.122-5.559-2.76-9.239-2.282a35.884 35.884 0 0120.898 14.105h.013zm-.454 4.248c-1.26-.806-1.26-1.525-1.513-2.735-.542-2.52-2.52-5.155-3.932-6.97-3.429-4.286-9.365-5.975-14.861-6.82-2.521-.403-5.684-1.978-9.1-1.524a11 11 0 01-1.5.491 25.503 25.503 0 01-3.945-.605c-2.231-.24-4.412.29-6.302 0-.58 0-.643.58-1.261.605-5.193.265-8.357 2.521-11.81 4.55-.53 0-.731-.378-1.374-.302-1.966.718-2.634 3.53-4.248 4.096.227-.138.479-.226.454-.605-3.025 1.614-4.739 4.866-6.806 7.69-1.652 2.205-3.353 3.843-3.026 6.528a40.369 40.369 0 00-3.781 11.974c-.63 4.651.063 9.466-1.059 13.487-.794-2.042-.579-3.491-.453-6.063a66.251 66.251 0 017.726-26.986 42.86 42.86 0 00-9.252 28.99 31.708 31.708 0 001.677 10.31c.252-2.218 1.815-4.474 2.117-6.667.126-.87 0-1.865 0-2.722a81.04 81.04 0 011.979-12.895c.643-3.352 1.475-6.78 3.177-9.087-.946 1.26-.505 2.672-.303 3.78.656 3.694-.517 8.105 0 11.824a21.69 21.69 0 0110.991-5.13c.971-.126 2.017 0 3.038-.164 2.067-.39 3.857-1.929 5.609-2.521 1.26-1.525 1.764-1.185 2.874-2.52-.442-.228.201-.593 0-1.072 3.541-5.042.403-14.76-2.42-17.583 6.39 2.357 9.302 13.083 6.214 20.318a5.238 5.238 0 01-.757 1.059c-.302.353-.58.164-.756.302-.176.139 0 .303-.151.454-1.702 1.26-5.042 3.882-8.193 4.096a20.57 20.57 0 00-13.348 5.458 38.548 38.548 0 00-3.479 1.966 74.963 74.963 0 001.513 15.126c.244 1.788.598 3.56 1.058 5.306.58 1.437 2.319 2.18 1.525 4.097 1.941 4.26 2.698 9.062 5.156 13.184.428.73.769 1.777 1.26 2.584.277.516.895.832 1.261 1.361 2.52 4.096 4.764 8.823 8.18 10.159.87 1.752 2.974 2.282 4.096 3.782a54.253 54.253 0 016.983 3.781c2.433.378 4.084.983 6.063 1.361.605.126 1.26.214 1.966.303 1.576.201 2.319.378 3.945.466 5.887.315 8.924-2.445 13.487-4.248 1.752-1.689 3.113-3.781 4.701-5.609a9.544 9.544 0 011.261-3.491c.277 0 .101.504.454.454a2.274 2.274 0 01.756-1.664c.252 0 .076.416.302.454.149-.67.351-1.328.605-1.967.089-.315.769 0 .605-.605a35.288 35.288 0 005.156-14.104c1.714-11.873-1.992-24.415-5.042-33.351-1.676-.542-3.416-2.345-6.214-2.282-.567 0-.403.618-1.059.454-4.663 0-8.747 2.95-11.835 5.458-.58-.088-.53 0-.908-.151a21.254 21.254 0 00.151 11.23 89.9 89.9 0 003.643 8.332c1.26 2.609 3.592 4.852 2.269 8.041-1.752 1.45-4.336 4.172-7.878 4.084-.365 0-.643-.24-1.059-.303-1.752-.226-3.894.807-5.457.454a10.978 10.978 0 01-2.433-1.512c-1.613-1.26-2.887-3.277-1.664-5.042a6.52 6.52 0 004.55 4.853c1.387.277 3.782-.391 5.761-.303a9.955 9.955 0 008.18-3.642c-1.097-2.206-2.307-4.677-3.479-7.273-1.172-2.597-2.672-5.042-3.189-7.563a24.211 24.211 0 011.828-15.768c5.974-1.941 13.159-5.042 18.339-1.071-.214-.946-1.26-1.853-1.26-2.521.756-.101 1.046.252 1.815.151 2.016 2.622 2.722 6.567 3.945 10.008a77.31 77.31 0 00-.454-3.782c1.828.92 1.677 3.87 2.42 5.912.537.907.96 1.876 1.261 2.886.088-.315-.189-.995.151-1.058.214.39.895.315 1.26.605.087 1.162.032 2.33-.163 3.479 1.903 1.626 2.294 5.924 1.26 8.823.012.372.116.736.302 1.058a12.437 12.437 0 00-1.676 2.736v-.77c-.576.362-1.183.67-1.815.92-.744 7.98-2.496 15.794-5.937 21.844.315.304.571.663.757 1.059a29.666 29.666 0 01-2.874 3.491c-.126-.39.29-1.26-.303-1.26-.718.58.101 1.008.152 1.676-.479 1.059-2.156 2.231-2.736 3.479-.315.693-.705 2.105-.151 2.584a6.497 6.497 0 01-1.059.303c.303-.215.618-1.261.303-1.513-.265.845-1.601 1.424-1.513 2.118 0-.152.265-.189.303 0-1.147 2.016-3.933 3.176-5.307 5.76a11.748 11.748 0 00-.605 3.491c-.466 3.227-1.827 7.563-1.525 10.613 1.891 1.576 3.34 5.924 3.782 8.823.289 1.803-.189 3.782.453 5.458.568 1.5 1.588 2.357 2.282 3.781 2.407.555 5.861.946 7.726-.302-3.29-2.622-6.819-5.811-6.365-11.672a3.189 3.189 0 013.34 2.521c-.03.356-.085.71-.164 1.059.126 3.164 2.37 5.773 3.782 7.739a6.137 6.137 0 014.096 2.269c3.113.794 4.928-1.601 7.424-1.059 1.349-1.109 3.378-2.143 3.643-2.723-.366-.819-1.5-.995-2.269-1.525-2.445-1.626-4.954-3.894-5.76-6.516 3.718.466 3.315 4.739 6.063 5.911 1.92.556 3.944.659 5.911.303 3.063-.328 5.445-2.811 7.424-1.815.063.743.693 0 .302.907 1.828-.806 3.076-3.491 4.248-5.457.454-.177-.554-.127-.302-.605-.063-.782 1.134-2.257 1.361-3.189.076-.278-.189-.782-.151-1.059.227-1.538.882-2.962.605-4.55-.605-3.504-2.887-5.395-6.063-3.177 2.407.731 1.979 4.336.151 5.458-2.175.86-4.576.967-6.819.303-2.609-.921-6.1-4.072-6.831-6.668-.794-2.849.579-6.844 1.374-8.823 1.159-2.874 3.617-4.752 4.701-6.517.794-1.26.92-3.491 1.815-5.155a26.08 26.08 0 001.664-2.735 41.586 41.586 0 003.037-10.31c.404-2.66 1.425-5.345 1.513-7.727.176-4.513-1.374-12.15-4.399-15.314-2.168-2.27-4.626-3.87-6.668-5.912a14.998 14.998 0 01-3.932-8.042c-1.45-7.877-3.025-15.125-8.496-20.91-1.26 2.773-2.823 3.428-5.457 4.852-2.37 0-4.425-.693-5.609-2.52 1.411-3.076.34-9.29-1.828-10.613.58 6.503-3.945 9.806-8.332 12.276-.289 0-.932-.794-.907-.151a12.606 12.606 0 01-4.701 4.248 16.168 16.168 0 01-3.341-2.42c2.282-1.26 4.475-2.887 5.156-5.458 1.008-3.781-.429-8.117-1.513-10.613-.807-1.865-2.596-3.328-2.42-5.307a20.507 20.507 0 017.726 15.126c1.916-1.55 4.551-4.172 5.042-7.437.353-2.596-.718-4.487-1.361-6.214a6.885 6.885 0 014.235 4.248c3.781 2.458 6.302 5.571 6.529 10.915 2.571-.24 3.643-3.466 4.676-6.176h.013zm-68.719 18.188a11.22 11.22 0 000-3.945 9.64 9.64 0 000 3.945zm71.593 15.769a2.29 2.29 0 000-1.967c-.252.53-.504 1.525 0 1.967zm-75.954 6.214a5.355 5.355 0 011.512-2.874c-.555-.68-.176-2.698-.756-2.887-.341 1.803-2.08 4.16-.756 5.76zm76.559-.454c.183.9.234 1.82.151 2.735 1.424-1.008 1.097-4.575 1.261-6.378-.366 1.26-.29 3.68-1.412 3.643zm.605 5.457a8.6 8.6 0 002.432-1.26 4.714 4.714 0 00-1.26-3.492c-.088 1.803-1.336 3.215-1.172 4.752zm-75.198 2.433c-.277 0-.101-.504-.454-.466a6.08 6.08 0 01-1.26 2.281 7.567 7.567 0 001.361 2.874c1.487.227 1.26.365 2.521.605.29-1.26.554-2.52 1.664-3.025.306 1.035.459 2.11.453 3.189a6.228 6.228 0 001.891-.164c-.769-3.567-3.365-5.32-5.306-7.727a3.6 3.6 0 01-.87 2.433zm24.717 110.365c1.727-2.975 3.076-6.303 5.458-8.647 3.113-5.546 4.916-11.558 6.97-18.037-2.521-.202-.681-3.29 1.059-3.491.113.302.403.403.756.453 1.172-1.487-.113-4.373 2.735-4.537a2.895 2.895 0 00.303-2.887 7.565 7.565 0 011.815-1.664c1.853-5.041 3.781-10.234 5.924-15.125.139-.353.353-1.109.454-1.512.592-2.609.907-5.042 1.512-7.437.504-1.991 1.588-3.907 1.664-6.214a38.82 38.82 0 01-8.634 1.664c-.908-.668-2.521 0-4.248-.29-3.226-1.261-7.298-1.525-9.705-3.491-.416.264.328 1.071 0 1.26-1.261-.832-3.202-1.046-3.34-3.038-.555-.151-.29.517-.605.605-1.097-.668-1.992-1.537-3.177-2.117a5.705 5.705 0 00-2.281-3.025c-1.462 6.894-3 14.154-6.668 19.247a68.888 68.888 0 014.853 15.617c2.521-.379 1.638 3.491.151 4.096.252 1.034-.101 2.319.454 3.479 2.748-2.786 3.567 2.243.454 2.886.164 2.219-1.021 3.592-1.059 5.76a16.175 16.175 0 001.664 5.912 16.779 16.779 0 011.26 6.97c-.101 1.74-.668 3.214-.605 4.853 0 1.26.403 2.521.605 3.945.24-.34.908 1.399 1.525 1.664-.189.315.542 1.739.706 3.101zm-28.347-56.72c0 .277-.177.327-.152.605.278 0 .328-.177.605-.152.719 1.904 2.345 2.912 3.631 4.235 1.411 2.294 3.125 3.416 5.041 5.307.303 0 .303-.202.454-.303.429.479 1.046 1.437 1.828 1.059.529 1.261 2.117.958 2.874 1.677-1.904 4.512-5.962 6.869-9.239 10.007.403-.113-.114.706.302.606.895.126.945.743 1.361 1.512.29 0 .303-.202.454-.302.403.655.681 1.436 1.815 1.361a39.539 39.539 0 003.492 4.399c.365.201-.278.454.151.605.176-.252.617.327.454.756a.64.64 0 00.453-.151c-.113.97 1.009.706.908 1.664 1.26.882 1.79 2.52 3.037 3.491v.454c2.874 2.243 2.698 7.247 5.042 9.705-.176 0-.164.24-.151.454 1.424-1.903 0-4.752-.151-7.273-2.37-3.113-2.13-7.474-1.374-11.067.353-1.651-.24-4.197-.29-5.76-.05-1.563-.643-3.516-.769-5.155 0-.718.24-1.386.151-2.13a44.389 44.389 0 00-2.268-7.878 7.894 7.894 0 00-1.261-3.34c-.618-2.924-2.433-4.638-2.433-8.18a50.182 50.182 0 01-3.491-4.702c.303-.101.416-.403.466-.756-1.638.807-2.735 2.521-4.247 3.781a45.562 45.562 0 01-7.437 4.55c.466.353.466 1.211.744.946v-.025zm57.299-.467a21.936 21.936 0 001.664-8.004 29.251 29.251 0 00-1.664 8.029v-.025zm-80.353 11.823c-1.462-1.399-1.411-3.34-2.874-4.84a23.015 23.015 0 00-2.735-4.55c-.214-.328-.416-.945-.756-.756 1.399 7.071 3.265 13.259 4.853 19.549-2.017 4.702-4.462-.176-6.214-2.269-.429-.201-.378.807-.605.303.113-1.677-2.017-2.975-2.887-3.643 1.488 1.437 1.778 4.046 3.189 4.853-.075 1.916 1.261 2.899 1.815 4.853-.958 2.987-3.542 2.646-5.155.907a7.046 7.046 0 011.26 2.281 22.689 22.689 0 015.042 9.088c.315 1.084.29 2.282.618 3.34.63 2.093 2.71 4.727 2.521 6.971-.227 3.554-2.319 6.504-2.874 10.159a2.196 2.196 0 012.269.907c.315-.491 1.096.063 1.512.454 2.345.189 4.424 1.185 6.819 1.261 2.004-2.345 1.109-4.916 2.13-7.563a9.999 9.999 0 011.967-2.723 33.139 33.139 0 004.247-4.55 14.781 14.781 0 002.42-6.365c.164-2.042-.617-4.059-.756-6.075-.365-5.042 2.093-8.319 2.433-12.605-3.176 2.345-4.008 7.008-7.122 9.403-2.458.492-3.239 4.752-5.319 5.609.731-1.185 1.198-2.357 2.13-3.643.681-.932 2.521-2.243 2.723-3.176a26.407 26.407 0 00-.605-4.399c-.529-4.714-2.168-10.588-2.723-14.256-.327-2.117-.592-4.411-1.827-5.76-.211 4.348-.156 8.705.164 13.046-.706.97-1.173 2.168-2.736 2.269-.529-3.164-2.142-5.193-2.924-8.055v-.025zm131.603-4.84a14.335 14.335 0 015.912-1.374c-.316-.844-1.059-1.26-1.677-1.815-1.1.176-2.216.227-3.327.151a10.095 10.095 0 01-.908 3.063v-.025zm6.819-.618c-.189-.075-1.424.845-1.815.921-2.08.378-4.159-.341-5.609.907 1.349 3.164 6.63 3.781 9.857 2.521.327-.819 1.122-1.185 1.26-2.269a13.34 13.34 0 00-3.693-2.004v-.076zm-8.508 1.4c.517 0 .656-.265.92-.454-.327-.088-.441-.378-.92-.303v.757zm-77.921 54.879a109.326 109.326 0 0115.315-6.819c.214.076.378.215.605.303a34.165 34.165 0 015.609-2.433c-2.067-5.596-4.563-11.911-4.55-17.886 1.184-1.008 2.18-2.987 3.781-3.188 1.26-.152 3.328 1.26 4.55 1.978.265.152.391.631.605.757.214.126.719 0 .908.151.189.151.214.643.453.907.24.265.492 0 .606.152.869.857 1.336 2.067 1.978 2.281a34.76 34.76 0 013.025-12.138c-.378 0-.479.29-.605-.151.24-.857 1.715-1.059 1.815-1.967.101-.907-.97-1.6-1.512-1.978-.101-.958-.794-1.261-1.26-1.967-1.45-2.659-1.16-4.941-1.513-7.877-1.412.718-2.244 2.004-3.643 2.722-1.084-2.609-1.033-4.764-1.676-6.97-1.853 3.592-2.685 7.21-4.386 10.915-1.538 3.328-4.336 6.076-5.609 9.403-.618 1.601-.731 3.857-1.526 4.853v.907c-.907 1.261-1.109 3.025-1.663 4.551a39.262 39.262 0 01-3.34 6.667c-2.131 3.479-4.79 6.744-6.366 10.916-1.172.945-1.26 2.962-2.722 3.642.048.578.202 1.142.453 1.664.442 0 .555-.605.757 0 .101.202-.441.567-.076.605h-.013zm69.438-42.603c.227 0 .555 0 .605.152-.34.718-1.26.894-1.815 1.361-.29.29 0 .391 0 .756a24.762 24.762 0 00-5.041 6.68c1.033.101 2.117 0 3.478 0 4.172-5.533 7.626-11.785 11.987-17.142a4.343 4.343 0 01-2.281-1.26c-2.231 3.227-4.828 6.088-6.92 9.453h-.013zm-6.68 0c-.731.429-3.139 2.672-5.294 3.492-.618.113-.529-.492-1.26-.303a12.66 12.66 0 01-3.479.756c-2.42 0-4.286-1.84-5.76-1.978-.757 0-1.626.605-2.521.605a18.766 18.766 0 01-7.273-1.261 144.001 144.001 0 018.331 12.819c.454.088.593.517 1.059.605 1.261 2.042 1.866 3.932 3.025 6.063.782-1.563 2.32-2.521 3.34-3.946 1.879-2.773 2.408-6.642 5.458-8.331 1.261.164 1.475.189 3.025.302a22.95 22.95 0 002.433-3.491 3.788 3.788 0 01-.231-1.87 3.79 3.79 0 012.159-2.943 3.78 3.78 0 011.853-.342c.681-.996 1.462-1.878 2.13-2.874-1.79.673-3.697.982-5.609.907.24.795-.806 1.311-1.348 1.79h-.038zm-29.709 19.714a16.62 16.62 0 01.152 3.176c-.442 1.26-2.257 1.991-3.328 2.584-2.912-3.176-5.458-6.769-9.554-9.403.151 3.781 2.13 7.979 3.479 11.823.138.391 0 .844.151 1.26.151.416.605.807.769 1.261.164.454-.126.643 0 1.059.239.831.731 1.033.605 1.663-.252 1.261-2.156 1.702-3.038 2.584-1.399-.353-2.092.353-3.643.908-.92.327-1.991.441-2.722.756-1.878.794-2.332 2.521-3.945 3.34-.757.353-1.16.177-1.815.454a87.286 87.286 0 00-11.975 5.458 77.907 77.907 0 00-4.398 9.087c-3.152 7.79-3.479 16.953-4.399 24.718 0 .34.403 1.172-.152.907-.189.492.492.114.303.605a56.196 56.196 0 00.756 20.319 54.712 54.712 0 002.887 11.218 63.367 63.367 0 006.818-11.067h.606c4.915-9.088 11.986-16.008 16.675-25.322 0-.53-.428-.668-.454-1.261 1.11-1.26 1.702-3.05 2.887-4.248a28.869 28.869 0 013.176-6.214c1.261-1.903 3.025-3.327 4.248-5.155.756-1.122 1.424-2.521 2.117-3.781 2.332-4.197 4.891-8.269 6.983-12.441 3.668-5.873 8.231-10.865 11.218-17.432.189-.416.731-.479.908-.907a.791.791 0 01-1.059-.303c0-.642.58-.642.605-1.26-.971-2.521-2.017-4.059-2.886-6.529-.303-.353-.593.214-.908-.151a97.598 97.598 0 00-8.483-12.605c-2.054 4.513-2.546 9.832-2.571 14.899h-.013zm43.057-1.979c-.164-4.336-2.886-10.676-5.042-12.605a28.307 28.307 0 00-2.521 3.945 2.89 2.89 0 011.967.454c-2.446 2.95-7.702-.554-10.916 1.815a8.534 8.534 0 00-2.874-.453 26.465 26.465 0 01-2.583 4.852c-.694 1.059-3.177 3.618-2.887 4.097 0 .075.24.088.164.302 1.437-.277 2.105-1.966 3.025-3.189a11.955 11.955 0 013.491-3.176c.29.277.114.277.605.151 2.37-.87 5.71-1.689 7.878-.756-1.903 2.256-6.441.693-9.1 1.966-3.466 1.677-3.996 5.949-7.424 8.18 4.26-1.184 8.319-4.55 13.033-5.609-3.87 3.152-10.638 3.404-12.605 8.496 5.471.302 9.618-2.811 15.012-2.521-4.235 3.189-8.546 6.302-9.705 12.604 1.096-.289 1.525-1.499 2.281-2.281a23.94 23.94 0 019.239-5.306c.769 2.168 1.135 4.739 2.521 6.226.378-.277.277-1.046.908-1.071.466 3.579-.82 6.743-.454 9.856.113.996.643 2.005.756 3.038.341 2.912.164 5.647.756 8.18 3.505-.466 6.114-.176 9.403-1.361a84.718 84.718 0 00-5.041-23.646c0-.542-.568.378-.605-.151a6.136 6.136 0 00-.605-2.886c1.689-1.816 1.474-5.672 1.336-9.151h-.013zm-19.701 8.495a16.356 16.356 0 00-2.432 3.492c.642.882.403 1.789 1.26 2.52a22.296 22.296 0 016.97-6.97c-1.947.19-3.88.51-5.785.958h-.013zm-6.97 1.765c-7.26 9.806-13.146 20.167-19.247 30.931-4.487 3.655-6.189 10.084-9.705 14.709-3.252 7.929-9.05 14.193-13.651 21.075-2.344 3.504-4.474 7.147-6.668 10.764-2.193 3.618-4.777 6.92-6.214 10.916.996 1.336.845 3.062 1.815 4.55 3.29-3.87 5.446-8.886 8.345-13.197 1.071-1.601 1.651-3.189 2.52-4.853 1.727-3.138 3.668-6.113 5.307-9.251 2.281-4.349 5.495-7.878 7.739-12.126.416-.391-.744-.655-.151-1.26 5.924-8.685 10.877-18.1 16.524-26.986a67.73 67.73 0 014.097-6.668c4.915-6.151 8.356-13.373 13.335-19.411 0-.088 0-.176-.151-.151-1.021.643-2.735.554-3.895.958zm14.621 2.521a14.483 14.483 0 00-5.306 4.399c-.467.529-1.349 1.096-1.261 1.966.126.441.378-.202.757 0 2.42 6.163 5.419 13.058 7.424 19.562.932-.592 1.096-1.941 2.117-2.433.214.555 1.336.189 1.828.454-.177-5.445-1.828-10.978-.454-16.676-.315-.34-.504.706-1.059.605-.063-.668-.643-.252-.92-.453 0-1.084-.542-1.866-.454-2.723-.453-.202-.769.517-.907.151a36.421 36.421 0 00-1.361-4.852h-.404z"/><path fill-rule="evenodd" clip-rule="evenodd" d="M207.914 37.223c.24 0 .933-1.172.756-1.663.353.063.845-1.147.757-1.072.169-.24.321-.493.453-.756.199-.332.356-.688.467-1.059.176.164.302.126.302-.151.366-.063.492.227.605-.151.139.1.265.189.303 0 .264 0 .34.264.302.605-.151 0-.113-.177-.151-.303-.391.202.227.668.151 1.059-.617-.58.227.82-.453.303.239.416-.152.844-.454.605a1.001 1.001 0 01.151.756c-.555-.24-.466 1.059-.907.92 0 .265.176.315.151.605-.643.164-.63.39-.605 1.361a1.099 1.099 0 00-.618 1.362c-.605-.58.24.819-.454.302.252.731-.491 1.576-.605 1.979-.113.403.24.92-.302.605-.063.365.277.328.151.756-.605.756-.693.782-.605 1.815-.529-.201 0 1.185-.605 1.072-.063.365.277.327.151.756-.504.088-.491 1.903-.907 2.52-.517-.831 0 1.047-.454-.15-.227.378 0 .617 0 1.26-.655-.403-.315-1.815-.756-2.42.504 0 .088-.492.151-1.26.265-.089.466-.895.303-1.526.113 0 .151.151.302.151 0-1.676.971-2.659.756-3.78.126 0 .152.15.303.15-.227-1.02.97-2.155.605-2.583a3.25 3.25 0 00.756-2.068zm2.269 14.559c0-.366.404 0 .303.302.189 0 .151-.302 0-.302.252-.719.327.718.453.151.391 0-.214.252 0 .605-.453-.504-.176-.088-.151.454-.29 0-.113-.504-.454-.454.089.315.379.429.303.908-.504-.378-.227.302-.151.605-.92 0-.278 1.109-.908 1.36.479 1.476-.58 1.261-.164 2.282-.113 0-.151-.151-.302-.151.315 1.021-.454.668-.151 1.664-.265 0-.341-.265-.303-.605-.365.277.214.895 0 1.512a7.34 7.34 0 01-.454-3.945c-.088.656.492-.617.152-.756.63-.378.68-.618.605-1.513.126 0 .151.152.302.152.063-.366-.265-.328-.151-.757.126 0 .151.152.302.152-.264-.58.378-.353.315-1.362.142.12.246.278.303.454.391 0-.214-.265 0-.605.277.038.315-.151.151-.151zm86.429 5.608c1.588.077 1.26 2.106 1.663 3.328a11.322 11.322 0 01-1.663-3.327zm5.911 5.459c1.513.529 2.269 2.432 3.328 3.781 1.059 1.349 2.332 2.773 3.34 4.096.214.618-.101.984.302 1.26a59.882 59.882 0 01-6.97-9.137zm-.605 35.62c-.114.542-.504-.694-.303-.152-.164-.453-.428-1.436 0-1.512-1.058-3.416 1.046-7.008 1.059-11.344 0-2.18-.706-4.059-.92-6.302 6.063 1.626 4.449 13.184 2.584 17.885-1.135-.113-2.143 1.349-2.42 1.425zm-78.387-4.702c.24 0-.138.278.151.315-.277.542-.415-.277-.756-.163.278-.668-1.059-1.803-.605-3.026.214.177.227.744.454.152.567.327.744 2.42.756 2.722zm65.191 15.768c2.394.921 1.26 9.403 1.058 11.344-1.638-.794-.579-3.932-.907-6.062-.126-.87 0-2.269-.151-3.328-.089-.844-.391-1.374 0-1.954zm-100.811 39.881c-.088-.353.693.857 1.059 1.059 0 .264-.265.34-.605.302a3.423 3.423 0 00-.454-1.361zm11.369-67.169c.089.252.378 1.374-.151.92.542.189-.239 1.26-.151 1.046-.189.567-.555 3.567-.769 1.071-.164.076.113.983 0 1.513-.214-.668-.945-3.996-.303-4.248-.088-.252-.378-1.361.164-.907-.34-1.412.92-2.357.593-3.48.378-.113.227-.604.617-1.373.505.277.063 0 .152-.454.605 0 1.953.441 1.361 1.664-.088-.315-.958 2.269-1.059 2.735-.101.467.076.404 0 .756 0 0-.265-.201-.302-.15-.038.05.516 1.587-.152.907zm78.967.92c-1.79 5.344-7.361 10.436-13.638 10.915-3.706.278-7.412-.92-11.218-1.828-.744-1.033-2.521-1.07-3.038-2.268-.113-.467.265-.454.151-.908 1.387-1.033 4.324-.44 5.912-1.071 1.865-1.752 5.231-1.475 8.344-1.815 2.395-.265 4.172-2.067 6.516-1.26-.075 1.172-1.878.642-2.52.756-.958.15-1.816.932-2.736 1.058-.92.126-2.092-.138-3.037 0-1.803.265-3.391.757-5.307 1.26 0 .127-.151.152-.151.303 8.42 1.16 14.722-2.18 20.722-5.142zm-13.638 6.516c-3.164.328-6.782-.504-9.706.151a6.708 6.708 0 011.815 1.362c8.004 1.752 14.432-.34 18.806-5.458.151 0 .189-.265 0-.302-3.075 1.411-6.63 3.793-10.903 4.247h-.012zm-18.34-34.725c-4.461 0-6.831 4.525-11.217 4.853-.131.447-.232.901-.303 1.361 1.727.467 2.597.694 4.248-.151 3.857 1.26 8.495-.492 12.276-1.26.593 0 .795.327 1.261.453a.73.73 0 01.315-.756c.479.366.555 1.16 1.361 1.26 0-.516.378-.73.303-1.36-2.042-2.572-4.361-4.387-8.244-4.4zm-7.877 5.156a17.31 17.31 0 012.42-1.816c.365.391 0 1.576.454 1.816-.454.466-2.231-.038-2.874 0zm3.781-.63v-1.35l2.017.669-2.017.68zm5.634.478c.088-1.084.63-1.701.467-3.025a6.378 6.378 0 013.781 1.815 11.658 11.658 0 01-4.273 1.21h.025zm20.747-1.512c1.601-.076 1.576-1.765 2.886-2.13l-1.815.466c1.11-1.172 1.828-2.723 3.63-3.19a4.576 4.576 0 000 2.522c-.239-.215-.92 0-1.26.151 4.084 1.26 7.853-.668 11.067-1.664.088-.214-.177-.781.151-.756a6.67 6.67 0 001.828 1.059c.037-.466.139-.924.302-1.361-4.84-5.345-15.919-2.345-16.789 4.903zm5.357-3.34v-1.35l2.017.681-2.017.668zm5.407.453a4.124 4.124 0 00-.139-3.176 7.16 7.16 0 013.782 1.664c-1.324.39-2.105 1.386-3.643 1.512z"/><path d="M109.688 275.435c-.378-.164-1.676-.101-2.244-.214-1.172-.252-2.243 1.361-2.81 2.357.416 0 .756-.744 1.121-.454a7.714 7.714 0 00-1.676 5.281 21.53 21.53 0 001.676 5.395v.088h5.319a10.156 10.156 0 001.715-4.802c-.278-2.508-1.135-6.807-3.101-7.651zm.794 12.251c-2.256 0-3.214-1.436-3.605-3.365a7.477 7.477 0 01-.441-7.197c.605-.088.87.176 1.462.113 2.71 2.042 4.323 7.021 2.584 10.449zm9.214-16.385c.958.806 1.071 2.521 1.349 3.781 0 .29.491.555.113.782 0-.063-.101-.127-.113 0 1.562 1.109 2.987-1.626 3.151-3.139.176-1.815-.984-3.781-1.362-5.18a5.426 5.426 0 00-3.138 3.743v.013zm-1.803 5.041c.391-.592-.68-.844-.226-1.462-.164-.252-.265.139-.341-.113a9.278 9.278 0 00-2.521-4.5c0-.138.152-.151.114-.328-.252-.163-.958-.226-.668-.567-.215 0-.252.126-.454.114-1.702-1.336-3.139-.857-4.828-1.009-5.52 1.45-9.856 6.504-10.461 13.26-.454.933.176 2.08-.441 2.912.466.504.617 1.512.34 1.802.164.467.378.958.555 1.437h4.462c-.152-.643-.958-1.033-.87-2.105-1.815-2.697-1.891-9.352.68-12.705.19 0 .215.088.227.227a6.85 6.85 0 013.706-1.261c.996-.113 2.685-.113 3.479 1.009.202 0 .239-.139.454-.114 0 .769.958.479.794 1.349.201 0 .227-.139.441-.113 1.084 1.953 2.521 4.121 2.811 6.516 0 .139.201.101.34.113-.29 1.261.391 2.219.227 3.782a12.244 12.244 0 01-.971 3.34h1.437a48.166 48.166 0 002.231-4.916 24.082 24.082 0 000-5.394c-.504-.101-.088-1.425-.517-1.274zm33.049-3.932c0-1.916-1.701-3.088-1.903-4.046a.623.623 0 00-.454.113c-.781-1.084-2.155-.995-2.924-1.689 0 .126-.113.177-.214.227-.328-.882-1.878-.529-2.256-1.348 0 .189.163.289 0 .327-1.652-.958-3.782-.718-5.836-1.008 0 .252-.114.365-.341.34-.428-.554-1.26.378-1.916-.113-2.432.378-5.798 1.147-6.403 4.273.139 0 .316 0 .341.113-.215 1.677 1.122 3.555 1.008 5.281.164.252.277-.138.34.114a604.742 604.742 0 001.677 7.562.449.449 0 01-.328-.113 30.09 30.09 0 011.424 5.483h3.782a.496.496 0 00-.215-.088c0-.202.076-.378.227-.441a27.313 27.313 0 01-1.26-5.181 2.394 2.394 0 00-.34-.668c-.215-2.218-.631-3.34-.895-5.281 0-.378-.53-.731-.227-1.122-.593-1.739-1.021-3.907-1.689-5.848 0-.227.302-.139.227-.454a30.3 30.3 0 015.962 0c-.19.239.277.391.781.567.101 0 .113-.227.113-.227 1.072.341 2.131 1.374 3.479 1.349-.277.29.29.365.681.34-.126.593.491.227.895.328.353.617 1.26.958 1.802 1.689 0 0 .152-.063.114-.101 0 .164.189 1.059.668.782.113.97.958 1.689.794 2.583.315.189 0 .442.328.442.201 2.067.68 4.348-.215 6.529a5.466 5.466 0 01-2.029 2.016 32.52 32.52 0 01-4.941 2.786h3.441a20.907 20.907 0 006.97-9.756 23.415 23.415 0 00-.554-5.836s-.026.089-.114.076zm33.944-12.037c-1.462.479-2.987-.126-4.941.126-1.878.932-1.664 3.945-2.584 5.836-1.475-.618-2.71-2.37-4.159-3.366-1.702.807-3.933 2.055-4.614 4.26 2.143 2.005 3.366 4.261 6.076 5.622.479 0 .416-.555.895-.555.466.442 1.336.353 2.029.454a37.267 37.267 0 00-.227 8.823c1.5-.277 2.092-1.172 3.592-1.26.479-.504.883-1.071 1.349-1.576.668-4.739.227-12.213 1.916-16.751.202-.618.819-.933.655-1.613h.013zm-3.933 18.44c-.592.365-1.361.58-2.016.895a32.922 32.922 0 01.214-8.823 7.722 7.722 0 01-3.933-1.462c-.214.113-.479.189-.554.453a51.295 51.295 0 01-4.273-4.499 2.263 2.263 0 001.122-.681c1.777 1.55 3.264 2.937 5.041 4.273 2.005-1.261 2.244-4.286 3.038-6.743 1.588 0 2.521.365 3.781 0-2.004 4.688-2.18 10.688-2.432 16.587h.012zm-35.62-.113c.454-2.458-1.764-4.891-2.811-5.509-.201-.113-.352-.29-.453-.34-1.714-.756-5.471-.542-5.735 1.803.032.857.185 1.706.453 2.52.479 2.294 1.551 4.689 1.803 7.639a27.311 27.311 0 003.781-2.244 8.384 8.384 0 002.95-3.869h.012zm-7.083-4.387a5.734 5.734 0 014.079 1.915 5.728 5.728 0 011.429 4.274 18.217 18.217 0 01-3.706 2.357c-.252-3.063-1.349-5.659-1.815-8.546h.013zm1.348-33.263c.202-.466 1.387-.706 1.803-.781.416-.076.932.063.781.1 0 0 .202-.415.34-.327.656.403.076 2.042.114 3.138 0 .82.365 1.437.214 2.03a1.598 1.598 0 01.227 1.462c.668 1.26.744 3.163 1.576 4.6-.126 0-.252-.189-.341 0a1.483 1.483 0 01.794 1.122c0-.101.189-.139.227 0 .152.996 1.714 2.092 2.244 3.265a8.891 8.891 0 003.491 1.121.279.279 0 01.215-.327 8.677 8.677 0 006.629-5.042c-1.336.592-2.52 1.197-3.781 1.802l-.34-.34c-.227.756-1.261-.239-1.563.227.063-.441-.366-.391-.454-.681 0 .139 0 .328-.113.341a20.853 20.853 0 00-2.244-2.244c.126 0 .265 0 .227-.227-1.601-.605-2.118-2.911-2.71-4.159 0 .176.189 0 .227-.114a4.44 4.44 0 01-.782-3.138 3.373 3.373 0 01-.453-2.924c1.928.529 4.033-1.601 4.499-3.706a31.778 31.778 0 01-4.613.328 26.716 26.716 0 011.803-7.979c-2.836 1.702-3.92 4.878-4.273 8.319-.227 0-.215.302-.454.34-2.004-.088-3.781 2.067-4.26 3.781.264-.163.794-.252.97.013zm15.504 6.517c.353.68.655.68.567 1.575 1.021 0 1.626.719 3.038.555 2.231-1.261 3.655-3.378 5.394-5.168-.189.756.303 1.021.114 1.802a.45.45 0 00.327-.113c.063.529.215.794.341 1.462.189 0 .29-.164.34 0-.164 0-.101.277-.113.454.869.227.907 1.84 1.689 1.79.151.945 1.134.97 1.462 1.462 1.739-.605 2.609-2.105 3.479-3.593-.732-.113-1.11-.995-1.689-.894-.858-1.362-3.857-4.122-2.925-6.971-.378-.302-.416.492-.895.441-.466-.315-.945-1.134-1.348-1.121 0-.605-.492-.694-1.122-.668-.113.151-.114.416-.34.453-1.072-.542-2.975.139-3.593.442-2.521 1.26-5.709 5.394-4.625 8.054-.038-.038-.089-.051-.114.038h.013zm2.81-5.042c.82.328 2.105-.756 2.597.227.189-.101.277-.315.668-.227v.441c.504-.164.605 0 .782.454.655-.441.718.517 1.26.567a2.989 2.989 0 01-2.811 2.244 22.752 22.752 0 01-2.13-1.463c.227-1.021-.605-1.159-.378-2.256l.012.013zm-22.927-8.206c-1.739.933-3.504 2.937-2.697 5.395a4.11 4.11 0 002.684-5.407l.013.012zm25.738 37.309v-.554c-2.067.441-1.638 3.97-1.676 6.063 2.521-.858 6.302-.114 6.731-3.152-.555-1.121-1.614-1.739-1.79-3.251a3.071 3.071 0 00-3.277.882l.012.012zm-.113 3.706a11.292 11.292 0 010-2.798c.819 0 1.26-.366 1.802 0-.164.844.656 1.437 1.009 2.13-.967.088-1.917.309-2.824.656l.013.012zm-31.915-20.444c.442.151.656.781.795 1.348a6.824 6.824 0 003.025-3.491c-1.538-2.521-1.891-6.529-5.168-6.403-1.664.063-2.962 1.928-4.273 3.265a12.949 12.949 0 01-1.009-2.521 7.942 7.942 0 00-2.924 3.252c.58 2.52 1.462 3.478 1.576 6.403-.265.327 0 .768.227 1.021a7.381 7.381 0 002.924-3.378c.101-1.034-.504-2.899 0-4.273 2.811-.769 3.781 1.878 4.487 4.046a.328.328 0 01.34-.227c-.214.542.479.655-.012.945l.012.013zm-21.578-1.462s.327-.215.34-.227c.391-1.147.454-2.382.895-3.366.247-.423.437-.876.567-1.348 0 .731.479 1.008.34 1.903a4.893 4.893 0 011.009 2.811c1.437 2.13 1.89 5.13 3.037 7.562 1.551-.907 3.177-2.659 2.685-4.6-.063-.151-.428 0-.441-.227-.013-.227.303-.139.227-.454-.555-.416-.656-1.26-.794-2.13-.567-.076-.668-2.458-1.122-2.029-.605-2.912-2.168-6.038-2.521-8.319 0-.265.24-.378-.113-.101.126-.706-.252-1.26-.341-1.916-.693 0-.781.567-1.26.794-1.412-1.122-2.181-.554-4.046-.794.088.303-.227.214-.328.34-6.932 1.538-8.268 8.672-11.583 13.865a2.86 2.86 0 01-.441 1.563c.176.719.453 2.08.668 2.924.491.265.895.984 1.689 1.689 0-.088 0-.226.113-.226.063.516.668.567.857.756 0 0 .756.277.719.592.423-.022.847.016 1.26.114 4.26.227 7.311-6.252 8.571-9.189l.013.013zm-10.676 1.689c-.63-3.782 2.445-6.454 3.592-9.555a11.702 11.702 0 015.622-1.02c.277.655 1.046.831 1.575 1.26a48.799 48.799 0 01-3.933 12.819c-3.277 1.184-5.293-1.513-6.869-3.517l.013.013zm38.758-1.79c-.252.088 0 .63-.113.895.617.327.542 1.058.681 1.462a7.683 7.683 0 002.924 2.697c1.323.593 3.151-2.004 3.705-3.592-.932.076-1.689-.945-2.142-1.261-2.609-1.726-3.038-6.302-2.698-10.007-3 1.777-4.02 6.491-2.357 9.806zm35.293 20.003c-.807-1.399-1.941-2.609-2.811-4.046a11.841 11.841 0 00-1.803-3.038 10.18 10.18 0 01-5.508.794c-1.903.883-4.109 1.261-4.6 3.366-.416 1.752.277 3 .34 4.386.126 3.29-.744 7.412-.227 10.563a14.7 14.7 0 012.584-.681 7.284 7.284 0 001.576 0c1.462-.529 1.563-2.054 1.26-4.147 1.702-.138 2.811-.87 4.487-1.021a38.283 38.283 0 012.37 3.265c1.903-.857 4.613-.92 5.168-3.151a16.947 16.947 0 01-1.261-3.479 10.781 10.781 0 01-1.575-2.836v.025zm-.681 7.563c-1.046-.857-1.512-2.294-2.521-3.252-3.227 1.185-8.672.441-7.562 5.281a8.54 8.54 0 00-2.521.668c-.089-4.664.353-9.794 0-14.041.68-.189 2.105-.668 2.798-.114 1.26-.63 3.189-.68 4.159-1.348 2.332 4.046 5.269 7.461 6.971 12.138-.24.264-.921.29-1.286.605l-.038.063z"/></g><defs><clipPath id="clip0"><path fill="#fff" d="M0 0h328v288H0z"/></clipPath></defs></svg>