<svg width="328" height="288" fill="none" xmlns="http://www.w3.org/2000/svg"><g clip-path="url(#clip0)" fill="#EE7D00"><path fill-rule="evenodd" clip-rule="evenodd" d="M84.016 57.098c-4.51 1.026-6.404-.146-9.809 2.807-5.062-.88-9.706-1.364-11.69-2.807v1.398c-4.307-.552-5.232 2.255-7.892 3.28v2.334c-2.56.316-2.492 7.126-4.68 9.347-.845 10.563.272 17.734 7.487 21.51 3.46-1.014 4.058 1.263 6.076-.462 2.368 2.12 8.129-3.066 9.82-5.14.551.691 1.18 1.32 1.872 1.87-.451 5.39 2.502 6.19 7.474 6.077 3.371-10.654 3.597-21.928 4.104-36.978-2.018 0-1.635-2.424-2.762-3.236zM69.484 77.673c-.891-1.127-1.364 3.698-1.398 4.679-4.713 1.657-4.228-2.853-6.077-4.679a21.78 21.78 0 015.637-9.357c1.556-.88 1.702 2.254 1.86 0 1.105 2.39.248 6.81-.022 9.357zM52.652 36.997c0 .732 0 1.623.935 1.398 1.23-2.143.53-12.312.474-15.435-4.51-1.037-11.274-1.68-16.843.474-4.51-1.995-7.892 0-14.014-.936-.473 1.128-2.198 3.62-3.28 3.743a8.951 8.951 0 01-1.399 6.54c4.285 1.623 8.817.18 13.53 1.408-.767 9.313 1.634 22.255-.474 31.793-.418 1.928.777 6.043 0 8.41l-.124.406c.056-.112.157-.203.124.53 0 1.736-2.853 3.698-1.398 6.088-.158.09-.925-.496-.925-.474-1.285 4.24-1.6 9.02-5.637 11.218-7.249-.417-10.586-9.707-8.884-15.423.136-.473 1.015.203.936-.935-.812-11.117-7.711-.632-14.036-2.808-.958 3.382-3.89 2.56-5.637 5.637v.868c2.165.282 1.06 4.882 2.807 4.206.395 1.488-.406 1.77-.936 2.333 3.292 1.827 1.94 8.118 5.22 9.865-1.217.767.09 1.917.936 3.28 2.018 3.225 8.264 7.983 11.691 8.873 2.503-.834 3.833 1.263 8.884.474.068-.553-.079-1.33.462-1.398.102.361 0 .913.474.924 6.764-3.596 12.006-4.509 14.487-13.089 1.804.237.902-5.118 2.807-4.667.586-6.471 1.127-7.599.936-14.972.473 0 .563.383.935.474.203-9.166.767-22.221 1.872-33.665-1.127-.157.53-2.705-.462-4.205 2.22.15 4.449-.17 6.539-.935zm106.336 41.77c-5.705-1.86-7.892-.429-13.529-1.398v-2.38c5.716-4.655 10.079-8.24 14.036-14.035 1.127 1.285 2.052-1.838 3.269-.462 0-2.086-.18-5.096.925-2.345.203-4.24-.327-5.694-.462-8.873-3.54-1.77-9.606-.665-11.274-.474-1.364.158-2.255-1.634-3.27-1.871 0 0-.056 1.015-.462.936-1.477-.293-4.149-1.5-6.077.473-2.254-1.127-6.279.7-10.293-.935.124 2.83 1.128 3.99-.936 5.636 2.684-.45 1.128 4.093.936 5.141 1.781.677 2.255 0 2.345 1.872 2.12-1.037 3.54.428 6.55-.462-.406 2.164.733.484.925 1.398-2.086 3.044-3.191 9.402-5.141 11.69.135-.157-.203-1.127-.474-.935 0 3.021-2.672 4.51-2.796 7.486-.157 3.608.654 6.19 0 9.82 1.398-.474.823 1.037.936 1.87 9.933.114 19.425-1.453 33.191-2.806.349-6.066.451-6.145-.463-10.293-4.52.552-5.67-.519-7.936.947zm-33.822 2.491c-.654 4.205-8.309 1.128-10.282 2.807-.181-1.59-1.128.823-1.872-1.398-.079 1.342-2.254.778-3.269 0 .079-.699-.169-1.725.462-1.871-.101.18.282 1.127.474.936 3.641-4.217 5.783-11.522 11.691-13.53 1.522-3.381.327-8.545.924-10.754a18.218 18.218 0 00-9.346 0v-1.432c-3.089.98-4.104-.981-6.077.462-1.894-1.567-5.839.237-7.485 0 .146 0-.756-1.33-.936-1.398-.677-.27-1.714.609-2.334.474-1.048-.248-2.108-2.661-4.205-.474-.158 5.637-.248 8.568 1.398 12.627 5.75.417 6.302-.304 10.755.462a57.144 57.144 0 01-7.891 14.498 3.09 3.09 0 00.371 2.334H96.18c.643 3.608.902 8.219 2.334 11.691 2.638.384 4.904-1.905 7.024 0 0-2.255.575 1.026 2.333 0 .068-.552-.078-1.33.474-1.409.068 2.334 3.856-.102 4.205.947.068-.552-.079-1.33.462-1.41.474 1.421.767.598 1.398 0 .88 2.019 5.784-1.183 7.96.937.101-.361 0-.925.462-.936.135 1.725 1.984-.113 2.807.936-.282-1.218.192-1.68 1.398-1.398-2.074-4.814 2.537-10.61-1.871-13.1zm161.781-26.752c3.671-2.5 7.67-4.48 11.883-5.885 5.017-1.522 10.924-.925 16.629-.677a18.253 18.253 0 0111.274 4.634c-3.326-2.108-5.874-2.615-10.868-2.818a84.66 84.66 0 00-9.955-.35c-5.908.395-10.913 4.014-15.265 5.998-.135.056-.406 0-.338 0-.124.079-.541.642-.914.676a2.69 2.69 0 01-2.446-1.578z"/><path fill-rule="evenodd" clip-rule="evenodd" d="M325.639 54.28a91.174 91.174 0 00-9.729-1.477c-4.261-.237-8.478.947-12.221 1.928a38.34 38.34 0 00-9.504 4.182c-.913-.473-2.074-.71-2.367-1.804a42.43 42.43 0 0118.669-5.998 37.05 37.05 0 018.14.677c3.157.395 5.141.654 7.012 2.492z"/><path fill-rule="evenodd" clip-rule="evenodd" d="M319.416 54.505a5.169 5.169 0 00-1.578 1.466 50.329 50.329 0 00-16.911 7.475c-1.128.281-2.683.913-3.382.563.304-.417.169-1.217.676-2.255 3.822-2.93 9.436-5.118 15.04-6.9 1.973-.653 4.363-1.285 6.155-.349zm-50.451 11.308c.519.09.755.45 1.127.688a7.896 7.896 0 002.83 5.107c1.128.89 2.582.992 3.506 2.04-3.675-1.443-6.708-3.495-7.463-7.835zm58.828 14.374a6.01 6.01 0 01-2.605-1.702 17.83 17.83 0 002.492-8.59 4.934 4.934 0 001.353-.226c1.375 1.33 1.432 2.13.913 4.633a20.639 20.639 0 01-2.153 5.885zm-31.229 14.701c-3.596-1.522-7.339-3.89-8.94-7.801.485 0 .563.496 1.026.563 1.341 3.71 4.656 5.457 7.914 7.238zm-54.645 36.471a1.128 1.128 0 00-.902 1.014c-.507-.214-.439.215-.789-.789-.18-.518-.913-1.33-1.015-2.153-.169-1.308.519-2.413.564-3.619 2.83-.676 2.413 2.165 2.142 5.547zm50.124-.383c.721.463.259 1.568-.113 2.154-.338-.643.214-1.364.113-2.154zm-94.352.575c1.004 1.127.248 2.187-.225 3.619a11.814 11.814 0 00.338 8.94c-4.746-.947-4.002-9.73-2.041-12.559a5.83 5.83 0 011.928 0zm12.221 9.054c-3.653 3.202-3.258 10.812-1.815 15.716a10.57 10.57 0 01-2.604-1.691c-1.59-5.637-1.759-11.962 1.702-15.615a3.083 3.083 0 012.717 1.59zM95.29 139.466c1.962-.316 4.047 2.593 5.209 4.983.845 1.77 2.581 6.02.451 6.674-2.131.654-4.95-4.509-5.998-6.336-.688-1.127-2.142-2.514-1.353-4.295.172-.3.417-.552.713-.732a2.05 2.05 0 01.978-.294zm121.635 25.343a9.699 9.699 0 01-3.732-8.377c.823-.169 1.928-.079 2.367 1.703.192.744.136 2.007.451 3.055.508 1.669 1.263 2.142.914 3.619zm-14.6 1.816c1.792 2.029 1.465 5.637 2.378 8.365.519 1.567 1.928 2.131 2.718 3.281a7.45 7.45 0 012.029 1.251c.564.361 1.77.654 1.364 1.353-.428.158-1.127-.924-1.59-1.24a32.014 32.014 0 01-3.619-2.255 14.586 14.586 0 01-3.844-4.633c0-.339.293-.395.338-.688a11.114 11.114 0 01.226-5.434zm39.594 1.939c.44.079.744-.293 1.026-.677a5.54 5.54 0 013.619 2.492c-.665 2.931-4.656.372-4.645-1.815zm27.159-.361c2.785-.755 4.848.767 7.576 1.477 4.938 1.274 11.703 0 14.036 3.732-1.127 1.127-1.51 3.01-1.589 5.197-2.864-1.015-6.156-1.127-9.504-1.578-1.567-.203-3.134-.587-4.747-.79a22.745 22.745 0 00-6.448-.462c-.237-.101-.451-.225-.688-.338-.237-.113-.113.496-.338.575a6.756 6.756 0 01-2.717-1.815 26.5 26.5 0 014.419-5.998zm10.406 3.281c-2.627-.62-5.062-2.255-7.463-1.691-.575.135-.993.721-1.365 1.127a27.45 27.45 0 00-2.029 2.943c5.716 1.262 12.469 1.477 17.982 2.942a6.92 6.92 0 01.902-4.306c-2.458-.418-5.073-.327-8.027-1.015zm-35.186 27.26c-1.499-.71-3.675-1.883-2.379-4.07 1.94.519 3.743 1.128 3.507 3.856-.925.068-1.545-1.218-1.128.214zm38.139-145.942c-.09-.44.327-1.454.226-1.578a6.34 6.34 0 012.029-1.59 40.218 40.218 0 0112.672-5.197c10.146-2.074 23.19-1.623 28.85 4.408a21.512 21.512 0 00-9.853-3.506c-12.402-.767-21.297 1.375-28.738 5.772-.677.54-1.393 1.03-2.142 1.466-.879.35-1.995 0-2.717.338-.146.147-.18 0-.338 0l.011-.113z"/><path fill-rule="evenodd" clip-rule="evenodd" d="M213.756 288.068c-2.852-5.141-3.946-12.21-4.306-19.797-.372-7.892 1.51-15.073 2.491-21.725a604.585 604.585 0 01-15.377-11.871c-5.13-4.093-10.384-7.802-15.502-11.77-4.825-3.743-10.857-7.656-15.953-11.274-3.81-2.74-7.79-5.818-11.77-8.602-1.217-.857-3.382-2.436-4.408-2.492-.44 0-.947.383-1.59.451-.642.068-1.127-.068-1.578 0-.812.135-1.499.71-2.255.789-3.145.372-6.854-2.086-9.842-1.916-2.987.169-5.851.777-8.94 1.127a16.056 16.056 0 01-3.168.338c-1.195-.158-3.157-1.804-4.408-2.942-1.026-.925-3.078-2.571-3.382-4.07-.305-1.5 0-3.484.902-3.845 1.217-.473 2.807.632 3.844 1.353 1.037.722 2.097 2.154 2.942 2.255.846.101 2.255-.857 2.718-1.127-2.56-1.252-6.472-1.748-6.336-5.322a4.506 4.506 0 01-4.07-5.084c-3.27.451-4.566-1.917-3.856-5.434a19.253 19.253 0 013.517-2.154c-2.536-1.905-5.107-3.822-7.812-5.885-2.965-2.254-5.705-5.389-10.068-5.885a3.674 3.674 0 00-1.917-.563c0 .36-.259.496-.236.913.518 1.127 3.134 1.263 2.942 3.168-.248 2.683-6.313 1.026-6.674-.801-.823 4.318-9.335.35-8.929-2.254.192-1.297 2.255-1.128 3.619-.79 0-1.037.958-1.758.902-2.491-1.793 0-3.81-.88-5.998-.913-.992-.756-.428-2.864-.338-4.183 5.806-7.892 11.95-15.423 17.756-23.303.587.992 1.195 2.255 1.815 3.28.62 1.026 1.207 2.334 2.255 2.605.846-.553 0-1.658.226-2.83 1.86-2.604 5.716 1.973 5.084 4.634a1.51 1.51 0 01-1.127 1.127c-1.128.271-2.063-1.218-2.83-.101a15.939 15.939 0 002.153 4.069 8.386 8.386 0 002.03-1.127c0-1.218-.09-2.503.687-2.931 3.698-.079 4.724 6.764 1.015 7.463a6.3 6.3 0 01-1.59-1.928c-1.623.711-.225 2.109.35 2.83 1.623 2.086 3.484 3.055 5.31 4.645.924.8 1.545 1.804 2.379 2.593 2.593 2.469 6.223 4.51 9.019 7.024.846.755 2.041 2.412 2.83 2.593 1.961.462 4.712-1.353 6.899-1.128 3.27.327 7.374 3.935 9.617 5.547 3.168 2.255 6.088 4.059 8.365 6.764.53.632.947 1.556 1.365 2.041 1.341 1.556 3.01 2.965 4.509 4.408a16.918 16.918 0 005.209 3.732 43.567 43.567 0 004.746-3.845c0-.834.552-1.409 1.477-1.815a102.143 102.143 0 008.478 7.588c2.164 1.77 4.036 4.16 6.11 5.873.744.62 1.646 1.06 2.379 1.703 2.255 1.928 3.676 4.915 6.765 5.772 2.04 2.593 5.738 3.529 8.038 5.885.27-.135-.282-.473.214-.462.282 1.285 2.029 1.127 2.379 2.255 1.826.281 3.303 2.401 5.434 2.378a1.756 1.756 0 001.815.677c1.071 1.127 3.382 1.026 4.859 1.691a24.099 24.099 0 005.772-2.931c.587-.406 1.308-.789 1.466-1.252.158-.462-1.037 0-.902-1.014.488.142.946.371 1.353.676a4.288 4.288 0 011.364-1.353 39.014 39.014 0 004.634-15.614c.321-2.096.397-4.223.225-6.336-.113-.823-1.127-1.86-1.691-2.717-1.601-2.559-2.773-5.637-4.07-8.14.248-.789-.248-1.59-.338-2.604-.203-2.018.462-4.318.676-6.111a12.268 12.268 0 012.154-3.844 6.187 6.187 0 012.593-2.492c.273-.173.536-.361.789-.563a62.286 62.286 0 006.223-4.307c1.5-1.319 3.123-2.92 4.645-4.183 1.026-.845 2.007-1.612 2.943-2.491a29.36 29.36 0 012.593-2.368c-.666-1.815-2.684-2.897-3.732-3.968 3.157.552 5.975-.643 9.166-.564.484-3.664.157-7.452.451-11.274 4.768.474 8.895-.879 10.642-3.732a.97.97 0 01.902 0c.368-1.473.52-2.992.451-4.509a26.91 26.91 0 01-13.236-6.111c-2.728-2.367-4.43-5.231-3.731-9.019 0-.338-.361.53-.338-.101.27-1.899.646-3.781 1.127-5.637.259-.711 1.127-1.714 1.477-2.605 1.071-2.874.969-5.997 1.465-9.165.745-4.77 2.041-9.403 4.296-12.672 1.127-1.646 2.255-3.382 3.506-4.972a41.17 41.17 0 013.563-3.653 26.066 26.066 0 002.942-3.63 76.032 76.032 0 005.321-8.771 35.62 35.62 0 012.717-4.307c.846-1.127 1.376-1.86 2.255-2.931a38.39 38.39 0 013.168-3.856 20.707 20.707 0 013.055-2.255 38.338 38.338 0 0110.744-4.644c4.014-.947 8.14-.823 12.898-.677 4.453.136 8.839 0 12.559 1.24a26.143 26.143 0 019.166 4.758 32.255 32.255 0 00-12.108-3.957c-7.374-.722-16.336-.8-22.176 1.127a51.998 51.998 0 00-8.151 3.506c-2.255 1.218-4.138 3.383-5.987 5.547.812.665-.564 2.616.226 3.62.789 1.003 2.751 1.003 3.055 2.254.237 1.003-.665 1.973-.35 3.382 1.906-.857 3.27.395 4.307 1.364.068.643-.146 1.579.113 2.03 2.108-1.049 3.574.868 4.746 1.815 1.24-.778 3.585.902 3.969 1.927.202.553 0 1.207.225 1.692.462.947 1.759.98 1.917 2.04 2.029-.868 3.957.925 4.757 2.379 1.939-1.624 3.811.834 5.085 1.916 1.849-1.803 5.851.564 5.547 3.732.823-.146 1.465-1.003 2.491-1.014 1.635 0 3.224 1.758 3.957 2.83 1.387-.113 2.627.304 2.943 1.69a2.151 2.151 0 00-1.026.237 3.78 3.78 0 011.589 3.157c.981 0 1.68-1.195 2.717-1.127.857.067 3.112 1.69 2.379 3.167.654 0 1.364.485 1.804.339 1.128-1.522 2.323-3.044 3.382-4.747a29.176 29.176 0 002.943-5.208c1.77-5.04 1.127-11.815-1.128-16.742a47.264 47.264 0 00-2.942-4.86c-.248-.427-1.037-.946-.677-1.589a4.795 4.795 0 012.481 2.04c.778 1.072 1.454 2.312 2.255 3.507a22.731 22.731 0 013.731 13.01 21.213 21.213 0 01-3.281 10.147 75.912 75.912 0 01-7.237 9.955 352.729 352.729 0 00-4.296 5.208c-3.382 4.284-4.509 8.839-6.223 14.25a8.908 8.908 0 012.48 1.816c-1.127.518-1.984 1.251-3.156 1.691a37.922 37.922 0 00.338 9.278 61.06 61.06 0 001.578 7.892 65.548 65.548 0 012.255 6.685c.53 2.706.958 5.953-.113 8.704a11.2 11.2 0 01-2.717 3.619c-.101.09-.338 0-.338 0s.18.203 0 .327c-2.458 1.747-6.009 2.638-9.279 3.382-5.738 1.342-8.072 3.63-9.278 9.504-.62 3.01.192 6.505 1.702 8.038 4.758 1.77 11.331-.62 10.068-5.547a3.094 3.094 0 00-3.055 1.477c-.699-.631-2.255-.992-2.255-1.928a2.797 2.797 0 012.041-1.352c2.254-.237 5.84 2.175 6.11 4.182.304 2.255-1.409 3.495-2.83 4.634-5.535 2.255-12.254-.451-13.923-5.085-1.127-3.179-.271-6.944.688-10.067.327-.563.705-1.095 1.127-1.59.338-.361.631-.722 1.128-1.24 2.559-2.695 8.218-2.751 12.559-4.645a19.734 19.734 0 002.942-1.691 16.732 16.732 0 002.604-3.281c.936-1.713.812-4.239.677-6.336-.214-3.483-1.781-6.572-2.604-9.019a44.303 44.303 0 01-1.466-7.238 31.51 31.51 0 01-.519-8.41c-1.679-.519-3.179-1.804-4.509-2.255a18.04 18.04 0 01-8.027 5.434c.124.519.721.564.676 1.251-.406.519-1.77 3.033-1.465 4.409.09.428.834 1.014 1.014 1.352a62.534 62.534 0 003.619 6.765c1.488 2.187 3.382 3.934 4.645 5.772a33.311 33.311 0 00-5.209 11.094c-3.9-2.965-10.214-3.518-16.629-3.969.97 5.006 2.774 9.921 3.383 15.164-.97-.44-1.928-1.128-3.056-1.579-4.802-1.916-11.713-.654-17.655-.112-8.85.8-14.25 3.517-17.643 8.365-.361.293-.463.135-.902 0a18.78 18.78 0 01-1.026 3.055c-.136.519.575.181.676.451-.27.248-.958.102-1.014.564-2.751 15.344.901 30.755 3.844 44.126.497.043.99.119 1.477.226.462.18.665-.271 1.24-.226a13.01 13.01 0 012.491 1.026c2.145.591 4.343.968 6.562 1.127 1.454.902 3.066.857 4.758 1.353 3.032.902 5.31 2.796 8.252 3.619a9.957 9.957 0 011.928 1.477c1.048-1.127 3.63-.812 4.972-1.702 2.886 1.06 3.799-.97 5.321-2.492a15.89 15.89 0 002.604-2.818c5.513-2.627 8.85-7.193 10.519-13.698a48.866 48.866 0 00.902-20.023 7.337 7.337 0 002.379.226c1.127 6.651 1.488 13.653-.226 19.571-.845 2.932-1.398 6.291-2.717 8.264a2.702 2.702 0 01-1.014.902 18.714 18.714 0 01-6.224 8.377c-.439.338-.811 1.127-1.127 1.24-.316.113-.541 0-.789.113-1.41.935-2.368 2.638-4.183 2.942.203.654-1.127.282-.902 1.24-.372-.124-.496-.485-.8-.113-2.379 1.77-5.57 2.729-8.253 4.194-.248.248-.372-.203-.676-.225-.113.699-1.128.733-1.703.902a6.67 6.67 0 01-2.491.451c-.35-.057-.079.518-.338.563-1.128-.372-2.007.451-2.943.564-.316 0-.699-.259-1.015-.225-.315.033-.575.428-.901.451a3.071 3.071 0 01-1.128-.226c-.192.169.214.586-.338.575-1.657 0-2.954 1.128-4.634 1.466-.451-.181 0 .496-.338.451a13.51 13.51 0 00-4.374 1.51c-.812-.394-3.123.959-3.506 0-.542 1.658.135 3.676.338 5.637.203 1.962.473 4.093.688 5.998.935-.428 2.254-.113 2.593-.902 5.997.417 11.42-2.57 15.783-1.815 1.229-.778 2.909-.259 4.51-.564.552-.101 1.037-.405 1.578-.451 2.503-.202 4.825-.09 6.674-1.24.609.44 1.263-.09 1.703-.451a6.759 6.759 0 004.182-1.251c1.218.733 2.593-1.127 4.183-1.127.18-.654 1.014-.654 1.702-.79.834-1.127 2.379-.935 3.506-2.378 1.477-.068 1.782-.891 2.492-1.365.282-.18.721-.225 1.015-.451.631-.462.732-1.127 1.691-1.127.958-1.499 3.01-1.905 3.743-3.619.654 0 .879-.473 1.465-.564.327-.281.35-.856.688-1.127 2.435-.789 2.976-3.506 5.31-4.408 2.018-2.807 4.51-5.164 6.223-8.264 1.128-.451 1.455-1.635 2.041-2.604-2.717-5.547-6.505-11.398-6.449-18.433a47.053 47.053 0 013.281-15.727c1.939-5.31 3.495-10.485 2.604-16.517-.89-6.031-6.516-8.962-7.024-15.05a22.713 22.713 0 013.056-13.011c2.333-3.258 5.017-4.971 6.336-9.165a6.932 6.932 0 00.338-1.691c.53-7.813-7.283-10.485-8.14-17.204.237-.677.71-.294.677-.902.095-.163.209-.314.338-.451.406-.26-.181.394.225 0 .181-.226.632 1.037.789 1.477.237.642.542 1.307.688 1.803a19.557 19.557 0 004.07 7.577c2.029 2.322 3.551 4.374 3.957 7.7.451 3.63-1.567 5.716-2.83 8.139a19.232 19.232 0 00-2.717 2.943c-2.57 2.92-3.991 7.463-4.295 12.401-.304 4.938 2.401 7.813 4.51 10.97a19.165 19.165 0 012.818 12.221c-.316 3.382-1.646 6.697-2.818 9.955-2.255 6.122-4.352 14.453-2.379 21.95a56.373 56.373 0 003.731 9.391c.925-.439 1.737 1.466 2.605 2.154-.338.428-.57.93-.677 1.465 3.484 6.111 3.326 16.021 1.015 22.548-.913 2.548-2.255 4.972-3.055 7.588-1.026 3.517-2.683 7.993-2.041 12.209-1.42.136-.293 5.085.338 6.111 1.218 1.95 3.924 2.582 4.871 4.757 2.322 5.367-3.191 10.44-.451 15.84-2.323-.575-3.134-2.491-3.281-4.419-.372-4.724 3.619-9.831.789-13.799-1.127-1.567-3.574-2.469-4.509-4.07-.496-.835-.327-1.556-.801-2.717-.079-.215-.113 0-.225 0-.632-.361-.44-2.131-1.015-2.492 1.488-.203 1.049-1.477 1.24-2.942a51.464 51.464 0 011.477-6.675 64.3 64.3 0 012.029-6.336c.778-1.984 1.804-3.833 2.379-5.637a32.922 32.922 0 00.113-18.094 75.778 75.778 0 01-14.589 17.418c-.451.406-.687.789-1.127 1.127-.44.339-.473.17-.676.451-.62.835-.587 2.255-.79 3.056a45.433 45.433 0 00-1.364 5.197c-.755 5.186-1.048 12.029 0 16.911.857 3.889 3.822 6.764 5.998 9.38A93.629 93.629 0 01329.619 288h-1.703a108.103 108.103 0 00-12.559-18.545c-3.788-2.638-5.479-7.791-5.873-13.134-.451-5.818.653-11.139 1.24-15.491a1.876 1.876 0 01-.677.902 59.26 59.26 0 00-6.764 4.51c0-.282 0-.542-.226-.564-.248.665-1.612.8-1.916 1.477-.643 1.398.812 3.01 1.353 4.408a36.261 36.261 0 011.127 4.859c.293 1.127.722 2.108.913 3.168.192 1.06.485 2.255.677 3.382.406 2.48 0 4.814-.113 7.7 0 1.037.068 2.075 0 3.168-.35 5.637-2.864 9.707-4.634 14.025v.113h-4.194c2.751-4.025 4.51-10.011 5.637-16.178.44-2.255 1.241-4.69 1.015-7.125a24.011 24.011 0 00-1.24-4.296c-1.263-4.261-2.255-8.613-4.87-11.657-.496.169-.812.541-1.353.676-.947-.203-.992.485-1.804.339-.552.473-1.59.451-2.255.8 3.867 9.944.958 23.585-3.856 30.767a10.63 10.63 0 01.688 6.674h-1.511a2.591 2.591 0 00-.563-4.51c-.959 1.567-2.03 3.022-3.056 4.51h-4.047a22.784 22.784 0 004.51-5.772c-3.653-3.507-4.679-9.64-9.279-12.21-3.382 3.45-5.637 7.971-8.365 12.097 1.623.361 2.785 1.026 4.408.913a10.915 10.915 0 011.59-.338c2.627.158 3.912 3.833 5.422 5.31h-2.48v-.113c-1.274-2.638-3.585-1.342-6.336-1.691a7.669 7.669 0 01-3.506-1.477c-.383-.271-.778.18-1.127-.113a5.457 5.457 0 00-.226-1.353c-4.137-3.032-8.545-5.524-12.784-8.489-1.353-.947-2.492-2.469-4.296-2.717-.27.474.429.789.564 1.477.126.846.008 1.71-.338 2.492-1.804-.384-3.259-3.743-1.365-5.096a60.989 60.989 0 00-6.324-4.871c-1.5 3.022-6.212.835-8.49 0 1.996 2.097 5.525 4.33 4.984 8.941-.102.8-.62 2.254-.914 2.254-.7-.458-1.378-.95-2.029-1.476-.947-.666-1.454-1.128-2.041-1.466a23.804 23.804 0 01-4.182-2.83c-2.086-2.255-2.796-5.986-3.619-9.504-1.748-1.758-3.461-3.54-3.292-6.448.09-1.41.981-2.255.688-3.958-2.436-1.127-4.115-2.976-6.562-4.07-.733 5.074-2.739 10.609-3.055 16.517-.316 5.907.53 12.131 2.83 16.629.699 1.375 1.477 2.661 2.142 3.957a29.893 29.893 0 002.379 3.382l-4.206.113zM273.26 57.11c5.536 2.93 7.531 11.657 6.336 18.884-.327-.237-.36.563-.451.913-.563.09-.811 1.533-1.589 1.804-.181.687-.508.8-.902 1.364a16.3 16.3 0 01-1.24 1.24c-.271.282-.632.857-.902 1.127-.057 0-.203-.146-.237-.112-.158.214 0 .394-.214.563-.214.17-.688.327-.801.451-.46.446-.95.86-1.465 1.24-.823.71-2.807 1.804-3.056 2.04-1.071 1.016-2.435 1.636-3.168 2.493h-.338c-.18.135-.09.428-.225.563-.136.135-.429 0-.688.338-.259.339-.271.361-.564.451 0 .451-.654.62-.902 1.128 0 0 .215.259.113.338-.101.079-.225-.124-.225-.102-.587 1.601.924 2.255 1.353 3.62 1.276.463 2.605.766 3.957.901 1.792.35 3.314 1.601 4.645 1.691 1.33.09 1.679-.563 2.254-.676.192-.515.501-.978.902-1.353-.169-.53.181-1.804-.112-2.491 1.228-.339 1.443 1.86 1.127 3.168-.068.281-.507.135-.225.563-.609.305-1.128 1.669-2.83 1.579-1.703-.09-2.875-1.432-4.972-1.691-3.822-.463-7.001-2.041-7.238-5.886.372.215.056 0 .113-.338.518-.259.879-1.262 1.353-1.24-.372-.36.293.09.112-.45.778-.159.722-.553 1.816-1.365 0 .124-.17.18 0 .226 0-.147.157-.215.112-.451.41-.095.77-.335 1.015-.677a21.813 21.813 0 012.379-1.702 2.67 2.67 0 00.676-.451 9.825 9.825 0 012.041-1.24c.203-.102 0-.316.214-.451.214-.136.721-.192.913-.338.192-.147 0-.282.113-.339.71-.676 1.556-1.5 2.255-2.04a5.698 5.698 0 011.803-2.04c0-.508.327-.7.677-.903-.327-.394.282-.293.338-.45-.124 0-.113-.181-.101-.339.586 0 .428-1.127 1.014-1.251-.281-.305.417-1.23.451-1.353.034-.124-.18-.316-.112-.564.349-1.263-.226-5.14-.451-7.125-2.639-2.198-2.413-7.25-5.547-8.94a42.758 42.758 0 01-3.382 6.11c4.509 1.274 7.959 4.25 8.602 9.02-.981-.948-1.59-.17-2.379-.125a3.708 3.708 0 01-3.732-3.156c.338.157.124-.7.564-.575-.135 0-.124-.18-.113-.339.496 0 .891-1.127 2.029-.901-.62-.598-.462-1.353-1.127-1.816-1.24-.856-3.563.08-4.408-1.24-.158.519-.62.733-.677 1.353-3.314 5.096-7.891 7.892-10.98 13.529-2.176 2.255-3.033 5.896-3.732 9.391-.372.113-.248.733-.451 1.015 1.127-.384 1.804.394 2.379.902-1.026-.61-2.007.507-2.604.45-.316 2.785-.192 5.085-.677 7.238-.237 1.015-.913 1.94-1.127 2.943-.068.327.079.699 0 1.026-.339 1.578-1.184 3.044-1.579 4.633a17.717 17.717 0 00-.687 4.871c.484 7.734 9.391 9.628 17.316 10.146 3.309.306 6.633.419 9.955.339a86.39 86.39 0 009.955-1.128 65.97 65.97 0 0011.545-2.379 22.733 22.733 0 007.35-3.968c1.049-.97 1.737-2.165 3.056-2.819 1.127.711 2.435 1.252 2.942 2.605a4.68 4.68 0 003.168.113c1.285-6.19 3.303-13.777 7.463-18.106 1.759-2.706 3.743-4.77 5.885-7.464-1.127-.113-1.86-1.657-3.055-1.928-.372-.079-.89.158-1.24.113a6.99 6.99 0 01-3.743-2.604 4.387 4.387 0 01-.789-2.605c.135 0 .327 0 .338-.101a7.123 7.123 0 01-3.168-2.492c-2.717 2.447-6.324-.27-7.125-3.055-1.635 1.23-3.754-.654-4.87-1.928-2.03 1.42-4.093-.97-5.085-2.378-2.018 1.555-4.746-.902-5.208-3.056a3.386 3.386 0 01-1.804-2.029c-1.917.203-3.067-1.296-4.194-2.255a4.512 4.512 0 01-4.961-3.157c-2.548-.45-5.31-2.784-4.07-6.335a21.156 21.156 0 01-2.829-1.917c-.237.778-1.68 2.3-2.278 3.732zm0 12.401c2.526.767 0-3.089 0 0zm-7.012 54.408c-.62 2.131-.372 4.273-1.015 6.223-.586 1.759-1.341 3.304-1.815 5.096-.879 3.27-2.255 6.471-3.281 9.842-.541 1.714-1.386 3.383-1.927 5.096-.745 2.469-.993 4.78-1.804 7.013-.226.597-.823 1.037-.564 1.803a15.18 15.18 0 014.634-4.746c1.792-1.33 3.292-3.033 5.546-3.844a81.441 81.441 0 0017.644-9.504c5.502-3.721 10.891-7.125 14.938-11.274a17.782 17.782 0 010-8.602c-9.312 2.424-21.42 4.036-32.694 2.717.158.034.191.191.338.225v-.045zm35.073 7.588c-.552 0-.981.699-1.477 1.127-.498.483-1.025.934-1.578 1.353a19.051 19.051 0 01-1.815 1.477c-.564.451-1.218.823-1.804 1.24-3.585 2.57-6.911 5.084-10.406 7.249-3.889 2.401-7.52 4.724-11.432 6.674-2.807 1.398-5.637 1.781-7.688 3.506-.451.372-.722.902-1.128 1.241-.406.338-1.206.642-1.691 1.014a18.75 18.75 0 00-3.506 3.743c4.453-1.432 11.759-2.255 18.038-2.717 4.701-.361 9.019.428 11.996 2.255-.767-5.141-2.39-9.73-3.383-14.927 6.314.474 12.402 1.206 16.855 3.506a30.043 30.043 0 014.983-10.406c-1.691-2.356-4.228-4.836-5.772-7.7a3.122 3.122 0 00-.192 1.41v-.045zm-47.181 23.122c.811-2.254 1.026-4.757 1.815-7.012 1.849-5.287 3.991-10.327 5.31-15.163 0-.068 0-.136-.113-.113-2.131.473-4.904 1.364-7.238.902.057 3.235-.315 7.17-.451 11.206-2.762.147-5.637.744-8.14.789-.281.214.136.474.226.564 3.45 3.664 5.468 8.67 6.325 14.825.507-2.052 1.555-3.991 2.266-5.998zm-142.661 2.661a23.916 23.916 0 01-4.07-2.83c-2.334-2.39-3.585-5.986-5.321-8.94-1.736-2.954-3.8-5.885-5.31-9.019-.124 0-.147-.09-.237-.113-2.334 3.1-5.13 6.449-7.689 9.617-2.255 2.717-4.352 5.637-6.223 8.489-.214.305-.665.812-.451 1.24 3.078-.158 6.156 1.421 9.02 2.041.946.203 1.77.101 2.604.338a21.26 21.26 0 016.223 3.506c5.637 4.127 11.353 8.907 16.629 12.898 1.589-.53 2.931.067 4.295.563-7.17-6.29-15.671-11.274-23.416-16.911-.744.857-1.533.181-2.491-.112-1.737-.53-2.965-.778-4.409-1.24-1.24-.406-4.915-1.703-5.095-2.83-.18-1.128.98-1.691 1.24-2.717 2.796-.62 4.712.699 6.9 1.691 1.826.823 3.833 1.251 4.757 2.604.1.409.137.831.113 1.252 3.822 2.254 7.17 5.084 10.744 7.688 3.574 2.605 7.418 4.893 10.868 7.689 6.855 5.581 13.991 10.767 21.421 15.727 0-.451-.79-.631-.564-.901 3.235 2.096 5.986 4.611 9.166 6.764 3.179 2.153 6.832 3.754 9.954 6.11 3.123 2.357 5.84 4.848 8.941 7.013 1.578 1.127 3.269 2.074 4.746 3.28 1.477 1.207 2.762 2.594 4.307 3.732 3.055 2.255 6.336 4.262 9.391 6.562 3.055 2.3 6.099 4.611 9.154 6.899 3.056 2.289 5.795 4.916 8.941 7.024 3.145 2.108 6.482 4.171 9.729 6.325a124.297 124.297 0 012.604-3.732c-5.276-3.799-11.758-7.227-16.911-11.195a49.955 49.955 0 00-5.411-4.25c-.575-.327-1.5-.508-2.153-.914-1.015-.631-1.883-1.465-2.943-2.142-1.06-.676-1.995-1.409-3.044-2.04-4.34-2.604-8.207-5.513-12.108-8.377-3.901-2.863-8.287-5.456-12.221-8.252-1.984-1.421-3.687-3.078-5.637-4.634a52.001 52.001 0 00-6.449-3.856c-4.408-2.525-7.892-5.783-11.871-8.59-6.043-4.273-12.3-8.185-17.768-13.01-1.815-1.601-3.551-3.191-5.547-4.645-5.073-3.709-9.493-7.035-14.814-10.857-.462-.327-2.762-1.793-2.379-2.604.654-1.376 2.808.721 3.168 1.014 6.765 5.479 14.172 10.35 20.361 15.784-.372-.925.474-1.443.801-2.041-3.969-2.976-7.441-6.471-11.545-9.098zm134.972-7.012c-1.252 1.77-4.262 3.63-5.096 4.509a31.878 31.878 0 01-3.168 2.717c-.879.789-1.928 1.556-3.168 2.492a70.928 70.928 0 01-3.957 2.706c-.72.392-1.403.849-2.041 1.364a17.06 17.06 0 00-1.014 1.578 19.286 19.286 0 00-1.128 1.702 14.728 14.728 0 00-1.127 9.504c.688 4.059 2.976 7.002 4.509 9.955.35.361.88.553 1.128 1.015v.688a83.23 83.23 0 013.506 4.408 70.392 70.392 0 016.111 23.529 5.835 5.835 0 00.112 1.927c.383-.16.704-.441.913-.8.993.428 3.123-1.003 4.747-.677 1.511-1.352 3.777-.135 5.637-.676a202.435 202.435 0 01-4.307-21.838 83.325 83.325 0 01-1.015-14.656c.113-3.235 1.725-7.395-.45-8.602.586-.079 1.025.136 1.352 0a34.945 34.945 0 00-.451-19.233c-.18-.541-.563-2.063-1.014-1.579.034-.157-.057-.225-.079-.09v.057zM89.653 165.486a1.532 1.532 0 01.677-2.104c.248-.122.525-.173.8-.151.202-.396.353-.817.45-1.251-.789-.395-1.916-.237-2.716-.789-.44.879-.869 1.77-1.24 2.717.732.45 1.412.979 2.029 1.578zm69.695 22.176a26.026 26.026 0 01-5.637-4.07c-1.127-1.24-1.826-3.123-3.055-4.509-3.134-3.574-8.219-6.415-12.221-9.02a18.4 18.4 0 00-4.51-2.604c-2.344-.62-4.667 1.128-7.237 1.128-.226.157 0 .789-.339.789-.327-.451-1.42-.665-1.815-.113 2.176 1.702 4.284 0 6.765.462 1.882.293 4.509 2.83 5.772 3.845 5.479 4.509 12.153 7.474 17.644 11.42 1.127 2.255 3.844 3.473 6.11 4.194.113-.947-1.003-1.217-1.488-1.522h.011zm-23.472-9.166c2.706 1.996 5.355 4.115 8.14 6.111a85.075 85.075 0 008.489 5.772c1.646.902 3.202 1.556 4.634 2.492a32.927 32.927 0 013.957 3.168 52.967 52.967 0 008.376 5.772 54.357 54.357 0 018.377 5.874 91.075 91.075 0 0012.773 8.602c1.511.902 2.65 2.254 4.081 3.055.643.349 1.398.44 2.03.789 1.86 1.037 3.382 2.841 5.096 4.194a38.975 38.975 0 005.637 3.732 118.06 118.06 0 0111.273 7.35 8.127 8.127 0 001.928-2.254c-2.254-1.59-4.374-3.225-6.674-4.747-2.3-1.522-4.859-2.773-7.238-4.306-4.566-2.932-8.917-6.348-13.529-9.493-4.385-3.044-9.222-5.953-13.912-9.019-3.269-2.165-6.877-4.814-10.146-7.013-1.917-1.285-3.54-2.063-4.295-3.968a9.292 9.292 0 01-4.082-2.706c-1.127-.135-2.018-1.048-3.168-1.928-3.833-2.92-7.779-5.265-11.871-7.813-1.646-1.014-3.067-2.48-4.645-3.28-.62-.316-1.33-.35-1.917-.677-2.739-1.51-4.34-4.893-7.474-5.637-1.455-.349-2.886 0-4.51-.112 2.909 1.961 5.84 3.934 8.67 6.042zm-13.36-.902c.801-.09 1.207.113 1.59-.338-.879-.439-1.364-1.274-2.255-1.702.361.626.602 1.314.71 2.029l-.045.011zm-10.518-.225c-.451.496-1.128.767-1.466 1.353 3.382 2.052 7.644-.338 10.857-1.128-2.548-2.04-6.934.237-9.346-.225h-.045zm11.995 2.717c-2.976.564-7.7.846-9.278 3.168 3.247 3.224 8.342-.834 11.882-1.364.061-.441.214-.864.451-1.24-.575-.744-2.333-.699-3.01-.564h-.045zm76.821 53.168c-1.128-.879-1.781-1.995-2.83-2.83-1.048-.834-2.255-1.477-3.382-2.255-4.51-3.032-8.377-6.888-12.785-9.954-2.255-1.579-4.814-2.785-6.899-4.51-.925-.767-1.59-1.77-2.492-2.492-2.83-2.254-5.93-3.979-8.715-6.223a114.513 114.513 0 00-11.725-8.241c-4.115-2.514-7.891-5.434-11.882-8.14-3.991-2.706-7.994-5.299-11.77-8.264 0-.135-.124-.067-.226 0-.079.609.181.88.113 1.466a8.674 8.674 0 012.491 1.127c.53.508.643 1.443 1.128 2.03.78.671 1.613 1.278 2.491 1.815l2.492 1.916c4.994 3.957 10.654 7.159 15.727 10.643 7.024 4.825 13.529 10.079 20.361 14.656 14.182 9.662 27.114 20.226 40.169 30.102.18-.835.868-1.128 1.127-1.928-4.058-3.473-9.21-5.536-13.348-8.918h-.045zm-82.3-45.705a13.525 13.525 0 004.51 2.041c-.327-3.642 3.731-2.695 5.986-3.506 0-.485.113-1.128-.101-1.477-4.487-.135-7.058 1.736-10.305 2.942h-.09zm107.824 23.191a14.658 14.658 0 01-3.743 3.506c-1.623 1.003-3.98 2.469-6.099 2.604a16.94 16.94 0 01-2.83-.338c-1.229-.079-2.57.158-3.743 0-1.172-.158-2.356-1.285-3.957-.789a226.174 226.174 0 01-35.175-27.497c-.642-.598-1.86-1.86-2.378-1.804-.699.068-.925 1.285-1.252 1.804-.733 1.127-2.39 2.514-2.717 3.63 4.442 3.518 9.47 6.313 14.036 9.718a77.112 77.112 0 007.013 4.871c3.743 2.254 7.181 4.836 10.744 7.125 1.217.789 2.581 1.398 3.731 2.254a77.901 77.901 0 007.024 4.972c2.492 1.477 4.927 2.92 7.351 4.51 2.424 1.589 4.509 3.484 6.764 5.197.643-.473 2.007.507 2.255.462 1.003-.203 1.364-3.495 1.804-4.081 1.24-1.646 3.438-2.412 4.509-3.506 1.387 0 2.255-1.127 3.382-1.691 1.353-.62 2.999-.722 3.958-1.928.529 0 1.127.056 1.127-.451-.507-.282-1.319-.259-1.466-.902a5.449 5.449 0 001.579.564 60.547 60.547 0 00-4.07-22.74 34.694 34.694 0 00-2.83-6.11c-.282 8.703-1.263 15.648-4.927 20.62h-.09zm-95.265-23.191c-1.657 2.097-5.186 1.038-7.238 2.605 1.128.135 1.635.856 2.83.902 0 .665.575.856 1.015 1.127a4.059 4.059 0 01-.226 2.368c-2.604.259-3.844 1.894-6.561 2.04a10.352 10.352 0 00-6.111-3.619c1.669 2.075 3.901 5.175 7.351 5.434a23.313 23.313 0 003.968-.462c1.421-.192 2.83-.158 4.07-.338.575-.079 1.06-.372 1.691-.451 4.51-.553 9.02 2.514 12.221 1.691.541-.124 1.229-.913 1.703-.564a149.388 149.388 0 01-14.623-10.733h-.09zm115.288 35.299c0 .406-.181.496-.339.677-1.33-.451-2.795.575-4.069.338-.294.214.236.586-.237.688-.214 0-.282-.249-.564-.226a16.795 16.795 0 01-3.168 1.466.291.291 0 01.226.338c-1.973-.451-2.334 1.815-3.507 1.127-2.987 2.255-7.508 2.909-9.504 6.111 1.004.778 2.041 1.51 3.056 2.255a14.35 14.35 0 013.28-1.241c-.383-2.57.418-4.949 2.605-5.321 1.386 2.841 4.611 3.833 7.238 5.434 4.239 0 9.425 1.128 12.401.564a4.194 4.194 0 01.564-3.281c.631.147 2.006-.789 2.829-.113.226-.079-.067-.676.339-.563a1.028 1.028 0 00.789.451 45.57 45.57 0 006.336-1.477c.169-.147 0-.553.349-.564 1.669.079 2.368-1.127 3.732-1.015a.53.53 0 01.225-.563c.384.36 1.128 0 1.353-.339-1.33-1.127-3.551-1.285-4.746-2.491-.372 0-.44.316-.913.225-1.06-1.679-3.563-.417-5.31-1.815-1.443 0-2.345.102-3.168-.451-.35-.079-.136.395-.564.226-.406 0-.372-.383-.688-.451a.632.632 0 01-.676.338c-1.556-1.06-3.597.18-4.634-.564-.124.102 0 .418-.338.339-.27-.654-1.691.18-2.807-.102h-.09zm-12.221 9.279c-.88.203-2.379 1.127-1.477 2.04.62-.372 1.657-.315 2.255-.688a8.813 8.813 0 01-.688-1.352h-.09zm-11.195 2.153a14.077 14.077 0 00-2.255 2.367 20.677 20.677 0 004.295 3.056 9.728 9.728 0 001.928-2.943 25.214 25.214 0 00-3.878-2.48h-.09zm23.077 3.619c-.24.159-.507.274-.789.338-5.851-1.319-16.268-2.931-19.244 3.382 1.274 3.382-2.109 5.581-3.732 7.238-.406.417-1.127.925-.902 1.477.8.327 1.533-.755 2.153-1.364.62-.609 1.297-1.545 2.142-1.578.745 4.509-4.216 5.095-5.31 8.478a11.992 11.992 0 002.605 3.055c.766-3.112 2.142-6.212 4.509-7.351.462 3.924-2.987 5.254-3.957 8.027-.665 1.917.699 4.431 1.466 5.998 1.995 4.047 6.121 5.975 9.504 8.038-.981-2.48-3.213-2.841-4.634-4.509a7.19 7.19 0 01-1.127-5.085c.281-3.382 3.54-7.486 5.997-8.602 1.872-.845 4.082-.699 5.998-1.928.136-.456.366-.879.677-1.24 1.533.35 1.849-1.589 3.168-2.029 1.657-.575 4.013-.361 5.885-.462a49.342 49.342 0 005.772-.451c0-3.901-.925-6.844-1.252-10.406-2.852-.812-6.257-.045-8.838-1.026h-.091zm-26.933.225c-.62 1.229-1.545 2.142-2.255 3.281 1.488 1.714 3.675 2.74 5.423 4.183.597-1.398 1.048-2.954 1.702-4.296-1.747-.845-2.705-2.57-4.78-3.168h-.09zm-4.972 7.351a46.057 46.057 0 006.111 4.07 5.902 5.902 0 01.902-2.717c-2.12-.97-3.383-2.819-5.637-3.619-.181.958-.914 1.432-1.286 2.266h-.09zm77.159 19.346c.169-2.976-1.048-4.915-1.702-7.351a18.455 18.455 0 00-2.041-5.637c0-.067 0-.135-.113-.112-.112.022 0-.136-.112-.113-1.443.485-2.853.248-3.845.789-2.119-.282-3.901.598-5.535.226 0 .27-.124.484-.35.563-.552-1.026-.958.26-1.804-.338-.518.913-2.142-.101-3.168.575-.27 0-.214-.394-.563-.349-.575.744-1.714.214-2.379.8-.451.068-.451-.304-.902-.225a13.543 13.543 0 01-4.645 1.24c-.18 0-.056.315-.225.338a4.624 4.624 0 00-3.281.225 3.944 3.944 0 010 3.619 2.065 2.065 0 00-2.717-.902c3.777 2.684 8.884 5.964 12.897 8.941.569.497 1.176.949 1.815 1.353.812-.091.902-2.018 1.692-1.804a35.907 35.907 0 013.066 2.593c2.773 3.382 3.315 9.165 7.892 10.755a27.86 27.86 0 006.11-15.186h-.09zm-41.296-11.544a65.18 65.18 0 005.546 3.382 9.594 9.594 0 011.691-1.928c-.18-.62-.124-1.466-.45-1.928-1.973-.349-4.769.316-6.697.474h-.09zm-5.998.349c2.334 2.83 5.795 4.51 8.715 6.764a24.047 24.047 0 001.465-2.378c-3.292-1.252-5.389-5.525-10.056-4.386h-.124zm-1.466 1.466c-1.386 1.183.677 2.074.902 3.055.226.981-.394 2.153-.225 2.942.484 2.255 4.509 2.83 5.885 4.07.766-1.127 1.713-1.973 2.48-3.055-2.616-2.649-6.144-4.476-8.952-7.012h-.09zm-4.419 2.717a9.637 9.637 0 003.382 1.353c-.124-.632-1.127-1.353-1.353-2.255-.361.518-1.398.462-1.939.902h-.09zm4.645 5.197c-2.255-1.421-5.457-1.646-6.765-3.732-.18-.236-.124-.699-.451-.789 0-.068 0-.135-.124-.113-.541.395-1.42.451-1.691 1.128 1.736 1.127 4.115 1.353 5.096 3.292.282.563.282 1.127.564 1.465 1.713 2.086 5.096 2.819 7.012 4.859.442-.817.932-1.607 1.466-2.367-1.917-.812-3.067-2.503-5.017-3.743h-.09zm13.235-3.844a13.382 13.382 0 01-1.815 2.153c4.679 4.374 10.147 7.892 15.164 11.995a30.726 30.726 0 002.255-3.382c-4.848-3.856-10.147-7.35-15.513-10.766h-.091zm-25.4 3.63a17.216 17.216 0 006.111 1.578c-1.41-1.341-3.845-1.668-4.871-3.382-.259.699-1.037.947-1.24 1.804zm22.401.439c-.721 1.128-1.522 2.097-2.254 3.18 5.637 3.438 10.259 7.891 15.783 11.42.564-1.06 1.331-1.905 1.928-2.942-5.096-3.957-9.932-8.129-15.423-11.624l-.034-.034zm-3.382 4.645a11.178 11.178 0 00-1.815 2.379c5.062 3.991 10.834 7.272 16.066 11.082.451-.721 1.206-1.127 1.476-2.04-5.321-3.709-9.943-8.14-15.704-11.421h-.023z"/><path fill-rule="evenodd" clip-rule="evenodd" d="M323.497 64.347c.158.113.598-.056.338-.225.192-.53.305.687.339 0 .101 0 .203.101.225.225-.372.305.102.068.113.338 0 .71-.631 2.086-.226 2.943-.552 1.014-1.127 2.987-1.702 4.182-.575 1.195-1.127 1.128-1.804 1.703-.338.26-.417.654-.676.676-.361-.473-.44.09-.564-.676.417.327 0-.417 0-.677.09 0 .102.113.214.102-.947-2.255.97-3.98 1.703-6.438a8.07 8.07 0 002.04-2.153zm-68.218 31.342a8.064 8.064 0 01-1.364-3.28c1.386-.08 1.217 1.724 1.589 2.48 1.5 3.122 5.964 3.821 6.562 7.812 3.923.891 5.738 3.912 8.139 6.336a8.086 8.086 0 014.07 1.466 28.887 28.887 0 01-4.971-1.353c-.294.124.631.282.225.564-.507-.215-.857.473-1.477.225-5.637 3.27-13.393-3.754-13.529-9.278a4.93 4.93 0 01.113-1.579s.214.147.226.113c.011-.034-.327-.834.112-.45.057-.283-.203-.249-.112-.576.394.395.078-1.127.575-.789-.091-.079-.26-.631 0-.676 0-.474.169 0 .338 0 .293-.598-1.793-1.511-.496-1.015zm14.363 13.01c-1.894-1.127-2.853-3.619-4.871-4.758-1.127-.642-2.841-.338-3.844-1.465 0-2.424-2.334-4.352-4.183-5.637 2.357 5.806 6.167 10.778 12.898 11.86zm-13.529-9.391c-.271 0-.417.766-.451 1.24-.349 4.386 3.619 9.019 7.238 9.391 2.582.271 3.484-.642 5.434-.902-.541-.631-1.375-.721-2.041-1.026-4.723-2.097-7.666-5.727-9.955-10.146 0 .169 0 .417-.112.45.056.057-.372.553-.158.993h.045zm18.963 9.843c1.127-.091 2.446 2.435 1.578 2.717a.723.723 0 01.113.563 5.17 5.17 0 00-.677.226c-.146 0-.214-.474-.225 0a1.453 1.453 0 01-.451-1.015c.597.079.564-2.21-.338-2.491zm-42.762 15.613c.124 0 .056.113 0 .113-.057 0 .834 0 .789-.225 1.353.428 0 1.815.113 2.142-.361-.068-.158.406-.463.112a1.026 1.026 0 01-.676 1.026c.192.541-.936 2.436-1.128 2.83-.191.395-.225.271-.338.677-.214.777-1.127 1.702-1.353 2.48-.056.18.237.18.102.462-.135.282 0 .192-.102.676 0 0-.203-.157-.236-.112-.136.259-.169 1.127-.339 1.916a58.566 58.566 0 00-1.352 6.336c-.095.937-.14 1.878-.136 2.819-.09 0-.112-.113-.225-.113a17.805 17.805 0 01-.801 3.957c-1.871-4.058-1.702-10.146-.112-14.814h.349c-.169-.372.169-1.127.451-1.364-.507 0 .135-.395.113-.338.473-1.037 1.127-2.875 2.029-4.51 0-.056.147.068.124.113.411-.898.942-1.737 1.578-2.492 0 0 .181.17.226.113.063-.182.101-.371.113-.564.146-.09.27.305.112-.225.26 0 .485-.101.339-.451.304.35.383-.462.676-.113-.022-.236.102-.304.147-.451zm-35.085 30.654c.372-.225.169.643.35.226-.091.575.484.372 0 1.127-.305 0 .101-.642-.35-.462 0-.35.214-.395.124-.789-.135 0-.101.203-.124.338-.146.372-.146-.428 0-.44zm125.795-96.392c.248-.056-.147-.169.113-.338.259-.17-.091.541.225.45-.473-.146-.135.655-.688.452-.541 1.961-2.841 2.255-4.182 3.168-.135.09.067.169-.113.35-.658.415-1.339.791-2.041 1.127a20.14 20.14 0 01-1.691 1.578c-.612.397-1.202.826-1.77 1.285-.349.282-.687.609-.676.564-.24.285-.504.55-.789.79a5.19 5.19 0 01-2.605 0c-.89-1.917 1.365-2.774 2.605-3.733.496-.383 1.127-.935 1.578-1.24l.913-.687a66.962 66.962 0 012.142-1.466 23.677 23.677 0 013.518-2.255 11.958 11.958 0 012.255-.225c.417-.08 1.206-.248 1.206.18zM305.73 90.029c-.181.282-.542-.203-.79-.225 0 .101.102.202.226.225a7.326 7.326 0 01-3.844-2.83 41.55 41.55 0 01-12.402-7.576c.474-.304.992.35 1.128-.113 2.378 1.522 5.558 2.661 8.151 4.296 1.217.766 2.322 1.826 3.506 2.717a28.031 28.031 0 013.619 2.604c.067.124-.338.688.406.902zm-14.589-2.717c.384 0 .756-.338 1.353-.451-1.928-.417-3.923-.755-4.983-2.04a11.125 11.125 0 017.892 3.28c.898.8 1.731 1.671 2.491 2.604 1.263 1.703.97 4.194 2.717 5.773a5.643 5.643 0 01-4.081-4.758c-.09 0-.113-.113-.225-.113.101.7-1.24.744-1.917 1.252-1.804-.575-4.216-1.511-4.183-3.507.046-1.251.79-.947.936-2.04zm.451 1.928c.124.406 1.206.259 1.353 0 .068-.598-.101-.959-.564-1.026-.383.191-.924.721-.789 1.026z"/><path fill-rule="evenodd" clip-rule="evenodd" d="M241.017 97.38a10.44 10.44 0 01-.902.676c-.62 1.77-.732 3.495-1.702 4.87-.97 1.376-2.57 2.188-3.168 3.281a25.97 25.97 0 01-2.029 1.579c-1.59 1.206-3.461 2.254-5.434 3.517a71.513 71.513 0 00-12.221 9.91c-.699 1.274-2.503 3.055-2.943 4.295-.805.401-1.562.893-2.255 1.466-1.465-.158-.079-1.951-.451-3.055 2.131-3.879 5.232-6.359 8.14-8.929.147-.136.203-.44.338-.575 2.131-2.075 4.42-3.044 6.9-4.634 1.669-1.06 3.067-2.063 4.51-3.055.293-.192.676-.282.902-.451.225-.169.473-.654.789-.902.315-.248.631-.203.8-.338.026-.156.059-.31.102-.463.575-.563 1.386-1.195 2.379-2.254.62-.666 1.127-1.556 1.702-2.255a22.384 22.384 0 001.015-4.296c.507.158.563-.44.901-.112.869-8.546 3.788-15.028 8.715-20.034a29.828 29.828 0 013.957-4.51c.147-.124.564-.124.677-.225.113-.102.191-.53.349-.677.143-.064.295-.102.451-.112.124-.147.44-.835.789-1.252 4.194-4.881 7.047-11.916 10.519-17.643.913-1.5 1.702-2.796 2.717-4.183.293-.395.586-1.026 1.127-1.127-.338-.327.237-.248.113-.677a86.416 86.416 0 016.111-7.35c4.408-4.713 10.236-7.723 16.911-10.305a41.447 41.447 0 0113.438-3.303 78.716 78.716 0 018.365.225c5.198.327 10.902 1.736 14.938 4.408 4.33 2.864 8.061 6.46 8.602 12.402 4.161.924 6.765 3.382 9.606 5.637v1.24c-2.255-2.819-4.701-5.48-9.955-5.322a27.358 27.358 0 01-2.48-1.69c.789-3.98-1.522-7.825-3.732-10.147-3.134-3.382-10.147-4.634-15.276-4.87a61.475 61.475 0 00-11.657.225 49.107 49.107 0 00-10.147 3.168 70.884 70.884 0 00-8.963 4.374c-5.828 3.383-9.571 8.433-13.235 13.247-3.507 4.6-7.317 11.635-10.294 17.531-1.217 1.387-1.803 3.112-2.829 4.51a39.097 39.097 0 01-3.056 3.179c-1.183 1.387-3.077 3.202-4.509 4.746a34.011 34.011 0 00-8.625 20.26zm71.387 87.565a14.403 14.403 0 011.251 4.87c.463 7.892 5.22 14.194 8.478 19.572.136.214.508.676.339 1.014-4.262-5.005-9.595-11.398-10.97-19.684a12.896 12.896 0 01-.451-3.845c.169-.789 1.127-1.014 1.127-1.815.215-.101.068.654.226.226v-.338z"/><path d="M38.807 164.979c2.796.992 5.187 3.19 7.892 4.284 1.579.642 3 1.781 4.837 2.108-.71-.925-1.387-2.322-2.108-1.973 0-.485-2.334-2.999-3.766-3.732-.395-.203-.8.215-1.353 0-1.003-.315-2.063-1.758-3.258-2.39a11.963 11.963 0 00-7.317-1.341c-6.9.563-15.118 1.826-22.818 2.254v5.502a733.941 733.941 0 0118.41-3.675c3.28-.654 6.82-1.962 9.481-1.037zM26.17 227.865a69.222 69.222 0 007.7-.722c.676-.146 1.127-.665 1.78-.733 6.303-.732 12.876.395 19.302-.428 3.495-.44 6.561-2.187 10.146-2.379 2.109 1.263 2.255 4.577 4.51 5.75.293-.383.778-.586.631-1.387-2.367-1.341-2.254-4.938-4.735-5.738-3.472-1.128-15.174 5.118-17.892 1.511-.676.157-1.961-.226-2.254.304.462.113 1.477-.338 1.59.169-7.261-.068-12.65-2.131-18.952-3.224-.316.902 1.443.778.936 1.127-1.049.575-1.207-1.612-2.109-1.973-5.637-.507-11.274-.8-15.918-1.127v8.41c5.264-.101 10.45.891 15.264.44zm-7.983-21.083c7.193.169 17.001-.18 22.898-1.229a15.232 15.232 0 002.412 4.24c-.811-.237-1.285-2.052-1.871-1.759 1.86 3.044 4.115 3.686 7.012 6.122 11.173 2.694 20.215-5.175 19.03-14.938a14.45 14.45 0 00-5.546-9.583c-6.246-4.262-16.843-1.624-20.293 4.318-.192 1.251-.124.992-.857 1.612a38.986 38.986 0 00-.88 7.531c0-.361 0-.789-.473-.665-6.02 1.555-14.42.879-21.533 1.409a21.134 21.134 0 00-7.193-1.274v6.257c2.762-.361 5.953-.338 7.294-2.041z"/><path d="M45.752 182.465c.88.236 2.808 1.51 2.751.597 6.674 3.833 21.95 1.545 21.33-7.317-1.59 6.28-7.891 8.14-16.313 8.05-3.946-1.928-7.362-4.014-12.582-2.988.598-.642-.338-.203-.484-.665a5.628 5.628 0 01-2.255.304c-8.49-1.871-18.185-.214-27.294 1.421v8.005c9.582-.801 19.876-1.883 27.88-5.807 2.39-.721 5.468-1.307 6.967-1.6z"/><path d="M46.305 171.777c3.382 2.502 6.674 5.084 11.341 6.2-.936-2.13-4.16-1.815-4.69-4.385-.721-.237-.54.372-.89.485-1.128-1.737-2.436-1.128-3.383-2.469 0 0-.101-.102-.101-.136l.101.136c.203.202.654.428.587.067a7.315 7.315 0 00-3.214-1.251c-.09.394.35.563 0 .676 0-.146 0-.27-.236-.225-2.424-2.086-6.032-.992-10.688-.541-7.892.766-16.19 1.939-24.239 2.525v6.122c9.154-2.052 19.369-3.845 28.185-6.054 2.909-.733 4.814-1.489 7.227-1.15zm55.546 12.626a18.467 18.467 0 00-2.93-1.905c.427-.406 2.085.97 2.93 1.905zm-3.652-2.052c-.627.113-1.26.192-1.894.237.383-.924 1.364-.597 1.894-.237zm-8.727.823c.226-.315.361.192.564.136l.406-.936c1.128-.09 2.368-.879 3.382.147.53-.395.733-1.026 1.297-.778-.609 1.522-2.255.879-3.315 1.409-.282-.271 0-.485 0-.733-.36-.237 0 .316-.203.474-.203.157-.112-.203-.484 0-.373.203-.496.563-.553.597-.857.373-1.667.846-2.413 1.409-.552.519-1.127 1.263-1.871.812.485-1.657 1.917-1.522 3.19-2.491v-.046zm-3.201 3.135c.845 1.127 2.142.135 2.931-.79.631.936 1.556 1.59 2.097 1.128a.565.565 0 00.135.338c.372-.44 1.06-.947 1.534-1.578a1.573 1.573 0 001.407.804 1.564 1.564 0 001.366-.872c-.147.676.688 1.364 1.263 1.342 1.127-.79 1.127-1.691 1.465-2.56a6.769 6.769 0 013.315 3.078c.067.09.158 0 .248-.056.552 1.003 0 2.345.451 3.066.067.136-.158.248-.282.372 0 2.92-2.255 5.637-3.146 8.445a8.562 8.562 0 00-3.28 3.788c-1.128-.35-1.286.124-2.357.755a3.236 3.236 0 01-1.431.44c-.226-.113.586-.519.124-.395-.124-.304.45-.259.315 0 .406-.643.981-.541 1.252-1.195-.417-.214-.643.135-.62.507-.203-.586-.62.26-1.24.305-.08-.305-.271-.62 0-.902.349.158.248.372.518.462 0-.214.282-.417.226-.631a.303.303 0 01.394.113c.372-.181.237-.474.53-.44.068-.068 0-.519-.124-.338 0-.192.17-.361.293-.542 0 .192-.09.372 0 .564.586 0 .305-.89.925-1.217a2.704 2.704 0 01-1.24 1.927c.304 0 .338-.248.473.215-.102-.316.338-.575.485-.857.18.282-.214.518-.237.789.631.101 1.229-.891 1.285-1.511.192.248.293 0 .293.35.18-.203.305-.406.215-.632-.09-.225-.406.305-.587.192-.18-.113 0-.27-.203-.428.24.067.494.067.733 0 .102-.316-.158-.665.09-.97-.326.62.981.169.339.767a1.74 1.74 0 011.251-.305 2.254 2.254 0 00-1.297-.112c-.259-.339-.1-.327-.44-.53 0 .462-.687.327-1.126.146.191 0 .371.09.574 0 .068-1.127.508-1.33 1.252-2.097a.612.612 0 00-.485 0c-.248-.315.451-.056.192-.304.169-.113.327 0 .462.203.947-.372.496-1.184-.124-1.229-.17.147.09.327-.203.462-.88-.496-.248-1.386 0-2.198-.237-.338-.564.169-.8-.237-.068-.372.586-.44.62-.519.417-.823-.44-1.702-1.376-.947-.09-.552-.654-.27-.744-.879-.146 0-.902-.237-.586.192-.406-.068-1.195-.496-1.398.112-.35.136-.102-.315 0-.417-.124-.158-.7.068-.586.192-.44.068-.158-.496-.26-.676-.281.202-.101.428-.383.62-.135-.226-.676-.271-.575 0-.158.067-.068-.147-.225-.271a7.805 7.805 0 01-3.664-.992c-.147-.135-.316-.068-.497.124 0-.451-.879-.755-.958-.259-.203.157-.35-.339-.53-.451.17-.079.305.214.508-.124-.237-.113-.508.112-.722-.136l.26-.225a1.347 1.347 0 00-.722-.147c-.158-.856-.631-.27-.226-1.003-.079-.079-.169 0-.259.056-.26-.89.958-.845 1.285-1.51-.079.09 1.387.304.79 1.127.63-.18.721-1.06 1.037-1.499zm16.392 13.427a.61.61 0 000 .485c-.473.09-.902-.305-1.387 0a.371.371 0 010-.327c-.135-.09-.157.124-.101.236-.372.158 0-.259-.135-.338.36-.169.18.192.473.203-.316-.451.383-.338.147-.71.282-.068.293.372.642 0 .068.428-.191.124.339.451h.022zm-9.538 1.657a.529.529 0 00.136.338l-.451.372c-.147-.27.078-.721.293-.71h.022zm2.47-5.49c.462.338-.136.845-.328.868-.203-.316.023-.598.305-.868h.022zm-6.258 9.38l-.304.135a20.268 20.268 0 01-2.627 1.556c-.406.135-.992-.192-1.308 0-.315.191-.315 1.217-.552 1.499-.282-.541.71-2.987 1.905-2.029a17.597 17.597 0 012.582-1.071l.304-.09zm-6.91 12.176a10.813 10.813 0 003.381-.993c-.394.192-1.195 0-1.341.372-.203.17-.158-.27 0-.326-.17-.17-.406.293-.586.191-.35-.575-1.42-.473-2.097-.361 0-.507-.429-.699-.936-.417-.18-.18-.158-.338 0-.485-1.251-.124-1.274-2.051-2.255-1.679-.417-.722-.124-1.038-.316-1.815-.124.428 0 .462-.394.766a4.338 4.338 0 01.383-1.511c-.158-.101-.338.158-.473-.202.236-.294.462-.282.687-.429.192.519-.112.564.418.857.823.225 1.307-.868 1.51-1.409-.146-.181-.327.079-.462-.214.338-.35.09-.497.62-.508-.688-.101 0-1.026-.27-1.578a7.546 7.546 0 001.59-.429.929.929 0 00.583.41.927.927 0 00.701-.128c.271.26-1.127.169-1.127.632a2.12 2.12 0 001.42-.271c.204-.192.237 0 .068.079a3.939 3.939 0 01-1.838.485c-.101.383 0 .609-.54.609.236.563-.779 1.95-.71 1.488-.147 1.048.822 1.33 1.487 2.503.744-.158 1.612 1.127 2.255-.203.643.541 2.018-.801 1.127-1.207.294-.315 0-.203.395-.62-.09-.248-.485-.518 0-.902a3.247 3.247 0 003.382.891c.136.124 0 .225.124.338.316-.473.508 0 1.128-.304-.04-1.13.009-2.261.146-3.382a11.072 11.072 0 002.785 1.724c1.973-1.127-.372-2.435.372-4.047 1.127.53 1.973 1.364 2.987 1.252.902-.869-.101-1.917-.146-2.864 1.037.068 1.984 1.432 2.807 1.398.147-.248-.428 0-.53-.462.26-.395.846-.959.361-1.195.552-.079.102-.744.812-.812-.665 0 .18-.271-.124-.507.327-.136.191.327.372.439.067-.124-.169-.879.214-.462a6.216 6.216 0 00-.406-1.917 17.83 17.83 0 012.683.17c.79-1.297-.597-2.785-.766-4.161 1.026-.248 1.274.271 2.029.113.327-.383.158-.811.688-1.127.169.237-.158.417-.395.609.53.079.62.293 1.004.665.439-1.285-.553-3.382-1.241-5.096.609.147.925-.383 1.387 0 .147.395-.135.101.113.507.879-.304.496-1.42.191-2.108.147-.079.26.237.395.124.079-.428-1.916-1.533-1.33-2.334-.778-.755-1.658-1.725-2.605-2.762a15.97 15.97 0 014.848 5.829s-.214 0-.236-.102c.108.249.252.481.428.688a12.677 12.677 0 011.127 6.765 12.807 12.807 0 00-.236-6.235c3.089 6.652-.237 13.067-7.216 18.117-5.907 4.104-12.987 7.182-18.455 7.543h.022zm12.265-10.046c-.327.113-.507.643-.135.553-.237-.214.541-.327.113-.553h.022zm-44.43-90.225v-.067a.93.93 0 01-.18.09 2.984 2.984 0 00-1.128.62c-7.114 4.51-5.637 17.599 3.8 14.577 12.096-3.867 2.739-16.347-2.492-15.22zm3.314 12.165c-5.941 3.382-8.444-5.987-4.51-8.027 1.793-4.566 11.511 4.058 4.51 8.027zm6.449-16.032a6.588 6.588 0 000 2.853 16.903 16.903 0 003.382-.541c.575 5.287-2.255 11.183-2.638 16.595-2.255-1.398-3.641-.181-3.72 2.255 3.585-.53 7.316.541 10.947 0 .3-.773.45-1.596.44-2.424-1.647-.091-3.383 0-4.984-.124.192-8.726 13.642-1.77 12.672-11.849-.845-8.591-10.236-7.892-16.099-6.765zm11.522 7.588c-.834 2.987-3.382 2.39-5.907 3.032.89-2.119 1.206-4.69 2.39-6.843h-.08l-1.127.395a5.63 5.63 0 011.128-.395h.09c2.345-.394 4.261 1.128 3.506 3.845v-.034zm83.709 2.559c.068-4.307-.8-8.794-1.184-13.055.936.18 2.255-.327 3.202-.124a14.977 14.977 0 00-.451-3.27c-2.469 0-4.802.372-7.08-.451a13.534 13.534 0 00-.439 3.721c.71-.124 1.724.248 2.423.135a31.2 31.2 0 00-.755 4.442 8.532 8.532 0 00-5.885.947c-.778-1.578-.496-3.439-.564-5.299.812.429 1.962.259 2.853.722a42.956 42.956 0 00-1.128-4.217 29.614 29.614 0 00-6.302.35l.316.169a1.667 1.667 0 00-.665.338 9.068 9.068 0 000 3.698c.766-.316 2.119 0 2.863-.282-1.206 3.382-.439 8.704-.349 12.503-1.466-.789-1.725-.372-3.281-.271.208.845.464 1.676.767 2.492 2.807.451 5.422-.677 8.275-.327 0-.181.135-2.255.112-2.503-.642.293-1.6.113-2.412.62-.496-1.736-.53-3.641-.868-5.31a34.35 34.35 0 017.091-1.274 19.36 19.36 0 00.428 5.389c-.597-.079-1.409.203-2.006.135a5.56 5.56 0 00.439 3.698c2.774-1.014 6.393 0 9.211-.439a7.558 7.558 0 000-3.259 36.81 36.81 0 01-4.611.722zm-34.036 1.668c.18-3.168 2.052-9.379 1.127-12.266-1.127-3.562-4.148-1.95-6.696-2.13a76.351 76.351 0 01-1.759 16.11l-4.51.135a56.106 56.106 0 000 5.829 2.881 2.881 0 001.782-2.954c6.392.756 12.807-2.029 19.357-1.578-.316 1.499-.361 3.382-.755 4.949a5.528 5.528 0 002.435 0c.71-2.525.428-5.276.947-7.892-3.563.812-8.151-.022-11.928-.203zm-5.524.846c1.578-2.751 3.145-7.959 2.063-10.992l.417.857c.462-.203.755-.699 1.635-.361-.045 3.36 0 9.898-4.093 10.496h-.022zm14.893-17.723v-.056l-.181.079a2.782 2.782 0 00-1.127.62c-7.125 4.51-5.637 17.61 3.788 14.588 12.153-3.878 2.807-16.358-2.458-15.231h-.022zm3.382 12.165c-5.953 3.382-8.456-5.987-4.51-8.027 1.748-4.566 11.466 4.059 4.487 8.027h.023zm-52.988-8.58a1.631 1.631 0 01-.631-.293 7.82 7.82 0 00-1.206 5.93c.69.118 1.4.003 2.018-.327a12.05 12.05 0 01-.327-1.668 11.09 11.09 0 013.607-.102c-1.127 2.909-1.127 6.562-1.127 9.775a15.848 15.848 0 00-1.984-.327 12.34 12.34 0 00-.451 2.401 27.83 27.83 0 019.244.451c.209-.967.318-1.953.327-2.942-1.477.34-2.995.473-4.51.394.08-4.058-.495-10.405 4.973-9.233-.27 1.127.09 2.661-.293 3.709a5.605 5.605 0 001.984 0c.834-2.322.564-5.084.44-7.531-2.706-.135-9.764-1.454-12.052-.237h-.012zm92.841-6.144c-2.717-.135-9.763-1.398-12.018-.27a1.582 1.582 0 01-.631-.294 7.782 7.782 0 00-1.251 5.931 3.115 3.115 0 002.029-.327 12.037 12.037 0 01-.338-1.669 10.832 10.832 0 013.619-.09c-1.128 2.897-1.128 6.55-1.128 9.763a15.832 15.832 0 00-1.995-.316c-.219.786-.37 1.59-.451 2.402a27.897 27.897 0 019.256.439c.209-.967.318-1.953.327-2.942a16.036 16.036 0 01-4.454.395c.079-4.048-.496-10.406 4.972-9.223-.27 1.128.079 2.65-.293 3.698a5.337 5.337 0 001.984 0c.756-2.288.496-5.05.384-7.497h-.012zm-71.386 5.479a7.903 7.903 0 00-3.766 1.691l1.128-.518c-6.9 4.352-3.495 15.332 6.076 12.841 9.842-2.559 4.07-15.028-3.438-14.014zm2.063 12.221c-5.085 1.996-7.565-4.814-4.747-7.689l-.259.136c4.6-6.584 12.266 4.712 5.006 7.553zm11.15-12.66v-.846.846zM32.302 268.901c-1.183-1.984-3.697-.609-5.4-.631a22.862 22.862 0 00-6.29 6.268c-1.354 1.951-3.62 4.634-3.202 6.956.475.123.942.277 1.397.463 2.255-1.004 3.665-3.281 5.356-5.13a10.76 10.76 0 003.382.18c.496 1.229 1.026 2.661 1.477 3.788.372.959.473 1.804 1.533 1.838 1.59 0 2.469-2.413 2.48-4.002.011-1.59-.214-4.205-.225-6.156 0-1.68.045-2.694-.508-3.574zm-2.773 6.528a12.538 12.538 0 01-4.104-.304c-2.12 1.059-3.292 3.382-4.881 5.208-.666-.282-.8-.293-1.376-.586.08-.259 0-.451-.158-.519a20.384 20.384 0 013.067-5.366c1.127-1.601 2.12-3.382 3.72-4.059.26.147-.18.508-.236.699a6.765 6.765 0 013.246-1.127 6.45 6.45 0 011.895 1.781c-.88-.225-1.049-1.127-2.255-.981-1.207.147-3.8 2.762-3.258 3.506.54.745 2.142.891 3.168.88 1.42 0 2.164-1.285 2.626-1.894.316 1.871-.135 4.701.136 6.764a19.928 19.928 0 01-1.59-4.047v.045zm17.52-27.058c-.305-2.457 1.544-5.332.417-7.147-3.157-1.387-5.987.992-7.001 4.002 1.398-.158 1.725-1.781 2.525-2.773 2.187-.519 3.585.958 2.548 3.957-2.83-.744-6.358 2.638-5.254 6.009 2.255.936 3.89-.609 5.096-1.996a3.572 3.572 0 002.47 2.853 10.897 10.897 0 004.16-3.732c-1.015.485-1.58 1.612-2.661 2.007-1.026-1.026-2.109-1.703-2.3-3.225v.045zm-3.123 2.672c-.925.169-1.342-.406-1.883-.428 0-.71-.485-1.781.203-2.773 1.488-.35 2.086 1.048 2.999 1.127-.372.767-.913 1.285-1.32 2.029v.045zm-12.255 3.168a5.094 5.094 0 01-4.634-4.667 6.524 6.524 0 00-2.92 2.255 10.788 10.788 0 00-2.31 2.931c1.375-.71 2.096-2.345 3.438-3.112.056 2.413 2.458 4.07 4.69 4.307 2.897.293 6.674-2.773 7.452-5.288.947-2.976-.237-5.084-1.872-5.806-.214-.09-.394-.394-.54-.451-2.447-.969-6.427.181-8.366-1.228a5.773 5.773 0 01-1.015-1.274 5.291 5.291 0 01.372-4.589c1.026-1.454 4.51-1.826 5.57-1.127.315.315 0 .834.135 1.488 3.382 0 1.5-3.54 1.815-5.953-.158 0-.146-.18-.338-.18-.685.479-1.31 1.04-1.86 1.668 0 .384.259.575.203 1.004-4.15.394-9.504 4.566-7.79 9.639 3.596 3.472 8.444.068 11.476 3.923.88 1.522.936 4.51-.45 5.806a4.407 4.407 0 01-3.056.609v.045zm-9.02 7.982c-2.186-.642-3.449 1.759-4.667 3.168-1.894 2.142-3.923 4.217-5.569 6.438a42.98 42.98 0 00.09-9.651c-.203-1.443-.372-4.509-1.398-4.994-1.026-.485-2.987 1.014-3.844 1.826-.214-.315-.36-.259-.722-.113-.417.429-.89.801-1.296 1.252.496 5.941 1.42 12.739 1.984 18.805.631.203.631 2.255 1.702 2.345 1.072.09 2.966-2.593 3.766-3.675 2.413-3.236 4.34-5.885 6.347-9.02 1.42-2.277 3.202-3.867 3.574-6.437l.034.056zM14.67 273.76c-1.376 2.018-3.044 3.811-4.104 5.637a6.212 6.212 0 01-1.612-3.686c-.338-3.258-1.003-8.151-1.41-11.725-.281-2.469-.98-5.152 1.602-5.367.417.26.417.823.935 1.004a23.19 23.19 0 00.643 4.385 44.637 44.637 0 01-.496 11.421c2.052-.53 2.446-2.875 3.81-4.645a50.059 50.059 0 016.438-7.283c.643 1.804-1.026 3.055-1.905 4.217-1.42 1.815-2.582 4.002-3.935 5.997l.034.045zm35.524-5.197c-2.052.147-3.641 2.153-4.634 3.653-1.127 1.759-1.882 4.058-3.731 4.904-2.345-2.492.462-6.088.552-9.448-.338-.383-.845-1.127-1.431-.969-1.906.507-3.822 3.292-4.792 6.201-.663 2-1.002 4.093-1.003 6.2.124.88.958 1.567.721 2.323 2.785 3.495 7.001-.35 9.245-1.939.135 1.195 0 2.908 1.127 3.382 1.86.744 3.867-1.973 3.879-3.529.01-1.556-.666-3.224-.53-5.107.236-2.289 1.217-4.205.597-5.671zm-1.657 3.382a31.937 31.937 0 00-.812 5.006c0 1.499.541 2.751.564 4.126-1.635-1.026-1.477-2.987-.936-4.803-2.03 1.015-2.525 3.044-4.51 4.183a3.877 3.877 0 01-2.469.823c-5.163-.834-3.314-9.391-.755-12.728.553.124.586.631.959.89 0 1.5-1.5 3.811-1.613 6.224 0 .902.068 2.807.846 3.077 1.06.372 3.314-1.646 4.058-2.401 1.737-1.792 2.436-4.882 4.296-6.167a2.176 2.176 0 01.394 1.793l-.022-.023zm33.822-20.879c.665-.801 1.849 0 2.84-.158a2.253 2.253 0 001.736-1.68 11.196 11.196 0 00-2.66-.18c-.079-2.255-.067-6.686-.744-9.019v-.384c-1.229-3.089-3.72-.608-5.265.744.27-4.284.417-7.97.417-12.401 1.33.643 2.12-.507 2.672-1.398-1.803-.428-3.382-.462-5.727-.924-.597.417-1.567 1.003-1.623 1.691 1.229 0 1.995.563 2.999.361-.485 7.373-.237 14.656-1.071 21.116-1.128-.372-1.85.755-2.458 1.567.992.214 2.615-.271 3.754.236a3.901 3.901 0 001.736-1.679c-.383-.305-.642 0-1.195-.192.136-2.649.485-4.87.44-7.272.744-.721 1.127-1.961 2.12-1.736.992.226.8 1.488 1.499 2.075.293 3.134.552 4.96.699 7.824a6.727 6.727 0 00-1.128 1.274c.237.112 1.128-.564.936.157l.023-.022zm7.125 12.198a17.213 17.213 0 00-4.284 3.833c-2.255 2.853-2.785 8.005-3.54 12.03 1.871-.384 2.75-2.12 3.98-3.382 1.533.101 2.153-.215 3.675 0 1.06 1.431 1.432 3.709 3.213 4.306 2.12-1.048 3.382-2.762 3.664-6.02a74.772 74.772 0 00-.304-9.47c-.835-2.3-4.905-2.142-6.404-1.297zm1.387 7.317c-.914.147-2.154 1.015-2.932 0 .158-.857.26-2.379.959-2.909.755.936 1.736 1.658 1.973 2.92v-.011zm2.84 7.441c-1.24-.834-1.364-2.379-2.006-3.506-.451-.801-2.255-.485-3.596-.463-2.255 0-3.383 1.41-4.51 3.304.225-3.54 1.465-6.765 2.525-10.361.665 1.127 1.128-1.466 2.458-.823-.17.451-.631.473-.767.97.17.225.44 0 .812.259a6.114 6.114 0 00-2.413 5.118c3.383.395 5.852-1.127 6.708-3.698a6.245 6.245 0 00-2.559-3.1c0-.451.541-.237.496-.778-.045-.541-.563-.316-.89-.507 1.623-.462 2.615.214 3.72 1.206.364.829.51 1.737.429 2.638.191 2.875.721 6.099-.406 9.752v-.011zm-15.467-11.793c-2.47-1.837-4.363 1.128-5.637 1.782a93.92 93.92 0 00-.08-10.147c-1.77-1.127-3.246.372-4.035 1.556.248.113.428-.282.338.169-1.127 1.59-.62 3.134-.62 4.51 0 3.066-.158 6.629 0 9.909-1.646 1.94-.823 5.806 1.443 6.224 1.522.281 3.157-1.241 3.596-2.593.53-1.601 0-3.112.993-4.611 2.175 1.127 1.555 5.084 2.412 6.989 3.112-.439 3.292-3.912 3.1-7.08a25.27 25.27 0 00-1.51-6.708zm-1.387 5.536c0-.068-.902-.519-.89-.519-2.74-.327-4.51 4.803-4.6 7.216-1.545-.542-2.627-2.188-1.286-3.383-.484-.552-.124-.98-.09-1.725.248-4.408-.248-9.109 0-13.585 0-.09-.09-.135-.079-.259.012-.124-.259-.293-.552-.327 0-.113.158-.068.26-.079.698 0 1.127.677 1.217 1.533.315 2.751-.316 7.441-.08 10.395 2.256-.282 1.929-4.025 4.51-3.799 1.95 1.488 2.345 4.261 2.357 6.618-.53-.699-.316-1.511-.767-2.086zm35.288-7.892c-.113-1.601-.936-2.717-2.515-2.604-2.807.191-5.174 3.292-6.944 5.118.337-1.335.515-2.704.53-4.081-1.861-1.995-4.972.902-5.637 2.773-.959 2.988-.44 4.961-.44 7.272s-.474 4.577.507 5.953c4.51 1.488 4.792-6.539 7.249-7.024 1.004-.203 1.432.553 1.635 1.24.541 1.838-.349 4.183.789 5.75 3.292-.744 3.45-4.859 3.991-8.038.529-2.081.828-4.213.891-6.359h-.056zm-3.236 11.714c-.643-1.128-.158-3.247-.383-4.51-.226-1.263-.835-1.916-2.345-1.364-2.514.936-4.51 4.442-6.043 7.103-2.018-.914-.688-3.664-1.252-5.096.372-1.951-.101-4.081.305-6.438a5.852 5.852 0 001.409-1.973c1.623 1.691-.068 5.119-.349 7.531 2.604-.958 3.066-4.892 5.005-6.764 1.128-.53 2.401-1.443 3.845-1.127.417.648.793 1.322 1.127 2.018.045 3.934-.722 6.764-1.319 10.62zm-48.343-.699c1.42-1.635-.744-2.785-1.995-2.774a1.998 1.998 0 001.995 2.774zm11.68-24.205c-.8-.136-1.015 1.003-1.984.901-2.255-.248-1.297-3.788-.598-5.366a11.735 11.735 0 001.398-4.904 2.257 2.257 0 00-1.839-2.089 2.24 2.24 0 00-.99.037 5.571 5.571 0 00-3.496 3.472 2.77 2.77 0 002.13-1.86c2.74-.406 2.606 3.281 1.737 5.175-.214-.71-.293-1.533-1.037-1.883-2.063-.936-5.794 1.049-6.437 3.495a2.616 2.616 0 003.258 3.382c1.263-.36 2.187-2.424 3.202-2.424-.305 1.432-1.127 3.022-.519 3.958 1.32 1.927 4.217-.654 5.175-1.894zm-6.663-1.207a2.584 2.584 0 01-2.281-1.149 2.581 2.581 0 01-.177-2.549 2.645 2.645 0 012.566.173 2.638 2.638 0 011.2 2.274 8.019 8.019 0 01-1.308 1.251zm-5.795 1.026a8.505 8.505 0 00-3.45.181c-.248-1.962-.18-4.161-.484-6.077 1.274-.812 2.097-2.255 3.72-2.582 0 .868.192 1.128.203 1.748a3.564 3.564 0 001.973-1.635c-.428-.079 0-1.5-.564-1.804-2.187.71-3.698 2.368-5.377 3.777a31.304 31.304 0 00-.215-3.213 1.896 1.896 0 001.049-1.128c-1.94.35-3.912.62-4.893 2.255a6.231 6.231 0 002.018-.417c0 3.811.564 6.415.552 10.248-.259.428-1.127.801-.947 1.319 1.613-1.973 5.513.068 6.415-2.672zm3.202 18.535a24.128 24.128 0 00-3.563-.699c-.428-.057-.834.676-1.048.439 0-.383.699-.563.485-.778-2.097.282-3.574 2.436-3.72 4.905-.125 2.051 1.014 5.569 2.987 5.749 1.973.181 2.943-2.762 4.51-2.942-1.32 2.097-1.23 4.96-1.793 7.294a13.02 13.02 0 01-.62 1.939h2.255a35.137 35.137 0 001.961-14.205c-.53-.552-.721-1.33-1.454-1.702zm-4.16 7.519c-4.16-.214-1.94-5.851.541-6.392-.135.44-.485.575-.643.992 1.038-1.127 3-.609 4.228.316.113 2.694-2.288 4.194-4.126 5.084z"/><path fill-rule="evenodd" clip-rule="evenodd" d="M140.386 228.034c2.457-1.274 5.952-1.838 6.043-3.675-.846.755-2.255.789-.778.935a26.152 26.152 0 00-9.82 4.972 23.4 23.4 0 004.555-2.232zm-10.305 5.31c-.383.507-1.77.846-1.488 1.454 2.142-1.679 4.645-2.074 5.942-4.318-2.255 1.342-2.92 2.39-4.375 2.458-.992-.575.688-.733.192-1.229-1.962 1.714-4.611 2.12-5.705 4.149 2.289-1.353 3.337-3.033 5.423-2.514h.011zm64.42 28.67c.101-.699-1.319 1.657-2.435 2.13-.496 2.774-1.77 6.167-4.409 7.892a107.726 107.726 0 01-7.407 15.412h2.018c2.718-4.938 5.513-9.752 7.554-14.431 1.263-2.897 1.195-6.595 2.886-9.019.665-.913 2.83-1.59 1.793-1.984zm-5.13 1.916c.192-1.556 1.973-2.875 1.037-2.57-2.119.687-1.42 3.145-1.95 4.329-.778 1.736-2.255 2.458-3.585 4.059-3.676 4.566-6.765 11.138-10.338 17.734h2.029c3.506-5.57 7.497-10.936 10.146-16.19a26.096 26.096 0 002.672-7.362h-.011zm4.419-5.389c-3.731-.473-4.938 2.672-7.192 5.637-1.41 1.827-3.213 3.258-4.51 4.747-4.803 5.467-8.613 13.292-12.976 18.602h2.582c.405-.587.811-1.128 1.217-1.759 3.788-5.637 8.636-10.879 11.567-16.043 2.503-4.464 4.634-10.755 9.324-11.184h-.012zm-44.182 21.635c10.248-7.249 24.182-16.471 29.12-27.373-10.146 9.853-25.31 22.345-38.838 28.985a165.718 165.718 0 0136.268-34.013c-11.736 4.081-24.927 15.49-32.086 24.802 3.067-3.01 6.359-6.527 9.121-8.444-5.761 5.22-13.055 13.732-19.91 19.56a46.356 46.356 0 00-4.352 3.8h9.2a11.15 11.15 0 011.635-.891c-.361-.428.552-1.375 1.127-1.916 4.115-3.732 11.838-8.354 16.629-12.097-1.139 2.469-5.626 4.408-7.914 7.587zm4.182-17.215c1.68-1.004 2.131-2.187 3.867-3.18.97-.281-.439.733-.777.936-.79.992-2.018 1.917-2.977 2.886-.248-.259-.259-.462-.113-.654v.012zm-8.015-10.519c-.181-.823-1.466-1.06-1.038-1.42a96.96 96.96 0 0014.961-6.923c.71.598.395 1.038.8 1.59 1.297-.417-1.025-1.421-.315-1.939 1.567-.09 2.356-1.736 3.664-1.939.812 2.333.113.766.71-.519.259.361.068 2.029.868 1.184l-.688-.947c1.128-1.612 2.379-.925 2.909-2.492-.113 1.184 1.421 1.038 1.477 0-.316.169-.643.53-.891.282 1.229-.857 6.291-5.175 2.988-2.886-15.569 10.586-30.981 16.911-45.4 18.489 2.717-2.615 6.764-4.509 9.459-7.97.248.27.484.507.823.124.214-.846.631-.812 1.725-1.613 10.146-7.406 22.728-11.273 31.77-14.757-1.804.293-3.743 1.488-5.491 1.443.789-.474 2.604-.598 2.717-1.251a90.9 90.9 0 00-12.255 3.111c3.383-1.838 8.366-4.69 10.688-7.779-.462.259-1.026 1.128-1.296.226.327-.215 1.623-.508.71-.519-15.716 8.196-32.965 15.479-48.478 18.207.079-.89-.248-.214-.756-.541 5.085-2.672 8.591-4.814 11.816-8.23-3.383 1.849-5.412 3.608-8.422 5.401-4.51 2.739-8.625.834-10.147 4.509-2.018-1.736-6.042 2.255-7.283 3.472 2.729-.394 6.145-5.174 8.321-2.051.146 4.227-5.547 2.424-7.407 4.306.394-.146 1.646.857 1.465 0-.237.169-.597-.203-.349-.485 4.712 1.184 10.146-1.848 12.807-3.866a54.976 54.976 0 0013.168-3.687c-.304-.936 1.296-1.049 2.142-1.556.349.857.913.406 1.274 1.252 1.071-.553 1.995-.203 3.134-1.184.654-.541-.361-2.424.552-2.255.17.879 1.511.135 1.207-.44l-.248-.248a.663.663 0 01.248.248c.688.541.924-.225.631-.53 1.894.519 4.217-2.705 7.666-1.939-.202-.484-.8-.349-.518-.71a31.324 31.324 0 016.144-2.153c0-.068.079-.147.113-.226.034-.079 0 .158-.068.214.299-.046.6-.076.902-.09-.27.384-.349.789-.62 1.128-.079-.711-.417-.508-.282-1.128-2.074 4.048-9.289 4.307-12.728 6.573-.169-.237 0-.417-.113-.643-.507.271-.237.654-.361.992-.631-.608-.552.192-1.409-.428 1.128.733-1.195.925-.665 1.567 3.923-1.33 7.959-3.382 11.815-4.228-4.509 2.469-10.146 5.085-14.228 8.896-1.206.699-.27.845.406.067.835 0 1.928-1.544 2.65-.845-6.381 5.253-15.66 7.745-20.293 12.57.958 1.128 2.254-.316 3.382.113-.147.744-1.443 1.319-2.199 1.962l1.037 1.431c8.433-4.284 15.649-6.381 24.803-10.394.53 1.003 1.116 2.052 1.996 1.443v.011zm9.346-20.597c-.012.317.087.628.282.879.101-.474.338-.552.654-.102-.282.553-1.32-.135-.959.688-.766.192-.575-1.195.023-1.477v.012zm-22.695 9.244c.699-.282 2.447-.462 2.548-1.488.857-.304-.282.755.462 1.127-1.093.677-2.232 1.68-3.01.35v.011zm14.273-15.783c5.085-2.436 9.854-2.909 14.746-4.194-4.43-.136-11.172.8-14.746 4.137v.057zm-1.905 38.805a285.725 285.725 0 0027.587-18.986 15.32 15.32 0 00-2.007-3.269c-8.929 3.664-21.307 14.104-29.718 19.075-2.649 6.99-14.656 10.034-20.439 16.336 6.899-1.127 12.142-9.864 19.391-12.288 1.623-.587 3.585.011 5.186-.925v.057zm41.623-6.686c-6.877 7.96-15.062 15.705-19.966 23.98-1.533.113-1.668 2.255-3.213 3.066-.349.733.192.575 0 1.06l-1.691 2.007h1.849c8.027-9.978 16.201-19.932 23.405-30.045 2.063-1.285 1.037-1.432-.384-.124v.056zm-3.912 2.12c-.383.214-.631-.417-.924-.778-7.475 6.843-19.933 16.674-26.686 25.231a27.54 27.54 0 01-3.382 3.54h.958c9.651-8.489 22.233-19.527 30.034-28.05v.057z"/></g><defs><clipPath id="clip0"><path fill="#fff" d="M0 0h328v288H0z"/></clipPath></defs></svg>