<svg width="328" height="288" fill="none" xmlns="http://www.w3.org/2000/svg"><g clip-path="url(#clip0)"><path d="M93.268 110.078c3.442.995 7.117.246 6.637-3.114-.362-2.599-4.354-3.64-6.777-1.978.398 1.381-.351 3.804.14 5.092zm1.838-3.816c2.75-1.487 4.413 3.511 0 2.118v-2.118zm177.489 8.147c-.363-.703-.363-1.545-.69-2.341-1.417-3.091-4.6-5.455-7.152-7.234-.761-.55-1.662-.761-2.47-1.3-.808-.538-1.288-1.451-2.084-1.978a6.86 6.86 0 00-5.162-1.287c-.456-.281-.409-1.054-1.17-.995-.855.842.07 1.357.398 2.177.503 1.252.245 2.739.597 4.073.573 2.178 2.786 3.278 4.459 4.46a25.133 25.133 0 007.843 3.676c1.528.27 3.023.701 4.46 1.287 1.018.562 1.627 2.049 2.879 2.084.316-1.264-1.404-1.639-1.908-2.622zm-14.187-6.836c-1.439-1.03-2.505-1.779-2.341-4.179 4.472 2.634 8.346 6.403 12.197 9.364-4.108-.597-6.894-3.078-9.856-5.185zm12.502 5.454c-2.341-2.106-5.104-3.839-7.539-5.958a44.327 44.327 0 00-3.874-2.844c-1.276-.89-2.833-1.557-3.664-2.88 2.599.188 3.676 2.061 5.549 3.278a39.156 39.156 0 013.675 2.341c1.065.901 2.06 1.943 3.079 2.88a17.722 17.722 0 012.774 3.172c.234-.035.234.21 0 .011zm-172.69 3.852c-.281-2.622-4.682-4.601-6.649-1.979.515.948-.222 2.763.14 4.238 2.61 1.077 6.837.796 6.509-2.259zm-4.682.854c.04-.712.133-1.421.28-2.119a2.224 2.224 0 012.552 1.826c-.55.492-1.85.223-2.82.293h-.012zM67.329 265.76a67.204 67.204 0 01-7.585-4.32c.363-.175.55-.807.995-.632a21.048 21.048 0 012.341-1.814s.14.117.187.094a10.643 10.643 0 012.81-1.639c-.188-1.627-1.65-2.599-1.908-4.448-.539-.55-.866-1.311-1.639-1.627-2.27 2.13-4.928 3.266-7.351 4.811.07-.913-.105-1.932 1.1-1.815 0-.164-.14-.234 0-.281.34.551 1.054-.561 1.358-.082-.293-1.907-.527-4.167-2.34-5.267-.141.386-1.476-.129-1.546.363a9.389 9.389 0 00-2.341.456c.082 0 0-.117-.187-.093-.615.109-1.221.261-1.815.456-1.416.41-2.2.152-3.078 1.089.14.246.538.726.445.901a1.322 1.322 0 01-.539-.269c.07 1.557 0 3.149 1.627 4.179a14.696 14.696 0 012.727-.726c0 .878.094 1.393.094 2.259 0 .866.129 1.686.082 2.271s.34 2.271 0 2.095c.148 2.473.485 4.93 1.007 7.351-.855-.281-1.382.351-2.54.539.269 1.042-.504 1.919-.281 2.821.187.702 1.006 1.17 1.639 1.72 2.434-1.252 4.155-.561 6.917-1.17a9.08 9.08 0 00.527-.597 9.167 9.167 0 00-2.27-3.582c.14-1.018-.293-2.013-.094-3.078 3.184 2.668 7.023 3.453 10.254 6.356 1.65-1.112 2.926-2.599 4.682-3.512-.539-1.639-1.815-2.072-3.278-2.809zm-2.633 4.623c-3.114-2.54-7.492-3.827-10.535-6.438.269 1.85 0 3.29.725 4.893-.058.164-.164 0-.269 0a6.14 6.14 0 001.545 1.826c.14-.503.504 0 .539.539a33.902 33.902 0 01-5.853.725c-.117-.327 0-.327-.082-.632.234-.058 1.018-.234 1.358-.269 0-.14.117-.164.27-.363.514.141.584-.105.912.176-.199-2.341-1.287-5.268-.82-7.445-.257-.199 0-1.603-.093-2.54a35.683 35.683 0 01-.27-5.981 5.949 5.949 0 00-1.544-1.733c-1.089.351-1.71.351-2.81.632.305-.608-.456-.854-.456-1.451.421.351.75.41.995-.176 1.5-.254 2.985-.59 4.448-1.006a4.685 4.685 0 002.341-.539c.258.082.422 0 .901 0 .02.535.148 1.06.375 1.545-.832.352-1.684.653-2.552.902.188 2.001-.246 4.682 1.815 5.454a52.335 52.335 0 007.9-4.904 6.364 6.364 0 011.171 2.083c-.702.457-1.17.527-1.639 1.089a.538.538 0 00-.362-.094c-1.838 1.417-3.594 2.447-5.537 3.816.152.738.82.937 1.089 1.545 3.628 1.171 6.601 3.688 10.172 5.174a105.019 105.019 0 00-3.735 3.126v.046zm189.72-173.357c-2.774-.129-3.793 1.264-3.301 4.085.585 0 0-1.451.492-2.446.678-1.44 2.516-.808 3.137-1.393-.141-.07-.34 0-.328-.246zm53.482 27.812c1.17-.679 2.493-1.264 2.481-2.879-1.018-.808-2.341.269-2.68 1.088-.96.925-2.985.785-3.079 2.576 1.077.842 2.295-.235 3.278-.785zM82.078 251.526a9.453 9.453 0 00-3.71-1.99c-.399-.094-.832 0-1.171-.094-.34-.093-.75-.491-1.089-.538-.34-.047-.983.421-1.17 0 .456.082.515-.187.807-.281a8.189 8.189 0 012.271-.445c.579-.027 1.16 0 1.733.082.597.164.913.948 1.627 1.1.491.094 1.276-.351 1.826-.374.222 0 .445.304.714.093-.234-1.065 0-2.949-.176-4.085 0 0-.082.106-.093 0 .304-.199 0-.327 0-.538-.13-1.779.362-4.027-1.628-4.998-.187.304-.081.082-.187 0a6.128 6.128 0 01-3.266-.082c.223 1.381-.234 2.481 0 4.354-.339-.55-1.276-.351-1.357-.644a15.13 15.13 0 00-3.266-.175.274.274 0 01.175.175 3.008 3.008 0 00-2.177.188c0-.106.129-.141 0-.188-2.118.316-3.593 2.236-4.354 3.91.316-.141-.445 1.311 0 1.264-.726 2.552 2.27 5.431 4.53 6.181.41.128 1.276 0 1.17.269.351 0 1.358-.141 1.639.093a23.081 23.081 0 013.079-.643c.866.327 2.107.363 2.82 1.17.375 1.264.785 2.201 0 3.266a.42.42 0 00.094.281c-.452.26-.88.561-1.276.901-.28-.082-.585.117-.901.363-2.868.621-4.46-3.629-7.023-3.512-.34.609-1.1.878-.913 1.534h-.27c-.07.62.141 1.17-.187 1.1 0 .246.188.176.188.363-.41 0-.305.983-.363 1.264 0 0-.188-.082-.188-.093-.246.878-.327 2.025-.725 3.359.913 2.142 3.102 2.002 4.81 2.727-.093-.456-.304-1.112-.081-1.088-.246 0-.188-.843 0-.55a2.725 2.725 0 01.35-1.627c.96 1.077 2.459 1.17 3.641 1.72.562-.187 2.014.41 2.54-.175.48.386 1.393-.211 1.545.175.246-.152.937-.444.808-.175 0-.117.117-.129.094-.281.62.21.807-.585 1.275-.269.48-.48 1.1-.832 1.628-1.265 2.4-4.272-.375-8.755-3.793-11.822zm2.915 8.264c.304-.176 0 0 .175.094a7.311 7.311 0 01-1.814 2.633c-.27.188-.726.211-.995.363a7.617 7.617 0 01-1.732.726c-.574.07-1.171.07-1.452.094-1.709.117-4.553 0-6.262-2.002-.14.386-.562 1.112-.27 1.358-.316.62-.374.854-.093 2.001a11.902 11.902 0 01-1.627-.362c.316-2.096.913-2.939 1.088-4.999.62-.655.878-1.674 1.99-1.358 1.92.551 3.067 3.746 5.993 3.512a7.372 7.372 0 001.721-.726c.152-.222.468-.21.281-.55.585 0 .82-1.346.726-1.99a8.191 8.191 0 00-4.085-5.454 4.922 4.922 0 00-2.54-.27h-.644a5.682 5.682 0 00-1.99.363c-.14 0 0-.082 0-.175a6.51 6.51 0 01-4.448-1.101 12.065 12.065 0 010-3.441.093.093 0 01.176 0c.058-.632.643-1.065 1.006-1.452 0-.07-.07-.21-.094-.187.41-.491 1.089-.632 1.17-1.358.516 0 1.3-.538 1.99-.632.188 0 .375.246.457-.187.164.246.305 0 .457.187.948-.679 2.868-.164 4.26-.093.435.559.921 1.076 1.452 1.545.094 0-.082-.609.094-.82.117 0 .14.164.269.176-.82-.913.082-2.341-.445-3.348.527.211 0-.761.27-1.276a5.483 5.483 0 001.99.27 54.11 54.11 0 01.28 6.262 6.47 6.47 0 00-2.27.094 6.08 6.08 0 00-5.362-.82.769.769 0 00-.175.281c-.644 0-1.44.094-1.639.539-2.142.222-.538 2.341.457 3.09.737-.129 1.521.363 2.177-.188.292.352 1.17 0 1.814 0 .644 0 1.1.551 1.908.726 0-.374 1.627.305 2.27.632 2.389 1.194 4.66 4.87 3.466 7.843zM69.542 98.255c.175 1.428-.164 2.341.42 3.114 1.733 2.411 7.305 0 6.497-3.254-.62-2.564-6.04-2.084-6.918.105v.035zm2.106.574c1.019-.14 2.096-.667 2.974-.152-.176 1.322-1.744 1.896-3.114 1.556a3.686 3.686 0 01.14-1.44v.036zm213.039-7.199c.632 2.341 2.341 3.114 3.875 4.682 2.095 2.06 3.827 3.711 6.824 4.46a10.111 10.111 0 00.363 3.512c.316.831.936 1.755 1.486 1.79-.538-1.17-1.99-3.511-1.533-5.454 0 .07.234 0 .234.07.316 1.498 1.393 4.027 2.844 3.898-.632-1.487-1.545-.597-2.341-4.062a5.372 5.372 0 004.437 2.528c-.785-.784-3.594-1.17-4.027-3.078-.141 0-.152-.082-.14-.304a11.378 11.378 0 00-1.487-5.549c-.562-1.088-1.112-2.27-1.592-2.985-1.229-1.85-4.038-1.358-6.052-.89-1.24.247-2.633.34-2.879 1.347l-.012.035zm5.361 4.764c-1.1-1.522-3.008-2.224-3.968-3.874a9.902 9.902 0 015.958.9 3.598 3.598 0 00-1.978 2.939l-.012.035zm4.963 1.288c.376.719.515 1.538.398 2.341a12.076 12.076 0 01-2.481-.995 3.291 3.291 0 002.095-1.381l-.012.035zm-1.756-.878a.955.955 0 00-.374.34l.573-.434c.551-.21 1.229-.07 1.042.726-.187.796-1.545.655-1.919 0a1.163 1.163 0 01.69-.667l-.012.035zm-1.018-4.881a24.58 24.58 0 00-5.408-.574 4.355 4.355 0 015.42.538l-.012.036zM65.445 100.63a9.26 9.26 0 001.978 4.097c3.067 3.173 9.212 0 11.705-1.837 1.17 3.804 8.475 2.54 7.492-1.979 0-.749-1.733-.152-2.68-.433-1.827-.538-2.845-5.431-2.974-8.615s.585-6.742-.421-9.048a6.309 6.309 0 00-7.773-2.821c-.503.199-.702.702-1.276 1.17-.573.469-1.252.609-1.545.855a10.711 10.711 0 00-2.973 8.334 2.926 2.926 0 003.395.281c2.025-1.288.971-5.993 3.956-5.22 1.803.456.913 4.682 1.17 6.496-5.583-1.838-10.792 4.249-10.054 8.72zm12.01-7.491c-.13-3.746.725-9.856-3.676-9.75-2.973 0-3.512 3.769-4.811 5.653-.515-3.418 2.798-5.466 4.682-7.35 2.341-.434 4.46.21 5.232 1.977 1.007 2.341 0 5.525.281 8.756.34 4.26 1.17 9.645 5.373 9.891a2.808 2.808 0 01-1.978 1.171c-1.475-.106-1.78-2.189-2.68-2.974-2.014.527-3.512 2.341-5.514 3.114-1.3.515-4.085.89-5.373 0-1.287-.89-2.083-3.898-1.416-5.654a9.364 9.364 0 013.512-4.097c2.142-.936 4.518.761 6.367-.737zM278.05 78.297c-.538-.093-.761.457-1.17.691a6.642 6.642 0 01-2.681 5.853 35.384 35.384 0 01-6.157 3.512c-1.732.842-5.104 2.153-6.145 3.511a5.588 5.588 0 00-.106 5.946 8.303 8.303 0 001.99 1.393c.714.48 1.323 1.112 1.978 1.487.843.48 2.014.808 2.985 1.288a14.702 14.702 0 002.973 1.393c3.29.632 4.776-1.569 4.261-4.46-1.662 0-.878 1.919-1.58 2.774-2.669-.152-4.144-1.253-6.356-2.341-1.674-.784-4.436-2.013-5.256-3.512-1.545-2.762.89-4.038 2.575-4.857 1.171-.562 2.236-1.03 3.079-1.487 3.593-1.955 6.965-3.301 8.931-6.649.293-.491 2.166-4.284.679-4.541zM88.317 121.97c3.324 0 6.192 1.171 9.364.995 5.443-.269 6.567-6.192 3.512-10.043 3.512-.889 3.769-5.853 2.119-8.756-1.171-1.978-3.957-2.598-7.024-2.973-2.785-.327-4.213 0-5.642.995-.187.703-.737 1.054-1.17 1.557.304 6.04-1.838 12.291-1.159 18.225zm2.833-13.707c.246-2.411-.094-5.01 2.34-5.372 1.78-.258 7.165.866 7.914 1.837 1.463 1.897 1.17 5.584-.703 6.509-1.041.491-4.132 0-4.237 1.404-.14 1.721 3.16.714 3.675 2.119.516 1.744 1.417 3.757.281 5.092-1.966 2.341-7.608.538-10.605.281.586-4.46.89-7.468 1.335-11.87zm-61.442 2.341c2.54 0 5.958-1.264 7.023-2.832.328-.445 1.826-3.652 0-4.097-.866-.199-2.27 1.276-2.82 1.557-2.986 1.475-6.966 1.311-6.509-3.114 3.181.348 6.4.061 9.47-.843.749-3.898-.632-8.006-3.243-9.47a13.38 13.38 0 00-5.372.562 13.614 13.614 0 00-6.79 6.509c-2.528 6.168 2.622 11.787 8.241 11.682v.046zm-.983-16.387c1.44-.56 3-.742 4.53-.527 1.732.75 1.674 3.722 2.107 6.075-.755.045-1.506.143-2.248.293 2.54-.468.433-4.764-1.416-5.092a4.084 4.084 0 00-4.39 4.378c1.077.819 3.09.69 4.952.714-2.692 1.1-6.286-1.381-6.79 1.838-.772 4.963 5.221 7.678 9.365 4.799-3.441 3.511-11.506 1.931-12.01-3.816-.374-3.875 3.137-7.503 5.9-8.72v.058zm3.511 3.956a5.338 5.338 0 01-2.68 0 1.393 1.393 0 012.704-.058l-.024.058zm57.79 59.557c2.2 3.114 2.587 6.661 5.654 8.639-1.733-3.266-3.149-4.272-3.149-6.333.878-1.334.971 1.042 1.709.363-2.27-2.868-2.645-6.613-5.42-8.299 1.733 3.324 3.992 4.975 3.137 7.819-.608-.679-1.041-2.61-1.908-2.247l-.023.058zm187.205-39.33c-.773 1.3-2.611.995-2.178 2.025 3.079-1.03 4.086-2.774 2.939-6.859-1.042.527.866 2.083-.738 4.776l-.023.058zM-5.56 272.069c.199-.164.362.094.362-.187a.426.426 0 00.363.187.267.267 0 01.187-.281 6.708 6.708 0 003.512-.632c.562-1.018 1.791-1.346 1.452-2.271 0 0 .175.059.187.094-.48-2.131-4.354-4.039-5.853-3.629-.234-.058-2.446.421-2.458 1.171 0 .163.503.714.55.901.152.679-.117 1.826.082 2.727.2.902 1.16 1.288 1.616 1.92zm-.539-4.273c1.756-1.287 2.821-.913 5.08-.269-.35.925-1.322 1.171-1.72 2.084a28.693 28.693 0 01-3.09.726 8.62 8.62 0 00-.27-2.541zm7.55-77.326c-.62.715-1.744-.257-.808 1.031C18.494 206.94 36.1 223.62 54.196 237.889c1.592 2.868 1.86 1.522.129-.562-10.7-10.23-21.07-22.24-32.284-29.72-.059-2.154-3.055-2.493-4.085-4.682-1.019-.538-.831.234-1.487 0-8.322-7.714-19.571-18.729-30.036-24.769.316-3.394-.632-2.891-.34.223 5.35 2.868 10.255 7.948 15.358 12.091zm15.135 74.693s.106.082 0 .093A3.612 3.612 0 0014.92 263a3.618 3.618 0 00-2.78-.377c.093 0-.469.257-.633.093 0 .398-.421.305-.55.55 0-.187-.351-.421-.363-.28-.004.679.055 1.356.176 2.025 0 0-.235.913-.258.608a7 7 0 010 .995 8.072 8.072 0 001.534 1.733 12.883 12.883 0 004.448-2.341c-.059-.387.444-1.007.093-.843zm-4.085.913a.538.538 0 00-.363-.094c.07-.374-.14-.468-.094-.819a2.649 2.649 0 001.007-.82 8.21 8.21 0 011.99-.175 15.966 15.966 0 01-2.54 1.908zm2.54 4.682a12.37 12.37 0 004.273-3.629 5.723 5.723 0 00.269-3.453c-1.498-2.622-4.589-5.127-7.176-4.167-.21-.433-.924.211-1.17 0 0 0 .094-.082 0-.094-1.054.632-3.207.504-3.992 1.265a.284.284 0 00-.187-.176c1.791 4.577.983 7.62 1.72 12.337.071 3.161.574 4.449.633 7.445.438.56.928 1.077 1.463 1.545 0-.14 0-.328.082-.363.094.164.176.316.457.27a20.62 20.62 0 002.902-.445.792.792 0 00.82.082c-.703-2.189-.89-3.512-1.545-5.712 2.34 2.025 5.209 3.441 7.62 5.349a18.666 18.666 0 014.272-4.167c-.199-.902-1.006-1.171-1.357-1.908-3.407-1.955-6.31-2.412-9.084-4.144v-.035zm4.682 8.44c-2.481-1.885-5.431-3.29-7.632-5.443.691 2.153.937 3.897 1.64 5.852-.994.147-1.994.237-2.998.269a14.72 14.72 0 00-.456-3.511c.246-.328-.129-1.487-.176-2.177-.21-2.798-.245-4.249-.269-7.176a10.239 10.239 0 01-.456-3.359 3.823 3.823 0 01-.82-1.627 43.049 43.049 0 016.263-1.007c.187 0 .948-.199.913.094a2.522 2.522 0 012.032.761 2.52 2.52 0 01.683 2.06c0 .128-.081 0-.175 0-.117 1.943-1.522 2.446-2.19 3.628-1.17.41-2.13 1.663-3.51 1.815a10.4 10.4 0 004.201 3.406 38.213 38.213 0 003.898 1.721c1.019.386 2.143.433 2.81 1.17-1.803 1.065-2.529 2.4-3.805 3.559l.047-.035zm83.788-95.786c-.984-1.241-.937-3.207-1.253-1.17a36.968 36.968 0 00-6.344-14.105c.386 2.06 1.732 4.19 2.81 6.555 1.614 3.535 2.176 8.486 4.74 8.755l.047-.035zM321.945 13.625a41.68 41.68 0 007.188.761c1.697 5.853 6.426 11.705 9.048 14.643 7.807 8.569 16.867 17.008 21.538 27.426a130.815 130.815 0 0110.535 49.655c0 1.17 0 2.2-.059 3.277l2.821.105c0-1.17.059-2.235.059-3.382a133.46 133.46 0 00-10.746-50.814c-5.01-11.12-14.351-19.712-22.018-28.163-2.399-2.563-6.578-8.088-8.194-12.876a13.684 13.684 0 007.527-2.797 6.65 6.65 0 002.809-4.917 4.113 4.113 0 00-1.615-3.254 5.782 5.782 0 00-3.605-1.17 8.674 8.674 0 00-3.594.82 7.88 7.88 0 00-5.057 7.526c0 .35 0 .69.071 1.041a42.219 42.219 0 01-6.111-.702A41.095 41.095 0 01301.473 0h-3.91a43.577 43.577 0 0024.382 13.625zm12.759-8.065a6.02 6.02 0 012.458-.573c1.756 0 2.341.819 2.4 1.568a3.997 3.997 0 01-1.791 2.75 11.364 11.364 0 01-6.379 2.19 7.014 7.014 0 010-.983c.035-2.213.749-3.723 3.347-4.952h-.035zM-1.382 276.693a.378.378 0 00-.269-.176c-.41-.105-.878.246-.82-.094a14.981 14.981 0 00-3.628.995c0 .305.281.445.363.726a2.459 2.459 0 000 1.639c-.222-.211-.304.234-.363.456a8.907 8.907 0 001.627 1.815c1.393-.305 1.65.128 2.997-.363 0 0-.129.199 0 .175a4.971 4.971 0 003.172-1.908s-.152-.69.094-.444c-.48-1.3-2.166-3.219-3.173-2.821zm-1.451 3.453c0 .14-.34 0-.363-.094-.105.281-.27 0-.28.269a1.067 1.067 0 00-.82 0c-.21-.573 0-.398-.082-1.358a8.19 8.19 0 014.448-.725c-.328 1.264-2.365 1.72-2.903 1.908zm3.512-6.626c1.908-.702 2.856-2.832 3.816-4.178-.176 0 .14-.34-.094-.457.538.176-.059-.866.27-.726-.61-3.628-4.332-6.344-7.715-5.63 0 0 .106.082 0 .094-.62-.246-1.779.327-2.996.269-1.17.609-3.348.585-4.683 1.276-.596-.117-2.142 0-2.083.55a1.174 1.174 0 00-.995.175c-.07 0 .152 1.452-.094 1.089a3.93 3.93 0 01-.105 1.814c.831 1.815 2.341 1.885 3.804 1.639a112.35 112.35 0 001.17 12.256c-.414.02-.816.145-1.17.363.246-.246-.796-.164-.632.082-.363-.316-.644.199-1.17.093a4.226 4.226 0 001.451 4.682c1.452-.643 2.774-.608 3.348-.901a6.393 6.393 0 002.996-.55c.258.246.492-.117.457.187 1.393-.374 3.196-.269 4.272-.819 3.383-.246 7.305-3.512 5.443-7.023a9.86 9.86 0 00-5.267-4.285H.679zm4.178 5.853a8.19 8.19 0 01-4.682 3.722 6.888 6.888 0 00-2.34.633c-2.494 0-4.683.702-6.357.725-.187.328-.515 0-1.358.281.281.386.07.176-.187 0-.176.211-.199.129-.632.176-.07-.562.07-.293 0-.82.433-.374.995.153 1.17-.538.44.133.904.165 1.358.094 1.1-.316.14-1.499.457-2.459-.351-.76-.2-2.341-.632-2.996.257-1.1-.316-2.891-.188-4.355-.339 0 0-.796 0-1.17a13.499 13.499 0 01-.292-3.395 6.894 6.894 0 00-1.452-1.627c-.503.199-1.229-.07-1.638.27a.591.591 0 01-.633-.363c.305-.071.106-.843.27-1.171.983.105 1.521-.175 2.54-.094-.082-.117-.082-.339-.27-.362 0-.188.34-.082.363-.27.422.422 1.756-.48 2.728-.538 0 0 .187.176.175.176-.011 0 .176-.246.27-.27.433-.129 1.041 0 1.451-.187 0 0 .714-.433.457-.082.561-.281 2.025-.304 2.27-.55.445 0 1.171.152 1.276-.176.164.234.562.141.82 0-.2.129.901.199.725.176 1.464.234 2.693.597 2.54 2.446 0 .106.094.059.094 0 0 1.463-1.287 2.54-1.826 3.723-.105 0-.152 0-.175-.094-1.429 2.048-4.062 1.92-5.853 3.64a2.48 2.48 0 002.001 1.627c.59-.242 1.192-.453 1.803-.632.105 0 .234.176.375.188.433 0 .995-.246 1.533-.188 1.346.153 4.097 1.019 3.91 3.173 0 .105.117.058.093 0 0 .21-.292.772-.14 1.24l-.024.047zm34.403-22.334a.589.589 0 01-.457-.082c-.304.515-.983.644-1.088 1.358.55.386.433 1.03.456 1.545.111.948.29 1.887.538 2.809.492 2.564 1.171 5.853 2.903 7.445.633.585 1.557-.14 1.815-.175.117-.527.667-.621 1.006-.913.535-1.278.901-2.62 1.089-3.992 0 0-.07.105-.094 0 .586-3.242-2.856-8.943-6.145-8.042l-.023.047zm4.682 6.45a5.76 5.76 0 01-2.728 5.174c-.374-.469-.117-1.019-.456-1.358 0-.141.082 0 .187 0-.76-2.774-1.486-4.846-1.264-7.714.34-.07.164-.55.351-.737.41-.375 1.791-.246 1.826-.352 1.885.34 2.154 3.512 2.26 4.987.023.082-.012-.07-.118-.07l-.058.07zm58.258-79.667c3.066 7.304 3.394 14.046 4.857 20.999.422-6.262-.421-15.79-4.857-20.999zM88.47 96.137c.795 1.088 3.675 1.17 4.53.28 2.06-2.095-1.768-7.865.14-10.312a56.88 56.88 0 016.356-1.17c.562 3.862-.504 9.364 1.17 12.15a88.092 88.092 0 004.519-.995c.304-3.36 0-8.826.14-12.572.094-2.002.421-6.098-1.171-5.654a24.39 24.39 0 01-3.242.422 26.154 26.154 0 01-3.254.714c-.76 0-1.463-.422-2.26-.433a25.75 25.75 0 00-6.788.714c-.492.749 0 1.615-.562 2.259 1.44 3.71.316 10.418.421 14.597zm14.842-16.107c-.071 4.682.421 10.148-.141 14.702-.667-.117-.913.222-1.557.14-.128-3.968.352-8.545-.702-11.588a22.546 22.546 0 00-9.563 1.545c-1.03 3.512 0 6.602.28 10.184-.585-.117-.725.21-1.275.14.082-3.792 1.006-10.734-.422-14.28 4.472-.515 9.096.269 13.38-.843zm6.367 14.046c2.646.13 7.586-.41 11.156-.14.679 0 1.252.538 1.837.14.586-.398.106-1.076.141-1.837.07-1.417.971-3.231-.141-4.097a59.162 59.162 0 00-6.917 0c.21-.445 0-1.323.28-1.697 2.189-.504 4.753.468 6.497-.281a13.51 13.51 0 00.281-4.683c-1.346-1.404-4.624 0-6.497-.854v-1.733a13.51 13.51 0 006.497-.561 17.823 17.823 0 00-.702-5.935c-1.604-.69-3.395.351-5.233.421-2.142.094-4.518-.562-6.356.422-.831 3.347-.538 7.28-.843 11.307 1.229 2.692-.608 6.977 0 9.47v.058zm2.26-19.22c2.715-.491 6.004.2 8.474-.702.621.456.141 2.025.562 2.68-1.685.972-4.881-.292-6.215.855-.434 1.3-.223 3.254-.562 4.682 1.369 1.018 4.202.105 6.777.421v1.698c-2.341.105-5.22-.328-6.777.573 0 1.452-.995 4.027 0 5.08a65.562 65.562 0 017.023-.14c-.051.712-.149 1.42-.293 2.119-3.219 0-6.543-.41-9.469.14a128.73 128.73 0 00.48-17.464v.058zM6.028 177.115c.28.269 1.03 1.556 1.592 2.411 1.17 1.814 2.154 2.048 3.172 3.348 11.39 14.573 28.093 35.97 40.829 48.811-.281-.55.62-.866 1.17-1.252-9.095-10.98-22.03-29.147-33.583-39.237-5.77-5.033-9.259-12.173-13.953-16.036-1.51-1.253-5.407-1.733-6.379-3.723-1.498-3.043 2.716-7.163 2.26-9.364-.645 2.212-3.957 6.321-2.834 9.259 1.288 3.395 5.385 3.523 7.726 5.783zm100.807-67.295c1.171.223 2.868-.749 4.39-.14-.164 3.406-.761 6.403-.855 9.891-1.171.246-4.319.62-3.395 2.118.714 1.171 6.415-.971 7.913 0 1.452-1.486 5.724 1.276 5.654-1.556-.62-1.03-2.915-.387-4.097-.843.726-3.512 1.803-6.672 2.119-10.605 2.013-.644 3.511 1.451 4.682 1.17 1.171-.281.808-2.341.995-3.511.234-1.44.925-2.575.843-3.816-.527-.82-1.382-.48-2.248-.422-2.996.164-6.496.281-9.364.281-2.868 0-5.584-.339-6.637 1.698.503 1.311-.843 4.05 0 5.735zm2.072-5.232c3.71-1.1 9.505-.105 13.707-.702.421.585-.515 2.188-.422 3.394-1.872-.234-5.056-1.17-5.934.41.749 4.249-1.264 7.901-1.838 11.705-.772.07-1.486.199-2.259.281.114-2.227.349-4.447.702-6.649.164-2.036.515-4.05 0-5.653-1.557.093-2.516.304-4.378.281.106-1.089.422-1.99.422-3.067zM40.465 253.094c-.316.199-1.38.082-1.639.27 0 0 .106-.071 0-.082a4.683 4.683 0 00-3.663 5.454c.749 2.962.936 6.005 1.533 9.166.082.363.305.714.375 1.088 0 0-.188.141-.188.27.094 1.884 2.716 4.764 4.448 4.682.466.001.928-.09 1.358-.269-.222.292.234 0 .363.269 0-.316.433 0 .094-.363.183.145.4.238.632.269 0-.468.433.105.456-.175-.14 0 0-.153.094-.188.866.071 1.569-.831 2.084-1.358.105-.105.28-.07.363-.187.194-.372.347-.765.456-1.17.335-.49.637-1.002.901-1.534.164-.527 0-1.018.281-.913-.187-.737.152-1.17.176-2.083 0-.281-.187-.539-.176-.82 0 0 .188.082.176.094a4.929 4.929 0 00-.363-2.458c-.808-4.156-3.828-8.826-7.76-9.962zm5.982 15.159c-.445 1.053-1.17 1.569-1.627 2.54-2.271 1.662-3.09 1.241-5.174 1.452 0-.281-.515 0-.913-.27a34.8 34.8 0 00-.995-4.354c-.164-3.348-.995-6.005-1.17-9.364.327-.469.667-1.077 1.088-1.721.234.292.925-.258 1.089-.363.163-.105.35.187.55.176.164-.281-.27-.597-.457-.82 6.508-3.488 9.973 7.164 7.609 12.724zm11.705-132.166c-2.34-2.809-4.448-6.344-7.163-7.164a24.732 24.732 0 00.608 9.973c1.17-.526 2.014.843 3.079.937a20.683 20.683 0 01-2.775-9.528c2.564 1.404 3.512 6.449 5.549 7.725-.983-1.557.503-.96.714-1.943h-.012zM147.7 190.95l-.316.258a.27.27 0 00.316-.281v.023zm-25.495 1.171c-.667 4.483-.409 9.505-2.341 13.04-1.287 2.341-4.542 3.511-4.834 5.712-.878 7.023 10.851 11.846 19.384 12.537-1.791-3.512-9.364-1.803-10.102-5.116.714-2.341 4.167-2.282 4.753-4.787 1.264 2.458 5.349 3.792 8.779 5.958-1.112-4.179-5.853-6.064-10.465-7.995 7.257-6.227 14.046-15.463 20.028-20.204-.211 0-.41-.292-.258-.772 9.751-6.145 20.543-25.132 20.93-41.683-7.105 16.048-18.296 37.797-29.99 46.096-.819.585.96 1.381-.807 2.341-1.171-.211.409-.749-.539-.995-1.533 1.814-3.511 3.184-4.787 5.267-.281.878 2.95-3.242 4.682-3.851-1.171 3.512-7.843 4.963-5.49 6.134-.866.152-3.675 0-2.587 1.171.188-.527.749-.679 1.323-.843-2.47 3.324-1.744.456-5.209 2.868.866-26.513 5.853-49.257 17.453-66.078-10.5 8.487-17.008 31.383-19.923 51.095v.105zM47.29 245.966h-.07.07zm-22.076-3.032c.457-.421.644-1.03.995-.913a.432.432 0 00-.093-.269 29.555 29.555 0 005.173-5.537c-.538-.48-.83-1.17-1.533-1.545-.562.679-1.264 1.791-1.733 1.99-.68.91-1.507 1.701-2.446 2.341 0 .597-.866.679-.644 1.171-.386-.141-.456.491-.632.269 0-.245.032-.489.094-.726.093-.421.058-1.475.093-1.908 0-.199-.175-.48-.187-.726-.07-2.703-.129-4.869 0-8.252.1-.969.1-1.946 0-2.915a3.39 3.39 0 00.094-1.076c-.2-.785-.937-1.171-1.452-1.639.07.866-.28 1.908 0 2.271-.304.187-.082.082 0 .175a1.582 1.582 0 000 1.452 57.183 57.183 0 00.094 9.083c0 .878-.316 1.557.082 2.341-.187-.175-.176 0-.27.187 0 2.669.504 7.258.55 10.535.527.527.867 1.253 1.534 1.639.21-.597-.316-1.51-.175-2.177 0-1.744-.235-3.02-.363-5.361 2.762 1.393 5.326 3.511 8.264 4.366-1.72-2.423-5.01-2.798-7.445-4.776zM10.71 95.68c.351 3.512-.831 6.836-.14 9.751 1.784.548 3.649.785 5.513.702.866-4.038.21-9.587 1.557-13.145 1.557-.656 3.511-.164 5.08-.281.737-1.264-.258-3.629-.281-5.092-4.542-.632-10.898.457-15.966.293-1.346 0-2.751-.433-3.816.421.03 2.063.365 4.11.995 6.075 1.86.913 5.162.386 7.058 1.276zm10.032-6.368c-.106.632.199.855.152 1.417-1.756.199-3.172-.07-4.25.561-2.247 1.335-1.673 8.791-1.977 12.876-.995.094-1.546-.245-2.54-.14a50.05 50.05 0 00.42-7.351 5.74 5.74 0 00.141-1.557c-.644-2.34-4.88-1.498-7.491-2.118-.164-1.171-.492-2.236-.702-3.395 5.665.702 10.09-.48 16.247-.293zm30.434 153.259c-.527-.503-.785-1.276-1.534-1.545-1.17 1.241-2.34 2.809-3.816 3.266a3.327 3.327 0 01-3.11-2.277 3.32 3.32 0 01-.155-1.352 6.287 6.287 0 002.446-.363c.855.188 1.264-.561 1.908-.55.351-.819.948-1.065 1.089-1.814a4.272 4.272 0 00-2.084-3.898 4.984 4.984 0 00-2.095-.456h-.363c-1.112 0-1.405.994-1.99 1.357a8.732 8.732 0 00-.363 4.179c-.363 0-1.24 0-1.17.269-.281-.234-.398-.14-.726-.093a5.219 5.219 0 001.451 1.732c.246-.281.562 0 .539-.269.608.55.842 1.487 1.37 2.177a11.87 11.87 0 001.907 1.99c.787.519 1.694.83 2.634.901 0-.07.059 0 .105 0 1.569-.093 2.751-1.919 3.945-3.254h.012zm-8.71-3.64c.036-.639.126-1.273.27-1.896.515-.492.82-1.171 1.37-1.639.901 0 1.802-.316 2.54.094-.258.386 0 1.17-.363 1.088 0 .738-.679.714-.726 1.358-.257-.094-.386-.105-.363.269-.89.319-1.807.562-2.739.726h.012zm-29.403 6.719c.082 2.095 0 6.309 2.716 7.538a7.032 7.032 0 002.633-2.095c.586.187.89-.96 1.545-.726.293-.62 1.042-.772 1.546-1.17a7.865 7.865 0 00-1.546-1.639c-.245.152-.421.433-.725.269-1.276 1.171-2.646 1.791-3.816 3.09-.234-.327-.387.492-.632.176.269-.258-.293-.386.093-.539a7.266 7.266 0 01-.28-2.633c-.165-3.851-.586-7.398-.445-10.617 0-1.264-.258-2.634-.094-3.722 0 .058-.117.081-.094 0a1.064 1.064 0 01.55-.633 12.07 12.07 0 001.358-1.908 5.849 5.849 0 00.82-2.27c.386-.082.21-.141.093-.188.258-.093.059-.655.363-.632-.222 0-.222-.269 0-.093.55-1.241-.55-2.143-1.451-2.903-.843.316-1.358 1.416-2.002 1.638.082.586-.562.761-.726 1.171-.082.211.117.971-.187.632 0 .457-.152.527.094.538-.117.223-.176 0-.27.188.13.97.066 1.957-.187 2.903a4.82 4.82 0 00-1.533 1.72c-.48-.093 0 .328-.363.094a16.202 16.202 0 01-2.341 2.458 5.182 5.182 0 001.451 1.721c.152-.41.527-.094.457-.632a12.881 12.881 0 002.54-2.341 16.84 16.84 0 000 1.72c0 .457-.094 1.171-.094 1.276.059 2.248.597 4.952.515 7.609h.012zm22.673-13.251c0-.199.48-.585.457-.901-.024-.316-1.58-2.341-2.177-1.826.093.41.316 1.007.093 1.1.422.609.913 1.616 1.627 1.627zm170.068 13.895a5.307 5.307 0 00-.96 0h-1.041a.798.798 0 00-.258 0 1.791 1.791 0 00-.351.187 1.404 1.404 0 00-.585 1.042c-.012.195-.012.39 0 .585 0 .562.07 1.007.07 1.241a.501.501 0 010 .164l-.176 1.17 1.054.41c.256.285.566.516.913.679l1.486.702.48-1.568c.342-1.012.523-2.07.539-3.138v-.117a1.41 1.41 0 00-.109-.551 1.406 1.406 0 00-.313-.467c-.643-.445-.632-.269-.749-.339zm-78.098 26.185c6.894-18.799 19.314-38.628 37.34-56.186a1.31 1.31 0 00.076-.601 1.31 1.31 0 00-.205-.57c-6.344 3.828-11.939 14.796-18.237 19.021 0-3.909 4.554-7.959 7.62-12.115 2.517-3.383 5.408-6.637 5.724-9.762-13.66 18.986-30.047 40.723-47.828 49.268a28.638 28.638 0 00-4.413-4.132c-8.194-3.512-16.317 13.215-5.607 13.742 4.238.211 8.908-8.568 12.958-7.76 1.99-.516 3.137 4.05 4.554 2.586-.199-1.814-3.337-3.336-2.342-5.267 7.492-6.415 14.983-12.876 22.65-17.64-4.787 8.65-7.538 17.102-13.238 25.845-1.663.691-3.699-2.235-5.361-1.58.62 2.201 4.096 2.611 4.682 4.401-.293 4.25-6.099 10.161-4.612 14.562.195.59.441 1.162.737 1.709h1.545c-2.914-3.992.41-13.824 6.532-11.202 4.682 2.025 3.067 8.264-.129 11.202h1.815c2.762-2.868 4.412-7.257 2.341-10.09l-6.602-5.431zm-27.87-3.208c-4.835-3.195 1.486-12.478 6.191-11.05 7.562 2.26-1.475 14.152-6.192 11.05zm107.771-52.534c-1.311.176-3.336 2.119-2.575 3.969a3.51 3.51 0 002.083 1.287c1.733-.105 3.699-5.712.492-5.279v.023zm58.152-5.583c-.245-.515-1.709-.749-2.774-1.089-3.067-.995-5.759-2.341-8.439-3.511a58.733 58.733 0 00-6.052-1.791c-1.873-.574-4.249-1.791-6.45-1.487-.222 0-.515.316-.889.398-.375.082-.925 0-1.171.106-.913.327-2.06 1.896-2.669 2.774a22.742 22.742 0 00-1.99 3.57c-1.51 3.172-2.996 5.853-3.57 9.528a6.809 6.809 0 00-.655.773v.093c-.334.442-.534.97-.574 1.522h.117a13.487 13.487 0 00-.292 2.657 10.75 10.75 0 005.407 9.236 22.62 22.62 0 0010.769 3.148h1.007c5.701 0 9.189-3.324 11.19-7.292a71.576 71.576 0 003.828-10.359 42.806 42.806 0 002.505-5.174c.328-.843 1.054-2.341.702-3.102zm-4.237 5.583l-.878-.351c-.573 1.452-1.077 2.997-1.568 4.542a1.487 1.487 0 00-.551 1.171h.211a41.877 41.877 0 01-2.517 6.473c-1.908 3.511-4.167 5.712-8.825 5.759h-.726a19.996 19.996 0 01-9.364-2.716 7.91 7.91 0 01-4.097-6.848c.013-1.156.215-2.303.597-3.394l-.422-.141a2.907 2.907 0 010-1.1c.164-.62.983-1.112 1.171-1.686.187-.573.07-.889.199-1.287a53.91 53.91 0 012.587-5.467 15.71 15.71 0 012.973-5.15c8.556 1.428 15.217 4.799 22.521 7.433-.468.866-.89 1.826-1.323 2.762h.012zM68.523 223.62c-4.904-16.785-20.016-36.099-32.588-46.821 4.003 4.506 8.71 9.364 11.226 13.391-6.942-8.452-18.378-19.244-26.045-29.334-3.23-4.214-6.473-10.008-12.056-9.365 1.954 2.915 8.252 4.343 6.344 8.194-3.816 2.002-5.431-5.536-7.726-7.281.48 6.953 6.895 11.94 8.897 17.371.632-.468 1.908.878 2.622 1.744 4.963 6.04 10.897 17.196 15.837 24.196-3.395-1.791-5.853-8.194-10.102-11.706 9.47 14.901 21.433 35.116 36.404 42.807-13.192-14.901-29.685-37.071-38.066-56.549a232.942 232.942 0 0145.253 53.353zm-19.77-32.517c1.287 2.423 2.926 3.148 4.19 5.653.34 1.382-.995-.667-1.252-1.17a57.266 57.266 0 01-3.851-4.378c.363-.363.667-.363.913-.105zm28.55 24.768c-4.53-12.805-18.32-30.879-24.723-43.064-9.633-4.202-13.075-21.222-21.514-29.86 1.088 9.774 13.016 17.757 15.92 28.093.643 2.341-.352 5.045.854 7.351a399.387 399.387 0 0024.78 40.067c1.065-.538 3.757-1.615 4.682-2.587zm296.696-11.963c-.269-6.859-2.715-12.817-4.167-18.646a75.148 75.148 0 00-2.575-8.838c-1.568-4.062-3.699-7.784-5.162-12.01a70.93 70.93 0 00-3.371-8.03 11.685 11.685 0 01-.995-4.682c-.96-.48-2.482 0-3.676-.105a8.191 8.191 0 01-1.674-6.403c.621-2.915 3.372-5.127 3.512-8.194.07-1.955-1.323-4.003-.597-6.649.199-.702.855-1.275 1.089-2.083.316-1.054.468-2.938-.199-3.371-1.077-.726-3.149.679-3.863 1.779a14.692 14.692 0 00-1.99 5.958c-.094 1.018.258 2.259-.398 2.774-.211-1.042-.866-2.001-1.089-3.172-.456-2.341.281-5.01-1.978-5.56-4.214-1.018-3.511 4.986-2.879 7.843-.726-1.604-1.557-3.606-2.189-4.963 1.065-3.161 2.025-6.52 2.973-10.126.948-3.605 1.089-7.245 1.896-11.108a64.134 64.134 0 001.381-17.769c-.187-2.54-.269-5.513-1.884-6.543a23.028 23.028 0 00-2.177-7.937 11.185 11.185 0 00-4.87-7.842c-2.399-1.335-8.194-.585-7.538 2.587 1.405.34 3.09-.363 4.471.093 2.634.89 4.296 4.8 5.256 7.937.34 1.17.913 1.943 1.171 2.88.479 1.918.777 3.877.889 5.852a54.775 54.775 0 01-1.088 13.403c-.375 2.212-.504 4.366-.902 6.438a48.562 48.562 0 01-1.685 5.56c-1.171 3.792-2.341 7.667-3.57 11.12a33.588 33.588 0 01-3.512 7.433c-.819 1.17-1.861 1.826-1.686 3.874a24.76 24.76 0 01-5.958 5.654 27.58 27.58 0 01-7.433 4.167c-4.12 1.311-9.013 2.505-13.695 3.769-1.611.488-3.28.756-4.963.796-1.1 0-2.201-.597-3.371-.69-3.875-.305-7.726.292-11.413.093 0-1.615-1.17-2.727-1.487-3.664 7.281-1.006 15.405 1.604 22.92.785a34.13 34.13 0 0013.695-4.062 26.818 26.818 0 004.366-3.968c.679-.644 1.463-1.323 2.177-1.99s1.756-1.323 1.487-2.482c-.96-.48-1.732.504-2.283.995-.55.492-1.381 1.171-1.978 1.686-1.346 1.241-2.458 2.95-4.073 3.874a29.949 29.949 0 01-7.141 2.576c-8.392 2.212-17.558-.34-26.922 0a17.449 17.449 0 019.622-.796 34.94 34.94 0 0010.02.503 35.9 35.9 0 008.439-2.482 26.154 26.154 0 003.863-1.592c1.171-.632 2.47-1.369 2.681-2.774-1.171-.527-2.26.48-3.278.89-3.055 1.17-6.321 2.879-10.02 3.511-5.724.925-10.722-1.357-16.469-.503 2.434-1.568 5.361-2.025 8.638-2.47 3.278-.445 6.801-.152 10.114-.702a38.312 38.312 0 004.272-1.288 23.102 23.102 0 007.141-3.874c.983-.738 2.446-1.569 2.481-2.973-1.522-.457-2.622.948-3.675 1.685a21.583 21.583 0 01-3.77 1.99 22.835 22.835 0 01-8.931 2.482c-1.053 0-2.001-.234-2.973-.199-6.789.257-12.618 2.212-16.774 5.454 1.569-3.02 3.758-4.342 6.848-5.958.714-.374 1.557-.842 2.341-1.17a15.863 15.863 0 012.481-.995c1.18-.04 2.354-.173 3.512-.398.761-.281.995-1.054 1.779-1.288 1.452-.444 3.371-.152 4.858-.304 4.752-.457 8.966-.855 12.408-2.88 4.132-2.423 6.485-6.519 8.732-11.202a35.118 35.118 0 003.289-12.314c.059-.632 0-1.697 0-2.481.468-6.391 4.062-14.784 1.99-21.83a8.127 8.127 0 00-.69-1.581c-.434-.737-1.721-2.47-2.681-2.587-.737-.082-2.072.48-2.084 1.288-.011.807 1.932 2.072 2.283 2.68a13.63 13.63 0 011.089 4.764c.351 4.308-.632 8.452-1.487 12.607-.854 4.155-.655 8.709-1.487 12.501-1.755 7.972-4.682 14.246-11.12 16.962-.292-.071.258-.34.305-.398a6.745 6.745 0 002.341-4.367 5.857 5.857 0 00-.398-2.774 8.919 8.919 0 001.791-3.874c.409-4.273-3.641-7.726-2.786-12.993.234-1.428 1.369-2.88 2.095-4.472a18.47 18.47 0 001.58-4.858c.281-1.79.586-3.698.995-5.548.199-.901.515-1.767.784-2.61 1.628-1.838 5.502-6.415.527-2.716a4.564 4.564 0 00-.117-1.17c-.655 0-.983.632-1.299.983a6.837 6.837 0 00-1.1 1.838 26.456 26.456 0 01-12.221 3.195v-.164a29.805 29.805 0 013.863-8.041c2.06-3.16 4.214-6.052 7.737-7.023a16.542 16.542 0 011.791-.597c.972 0 1.405 1.556 2.482 1.591.784 0 1.041-.491 1.393-1.088a1.86 1.86 0 002.189-1.428c.257-.21.526.21.994.093 1.358-1.943 4.449-2.165 5.654-4.26-1.053-1.393-3.312-.152-4.261.585-.784-3.383-2.973-5.443-5.361-7.632-1.498-1.37-3.148-2.669-4.764-3.875-3.383-2.528-8.041-3.722-12.501-4.764a55.548 55.548 0 00-7.737-.995c-2.728-.21-5.408-.643-8.042-.585a56.812 56.812 0 00-14.983 2.341c-.445 0-.562-.34-1.288-.304-1.151.31-2.254.779-3.277 1.393-4.553 1.955-8.194 3.746-10.91 7.538-.643.878-1.17 1.861-1.79 2.774a26.097 26.097 0 00-1.885 2.786 11.198 11.198 0 01-1.885 2.564 21.817 21.817 0 01-3.078 1.58 22.648 22.648 0 01-2.681 1.686 8.036 8.036 0 00-1.779-4.437 3.817 3.817 0 00.293-1.685c.971.234 1.802.327 2.786.491.933.295 1.901.464 2.879.503 1.674-.222 2.786-2.622 2.177-4.565-.737-2.34-5.431-4.413-8.041-4.366.035-.4-.033-.804-.199-1.17 2.2-.188 4.764 3.16 6.754.89.277-.39.479-.826.597-1.288.924-4.273-4.05-7.632-7.749-7.14.082-.469-.106-.691-.094-1.1 2.564-.844 5.853 1.416 8.194 0a3.643 3.643 0 001.089-4.063c-.995-3.16-5.994-3.254-9.728-3.675a48.231 48.231 0 00-.69-9.224 19.245 19.245 0 00-.504-2.88 3.977 3.977 0 00-3.371-2.34c0-.949-.737-1.241-.597-2.342-1.276-1.346-1.615-3.207-2.575-4.682-.257-.386-.737-.749-1.089-1.17-.351-.422-.585-1.066-.901-1.393-.316-.328-1.17-.609-1.58-.984-.843-.714-1.498-1.673-2.341-2.34a10.355 10.355 0 01-2.575-2.084c-1.241 0-1.92-1.253-2.775-1.686-.444-.21-.971-.175-1.486-.398-.515-.222-.937-.69-1.498-.89a7.134 7.134 0 01-1.979-.596c1.862-1.674 3.582-3.512 5.361-5.221h-2.949c-.987.93-1.925 1.91-2.81 2.938-.796.316-1.697 1.3-2.575 1.487-.878.187-1.861-.457-2.985-.586a38.418 38.418 0 00-8.627.094c-2.68.398-4.155 1.896-6.192 2.938-.246.62-1.17 1.054-1.592 1.78-.199.327-.257.936-.491 1.392-.457.902-.96 1.405-.703 2.68.188.89 2.224 2.272 2.985 2.482a8.193 8.193 0 002.973.094c.597-.07.913-.457 1.487-.585.574-.13.972 0 1.393-.106.345-.14.678-.308.995-.503.819-.351 1.51-.609 2.177-.89.398-.163.866-.234 1.171-.398.304-.164.374-.433.69-.69.284-.187.581-.351.89-.492a16.858 16.858 0 001.685-1.17c.562-.398 1.171-.808 1.592-1.17.293-.223.34-.586.597-.797.258-.21.75-.175 1.089-.398.585-.374.796-1.24 1.393-1.486 1.381.245 2.341.948 3.863.995.866 1.03 2.821.96 3.511 2.188 3.301 1.171 5.151 3.91 7.843 5.748.234.96 1.241 1.323 1.779 2.083a22.792 22.792 0 011.498 3.278c.533.923.995 1.886 1.382 2.88-2.739.83-3.699 3.968-3.664 7.245-1.1.913-2.166 1.78-3.278 2.575-1.112.796-2.212 1.744-3.371 2.482a54.567 54.567 0 01-9.036 4.26c-1.627.656-3.301 1.054-5.057 1.593a47.475 47.475 0 00-5.162 1.58 35.607 35.607 0 00-5.455 3.675 25.321 25.321 0 01-4.354 2.728c-3.371 1.486-6.778 2.247-10.219 3.862-.328.281-.211-.515-.386-.69-.27-.504-.41-.574-.703-.703-1.685-.702-2.856.668-3.863 1.1-.421.176-.948.153-1.299.293-1.299.562-2.247 1.885-3.511 2.68a28.115 28.115 0 01-4.273 1.99 113.602 113.602 0 01-9.13 3.267c-1.604.503-3.161.878-4.682 1.498-2.119.866-4.366 1.861-6.602 2.81a19.138 19.138 0 00-6.134 2.434l-.562.21v.13a49.665 49.665 0 00-4.459 3.125c-3.606 2.832-6.942 6.051-9.365 8.299-5.138 4.764-8.65 10.535-8.638 17.558.001 1.478.15 2.953.444 4.401 2.541 12.63 12.139 21.398 21.995 28.503v.094c7.632 8.193 18.377 12.876 28.175 18.857 2.001 1.171 4.144 2.095 6.262 3.172 1.089.55 2.096 1.171 3.172 1.58 3.336 1.405 6.895 2.037 9.529 4.472-5.49 6.309-13.649 10.043-14.585 20.929-.211 2.341-.094 3.91-.106 6.356 0 1.861-.421 3.594-.292 5.654a33.51 33.51 0 001.58 6.848 50.478 50.478 0 011.416 13.695l-.316-.117c-1.744 4.822-.983 11.249-1.802 15.591-1.171 6.555-1.92 13.122-2.821 19.642a191.168 191.168 0 00-1.955 26.29c-.016 4.696.269 9.388.854 14.047h2.845a106.92 106.92 0 01-.878-14.047c.085-8.67.761-17.325 2.025-25.904.913-6.566 1.65-13.098 2.809-19.524.316-2.141.495-4.299.539-6.462h.468c.222-2.692.398-5.396.491-8.076.059-.188.106-.398.176-.574l-.152-.058a65.4 65.4 0 00-1.171-16.294 35.83 35.83 0 01-1.498-7.433c0-1.99.351-4.015.503-5.958.106-1.452 0-2.903.094-4.261.972-8.721 6.602-11.706 11.413-16.575a43.654 43.654 0 007.538-9.528c.392-.754.725-1.536.995-2.341a2.923 2.923 0 00.199-2.482c-2.47-.222-2.681 2.341-3.512 4.074a44.28 44.28 0 01-2.668 3.968c-.644-1.815-2.342-2.458-4.168-3.371a24.974 24.974 0 00-3.511-1.393 71.565 71.565 0 01-6.848-2.88 44.163 44.163 0 01-6.251-3.511c-6.496-4.109-13.66-7.234-19.676-11.706l.468-.702c-1.85-1.171-3.722-2.493-5.584-3.804-1.264-1.335-2.505-2.81-3.687-4.25v1.557c-8.779-6.625-16.54-14.491-18.53-24.803a19.078 19.078 0 01-.374-3.723c0-5.759 2.798-10.535 7.503-14.971 2.447-2.283 5.701-5.431 9.119-8.112 3.418-2.68 7.023-4.834 9.715-5.232l-.14-.831a89.76 89.76 0 004.682-1.955 33.566 33.566 0 014.261-1.393c2.774-.82 5.548-1.85 8.193-2.868a42.868 42.868 0 007.539-3.675c-1.721 5.091.69 12.033 3.769 15.38a7.748 7.748 0 004.366 2.283c-5.455 2.833-10.757 5.092-15.58 8.194-1.639 1.065-3.395 1.931-4.951 3.078-6.228 4.577-12.256 9.68-19.654 12.607v1.089c1.276 2.177 3.84 0 5.256-.796.831 1.393 3.383.878 5.466 1.486a25.452 25.452 0 014.858 2.482 43.5 43.5 0 014.483 3.032c2.845 2.224 5.853 4.155 8.627 6.063a195.434 195.434 0 0017.769 11.495 77.28 77.28 0 0010.219 4.46 74.5 74.5 0 019.914 4.682 42.709 42.709 0 018.838 5.852c1.884 1.768 3.582 3.699 5.455 5.56l.175.153a9.664 9.664 0 00-4.518 3.511l-.351.515c-1.358.176-2.739.199-4.132.351a3.095 3.095 0 00-2.482 2.681 6.433 6.433 0 001.487 2.88c1.802 2.61 3.593 5.045 5.256 7.643a42.797 42.797 0 01-9.821 5.057c-1.85.761-4.858 1.416-4.682 4.073.14 1.826 1.954 3.676 2.984 5.256 3.348 5.139 6.602 9.751 7.34 17.359a61.462 61.462 0 00-10.324 25.495l-1.347-.328a74.555 74.555 0 00-1.931 17.862 143.868 143.868 0 009.54 49.643h3.043a140.622 140.622 0 01-9.75-49.596 73.196 73.196 0 011.662-16.387h.784a55.689 55.689 0 019.025-23.318c.398 0 .527.515.995.504.468-.012 1.065-.738 1.592-.902a17.567 17.567 0 015.256-.784h4.963c1.697 0 3.149.223 4.764.094a32.861 32.861 0 019.364.889c1.346.293 2.61 1.171 3.875 1.3 1.943.257 1.744-3.629 1.884-5.162.234-2.646 1.44-4.952 2.084-7.024 3.699.106 7.023-.281 10.535.094a9.301 9.301 0 003.172.211c1.276-.387 1.463-2.412 1.791-4.074a63.063 63.063 0 014.471-13.004c4.94 1.744 9.049 4.904 13.286 7.55 1.416.877 2.341 2.177 3.675 3.172 2.037 1.533 5.233 2.247 7.937 3.277a39.93 39.93 0 017.339 3.371c2.341 1.464 4.448 2.95 6.649 4.167 2.434 1.335 5.033 2.107 7.444 3.278 2.798 1.346 5.385 3.137 8.136 4.565a56.33 56.33 0 003.172 7.831c.398.691 1.17 1.299 1.685 1.99.515.691.632 1.58 1.171 1.686 1.088.199 2.107-1.347 2.083-2.482 0-1.779-1.592-2.54-2.481-3.968-.89-1.428-1.171-3.196-1.978-4.565.948-1.171 1.357-3.676-.995-3.512 0-2.938.281-5.853.398-8.931.117-3.079 0-6.052.093-9.13.188-4.249.703-8.498.703-13.192a27.947 27.947 0 01-.106-4.472c.234-1.065 1.99-2.037 3.079-2.774a23.413 23.413 0 0113.52-4.144 22.245 22.245 0 002.341 7.246c.339.714.901 1.311 1.17 1.99.504 1.17.621 2.47 1.1 3.664 1.3 3.242 2.915 6.461 4.367 9.832 1.919 4.483 2.75 9.552 4.26 14.585.691 2.341 1.78 4.682 2.283 7.234.6 2.775.933 5.601.995 8.44a21.184 21.184 0 01-.304 3.617c-4.296 5.688-11.062 14.608-17.699 15.708a13.41 13.41 0 01-2.4.211c-4.132 0-8.826-1.615-13.356-1.838-5.419-.234-11.085 0-16.165-.807a23.79 23.79 0 01-6.765-2.482c1.006 0 2.001-.07 3.008 0-5.151-1.709-10.535-3.57-15.978-5.162a73.551 73.551 0 01-8.03-2.482c-1.252-.515-2.517-1.053-3.769-1.486a33.79 33.79 0 01-4.074-1.288c-1.065-.538-1.954-1.639-3.172-1.884-.152-.55-.597-.796-.901-1.171.585-.749 1.732-1.44 1.299-2.879-1.908-.527-3.898 2.505-5.162 3.78-1.264 1.276-2.704 2.342-3.874 3.664a44.411 44.411 0 00-3.231 4.179l-.117-.094c-4.554 5.362-6.754 13.438-6.778 20.859-.013 2.363.247 4.72.773 7.024 1.323 5.677 4.354 11.471 6.93 16.387A258.143 258.143 0 01283.61 288h3.02a259.147 259.147 0 00-12.677-27.859c-2.575-4.893-5.49-10.535-6.684-15.709a27.597 27.597 0 01-.69-6.449c0-6.86 2.142-14.433 6.087-19.033l-.34-.293a29.016 29.016 0 016.614-7.304 8.864 8.864 0 002.973 2.341c2.13 1.381 4.495 1.908 7.246 2.985a108.537 108.537 0 0011.307 3.664 49.133 49.133 0 005.853 1.685c.456.059.901.094 1.346.117v.071c3.944.901 7.842 4.108 13.18 5.009 5.338.902 11.261.609 16.493.843 3.933.152 8.685 1.815 13.485 1.838.977.005 1.952-.077 2.914-.246 5.736-1.17 10.629-5.852 14.55-10.593-.456.995-.948 1.978-1.428 2.961h2.341a44.128 44.128 0 003.734-8.908l.398-.515-.222-.163a29.954 29.954 0 00.889-8.534zM256.816 62.086c-1.755-.515-3.909-.656-5.653-1.171.082-.808-.117-1.346-.094-2.084 2.236.328 4.893 1.604 5.747 3.255zm-43.31-51.001a5.474 5.474 0 01-2.341 1.17c-.363 0-.515.352-.796.492a3.874 3.874 0 00-2.341.597 4.4 4.4 0 01-3.968-1.088 8.2 8.2 0 00.831-2.12 18.58 18.58 0 016.356-4.166c3.067.199 7.024-.457 9.365.386-2.505 1.381-4.015 3.804-7.047 4.764l-.059-.035zm134.191 124.862c-.409.608-1.252.796-1.791 1.287a36.834 36.834 0 00-.292-7.936c1.58.901.796 5.068 2.083 6.649zm-24.909 8.533a47.084 47.084 0 005.069-3.383 33.604 33.604 0 002.575-2.774 35.503 35.503 0 006.356-9.716c1.931-4.53 3.172-9.598 4.752-14.585a77.71 77.71 0 003.582-15.779c-.901 10.219-2.236 20.848-5.068 29.463-2.845-1.17-4.437 2.341-4.167 5.162.14 1.428 1.556 2.681.597 3.676-.434-.679-.281-1.791-1.089-1.885-1.405-.175-1.323 1.931-.995 3.067.328 1.135.62 1.955-.199 2.786 0-1.089 0-3.044-.796-3.676-1.92.293-1.171 2.06-1.089 3.769.033.965-.034 1.93-.199 2.88-.257 1.1-2.399 3.196-3.277 4.073a20.724 20.724 0 01-3.863 3.372 25.544 25.544 0 01-5.361 1.978c-5.49 1.627-11.483.199-15.58-1.779 7.152-1.581 13.496-3.301 18.764-6.649h-.012zm15.779-3.278c-1.791-.21-.925-2.06-.398-2.973.632.656.164 1.908.41 2.973h-.012zm-.293-8.626a3.228 3.228 0 01-.199-2.482c.398.094.562.421.89.597-.261.61-.472 1.24-.632 1.885h-.059zm-50.017 1.779c-2.2 1.861-3.511 4.682-5.15 7.023-.929.351-1.826.782-2.681 1.288-.358.444-.69.91-.995 1.393-.643.737-1.732 1.545-1.088 3.078.468 1.171 2.505.936 2.973 2.283-1.721 1.17-2.341 3.816-3.371 5.852-.199.41-.41.808-.621 1.171l-1.439-1.311a9.532 9.532 0 01-6.122 2.189 14.674 14.674 0 01-8.194-2.903 21.538 21.538 0 01-2.037-1.639 6.813 6.813 0 001.171-1.112l.456-.574-.199-.714a7.2 7.2 0 00-4.249-4.752 12.74 12.74 0 002.259-1.487 4.142 4.142 0 001.709-3.066 3.508 3.508 0 00-1.088-2.435 3.832 3.832 0 00-2.458-1.171c.187-.807.234-1.72.491-2.587.258-.866 1.311-1.428.597-2.68.878.41 1.967.386 3.079.796.433.164.76.585 1.17.796a26.661 26.661 0 0012.104 2.083 29.433 29.433 0 005.232-1.217c1.662-.492 3.43-.866 4.951-1.393 1.932-.655 3.723-1.756 5.56-2.481a53.752 53.752 0 005.759-2.576c-.05.643.05 1.288.293 1.885-2.833 1.487-5.841 2.364-8.1 4.261h-.012zm-42.069 12.548l-.304.082c-.27-.129-.515-.258-.796-.363a38.99 38.99 0 01-3.816-2.435c-2.505-1.709-4.425-4.015-4.261-4.893a1.177 1.177 0 01.41-.854 1.445 1.445 0 011.03-.503c.889-.141 3.02 1.627 4.682 4.015a49.792 49.792 0 013.067 4.951h-.012zm-.105-9.13c.058-1.065.21-1.171.503-1.3.135-.053.277-.084.421-.093.188 0 .328 0 .703.889a11.4 11.4 0 01.444 3.617 24.26 24.26 0 01-.199 3.266 18.016 18.016 0 01-1.861-6.379h-.011zm-.082 21.069a8.668 8.668 0 01-.351 2.81c-.235.679-.469.854-.644.913-.24.091-.493.143-.749.152-.316 0-.188 0-.375-.234a4.119 4.119 0 01-.304-1.861 30.568 30.568 0 011.346-7.503c.163 1.063.393 2.114.69 3.148.094.328.211.667.328.995.059.562.07 1.101.07 1.604l-.011-.024zm-6.157-8.369a13.832 13.832 0 01-4.273.773 7.727 7.727 0 01-1.779-.211 14.478 14.478 0 002.973-2.341c1.206.468 1.768 1.51 3.09 1.803l-.011-.024zm1.568 2.447l.702-.235a33.572 33.572 0 00-1.369 7.937 6.873 6.873 0 00.644 3.184 3.16 3.16 0 002.762 1.732h.106a5.392 5.392 0 001.673-.304 4.021 4.021 0 002.4-2.669c.167-.503.284-1.02.351-1.545a5.397 5.397 0 002.88.889h1.276l.175-1.264c0-.433.106-.878.129-1.323a24.217 24.217 0 007.164 4.226 27.683 27.683 0 009.188 2.084 9.724 9.724 0 003.126-.469 7.09 7.09 0 003.02-1.732c.073-.076.14-.158.199-.246a4.05 4.05 0 01-.082 1.065 8.192 8.192 0 01-1.674 2.341 25.765 25.765 0 01-3.875 4.168c-.725.62-1.369 1.357-2.083 1.989-1.416 1.253-3.137 2.236-4.682 3.372a31.628 31.628 0 01-4.706 3.488 72.797 72.797 0 01-12.033 4.214c-2.037.562-4.05 1.404-6.052 1.978a115.84 115.84 0 00-11.81 4.261c.093-2.341 1.275-4.296 2.083-6.438.574-1.51 1.253-3.008 1.885-4.472 1.276-2.914 3.16-5.478 4.167-8.627 1.006-3.148 1.849-6.718 2.68-10.125a60.915 60.915 0 011.768-7.456l-.012-.023zm14.445 1.17a6.4 6.4 0 00.807-.058 25.562 25.562 0 003.289 2.785 17.56 17.56 0 009.81 3.418 12.46 12.46 0 004.389-.796c-.07.492-.105.913-.164 1.171a1.665 1.665 0 01-.409.936 4.255 4.255 0 01-1.862.984c-.719.224-1.47.33-2.224.316a25.466 25.466 0 01-8.193-1.885 20.73 20.73 0 01-8.381-5.782 13.8 13.8 0 00-.434-1.85 9.986 9.986 0 003.383.738l-.011.023zm-1.499-10.371a12.852 12.852 0 001.686-3.207c.214-.099.444-.159.679-.176h.082a.965.965 0 01.761.328c.304.328.269.421.281.456.011.036-.094.41-.714.913a13.04 13.04 0 01-2.763 1.663l-.012.023zm.984 4.495a4.468 4.468 0 012.61 2.341c-.144.121-.296.23-.457.328a24.744 24.744 0 01-1.685-2.014l-.468-.655zm-5.853.082c.318-.183.646-.347.983-.492l.234.527c.313-.113.634-.203.96-.269.691.936 1.452 1.861 1.896 2.458l.246.316a17.521 17.521 0 01-4.319-2.564v.024zm.772 8.1c.075.575.114 1.153.117 1.732v.656a2.987 2.987 0 01-.702-.585 4.877 4.877 0 01-.936-1.534c-.094-1.17-.258-2.247-.433-3.312a20.232 20.232 0 001.954 3.02v.023zm64.205-66.72a9.186 9.186 0 00.538-2.506l2.411-.152 4.753-1.803c-.457 1.826-.738 3.852-1.054 5.654-.175 1.042-.058 2.13-.292 3.172-.679 2.974-3.184 5.385-3.571 8.03a14.972 14.972 0 001.382 7.644c.831 2.119 2.189 4.413.995 6.848-1.03-.129-1.85-1.323-3.371-1.288 1.17-4.354-1.101-8.077-2.283-11.319.234-.246.585.351 1.171.398a3.3 3.3 0 001.486-.398c.422-2.81-2.47-3.149-3.512-4.858-.044-3.18.41-6.348 1.347-9.388v-.035zm-1.897-2.342a6.308 6.308 0 00-.679 1.264c-.667 1.791-.538 3.734-1.17 5.268a17.79 17.79 0 01-.234-6.403l2.083-.129zm8.943-19.396a25.89 25.89 0 00-16.387 3.172 16.94 16.94 0 00-5.42 6.193c-1.65 2.809-3.078 5.197-2.481 9.528a.12.12 0 000 .07c-.902-.316-3.992-2.482-5.572-2.341-.785 0-1.861.995-1.686 1.79.117.528 1.826 1.101 2.482 1.382 2.692 1.17 4.331 2.447 5.454 4.963 1.171-.374 1.171.585 2.084.398.737-.152.913-1.393.89-2.083a17.116 17.116 0 00-.89-3.173c-.445-1.826-1.03-4.682-.304-6.754.254-.585.555-1.149.901-1.685 1.171-2.224 2.716-5.28 4.951-6.649a24.62 24.62 0 013.781-1.58 17.864 17.864 0 014.156-1.1c1.896-.211 3.687.292 5.759-.094.093.258-.269.398-.398.492a28.27 28.27 0 00-4.062 4.272 30.503 30.503 0 00-5.794 11.155h-.422v.773l.223.199a20.33 20.33 0 00.164 9.622c.131.605.295 1.203.491 1.79.296.48.562.976.796 1.487.41 1.452.106 2.891.492 4.261 1.042 3.664 2.856 7.023 3.371 10.921-1.17.199-2.61.667-2.47 1.885.34.644 1.381 0 1.978.292-.491.843-1.439 3.348-.105 3.571 1.334.222 1.721-2.143 2.283-3.067 2.153.339 3.137 3.394 2.189 5.653-.656 1.569-2.833 2.342-3.512 3.372-4.998.749-11.155.362-14.878 2.341a2.046 2.046 0 01-1.486-1.581c.655-.55 2.341-1.592 3.371-2.341a5.9 5.9 0 001.088-.796c.422-.62.422-2.165-.198-2.341-.621-.175-2.143 1.253-2.974 1.78a68.683 68.683 0 01-9.622 4.471c-1.17.468-2.259 1.077-3.511 1.58a38.554 38.554 0 01-3.769 1.171 37.721 37.721 0 01-7.843 2.083c-5.97.433-11.46-1.697-15.978-3.874-6.637-3.196-11.986-6.871-12.396-16.165a26.525 26.525 0 01.199-6.649c.632-3.43 1.932-6.321 2.973-9.727a17.324 17.324 0 006.848-2.341 14.043 14.043 0 002.774-3.184 7.817 7.817 0 00.305-5.853c-.504-1.252-1.557-1.873-2.189-3.172 1.791-2.75 4.682-4.413 6.754-6.848.398.726.807 1.44 1.779 1.592 0 4.682 3.664 5.724 6.953 7.14a1.75 1.75 0 01.983-.292c1.967-1.756.913-6.204-.585-7.644-1.498-1.44-5.221-2.236-7.152-.796-.223-.41-.152-1.1-.492-1.393-.761.153-.585.96-.304 1.499-.386-.07-.234-.691-.691-.703 1.487-1.72 2.774-3.64 4.366-5.255a24.99 24.99 0 015.455 4.764c.445.48 1.171 1.592 1.592 1.685a1.859 1.859 0 001.978-1.685c0-1.3-3.055-3.208-3.57-4.167 6.813.433 11.097-1.756 16.388-3.372a84.445 84.445 0 019.821-2.34 28.42 28.42 0 017.245-.691c4.682.327 10.418 1.557 13.192 3.769.258.14.855.222.632.62zm-80.627 24.008l.316-.187c.126-.108.268-.195.422-.258l-.422.258a.68.68 0 00-.257.468 6.113 6.113 0 01-2.482-3.617c-.386-2.763.925-5.057 1.885-7.433.094 0 .094 0 .105.094 1.475 3.067 5.853 4.495 10.418 3.511 1.1-.749 2.341-1.346 2.88-2.68.491.515.995 1.17 1.556 1.931-1.006.585-.854 3.102.925 2.236.217-.102.405-.255.55-.445a4.078 4.078 0 011.171 3.921 6.623 6.623 0 01-1.791 2.084 14.163 14.163 0 01-5.654 2.084 16.18 16.18 0 01-3.874-.2c-.785-.105-1.487-.433-2.177-.503a15 15 0 01-1.698-.222l.117-.082c1.089-1.288-1.135-2.06-1.99-.96zm14.433-7.924l.293.374a.702.702 0 00-.714.316l.421-.69zm12.022-8.405c3.816-.831 7.842 2.891 6.145 6.941a10.769 10.769 0 01-.187-2.47c-1.276-2.212-2.377-4.576-5.958-4.471zm4.506 5.853c-1.358.667-1.674-1.241-.737-1.908l-.293.878c.796-1.253 2.131.48 1.03 1.03zm.55.398c.316.152.129.807.305 1.088-.27-.222-.41-.585-.902-.597.071-.292.539-.187.597-.491zm-3.172-4.682c-.702.702-1.861 1.416-1.592 2.774a7.468 7.468 0 01-1.088-2.973c.878-.293 1.826.175 2.727.222l-.047-.023zm-16.469-4.168c.316-1.287 4.366-2.587 5.454-3.277 2.201-1.393 3.383-4.413 5.057-6.649 1.674-2.236 2.587-4.225 4.472-5.654.386 1.65 2.411-.245 3.172-.796 4.015-2.926 10.055-4.354 16.387-5.162a49.878 49.878 0 018.428-.398c7.024.328 13.216 1.171 18.659 3.079a29.125 29.125 0 0111.506 7.843c1.791 1.826 3.652 2.973 3.875 6.25-1.112-.445-2.833-.28-3.875-.796-.41-.433.117-.749 0-1.393a12.128 12.128 0 00-1.592-2.575 18.244 18.244 0 00-6.637-4.682c-5.934-2.587-14.795-2.81-22.427-1.592-3.606.574-7.281 1.077-10.723 1.978-4.892 1.3-10.289 3.36-15.217 1.393-.76.305-1.72 1.054-1.58 1.99.176 1.24 4.273 1.522 6.146 1.381 5.677-.421 11.213-3.16 17.558-3.968a92.532 92.532 0 019.926-.89c7.023-.14 13.016.574 17.359 3.512a45.742 45.742 0 00-14.491-1.58 56.82 56.82 0 00-9.517 1.978 61.82 61.82 0 00-6.555 2.084 36.672 36.672 0 01-9.528 2.34c-3.512.247-6.485-.502-9.517-.9a11.02 11.02 0 00-4.377-.2c-1.627.469-3.652 1.85-3.512 3.676 1.978.176 2.704-2.341 5.361-1.17a16.187 16.187 0 01-2.481 3.511 23.164 23.164 0 01-2.88 3.278c-1.756 1.475-3.734 2.68-4.858 4.857a10.617 10.617 0 01-3.172-5.255 7.605 7.605 0 01-.421-2.19v-.023zm-.597 7.14c.456.211.597.726.995.996a6.626 6.626 0 01-2.775 2.575c-1.943.152-4.682.538-6.555-.492-.971-.538-2.586-2.2-2.575-3.078 0-.574.398-.726.597-1.17a6.908 6.908 0 003.172 2.879c3.067.117 5.923.035 7.141-1.686v-.023zm-2.178-.795c-2.563 1.17-6.11.55-6.555-1.885 1.604 1.03 6.275 1.065 7.738-.093.281 1.088-.785 1.334-1.183 2.001v-.023zm.89-3.664c-.211 1.592-4.284 2.025-6.251 1.088-.702-.327-.983-1.076-1.393-1.685V71.59c1.803.153 5.479.667 6.556 1.791.093.106-.001.34.093.585.246.504 1.1.996.995 1.756V75.7zm4.963-22.24c-1.72-.34-3.242-1.721-5.455-1.885a7.776 7.776 0 00-.105-1.79c2.365.748 4.846 1.345 5.56 3.71v-.035zm1.58-9.365a25.655 25.655 0 00-7.433-.796c.071-.807-.163-1.299-.105-2.083 2.903.421 6.415.398 7.538 2.856v.023zM244.537 26.63c3.278.632 3.091 6.356 3.278 10.219.246 4.974.655 10.382.89 15.872.093 1.908.444 3.336.503 5.057 0 1.44.597 3.512.492 4.272-.106.761-.937 1.288-.691 1.979a15.956 15.956 0 00-6.754-2.341c.655-2.201-.433-6.31-.293-9.365.141-3.055-.339-6.906-.398-10.125 0-2.142.492-4.19-.199-5.853 1.229-1.17 4.554-3.699 3.968-6.45-.386-1.814-2.914-.655-4.061-.105.023-2.247.304-3.757 3.242-3.184l.023.024zm-52.311 45.815c-3.652-2.529-5.935-8.194-4.858-14.187a86.98 86.98 0 009.13-3.079c3.36-1.404 6.895-2.505 9.821-4.366.948-.608 1.92-1.17 2.88-1.884a20.19 20.19 0 014.062-2.88 26.924 26.924 0 013.511-.89 69.963 69.963 0 0014.89-6.157 18.676 18.676 0 002.341-1.58c.784-.585 1.638-1.018 2.341-1.592 2.107-1.627 4.026-3.85 6.449-4.366.469 1.569-1.404 2.447-2.68 3.512-1.276 1.065-2.248 2.212-3.512 3.067a34.2 34.2 0 00-3.511 2.34 4.862 4.862 0 00-1.592 2.482c-.387 3.652 4.682.504 6.25.2.609-.118 1.077.07 1.686-.2-.07.866.164 1.428.094 2.283-1.464.445-4.004 1.638-3.372 3.863a5.654 5.654 0 002.587-1.382c.363-.316.48-.901.89-.995-.022.782.009 1.564.094 2.341-.96.703-2.599 1.885-1.686 3.278.948.152 1.171-.937 1.791-.796.644 1.99-1.744 3.629.293 4.471.316 1.628.257 3.64.597 5.256-2.74 0-5.853.445-8.826.597-.878-2.4-2.962-3.968-6.754-3.968-2.224 0-5.572.082-6.743.89a1.87 1.87 0 00-.69 2.575c2.598-.995 9.446-1.335 11.401.796.69.749.737 1.592 1.393 2.34 3.02.2 6.016-.947 8.826-.596 5.056.632 9.247 2.341 10.921 6.45-.574.14-1.077-.41-1.592-.597-2.798-1.03-6.672-1.019-10.02-1.487a44.759 44.759 0 00-4.963-.796c-4.156-.082-8.065 1.978-11.998 1.978-1.815 0-3.664-.924-5.361-1.381a20.368 20.368 0 00-9.622-.796c-1.733.386-3.067 1.487-4.963 1.99-.703.176-1.428.164-2.084.386a184.647 184.647 0 01-7.421 2.88zm47.325-32.155a22.898 22.898 0 00-4.261 1.17c1.171-1.1 2.985-2.34 4.366-3.511-.118.774-.153 1.56-.105 2.341zm-6.637 99.718a49.087 49.087 0 00-8.639-7.023 69.398 69.398 0 00-10.417-5.267c-3.793-1.51-7.667-2.81-11.109-4.565a72.023 72.023 0 01-9.926-5.853c-6.099-4.472-12.466-8.194-18.459-12.876a40.752 40.752 0 00-7.34-4.46 9.643 9.643 0 00-2.68-1.17c-.211-.574-.609-.972-.796-1.592a60.323 60.323 0 007.749-5.654c2.341-2.037 5.349-3.23 8.135-5.15a62.387 62.387 0 018.732-4.565c1.487-.726 3.09-1.347 4.682-1.99a22.717 22.717 0 004.565-2.084 3.11 3.11 0 001.288-2.68c-.257-1.112-1.978-1.007-3.078-1.487 2.411-1.007 5.173-1.393 7.749-2.575a12.874 12.874 0 016.543-1.393c1.924.165 3.822.558 5.654 1.17a23.039 23.039 0 005.454 1.382 18.732 18.732 0 004.167-.492c2.634-.55 5.268-1.58 7.937-1.487 2.669.094 4.869.984 7.749 1.288-.082 1.966.679 3.992.093 5.958-.327 1.17-1.486 1.99-2.083 2.973-1.791 2.985-3.313 8.522-1.288 12.01a3.101 3.101 0 01-1.685 1.58 17.908 17.908 0 00-1.288 4.472c-.3 1.944-.057 3.933.702 5.747 1.171 3.605 2.002 6.649 4.565 8.838.679.573 4.168 3.183 4.168.796 0-.855-2.131-1.721-2.775-2.342a14.484 14.484 0 01-3.769-7.023 17.29 17.29 0 01-.796-2.985c.042-.432.109-.862.199-1.287 0-.492-.164-.983-.105-1.381.058-.398.316-.574.398-.902.199-.796.14-1.744.398-2.575.187-.609.808-.972.796-1.686 1.896 2.178 5.853 2.67 9.364 2.974a57.043 57.043 0 00-2.587 8.638 8.305 8.305 0 00-.491 2.341 8.37 8.37 0 01-2.341-4.331c-.293-1.346 0-2.715-1.288-2.68-.515 0-.667.327-.995.69.445 3.992 1.674 7.187 4.46 8.838 0 1.709 0 3.512.105 5.162.597 7.889 5.303 12.466 10.91 15.475-.071.222-.562 0-.492.398a20.54 20.54 0 01-1.171 7.245 12.9 12.9 0 00-2.879 2.341c.04-1.522-.17-3.04-.621-4.495a3.659 3.659 0 00-3.359-2.762 3.952 3.952 0 00-1.369.257 3.83 3.83 0 00-2.342 3.887 7.162 7.162 0 00-4.811-2.587 4.217 4.217 0 00-2.996 1.311 3.945 3.945 0 00-1.346 2.961 5.96 5.96 0 001.17 3.149c-.842-.878-1.65-1.721-2.411-2.482zm-6.649 50.006c-.281-3.125-1.908-5.724-3.078-8.194a49.393 49.393 0 00-5.455-9.364c4.015-2.049 8.592-3.406 11.998-6.45.96-.854 2.458-2.341 2.283-3.863-.082-.714-.902-1.451-1.382-2.189-1.416-2.153-2.996-4.319-4.167-6.25a26.615 26.615 0 003.992-1.077 8.882 8.882 0 005.127 1.463c.971-.013 1.94-.119 2.891-.316a70.25 70.25 0 00-1.592 7.023c-.374 1.698-.971 3.512-1.393 5.256-.421 1.744-.726 3.687-1.287 5.361a28.142 28.142 0 01-2.189 4.46 84.217 84.217 0 00-5.748 14.14zm46.822-5.654c-3.512-.69-7.55 0-11.214-.292a9.216 9.216 0 00-1.498-.199c-1.651.222-2.763 3.511-3.266 4.857a28.588 28.588 0 00-1.487 6.649 43.12 43.12 0 00-13.203-1.381c-1.662.07-3.301-.199-4.858-.106-3.43.211-6.836-.222-9.821.89 0-.503.328-.796.398-1.288 8.264-3.956 17.558-5.372 25.6-8.533a36.24 36.24 0 005.946-2.575 72.674 72.674 0 009.622-7.445 46.113 46.113 0 004.472-4.073c.959-1.171 1.662-2.505 2.68-3.664a75.76 75.76 0 001.779 2.482 48.927 48.927 0 00-5.138 14.678h-.012zm63.795-26.489a3.102 3.102 0 00-2.342 2.189c.085.98.286 1.946.597 2.879.203 1.576.234 3.17.094 4.753-.398 8.849-.913 19.899-.796 28.093-1.803-.96-3.839-2.271-5.759-3.278-1.358-.714-2.926-1.17-4.366-1.884a43.888 43.888 0 01-4.261-1.979c-3.629-2.341-7.339-5.185-11.904-6.648-1.405-.457-3.044-1.042-4.682-1.592a18.256 18.256 0 01-4.261-1.885c-.667-.48-1.089-1.264-1.686-1.779a13.738 13.738 0 00-1.99-1.393c-4.026-2.435-7.877-5.853-12.794-7.445.515-.503 2.423-2.692.995-3.172-1.17-.386-2.165 1.323-2.879 1.885-1.78-1.405-2.341-4.062-1.99-7.14.339-2.798 2.727-4.987 3.184-7.445.409 1.065 1.791 1.17 3.371 1.089.363-.094.175.526.093.596 2.178.141 4.238.398 6.45.492.152-.374-.726-1.17-.597-1.486 8.194-.27 14.047 4.342 21.538 4.764 3.732.01 7.422-.788 10.816-2.341-.878 1.17-1.276 5.852 1.17 5.759 1.007-.059.855-1.171 1.393-1.885a4.844 4.844 0 012.084-1.288c.48-.152 1.03 0 1.592-.199.995-.316 1.966-1.603 2.68-2.083 1.077-.738 2.189-1.768 3.173-1.592 1.264.234 1.943 3.242 2.177 4.471-.422-.082-.574-.444-1.089-.456h-.011zm3.078-1.288c-.96-1.978-1.042-5.747-4.073-5.361-1.51.199-3.325 1.698-4.46 2.681a4.498 4.498 0 01-2.341 1.287 9.735 9.735 0 00-1.78.703c-1.076.562-1.58 1.662-2.481 1.884a11.051 11.051 0 012.481-4.471c.32-.464.685-.896 1.089-1.288 1.018-.878 2.774-1.299 3.863-2.341a7.521 7.521 0 001.498-2.189c.094-.456-.152-.889-.105-1.287.21-1.534 1.603-2.154 2.189-3.676.363.621.55 1.171 1.17 1.393 4.273 1.171 3.828-6.157 2.482-8.533.292-.901.726-1.662.995-2.575a43.247 43.247 0 012.786 5.946c-.948 1.686-3.418 2.844-2.681 5.56 1.171 0 1.522-.925 1.779-1.885a11.636 11.636 0 013.875-3.078 8.97 8.97 0 012.282-1.288c.316 0 .726.153.984.094 1.252-.258 2.54-2.341 2.879-4.167.504-2.634.223-5.162 1.686-6.848.164 0 .175.094.304.106-.293 2.27-1.498 3.511-1.288 6.648.094 1.428.808 2.798.691 4.261-.246 3.008-3.359 5.279-3.512 8.732a15.605 15.605 0 001.101 5.162 31.609 31.609 0 00-11.401 4.53h-.012zM159.814 269.388a8.811 8.811 0 01-4.928-.362c-2.283-1.171-2.681-4.051-3.091-5.701-.117-.48 0-1.171-.456-1.381-1.171 2.481-.07 4.46.152 6.637-1.603 1.17-3.664.316-5.56.175a7.935 7.935 0 006.286 1.686 11.284 11.284 0 002.54 4.249c-.398-1.405-1.522-2.657-.737-4.296 2.809 1.885 5.045 1.018 7.023-.983-.281-.34-.831-.082-1.229-.024zm-60.67-21.912c2.412-.679 4.683-1.51 7.106-2.212 2.423-.703 4.506-1.815 6.847-2.47 3.664-1.042 7.621-1.604 11.39-2.564 1.17-.304 3.113-.632 3.16-1.51.082-1.381-3.511-1.334-4.764-1.393-2.107-.128-4.237 0-6.098-.128-1.417-.129-3.898-.703-3.875-2.002.024-1.299 2.049-1.721 3.172-2.107 2.868-.995 5.373-1.615 8.194-2.341 1.171-.34 3.278-.293 3.09-2.213a5.641 5.641 0 00-2.692-.222 53.248 53.248 0 01-9.996-1.51c-3.208-.749-6.497-1.428-8.744-2.692a26.87 26.87 0 00-2.587-1.803c-2.072-.866-6.064-.96-7.76.106a5.032 5.032 0 00-1.687 2.341c-.21.83-.493 1.641-.842 2.423-1.019 1.65-3.793 1.521-4.18 4.015v1.475a8.564 8.564 0 001.078 2.984c.55.867 1.955 1.803 2.13 2.658a7.753 7.753 0 01-.129 1.744 7.597 7.597 0 003.969 6.789c.55.272 1.126.487 1.72.644l1.498-.012zm-6.402-6.239c0-1.171.679-2.189.245-3.641-.35-1.17-2.177-1.744-2.82-2.856a4.259 4.259 0 01.269-4.436c1.006-1.171 2.786-1.171 3.699-2.341 1.17-1.569.643-4.261 2.458-4.998 1.814-.738 5.326.398 6.765 1.346.679.445 1.007 1.229 1.628 1.428 2.341.784 4.448.433 5.712 2.212.246.328.503 1.838 1.17 1.756.937-.105.082-1.498 0-2.084 3.02.492 6.661.832 10.172 1.077 1.171.071 2.341-.164 3.137.586-.398.878-1.65.842-2.633.983-2.915.445-8.089.573-9.809 2.247-1.358 1.335-1.171 4.683.936 5.08 4.12.644 9.914-.596 12.97 1.042-1.066.691-2.517.586-3.852.703-4.003.351-8.275.924-11.202 2.341a.763.763 0 00-.327-.867c-2.341.574-3.617 2.447-5.853 3.278-1.089.41-2.341.737-3.43 1.171a9.634 9.634 0 01-5.326.854 5.114 5.114 0 01-3.91-4.881zm147.043-154.57l.445-.737c-1.054.526-.913 3.125.889 2.247 1.803-.878-.795-2.482-1.334-1.51zm4.249 2.727a.717.717 0 01.498-.874.714.714 0 01.368-.004l-.866.878c.105.773.983 1.616 2.049.422 1.99-2.236-3.137-2.716-2.505 0l.456-.422zM37.738 118.47c4.132 1.873 5.104-3.3 6.075-6.789a59.656 59.656 0 001.697-7.632c.246-1.791 0-3.745.422-5.36.175-.726.749-1.44.995-2.271.983-3.407.76-8.768 3.956-9.459.492 4.683-2.505 8.592-1.17 13.555.286.64.619 1.258.995 1.85a4.995 4.995 0 004.95 2.961c3.29.071 6.661-2.973 5.257-5.934-1.698-1.077-2.341 1.463-3.957 1.17-.374-.07-1.053-.913-1.264-1.545-1.732-4.998 3.067-12.747.281-17.675-2.002-3.512-7.527-1.428-9.189 1.17.234-1.896-.913-3.218-2.119-3.102-4.061.375-3.113 9.576-3.394 15.112-.129 2.505-.597 5.15-.843 7.492-.246 2.341-.152 5.021-.573 7.21-.691 3.559-2.61 6.345-2.12 9.247zm5.513-26.992c.164-3.582-.41-7.527 1.557-10.032.737 1.604-.866 6.064.983 6.216 1.17.082.984-1.323 1.417-2.26.924-2.024 2.797-4.365 6.075-4.108 4.682 3.324-3.278 17.184 2.411 20.777a3.32 3.32 0 002.821.152c-.983 1.674-3.77 1.241-5.513.562-.375-1.322-1.335-2.072-1.557-3.242-.925-5.022 2.868-9.926.702-14.129-5.677-1.276-5.852 5.28-6.777 9.751-.222.398-.843.386-.983.843-.469 3.886-.633 7.878-1.417 11.448-.784 3.57-1.568 7.023-3.394 9.469 2.411-7.023 3.266-16.446 3.675-25.447zm211.54-2.716c-1.393-1.065-2.774 1.335-1.17 1.803l-1.042-.152c.995 1.767 3.816-.433 2.212-1.65zm-6.59 1.276l-.14.152c-.948 1.335.105 3.102 1.323 1.733a1.175 1.175 0 00-.462-1.834 1.173 1.173 0 00-.721-.051zm1.545-1.767v-.89c-.058-.656 0-1.78-.737-2.072-.737-.293-1.697.538-1.803 1.17-.175 1.358 1.674 1.417 2.564 1.791h-.024zM26.302 260.082a7.022 7.022 0 00.632 3.909c-.305-.117.257 1.089.456 1.721.25 1.241.614 2.455 1.089 3.629.468.819 1.709 2.107 2.446 1.545 0-.457.656-1.323.281-1.37.363-.082-.07-.936.27-.726a9.624 9.624 0 00-.094-1.72s.164.21.175.187a8.193 8.193 0 00-.081-2.271c-.293-2.048-3.009-5.794-5.174-4.904zm3.511 7.538c.27.246-.14 1.17-.538 1.627 0-.457-.492-1.37-.457-1.99-.491-2.037-1.943-4.132-.55-5.853 1.979.094 1.697 3.055 1.908 4.273-.386.749.059 1.322-.34 1.943h-.023zM10.78 253.645c-1.018-2.096-3.36-2.88-4.998-4.367.574 1.288 1.838 1.862 2.728 2.822-.785-.223-2.833 1.053-3.723.807 0 .101.033.2.094.281-1.65-.363-3.442.808-5.361.819-.14.457-.855 0-.808.445-.445-.304-1.018 0-1.639.188-.105-.878-.562-3.219-.725-4.811a9.37 9.37 0 01-.094-1.639c.439-.149.895-.24 1.358-.269 0-.211 0-.34.187-.363a15.882 15.882 0 002.54-.363c.39.781.95 1.465 1.639 2.002-1.23-2.459-.75-5.678-2.915-7.024 0 1.171.504 1.85.55 3.079-.597.515-2.095.246-3.36.819a.622.622 0 01-.268-.187c-.527-2.926-.972-6.11-1.721-8.709.187 0 0-.398.27-.363.257.269.585-.304.538.094 1.533-.585 2.82-.246 3.722-.913 1.089.269 1.463-.304 2.81-.539-.504 1.651-.879 3.887 1.006 4.811-.082-.48.187-.889-.094-.819.316-.152 0-1.018.27-.726a1.31 1.31 0 01.28-1.17 5.327 5.327 0 012.084-3.395 3.673 3.673 0 00-1.592-1.849c-.55.597-1.533.772-2.177 1.276 0-.164-.304 0-.363-.188-.597.761-3.032.703-3.629 1.276-.292-.211-.55.059-.819.094-.609.008-1.216.066-1.814.175-.082 0-.176.281-.176.281s-.316-.187-.363-.187c-.493.058-.982.148-1.463.269-1.37.295-2.766.448-4.167.457.492.784.843 1.557 1.545 1.72 0 0-.117-.07 0-.081.773-.164 2.493-.001 3.079-.281a97.126 97.126 0 011.545 9.621c-.188-.187-.34.129-.457.281.24.246.452.516.632.808.15 2.42.518 4.822 1.1 7.175-.386.27-.924.082-1.006.457-.293-.386-.597 0-.901.082a7.582 7.582 0 001.533 1.639c.082-.305.515 0 .82-.27.326.398.69.762 1.088 1.089-.105-.632.129-.972-.176-1.37a87.289 87.289 0 018.534-1.896c-.293-.187.41.152.093-.187.176 0 .117.246.363.187a.503.503 0 00-.094-.281c1.311.375 3.196-1.077 4.495-.807zm16.973 3.265c-.28 0-1.51-.269-1.908.363-.386-.374-1.112.749-1.627.539-1.92 1.334-.808 4.378-.737 5.852.35.316.234.855.363 1.276 1.17 3.512 2.34 9.529 5.852 10.535a1.06 1.06 0 01.995.188.247.247 0 01.176-.27c.807.328 1.99-.655 2.552-1.088a11.592 11.592 0 001.264-4.823c0-.375.187-2.048.187-2.084.07-4.623-3.36-9.832-7.117-10.488zm5.443 12.432c-.246.117-.386.69-.269 1.088-.644 1.358-1.264 3.044-2.903 3.266l-.27.269c-.35-.164-1.17 0-2-.269a63.94 63.94 0 01-2.822-8.533 12.88 12.88 0 01-.351-4.355c.234 0 .316-.222.27-.538.268.07.784-.714 1.264-.819.48-.106.62-.668 1.369-.551.105 0 .07-.164.082-.269a5.515 5.515 0 001.37-.269c3.37.316 4.295 4.834 4.53 7.714-.457.854-.2 2.727-.27 3.266zm66.054-61.419c.257.48.597 2.341.667 1.03-10.418-22.626-19.443-47.371-22.24-69.378 1.24.164.328-.339.807-1.03 3.407 7.328 6.17 12.396 10.734 17.172-2.34-4.916-4.682-7.854-7.023-12.209-3.511-6.601-.573-12.162-5.607-14.596 2.575-2.704-2.704-8.627-4.378-10.465.375 3.863 6.848 8.99 2.342 11.823-5.959-.082-3.009-7.948-5.526-10.699.176.562-1.322 2.259-.14 2.06-.222-.351.328-.831.69-.457-1.99 6.532 1.909 14.363 4.554 18.261.386 6.04 2.341 12.408 4.413 18.822 1.334-.363 1.393 1.885 2.037 3.114-1.17.433-.62 1.252-1.85 1.697.714 1.545.14 2.821 1.452 4.483.714.96 3.43-.339 3.09.937-1.24.164-.293 2.118.538 1.732.11-.128.231-.246.363-.351a.855.855 0 01-.363.351c-.819.913.246 1.299.691.913-.854 2.634 3.512 6.11 2.2 10.91.691-.258.55-1.101 1.043-.679a43.687 43.687 0 012.575 8.779l.327.175-.316-.105c.053.415.076.834.07 1.252-.514-.398-1.076-.538-1.591-.936.995-.07.737-.55 1.521-.316v-.07c-5.525-3.208-5.384-13.344-8.334-18.343.34-.222.597 0 .913-.105-.34-.749-.913-.375-1.37-.585.902-.843-.234-.785.703-1.943-1.1 1.486-1.17-1.744-2.166-1.042 1.604 5.607 4.168 11.413 5.127 16.879-3.148-6.578-6.438-14.608-11.518-20.601-.89-1.745-1.17-.434-.117.573-.082 1.171 2.037 2.809 1.007 3.781-6.93-9.364-9.786-22.533-16.247-29.346-1.58 1.265.292 3.243-.387 4.683-1.041-.258-1.744-2.119-2.61-3.231l-2.072 1.358c5.432 12.138 7.878 22.427 12.876 35.502-1.358.82-2.88 1.592-2.083 2.856 1.17-.199 1.592-2.001 2.072-1.357a136.98 136.98 0 008.638 21.491c-.901.948-1.498.468-2.34 1.018.514 1.838 2.07-1.358 2.75-.328 0 2.213 2.27 3.442 2.481 5.291-3.336.972-1.1.094.668 1.042-.527.316-2.845-.07-1.721 1.171l1.381-.902c2.19 1.697 1.17 3.406 3.29 4.261-1.651-.234-1.546 1.92-.141 2.06-.21-.433-.69-.936-.328-1.264 1.17 1.791 6.836 9.212 3.863 4.389-13.8-22.603-21.62-44.679-22.814-65.035 3.512 3.98 5.853 9.903 10.535 13.836-.398.328-.75.644-.246 1.171 1.17.351 1.112.948 2.154 2.54 9.704 14.784 14.222 32.693 18.518 45.651-.293-2.552-1.826-5.361-1.65-7.808.608 1.171.655 3.699 1.568 3.91a127.926 127.926 0 00-3.512-17.441c2.341 4.916 6.017 12.08 10.184 15.556-.258-.737-1.428-1.58-.152-1.908zm-17.98-41.051c-.901-1.58-2.224-3.254-.304-4.237.351.983.468 3.453 1.908 3.676.363 1.217-1.042-.469-1.604.561zm9.938 29.521c-.749-.421.281-1.826-.901-1.381-.222-1.088 1.709-.726 2.06.141a1.874 1.874 0 00-1.264.327c.667.176.773.515.105.913zm82.64 45.265c-1.603 2.259-2.891 4.682-4.366 6.684-1.17 1.475-3.511 3.839-4.904 2.915-1.393-.925-.492-3.512-.141-4.987.878-3.874 1.932-7.023 3.02-10.687.48-1.568 1.955-3.839-.292-4.951-1.089.597-1.463 1.849-2.119 2.832a69.201 69.201 0 01-8.603 10.032c-3.056 3.043-6.076 6.216-9.049 7.831-1.299.702-2.704.843-3.781 1.615-2.411 1.709-5.29 6.075-5.267 8.686.116 1.28.6 2.499 1.393 3.511a19.506 19.506 0 012.107 2.611c1.17 2.27-.948 5.267 1.557 7.409l1.615 1.065c1.286.547 2.665.841 4.062.867 1.334 0 3.348-.913 4.413-.504a9.412 9.412 0 011.838 1.335 9.937 9.937 0 0010.289.316c.681-.43 1.32-.924 1.908-1.475l1.17-1.709c.925-3.149 1.58-6.251 2.482-9.365.901-3.113 1.17-6.238 2.001-9.364 1.37-4.776 3.512-9.551 5.034-14.398.48-1.51 1.463-3.897.526-4.553-1.521-1.077-3.921 2.891-4.893 4.284zm2.131 1.534c-2.4 4.682-4.682 9.809-5.127 14.046a.983.983 0 00-1.171-.234c-.936 2.915.211 5.701-.398 8.721-.292 1.474-.749 3.043-1.088 4.588a12.77 12.77 0 01-2.751 6.508 6.721 6.721 0 01-8.124.96c-1.334-.819-1.954-2.271-3.874-2.809-1.569-.433-3.43 1.17-5.115 1.17a5.622 5.622 0 01-4.682-3.371c-.633-1.955.667-3.886 0-5.759-.937-2.341-4.296-3.664-3.852-6.18.457-2.751 4.132-5.631 6.193-6.567.959-.445 2.048-.269 2.704-.819 2.505-2.084 3.511-4.683 6.402-4.8.551 0 2.4.714 2.786-.093.527-1.112-1.615-1.171-2.341-1.393 2.634-3.008 5.537-6.813 8.194-10.535.854-1.171 1.475-2.727 2.821-3.055.702 1.03-.199 2.411-.726 3.605-1.521 3.512-4.975 9.364-4.307 12.431.538 2.423 4.389 4.682 6.286 2.47 3.581-4.12 6.203-11.413 10.148-13.66-.082 1.674-1.159 3.207-1.978 4.776zm-76.753-3.734a6.673 6.673 0 01-1.767-3.348c-.187-1.932 1.533-3.371 2.446-4.308.258-.269.796-.48.714-.866-2.095.234-2.926 1.768-4.249 2.798-1.416-.562-1.685-2.248-2.34-3.512a6.084 6.084 0 001.474 4.682 8.627 8.627 0 00-1.72 3.36c.737-.82 1.1-2.049 2.481-2.213-.082 2.587 1.381 3.688 3.512 4.167.035-.28-.352-.526-.55-.76zm-60.552 8.369c.562-.644 1.417-1.007 1.908-1.721a7.586 7.586 0 00-1.545-1.638 5.224 5.224 0 01-3.078 1.908 18.73 18.73 0 01-.188-3.898c0 .093.117.07.094-.094a25.26 25.26 0 01.457-6.169 4.935 4.935 0 00-1.546-1.639c-.105.41.14.937.094.995a.282.282 0 00-.187-.175c-.059 1.826-.351 3.137-.363 4.448a17.375 17.375 0 00.094 3.266c-.422 1.919 1.252 5.653 4.26 4.717zm176.612-51.504c.468.41 1.264 1.253 2.083 1.171 1.58-.117 3.009-3.641 1.171-4.682-.35.008-.69.113-.983.304-.984-.492-1.312-2.013-2.587-1.99a2.578 2.578 0 00-1.979 2.88c.094.62 1.826 1.978 2.26 2.364l.035-.047z" fill="#EE7D00"/></g><defs><clipPath id="clip0"><path fill="#fff" d="M0 0h328v288H0z"/></clipPath></defs></svg>