<svg version="1.1" id="Слой_1" xmlns="http://www.w3.org/2000/svg" x="0" y="0" viewBox="0 0 49.2 49.7" xml:space="preserve"><style>.st1{fill:#ee7c09}</style><path fill="#fff" d="M0 0h49.2v49.7H0z"/><path class="st1" d="M34.9 4.9c-1.6.2-2.6 1.2-2.8 3-.1 1 0 3.1.5 6.2.5 3 .9 5 1.3 6 .7 1.7 1.9 2.4 3.6 2.1 1.6-.2 2.5-1.2 2.8-3 .1-1.1 0-3.2-.5-6.1-.5-3-.9-5-1.4-6-.8-1.8-1.9-2.5-3.5-2.2zM45.1 1c1.8 1.4 3.1 3.1 4.1 5.2V0h-5.6c.6.4 1.1.7 1.5 1z"/><path class="st1" d="M48.7 22.9c-2.2 3.1-5.5 5.1-10.1 5.7-4.6.7-8.4-.2-11.4-2.6-2.9-2.3-4.7-5.8-5.4-10.3-.7-4.7.1-8.7 2.5-11.8 1.2-1.7 2.8-3 4.6-3.9H0v11.1l9.6-8.5 9-1.4L23 30.5l-10.6 1.6-2.9-19-5.8 5.7L0 12.5v37.2h49.2V21.9c0 .3-.2.6-.5 1z"/></svg>