<svg version="1.1" id="Слой_1" xmlns="http://www.w3.org/2000/svg" x="0" y="0" viewBox="0 0 49.2 49.7" xml:space="preserve"><style>.st1{fill:#ee7c09}</style><path fill="#fff" d="M0 0h49.2v49.7H0z"/><path class="st1" d="M43.2.1c2 1.3 3.2 3.4 3.6 6.1.4 2.5-.3 5-1.9 7.5-1.7 2.5-4.4 5-8.1 7.4l12-1.7.4 2.4V0h-6.3c.1 0 .2 0 .3.1z"/><path class="st1" d="M26.9 29.9l-1.2-8.2 3.2-2.3c3.5-2.5 5.7-4.5 6.7-5.8s1.4-2.7 1.2-3.9c-.2-1.2-.7-2.1-1.7-2.7-1.1-.7-2.7-.9-4.6-.6-1.1.2-2.1.4-3 .7-1 .3-2 .8-3.1 1.5L23.2.9c1-.4 1.9-.7 2.8-.9H0v11.1l9.6-8.5 9-1.4L23 30.5l-10.6 1.6-2.9-19-5.8 5.7L0 12.5v37.2h49.2V26.6l-22.3 3.3z"/></svg>