<svg xmlns="http://www.w3.org/2000/svg" viewBox="0 0 49.2 49.7"><path fill="#fff" d="M0 0h49.2v49.7H0z"/><path d="M43.1 0c1.9 1.2 3 2.8 3.4 4.9.2 1.5 0 3-.8 4.4s-2.1 2.4-3.8 3.1c2 .1 3.6.7 4.9 1.8s2 2.5 2.2 4.2c.3 2.3-.2 4.2-1.7 5.9-2 2.4-5.6 4-10.8 4.7-1.4.2-2.8.3-4.3.4-1.5.1-3.3 0-5.3-.2l-1-6.8c1.3.2 2.6.3 4 .3s2.6 0 3.6-.2c1.8-.3 3.1-.8 3.7-1.6.4-.5.6-1.1.5-1.7-.1-1-.7-1.6-1.5-2-.9-.4-2-.4-3.5-.2l-3.8.6-.9-6 3.7-.6c1.5-.2 2.5-.6 3.1-1.2s.9-1.2.8-1.9c-.1-.8-.5-1.4-1.1-1.8-.9-.6-2.3-.7-4.2-.4-1.1.2-2.1.4-3.2.8s-2.1.8-3.2 1.3l-1-6.5C24 .8 25.1.4 26.2 0H0v11.2l9.6-8.5 9-1.4L23 30.6l-10.6 1.6-2.9-19-5.8 5.7L0 12.6v37.1h49.2V0h-6.1z" fill="#ee7c09"/></svg>