<svg xmlns="http://www.w3.org/2000/svg" viewBox="0 0 49.2 49.7"><path fill="#fff" d="M0 0h49.2v49.7H0z"/><path d="M45.5 4L34.4 5.7l.7 4.6 2.9-.6c3.2-.5 5.8.1 7.8 1.7 1.7 1.4 2.7 3.3 3.1 5.8.4 2.4-.1 4.6-1.5 6.5-1.9 2.7-5.2 4.4-10 5.1-1.5.2-3 .4-4.6.4-1.6.1-3.3 0-5.1-.2l-1-6.7c.8.1 1.8.2 3 .2s2.3 0 3.3-.2c1.9-.3 3.2-.9 4-1.7.6-.7.9-1.5.7-2.5-.2-1.2-.9-2-2-2.4-1.2-.4-2.6-.5-4.3-.3-1 .1-1.9.3-2.6.6-.8.2-1.6.5-2.5.9L23.8.4l2.8-.4H0v11.1l9.6-8.5 9-1.4L23 30.4 12.4 32 9.5 13l-5.8 5.7L0 12.4v37.3h49.2V0h-4.3l.6 4z" fill="#ee7c09"/></svg>