<svg xmlns="http://www.w3.org/2000/svg" viewBox="0 0 49.2 49.7"><path fill="#fff" d="M0 0h49.2v49.7H0z"/><path d="M29.3-.2c1.4 1.1 2.3 2.6 2.6 4.4.2 1.5 0 3-.8 4.4S29 11 27.3 11.7c2 .1 3.6.7 4.9 1.8 1.2 1.1 2 2.5 2.2 4.2.3 2.3-.2 4.2-1.7 5.9-2 2.4-5.6 4-10.8 4.7-1.4.2-2.8.3-4.3.4s-3.3 0-5.3-.2l-1-6.8c1.3.2 2.6.3 4 .3s2.6 0 3.6-.2c1.8-.3 3.1-.8 3.7-1.6.4-.5.6-1.1.5-1.7-.1-1-.7-1.6-1.5-2-.9-.4-2-.4-3.5-.2l-3.8.6-.9-6 3.7-.6c1.5-.2 2.5-.6 3.1-1.2.6-.6.9-1.2.8-1.9-.1-.8-.5-1.4-1.1-1.8-.9-.6-2.3-.7-4.2-.4-1.1.2-2.1.4-3.2.8s-2.1.8-3.2 1.3L8.3.6C8.8.4 9.4.2 9.9 0H0v49.7h49.2V0H29.3v-.2z" fill="#ee7c09"/></svg>