<svg version="1.1" id="Слой_1" xmlns="http://www.w3.org/2000/svg" x="0" y="0" viewBox="0 0 49.2 49.7" xml:space="preserve"><style>.st1{fill:#ee7c09}</style><path fill="#fff" d="M0 0h49.2v49.7H0z"/><path class="st1" d="M20.9 20.9c.8.6 1.7.8 2.7.7 1-.2 1.8-.6 2.4-1.4.6-.8.8-1.8.6-3-.2-1.2-.7-2.1-1.4-2.7-.8-.6-1.7-.8-2.7-.7-1 .2-1.8.6-2.4 1.4-.6.8-.8 1.8-.6 3s.6 2.1 1.4 2.7z"/><path class="st1" d="M31.7 3.5h-.8c-1.4-.1-2.4-.1-2.9-.1-1.3 0-2.6.1-3.7.3-1.5.2-2.8.7-3.8 1.4-1.8 1.2-2.6 3.1-2.2 5.5h.2c.6-.6 1.2-1.1 2-1.5 1.1-.6 2.3-1 3.8-1.2 3.1-.5 5.8 0 8.1 1.4s3.6 3.5 4 6.3c.5 3-.3 5.7-2.4 8-2 2.3-5 3.7-9.1 4.3-4.3.7-8-.2-11-2.4-3.1-2.3-5-5.8-5.7-10.3-.7-4.4 0-8.2 2.1-11.3C11.4 2.3 12.8 1 14.5 0H0v49.7h49.2V0H31.1l.6 3.5z"/></svg>