<svg version="1.1" id="Слой_1" xmlns="http://www.w3.org/2000/svg" x="0" y="0" viewBox="0 0 49.2 49.7" xml:space="preserve"><style>.st1{fill:#ee7c09}</style><path fill="#fff" d="M0 0h49.2v49.7H0z"/><path class="st1" d="M22.7 4.8c-.8-.6-1.7-.8-2.7-.7-1 .2-1.8.6-2.4 1.4-.6.8-.8 1.8-.6 3s.7 2.1 1.4 2.7c.8.6 1.7.8 2.7.7 1-.2 1.8-.6 2.4-1.4.6-.8.8-1.8.6-3-.1-1.2-.6-2.1-1.4-2.7z"/><path class="st1" d="M29.3 0c.2.1.4.2.5.4 3.1 2.3 4.9 5.6 5.6 9.9.6 4.2.1 7.8-1.6 10.8-2.3 4.1-6.6 6.6-12.9 7.5-2.3.4-5 .5-8 .4l-1-6.7.7.1c.8.1 1.9.1 3.2.1s2.5-.1 3.6-.3c1.5-.2 2.8-.7 3.8-1.4 1.8-1.2 2.6-3.1 2.2-5.5h-.2c-.5.5-1.1 1-1.9 1.4-1.1.6-2.4 1-3.9 1.2-3.4.5-6.3-.1-8.5-1.7-2-1.5-3.2-3.5-3.6-6-.4-2.9.2-5.4 2-7.6.8-1 1.8-1.9 3-2.6H0v49.7h49.2V0H29.3z"/></svg>