<svg version="1.1" id="Слой_1" xmlns="http://www.w3.org/2000/svg" x="0" y="0" viewBox="0 0 566.9 467.7" xml:space="preserve"><style>.st0{fill-rule:evenodd;clip-rule:evenodd}.st0,.st1{fill:#ee7f00}</style><g id="Layer_1"><path class="st0" d="M137.6 32.6c4.3.2 9.8 1.1 13 3.2-3.7-.8-9.3-1.7-13-3.2zm21.1 0c.5-.6 1.5.3 2.1.5-.8.7-1.3-.7-2.1-.5zm-39.8 26.5c6.7 9.2 15.6 15.1 27.9 18.8-7.5.4-14.2-3.3-19.7-7.8-2-1.7-4.2-3.8-6.2-5.9-3.8-4.1-7-7.6-6.2-15.8.2-2.4 1.2-5.5 3.4-6.4.5 1.2-.8 1.7-1.1 2.7-1.7 4.8.1 11.9 1.8 15.8 1 .6-.1-.7.1-1.4zm54.2-16.9c1.2.9 2.5 1.7 3 3.2-1.3-.8-2.8-1.4-3-3.2zM144 44.9c6.6 1.9 14.1 4.9 19.9 8.5-1.1 1.1-2.7-.4-3.9-.9-4-1.7-9-3.5-13-5.3-.7-1-2-1.5-3-2.3zm35.1 26.8c-3.9-2.9-7.4-6.2-11.2-9.2 0-.4.3-.5.2-.9-2.9-.5-5-3.8-7.3-3.4-3.8-2.9-7-6.3-11-8.9 6.8 2.1 13.1 6.7 19.2 10.3v.9c5 3.2 8.9 7.5 14 10.8-.2.9-.5 1.6-1.4 1.8.1.5.6.5.9.7-4.1-1.6-9.7-3.8-13.7-6.2 3.4-.5 7 2.8 10.3 4.1zm21.2-11.9c4.8 6.3 6.9 15.3 7.8 25.6-2.1-8.7-5.4-16.4-7.8-25.6zM97.1 60c.9 2.8-.5 7.1-1.4 9.6-.8-3.6.2-7.3 1.4-9.6zm19.5 1.4c3.2 3.9 6.5 7.6 10.8 10.5-4.4-1.8-8.8-5.6-10.8-10.5zm78.7 3.2c1.7 1.2 6.1 5 2.3 6.6-.6-2.3-1.8-4.1-2.3-6.6zM97.8 66c-.4 2.9.2 9.1-1.4 11-1.3-3.7.7-8 1.4-11zm-5.2 2.5c0 2.3-2 4.4-2.5 6.9-.5-2.7 1.6-4.8 2.5-6.9zm90.6 11c.1-.5-.6-2.2.5-2.7 4.6 2.6 8.8 5.6 12.6 9.2-11.5-3.8-23.2-9.3-34.8-13.7-.2-1.1.6-1.4 1.1-1.8 7.7 2 14.8 4.8 20.6 9zm-90-8.5c.4 6.5.8 11.6.9 18.3-1.5-2.3-2-6.2-.7-8.9-.3-.6-.5.8-1.4.5-.9-3.2-.2-7.8 1.2-9.9zm56.8 2.7c5.5.4 12.1 1.8 17.6 3.2 1.7.4 4 .6 4.6 2.3-7.5-1.7-14.4-4-22.2-5.5zm-61.8.5c.3 0 .4.1.5.2-1.5 3.3-2.3 7.3-2.1 12.4-2.1-3.7-1.3-10.5 1.6-12.6zm8.7 3.7c.6 2 .2 3.3.5 5.9-.8-1.4-.4-3.9-.5-5.9zm61.8 2.3c-4.2 1.1-9 0-13 0 .6-1 2.5-.8 3.7-.9 3.3-.3 6.6-.1 9.3.9zm46.9.6c.8 1.4.9 3.5 1.1 5.5-.7-1.5-1-3.3-1.1-5.5zM87.5 84c1.7 3.3 1.9 9.2 2.7 12.6-1.8-3.2-2.4-7.8-2.7-12.6zm88.6 11.7c.4-.1.4.2.7.2-.2.5-.8.6-.9 1.1.9-.1 1-.9 1.8-.9.1 1.2-1 1.2-1.6 1.6 1.4 1.3 2.1-1.6 3.7-1.6.1 1.2-1.2 1.1-1.4 2.1 1.1.5 1.7-1.5 3-1.6-.2 1.1-1.1 1.4-1.6 2.1 1.3.6 1.6-1.8 3.2-1.6-.2 1.1-1.4 1.2-1.8 2.1 1.3 1.4 2.5-1.1 3.7-1.4 0 1.2-1.1 1.4-1.6 2.1.4 1.2 2-.3 2.7.5.2 2.2-3 1-3.4 2.5.1.4.9.2.7.9-.9.2-.7-.6-1.4-.5-.2.1-.4.2-.5.5.1.9 1.5.5 1.4 1.6-.9-.1-1.3-.8-2.1-1.1-.3.1-.6.4-.7.7.5.6 1.4.7 1.4 1.8-1-.2-1.2-1.2-2.1-1.6-.6.1-.3 1.2-1.4.9.1.8 1.3.6 1.1 1.6-.9 0-.9-.9-1.6-1.1-2.3.4-5.2 1.4-7.6.9-.1-1.4.8-.8 1.4-1.1-1.1-1-3-2-2.1-4.3-2.3.4-3.5 3.8-5.7 5 1-3.6 3.5-5.8 6.4-7.6 0-.8-.1-1.6.5-1.8 1-.1.2.7.2 1.1 1.4-.1 1.2-1.9 2.3-2.3.5.5-.3.7-.2 1.4 1-.3.9-1.7 2.1-1.8.1 1-.7 1.2-.9 1.8 1.1-.5 1.6-1.4 2.3-2.2zm.4 9.4c1.4-1.2 3.3-1.9 3.9-3.9-1.4-.3-2.1-1.2-3.9-1.1 1.2 1.3-.3 3.9 0 5zm-4.5-3.9c-.1 1 0 1.8.9 1.8.4-.3.9-.5.9-1.1-.4-.8-.8-1-1.8-.7zm-24.8 35.2c-.8-1.5-.1-3.2-.2-5.3-2.2 1.9-3.1 7.6.2 8.9 1.9-4.4 5.1 1 8.9.5 4.5-.6 4.1-5.4 8.9-5.5.4.4 1.2.3.9 1.4 2.4-3.1-.8-5.9-2.7-7.8-1-1-3-1.9-1.6-3.2 1.6.3 4.7 3.2 5.7 5 2.7 4.8-1.4 9.6-7.1 8.9-1.6 1.8-5.1 3.7-8 2.1-1 .3-1.7.9-2.5.9-8.4.5-7.3-10.6-2.5-14-.4-4-.4-7.8-.7-12.1-.2-2.6-1-4.3-1.6-6.6-.5-1.9 0-4.5-1.6-5.5-.9-.6-2.8-.7-4.1-1.4-.6-.3-1.1-1-1.6-1.1-2.1-.5-5 .2-6.9.9-5.7-1.6-11.3.4-15.6 2.3-1 .5-1.4 2.6-2.7 2.1.6-1.8 1.4-3.5 2.5-5 .9-1.3 2.6-3.4 3.7-3.9 1.7-.7 4.7-.2 6.9-.2 3.7 0 6.3-.9 9.2-.2.7.2 1.5 1 2.5 1.4.5.2 1.4 0 1.8.2.5.2.9 1.2 1.6 1.6 1.8 1.2 4.1 1.8 4.8 3 1.4 2.2 1.9 7.4 2.3 10.5.8 6.3.9 11.2.9 17.2 0 1.5.9 4.4-1.4 4.9zm14.5 1.6c1.1-.1 2.3 0 2.7-.7-1.1.1-2.6-.2-2.7.7zm-13.8 2.3c.7.3 1.6.4 2.5.5 0-.8-2.1-1.4-2.5-.5z"/><path class="st0" d="M129.4 106.5c1.2-.3.5 1.3 1.4 1.4.6-.2-.1-1.7.9-1.4 0 .7.2 1.2.7 1.4.9.2 1-.4 1.4-.7.9-.1 0 .3.2.9 2.5.9 4.5 2.2 6.6 3.4-1.6 1.4-4.3-1.5-6.6-1.6.1.9.5 3.5-.7 4.3 1.5.5 3.1-.9 4.8-.9-1.4 3.9-8.7 2-11 5-.2-.8.4-1 0-1.4-.5 0-.7.4-1.4.2-.6.2.2 1.9-.9 1.6v-1.8h-1.4c-.5.1-.2 1.1-.7 1.1-.8.2-.3-.9-.5-1.4-.6.3-.3 1.4-1.4 1.1-.5-.6.2-1.1.2-1.8-1-1.5-4.7-.4-4.8-2.7.7-1 2.3.1 3.2-.5-.6-.5-1.3-1-1.8-1.6.8-1.1 2.6 1.9 4.1.2-.7-.6-2.3-.3-2.5-1.4 1.2.1 1.8.8 3.2.7-.6-.6-2.2-.9-1.6-2.1 1.2.3 1.6 1.5 3.4 1.1-.1-1-1.5-.6-1.4-1.8 1.2.1 1.5 1.8 2.7 1.1-.2-.7-1.2-.4-1.1-1.4 1-.7 1.6.8 2.7.7.7-.7-1.3-1-.5-1.8 1 .1 1.1 1.2 2.1 1.4 1.1 0 .3-.8.7-1.3zm-7.8 7.5c1.9.7 4 2.2 6.6 1.4-1.1-.4-2.2-.8-2.5-2.1-.3-1.1.7-2.2 0-2.7-1.1 1.4-3 2-4.1 3.4zm7.3-2c.7-.1 2 .3 2.1-.5-.5-.5-1.9-.6-2.1.5zm61.4-2.8v1.1c-1.3.1-2-.4-3.4-.2.1-1.1 2.3-1.3 3.4-.9zM123 124.1c-1.5.3-2.1 1.4-3.4 1.8 0-1.5 2.6-3.9 3.4-1.8zm55.8 14.4c2.6.8 4.8 2 7.8 2.5 1.5 2 1 6.8-1.1 7.8.2-2.5 1.2-4.3.2-5.9-1.4-2.3-6.1-1.4-6.9-4.4zm16.3.9c-1.3 1.5-1 4.7-1.4 7.1-1.5-1.6-1.9-7.2 1.4-7.1zm-54.5 5.3c0 3.1-4 4.1-5.7 6.2 0 3.5 1.9 4.9 3 7.3-3-1.3-5.6-5.1-3.9-8.9 2.4-1.3 5.3-2.2 6.6-4.6zm-6.4 17.8c-3.3-1.6-4.5-5.4-6.6-8.2 3.1.9 4.7 5.3 6.6 8.2zm35 5.8c-1.3.7-2.8-.5-4.6-.5-2.4.1-4 1.5-5.5 2.5.7-3.2 7.7-4.8 10.1-2zm-90.8 73.9c2.2 6.8 6.9 11 10.1 16.7-.6.7-1.3 2.9-3 2.7-1.9-.1-4.2-5.1-5.7-7.3-2.6-3.8-8.2-10-1.4-12.1zm280.3 4.1c2.9 2.2.5 7.4-3.2 7.1-1.8-3 .3-6.7 3.2-7.1zm-139.4 63.8c.1 1.7 2 3.3 1.8 5.3-.3 2.6-4.6 4.9-6.2 2.1-1.9.7-2.5 3.7-5.3 2.7.3-3 2.3-4.3 4.1-5.7.6-2.8 2.5-4.3 5.6-4.4zm36 58.6c-1.3-1.3.4-3 1.6-4.6 1.4-1.7 2.7-5.1 5-5 .9 0 2.2 1.3 2.3 1.8.4 2.6-2.8 3.3-4.3 4.3-1.9 1.4-2.2 3.4-4.6 3.5zm-91.1 43c1.6 3.4-1.5 5.7-3.9 6.6-.6-.4-1.3-.7-2.1-.9-.7-3.9 2-7.8 6-5.7zm126.1 20.6c-4.1.2-5.7 2.8-9.2 3.7-.3-4.9 4.6-6.4 8.7-7.6 1.4-2.4 5.2-3.8 7.1-.9 2.1 5.5-4.8 10.1-6.6 4.8z"/><path class="st0" d="M402.2 167.8c.2 7.4-6.7 10.3-10.8 14.4 3.9 1 7.2 2.4 11.7 2.7.1 2.9-1.1 4.4-1.8 6.4 14.5 9.4 31.3 17.6 55.8 16.2 5.8-19.6 15.5-36.7 33-46 5.8-3.1 12.7-6.2 19.9-6.2 8.6 0 16.3 3.3 15.6 12.1-1.2 14.4-14.6 24.5-24.7 30.4-12.6 7.5-26.1 11.4-41.2 13.7-4.5 10.9-10.6 20.7-16 31.1-10.6 20.4-18 45.2-22.7 71.6-1.2 6.8-2.2 13.6-2.7 20.8-1.8 22.2-.6 45.2 2.5 65.7 2.1 13.4 5.2 26.4 8.2 38.7 6.3 25.4 13.9 49.6 25.6 68.4.4.7.1 1.2 0 2.1 2.8 3.2 6.3 6.8 8.2 10.1-2.3-.3-4 .4-5.5 0-2.9-.9-4.5-6.9-7.8-7.8-.6-2.9-2.5-5.4-3.9-8-9.3-18-15.7-39.6-21.3-61.8-6.4-25.5-11.7-52.5-11.7-83.3 0-31.3 5.7-57.8 13.3-81.7 3.9-12.1 8.2-23.5 13.5-34.1s12.2-20.2 16-31.4c-10.7.7-23.1-.8-33.4-3.9-3.7-1.1-7.5-3.2-11.4-5-1.6-.7-3.5-1.6-5.5-2.7-1.6-1-3.9-3.4-5-3.2-1.8.3-1.9 4.4-3.2 4.6-2.1-.4-3.4-1.7-5.5-2.1-5.5 7.6-9.8 15.3-17.4 20.6-1.1.7-2.5 1-3.4 1.8-1.8 1.7-2.5 4.9-3.9 7.3-1.4 2.5-2.6 5-3.7 7.6 3.5.8 6.6 1.9 10.1 2.7-.5 4.1-2.9 7.5-4.3 11-1.5 3.7-2.4 7.5-4.3 11 1 .9 3 .8 4.6 1.1-1.2 4-3.3 7.6-4.8 11.7-1.5 4-2.5 8.1-4.1 12.1-1.6 3.8-3.6 7.5-5 11.4-4.3 12.3-8 24.1-14 35-1.8 3.3-3.6 7.2-5.3 11-1.9 4.3-3.5 10.1-6.9 12.6-1.5 1.1-4.4 2.8-5.9 3.2-5.4 1.4-11.9.1-16.9 0 8.1 8.9 17.1 19 24.3 29.5.5.8 1.3-.1 2.1.5.3.7-.1 1.2-.2 2.1 15 22.8 32.7 44.1 36.2 78.3.2 2.2-.1 5 .5 7.1.2.7.4 1.3 1.1 1.1-1.4 5.5-.7 14.7-.7 22.7 0 6.6-.3 13.1-.5 19h-4.6c.7-11.3.6-24.5.2-36.2-3.3.5-5.6 2-9.4 2.1.3 2.8-1.1 5.3-4.1 5.5-7-22.5-9.1-51.4-21.1-69.6-2.7-4.1-6.3-8.8-9.6-13-1.1-1.4-2.7-2.8-3.2-4.1-.2-.6 0-1.7-.2-2.5-.3-1.1-.7-1.3-.7-1.8.4-4.1 7.8-5 9.6-7.3-10.3-15.3-23.4-28.8-37.8-42.1-6.6-6.2-13.7-12.6-21.7-18.3-5.8-4.1-10.5-8.6-14.9-15.1-1.4-2.2-3.4-4.4-3.7-6.2-.7-4.3 1.2-10 2.3-14.2 3.4-12.8 6.6-26.2 9.2-39.6.4-1.1-1.1-.3-.7-1.4.7-3.7 1.3-8.3.5-11.2-.7-2.4-2.9-4.9-4.6-6.9-2.5-3-5.7-5.3-7.1-8.7-4.6 2.4-9 5.1-13.3 7.8.5 1.6-.9 4.1-2.5 4.1-2.3.1-3.5-3.5-5-4.6-.5-.5-2.1.6-2.3-.7 2.2-8 11.2-9.3 17.4-13.3-2-3.3-4.9-7.5-7.6-11.2-.7-1-2.7-2.7-2.7-3.4-.2-1.7 2.4-3.7 3.7-3.7 2.6.1 5.3 5.9 6.9 8.2 1.1 1.6 2.2 3 3.2 4.3 1 1.4 1.6 3.4 3.7 3.7-4.2-20-13.1-37.3-23.3-51.9-6.4 1.4-12.3 3.4-19.2 4.3 1.5 20.7 3.3 43.7 10.8 59.7.9 2 3 5.4 3 6.9-.1 1.8-2.2 3.6-3.7 3.7-2.6.1-6.3-3.7-8.2-5.3-7.6-6.2-14.7-12.4-21.3-19.2 13.3 17.9 28.4 34 38.9 54.7-3.1 4.3-9.7 4.9-14.4 7.6 1.6 5.3 4.3 9.9 8 13.7 3.7 3.9 6.3 7.9 9.2 12.4 2.7 4.3 6 8.2 9.4 12.1s6.3 8.1 9.6 11.9 6.8 7.5 10.1 11.4c3.2 3.9 6.6 7.8 10.1 11.4 20.7 21.6 35.1 52.1 41.2 87.9 4.1 24.1 8.1 49.4 8 78h-4.6c0-26.1-3.8-48.7-7.3-70.7-3.5-22.1-9.8-41.7-19-59-4.5-8.4-9.2-16.8-15.1-24-5.8-7.1-12.3-13.5-18.3-20.6-5.9-7-12.1-13.8-18.1-21.1-2.9-3.5-5.9-7.1-8.5-11-2.5-3.9-4.8-8.2-7.8-11.7-2.4-2.8-5.3-4.9-7.3-8.2-2-3.2-3.2-6.8-4.8-10.5-3.5.3-5.1 2.6-8.2 3.4-3.7-17.6-9.4-33.3-14.9-49.2.8 20.6 3.9 39.4 6.9 58.6 1.6 10.4 3 20.1 2.3 32.3-13-3.2-24.8-7.5-36.4-12.1.4-9.5 1.9-20.1 1.1-29.3 8.3 1.3 14.9 4.3 23.1 5.7.1-3.6-.1-7.6-.5-11.7-1-12.2-1.5-25.4-1.4-38.7-1.8 13.8-.7 31.7 0 44.4-1.3 3-6.2.6-9.6-.7-4.8-1.8-11-1.9-15.6-4.3-1-.1-2.5.2-3.2-.2-.1-13.1 3.5-24.8 6.4-35.9 2.9-11.3 6.8-21.7 10.8-32-5.4 7.3-10 16-15.6 24-1.8 2.6-3.9 5.2-5.3 8-1.8 3.7-1.4 9.8-6 10.1-1.4-2.3-.9-5.9-1.1-8.7-.8-9.8-3.1-19.2-5-28.4-2-9.2-3.8-18.3-6-27.2-14.7 11.7-36.2 20.1-55.4 28.1-2.9 1.2-5.7 1.7-7.1 4.3-2.4-.5-2.5 3.5-3.7 1.4-2.7 7.3-2 15.2-3.9 22.7s-3.1 14.8-3.9 22.4c-.8 7.5-2.9 14.7-4.3 22.2-4.4 22-10.2 42.5-14.2 65-2.7 15.3-3.1 31.4-1.8 48.5.2 3 1.5 5.7 2.3 8.7.7 2.9.6 6.3 3 8 9.3-1.1 19.1 1.3 29.3 1.8 24.9 1.2 50 3.7 73 6.6-.3-7 2.3-12.5 2.7-19 .3-4.6.8-8.9 2.5-12.6-2.4-.9-4.6-4-7.1-5-2.1-.9-5.1-1.2-7.8-2.1-2.4-.8-4.9-1.7-7.3-2.3-5.7-1.4-11.7-1.2-17.8-1.4-11.8-.3-23-3.7-31.4-7.3-1.9 1.8-6.5 3.7-7.8 6.4-1 2.1-.9 5.7-4.6 5-.5-6.5 4.9-9 8.5-12.1-.9-.8-2.4-.9-3-2.1-2.9 1.3-5.6 3.1-8.2 4.8-2.5 1.7-4.8 4.4-8 4.6 1.2-4.6 5.9-6.9 9.4-9.2 3.7-2.4 7.8-5 12.4-6.2 5.9-31.5 18.7-56.1 30.4-81.7-1.8-3.1-4.2-5.7-6.2-8.7.6-1.6 1.9-4 3.7-3.9 1.4.1 4.3 5 5.7 6.9 5.5 7 11.2 14.7 16.2 21.3 3.5 4.6 8.2 8.5 12.1 13 4.1 4.7 7.3 9.8 11.4 13.5 4.3 3.9 8.5 8.1 12.8 12.4 4.2 4.2 8.7 8.1 12.6 12.4 6.1 6.5 12.8 12.1 19.5 18.1 4.4 4 8.8 8.2 12.4 12.8 7.4-3.9 14-7.4 20.1-12.4 5.7-4.6 10.6-12 20.1-11.7 1 2.6-1.1 4.4-2.3 6.2-1.2 1.7-2.2 3.8-3.4 5.3-3.8 4.6-9.8 7.5-14 11.7 3.7-1.8 6.9-4.5 10.5-6.6 3.4-2.1 7.6-4 12.4-4.1.3 3.8-3 6.7-5.3 8.7-3.3 2.8-7.4 5.3-11.2 8s-7.8 5.1-11.2 7.8c12-2 21.9-7.2 34.1-8.2.9 3.8-2.3 6.1-4.6 7.8-7.1 5.4-17.6 8.3-26.1 12.1 10.3.8 24.1-.5 34.1 0-3.1 23.5-5.1 51.2-14.2 69.8-3 6.1-7.1 9.4-12.1 14.4-4.6 4.6-8.7 9.8-18.1 8.9-3-.3-13-3.3-13.5-6.2-.3-2 2.6-4.8 4.3-4.8 1.1 0 2.4 1.4 3.4 2.1 3 1.8 9 4.4 14 3.2 3.7-.9 8-5.5 10.5-8.2 2.9-3.2 6.3-7 8.2-10.3 2.3-3.9 3.5-9.3 4.8-14.4 3.8-15.3 5.9-32.1 7.6-49.7-5.6-.8-10.7.7-16.7.2 1.4 1.1 4.3 2.8 6.6 3.7-.9 1.3-1.4 3-2.3 4.3-7.2.7-14.1-.6-21.1 0-1.9 13.2-6.2 24.6-9.6 36.4-1.8 6.2-3.5 12.5-5.3 18.8-3.4 12.3-7.7 24.8-9.2 38.7h-5.3c2.5-15.6 7.3-29.8 11.2-44.6 1.8-7 3.9-14.4 6.2-21.7 2.9-9.2 7.1-18.1 5.7-28.6-1.2-.4-2.4-.6-3.9-1.1-2-.8-3.1-1.9-6.9-1.4-2 .3-3.8 1.3-5.9 1.6-4.1.5-8.9.9-14 .7-1.9-.1-4-.9-5.5-.7-1.6.2-2.6 2.3-4.1 2.5-1.8.3-4.1-.7-6.2-.7-1.8 0-3.7.5-5.5.7-5.2.4-10.4-.6-15.1-1.1.3 4.4.9 10.2-3 11-2.2.4-4.5-1.1-6.9-1.6-7-1.5-15.5-1.5-23.8-2.3-15.6-1.4-32.1-3-48.3-3.7-8.3-.3-16.1-2.6-23.6-2.3-1.4.1-3.3.8-4.8.5-2.6-.6-3.1-4.4-4.1-8.5-.8-3.2-2.3-6.5-2.5-9.8-.1-1.9.1-3.8 0-5.7-.1-2.7-.8-5.2-.9-7.3-.6-8 .7-16 1.4-23.8 1.4-15.4 4.4-29.1 7.8-42.6 1.6-6.4 3.5-12.9 5-19.9s2.4-14 4.1-21.1c1.7-7 2.5-13.9 3.7-21.5.5-3.5.8-7.3 1.6-11 .7-3.5 2-6.9 2.5-10.1 1.6-10.5 1.3-21.9 8.2-26.3 2.2-1.4 5.5-2 8.2-3s5.2-2.7 7.6-3.7c2.3-.9 4.6-1.5 6.9-2.5 14.5-6.8 30.8-12.4 42.1-22.9.1-4.4-2.7-8.4-2.1-12.1.5-3.4 4.9-4 6.2-7.1-6.7-6.2-11.6-14.2-15.3-23.3-.6.4-1.8.1-2.7.2.6 2.3.4 5.6-2.1 6.2-2.3.5-5.3-1.5-5.3-4.1.1-2.8 2.6-3.4 4.6-4.8-2.3-8.5-9.7-11.8-10.8-21.5-1.9-2.5-6.2-2.6-6.6-6.6-10.7-4.5-16.6-19.7-13.7-34.1 1.5-7.4 5.2-14.6 9.2-21.3 1.9-3.2 4.2-5.9 6.6-8.7 2.5-2.9 4.9-6.1 7.1-8 1.6-1.4 4-2.6 6.2-4.1 3.8-2.7 8.4-5.6 14.4-4.3 1.1-2.8 5.8-2 6.9-4.8 6.6-.7 11.4-4.7 18.3-5.3 9.2-.7 20 1.1 26.5 4.1 15.1 6.9 27.9 19.8 35.5 34.8 1.4 2.8 2.3 5.7 3 8.7.7 3.4.4 6.6.7 10.5.1 1.3.7 2.6.7 3.9.1 5.7-2.1 10.4-4.8 13.7 2.2 8-2 15.1-3.9 22.2.6 2 2.6 2.5 3.4 4.3 8.1.1 2.4 10.3-2.3 7.3-1-.6-1.4-3-1.4-3.9.1-1.5 1.2-2.9.5-3.7-1.1-1.1-1.3 1-2.7 1.4-1.3.4-1.3-.6-2.3-.2.3 11.5-1.1 23.5-5.7 30.2 3.2 1.9 6.1 4.1 9.2 6.2-.4 2.1.3 3.8.7 5.7 4.7-.3 11.3-1.8 16.2-3 1.9-.4 5.5-2.6 7.6-2.1 1 .3 3.9 5.3 4.8 6.6 7.8 11.3 13.3 24.7 17.8 38.9 2.2 6.8 3.4 14.2 4.3 21.3 4.1 4.8 10.4 10.4 7.3 20.1 3.9 5 6.8 11.8 10.8 17.2 9.2 12.6 22.4 21.5 34.8 31.8 3.6-5.8 8.2-13.1 11-21.5 1.3-4 2.8-8 4.3-11.9 1.6-4.1 3.5-8.3 4.3-11.9.8-3.5 1.1-7 3.9-8 1-.3 1.7-.2 2.7.2 2.4-4.6 3.2-9.6 6.2-13.7.6-.8 1.9-1.3 2.7-2.3 1.4-1.5 3.1-4.7 4.6-7.1 1.5-2.4 3.8-5.9 3.7-7.8-.1-1.9-2.3-3.4-3-5.3-2.8-8.3 1.6-15.1 6.2-20.1-4.3-.8-7.7-2.4-11.4-3.7-3.3 3.7-8.2 5.9-15.3 6.4-7.8.6-12.4-2.6-14.2-8-2.3-6.9.7-20 5.9-24.9 4.2-3.9 17.3-4.7 23.1-1.8 1.6.8 4.3 3.6 5 5.3 1 2.1.6 3.8 1.4 6.9 3.5 2 8.5 2.5 11.7 4.8 4.7-5.6 8.7-12.1 13.3-18.1 1.4-1.9 3-4.6 5.9-4.3.5 4.8-1.6 9.1-3 13-1.4 4.1-2.5 8.1-4.3 11.9 1.6-.1 1.8-1.9 2.5-3 1.9-2.9 4.4-6.2 6.9-8.9 3.2-3.6 6.5-7.9 11.7-9.4 1.2 4.2-1.9 8-3.7 11.2-1.9 3.6-3.9 7.2-5.5 10.8 0 .2-.2.2-.2.5 2.7-2 5.3-4.4 8-6.6 2.6-2 5.3-4.9 9.3-4.7zm-256.6-127c2.1 2.1 6.2 3.4 7.3 5.7-4.8-2.2-11.1-3.9-15.6-6.4-1.2-.7-3.4-3.2-4.3-.9 8.3 5.3 17 11.5 23.6 17.8-4.3-.9-6.5-3.6-9.6-5.9-4.3-3.2-8.5-6.1-12.8-8.9-1.8-1.2-4.9-4-7.1-2.5 4.2 1.8 6.6 5.4 9.8 8.2-.5-1.7-2.9-2.8-3-4.1 4 3 9.3 5.9 12.4 9.2-.9-.9-2.3-1.4-3.2-2.3-.9-.2-.7.7-1.6.5-4.6-2.9-10.1-4.8-13.5-8.9-1.5 2.4 1.3 3.4 2.5 4.1 4.7 3.1 9.9 5.2 14.6 8.2 3.2 2 6.3 4 9.6 5.7 4.6 2.4 10.1 3.8 12.8 7.3-3.1-1.6-6.9-2.5-9.4-4.8-.6.4-.7 1.3-.7 1.6-1.5-1.1-4.4-1.2-4.1-3.4-7.6-1.5-12-6.3-17.4-10.1-.4.1-.2.9-.9.7-4.5-3.9-9.3-7.5-12.8-12.4-1.2 1.1-.1 4.2 1.1 4.3-.4 0-.1-.8-.5-.9 6.1 5.5 10.3 12.3 16.9 16.9 4.3 3 8.9 5.2 14.6 7.3-.2.9-.6 1.5-1.4 1.8-7.4-2.2-13.7-5.4-18.5-10.1H133c-3.8-4.1-7.7-8.2-11.4-12.4 2.1 5.4 5.3 9.6 9.4 13 7 8.2 18.4 12.2 30.9 14.9-9.1-2-19.9-2.4-26.1-7.3-.9-.1-.7 1-1.4 1.1-5.9-8.4-15-13.7-16-27-1.4.8-1-.7-1.1-1.1-1.3 1.3-2.4 2.8-4.6 3.2 0 2.4-2.1 3.2-2.7 4.6-1.3 2.7-1.9 10.2-2.1 13.3-.8 13.4 10.5 17.8 20.4 19.5-4.6-1.3-8.9-4-12.1-8.2-3.5-4.6-8.1-11.1-6.4-17.4 1.4 5.8 3.7 10.6 6.9 14.6 3.7 3.3 7.2 7.9 12.8 8.5-.3-.3-1.7-.6-1.1-.9 5.4 2.6 12 4 19.2 4.8.5-.1-.1 1 .7.7 3.9 0 6.9-.8 10.8-.7.8-.1.5-1.2 1.4-1.1.9.4 3.4.3 3.9.2-2.3-.7-5.1-1-7.1-2.1 6.5.8 13.6 1.1 19 3 .9.2.8-.7 1.8-.5 4.8 1.2 8.4 3.5 11.4 6.4 1.2-.3 1.3-1 2.5-.2-.6-1.4-3.4-1.8-3.4-3 4.3 1.7 8.7 3.4 11.2 6.9.8.4 1-1 1.4-.2.3 1 1.3 2 .7 3.2 2.7-1.2.1-5-.7-6.4-3.2-5.4-8.9-8.4-12.6-12.4.5-.6.7-1.4 1.6-1.6 4.7 4.9 9.4 9.7 12.4 16.2.4.4 1.1.6 1.4 1.1-.6.9.5 2.7 1.1 2.3-1.3-4.4-3.1-10.3-5.5-14.4-1.3-2.3-4.2-4.9-.9-6.2 2.5 5.2 12.4 18.3 4.3 22.9-1.2-1-2.8-3.5-4.1-2.7 0 .8 1.4 1.6 2.3 2.5.9.8 2 2.3 2.5 1.8 0-.3-.3-.3-.2-.7 3.4-1.4 3.8-5.8 5.3-9.2 0 .3 0 .6.2.7.9-6.9.9-15.4-.2-22-1.9.1-.3 3.3-.9 4.1-1.9-9.5-7.2-16.7-12.6-22.9-5.4-6.2-11.9-12.1-20.4-15.1-1.1-.9-3-2.3-4.6-2.1 1.3 1.4 5 1.2 4.6 3.7 11.4 4.8 19.2 13.1 25.6 22.9-8.1-8.9-16.9-18.9-28.8-24.3-1.1-.5-4.5-2.5-4.8.2.6.3 1.2-.1 2.1.2 6.9 3.2 13.5 7.3 18.8 12.4 5.2 5 10.5 10.8 12.4 18.5-3.1-6.9-8.8-10.9-13.7-16-8.2-8.4-17.9-15.6-31.6-18.1-.6 0-.5.7-1.1.7-1.8 0-4.9-2.2-5.3.5 2.7.4 5.5.6 6.6 2.5 1.8.2 4.3.9 4.6 1.8-6.5-2.4-14.4-3.3-22-4.6-.5 1.1-.6 1.3-.9 2.7 9.3 3.1 21.4 4.7 27.2 10.5-5.2-2.3-11.7-4.9-17.8-6.4-1.8-.5-4.9-2-6.2.2 3.3.5 6.3 1.3 9.4 2.1v1.1c5.5 2.3 11.4 5.4 14 9.8-6.8-1.9-12.6-7.5-17.8-9.8zm-22.2-6.6v.9c.8-.4 1.9-.5 2.3-1.4-.9 0-1.3.5-2.3.5zm1.4 5.9c.2-1.7-.5-2.4-1.1-3.2 0 1.4.2 2.7 1.1 3.2zm-11.2-1.8c-.1 2.8-2.7 3.1-3.9 4.8-2.3 4.5-5.5 9.4-8.7 12.4 1.1-4.1 4.6-6.8 5.7-10.1-4.8 5.7-9.7 11.3-12.4 19.2-1.5 1.2-2.4 4.2-3.7 4.8 3.5-13.2 11-22.2 20.4-29.5-9.5 6-15.8 13.3-21.7 24.5C85.8 71 83 79 82.5 86.3c-.3 4.7 1.5 8.1 3 11.7 1.3 3.2 3.6 8.5 6.6 9.4 1.4 2.5 3.6 4.8 5.7 6.9 2.1 2 4.6 4.4 7.6 4.8.5-1.2-1-1.6-1.6-2.1-5.6-4.1-10.9-8.9-13.5-15.8-1.5-.4-2.7-3.2-1.6-4.6.7 2.7 2 4.7 3.2 6.9 1.7-.5 1.9 2.5 3.4 1.6.7.7-.5.8-.2 1.8 2.9 2.5 5.8 5.2 8 8 .7.9 1.2 2.6 2.7 2.7.2-2.1-1.7-3.8-3-5.3-3.9-4.5-8.6-9.8-10.5-16-.5-1.5-.8-3.4-1.1-4.3-1.4-3.7-1.6-10.2-.7-13.7.2 8.9 1.1 17 5 22.2.5.9.9-.3 1.4.2 1.5 4 3.3 7.7 6 10.5 1.6-2.3-.7-3.6-1.6-5-.1-.1.1-.7 0-.9-1.6-3.1-4.4-6-4.8-10.3-.2-.8.5-.9.5-1.6-1.5-1.1-1.7-4.7-1.4-6.9.1 1.8 1.8 2.7 2.5 4.6.5 1.3.2 2.7.5 4.1.6 3.4 1.9 6.7 3.9 8.5.8-2.2-1.9-5.4-.7-8.7-2.8-2.6-3.3-8.7-2.7-14 .4 5.6 2.4 9.7 5 13 .2.8-.3.9-.2 1.6 2.3-2.4.3-4.7-.5-7.3-2.5-8.5-4-23-.5-31.1.2-.7-.4-.7-.2-1.4 2.5-3.4 4.6-7.3 7.8-10.1 1.1-3.5 3.1-6.3 5.5-8.5-1 .3-1.7.7-2.4 1.1zm6.9 1.1c.7-.2 1.2-.5 1.4-1.1-.8.1-1 .7-1.4 1.1zm-13.8 20.2c.3-3 1.9-5.8 1.8-8.5-.4 2.8-2.2 5.5-1.8 8.5zm-2.2 2.7c0-3.4 1.7-6.3 1.6-8.9-.9 2.5-2.2 5.7-1.6 8.9zM82 79.5c2.4-10 7.6-18.5 12.1-25.6-5.6 6.7-10.2 15.8-12.1 25.6zM104.9 68c.6.8.9 1.8 1.8 2.3-.5 4.4.8 8.4.9 12.8 0 3-1 5.9-1.1 8.9-.1 2.2.7 5 .9 7.6.6 6.4.9 12 1.8 17.2.5 2.7.3 5.5.9 8 1 3.8 3.8 7.6 5.5 11.7 3.5 8.6 6.3 17.1 11.7 23.1 2.9 3.2 6.3 5.5 8.9 8.5 3.4 1.7 7 4.3 10.8 6.9 5.2 3.6 10.8 8.9 19.5 6.9 3.4-.8 8.9-3 11.9-5.5 2.6-2.1 4.2-6.1 6.2-9.2 2-3.1 4.3-5.9 6.4-8.9 4.9-6.8 7.4-14.1 8-22.7.7-9.9-3.5-20.6.7-27.9-1-4.3-.8-8.5-2.7-11.9-1.1.1-.7 1.6-2.1 1.4-1.8-2.8-4.5-4.7-7.3-6.4-.5-.5-.8 1.2-1.8.9-4.2-3.5-10.5-.2-13.7 1.1-1 .4-2.1.3-3 .7-.9.4-1.4 1.1-2.3 1.4-.6.2-1.2-.1-1.8 0-2.2.5-3.8 2.4-5.9 2.1-.2-4.9 4.2-4.8 7.6-6.2.8-.3 1.5-1.1 2.3-1.4 2.9-1.1 6.4-1.3 8.2-3.4-9.1-3.5-21.6-.1-32.7-.9-4.1-.3-8.3-1.2-12.4-1.6-12.8-1.2-22.3-5.9-25.4-16.7 0-.1 0-.3-.2-.2-.4.6-1.4.6-1.6 1.4zm-.4 15.1c.2-.4.4-1.2.9-.7-1.3 1.3-.6 3.3.2 4.8.4-5-.4-14.5-3-19.5.1 5.5.4 10.8 1.9 15.4zm102.2 17c1.3-1.8 3.8-3.5 3.7-5.9-.8 2.1-3.3 3.9-3.7 5.9zm-2 3.9c.1 1.5 2.4 4.1.7 5.3-1-1.8-1.2-4.4-2.5-6 1.1 3.9 2.6 7.5 3.7 11.4 2.1-2.8 3.5-9.5 1.8-14-.9 1.5-2.7 2-3.7 3.3zm-3.7 20.1c1.4-.5.9-3.1 2.7-3.2.3-2.2.4-5.2-.5-6.9-.3.4-.3 1.1-1.1.9-.6-1-.1-3.1-.9-3.9 1.5 5.1-2.7 8.8-.2 13.1zm-91.1 10.3c-.2-1.2-.8-1.9-.9-3.2-2.9-1.9-3.7-7.2-6.6-8.2 2.5 3.7 4.4 8.2 7.5 11.4zm93.2-8c.3-.4 1.7-.9.9-1.6-.1.6-1.6 1-.9 1.6zm8 5c.4-.8.1-1.5 0-2.3-1 0-.8 1.1-1.8 1.1-.7-.2-.7-1.1-1.6-1.1-.8 1.9 1.6 3.1 3.4 2.3zm-100 4.4c-.5-.2.1-1.4-.7-1.1.8 2.2 2.4 5.6 3.9 7.8-.1-.7-.6-1.9.2-3-.3-.9-1.9-2-.9-2.7.6.7.6 1.9 1.4 2.3-.6-1.9-1.4-3.5-2.3-5-.5.5-.6 1.5-1.6 1.7zm-3 12.1c1.3.4 1.7 1.6 3.4 1.6.4-2.5-1.5-2.8-3-3.4-.2.5-.5.9-.4 1.8zm405.7 36.6c3.3-3.4 8.8-11.2 6.9-17.8-1.8-6.2-12.9-7.7-20.1-5.7-21.8 5.9-34.2 24.7-39.1 46.5 21.1-3.9 40-10 52.3-23zm-148.9-7.8c1.9 0 3.1.7 5 .7 2-4.9 4-10.9 5.3-15.8-3.5 5.1-7.1 9.9-10.3 15.1zM320.5 166c3.2-1.2 8.3-.6 9.2-4.1-4.7-.3-8.7.2-9.2 4.1zm8.4-1.2c1.4 0 2.4.5 3.7.7 1.2-1 2.1-2.3 3.2-3.4-3.5-1-6.1.3-6.9 2.7zm5.1 1.4c1.4.6 2.5 1.5 3.9 2.1.7-1.5 1.9-2.5 2.5-4.1-2-3-5.7-.4-6.4 2zm43.2 13c1.4.2 2.3.8 3.4 1.1 2.8-5.7 6.3-11.8 8.7-17.2-4.3 5.1-9 9.8-12.1 16.1zm-202.7 2.3c-5.5 3-14 4-20.6.9-2.6-1.2-4.9-3.8-7.6-5.5-2.7-1.7-5.4-3.3-8.2-5 1.7 3.7 3 7.7 4.8 11.2 9.2 7.5 21.4 12.1 29.7 20.4 5.8-5.5 10.7-14.7 15.3-22.7.9-1.5 4.7-6.4 4.8-8 .1-1.5-2.8-8.3-3-9.4-4.1 6.6-8 14.2-15.2 18.1zm20.6-6.4c-5.9 9-10.2 19.6-17.6 27 6.3 4.5 10.8 10.9 16.5 16 5.7 5.2 10.4 11.3 16.9 15.6-4.8-13.1-7.3-29.8-8.7-45.8-.6-7.4 0-16.6-2.3-22-1.3-.9-3-1.4-4.6-2.1.1 4-.4 7.3-.2 11.3zm143.7-5.9c.7.4 1 1.1 1.8 1.4.6-1.1 1.6-1.8 2.1-3-.4-.8-.8-1.7-1.6-2.1-.8 1.2-1.6 2.4-2.3 3.7zm-19.2-1.2c-.8 1.7-1.1 3.9-1.4 6.2 1.6-.3 2.3-1.5 4.1-1.6 1.1-1.9 2.4-3.7 3.4-5.7.2 0 .2-.3-.2-.2-1 1.4-4.6.2-5.9 1.3zm7.7-1.3c-1.2 2.4-2.8 4.3-3.9 6.9 1-.4 2.7-.2 4.1-.2 1.1-2.2 2.6-3.9 3.9-6-1.3-.3-2.3-.9-4.1-.7zm5.1 1.3c-1.1 1.8-2.4 3.4-3.4 5.3 1.9 0 3.2.6 4.8.9.8-1.5 2-2.5 2.7-4.1-1.4-.7-2.3-1.8-4.1-2.1zm9.1 3.5c1.6 1.5 2.9 3.3 4.1 5.3.4-3.9-.7-6.2-2.3-8-.5.9-1.4 1.5-1.8 2.7zm-6.6 3.4c.8.1 1.3.6 2.1.9.6-1.2 1.6-2.1 2.1-3.4-.4-.6-.9-1.1-1.6-1.4-.8 1.4-2.1 2.3-2.6 3.9zm-202.5-1.6c-.5 0-.1-.8-.2-1.1-1.6-.1-.1 1.7.2 1.1zm255.4 8.7c2.6-3.4 7.6-5.6 9.4-9.2-2.9 3.3-8 5.3-9.4 9.2zm-49.7-5.5c2.6 1.1 4.1 4.4 6.4 5 1-3.6-2.2-6.6-4.6-8.2-.4 1.3-1.4 1.9-1.8 3.2zm-15.6-1.4c-.6 1.7-1.3 3.1-1.6 5h2.7c.9-1.8 1.8-3.6 2.7-5.3-.9.4-2.4.3-3.8.3zm5.3 0c-.9 1.8-2 3.3-2.7 5.3 1.6-.1 2.3.7 3.7.9 1.1-1.7 3-3.8 3.4-5.5-1.6-.1-2.5-.9-4.4-.7zm-9.6.9c.2 1.4-.6 3.8.7 4.1 1.2-1 1.3-3.3 2.1-4.8-1.5-.2-1.8.6-2.8.7zm11.9 6c.9.5 2.1.8 3 1.4.8-2.1 1.9-3.8 2.7-5.7-3-2.8-4.3 2-5.7 4.3zm20.1-5.1c-.5 1.7-.9 3.5-1.6 5 3.9 0 6.3 1.5 10.1 1.6.7-1.2 1.8-2 1.6-4.1-3.7-.4-6.5-1.8-10.1-2.5zm-16 7.1c1.4.4 2.3 1.3 3.7 1.6 1.4-.8 2.5-1.9 4.1-2.5-1.3-2-3.1-3.4-5-4.8-1.1 1.8-2 3.8-2.8 5.7zm-203 .5c.4.6.6 1.5 1.1 2.1 3.3 18.6 8.7 37.1 11 57.4 8-12.5 16-24.8 24-37.3-5.3-5.1-12.1-8.6-18.5-12.6s-12.4-8.3-17.6-13.5c-.4 1 .6 2.6 0 3.9zm188.4-.9c.8.5.9 1.7 1.8 2.1.2-1.5.9-2.5 1.4-3.7-1.9-.3-2.9.3-3.2 1.6zm2.7 3.6c1 .5 1.8 1.1 3.2 1.1.3-2.1 1.7-3.2 2.1-5.3-1.1-.5-2.3-.7-3.4-1.1-.6 1.9-1.5 3.4-1.9 5.3zm43.9 0c10.6 1 19.9 5.3 29.7 7.8.5-1.9 1.3-3.5 1.8-5.3-9.5-3.5-19.6-6.9-31.1-7.8.3 2.2-.1 3.7-.4 5.3zm-39.3 1.4c1.2.2 2.6.3 4.1.2.4-1.2.9-2.3 1.1-3.7-1.3-.3-2-1.2-3.4-1.4-.5 1.8-1.4 3.1-1.8 4.9zm35.9-4.3c-2.1 1.3-3 3.5-4.8 6.6-2.2 4-7.1 7.9-5.7 14.4.6 2.9 4.1 5.4 4.3 8.5.1.9-.4 2.5-.7 3.2-.7 1.9-2.6 4.7-4.1 7.1-1.8 2.8-4.7 5.6-4.1 8.5 3.4 1.8 7.9 2.5 12.1 3.4 3.6-6 5.3-13.6 10.5-17.2 3.9-2.7 7.2-4.9 10.1-8.5 2.7-3.3 5.3-7 7.1-11.7-7.7-1.9-13.5-5.7-23.1-5.7-.9 1.9-1.4 4.3-2.3 6.2 5 1.4 6.7 6.1 7.6 11.7-.8 1.1-1.8 2.2-3.2 2.7-.6-6-4-9.2-9.4-10.5 1.1-3.3 2-6.5 3.2-9.6 1.1-3 3.5-5.6 3.4-8.9-.4.1-.5-.3-.9-.2zm-30 4.1c1-.3 2-.8 2.7-1.4-.8-.3-1.2-.9-2.3-.9.2 1.1-.4 1.3-.4 2.3zM174 218.8c-4 .3-6.9 9.3-.2 7.1 0 .3 0 .6.2.7.2-2.3 2.9-2.2 2.3-5.3-.7-.8-1.2-1.9-2.1-2.5 0-.3 0-1.7-.2-.9v.9zm62.5 11c-2.6 1.3-5.1 2.6-6.6 3.9.9.5 1.1 1.8 2.3 2.1 4-3.2 9.1-5.4 13.3-8.5-2.6-1.9-6.1 1-9 2.5zM164 241.3c2.5.2 4.7-3.6 3.4-6.4-4.5-4.2-8.3 6-3.4 6.4zm178.9-4.6l-4.8 11.7c4.3 3.3 10.2 5.1 14.6 8.2 3.4-2.5 6.1 1.4 8.5 2.7 2.9-4.6 4.6-10.5 7.1-15.6-8.7-2.1-17.4-4.2-25.4-7zm-151.5 8c-.6 2.7 1 5.3 2.1 5.5 3.5.7 7-9.7 1.1-8.5-1.3.3-3 2-3.2 3zm-24.5 5.2c-.2 6.7 10.8-.3 5.9-4.8-2.8.5-5.8 2.2-5.9 4.8zM328 265.3c-1.7 4.2-3 8.4-4.3 12.6-2.8 8.4-8 15.3-11.2 22.9 1.6 1.9 3.2 4.3 5.3 6.9 1.1 1.4 5.6 5.2 5.7 6.6.2 1.7-2.1 3.8-3.7 3.7-1.8-.1-4.3-3.8-5.5-5.3-1.9-2.3-3.2-4.2-4.8-6.2-2.3 4.5 0 12.1-6.4 12.4-.3-4.7 2-8.7 2.5-13.3-15.7-13.5-33.1-25.1-43-44.4-2.2 7.1-2.5 14.5-4.6 21.5-2 6.9-4.7 13.7-5.5 20.6-.8 6.7 1.7 7.9 4.6 12.4 6.5 10 15.8 13.9 24.9 22 2.6 2.3 5.6 5.2 8.9 8.2 2.9 2.7 6.4 7.2 9.2 8.2 2 .7 3.6-.3 5.3-.2 1.9.1 3.9 1.8 6.4 2.1 6.3.6 13.7 0 16.2-2.3 3-6.9 6.1-13.9 9.8-20.6 7.5-13.5 10.9-29.3 17.2-43.7 3.2-7.2 5-14.9 8.5-22-4.1-.8-6.1-3.8-9.2-5.7-3.9 1.7-6.8-1.7-10.1-3.4-2.9-1.5-5.6-2.5-7.8-3.9-.7-.6-1.3.9-2.5.5-.8-.5-.6-2-1.4-2.5-1.1 4.5-2.8 8.6-4.5 12.9zm-119.7-8.7c-3.5-.6-5.5 5-3 7.8 4.8 1.6 7.2-7.1 3-7.8zm-51.9 13.9c1.3 4.6 10.1-.1 8.2-4.8-.4-1.2-1.5-1.8-3.4-1.6-2.5.3-5.7 3.3-4.8 6.4zm59 5.3c3.5 1.7 6.8-3.2 4.6-6.4-3.4 0-5.9 3.1-4.6 6.4zm-14.6 1.6c2.9.1 5.5-3.2 4.6-6.9-5.6-4.5-10.8 6.7-4.6 6.9zM82 353.4c-1.5 5.3-3.2 11.2-3.9 16.7-.3 2 .2 4.2-.9 6.2 1.7-.9 1.9.6 2.3 1.4 8.3 3 19.3 6.6 31.4 6.6 5.8 0 11.8.1 17.4 1.6 2.4.6 4.8 1.5 7.1 2.3 2.6.9 5.5 1.2 7.6 2.1 1.4.6 2.4 2.2 3.7 2.5 1.6.4 4 .4 6.2.7 5.7.8 13.5 2.1 18.8 1.8 2.3-.1 7.2-.9 9.4-1.6 4.5-1.3 4.7-3.8 6.6-7.1.8-1.4 1.5-2.8 2.5-4.1-6.8-7.5-15.4-13.1-22.2-20.6-10.2-11.2-22.6-20.8-32-32.5-3.2-4-6.7-7.6-10.3-11.2-7.3-7.3-12.2-16.3-19-24 0-.1 0-.3-.2-.2-8.8 19.2-18.4 37.9-24.5 59.4zm100-56.8c-.6-3.8-7.2-1.9-6.2 2.7 1.3.1 1.2 1.5 2.3 1.8 2.2-.5 4.3-2.1 3.9-4.5zM164.2 311c5.9 1.4 7.3-9.4 1.4-8.2-3.2.7-5.3 7.3-1.4 8.2zm20.3 3c-3.3.3-7.4 4.2-4.1 6.9 3.3-.1 7.1-4.1 4.1-6.9zm22.7 87.2c-.2-1.1-1-1.6-1.4-2.5 5.2-3.1 10-7.4 15.1-11.4 5.9-4.7 12.9-9.1 16.9-15.1.7-1 2-2 1.6-3-6.4 1.6-10.4 7.4-15.8 11.4s-11 7.2-16.9 10.3c-2.4 1.2-5 4.3-8 4.1-1.8-.1-3.6-2.1-4.1-3.7-.8-2.4.7-6.2-2.3-7.1-1.3 2.2-2.6 4.4-3 7.6-4.1 3-7.9 6.3-14.4 6.9-.4 6.7.3 13.2.7 19.7 6.8 2.8 15.8 2.3 23.1 1.4 3.4-.5 6.3-2.4 10.5-1.6 1.1.2 1.9 1.3 3 1.6.4.1 1.1-.3 1.6-.2 1.3.2 2.7 1.3 4.1 1.6 1.6.3 3.4.3 5 .7 1.6.4 3 1.2 4.3 1.4 3.4.4 6.6-.2 10.3-.2-8.4-3.2-18.2-6-25.6-9.4 12.8-3.9 25.5-9.1 36.6-15.3-13.3 2.9-25.1 7.4-39.1 9.6-.2-1-.3-2-.5-3 1.3-1.2 3-1.9 4.1-3.2 2.8-.7 5.1-2.8 7.6-4.3 2.5-1.6 4.9-3.3 7.3-5 4.8-3.5 10.2-6.5 14-10.3-12.4 5.3-22.2 13.5-34.7 19zm114.2-1.1c-.3 1.9 4.3 6.9 5.5 8.5 2.2 2.9 4.2 5.5 6 8 11.4 16.8 15.1 42.4 20.6 63.6 2.7 2.6 7.3 1 10.8 0-2.1-38.3-20.6-60.3-36.6-84.7-1.2 1.5-6 2.4-6.3 4.6zm-170.5-1.9c-3.3 5.8-2.4 17-4.6 23.1 6.8-.3 14.8 2 21.7.2-.1-1.8 2.3-2.2 2.7-4.1.4-1.6-.4-4.2-.5-6.4-.2-3.8.1-7.9 0-11.4-7.2.4-12.7-1-19.3-1.4z"/><path class="st0" d="M145.9 29.4c-2.1-2-3-.1 0 0zm15.5 4.1c6.7 1.7 12.7 6.1 17.8 10.1-5.2-3.2-11.8-7-17.8-10.1zm-10 1.6c9.9 1.2 18.2 5.9 24 11.9.8.2.6-.8.9-1.1 1.2 1 2.3 2.1 3.2 3.4-.2.9-.5 1.6-1.4 1.8-5-5.1-10.9-9.3-17.4-12.8.7 1.3 3 3 4.3 4.3-2.2-1.7-5.8-2.7-8.7-4.6-1.4-1-2.2-3-4.9-2.9zm19.6 16c.9.2.6-1 1.4-.9 3.7 3 9 5.2 13 8.7 1.7 1.4 3.7 3.6 5.3 5.5 1.3 1.6 4.3 4.3 2.5 6.4-6-5.7-10.8-12.7-17.6-17.6-.9-.2-.7.6-1.4.5-5.1-4.1-11.1-7.3-17.2-10.5-.9-.5 1.8.6 2.5.9 4 1.5 9.7 3.4 11.5 7zm22 9.4c-1.5-.7-2.4-2.8-3.9-4.1-1.5-1.4-3.1-2.5-4.6-3.7-.1-.8.3-1.1.5-1.6-2.4-2.3-5.1-4.3-7.6-6.4 5.6 3.1 12.5 8.7 15.6 15.8zm-79.4-13.8c.2 1.5-1.2 1.4-1.4 2.5-.5 4.7 1.8 7.9 2.3 12.4-2.5-1.9-5.1-12.9-.9-14.9zm58.4 1.2c2.1.5 3 2.2 4.8 3-1.3-.5-3.8-1.6-4.8-3zm-52.7.9c-.5 3.8.5 8.2 2.3 11-1.6-.9-6.5-9.4-2.3-11zm70.3 3.4c1.1.4 2.2 1.9 3.4 3.2 1 1.1 3.1 2.5 2.1 4.1-1.9-2.4-3.3-5.2-5.5-7.3zm-89.5 9.6c-.6-.8.3-2 .5-2.7.4-.2-.5 1.9-.5 2.7zm95.4-.6c.6-.1 1.2 1.8 1.6 2.7-.9-.5-.9-2-1.6-2.7zm-60.4 7.3c7.1 3.9 17.4 6.7 26.8 9.2-10.2-.9-20.6-3.6-26.8-9.2zm-15.5.4c1.2.9 4.6 2.7 5 4.3-2-.1-3.4-2.9-5-4.3zm62.7 7.1c-2.5 0-4.4-2.6-6.9-3.4 1.3.3 5.4 1.7 6.9 3.4zM128 72.8c1.6.7 2.7 1.8 4.3 2.5-1.2-.1-3.5-1.1-4.3-2.5zM94.4 95.5c-.7-1.3-1.7-5.3-.5-2.1.3.7 1.1 1.5.5 2.1zm85.8 51.5c-.8.3-1.5.6-2.7.5-2.2 5.3-5.4 11.3-10.8 13.7-3.6 1.6-8.9 2.2-13.3.7-4.6-1.6-6.3-6.7-11.7-7.8 1.7-2 4.2 0 6.2 0 2.1 0 4.1-2 6.6-2.5 2-.4 4 .9 5.5.7 1.8-.3 3-2.5 5.7-2.7 2.3-.2 5.2 1 7.6.2 2.5-.9 4.2-5.9 6.9-2.8zm-25.9 9.4c6.5 1.5 13.9-1.2 17.8-4.3 0-.3-.1-.5-.5-.5-4.6 2.6-9.8 4.8-17.3 4.8zm5.8-1.9c-.7.1-1.7-.8-1.8.5 2.8-.4 5.8-.6 7.6-2.1-2.1.3-4.1 1.3-5.8 1.6zm2 6.4c-.8-.5-3-.6-3.2.7 4.1-.5 9.8-.8 10.1-4.3-.9 2.6-4.6 2.4-6.9 3.6zm-2-1.8c0 .3.1.5.2.7.6.1.8-.3.7-.9-.4 0-.7 0-.9.2zm-4.4 2.1c.6-.1 1.4.7 1.8 0-.3-.1-.5-.3-.5-.7-.6 0-1.1.2-1.3.7z"/></g><path class="st1" d="M281.8 120.1c0 .2-3 48.9-6.6 55.2-2.9 5-8.3 8.9-14.5 9.5-11.3 1.3-15.2-15-4.3-18.5 8-2.5 14.5 5.2 14.5 5.2s2.1 1.9 3.5-8.3 7-48.9 7-49.1c0 .1.4 6.1 6.6 7.7s12.4 3.3 12.8 9.3-1.1 14.2-1.1 14.3c0-.1-2.6-8-8.9-11.6-6.3-3.7-9-13.6-9-13.7zm205.4 211.3c-.2.1-53.5 18.6-61.9 17.5-6.6-.9-13.2-5-16.7-11.3-6.4-11.5 9.3-22.9 17.8-12.8 6.2 7.4.9 17.8.9 17.8s-1.1 3.1 10.5.1c11.5-3.1 55.3-14.3 55.6-14.4-.1.1-6.3 3.2-5.3 10.4 1 7.3 2 14.7-4.3 17.8-6.3 3.1-15.7 5.1-15.7 5.2 0 0 7.4-6.3 8.5-14.6 1.1-8.4 10.5-15.6 10.6-15.7zM343.6 102.9c-.2-.4-.3-.9-.4-1.4-.2-2-.6-4.2-1.2-6.1-1.3-4.5-6.2-4.7-11.1-4.8-4.9-.2-6.2-4.7-6.2-4.7s2.3 30.1 3 38-1.2 6.8-1.2 6.8-6.2-4.7-11.8-1.4c-5.5 3.2-4 14.1 2.4 13.9 6.4-.3 11.5-5 13.2-10.3 1.7-5.3-4.3-42.5-4.3-42.5s3.7 7 9 8.7c3.5 1.1 6.1 3.9 7.5 5.7.7 9.5 1.8 23.1 2.2 28.1.7 7.9-1.2 6.8-1.2 6.8s-6.2-4.7-11.8-1.4c-5.5 3.2-4 14.1 2.4 13.9 6.4-.3 11.5-5 13.2-10.3 1.4-4.4-2.3-29.6-3.7-39zm28.1 7.2c-.3-2-1.8-3.7-4-4.2-1.8-.4-3.9-.3-5.5.5-1.9.9-3.6 2.8-3.9 4.9-.1.8.3 1.5.3 2.2 0 .5-.2 1.1-.2 1.6-.1 1-.3 2-.4 3.1-.3 2-.6 4.1-.9 6.1l-1.8 12.3c-.4 2.6-.8 5.2-1.1 7.8 0 .2.2.3.5.3h.7c.4-2.2 1-4.3 1.6-6.4.1-.3.2-.7.3-1v-.2c.1-.5.2-.9.3-1.1.5-2.5 1-4.9 1.5-7.4.7-3.4 1.3-6.8 1.7-10.3.1-.8.3-1.7.4-2.5.4.2.8.3 1.2.3.2.1.5.1.7.2 3 .6 6.8-.5 8.2-3.4.4-.9.6-1.9.4-2.8zm-4.9 4.2c-.4.3-.8.5-1.3.6-2 .5-3.7-1.3-3.6-3.2 0-1.2.7-3.2 1.8-3.9 1.5-.9 3.4-.9 4.6 1 .3.5.4 1 .5 1.7 0 1.4-.8 2.9-2 3.8zm27.4 7.1c.6-1.9-.1-4.1-1.9-5.5-1.4-1.1-3.4-1.9-5.2-1.8-2.1.1-4.4 1.1-5.6 2.9-.4.7-.4 1.4-.6 2.1-.2.5-.6.9-.9 1.3-.6.9-1.1 1.7-1.7 2.6-1.1 1.7-2.2 3.5-3.4 5.2-2.2 3.5-4.5 6.9-6.7 10.4-1.4 2.2-2.9 4.4-4.3 6.7-.1.2.1.4.3.5.3.1.5.2.6.3 1.3-1.8 2.7-3.5 4.1-5.1.2-.3.4-.5.7-.8 0-.1.1-.1.1-.2.3-.4.6-.7.7-.9 1.5-2 3-4.1 4.4-6.1 2-2.8 4-5.7 5.9-8.6.5-.7.9-1.4 1.4-2.1.3.3.6.6 1 .8.2.2.4.3.6.4 2.5 1.8 6.4 2.4 8.9.3.8-.7 1.4-1.5 1.6-2.4zm-6.2 1.7c-.5.1-1 .1-1.4 0-2-.4-2.9-2.7-2-4.5.5-1.1 2-2.6 3.3-2.8 1.8-.2 3.5.6 3.7 2.8.1.5 0 1.1-.3 1.7-.4 1.5-1.9 2.5-3.3 2.8zm-17.4 8.4v-.4.4zM257.1 65.6c-.4-8.9-.9-17.9-1.3-26.8 3.2-.1 6.3 0 9.5-.1 3.5 0 3-1.6 3.2-2 .3-1.4.6-2.7.9-4.1 0-.5-.2-1-.5-1.2-13.5-.2-27 .2-40.5 1.2-.9.1-1.3.5-1.4.9-.1 0 .3 4.4.8 6.5.4.3 1.1.3 1.4.2 7.8-.7 15.6-1.2 23.4-1.4.3 5.6 3.3 50.6 2.5 50.7-1.2.1-4 .8-4.6.2-1.5-1.7-.5-4.8-.6-7.6l-.6-14.7c-.4-9.3-.8-19.4-1.2-28.7 0-.7-3.4-.5-3.3.2.7 17.4 1.5 35.7 2.1 53.2 0 .2.2.3.5.3 3.3-.9 7-1.2 10.4-1.6 0 0 .1-.1.1-.2 1.1-3.2.2-7.5 0-10.9-.3-4.5-.6-9.3-.8-14.1zm-26.6-26.9c-.3-1.4-.7-2.7-1.3-4.1 7-.5 14-.9 21-1.1 3.4-.1 15.5-.5 16.5.2.6.5-.3 1.6-.1 3.1 0 .1-.2.3-.4.3-12 0-23.9.5-35.7 1.6z"/><path class="st1" d="M285 74.1c-2.2.2-6.1 1.2-8.2.5-2.5-.8-3.1-6.5-3.7-9.2 3.4-.7 6.7-1 10.3-.8.4 0 2.1-.1 2.1-.9-.5-7.1-2.5-16.3-11.5-16.1-7.5.1-9.4 8.5-10 14.6-.8 7.7.2 21.9 9.7 24.1 7.6 1.8 11.4-5.1 13-11.4.2-.7-1.2-.8-1.7-.8zm-4.1 7.5c-6.8 7.9-10.9-.6-12.1-4.5-1.3-4-1.8-8.5-1.7-12.7.1-4 1.4-18.3 9.9-14.1 4.3 2.1 4.7 8.4 5 12.8-4.2 0-8.3.5-12.4 1.6 0 0 1.5 10 3.9 11.5 2 1.2 6.5.3 9.6-.2-.4 1.8-1 4.3-2.2 5.6z"/><path class="st1" d="M279.4 57.9c-.5-1.2-1-2.5-1.7-3.6-1.2-1.9-3.7-2.4-5.3-.6-1.7 1.8-1.7 5.3-1.5 7.6 1.3.1 5.1.8 5.6.8 1.1.1 2.4 0 3.1-1 .7-1 .2-2.1-.2-3.2zm-5.3 1.3c0-.9.1-1.9.4-2.8 0-.2.1-.4.2-.6.2.4.5.8.6 1 .3.6.6 1.3.9 2 .1.2.2.4.2.7-.6-.1-1.5-.2-2.3-.3zm22.3-11.7c-.4.1-2.2.2-2.7.5-.4.2-.6.5-.6.9 0 19.2.3 38.4 1 57.6 0 .3.1 1.3 1.3 1.4 3.3.2 3 .2 6.3-.1.4 0 1.6-.2 1.6-.8 0-6.1.1-12.2.1-18.3 0-2.8-.1-5.6.1-8.3.3-4.6-.2-4.8 3.4-6.7 5.2-2.7 9.9-3.4 12.5-9.4 6.7-15.2-13-18-23-16.8zm5.1 25.8c-.3 0-1.2.2-1.2.7 0 5.5-.1 11.1-.1 16.6v14.6s-2.7.3-2.7-.4c-.5-18.9-1-36.4-1-55.3 0-.3.6-.7.9-.8 5.3-.7 14.9.4 18.1 5.2 1.3 2 1.9 4.7 1.7 7.1-.8 7.7-9 11.4-15.7 12.3z"/><path class="st1" d="M303.2 68.3c-.4-5.1-.1-10.2 1-15.2-.5.3-1 .7-1.5 1 2 0 4.5 0 5.5 2.1.7 1.4.4 3.3-.1 4.6-1.2 3.2-3.7 5.5-6.7 6.8-2 .9.3 2.6 1.8 1.9 4.4-1.9 8.5-6.1 8.7-11.1.3-5.5-4.8-6.8-9.3-6.7-.5 0-1.4.4-1.5 1-1.1 5.3-1.5 10.5-1 15.9-.1 1.6 3.2 1.3 3.1-.3zm43.6-13.4c-.6-5.4-.6-6.7-5.7-7.7-1.7-.3-3.5.5-3.9.7-5.3 2.4-9 6.5-12 11.5-2.7 4.5-8.3 13.8-5.8 19.3 2.6 5.9 10.6-1.6 15.4-6.7.1 2.6.9 4.9 2.2 7.5.3.6 1.6.5 2.1.4 1.5-.2 8-.5 8-1.8.5-7.7.5-15.4-.3-23.2zm-7 23.4c-1.7-3.3-2.1-6.5-1.6-10.2.1-1-2.7-.6-3.1-.2-3 3.1-6.1 6.5-9.7 9-2.5 1.8-2.3 2-3-.6-.7-2.4 1.1-6.4 1.9-8.5 2.6-6.8 6.6-13.8 12.9-17.7.7-.4 2.5-.6 3.1-.4 5.8 1.4 4.1 21.5 3.6 28.1-.8.1-3.2.4-4.1.5z"/><path class="st1" d="M340.3 55c-.7-.2-2.2-.2-2.7 0-3.4 1.9-6.5 4.3-8.9 7.4-1.4 1.8-4.8 5.9-.6 6.1 6.8.4 12.6-7.4 14.3-13.1.2-.3-1.1-.5-2.1-.4zm-10.7 12.3c-.6-1.8 3.3-5.9 4.2-6.8 1.5-1.6 3.3-3 5.2-4.1-.8 2.3-1.9 4.4-3.5 6.2-1.2 1.2-3.8 4-5.9 4.7zm50.8-5.8c-.8-1.8-2.2-1.9-4-2.3-5.7-1.3-11.4-2.3-17.1-3.5-.6-.1-2.2-.1-2.4.7-2.3 8.6-4.3 17.3-6.1 26-.1.7 5.2 2.6 6.4 3.2.6.3 2.5.3 2.8-.6 1.7-5.8 3.1-11.7 4.4-17.7 1.3.2 2.6.6 3.1 1.3.5.8-.6 4.3-.7 5.2-.7 4.4-1.7 8.7-3 13-.1.5.4.8.8.9 2.4.4 4.6 1.1 6.8 2 .6.3 2.5.3 2.8-.6 1.4-5 2.7-10 3.8-15 .8-2.9 3.7-9.7 2.4-12.6zM368.2 83c.5-3.2 1.4-6.2 1.9-9.4 1.2-7.3.6-7-6.3-8.2-.5-.1-2.2-.1-2.4.7-1.2 5.7-2.7 11.4-4.2 17.1-.8-.3-3-1-2.8-2 1.6-7.9 3.5-15.7 5.5-23.5 3.1.6 6.2 1.3 9.3 1.9 1.3.3 5.8.6 6.9 1.4 2 1.5.9 3.2.5 5.4-1.4 7.1-3.2 14.1-5.1 21.1l-1.5-.6c-2.7-1.2-2.3-.7-1.8-3.9zm44.1-10.5c-2.1-4.2-9.4-6-14.1-7.6-.6-.2-3.9-1.4-4.5-1.4-.8.3-1.4 1-1.6 1.5-5.7 9.5-10.2 19.4-13.8 29.8-.7 1.9-.8 2.7 0 3.9 4.1 6 22.4 11.7 24.8-1 .1-.6-1.5-.7-1.7-.6-8.8 1-10-6.7-7.3-11.9 6 3.1 12.4 5.9 16.1-1 1.7-3.2 3.9-8.1 2.1-11.7zM406.9 84c-3.6 4-8.5 1-12.1-.9-.9-.4-2.4-.5-3 .4-5.5 7.3.5 15.1 8.1 15.7-2.4 5.4-9.3 3.7-12.6 2.3-5.2-2.2-5.9-3.8-6.2-5.6 3.5-10.5 8.1-20.6 13.8-30.1 5.4 1.9 14.5 4.5 14.7 10.8 0 1.8-1.5 6.1-2.7 7.4z"/><path class="st1" d="M404.9 74.3c-1.8-2.2-5-2.7-7.6-1.9-2.6.8-4.7 3.6-3.3 6.2 2.3 3 7.1 4 10 2.6 2.7-1.3 2.6-4.8.9-6.9zm-3.3 5.3c-1.1.3-3.2.4-4.2-1.4-.8-1.5-.5-3.1 1.1-3.8 1.5-.6 3.1.2 3.8 1.6.7 1.1 1 3.2-.7 3.6zm38.1 5.4c1.3-6.7-6.8-10.9-12.3-11.7-.3-.3-.8-.9-1.3-.8-.4 0-.9.6-1.2.9-6.3 6.9-11 14.9-15.8 22.9-.3.4 2.3 2.8 3 3.6 3.8 4.8 11.7 7.1 17.2 4.9 6.9-2.7 7.1-10.3 2.8-14.5 3.5.1 6.9-1.3 7.6-5.3zm-12.5 2.9c-1.2-.2-3.1 1.1-1.3 1.7 3.2.6 6.2 3.1 6.5 6.6.4 4.5-1.9 6.5-5.8 7.3-4.7 1-10.4-.8-12.8-5.3-.3-.6-1-1.7-1.3-2.6 3.9-7.4 8.6-14.2 14.2-20.4 3 .3 5.3 1.8 7.7 3.5 5.4 3.8 3.6 11.7-7.2 9.2z"/><path class="st1" d="M424.9 91.7c-1.1-1.1-2.4-2.4-4.1-2.3-1.1 0-2.2.6-2.4 1.8a7.2 7.2 0 001.7 7.4c1.8 1.8 5.3 2.9 7.2.6 2.2-2.5-.5-5.6-2.4-7.5zm-.6 7.3c-1.3 0-2.6-2.3-3-3.4-.5-1.4-.5-2.9-.1-4.3.3.4.8.7 1.1 1 .7.7 1.5 1.5 2 2.3.6.9 2 4.4 0 4.4zm9.7-17.1c0-2.6-2.9-3.7-5.1-2.9-2.4.3-5.6 1.4-6.3 3.7-1 3.2 3.4 3.5 5.5 3.5 2.4.1 5.9-1.3 5.9-4.3zm-3.5 1.5c-.9.9-2.4.8-3.6.7-.5-.1-1.5 0-1.7-.7-.1-.6 1-1.3 1.4-1.5 1.1-.6 2.3-.9 3.5-.9.2 0 .3-.1.5-.1.2.2.4.6.5.7.2.7-.2 1.4-.6 1.8zm34.2 14.4c-4.5-5-9.2-10-14-14.7-.3-.3-1-.3-1.7-.2-.6 0-1.1.2-1.3.5-1.4 1.9-2.8 3.8-4.1 5.8-.1.2 0 .4.2.5 2 1.1 3.9 2.4 5.8 3.7-.1 0-.2.1-.2.1-4.4 5.1-8.9 10.2-13.3 15.4-.5.6.4.9.9 1 1.9.2 3.3 1 4.2 2.5.5.6 2.1.6 2.6 0 3.9-4.8 7.8-9.5 11.7-14.3.5.5 3.6 3 4.6 3.4.6.2 1.3.5 1.7 0 1-1.1 2-2.1 3-3.2-.1-.1.1-.3-.1-.5zm-22.3 12.5c-1-.8-2-1.3-3.3-1.6 4.1-4.7 8.1-9.4 12.2-14 .8.6 1.6 1.2 2.3 1.9-3.7 4.5-7.5 9.1-11.2 13.7zm17.9-10.7c-2.7-2.7-5.5-5.1-8.6-7.3-.9-.6-5.5-3.4-5.5-3.4s1.9-2.7 3.1-4.1c2.4 2.4 4.8 4.9 7.2 7.4 1.3 1.4 2.8 2.7 3.9 4.2.5.6 1.3 1.3 1.1 2.2-.1.3-1 1.2-1.2 1zm-83.4 15.7c5.9 3.3 11.6 6.9 17.1 10.9 1.4 1 5.8-.9 4.5-1.9-5.7-4.1-11.6-7.9-17.7-11.3-1.5-.7-5.9 1.2-3.9 2.3z"/><g id="Режим_изоляции"><path class="st1" d="M473.1 127.9c2.3-2 4.1-7.8 7.4-8.7 5.1-1.5 10.2 6.1 13.7 6-3.2-1.6-8.6-7.7-13.3-6.8-5.6 1.1-6.9 7.3-10.9 10.2-.5.3-2.7 1.1-4.1 1.7-3.1 1.3-3.7 2.7-6 3.9-15.1 8-34.4 18.2-52.4 28.5-1.1.6-1.5 2-1 3.2.6 1.3 2.1 1.8 3.4 1.1 12.8-7.1 25.6-14.6 35-22.2 9.2-7.4 21-10.8 28.2-16.9zm11.7-64c0-1.9-.7-3-2-3.7-1.1 1.4-1.4.1-2.1 1.7-.5-1-1-.2-1.4-.4-1.5-2.9-1.4-4.5-5.2-8.1-1 1.2-.7.1-1.9-.4-1.6 1.4-3.8-.2-4.7 2-.5-1.5-3.7 2.9-4.2 1.5-3.5 2.9-2.9 6.2-4.5 8.2-4.3 5.4 8.2 7.8 10.4 7.9-.7 2.2-4.4 4.6-3.1 6.7 2.5-.6 4.8-1.2 6-4 4.7-1.6 8.6-8.3 12.7-11.4zm-15.1 1.4c.1-1-2.5 1.3-3 1.7-3.3-1.4-.8-3.6-.9-5.4 2.5-1.5 5-2 7.5-2.1 1.3.3-.2 2 1 .9-.6 1.8-3.2 3.7-4.6 4.9zm5.5-29.7c-.5-.7 1.6-1.1 1.8-2.4 1.3 1.4 2.6 2.2 3.9 2.7-.3.4-.8.8-.2 1.2 1.7-.5 6.3-6.2 7.8-7.8-1.8-2.8-5-6.4-9-8-1.4-3.2-4.1-3.9-6.8-7.3-.8.4-2.9.8-3.5.3-1.3 1.7-2.6 2.5-3.9 2.7 1.4 2.9 4.5 4.4 6.4 7.4-5 4.5-10 12.4-15.8 16.3-1.2.8-2.5 3.5-4.1 4.4-.1.1-.2.1-.3.1.1 0 .2 0-.2.3-.9.9-3.3.5-3.7 2.5-.1 0-.2-.7-.3-.7-2.7 1.6-5.3 3.9-8.4 3.1-3.6-3.8-.8-10.2 2.9-12.4.3-.2.4.6.9 0 5-6.2-3.7-4.1-5.9-8.3-2.1 1.3-3.3-.6-5.7.2l-.5.5c1 1.2-1.8 3.1-.6 3.6-.5 1-1.1.7-1.6.8.8 2.5-3 5.1-2.1 7.6-1-.2-.9 1-1.1 2.2-.5 2.7.4 8.2 1.7 10.3 1.7.8 1.4 2.5 4.4 4.6.3-.3.6-.7.9-.5-.1.2-.4.5-.2.7 5.3 1.4 8.5 3.5 13.9.3.8 1 3-2.2 3.7-1.1 3.5-3.1 4.3-3.4 7.8-7.3.2.2.1.5.3.7 4.6-4.7 11.3-11.2 17.5-16.7zm62.2 69.9c-1-2.7-4.7-5-5.6-5.7-.8-.6-.4-1.9-.8-2.6 0 0-.5.5-.7.3-.6-.9-1.4-2.8-3.4-2.7-.6-1.7-3.6-2.7-4.9-5.5-1.3 1.5-1.4 2.6-3.2 2.5 1.6 1.1-1.4 2.7-2 3.1.6 1.2 1.2 1.1.3 2.1 1.6.5 1.6 1.9 3.6 3-1.3.9.1.6-.2 1.2-2.6.6-6.3 3.3-8.4 3.6.2 0 .4-.7.2-.7-1.5 1.6-3.6 1.1-5.1 2.5-1.8 1.8-2.7 3.5-4.8 5.1 1 .4-.1.9-.4 1.4 5.1 4.9 10.8 8.7 18.7 14.8 3.1-3 3.2-3 4.8-5.6-2.6-1.9-2.7-3-4.6-3.4-2.1-3.8-3.9-4.1-6.4-7.4l1.1-1.2c5.2.4 9.3.6 14.2-.4 0 1.2 2 0 1.9 1.4 1-1.1 2.4-2.7 1.6-.8 2.1-2.3 2.6-3.3 4.1-5zm-48-13.5c6.2-.6 13.6-5 20-2.1 3.9-1.6 6.8-6.7 9-8.1-1.7-2.7-3.8-4.9-7.7-7.2l1.1-1.1c-3.3-1.6-2.6-4-5.3-4.3-.3-2.7-5-4.3-6.1-5.7.1.1.4-1.7.3-1.9-.4-.7-1.9-.8-2.3-1.4-.7-1 .3-3.8-3.1-3.6-4.5 4.5-6.8 6.8-8.5 11.4 4.4 4.8 5.4 4.6 8.4 8.6-5.9 2.7-11.7 4.9-17.6 5.7-1 .8-1.3 1.5-1.4 2.3l-1.1-1.1c-2.2 3.4-5.6 7.4-7.1 11.4 1.9 2.3 5.5 2.2 5.7 5.4 1.7-1.8-.3 1.3 1.9 1.8.5-.4 1-1.2 1.5-.8-1.7 2 3.2 2.9 2.7 4 .5-.4 1-1.1 1.5-.8-.7 1.5.2 1.1 1.2 1.1-.8 2.3 5.6 3.5 5.8 6.9.4-.2.7-.7 1.1-.4-1.2 1.5 1.7 1.4 1.6 2.9.7-1.2 1.5-1.2 2.2-.1 2-5.5 10.2-6.7 8.5-12.1-3.8 2.9-7.7-5.4-10.6-5.6 1.1-1.4-1.5-.2-.5-2.6-1.1 1-2.5-1.1-2.7-2.5.6-.5 1.2-1.5 1.8-1.2-.2 0-.6 1.1-.3 1.1zm6.8 50.2c-9.1 2.9-18 6.5-26.8 10.4-.4.2.3-.5-2.1.5-17.6 7.7-35.1 15.7-52.6 23.5-.1.1-.3.1-.3.2-.1 0-.2.1-.3.2-2.1 2-1.2 3.8 1.7 3.7 2-.1 4.5-1.7 6.2-2.4 3.6-1.5 7.2-3.1 10.8-4.6 14.1-6 28.1-12.2 42.1-18.6.4-.2 2.1-1.1 2.5-1.6.5-.6 0-1.5 0-2.2 5.4-2.3 11-4.1 16.7-5.7 3.3-.9 7.6-3 10.8-.9.7.5 1.8 4.5 3.5 8.1.2.4-.6-5.8-.7-6.4-.2-7.4-6.2-5.9-11.5-4.2zm1.2 1.6c-6.7 1.8-13.3 3.8-19.7 6.4 0-.1 0-.1-.1-.2 3.1-1.3 6.2-2.5 9.3-3.7 3.4-1.3 6.8-2.5 10.3-3.6 1.1-.3 3.2-.6 5-.4-1.6.3-3.5 1.1-4.8 1.5z"/><path class="st0" d="M510.7 247.8c.5.9 1 1.8 1.5 2.6 2 4.8-3.1 7.5-3.1 11.4 0 1.9.9 3.6 1.1 5.1.2 1.8.3 4.1-.6 5.8-1.8 3.7-9 7.7-13.5 8.4-2.1.3-4.1-.5-6.4-.4-5.3.1-11.8 2.4-18.2 4.5-6.7 2.2-13.6 4.8-19.1 7.9-1.6.9-3 2.4-5 2.4-2.3-3.1 1.3-5.3 3.1-7.1 4.1-4.3 7.8-8 11.8-12.7 1.6-1.8 4.6-4.9 3.4-7-1.3-2.3-6.3-.7-8.9.6-3.5 1.6-7 4.2-10.8 6.2-2.4 1.2-8.5 5-9.8 2.5-.8-1.6 2.2-4.2 4-6 5.6-5.7 11.9-10.8 17.3-16.5 3.4-3.6 6-7.9 9.4-11.6 3.5-3.8 6.6-7.6 10.1-11.4.9-.5 1.9-1.1 2.8-1.6 1.1-.2 2.6-.7 3.7-.7 5.4.1 10.9 2.1 14.1 7.8.5.9.8 2.3 1.6 3.2 1.2 1.3 4.7 1.5 6.5 2.4 2.2 1.3 3.6 2.8 5 4.2zm-37.4 29.5c1.1-.8 3.2 1.5 3.9 1.9 4.1 1.8 7.4-1 12.3-2.1 1.3-.3 2.7.7 4.3.8 3.5.2 10.7-1.2 13.3-4.7 2.4-3.2-1.4-7.4-1-11.4.3-3.1 3.5-4.9 4-8.1.4-2.7-1.4-6.6-4.2-8.1-2.3-1.3-6.1-.3-7.9-2-2.3-2.1-2.2-4.6-3.4-6.7-2.5-4.1-8.2-6-12-4.4-4.2 1.7-6.3 4.5-8.5 7.1-1.6 1.9-3.3 3.8-4.8 5.6-3 3.8-3.4 8.5-6.7 11.9-.6 0-1.1-.3-1.5-1.2-3.6 5.6-10.5 11.1-17.2 16-2.2 1.6-4.9 3-6 5.3 7.1-.3 15.9-8.6 23.9-11.8 4.2-1.7 8 4.2 7 7.9-1.3 4.7-10.2 10.4-14.9 14.3-1.6 1.3-3.8 2.6-3.6 4.5 2.1.5 4.1-1.2 6.1-2.2 6.4-3.3 13.2-6.5 19-8.8-.7-1.1-3.7-2.6-2.1-3.8z"/><path class="st1" d="M498.4 264.2c-1.4-.6-2.8-1.3-4.2-1.9.2-.4.4-.7.6-1.1.4-.9.9-1.5.4-2.4-.6-1-2.8-1.6-3.8-2-.5-.2-1.2 0-1.6.4-.3.1-.6.3-.7.5-.3.4-.5.7-.8 1.1-.9-.6-1.8-1.3-2.7-2-.6-.4-1.8-.1-2.3.3l-.3.3c-.4.1-.8.3-.9.5-.8 1.3-1.6 2.4-2.5 3.6-.2.2-.1.5.2.6 1.6.7 3.1 1.6 4.6 2.4-.9 1.3-1.9 2.7-2.8 4-.4.5.3 1 .8 1 1.7 0 3.1.5 4.5 1.5.6.4 1.8.1 2.2-.4.6-.7 1.1-1.5 1.7-2.3 1 .6 2 1.3 3 1.9.6.4 2.1.2 2.5-.5 1-1.6 1.9-3.3 2.6-5.1-.1-.2-.3-.4-.5-.4zm58.1 13.1c-4-3.2-10.1-2.1-14.5-.2-5 2.1-9.6 7.2-10.4 12.5l-1.2.3c-3.2 1.1-6.3 2.8-9.3 4.2-.1.1-.2.2-.3.2s-.2.1-.3.1c-.2-.1-.3-.2-.5-.2v-.9c.1-.3.1-.5.1-.8-.1-.6-.3-1.1-.6-1.6-.2-.1-.4-.3-.6-.4-19.5 2.2-38.8 5.5-57.8 10.1-5.2 1.3-10.3 2.6-15.4 4-2 .6-4.4 1.1-6.1 2.4-2.5 2-3.4 5 .2 6.4 2.6 1 5.9 0 8.6-.3 5.2-.6 10.4-1.2 15.6-1.9 9.9-1.4 19.9-3 29.7-4.9 4.7-.9 9.4-1.9 14.1-2.9 3.1-.7 9.4-.9 12-3.2 1.2-1.1 1.4-2 1.2-2.9l10.6-3.7c0 3.6 1.7 7.1 5.6 9.3 9.4 5.3 19.3-3.8 22.3-12.5 1.3-4.4 1-9.9-3-13.1zm-1.1 11.7c-.7 6.4-7.1 13.2-13.7 10.4-1.2-.5-2.2-1.2-3-2.1.1-.1.2-.3.3-.4-1.7-1.7-2.8-4.2-2.8-6.5-.1-3.8 2.3-6.8 5.3-8.8 0-.1 0-.2-.1-.3.5-.3 1-.5 1.5-.7 6.4-2.2 13.3.6 12.5 8.4z"/></g></svg>