<svg version="1.1" id="Слой_1" xmlns="http://www.w3.org/2000/svg" x="0" y="0" viewBox="0 0 566.9 467.7" xml:space="preserve"><style>.st0{fill-rule:evenodd;clip-rule:evenodd}.st0,.st1{fill:#ee7f00}</style><g id="Layer_1"><path class="st0" d="M420.9 84.6c-4.3-.7-9.1-2-12.9 0-3.9 2.1-5.8 7.1-9.5 9.7-1.3.9-3.1 1.4-4.5 2.1-1.3.7-2.5 2.1-4.2 1.1.8-4.2 5.4-6.8 9.2-9.5 3.8-2.7 8-5.5 12.6-6.1 3-.3 8.4-.5 9.3 2.7zm25 5.5c1.2 1.2 2 4.9 1.1 6.6-2.9.3.2-5.3-2.9-4.7-1.1.5 0 3.2-1.8 2.9-.7-2.6.5-5.1 3.6-4.8zM414 107.2c-.8 1.6-3.8 1-5 2.1-1-2.2 3.4-2.5 5-2.1zm-50.5 15c-.3 1.8-2.8 1.4-3.9 2.4 0-1.9 2.8-2.4 3.9-2.4zm42.6 6.3c4 2.4 9.8 3 15 4.2-5 1.9-11.7-.9-15-3.2v-1zm31.6.6c.8.5 1.8 3.4 0 3.4-.3-1.2-.9-2.5 0-3.4zm23.2 9.7c.2 0 .3.3.5.3 3.1 6.6 8.6 11.8 11.1 19.7.7 2.3 2.2 5.4.8 7.9-1.7-2.4-1.5-5.3-2.4-7.6-2.5-7.1-8.2-12-11.1-19 .5-.3.3-1.2 1.1-1.3zm-86.1 1c-1.5 4.9-3.6 9.2-7.9 11.3 2.6-3.5 5-7.3 7.1-11.3h.8zm28.7 27.9c.3.1.7.5.3.5-1.6 1.4-4.2 1.9-5.8 3.4.7-2.4 3.1-3.1 5.5-3.9zm-16.6 206.7c1.9-.4 3.9-.5 5.5 0 7.1 2.1 13.9 6.2 20.5 8.4-5.6 9.7-18.9-2.5-26.8-3.9-1.9 2.5-10.3 9.3-13.2 4.5-1.3-2.2.3-4.5-1.3-6.3 1.8-4 12.4-8.8 15.3-2.7zm-28.7 80.5c4-1.7 5.3 3.6 7.6 4.2 2.3.7 5.8-.5 8.4-.8 2.7-.3 5.3-.7 8.2-.3-2.1 5.4-10.8 4.1-17.1 5.3-2 4.9-13.2 10.1-16.8 3.2 0-3.9-.3-7.7 1.6-10.3 1.6-2.2 5.9-4.6 8.7-2.4 0 .6-.1 1-.6 1.1zm-2.4 6.8c-.1 2 1.1 2.8 2.4 3.4.4-2.1-.9-2.4-1.1-3.9-.7-.2-.4.7-1.3.5zm104.8 9.8c1.8.9.9 3.9 1.1 5.5.7 7 4 14.2 5.8 21.3 5.4 21.7 11.6 42.5 14.2 66.6h-7.6c-2.9-22.9-8.7-42.3-13.9-63.4-2.1-8.4-5.1-15.3-5.8-25-3.4 1.1-6 2.8-9.7 2.9-1.4 0-2.7-.5-4.2-.5-3.9 0-8.6 1.3-12.9 2.4-13.3 3.3-27.7 7.7-43.7 8.2-7.4 24.1.1 54.1 6.8 74-2.3.6-5.7.1-8.4.3-4.5-15.5-10-35.1-8.7-55.8.4-6.7 1.7-13.8 4.5-18.7.9-.6-1.4-.8-.3-1.6 2-3.1 5-3.2 8.9-2.9 11.3 1 22.2-2.1 32.4-4.5 10.1-2.4 19.9-5.3 29.5-7.4 1 .3-.6 1.6.3 1.8 5.2.3 6.9-3 11.7-3.2zM412.7 90.1c-.2.7-.8 1.1-1.1 1.8 1.6.8 1.7-1.4 3.2-1.6-.1.8-.5 1.5-.8 2.1 1.7 1 2.2-2.4 3.7-1.6 0 1-1.1 1-1.3 1.8 1.5 1.7 2.4-1.5 3.7-.8.4 1.6-1.5 1.4-.8 2.6-1.8-.4-1.6 1.2-2.9 1.3 2.3 1.4 3.6-2.4 6.1-2.6-.4 1.8-2.2 2.2-3.4 3.2 1.6.6 2.9-1.3 4.7-1.3-.2 1.9-2.6 1.6-3.7 2.6-4.7 4.3-10.8 7.3-18.7 8.4.3-.7.6-1.5 1.8-1.3-1.1-1.5-2.6-3.2-1.8-5.8-1.3.6-3 1.8-4.2 3.4-.9 1.2-1 3.8-3.2 3.4 2.5-7.4 6.4-13.3 15.8-13.7 1.2-.2 1.5-2.6 2.9-1.9zm-13.2 8.4c.8-.7 1.6-1.5 2.6-2.1 2.1-1.1 4.9-.9 6.3-2.6-4.1.2-7.5 2.6-8.9 4.7zm9.8-3.4c1.1.2 1.5-.5 1.8-1.1-1-.1-1.8.1-1.8 1.1zm4.5.5c1.3.1 2-.3 2.4-1.1-1.4-.1-2.1.3-2.4 1.1zm-2.9 6.3c2.4-1 4.4-2.2 6.6-3.4-2-.6-4.3-1-6.8-1.1.3 1.8.5 3 .2 4.5zm-5.8-2.1c.9.1 1.4-.4 1.3-1.3-.3-.4-1.1-.3-1.8-.3-.2.9.7.7.5 1.6z"/><path class="st0" d="M478.5 198.3c9.2 3.2 19.7 5 28.4 8.7 7.6-4 7.7 6.7 12.4 8.9.4.8.1.9 0 1.8 9 12.6 19.8 24.9 20.8 45.3.4 7.9.4 15.7 0 24-.4 9.7-4 18-6.8 26.1-1.4 3.8-2.2 7.6-4.2 10.3-1.3 8.5-7.1 14.2-10.5 20.5-1.8 3.4-3.6 6.4-6.1 9.5-2.3 2.8-4.2 5.9-6.6 8.7-3.6 4.3-8.2 7.9-12.4 11.6-2 1.8-4.2 3.8-6.6 5.5-2.3 1.6-5.3 2.8-7.1 4.7-2.2 2.4-3.9 6.6-6.6 10.3-2.4 3.3-5.3 6.7-6.8 9.7-1.1 2.1-1.7 4.5-1.6 6.8-.5.8-1.4 1.2-1.8 2.1-.3 3.7-.6 9.4.5 12.9.9 2.7 3.3 5.3 5 8.2 4.7 8 12.1 14.4 16.3 22.6 3.2 6.4 4.1 13.3 6.8 19.2 2.7 5.9 6.4 11 9.5 16.3 6.6 11.5 9.9 24.7 15 36.8 5.2 12.2 11 23.6 17.1 34.7-2.5.6-6.2.1-9.2.3-5.9-11-11.3-22.3-16.3-34.2-5-11.7-8-24.4-14.7-35.5-3.3-5.4-6.8-10.3-9.2-16.1-2.4-5.9-3.2-12.5-6.6-18.7-4.2-7.8-11.3-14-16.1-21.8-1.6-2.6-3.8-5.1-4.7-7.6-2.2-5.6-1.2-13.5.8-17.6-.6-2.9 1.2-3.9 2.1-5.8 1-2.1 1.5-4.6 2.6-6.1.9-1.2 2.4-1.6 3.4-2.6 2.3-2.3 3.3-5.3 5.3-7.9-2.1.2-4.1 1.9-6.6 2.1-9.4.6-15.3-5.9-19.7-10.8-12.1-6-23.9-12.6-35.8-18.7-5.9-3.1-12.8-5.2-17.9-9.2-5.3-4.2-10.2-8.2-16.6-10.5-1 4.2.4 9.5 0 15.3-.5 1.3 1.6 1.2 1.1 1.6-6.1 16.2-11.4 32.2-16.3 48.4-4.8 15.9-11.4 31.2-17.6 46.9-3.1 7.7-5.1 16.2-7.9 24.5-5.4 16-10.5 32.7-13.4 51.3-1.8 11.2-3.6 21.6-3.9 34.2h-4.2c-.2-5.4.3-10.2.5-15.3-.7 1.9-.9 4.3-1.3 6.6.3-19.2 4-37.2 8.7-54 2.3-8.1 5.4-16 7.9-24 2.5-8.2 4.7-16.3 7.9-24 6.3-14.9 12.3-30.1 17.1-46.6 3.6-12.3 7.7-24.1 12.1-35.8 1.4-3.9 3.7-8 4.2-11.6 1.1-7.3-2.3-14 0-20-11.4-8.2-23.6-15.5-40-18.7.1-2.2 1.6-3.2 2.4-4.7-3.7-5.3-10.9-7.1-16.6-10.5-3 4.3-4.3 8.4-3.7 15.5.5 6.6 4.8 15.6 8.2 19.7 1.1 1.4 2.5 1.9 4.2 3.4 1.2 1.1 2.2 2.8 3.7 4.2 4.5 4.4 10.2 8.4 12.6 13.2 3.6 7-1.2 15.1-3.9 20.5-2 3.9-4.3 7.6-6.1 11.1-11.9 22.9-23.2 45.5-32.9 69.5 5.4 1.6 13.7.3 18.4 2.6-2.2 16.6-5.3 35.5-9.2 52.1-1.9 8.2-3.7 17.3-5 26.1s-4.9 15.5-11.3 19.5h-3.9c-.4-.8.8-1.3 1.1-1.6 4.6-4.4 6.3-9.6 7.4-18.2 2.1-17.2 7.4-31.3 10-48.4 1.3-8.6 1.8-17.3 3.9-25.3-3.2-1.6-8.8-.8-12.9-1.6-10.4 28.4-17.8 59.8-21.3 95h-7.9c.6-15.9 5.1-30.6 7.9-46.3 2-10.9 3.8-22.9 5.8-34.7.9-5.7 1.5-11.3 5-14.2-.8-.1-1.9.2-2.4-.3 1.2-3 4.6-3.8 8.2-4.5 12.2-29.8 27.2-56.9 41.3-84.8-4.6 1.3-11.2 1.3-16.1 0-4.7-1.3-6.6-2-10.8-3.9-5.8-2.7-14.3-5-19-9.2-1.5-1.3-2.7-3.3-4.2-5s-3.7-2.8-4.7-4.2c-2.2-2.8-1.9-8.8-2.1-12.9-3.5-1-6.7-.4-10.3-1.8-2.1-.9-3.8-3-6.1-3.7-1.7-.6-3.8-.5-5.5-1.1-2.5-.9-4.8-2.6-7.1-3.2-3.3-.7-6.7-.1-9.7-.5-1.7-.2-3.5-1.1-5.3-1.3-3.6-.4-4.6-.2-7.1-1.8-1.1-.7-2.6-1.5-3.2-2.1-2.4-2.5-2-5.8-2.9-9.2-1-3.7-4.9-5.6-7.6-8.2-4.9.1-10.7 0-15.3-.5-.8-.1-1.8-.6-2.6-.5-2.1.2-6.3 3.3-9.2 4.7-15.8 7.9-27.6 18.3-42.6 26.6-2.9 1.6-6.2 3-9.5 4.5-3.1 1.4-6.1 3.7-8.9 4.7-3.2 1.2-5.3.4-8.4-.3-2.2-.5-4.8-.2-5.8-2.6-1-10.1 4.2-14.1 11.3-16.1 1.5-2.9 4.5-3 7.1-4.5 3.1-1.7 4.7-7.6 10.3-6.3 9.7-5.7 19.5-11.4 29.5-16.8-.3-1.5-1-2.6-1.6-3.9-1.2.4-2.5.7-4.2.5-.5-1.7.7-2.6-.5-3.9 4.8-3.2 11-7.7 18.4-6.6-.5 3.7-3.9 4.5-6.3 6.3.2 1.5 1.1 2.3 1.3 3.7 5.8-2.6 11.1-5.5 16.3-8.7-.7-1.5-1.3-3.1-1.3-5.3-1.6.3-3.2 1.8-5 1.1 2.1-4.2 7.1-5.4 12.4-6.3.8.9-.4 1.6-.3 2.6 1.6-.1 2.8-.7 4.2-1.1-.3-1.4-2.6-2.3-2.6-4.2 0-3.3 6-5.6 9.7-6.1-.1-1.6-3.1-2.2-3.2-4.2-.1-2.8 5.5-5 9.5-5.5 8.2-1.1 16.4 2.8 21.3 3.9.2-1.3-1.6-2.9-1.3-5.3-1.5 0-3.2.2-3.7-.8.2-4.1 6.1-6.9 10.8-5.8.7 1.5 0 3.1-.8 3.9 1.5.7 1.5 4.7 3.4 3.4.5-.8-2.1-3.8-.8-6.3 1.9-1.9 3.2-4.5 6.1-5.5v-2.9c2.9-3.2 5.7-6.5 10.8-7.4-2.1-10.3 9.5-12.7 13.9-6.8 1.6-5.6 7.2-11.4 13.7-6.8 1 .7 2.4 1.8 2.6 2.1 1.5 1.9 1 3.5 2.9 3.7 1.8.1 2.4-1.5 3.7-2.4 1.7-1.1 4.1-1.7 5.3-3.4-1.7-1.9-4.6-2.6-6.1-4.7-1.3.5-3.5 1.2-5 .5-.9-.9 1.5-1.8-.3-2.1 2.9-3.9 8.6-5 13.7-6.6.7 2.1-2.4 2.7-3.4 3.9 3.1-.2 4.7 3.2 7.4 4.2 4.1-2.7 8.4-5.3 12.6-7.9.2-1.2-.4-1.6-.3-2.6-1.8.4-6.4 1.5-8.7 1.3-.1-2.1 2.4-2.8 3.9-3.7 4.7-2.5 9.9-6.9 15.8-7.4.2 1.9-2.6 3-4.2 3.9.4 1.4.4 3.3.8 4.7 5.8-3.7 11.3-7.6 17.9-10.5-.4-.4-.2-1.5-.3-2.4-1.1-.3-3.8 1.8-5 0-.2-2.8 3.2-4.1 5.5-5.3 2.4-1.3 5.7-2.7 8.4-2.4-.1 3-2.7 3.4-4.2 5-.1.8.5 1.1.3 2.1 6.6-3.1 12.8-7.2 19.7-11.1 3.3-1.8 5.2-4.2 9.2-5.3-1-1.4-2.7-1.8-3.9-2.6-11.6-7.8-18.7-19.8-26.1-31.8-1.4 1.8.9 3.1 1.1 4.7.2 1.8-.8 3-1.8 4.5-3.2.9-5.6-.9-5.5-3.4.1-3.5 5.3-3.2 5-7.6-.2-3.7-3.8-5.5-4.2-10.3-1.6 2.2-.4 7.4-2.4 9.2-2.4-4.4 2-9.7 1.1-14.5-1.8 1.1-1.1 4.5-3.7 4.7-.7-3 2.6-4.2 2.1-7.9-.8-.2-1.4 2.1-3.4 1.6.2-2.3 4.7-3.8 3.2-7.9-.4 3.1-1.7 6.7-5 6.1.4-2 2.3-2.4 2.6-4.2 1.4-7.3-5.1-12.7-7.1-17.6-3.1-7.6-5.8-16.2-5.8-25.5 0-10 1.8-20 6.3-28.2 2-3.7 6.4-6.9 9.7-10.5 3.3-3.6 6-8.1 10.3-10 1-.4 2.2-.4 3.4-.8 4.7-1.6 9.1-4.3 14.7-5.5 8.9-1.9 22.3-4.9 29.5.5 9.1-4 20 2.5 25 8.4 1.3 1.5 2.7 3.1 3.9 4.5 4.3 4.8 7.2 11.6 10 18.2 3 7 5.8 14.4 6.3 21.6 3.6 1 6.4-1.1 9.7-1.3-1.4 2.5-5.5 2.2-8.7 2.9-1-.2-.3 1.3-1.1 1.3-1.1.2.1-2-1.3-1.6-1.3-.2-1 1.1-2.1 1.1 3.4 3 8.9 2.9 13.9 2.6-1.3 1.8-3.7 1.3-6.1 1.6 1 .4 2.6 2.4 2.6 4.7.6 1.3 4 1.1 3.4 2.6-.3 2-2.2.4-3.2 0 .4 4-1.1 7.6-1.3 11.6-.3 5.7 1.7 11.1-.3 16.1.2.5 1 .4 1.1 1.1 1.8.2 4.7-1.7 6.8-.5 1 2.3.1 5.6-1.1 7.4-3.4 2-7.9-.5-6.3-5-.7 0-.8-.4-1.1-.8-1.4-.5-2.3 2.3-4.5 1.1-.8 2.6 1.7 3.4 3.2 4.5 7.2 5.2 14.9 10.5 20.3 17.9 1.9 2.6 4.8 6.1 4.2 10-2-1.5-2.7-4.3-4.2-6.6-4.2-6.3-9.9-11.2-16.3-15.8-.2 0-.3-.3-.5-.3 7.8 8.8 12.9 19.8 17.4 31.8 1.6 4.3 3.4 8 3.9 12.9.5 4.7.5 9.6 2.1 14.5 0 1 .8 1.2 1.3 1.6-.6 2.7 1.5 6 2.9 7.9zm4.7 179.5c0 .4-1 1.1-.3 1.3 8.6-6.6 16.2-14.2 22.9-22.9 2-2.6 4-5.1 5.5-7.9 3.2-5.7 7.6-11 10.3-16.8 1.6-3.4 1.9-7.9 2.9-12.1.9-4 2.3-8 3.4-11.8 5.7-19.4 7.9-46.2-1.3-64-4.4-8.4-10.5-16.2-15.5-23.7-1.5-2.3-2.2-4.6-3.9-4.5-.3-2.4-1.8-3.5-3.4-4.5-5.1-2.2-11.2-3.2-17.1-5-2.7-.8-5.4-2.5-7.9-1.6-.4 2.4.4 5.8.8 9.5.4 3.4 1 7.2 2.1 9.7-1.5 3.8-5.1 5.5-8.9 7.4-9 4.5-19.5 7.9-26.3 13.4 4.8 4 9.3 8.4 14.7 11.8-1.2 2-2.8 3-4.7 3.7-7.4 2.7-14.8 4.1-21.6 6.3-7 2.3-13 4.8-19 8.9-11.1 7.8-19.8 16.8-28.7 27.4 5.3.7 10 4 14.7 5.5 3.8 1.2 8 1.5 12.1 2.9 8.1 2.8 14.3 4.9 22.1 7.9 3.5 1.3 8 4.3 10.8 4.5 4.7.3 10.1-3.6 15.8-2.4 2.7-17.8 6.8-38.1 13.2-53.7 2.6-6.4 5.3-15 12.9-15.8-11.9 18.2-16.3 43.9-20.5 69.7 5.5.8 12.6 0 17.6 1.3-1.1 5.4-11 1.7-16.6 2.6-2.2.4-3.5 2.8-5.8 2.1-1.3-.4-1.1-1.9-1.8-2.4-3.4-.5-8.3-.5-11.1.5 8.4 4.7 18.6 7.7 26.8 12.6-3.7 6.2-8.9 1.2-13.9-1.1-3.5-1.6-6.6-2.5-9.2-3.7-6.3-2.9-11.9-6-17.6-8.4-9.1-3.9-18.6-7.2-28.2-10.5-3.5-1.2-7-1.4-10.8-2.4-2.4-.6-4.5-2.4-7.1-3.4-3.3-1.3-7.1-2.1-10.8-3.4-3.9-1.4-8-1.6-11.3-2.9-2.2-.9-4-2.6-6.1-3.4-4.8-1.9-9.7-3.4-14.5-4.5-2.9 4.6-3.6 10.5-6.1 15.3-1.5 3-4.4 4.9-5.5 7.9 1-.3 1.7-.2 2.6 0 2.6.6 5.6 1.9 7.9 2.9 4.1 1.9 8.1 5 12.6 7.4 8.7 4.6 17.2 10 25.8 14.5 4.4 2.3 8.1 5.2 12.1 8.2s8.6 4.6 13.2 6.8c11.3 5.6 22.2 11.5 32.9 17.4 2.3 1.3 5 2.1 6.8 3.4 3 2.1 4.8 6 7.9 7.9 5.7 3.5 14.8 3 16.6-3.2 3.6-.8 6.3-3.9 8.7-5 0 .3-.1.3-.2.3zM399.5 33c3.5-.6 6.9-2.2 9.5-3.4.6-1 1.1-2.2 2.1-2.9 1.8.5 2.8-1.1 3.9-.3.4.1.7-.3 0-.3-2-1.7-5.3-2.1-7.9-3.2-1 2.1-2.9 1.9-5.5 2.1-1.7 1.9-1.2 6.2-4.2 6.8-1.5-.6-.8-3.4-2.4-3.9 0 1.7 2.1 4.5.3 5.5-1-5.4-3.7-11.8-10.3-9.2 2 .8 4.2 2.6 6.1 4.5 1.4 1.4 4.7 4 2.4 6.1-2.4-5.9-8.6-11.9-16.1-9.5 5.6 1 11 4.9 10.3 10.5-1.1-.7-.9-2.6-1.8-3.4-.2 1.1-.8 1.8-1.8 2.1-1.2-.4-2.4-2.2-3.4-1.8.8 1 3.1 3.1 1.3 4.2-1.7-3.4-4.4-7.1-9.7-5.3 0 .9-.3 2.1-.8 3.2 5.1 0 11.6 0 10.5 5.3 1.5 1.7 1.9-.2 3.7.3-.7 2.6-2.3 4.3-3.7 6.3 2.5-1.5 5-3.1 6.8-5.3.1-1.3-.7-2 .5-2.4.9.9.5 1.1 1.6.3.1 1.3-.9 1.6-.5 3.2-4.6 6.9-14.9 11.2-24 14.5-8.6 3.1-18.1 7.5-24 13.4-3.5 3.5-8.3 12.5-7.9 19 .1 1.1.6 2.1.8 3.2.9 6.5 2.4 12.8 5 18.4 2.4-8.8 11.9-8.9 19.2-9.2 12-.5 22 9.8 21.3 23.2-.2 3.6-2.5 9.3-1.8 11.6.8 2.6 3.8 2.1 5 .5-.9-.4-1.7-3-.3-3.4.4 6.2 10.4 5.7 11.3.3.2-1.1-.6-3.2.8-3.2.8.5-.2 2.7.5 3.2 1.6-1 3.3-.9 4.2-2.1 3.2-4.6-2.9-6.8-4.5-8.9 3-.4 6.8 3.1 6.6 6.6-.2 3.8-3.6 4.8-7.1 5.8-1.2 3.9-7.1 5.7-11.1 3.2-1.1.6-2.3 1-3.4 1.6-7.3-1.2-1.7-10-1.8-16.1-.1-3.5-2.9-8.5-4.2-11.1-1.2-2.4-3.9-7-7.4-7.4-.6-.1-1.5.5-2.1.5-4.4.5-9.7-1.1-13.9-1.3-5.7-.3-8.8 3.7-11.3 7.4 1.3 5.6 1.9 10.7 2.9 15.8 1.7 8.6 7 16 11.6 21.6 1.4 1.7 4.7 3.7 3.4 6.3-.9-.2-1.8-1.7-2.4-1.3 6.5 10 14.6 18.4 25.5 24 2.9-1.3 6.8-3.4 10.5-1.8 2.7 1.1 3 5.1 4.2 7.6 9.7 1.4 20.1-2.4 25.8-6.8 2.7-2.1 3.9-5.4 6.3-8.4 4.8-6.1 10.2-12.8 12.9-20.3 2.9-8 2.5-19 1.8-28.4-.2-3.5-1.6-7.8-1.8-11.3-.1-1.8.3-3.4.3-5.3-.1-2.7-2.6-5.8 0-7.6 2 4.2 1.5 12.8 2.4 17.9.3 1.6.1 4.4 2.4 3.9.1-1.3-2-1.6-1.1-2.9 1.1-.9 1.4.8 2.6.5 2.3-4.4-.3-10.1.3-15.8.4-4 2.1-7.3 1.1-11.1-1.5-.7-3.2-1.2-5-1.6-1.8.9-2 3.4-4.2 3.9-1.3-7-7.7-9.5-10.8-14.5-.3-.5-.2-1.3-.5-1.8-1.1-1.9-3.7-4.1-5.5-6.3-5-6.1-10.6-13.2-18.7-15 .3-1.2-.9-.8-1.1-1.6-1.9-.6-3.8-1.7-6.1-2.4-2-.6-5.4-.4-5.8-2.9 8.6-.7 15.1 4.4 20.5 6.8-4.9-3.9-10.2-7.4-17.9-8.4 1.1-1.6 3.8-.9 5.5-.5 2.8.7 6 2.9 8.4 3.4.6.5-.2.9.3 1.3 5.6 2.7 9 8.8 13.2 11.8-1-.7-1.7-1.8-1.6-3.7-5.8-6.7-13.6-12.1-23.4-14.7-1.6-.4-5.6-.6-3.9-3.7 1.6-.2 2.1 1.9 3.2 2.4 1.3.5 2.7 0 3.9.3 1.2.2 5.2 1.7 6.3 2.4.1.1.1.9.3 1.1 2.3 2 5.6 2.7 7.9 4.5 2.6 2 3.7 4.6 6.3 6.8 1.1 0 .9-1.4 2.4-1.1.2 3.1 2.6 4 4.2 5.8-.5-1.1-.9-1.9-.5-3.4-3.2-2.6-6-5.6-9.2-8.2-1-.2-1.5 1-2.4.3-.7-.8.2-1.8.3-2.6-1-.2-1.9-.6-2.6-1.1-.3-1 .9-.5 1.1-1.1-1.5-2.1-3.8-2.2-5.3-3.9-3.6-1.2-7.2-2.3-10.5-3.7.5-2.4 3.7-2.3 5.8-2.9 3.3-.9 6.7-2.1 10.5-2.1-5.2-4.9-11.1 3.7-18.4 2.1.3-2.2 2.5-1.3 3.8-1.5zm-6.3-8.2c.3-.9-1-1.6-1.3-1.1.6.2.7.9 1.3 1.1zM364 29c-1.2-.3-4.7-.1-3.9 1.6 2.4-.5 5.9-.7 8.9-1.3 3-.6 6.3-1.1 7.9-2.9-5-1.4-9.7.7-12.9 2.6zm52.7-.5c1.3.4 2.4 1.1 3.7 1.6-.7-1.5-2.1-2.2-3.4-3.2.1.8-.4 1-.3 1.6zm3.1 4.7c.8-.1 1 .4 1.6.5.2-.5.5-.9 1.3-.8-.4-1.2-1.2-2-2.1-2.6.2 1.5-.7 1.8-.8 2.9zm-60.5-.2c.4-.8 1.8-.5 2.1-1.3-.8.2-3 .3-2.1 1.3zm62.4 6.6c-3.8-.1-4.9-5.3-8.2-6.1-4.8-1.2-10.4 2.8-13.9 3.2 1.7.4 3.3.9 4.7 1.6 1.8-.8 4.8-.2 6.8.3 7.6-1.9 11.5 4.2 16.3 6.8-.7-2.6-2.1-4.5-3.4-6.6-.9.1-1 1-2.3.8zm-50.8-3.7c-7.4-.3-15.9 2-20 5 7.8-3.6 21.8-4.3 30.5-1.8-1.9-3.2-6.3-3-10.5-3.2zm-25.8 2.9c.9.1 1.9-1 1.6-1.3-.5.5-1.2.8-1.6 1.3zm24.7 5c2.6-.5 5.7-.1 8.9-1.1.8.5-.3 2.1.3 2.4.9-1.3 2.6-1.8 3.2-3.4-9.1-5.4-25.1-2.6-33.7 1.3-1.4 2.7-5.3 4.3-5.5 7.4 5.5-6.2 17.4-13.5 27.9-10.3.2.3.3.7.3 1.3.5.2 1.5-.3 1.6.3.1 1.6-3.8.7-3 2.1zm40-4.2c-.2-.2-1.5-.6-1.6 0 .8-.1 1.3 1 1.6 0zm5 6c1.3.5 2.1-.1 3.7 0 .1-.2 0-.5.3-.5-1.1-2.3-3.8-3-6.6-3.7.6 1.8 3.1 2.1 2.6 4.2zm22.4 11.1c-2.1-5.5-4.3-10.8-7.4-15.3 1.9 5.7 3.9 11.2 7.4 15.3zM359 51.1c-.9.2-.8 1.3-1.8 1.3-2-.1-3.1.7-5 .8-1 3.4-3.8 6.5-5.3 8.7 6.7-4.2 15.9-4.5 22.6-8.4-7.1 1-13.8 2.3-19.2 5 5.2-6.8 20.5-3.6 26.6-9.5.7-.1 1.4-.4 2.1-.5 1.8-2.1 3.9-3.8 5-6.6.3 0 .2-.3-.3-.3-4.9 6.6-13.7 9.1-24.7 9.5zM339 44c.8-.2 1.3-.8 1.8-1.3-.3 0-.2-.5-.5-.5-.4.7-.9 1.2-1.3 1.8zm23.4-.8c1 .2.2 1.3.3 2.1 2.1-.5 4.5-.6 6.1-1.6-1.4-.9-4.6-1.4-6.4-.5zm-14.7 10.3c6.3-4.7 20.3-2.8 27.9-6.8-2.5.2-4.3 1.1-7.1 1.1-.6-.5-.6-1.6-.3-2.4-7.2 2.1-18.2 1.9-20.5 8.1zm81.1.3c-1.7-1.8-3.8-4.6-6.1-5 2.1 1.4 4 4.4 6.1 5zm-94.5 0c-.3 3.1-2.6 4.2-3.2 7.1 2-2.3 4-6 5.3-8.2-.6.5-1 1.1-2.1 1.1zm1.5 5c.6-1.7 2.5-3.5 2.4-5-.6 1.7-2.8 3.1-2.4 5zm-6.8 1.8c.5-2.1 2.4-4.1 1.8-6.3-.2 2.3-2 4.4-1.8 6.3zm87.9-2.1c-.9-.7-2.3-3.4-3.2-2.4 1.2.5 3.1 2.7 3.2 2.4zM335.8 68c1.9-3.3 6-5.9 7.6-8.7-2.3 2.9-7.5 4.4-7.6 8.7zm.8-6.1c.3-1 1.7-1 1.6-2.4-.8.4-1.8 1.9-1.6 2.4zm18.7-2.3c-6.8 1.6-10.6 4.4-14.5 8.9-3.4 4-8 10.2-7.4 16.6.2-4.2 2.9-5.9 2.9-10.3 4.9-6.7 11.6-11.5 19.5-15.3-.1.1-.3.1-.5.1zm77.4 12.9c-1.7-2.7-5.7-5.9-7.1-7.1 2.2 2.5 4.8 4.7 7.1 7.1zm2.1 3.9c-2.8-2.5-5.8-6.3-8.7-7.9 2.7 2.9 5.6 5.5 8.7 7.9zm-103.2-4.5c-.1-.8.6-.8.5-1.6-.8-.3-1 1.4-.5 1.6zm111.1 3.5c0-1.7-.2-3.1-.8-4.2.1 1.5-.2 3.5.8 4.2zm-3.2 2.1c.1-1.3-1.9-1.8-2.6-1.3 1 .3 1.5 1.1 2.6 1.3zM333.7 79c-.4-1.1 1.1-1.7.3-2.4-.3.5-1 1.9-.3 2.4zm107.7 1.1c-1.9-1-3.9-1.9-5.5-3.2 1 1.7 3.9 3 5.5 3.2zm1.8 4.5c1.4-.6 2.4-1.7 3.7-2.4-4.2.2-7.3-.8-9.7-2.4.6 3 3.7 3.5 6 4.8zm2.9.8c1 .1 1.7.5 2.6.8.3-1.8-2-1.9-2.6-.8zm-5.8 1.8c.7-.1.7-.8 1.3-1.1-.6-.2-.8-.7-1.6-.5-.1.8.5.8.3 1.6zm-103.9 17.6c-1.3-2.9-1.9-6.5-2.9-9.7.5 3.5.4 9 2.9 9.7zm2.6 9.8c-.4-2.5-1-4.8-2.1-6.6-.3 2.3 1.5 4.4 2.1 6.6zm112.1 6.8c.9 1.5 2.5 2.7 4.7 2.1.3-1.1.9-3 .3-4.2-2.1-.8-4.6.3-5 2.1zm1.9 18.2c-2-2.6-4-5.1-7.1-6.6.1 1.6.3 3.2 1.3 3.9 2.8-1.1 4.2 2.6 5.8 2.7zm-.3 8.7c5.9 6.8 8.5 16 11.6 25.5 0 .3.1.7.3.3-1.3-15.1-8-24.8-16.3-32.9-.2 3.1 2.6 5 4.4 7.1zm-4.7-1.1c-.6-.4-.6-1.3-1.3-1.6-.2.8.5.8.3 1.6.5-.3.9.7 1 0zm-19 23.4c-1.8 2.3-3.1 5.1-4.7 6.8-5.5 5.6-17.2 9.2-27.9 8.4.5 5.9-3.5 7.2-7.4 8.7.6 5.9.7 13.8 1.1 20.8-1.2 1.7-2.9 2.9-5.5 3.2-8.1 21.7-7.9 54.3-10 80.3 2.3.7 4.8 1.2 7.4 1.6.9-6.5 5.7-10.2 8.4-15.3 1.1-2 1.4-4.4 2.4-6.3 6.4-13.4 15.8-26 25.3-36.6 8-8.9 18.1-17.2 26.3-26.6 2.3-2.7 6.6-8 6.8-10.8.1-1.2-.4-2.7-.5-3.9-.3-5.4 1.6-11.1 1.3-16.1-.2-3.6-2-6.5-2.9-9.7-2.4-8.4-4.3-17.1-6.3-25.8 0-.2 0-.3-.3-.3-2.4 8.3-8.5 15.3-13.5 21.6zm-84.2-18.1c.9.3 2.7.5 3.2-.3.4-2.3-1.8-2.1-3.2-2.6-.8.8-.5 2.1 0 2.9zm106.6 5.2c-1-2.7-1.7-5.6-3.7-7.4.2 3.6 2.1 5.4 3.7 7.4zm6.3 14.3c1.1 3.9 2.6 9.7 3.4 13.9.3 1.4-.5 3.9 2.1 3.4 3.1-12.3-4.4-26.7-8.9-35 1.6 5.2 4.8 11.3 3.4 17.7zm10-4.8c-.1.8-1 .9-1.1 1.8 1.6 7.2-1.9 15.4.3 20.8.3.3.9.3 1.6.3-.2-3.3-.5-8.4 2.1-9.7-.3-7.1-1.6-13.1-4.7-17.4.5 1.5 1.2 2.8 1.8 4.2zm-10 23.2c1.7-.5 1.6-3.1 1.6-4.5-.2-3.8-2.2-8.6-2.6-12.1-3.1-2-3-7.2-5.3-10 2.3 8.7 4.9 17 6.3 26.6zM319 227.2c15.1-10.6 32.9-17.4 49-27.4 3.7-2.3 7.3-4.4 12.1-6.8 1.5-.7 3.6-1.7 6.3-3.2 1.9-1 5.8-2.7 6.1-3.7.3-1.3-3.9-8.2-5.8-7.4-10.8 4.9-22.9 12.6-32.9 18.4 1.7-.1 3 .4 3.2 1.8-1.1 1.9-3.8 2.1-3.9 5-2.2 1.4-6.8 4.4-9.2 1.6-.2-1.2.3-1.8.3-2.9-4.3 1.1-8.5 4.5-12.1 7.1 3.8 5.2-10.3 13.2-11.6 6.3-3 1.3-5.7 2.9-7.9 5 1.3 0 3.1 0 3.4 1.3.8 3.1-10.7 10.6-15.5 7.1-2.5 2.2-5.5 3.8-8.2 5.8 1.1 1.9 1.3 4.6 2.9 6.1 7.5-4.7 16.1-8.7 23.8-14.1zm152.1-37.1c-.2-2.7.5-6.3-.5-8.2.1 2.5-1.1 6.6.5 8.2zm-17.9 4c.5-.5 1.2-.9 1.8-1.3 0-2.2-.2-4.4-1.3-5.5-.2 1.9-.6 5.2-.5 6.8zm4.8 4.7c-.4 1.1 1.4 0 1.3.8-.6 2.3-1.8 4-1.3 7.4-2.4.4-2.6 3-4.2 4.2-.6-.1-.6.5-1.3.3-6.1 8.2-14 14.6-20.8 22.1.6-.1 1-.4 1.8-.3 3.4 3.2 8.4 4.9 11.3 8.7 8.6-6 19.4-9.8 29.2-14.5-.8-4.1-1.5-8.3-1.8-12.9-5.7-1.9-7.7-7.4-10.8-11.8-.2 2.6.3 5.7-1.6 6.6-.3-3 .6-7.1.3-11.1-.7.2-2.3-.5-2.1.5zm13.4 12.1c-.6-4.3-2-7.8-2.9-11.8-2.6-.1-2.6-.1-5.5-.3 1.8 5 4.5 9.2 8.4 12.1zm-102.7-7.1c-5.6 11.8-12 22.9-24 28.4 8.7.6 16.6 1.8 20.5 7.1 2.8-2 5-4.4 8.4-5.8.6-3.3 2-6.6 3.2-10 1.1-3.2 1.9-7.2 3.7-9.5.9-1.2 2.7-1.3 3.2-2.6.8-2.5-.9-10.6-1.1-11.6-6.1-.2-10.1 1.8-13.9 4zm-11.3 6.1c1.4-.6 3.5-.6 3.7-2.4-1.3.7-3.2.8-3.7 2.4zm.3 2.9c-10.1 3.6-18.7 6.3-24.7 12.9-8.8 9.6-11.1 24.2-11.8 43.4 6.5-3.6 8.7-15.2 18.4-15.5-5.7 8.7-13.6 15.1-19.5 23.7 7.7 4.7 16.8 8 25 12.1 2.4-1.7 5.2-.7 7.6-.5-3-11.9-3.3-26.6-7.9-36.8 3.2-4 9.3-5.1 13.4-8.2-3.4-6.8-14.2-6.1-22.9-7.6 3.6-5.5 10.8-6.6 15.3-11.1 3.5-3.5 4.8-7.9 7.6-12.4h-.5zm-80 24.2c2.6 1.9 5.5 8.6 0 9.5-1.7-1.6-2.6-3.9-3.7-6.1-4.2-1.6-6.4-6.6-10.5-7.4-.5 1.8-.2 4.4 0 6.3.9.6 1.4 1.4 1.8 1.8 3.9 1.4 6.2 4.3 8.9 6.8-.9.4-2.5 2.8-5 2.4-1.4-.3-3.4-4-5.8-5.3-2-1.1-6.2-2.6-7.9-2.4-1.3.2-3.5 1.9-3.2 3.9.5 3 5.4 2.6 8.4 3.7-1.9 4.1-8.2 2-12.6 1.6-1.3 1-2.1 2.4-2.4 4.5 6.4 2.1 9.9-3.3 14.5-2.1-.2 1.5-2.1 2.1-2.4 3.7-.5 2.9 2.3 5.8 3.4 7.6.9 1.4 1.8 3.1 2.6 4.2 1.6 2 5.2 6.3 7.1 7.6 6.8 4.9 16 5.4 25.3 4.7 2.5 2.8 4.2 5.8 6.6 8.4 2.2 2.5 4.8 6.1 7.4 7.9 1.7 1.2 4.3 2.1 6.3 3.4s4.1 3 6.1 3.9c2 1 4.6 1.2 6.6 2.4 1.8 1.1 3.1 3.6 5.3 4.2 2-6.5 5.9-13.3 7.1-19-3.5-3.8-8.7-5.5-13.7-7.6-4.2-1.8-11.5-4.1-14.7-6.8-1.9-1.6-3.4-4.4-4.7-6.3-1.5-2.1-2.9-4.4-4.2-6.8-9.7-10.2-14.6-25.2-22.1-36.8-1.1-.2-1.6-1-2.6-1.3-.4 3.5-1.1 6.5-1.9 9.4zm19.2 7.9c2.3 5.1 5.3 9.4 8.2 13.9 1.1.1 1.2-.4 2.1 0 1.1 2.5 2.7 4.9 4.2 7.1.9 1.2 1.4 3.2 2.6 2.9.5-16.1 3.8-30.7 10.5-39.7-8.5 5.9-17.6 11.3-27.6 15.8zm75.8-7.4c-6.5 4.3-13 8.6-20 12.4 4.6 12.2 4.8 28.8 8.7 41.6 2.2.3 4.2.9 6.6 1.1.9-18.9 2.2-38.7 4.7-55.1zm54.2.5c-12.7 14.1-25.4 29.7-31.1 50 13.6-14.8 32.4-24.4 55.3-30-9.2-5.5-14.3-15.1-24.2-20zm-182.4 26.1c-.9.4.1 1.4-1.1 1.8-7.9 3.9-15.7 7.8-23.4 11.6-4 2-8.1 3.6-11.8 5.8-3.7 2.2-7.3 4.6-11.1 6.6-7.5 4-13.8 8.9-21.6 11.8-1.3 2.7-4.6 4.6-8.2 4.2-13 9.1-28.5 15.7-41.1 25.3 5.8-.3 4.3 7.7 4.2 11.8 9.7-4 18.5-10.3 26.6-16.1 2.8-2 6.2-3.4 8.7-5.5 1.2-1 2-2.3 3.4-3.2 1.8-1.1 3.8-1.6 5.8-2.6 1.7-.9 3.3-2.4 5-3.4 7.5-4.6 14.5-7 21.8-11.8 3.3-2.2 8.5-4.4 10.3-6.6.8-1 .7-2.4 1.3-3.4 1.2-2 3.2-2.8 4.7-4.2 2.9-.1 6.8.1 9.2 1.3 9.4-6.8 18.7-13.6 29-19.5-1.3-2.4-2.9-4.5-3.7-7.4-3 .3-4.9 2.5-8 3.5zm-36.3 1.6c1 1.4 2.5 3.4 4.5 4.7 1.6 1.1 4.7 3.2 6.3 3.2 3 0 6.8-3.9 8.7-5-5.4-1.9-12.6-4.3-19.5-2.9zm50 5h-.5c-3.8 1.9-7.5 3.9-10.5 6.6 1.6.7 2.3 2.3 3.4 3.4 3.8 7.1 6.6 15.9 10.8 22.9 1 1.6 3.3 5.8 4.5 6.8 1.8 1.5 5 2.2 7.4 3.2 2.5 1 4.9 2.1 7.6 2.9 2.5-2.6 5.2-4.9 8.9-6.3 1.1.1 1 1.4 2.1 1.6 4.4-1.9 10.2.3 14.2 1.3.4-4.1 2.4-6.5 3.9-9.5-7.3-3.8-13-10.9-17.6-18.2-17.2 1.9-28.1-4.7-34.2-14.7zm-56.6 4.7c.7 2.5 2.5 5.2 4.7 5.3 2.6.1 5.5-3.4 7.4-4.5-2.7-1.3-8.2-1.8-12.1-.8zm72.9 44.2c-4.1-1.2-8.1-1.2-11.3-3.7-8.7-10-11.7-25.7-22.1-34-.3-.4-.6-.2-1.1 0-2.7 1.1-7.4 4.9-8.2 7.9 4 2.7 9.5 3.9 15.5 4.5-3.4 4.4-12.1 2.8-15.5.5-1.3-.9-1.8-2.8-2.9-3.4-.7-.4-2.6-.2-3.4-.5-2-.7-2.8-2.4-4.7-2.4-2.2 0-4.2 1.7-3.9 3.7.2 1.4 3.1 3.9 5.3 5 1.4.7 3.5.8 4.7 1.6.7.5 3.7 4 3.9 4.5 1 2.3 0 4.4 1.1 7.9 4.3 4.1 8.4 9.3 16.8 8.4-2.3 2.6-5.6 3.7-10 2.9-3.4-.6-10.8-6.6-11.8-9.5-1.6-4.4.2-8.8-3.4-11.1-3-1.8-6.2-1.3-8.4-3.9-6.2 2.8-12.6 5.5-18.2 8.9 5.4 1.7 12.1.1 16.6.8 3.2.5 8.6 6.6 9.2 9.2.8 3.4.4 6.2 2.4 8.4 1.4 1.6 3.9 1.8 5.5 3.7 3.6-.2 6.5.9 8.9 1.3 3.8.6 7.6 0 10.8.8 2.7.7 4.8 2.7 7.4 3.4 1.9.5 3.7.2 5.3.8 2.2.7 3.7 2.7 6.1 3.7 3.7 1.6 8.2.5 12.6 1.1.5.1 0 1.2 1.1.8 2.9.4 5.8.7 8.2 1.6.5-5.7 1-11.4 1.6-17.1-6.8-.2-12-4-18.1-5.8zm-78.4-32.9c.9-.5 2.3-.5 2.9-1.3-1.1.2-2.8-.3-3.4.3.4 0 .1.9.5 1zm88.7 31.3c2.3.9 4.3 2 7.4 2.1.1-1.8-.3-3-1.1-3.9-1.3.1-2.3-.1-2.9-.8-.2-.8.7-.5.5-1.3h-.8c-.4 2-1.7 3-3.1 3.9zm12.4-2.3c-.4 0-.2.4-.3.8-.9 5.1-.5 15-1.1 21.1-.2 2-.7 3.6-.5 4.7.3 1.6 1.8 3 1.8 4.5.1 2.3-1.3 5.9-2.4 7.6-1.2 2-3.4 3-5 4.2 4.7 6.2 16 9.7 23.7 13.2 1.2.6 2.6 1.6 3.7 1.8 1.4.4 3.8.4 5.8.8 4.4.8 7.8 1.8 10.3-1.1.5-2.2.3-4.4-.5-6.3-3.1-7-10.9-11.4-15.8-17.1-2.4-2.8-4.6-5.9-6.6-9.7-3.2-6.2-6.4-12.3-4.5-22.1-3-.7-5.4-2-8.6-2.4zm-174.3 30c.8-2.1.8-6.8 0-8.9-6.6-5.7-7.7 11.5 0 8.9zm165.8 8.9c.5-2.8 1.6-4.9 1.6-8.2-3.1-.4-5.1-1.7-8.2-2.1 0 5.7 1.2 10.1 6.6 10.3z"/><path class="st0" d="M371.1 114c-1.8-.9-2.7-2.7-5-3.2-.3.9.8 3.3 0 4.7.2.7 1.4-1 1.6-.3-1.2 2-6.2 3.9-10.5 4.5s-10.8 1.6-12.4-1.1c1-1.3 1.5.6 3.2.3-.8-.7-2.7-1.9-1.3-3.2.6.4.8 1.1 1.3 1.6.6-.2.8-.8 1.1-1.3-.4-1-2.1-.7-1.8-2.4 1.1-.8 1.7.8 2.6 1.1 1.7-.9.6-1.8 1.1-3.4.8-.2.5.7 1.1.8 1.2-.3.9-2.1 1.6-2.9.6-.1.5.4.5.8 3.6-2.8 9.5-3.7 13.7-1.1 1.3 1.1 3.3 3.3 3.2 5.1zm-15.8-2.6c2.1 0 4.1-2.1 6.6-2.6-2.5-.4-5.6.7-6.6 2.6zm-2.3 1.9c1 .1 1.5-.2 1.6-1.1-.7-.6-1.6.3-1.6 1.1zm8.9.5v-1.1c-.3-.4-1.1-.3-1.8-.3-.4 1.4.9 2 1.8 1.4zm-11.8 5.2c3.3 0 4.9-.3 7.4-.8-1.5-.6-1-3.2-2.1-4.2-1.8 1.7-4.2 2.8-5.3 5zm68.9 26.9c-.7.3-1.6.3-2.6.3.5.8-1.1.5-1.8 1.6-.6 2.6-1.9 6.3-3.7 9.2-.9 1.5-1.8 3.2-2.9 4.2-2.1 1.9-6.4 3.7-9.7 4.2-10.3 1.6-13.5-6.7-20.8-9.5-1.1-.3-.8.8-1.8.5.2-.9.6-1.7 1.1-2.4 1.1-.3 1 .6 1.8.5 3.4-1.4 6.4-6.5 11.3-7.4 1.4-.2 2.8.2 4.2 0 2.6-.4 4-3.3 6.3-3.7 5.8-.9 11.2 1.4 17.4.5.4-.3-1.1-.7-.3-1.6 1.1-.2 1.5.3 2.4.3.7 1 1.1 2.6 0 3.4-.9-.2-.1-.5-.3-1.3-.9-.5-.1.5-.6 1.2zm-22.1 1c1.8 0 2.8-2.1 3.7-2.1-1.9.1-2.8 1.1-3.7 2.1zm15.8-1.5c-2.6.1-5.5-.9-7.6-.3 2.6.5 5.2 1.6 7.6.3zm-2.4 1.5c-3 1-6.9 1-9.7 1.8-2 .6-3.5 2.4-5.3 2.9-.4.1-2-.1-2.6 0-1.1.2-8.7 3.1-8.7 4.2s2.5 2.1 3.9 2.1c1.6 0 3.9-1.5 5.8-2.1 5.7-1.9 13.6-3.3 17.6-6.1-.3-.3-.3-2.4-1-2.8zm-16.8 1.6h-1.8c-.2 1.4 1.7.7 1.8 0zm18.7 2.1c.8-.1 1.2-.6 1.3-1.3-.9 0-1 .8-1.3 1.3zm-11.9 7.4c.8.7 1.7-.1 2.4-.3.1.7.1 1.4.5 1.8-.1-1.2-.1-1.7-.3-2.4-.9.3-1.9.4-2.6.9zm-3.7 2.6c.4.6.7 1.2 1.6.8-.7-1.2.6-2.7-.3-2.9-.4.8-1.4.8-1.3 2.1zm5 .3c.3-.5.7-2.6-.5-2.4-.1.3-.2 2.2.5 2.4zm-6 .5c-.4-.9 1-2.2-.3-2.4-.1.7-1.1 2.4.3 2.4zm4.2-.5c.7-.5.1-2-.8-1.8.5.4-.2 1.9.8 1.8zm-6 .5c0-.5 1.2-2.1 0-2.1-.1.5-.7 1.8 0 2.1zm-2.2 0c.2-.8 1.2-.7 1.1-1.8-1.1-.3-1.8 1.2-1.1 1.8z"/></g><g id="Режим_изоляции"><path class="st1" d="M105.6 259.2c-5.4-3.7-14.5-5.9-21.5-3.9-.7 0-1.5.2-2.2.6-10.2 5.7-13.6 18.7-13 29.8.6 13.1 10.5 22.8 23.5 24.7 12.6 1.8 23.6-5.8 25.9-18.3 2.2-12.3-2.1-25.7-12.7-32.9zm-2.1 44.7c-10.6 5.4-24-4.6-26.3-15-1.3-5.9-.9-15.7 2.5-22.5 1.5-.4 2.9-1.4 3.2-2.6 1.5-6 9.9-3.8 13.8-1.9 4.6 2.3 8.4 6 10.9 10.6 4.5 8.5 6.2 26.1-4.1 31.4zm43.7-30.1c-2.4-.7-4.5.1-6.3 1.7-.5.4-.7.9-.7 1.4-2.3-2.9-4.6-5.8-6.8-8.8 2.2-.3 4.4-1.4 6-3.1 3.8-4.1 3.5-11.1 1.4-15.9-2.1-4.6-6.5-7.3-11.6-6.7-4.6.5-7.8 3.6-10.3 7.2-2.5.3-5.3 2.1-4.1 4.2 5.7 9.9 12.2 19.3 19.6 28-1.5 1.1-2.8 2.3-4.1 3.9-3.1 4 4.3 3.4 6.3 1.7 2.8-2.3 5.6-4.6 8.4-7 1.6-1.3 3.5-2.5 3.7-4.7.2-1-.5-1.6-1.5-1.9zm-22-21.7c.8-1.3 2-3.5 3.5-4 2.1-.7 4 2 4.7 3.7s1.1 3.8 1.1 5.6c0 .9-.8 5.6-1.4 5.3-1.2-.6-2.5-.7-3.8-.4-1.9-2.9-3.8-5.8-5.6-8.8.7-.3 1.2-.8 1.5-1.4zm39.8 0c1.7.6 3.9 0 5.4-.9.8-.4 2.6-1.9.8-2.5-3.1-1-1.8-4.8-1-6.9.9-2.3-5.5-.6-6.1-.2-3.3 1.9-6.6 3.8-9.9 5.8-.6.3-1.1.6-1.5.9-1.7 1-3.3 1.9-5 2.9-1.1.6-2.2 1.6-.8 2.5 1.3.8 4.3-.2 5.4-.9.5-.3.9-.5 1.4-.8 2.5 4.2 5.5 8 9 11.5-.1.2 0 .4.3.6s.7.4 1 .6c1.6 1 8.8-1.3 7.3-2.7-4.4-4.1-8-8.7-10.8-13.9.4-.2.8-.5 1.2-.7 0 2 .8 3.8 3.3 4.7zm27.6-38.8c-6.1-1.9-14.2.3-17.5 5.7-.2.2-.4.5-.4.8-.7 1.5-1.1 3.2-1.1 5.1 0 .4.3.7.6 1-.2 9.1 1.7 18.5 11.1 22.3 8.7 3.5 19.2-1.6 21.2-11 1.9-9.3-5-21.1-13.9-23.9zm5.7 26.1c-2.7 8.1-10.5 4.5-13.8-1-3.5-5.7-2.9-12.8-2.2-19.2 1.3-1.7 3.6-2.2 6.1-1.3 2.4.9 4.4 3.1 5.9 5 3.5 4.5 5.9 10.9 4 16.5z"/><path class="st1" d="M219.5 201.5c-5.7-11.4-18-17.7-30.6-15.7-12.2 1.9-26.2 13-18.4 26.5 1.1 2 8.4-.9 7.7-2.1-3.9-6.7-2-15.9 4.9-19.9 6.9-4.1 16.1-.3 21.6 4.4 3.6 3.1 6.4 7 8.1 11.4-1.5.5-2.8 1.1-3.8 1.9-3.5 2.8-5 11.1-.3 13.6 3.5 1.8 9.3-.2 11.6-3.2 3.7-4.6 1.6-12.2-.8-16.9zm-4.2 14c-.2.7-.8 3-2 1.8-.8-.8-.8-2.6-.7-3.6.1-1.1.3-2.4 1.2-3.1.1-.1.2-.1.3-.1l.1-.1c.3-.2.6-.2.8.1.9 1.3.6 3.6.3 5zm27-31.8c-6.2-.9-14.9 2.9-14.3 10-2.3 6.6-1.5 14.6 6.4 16.9 6.9 2.1 14.8-2.3 16.9-9 2.4-7.3-.6-16.6-9-17.9zm.9 20.5c-1 2.3-1.8 4-4.4 2.4-1.8-1.1-3.1-2.8-3.8-4.7-1-2.9-.7-5.8.3-8.6.3-.3.5-.7.5-1.1v-.1c.3-.8.7-1.6 1.1-2.3.2-.4-.2-.6-.8-.7.5-1.3 1.5-2 3.4-.9s3.2 2.9 4 4.8c1.4 3.4 1.2 7.7-.3 11.2zm56.3-20.2c-1.6-.8-4.1 0-5.5.8-1.1.6-2.2 1.3-3.4 1.9-4.8-5.8-9.1-11.9-12.9-18.4-1.3-2.1-8.8.3-7.2 3 1.5 2.5 3.1 4.9 4.7 7.3-.6.6-1.1 1.4-1.1 2.2-.1.1-.3.2-.4.3-.6.3-1.2.7-1.9 1-.9.5-1.9 1-2.8 1.5-.1.1-.3.2-.4.2-1.2-2.3-2.1-4.8-2.9-7.3.9-.6 1.6-1.5.8-2.4-1.1-1.3-3.9-.7-5.1-.1-2.2 1-4.4 2-6.5 3-1 .5-3.2 1.8-2 3.2 1.1 1.3 3.9.7 5.1.1.2-.1.4-.2.5-.2.9 2.6 2 5.2 3.3 7.6-1.1.8-1.9 2.1-1 3.4.7 1.1 2.4 1.3 3.8 1 1.3 1.9 2.7 3.8 4.3 5.6 1.6 1.8 8.9-.9 7.2-2.9-1.7-1.9-3.2-4-4.6-6.1 2.4-1.3 4.8-2.5 7.1-3.9.3-.1.5-.3.8-.5 1.4 1.9 2.9 3.8 4.4 5.6.2.2.4.3.7.5-.5.6-.7 1.4.3 1.9 1.6.8 4.1 0 5.5-.8 2.8-1.6 5.7-3.2 8.5-4.8 1.1-.5 2.3-1.9.7-2.7zm24.8-9.7c-1.8-.4-4.1.4-5.5 1.5-.7.6-1.5 1.1-2.2 1.7l-.1-.1c-6.7-8.1-12.1-16.9-16.3-26.5 3-1.4 6-2.8 9-4.4.2 1.5.8 2.9 1.9 4.5 1.2 1.6 8.6-.8 7.2-2.8-1.5-2.1-1.9-3.8-1.4-6.3.4-2.3-5.3-.5-6.1-.1-4.1 2.2-8.2 4.3-12.4 6.3-2.5-1.5-7.5.3-6.7 3-6.2 2.7-12.6 5.1-19.1 7.2-.9.3-3 1.3-2.2 2.5.8 1.1 4.2 0 5-.3 5.9-1.9 11.8-4.1 17.5-6.5 4.3 9.6 9.8 18.6 16.5 26.8.1.2.3.3.5.5-.5.2-1.1.5-1.6.7-1 .4-3.1 1.7-2.1 3s4 .5 5.1 0c4.9-2.1 9.5-4.7 13.7-8.1 1.3-1 .8-2.2-.7-2.6zm-143-88.7c-2.9-.1-6.1.7-9 1-2.3.3-5.1.2-7.2 1.4-.8.5-1.5 1.2-1.6 2-.7.5-1.1 1.2-1.1 2 0 1.3-8.6 1.6-9.4 1.5-3.4-.2-8.6-1-10.5-4.2-1.5-2.6-7.3-2.2-7.3 1.2-.1 5.3-1.3 10.1-3.7 14.8-1.6 3.2 5.8 3.9 7.3.9 1.6-3.1 2.6-6.2 3.2-9.5 3.8 1.6 8.3 2.1 12.1 2.1 1.9 0 5-.2 7.9-.8-.5 6.8-1.3 13.6-2.8 20.2-.9 3.7-2 7.6-4.4 10.6-3.3 4-9.3 6.4-12.5.7-1.4-2.5-5.2-2-6.9-.2-2 2.2-4.3 3.7-7 4.9-1.9.9-2.3 3-.5 4.2 9.5 6.2 20.1 12 31.8 10.7 11.2-1.2 18.9-8.8 23.1-18.9 4.7-11.1 4.6-24.3 3.8-36.1-.3-4.1-.2-8.4-5.3-8.5zm-8 48.1c-9.2 15.3-24.6 10.1-37 2.7.6-.4 1.3-.9 1.9-1.3 6.3 5.4 16.6 3.4 22.3-3 4.6-5.1 6-12 7.1-18.6 1.2-7 1.9-14.1 2.2-21.2.1-.1.3-.2.4-.2.1 0 .1-.1.2-.1 2.1-.6 5.9-.9 8.5-1 .7 2.9.4 6.4.5 9.1.1 3.5.1 7.1-.1 10.6-.4 7.8-1.9 16.1-6 23zm56.9-17.9c0-.3 0-.5-.1-.8 0-.2-.1-.3-.1-.4-1.4-7.7-5.4-14.5-9.5-21.1-.9-1.5-4.3-1.1-5.6-.6-2 .7-4.1 1.3-6.1 1.7-1.2-.2-2.7-.1-3.8.4-1.6 0-3.2.3-3.5 1.2-3.6 10.4-6.1 21.1-7.7 32-.2 1.1 7.1 1.3 7.5-.5.2-.8.4-1.7.6-2.5 0-.1-.1-.2-.2-.2.3-2 .7-4 1-6 .7-.1 1.3-.2 1.8-.5 2.1-.9 4.2-1.7 6.4-2.4 1.7 3 3.4 6 4.3 9.4.6 2.2 5.9 1.5 7 .3 2-1.9 4-3.3 6.9-3.4.8 0 4.4-.6 3.5-2.2-.8-1.5-1.6-2.9-2.4-4.4zm-26.8-.1c.7-3.3 1.5-6.7 2.4-10 .8 2 1.7 4 2.6 5.9.3.6.6 1.2 1 1.8-.3.1-.5.3-.6.4-1.8.6-3.6 1.2-5.4 1.9zm13.9-2.4c-2.6-4.7-4.7-9.6-6.2-14.7-.1-.3-.3-.5-.6-.7 1.4-.2 2.7-.6 4.1-1 3.5 5.8 6.7 11.8 7.9 18.6-.1.2-.1.5 0 .8.7 1.2 1.3 2.4 2 3.6-1.1.3-2.2.6-3.3 1.1-1.1-2.7-2.5-5.1-3.9-7.7zm45.2-7.3c-.2-.1-.3-.2-.5-.3-1.6-.8-3.8-.9-5.2.3-.7.2-1.3.3-2 .5 3.9-9.5 6.9-19.3 8.9-29.4.5-2.3-3.4-2.3-4.8-2-2.5.7-5 1.2-7.5 1.6-.8 0-1.5 0-1.8.1-7.9 1.6-15.8 3-23.8 4.1-1.2.2-3 1-2.5 2.4s3.7 1.1 4.7 1c6-.8 11.9-1.8 17.9-2.9-3.1 8.5-5.5 17.2-7.4 26.1-.2.2-.3.5-.2.8-.1.8-.3 1.5-.4 2.3 0 .2-.1.3-.1.5v.3c-1 1.8 1.5 4.4 4.6 3.7 1.7-.4 3.5-.8 5.2-1.2 1.8.1 3.9-.3 4.5-1 3.1-.7 6.1-1.4 9.2-2.1 2-.7 3.7-3.5 1.2-4.8zm-16.8 2.6v-.6c2-9.5 4.7-18.8 8-27.9.6-.1 1.3-.2 1.9-.3-2.2 9.8-5.2 19.4-9.2 28.6-.1 0-.4.1-.7.2z"/><path class="st1" d="M313 127.9c-.5-.6-1-1.1-1.4-1.7-1.5-1.8-8.6-.3-7.2 1.4l.1.1c-7.3 1.2-14.6 2.5-21.9 3.8-.3.1-.6.1-.9.1 8.2-15.8 14.6-32.3 19.1-49.5.5-2-2.5-2.3-3.8-2.2-2.8.2-5.6.5-8.4.7-.9-.1-1.9 0-2.3.1-5.4.9-10.8 1.8-16.2 2.4-4.4.5-4.3 3.8.2 3.3 4.2-.5 8.4-1.1 12.6-1.7-5.7 18.2-12.9 35.9-21.5 52.9-1.2 2.4 5.5 1.8 6.4 1.2 5.5-3.5 14.3-3.8 20.7-4.9 7.3-1.3 14.7-2.5 22-3.8.6-.1 3.5-1 2.5-2.2zm-22.5-43.6c.8-.1 1.5-.1 2.3-.2-4.6 16.8-11 33-19.1 48.5-.1.1-.1.2-.1.3-.9.2-1.7.3-2.6.5 7.7-15.8 14.3-32.2 19.5-49.1z"/><path class="st0" d="M0 130.7c-.1-4.3.1-8.6 0-12.9 15.5-2.9 33.5-6.7 48.2-3.2 1.4 0 2.6-.1 3.6-.5.2.8 1.7 0 .8 1.1 8.2-1.7 13.5 1.8 19.7 5 13.2.2 23.1-2.9 25.6-13.4 1 14.8-23 18.6-33.5 12.2.1 1.5-2.9-.6-4.3-1-2.4.5-7.2 1.5-11 2.7-13.7 7.1-33 8.6-49.1 10z"/><path class="st0" d="M56.5 163.6c-1.3-2.3-3-4.2-3.8-7.1-9.2 1.7-24.6 2.4-35.9 2.1-2.6 3.4-12.1 2.6-16.8 3.9-.9-2.8.3-7.2 0-10.6.8.8-.3 1.1 0 3 .7-.2 3.2-1.7 4.6-1.2-2.5-.1-2.7-2.1-4.6-1.8 3.7-1 13.7.5 16.7 1.8 11.2-.9 24.3.2 33.8-2.4.7-.2.7.5.7 1.1.3-5 .6-9.8 1.4-12.6 1.2-1 1-.6 1.3-2.7 5.4-9.9 22-14.3 31.8-7.2 4.8 3.5 8.1 10.4 8.7 16 1.8 16.3-12.3 29.4-29.9 24.9-4.6-4.1-8.1-5.1-11-10.2 1-.4 1.8 2.6 3 3zm4-64.6c.5-.2-.1-.5 0-1.1 2 .3 3.6 1.1 5 2.1.2.8-1 0-1.1-.3 1.5 2.5 3.6 1.4 5.5 4.3.6-.2.3-1.2 1.4-.8.8 4.3 5.9 3.8 7.4 7.3-7.3-1.9-12.5-6.2-17.8-10.4-3.8-.6-6.8.7-11.3 1.9-15.3 4.1-34.2 7.3-49.6 11.2-.1-3.7.1-7.3 0-11 14.1-.8 29.4-3.1 43.4-4.6 7.3-.8 13-2.6 16.8.9.3.1.3.3.3.5z"/><path class="st0" d="M69.1 99.5c-2.9-.6-5.1-2.5-7.6-3.5-4.2-1.8-7.9-5.5-12.3-7.1-4.2-1.6-9.7.6-14.9 1.7-11.2 2.1-23.1 4.6-34.3 7.2-.1-3.3.1-6.6 0-9.8 13.5-.4 28.7-3 41.2-4.1 5-.4 8 .3 11.5 2.2 1.9 1.1 3.5 3.5 5.1 4 .9.3 1.5-.4 2.1-.1 2.2 1.2 5.9 5.4 5.9 6.2 1.1-.6 2.2 1.7 3.3 3.3zm28.4 96.7c-3.5-1.9-3.8-7.5-7.1-9.6-5.6.3-10.4 3.2-15.9 4-10.1 1.4-20.4-.5-30.3.7-1 .1-1.8 1-2.8 1.2-3.7.9-8.5.8-12.1 1.2-8.4.9-20.1-1.7-29.4-1-.2-4.7.1-9.3 0-14 7.6.6 20.5 1.1 30.4 2.1 1.4.6 1.6 4.2 3.3 3.3.8-.6-2-.3-1.5-1.8 9.9 1.8 18.3 5.3 29.7 5.4-.2-.8-1.8-.1-2.5-.3.5-.9 2.5-.2 3.5-.5 4.3 6 22.6-4.4 28.1-2.5 3.9 1.3 3.7 7.4 7.4 9.6.4 1.3-.4 1.6-.8 2.2zm-63.1-11.7c1.7.8 6.8 1.8 9.6 1.2-2.8-.3-7.4-2.7-9.6-1.2zM0 414c-.1-4.3.1-8.6 0-12.9 15.5-2.9 33.5-6.7 48.2-3.2 1.4 0 2.6-.1 3.6-.5.2.8 1.7 0 .8 1.1 8.2-1.7 13.5 1.8 19.7 5 13.2.2 23.1-2.9 25.6-13.4 1 14.8-23 18.6-33.5 12.2.1 1.5-2.9-.6-4.3-1-2.4.5-7.2 1.5-11 2.7-13.7 7.1-33 8.6-49.1 10z"/><path class="st0" d="M60.5 382.3c.5-.2-.1-.5 0-1.1 2 .3 3.6 1.1 5 2.1.2.8-1 0-1.1-.3 1.5 2.5 3.6 1.3 5.5 4.3.6-.2.3-1.2 1.4-.8.8 4.3 5.9 3.7 7.4 7.3-7.3-1.9-12.5-6.2-17.8-10.4-3.8-.6-6.8.7-11.3 1.9-15.3 4.1-34.2 7.3-49.6 11.2-.1-3.7.1-7.3 0-11 14.1-.8 29.4-3.1 43.4-4.6 7.3-.8 13-2.6 16.8.9.3.1.3.3.3.5z"/><path class="st0" d="M69.1 382.8c-2.9-.5-5.1-2.4-7.6-3.5-4.2-1.8-7.9-5.5-12.3-7.1-4.2-1.5-9.7.7-14.9 1.7-11.2 2.2-23.1 4.6-34.3 7.3-.1-3.3.1-6.6 0-9.8 13.5-.4 28.7-3 41.2-4.1 5-.4 8 .3 11.5 2.2 1.9 1.1 3.5 3.5 5.1 4 .9.3 1.5-.4 2.1-.1 2.2 1.2 5.9 5.4 5.9 6.2 1.1-.7 2.2 1.6 3.3 3.2zm50.3-218.6c.6-.4 1.2-.8 1.8-1.3 3.2-1.7 5.5 1.6 8.3 1.4 1.3-.1 2.5-.9 3.6-1.1 1.3-.3 2.9-.5 4.2 0 2.7 1 6.1 5.8 6.9 9 .4 1.5-.1 3 .2 4.6.5 3.8 2.6 8.2 4.5 12.6 2 4.6 4.4 9.3 7 13 .8 1.1 1.9 2 2.1 3.3-2.1 1.9-3.8-.6-5.3-1.7-3.3-2.6-6.2-5-9.9-7.5-1.4-1-3.8-2.9-5.2-1.9-1.6 1.1 0 4.5 1.1 6.3 1.4 2.3 3.5 4.7 5.2 7.2 1 1.6 4.2 5.7 2.5 6.8-1.1.7-3.2-1.3-4.5-2.4-4.4-3.5-8.5-7.7-12.9-11.1-2.8-2.2-6.1-3.7-8.9-5.8-2.9-2.2-5.9-4.1-8.8-6.4-.4-.6-.9-1.2-1.3-1.9-.2-.8-.7-1.8-.8-2.6-.4-3.8.7-7.9 4.5-10.6.6-.5 1.6-.7 2.1-1.4.9-.9.7-3.4 1.3-4.8.4-1.5 1.4-2.6 2.3-3.7zm23.6 24.4c-.7-.7.8-2.4 1-2.9 1-3-1.3-5.1-2.4-8.6-.3-.9.3-2 .2-3.1-.1-2.5-1.7-7.5-4.3-9.1-2.4-1.5-5.1 1.5-8 1.5-2.2 0-3.7-2.1-6-2.3-2-.1-4.6 1.5-5.4 3.6-.7 1.7.2 4.3-.9 5.8-1.3 1.8-3.1 1.9-4.5 2.9-2.8 2.1-3.6 6.2-2.3 8.8 1.5 2.9 3.6 4.2 5.7 5.5 1.5 1 2.9 2.1 4.3 3 2.9 1.8 6.2 1.8 8.9 3.9 0 .4-.1.8-.7 1.2 4.3 2.1 8.7 6.6 12.6 11 1.3 1.5 2.5 3.2 4.2 3.9-.7-5-7.3-10.7-10.1-16.1-1.5-2.8 2.4-6 5.1-5.5 3.5.5 8.1 6.5 11.2 9.5 1 1 2.1 2.5 3.4 2.2.2-1.5-1.1-2.8-2-4.2-2.8-4.3-5.6-8.9-7.6-12.8-.6.6-1.5 2.8-2.4 1.8z"/><path class="st0" d="M117.1 175c1.9-.7 3.7-1.1 5.4-.9.5-2.1 1.4-4.1 4.3-5.9-.9 1.9-2.7 3.7-2.1 5.9 2.3.6 4.9.3 7 2.5-.4.4-1.1 0-1.6-.1-1.9-.2-5.1-1-7.2.9-1.4 1.3-2 3.4-2.4 5-.1.4 0 1.1-.5 1.3-1.3-2.9-1.3-5.6 1.8-7.7-1.4-1.5-3.1-.9-4.7-1zM247.4 34.5c-.5-1-1.5-2-1.8-3.3-.8-2.7 2-5.6-.3-8.4-.5-.5-1.1-1-1.6-1.5-1.2-.7-2.5-1.4-4.3-1.7-1.5-.2-3.9.4-5-.3-.7-.4-1.2-1.3-1.8-1.8-3.4-3.2-7.6-3.4-11.3-2.3-.7.2-1.7.9-2.4 1.3-.5.6-1 1.1-1.6 1.7-1.6 3.3-2.9 6.6-4.5 9.9-1.5 3.2-2.4 6.7-3.9 9.9-2.4 5-5.7 9.9-8.2 14.9-.8 1.6-2.3 4-1.4 4.9 1.4 1.4 4.8-2.5 6.2-3.8 2.2-2.2 4-4.7 6-6.6.6-.6 1.5-1.3 2.4-1.8-.2-.4-.4-.7-.4-1.2v-.2c-4.5 4-8.5 10.9-13.1 12.6.3-1.8 1.8-3.3 3-4.9 3.5-4.7 7-9.9 8.3-14.5.4.5.9.6 1.3.5 1.6-3.1.8-6.3 2-9.5.6-1.6 1.4-3.2 2.1-4.9.9-2.3 1.7-4.6 4.2-6.7 2.3-1.9 6.5-1.8 9.1.4 1.3 1.2 1.7 2.9 3.7 3.8 1.6.8 4-.7 5.8-.3 2.2.4 4.3 2.6 4.6 4.6.3 2.3-1.5 4.2-1 6.3.6 2.8 4 4.8 3.1 7.5-1 2.9-5.6 5.4-8.1 6.1-1.1.3-2.3-.1-3.1.4-2.1 1.2-3.6 2.8-5.2 3.6-1.1.7-2.3 1.4-3.6 2 0 0 .1 0 .1.1-3.5 2.8-7.4 6.5-11 10.1-1.2 1.1-2.1 2.7-3.7 2.8-.6-1.2.7-2.6 1.5-3.8 1.6-2.5 4.5-6.1 6-9.3-.8-.6-1.6-1.3-2.3-2.1-.2.6-.5 1.1-.7 1.6-1.7 4.1-3.5 7.4-5.3 11.2-.8 1.6-2.9 3.9-.6 5.5 1.3-.5 1.9-1.8 2.9-2.7 3.1-3.3 7.2-6.6 11.3-9.5 3.9-2.8 7.9-5.7 11.4-6.9 1.5-.5 3.1-.4 4.5-1.1 3-1.4 6.9-5.7 7.4-8.6.4-1.2-.2-2.8-.7-4z"/><path class="st0" d="M232.6 21.2c1.1 1.7 1.8 3.4 2 5.2 2.2.1 4.3.6 6.6 3-2.1-.5-4.2-1.9-6.2-.8-.2 2.4.7 4.8-1.1 7.3-.5-.3-.2-1.1-.2-1.6-.1-1.9 0-5.2-2.3-6.9-1.5-1.1-3.7-1.3-5.4-1.3-.4 0-1.1.2-1.3-.2 2.6-1.8 5.2-2.4 7.9.2 1.2-1.7.2-3.2 0-4.9zm-55.1 344.4c.1-.6.3-1.2.4-1.9 2.1-.6 4-2.5 6.3-1 .8-.9 1-2.1 2.1-1.9-.6 3-3.8 2.4-5.6 3.8-.6-.4-.1-.9-.3-1.3-.7-.3 0 .6-.2.9-.3.5-.3-.3-.9.1-.3.2-.7 1.2-.8 1.3-1.2 1.1-2.9 2.1-3.9 3.5-.8 1.1-1.6 2.7-3.1 2.1.3-3.1 3-3.4 4.9-5.7.3-.6.7.3 1.1.1zm14.7 21.1c1 .4.1 1.6-.3 1.7-.5-.5-.1-1.1.3-1.7zm-2.9 12.4c-.3-.4-.1-1.3.3-1.4.1.2.1.4.4.6-.2.2-.5.5-.7.8zm-4.3 7c-.2-.3.8-1.8 1.3-1.2-.5.3-.9.5-1.3 1.2z"/><path class="st0" d="M170.2 375.5c1.2-.5 1-2.1 1.4-3 2 1.7 4-.5 5.1-2.5 1.5 1.5 3.4 2.3 4.2 1.2.1.2.1.4.4.6.5-.9 1.6-2.1 2.2-3.4 1.8 1.6 3.9 1.3 5.1-1.1 0 1.3 1.7 2.3 2.8 2 1.8-1.9 1.3-3.5 1.7-5.2 2.9.6 5.3 2.2 7.2 4.5.2.1.3-.1.5-.2 1.4 1.6.9 4.3 1.9 5.4.2.2-.2.5-.4.8 1 5.3-2.1 11.1-2.7 16.6-2.4 2.2-4.3 5.6-4.7 8.1-2.1-.2-2.3.7-4 2.3-.8.7-1.5 1-2.5 1.3-.5-.1.9-1.2.1-.8-.3-.5.7-.6.6-.1.5-1.3 1.6-1.3 1.9-2.6-.8-.2-1.1.5-1 1.2-.6-1-1.1.7-2.2 1-.3-.5-.7-1-.3-1.6.7.2.6.6 1.1.6 0-.4.4-.8.2-1.2.2-.1.5-.2.8.1.6-.5.3-1 .8-1 .1-.1-.1-1-.4-.6-.1-.3.2-.7.3-1.1.1.3-.1.7.3 1 1.1-.3.3-1.7 1.3-2.6.2 1.5-.7 3.2-1.6 4 .6 0 .5-.6.9.2-.3-.5.4-1.2.6-1.7.4.5-.2 1-.2 1.5 1.2-.1 1.9-2.1 1.8-3.2.5.4.6 0 .7.5.3-.4.4-.9.2-1.2-.4-.2-.6.7-1 .6-.3-.2-.2-.5-.5-.7.5.1.9-.2 1.4-.3.1-.6-.5-1.2-.2-1.8-.4 1.3 1.9 0 .9 1.3.6-.6 1.2-.9 2.2-1-.8-.1-1.6-.2-2.4.2-.6-.5-.3-.6-1-.8.2.8-1.2.8-1.9.6.3-.1.7 0 1-.3-.3-2.1.4-2.6 1.5-4.3-.3-.1-.6-.1-.9.1-.6-.5.8-.3.2-.6.3-.3.6-.2 1 .2 1.6-1.1.5-2.4-.7-2.2-.3.3.3.6-.2.9-1.8-.6-1-2.5-.9-4-.6-.5-1 .5-1.5-.1-.2-.7.9-1 1-1.2.4-1.7-1.4-3-2.9-1.2-.4-1-1.3-.3-1.7-1.4-.3 0-1.8-.1-1 .6-.8 0-2.4-.5-2.5.7-.6.4-.3-.6-.2-.7-.3-.2-1.3.4-1 .6-.8.3-.5-.8-.7-1.1-.4.5 0 .8-.5 1.3-.3-.4-1.3-.3-1 .3-.3.2-.2-.2-.5-.4-2.4.1-4.9.6-7.1-.5-.3-.2-.6 0-.9.4-.2-.8-1.9-1.1-1.8-.1-.3.3-.8-.5-1.1-.6.3-.2.6.3.9-.4-.5-.1-.9.4-1.4 0 .1-.2.3-.3.4-.5-.5-.2-.9 0-1.4 0-.6-1.5-1.3-.3-.8-1.8-.2-.1-.3.1-.4.2-.8-1.5 1.4-1.9 1.8-3.2-.2-.2 2.5-.3 1.7 1.4zm18.5-13.5c.4-1.8 2.3-1.6 3.4-1.1-.5.5-2.4.7-3.4 1.1zm10.8 1.4c-2-.7-4.1-2.2-6.1-2.4.7-1.1 4.2 1 6.1 2.4z"/><path class="st0" d="M216 385.9c.4-3.2-.9-7.3-2.7-11.3 8.1 11 4.3 24-6.7 35.8-9.1 9.7-21 17.9-30.9 20.6 1.4-.7 4-1.4 5.8-3-.7.5-2.2.4-2.3 1.1-.3.4-.4-.4-.1-.6-.4-.2-.6.7-1 .6-.8-.9-2.8-.3-4 .1-.2-.9-1-1.1-1.9-.4-.4-.3-.4-.6-.1-.9-2.3.2-3.1-3.3-4.8-2.2-1-1.2-.6-1.9-1.3-3.2-.1.8.1.9-.4 1.6-.1-1-.1-1.9.2-2.9-.3-.1-.6.4-.9-.2.3-.6.7-.7 1.1-1 .5.9 0 1.1 1.1 1.4 1.6.1 2.1-2.1 2.3-3.1-.3-.3-.6.3-.9-.2.5-.8 0-1 .9-1.2-1.3.1-.4-1.9-1-2.8.9-.6 1.9-.6 2.7-1.4.9.7 1.7.7 2.5.1.6.4-1.9.7-1.8 1.6.9 0 1.7-.4 2.5-1 .3-.4.5-.1.2.1-1 .9-2.1 1.3-3.2 1.6-.1.7.2 1.1-.8 1.3.6.9-.7 3.8-.8 3 .1 2 2 2.2 3.6 4 1.3-.6 3.4 1.4 4-1.2 1.4.8 3.4-2.2 1.6-2.6.4-.7-.1-.4.5-1.3-.2-.4-1.1-.8-.3-1.6 2.4 1.7 4.5 1.3 6.6.4.3.2.2.4.4.6.4-1 .9-.2 1.9-1-.3-2.4-1-3.8-1-6.3 2 1.2 3.8 1.6 5.7 2.2 3.2-2.7-1.5-4.3-.8-7.5 2.2.6 4.1 1.8 5.9 1.2 1.3-1.9-.9-3.5-1.3-5.2 1.9-.2 4.2 1.9 5.7 1.6.2-.5-.8.1-1.1-.6.3-.8 1.2-2.1.2-2.3 1-.4-.1-1.4 1.2-1.8-1.2.3.2-.5-.4-.9.5-.4.5.5.8.7.1-.3-.6-1.5.2-.9-.5-1.1-.5-2.3-1.4-3.4 1.6-.4 3.3-.5 5-.7 1-2.6-2.1-4.9-2.9-7.3 1.8-.8 2.4 0 3.8-.6.5-.8 0-1.5.8-2.4.4.4-.1.8-.5 1.3 1 0 1.2.3 2.1.8.3-2.5-2.3-6.1-4.1-8.9 1.2 0 1.6-1 2.6-.4.4.7-.2.2.4.9 1.5-.9.4-2.8-.4-3.9.2-.2.5.3.8.1 0-.8-4.1-2.1-3.3-3.8-1.7-1.1-3.7-2.6-5.8-4.1 4.3 2 8.2 5.4 11 8.9 0 0-.4.1-.5-.1.2.4.7.7 1 1.1 2.4 2.4 4 7.9 4.3 11.5zm-21.4 23.3c-.5-.3.9-.8 0-1.1-.5.3-.6 1.4 0 1.1z"/><path class="st0" d="M204.5 390.6c.5-.2.7.6 1.2-.1.3.7-.2.2.8.7-.1.3-.1.6.1.9-.8.3-1.8-.2-2.6.4-.1-.2-.2-.4-.1-.6-.3-.1-.2.3-.1.5-.6.4-.2-.5-.4-.6.6-.4.4.3.9.2-.6-.7.7-.8.2-1.4zm-28 23.2c-.7-.9.2-5.7 2.7-4.4 1.6-1.4 3.3-2.1 4.9-3.2-1.4.8-2.9 3.1-4.8 4.1-.7.4-1.9 0-2.4.5-.6.8-.1 2.4-.4 3z"/><path class="st1" d="M207.7 11.9c-2.3 13.8 11 28 21.9 34.5 8.7 5.1 25.4 11.2 33.8 2.5.8-.9-1-1.2-1.6-.6-5.2 5.3-14.6 3.3-20.9 1.3-5.3-1.7-10.2-4.3-14.6-7.6-8.6-6.5-18.6-18.7-16.6-30.3.2-.9-1.8-.6-2 .2z"/><path class="st1" d="M219.4 29.5c-2.7 3.1-5.6 6.3-7.6 9.9-2.1 3.7.4 5.6 3.2 8.1 1.7 1.5 4.3 4.5 6.9 4.4 2.1 0 4.3-2.3 5.9-3.5 2.4-1.8 5.8-3.8 6.1-7.1.4-3.9-2.5-8.2-5.2-10.8-4.3-4.1-8.5-2.4-12 1.6-.4.4 1.4.2 1.7-.1 2-2.3 5.5-3.3 7.9-1.3 2.1 1.7 3.6 4.1 4.6 6.5 1 2.5 1.4 4.9-.2 7.2-1.3 1.8-4.8 4.7-6.7 5.6-2.7 1.2-4.2-.5-6.2-2.1-1.4-1.2-4.7-3.6-5.1-5.4-1-3.9 6.1-10.6 8.4-13.1.4-.4-1.4-.2-1.7.1z"/><path class="st0" d="M223.5 34.5c-2 .8-3.8 1.8-5.5 3.1-1.2.9-2.5 2.1-2.6 3.7-.2 1.3.4 2.5 1.3 3.4.9.9 2 1.5 3.2 2 1.1.5 2.3.9 3.5.5 1.1-.4 1.8-1.5 2.6-2.4 1.2-1.4 3-2.6 3.2-4.5s-1.3-3.5-2.8-4.8c-.9-.8-2.3-1.6-3.1-.8"/><path class="st1" d="M108.7 211c9-24.5 42.3-24.9 53.7-47.6.2-.3-1.7-.2-1.9.3-11.4 22.7-44.6 23-53.7 47.6-.2.4 1.7.2 1.9-.3z"/><path class="st0" d="M123 185.5c1.8 2.1 3.5 4.2 5.3 6.3.7.8 1.5 1.7 2.5 2 2.5.8 4.7-1.8 7.1-2.9.7-.3 1.4-.5 1.8-1.1.7-.9.3-2.1-.1-3.1-1.5-3.4-4-6.5-7.1-8.6-.5-.4-1.2-.7-1.8-.8-.8 0-1.5.4-2.1.8-.9.5-1.8 1.1-2.7 1.6-1.3.8-2.7 1.7-3.3 3.1-.6 1.4 0 3.4 1.5 3.6"/></g></svg>