<svg version="1.1" id="Слой_1" xmlns="http://www.w3.org/2000/svg" x="0" y="0" viewBox="0 0 566.9 467.7" xml:space="preserve"><style>.st0{fill-rule:evenodd;clip-rule:evenodd}.st0,.st1{fill:#ee7f00}</style><g id="Layer_1"><path class="st0" d="M258.7 68.5c9.3-6 21.3-9.2 33.4-12.5-1 3.5-5.4 4-8.4 4.8-10.4 2.7-20.2 6.5-28.1 11.5-.9-.5-1-.6-1.9-.7 1.2-3.1 4.4-5.1 7-7 7.8-5.7 18-10 29.5-11.5-1.1 3.3-5.1 3.1-7.7 3.8-9.3 2.5-16.9 5.7-23.5 11-.1.3-.3.3-.3.6zm23.8-3.4c-1 3.8-7 2.8-10.6 4.1.8-3.9 6.9-3.8 10.6-4.1zm-17.8 4.6c-1.5 3.7-7.1 4.5-10.8 6.2-4 1.8-7.2 4.7-10.8 5.8 1.5-3.2 5.5-5.3 9.1-7.2 3.7-1.9 8.4-3.8 12.5-4.8zm97.2 2.1c4.8 5.4 9.8 12 13.7 19.7 3.7 7.4 7.5 16.3 8.2 25.2.3 3.9.9 9.7-2.9 10.1.7-24.5-10.8-38.6-21.1-52.8.2-1.2 1-1.9 2.1-2.2zM297.6 152c-1.4 1.1-3.6-.5-3.8-2.2-1.3-.8-4.7-1.4-5-3.4-.5-3 3.5-5.4 5.8-6.7-1.8 2.2-7.5 6.2-1.9 8.2.9-5.8 4.5-9.5 7-15.1 2.8-6.2 7.6-17.9 1-23.3-6.7-.4-7.2-8.4-13.7-9.4-2.4-.3-4.5.4-8.2.2 1-2.6 8.2-2.4 11-1.4 1 .3 3.4 1.8 4.6 2.6 2.6 2.1 8.6 7 10.1 10.8 2.6 6.5-1.4 15.1-3.6 20.2-1 2.2-2.1 4.5-3.4 6.5-1.6 2.5-3.9 4.6-3.4 8.4.2 2.1 2.3 3.4 3.5 4.6z"/><path class="st0" d="M284.2 106.4c1.3.1.6 2.2 1.9 2.2.7-.2-.2-2 .7-1.9.9.1.4 1.7 1.2 1.9.9 0 .2-1.7 1.4-1.4.3.5 0 1.6.7 1.7.9.1.5-1.1 1.4-1v1.2c4.4 2.1 8.1 5.1 8.9 10.8-.6.1-.5.9-1.4.7 0-3.7-1.8-6.7-4.6-8.4 1.2 2-.1 5.8-2.6 6.2.2.5 1.4.1 1.2 1-1-.6-1 .4-1.9.5.4-.7-.1-.9.2-1.4-1.9-.4-2.2.8-3.6 1 0-.6.4-.8.7-1-.5-.4-1-.8-1.7-1-1.1-.2-1.1.9-2.2.7.1-1.1 1.4-1 1.7-1.9-.5-2.4.4-4.7 2.2-5.5-3.4-1.3-7.9.1-9.8 1.9-.5-.7.5-1.3 1-1.7-.8-.8-2.7-1.8-1.2-2.9.7.1.3 1.3 1.4 1 .4-.4-1.1-1.6 0-2.2 1.2.1.8 1.8 1.9 1.9.4-.4-.8-2.1.7-2.2.3.8.4 1.9 1.4 1.9.6-.2-.4-1.6.4-2.1zm6 6.7c0 .7.4 1 1.2 1 .1-.5.6-1.3-.2-1.4-.1.4-.5.5-1 .4z"/><path class="st0" d="M281.8 112.9c-.5.5-1.4.7-2.2 1-.1-1.3 1.6-1.8 2.2-1zm.4.7c1.3.5 2 1.7 3.4 2.2-.3.8-1.6.6-2.4 1-.6-.6.5-.9 1-1.2-.5-1-2.2-.7-3.1-.2-.4-1.4 1.2-.8 1.1-1.8zm12.8 6.2c1-1.1 3.2.5 0 0zm40.3 12c.8.3 1.6 1.7 1 2.6-.6-.6-.8-1.6-1-2.6zm-6.7.3c.5.2.2 1.6-.5 1.4-.1-.7.3-.9.5-1.4zm4.8 0h.7c-.3 1.3.7 1.5.2 2.4-.9-.2-.8-1.5-.9-2.4zm-3.4.2h2.2c-.1.9 1.3 2.2-.2 2.4 0-1.1 0-2.1-1-2.2-.5.5 0 1.9-.7 2.2-.4-.5-.4-2.1-.3-2.4zm-24.7 22.1c-.3-.3-.3-.8-.2-1.4-1.6-.5-3.3 0-4.6.5.8-2.6 6.5-2.3 7.2.2 6.5 1 4.8-5.8 2.6-8.4.2 0 .2-.2.5-.2 5.6 2.7 1.8 12.4-5.5 9.3zm-107.8 19.7c.7 4-2.2 9.7-7.2 7.9-1.1-5 2.8-8.4 7.2-7.9zm42.5 3.6c7.6-1.6 5.4 8.9.5 8.9-1.6 0-4.3-1.7-4.6-3.8-.3-3.1 1.8-4.6 4.1-5.1zm-17.5 2.1c1.8 6.4-10 10.3-10.8 4.8-.5-3.5 2.8-6.5 6.7-6.5.9 1.1 3 .9 4.1 1.7zm38.4 8.4c2.3 3.5-1.1 8.8-5.3 7.9-.2-1.6 0-3.3-1.2-4.3.7-2.6 3.2-5 6.5-3.6zm-110.2 4.1c1.1 3.8-2.1 8.8-5.5 8.6-1.5-.1-3.3-1.6-3.6-3.1-.7-3.9 5.3-8.7 9.1-5.5zm25 .3c2.9 3.3.2 9.3-4.1 9.8-.5-1.4-1.3-2.4-2.4-3.1.3-4.1 2.1-6.7 6.5-6.7zm-70.1 14.8c-2.7-4.7 6.8-11.2 8.4-6.5 1.4 4.1-4.3 9.6-8.4 6.5zm-76.8 8.2c-4.6-3-1.6-11.7 4.8-10.8 4.4 3.1 1.2 11.6-4.8 10.8zm33.1-8.6c1.4 3.9-1.5 6.8-4.3 7.9-1.8-.6-2.2.2-3.8-.2-1.2-5.4 3.1-9.4 8.1-7.7zm13.5 10.3c10.1-1.7 4.7 13.1-3.1 9.8-1-.4-2.3-2.3-2.4-3.1-.5-3.3 2.1-6.2 5.5-6.7zm36.2 8.6c-6.5-5.5 11.1-14.7 8.9-3.4-.4 2-2.7 5.5-5.8 4.8-1.6-.3-.7-2.1-3.1-1.4zm197.5-5.3c.8 5.2-3.8 7.2-7.2 4.8-1.6-4.8 4.8-8.9 7.2-4.8zM80.9 243.4c-.6-1.6-1.1-2.5-1-3.8.4-4.2 7.8-7.2 8.4-2.2.4 3.7-3.5 6.8-7.4 6zm-34.8-7.6c5.4-1 6.9 5.4 3.1 8.2-2.8 2-9 3.2-7.7-3.6.4-1.9 2.6-4.3 4.6-4.6zm-31 4.3c2.9-.7 4.9.9 5.3 2.4 1.1 5.3-8.2 8.1-9.4 3.4-.7-3.2 2.2-5.4 4.1-5.8zM294.5 284c-1.8 4.1 5.2 5 5.3 8.2 0 3.9-7.2 4.8-10.8 6.2-6.9 2.7-14.9 7.1-19.9 11-2.3-1.7-4.2-3.8-6-6-1-.1-1.6 1-2.4.2.2-2.9.7-6.8 4.1-7.7 1-.2 1 .7 1.4 1 7.5-5.3 17.8-9.2 26.6-13.2.2 0 1.1 0 1.7.3zm-5.5 5.3c-7.5 3-14.8 6.3-21.1 10.6 1.3 1.4 2.6 2.9 4.3 3.8 5.8-4.4 12.6-7.7 20.2-10.3-1-1.6-2.4-2.7-3.4-4.1zm32.8 16.1c-.4 3.3-2.1 5.3-5 6-.7-.5-1.4-1-1.2-2.4-1.3.2-2.9 1.2-4.3.5.3-5 6.8-6 10.5-4.1zm-96.9 6.9c.1 4.5-2.1 6.7-6.5 6.7-4.1-3.4 2.5-10.6 6.5-6.7zm113.7 54.3c2.8 7.5-6.8 7.6-11.5 7.4.4-2.8 2.9-3.5 5-4.6 1.4-1.7 2.9-3.4 6.5-2.8zm-186.4 16.5c.3 5.3-4.8 7.3-8.6 6.2-1.4-5.2 5.3-10.5 8.6-6.2zm22.5-1.4c1.8-.2 3.7 1.5 4.1 3.4 1.2 6.5-10 10-9.6 2.2.2-2.8 3.5-5.4 5.5-5.6zM161 410.2c-2.1-5.5 7.6-10 8.6-4.6.9 4.3-5.1 8.3-8.6 4.6zm-36.2-.9c10-1.7 4.9 11.2-2.4 9.1-4.4-1.2-1.4-8.6 2.4-9.1zm17.3 19.9c-.8-.5-.8-1.8-.7-3.1 0-.4-1.9.5-2.2-.2-.1-2.9 3.2-7.7 6.7-6.7 4.4 1.1 1.7 11.1-3.8 10zM96 422c3.2 2.5 2.2 5.5-.7 7.9-1 .8-3.1 2.7-4.3 2.6-1.7-.1-3.1-2.7-3.1-4.3-.2-3.9 4-6.4 8.1-6.2zm-26.9 7.2c.2 4.2 4 2.7 4.1 6.2 0 3.1-4.5 6.6-7.4 3.8-.2-.2-2.6-4.2-2.6-4.6-.6-3.2 2.7-5.9 5.9-5.4zm56.7 11c-.3 3.8-4 6.4-7.7 4.6-.1-3.9 4.4-7 7.7-4.6zm227.2 5.6c.6 3.5-1.5 6.3-4.3 7.2-1.1 0-1.2-1.1-1.9-1.4-1.5.5-3.5 1.7-5.5 1-.4-3.4 3.5-5.8 7.2-5 1.3-.9 2-2.3 4.5-1.8zM85.4 460.9c-.6 3.6-2.1 6.2-5.8 6.7-.9-1.4-2.4-2.8-2.4-4.6-.1-2.1 2.7-5.3 5-4.8 1.6.4 1.4 2.4 3.2 2.7z"/><path class="st0" d="M570.2 490.2v7.4c-19-12.5-39.6-23.3-67.7-26.4 2 12.9 2 28-2.2 39.1-2.9 7.8-7.1 14.6-12.5 20.4-2.8 3.1-4.7 6.3-10.3 5.3 17.3-10.5 26-37.4 19.4-65.3-20.4-.1-36.8 5.3-49.2 15.1-6 4.8-10.5 10.1-15.1 17-5.9 8.8-10.5 19.1-8.4 33.1-1.7-.2-4 .3-5.3-.2-.6-11.8 2.9-21.3 7.4-29 13.6-23.1 34.5-39.2 69.1-40.8-6.5-24.7-18.7-42.8-35-57.6-8.1-7.4-17.3-13.3-26.4-19.9s-19.5-11.2-29-17.5c-2 .7-4 3.6-5.8 5.3 5.9 4.5 11.2 9.6 15.4 15.8.2.8 1.6.5 1.9 1.2-.1 2.6 1.8 4.1 2.9 6.2 5.6 10.7 8.2 24.2 8.9 39.8.8 17.6-.3 35.4-4.8 50.2-.3 1.3.8 1.3.5 2.6-2.5 3.7-3.5 9.1-5 13.9-3.3 10.5-7.2 20.7-11.8 30-1.1-.2-2.9.3-3.6-.2 5.5-12.6 10.8-25.4 14.2-40.1-5.4.4-7.7-3.2-10.3-5.8-.6-.6-1.3-.7-1.7-1.2-2.8-3.7-3.2-8.7-2.9-13 .5-6.2-.1-13.4-.5-20.2-.4-6.8-1.2-13.3-2.2-18.7-1.8-10.2-4.4-19.9-9.4-27.1-1.1-1.6-2.2-2.1-2.2-3.1.1-1.5 2-2.5 3.4-3.4 1.4-.4 1.7 1.2 2.6.5 4.7-3 9.6-5.8 14.6-8.4-3.2-6.2-9.3-9.4-13.2-14.9-6.3-4-10.5-9.4-16.3-14.6-4.5-4-9.3-8-12.2-12.7-3.1-5-1.3-10 .7-15.1.9-2.2 3.1-5.3 3.1-7 0-.7-.7-1.6-1-2.4-.9-3-1.6-5.9-1.9-8.9-1.1-11.7 3.4-19.2 7.9-25.2 3.4-4.6 8-8.7 12.7-12.2 1.2-.9 4.4-2.5 4.8-3.6.5-1.8-.9-4.7-1.4-6.2-.8-2.4-1.3-3.8-2.2-5.5-3.8-7.7-6.4-13.5-13.4-17.5-1.6-.9-10.1-3.9-10.3-5.3-.3-1.5 2.3-3.8 3.8-3.8 2.2-.1 4.8 1.9 7.2 3.1 2.4 1.2 5 2.6 6.7 3.4-4.3-16.6-20.5-21.4-33.6-29.3 1.2 4.4 5.8 7.8 4.8 12.7-.2 1 2.1-1 2.4.5-2.8 6.3-8.6 9.5-11.3 15.8 3.4 1.9 5.7 5.5 9.1 7.4 1 .6 2.3.3 3.1 1.4-.7 2.8-2.9 4.2-6.2 4.3-3.9 2-6.3 4.8-9.4 8.2-4.6 5.1-8.2 9.9-11.5 16.3-1.4 2.6-4.3 7.3-4.3 9.8 0 1.6 1.5 4.9 2.2 7.2 5 17.1 10.2 34.9 15.6 50.6.2.7 2-.2 1.9.7 4.2 13.2 7 28.2 9.1 43.9 2.1 15.7 4.3 32.1 4.3 49 0 17.6-1.5 33.5-4.6 48.7-3.1 15-6.8 28.9-11.5 41.8-1.1-.2-2.9.3-3.6-.2 3.8-12.7 8-26.2 10.1-39.8-3.2 14-6.4 28-11.5 40.1h-4.6c1.8-5.7 4.4-11.9 5.3-17.8-2.2 6.2-4.7 12.1-7.4 17.8H328c5.7-12.8 11.2-27.1 14.4-41.5-5.8 13.4-10.1 28.3-16.1 41.5h-4.6c2.5-6.6 5.8-13.8 7.4-20.4-3.4 7.5-7.5 14.3-12.2 20.4h-6c.5-1 3.2-4.6 2.4-4.6-1.6 2.2-2.1 5.4-6.7 4.6 11.9-17.4 27.9-36.5 37.7-57.6 3.5-7.4 7.9-14.5 10.1-21.8.6-1.9-.2-4.3 0-6 .2-1.5 1-2.1 1.2-3.4.5-3.5-.2-7.8-.5-11.8-1.9-26.5-5.6-52.6-11.3-74.4-.5-.5-1.9 0-1.9-1-5.5-15.4-10.5-32.1-15.1-48-.7-2.4-1-5.2-1.9-7.2-1.9-3.9-6.6-7.1-9.6-10.1-1.2-1.2-2-2.9-3.1-3.8-2-1.5-4.5-2.3-6.7-3.6-1.9-1.1-3.6-2.6-5.5-3.8-3.8-2.3-8.5-3.6-13-5.5-10.8-4.5-19.3-10.3-30.5-12.7 1.2-2.9 3.2-5.2 4.8-7.9 1.6-2.7 3.3-5.3 4.8-8.2-6.1-1.6-15.8-.5-22.1-1.2 3.4-12.7 5.8-27.2 10.8-37.9.6-1.3 2.5-3.1 2.2-4.1-15 1.8-31.7 2.6-43.9 6.5-10.9 3.5-20 10.2-28.1 17.3-7.9 6.9-17 13.4-23.3 21.8-3.1 4.1-6.2 8.7-9.4 13.2-3.1 4.5-7.5 8.8-9.4 13.4-.8 2-1.1 4.1-1.7 6-.7 2.1-1.6 3.9-1.9 6-1.4 8.3.1 17.4 2.2 23.8 1.3 4.1 4.3 8.1 6.5 12 2.6 4.5 4.6 9.4 7.4 13.9 2.6 4.3 5.6 8.9 9.1 12.2 6.5 6.3 13.2 12.9 21.1 17.3 8.3 4.6 16.7 8.7 25 13.4-.3 1.2-.9.9-.5 2.2.2.6 1.4 1.5 1.9 2.2 6.1-12.1 14.2-22.2 23.8-31-3.3-5.7-7.1-10.9-11.3-15.6-6.7-12.7-17.1-21.8-29.5-28.8.3-.1 1.2.3 1.2-.2-2-.4-3.1-2.4-5.3-2.9-2.3-.5-5.6 0-8.2.2-2.4.3-5.2 1.4-7 0 .3-4.4 5.6-3.8 8.9-5.3-.7-3.1-5.1-4.5-7.4-6.7 3.5-8.4 10.7.8 14.4 3.6 7.6-6.3 15.3-13.5 22.1-20.6 2.4-2.5 5.2-4.7 7.2-7.2 1.6-2 2.2-5.8 6-5-.1 5-5.7 7.9-7.7 11 .7-.7 2.4-2.8 2.9-2.2 2.5 8.5 5.8 16.1 10.3 22.6-.2-7.6-2.1-20.2 5.8-19.7.4 2.3-.2 3.4-.2 5.3-.5 13 2 22.5 6.2 30 1.2 2.2 2.4 4.6 3.8 6.7 7.4 11.3 17.3 16.2 31 21.1 2 .7 6.8 2.1 7.2 3.4.6 2.2-2.8 5-4.6 5-2.5.1-5.9-2.2-8.6-3.1-3.2-1.1-6-2.3-8.4-2.9 1.3 4.1 4.7 8.8 4.8 13.9 0 1-.5 2.1-.5 3.1.1 2.9 1.1 5.9 1.2 9.1.1 3.3.3 6.7-.5 10.1 3.1 2 5.5 3.7 9.4 4.8 3.8 1 7.8.7 13 1.2 3.1.3 6.3 1.7 9.8 2.6 2.3.6 8.4 1.6 8.6 4.1.2 2.3-4 4.9-6.2 5.3-6.4 1.2-15.2-1.1-20.4 1 5.3 1 10.5 3 15.4 4.8 3.5 1.3 7.8 2.6 10.8 4.3 1.1.6 2.1 1.5 2.6 2.6-.9 4.1-8.4 3.5-12.5 2.9-1.9 2.9-2.9 6.9-4.6 10.1.4 2 3.6 3.2 2.9 5-.6 1.6-3.3 1.4-5.5 1-3.8 7.4-8.2 15.6-12 24-2 4.4-3.3 8.6-5.8 12.2-2.3 3.4-5.3 6.9-8.6 9.6-2.3 1.9-7.5 4.8-10.6 5.3-3.7.5-7.5-.4-10.8.2-1.1.2-2.1 1.1-3.1 1.2-4.3.4-9.3-1.5-13-2.6-4.1-1.3-7.7-2.8-10.6-5-3.7 8-6.8 16.5-9.6 24.5-1.5 4.2-2.7 8.2-4.3 12-3.9 9.1-10.4 15.9-15.1 23.8h-9.8c4.3-5.2 7.6-11.8 11.3-17.8 2.7-4.5 5.5-8.7 7.9-13.4 3.6-7.1 7.1-14.3 10.3-21.8 1-2.3 2.9-4.3 4.1-6.7 1.4-3 2.4-6.3 3.6-9.4 4.8-12.1 12.2-22.8 18.7-33.4 1.6-2.7 3-5.6 4.8-8.4 1.5-2.3 3.3-4.7 5.3-7.7 1.5-2.2 5.2-7 5-7.7-.2-1-2.2-1.7-3.1-2.6-1.8-1.8-3.4-4.3-5.5-6.2-2.2-1.9-4-4.2-6-5.8-3.5-2.8-8.7-3.8-12-6-2 3.9-7 5.1-10.8 7.2-1.3.7-2.1 2.6-3.8 2.2-1.6-3.1-2.7-5.9-4.8-8.4-2-2.5-4.5-4.1-6.7-6.5-1.1 1.8-1.9 4.4-2.9 6.7-1.6 3.7-4.4 6.2-6.7 9.6-5.5 7.9-11.6 15-18.5 21.1-9.3 8.2-18 16.7-28.3 24.5-17.8 13.3-35.3 25.8-55 37.4-2.7 1.6-7.1 4.4-9.6 3.8-.8-.2-2.2-2.2-3.1-3.4-3-3.8-5.3-8.2-7.4-12-3.1-5.4-6.9-11.2-10.3-15.8-5.5-7.5-10.5-15.2-16.3-22.8-1.5-1.9-5.4-5.5-5.3-7.9.1-1.8 2.4-4 4.1-4.6 1-.4 2.3-.2 3.4-.5 1.2-.3 2.1-1.2 3.1-1.4 1-.3 2.1-.2 3.1-.5 11.9-3 23-6.4 33.4-10.1 10.1-3.5 19.7-9.4 28.1-15.4 8.5-6 17.3-11.7 25.4-18s16.4-12.5 22.8-20.9c-7.8-9.2-14.1-19.8-18-32.9-1.1-.2-1.7 1.4-2.4.7-2-9.2-4.2-17.5-3.1-28.1.3-2.9 1.9-6.1 2.9-9.4 1-3.4 2.3-6.3 3.8-8.6 6.7-10.4 13.3-20 20.9-28.8 5.8-6.8 13.3-12.3 19.9-18 6.9-6 14.7-12.3 23-16.6 11.7-6 27.3-7.9 43-9.8-16.1-7.4-37.8-4-54.7.5-9.5 2.5-18.4 5.9-26.4 9.4-34.4 14.7-61.8 32.7-99.8 43.7-17.9 5.2-43.1 7.8-63.8 2.9v-5.5c23.4 6.4 50 2.8 70.3-3.4 51.4-15.6 84.7-47.1 142.8-55.9 13.8-2.1 30-.2 38.9 6 1.1.8.5 1.6 1.9 1.9 1.1.3 3.5-.5 4.6-1 3.7-1.5 7.4-6.7 10.6-7.7-5.7-3.7-8.9-8.5-14.2-12.2-6.3-4.6-13.9-6.4-21.8-8.4-26-6.7-56.5-.6-77.3 7-14 5.1-30.4 10.2-46.6 13.4-17 3.4-37.4 4.2-55.9 3.1-6.4-.4-13.1.6-18.2-.7-3-.8-5.9-2.4-9.1-3.1-10.1-2.4-17.5-5.9-25.9-10.3v-6c6.8 1.3 12.4 6.4 19.7 8.9 3.4 1.2 7.5 1.8 11.5 2.9 3.8 1 7 3.2 10.6 3.6 5.8.6 11.7-.3 17.8.2 30.4 2.6 56.9-3.5 79-10.3 18.7-5.8 33.8-12.5 56.2-15.6 10.5-1.5 23.7-.8 33.8.5 9.7 1.2 20.2 4.3 27.6 8.4 6.1 3.4 10.5 10.2 17 14.4 0 0 2 1.4 2.6.7 1.2-1.2-1.2-4.6-2.2-6.5-1.2-2.5-2.7-4.3-3.8-5.8-3.2-3.9-5.6-7.4-7.7-11.5-4.5-9-5.7-21.5-3.1-32.4-.7-.6-1 .7-1.7 1-1.8.7-6.4.3-7.2-1.9-.6-1.7.9-2.5 1.2-3.8-2.2-.2-2.3 2.2-4.6 2.2-2.5-.1-6.8-3.4-8.6-6.2-1.1-1.8-1.8-3.9-2.2-5.5-1 .6-1.7 3.6-4.6 3.1-2.2-4.7-2.3-10.3-1.4-15.6.4-2.5 1.4-4.9 1.7-7.4.3-2.8.2-5.6.7-8.2 1.9-9.9 6.1-18.8 11.5-24.5 2.9-3 6.5-5.3 10.1-7.9 3.5-2.6 6.9-5.2 10.6-7.4 7.9-4.7 17.5-7.2 28.6-7 7.6-9.2 22.2-13.8 39.1-11 11.5 1.9 20.5 6.4 29.8 11 4.7 2.4 8.6 4.5 12.2 8.2 3.2 3.2 6.6 6.8 9.8 10.6 6.6 7.6 11.2 17 14.6 26.2 3.9 10.4 7.7 18.2 9.1 31.7 2.6 25.3-8.6 44.9-24.5 55.7-3.9 2.6-8.8 4.8-13.7 6.7-4.5 1.7-10.3 4.3-15.8 4.6-2.7.1-6.2.5-9.1 0-.7-.1-1.6-.9-2.6-1.2-2.3-.6-4.1-.5-6-1.9-.5-.4-1-2-1.9-1.2-.4 5.4-1.8 9.7-2.6 14.6 1.7 1 3.4 2.1 3.8 4.3 2.9 1 5.3 3.1 7.7 5 11.6 9.2 27.8 13.5 37.7 25.2 1.9 2.3 3.2 4.6 4.3 8.2 1.3 4.2 4.2 9.2 1.7 13.2 3.9 6.6 8.1 12.8 8.9 22.6 2.1-1.2 4.1-.9 6.2-2.2 1.7-.9 2.5-3.2 4.6-3.8 3.7-1.1 7.3 0 11.3.5 2.2.3 4.6 1.3 6.5 1 1.4-.3 3.4-2.6 5-3.1 1-.3 2.7-.4 4.1-.7 3.5-.9 9.7-2 12.2 1 1.5-2 8.6-5.4 8.9-.7 4.6-4.9 13.2-1 17.5 2.2 1.9 1.4 2 3.8 3.6 4.6 3.7.1 5-2.9 7.4-5.3 4.9-4.8 10.7-8.3 19.4-9.6 6.5-.9 13.8.6 18.2 3.8 2.5 1.8 6.4 5.8 7.7 9.1 4.3 11.4-.6 21.5-7 28.6-6.6 7.3-15.8 10.6-28.6 10.3.8-1.1-1.2-1.1-1.4-1.2-6.5-3.3-12.4-9.5-12.7-19.2-1.8-.1-3.6-1.3-6-.7-1.4.3-2.9 2.7-4.3 3.8-1.9 1.4-4.1 3-6.5 3.4-10.3 1.7-24.3-.3-33.1-3.4-2.5 7.1-3.9 15.3-6.7 22.1 1.8 1.8 3.5 4 5 6.5 2.2 3.6 4.3 7.4 2.4 12.2-1.1 2.7-3.6 5.3-5.5 8.2-5.2 7.7-12.5 16.6-18 23 20.8 11.3 40.5 23.6 57.1 38.9 8.5 7.8 15.9 16.1 21.6 26.4 5.7 10.2 9.9 21.5 13.9 34.1 28.7 2 49.2 12.5 68.5 24zm-180.7-331c2.9-5.4 7.1-8.8 8.6-14.6.1-.2.2-.7.2-.7 1.9-15.3-2.9-27.2-6.7-38.2-8.1-23.2-18.9-41.2-39.8-51.1-4.6-2.2-11.2-4.1-16.8-6-2.7-.9-5.1-1.8-8.4-2.9-3.6-1.2-12.5-2.6-6-5.5.7.8 1.3.9 2.2 1.2 11.4 4.3 22.9 6.4 32.2 11 9.3 4.7 17.3 11.2 23.8 19.4 6.1 7.8 10.6 18 14.6 28.6 4 10.4 7.2 22.4 8.2 35.3 3.2-9 .6-18-1.9-26.6-4.8-16.7-11.8-31.7-20.9-42.7.1-1.4 1.5-1.6 1.9-2.6-4.6-4.6-8.5-9.7-14.6-13.2-5.9-3.3-12.3-6-19-8.9-12.1-5.3-34.1-8.1-44.9 1-1.2.4-1.4-.9-2.2-.2-2.6 1.7-2.2 6.3-5.8 7-2.3-2-6.6-.5-10.1 0-8.2 1.2-15.1 3.4-19.7 7.2-1 .8-1.7 2-2.6 2.6-.7.4-1.7.5-2.4 1-11.1 6.6-18.1 16.9-19.7 31.7 4.7-5.6 12.2-9.7 19-13.7 2.3-1.3 4.3-3.8 7.2-3.6-.2 3.5-3.9 5-6.2 6.5-7.7 4.9-17.1 8.5-20.6 17.5-1.9 4.9-2.7 14.9 0 19.4-1.1-8.9 2.6-15 7-19.2.5-.6 1.7-.3 2.4-.7C256.1 88.9 266 82 279 78c4.2-9.8 9.7-18.5 20.4-21.8-2.2-1.8-2.7-9 1.2-9.4-1.1 5.3 1.9 9.1 5.3 9.8-3-2.2-1.7-8.4 2.6-8.2.6 4.9 5 9.2 9.6 12 2.7 1.6 5.9 2.6 8.4 4.6 1.8 1.4 3.5 4.4 5.3 5.8 2.5 1.9 5.6 3 8.2 4.8 7.3 5.1 11.5 13.9 13 25 .9 7.3-.7 15.1 0 24 .4 4.8 1.6 10.8 3.6 14.6 2.3 4.4 6.9 7.6 9.8 11.5 3.7 4.9 8.4 11.4 7.7 19.7 2.7-5.8 7.7-14.1 4.3-22.1-1.8-4.4-5.7-7.3-7.7-11.5-2.1-4.4-2.9-9.4-4.1-15.1-2.1-10.5-3.6-21.6-7.9-30.5-4.2-8.6-10.3-15.9-16.8-21.6-6.8-5.9-16.5-8.5-20.9-17.5.6-.9.9-2.1 2.4-2.2 2.3 5.6 8.3 8.7 13 11.5 15.4 9.4 25.2 23.6 30.2 43.7 2.4 9.8 2.9 21.9 7 30 2.1 4.1 5.7 6.8 7.4 11.3 4.1 10.4-4.3 24.3-9.4 29.8-1.4 1.5-2.4 3-3.8 4.1-.4.3-1.4.5-1.2 1.2 3.9-1 6.5-2.4 8.9-4.3 8.1-6.7 14.4-24.4 11.3-38.9-.8-3.7-2.3-7.3 2.6-7.9 4 6.9 2.1 21.6.1 28.8zm-61.9-28.6c-2.5-1.5-.9-6.6 1-7.4-3.1.1-5.5 0-7.4 1-1.2.6-1.5 2.4-3.1 2.4-.1-.3-.4-.4-.5-.7 2.8-4.4 11.6-3.6 16.1-5 0 .9-.8.9-1.2 1.4 1.3 0 1.4-1.1 2.6-1.2.2.9-2.2 1.6-.5 1.7 1.6.8.8-1.6.7-2.6-.1-1.4-.4-3-.2-4.1-4.4-3.4-11.5 1.5-15.8-.5-.2-.9.5-.9.5-1.7 4.1-1 10.4-1.4 14.9-.5-1.1-7.9.3-15.3-.2-21.8-.4-5.1-2.1-9.1-4.1-12.5-1-1.7-2-3.7-2.9-4.8-4.9-6.1-11.4-8.4-17.8-13.2-3 .9-6.3-2-8.9-3.1-9.3 1.9-13.6 8.1-17.5 15.6s-7.5 15.1-10.6 23c-1.5 3.8-1.7 8.2-2.4 12.5-1.3 8.5-3.7 16.8-5 24.7-3.9 12.4.5 26.3 4.8 34.1 1.6 2.8 4.3 5.3 6.5 8.2 3.3 4.3 5 8.8 8.4 11.8 7.3 2.7 14.4 6.9 24.7 5.3 4.6-.7 8.7-4.3 13.2-6.5 4.9-2.5 9.9-3.6 13.9-6-1.9-5.5 1.4-10.6 4.8-11.5-.1 4.4 2.9 7.8 6.7 7.2 2.2-.3 3.4-2.8 4.8-3.6 2.5-8.1-4.1-14.5-3.8-20.6-4.4-5.4-8.6-10.9-11-18.2-.2-.4-1.2.1-1-.7-.6-1.5 0-5.3-1.7-7 0 4.4-3.5 6.8-7.9 4.8-.4.3-.7 2-1.2 1.4.5-2.3-4.1-2.8-4.3-4.3 2 .2 3.6 2.5 5.4 2.4zm61.2-56.1c-1.3-1.6-3.2-5.2-4.1-5.8 1.3 1.8 2.7 4.8 4.1 5.8zm7.4 15.1c.2.5.5 1.5 1 1.2-2.1-5.5-5.4-12.3-8.2-15.6 2.7 4.1 5.1 9.8 7.2 14.4zM338.9 109c.4 6.1 1.2 11.8 2.4 17 2.5 10.5 8.4 17.8 14.6 24.5 3 3.2 6.6 6.8 8.6 11 4.4 9.1-.4 16.6-5.5 20.9 3.2-1.4 7.6-2.9 9.8-5.8 6.4-8.3-1.3-18.6-5.3-24-2.9-3.8-6.8-6.8-9.1-10.6-2.4-4-3.9-10-4.3-15.6-.6-8.3.7-15.4 0-22.1-1.2-12.7-5.5-23.2-14.9-27.8 5.4 7.3 2.9 21.7 3.7 32.5zm-88.8 15.4c-5.1-8.3 2.3-19 7.2-23 .8-.6 1.5-1.6 2.6-1.2-1 2.8-3.9 4.7-5.8 7.4-1.9 2.8-3.4 6-3.1 10.1.3 4.9 3.6 6.5 6.7 9.1-.1.9-.6.9-.2 1.7.6 1.3 5.3 2.9 6 1-9.4 1.3-7.5-20.5-.5-22.1.4 1.3-1.1 2-1.7 3.4-2.3 5.2-2.5 15.3 2.6 16.3 2.5-8 3.4-16.9 5-25.2 1.6-8.4 6.2-15 8.4-21.6-5.1 2-10 4-14.2 6.7-6.2 4.1-12.8 8.5-14.9 16.3-.8 2.9-.3 9.5-3.6 9.8-.8-3.4.9-7.6 1-10.1-4.5 6.5-1.8 19.7 4.5 21.4zm151.2-23.3c-.5-1.1-2.1-4.7-1.9-4.1 1.4 5 3.4 10.5 4.6 15.6.4 1.8.2 4.6 1.9 5-.4-4.7-2.6-11.7-4.6-16.5zm4.5 38.9c-.8.7-1 2-2.6 1.9-.7-1.1.7-3.4 0-4.6-2.7 6.3-3.5 14.1-6.2 20.6-1.8 4.2-4.1 7.5-5.8 11.3 10.8-10 19.1-29.8 14.9-49.9-.2 7.2.7 14.1-.3 20.7zm-76.3-13.2c.6.2.8.8 1.7.7.1-.3.3-.4.5-.5.3-2-2.2-1.6-2.2-.2zm57.1 38.4c-2.4 3.8-4.1 8-6.7 11.3 2.4-1.4 5.2-2.5 7.4-4.1 2.4-6.4 8.1-12.8 9.1-20.6-2 5.1-6.8 8.7-9.8 13.4zM353 177c-2.3 1.8-8 2.7-9.4 1 .5.9 1.9.9 2.4 1.7.5.9-1.1 1.4 0 1.4 7.3 1.8 14.1-1.2 15.6-6.2 2.3-7.8-4.6-14-7.9-17.5 3.1 5.2 3.7 15.3-.7 19.6zm-20.8 7.9c-2.4 1.3-5.4 1.9-8.2 3.1-3.7 1.6-7.1 4.6-11 6.2-9.7 4.1-21.2.4-30-3.8-.2 1.5-.3 3-.7 4.3 4.1 8.4 13.9 11.8 25.2 13.2 1.6.2 3.6.2 5.3 0 6.2-.8 13.5-2.3 17-5.5.6-6 3-11.4 2.6-17.5h-.2zm-58.1 11.3c-4.5 2.1-8.1 5-10.8 7.9-3.2 3.4-4.3 6.9-6 11.8-2.9 8.2-5.1 17.6-7.7 27.6 6.8.2 14.5-.6 19.7 1.2 2.9-2.6 5.4-5.6 7.2-9.4-.4-1.6-1.9-2.9-2.4-4.8-.8-3-1.5-3.3-2.9-5.5-4.1-6.6-5-16.3-1.4-24 1.2-1.5 4.8-3.6 4.6-4.8h-.3zm0 15.1c2.8-2 1.9-7.7 2.6-11.8-6.1 1.1-4.3 7.1-2.6 11.8zm4.3-3.6c4.7.3 2.8 9-1.2 9.4 2.2 3.3 4.9 6.1 8.9 7.7.7-3.6 2.5-6 7-5.8 1.4 1.3 2.5 2.9 2.2 5-.3 2-2.7 2.6-2.6 4.1 5 .6 11.7 2.5 18.7 1.7 2.8-.3 6.9-1.7 9.8-2.9 3.3-1.3 7-2.1 9.6-3.4 1.6-.8 5.4-3.9 5.8-5.3.6-2.4-.9-4.5-1.7-6.5-.1 3-1.5 4.8-3.8 5.5-.1 4-2.1 6.1-5.5 6.7-3-2.5.3-7 3.1-7.4-1.1-3.2 1.7-6.1 6-5.5-.7-2.3-1.7-4.2-3.1-5.8-2.4 2.3-5.9 3.5-9.1 5 3.1 5.6-8.4 11.1-7.2 3.6.2-1.1 1.5-1.8 1-2.4-5.4 1.7-13 1.3-18.5 0-.3 2.6-1.7 5.2-4.1 5.5-1.4.2-2.3-.9-3.8-.5-2-2-.5-5.6 1-7-5.2-1-7.5-4.9-11.3-7.4-1 1.6-.8 3.9-1.2 5.7zm73.4 24.9c-2.5-6.5-7.7-11.5-7.9-19.4-.9-.9-1.8-1.9-3.1-2.4.9 11.1-1.5 23.1-3.6 33.4 1.4-1.5 4.9-.6 7 .5 2.5-4.7 7-8.7 9.6-12.5-.3.5-1.1.5-2 .4zm-28.8-2.4c-4.8 1.8-10.1 3.9-14.6 4.3-11.8 1.2-21.5-2.4-28.8-6 1.7 3.6 4.5 6 5.3 10.6 3.4 5.2 7.6 9.6 11.5 14.4 1.2 1.4 1.9 3.2 3.1 4.6 6.6 7.4 14.7 13.5 21.4 20.9 7.4-16.1 13.7-34.6 15.1-55.9-2.8 3.4-7.4 5-13 7.1zm-53.5 20.2c-1.8 2.8-3.2 5.7-4.8 8.4-.5.7-1.5 1.4-1.2 2.4 9.1 2.8 17.8 7.7 26.6 11.5 4.4 1.9 9.4 3.4 13.4 5.8 2 1.2 3.8 2.7 5.8 3.8 2 1.2 4.4 2.1 6.2 3.4 1 .7 2.3 2.8 3.1 2.4-3.5-9.2-12.5-13.6-18.7-20.4-8.1-8.9-14.8-18.4-22.3-27.8 0-.1 0-.3-.2-.2-2.5 3.4-5.4 6.7-7.9 10.7zm66.7-2.4c-3.3 12.9-8.4 23.9-13.4 35 .8 2.1 1.7 4.2 2.9 6 5.9-12.9 14.4-23.3 24.7-31.9-4.8-2.9-7.8-7.7-14.2-9.1zm162.5 17.8c2.9 1.8 5.9 5 9.6 2.2-.6-1.2-1.5-2.1-2.2-3.4-3.1-.3-4.8.8-7.4 1.2zm12 1.2c1.2-.5 2.8-.5 3.8-1.2-2-.4-4.1-.7-6-1.2.6 1 1.1 2 2.2 2.4zm-14.6.2c-4-.2-8.8 4.9-9.4 7 2.3-2.2 6.6-.9 7.2 1.9 2.7-1.9 5.1-4 8.4-5.3-1.6-1.7-3.8-3.5-6.2-3.6zm15.3 1.2c1.6 1.5 2.8 3.3 4.1 5 2.4-.6 4.3-1.6 7-1.9-.7-3.3-6.9-5.8-11.1-3.1zm-1.9.5c-1.4.4-2.9.8-3.8 1.7 1.9 1.4 3.1 3.5 4.8 5 .7-.9 2.5-.7 3.1-1.7-1.4-1.6-2.8-3.3-4.1-5zM436.8 290c1.5.2 3 1.4 5 1.9 6.7 1.6 19.8 2.6 25.9 1.2 3.6-.8 5.7-4.7 6.2-8.6.7-5.2-.7-12.5-5.3-14.2-2.2-.8-2.3.5-3.8 1.2-1-.3-2.7-1.1-3.6-.7 2.2 1.7 5.8 3.5 6.7 6.7 1.3 4.3-2.1 11.9-6.7 11.3.1-2.7 2.8-4.1 2.2-7.2-.2-.9-1.5-2-2.2-3.4-1.5-3.3-1.8-6.9-5.5-7-.8.6-1.9 1-1.9 2.4 3.4 3 .3 10.7-3.8 9.8-.9-1.1.8-2.1.7-3.8-.1-1-1-1.6-1.4-2.6-.3-.8-.2-1.7-.5-2.4-1-2.2-3.4-4.3-4.6-4.3-1.3 0-2.8 1.1-2.9 2.2-.3 1.3 1.8.3 1.7 1.4 2.8 4.9-.8 9.9-3.4 12.5-6.8 0-13.1 1.3-19.7.2-2.1 4.2-4.5 8.1-6.7 12.5-2.4 4.8-6.4 9-8.2 13.9 3.1 5.9 5.7 12.2 11.3 15.6.8-3 3.3-5.9 2.9-8.6 4.7-7.3 5.8-18.3 9.1-27.1-1.1-.2-2.7.2-2.9-1-.2-.9.5-.9.5-1.7 4.8.6 6.8-.8 10.9-.2zm66.7-18.5c-1.4.5-2.6 1.1-3.6 1.9 1.9 1.4 3.6 3 5.3 4.6.8-.9 2.4-.9 3.1-1.9-1.6-1.5-2.8-3.5-4.8-4.6zm20.2 1.2c-2.3-.5-4.5 1.6-7.2 1.7 1 2.8 2.8 4.7 3.1 8.2h2.6c-.4-1.5-.2-3 1.4-3.1-.1 1.4.3 2.3.7 3.1 1.8-.2 2.5.5 4.1.5-.6-3.4-1.7-9.7-4.7-10.4zm-25.7 1.7c-1.2.9-2.5 1.8-3.6 2.9 2.2 7.8-3.3 11.7-7 15.1.6 3.9 2.3 6.9 5 8.6 1.4-1.4 3.4-2.2 4.3-4.1-.6-.1-1.1-.2-1-1 .3-.9 1.2-.8 1.7-1 .1-2.5 1.6-3.6 3.1-4.6.6-2.8-.1-5.7-1.4-7.2.9-2 2.4-3.3 4.1-4.6-1.7-1.2-3.4-2.7-5.2-4.1zm-68.9 2.2c-2.3-.1-4.6.5-6.7.2-3.6-.5-7.6-1.7-11-2.2-.8 1.5-1.3 3.5-.7 5.8 3.1 1.2 6.7.3 10.1.7 5.4.6 13 3.2 18.5 1 .2-1.9-.2-3.1-.7-4.3-3.4.3-6.4-1-9.5-1.2zm85.5-1.2c-1.4.2-2.7.7-3.6 1.4 1.6 2 2.7 4.3 3.6 7 1.1-.3 2.2-.6 3.4-.7-.7-3.1-2-5.5-3.4-7.7zm-5.3 2.1c-1.4.1-2.1.9-3.4 1.2 1.1 2.2 2.7 4.1 3.1 7 1.4-.5 3-.7 3.8-1.7-1-2.3-2.2-4.4-3.5-6.5zm-109.9 2.7c.7 10.7-1.5 18.7-4.8 24.7-2.2 4-5.3 6.7-8.2 10.6-3.4 4.5-5.8 9.7-8.9 14.9 1.2 2.1 2.5 4 3.6 6.2 6.8-7 11.8-15.9 19.2-22.3 1.4-4.6 5.2-7.7 7.7-11.8 3.1-5.1 5.1-11.1 8.4-16.3-3.4-.7-8.4.2-10.6-1.7.1-2.2-.4-3.7-.2-6-2.6 0-4.3.9-6.2 1.7zm89-1.5c-1.8.5-6.6-.1-9.6.5.3 2.9-.6 4.5-1 6.7 4.3-.5 8.7 1.8 12 0 .7-2.7 0-5.8-1.4-7.2zm15.4 1.2c-1.1.7-2.3 1.4-2.9 2.6 1.6 1 1.5 3.8 1.4 6.5 1.9-.6 3.1-1.9 5-2.4-.5-2.8-1.6-5.2-3.5-6.7zm-300.3 14.7c-1.7 1.7-3.8 3.1-5 4.6-.4.5-1.8 2.6-1.7 3.4.3 2.4 4.6 2.9 6 4.8-.4 0-.8.2-1 .5 1.9.9 3.7 1.9 5.5 2.9 5.1-5.1 12.3-8 17.3-13.2-2.8-5.2-5-11-7-17-3.8 4-9.7 9.6-14.1 14zm179.8 19.9c1.6-2.1 3.6-3.5 5-5.5 4.7-6.5 6.8-13.8 6.2-25.9 0-.1 0-.3-.2-.2-13.1 6.9-27 23.9-18.2 43.4 2.5-4 4.4-8.2 7.2-11.8zm135.3-29.1c-.2-1.8-2.2-.5-3.4-.5.1 2.8 3.1 8.4-.2 9.4-.3-3.2-.7-6.2-1.7-8.6-1.5.1-2.4.9-3.8 1.2.5 3.5.4 8.1-.7 10.8 4.6.1 8.1-.9 11.5-1.9 1.5-3.2 3.3-7 2.4-11.8-2.1-.3-2.8.8-4.1 1.4zm3.4 9.9c.5-.3 1.8-1.1 2.4-.5-.3 1.4-1.9 1.6-3.4 1.9-2.2 3.1-4.6 6-7.4 8.4 8.7-2.8 13.8-9.3 14.9-19.7-1.1-.7-2.4-1.1-4.1-1.2.8 4.3-1.5 8.5-2.4 11.1zm-22.6.9c2.5.6 4.8 1.4 7.9 1.4 1-2.7 1.1-6.7.5-9.8-4.6 1-6.8 4.4-8.4 8.4zm-.2-3.1c-.9 2 1 .1.7-1-.2.6-.6.7-.7 1zm-1.4 4.6c-1.2 1.7-3.1 2.8-4.6 4.3 2.5 2.1 4.6 4.7 9.1 4.8 1.9-2.1 3.3-4.7 4.6-7.4-3.5-.1-6.3-1-9.1-1.7zm10.3 1.7c-.8 3-2.7 4.9-4.1 7.4 8.4.4 11.4-4.6 14.9-9.1-3.4.7-6.6 1.7-10.8 1.7zm-277.2 9.1c-.6-2.3-2.6-5.1-4.3-7-5.9 4-12.2 7.6-17.3 12.5 8.2 4.9 13.8 12.4 19 20.4 1.7-1.4 2.8-3.4 4.1-5.3-.9-.8-1.6-1.7-2.6-2.4-.5-3.8 1.5-6.5 5.3-6.7 1.2.7 1.5 2.2 2.2 3.4.3-1.6 1.2-2.6 1.9-3.8-2.3-4.3-5.7-7.4-8.3-11.1zm169.9 9.6c-6.7 6.3-11.7 14.2-17.5 21.4 7.6 8.5 13.2 19 23 25.2 7.5-7.5 14-15.9 19.7-25.2-13-2.6-20.2-10.9-25.2-21.4zm19 12.9c3.1 1.1 5.5 3 9.1 3.6-1.1-4.9-3.8-8.2-6.2-11.8-1.3 2.5-2 5.5-2.9 8.2zm-188.9 6.8c2.1 3.3 4.1 6.6 7.7 8.4 1.6 3.3 4.1 6.2 6 10.1 1.8 3.6 3 8.4 5.3 11 3 3.5 9.1 3.2 15.6 2.9-1.8-11.7-6-21.1-11-29.5-.6-.6 0-1.2 0-1.9-5.3-4.1-9.7-9-13.2-14.9-3.4 4.7-7.3 8.8-10.4 13.9zm140.9 9.6c1.5-2.3 3.8-3.9 5.3-6.2-1.2-1.5-1.9-3.4-3.1-4.8-2.9 1.6-4.7 7.7-2.2 11zm6.9-3.6c-1.6 2.3-4 3.9-5.3 6.5 6.8 8.8 16 15.3 23.5 23.5 1.8-1.4 3.8-2.8 5-4.8-10-6.1-15.2-17-23.2-25.2zm-256.3 44.4c-13.5 9.2-26.9 19.8-43.4 25.4-11.3 3.8-22.9 8-35.8 10.3.7 2.3 2.4 4.1 3.8 6 1.5 2 3.1 4 4.6 6 5.8 7.9 12.4 16.2 17.3 24.5 3.4 5.8 6.4 12.2 10.3 17 .9 1.1 1.5 2.7 2.9 3.4 20.8-10.8 39.8-25.2 59-39.1 9.3-6.7 16.9-15 26.2-23 4.1-3.6 8.4-7.6 12.2-12.2 1.8-2.1 3.3-4.7 5-7.2 1.8-2.6 4.2-4.8 5.3-7.2 1.8-3.9 3-7.8 5.5-11.3-13.6-6-25.1-14.1-34.6-24.2-10.5 11.8-24.8 22.4-38.3 31.6zm115.7-27.9c-7.6 4.2-11.3 12.2-16.6 18.7 3 2.6 5.8 5 9.6 6.7 3.6 1.7 7.9 3.2 10.6 5.8.9.8 1.3 2 2.2 2.9 3.4 3.4 7.3 5.9 10.1 10.1-.1.8.2 1.1.2 1.7 8 8.5 10.8 23.6 21.1 29-2.2-3.8-2.7-8-5-11.3-2-2.8-5.3-4.8-5.5-8.9.5-.3.8-.8 1.4-1 6.5 3.8 13.3 8 21.4 10.3 1.3.4 2.5 1.3 3.6.7.8-1.6-1.3-2.5-2.2-3.4-5.2-5.2-12.2-9.3-17.3-14.4 1.3-2.9 5.8-1.2 7.9-.7 2.6.5 5.5.7 8.4 1.4 2.8.7 5.7.7 8.4 1.4 3.4 1 8.1 3.3 12.5 1.7-7.6-2.7-15.1-6.2-23-8.2-2.6-.7-5.3-2.2-7.9-2.6-1.6-.2-3.7.6-5-.7.4-5.6 5.7-3.6 11.3-4.3 4.2-.6 9.9-.9 14.2-1-8.5-3.5-19.6-1.5-26.9-5-3.7-1.8-5.8-5.5-10.1-4.3-2.4-3.2 2.3-3.8 4.6-4.6v-3.8c-5.6-1.1-12.5.5-17-1.7-.8.1-1.4.4-2.4.2-4.4-3.4-4.9-10.6-8.6-14.7zm-22.8 31.2c2-1.7 4.2-3.1 7.2-3.8-1.6-.9-2.6-2.5-4.3-3.4-.7 2.5-3 4.8-2.9 7.2zm187.9 11.1c-2.4 1.4-5.6 2.5-6.5 5.3 8.2 14.6 11 36.9 11 60 0 3.4-.6 7.4 0 10.3.4 2.2 2.6 5.6 4.1 7.7 1.8 2.5 4.5 4.4 7.2 4.8 7.9-27.6 7.1-72.6-7.4-92.4-2.4.6-5.5 2.6-8.4 4.3zm-110.4 18.9c.2-1.4 1-2.8 1.7-4.1.7-1.3 1.8-2.7 1.7-3.4-5-.6-10.8-1.7-15.1-2.2 4.1 3 7.9 6.4 11.7 9.7zm-48 5.5c-5 9.1-10.9 17.4-15.8 26.4-2.5 4.5-5.1 9.3-6 14.6 3.7 3.1 8.1 5.5 13.7 6.7.8.4.9-2.2 2.2-2.2 4.5 3 13.1 4.9 20.4 3.6 4-.7 6.9-3.7 9.4-6.2 3.4-3.5 4.6-7 6.7-12 2.3-5.4 5.1-11.3 7.7-16.3 1.9-3.7 4.1-5.9 4.6-9.6.4-.9 1.8-1.8 1.4-2.6-5.4-2.4-11.4-4.1-16.6-6.7 1.9 4.5 4.5 8.1 5.3 13.7-.8 1.2-2 1.7-3.6 1.4-.9-.1-.8-.6-1.9-1.2-.7-.4-1.8-.3-2.2-.5-2.9-1.7-5.9-6.8-8.4-10.8-2.9-4.7-5.8-9.2-8.2-11.5-2.7 4.8-6.1 8.6-8.7 13.2zm106.6 45.4c.8-.4 2.2-.4 2.4.5.4-1.6-.2-1.5-.5-2.9.1-2.7 3.2-3.6 2.4-6.5-1.3 3.1-2.9 5.9-4.3 8.9zm1.9 3.6c.2-.5.9-1.8.2-2.4.3 1-.8 1.9-.2 2.4zm-9.1 11c1.6-.1 1.7-2.9 1.7-3.8-.4 1.5-1.4 2.4-1.7 3.8zM323 519.4c.2-.5 1.2-1.4.7-1.7 0 .6-1.3 1.3-.7 1.7z"/><path class="st0" d="M316.6 166.4c.3 1.4.5 3.1-.7 3.6-.5-.1-.1-1.2-.2-1.7-4.9-.6-8.3 2.2-12 2.6-6 .6-12.5-1-16.1-4.8-2.6-2.8-3-5.9-5.8-9.4-.8-.8-.5 1.1-1.7.7.1-1.3 1.1-1.6 1.7-2.4 1.1 0 1.1 1.1 1.9 1.4 5.3.6 10.2 1.6 12.7 5 7.5-.3 11 3.3 15.6 5.8 2 .4 3.6.1 4.6-.8zm-7.7 1.7c-3-.4-5.1-1.7-7.9-2.2-1.8-.3-3.8.5-5.5 0-1.5-.5-2.2-2.4-3.6-3.4-2.2-1.6-4.8-2.1-7-3.1 2.5 7.9 14.6 13.5 24 8.7z"/><path class="st1" d="M72.1 121.7c-3.7-5.5-13.8 11.2-18.2 19.4.2-5.9.1-11.8-.4-17.7-.1-.7-1.5-.2-1.8 0-4.7 4.6-8.4 9.8-11.2 15.7-.8-6.3-1-12.6-.7-18.9 0-.3-.1-.4-.4-.5-4.7-.9-10.7-1.5-15.4-1.6-.2-.1-.3 1.2-.3 1.2s-1.6 8.1.7 10.2c1.4 1.2 3.4 1 5.1.6-.2 7.5-.5 15-1 22.5-.2 3.9-.5 7.8-.9 11.6-.1 1.4 0 7.4-.7 9.4-.3.1 12.9 1.3 12.8.7-.8-8.8.9-17.2 4.8-25 2.5 6.3 3.6 12.8 3.3 19.6 0 .4 1 .2 1.1.1h4c.4.1 1.5-.1 1.6-.6 2-8.6 4.1-17.2 8.8-24.7-.1 11.2-.4 22.5-1.1 33.7 0 .4 6.3 0 6.4-.4 1.4-9.5 2.5-20.9 3.1-30.5.3-5.1.6-10.2.7-15.3 0-2.3 1.2-7.3-.3-9.5z"/><path class="st0" d="M80 139.3l-.6.1c-3.7 9.4-5.5 19.6-5.1 29.7 0 .9.7 3.4.7 3.4 5.4.1 10.8-.4 16-1.5-.6-3-1.1-6-1.7-9.1-1.5.7-6.5 2-6.5 2l-1.1-3.7 8-1.4s.2-2.9 0-4.6c-1.9 0-7.1 1.3-8.5 2.5-1-2.3-.3-4.4.3-6.8 2.7.2 5.3.4 8 .5.5 0 1 .1 1.5-.2s.6-1 .7-1.6l2.1-11.4c-4.4 1.1-9.1 1.8-13.8 2.1zm48.5.6c-4 1.4-8.2 2.2-12.5 2.5-2.1 8.8-4.3 17.5-6.4 26.3l5.7-1s.6-1.6 1-2.8c.7-1.8 2.2-5.4 2.2-5.4s1.2-.5 1.8-.6c2-.5 4-1.2 5.9-2.1.3-.1.6-.3.8-.2.3.1.5.5.6.8.8 2.5 1.6 5 2.2 7.6 2.6-1.3 5.1-2.6 7.7-3.9-3.5-6.8-6.5-13.9-9-21.2zm-8.1 14.4l-.6.2c0-2.5.4-4.9 1-7.3 1.2-.1 2.4-.3 3.5-.4-.4 2.2-.3 4.4.2 6.5-1.3.4-2.7.7-4.1 1zm32.6-19.1c-.6-.9-1.4-1.9-2.5-2.1-1.6-.3-3 1.2-3.8 2.7-1.7 3.1-2.8 6.6-3 10.1-1.9-2.9-3.4-6-4.3-9.4-2.6.9-5.2 1.9-7.6 3.1l3 5.2c2.1 5.2 4.6 10.2 7.4 15 0-.3 4.9-2.4 6.8-3.6-.9-4.4-1.8-9.2.2-13.2 2.9 4.4 5.8 8.8 8.7 13.3 1.6-1.5 3.5-2.6 5.6-3.1-2.9-6.3-6.4-12.4-10.5-18zm23.8 9.2c-1.7.8-5.9 2.4-7.6 3.3-.1.1-1.3-3.8-1.3-3.8s5-.6 5.4-1.4c-.7-1.5-1.2-3.1-1.5-4.7-1.5.7-3 1.4-4.6 2.2-.1.1-.3.1-.5.1-.2-.1-.2-.3-.3-.4-.5-1.6-.9-3.1-1.4-4.7 1.8-.1 3.7-.6 5.4-1.2.3-.1.6-.3.8-.5.2-.4.1-.9 0-1.3-.4-1.4-.9-2.8-1.3-4.2-3.3.4-8.2 2.1-11 3.9l7.5 21.3c3.6-.5 9-1.6 12.5-2.5-.8-2.2-1.4-4.1-2.1-6.1zm18.2-3.8c-1.1-2.6-4.2-4.5-6.8-3.4 3.2-1.7 5.2-5.4 4.7-9s-3.6-6.7-7.1-7c-2-.2-5.4 1.5-5.4 1.5-.7 9.7.2 19.6 2.5 29.1.1.5.3 1.1.7 1.4.4.3.9.4 1.3.4 2.6.3 5.5.5 7.5-1.2 1.1-.9 1.7-2.3 2.2-3.7.9-2.5 1.5-5.5.4-8.1zm-9.8-7.2c-.3-.4-.3-1-.4-1.5-.1-1.2 0-2.6.5-3.7.2-.4 1.6-2.2 3.3-.8.9.7.6 2.2.4 3.3-.2 1-.5 2-1.2 2.7-.7.7-2 .8-2.6 0zm6 13.2c-.7 1.4-2.5 2.3-3.9 1.6-1.1-.5-1.7-1.9-1.6-3.2.1-1.3 0-5 2.7-5 1.1 0 1.9 1.1 2.4 2 .7 1.5 1 3.2.4 4.6z"/><path class="st0" d="M186 127.2c-.1.1-.1.2-.1.4l.1-.4zm11.8-.1c-.8 1.2-1.1 2.7-1 4.2.8-.5 1.9.1 2.4 1 .4.8.4 1.8.4 2.8-.2 3.7-.4 7.3-.5 11 1.4-.4 3.1-.1 4.3.8.6-3.2 1.2-6.5 1.8-9.7 1-.6 2.1-.2 2.7.8.6 1 .8 2.2.8 3.4v3.8c0 .7.1 1.4.4 2.1.3.6 1.6 1.1 2.2.8.8-.3.9-1.4 1-2.3.2-2.6.9-5.2 2.1-7.5.1-.3.3-.6.6-.6.6-.1.9.6 1 1.2.5 3 .5 6.1 0 9.2 0 .3-.1.6.1.9.2.2.4.3.7.3.9.2 1.8.4 2.8.6 1.9-5.5 1.8-11.7-.2-17.1-.8-2.2-2.5-4.7-4.9-4.5s-3.7 2.8-4.5 5.1c-.1-1.3-.2-2.6-.8-3.7-.6-1.1-1.9-2-3.1-1.8-1.6.3-2.4 1.9-3 3.4.6-1-.1-2.4-1.1-2.9-1-.6-2.2-.6-3.4-.5-.5 0-1.2-.1-1.1-.6m-88.2 17.2c-1.4-3.8-4.6-4.6-5.9-4.5-2.3.2-4.6.6-5.3 1.6-3.3 4.7-4 11-4.4 16.7s.5 12.1 1.4 17.8l1.7-.4c1.8-.3 2.8-.3 4.4-.4-1.9-5.4-2-11.5-.2-17 3 1.9 7.2-.3 8.5-3.5 1.2-3.3.9-7-.2-10.3zm-4.6 8.2c-.5 1.2-1.5 2.6-2.8 2.3-.6-.1-1-.6-1.3-1.1-.4-.7-.4-1.5-.2-2.2 0-1 1-3.8 2.9-3.5.9.1 1.6 1 1.8 1.9.1.8-.1 1.8-.4 2.6z"/><path class="st1" d="M400.7 209.5c-1.3-6.8-2.7-13.5-4-20.3-.9.6-1.8 1.2-2.6 1.8 4.7.8 9-.2 12.9-2.9-1.1-.1-2.1-.2-3.2-.2 1.7 6.2 5.3 14 13.2 12.3 8.2-1.7 9.4-10.5 9.3-17.5-.5.5-1.1.9-1.6 1.4 3-.6 5.9-1.2 8.9-1.8-.7-.2-1.5-.4-2.2-.6 4.6 16 7.7 33.6 6.5 50.3-.6 7.7-3.1 16.8-11.4 19.5-8.8 2.8-16.9-3.7-18.8-12l-2.1 1.8c3.5-.1 6.6-.8 9.8-2.1-.9-.2-1.8-.3-2.7-.5 3.1 7.2 13.1 7 18.2 2.1 8.8-8.3 5.9-24.2 1.7-33.9-.7-1.5-3.5-.6-3.9.7-1.4 5.3-6.4 9.5-12.1 8-2.1-.6-4-1.8-5.5-3.4-1.2-1.3-1.5-3.3-2.6-4.5-2.9-3.3-7.1.2-10.4 1.5-2.5 1-.3 2.7 1.6 2 .9-.4 2.4-1.4 3.4-1.5 1.8-.3 1.4 0 2.4 1.2 1.2 1.6 1.9 3.1 3.5 4.4 2.5 2.1 5.7 3.3 9 3.3 6.9.1 12.8-4.7 14.6-11.2-1.3.2-2.6.5-3.9.7 3 6.9 4.6 14.5 3.5 22.1-.6 3.7-2 8.2-5.3 10.5-3.6 2.5-8.7 1.1-10.4-2.9-.5-1.1-1.9-.8-2.7-.5-2.6 1-5 1.4-7.8 1.6-.8 0-2.4.7-2.1 1.8 3.8 16.7 26.5 18.8 34.6 4.2 4.4-8 3.8-18.1 3.2-26.9-.7-12.6-2.9-25-6.4-37.1-.3-.9-1.6-.8-2.2-.6-3 .6-5.9 1.2-8.9 1.8-.5.1-1.6.7-1.6 1.4.1 4 .4 9.9-2.9 12.9-6.9 6.3-10.7-5.3-11.8-9.2-.4-1.3-2.5-.7-3.2-.2-2.9 1.9-5.7 2.4-9 1.8-.9-.2-2.9.6-2.6 1.8 1.3 6.8 2.7 13.5 4 20.3.1 1.2 3.9.3 3.6-1.4zm47.1-9.7c.5-3.5 1.3-9.3 3.9-11.9 5.2-5.3 10.2 3.5 12.6 7 4.3 6.4 7.6 13.5 12.2 19.8 2.9 3.9 7.5 10.3 12.9 9.9 5.9-.5 7.2-5.7 6.2-10.7-1.2.4-2.3.9-3.5 1.3 1.5.5 3.3.5 4.7 1.1 2 .7 2.3.9 2.3 2.8-.1 2.5-1.3 5.8-2.6 7.9-5.8 9.7-16.7-1.4-20.9-6.2-.6-.7-3.7.2-3.7 1.2 0 4.4-.3 9-2.1 13.1-3 6.7-10.3 8.4-16.1 4.1-8.5-6.4-6.4-19.4.7-25.8 1.8-1.6 6.6-3.3 7.5-5.8.9-2.9-1.8-7.9-4.4-9.1-5.2-2.3-9.1 2.3-10.2 6.8 1.3-.3 2.6-.6 3.8-.8-1.2-1.7-2.5-3.4-3.7-5.1-.7-1-4.2.6-3.9 1 1.2 1.7 2.5 3.4 3.7 5.1.6.8 3.6.1 3.8-.8.2-.9.3-2.4.9-3.1 1.6-1.7 3.6-.9 4.7 1.3 1.5 2.9 1.2 5.1-1.3 7.4-2.7 2.6-5.9 4.2-8.1 7.5-4.6 7-4.4 17.5 2.7 22.8 4.8 3.7 11.9 3.8 17.2 1 7.4-4 8.4-12.9 8.5-20.5-1.2.4-2.5.8-3.7 1.2 5.2 6 11.5 11.6 20 9.8s9.4-8.9 11.7-16.1c.1-.2-.1-.4-.3-.4-2.7-.5-5.5-.8-8.1-1.7-.6-.2-3.7.3-3.5 1.3.3 1.7 1.3 5.4-.2 6.7-2.3 2-4.5-.6-6-2.1-3.2-3-5.8-6.5-8.1-10.2-3.8-6-6.9-12.4-11.1-18.1-3.3-4.4-7.7-9.2-13.7-7s-7.9 10.5-8.7 16.2c0 .8 3.8.1 3.9-.9z"/><path class="st1" d="M467.1 219c-1.2-4.7-7.7-2.4-10.2-.2-3.9 3.3-6 10.1-2.7 14.5 6.2 8.3 21.1-7.7 12-15.4-.9-.8-4.4.7-3.6 1.4 2.1 1.7 3.1 4.3 2.7 7-.4 2.9-3.9 9.2-7.2 5.7-1.8-1.9-1.7-5.3-1.1-7.6.5-1.8 5-9.4 6.3-4.4.2 1.1 4.1.1 3.8-1zm.3-40.5c9-6.6 17.9-13.2 26.1-20.8-1.2 0-2.3 0-3.5-.1-.4 11-.6 22-.4 33 0 1.2 3.1.3 3.5-.2 4.9-5.3 9.8-10.5 14.6-15.8-1.2.1-2.3.1-3.5.2 2.7 4.8 5.8 9.2 9.4 13.3.2-.4.4-.9.6-1.3-9.8 5.8-18.7 13.3-27.3 20.6 1.1-.1 2.2-.3 3.3-.4-1.5-2.4-4.1-5.2-5-7.9-1-3-.1-7.1.1-10.1l.9-13.2c.1-1.6-2.9-.6-3.5-.1-4 4-8 7.9-12.1 11.9 1.1-.1 2.2-.3 3.3-.4-2.1-3.3-4.3-6.5-6.4-9.8-.7-1.1-4.5.2-3.6 1.5 2.1 3.3 4.3 6.5 6.4 9.8.6.9 2.8.1 3.3-.4 4-4 8-7.9 12.1-11.9-1.2 0-2.3 0-3.5-.1-.4 5-.7 10-1.1 15.1-.2 2.6-.8 6.3.1 8.9 1 2.8 3.6 5.7 5.2 8.2.6.9 2.8.1 3.3-.4 8.4-7.2 17.1-14.4 26.6-20.1.4-.2 1-.8.6-1.3-3.5-4-6.5-8.2-9.1-12.8-.6-1.1-2.8-.5-3.5.2-4.9 5.3-9.8 10.5-14.6 15.8 1.2-.1 2.3-.1 3.5-.2-.2-10.8 0-21.7.4-32.5.1-1.6-2.9-.6-3.5-.1-8.1 7.6-17.1 14.2-26.1 20.8-1.5 1.3 2.4 1.4 3.4.6z"/><path class="st1" d="M504.3 164.3c6.5-6.8 12.7-13.8 18.5-21.2-1.2 0-2.4-.1-3.6-.1 3.6 14.3 7.3 28.7 10.9 43 .4 1.7 3.2.9 3.8-.3 3.4-7.3 6.9-14.6 10.3-21.9l-3.6.6c2.8 2.9 5.9 5.1 9.6 6.6-.3-.5-.5-1.1-.8-1.6-6.3 10.2-12.3 20.5-18 31l3.3-.9c-2.8-1.7-6.1-3.4-8.4-5.7-1.6-1.6-1.6-4.2-2-6.9l-4.2-27.3c-.2-1.6-2.9-.9-3.6-.1-1.8 2.1-3.6 5.1-5.8 6.9-1.5 1.2-1.9 1.7-4 .3-1.6-1-2.6-2.8-3.4-4.4-.2.6-.3 1.2-.5 1.8-.1 0-.2.1-.3.1 2 .2 3.9-2.7 1.3-2.9-1.6-.2-2.3 0-3.6.9-.6.4-.8 1.2-.5 1.8 1.7 3.3 5.7 7.8 9.9 7s7.6-7.4 10.1-10.3c-1.2 0-2.4-.1-3.6-.1 1.6 10.1 2.9 20.2 4.7 30.2 1.1 5.9 5.9 7.9 10.9 11 1.1.7 2.7.3 3.3-.9 5.7-10.5 11.7-20.8 18-31 .4-.7-.2-1.4-.8-1.6-3.2-1.3-5.8-3.1-8.3-5.6-1-1-3-.7-3.6.6-3.4 7.3-6.9 14.6-10.3 21.9 1.3-.1 2.5-.2 3.8-.3-3.6-14.3-7.3-28.7-10.9-43-.4-1.5-2.8-1-3.6-.1-5.8 7.3-12 14.4-18.5 21.2-1.5 1.8 2.2 2.6 3.5 1.3z"/></g><g id="Режим_изоляции"><path class="st0" d="M440.1 90.6c.6-.4 1.2-.8 1.8-1.3 3.2-1.7 5.5 1.6 8.3 1.4 1.3-.1 2.5-.9 3.6-1.1 1.3-.3 2.9-.5 4.2 0 2.7 1 6.1 5.8 6.9 9 .4 1.5-.1 3 .2 4.6.5 3.8 2.6 8.2 4.5 12.6 2 4.6 4.4 9.3 7 13 .8 1.1 1.9 2 2.1 3.3-2.1 1.9-3.8-.6-5.3-1.7-3.3-2.6-6.2-5-9.9-7.5-1.4-1-3.8-2.9-5.2-1.9-1.6 1.1 0 4.5 1.1 6.3 1.4 2.3 3.5 4.7 5.2 7.2 1 1.6 4.2 5.7 2.5 6.8-1.1.7-3.2-1.3-4.5-2.4-4.4-3.5-8.5-7.7-12.9-11.1-2.8-2.2-6.1-3.7-8.9-5.8-2.9-2.2-5.9-4.1-8.8-6.4-.4-.6-.9-1.2-1.3-1.9-.2-.8-.7-1.8-.8-2.6-.4-3.8.7-7.9 4.5-10.6.6-.5 1.6-.7 2.1-1.4.9-.9.7-3.4 1.3-4.8.4-1.6 1.4-2.7 2.3-3.7zm23.6 24.4c-.7-.7.8-2.4 1-2.9 1-3-1.3-5.1-2.4-8.6-.3-.9.3-2 .2-3.1-.1-2.5-1.7-7.5-4.3-9.1-2.4-1.5-5.1 1.5-8 1.5-2.2 0-3.7-2.1-6-2.3-2-.1-4.6 1.5-5.4 3.6-.7 1.7.2 4.3-.9 5.8-1.3 1.8-3.1 1.9-4.5 2.9-2.8 2.1-3.6 6.2-2.3 8.8 1.5 2.9 3.6 4.2 5.7 5.5 1.5 1 2.9 2.1 4.3 3 2.9 1.8 6.2 1.8 8.9 3.9 0 .4-.1.8-.7 1.2 4.3 2.1 8.7 6.6 12.6 11 1.3 1.5 2.5 3.2 4.2 3.9-.7-5-7.3-10.7-10.1-16.1-1.5-2.8 2.4-6 5.1-5.5 3.5.5 8.1 6.5 11.2 9.5 1 1 2.1 2.5 3.4 2.2.2-1.5-1.1-2.8-2-4.2-2.8-4.3-5.6-8.9-7.6-12.8-.6.6-1.4 2.8-2.4 1.8z"/><path class="st0" d="M437.8 101.3c1.9-.7 3.7-1.1 5.4-.9.5-2.1 1.4-4.1 4.3-5.9-.9 1.9-2.7 3.7-2.1 5.9 2.3.6 4.9.3 7 2.5-.4.4-1.1 0-1.6-.1-1.9-.2-5.1-1-7.2.9-1.4 1.3-2 3.4-2.4 5-.1.4 0 1.1-.5 1.3-1.3-2.9-1.3-5.6 1.8-7.7-1.3-1.5-3.1-.8-4.7-1zM114.1 270.6c.9.5 1.7 1.1 2.5 1.6 3.9 3.3.7 8 2.5 11.5.8 1.7 2.4 2.8 3.3 4.1 1 1.5 2.2 3.5 2.2 5.4.1 4.1-4.4 10.9-8.1 13.6-1.7 1.2-3.9 1.4-5.9 2.5-4.7 2.5-9.3 7.5-14.1 12.3-5 5-9.9 10.5-13.3 15.7-1 1.5-1.6 3.5-3.3 4.4-3.5-1.7-1.2-5.3-.5-7.7 1.7-5.6 3.3-10.6 4.6-16.7.5-2.4 1.9-6.4-.2-7.8-2.2-1.4-5.9 2.3-7.6 4.6-2.3 3-4.3 6.9-6.7 10.4-1.5 2.2-5.2 8.4-7.6 6.7-1.5-1 .1-4.8.8-7.1 2.4-7.6 5.6-15 7.8-22.5 1.3-4.8 1.7-9.8 3.1-14.5 1.4-4.9 2.4-9.8 3.8-14.7.6-.9 1.2-1.8 1.7-2.7.9-.7 2-1.8 3-2.3 4.8-2.4 10.6-3.1 16 .5.9.6 1.8 1.6 2.9 2.1 1.7.6 4.8-.8 6.9-.8 2.4 0 4.4.8 6.2 1.4zm-19.7 43.1c.6-1.2 3.5-.1 4.3-.1 4.4-.3 6-4.3 10-7.5 1-.9 2.7-.6 4.2-1.3 3.2-1.5 8.9-6 9.6-10.3.6-3.9-4.6-5.9-6-9.6-1.1-2.9.9-5.9-.1-9-.9-2.6-4.3-5.2-7.4-5.2-2.6-.1-5.5 2.5-8 1.8-3-.8-4-3.1-6.1-4.4-4.1-2.5-9.9-1.6-12.7 1.6-3 3.4-3.5 6.8-4.3 10.2-.5 2.4-1.2 4.9-1.7 7.2-.9 4.7.9 9-.5 13.6-.6.3-1.2.3-1.9-.3-.6 6.6-4.2 14.6-7.9 22-1.2 2.4-2.9 4.8-2.9 7.4 6.1-3.5 10.2-14.9 15.7-21.4 2.9-3.4 9 0 9.8 3.8 1.1 4.8-4.3 13.9-6.6 19.4-.8 1.9-2.2 4-1.1 5.6 2.1-.5 3.1-2.9 4.4-4.8 4.2-5.8 8.7-11.8 12.8-16.5-1.1-.4-4.4-.4-3.6-2.2z"/><path class="st0" d="M98.9 273.1c1.9 2.1 3.3 4.3 4 6.6 3-.4 6.1-.2 9.8 2.5-3-.2-6.2-1.6-8.7.3.4 3.4 2.2 6.5.3 10.3-.7-.3-.5-1.4-.7-2.2-.6-2.6-1.3-7.1-4.9-8.9-2.4-1.1-5.4-.8-7.7-.5-.6.1-1.5.5-1.9 0 3.1-3.1 6.6-4.5 11-1.6 1.2-2.4-.5-4.4-1.2-6.5z"/><path class="st1" d="M59 48.7l3 1.2c-.7-.3-1.6-.7-2.5-1.1-.2-.1-.4-.1-.5-.1zm83.7 34.2c.5-2.1 1.8-5.6 1.2-7.6-.4 2.8-1.5 3.5-2 5.6.7.2 0 1.9.8 2zM59.5 48.7c.4.1.8.1 1.2.1v.2c.8.4 1.5.8 2.3 1.2l-1-.3c.4.2.8.3 1.2.5 11 5.5 21.7 6 27.8 15.4 5.5 8.6 2.7 22.9 4.4 34.6 1.1 7.8 7.4 12.8 12.7 17.5 2.9 2.6 6.3 6.1 9.2 7.2 6.3 2.3 13.5-1.7 14.3-3.6-1.3.6-1.9 1.8-3.6 2 1.6-2.2 4.2-4.1 5.6-5.2 2.2-1.7 4-4.4 7.6-4-2.1 2.7-7.6 4-8.4 6.8 2.2-3.1 17.1-9.1 9.5-12.3 1.5 1.5-2.7 1.3-4 2.4 1 0 1.9-.1 2 .8-6.3 3.7-8.5 9.1-15.9 11.5 4.5-3.6 10.6-7.7 11.9-13.1-5.1 3.7-10.8 16.3-18.7 10.3-3.7-2.7-8.9-8.2-12.7-12.7-5.9-7-2.8-19.2-3.6-29.8-.5-6.4-3.2-12-4.4-16.7 16 5.5 29.8 13.2 45 19.5-11.5-5.6-23.7-12-35.4-17.1-4.1-1.8-9.8-2.4-11.5-6.4 7 2.9 13.3 6.1 19.5 9.1.5.2 6.4 3.2 4 1.6-3.6-2.3-8.7-4.3-12.7-6.4-4.8-2.4-13.9-4.8-13.5-11.9 2.8 2.2 8.1 6.2 9.9 6.8-3.4-3-8.9-5.4-10.7-9.9-.5-1.1 0-2.7-.4-4-1.3-4.5-4.7-9.4-6.8-12.7-6.4-10.4-11.5-21-17.7-30.6H43.1c2.1 4 4.2 7.5 5.2 9.4 3.3 6.2 7.9 11.6 12.4 17v1.5c-7.3-4.2-23.6-8.4-31-5.1-2.6 8.5 18.9 21.3 29.8 26.4zm22.7-14c.4-.8 0-.3.8-.8 3.4 1.8 2.4 7.9 6.8 8.8-.4 1.2-1.5.1-1.6.8.2.3.4.6.4 1.2 1 0 1.5-.6 1.6-1.6.2 1.6.2 4.8-.8 4.4 1.5 2.8 2.9 10.7 6 13.1H93c2.6 1 3.5 3.7 4.4 6.4 1.2-.3-.4-.8 0-1.6 2.5 1.9 0 7.9 2.4 9.1.1.9-1.4.2-2 .4 2.2 1.7 2.7 4.7.4 6.8.6 0 1.5.2 1.6-.4-1.9 8.4.1 18.9 2 25.1 5.4 4.7 11.9 12 17.5 16.7-.4-1.2 1.9 0 4-.4-1.4.4-2.7.5-4 .4-6.5-.6-11.6-7.2-17.1-12.3-8.6-8-5.4-18.6-6.8-33.4-.4-4.8-2.2-13.5-5.2-15.1-.3-.2-.4.6-.4.8-1.8-4.7-4.1-10.2-8.4-12.7-4.1-2.5-6-7.2-9.1-11.1 1.9-2.7 6.6-6 9.9-4.6zm-1.7 89.6c.1.2.3.5.4.7 0-.1-.1-.2-.1-.3-.1-.1-.2-.2-.3-.4zm34.7-2.4c.4-1.1-1.7-2.1-2.8-3.2-3.9-3.7-7.9-8-11.5-11.1 2.9 5 9.7 9.6 14.3 14.3zm28.3-39.4c-.5 3.8-1.8 8.8-1.6 11.9.5-3.7 2-8.5 1.6-11.9zm15.1-2.4c1.2.1 1.2-.9 2.4-.8-.8 5 7.2 7.7 9.3 5.8-.2-.1-.5-.4-.5-.7 2.2-2.1-2.7-5-2.4-6.4.3-.1.8 0 .8-.4-4.2 0-8 .1-9.6 2.5zm350.6-12.5c-3.1.1-6.3.8-9 2.1-14.8-.7-30.3-5.6-43.5-.4 4.1-.2 10.1-2.9 14.8-1.6-8.7.8-13.6 5.3-23 5.3 1.7-.9 4.1-1.1 5.7-2.1-14.8 5.6-16.9-13.1-23.4-20.9.2.7.5 1.6.7 2.5 3.3 4.6 5.7 13.2 9.5 18.4-4.1-3.5-6.2-12.2-9.4-18.1 1.4 4.8 3.8 11.8 7 16.9 2.1 3.3 5.5 5.6 9.9 5.7 8.5.2 12.6-5.1 23-4.1 4 .4 8.7 1.9 13.6 2.9 4.7 1 10.1 1.5 13.5 2.9 2.7 1.1 4.6 3.1 7 4.1 7.5 3.1 16.6 4.2 25.9 6.2 11.5 2.4 22.9 5.6 35.3 7.4v-8.2c-17-2.7-35.2-6.2-53.4-9.9 18.6 1.2 35.8 6.2 53.4 9v-12c-18-1.1-39.1-6.7-57.6-6.1zM558 91.4c1-.1.7.5 0 .4-14.7-2.9-29.1-6.2-43.5-9.5 14.2 1.8 29.4 6 43.5 9.1zm-89.8-22.2c15.3 1 28.8 3.8 42.3 6.6-13.1-1.6-27.8-5.1-42.3-6.6zm36.5 2.9c1 .9 3.7.1 5.3.4-.7 1.8-4.6.4-6.6.8.1-.9-.1-1.6-.4-2.1-.7 0-1.6.2-1.6-.4-3.9 0-9.3-.5-11.1-1.2 6.2.5 11.6.9 16.4.8.6-.2-.4-.7.4-.8 3.8.9 6.7.6 11.1.4-3.2 2-8.3 2.1-13.5 2.1zm-334.2 5.6c-.7-2.5-5.4-1.6-6.8-.4 2.3.2 5.3-.4 6.8.4zm3.6.8c2.7 2.2 3.8 6 5.6 9.2-1-3.7-2.4-9.1-5.6-9.2zm-69.2-20.3c-2.2-1.3-1.5-.8 0 0 0 .1 0 .1 0 0zm4.7 2.8c-.9-.4-3.2-1.8-4.7-2.7.7 1.6 3.8 2.8 4.7 2.7zm57.8 27.9c1.5.3 3.4 2.2 4.8 1.2-1.5-.3-4-1.7-4.8-1.2zm-25.6-2.7v-1.7c.1.5.1 1.1 0 1.7zm3.3-11.3c-1 2.5-.3 6.3 1.2 7.6-2.5 6.7-1.2 19.2-11.1 17.1 6.7.3 6.6-7.8 6.7-13.4-.3 7.9-3.1 15.5-11.9 12.2.5-.1 1.1.1 1.2-.4-1.5-.1-3.1.9-1.6-.4-2.5-.3-2.6.2-5.2-.4.6.2-.3-1-1.2-1.2-1.2-.3-3.6-.8-4.8 0-.1-1.2-4.5-5.8-5.6-3.6 1.2-.5 2.3-.3 2.8.8-.5.1-.2.4 0 .8-1-.1-1.7.2-2 .8.5 1 1.2-.7 1.6.4-1.3-.3-.6 1.3-1.6 1.2-2.1-1.2 0-2.7-2-4-.9 1.7-.2 3.8 1.2 4.4 2 .4 2.3-.9 4-.8 7.2 1.3 13.6 7.2 20.3 6.4 8.2-1.1 7.4-11.1 9.9-19.1 1 .6 3 2.3 4 1.6-1.3-.9-3.6-.9-4.4-2.4.4-1.4 1.5 0 2-.8-1 .1-1.2-.6-1.6-1.2 2.8-6.7 5.6-8.9 11.5-14.3 4.8-4.5 10.2-12.1 16.7-12.7 5.7-.6 10.4-5.4 13.5-8.3 5.6-5.2 37.9-40 42.3-44.7h-27C193.3 10 183.1 20 174.5 31.6c-3.3 2.7-7.8 9.3-8.7 13.5-1.7 7.1-6.1 9.8-9.6 14.3-.4.6-.4 2-.8 2.4.1-.1-1.3.1-1.6.4-3.8 3.4-7.3 8.4-9.2 12.7 6.2-8.4 13.7-15.4 20.7-23.1-.6-.2-2.1.5-2-.4 3.2-.8 7.6-6.8 6-11.1.1 1.3.1 3.3-1.2 2 .7 3.2-1.8 6.1-3.6 8 3.9-3.6 2.3-12.6 8.7-13.5.7-.9 1.2-2 2.4-2.4 5.2.2 6.5 1.4 8 4-2.3 1.2-3.2 1.6-6.4 1.6v3.6c.9 1.1 3.3.7 3.6 2.4-2.7.4-3.2-.9-5.2.8 0-.6.2-.9.4-1.2-3.5 1.4-5.6 5.6-8 7.9-7.6 7.6-18.1 14.4-21.9 27.1-1-1.2.8-5.2-1-5.7zm35.4-28.2c.6 1.2-1.8 2.2-2.8 2 .2-1.4 2.2-1 2.8-2zM151.4 96c2.7 19.6 32.2 13.6 30.2-6.4-.1-1.3-.8-2.9-1.6-4.8-.8 2.1.7 2.9.8 4.8.3 6.4-4.9 11.1-7.2 14.3.8-.7 2.1-2.9 3.6-1.6-1.1.8-1.5.4-2.4.8-7.3 10.5-25.8.6-22.3-11.9.1.5-.1 1.1.4 1.2.1-1.3-1.1-4.2.4-2.4-1.1-2.6 2.9-5.4 3.6-7.9-1.5 1.4-2.4 3.4-3.6 5.2-.1-1.4 2.1-2.7.8-4 .1 3.1-4.2 1.3-1.6 3.2-.9 2.9-1.6 5.9-1.1 9.5zm28.3.4c1.8-.5-1.3 3.2-1.6 4.4-1-1.4 2-2.3 1.6-4.4zm-8.8-53.3c1.2-1.4 3.1-1.6 4.4-3.6-1.4-.2-2.8.1-4.4.8 1.3.4-1.2 3.7 0 2.8zm-.4 41.8l-.3.3c.2 0 .3-.1.3-.3z"/></g></svg>