<svg version="1.1" id="Слой_1" xmlns="http://www.w3.org/2000/svg" x="0" y="0" viewBox="0 0 566.9 467.7" xml:space="preserve"><style>.st0{fill-rule:evenodd;clip-rule:evenodd}.st0,.st1{fill:#ee7f00}</style><g id="Layer_1"><path class="st0" d="M277.3 17.9c-7.8.8-11.7 5.3-16 9.5.4-.8 0-1.3-.2-1.9 2.5-2.8 5-6.6 9.7-6.5 1.6-.9 4.1-1.7 6.5-1.1zm1.3 8c-7.1 1.2-11 6.8-11.7 13.6-1.4-1 0-2.5-1.1-3.9-.1-7.5 5.8-10.1 12.8-9.7zm-18.8 2.2c.5 2 2 3.1 2.2 5.4-1.4-.5-2.7-1-4.5-1.1.1-.3.7-.2.4-.9-.7-.2-.4.8-.9.9-6.8 1.7-11.9 5.1-17.8 7.8 4.9-5.8 11.6-11.1 20.6-12.1zm30.1.4c4.1-.2 6.2 2.5 8.9 4.1-3.1-.3-5.9-2.9-8.9-4.1zm1.5 2c.4.4 1.4.3 1.5 1.1-.6-.3-1.4-.3-1.5-1.1zm-36.8 8.9c-1.3.8-2.9 1.2-4.5 1.5 1.1-.8 2.7-1.3 4.5-1.5zM278 79.9c-.9 4.2-4.1 1.4-7.8.9-.7-.1-1.6.1-2.2 0-1.7-.4-3.1-1.6-5-1.7-6.7-.5-10.4 4-16.5 4.8.1-2.7 3.4-3.3 5.8-4.5 2.7-1.3 5-3.8 9.1-3.5 1.5.1 3.4.7 5.2.9 4.1.4 5.8-.4 8.9 1.1 1.1.3 1.9 1.2 2.5 2zm37.7 9.1c-.3.2 1 .9.2 1.7-1-.2-1.9-.5-2.6-1.1-4.4 1.2-10.1 2.4-14.9 1.7.1-1 1.1-1.1 1.9-1.3-.6-.7-.5-2.3-.2-3.2-2.8.3-2.7 3.5-4.8 4.5.3-4.2 6-8.6 11-8.9 3-.2 6.3 1.6 8.2-.9.5 1-1.2 1.3-1.3 2.4 1.1.5 1.9-1.6 3-1.1-.1 1-.5 1.5-1.3 1.7.7.9 2.6-.2 3.7-.2 0 1.3-.8 1.8-1.9 1.9.7 1.2 2.4-.7 3.2 0-.3 1.9-2.5 1.4-2.4 3.2-.8.3-1.3-.1-1.8-.4zm-8.1.6c2.3-.6 5.3-.4 6.9-1.7-1.7-1-3.3-2-5.8-2.2-.1 1.6-.6 2.7-1.1 3.9zm-5.8-1.9c.5.1.6.5 1.3.4.3-.7 0-.7 0-1.5-.8-.1-1.2.3-1.3 1.1zm4.1-.3c-.5-.1-.6-.5-1.3-.4-.2 1 1.1 1 1.3.4zM276.5 90c-.2.8-.5 1.4-1.3 1.5-.5-1.7-5.3-5-7.1-3.7.1 1.6-.5 2.4-1.1 3.2.8.3 2.5-.4 3.9-.2.3 1.7-1.4 1.1-2.2 1.3-2 .4-4.8.9-7.1.6-1.7-.2-3.5-1.2-4.8-1.1-1.2.1-1.6 1.3-2.6 1.1 0-.7.5-.8.6-1.3-1.1.3-1.5 1.3-2.8 1.3-.1-1.1 1-1.1 1.3-1.9-1.1-.1-4.4.5-5.6-.6.3-.6 2.8 0 3.7-.6-.3-.9-1.4-1.4-.4-2.4 1.1.2 1 1.4 2.4 1.3.4-.8-.6-1.7.4-2.4 1.1 0 1 1 1.7 1.3 1.1-.2.7-1.9 1.5-2.4.9-.1.6 1 1.3 1.1 6.5-3.5 14.1.5 18.2 3.9zm-15-.8c.6 0 1.2-.1 1.5.2 0-.5 0-1-.2-1.3-.8-.1-1.5.1-1.3 1.1zm3.9-.2c.1-.6-.3-.7-.9-.6 0 .8.3.8.9.6zm-8.9 1.3c.6.1 1.1.3 1.7.4-.1-.5.3-1.6-.2-1.7-.2.6-1.2.6-1.5 1.3zm-9.1 2.3c-.3.5-.2 1.2-.6 1.5-.9-.3-1.7-.2-2.4.2-.1-.9.2-1.5.4-2.2.9-.1 1.9.1 2.6.5zm65.7-.6c.2.7-.4.6-.2 1.3-1-.3-2.2-.2-3.2 0 .3-1.2 2.1-1 3.4-1.3zm-54.4 2.2c0 .5-.4.6-.2 1.3-1.4.2-2.2-.3-3-.6.7-.9 2.5-1 3.2-.7zm-34.2 8c-2.7-.9-4.2-2.8-7.6-3 .3-4.3 10.6 1 7.6 3zm.9 8.6c-.2-1.7-.8-2.9-1.7-3.9 1.1-4.3 5.2 3.6 1.7 3.9zm57.3-1.7c-.2 1.1-.7 1.9-1.5 2.4-2-1.5-4.4-.2-4.3 1.9 0 2.6 3.8 2.7 2.6 5.6-8.5.7-3.2-15.2 3.2-9.9zm-14.7 10c-1.5 4.8-8.7 5.9-8.7 13-1.6-7.2 5.2-9.6 8.7-13zm43.3.6c1.3 1.3 2.3 2.9 3.7 4.1-.1 2.4-.1 4.9-1.9 5.6-.3-1.5.6-2.6.4-4.1-.2-2.2-2.5-3.7-2.2-5.6zm-18.8 29.2c-.3 1.6-2.7 1.2-4.1 1.5-1.5.3-3 1-4.3 1.1.1-3.3 5.8-2.3 8.4-2.6zm69.9 33.4c2.4-.4 5.3-.2 5.4 2.6s-5.4 5.5-8.9 5c-1.4-.2-3.2-1.5-3.2-2.8s2-2.9 2.6-3.2c1.3-1 2.3-1.3 4.1-1.6zm0 4.1c0-.8-.8-.7-1.1-1.1-.1.9.5 1 1.1 1.1zm-106.5 6.3c-.7 1.4-2 2.2-3.7 2.6 1.2 1 3.4 1.1 4.5 2.2-2.4 4.8-6.8.9-11 .4-4.5-.5-6.3 1.9-10.2 2.2 2.2-4.1 8.3-5.4 14.3-5-.3-1.1-2-2.6-3.5-3.2-5.8-.4-8.5 2.4-13 3.2.3-2.2 3.8-3.5 6.9-4.5 3.1-1.1 7.1-2.4 10.2-1.7 2.6.4 3.1 3.1 5.5 3.8zm38.5 3.9c1.8-.2 4.2 1.1 4.1 3.5-.1 2.1-8.8 7.4-10.2 3.5-.5-1.4.8-3.9 1.3-4.5.9-1.2 2.9-2.4 4.8-2.5zm-32.7 5.6c-1.8 4.6-6.6 1.7-11.3 1.3-5.4-.5-10.1 1.2-14.5 1.9 1.5-3.5 7.7-4.3 12.8-4.8 4.8-.3 9.5.3 13 1.6zm-2.6 4.6c-1 2.9-4.1 2.6-7.6 2.4-5.3-.4-10.7 1.4-14.7 2.4 2.1-4 10.2-5.3 16.2-5.4 2.2-.1 4.3.2 6.1.6zm-.2 8c-1 3.1-4.1 2.5-7.4 2.2-5.7-.6-10.7 2-15.2 3 4-5.1 14.4-7.3 22.6-5.2zm70 11.5c-1.8.9-4 .5-5.6-.4-.7-1.1-1-2.5-.9-4.3 2.8-4.9 10.3.3 6.5 4.7zm15.3 2.3c-.9 1-.2 2.7-.7 4.1-.5 1.6-3.2 4.1-4.3 4.3-.1 0-3.6-.1-4.1-.2-1.7-.6-1.6-2.6-1.5-5.2 2.1-2.3 6.7-5.2 10.6-3zm-5.4 38.1c-.8 2.7-4.2 2.6-5.8 5-1.2 1.8-1.9 4.8-5 4.8-1.1 0-2.9-1.4-4.5-2.2-4.2-1.9-9.3-4.7-14.5-5.2-4.1-.4-7.3 1.2-11.9.2-.1-2.3 2.7-3.4 4.3-4.8 1.9-1.5 4.5-4.6 7.1-4.5 3 0 6.7 1.1 10.4 1.5 3.6.4 7.1.9 9.7 1.9 1.3.5 2.3 1.6 3.5 1.9 2.5.9 4.7.6 6.7 1.4zm-14.3-.2c-5.1-2.2-12.7-2.2-18.6-3.2-.7 1.4-3.9 2.5-3.5 3.5 11.1-2.3 19.6 2 26.9 5.4.5-1.3 2.7-1.9 2.6-3-2.8-.1-4.9-1.6-7.4-2.7zm265.7 149.4v3.9c-31.9-.4-66 1.4-94.8-2.2-.9 14.2-3.9 27.7-6.5 40.9-1.8 9.3-4.9 19.2-9.5 26-1.6 2.4-3.7 5.5-7.4 4.5-.3-.9.9-1.9 1.5-2.8 6.3-9.1 8.4-21.2 11-34 2.3-11.2 4.9-22.9 4.5-35.3-14.3-2-28.4-4.4-41.4-9.3-11.8-4.5-24.2-10.6-27.9-22.7-.8-2.6-1-6.3-.6-9.7 1.5-13.9 17.1-23.5 31.8-23.6 17.3-.1 27.6 10.1 34.2 21.7 6.3 11.1 10.5 23.5 10 39.8 28 4.4 64.2 2.9 95.1 2.8zm-110.8-39.8c-5.6-9.8-14.1-17.7-26-20.1-6.4-1.3-14.6-.2-18.6 1.9-6.3 3.4-11.7 12.4-9.3 23 1.2 5 5.1 10.1 8.7 13.2 6.2 5.4 15.6 9 24.7 11.9 9.8 3.2 20.4 5.3 30.3 6.5 0-14.2-4.1-26.3-9.8-36.4zm-197.1 10c.7-4.1 8.9-5.5 9.5-.4 1.4-.2 2.1-.9 3.7-.9.4 1.6-2 2-3.7 3-2.3 1.4-5.5 4.4-8.4 1.5-.2-1.7.3-2.6.9-3.5-.6.3-1.4.8-2 .3zm18.6 81.4c.3.4.6.7.4 1.5 4.4.7 8.3-.6 12.6-.7-1.7 4.2-9.3 3.4-14.3 3.7-2 1.2-4.6 3.7-7.8 2.4-1.7-5.2 4.2-8.4 9.1-6.9z"/><path class="st0" d="M268 39.2c.4-9.2 10.2-15.2 19.1-10.6.1.5-.6.2-.6.6.2.3 2.1.5 1.9-.2.9.2 2.6 1.3 1.9 1.3-.5 0-3.6-.7-5-.6-1.6 0-3.6.3-5 .4-6.2.7-9.3 4.9-12.3 9.1z"/><path class="st0" d="M312 437.8c-4.5-3.7.6-7.1 3.7-9.3-1.5.7-3 1.3-5.4 1.1-1-1.6-1.7-3.5-2.4-5.4 1-1.8 2.1-3.5 3.7-4.8-2.3-5.3-4.4-10.5-6.7-15.6-2.3-5-5.5-9.7-6.9-15.4-3.3-7-7.1-14-10.2-21.4-1.6-3.8-2.5-8-3.9-11.9-1.4-3.7-3.2-7.3-4.5-11-3-8-4.4-16.1-8.4-23.2-3.9-6.9-8.1-13.4-10-21.4-1.7 8.5 1.7 16.7 3.2 24.7 1.6 8.3 2.5 16.4 4.8 24 2.1 7.2 5.3 14.2 7.4 21.4 2.1 7.5 4.2 14.9 6.9 21.9 5.2 13.6 8.2 31.3 8.2 49.4 0 18.6-3.9 34.6-9.3 48.3h-4.1c5.3-13.5 8.5-29.5 8.4-47.6-.1-17.6-3.2-34.8-8.2-47.9-2.6-6.9-4.6-14.1-6.7-21.4-2-7-5.2-13.7-7.4-20.6-2.3-7.4-3.2-15.2-4.8-23.2-1.5-7.8-3.8-15.6-4.1-23.8-7.2 3.3-13.2 9.6-20.4 13.6 2.3 2.3 1.3 8.4 1.1 12.1-4.5 2.1-9.3 2.2-14.1 3.9-3.1 1.1-6 3.4-9.1 5s-6.1 3.2-9.1 4.8c2.5 4.6 4.3 9.1 7.1 13.2.9 1.3 2.3 2.2 3.2 3.5 1.1 1.5 2.1 3.9 3 5.8 1 2.1 2.6 3.9 3.2 5.6 1.5 3.9 1.3 9.2 1.1 13.2-.3 5.4-1.7 10.2-3.7 14.7-5.5 12.4-11.9 26.2-18 37.2 12.7 4.8 29.7 5.3 44.2 8.4.1 1.2-1.6 1.6-1.9 2.6-.8 2.2-.3 5-.6 7.1-1.6 11.5-8.7 22.6-16 29.9-1.8 1.8-2.8 4.3-6.5 3.7-.5-.3.7-1.2 1.3-1.7 9.4-8.9 16.5-21.3 17.1-39-12.7-2.9-27.9-3.3-39.4-7.4-9.2 13.9-14.8 31.4-21.2 48.1h-4.3c6.7-16.7 12.4-34.4 21.9-48.3-.7-1.9 1.4-3.1 2.6-4.8 2.1-2.8 3.7-7.2 5.6-11.3 1.8-3.7 3.5-7.7 5.4-11.5 4.2-8.3 8.1-15.5 8.7-25.1.2-3.1.1-10.5-1.1-13.4-.7-1.8-2.1-3.5-3-5.4s-1.8-4.1-2.8-5.6c-.9-1.3-2.3-2.2-3.2-3.5-1.5-2-2.7-4.4-3.9-6.7-1.1-2.3-2.7-4.4-3.5-7.1-6.4 3.1-12.8 4.9-19.9 6.7-3.3.9-6.5 2.6-10 3.5-3.7.9-7.8.5-11.7 1.5-1.7.4-3.2 2.2-5.4 2.2-2.2-2.3-3.6-5.9-5-9.7-1.2-3.3-3.1-7.1-3.9-10.6-.6-3-.7-6.4-1.3-9.7-.7-3.9-2.3-8.2-1.1-11.3-1.7-7.9-1.5-17.7-1.5-27.3.4-1-.9-.3-.6-1.1-1.1-41.5 5-79 20.8-105 7.2-2.2 13.5-5.4 20.8-7.6-6.6-.4-11.3-14.1-1.9-14.7.3-4 3-5.5 6.7-6.1-.1 1.9-.8 4.6.6 6.3 1.4.1 2-1.2 3.5-1.5.9-.2 1.9.3 2.8 0 3.7-1 4.8-5.8 6.5-8.9.4-.4 1.4-.2 2.2-.2 1.2-2.9 1.5-7.8 1.3-12.1-.1-2.8-.2-4.7 1.7-5.8-.8-5.5 0-11.7 0-18 0-5.9 0-11.9.2-17.5.1-3.5 1.4-7.9 2.4-12.1.9-3.9 1.4-8.3 2.4-12.1 2.1-8.3 3.2-16.7 5.4-23.6 3.4-10.6 9.9-19 16.7-26.9 4.8-5.6 8.8-8.8 18.4-9.7 4.1-.4 6.1.6 8 2.6 3-3.6 7.6-6.7 13.4-7.1 2.4-.2 5 1 7.6 1.3 1.2.1 2.3-.4 3.2-.2 1.5.3 3.6 1.4 5.4 2.2 3.7 1.5 5.7 2.9 8.7 5.2 1.2 1 2.8 1.7 3.9 2.6 1.5 1.2 2.7 3.1 4.3 4.5 1.6 1.4 2.9 2.9 4.5 4.3 3.1 2.7 6.9 5.4 9.3 8.4 2.2 2.8 3.9 6.1 5.8 9.1.9 1.3 2.2 2.5 3 3.9 5.1 8.9 7.8 18.9 11 29-1-.2-1.3.3-2.2.2-3.4-8.4-5.7-17.9-10.2-25.1-2 1.8.2 4.3 1.1 6.1 3 6 5.6 13.3 6.5 21.4.7-1.5 3-1.5 5.2-1.5 1.5 5.8.9 15.6.9 23.8 0 11.8.3 21.6-1.3 31.4-.3 1.8-.6 3.7-.9 5.4-.3 1.9-.1 3.8-.4 5.4-.2 1-1.2 2-1.5 3.2-1.1 4.2-.1 9.1-2.6 11-.3 1.8.4 3 .2 4.1-.3 1.5-2.1 1.9-1.7 3.9 9.5-3.3 20.3-10.2 33.3-7.6 5.1 1 9.8 4 14.5 6.3 2.1 1.1 4.6 2.1 7.1 3.2s5.1 2.9 7.1 3c1 .1 2.4-1.2 3.2-.6-.2 1.7-1.7 2.8-2.8 3.9-2.3 2.1-4.3 4.6-6.7 6.5-3.4 2.7-8 4.7-12.6 6.3s-9.6 3.4-14.7 3.9c5.3 3.4 11.5 7.8 17.1 11.7.6.8.2 1.9.9 2.8.5.7 1.7 1 2.2 1.7 2 2.7 3.4 7.9 4.5 12.1 3.5 13.1 7.1 26.7 9.3 40.5 3.2 19.3 6.6 39 8 58.5-.4 1.2 1.4.2 1.1 1.3.8 13.5-2 22.6-5.4 32-1 2.9-2.3 5-2.8 8.4-6.2 13.1-9.6 29.1-18.6 39.4 5.7 4.9 10.2 11.9 15.2 18 1.3 1.5 2.9 2.8 4.1 4.3.4.5.5 1.4.9 1.9 2.8 4.1 6.6 8.5 9.7 12.8 10.6 14.5 21 30.3 28.2 48.5H427c-9.4-23.3-23.5-41.7-37.7-60.2-8.1 4.3-16 8.7-23.2 13.9-1.1 7.5 1.5 15.5 4.1 21.9 2.2 5.4 5 10.3 9.1 13.9 5.7 5 13.2 8.3 21 10.4-3.7-.1-8 .9-12.3.2-3.1-.5-7.4-3.7-10.4-5.8-6.7-4.8-10.4-10.5-13.4-19.1-1.5-4.2-2.9-8.8-3.2-13-.3-3.4-.1-7 1.3-8.7 1.3-1.5 4.4-2.4 6.5-3.7 6.2-3.7 12.9-8.4 19.3-11.3-4.1-5.3-8.1-10.3-12.6-16-1.2-1.5-3.2-4.6-4.8-4.8-1.9-.2-4.8 3-6.3 4.3-2.1 1.9-4.3 3.2-4.8 5.6-.6 3.2.1 5.7-.9 8.2-.9 2.5-2.7 4.8-4.1 6.9-1.4 2.2-3.4 3.6-5 5.8-.8 1.2-1.3 2.5-2.2 3.7-2.4 3.4-5.6 6.4-8.9 9.1 6 12.5 11.2 25.9 17.1 38.5h-12.3c-4.5-12-9.6-23.3-15.2-34.2-.7-.3-2.4 0-3.2-.6-2.2-2.1.4-5.4-.9-7.4-2.2-.1-5.4.5-7.6-.4-1-1.5-1.7-3.4-2.8-4.8 1.3-2.2 3.5-3.4 5.2-5.2-1.7 1.4-4.1 2-6.8 1.7zM258.1 20.5c-1.1-.6-1.7.6-2.6.9.5 2.4 2.5 3.3 3.2 5.4-14.4 2.6-22.5 13.4-29 23.6-.9 1.4-2.2 3.1-2.2 5 1.5.1 1.9-1.8 2.6-2.8 2.3-3.5 4.9-7.6 7.4-10-1.2 5.4-7 9.1-6.9 15.8 1.3-1.1 1.4-3 2.2-4.5.7-1.5 1.5-2.9 2.4-4.3 2.3-3.9 4.2-8.6 8.9-9.5.6-.5-.4-1.2.4-1.3 5.1-1.6 9.1-6.2 15.8-4.8.5.5-.5.8 0 1.3 1 .6 1.3-1.1 2.4-1.1.4 1 .8 2.1 1.1 3.2-.7.1-1.2.4-1.7.6-2.7-1.5-7.2.1-10.2.9.1-.7-.5-.6-.9-.9-3.1 2.6-6.9 4.7-10.4 6.9.4 2.3-1.7 3.3-2.8 4.8.4 3.4-3.1 5.8-2.6 9.3 1.8-.4 2.4-2.4 3.2-3.7.9-1.4 1.9-2.7 2.8-4.1 1.8-2.6 3.6-6 6.1-7.8 1.3-1 3.4-1.5 5.4-2.2 3.1-1 5.5-2.5 9.1-2.8-1.4 2.4-4.2 5.4-7.6 4.3-1.1 2.1-3.1 4.4-3.5 6.5 1.9-1.9 4.8-4 7.1-4.8-1.2 2.3-3.7 3.4-4.8 5.8-5.2 3-8.1 8-11.5 12.8-1.9 2.7-4 5.2-5.4 7.8 2.6-2.6 5.1-5.9 8.2-8 1.1-.7 2.3-1.9 3.7-1.9-2.9 6-7.6 10.6-11.5 15.8-2.9 3.9-5.7 8.1-8.2 12.1-.8 1.3-1.3 3.4-3.2 3.7.3-2.7 2.3-4.7 3.7-6.9C232.9 78.9 238 73 242 67c-7.3 7-13.4 15.2-19.1 23.8 1.2.7 1.6 2.3 3 2.8 1.3-1.5 2.8-2.8 4.1-4.3 1.3-1.6 2.1-3.7 3.9-4.8-1.5 4.3-4.6 6.9-7.6 9.7.7 1.3 2.4 4 .4 5-.4-.4-.4-1.2-.6-1.7-.5.1-.9.4-1.3 0-2-3.2-5.6-6.6-10.4-4.5-1.7 2.6.3 6.4 1.7 9.1 1.4 2.5 2.5 4.9 3.5 6.9 2.5 5.4 3.3 10.1 5 15.6 1-.6 1.8-.4 3.5.2.4-1-1.2-2.8.4-3.5.9-.7.7 1.4 1.7.6.7-1.6-.6-5.8-1.3-6.7.4-.1.6-.6.6-1.1.5.8 1.5.4 2.2.6.2 1.6 1.1 2.5 1.5 3.9 0 .7-.6.7-.4 1.5 1.9 9.5 7.2 18.1 13.6 23 1.4 1 3.1 1.6 4.5 2.6s2.5 2.5 3.9 3.5c2.3 1.7 5.5 2.6 8.2 3.9 2.8 1.3 5.9 2.4 8.2 4.1 1.3 1 2 2.6 3.2 3.7 3.8 3.5 13.3 5.9 19.3 3.9 5-4.2 9-10.2 13.4-14.7 8-8.2 14.6-15.8 17.1-29.7.4-2.1 1.3-4.4 1.5-6.3.9-7.9-1.3-16.9-4.1-22.5.2-.8-.3-.8-.2-1.5-.8-.2-1 .9-1.3 0 1.6-3.1.1-6.9-.9-10.2-2.6-1.7-4.9-4.6-8.2-4.1-5.8.8-10.3 5.9-15.8 7.1-4.5 5.8-.9 18.2 1.9 23.6 5.4.9 7.1 11-.4 10.8-1.9 3.1-9.8 3.2-11.5-.2-1.5.1-3.9 1.3-4.8.6-.1-1.9 1.9-1.7 3.2-2.2.2-.5.1-1.9 1.3-1.9 2.1 1.8 3.1 4.7 6.9 4.3.9-.1 3.3-1.2 3.9-2.2 2.3-4-1.4-8.4-2.8-11.7-2.6-6-3.1-17.5.6-21.7.4-4.8 4.7-7.6 9.5-8.7 3.8.7 10.8-1.4 14.5 1.1-.3-2.1.3-4.2 0-6.5-.6-4.8-2.8-10.5-5-14.9-2.3-4.5-5.6-8.9-8.4-11.7-1.9-1.9-4.6-3.2-6.9-3.9-.6 0-.3.8-.9.9-5.7-4.3-13.3-4.5-22.1-3.9-1.2.9-2.4 1.8-3.5 2.8-.5 1.6-.7 3.5-2.6 3.7.2-1.4 1.1-1.2 1.7-1.9-.4-.2-.6-.8-.2-1.1 3.4-4.7 9.6-8.2 17.1-7.4 1.8.2 3 1.4 4.8 1.9 1.9.6 4 .2 5.2 1.7.8.2.6-.5 1.3-.4 1.1.8 1.9 1.9 3.2 2.4.3-.2 0-1.1.6-.9 3 1.4 4.7 4.1 6.7 6.5.3.4.8-.3 1.3.2 4.8 5.9 8.3 14.7 11.5 23.8 4.6 13.1 9 29.4 8 44.8-.2.7.7.3.4 1.1-.1 0-.4-.4-.4-.4-.6 2 .4 5.5 0 9.3 0 .4.6.1.6.4-.3 0-.8 0-.6.4-.7 8.2-2.6 18.2-2.8 27.3.3-.3.7-.6 1.3-.6-.5-4.4-1.1-9.8 2.6-11 1.4-9.9.7-23.5.2-34-.1.4-.1.9-.6.9.2-1.9-.4-5.3.4-5.8-4-23.1-9.7-44.6-22.1-59.3 1.7.6 2.1 2.6 4.3 2.8.1-3-4.3-3.4-5.4-5.8-3.3-.7-5.6-3.3-8.2-5-3.9-2.4-8.9-4.6-14.7-5.2-3-.3-5.7-1.9-9.1-1.5-6 .6-11.3 3.8-11 11.5-1-1.9-2.2-4.7-1.1-6.9-.5-.7-1.1.9-1.5.2 4-5.4 8.9-10.8 18.8-9.5.7.2.3-.7 1.1-.4 2 .4 3.7 2.2 5.8 1.7.2-1.9-2.8-1.1-2.4-2.6-3.1-.9-6.8-3.5-10.2-2.8 1.6.2 3.1.5 4.1 1.3-2.9-1.1-7.3-1.1-9.3.9-4.6-.6-7.7 3.8-10.2 6.7-.5-1.1-1.6-1.7-1.9-3 .9-1.9 1.9-3.6 3.2-5-1 .8-1.3 2.8-2.5 4zm-10.7-1.9c-8.4.8-12.4 3.9-16.7 8.9-6 7-11.7 14.8-14.5 24.3-2 6.8-3 14-4.8 21-1.8 7.2-3.1 14.5-4.1 21.2 3.2-4.9 4.8-11.4 7.1-17.1-2.4-2.2-.8-7.6.2-11 2.3-7.8 5.6-16.8 9.7-21.9-1.2-4 1-6.8 3.5-9.7 1.7-2.1 3.6-4.4 5-5.8 1.3-1.3 2.6-1.9 3.5-2.8 1-1 1.5-2.2 2.4-3 3.1-2.7 8.4-3.8 13.4-3.5-1.4-.6-3.1-.8-4.7-.6zm3.5 3.2c-2.2.9-4.9 2.8-7.4 4.5-2.6 1.8-5.6 3.5-6.5 5.6 2.9-.3 4.8-2.9 7.1-4.5 2.4-1.7 5.1-3 7.8-4.3.9.1 1.5 1.3 2.2.4 0-1.9-2-2.2-3.2-1.7zm-31.2 40.1c.6.4.5-.6.6-.9.8-1.6 1.5-3.3 2.4-4.8 1.2-1.9 3-3.5 4.1-5.4 2.1-3.6 3.4-7.8 5.4-10.8-6.1 5.3-9.6 13.3-12.5 21.9zm24.9-10c-1.7 2.4-3.6 4.6-5.4 6.9-1.8 2.3-3.2 4.8-5 7.1-.8 1.1-2.5 1.8-2.4 3.5 4.4-4.5 10.3-11.8 12.8-17.5zm-27.5 28.8c1.9-5.9 4.9-10.7 6.5-16.9-.3 0-.2-.4-.4-.4-1.5 6.2-5 11.5-6.1 17.3zm7.4-13.4c.4-.9.9-1.7 1.3-2.6-.9.3-1.4 2.1-1.3 2.6zm-1.3 10.8c.6.2.6.9.9 1.3.4-1.8 2.9-2.3 3-3.9 0-.1-.8-1.1-.9-1.5-.2-1.1.6-2.2.2-3.2-1.1 2.3-2.3 4.7-3.2 7.3zm-14.7 20.2c.8-1.3 1.1-4.1 1.1-5.4-1 1-1.2 4-1.1 5.4zm126.7 11.4c-.1-6-.3-10.7-1.5-15.8.4 5.3.6 10.9 1.5 15.8zM208 115.4c-.1-1.1.3-3.9-.2-3.9.1 1.1-.2 3.8.2 3.9zm90.3-.7c.9.1 1.4-.2 1.9-.4-.1-1.4-.7-2.4-1.7-2.8.3.7 0 2.2-.2 3.2zm-89.8 5.2v1.5c.7-.2.7-1.2 1.1-1.7-.6-.1-.5.4-1.1.2zm120.4 5.7c0-1.9.2-3.3-.2-5.4 0 1.3-.7 3.9.2 5.4zM206.5 131c.7-3.2.3-6.8-.4-9.7-.5 3.1-.1 6.8.4 9.7zm24.1-7c.7.3 1-1.2.2-1.1-.2.3-.3.6-.2 1.1zm-3.1 7.4c-1.6.2-2.6 1.2-2.6 3 2.5 1.4 4.7-1 4.5-2.8-.1-.4-1 0-1.1-.4-.1-2 2-4 .4-5.4-1.1 1-2.5 4-1.2 5.6zm-2.8 5c1.5 4.5 10.1-.7 5.4-3.7-.4 2.5-2.4 4.5-5.4 3.7zm107.2 6.7c.3-2.8.8-6.4.4-9.1-.1 3.1-1.4 5.8-.4 9.1zm2.4-3.7c.5.1.5-.4 1.1-.2 0-.7.2-1.7-.6-1.5 0 .8-.3 1.2-.5 1.7zm-102.2 1.3c0-.4.7-.1.9-.4 0-.4-.1-.7-.4-.9-.2.4-1.1 1-.5 1.3zm17.1 20.2c.3 1.1-.7.9-.9 1.5 2.5 2.6.8 9.5 1.3 14.1 6.2.1 11.6 1.1 16.5 2.6 2.8 3 4.6 7.9 4.8 12.8 9.9 2.4 18-1.8 24.3-5.2.2-6.6-1.3-13.2-.9-18.6-.4.6-1.1-.3-.9-1.1-4.6 2-8.3.8-11.9-.2-4.4-1.2-6.8-2.3-9.7-4.5-1.5-1.2-3.1-2.9-4.8-3.9-1.2-.7-2.7-.7-4.1-1.3-1.1-.5-2.2-1.5-3.5-2.2-3.9-2-8.5-4.4-11.9-6.1.5 4.2 1.1 7.6 1.7 12.1zm68.4 0c1.5-.9 1.6-3.6 1.9-5.6.4-2.2.7-4.7.6-6.5-.8 3.9-2.2 7.4-2.5 12.1zm4.3-4.8c.3-.7 1.3-.8 1.5-1.5-.6-1.7-2.5.3-1.5 1.5zm-8.2 6.9c1.1-1.5 1.1-5.1 1.1-6.9-.4 2.1-2.1 4.1-1.1 6.9zm-124.5 3.5c1 .4 3.1-.2 3.7.6-1 2.1-3.3 3-6.1 3.5-.3.7-.2 2-.2 3 1.7.3 2.1-1.5 2.8-2.4 2.1-2.4 4.7-4 7.4-5.8-.1-1.1 1-2.1.4-3-2.8 1.2-6.1 2-8 4.1zm165.4-1.3c-7.7.1-14.9 2.9-20.6 5.4-1.9.8-4 1.5-4.1 3.5 5.7-1.7 14.1-5.4 22.1-4.1.8.1 1.9.4 2.4 1.3-1 1.1-2.3 2.3-4.1 2.4-.8 0-1.6-.5-2.4-.6-8.6-1.2-17.1 2.9-23.2 5.4-.1 1 .4 1.5.2 2.6 9.1-2.2 21.1-5.6 31.8-2.8-2.3 4.2-8.7 1.7-14.5 1.9-5 .2-9.7 1.2-13.9 2.2-1.1.3-3.5.4-3.2 2.2 2.5-.4 5.2-2.5 9.3-1.9 3.5 4.2 8 5.4 14.1 7.6 2.8 1 6 1.7 8.7 1.9 9.1.7 14.1-2.8 20.4-4.3-1.6-6.1 4.6-10.6 8.7-6.1.8-1.3 2.1-2.1 2.8-3.5-6-1.4-10.4-4.4-15.8-6.5-.6 3.5-3.7 4.4-7.6 4.5-1-1.3-3.4-.5-3.9-1.9-.8-2.4 5.1-4.3 6.9-5.2-4.1-2-8.6-4.1-14.1-4zm-171 8.2c-.1-1.3.5-2 .6-3-2.6-.5-3.8-2.4-5.2-4.1.6 3.3 1.9 5.8 4.6 7.1zm35.3-5.8c-.1-.4.3-1.5-.4-1.3-.1.5-.2 1.2.4 1.3zm-28.6 6.5c2.5-.9 4.1-2.7 6.1-4.1-.1-.9.3-2.3-.2-2.8-2.3 2-4.9 3.6-5.9 6.9zm13.4-5.2c-.8.7-1.5 1.5-2.4 2.2-.3.6 1.1-.3 1.7-.6.8-.5 1.8-1.1 2.2-1.5-.5-.1-1-.1-1.5-.1zm-6.7 7.3l6.9-1.5c.8-1.9 3.2-3.3 3-5.4-3.3 2.1-7.7 4.3-9.9 6.9zm-6.1.5c1.9-.5 4.3-1.5 4.5-2.8-1.2 1.1-3.2 1.5-4.5 2.8zm23.6 2.1c1.3-.4 3.3-1.3 2.8-2.8-.7 1.1-1.8 1.9-2.8 2.8zm-5.8-1.9c-.8 2.2-3 4.2-3.5 6.1 1-1 2.4-2.1 3.7-3.2 1.1-1 3.3-2.3 3-3.2-1 0-2 .3-3.2.3zm-23.6.8c.4-.5 1.2-.6 1.5-1.1-.9-.2-1.8.9-1.5 1.1zm9.3 1.3c-.5 1.2-1.3 2-1.5 3.5 1.3.1 2.1-.2 3-.4-.5-1.9 2.5-3.4 3-2.2.9-.5 2-1.8 2.2-2.4-2 .7-4.4 1.1-6.7 1.5zm119.3 1.8c-.5 3.3-.9 6.9 0 10 1.2 1.1 3.2 1.9 5.2 1.1.6-1 1.7-2.6 1.1-4.1-6.9 2.7-6.4-9.5.4-7.1-.9-3.5-4.9-.7-6.7.1zM265 226c.7-4.7.6-11.2.6-17.1.1-10.6 1.2-22.3-3.9-26.9-4.8-1.6-10.4-2.7-16-2.8-4.9-.1-7.8 2-11 4.3-1.8 1.3-4.1 3.1-4.8 4.5-1.7 4-.7 14.2-.9 19.5-.1 3.3-.4 6.7-.2 10 .4 9.5 1.7 15.6 7.1 19.5 1.5-.7 2.6-2.8 5.2-3.5.8-.2 1.9 0 2.8-.2 1.5-.3 2.6-1 3.9-1.1 3.7-.2 6.4 1.2 8.4 3.5 3.9-2.1 8-4.3 8.8-9.7zm-76.2-41.3c.2-2 1.9-3.7 1.9-5.2-3.3-.7-7 5.1-1.9 5.2zm25.1-2.2c.4 0 .7.1.9.4 1.5-.2 1.4-2.1 1.9-3.2-1.4.5-1.9 1.8-2.8 2.8zm-50.7 5.9c-12.2 21.3-16.4 50.7-18.2 82.5.5.4 2-.9 2.8-.2-1.7 11.9-2.3 26.8-1.7 39.8.5 10.9 2.5 22.1 5.4 30.5 2.4 6.9 3.5 12.5 11.3 13 .5.1.3.9.6 1.1 3.9-.9 8-.9 11.7-2.4 2.7-1.1 5.2-2.2 8-2.8 11.7-2.6 20.6-8.1 30.1-12.8 4.8-2.4 9.2-6 14.9-6.7-10.9-4-16-16.6-14.3-32 .1-1.2.5-2.3 1.1-3.5-11.1 1.2-19.9 4.8-29.5 7.6-.6 2.1-2.4 3.1-4.8 3.5-.9.1.1-1.7-.9-1.5-6.4 2.5-13.3 4.5-18.6 8-.2 1.9-3.1 4.3-5.4 3.2 1.7-4.2 6.1-6 10.2-7.8 4.1-1.9 8.7-3.3 12.6-5.4-3.1-1.3-6.8-.1-10.2.4-3.5.5-6.9 1.5-10.4 1.1 4.3-4.7 14.7-3.4 21.9-5.2-1-9.5-1.7-22.1-3.2-31.6-.6-3.6-.7-7.4-1.5-10.2-.2-.9-1.5-2.2-1.3-3.2.3-1.8 3.4-2.6 5-2.6 1.8 5.2 2.4 11.5 3.2 17.5 2.6-2.1 3.8-6.8 8.2-6.3-.7 1.8-2 3-3 4.8-1.7 3-1.9 6.8-4.3 8.4.8 8.2 1.6 16.4 2.2 24.9 6.7-1.7 15.1-5.4 22.5-6.9 2.8-.6 6.1-.5 8.7-1.3 2.2-.7 5.2-4.1 8.2-3.7 1 .1 1.7 1.2 2.6 1.5 3.7-1.9 9.1-2.1 11-5.6-1.5-1.8-3.3-4.4-5.6-6.3-1.1-1-2.6-1.5-3.5-2.4-1-1-1.9-4.3-1.5-6.3.7-3.6 6.1-6.3 7.6-9.1-4-4.6-6.8-9.9-10.8-14.3-4-4.4-8.9-8.2-11.3-14.1-1.4-1.3-4.3.1-5.4-.6 3.3-4.3 7.5-8 10.8-11.9 1.2-1.4 2-3 3.2-4.5 1-1.3 3.1-1.8 2.4-4.1-1.2-.1-1.7-.9-2.6-1.3-3.8.2-10.4 0-14.3.4 3.7-6.9 7.7-13.5 10.4-21.4-1.9.6-4.8.6-6.7 0-2.5 2.2-7.3 3.1-10 4.3-.7-3 1.2-3.5 1.5-5.4-4.6 1.4-6.2 5.8-11.7 6.3-1.1-1.1-3.5.2-4.8-.9-.4-3 2.7-2.5 2.4-5.4-2.1.1-6 .9-6.9-.9-1.3-2.9 1.7-4.5 2.2-5.6-7 2.4-13.8 4.8-20.3 7.4zm36.2-3.5c1.2-.4 2.3-2.2 2.4-3-.7 1.1-2.2 1.4-2.4 3zm5.8 2.6c.7-.1 1.8.2 2.2-.2-1.2-2.2 2.8-2.8 1.7-4.1-1.2 1.5-3.7 1.8-3.9 4.3zm104.6-1.7c-.7.6.1-2.1-1.1-2.2-2.1 1.2-4.2 2.6-6.7 3.5 1.2 1 2.1 2.3 2.4 3.7-1.2 2.4-2 5.2-6.1 4.8-1.8-1.1-3.5-2.4-5.2-3.7-2.6.9-5.2 1.9-7.8 2.8.3 3.4-3.8 7.4-7.8 7.4-2.9 0-4.6-2.4-3.2-5h-3.5c-.5 2.1-.1 5-.2 7.4 6.3 1 15.3 1.9 22.7 1.1 3.9-.4 6.7-2.8 9.5-3.5 1.1-2.8 2.6-5.2 3.9-7.8-.4-.8-1.5-.8-1.5-1.9 1.2-2.5 5.3-3.1 4.6-6.6zm-118.4 4.3c1.1.3 2.5-.8 3.7-1.1-.2-1.8 1-2.3 1.1-3.9 0-.2-.2-.3-.4-.2-1 2.2-3.6 2.8-4.4 5.2zm30.9-3c-2.7 7.2-6 13.8-9.7 19.9 2.4 0 6.3-1 8.9-.4 1.2.3 1.4 1.3 2.4 1.1 1.2-5.4-.5-13.8 1.5-18.4-1.8-.3-.7-3.8-3.1-2.2zm104.6 4.5c7.2 2.7 11.5 7.2 16.2 12.3 2.5 2.8 5.2 5 6.9 8 3 5 3.5 11.5 5.8 16.9 2.4 5.4 5.3 9.3 10.2 12.6 4.4 1 7.1 3.6 10.2 5.8-6.4-.1-12.5.9-18 .2-8.4-1-16-3.9-23.6-5.6-4.9-1.1-9.4-3.1-12.8-5.8-1.6-1.3-3.1-4.2-4.8-5.2-3.8-2.2-10.5.5-14.7-.2 1.3 1.9 3 2.9 4.5 4.8 3.2 3.9 5.4 10 10.6 11.3-13.2 11-31.2 17.3-43.1 29.7.4 4.2-3.9 4.9-4.8 7.1 6.1 20.9 15.7 39.9 23 59.8 3.6 9.9 8.4 19.3 12.1 29.2 3.7 10 8.3 19.5 12.3 29.2 4.4-1.4 9.3-4.1 15.2-2.6 4.8-3.5 7.5-9.1 11.7-13.2-3.6-1.1-2.2-7.3-4.3-10 1.3-2.7 1.7-6.4 2.8-9.3-1.9-2.3-4.1-5.9-3.7-9.1-2.8-4.6-4.7-9.8-6.3-15.4-1.6-5.6-3.3-11.8-3.7-18-.9-14.2 7.7-23.1 13-33.1 4.6-8.7 12.2-15.2 15.6-24.7 1.4-3.8 1.6-7 6.5-6.9-1.8 6.7-5.3 12.3-8.9 17.8-1.3 1.9-3.3 3.8-3.7 5.4-.8 3.5.5 8.7.9 12.1 1.4 12.5 2.2 24.1 4.5 34.9 3.4-2.8 8.4-4.3 13.6-6.1 3.5-1.2 7.5-2.7 11.3-1.7-2.7 3.9-8.7 3.3-13.6 5-3.2 1.1-6.1 2.2-8.9 3.2-.6 1.9-2.3 3.9-2.2 5.8.6-.6 1.6-.7 2.6-.9 6.1 3.7 17.8 1.6 25.1 3.7-2.7 4.5-8.9 3-15.8 2.6-5.5-.3-10.2-.6-13.6-1.9-2 5.9-4.5 12.8-6.3 19.1-.6 2.2-1.6 4.2-2.2 6.3-.7 2.5-.9 5.8-1.7 8-.3.7-.8 1.3-.7 1.9 3.9.4 7.8.2 11.5.4 12 .8 20.2 6.8 22.7 16.7 2-4.5 3.7-9.3 5.6-13.9.2-1.1-.7 0-.4-1.3 4.4-15.1 12.5-26.3 12.3-45.9-.2-.7-.8-.9-.9-1.7-1.9-22-5.2-46.2-9.1-67.1-1.3-7.3-2.3-14.7-4.5-21-1.7-4.6-2.8-9.9-4.5-14.9-1.6-4.7-2.8-10.7-5.4-14.1-.7-.9-2.1-1.6-3-2.4-2.3-2.1-4.1-5-6.9-6.9-2.2-1.5-5.1-2.7-7.6-4.3-2.6-1.6-5.2-3.2-7.8-4.1-2.4-.8-5.2-.9-7.6-1.9-1.2-.5-2.1-1.5-3.2-1.9-2.3-.9-5.1-.8-7.6-1.1-.3.4-.8 1.2-.8 2.4zm-122.8-2.2c-.3.3-.2 1.1-.2 1.7.8-.2 1.8-1.3 1.5-1.9 0 .5-.9.1-1.3.2zm121.7 16.7c.9 2.1 3.1 4.5 1.3 6.9-2.4.3-2.5-2.4-2.8-3.9-1.1-5.5-3.6-10.3-7.4-12.8 1.2 4 3.1 7.8 3.5 12.6.4 4.9-.4 9.9 0 14.7.3 3.7 3.2 7 5.6 9.1 3.5 3 8.3 5.2 14.1 6.5 7.1 1.6 13.8 4 20.4 4.5-.7-1.9-3.6-3.5-5.6-4.8.3-.3.7-.4.2-.9-4.1-5.3-6.3-12.6-8.2-20.1-2.6 2.2-9.9 1.7-8-4.8.7-1.2 1.7-2.2 3.5-2.4-5.3-6.1-10.4-12.4-18-16.2 4.3 4.1 7.7 9.5 10.2 15.6.7 1.8 2.7 4.3 1.1 6.3-2.8-.5-2.8-3.8-3.5-5.6-2.4-6.5-7.6-11.1-11.3-16.2h-.6c2.8 2.7 3.9 7.5 5.5 11.5zm-9.9 1.7c-.3-3.7-2.1-6.4-2.8-9.3-1.3-.6-1.4-3.2-2.6-3.2 0-.1 0-.3-.2-.2-4.4 9.8-10.3 18-15.6 26.9 1.5 2.1 3.5 3.7 5 5.8 4.8-.1 10.8-.3 16.5-.6-1.4-5.8.2-13.4-.3-19.4zm-36-9.7c0-.5-.8-1.4-1.1-.9.4.4.6.8 1.1.9zm-9.5 10.2c-.5 5.7.3 11.1-.4 15.8-1.1 7.6-7.8 10-13.2 13.4.8 3-1 5.2-2.6 6.5 2.2.7 1.9 3.9 3 5.6 2.8-.6 5.6-2.1 8.4-1.1s2.9 4.2 3.7 7.1c1.8-2.7 3-5.6 4.8-8.2 3.5-5.3 7.5-10.2 10.6-15.6 1.6-2.7 3.7-5.2 4.5-8.2 4.2-4.5 6.9-10.8 10.4-16 .4-.8-1-2 .4-2.4.1 0 .2-.2 0-.2-6.1 4.6-20 3.5-29.6 3.3zM216 225.8c-.8.9-2.3 2-1.9 2.6 1.7-.1 2.6.7 3.9 1.1 1.9 5.3 6.2 8.9 9.7 12.8 4.1 4.4 7.9 9.8 11.3 14.7 1.3-1.6 2.9-2.9 5-3.7-.5-1.9-1.2-3.6-1.1-6.1-4.8.2-9-.3-8-5.8-9.1-2.6-11.1-12.3-11-24-2.4 2.7-5.5 5.8-7.9 8.4zm56.6 32.7c-.8.9-2.1 1.3-2.4 2.8 2 .6 2.5 7.3.6 9.3 1.6.4 2.5 1.4 3 2.8 11.2-9.4 25-16.2 37.5-24.3-4.4-2.9-6.2-8.1-9.5-11.9-3.2-3.6-7.3-6.4-10-10.4 0-.1 0-.3-.2-.2-6 11-14.6 19.4-19 31.9zm-31-19.5c3.3-.1 7.1.3 9.3-.9-1.5-3.5-8.8-3.7-9.3.9zm-1.7 3.3c1.1 2.5 5.3 1.9 8.9 1.9-.5-.8 0-3 0-3.2-2.1 1.3-6.1.8-8.9 1.3zm8 4.3c.2 1.8.8 3.1 1.1 4.8.8-.1 1.4-.3 1.9-.6-.8-1.2-1.1-2.8-1.5-4.3-.8-.3-.8.2-1.5.1zm-8.2 12.8c-2.7 2.5-4.7 4.9-7.1 7.8-.9 5.9 2.5 6.2 5.2 8.7 1.8 1.7 5.4 4.9 5.4 6.7.1 2.1-3 3.8-4.8 5-4 2.6-7.8 3-11.7 5-.3.4-.3 1.1-.9 1.3-3.5.3-4.3 1.1-6.9 1.7-1 11.2.7 21.3 6.3 26.6 11-5.9 19.6-14.2 30.5-20.1 2-3.8.3-11.3 1.5-15.4 0-1.2-.8-1.7-.6-3 5.7-.9 9.3-3.4 13-6.3-.5-.6 0-2.2-.4-2.8-5.2 1.1-10.8 3-15.4 4.1-.2-1.6.8-2.1-.2-3.7-.5-.5-1.9 0-1.7-1.1 1.4-1.9 3.9-2.5 6.1-3.5 2.2-.9 4.7-2.2 7.6-2.2.4.8 0 2.4.6 3 1.7-.7 1.1-4.5.6-6.1-6.9-2.5-13.4 4.4-19.5 3.5 3.7-5.1 11.8-6.2 18.8-7.4.1-1.1.9-1.3.4-2.4-1.2-.7-3.2-.7-5.2-.7-2.5.3-5.9 1.8-7.6 1.5-.2.9-1.4 1.2-2.2 1.5-2.7 1.1-5.2 2.2-7.8 2.4 3.9-5.7 13.5-5.7 20.1-8.7-.9-.8-1-2.3-2.2-2.8-8.3 1.7-17 2.8-21.9 7.4zm18.8 13.6c.4.1.1 1 .6 1.1.5-.4 1-.7 1.7-.9.2-2-1.7-1-2.3-.2zm38.1 93.4c-2-4.4-4.1-8.8-5.8-13.2-1.8-4.6-3.4-9.4-5.2-14.1-7.1-18.3-16.1-35.9-21.4-55.4-.4-.3-.9 0-1.1.2-1.5 1.3 1.3 8.3 1.9 10.4 1.1 3.9 2.2 7.3 3.5 10.4 2.8 6.8 6.6 12.1 9.5 18.2 3.1 6.6 4.2 13.9 6.9 20.8 1.3 3.3 3 6.4 4.1 9.7 1.2 3.5 2 7.2 3.2 10.6.9 2.5 2.6 4.9 3.7 7.6 3.3 8 7.3 15.7 11.7 22.1-4.3-8.9-7-18.4-11-27.3zm37.3-43.8c.5 6.3 2.2 13 4.1 18.8s3.9 11.4 7.1 15.8c2.4-8.3 5.3-16.2 8.4-23.8.3-.9-1.5.4-1.5-.6-2.8-13.5-4-28.5-5.6-43.1-4.9 9.4-13.6 18.7-12.5 32.9zm-107.5.9c1.1 1.7 3.1 2.6 5 3.5-.2-2.1 0-4.6-1.1-5.8-1.2.7-2.7 1.4-3.9 2.3zm120.4 58c1.4-.9 3-1.6 3.7-3.2-1.2-.2-3.6-.5-4.5-.2 0 1.3-.1 2.1.8 3.4zM336 448.6c2.8-2.2 6.2-4.5 8-6.9.5-.7.6-1.7 1.1-2.4 1.6-2.2 3.4-3.6 4.8-5.6 1.3-1.9 3.1-4 4.1-6.5.9-2.4.3-4.6.9-8 1.1-6.1 8.1-7.7 11.5-11.9.6-.8.8-1.9 1.3-2.6 1.6-2.2 4.4-3.1 5-5.8.7 0 1.4.1 1.3-.6.3-4-.8-7.9-2.8-10.4-3.6-4.5-9.9-9.9-17.1-9.3-2.6 3.9-6.1 6.7-8.4 10.8-.7.1-1 .5-1.5.6-.7 2.3-2.5 3.1-3.9 4.5-2.5 2.5-4.3 7.5-8.4 8-1.6.2-2.8-.7-4.5-.9-3.4-.4-6.1.8-9.1 1.7.2 1.2.8 2 1.1 3 2.3-.4 4-2.4 6.7-1.7 2.3 4.9-2.8 11-6.3 13.6-1.1.8-2.6 1.6-3.9 2.6-1.2.9-3.2 2.3-3.2 3.2-.4 4.1 5.6 1.3 8 .4 2-.7 4.1-2.2 5.6-2.6.1 0 .9.2 1.3.2.6 0 1.4-.5 1.5.2.1 3.3-4.1 3.7-6.9 5.4-1.2.7-2.5 1.8-3.9 2.6-2.4 1.4-4.7 2.8-3.7 5.6 2.8 0 5.3-1.7 7.8-2.8 2.7-1.1 5.3-2.2 7.6-3.7.4 1 1 1.7 1.1 3-2.1.7-4.2 2-6.7 3.5-2 1.1-5.4 2.4-6.1 4.1-.6 1.7.5 3 1.7 3.2 3.8.7 11.8-3.1 14.3-4.3.5.7 1.9.4 1.9 1.5-.5 1.9-2.6 1.8-3.9 2.8-1 .8-2.1 2.5-3 3.7-1.1 1.3-2 2.8-2.8 4.1 2.6 3 7.4-.6 9.5-2.3zm-16-40.4c0 .9.5 1.4.9 1.9.2-.6.3-1.3.2-2.2-.5 0-.9.1-1.1.3z"/><path class="st0" d="M308.9 126c.1.7.4 1.2.4 1.9-5.1 5.6-9.6 15.8-20.6 15.8-9.1 0-16.3-5.8-21.4-11-1.1-1.1-1.6-2.8-3.5-3-1.1-.3-.9 1.6-1.7.9.1-1.8.8-3 2.2-3.5.1.7-.5.8 0 1.3 6.9.4 12.7-2.4 19.1-2.6 2.5-.1 4.9.9 7.4.6 2.8-.3 5.4-1.6 8.2-1.5 3 .1 5.4 1.2 8.4 1.7 1 .3.8-1.3 1.5-.6zm-7.1 1.5c-5.2 1.5-9.8 2.7-15.4 2.8-6.2.1-12-1.4-17.5 0 4.8 2.7 9 6.6 16.2 6.9 7.1.4 11.7-1.2 16.2-3.5 1.2-2.1 3.8-3.9 4.3-5.8-1.1.1-2.8-.7-3.8-.4zm-18.4 11.3c4.8.6 10.8.6 13.2-1.7-3.6 1.3-8.6 1.3-13.2 1.7zm9.1 1c1 .3 2.4-.2 3-.9-.9.5-2.2.5-3 .9zm-4.8 2c1.1.2 2.7.3 3.5-.4-1.3.2-3-.9-3.5.4z"/><path class="st1" d="M68.3 285.1c-12.4-.4-24.6-2.8-36.2-7.1-.4-.1-.7-.1-1.1 0 .4-3.3.8-6.6 1-9.9.1-2.1 1-7.1-.7-8.9-.1-.1-.2-.1-.3 0l-.3.3c-.9.7-1.1 3.8-.4 4.7.1.1.1.2.2.3 0 0 .1 0 .1-.1-.2 1 .1 6.3 0 7-.2 2.3-.5 4.6-.8 7-.3 2.5-.7 4.9-1.1 7.4-.2.5-.2 1-.2 1.5l-.6 4.2c-1 7.5-1.5 14.9-.5 22.4.3 2.2 1.3-2.5 1.2-3.4-.9-7.2-.1-14.3 1-21.4 13 4.3 26.4 7.4 40 9.1.7.1 1.2-.4 1.5-1.1.7-.6.8-2.4.6-3.3-.7-3.2-1-6.4-1-9.6 0-.7-.3-2.1-1.2-1.8-1 .2-1.1 1.9-1.2 2.7z"/><path class="st1" d="M70.4 271.5l.3-15.1c.1-3.4-1.3-.7-1.4 1.2 0 2.1-.1 4.3-.1 6.4-.1 0-.2.1-.3.2-2.7 2.9-8.1 1.3-11.3.4-.6-.2-1.1-.3-1.7-.5.2-4.1.3-8.3.5-12.4.1-2.9-2.5-3.2-2.6-.2-.2 3.9-.3 7.8-.5 11.8-2.4-.9-4.7-2.1-6.9-3.4.1-2.7.2-5.4.5-8.2.3-3-2.9-3.3-3.2-.3-.5 5.3-.6 10.5-.5 15.8-.2 0-.3.1-.4.3 0 1.5 0 2.9.1 4.4.1.1.2.2.4.2.1 0 .2 0 .2.1v.1c.1 0 .1 0 .2.1.7.1 1.4.4 2.1.7h.1c7.8 2.3 15.8 3.5 23.9 3.5 1.7-.3 2.1-4.6.6-5.1zm25.8-18.9c.1-1.6.3-3.2.6-4.8.2-1.3.4-2.7.7-4-.1 0-.2-.1-.2-.1-10.3-.8-20-4.4-29.7-7.7-1.9-6-5.1-16.4-11.7-16-5.5.3-7.4 5.6-8 10.7-.1 0-.3 0-.4-.1-1-.1-1.1 2.6-1.1 3-.1 1.6-.3 3.1-.6 4.7-.2 1.6-.5 3.1-.7 4.7 0 .3.1.5.2.8 8.8 1.9 17.6 3.8 26.5 5.7 7.5 1.6 16.3 4.9 24 3.4.2-.1.3-.2.4-.3zm-45.8-21.5c.3-2.2 1.1-4.3 3.2-5.4 2.9-1.6 5.3-.3 7 2.3 1.4 2 2.4 4.4 3.4 6.9-4.5-1.6-9-2.9-13.6-3.8zm32.3-33.2c-.1 0-.3 0-.4-.1-.4-.1-.9-.1-1.3-.3 0 .1-.1.1-.1.2-7.5-2.1-15.2-3.5-23-4.2-2.3-.2-6-1.2-7.9.7-2 2-2.5 6.5-3.3 9.1-.2.5-.2 1.1-.1 1.7.1 0 .1.1.2.2.3.5.6 1 .9 1.4l.2.2c.1 0 .2 0 .3.1.6.8 1.3 1.5 2 2.2 0 0 0-.1.1-.1 7.2 6.7 14.8 12.9 22.7 18.8 1.8 1.4 3-3.4 1.3-4.6-2.8-2.1-5.5-4.2-8.2-6.4 0-.1.1-.2.1-.3.4-1.8.7-3.7 1.1-5.5.1-.3.1-.7.1-1.1 4.1.9 8.1 2.2 11.9 3.9.9.4 1.3-.9 1.5-1.6.6-2.4 1.1-4.9 1.4-7.3.1-2.3.2-4.6.5-7 0 .1 0 .1 0 0zm-18.2 11.6c-.4 1.7-.7 3.5-1.1 5.2-2.6-2.2-5.2-4.4-7.7-6.6 3.4.3 7.4 1.1 8.3 1.2.2.1.3.1.5.2zm19.2-43.9c-.6-.2-1.1-.5-1.6-.9 0 0-.1 0-.1-.1l-.3.3c-6.7-1.9-13.1-4.2-19.4-7.2-1.2-.6-2 1.3-1.9 2.8 0 .1-.1.2-.1.3-1.9 5.9-3.6 11.9-5.2 17.9l-.3 1.8c.1.6.3 1.1.6 1.5 0 .8.2 1.4.6 1.5 6.8 2.1 13.7 3.9 20.7 5.3.9.2 1.6-4.7.4-4.9-6.2-1.3-12.4-2.8-18.5-4.7.8-3 1.7-6.1 2.6-9.1 3.6 1.5 7.3 2.9 11 4.2 2.3.8 6.7 3.3 9 1.8.9-3.3 1.6-6.7 2.7-9.9-.1-.1-.1-.3-.2-.6zm9.6-20.8c-.1.2-.2.3-.2.5-.4.7-.7 1.9-.5 2.9-.3 1.3-.7 2.6-1.2 3.8-.3-.1-.7 0-1 .2-5-1.4-9.9-3.1-14.7-5.1.6-1.5 1.2-2.9 1.9-4.4.5-1 .6-2.2.5-3.3 0-.3-.3-1.9-.8-1-1.3 2.6-2.3 5.2-3.2 8-2.9-1.3-5.8-2.7-8.6-4.2 1.3-4.1 2.6-8.1 2.9-7.9 1 .4 1.9-4.3.4-4.9-.1 0-.1-.1-.2-.1-.2 0-.4.1-.5.3-1.8 1.7-10.3 23.2-9.3 23.7 8.4 4.3 20 7.8 29.3 9.5.2 0 2.2 1 2.4.8 1.6-3.9 2.5-7.2 3.9-12.7.3-1.3.6-2.6.8-4 0-1.1-.9-4.1-1.9-2.1zm-5.5-30.4c0-.9 0-1.8-.1-2.7-.2-3.1-.5-7.6-2.3-10.1-4.1-5.7-10.4 9.7-11.3 12.5-.2.4-4 8.8-4 9.5-.6 1.2.9 1.7 1.8 2.2 8.1 5.1 16.5 9.4 25.4 12.8 1 .4 1.7.8 2.1 0 2.7-4.7 5.2-12.6 6-18 .7-4.4 1.3-10.2-1.2-14.2-5-8.6-12.5.7-16.4 8zm-8.9-5.1l1.8-2.4c.9-2.1 1.9-2.2 2.9-.4 3.1 2.9 2.6 8.8 1.9 12.9-3.1-1.6-6.1-3.3-9.1-5.1.7-1.8 1.5-3.4 2.5-5zm22.7-.3c3.5 2.5 2.6 8.5 1.9 12.2-.4 2-1 4-1.8 5.8-4.8-2-9.6-4.2-14.2-6.6 2.2-5.4 8.2-15.6 14.1-11.4zm1-51.2c-.2.2-.3.5-.5.7-.1.1-.1.3-.2.5-5 9.1-10.2 18-15.5 26.8-.6 1-.3 5.4.4 4.3 1.5-2.5 3.1-5.1 4.6-7.7 0 .4.1.8.3 1 6.1 5.7 12.4 11.1 18.9 16.3-.4.8-.5 1.8-.3 2.7.1.5.6 2 1.2 1 1.3-2 6.4-10.4 6.4-10.4s-1.4-.6-1.5-.7l-.1-.1c-7.4-5.6-13.8-12.2-19.4-19.6 2-3.6 4.1-7.2 6.1-10.8.4-.5.4-5.1-.4-4zm21.5 65c-.8-.1-6.1.9-4.5 2.6 5.8 6 1.6 15-6.4 15.7-.9.1-4.2 1.2-3.1 2.6 3.7 4.9 8.4 8.4 14.2 10.4 1.7.6 6.9-1.9 4.6-2.7-4.9-1.7-8.9-4.4-12.1-8.2 7.2-2.5 13.7-9.1 10.9-16 7.9 2 15.3 5.8 20.2 12.6 3.1 4.4 5.4 10.5 2.8 15.6-1.3 2.7-3.6 4.6-6.2 6.1-2.3 1.3-5.6 2.7-8 1.2-1.3-.8-1.7-2.8-3.1-2.7 2.7-.4 4.9-3.6.8-3.1-7.1.9-7 8 0 9.3 7.2 1.3 16.1-3 20.5-8.6 5.8-7.3 2-16.9-3.8-23-7-7.3-17-10.5-26.8-11.8zm38.4-10.6c-2.6-1.6-5.3-3.2-7.9-4.7-3.6-2-7.9-5.5-12.2-5.5-12.3 0-6.2 14.1-1.7 19.9 1 1.3 6.1-1.2 5.8-1.6-2-2.6-7.4-11.3-5.7-15.7 1.3.6 2.7 1.6 3.6 2.1 2.2 1.2 4.4 2.5 6.6 3.7.3.2.5.3.8.5-4.9 2.1-5.5 8.2-4.2 13.7 1.5 6.2 5.8 8.1 11.4 5.5 5.1-2.4 5.6-7.5 4.6-12.3 1.8 0 5.2-1.7 4.7-2.1-1.7-1.1-3.7-2.4-5.8-3.5zm-5.7 16.6c-4.2-3-5.2-11.7-2.9-16.3.7.3 1.7.9 2.5 1.4-.2.2-.2.3-.2.4.9 2.3 1.9 4.6 2.1 7 .2 1.2-.2 5.8-1.5 7.5z"/><path class="st1" d="M177.3 89.1c.5-1.3-5.1-.7-5.7.9-2.1 5.1-3.2 10.7-3 16.2-8.8-10.3-17.6-20.7-26.2-31.2-.9-1-5.4.2-5.6 1.5-.8 5.1-2.6 9.6-5.7 13.7-1.3 1.7 4.4 1 5.3-.2 1.9-2.6 3.4-5.3 4.5-8.1 10.3 12.5 20.7 24.8 31.3 37.1.9 1.1 6.3-.7 5.6-1.8-4.9-8.7-4.1-19.1-.5-28.1z"/><path class="st1" d="M179.2 59.3c-3.5-.4-5.6 1-7 4.1-1.3 3-2.4 6.1-3.7 9.2-.6 1.6-1.3 4.2-2.2 6.6-.9-2.8-2.1-6.6-2.3-7.3-1.1-3.5-2.1-7-2.9-10.6-.4-1.9-5-.5-5.6.7-1.8 3.6-3.6 7.2-5.4 10.7-1.2 2.5 4.5 1.8 5.4.1.5-1 1-2.1 1.6-3.1 1 3.6 2.2 7.1 3.6 10.5 1.2 3 1.9 5.7 5.6 4.9 3.4-.7 4.2-3.7 5.3-6.7l3.3-8.4c.8-2.1 1.6-5.8 3.1-7.9.7-.2 1.3-.5 1.7-1 .6-.5 1-1.6-.5-1.8z"/></g><g id="Режим_изоляции"><path class="st0" d="M89.7 376.8c.7-.4 2.3-.2 2.5-1-.6 0-1.6.8-1.9.2 8.3-1.8 15-.7 22.4-1 .1-1.2-1.9-.6-1.4-1.1 1-1 1.8 1.6 2.9 1.8 7.3-.9 17.4-1.3 23-2.1-.9-3.4-1.9-9.6-2.8-13-6.6 2-15.7 3.5-21.6 5.6-2.5.9-6 1.6-8.5 2.9-.7.4-1.1 1.1-1.8 1.4-6.9 2.5-14.7 2.9-21.8 5.5-3.9 1.4-6.8 4.3-10.8 5.5-2.7-1-3.9-4.9-6.7-5.8-.2.5-.7.9-.3 1.8 3.1 1 3.9 5.4 7 5.7 4.1.5 15.7-10.1 19.8-6.4zm21.1-3c-1.3 1.4-5 .5-7.2.7 1.9-.9 5.8-1 7.2-.7zm-22.9-39.7c-.5.9.4.2.7.7.6-.5 1.5-.7 2.5-1 11.2.1 22.9-5.4 33.7-10.1l-2.4-9.3c-11.4 3.7-24.2 7.7-32.9 15.2-2.5 1.5-5.9 3-7.5 3.7-1.1-.1-3.6-1.1-3.3 0-8.6-2.9-25.3 3.8-22.2 14.4.1-8 6.7-11.9 16.3-13.9 5 1.2 9.5 2.9 15.1.3z"/><path class="st0" d="M84.3 346.4c-4.5-2.2-9-4.4-14.6-4.6 1.7 2.3 5.2 1.1 6.5 4.1.9.1.5-.6.9-.8 1.8 1.8 3.1.8 4.5 2.1-.3-.2-.9-.4-.7.1 1.2.5 2.5.8 4 .7 0-.5-.6-.6-.2-.8.1.2.1.3.3.2 3.3 1.9 7.1-.3 12.3-2.1 9.9-3.4 20.2-7.5 30.3-10.4-.7-2.6-1.4-5.3-2.1-7.9-10.5 5.4-23.1 10.7-33.5 16.2-2.9 1.5-4.9 2.9-7.7 3.2z"/><path class="st0" d="M94.7 352.6c-3.5-.5-6.8-2.5-10.1-3.1-2-.4-3.9-1.4-6.1-1.3 1.1.9 2.2 2.4 2.9 1.8.1.6 3.5 3 5.3 3.5.5.1.9-.5 1.5-.4 1.2.1 2.8 1.6 4.4 2.1 2.8.8 5.1.8 8.7-.3 8.8-2.9 19.4-7.3 29.1-9.8-.6-2.4-1.2-4.7-1.9-7.1-7.7 3.7-15.6 7.4-23.4 10.9-3.5 1.6-7.1 4.2-10.4 3.7zm98.1 15.3c-.8-1.3-2.3-1.9-3.8-2-1.5 0-3 .4-4.4.9-15.8 5-31.3 10.9-46.4 17.7l-.6.5-.3-.6c-3.2 1.7-8.3 2.3-9.6 5.2-8.2 1.7-19.2 4.6-25.6 7.4-1-2-2.6-3.1-3.9-4.5 1 .1 2 2.1 2.6 1.6-3-3.2-5.7-3.4-9.7-5.6-13.4-.4-21.5 11.5-17.5 23 1.4 4 4.9 8.4 8.9 10.1 8.3 3.5 19.6-2.4 21.9-10.5-.1-1.6-.1-1.2.5-2.2.1-2.1-.4-5.6-1.1-9.3.1.4.2 1 .7.7 6.4-3.4 16.1-4.8 24.1-7.3.9.2 2.2.3 3.7.2 6.4 1 13.1-.7 19.4-2.7 7.6-2.4 15.1-5.1 22.6-7.9 5.3-2 10.6-4 15.2-7.4 1.2-.9 2.4-1.9 3.1-3.2s1-2.8.2-4.1zm306.1-184.7c.6-.4 1.2-.9 1.8-1.3 3.2-1.8 5.5 1.6 8.3 1.3 1.3-.1 2.5-.9 3.6-1.2 1.3-.3 2.9-.6 4.2-.1 2.7 1 6.2 5.7 7 8.9.4 1.4 0 3 .2 4.6.5 3.8 2.6 8.2 4.6 12.6 2.1 4.6 4.5 9.3 7.1 12.9.8 1.1 1.9 2 2.1 3.3-2 1.9-3.8-.5-5.3-1.6-3.3-2.5-6.3-4.9-10-7.4-1.4-1-3.8-2.9-5.3-1.8-1.5 1.1 0 4.5 1.1 6.3 1.4 2.3 3.5 4.6 5.3 7.2 1.1 1.6 4.3 5.6 2.6 6.8-1.1.7-3.2-1.3-4.6-2.3-4.5-3.5-8.6-7.6-13-11-2.9-2.1-6.1-3.6-8.9-5.8-3-2.2-5.9-4.1-8.9-6.3-.5-.6-.9-1.2-1.3-1.9-.3-.8-.7-1.8-.8-2.6-.4-3.8.6-7.9 4.4-10.6.6-.5 1.5-.8 2.1-1.4.8-1 .7-3.4 1.2-4.8.6-1.6 1.6-2.7 2.5-3.8zm23.8 24.2c-.7-.7.8-2.4 1-2.9.9-3-1.3-5.1-2.5-8.6-.3-.9.3-2 .2-3.1-.2-2.5-1.7-7.5-4.4-9.1-2.5-1.4-5.1 1.6-8 1.6-2.2 0-3.7-2.1-6-2.2-2-.1-4.5 1.5-5.4 3.6-.7 1.7.3 4.3-.8 5.8-1.3 1.8-3.1 1.9-4.5 2.9-2.7 2.1-3.6 6.2-2.2 8.9 1.5 2.8 3.7 4.1 5.7 5.4 1.5 1 2.9 2.1 4.4 3 2.9 1.8 6.3 1.7 9 3.8 0 .4-.1.8-.7 1.2 4.3 2.1 8.7 6.6 12.7 10.9 1.3 1.5 2.5 3.2 4.2 3.8-.8-5-7.4-10.6-10.3-16-1.5-2.8 2.3-6 5.1-5.6 3.5.5 8.2 6.4 11.3 9.4 1 1 2.1 2.5 3.5 2.2.2-1.5-1.2-2.8-2.1-4.1-2.8-4.3-5.7-8.8-7.8-12.8-.6.7-1.4 2.9-2.4 1.9z"/><path class="st0" d="M496.7 194c1.9-.7 3.7-1.1 5.4-1 .5-2.1 1.4-4.1 4.2-5.9-.9 1.9-2.6 3.7-2 5.9 2.3.6 4.9.2 7 2.5-.4.4-1.1 0-1.6-.1-1.9-.2-5.1-1-7.2 1-1.4 1.3-1.9 3.4-2.3 5-.1.4 0 1.1-.5 1.3-1.3-2.9-1.3-5.5 1.8-7.7-1.5-1.5-3.2-.9-4.8-1z"/><path class="st1" d="M455.4 217.3c-.3-2-2.3-4.2-4.5-4.7-1.8-.4-4.2 1-5.8.2-2-1-2.4-2.7-3.7-3.9-2.6-2.3-6.8-2.4-9.1-.6-2.5 2-3.4 4.3-4.4 6.6-.7 1.6-1.5 3.2-2.1 4.8-1.3 3.2-.6 6.5-2.2 9.5-.4.1-.8 0-1.3-.5-1.3 4.6-4.9 9.7-8.5 14.4-1.2 1.5-2.7 3-3 4.8 4.8-1.7 9.2-9.1 13.9-12.9 2.5-2 6.3 1.2 6.4 4 .1 3.5-4.9 9.2-7.3 12.8-.8 1.2-2.1 2.5-1.5 3.8 1.5-.1 2.5-1.6 3.7-2.8 3.7-3.5 7.7-7.1 11.2-9.9-.8-.5-3.1-.9-2.3-2 .6-.8 2.5.4 3.1.5 3.1.4 4.8-2.2 8-3.9.8-.5 2-.1 3.1-.4 2.5-.6 7.1-3 8.2-5.9 1-2.7-2.4-4.8-3-7.6-.4-2.2 1.4-4 1.1-6.3zm-9.6 3c-.2 2.4.6 4.8-1.2 7.3-.5-.3-.2-1.1-.2-1.6-.1-1.9 0-5.2-2.2-6.9-1.5-1.1-3.7-1.3-5.4-1.4-.4 0-1.1.2-1.3-.2 2.6-1.8 5.2-2.3 7.9.4 1.2-1.7.2-3.3.1-4.9 1.1 1.7 1.7 3.4 1.9 5.2 2.1.1 4.3.7 6.5 3.1-2-.6-4-2-6.1-1zm-29-30.8l.7-.7c.2-.5.3-1 .5-1.5l-1.2 2.2z"/><path class="st1" d="M426.4 188.5c-.9 2.7-23 43.1-30.2 64.6 13.1 9.3 26.3 18.6 39.4 27.9 1 .7 2.1 1.4 3.3 1.3 1.2-.2 2.2-1.1 2.8-2.2 17.1-29.6 22.7-41.9 39.3-63.5-24-9.4-32.4-14.9-54.6-28.1zm24.9 50.6c-1.4.6-2.9.5-4.5 1-3.6 1.2-7.6 4-11.6 6.7-4.2 2.8-8.4 6-11.5 9.3-.9.9-1.6 2.2-2.9 2.7-2.2-1.7-.2-3.9.7-5.5 1.9-3.7 3.8-7 5.5-11.1.7-1.6 2.2-4.3.9-5.5-1.4-1.3-4.4.8-6 2.2-2 1.8-3.9 4.3-6.2 6.4-1.4 1.3-4.8 5.2-6.2 3.7-.9-.9.7-3.3 1.5-4.9 2.7-5 6-9.8 8.5-14.8 1.6-3.2 2.5-6.6 4.1-9.8 1.6-3.3 3-6.6 4.6-9.8.5-.6 1.1-1.1 1.6-1.6.7-.4 1.7-1 2.4-1.2 3.7-1 7.8-.8 11.2 2.5.6.5 1 1.4 1.7 1.8 1.1.7 3.5.1 5 .4 1.8.3 3.1 1.1 4.3 1.8.5.5 1 1 1.6 1.5 2.3 2.9-.6 5.7.2 8.4.4 1.3 1.3 2.3 1.8 3.3.5 1.2 1.1 2.8.8 4.1-.5 2.8-4.5 7-7.5 8.4z"/></g><path class="st1" d="M415.8 90c0 .2-3 48.9-6.6 55.2-2.9 5-8.3 8.9-14.5 9.5-11.3 1.3-15.2-15-4.3-18.5 8-2.5 14.5 5.2 14.5 5.2s2.1 1.9 3.5-8.3 7-48.9 7-49.1c0 .1.4 6.1 6.6 7.7s12.4 3.3 12.8 9.3-1.1 14.2-1.1 14.3c0-.1-2.6-8-8.9-11.6-6.3-3.7-9-13.6-9-13.7zm61.7-17.2c-.2-.4-.3-.9-.4-1.4-.2-2-.6-4.2-1.2-6.1-1.3-4.5-6.2-4.7-11.1-4.8-4.9-.2-6.2-4.7-6.2-4.7s2.3 30.1 3 38-1.2 6.8-1.2 6.8-6.2-4.7-11.8-1.4c-5.5 3.2-4 14.1 2.4 13.9 6.4-.3 11.5-5 13.2-10.3s-4.3-42.5-4.3-42.5 3.7 7 9 8.7c3.5 1.1 6.1 3.9 7.5 5.7.7 9.5 1.8 23.1 2.2 28.1.7 7.9-1.2 6.8-1.2 6.8s-6.2-4.7-11.8-1.4c-5.5 3.2-4 14.1 2.4 13.9 6.4-.3 11.5-5 13.2-10.3 1.4-4.4-2.2-29.6-3.7-39zm28.2 7.2c-.3-2-1.8-3.7-4-4.2-1.8-.4-3.9-.3-5.5.5-1.9.9-3.6 2.8-3.9 4.9-.1.8.3 1.5.3 2.2 0 .5-.2 1.1-.2 1.6-.1 1-.3 2-.4 3.1-.3 2-.6 4.1-.9 6.1l-1.8 12.3c-.4 2.6-.8 5.2-1.1 7.8 0 .2.2.3.5.3h.7c.4-2.2 1-4.3 1.6-6.4.1-.3.2-.7.3-1v-.2c.1-.5.2-.9.3-1.1.5-2.5 1-4.9 1.5-7.4.7-3.4 1.3-6.8 1.7-10.3.1-.8.3-1.7.4-2.5.4.2.8.3 1.2.3.2.1.5.1.7.2 3 .6 6.8-.5 8.2-3.4.4-.9.5-1.9.4-2.8zm-4.9 4.2c-.4.3-.8.5-1.3.6-2 .5-3.7-1.3-3.6-3.2 0-1.2.7-3.2 1.8-3.9 1.5-.9 3.4-.9 4.6 1 .3.5.4 1 .5 1.7 0 1.3-.9 2.9-2 3.8zm27.4 7.1c.6-1.9-.1-4.1-1.9-5.5-1.4-1.1-3.4-1.9-5.2-1.8-2.1.1-4.4 1.1-5.6 2.9-.4.7-.4 1.4-.6 2.1-.2.5-.6.9-.9 1.3-.6.9-1.1 1.7-1.7 2.6-1.1 1.7-2.2 3.5-3.4 5.2-2.2 3.5-4.5 6.9-6.7 10.4-1.4 2.2-2.9 4.4-4.3 6.7-.1.2.1.4.3.5.3.1.5.2.6.3 1.3-1.8 2.7-3.5 4.1-5.1.2-.3.4-.5.7-.8 0-.1.1-.1.1-.2.3-.4.6-.7.7-.9 1.5-2 3-4.1 4.4-6.1 2-2.8 4-5.7 5.9-8.6.5-.7.9-1.4 1.4-2.1.3.3.6.6 1 .8.2.2.4.3.6.4 2.5 1.8 6.4 2.4 8.9.3.8-.7 1.3-1.5 1.6-2.4zM522 93c-.5.1-1 .1-1.4 0-2-.4-2.9-2.7-2-4.5.5-1.1 2-2.6 3.3-2.8 1.8-.2 3.5.6 3.7 2.8.1.5 0 1.1-.3 1.7-.5 1.5-1.9 2.5-3.3 2.8z"/><path class="st1" d="M510.8 85.2c5.9 3.3 11.6 6.9 17.1 10.9 1.4 1 5.8-.9 4.5-1.9-5.7-4.1-11.6-7.9-17.7-11.3-1.4-.8-5.9 1.2-3.9 2.3zm-122-14.7c0 .2-3 48.9-6.6 55.2-2.9 5-8.3 8.9-14.5 9.5-11.3 1.3-15.2-15-4.3-18.5 8-2.5 14.5 5.2 14.5 5.2s2.1 1.9 3.5-8.3 7-48.9 7-49.1c0 .1.4 6.1 6.6 7.7s12.4 3.3 12.8 9.3-1.1 14.2-1.1 14.3c0-.1-2.6-8-8.9-11.6-6.3-3.7-9-13.6-9-13.7z"/></svg>