<svg version="1.1" id="Слой_1" xmlns="http://www.w3.org/2000/svg" x="0" y="0" viewBox="0 0 566.9 467.7" xml:space="preserve"><style>.st0{fill-rule:evenodd;clip-rule:evenodd}.st0,.st1{fill:#ee7f00}</style><g id="Layer_1"><path class="st0" d="M310.8 40.6c-.5 3.7 1 12.4 2.4 17 .6 2 1.7 4.4-1 4.8-1.8-1.6-1.9-5.5-2.6-9.1-1-5-4.2-11.2 1.2-12.7z"/><path class="st0" d="M313.7 41.3c1.7 3.7 4.4 6.7 7.4 11 1.9 2.7 5.8 7.4 5.8 9.6 0 1.8-2.7 4.1-4.1 2.6-.3-1.1 1.1-.5 1.2-1.2-2-4.4-6.5-9.5-9.6-14.2-1.8-2.5-4.2-5.8-.7-7.8zm16.1 16.3c.8 1.1 6 7.3 6 8.4 0 .6-.4 1.3-1 1.7-2.8-1.8-3.9-5.3-6-7.7.1-1 .8-1.4 1-2.4zm35 26.7c-.7-1.7-1.4-3.8-2.4-6.2-1.3-3.3-4.6-6.7-.5-8.4 1.2 3.3 7.8 11.9 2.9 14.6zm-22.3 15.3c-3.7-1.6-6.7-3.9-11.5-3.4-5 .6-9.4 4-13.2 4.8-3.4 1.5-5.2 4.5-9.6 5-.1-1.9-.4-6.9 1.9-7.4.3-.1 1 .3.7.5 1.6-.7 2.5-2.3 4.1-2.9.9-.3 2.1-.1 3.1-.5 2.4-.9 5.8-3.7 9.1-4.1 1-.1 2.3.1 3.4.2 4.1.6 6.8 2.4 10.8 5-.2 1.7 1.3 1.4 1.2 2.8zm-11.1 4.1c.1 1-.4 1.3-.5 2.2 2-.1 1.6-2.7 3.8-2.6.4 1.8-.9 2-1.2 3.1 1.8.6 2.3-2.1 4.3-2.2.6 1.2-.6 2.6-1.4 3.1 1 1.2 2-.8 3.6-.5.2 1.1-.4 1.4-.5 2.2 0 .2.2.2.2.5 1.3.5 2.5-2 3.8-1.4 0 1.4-.3 2.4-1.4 2.6 0 .9.9.9 1.2 1.4-.2 2.6-3.1 2.5-3.8 4.6.5.6 1.4.7 1.2 1.9-1.1.6-1.8-.8-3.1-.7-.6 1.2 2.3 1.8 1.4 3.4-1.7.6-2.1-2.5-4.1-1.7-.5 1.2 1.4 2.4.5 4.1-1.2-.4-1.2-2-1.9-2.9-.6 0-.7.4-1.2.5.1.9 1.3 2.2.2 2.9-.9-.3-.9-1.7-1.4-2.4-2.8.5-5.8 2-9.1 1.2-.1-.9.3-1.2.5-1.7.8-.1 1.1.2 1.7.2-1.9-1.5-3.4-4.3-2.4-7.9-3.3 1.6-5 4.7-8.4 6.2 1-7.2 9.4-9.1 12.2-15.4.8-.2.9.4 1.7.2.1.9-.4 1.2-.5 1.9 2.7.3 2.1-5 4.6-2.8zm-1.4 16.8c4.1-1.2 6.9-3.6 10.1-5.8-1.8-2.8-6-4.8-9.4-4.6 3.4 2.5 1.5 9.1-.7 10.4zm-6.5-6.5c.3-.4.2-1.1 1-1 .1.3.3.5.2 1 .9-.5 1.3.1 2.4 0 .2-1.2-.4-1.6 0-2.4-1 .3-.9-.6-1.4-.7-1.1.6-2.6 1.9-2.2 3.1zm-10.1 44c.5-3.2 4.2-1.9 5-4.3 1.6-4.3-2.8-8.8-6.2-10.3.1-1 .6-1.5 1.2-1.9 7.1 1.2 10.1 16.3 0 16.5zM295 145.5c.2 1.5-.8 1.8-1.2 2.6-.9 5.5 1.4 11.8 7 10.1-.6-1.4-2.8-.6-3.6-.7 1.2-4.7 6.5-.8 7.7 1.4-.4.2-.4.8-.7 1.2-1.3.2-1.3-.8-2.2-1-1.2 1-2.7 1.7-5.3 1.4-4.6-1.5-6.2-11.1-2.6-15.1.2.1.5.1.9.1z"/><path class="st0" d="M316.3 152.9c-.1.8-.6 1.3-1 1.9-1.4-.6-3-1-4.3 0-.5 1.3.6 3.3-1.2 3.6-2.3-3.2 2.8-8.1 6.5-5.5zm5.1 34.8c.1 1.9-1.8 1.4-2.9 1.7-3.6 1-7.6 2.8-10.3 3.8 2.6-3.6 7.7-4.6 13.2-5.5zm62.8 132.7c-2.2 4-5.8 6.7-8.4 10.3.1.7 1.3.5 1.4 1.2-1.2 1.7-3.4 3.6-5.8 3.6-1.8 0-4.6-1.9-7-2.9-9.8-3.9-23.6-9.6-37.4-5.5-3.5 1-6 2.9-9.1 1.4.6-2.5 3-4.3 4.8-6.5 2.3-2.8 5.3-7 9.8-7.7 5-.7 11-.6 16.1-1.2 4.1-.5 8.2.5 12.5 1 3.5.4 6.9.2 9.1.7 5.4 1.3 10 4.4 14 5.6zm-20.8-1.6c-9.9-1.3-22.1-1.5-32.6-.2-2.1 1.9-4.6 4.7-5.8 6.7 0-.1 0-.3.2-.2 15.4-6.8 35.8-1.4 47 4.6 1.5-2.1 3.6-3.6 4.8-6-4.4-.7-8.9-4.3-13.6-4.9zm-96.3 21.8c-3 0-7.9-.1-10.6-1.2 1.4-1.9 3.4-3.7 6-3.8 1.6-.1 4.1 1 6 .7s3.4-2.1 5-1.9c1.8.2 3.6 2.3 3.1 4.6-.4 2.4-8.3 6.7-9.5 1.6zm76.3 36.7c-.2 2-3.2 3.7-5.8 4.1-8.6 1.2-20-2.6-26.6-5.8-2.2-1-6.2-2.8-6.2-4.6 0-2.4 4.1-3.3 6-3.6 7.6 6.7 18.8 9.6 32.6 9.9zm-130.3 59.8c1.5-3.8 7.5-4.3 10.8-1.9 2.1-2.8 12.5-4.3 10.3 1.9-.6 1.8-4.6 4.4-7.7 4.1-.8-.1-1.1-.7-1.9-1-3.8-1.3-9.4-.9-11.5-3.1zm111.6 97.7c.6 10.2 1.1 21.8.2 32.2h-6.5c.6-9.2.1-19.3-.2-28.3-1.8 0-3.3 1.5-5.3 1.7-2.4.2-5.3-.6-8.4-1-8.4-.9-19.1.1-27.6-.5-4.2-.3-8.3-1.5-12-.7-4.5 7.7-6.7 17.6-7.7 28.8h-6.5c.7-5.2 1.7-10.6 3.1-15.6 3.1-11 6.4-18.3 21.4-17.5 2.5.1 5.1.8 7.9 1 7.6.4 17.3-.4 25.2.2 2.7.2 5.3 1.1 7.4 1 3.3-.4 6-2.7 9-1.3zM303.8 46.4c1.4-2.4 1.3-6.3 4.3-7 .2 2.3-1.7 4.5-2.4 7.4-.9 3.7-1.8 8.8-1.2 13.4.2 1.8 1.4 4.6-1.2 4.8-2.6-3.7-.5-11-.2-15.6-.9 3.2-1.7 7.5-1.7 11.5 0 2.9 1.5 6.3-1.7 7-1.5-9 .8-20.9 3.6-28.3.6-1.6 1.6-3.9 3.6-3.8-.9 3.6-2.6 6.5-3.1 10.6z"/><path class="st0" d="M566.9 460.6c-4.9 1.5-9.7 3.1-14.9 4.3.5 27.6-13.3 41.5-30.5 51.1-2.5 1.4-5.6 1.8-7.9 3.8-2 16.4-3.4 33.4-8.2 47-1.8-.2-4.2.3-5.5-.2 3.9-13.7 5.4-29.7 7.2-45.4-7.9 1.8-17 3.4-26.4 4.1-4.9.3-10.1 1-14.4.2-4.3-.7-8.3-3.8-12.5-1.4-1.2 14.5-1.8 29.5-4.3 42.7-2-.2-4.6.3-6.2-.2 2.5-13.1 2.9-28.3 4.1-42.7-10.4-2.4-21.5-2.9-32.6-3.6-18.5-1.2-36.4 3.4-50.6 7.2-5.3 1.4-10.8 1.6-15.1 4.3 6.1 9.7 10.9 20.8 12.5 35-2.3-.1-5.3.3-7.2-.2-1.8-14-6.7-22.7-12.5-32.6-2.6-4.4-4.9-9.6-7.4-15.1-2.6-5.6-5-11.9-3.4-18.2 2.4-9.2 9.7-16.9 15.8-23 5-5 9.3-10.4 13.4-15.8 1.5-1.9 2.5-4 4.1-5.8 1-1.1 3.1-1.9 4.3-3.1 1.4-1.3 2.4-3.4 3.8-5 4.3-4.9 8.1-10.3 11.8-15.6 4.9-7.2 10.6-13.7 15.1-21.4 4.3-7.4 8.5-15.7 12.7-23.5 3-5.6 5.9-12.2 8.9-18.5.9-1.9 3.4-4.8 3.4-5.8 0-.5-1-1.3-1.4-2.2-.5-.9-.7-2.1-1-2.9-1.9-6-3.8-11.7-6-16.8 1.7-1.3 3.2-2.9 6.2-2.9 4 6 4.2 13.1 7.4 19.2 3.1 5.9 6.6 11.4 9.4 17.5 2.8 6.2 5.6 12.6 7.4 19.4 1.8 7 2.4 14.8 3.8 23 1.3 7.8 1.8 15.9 2.4 24.2 1.8 24.4 3.8 51.1 1.4 77.3 3.4.1 7.1-.2 10.8.2 2.7.3 4.9 1.9 7.2 2.2 6.2.7 12.8-.1 18.5-.7 5.8-.7 11.4-1.5 16.8-2.6 1.7-16.6 3.4-33.3 3.1-51.8-4.3-.9-8.7-1.5-12.5-3.4-4.4-2.1-10.1-6.8-7.4-13.4 2.7-6.9 12.1-9.8 19.9-11.8-.8-21.6-4.3-42.6-7.2-62.6-2.9-19.9-8.6-38.3-14.2-55.9-2.7-8.6-4.8-18-8.2-26.6-3.4-8.6-6-17.1-10.3-24.7-6.5-11.4-11.6-23.1-20.9-31.7-2.3-2.1-8-7.1-10.6-7-3.2.2-5.4 6.5-6.5 9.8-1.5 4.6-2.2 9.5-2.9 13.4-1.8 1.4-3.5 2.9-6.5 3.1 1.2-10.1 3.9-20.2 9.4-25.9.6-.7 2.2-1.2 1.9-2.4-10.6-2.2-24.7-1.4-35-3.4-3.4-.7-7.1-2.9-9.6-.5 3.9 16.4 6 34.7 11.8 49.2-1.2 1.3-3.2 3.2-5.5 3.4-1.5.1-3.4-.8-5.3-1-6.6-.5-12.8.8-18.2 1 2 4.6 6.9 8.4 9.4 13.4-2.8 3.5-7.6 3.8-11.8 4.8-4.3 1-8.5 2.9-12.7 4.1-8.7 2.5-17.4 5-25.9 7.4-8.3 2.4-16.1 6.2-23.8 9.6-7.8 3.5-14.9 8-22.1 11.5 1.3 3.1 1.2 8.4 3.6 11-6.2 8.5-12.5 16.9-17 26.6-4.7 10-9.7 19.7-13.2 30.7-3.7 11.7-7.1 22.4-10.3 33.6-2.4 8.6-5.6 17-5.8 27.1-.1 3.3.6 7.1 0 11-.5 3.5-3.4 8.1-5.5 11.3-6.7 10.2-14 21.1-18 32.6-3.2 9.3-4.2 18.5-6.2 27.6-2.1 9.1-4.6 18.3-5.5 28.3-2-.2-4.6.3-6.2-.2 1-9.5 3.6-18.1 5.5-26.6 2-8.8 2.9-17.5 6-26.2 2.8-8 6.5-14.6 10.6-21.6 4-6.9 9.5-13 12-20.2.4-1 .9-2.5 1-3.4.6-7.7-.4-13.9 1-20.2 1.9-8.6 5.1-17.2 7.4-25 2.7-8.9 4.8-16.7 7.4-25.2 3.4-10.9 8.3-20.6 13-30.5 4.6-9.8 10.8-18.2 16.6-26.9-1.6-3.1-.9-8.5-3.4-11.5-1.1-1.4-4.2-2.4-6.2-3.6-6.9-4.1-10-9-14.9-14.9-6.2-7.6-9.5-15.5-14.4-25.2-6.8 5.1-14.5 9.7-21.8 13.9-4.9 2.8-10.1 4.7-13.2 9.1-4.3 6-7.5 17.6-4.8 26.4.5 1.8 1.7 3.8 2.6 5.8 4.6 10.1 11.3 16.4 19.9 22.1 3.4 2.2 6.3 5.3 9.4 7.4 2.3 1.6 5.3 2.8 7.7 4.3-2.4 5.2-9.6 2.4-13 .7-4.7 16.4-11.6 29.9-22.1 41.8-7 7.9-15.8 16.1-23.8 24-2.1 2.1-6.9 6.2-7.4 8.6-.9 3.8.1 9.7.2 14.6.2 5.1.5 9.9.7 14.2 1.5 28.9.8 59.4 1 88.1h-6.5c-.1-37.3-.2-74.2-1.9-109.4-1.5 1-3 2.7-4.3 4.3-7.3 8.9-13.2 16.9-19 27.4-1.3 2.3-7 9.4-5.5 12 .8 1.5 4.1 1.6 6.5 1.9 7.1 1 16.4 1.2 21.1 4.1-.6 1.7-2.7 1.9-3.4 3.4-.5 1.2-.6 3.2-1 4.8-1.1 5.1-1.8 10.5-2.6 15.4-1.1 6.9-3.5 11.7-6.5 17.5-5.5 10.5-12.8 18.3-30 17.5 2.4-5.5 11.8-3.1 16.3-5.5 3.3-1.8 5.5-6.2 7.4-9.8 2.1-4.1 4.2-7.8 5.3-12 2.4-9.6 2.7-20.4 5.3-29-7.8-.7-15.4-1.5-22.6-2.9-8.1 17.3-12.8 38.1-15.8 60.5-1.9-.2-4.5.3-6-.2 2.9-23 8.2-43.5 16.8-60.7-7 .1-12.4 1.2-17.8 3.6-15.3 7-28.2 13.4-46.8 17.3-12.7 2.7-26.7 2.1-38.4-.5-10.2-2.3-17.5-7.6-23.5-13.7-.9-.9-2.1-1.6-2.9-2.6.3-1.6-.5-4.2.5-5 2.7-1.9 4.9.2 6.5 1.7 5.2 5 10.4 10 17 13.2 3.6 1.7 9.1 2.8 13.9 3.6 26.2 4.4 47.7-4.6 64.3-12.5 8.4-4 17.1-8.9 28.8-8.6 8.8-15.9 19-31.7 31.2-45.1 1.6-1.8 4.6-4.2 5-6 .8-3.5-.2-8.4-.2-12.5 0-4.4.2-8.5.5-12.2.7-8.1-.8-16.3-.5-24.5.7-16.5-1.6-31-1.9-47.8-1.9-1.4-3.9-2.7-5.5-4.3-9.3 2.5-17.3-6.2-15.8-15.6-1.1-1-1.4-3.1-1.9-5-1.5-5.5-.7-8.9 3.4-10.8-1.9.8-2.1-1.2-2.2-2.4-.1-3.9 3.8-7.3 5.5-9.6-4.2-11.6 7.8-14.9 15.1-17.3-.3-10.3-.5-20.8-.7-31.2-12.8 13.4-27.9 25.3-42.5 37.7-11 9.3-21.1 19.5-31.4 29-3.4 3.1-7.1 6.2-9.6 10.1 15.4 6.5 23.5 21.7 26.9 41 1.2 6.6 2.8 13.7 2.4 20.4-.4 6.2-2.3 12.3-4.3 18.2-5.7 16.7-15.7 32-36.5 31.2-26.5-1-41.2-26.4-31.7-52.8 8.1-22.5 21.6-39.1 35.3-55.4-17.6-9.2-50.7-7.5-68.2.2-1.1.5-2.2 1.4-3.4 1.2-.5-3.6 4-4.1 6.5-5 18.3-7 50.9-10.5 69.1-1 16.3-14.5 31.6-30 48.7-44.2 8.2-6.8 17-14 25-21.4 8.2-7.6 15.4-16.6 14.6-31.9-4.7-.8-9.9-2.5-14.2-4.8-1.4-.8-2.3-2.4-3.8-3.6-1.7-1.4-3.2-2-4.1-3.6-.9-1.7-1.1-4.1-1.7-6.5-1.7-6.5-3.1-12.7-4.3-20.2-1.8-10.7-3.1-27.8 4.3-31.9 2-5.3 6-8.1 10.6-11 4.3-2.8 9.8-5.8 15.6-6 6-.2 12.3 2.4 15.6 6 1.7 1.9 2.7 4.4 3.8 7 1.4 3.1 2.7 7.8 6.5 7.2 1.4-.3.8 1.4 2.2 1.2.4 13.2.3 26.6-1.4 37.7-.3 1.8-.1 3.8-.5 5.3-.5 1.9-2.7 4.4-3.8 6.7-2.6 5.2-3.7 7.6-8.2 10.3-1.5.9-3 2.1-4.3 2.9-1.6.9-3.8 1.2-5 2.6-2.6 15.7-1.3 36.8-.5 53.5 5.2-1.5 12.3-1.6 19.7-1.7 3.1 0 7.3-.5 7.4 2.4.1 3.1-6.7 5.2-9.1 6.5-3.7 2-7.1 3.7-11.3 4.6 4.9.1 9.4 2.5 9.1 6.5-.3 3.8-5.1 4.5-7.9 6.2 2.1.7 3.2-1.5 5.5-1.4 3.9 2 7.8 4 12 5.8 2.2-7.7 8.2-11.6 13.9-15.8-.8-6.3-.7-10.8.2-15.8.4-2 .3-3.9.5-6 .3-3.8 1.6-7.5 1.9-11.3.7-7.6 3.4-14.3 6.5-19.7 3.1-5.5 6-10.6 11.3-14.9 4.7-3.9 10.4-8.1 17-9.4 5.4-1.1 10.2.2 15.4 1 2.5.3 5.1.5 7.9.7 2.6.2 5.3 1.1 7.9 1 1.4-.1 2.5-1 3.6-1 .9 0 1.8.8 3.1.7 6.1-.2 10.3-5 13.2-8.4.7-.9 1.9-1.4 2.2-2.4-.6-2.2-2.7-4.1-1.9-6.2-3.2-1.6-5.1-4.6-8.4-6.5-2.1-1.2-4.5-1.6-6.5-2.6-2.1-1.1-4.6-3.2-6.2-4.8s-2.4-4.2-4.8-4.6c-2.3.8-4.8 1.7-7.9 1.4-5.7-.5-11.9-4.5-16.6-8.6-4.2-3.7-9.3-9.9-7-14.9-1.2-2.2-3.3-4.3-5.3-6.7-1.5-1.8-4.9-5.1-5-7.2-.1-1.5 1.1-2.3 1-3.6-.2-1.6-1.6-3.4-2.2-5-2-5.7-3-12.2-4.1-18-3.3-17.2-1.8-37.6 3.6-51.1 2.8-6.9 6.2-13.4 10.1-19.4 1.3-2 3.5-3.7 4.8-5.8 1.5-2.4 2.6-4.4 4.3-6.2 10.4-11 22.9-19.1 43.9-19.4 7.8-3.2 19.5-9.2 30-4.1 1.7-.6 2.1-2 3.8-1.9 3.3.1 8.5 2.6 11 3.8 6.8 3.3 13.5 6.8 19 11 3.9 3 7 6.8 11 7.9 7.7 6.1 15.3 13.2 21.6 21.8 6.1 8.4 12.1 17.6 15.4 28.1 3.6 11.4 3.5 27.7 1.2 39.4-2 10.2-4.2 16.8-10.1 22.3-1.9 1.7-4.3 3.1-6 5-3.6 4.1-5.2 9.5-10.8 12-1.4 1.1-.5-1.3-1.2-.5-5.7 5.7-15.7 7-22.6 11.5 1.7 6.2 1.7 12 4.6 17 1.4 2.5 5.4 5.1 8.2 7.2 3.2 2.4 6.3 4.6 9.6 6 3.9 1.7 8 1.6 12.5 2.6 2.8.7 5.3 2.1 7.9 2.9 8.5 2.6 19.1 3 29.3 3.1 14.3.2 22.4 6.4 29.3 13.9 7 7.6 11.7 16.8 16.8 26.4 2.6 4.8 5.1 9.3 7 14.6 1.8 5.2 4 10.5 5.8 15.8 3.5 10.8 6.3 22 10.1 33.1 7.4 22.1 11.2 45.4 14.9 71.5 1.8 12.6 3.2 25.9 3.4 40.1 20-.2 30.3 9.3 35.3 24.2 5.3-.9 10-2.3 14.6-3.8v3.4zm-235.7-431c-4.7-2.2-10.6-4.5-16.8-4.3 6.6.3 11.5 3.5 16.8 4.3zm-19 5.7c2.4.6 6.1 2.3 8.6 3.8 7.7 4.5 13.3 13.6 18 19.9.2 1.1-.6 1.2-.5 2.2 2.5 4 5.4 7.6 7.9 11.5 1-.2.4-2 1.9-1.7 4.2 8.7 8.4 17.4 11.3 27.4 1 0 .8-1.3 1.7-1.4-1.3-6.6-4.8-12.3-7.2-18-1.1-2.7-1.8-5.1-3.1-7.4-3.8-6.8-8.5-12.8-13.2-18.7.2-.4 1.2.1 1-.7-7.9-8.2-17.5-16-30.5-18.2 0-2 1.4-2.8 2.9-3.4 16 3.8 27.4 15.5 36.7 27.1 1.2 1.5 3.6 4.2 3.6 5.5 0 1.3-1.4 1.9-1.2 2.9 2.3 3.6 4.4 7.3 6 11.5 5.8 7.8 10.6 17.8 13 28.3.9 4 .4 8.2 1.4 12.5.4 1.6 1.5 2.8 1.9 4.1 1.9 6.5-.4 11.3-1.2 17.5-.3 2.3.5 4.8.2 7.2-.2 1.9-2 3.2-3.1 5.3-1.6 3.2-2 8.1-3.4 10.8-.6 1.3-2.4 2.1-2.4 3.6 2.7-1.5 3-5.3 6.7-5.8 2.5-9.4 6.5-22.1 6.2-34.8-.1-4.2-1.1-8.9-1.7-13.4-.6-4.7-.6-9.7-1.9-13.4-.5-1.3-2.7-3.3 0-4.3 2.8 3.6 2.6 8.9 3.4 13.9.7 4.9 1.7 10.2 1.9 15.4.5 11.1-3.1 21.9-4.3 30.7 4.1-8.2 6.2-19.9 5.8-31.2-.3-7.6 1.1-14 .5-22.3-.6-7.4-4.4-16.1-7-21.4-.6-1.2-.9-2.7-1.4-3.8-.9-1.8-2.6-3.4-3.8-5.3-3-4.6-5.6-7.7-9.1-11.5-3.8-4.1-7.5-7.8-11.5-11.3-2.1-1.8-4.7-3.3-6.2-5.3-1.7-2.2-2.8-3.6-5.5-5.5-1.6-1.1-3.3-2.5-4.8-3.4-2.7-1.6-5.1-2.1-7.9-3.1-1.1-.4-2-1.4-2.9-1.7-1.7-.5-4.7-.3-7.2-.7-2.2-.4-5.8-1.8-8.6-1-1.1.3-1.7 1.7-3.1 2.4-1.5.7-2.8.6-4.3 1-1.1 2.1-3.5 2.1-5.3 3.1-2.9 1.7-6 4.4-8.6 6.7-6.9 6-14 12-19 19.4-1 1.5-1.4 3.9-3.6 4.3.5-3.7 3.2-6.8 5.3-9.6 6.7-8.9 16-15.5 24.2-22.6-9.4 3.3-17.3 8.4-23.3 14.9-2 2.2-4 5-6.5 5.8.2-3 2.9-4.9 4.8-6.7 5.9-5.9 11.7-11.3 19.7-14.9-11 .9-19.2 7.2-25.4 14.4-5.8 6.7-10.3 14.9-14.4 23.8-2.1 4.6-4.1 8.9-5.3 13.9-2.7 11.1-3.1 25.4-2.4 38.4.9-8 .9-16.6 1.7-24 .3-3.1.1-7.2 2.9-8.4.2 4.3-.8 8.8-1.2 13.4-.3 3 .2 6.1 0 9.1-.3 4.5-1.6 9-1.4 13.4.1 3.2 1.6 6.8 2.2 10.1.7 3.8 1.6 6.5 3.1 9.4 3 5.6 4.1 12.4 8.9 15.4-5.4-12.1-8.3-26.7-9.8-42.7-.6-6.1-3.2-16.5 1.4-18.7-.6 6.4.9 14.1 1.4 21.4.4 5.9 1.5 11.8 2.9 16.8 3 11 4.8 21.5 11 28.6-.7-2.6-2-5-3.1-7.7-1-2.4-3-5.5-2.6-8.2.1-1 1.2-1.7 1.2-2.6.1-1.9-2-4.5-1.4-7-1.6-.2-2.1-2.6-3.6-3.6-.3-6.3-1.8-10.7-2.6-16.6-.8-5.6-1.7-11.2-1.4-17.3.1-2.7-.2-6.5 1.9-8.4-.2 10.2-.2 22 2.6 30.5.1-3.1.5-5.9 1.2-8.4 0-1-.5-1.4-.5-2.4 1.7-5.9-.5-12 0-18.2.1-1.5.6-3 .7-4.6.3-4.1-.7-9.3 2.6-11.3-.5 2 1.2.3 1.2 1.7-.2 1.4-1.3 1.9-1.9 2.9-.7 7.3-1.1 15.9-.2 23.3 2.4-5 .7-14.1 3.6-18.5 1.7 1.5-1 5.1 0 7.4 3.6-8.9 8-18.3 12.2-26.6 2-4 3.9-8.2 7-10.3 1.4-3.2 2.9-6.4 4.8-9.1-7.3 6.4-12.4 15.7-17.3 24.7-1.5 2.8-3.4 5.6-4.6 8.4-.7 1.6-.3 3.8-2.9 4.1 1.7-7.4 6.2-14.1 9.8-20.9 4.4-8.2 11.2-16.4 17.8-21.8 1.7-1.5 3.7-2.1 5.5-3.4 1.4-1 3.2-3.4 5.3-5.3 2.5-2.3 7.6-7.3 8.6-2.2.2-.5 1.4-.8 1.4 0-1.8 4.1-5 6.8-7 11.3-1.9 4.4-2.2 10-2.9 15.4-.3 2.3.2 4-2.2 4.6-.5-10.1 2.5-20.2 6.2-26.2-4.7 7.5-13.2 16.3-9.5 28.5-.6.9-.8 2.3-2.4 2.2-3.5-10.8 3.1-20.1 7.2-27.1-3.2.7-4.3 3.1-6 5.3-1.1 1.3-3.2 3.6-3.6 4.8-1.5 4-3.3 10.2-3.4 14.2 0 1.9.9 3.7-1.7 4.1-1.7-3.9.9-9 1.4-13-.3-.2-.8-2.2-.7-3.1-1.5 4.8-5.5 9.1-6.5 14.4-.3 1.5.4 3.5-1.4 4.3-1.1.3-.6-.8-1.4-.7-6 13.2-13.6 25.9-15.6 42.2 2-3.3 4.9-6.1 8.9-7.4 3.1-1.1 6.7-.5 10.8-.7 4.3-.2 8.7-.5 10.8 1.4.3.6.3 1.6.7 2.2 4.4 4.1 9.3 8.7 10.6 16.3.8 4.8.6 10.2 1.2 15.6.3 2.5 2.3 6.6 0 8.4-2.5-6.8-1.3-15.4-2.6-22.6-.6-3.4-2.4-6.7-4.3-9.4-1.8-2.6-5-6.9-7.9-7.2-5.1-.4-11.2.9-17.3-.5-5.3 1.3-9.9 3.3-10.8 9.1-.6.1-.3-.7-.7-.7.3 4.6 3 9.2 3.6 13.9.4 3 .1 6 .5 8.9.7 4.5 2.4 8.9 3.6 13 1.3 4.4 2.2 8.8 4.6 12.2.1.6-.4.5-.2 1.2 1.1 1.6 1.8 4 3.1 6.7 1 2.1 2.9 6.8 5.3 5.8 1-2.1 1.5-4.6 4.1-5-.1 1.6.4 2.5.2 4.1.1.7 1-.8 1.2 0-.5 1.5-.3 3.7-.7 5.3.1 1.2 1.3-.9 1.9 0 .6 1.5-2.7 2.6-2.6 3.8 0 .4 4.6 4.8 4.8 5 5.4 4.6 16.5 7 19.2 13.4 11.7 4.8 27.9.3 34.6-7.2 2.5-8 7.6-13.5 13.4-18.2-.3-1.5.5-2.1.7-3.1-1.7-.5-3.4-1-4.1-2.6-.6-.6 0-1.6 0-2.4-.7-.8-2-2.1-1.2-3.6-3.4-1.8-.8-7.4 1.9-8.2 1.4 3.6 8.5 1.7 9.8-.5 1.6-2.5 1.3-13.9 1-17.5-.6-5.8-.7-12-1.2-18-1-13-4.8-24.1-6.7-33.1-2.4-5.6-6.2-12.5-9.4-18.2-1.5-2.6-4.7-6.5-1.9-8.4-2.9-3.9-5.3-8.3-8.6-11.8v-1.7c-5.3-6.5-11.8-12.6-20.6-15.1-1.4-.4-2.4 0-3.4-1 0-2.9 2.4-3.2 5-2.5zm55 27.1c.7 0 1.2-.9 1.9-.2 1.2 5.1 4 8.5 5.8 13 1 .2 1.3-2.4 3.1-2.2 4.8 10.8 11 22.8 11.8 37.2.4 7.5-.4 14-1.7 19.4-.8 3.4-2 5.6-2.9 8.4-1.4 4.2-1.3 8.9-2.9 12.7-.7 1.8-2 3.2-2.9 4.8-3 5.4-4.4 11.2-7.7 15.6 9-15.6 18.9-30.7 19.9-53.3 1.1-24.1-6.6-38.6-17.5-50.4-3.6-3.9-12-12.3-4.3-15.6 2.5 9.5 10.6 13.4 15.1 20.9-8.9-20.7-26.7-33.6-45.6-43.4 12.3 8.1 19.7 21.1 27.9 33.1zm-16.1-15.1c-4-3.9-7.6-9.5-13-11.3 4.1 4 8.6 8.6 13 11.3zm-95.3-3.8c-.1 3.1-2.3 4.2-3.6 6-1 1.4-1.8 2.9-2.9 4.3-1.1 1.4-2.6 2.5-3.6 3.8-1.8 2.3-3.5 5.6-5.3 8.6s-3.2 6.2-4.3 9.6c-2.3 7.3-4.7 14.6-5.3 22.6-.4 5.2.6 8 1 12.2.3 3.3-.2 5.9 1.4 7.7-.1-16.6.5-31.4 6-43.4 2.7-5.8 4.7-12.1 7.9-17 5.1-7.9 11-15.3 17-21.1-2.5 2.4-5.4 4.5-8.3 6.7zm106.1 14.9c-.9-.9-1.3-2.2-2.4-2.9.4 1.3 1.7 2.8 2.4 2.9zm35.5 95.2c0-.2.2-.3.2-.5 6.9-6.3 8.3-18.9 8.9-31.2.2-4.1.3-8.8 0-13-1.2-17.5-11.8-31-19.2-42 7.5 15 13.2 35.5 12 58.8-.4 8.7-3.1 17.3-6 23.5-1 2.1-1.7 5.1-4.3 5.3 6.1-11.2 8.8-30 6-47 .5 25.5-9.1 42.2-17.5 58.1 4.5-5 7.8-12 10.3-18.7 1.5-4 2.5-8.8 5.8-9.6-4.4 14.6-11.1 27-21.1 36 6.8-2.7 11.7-7.2 16.3-12-1.4.2-2.6 1.7-3.8 1.2.9-3.3 4-4.5 7-5.8 1.1-2.3 2.6-4.5 3.8-7.2 1.8-4.1 2-9.6 6-10.8-1.2 5.3-4 10.3-5.5 14.4.6-1 1.3.1 1.1.5zm-55.4-83c-.6-.8-1.3-2.1-1.9-1.9 5.5 8.8 10.3 18.3 14.4 28.6-.8 4 1.7 8.4 2.4 12.5.3.7.5-.8 1.2-.5.5.6.3 2 .7 2.6.3-1 1.2-1.3 1.7-2.2-.4-.6-.5-1.5-.7-2.2-.7.2-.7.2-1.4 0-2-1.9 0-3.7 0-5.8 0-1.7-1.2-4.1-1.9-6.2-2.2-6.2-5-12.3-7.2-17.5-.5-.6-.7 1.1-1.7.7-1.7-2.4-3.8-5.7-5.6-8.1zm44.2 55.7c1.4-14.3-1.6-26.2-5.5-36 3 10.6 5.3 23.2 5.5 36zm-18.3-15.1c-.6-5.2-2-9.5-3.8-13.4 1.1 4.5 2.4 9 3.8 13.4zm12.3 28c2.1-7.6 2.5-19.1 1.4-27.1-.4 9.5-.3 18.3-1.4 27.1zm-16.8-1.6c-.5 1.4.2 2.8.5 4.1-.5 1.4-1.2 2.6-1 4.8 2.3 1.9.3 4.7 1.4 7.2.8-1.6 1.4-3.7 1.4-5.8.3-10-2.3-22.4-4.1-31 .4 7.2-.8 15.8 1.8 20.7zM240 152.9c4.4 9.4 11.3 15.9 19.9 21.1-1.9-3.1-3.4-6.5-5.8-9.1-.6 1.7 3 3.4.2 4.8-3.2-2.9-5.4-6.5-7.9-10.1s-3.9-8.2-6-12.2c-3.2-6.2-5.6-12.7-7.4-19.7-.6-2.3-.8-4.7-1.9-6.7 2.2 11.7 4.6 22.7 8.9 31.9zm19.2 2.7c-.2-2.5-1.8-7.7-2.6-11-.1-6.9-1-12.9-3.1-17.8-.2 11.7 2.9 20 5.7 28.8zm121.7-14.4c1.4 0 1.6-2.8 1-3.4-.3 1.2-.6 2.3-1 3.4zm-7.7 19.2c2.7-4.2 5.5-9.6 6-15.1-1.2 5.6-4.4 10.6-6 15.1zm-194.4-2.7c-3.3-3.9-10.9-6.4-16.6-5.5-2.9.5-7 3.3-9.1 5-2.3 1.9-4.3 4.7-3.8 8.9-.8 1.4-2.7 1.8-3.8 2.9 4-.6 6.5-3.2 11-2.6 1.9.2 3.7 1.2 5.8 1.4 3.6.4 7.1-.9 11-.7 1-.5 1.9-1.1 3.6-1 1 2.1 4.8 1.3 7 2.2-1.9-3.9-2.3-7.3-5.1-10.6zm-28.3 12.7c-2.1.1-3.5 2.4-6 1.2-.1 1.4-.4 2.7-.2 4.3 3.1-3.8 9.8-1.7 16.6-1.7.1-.8.4-1.4.2-2.4-4.5 1.2-7.6-1.6-10.6-1.4zm18.5 0c-1.8 2.1-1.4 10.3-1.2 15.8.3 7-.4 13.5.2 18.7 1.6.3 3.8.3 5-.2.1-10-.4-22.4-.2-32.4-1-.9-2.4-1.4-3.8-1.9zm9.1 5.6c3.8-.7 9.2 0 12 .2-.3-.7-.2-1.8-.2-2.9-3.3 1-7.7-.4-11.5-1-.3 1.1-.4 2.4-.3 3.7zm-33.6 5.7c4.7-2.4 11.2.3 16.3.5v-3.8c-5.8-.1-12.8.5-16.6-1 .2 1.4-.3 3.4.3 4.3zm45.1-3.1c-2.5 2.9-7.1 1.4-11.5 1.2.2 1.2.3 2.6.2 4.1 3.4-.8 7.9-.4 12-.5-.1-1.7.3-4-.7-4.8zm77.8 9.1c.1-1.1 1-1.4 1.2-2.4-.2-.4-.7-.6-.5-1.4-3.9-.5-5.6-3.1-8.6-4.3.2 2.2 7.5 5.1 4.8 6.7-2.9-3.6-7.5-4.2-10.6-7.7-.2.1-.5 0-.5.2 4.3 3.4 8.4 7 14.2 8.9zm7.2-2.9c.5.1.5-.3 1-.2 0-.4.1-.9-.2-1-.2.6-1 .5-.8 1.2zm-129.9 4.6c3.9-2 10.8-.8 16.1-1.4v-1.9c-5.6 1.4-11-1-16.6-1.2.1 1.5.2 3.1.5 4.5zm215.8 19.9c-6.1-5.1-7.6-14.8-9.8-23.8-.2 0-.3-.2-.5-.2-2.4 2.6-5.5 4.7-7.2 7-3.1 4.2-4.1 10.4-8.6 13.7-5.9 4.2-16 7.7-25.2 6.5.5 1.4.7 3 1.2 4.3-3 7.9-5.6 24.4 1.2 30 .5-3.9 3.1-5.5 7.2-5.8-.1 1.4-.7 2.1-.5 3.8 7.2 1.5 9-3.8 14.2-3.6-1.2 2.8-4.7 3.3-5.3 6.7 1.6.1 2.8 1.8 3.8 1.7 2.8-1.1 5.2-2.7 8.4-3.4 3.6-4.6 8.8-6.4 12.7-9.8 2.9-2.6 7.9-8.6 9.1-12.5.8-2.6.8-4.3 2.4-6-1.1-2.7-2.2-5.6-3.1-8.6zm-182.2-21.8v4.1c2.7-.1 7.3-.3 11.5-.2.6-.9.5-2.6.5-4.1-3.3.8-7.7-.1-12 .2zm-33.1 5.7c.1 1.1.4 2 .5 3.1 4-1.6 9.5-1.6 14.9-1.9V192c-5.4.2-11.3-.1-15.4 1.2zm33.1 2.4v5c3.3-.5 7.4-.1 11-.2-.2-2.2.9-4.3.2-6.2-2.2 1.9-7.5.9-11.2 1.4zm-32.1 3.9c.6 1.6.6 3.9 1.2 5.5 3.2-2.5 8.1-3.5 13.4-3.8.2-1.1-.4-1.5-.2-2.6-4.7.4-10.5-.3-14.4.9zm33.1 5.3c3.4-.2 6.4 2.4 8.9 1.4.1-1.9-7.5-1.8-8.9-1.4zm-27.9.9c-.3 0-.2.3.2.2 3 .2 7.2.3 9.6-.7-2.9.5-6.7.1-9.8.5zm29.1 4.8c-8.9-4-21.3-.5-31.7-.2 1.2 3.4.8 7.6 2.9 10.6.6.8 2.2 1.5 3.6 2.6 1.2 1 2 2.4 3.1 3.1 1.6 1 4.4 2.2 6.5 2.9 3.3 1.1 6.2 1.6 9.6.7.6-.1-.1 1.1.7.7 2.1-1.1 5.2-2 7-3.8.7-.7 1.4-2.7 2.2-4.1 2.2-4.2 3.3-8.1 2.9-12.7-2.2.5-4.7-.9-6.8.2zm185 5.8c.7.1.7-.5 1.4-.5-.7-1.1.2-1.8.7-2.4-1.6-.6-2.9-2.7-4.3-2.6 1 1.6 1.4 3.7 2.2 5.5zm9.1 3.3c1 11.8-2.4 18.9-5.5 26.4-2.3 5.4-4.8 10.5-8.4 14.4 3.5 3.3 5.7 7.9 8.6 11.8 2.6-1.9 5.6-.3 8.6-.2 5.1.1 10.2-1.5 15.4-1.4-3-7.3-4.1-15.7-5.8-24-1.6-8.2-4.2-16.5-4.6-24.7-3.7-.1-5.8-1.7-8.4-2.9.1.2.1.4.1.6zm-72.2 27.9c.8.4.9 2.6 1.9 1.9-5.3-4.6-3.7-17.7-2.2-25.4-6.6 4.9-9.8 14.7-14.2 24.7-2.8 6.6-5.2 14.4-6.5 23-.4 2.5-1.6 7-1.2 8.6.3 1.3 3.6 2.4 2.6 4.6 3.3 2.2 6.4 5.1 11.8 5.5 5.3.4 11.4-.8 16.8-.2 2.8.3 8.4 1.7 11.3 1.2 1.8-.3 5.1-3.8 7.4-5.5 7.9-5.7 15-11.5 20.4-18.7 4.1-5.4 8-9.6 10.6-15.6 3.2-7.6 9.7-18.3 4.6-26.6-2.1 3.3-4.2 6.2-6.7 8.9-2.6 2.8-5.8 4.5-8.9 6.7-2.9 2.1-5.2 5.3-8.4 7.2-1.6 1-3.8 1.7-5.5 2.4-1.5.6-4.3.7-4.8 3.1 2.3 1.1 8.7-1.9 10.6 1-2 3.3-5.3 3.7-9.8 2.9-.5 2.7-1.1 5.3-2.2 7.4.5.5 1.9.2 2.2 1-1.3 2-4.1 3.9-7.2 3.4-1.8 1.4-3.3 3.3-5.8 4.1-.7.7.6.8.2 1.9-1.8 1.3-3.2 3-6.5 2.9-.7-.7-1.2-1.5-1-3.1h-3.4c-.9 2.6-3.4 3.6-6.5 4.1-1.4-1.4-.2-4.1 0-6-4.6-.2-3.6-5.8-5.3-8.9-.5.1-2 .6-2.4 0-.8-5.5 4.4-5 5-9.1-1.4-.9-2.8-1.8-3.4-3.6 1.5-2.3 3.5-3.6 6.5-3.8zM263.3 230c-3.5-.3-6.7-1.6-9.8-1.9-8.7-1-14 3.1-18 7.2-4 4.2-8.3 11.9-10.3 17.8-3.6 10.6-4.6 23.7-6.2 36-.2 1 .9.7 1 1.4-1.2 1.8-.6 5.2-.5 7.7 7.4-4.7 15.6-8.6 21.8-14.4.2-2.1 1.6-3.1 3.1-3.8 1.5-2.6 2.7-5.4 4.1-8.2 1.8-.9 3.5-3 6.2-2.2-.8 2.7-2.9 5.5-3.4 7.7 6.6-3.7 13.2-7.4 19.4-11.5-6.1-2.1-11.6-4.7-18.5-6 7.4-10.8 20.3-16 25.7-28.8-5.2-.4-9.8-.6-14.6-1zm20.1.7c-4.6 9.5-14.2 15.4-21.1 22.3-1 1-2.5 2.3-2.2 3.1 5.5 1.3 10.3 3.3 15.1 5.3 1.2-.7 2.2-1.6 3.1-2.6 4.4-10.6 8.7-22.5 14.6-30.7-2.7 1.2-6.1 1.9-9.5 2.6zm41.6 24.5c-2.7.6-6.8.6-9.8 1.2-5-2-12.1.4-10.6 8.4 2-3.6 5.8-7.9 10.8-7-3.3 2.5-5.2 6.4-6.2 11 .7.3 1.4.5 2.2.7-.6-8.3 4.6-10.9 10.6-12.7.4.2.4.7.7 1 .6-.4 1.4-.7 2.4-.7-.1-.7-.1-1.3-.1-1.9zm-6.5 15.1c1.8-.5 2.4-2.1 4.1-2.6-1.2-2.3-4-4.1-3.6-7.2-1.5 1.9-1.1 7.1-.5 9.8zm-69.6 10.3c6.3 13.4 13.1 27.4 23.3 36.7 1.2 1.1 2.7 3.1 4.1 2.6.6-1.8-1.9-1.9-2.6-2.9-.8-1.1-1.1-3.5-1.2-5-.5-6.3-.1-13.3.2-19.7.4-9.7 2.6-18.9 3.8-25.9 0-.1 0-.3-.2-.2-10.2 3.8-17.1 10.8-27.4 14.4zm79.9 9.8c-4.9 3.9-10.7 6.5-15.6 10.3-2.4 1.9-4.4 4.2-6.7 6.2s-5.2 3.5-7.4 5.5c-3.7 3.2-6.9 7.1-10.6 10.3-.1.3-.3.6 0 .2 12-7.4 25.6-13.6 40.1-19 14.6-5.4 30.6-8.3 45.4-13.9-6-7.8-12.1-15.6-17.5-24-7.9 9.7-18 16.8-27.7 24.4zm-142.3.3c-2.6 0-5.4-.2-8.2 0-3.8.3-7.4 2-10.6 2.4-1 .1-3.3-.2-4.6 0-4.9.8-7 4-5.5 9.8 3.8-1.7 7.9-3.1 13.2-3.4 1.7-2.7 4.9-3 8.4-3.1 5.8-.3 11-2.1 14.4-5-1.9-1.2-4.6-.7-7.1-.7zm-11.1 13.4c-10.3-1.4-25.7.4-22.3 11.8 3.9-1.9 8.4-4.3 13.2-4.8.9-.1 2.1.2 3.1 0 2.2-.4 4-2.3 7-2.4 2.3-.1 4.1.7 6.5 0-1.3-2.7-3.6-4.1-7.5-4.6zM150.5 320c-.3 4 1.3 6.1 1.7 9.4 2.7-.7 4.3-3 7.2-4.1 6.5-2.4 15.4-3 22.3-2.6-3.4-10.2-24.5-8.9-31.2-2.7zm36.2 3.8c1 1.1 3.4 1.2 3.8 2.4.8 2.1-2.3 4.7-4.3 6-3.5 2.3-6.9 3.5-11.3 3.4-.1 4.9.2 10.3-.2 14.9 6.3 4 13.4 7.2 21.6 9.4.7 0 .1 1.3 1 1.2 3.7.8 7.2.2 9.8 1.2 7.3 2.6 9.4 11.6 16.8 13.9.6-1.3 1.1-2.7 1.4-4.3-5.2-5-11-7.8-15.8-12.5-5.2-5.1-9.8-12.8-12.5-19.9-1.7-4.6-1.3-10.3-.5-16.1-2.3-1.9-5.4-2.9-8.2-4.3.9 2.7-1.4 3.6-1.6 4.7zm-22.3 3.4c-4.5.7-7.6 4.1-11.3 4.8-.3 8.2 4 13.2 10.3 13.9 1 1.1 1.7 2.4 3.8 2.4.8-3 1.5-7.7.5-11-2.4.5-4.5 3.6-7 2.4 4.2-6.9 13.9-7.2 23-8.9.4-.8.1-1.7-.2-2.4-5.3-2-12.2-2.2-19.1-1.2zm-92.2 18.9c-1.8 2.2-3.6 4.5-5 6.2-6.9 8.5-12.4 17.4-17.3 27.8-2.6 5.5-5 10.7-6.2 16.3-4.3 20.2 5.9 35.8 18.7 42 5 2.4 11 3.9 18.2 3.1 12.1-1.4 16.8-14.6 20.4-25 2.5-7.1 4.4-14.8 3.8-23-.6-8.6-2.4-17.4-4.6-25-3.9-13.6-11.4-23.5-22.6-29.3-1.2 1.7-3.2 4.2-5.4 6.9zm102.5 12.5c3.2 27 1.9 57 1.9 85.4 17.7-16.3 36.7-33.6 45.1-60-3.8-2.4-7.3-5.4-10.3-8.6-3-3.3-6.5-6.2-9.4-9.6-11.2-.6-19.1-4.4-27.4-7.9.1.2.1.5.1.7zm250.6 12.7c-8.8 16.5-16.2 33.8-27.1 49-2.6 3.6-5.7 7.1-8.2 10.8-5.3 7.8-10.8 14.4-16.6 21.4-2.9 3.5-6.3 6.8-8.9 10.3-2 2.8-3.7 7.5-6.2 9.6-1.2 1-3 1.2-4.3 2.2-1.7 1.2-3.3 3.5-4.8 5.3-4.9 5.6-13 13.7-12.2 23.8.7 9.4 7.2 17.8 11 26.2 6.4-4 14.5-4.7 23-7 14.2-3.7 32.3-7.6 49.7-6.5 1.7.1 3.6.7 5.5.7 4 .1 7.4-.3 11 .2 3.5.6 6.8 1.3 10.6 1.4 2.1-27.7-1.2-55.4-2.2-81.4-.2-6.4-1.3-12.6-2.4-18.7-1.1-6.2-1.9-12.4-2.9-18.2-.9-5.5-3.4-10.9-5.3-15.8-2-5.2-4.9-9.8-6.7-14.4 0-.1 0-.3-.2-.2-.7-.3-1.7 1.1-2.8 1.3zm71.3 79.9c.9 5.9 8.5 8.4 13.9 9.8v-19.4c-7.4.4-15 2.2-13.9 9.6zm20.8-9.3c-.6 6.4-.1 13.8-.2 20.6 8.3 1 19.6 2.2 27.6 0-4.7-11.3-12.3-19.7-27.4-20.6zm-.2 25.4c0 17.3-2 33.8-3.1 49.2 19.6-7.4 32.3-23.1 31.2-50.4h-.5c-7.8 1.8-18.5 2.2-27.6 1.2z"/><path class="st0" d="M269 116.7c1 2.4 5.8 1 9.6 1.7 4.2.7 6.6 3.5 9.4 5.3.1.9-.5 1.2-.7 1.9-3-1.1-4.8-3.5-8.2-4.3.9 2.4 1.3 6.9-.7 9.1 1.5.1 4.5-1.6 6-1.4-1.1 3-5.5 2.6-8.6 3.6-.9.4 0 2.7-1.4 2.6-.4-.8-.1-1.3 0-2.2-.6-.7-1.6.2-2.4 0 0 1.3.3 3-1.2 2.9.2-.8-.3-2.2.2-2.6-.3-.3-.8-.5-1.4-.5-1 .6-.4 2.7-1.9 2.6 0-1.1.4-1.9.7-2.6-1.4-1.9-2.9.5-3.4 1.7-1.2-.8.3-2.4.7-3.1-.4-.4-1-.6-1.4-1-1.6.2-1.4 2.3-2.9 2.6-.5-2.3 2.7-2.8 1.4-4.3-1.2.7-1.6 2.1-2.9 2.6-.4-.6.4-1.6.7-2.2-.7-.4-2.9.4-4.1-.5-.1-1.1.5-1.4.7-2.2.8-.1 1 .4 1.9.2-.1-.9-1.3-.6-1.2-1.7.4-.4.6-1 1-1.4 1 0 1.7 1.1 2.6.5-.3-.4-1-.5-1.2-1 .1-.8.4-1.3.7-1.9 1.6-.2 1.9.8 3.1 1-.1-.5-1.6-2.7.2-3.4 1 .2 1.8.8 2.6 1.2.9-.9.8-2.8 2.1-3.2zm-5 10.8c1.7 2.1 4.1 3.6 7.7 3.8-1.2-1.3-2.6-3.5-2.6-5.8 0-.7.8-1.7 0-1.9-1.7 1.4-4 2-5.1 3.9zm10.3-2.9c-.4-.5-.7-1.2-1.9-1-.5 1.7 1.6 2.3 1.9 1zm63.6 42.7c-1.1.3-1.8-1.7-2.9-2.2-3 4.1-4.1 9.7-8.2 13.4-3.8 3.4-11.6 5.9-18.2 6.5-6.2.5-11.5-2-14.4-6.2-1.9-.4-3.1-1.5-4.6-2.4-.5 1.1-.5 2.8-2.2 2.9.1-3.2 1.1-5.6 3.6-6.5.3.3.3 1.1 0 1.4 5.4.8 9-1.7 12.2-3.8 4.1 2.1 9.8.2 11.8-2.6 7.2 1.6 13-1.9 18-4.1-.2-1.2.3-1.6.7-2.2 2.2 1 6.6 3.6 4.2 5.8zm-22.3 9.4c-1.5.8-3 2.1-4.3 2.4-.5.1-3.8.1-3.4.2-.3-.1.2-.7-.5-.7-1.7-.2-3.7.1-5.5 0-1.9-.1-3.4-1-5.3-1 .3 1.6 2.5 3.4 4.3 4.3 2.6 1.2 6.3 1.4 9.4 1 9.9-1.3 20.2-5.5 19.9-14.4-3.2 4.4-10.1 5.7-14.6 8.2zm-3.8-2.7c.9-.3 2.1-.3 2.4-1.2-1.1-.8-1.8.9-2.4 1.2zm-1.2 2.7c3.1-.5 5.7-1.5 7.7-3.1-.8.6-1.6-.2-1-1-2.4 1.2-4.1 3.1-6.7 4.1zm-6.5 0c1.6.5 2.6.2 3.8-.7-1.4-.9-3-.3-3.8.7z"/><path class="st1" d="M34.2 197c-.4-.2-.7.8-.8.9-1.7 4.2-3.8 8.2-6.4 11.8-1.6 2.2-4.4 4.4-5.6 6.8-.6 1.2-.9 1.9-.2 3.1.1.1.1.1.2.1 0 .1.1.3.2.3 2.4 1.5 4.8 2.9 7.4 4 .4.2.8-1 .9-1.2 1.7-2.2 3.4-4.5 5.1-6.7.6.3 1.2.6 1.9.8 1.5.3 3.2 1.4 4.7 2.1 2.1.9 6.2 3.7 8.4 3.7 2.8 0 3.6-3 5-5.3.2-.3.7-1.5.2-1.8l-16.8-7.8c1.4-1.8 2.5-3.6 3.4-5.7.1-.3.5-1.3.1-1.5-2.5-1.2-5.1-2.5-7.7-3.6zm2.9 10.7c-.3.3-.9 1.7-.3 2 5.7 2.6 11.4 5.3 17.1 7.9-.8 1.3-1.8 2.9-3.1 3-.9.1-4.8-2.1-5.6-2.5-3.7-1.7-7.5-3.3-11.2-5-.1-.1-.3.1-.4.2-2 2.6-3.3 5.3-4.2 8.4-2.2-1-4.2-2.1-6.2-3.4-.3-.1-.5-.2-.7-.4-.1-.1-.2-.2-.2-.3-.3 0-.3-.1.1-.5 0-.1.1-.1.1-.1l.2-.2c.4-.4.8-.8 1.3-1.1.8-.9 1.5-1.8 2.2-2.7 1.1-1.4 2.1-2.9 3-4.4 1.9-3 3.4-6.1 4.8-9.4 2.3 1 4.6 2.1 6.9 3.3-1.2 2-2.3 3.7-3.8 5.2zm27.5-21.3c-.8.6-1.7 2.6-2.3 3.5-.2.2-.3.4-.5.7-.5.9-1.1 1.8-1.9 2.5-1.4 1.2-2.6.2-3.9-.6-.4-.1-.8-.3-1.2-.4 1.9-2.4 4-4.9 1.8-7.2-5-5.2-5.8 6.8-10.3 2.5 1.3-2.4 2.6-4.9 3.9-7.3.1-.2.7-1.5.2-1.7-2.3-.7-3-1.6-4.8-.2-2.9 2.4-5.1 7.8-7.2 11-.2.3-.7 1.4-.2 1.7.6.4 1.2.8 1.7 1.2 0 .1.1.2.1.3 6.7 4.8 13.7 8.9 21.2 12.3.4.2.8-1 .8-1.2 1.1-4.5 5.8-9.2 8.5-12.8.2-.3.9-1.6.4-1.9-1.7-1.3-4.2-3.9-6.3-2.4zm5.1 3.9c-2.9 3.7-6.4 7.5-7.9 12-7-3.2-13.7-7.1-20-11.5 0-.1-.1-.2-.1-.3-.7-.5-1.3-.9-2-1.4 1.3-2 2.5-4 3.9-5.9.8-1.4 1.8-2.7 3.1-3.8.9.3 1.7.5 2.6.8-1.2 2.3-2.5 4.7-3.7 7-.2.3-.6 1.2-.3 1.6 1.4 1.5 3.2 2.1 4.8 1.3.7-.9 1.3-1.7 2-2.5l.3-.6c.9-1 2-1.6 3-.5 1.6 1.8-.9 4.3-1.8 5.6-.1.2-.7 1.5-.2 1.7 3.2 1.1 4.4 3.1 7.2.2 1-1.1 1.6-2.5 2.5-3.6 1.2-1.4 1.8-2.1 3.4-1.8.8 0 2.2 1 3.2 1.7zm6.5-31.3c-2.7-4.8-8.7-4-12.6-1.2-2.2 1.6-7.6 6.5-7 9.7.5 2.8 6 6.4 7.9 8.3 3.3 3.3 6.7 6.6 10 9.9.5.5 1.4-.7 1.4-1.3 1.2-2.3 2.8-4.2 5-5.6.4-.3 1.1-1.3.6-1.8-2.4-2.3-4.7-4.5-7.1-6.8 2.4-3.2 3.9-7.5 1.8-11.2zm-3.1 11.1c-.3.3-.6 1.1-.2 1.5 2.3 2.2 4.6 4.4 6.8 6.6-1.8 1.5-3.2 3.2-4.4 5.3-2.4-2.4-4.9-4.8-7.3-7.2-2.5-2.5-5.9-4.9-7.9-7.8-1.4-2-1.6-2.3-.2-4.9 1.4-2.5 4.1-4.8 6.9-5.6 7.4-2.3 11.7 5.7 6.3 12.1z"/><path class="st1" d="M63.9 165.8c0 .2 0 .3.1.4l4.5 3.9c.5.4 1.2-1.2 1.2-1.5.1-.5 1.5-1.4 1.9-1.9.4-.6.8-1.3.8-2.1 0-1.8-2.3-3.7-3.9-4.1-2.9-.4-5.9 2.8-4.6 5.3zm6.9-.1c0 .8-1.1 1.3-1.6 2 0 .1-.1.1-.1.2-1.1-1-2.3-2-3.4-3-1.8-1.7.8-2.5 2.2-2.1 1 .3 2.9 1.6 2.9 2.9zm36.5-8.3c-5-5.4-9.9-10.8-14.9-16.2-1.2-1.3-1.7-2.1-3.3-2.1-2.2.1-6.2 2.8-8 4-2.8 1.9-2.5 2.4-1.6 6 1.8 7.2 3.8 14.3 5.2 21.7 1-.4 2.1-.7 3.2-1h.3c1.4-.4 2.8-.9 3.3-1.8 1.2-1.8-.6-3.9-.5-5.8-.5-1.4 0-2.3 1.4-2.7.7-.3 1.4-.7 2.1-1 .2-.1.6 0 .7.3.1.2.1.3.2.4h.1c.5.5.9 1.1 1.3 1.7.8.8 1.1 1.6 2.3 1.6 1.8.1 6.4-3.6 7-3.7.4-.1 1.7-.9 1.2-1.4zm-5.1 2.1c-.5.3-1.1.6-1.7.9-.4.2-.8.5-1.2.4-.5-.1-1.1-.7-1.4-1.1-.4-.4-.7-.9-1-1.4-.8-1-1.3-1.7-3.5-1.2-1.4.4-3.7 1.8-4.3 3.1-.4.8-.2 1.5-.1 2.3.3 3.9 1.3 4.9-2.7 6.3-.8-4.4-1.8-8.7-2.9-13-.5-2-1.1-4-1.6-6-1-3.5-1.7-4.5 1.7-6.8.8-.6 1.6-.9 2.4-1.1.8-.3 1.5-.7 2.3-.8 1.1-.3 1.1-.1 2 .7 1.1 1 2 2.2 2.9 3.3 1 1.1 2 2.3 3 3.3 2.9 3.2 5.9 6.4 8.8 9.6-.8.5-1.8 1-2.7 1.5z"/><path class="st1" d="M90.4 147c-.6-.8-.8-1.3-1.8-1.1-.6.1-1.2.4-1.7.8-3 2.6-.6 6.9.4 9.9.3.8 1.5.2 1.8-.5 1.6-.8 3.1-1.5 4.7-2.3.4-.2 1-.9.6-1.4-1.3-1.8-2.6-3.6-4-5.4zm-2.5 1.2c.4-.4.6-.3.8.2.2.2.4.5.6.7.4.5.7 1 1.1 1.5.6.8 1.2 1.6 1.8 2.3-1.1.5-2.2 1.1-3.3 1.6-.9-2-2.4-5.7-1-6.3zm47.1-3.6c-3.4-2.8-4.4-7.5-5.6-11.5-1.4-4.4-2.6-8.9-3.7-13.3-.1-.5-.7-.2-1-.1-7.1 3.3-14 6.9-20.9 10.8-.3.2-1 .6-.9 1.1 2.5 7.9 5.2 15.7 8.1 23.4l.9-.3c.3-.2.6-.3.8-.5h.1c.3-.1.6-.3.9-.3 3.1-1.1 5.9-2.3 5.2-6-.3-1.4-6-11.8-.5-9.9.9.3 2 3.9 2.5 4.9 1.1 2 2.1 4.6 3.8 6.1.3.2.7.1.9-.1 2.5-1.2 4.3-2.7 7.7-2.8.5-.2 2.3-1.1 1.7-1.5zm-5.5.9c-.6.3-1.2.8-1.8 1-2.7.5-.9.4-2.6-1.2-2.4-2.3-3.1-9.8-6.9-10.3-1.8-.2-3.4 1.3-3.9 2.8-2.3 6 7.8 11.3-1.5 15.3-2.3-6-5.2-12.3-6.6-18.5-.9-4.3.6-4.5 4.4-6.5 2.8-1.5 5.7-3 8.5-4.4 3.2-1.6 4.4-2.6 5.8 1 1.1 2.7 1.6 5.8 2.5 8.6 1.2 3.8 2.2 8.5 4.9 11.6-1.1 0-2 .2-2.8.6zm27-16.8c-1.9-.4-4.2 1.1-6.2 1.4-1 .4-2 .7-3.1.9-.3.1-.6-.2-.6-.4-.2-.8-.4-1.5-.5-2.3-.2-.4-.2-.8.1-1.2.3-.4 4.4-.6 4.9-.7.6-.1 1.1-.7.9-1.3-.6-1.8-1.1-3.5-1.7-5.3-.1-.4-.7-.5-1.1-.4l-5.1 1.7c-.4-1.9-.5-2.2 1.9-2.8 2.1-.5 4.1-1 6.2-1.4.5-.1 1.2-.7.9-1.3-.8-1.5-1.5-3-2.3-4.5-.3-.5-.9-.4-1.3-.3-4.3 1.6-8.6 2.7-13.2 3.2-.5.1-.9.4-1.1.8-.6.1-1.2.5-1.2 1.1.5 4.5 1.2 9 2.2 13.5.6 2.7 1.1 8.3 3.1 10.2 1.1 1 3.7.2 4.9 0 4.9-.7 9.8-1.4 14.7-2.2.4-.1 1.1-.6 1-1.1-.3-2.4-.7-7.1-3.4-7.6zm1.2 7.2c-2.9.4-5.8.9-8.7 1.3-1.6.2-3.3.6-4.9.7-2.6.3-2.5.6-3.7-1.7-3-5.6-3.6-14.2-4.2-20.5 4.5-.5 8.7-1.6 12.9-3.1.5 1 1 1.9 1.5 2.9-2.8.4-7 .8-8.4 2.3-1.2 1.3-.4 3.1 0 4.7.1.5.6.7 1.1.6.7-.2 3.9-1.6 4.5-1.5 1.1.3 1.6 2 1.9 3.4-1.7.2-3.5.4-5 1.1-.4.2-.7.5-.7 1-.1 1.5.3 3.4.9 4.8.1.2.3.4.5.4 1.8.2 3.3-.3 5.1-.7 1-.2 2.7-.9 3.6-.8 2.9.3 3.3 2.8 3.6 5.1zm21.9-14.7c3.4-1.9 7-4 4.7-8.8-3-6.3-15-3.3-20.1-3-.5 0-.9.4-1 .7-2.2 1.8-.7 6.3-.6 8.8.3 4.6.4 9.7 1.6 14.2.8 3 2.2 2.6 5.3 3 3.9.4 8.1.8 12 .2 4.8-.7 10.7-4.1 9.7-9.9-.9-5.2-6.7-5.8-11.6-5.2zm5.7 12.3c-4 2.2-9.9 1.4-14.2 1l-2.7-.3c-1.9 0-2.6-.9-2.3-2.7-.7-1.7-.6-4.2-.8-6-.2-2.2-2.4-13.2-.6-14.5 4.1-.4 13.3-1.8 16.1.5 6 5-3.1 8.4-6.1 10.8-.9.7 0 1.5.9 1.3 2.8-.8 9.3-2.4 11.7.4 2.9 3.3 1.8 7.5-2 9.5z"/><path class="st1" d="M173.9 121.4c1.1-.3 2.5-1 2.6-2.3.1-1.2-.9-2.3-2-2.6-1.5-.5-3.1-.1-4.5.3v-.1c.1-.7-2.1-.3-2.1.3-.1 1.6 0 3.1.4 4.7 0 .1.3.2.4.2 1.7.1 3.5 0 5.2-.5zm-3.9-3.7c1.6-.5 3.7-.9 4.3 1.1.6 2.1-2.4 2.1-4 2-.2-1-.3-2-.3-3.1zm2.1 9.7c-.2 0-.4 0-.7.1-.6-.3-1.8.1-1.8.7v4.2c0 .4.3.6.7.6 2.3.4 4.7.5 7.1.1 1.3-.2 3.2-.7 3.6-2.3.9-3.5-7.2-3.2-8.9-3.4zm3.3 4.5c-1.2.1-2.4 0-3.6-.2v-2.8c1.2.1 2.4.2 3.6.4.9.1 2.6 0 3.2.8 1.2 1.6-2.4 1.8-3.2 1.8zm37.9-21.4c-1.2-.2-2.8.5-4 .7-4.5.8-12.2 1.9-16.1-.9-.3-.2-.8-.1-1.3 0 0-.2.1-.4.1-.6-.6-.2-1.1-.4-1.7-.5-.2.1-.4.3-.4.5-.2 1.7-1 6.6.5 8 .6.6 2.5.3 3.1.3 2.2 0 2.6-.7 3.6 1.5.6 1.3-.3 4.5-.4 5.8-.2 3.2-1.1 7.3-.5 10.5 0 .2.2.2.4.3 2.5.7 5.4.2 7.9.2.3 0 1.7-.1 1.6-.7-.8-3.9-2.3-9.3-1.6-13.3.4-2.8.6-2.7 3.5-3.1 2.2-.3 4.6-.2 6.9-.3.3 0 1.4-.2 1.3-.7-.4-2.6.1-7.2-2.9-7.7zm-10.4 8.3c-1.3 1.1-.5 4.3-.4 5.6.2 3.6.8 7.2 1.4 10.8-1.2.1-2.4.2-3.5 0-3.3-.6-2-3-1.8-5.6l.8-12.5c0-.3-.7-.3-.9-.3-1.4 0-5.2.8-6.3-.3-.8-.8-.7-3.2-.4-5.2 2.9 1.8 6.4 1.7 9.8 1.6 2.6-.1 5.2-.3 7.8-.8 2-.4 2.4-.9 3.7.6.7.8.7 3.4.8 4.9-3.3 0-9-.6-11 1.2z"/></g><g id="Режим_изоляции"><path class="st0" d="M17.2 98.7c.3-.6.7-1.2 1-2 2-2.9 5.5-1.1 7.9-2.6 1.1-.7 1.8-1.9 2.6-2.6 1-.9 2.3-1.8 3.6-1.9 2.8-.4 8 2.2 10.1 4.6 1 1.1 1.3 2.7 2.3 3.9 2.2 3.1 6 5.9 9.7 8.9 3.9 3.1 8.1 6.1 12.1 8.1 1.2.6 2.6.9 3.3 1.9-1 2.6-3.6 1.2-5.4 1-4.1-.7-7.7-1.5-12-2-1.7-.2-4.6-.8-5.4.7-.9 1.7 2.1 3.9 3.9 5 2.3 1.4 5.2 2.5 7.8 3.9 1.6.9 6.3 3 5.3 4.8-.6 1.1-3.4.3-5 0-5.4-1-10.9-2.8-16.3-3.7-3.4-.6-7-.4-10.4-.9-3.5-.6-7-.8-10.6-1.5-.6-.3-1.3-.6-2-1.1-.5-.6-1.4-1.2-1.9-1.9-2.1-3.1-3-7.2-1-11.3.3-.7 1.1-1.3 1.2-2.2.4-1.2-1-3.3-1.1-4.8-.4-1.7-.1-3.1.3-4.3zM48.9 109c-.9-.3-.4-2.5-.5-3-.5-3.1-3.5-3.8-6-6.4-.7-.6-.7-1.9-1.3-2.8-1.2-2.1-4.9-5.7-7.9-5.9-2.8-.2-3.7 3.6-6.3 5-1.9 1-4.2-.1-6.3.8-1.8.8-3.3 3.4-3 5.6.2 1.8 2.2 3.6 1.9 5.5-.3 2.2-1.8 3.1-2.6 4.6-1.5 3.1-.3 7 2 8.7 2.6 1.8 5.1 2 7.5 2.2 1.8.2 3.5.5 5.1.6 3.3.2 6.2-1.3 9.5-.7.2.3.3.7-.1 1.4 4.7-.2 10.6 1.7 16 3.8 1.8.7 3.6 1.6 5.4 1.5-2.9-4-11.3-5.9-16.2-9.3-2.6-1.7-.7-6.3 1.9-7.1 3.3-1.2 10 1.9 14.1 3.1 1.3.4 3 1.2 4 .3-.5-1.4-2.2-1.9-3.7-2.7-4.4-2.4-9-5.2-12.5-7.6 0 .5.3 2.8-1 2.4z"/><path class="st0" d="M20.1 109c1.3-1.5 2.7-2.7 4.3-3.3-.5-2.1-.7-4.2 1-7.1.1 2.1-.6 4.5.9 6.1 2.3-.5 4.4-2 7.2-1-.2.5-1 .5-1.4.6-1.7.7-4.9 1.5-5.8 4.1-.6 1.8-.2 3.9.2 5.4.1.4.5 1 .2 1.4-2.5-1.9-3.7-4.3-2-7.5-1.9-.7-3.1.7-4.6 1.3zm465.4-76.4c.5.5.9 1.1 1.5 1.6 2.1 2.9-.9 5.6-.3 8.3.3 1.3 1.2 2.3 1.5 3.4.5 1.2.9 2.8.5 4.1-.6 2.8-4.9 6.7-7.9 7.9-1.4.6-2.9.3-4.5.8-3.6 1-7.7 3.6-11.7 6-4.2 2.5-8.5 5.5-11.8 8.5-1 .9-1.7 2.1-3 2.5-2.1-1.8.1-3.8 1-5.4 2.1-3.5 4.1-6.7 6.1-10.6.8-1.5 2.3-4.1 1.2-5.3-1.3-1.4-4.4.6-6 1.9-2.1 1.7-4.1 4-6.4 6-1.4 1.2-5 4.8-6.3 3.3-.8-1 .9-3.3 1.8-4.7 2.9-4.7 6.4-9.3 9.2-14 1.8-3 2.8-6.4 4.5-9.4 1.8-3.1 3.3-6.3 5.1-9.4.5-.5 1.1-1 1.7-1.5.8-.3 1.7-.9 2.4-1.1 3.7-.9 7.8-.3 10.9 3.1.6.5.9 1.5 1.6 1.9 1 .8 3.4.3 4.8.7 1.8-.2 3 .6 4.1 1.4zm-20.9 26c.6-.8 2.4.5 3 .6 3 .6 4.8-1.9 8.1-3.4.8-.4 2 0 3-.2 2.4-.4 7.1-2.6 8.3-5.3 1.2-2.5-2.1-4.8-2.5-7.6-.3-2.1 1.6-3.9 1.5-6.1-.2-2-2-4.3-4.2-4.8-1.7-.5-4.2.7-5.8-.1-1.9-1-2.2-2.8-3.4-4-2.4-2.5-6.5-2.7-8.9-1.1-2.6 1.8-3.6 4-4.6 6.2-.8 1.6-1.7 3.1-2.4 4.6-1.4 3.1-1 6.3-2.7 9.2-.4.1-.8 0-1.3-.5-1.5 4.5-5.3 9.3-9.1 13.7-1.3 1.5-2.8 2.8-3.3 4.6 4.8-1.3 9.5-8.5 14.4-11.9 2.5-1.8 6.1 1.6 6 4.3 0 3.5-5.3 8.7-7.9 12.1-.8 1.1-2.2 2.4-1.7 3.6 1.5 0 2.6-1.4 3.8-2.5 3.8-3.3 8-6.6 11.5-9-.4-.8-2.6-1.3-1.8-2.4z"/><path class="st0" d="M474.7 31.7c.9 1.8 1.5 3.5 1.6 5.1 2.1.2 4.2.9 6.3 3.5-2-.6-3.9-2.2-6-1.3-.3 2.3.3 4.8-1.6 7.1-.4-.3-.1-1.1-.1-1.6 0-1.9.3-5.1-1.8-6.9-1.4-1.2-3.6-1.5-5.2-1.7-.4 0-1.1.1-1.3-.3 2.7-1.6 5.3-2 7.7.8 1.4-1.5.4-3.1.4-4.7z"/><path class="st1" d="M89.2 199.9c-2.4-1.1-5.5-.5-7.6 1.7-1.7 1.7-3 4.2-3.1 6.6-.2 2.8.8 6 3.1 7.8.9.6 1.8.7 2.7 1.1.6.3 1.1.9 1.6 1.4 1.1.9 2.1 1.7 3.2 2.6 2.1 1.7 4.3 3.4 6.4 5.3 4.3 3.4 8.5 7 12.9 10.4 2.7 2.2 5.4 4.5 8.3 6.7.3.2.5-.1.7-.3.2-.4.3-.6.5-.8-2.2-2-4.3-4.1-6.2-6.2-.4-.3-.6-.6-1-1-.1 0-.1-.1-.3-.2-.5-.5-.8-.9-1.1-1.1-2.4-2.3-5-4.6-7.5-6.7-3.4-3.1-7-6.1-10.6-9.1-.9-.8-1.7-1.4-2.6-2.2.4-.4.9-.7 1.2-1.2.3-.2.5-.5.6-.7 2.7-3.1 4.1-8.2 1.7-11.8-.8-1-1.7-1.9-2.9-2.3zm1.4 8.4c.1.7 0 1.3-.2 1.9-.8 2.6-4 3.5-6.3 2-1.4-.8-3.2-3-3.2-4.8 0-2.4 1.3-4.6 4.2-4.5.7-.1 1.5.2 2.2.6 2 .8 3.1 2.9 3.3 4.8z"/><path class="st1" d="M78.6 222c5.2-7.4 10.8-14.4 16.9-21.1 1.5-1.7-.4-7.8-1.9-6.2-6.3 7-12.1 14.3-17.5 21.9-1.1 1.8.8 7.9 2.5 5.4zm66.1-165.7c-1.2-1.7-2.5-2.3-4.1-2.2-.2 1.9-1.2.9-.9 2.8-1.1-.6-1 .4-1.5.5-3.1-1.7-4-3.3-9.7-4.3-.2 1.7-.6.5-2 .8-.6 2.2-3.6 2.1-3.1 4.7-1.4-1.1-1.6 4.9-2.9 3.9-1.4 4.8 1.1 7.4.9 10.2-.7 7.5 12.2 2.2 14.3.9.7 2.4-1.2 6.9 1.2 8 1.9-2.1 3.7-4 3.1-7.3 3.4-4.2 2.9-12.7 4.7-18zm-12.9 10.4c-.5-1-1.5 2.7-1.7 3.4-3.9.7-2.9-2.8-4.1-4.4 1.4-2.9 3.4-4.9 5.6-6.5 1.4-.5 1 1.9 1.5.2.5 2.1-.8 5.4-1.3 7.3zm-12.7-23.1c-1.1-.4 1-2.5.2-4.2 2.6.6 4.7.5 6.6.1 0 .7-.3 1.5.7 1.5 1.6-1.9 2.5-12 3-15-4.2-1.9-10.7-3.6-16.5-2.3-4.1-2.6-7.7-1.4-13.4-3.2-.6 1.1-2.7 3.1-3.8 3-.2 3-1.1 4.9-2.4 6.1 3.8 2.3 8.6 1.6 13.1 3.6-2.3 9-2.1 22-5.8 30.9-.8 1.8-.2 6-1.4 8.2 0 .2-.2.3-.3.3.1-.1.2-.2 0 .5-.4 1.7-3.4 3.1-2.4 5.7-.1.1-.8-.7-.9-.6-1.9 3.9-3.1 8.6-7.3 10-7.1-1.6-8.7-11.2-6.1-16.5.2-.5.9.4 1-.7 1-11-7.4-1.9-13.2-5.1-1.4 3.1-4.3 1.8-6.4 4.6l-.2 1c2.1.6.3 5 2.1 4.6.2 1.5-.7 1.7-1.2 2.1 2.8 2.3.4 8.2 3.4 10.4-1.3.5-.3 1.8.4 3.4 1.5 3.5 6.7 9.2 9.9 10.6 2.6-.4 3.5 1.8 8.6 1.9.1-.6.2-1.3.7-1.3 0 .3-.1.9.3 1 7.2-2.4 12.5-2.5 16.3-10.3 1.7.5 1.8-4.8 3.4-4.1 1.7-6.3 2.4-7.2 3.4-14.4.4.1.5.5.9.6 1.6-8.7 4.3-21.3 7.3-32.4zm95.8 3.7c-2.3-1.7-6.7-1.6-7.8-1.7-1-.1-1.4-1.4-2.1-1.7 0 0-.1.7-.4.6-1-.4-2.7-1.6-4.3-.4-1.4-1.1-4.5-.3-7.1-1.9-.3 2 .3 2.9-1.3 3.9 1.9 0 .3 3 0 3.7 1.2.7 1.6.3 1.4 1.6 1.6-.5 2.4.7 4.7.5-.6 1.5.4.4.5 1.1-1.8 1.9-3.4 6.2-5 7.6.2-.1-.1-.8-.2-.7-.4 2.2-2.4 2.9-2.9 4.9-.5 2.5-.3 4.4-1.2 6.9 1.1-.2.4.8.4 1.4 7 1.3 13.8 1.3 23.8 2 .9-4.2 1-4.3.9-7.3-3.2-.1-3.9-1-5.7-.3-3.9-2-5.5-1.3-9.4-2.6l.3-1.6c4.6-2.5 8.1-4.6 11.6-8.2.7 1 1.7-1.1 2.4.1.2-1.5.5-3.6.9-1.6.4-2.9.2-4 .5-6.3zM166 79.2c5.3-4.3 9.4-12.8 17-14 2.6-3.8 2.2-10.2 3.3-12.9-3.2-1.4-6.4-2.2-11.4-1.9l.3-1.7c-4 .5-4.8-2.1-7.4-.7-1.9-2.3-7.2-.9-9-1.5.2 0-.7-1.8-.9-1.9-.8-.4-2.2.4-2.9.1-1.2-.5-2-3.7-5-1.4-1.4 6.8-2.1 10.3-.9 15.6 6.9 1.7 7.7.9 12.9 2.8-3.8 6-7.7 11.6-12.6 15.9-.4 1.3-.3 2.2.1 2.9l-1.7-.3c0 4.4-.6 10.2.4 14.7 3.1 1 6.4-1.3 8.5 1.5.5-2.7.5 1.4 2.8.5.2-.7.2-1.7.9-1.6-.3 2.9 4.7.7 4.9 2 .2-.7.2-1.6.9-1.6.3 1.8.8.9 1.8.3.7 2.6 7.2-.2 9.5 2.8.2-.4.2-1.1.8-1-.2 2.1 2.4.2 3.2 1.7-.1-1.5.6-2 1.9-1.4-1.5-6.2 5.3-12.3.4-16.2-1.7 5-10.3-.3-13.1 1.3.2-1.9-1.5.7-2-2.1-.4 1.6-3 .5-4-.6.2-.8.2-2.1.9-2.2-.2-.2.1 1.1.4.9zm57.4 114c-2.6-5.7-3.8-12.1-5.3-18.1-1.3-4.9-2.6-9.8-3.8-14.6-.1-.7-.2-1.3-.3-2 4.4 2.8 8.7 5.7 12.8 8.9.2.3.3.6.5.8.9 1 1.6 2 2.1 3.2.3 0 .7 0 1-.2-.6-2.2-1.4-4.4-2.2-6.6-1.2-2.5-2.7-4.7-4.9-6.3-3.5-1.5-7.7-1.5-10.3-4.6-.1-.1-.3-.2-.5-.2-.1-.2-.1-.4-.2-.6-.2-.8-2.1-.3-1.9.5.4 2.1.9 4.2 1.3 6.3 1.1 9.1 2.8 18 5 26.9.5 2.1 1.1 4.2 1.7 6.3-.4.1-.9.3-1.3.4-1.9.6-3.8 1.7-4.9 2.9-.3.3-.6.6-.9 1-.5.4-.9.9-1.2 1.3-.6.8-1.2 1.7-1.6 2.7-.8 1.6-1.3 3.2-1 4.6.7 2.9 4 3.5 6.5 3 1.3-.3 2.8-.9 4.3-1.7 4.2-1.8 8.1-5.9 7.3-10-.1-1.7-.7-3.1-2.2-3.9zm-13.5 10.1c0 .1 0 .3-.1.4v-.3c0-.5 0-1.1.1-1.6.3-.6.7-1.3 1.1-1.9-.7 1.1-1.1 2.3-1.1 3.4zm2.2-4.8c-.3.3-.5.6-.7.9 0-.1.1-.1.1-.2.4-.6.9-1.3 1.5-2-.4.5-.7.9-.9 1.3zm4.9-3.5c.3-.1.5-.1.8-.2-.3.1-.7.2-1 .4.1-.1.2-.1.2-.2zm-2.2 4.7c.1-.1.2-.2.3-.2-.1.2-.1.3-.2.5l-.2.2c0-.1.1-.3.1-.5zm4 3.7c-.9.8-2.6 1.6-4.1 1.9h-.1c.3-.1.5-.2.8-.4 1.4-.5 2.7-1.3 3.6-1.9.4-.3.9-.6 1.3-1-.4.5-1 1-1.5 1.4z"/><path class="st1" d="M213.2 202.1c-.1.1-.2.2-.2.4v-.1c0-.2.1-.3.1-.5 0 0 0 .1.1.2-.1 0-.1 0 0 0zm7.7-7.7c-.1-.1-.1-.1 0 0 0-.1 0-.1 0 0zm-101.3 64.2c-2.9-3.6-26-14.3-34.6-18.3-.4-.1-.9-.2-1.4-.4-1.8-.9-3.8-1.8-5.8-2.3-4.5-1.4-7.3 2.6-10.1 6.6-2.9 4-7.3 2.6-7.3 2.6s26.4 14.6 33.4 18.4c7 3.8 5 4.7 5 4.7s-7.3 2.6-7.7 9.1c-.3 6.4 9.6 11.1 12.9 5.6s2.1-12.4-1.4-16.7c-2.2-2.7-16.4-9.7-26.8-14.6l14.6-7.1c1.2-.6.1-1.2-.8-.8-.5.3-1 .5-1.6.8.4-.3.9-.5 1.3-.8.4-.2.7-.3 1.1-.5 7.6 4.2 16.3 9 20 11 7 3.8 5 4.7 5 4.7s-7.3 2.6-7.7 9.1c-.3 6.4 9.6 11.1 12.9 5.6 3.6-5.5 2.5-12.4-1-16.7zM73.3 252c.5-.2.9-.4 1.4-.6-.4.2-.8.5-1.1.7-.1 0-.2-.1-.3-.1zm6.3-4.7c-2.9 1.1-5.7 2.3-8.5 3.7-3.7-1.7-6.2-2.8-6.2-2.8s7.9.8 12.2-2.7c2.8-2.3 6.6-3 8.9-3.1.7.4 1.5.8 2.3 1.3-3 1-5.9 2.3-8.7 3.6zm471.9-34.2l-3.1-1.2c.8.3 1.6.7 2.6 1.2.2-.1.4-.1.5 0zM534.2 157c-.1-.2-.2-.4-.4-.7 0 .1.1.2.1.3.1.1.2.2.3.4zm-80.5 35.1c.2 0 .4.3.5.6-2 1.9 2.4 4.4 2.1 5.7-.3.1-.7 0-.7.4 3.7.1 7.1 0 8.6-2.1-1-.1-1.1.8-2.1.7.6-4.5-6.5-6.9-8.4-5.3zm49.4-32.9c-.4 1 1.5 1.9 2.5 2.9 3.5 3.3 7.1 7.2 10.4 10-2.7-4.6-8.8-8.7-12.9-12.9zm-46.8 29.6c-1.3-.2-3-1.9-4.3-1.1 1.3.3 3.6 1.5 4.3 1.1zm-2.8 10c.6 2.2 4.8 1.4 6.1.4-2-.3-4.7.3-6.1-.4zm-8.2-9c.9 3.3 2.1 8.1 5 8.2-2.4-1.9-3.5-5.3-5-8.2zm8.2 2.5c.1-.1.1-.2.2-.2-.1 0-.2 0-.2.2z"/><path class="st1" d="M552 245.2v-1.4c3.5 2 9.3 4 15 5v-16.2c-4.8-3.2-10-6.1-13.8-7.8-.4-.1-.8-.1-1.1-.1v-.2c-.7-.4-1.4-.8-2.1-1.1l1 .4c-.4-.2-.7-.3-1.1-.4-9.9-4.9-19.5-5.4-24.9-13.8-4.9-7.7-2.4-20.6-3.9-31.1-1-7-6.6-11.5-11.4-15.7-2.6-2.3-5.7-5.5-8.2-6.4-5.6-2-12.1 1.5-12.8 3.2 1.1-.5 1.7-1.6 3.2-1.8-1.4 2-3.7 3.7-5 4.6-1.9 1.5-3.6 3.9-6.8 3.6 1.9-2.4 6.8-3.6 7.5-6.1-2 2.7-15.4 8.1-8.6 11.1-1.3-1.3 2.4-1.2 3.6-2.1-.9 0-1.7.1-1.8-.7 5.7-3.3 7.6-8.2 14.3-10.3-4 3.2-9.5 6.9-10.7 11.8 4.5-3.4 9.7-14.6 16.8-9.3 3.3 2.5 8 7.3 11.4 11.4 5.3 6.2 2.5 17.2 3.2 26.8.4 5.8 2.8 10.7 3.9 15-13.7-4.7-25.6-11.2-38.5-16.7-1.6-.9-3.2-1.9-4.9-2.8-.2-.1-.5-.1-.7 0v-.2c-.3-.1-.6-.2-.9-.4 0 .1-.1.3-.1.4-.9-.5-2.7-2.1-3.6-1.4 1 .7 2.8.8 3.6 1.7-.5.1-1.1.4-1 .7.4 1-.8.2-1.1 0-.5-.3-1-.5-1.5-.8-.9-.5-1.7-1-2.6-1.4.9-1 2.9-.3 1.1-1.6.9-2.6 1.5-5.3 1.1-8.6-2.4-17.6-28.9-12.2-27.1 5.7.1 1.1.7 2.6 1.4 4.3.8-1.8-.6-2.6-.7-4.3-.3-5.8 4.4-9.9 6.4-12.8-.7.6-1.8 2.6-3.2 1.4 1-.7 1.4-.3 2.1-.7 6.5-9.4 23.1-.6 20 10.7-.1-.4.1-1-.4-1.1 0 1.2.9 3.7-.3 2.1.6 1.4-.5 2.8-1.5 4.3-.6 0-1.6.5-1.1.9.1.1.2.1.3.2-.4.6-.8 1.2-.9 1.8.5-.5.9-1 1.3-1.6 1.1.6 2.2 1.2 3.2 1.8.9.5 1.9 1.3 2.9 1.4h.4c15.7 9.6 32.1 17.8 48.3 26.4 1.2 1.1 2.2 2.3 2.7 3.7.4 1 0 2.4.4 3.6 1.2 4 4.2 8.4 6.1 11.4 5.6 9.2 30.5 52.7 35.9 61.4v-34.7c-1.9-3.6-2.8-6-3.8-7.8-2.9-5.7-7-10.5-11-15.4zM445.3 182c-1.6.5 1.1-2.8 1.4-3.9.9 1.2-1.8 2-1.4 3.9zm22.4 10.1c.4-.6.8-1.3 1.2-1.9 0 .7-.6 1.4-.9 2-.1 0-.2 0-.3-.1zm7.4 3.8s-.1 0-.1-.1c.2-.2.3-.4.4-.7.1.1.3.2.4.3-.3.1-.6.3-.7.5zm40.8 18.7c.2 0 .3 0 .5.1.5.1 1.5-.6 1-1 1.7.8 3.1 1.7 3.8 3.3-1.9-.8-3.8-1.6-5.6-2.5.1 0 .2 0 .3.1zm5.9 4c-.2-.1-.5-.3-.7-.4.1 0 .1-.1.2-.1.1.2.3.3.5.5zm-6.4-4.3c0 .1.1.1.1.2-.4-.2-.9-.4-1.3-.6.4.1.8.2 1.2.4zm-2.7-.8c1.7.8 3.7 1.6 5.6 2.6-.9-.4-1.7-.8-2.6-1.1-1-.5-2-.9-3-1.5 0 .1 0 .1 0 0zm-27.5-11.7c-1.9-1.1-3.7-2.1-5.6-3.2 1.3.7 2.7 1.5 4 2.2 0 0 .1 0 .1.1l1.5.9zm19.1 9.7c-.2-.1-.3-.2-.5-.3h.1c.2.1.4.2.6.4 0 0-.1-.1-.2-.1zm-21.4-13.8c7.7 3.8 15.7 7.9 23.6 11.5-8.1-3.4-16-7.2-23.6-11.5zm35 21.7c-1.3-.9-2.4-1.5-3.1-1.7.1.1.3.2.4.4-2.4-1.3-4.8-2.5-7.2-3.8.9.3 1.8.7 2.7 1 .5.3 1.1.6 1.5.9 0-.1-.1-.2-.2-.3 3.5 1.6 7.1 3.3 10.6 4.9.1.1.3.1.5 0 .2.5.4 1.1.5 1.7-1.8-1.1-3.7-2.1-5.7-3.1zm5.3 3.8c.2-.1.5-.2.6-.3v.8c-.2-.1-.4-.3-.6-.5zm9.5 14.1c-.4.7 0 .3-.7.7-3-1.6-2.2-7.1-6.1-7.9.3-1 1.3-.1 1.4-.7-.2-.3-.4-.6-.4-1.1-.9 0-1.4.5-1.4 1.4-.2-1.4-.1-4.3.7-3.9-.6-1.2-1.3-3.5-2-5.7-.8-2.4-1.9-4.9-3.3-6h2.1c-2.3-.9-3.1-3.3-3.9-5.7-1.1.2.3.8 0 1.4-2.3-1.7 0-7.1-2.1-8.2-.1-.8 1.3-.2 1.8-.4-2-1.6-2.4-4.3-.4-6.1-.6 0-1.4-.2-1.4.4 1.7-7.5 0-17-1.8-22.5-4.8-4.2-10.7-10.7-15.7-15 .4 1.1-1.7 0-3.6.4 1.2-.4 2.4-.5 3.6-.4 5.8.5 10.4 6.5 15.4 11.1 7.7 7.2 4.9 16.7 6.1 30 .4 4.3 2 12.1 4.7 13.6.3.2.3-.5.4-.7 1.7 4.2 3.7 9.2 7.5 11.4 3.7 2.2 5.3 6.4 8.2 10-1.9 2.2-6.1 5.2-9.1 3.9zm34.2-61.9c-10.2-5.3-20.2-10.7-30.1-16.2 10 4.2 20.3 10.2 30.1 15.7v-5.8c-9.8-4.7-19.8-9.8-29.8-15 10.6 3.8 20.2 8.9 29.8 13.9v-10.1c-10.2-4.7-20.8-9.7-31.1-12.3-2.6-.7-5.5-.9-8-.4-12.2-4.1-24-11.9-36.3-10.7 3.4.8 9.2 0 12.8 2.1-7.4-1.4-12.6 1.2-20.5-1 1.6-.4 3.7 0 5.3-.4-13.7 1.2-11.1-15-14.6-23.1v2.3c1.7 4.6 1.6 12.4 3.6 17.7-2.6-3.9-2.3-11.7-3.6-17.4.1 4.3.3 10.8 1.8 15.8 1 3.3 3.3 6 6.9 7.1 7 2.2 11.7-1.3 20.2 2 3.2 1.3 6.9 3.6 10.6 5.6 3.7 2 8.1 3.6 10.6 5.6 2 1.6 3.1 3.7 4.9 5.1 5.5 4.4 12.9 7.5 20.2 11.3 5.7 3 11.3 6.2 17.2 9.4v-1.2zm-65.8-38.2c12.6 4.4 23.2 10 33.8 15.6-10.5-4.5-22-10.9-33.8-15.6zm28.6 11.8c.3-.8.3-1.3.2-1.8-.5-.2-1.4-.2-1.3-.7-3.2-.9-7.7-2.6-9-3.7 5 1.9 9.4 3.5 13.5 4.6.6 0-.1-.7.5-.6 3 1.7 5.4 2.1 9.2 3-3.2.8-7.4-.2-11.8-1.5.6 1 3 1 4.4 1.6-1 1.3-4-.8-5.7-.9z"/></g></svg>