<svg version="1.1" id="Слой_1" xmlns="http://www.w3.org/2000/svg" x="0" y="0" viewBox="0 0 566.9 467.7" xml:space="preserve"><style>.st0{fill-rule:evenodd;clip-rule:evenodd}.st0,.st1{fill:#ee7f00}</style><g id="Layer_1"><path class="st0" d="M193 58.6c.6-.1 1 .1 1 .7-.7.1-1.1 0-1-.7zm-13.4 47.5c1 2.5-3 3-2.2 5.3-1-.2-1.4 2.1-2.2 2.9-.4-2.4 2.3-5.8 3.6-8.2h.8zm117.3 19c.6 1.2.6 2.7-.2 3.6-5.9-2.9-5.3 6.3-9.1 7.7.6-4.8 3.3-7.4 5.3-10.8 1.1-.4 2.4-.6 4-.5zm-24.7 15.4c-1.5-.2-3-.3-3.8-1.2-3.1.2-6.3 1.5-8.9.2-1.7 1.5-5.6 1.3-8.6 1.9-1.7.4-3 1.2-4.8 1.9-1.7.6-3.6.5-5.3 1.2-1.5.6-2.6 2.2-4.3 1.9-2.2 8.7-1.2 22.6-2.2 33.4-1.8-.9-.9-3.3-1-4.8-.2-5.5 0-12.1 0-17.8 0-1.8-.6-3.6-.5-5.3.2-2.8 1.6-6.6 2.9-8.4 1.1-1.5 3.4-3.5 6.2-2.9.4-1.5 1.3-2.6 1.9-3.8 2.5 1.3 3-1.3 5.3-1 .7-.2.4-1.5 1-1.9 2.6.6 4.3-2.2 7-.7 0-.6.4-.7.5-1.2 1.7 0 2.5 2 3.8 1 1.5.6 1.7 1.7 3.8 1.2 1.5 1.2 3.4 2.9 5.5 2.6.5 1.3 2.2 2 1.5 3.7zm-82.1-1.2c4.4 3.1 11.8.1 15.8 2.6 1.2.1 2.9-.2 3.1 1h1.9c-.4 1.2.6 1 1.4 1v1c4.5 2.9 8.7 6 9.6 12.5-.6.1-.4.8-1.2.7-1.9-4.6-5-7.9-8.6-10.8-.8-.2-.5.6-1 .7-1.3 0-1.6-.9-2.6-1.2-.7.2-1.5.3-1.9.7-5.5-1.6-9.1 2.5-14.2 1.4-.9.4-.1-.8-.7-.7-.9 0-1.3.5-1.7 1-.2-.9-2.2-1-2.4 0-.3-.1-.2-.6-.2-1-.9.2-1.3.9-1.4 1.9-.5.1-.5-.3-.5-.7-.9 0-.9.9-1.4 1.2-.7-.3.1-1.2.2-1.4-.3-.2-1.4.8-2.2 1 .1-1.1 1.2-1.2 1-2.6-1-.1-.6 1.3-1.7 1.2 1.9-4.4 5.9-6.3 8.7-9.5zm-2.6 7.2c.1-.6 1.6-.8.5-1.2 0 .4-1.3.8-.5 1.2zm-17.5 7.2c-1.1-4.6-3.9-7.5-7-10.1-.4 1.9-.7 3.8-1.9 4.8-.5-2.3-1.3-6.4.5-8.2 3.6-.6 5.5 2.3 7.2 4.8 2.1 3.2 3.9 6 1.2 8.7z"/><path class="st0" d="M263.1 154.1c-1.2 3.2-6.7 4.5-10.8 3.1.7-2 3.5-.6 5-.7 2.5-.2 3.9-1.5 5.3-2.6.3 0 .4.1.5.2zm-58.3 7c-2.1 4.3-10.3 2.6-13 0-.2-.7.5-.5.5-1 2.4.9 5.1 2.9 8.4 2.4 1.8-.2 2.5-1.5 4.1-1.4zm20.1 12.2c1.3 1.7 2 6.2 1 8.6-1.2-1.8-2.4-6.4-1-8.6zm-39.8.3c-.4 1.2-.4 2.8-1.7 3.1-.6-1.3.3-3 1.7-3.1z"/><path class="st0" d="M246.5 188.2c-2.3 1.3-4.2.9-6 2.2-2.4 1.7-2.8 4.6-6.7 5.3-1.2.2-2.4-.1-4.1 0-1.6-.6-2.3-1.9-4.3-2.6-3.3-1.2-8.6-.2-10.1-2.9-2.4-4.4.9-10.6 3.4-13h3.1c.3.8.6 1.6.5 2.9-1.7.1-1.6-1.3-2.9-1.2-2.9.1-4.8 8.4-1.7 10.8 2.2 1.6 5.9.7 8.2 0 2.3 5.8 11.8 4.4 13.2-1.2 2.8.1 5.3-.1 7-1.2.6-5.4-1.5-10.8-5.5-10.8-1.8 0-3 1.9-3.8 1.7 4.4-10.2 14.8 3.1 9.7 10zm-61.9-8.9c.6-.1.9 0 1.2.2-.5.7-.6 1.8-1.7 1.9-.5-.5.5-1.2.5-2.1zm92.9 2.7c.7 1.5 1.5 4.5 0 5.5-.9-1.2-1.6-4.7 0-5.5zm-12.3 17.5c.1-9.8-11.8-6.9-14.9-13.4v-.7c1.4-.1 3.6 1.7 6.2 2.9 5.3 2.3 10.9 3.9 8.7 11.2zm9.9-9.4h.7c.1 1.2-.2 2-1.2 2.2-.5-.7.4-1.4.5-2.2zm-29.1 1.7c1.1.4-.4.6-.5 1.2-.6-.3.4-.9.5-1.2zm7 1c1 .4 1.5 1.2 2.4 1.7-.4 1.5-.1 2.6-1.4 3.4-1.1-.2.5-1.6-1-1 .3-.5 1-.8 1.2-1.4 0-1.3-1-1.6-1.2-2.7zm-8.4.7c.8.8 1.7 1.5 1.9 2.9-1.1-.5-1.5-1.7-1.9-2.9zm-53 2.2c-.6.7-.4 2.2-1.7 2.2-.1-1.4.5-3 1.7-2.2zm27.3.2h.7c-.2 1.1.3 1 1 .7-1.4 1.5-2.3 3.5-4.6 4.1.9-1.7 2.4-2.7 2.9-4.8zm19.5 0c1.1 1 1.9 2.3 2.6 3.6-.7.1-.6 1-1.4 1 .2-1.8-1-2.7-1.2-4.6zm18.4 0c.4.6-.4 1.7-1.4 1.7 0-1 .7-1.4 1.4-1.7zm-9.8.2c1.1.4 1.1 1.7 2.2 2.2-1.1.7-2.9-1-2.2-2.2zm-5.8.3c1.2.4 1.6 1.6 2.4 2.4-.6-.1-.5.4-1.2.2-.4-.8-.9-1.6-1.2-2.6zm9.2 0c.6.6.8.4 1.7.2.1.9-.2 1.4-1 1.4 0-.8-.7-.8-.7-1.6zm-13.7.7c1 0 0 .4 0 .7.3.9 1.3 1.1 1 2.6-.9-.5-1.8-2.6-1-3.3zm-8.2.5c-.7 1-.6 2.7-1.9 3.1 1.1-.5.2-3.1 1.9-3.1zm-13.7.2c.6.2-.6 3.5-1.9 2.6-.2-1.6 1.5-1.5 1.9-2.6zm17.8 0c.5.4.6 0 1.2 0-.3.3-.5 1.3.5 1 0 .2-.1.2-.2.2v.5c-.8-1.3-.3 1.2-1 1.4-1.1-1-.1 0-1.7 0 .2-1.2 1.2-1.6 1.2-3.1zm-11.5.7c.8.5-2.1 1.7-1.4 2.9h-1.2c.4-1.3 1.7-1.9 2.6-2.9zm2.1.3c.4.6-.4 2.2-1.2 2.4.3-1 .6-1.8 1.2-2.4zm2.2 0c.7.8-.6 1.9 0 2.6-.3-.2-.6-.3-1.2-.2.3-.9.7-1.7 1.2-2.4z"/><path class="st0" d="M255.9 198.8c1.3.7-.8 1.8-.7 2.9-1.3.4-1.8 1.6-2.9 2.2-3.2 6.5-5.6 13.7-11.3 17.8-.8-.3-.4-.5-1.4-.2-7.1 2.8-15.6 1.5-19.9-2.2-3.1-2.6-5.1-9.7-8.4-12.5-.9-.8-2.9-.8-4.6-1.7 0-2.5 3.4-2.3 5.3-2.2 2.1.1 4.2 1.2 6 1.4 4.6.6 9.9-.8 13.7 1 5.4-1.9 11.6-3 16.6-5.3 3 .2 4.7-.1 7.4-1.2h.2zm-10.1 4.8c.2 1.1.5 2.1 1.2 2.6 3.2-1.7 2.5-5.5-1.2-2.6zm-6 2.6c.3 1.2.9 2.2.7 3.8 2-.3 3-1.6 4.6-2.4-.3-1.8.7-1.7 0-3.6-2.2.4-3.1 1.9-5.3 2.2zm-7 2.2c.3 1.4.1 3.2 1 4.1 4 .7 7.6-3.2 4.8-5.5-2 .4-3.3 1.4-5.8 1.4zm-12.9 2.4c.3-.7.5-1.4.5-2.4-1.1-.8-3-.5-3.6-1.2.2 2 .9 3.5 3.1 3.6zm1.4.2c.5-.2 2.4 1 3.4.5.3-.8.4-1.8.5-2.9-1.1-.4-3-.1-4.1-.5-.3.8.2 2.4.2 2.9zm4.8 1c1.6.6 4.4.7 6 0v-3.4h-6.5c.5.9.1 2.5.5 3.4zm-6.5 1.7c.4 1.4 1.5 2.1 1.9 3.6 5.8.8 16.3 3.4 21.1-.2 2.6-2 2.9-4.5 4.6-7.2.3 0 .2-.3-.2-.2-5 6.1-18.3 7-27.4 4zm-25.9-12.8c-.5 1.7.6 3.7-1 4.6-.8-1.2-1.2-4.6 1-4.6zm76.8 1c.4.1.6.4 1 .5.1.9 0 1.6-.2 2.2-.9-.2-1.2-1.9-.8-2.7zm-2.9.2c.4.9 1 2.7.2 3.6-.9-.3-.9-3-.2-3.6zm-71.5 4.1c0 1.4-.4 2.3-.2 3.8-1.4-.2-.9-3.7.2-3.8zm69.1 1.2c.4.9 1 3.5-.7 4.1-.3-1.2-.3-3.1.7-4.1zm2.7.3c.2 1.2-.5 1.4-.7 2.2-.4-.1-.6-.4-1-.5.3-.9.3-2 1.7-1.7zm-69.9 1.4c.9.6 0 2.2 1 3.1-.1.8-.6 1.2-1 1.7-1.2-1.5-1.1-3.3 0-4.8zm-23.5 103c.4 2.2-2.4 2.7-2.6 5 1.2.5 3.3.2 4.6.7-.5 3.4-5.5 3.8-9.1 4.3-1.4-.6-3-1-4.3-1.7-1.2-.2-1.3.6-2.2.7-8.5-.8-18.6 0-25.7-2.2.9-1.9 3.4-3.7 5.8-3.8 1.3-.1 3.5.8 5.8 1 4.4.4 8.7.3 13.4.5 2.3.1 4.9 1 6.7-.5-.7-1.5-3.1-1.8-4.8-2.4-5.2-1.9-12.6-3-19.4-3.4-2.5-.1-5.8.4-7.2-1.7.9-2.6 5.2-4.8 7.9-2.6 12 .3 22.7 2.1 31.1 6.1zm46.8 20.8c1 1.8 4 1.6 5.8 2.6-1.5 3.5-7.6 4.6-11 2.2-1.5.7-2.9 1.4-5.3 1.2-1.6-1.8-3.4-4.2-2.9-6.5 1.3-5.3 14.4-7.8 13.4.5zm92.4 53.1c1.8 5.4-4.5 9-9.6 7.4-1.6-5.2 4.9-9.3 9.6-7.4z"/><path class="st0" d="M566.9 357.7v3.6c-19.2 2.2-38.9 6.8-60.5 9.4-15.1 1.8-31.3 2.8-47.3 4.6-5.2.6-10.9.8-15.1 2.2-1.9.6-4.4 3.2-7 2.4-1.2.4-.3-2.1-1.2-1.2-7.8.6-15.4 1.5-22.6 2.9-.1 5.9 1.2 10.5 1.7 15.8 7.3-.9 14.8-2.6 22.6-3.8 2.5-.4 5.4-.4 7.4-1.2 2.2-.8 3.7-3.5 6.5-2.9.9.3-.8 1.8.5 1.7 38.2-5.4 78.8-8.4 115-15.8v3.1c-36 7.7-76.3 11.1-115 16.1 1.1 5.1-.3 12.8 1.4 17.3 7.3-1 9.8 5.1 7.9 9.8-3.3 8.4-23 9.5-19.4-4.6.6-2.2 2.9-2.7 4.3-4.6-.5-5.5-.1-11.9-1.2-16.8-10.1 1.4-19.6 3.4-29.5 5 .6 10.9.5 22.3 1.2 33.1 1.5.1 1 1.4 1.4 2.2 11.7 1.1 21.5 3 31.4 5 9.5 1.9 19.1 4.5 27.4 8.9 11.8 6.3 22.7 13.1 33.4 21.4 2.8 2.2 7.1 7.4 10.1 7.9 3.7.7 8.9-.8 12.5-1.4 11.5-2.2 22.2-5.5 34.1-7v3.4c-15.2 1.9-28.3 5.9-43 8.4.2.8 1.8 2.3 2.9 3.1 14.8-.4 26.2-4.2 40.1-5.5v3.1c-12 2.5-25.2 3.7-37.2 6.2 6.2 7.7 11.6 19.6 15.1 30h-7.9c-3.6-11.2-9-20.6-15.6-28.8-.3-.5-1.2-.4-1.7-.7.2-.7.2-.7 0-1.4-10.9-9.6-22.3-19.5-35.3-27.1-13.1-7.7-27.1-15.1-45.4-16.8 18.7 7.8 35.2 16.4 49 29 3.3 3 6 6.9 8.9 10.6 8.6 11 17.1 22.7 23 35.3h-7.9c-3.9-6.8-8.1-13.3-12.7-19.7-4.5-6.2-8.9-12.9-13.9-18.7-4.2-4.9-10.7-9.7-16.6-13.9-6.2-4.4-12.4-8.5-19.4-11.3-7.1-2.8-13.8-6.7-21.4-9.1-7.8-2.5-15.6-5.9-24.2-6.5-11.8-.8-23.5.4-33.1 1.7-5.3.7-10.6 1.1-15.4 2.2-4.6 1-9 2.7-13.4 4.1-9.8 3.1-20.6 5.8-29 10.3-10.3 5.5-20.5 12-28.8 19.7-2.1 2-5.9 4.2-5.3 6-2.2 1.2-3.5 4-5.5 4.6-6 7.7-12.7 14.9-16.1 25.2-1.7 1.3-2 4.1-3.6 5.5-1.2-.2-3 .3-3.8-.2.3-.8.5-1.8.7-2.6-6.4-9.3-15-16.4-22.6-24.5-1.8 8.9-2.9 18.6-4.8 27.4-1.9-.2-4.5.3-6-.2 3.6-18.3 6.5-37.4 8.6-56.9 2.1-19.4 6-38.5 9.1-56.6-3.7.3-6.7-2.1-10.3-2.6-3.3 10.7-5.7 22.3-8.6 33.4 7.5 6.4.5 17.2-7.4 18.2-3.7.5-6.9-.8-7.4-4.1-1.3-7.4 2.2-14.6 9.1-15.1 3-11.1 5.7-22.5 8.6-33.6-13.5-4.1-26.7-8.5-41.5-11.3-3.2 12.3-6.3 24.8-8.2 38.4 7.3 1.5 1.9 6.5-1.4 8.4-3.7 2.2-11.4 5-13.2-.2-2.7-7.8 3.7-12.6 9.4-14.2 2.3-11.5 4.7-23 8.2-33.4-7.1-1.1-13.5-1.4-19.9-2.9-6.1-1.5-11.8-4-18.5-4.6-4-.3-8 .1-12.2-.2-8.2-.6-15.4-4.8-24.2-5.3-4.5-.2-9.1.2-14.2 0-3.3 19.1-7.4 37.9-12.5 56.9-2.5 9.3-2.8 19.6-4.8 29.8-2 10-4.3 19.9-5 29.8-.6 8.5-.9 18.5-2.9 26.4H46c-4.5-5.3-7.9-15.3-9.6-23.3-2.5-12-.6-27.1.5-38.6 1.5-15.2 4.7-25.8 9.1-37.7 5.9-15.6 10.7-30.8 17.8-44.4-17-10.6-22.3-32.9-21.8-61 .1-.8-1.1-.4-.7-1.4 1.4-15.3 1.6-33.4 7.2-44.2 1.6-3.1 3.8-6.7 6-8.9.9-.9 2.4-1.4 3.6-2.4 4.1-3.3 7.7-7.4 12.2-10.8 4.2-3.2 9.3-5.6 14.6-8.4 5.2-2.7 9.5-6.2 14.6-8.4 6.5-2.8 13.9-4.9 22.1-5.3 8.9-.4 15.4-2 23.5-2.9 5.8-.6 11.5-3 17.3-3.8.4-1.8 1-3.5 1.4-5.3.6-.7 1.6-.9 2.4-1.4 3.3-7.9 11.7-10.9 17.5-16.3-.6-1.5-1.1-3.3-2.4-4.1-.1-2.6-.6-4.8-1.2-7-1.4 2-3.2 3.7-4.6 5.8-.9.9-2.9.7-4.8.7-2.9-1.5-2.6-3.9-2.6-7.7-.1-4.8-2.2-10.4-4.1-15.1-1.2-3-3.5-5.6-4.8-8.4-1.9-4.1-3.1-8.4-4.1-13.2-1.1-5.4-1.6-10.9 3.4-11.8 6.5-1.2 10.1 3.1 12.2 7.2 1.7 3.2 3 4.9 2.6 7.7-3.1-1.7-3.8-5.8-5.5-8.9-1.9-1.2-4.5-2.2-7.4-1.7-1.7 2.2-1.6 6-1.2 9.4.7 6 3.5 11.6 6 17 1.2 2.6 2.1 5.7 3.1 8.6 1.4 4 2.7 7.2 2.6 12 3.8.3 4.2-3.9 6.7-4.1 2.4-5.1-2.1-9.3-5.5-11.5-.5-.9-.3 1.4-1 .5.3-2.9.6-6.3.7-8.2-1-2.3-3.1-3.6-3.8-6.2.5-.3.4-1.2 1.4-1 .7 1.3 2.1 1.9 2.4 3.6.6.1 1.2-1 1.7-.2-.5 2.5-.7 5.4-.5 7.9 1.9-.3 3 3.7 5 1.9 1 2.6 2.1 5.1 2.6 8.2.8.7.3-1.3 1.7-.7-2.1 3.4.2 4.6.7 8.4.7-.3 1-1.9 2.2-1 0 1.4-1.1 1.6-1.7 2.4.7 2.2 1.2 4.5 2.2 6.5.3-.8.8-2.5 1.7-1.9-.5 1.5-.6 3.3 0 4.6.3.7 1.2-1.2 1.4 0-.4 4.8.9 7 2.4 10.1.8 1.7 1.8 3.9 2.6 5 .4.6 1.2.7 1.7 1.2.2.2-.1.9 0 1.2s1.1.6 1.2.7c.9 1.4 1.4 3.1 2.9 3.8-.1-1.7-1.5-3.6.2-4.6.4.2.6.7 1.4.5-.3 1.8-1 4.3-.5 5.5 2 .6.4-4.2 2.6-4.1-.1 1.8-.7 2.9-1.4 4.1 1.4 1 .7 4.4 3.1 3.6 1.1-2.4-.3-6 0-9.1 1.5 1.7 3.5 4.1 3.6 6.5.1-3.8 1.6.9 1.4 2.4.2-.3.7-1.5 1-1-.1 2.1.2 4.5-.2 6.2 1 .2.6-1.5 1.4-.7.3 1 .3 2.3.2 3.6.2.6.7-.8 1.2 0 0 1.3.1 2.5.5 3.4.4-.3.3-1 1-1 1.3 2.1.8 6.1 2.2 8.2-.4-1.3-.8-3.1.7-3.6.7.4.2 2 .7 2.6.9.1.2-1.4 1.4-1 .1 1.1.9 1.5.7 2.9.9 0 .4-1.4 1.4-1.2-.2 1.1.4 1.4.5 2.2 1.1 0 .6-1.5 1.9-1.2.5.8-.5 2.8 1.2 2.9-.1-.5-.3-2.7 1.2-2.9.8 1.1 0 3 1.4 3.8.9.5.1-2.8 1.7-2.4.5.6-.3 3.3 1.4 3.8-.1-2-1.2-2.8.2-4.1 1-.3.6.8 1.2 1 .4-.3.2-1.3 1-1.2 1.4.8 1.6 3 1.7 4.6 1.2-1 .5-3.8 2.2-4.3.8 1.2-.6 2.4.5 3.1.4-.9.2-2.4 1.4-2.4.7.3 0 2.1 1 2.2.5-.9 0-2.9 1.7-2.6.5.5-.4 2.7 1.2 2.6 0-1.7-1.7-3.2.7-3.6.8.6.7.9 1.7 1-.3.8-.8 1.3-1 2.2 2.8-.4.7-4.4 3.4-4.8.1 1-1 3.8-.2 3.1.1-.6.7-.6.5.2 1.5-2.2 2.9-6.6 5-8.9.6.7.9 1.7 1.7 2.2 3.9-5.8 2.3-12.9 3.6-21.1.2-.5 1.1-.4 1-1.2-.4-.5-.2-1.6-.5-2.2 1.4-1.3 2.4-4.2 3.8-4.6.4 1.4-.8 1.2-.7 2.4 2.1 1.3.4 3.8 1.4 5.8 2.9-4.9 7.6-9.2 8.9-14.9-.1.2-.6 1.1-.7.5-.5-1.9-.2-4.1.7-5.3-.7-1-1.5-3.4.2-4.3 2.2 2.8-1.1 5.9.5 8.4 2.1-5.4 4.2-10.8 5.5-17 .2-.9-1.2-.1-.7-1.2 0-1.1 1.3-1 1.4-1.9-.5-1.6.6-3.5 1-6 .2-1.3-.1-2.7.2-3.8.2-.8 1-1.5 1.2-2.4 1.1-5.8-2.9-16.8 1.4-19.2.5 2.5.1 5.8.5 8.4 4-.6-.5-8.9 3.1-10.3 0 1.9-.1 5.5.2 7.9-.1.6 1.2-.7 1 .5-.1 2.8-2.7 3.3-4.3 4.6-.1 2.3.2 3 .2 5 1 1.4 2.3 2.5 2.2 5 .9.5 1.4 1.4 3.1 1.2-.2-14.9 8.8-25.2 9.6-38.4.2-3.1-.1-6.7-1.7-9.1-10.5-1.7-7.7 11.1-14.4 12.5.4 1.4 2.4 3.3.7 4.6-1-.4-.9-1.8-1.7-2.4.1 2.2 3.1 4.8 1 6.2-2.5-6.9-5.5-13.3-9.4-18.7-.3-.6-.9.5-1.2-.2-.4-3-3.8-3.9-5.3-6.2-1.3-2.1-1.5-5-2.2-7.4.1 1.3.5 0 1 0 1.3 0 2.7 1.3 3.4 1.4-1.8-2.3-8-4.7-5.5-8.9 5.3 1.7 8.2 6.4 11.5 10.8 1.1.3.6-.8 1.4-.7.8 1.5.8 3.7 2.6 4.1.3-2.4-1.3-5.1-2.9-6.5-.4-.7-.5.9-1.2.7-3.9-3.1-6.4-7.5-10.8-10.1 0-1.3.7-2 1-3.1 2.8.1 4.6 3.9 6.7 4.6-2.4-3.9-9.5-6.2-7.7-12.2 2.6-.1 4 2.2 6.2 1.7-.9-2.6-4.5-2.6-7-3.6.3-1-.5-2.2 0-2.6 1.8.7 2.9 3.3 5 2.9-.7-2.9-4-3.2-5.5-5.3.1-9.4-13.3-12.4-20.6-7.7 1.2.2 2.8.1 3.8.5.2 2-2.6 2-4.1 1.4-1.3 4.4-6.6-.2-8.9-.7-.3 1.2 1.8 1.8 1 3.1 1.5.2 2.8-1 3.8 0-.9 3.2-5.3 1.2-7.4 1.7-.2 1.1 2-.1 1.9 1-.4 1.9-3.2 1.4-5.5 1.4-1.2 1.7-3.9 1.9-4.8 3.8-1.8-.6-1.6 1-2.6 1.2-2.4.6-5.4-1.1-8.2-1.7.7-2.3 4-3.3 4.1-5.5-3.1.3-3.6 5.2-7.4 5.5-.4.9 1.6.6.7 1.2-1.2.8-1.1-1.2-.7-1.9-2.4 1-4.4 3.5-7.2 1.4.6-.7 1.5-1.1 1.9-1.9-1.3.1-1.5 1.4-2.9 1.4.2-2-4.4-.6-5-2.9 2.4-.3 5.1-.3 5.8-2.4-1.5-.5-2.4.6-3.8 1-3.3.8-7.3.3-10.6.7-2.5.3-5.8 2.7-7 4.1-1.2 1.6-1.6 3.9-1.7 7-1.5 2.1-3.9 3.5-4.6 6.5 2.2.1 2.6-3.6 4.8-4.3.9 7-4.2 9.6-5.3 15.4-.3 1.3 1.2.8 1.2 1.9-.8 1.2-1.9 2.1-1.9 4.1 1.8-2.4 2.8-5.5 4.8-7.7.5.2.8 1.1 1.4.5.3-1.3.8-3.4 1.9-3.1.4 1.1-1 1.7-.2 2.4.7-1.7 2-.4 2.2 1-4 1.6-5.2 6-8.4 8.4.1 2-2.2 2.7-1.7 4.3 3.3-.4 3.8-5.6 6.5-7.4-.4 3.4-2.4 7.2-4.1 9.8-.6.9-1.7 2-1.2 3.1 2.4-.3 2.5-2.8 3.8-4.1-.7-3.8 2.3-5.9 3.4-8.6-1.7-.6-.2-3.7 1-3.8.6 1.5-.7 2.2-1 3.6 1.4-.5 1.7-3.2 2.9-3.1.6 3.6-3.4 5.6-3.4 8.6.8-1.3 1.5-2.8 2.9-3.6.8.5-.6 1.2 0 1.4.8-.6.8-1.9 1.9-2.2 1 3.7-3.2 5.6-4.1 8.9 1.1-.3 1.5-2.5 2.9-1.2.2-.8.9-2 1.7-1.4-1.7 6-6.6 9.6-9.1 14.9-.8 1.7-.6 4-2.2 5.5-1.6-1.4-1.1-2.1-1.2-4.6-.2-.6-1.1.9-1.2-.2.3-1.9-.4-2.3-1.7-3.6-.1-2.1.1-3.9.2-5.8-1.3-.6-.9-1.9-.2-3.1-.4-.1-1.2.2-1-.5.6-2.6 2.5-5.2 2.4-7.7-.8 1.6-1.2 4.7-2.9 4.6.2-2.7 2.1-5.1 1.9-7.4-.7 1.1-.9 2.6-2.4 2.9-.5-2.1 1.7-4.8 1.7-6.5-.8.8-.9 2.3-2.4 2.4.1-2.7 1.2-4.4 1.9-6.5-.9 0-1 1.5-1.9.7.3-2.2 1.5-3.6 2.2-5.5-.6-.4-.8 1.7-2.2 1.4-1.1-2.3.6-4.8.7-7.4-.4-.8-1.4 1.3-1.7 0 .2-1.2 1.6-1.1 1.9-2.2-.2-.5-1.6 1.3-1.9 0-.1-1.9 1.9-.6 1.9-2.2.2-1.1-2 .1-1.9-1 .4-1.3 2.9-.5 2.2-2.9-.6-.7-1.1 2.1-1.9 1.2.1-2.3 2.4-2.4 2.6-4.6-.3-.6-1.3 1.4-1.9.5.4-1.7 2.6-1.6 2.9-3.4-.6-.1-1.4 1-1.9.2.2-1.5 2.2-1.3 2.9-2.4-.6-1-2.2.3-2.2-1 .3-2 2.3-.5 3.1-.7-.1-1.2-2.7-.9-1.7-2.4.9-.9 2 1 2.4-.5.5-1.5-1.5.4-1.4-1 .1-2.7 5.4-.2 6-2.4-.4-1-2.9 0-3.6-.7.2-1.7 1.7-2 2.6-2.9.9-.2 2.9 1.2 3.4-.2-.1-1.1-1.9-.5-2.4-1.2.5-.5 1.3-.8 2.4-.7.2-.9-1.2-.1-.7-1.2 1.2-.9 3 .2 4.6-.5.3-1.3-.9-1-1.4-1.4.4-1.2 2.1-1.1 3.4-1.4-.5-.2-1.7-.4-1-1.2 1.1-.7 1.8 1.9 2.9 1.2.8-1-.7-1.1-.5-2.2 1.1 0 .8-1.2 1.7-1.4.7-.3 1.1 1.4 1.2.2.4-.1 0-1.1.5-1.2 1.4.2 2 1.2 3.6 1.2.6-.5-.1-.9 0-1.7 1.5.2.9-1.8 1.9-2.2.7 1.1 2.4 2.4 4.1 1.7.3-1.7-2.4-.5-2.2-2.2.2-.6 1.9-1.3 1.7.2 1-.2 1.3-1.1 2.4-1.2.5.4.1.9 0 1.4.7.5.8-1.6 1.9-1.4.3 1.3 1.2 3 2.9 2.2-.2-1.5-2-1.5-1.9-3.4 1.4-1.3 1.8.2 3.6-.2.3.7.3 1.8 1.4 1.7 1.2-.5-.7-1.6 0-2.2.9-.8.7.7 1.7.5 3.3-2.9 7.1.1 10.3-2.6.6 1.6 1.9-.2 2.6 1.4.5-.6.7-1.4 1.9-1.2 1.3.9.7 3.6 2.6 3.8.6-1-.5-1.3-.2-2.6 1.4-.9 2.4-.9 4.3-.5.4 1 .1 2.6 1.7 2.4.9-.7-1-2 .2-2.4 2.4.7 5.1.5 7-.5.1 1.6-2.4 1.7-1.4 3.4 1.2.7 1.7-2.4 2.9-1.7.2.7-.7.5-.5 1.2 1.2.1 1.3-.9 2.6-.7-.2.8-1.8 2.1-.2 2.6.9-.3.8-1.4 2.2-1.7 1.9-.4 3.5 1.3 4.8 1.9-.5.5-1.8 1.2-1 2.4 1.4.2 1-1.4 2.2-1.4.4.6 2.2-.5 2.9.2-.5 1.1-2.4.8-2.4 2.4 1.7.7 2.2-1.6 4.6-1 .4 1.4-1.8 1-1.2 1.9 3.1-1.6 4.9 1.5 7.7 1.7-.9 1.6 2.1 1.5.5 3.1.9-.1 2.8-.6 3.6 0-.3 1.3-3.2 1.7-1.7 3.4 1.3-.4 1.5-1.8 3.1-1.9.7.6-.6 1.2 0 1.7 1-.2 1.1.5 1.9.5-.7 1.8 1 1.3 1.4 2.4 0 1.2.9 1.5 1.2 2.4.2.9-.6.9-.7 1.4 2.2.6 1.7 2.4 3.1 3.6-.2.6-.8.8-1.7.7.6 1.8 3.9 3.3 1.9 5.5.4 1.3 1.9 1.5 2.2 2.9-.2.6-1.1.5-1 1.4 2.3 1.7-.3 3.2 1.7 4.6.2 1-1.1.5-1 1.4.9 1.3 1.5 2.9 2.2 4.6 0 .9-1.1.7-1 1.7l1.2 2.4c-1.4 1.4.9 3.3-.7 5 1.3 3.8 2.4 7.4 1.2 11 2.4 1.7-1 9.9 2.2 9.8 1.1 0 2.1-3.9 2.9-5.5 1.2-2.3 2.5-3.8 3.8-4.8 2-1.5 5.7-2.4 7.4-2.2 5.2.8 4.5 5.4 4.1 10.1-.3 3.1-.4 5.9-1.2 9.1-2.5 9.5-8.7 17-9.4 27.6-.1 1.9.5 4.2.2 6.2-.6 3.9-6.6 5.6-9.1 1.7.3 2.3-.9 3.9-.2 5.8-1.6 5.7-3.3 11.4-4.8 17.3-1.9 2.7-2.4 6-4.1 8.9-.1.2-.8.3-1 .5-1.2 1.8-1.9 4.1-3.1 6-2.9 4.5-7.4 9.7-8.6 15.6-.3 1.2 0 2.5-.2 3.6-.7 3.2-2.9 5.7-4.6 8.4 6.2 7.4 11.5 15.7 19.7 21.1-1.3 2.7-4.4 3.6-7.2 4.8 5.7 2.7 11.2 7.1 16.6 11.3 2.4 1.9 4.8 4.2 7.2 6.7 2.2 2.3 5.3 4.6 6.7 7.2 1.9 3.5 3.2 7.8 3.6 12.5 9.1-7.9 18-18 34.8-19 .3-2.3 1.5-3.6 2.2-5.5-7.5-1.7-15.1-4.2-23.3-7-7.5-2.6-17.2-3.1-22.8-7.4-2.6-2-6-5.5-4.6-10.1 1.2-3.6 7-7.8 10.6-9.8 4.6-2.7 9.3-5.1 13.4-7.2 12.7-6.4 31.3-7.9 47.3-10.6 3.8-7.8 6.1-16.6 9.6-25 2.7-6.4 3.6-13.7 6-19.9.8-2 2.1-3.7 2.9-5.8.8-2 .4-4.3 1.2-6.2.5-1.1 2.1-1.9 1.7-3.4-5.5-7 6.4-13.8 13.2-12.2 2.4 7.5-3.5 12.4-8.6 14.6-.3 5.5-3.7 8.6-4.8 13-1 4-1.7 7.8-2.9 11.5-2.3 7.2-5.3 14.3-7.9 21.4-1.3 3.6-3.4 7.1-3.4 10.8 8.5-1.8 19.2-2.7 28.3-3.1.5-5.3.4-11.2.7-16.6 1.6-1.6 3.2-3.2 6.5-3.1.4 8.5-1.1 16.3-.5 24.2 7.9-4.1 22.3-1.7 32.2-2.2 8.6-.4 17.6.4 25.2 1.2 6.3-7 10.8-17.1 17.3-24.5 2-2.3 5.7-5.4 6.5-7.7.3-1-.1-2.2.2-3.1 1.2-3.5 6.7-6.3 11.3-6.2 3.5 5.6-2.6 12-8.6 11.3-8.1 9.3-14.2 20.7-21.8 30.5 10.6 1.4 22 1.4 32.2 3.1 10.4 1.8 21.2 3.4 27.8 7.4 1.7 1 5.2 3.7 5.5 5 .5 1.9 0 5.8-.5 7.7-1.8 6.7-6.9 11.3-13.7 14.6-3.1 1.5-5.9 3.8-9.1 5-3.5 1.3-7.3 2-11 3.1-18.8 5.4-40 9.6-64.1 9.4-8.1 10.7-15.1 22.5-23.8 32.6 1.1 21.4.3 44.8 3.8 63.8 8.1-1.3 17.2-2.1 25.9-3.1 3.5-.4 6.9-2.1 10.3-2.2.5 0 1.1.4 1.7.5 1.9.1 4.5-.9 7-1.2 17.1-2.3 35.6-3.2 52.3-5 19.7-2.2 39.6-6.7 57.4-9.1zM220.1 73.5v.7c1.2.8 4.4 1.9 6 .7-1.2-1-4.4-1.4-6-1.4zm-9.8 3.6c-2.2-.6-3.2-2.4-4.8-3.6-.9 2.4 3.5 5.7 4.8 3.6zm1.4-2.4c.8 1.1 2.5-.1 4.1.2 1.1.4 1 2 2.4 2.2 1.3-3-4.7-4.7-6.5-2.4zm19.2.2c.4 1.4 1.9 1.6 2.9 2.4.1-.3.3-.5.5-.7-.5-1.1-1.9-2.3-3.4-1.7zm-7.4 2.7c3.2-.7 4.8 3 7 3.4.1-2.2-5.5-6.7-7-3.4zm-11.8 4.1c2.3-.9 5.3.9 7.2 1-.2-2.2-6.5-4-7.2-1zm10.8-1c.2-2.4-5.2-2.6-5.8-.7.8.8 4.7 0 5.8.7zm-15.3 0c-1.2-.8-2.8-1.2-4.6-1.4-.2 1.9 3.7 2.9 4.6 1.4zm23.7-1.2c.1 1.2 1.3 1.3 2.4 1.4-.2-.9-1.7-1.7-2.4-1.4zm-3.1 3.1c0 .7.8.6 1.4.7-.1-.6-.9-1.1-1.4-.7zm-4.6 1.5c-.4-.1-.9-1.3-1.4-.5.4.1 1.1 1.1 1.4.5zm1.2 1.2c.5.5.7-.1 1.4 0-.1-.6-.2-1.2-1-1.2.3.7-.5.4-.4 1.2zm-14.6-1c-1.6 2.8-6.9.1-8.4 2.2 2.7.9 8.2 1.5 9.1-1.9-.3-.1-.3-.4-.7-.3zm58.8 12.5c-.2-1.8-2.2-3.1-3.1-3.4 1.1 1 2 2.4 3.1 3.4zm1 .7c.7 1.1 2 1.6 2.9 2.6 1.4 1.6 1.9 4.2 4.1 5 0-3.8-3.6-6.2-5.8-8.6h-.7c-.2.4-.4.7-.5 1zm-96.8 4.8c.4-.9 1.2-1.5 1.2-2.9-.8.4-1.3 2.4-1.2 2.9zm98.9 11c-.4 0-.7.1-1 .2 3.4 2 2.8 6.7 6.7 8.2-.3-3.4-3.9-5.6-5.7-8.4zm-92.4 95.1c-.4-1.9 0-3.8-1.4-5.3 0-.1 0-.3-.2-.2-3.8 2.1-4.9 6.4-7.4 9.8-1.7 2.3-3.5 4.3-4.8 6.7-.3 1.1.4 1.2.5 1.9-2.5 1.7-2.5 3.7-2.9 7.2-.6 5.3-3.6 10.5-6 14.9-2.6 4.9-4 9.9-6.7 14.4 8.2-2.5 16.2-5.3 26.4-5.8 2.8-3.9 6.2-7.2 7.9-12.2 1-1.2 2.7-1.6 3.8-2.6-3-9-7.2-18.9-9.2-28.8zm10.8 9.1c3 14.4 8.9 27.3 14.6 37.7 4.4 1.2 8 3.2 11.5 5.3 1.9-1.4 5.8-2.8 8.9-1.4.7.9.5 2.7.5 4.3 3.5-.6 6.6-1.7 10.1-2.4 1.2-3.9 2.9-7.3 4.3-11-3.6-.1-7.2.6-10.6.2-5.9-.7-13.4-3.4-15.6-7.2-2.1-3.6-3.3-8.6-6.2-12-.4-.8-1.3.3-1.7-.7-2.8-6.8-9.5-9.7-12.2-16.6-.6-.5-1.7-.6-2.2-1.2-.2-1.6-1.2-2.4-1.7-3.6-1.5 2.4-.4 5.3.3 8.6zM54.8 298.1c-.1 0-.3 0-.2.2-.6 3.3-2.2 6.5-2.9 10.1-.8 4.1-1 9.6-1.2 14.6-.4 10 .1 17.3 2.4 24.2 4.2 12.9 11.4 23.3 23.3 27.6 3.6-4.3 1.8-13.5 4.3-18.2 1.1-2.1 5.6-4.3 9.1-4.3 1.3 0 3 .6 4.6.7 5.2.5 10.1 1.1 14.6 1.9 5.9 1.1 10.7 3.9 15.8 6 5.8 2.4 11.9 2.3 17.8 4.1 6 1.8 11.9 3.4 18 3.8-2.2-4.6-6.1-8.1-9.1-12.2-7.8-10.7-18.4-18.3-27.1-27.6-1.9-2-3.8-3.3-6-5-4.1-3.3-7.5-7.8-11.8-11 1.3-1.4 3.4-3.6 5.8-3.4 1.7.2 1.8 1.8 3.6 2.2.7-4 1.7-7.7 2.4-11.8 1.9-1.6 4.4-3.7 7.7-3.1-.3 1.1-1.3 1.9-1.7 3.1-1.6 5-2.2 11-3.1 16.8 3.9 3.8 8.5 7 12.2 11 7.6 8.3 16.3 14.3 23 23.5 4.4 6.1 10.3 11.1 13.2 18.2 3.6.3 6.7 1.1 9.8 1.9.5-1.3.4-1.5 1.4-1.9 1.5-6.3 4.7-10.5 7-15.8 4.9-11.7 11.8-21.4 16.1-33.4-2.8-1.3-1.9-4.3-2.6-7.4-1.3-5.9-6.5-11.5-9.1-16.6-1.1-2.1-1.4-4.4-2.4-6.2-1.3-2.5-3.4-5.4-5.3-8.2-1.8-2.7-3.8-5.7-6-7.4-3.9-3.2-10.2-5.1-14.9-7 1.7-3.6 5.4-6.5 7.9-9.1.9-.9 2-1.9 1.9-2.9-5.6 1.1-11 1.5-16.1 2.9s-9.9 3.9-14.6 3.6c3.8-5.4 5.6-12.8 8.9-18.5.8-1.3 2.1-2.4 2.9-3.8 3.1-5.5 4.8-11.8 7-18.2-9.8 2.4-19.3 3.5-29.5 5.5-5.9 1.2-11.7 1.4-18.5 1.9-9.4.7-16.6 5.1-22.8 8.9-2.2 1.4-4.7 2.4-7 3.6-7.2 3.8-12.9 8.1-18.5 13.2-1.9 1.7-4.2 3.1-5.8 4.8-.9.9-1.5 2.5-2.4 3.8-1 1.4-2.5 2.9-2.9 4.1-3.1 10.1-5.2 22.6-6 36 2.3-.5 4.8-4.2 6.8-5.2zM396 225.9c-.3.3-1.1.1-1.4.5-13.9-.7-28.4 2.9-40.1 4.6-4.5.6-9 1-13.4 1.7-4.2.6-8.3 2-12.5 2.6-7.9 1.1-13.5 4-19 7-2.4 1.3-5.3 2.2-7.4 3.6-2.2 1.5-5.9 4.5-5.8 7.9.2 3 4.1 6.4 6.5 7.7 5.8 3 13.4 3.7 20.6 6.2 3.4 1.2 6.7 2.4 10.1 3.4 4.8 1.3 9.1 2.6 13.7 2.9 3.3 1.8 8.2 1.3 13.2 1.9 3.1.4 6.5.9 9.8 1.2 6.9.6 14.3.1 21.8.5 14.3.6 29.4 1 43.2 0 5.5-.4 12.6 0 18.5-.5 4.7-.4 9.6-1.6 14.4-2.2 10.4-1.2 18.9-2.8 27.6-5.5 4.5-1.4 9.2-2 13-3.6 1.5-.6 3.3-2 5.3-3.1s4.4-1.8 5.5-2.9c2.6-2.4 6.2-9.9 4.8-14.6-.5-1.6-3.3-3.8-5-4.8-2.2-1.3-5.6-2.8-8.9-3.6-10.1-2.6-21-4.2-32.6-5-7.8-.6-15.2-1.6-22.6-1.9-8.1-.4-15.9-1.7-24-1.2-2 .1-4 .6-6 .5-1.6-.1-3.3-.8-5-1-4-.4-8 .6-12 .5 8.4 4.2 19.1 6 20.4 17.3-5.1 6.9-12.7 11.2-23.8 12-5 .4-8.2-1.3-12.5-1.9-5.2-.7-9.8-1.8-14.4-2.9 1.7-10.3 7.2-17.6 14.4-22.6 1.7-1.2 5.2-2 4.3-4.6 0-.5-.2 0-.7-.1zm7.2 3.1v1.4c1.3-.7 2.7-1.1 4.1-1.7-1.3.2-2.5.5-4.1.3zm-18.4 20.4c4.9.6 8 1.7 13 2.4 3.5.5 6.9 1.7 9.8 1.9 5.3.4 13.3-1.9 13.9-5.8.7-4.4-3.9-8.2-6.7-9.8-3.9-2.3-8-3.1-11.5-5-1.3 1.7-3.9 3.4-6.5 3.1-.3-1.5.6-4.3-.5-5h-.5c-5.8 4-9.3 10.2-11 18.2zm-213.9 14.7c7.2 3 13.1 5.3 17.3 10.8 3 3.9 6.2 8.4 8.2 12.7.7 1.6 1 3.5 1.9 5.3 3.2 6.3 8.8 11.7 10.1 19.2 1-4.1 4.8-7.1 5.5-11.5.3-1.6-.3-3.5.7-5-3.2-8-6.3-16-9.8-23.5-5.9.6-8.6 4.3-14.4 5-1.1-6.3-1.2-14.2-2.4-20.2-.4-1.9-1.8-3.8 0-5.3 1.5 0 4.5-.2 6.7.2-1.8-3.5-3.5-7.3-5.3-10.8-5.1 8.8-12.2 15.5-18.5 23.1zm74.7-5.6c2.2-.2 4.2-1.9 6.2-1.4-.8 3.9-1.1 8.3-1.7 12.5 6.2-1.9 11.4-5 17.8-6.7-5.1-5.3-10.6-12.3-16.1-18-4.7 1.8-4.7 9.5-6.2 13.6zm-33.9 10.8c3 6.8 6 13.7 8.6 20.9 3.4-4.5 4.5-11.1 7.2-16.3-1.3-.5-2.2-1.3-3.4-1.9-1.5 4.5-6.3.5-8.2-1-.2-1 .3-2.6-.2-3.1-1.1.7-2.6 1-4 1.4zm82.3 28.8c-.6-1.4-.7-2.9-1.2-3.8-1.3-2.3-4.7-5-7-7.4-2.5-2.6-5-4.8-7.7-6.7-5-3.6-11.6-9.8-18-11.3-.4.2-.8.4-.7 1-.4-.2-.3-1-1.2-.7-2 1.5-5.5 1.4-6.7 3.6 3 5 8.6 7.4 8.2 15.8-1.6 1.9-3.9 1.7-6 2.4-3.8 1.3-7.5 4-11.3 5.8-4 1.9-7.6 4.1-11 6.2-3.7 2.3-7.2 4.4-10.3 7-4 3.3-7.4 7.7-11.5 10.6-1.8 4.6-3.9 8.3-6 12.5-1.7 3.2-3.5 6.3-5 9.6-1.6 3.3-3 6.7-4.6 10.1-2.1 4.8-5.8 8.7-6.5 14.6 11.3-8.1 23.9-14.7 36.7-21.8 6-3.3 12.8-6.4 18.7-10.6 6.8-4.8 13.2-9.8 21.1-12 .7.7 1.5 1.8 2.4 2.9.7.9 1.8 2.6 2.4 2.2.9-5.1.9-11.1 1-17 2-2 4.9-4.3 8.4-4.1-1.1 3.6-1 10.4-1.2 15.6 3.8-1.3 7.5-4.8 12.2-6 2.1-2.5 4.8-4.5 7.4-6.5.2-4.9-1.3-9-2.6-12zm-78.2 8.2c-.3 3.1-2.1 4.8-3.4 7 .8.2 1.4-.8 1.9-1.2 11.1-9.8 25.7-16.7 39.1-23.8-1.5-2.9-3.4-6.6-5.8-7.9.4 4.1-3.5 7.3-5 2.9-3.2-1.9-5.7-4.4-9.1-6 0-.1 0-.3-.2-.2-4.9 10.6-11.4 19.7-17.5 29.2zm134.4-26.9c-.1 3.3-1.7 5.2-3.4 7 3.8 1.1 6 2.3 9.6 3.8 2.4 1 5 1.7 7.2 2.9 4 2.1 4.8 7.9 2.4 12-2.8 4.7-11.2 11.1-16.6 7.9-.9.8-2 1.4-3.4 1.7.5.9 1.4 3.6 1 6.2-1.5 2.6-4.4 3.8-7.2 5 3.7 10-6.9 13.3-13 16.6-.7 4-4.3 10.1-9.1 9.4-5.5-.9-.4-8.7.7-11.5 1.3-3.4 2.5-5.6 3.4-8.9-8 1.9-14.8 5-20.9 8.9 1.4 1.3 2.6 2.8 3.4 4.8-3.1 3.8-8.1 5.7-10.8 9.8.1 1.2 1.1 1.4 1.7 2.2-2.4 3.2-5.8 6.7-8.4 9.6-.8.9-2.1 2.1-1.9 3.1 3.4 1.4 4.6-2.1 6.7-3.6 1.7-1.2 4.1-1.9 6.2-3.1 6-3.4 12.1-7.1 19.4-8.6 1.8 1.7 2.2 4.8 3.6 7 9.2-6.9 21.2-16.2 32.6-22.1 4-2 8.8-4.6 13.2-5 6.9-.7 11.1 2 16.3 3.4 5.1-5.5 9.6-13.5 14.6-19.9 1.6-2.1 4.4-5 4.8-7 .8-3.4 0-8.5 0-13 0-6.1.2-13.1-.5-15.6-17.1-1-36-.3-51.6-3zm59 2.9c.2 6.9-.3 14.4.2 20.9 4.4-6.9 11.3-12.9 16.3-19 .6-.7 1.6-1.7 1.4-2.6-5.8.3-12 .3-17.9.7zm-51.8 14.6c-2.1-1.1-4.7-1.9-7-2.9-4.1-1.7-7.5-2.9-11.8-4.3-2.7-.9-3.7-2-6.7-1.7-6.6.8-10.5 3.8-14.2 6.7-5.1 4-10.2 9-14.2 13.2-4.2 4.5-9.9 6.9-13 11.5 2.2 7.1 5.3 13.5 9.6 18.5 6.8-4 15.8-8.7 24.7-10.6 1.4-.3 4-.8 5 .7-.3 3.5-3.2 7-1.2 10.6 1.3-.7 3.5-1.1 4.6-2.4.9-1 2.6-5.1 2.2-7-.3-1.1-4.8-5.5-5.8-6-2.3-1.1-5.6-.7-7.7-.7 1.2-4.4 10.8-4.9 13-1 1.7.2 3.2.7 5.3.5.1-6.4-6.3-6.7-10.6-8.9-1.5-.8-2.6-1.9-4.1-2.4-1.3-.3-2.4.7-3.4 0 1.6-2.4 4.6-4.4 7.4-4.3 2.2.1 4.1 2 6.7 3.1.8.3 1.8.2 2.4.5 1.6.8 2.8 2.9 4.8 2.4 3.3-4.3-.1-8.7-3.8-10.6-2.1-1.1-8.8-3.3-10.8-3.4-1.4 0-2.7 1.4-3.8.5 1.5-2.9 5.5-5.2 9.8-4.6 1.3.2 3.4 1.1 5.3 1.7 7.7 2.3 12.8 5.5 11.5 14.9 8.5 1.9 12.3-10.7 5.8-14zm33.1 41.3c.5.3 3.5-1.9 5.3-1.2 2.4 5.4-1.7 10.1-5 12 2.1 2.9 5.6 4.3 5 9.8-3.3 4.4-8.1 7.2-15.4 7.7-1.2 3.2-3.9 4.9-7 6.2-2.7 3.4-6.7 7-11.8 7-2.2 0-3.7-1.9-5.8-2.4-2-.5-3.6.1-5-1-6.7 2.5-15.3 3.1-20.2 7.4 1 3.4 2.9 5.7 3.8 9.1-4.2 4.5-11.7 4.5-17.8 6.5-6.2 2-11.9 4.8-17.3 7-.4 4.1 4.3 8.1 3.6 11.8-.5 2.5-4.6 3.5-7.2 3.8-11.9 7-29.3 8.4-40.8 15.8-.9 7.1-1.7 14.3-3.4 20.6 0 .7 1.5-.2 1.4.5.1 1.7-1.7 1.5-1.7 3.1 4.2 1.5 7.5 3.9 11 6 .3 1-.8 1.1-.2 1.7 5.7 2.7 9.6 7.2 14.2 11 9.5-9.4 21.7-16.2 33.4-23.5.6-1.7 1.8-2.4 3.1-3.1 3.7-2 8.5-3.3 13.2-4.8 13-4.2 28.2-9.8 42.5-12-.9-2.8-.3-6.7-.5-10.1-.3-6.4-2.1-12.4-2.9-18.5-.8-6.5-.4-13-2.4-19.2-1.2-.2-2.4 1.1-3.1 0 1.9-3.1 5.8-4 9.6-4.6 11.6-1.7 25.2-4.5 36.7-6.2-2.9-16.9-3.5-36.1-3.1-56.4-4.5 4.8-8.2 10.5-12.2 16zm-110.6-13.9c-1.7 2.5-4.7 3.6-6 6.5 6.9 6 11.9 14 17.3 21.6 2.4-1.2 3.8-3.4 6.2-4.6-4.5-7.7-10.3-14-12.7-23.8-.2-.5-1.5 0-1.2-1 0-.1 0-.3-.2-.2-.5 1.2-1.9 1.4-3.4 1.5zm-7.7 17.5c-6.2-2.7-9.7-8.1-13.9-12.7-2.6 2.8-5.9 4.2-9.1 6.7-2.8 2.1-5.6 4-8.6 5.8-3 1.7-5.7 4.1-8.6 5.8-3.1 1.8-6.5 3.1-9.6 4.8-6.3 3.4-12.2 7.2-18.5 10.3-6.5 3.3-11.6 8.4-18 11 2.5-.1 2.9.1 4.6 1.4 5.1 0 9 2.9 14.6 3.1 1.6 3 5.8 2.6 10.6 3.1s8.9.9 13.4 1.2c0 .4-.6.2-.5.7 5.2 1.3 11 2.1 15.8 3.8-1.1 7.8-3.6 15.5-4.1 23 6.1-6 12.5-12.2 18.2-18.5 2-2.2 4.7-3.9 6.2-6.2 1.8-2.7 2.7-5.5 5.8-6.7 3.6-8.5 10.4-13.8 15.4-20.9-3.7-5.5-7.6-10.8-11.5-16.1-.8.2-1.2.6-2.2.4zm107 .7c-6.2-1.4-11.4-5-18.2-3.8-3 .5-6.8 3.2-10.1 5-10.8 6.2-20.3 13.1-28.8 20.9 2.7 5.4 4.6 11.5 7.4 16.8 5.4-2.8 10.6-5.7 17.8-6.7-4.2-3.5.4-10.6 6-10.3 2.1-3.3 5-5.7 9.8-6.2-.3-4.3 4.3-4.8 4.8-7.2-2.5-1.6-6.5-1.9-7-5.5 2.7 0 6 .1 8.9 1 1.4.4 2.3 1.3 3.6 1.4 4.3.6 8.2-.3 12.2.5 1.1-.4 1.7-1.1 2.9-1 .7-1.7 3-3.7 1.2-5.8-3.3.7-6.6 1.8-10.5.9zm-6.9 11.1c-1 .3-1.2 0-2.4 0 .3 3.8 4.8 4.2 7.9 5 3.6 1 7.8 1.2 11.5 1.7-.6-7.3-10.8-12.1-17-6.7zm-167.8 29.3c-5.8-.9-11.4-1.8-17-3.6-2.6-.8-5.5-1.6-8.4-1.9-4.4-.5-8.2-1.8-12-1-.9-.8-1.2-1.3-2.2-1.7-2.8-1.1-7-1.2-10.3-1.7-7.6-1.1-13.4-2.7-19.7-4.3-3.4-.9-6.8-1.1-10.1-1.9-6-1.5-11.4-4.7-17.5-6.5-6.6-2-13.2-2.3-20.6-3.4-1.6 4.5-1.8 10.6-3.1 15.4 9.1.5 16.9-.7 25 1 7.3 1.5 13.1 4.4 22.1 4.6 8.5.2 15.5 1.4 23 3.6 7.4 2.1 17.5 3.9 25.2 3.6.5.7.9.7 1.7 1 3.1 1 6.8 1.3 10.1 2.2 10 2.5 19.6 4.9 28.6 8.2 2.4-1 3.4-3.3 7-3.1.3 1.3-1.1 2.7-.7 4.8 3.8.5 6.9 1.6 10.1 2.6.8-3.4 1.7-6.6 2.4-10.1-11.3-1.9-22.1-6-33.6-7.8zm80.2-10.6c2.7 12.5 8.8 21.6 14.2 31.4 9.3-3.4 17.9-7.6 28.1-10.1-5.5-11.2-9.8-23.7-15.6-34.6-9.6 3.8-17.1 9.6-26.7 13.3zM366 361c-1.5.2-3.6 2.5-6 1.2v1.7c1.2 1.9 5.6.6 6 3.4 1.9.2 2.7 1.7 4.3 2.2 0 .3-.4.2-.5.5 2.5-.2 6.4-1.2 5-4.6-.4-.9-1.8-1.3-2.6-2.2.2-.1.5 0 .5-.2-2.8-.4-4.2-2.3-6.7-2zm-13.6 8.4c2.4 2.9 6.8 3.9 11 5 .5 1 2.9 1.4 3.6.2-.2-1-.6-1.8-.5-3.1-2.9-2.8-10.2-3.2-14.1-2.1zm-81.9 17.8c-1.9 2.1-7.4 6.2-7.9 8.4-.4 1.9.3 4.7.2 6.5-.3 7.5-2 15.1-3.6 22.8-2.5 1.6-2.8 5.3-3.4 8.9 3.6-.9 6.6-2.9 9.6-4.1 10.1-3.8 22.5-4.7 30.5-10.8-2.5-7.6-4.7-14.2-8.6-20.4-3.9-6.1-6.3-13.1-8.6-20.6 0-.1 0-.3-.2-.2-2.5 2.7-4.7 5.8-8 9.5zm-221 37.9c-3 8.1-4.7 16.8-5.8 26.4-1.6 15.2-4.3 31.7-.2 45.1.4 1.4 1.4 2.8 1.9 4.3 1.4 4 2.5 8.7 4.6 12 .7 1 1.8 2.7 2.4 2.4 1.2-12.5 1.3-24.1 3.6-35.3 1.1-5.4 2.4-10.8 3.4-16.1 1.1-5.7 1.6-11.4 2.4-17.3 1.4-10.8 5.2-20.9 7.4-31.4 2.3-10.8 4.2-21.6 6.5-32.6-2.4-1.6-5-3.2-7.7-4.6-7 13.6-12.2 30-18.5 47.1zm320.6-37c1.2 5 1 11.5 1.9 16.8 10.7-3.7 24.2-4.6 36.2-7-1.5-4.5-1-11-2.2-15.8-11.5 2.4-24.2 3.7-35.9 6zm28.1 14.9c-.5 4.6 1.7 8.7.5 12.5 3.7 2.3 7.2 6.7 5.5 11.5-.9 2.7-5.3 4.9-8.2 5-4.4.2-10.2-2.5-10.8-6.7-.4-2.6 1.4-3.5.5-5.5 1.7-2.1 3.8-3.8 6.7-4.6-.1-2.3-1.3-6-1-8.6.1-1.1 1.1-2.2.7-2.6-7 .9-13.8 2-19.9 3.8 1.1 5.3 2.4 11.5 2.6 18 .2 4-.4 7.9 1 10.3 10.3-.2 22.7-.3 34.1-.2-.8-9.3-.4-20.8-1-30.2-.1-1.2.1-3.2-1.2-3.8-3 .4-6.2.8-9.5 1.1zm-159.1 12c-.5 5.3-1.9 9.8-2.4 15.1-.6.6-1.5 1.2-1.9 2.2-.9 1.9-2.6 8.8-2.2 11 .2 1 1.5 1.8 1.7 2.9.3 2.2-1 6.2-1.4 9.1-1.4 9.7-1.7 20-3.4 28.6.1.6 1.5 0 1.7.5 6.7 9 15.7 15.9 22.8 24.5 3.2-6.7 8.1-11.9 12.7-17.5.3-.3 4.6-5.3 4.6-5.5 0-.8-4.2-4.1-5.3-5-5.5-5.2-12.1-9-18.7-12.2-.2-.6-.4-1.2-1-1.4-3.2-1.6-7.1-2.5-9.1-5.3 1.9-2.3 4.8-3.5 8.2-4.3 1.5-14.5 4.7-28.7 7.2-41.8.4-2.2.2-4.7.7-6.5.3-1 1.7-1.8 1.9-2.9.4-1.6-.1-3-.2-4.3-5 4.6-10.2 8.9-15.9 12.8zm209.3 2.7c-.7 3.3 3.2 5.8 6.5 6 3-5.7-5.5-10.7-6.5-6zm-50.7 9.6c-.2-4.3-2.7-6.3-5.5-7.9-1.1 4.7 2 7 5.5 7.9zm-237.1 2.4c.7-.4 2-.3 2.2-1.2-.6 0-1.4.1-1.7-.2-.3.2-.2 1.1-.5 1.4zm5.5 5.2c-.3-2.2-3.1-1.8-5.3-2.2-.3 2.6 4 4.5 5.3 2.2zm42 9.6c-1.3 2.7.1 6.4 3.4 6 1-1.3.7-4 .7-6.2-1.4.1-2.9 1.4-4.1.2z"/><path class="st0" d="M202.4 205.3c-.6-.2-.8-.8-1.2-1.2-.3-5.4 3.9-7.8 7.4-10.6 1.4-1.1 1.9-2.7 3.6-3.4 0 1.7-1.1 2.3-1.7 3.4.6 0 .7-.4 1.2-.5-1.6 2.8-7.9 5.2-9.4 9.8.1.9.1 1.7.1 2.5zm46.3-10.1c.2-.9-.4-1-.2-1.9.8.6 1.2 1.7 1.7 2.6-.4.6-.3-1.3-1.5-.7zm-33.6-.5c.2 2.7-3.5 3.6-4.6 5.8.3-2.3 3.6-3.5 4.6-5.8zm27.6.5c.8.3.2-.8 1-.5.2 1.1 1.2 1.5 1.4 2.6-.8-.4-1.1-1.3-1.7-1.9-.4.2 0 .4 0 .7-.1.5-.7-.5-.7-.9zm-32.7 2.6c.5 0 .1.9.2 1.2-.4 0-.8.2-1 .5-.3-.2.8-1.1.8-1.7zm20.9 0c-.2 1.1-.8 2.4 0 3.1-.8 0-1.5-.1-1.9-.5-.7.3-1.1 1.7-2.2 1 2.6 0 1.9-3.3 4.1-3.6zm35.3-55.4c0 1.2-.7 1.7-1.7 1.9.6.4 2.2.3 3.1.5.2 1.1-.5 1.4-1 1.9.8.8 1.8.1 2.9.5-.1.7-.6 1-.7 1.7-1 0-1.9.4-3.4 0-4.5 2.9-10.7 6.2-18 4.8v-1.4c3-.2 5.9.8 8.6.2 3.1-.6 4.8-3.8 7.9-3.8-.8-2.2-3.4-2.7-5.3-3.8.9 6.7-11 10.1-10.3 1.2-2.8 1.3-4.5 3.6-7.4 4.8.5-2 2.5-3.3 4.6-4.8 4-2.9 10.6-5.1 16.6-1.7 1.1-1 1.7-2.4 4.1-2zm-14.4 4.1c.6 0 .7.4 1.4.2.3-.6.5-.7.2-1.4-.7-.6-1.9-.1-1.6 1.2zm-36.7 8.1c-.3.1-.6.4-.7.7-2.8-1.6-5.3-3.5-8.6-4.6.9 7.5-8.9 9.1-10.1 1.7-1.6.6-2.7 1.6-4.3 2.2 3.3 2.3 6.8 4.4 11 3.8 2.9-.4 4.5-2.4 7.9-2.6.4 1.5-.7 1.6-1.9 1.4-4.4 3.7-13.8 2.5-17.8-.7-1.4 0-2.4 1.5-3.8.7.2-1.4.9-1.9 1.9-1.9-.7-.8-2.1.6-2.6 0 .1-2.3 2.7-2 3.1-3.8.9-.1 1.6 0 2.2.2.5-.7.6-1.8 1.4-2.2 1.2 0 2.5.6 1.9 1.7 4.9-3.4 10.8-3.1 15.6-.7 1.9 1 4.5 2.1 4.8 4.1zm-14.9-.9c1.1.2 1.4-.5 1.4-1.4-.9-1.3-2.5.5-1.4 1.4z"/></g><path class="st1" d="M78.6 133.9c-2-.5-3.4 0-4.5 1.2 1.2 1.5-.2 1.5 1.4 2.6-1.2.3-.5 1-.8 1.5-3.5.9-5.2.4-9.9 3.6 1 1.4-.1.8-.9 1.9 1.1 2.1-1.2 3.9 1 5.5-1.7.2 2.1 4.6.6 4.8 2.3 4.4 5.9 4.6 7.7 6.7 4.6 5.9 10.3-6.8 11-9.1 2.2 1.3 3.7 5.8 6.4 4.9 0-2.7-.1-5.5-2.7-7.4-.8-5.2-7-11.1-9.3-16.2zm-2.1 16.5c-1.1-.3.7 3 1.1 3.6-2.4 3.1-4-.1-6-.4-1-3-.9-5.8-.5-8.5.6-1.3 2.1.7 1.2-.8 1.8 1 3.2 4.2 4.2 6.1zm-30.4-13.3c-.8.5-.8-2-2.1-2.6 1.7-1.1 3-2.2 3.8-3.5.4.5.6 1.1 1.2.5-.2-1.9-5-8.2-6.4-10.2-3.4 1.3-8 3.8-10.8 7.7-3.8.6-5.1 3.5-9.6 5.5.2.9.2 3.3-.5 3.8 1.5 1.8 2 3.4 1.9 4.8 3.5-.8 5.8-3.7 9.5-5 3.6 6.4 10.8 13.8 13.5 20.9.5 1.5 3.1 3.6 3.6 5.5.1.2.1.3.1.3 0-.1 0-.2.3.3.7 1.2-.3 3.6 1.7 4.6-.1.1-.8.1-.8.1 1 3.3 2.9 6.6 1.2 9.7-4.9 2.9-11.1-1.7-12.5-6.2-.1-.4.7-.3.2-1-5.4-6.9-5.3 2.9-10.3 4.3.8 2.6-1.5 3.4-1.2 6.1l.4.6c1.5-.7 2.8 2.7 3.6 1.5.9.8.5 1.4.5 1.9 2.8-.3 4.7 4.5 7.7 4.2-.5 1 .9 1.2 2 1.7 2.7 1.2 8.8 1.6 11.5.7 1.3-1.6 3-.8 6-3.6-.2-.4-.6-.8-.3-1.1.2.2.4.6.7.4 2.8-5.3 5.8-8.1 3.7-14.9 1.3-.6-1.6-3.7-.2-4.3-2.5-4.5-2.6-5.5-5.9-10.1.3-.2.5 0 .8-.1-3.7-5.8-9.1-14.5-13.3-22.5zM136 88c-3.1.4-6.6 3.7-7.5 4.6-.8.7-2.2-.1-2.9.2 0 0 .4.6.1.8-1.1.5-3.4.8-3.7 2.9-2 .3-3.7 3.2-7.1 3.8 1.3 1.8 2.5 2.1 1.8 4.1 1.5-1.5 2.5 2.2 2.8 2.9 1.5-.4 1.5-1 2.4.2.9-1.6 2.5-1.3 4-3.2.6 1.5.7 0 1.2.5 0 2.9 2 7.5 1.7 9.8 0-.2-.6-.6-.7-.4 1.3 2 .3 4.1 1.5 6.1 1.5 2.5 3.1 3.7 4.3 6.4.7-.9 1 .3 1.5.8 6.5-4.3 12-9.4 20.4-16.2-2.4-4.1-2.4-4.2-4.7-6.5-2.7 2.4-3.9 2.1-4.7 4.1-4.6 1.3-5.3 3.1-9.4 5l-1-1.5c1.7-5.5 3-9.7 3-15.2 1.3.4.5-2.1 1.9-1.7-.9-1.4-2.4-3.2-.5-1.9-2-2.8-2.9-3.6-4.4-5.6zm-26.3 47.9c.8-6.7-1.9-15.8 2.6-21.9-.7-4.6-5.5-8.9-6.4-11.7-3.4 1.2-6.2 2.8-9.6 6.4l-1-1.5c-2.5 3.1-4.8 1.8-5.9 4.6-3-.3-5.8 4.2-7.7 5.1.2-.1-1.6-.8-1.9-.8-.9.2-1.4 1.8-2.1 2.1-1.3.5-4-1.3-4.6 2.4 3.7 5.8 5.6 8.9 10 11.9 6.2-3.5 6.3-4.6 11.3-6.8 1.5 6.9 2.4 13.8 1.7 20.2.6 1.2 1.3 1.8 2.1 2.1l-1.5.9c3.1 3.3 6.6 7.7 10.4 10.4 2.9-1.4 3.7-5.3 7.2-4.8-1.5-2.3 1.3.6 2.4-1.6-.3-.6-1-1.3-.5-1.7 1.6 2.3 3.9-2.7 4.9-1.9-.3-.6-1-1.3-.5-1.7 1.5 1.1 1.2.1 1.5-1 2.3 1.5 5.1-5.2 8.7-4.5-.2-.5-.6-.9-.2-1.3 1.3 1.6 1.9-1.5 3.6-1-1.1-1.1-.9-1.8.5-2.4-5.4-3.5-4.6-12.6-10.8-12.1 2.2 4.7-7.7 6.8-8.6 9.9-1.3-1.5-.5 1.5-2.9-.2.8 1.5-1.8 2.4-3.4 2.3-.4-.7-1.4-1.6-.8-2.2.4.4 1.5 1.1 1.5.8zm101.2-97.5c-1.2-2.4-2.3-4.7-3.5-7.1-1.8-3.6-1.7-5.2.4-8.5 3.3-5 7.1-9.5 11.2-13.8.8-.8-1-1.5-1.5-1.5-1.9-.7-3.6-1.3-5.5-2-.3-.3-1.6-.9-2-.3-2.5 3.4-5 6.9-7.3 10.5.2-3.1.7-6.2 1.5-9.3.2-.7-.8-1.2-1.3-1.3-3-.5-6.2-1.1-9.2-1.6-.3-.1-.4 0-.6 0h-.1c-.6-.2-1.4-.4-1.9.1 0 0 0 .1-.1.1-.1.1-.2.2-.2.3-.7 2.4-1 4.6-1 7.1 0 2.2.9 4.2 1 6.4.3 3.6-3.4 5-6.1 6.7-3.2 1.9-6.6 3.6-10 5.1-.5.3-.3.8.1 1.1 2.4 1.7 4.7 3.3 7 5 .4.3 1.3.8 1.9.4 4.4-2.4 8.4-5.3 12.1-8.5.1 3.7.7 8.1 2.7 10.6 2.4 3 8.2 1.6 11.5 1.6.5-.4 1.2-.6.9-1.1zM199.3 33c-.7-2.9-.9-5.7-.8-8.6 0-.8-1.9-1.5-2.4-1-4.1 3.9-8.6 7.3-13.5 10.1-1.6-1.2-3.2-2.3-4.9-3.5 2.8-1.3 5.4-2.6 8-4.1 2.2-1.3 6.2-3 7.6-5.1 1.2-1.9 0-3.3-.4-5.4-.8-3.6-.5-7.3.5-10.8.2.1.3.1.4.2 2.5.4 5.1.9 7.6 1.3-1.1 4.5-1.5 8.9-1.3 13.5 0 .9 2 1.6 2.5.8 3-4.6 6-9 9.2-13.4 1.3.8 2.5 1.3 3.9 1.6-4.2 4.5-8.1 9.2-11.3 14.4-2.9 4.6 1.3 9.9 3.6 14.3-3.9.3-7.5.6-8.7-4.3zm53-17c.3-.6-1.7-1.1-2-1.2-2.2-.2-4.3-.8-6.3-1.7-.3-.1-1.2-.5-1.4-.1-2.4 3.5-4.9 6.7-7.6 9.9.5-1.8 1-3.5 1.5-5.2.4-1.4 2.1-4.2.9-5.7-.2-.2-.3-.3-.6-.5-.2-.3-.4-.4-.8-.5-2.7-.4-5.3-.5-8 0-.3.1-.4.2-.4.3-4 9.5-7.1 19.4-9.2 29.6-.2.7 1.9 1.4 2.4 1.1 4.5-3 8.9-6.2 13.3-9.2-1.3 3-2.1 6-2.5 9.2-.1.6 1.3 1 1.8 1.1 2.6.5 6.2 1.9 8.9 1.7 2.9-.3 2.4-3.1 2.9-5.7 1.6-7.8 4-15.6 7.1-23.1zm-18.1 26.5c.8-4.6 2.2-8.7 4.6-12.7.3-.5-2-1.3-2.4-1.1-4.9 3.4-9.8 6.7-14.7 10.1 2-8.7 4.7-17.1 8.1-25.4.4 0 .9-.1 1.3-.2 1.3-.2 2.6-.5 4-.7 0 2-1.5 5.2-1.9 6.7l-2.4 8.4c-.2.7 2.1 1.4 2.5 1 4.2-4.4 8-9.1 11.4-14.1 1.5.6 3.1 1 4.7 1.3-2.3 5.7-4.2 11.6-5.7 17.5-.6 2.4-.6 7-1.9 9-1 1.8-4.8.9-7.6.2zm42-24.9c-4.5-1.8-10.7-3.1-14.3.4-.7-.4-1.8-.6-1.9-.1-2.5 9.4-5.5 18.6-8.9 27.7-.3.8 1.2 1.3 1.7 1.3 4.5.5 8.9 1.4 13.2 2.9.3.1 1.3.2 1.2-.4-.5-2.7-.6-5.1-.2-7.8 2.3 2.3 5.7 3.3 8.9 2.9 6.4-.8 11.4-6.6 11.3-13-.2-6.7-5.1-11.5-11-13.9zm2.9 23.5c-3.2 2.1-9.6 4-11.7-2.1-.2-.5-2.3-1.9-2.5-.8-.8 3.3-.9 6.5-.4 9.8-3.5-1-6.9-1.9-10.5-2.3 3-8 5.6-16.1 7.8-24.3.5.1.9.1 1.1-.3 2.5-5 8.4-4 12.7-2.2 4.8 1.9 8.3 5.6 8.8 10.8.3 3.1-.5 6.1-2.4 8.5-.7 1.2-1.7 2.1-2.9 2.9z"/><path class="st1" d="M273 24c-1.9-1.9-5.6-2.1-7.2.3-2.3 3.5.5 8.4 3.8 10.1 3.4 1.8 8.3.4 8-4-.1-2.7-1.9-5.8-4.6-6.4zm-3.6 8.3c-1.1-1.2-1.8-2.9-1.8-4.5 0-1 1.7-4.7 3.2-3.7-.2.1-.3.1-.4.2-1.2.5 1 1.9 1.9 1.5 2.2-.9 3 3.5 2.8 4.6-.2 3.1-3.8 4-5.7 1.9zm51.6-1.8c-2.8-.3-5.4-1.4-7.5-3.2-.4-.3-1.5-.8-2-.4-4.6 3.5-6.7 9.1-10.5 13.3-1.3-4.6-1.2-9.4.5-14 .1-.2 0-.4-.3-.6 0-.2-.1-.3-.4-.5-1.7-1-3.5-1.6-5.4-1.9-.2 0-.3 0-.4.1-.3 0-.4 0-.7.1-2.1.6-2.7 5.9-2.9 7.7-.4 3.5-.1 7 1 10.4.8 2.6.3 3.5-2.4 4.6-2.3 1-4.6 1.7-7.1 2.2-.3.1-.3.3-.3.6.9 2.4 1.3 4.6 1.3 7.3 0 .8 1.4 1.2 2 1.1 15.4-1.2 28.8-12.6 36.7-25.2.6-.9-1.1-1.5-1.6-1.6zm-34.6 24.8c-.3-2.4-1.4-5.1.7-6.2 3-1.4 6.1-2.1 9-3.9.2-.1.1-.3.1-.5-1.8-3.9-2.5-8-2.2-12.2.2-1.9.6-3.8 1.2-5.6.8-2.4 1.9-1.7 3.5-.7-1.7 5.4-1.4 10.7.8 16 .3.6 1.8 1.3 2.4.8 4.6-4.1 6.7-10.2 11.4-14.3 1.9 1.4 4.1 2.4 6.5 2.9-7.5 11.5-19.7 21.9-33.4 23.7zM344.7 33c-4.8-2.9-10.7-4.2-14.8.1-.6-.5-1.9-.9-2.2-.4-4.8 9.3-9.4 18.6-13.8 28-.3.5 1.2 1 1.4 1.1 3.5.8 6.8 2.2 10 4.1.2.1 2 1 2 .3.2-3.8.9-7.3 2.5-10.6 3.2 4.3 8.1 7.2 13.6 7.3 7.3.1 14.7-5.2 15.2-12.7.4-7.8-8.1-13.7-13.9-17.2zm4.7 26.5c-6.7 4.1-15.3 1.4-18.8-5.7-.3-.5-2.1-1.6-2.5-.8-2 3.6-3.1 7.4-3.4 11.6-2.6-1.4-5.2-2.5-8.1-3.4 4.1-8.8 8.5-17.5 13-26.2.7.4 1.7.7 1.9.3 4.8-6.5 12.7-1.7 17.5 2.4 3.6 3 7.2 6.7 6.8 11.7-.2 4.1-2.8 7.9-6.4 10.1zm42.3 9.5c3.8-5-1.8-9.3-5.7-12.2-3.4-2.5-7.3-5.1-11.6-5.1-6.2 0-11.3 5.1-15.3 9.3-4.6 4.7-9.9 10.5-9.6 17.5 0 .1 0 .2.1.2.3 1.8 2.9 3.1 4.3 3.5.9.3 2 .3 3-.1.6-.3 1.1-.6 1.6-1.1.7-.4 1.3-1 1.8-1.6.8-.9 1.3-2.1 2-3.1 1.9-3.2 4-6.3 6.6-9 1.8-1.9 4.3-4.6 7.3-2.2 1.6 1.3 2.2 4 3.3 5.7.9 1.3 1.9 2.4 3.4 3.2 3.9 2 6.6-2 8.8-5zm-7 3.8c-3.2 1-5.3-6.6-7.7-8.4-1.4-1.1-3.5-1.9-5.3-1.8-3.3.3-5.8 3.6-7.8 6-1.5 1.9-2.9 3.9-4 5.9-.6.9-6.2 9.6-7.2 4.2-.1-.3-.4-.5-.8-.7.3-4.8 3.3-8.8 6.2-12.3 3.3-4 7.1-8.1 11.6-10.8 6.6-3.9 13.7 0 18.3 5.2 1.9 2.2 3.2 4 1.8 6.8-.5 1.3-3.8 5.5-5.1 5.9z"/><path class="st1" d="M347.5 48.7c.1-1.2-.7-1.9-1.2-2.8 0-.1-.1-.1-.2-.2-1.6-3.3-4.9-5.9-8.7-6-3.6-.2-7 3.1-5.7 6.8 1.2 3.5 5 5.7 8.4 6.3 1.9.3 4.2.3 5.8-1.2.3-.3.6-.7.8-1 .5-.6.8-1.2.8-1.9zm-6 2.9c-3.2.8-6.8-1.8-7.5-5-.3-1.9.5-3.6 2-4.6 3-2.2 6.1-.1 7.6 2.8.1.3.2.6.3.8 0 0 0 .1.1.1 1.9 2.4.1 5.2-2.5 5.9zm45.9 76.2l1-2.5c-.3.6-.5 1.4-.9 2.1 0 .1 0 .3-.1.4zm28.3-69.4c-1.8-.5-4.6-1.5-6.2-1 2.3.4 3 1.3 4.6 1.6.2-.5 1.6.1 1.6-.6zm-28.2 68.9c.1-.4.1-.7.1-1h.2c.4-.6.7-1.3 1-1.9l-.4.9c.2-.4.3-.6.4-1 4.5-9.1 5-18 12.7-23 7.1-4.5 19-2.3 28.7-3.6 6.5-.9 10.7-6.1 14.6-10.6 2.1-2.4 5.1-5.2 6-7.6 1.9-5.2-1.4-11.2-3-11.8.5 1 1.4 1.6 1.6 3-1.8-1.3-3.4-3.4-4.2-4.6-1.4-1.8-3.6-3.3-3.3-6.2 2.3 1.7 3.3 6.3 5.6 7-2.5-1.8-7.5-14.2-10.2-8 1.3-1.3 1.1 2.3 2 3.3 0-.8-.1-1.6.6-1.6 3.1 5.2 7.5 7 9.6 13.2-3-3.7-6.3-8.9-10.8-9.9 3.1 4.2 13.5 8.9 8.6 15.5-2.3 3.1-6.8 7.3-10.6 10.6-5.8 4.9-15.9 2.3-24.8 3-5.3.4-9.9 2.6-13.8 3.6 4.6-13.3 10.9-24.7 16.2-37.3-4.6 9.6-9.9 19.7-14.2 29.4-1.4 3.3-2 8.1-5.2 9.6 2.4-5.8 5.1-11 7.6-16.2.2-.4 2.6-5.3 1.4-3.3-1.9 3-3.6 7.2-5.2 10.6-2 4-4 11.5-9.9 11.2 1.9-2.3 5.2-6.7 5.6-8.2-2.4 2.8-4.5 7.4-8.2 8.9-.9.4-2.3 0-3.3.4-3.7 1.1-7.8 3.9-10.6 5.6-5.3 3.3-10.8 6.1-16.2 9.1-18.6 10.5-26.7 17.8-26.7 24.3v.5c0 4 5.2 6.6 25.2-4.1h.1c5.2-2.8 9.6-6.6 14.1-10.3h1.3c-3.5 6.1-7 19.6-4.2 25.7 6.7 1.8 17.3-16.1 21.6-25.2zm-11.7-18.8c-.7-.4-.3 0-.6-.6 1.5-2.8 6.6-2 7.2-5.6 1 .3.1 1.2.6 1.4.3-.2.5-.4 1-.4 0-.8-.5-1.3-1.4-1.3 1.3-.2 4-.1 3.6.6 2.3-1.3 8.9-2.4 10.8-5v2c.8-2.2 3.1-2.9 5.2-3.6-.2-1-.7.3-1.4 0 1.5-2.1 6.6 0 7.6-2 .7-.1.2 1.2.4 1.6 1.4-1.8 4-2.3 5.6-.4 0-.5.2-1.3-.4-1.4 7 1.5 15.6 0 20.8-1.6 3.9-4.4 9.9-9.9 13.8-14.6-1 .4 0-1.5-.4-3.3.4 1.2.5 2.3.4 3.3-.5 5.3-6 9.7-10.2 14.2-6.6 7.1-15.4 4.5-27.7 5.6-4 .4-11.2 1.9-12.6 4.3-.2.3.5.3.6.4-3.9 1.5-8.5 3.4-10.6 7-2.1 3.4-6 5-9.2 7.6-1.5-1.5-4.3-5.4-3.1-8.2zm74.3 1.4c.2-.1.5-.3.6-.4-.1 0-.2.1-.3.1 0 .2-.1.3-.3.3zm-2-28.7c-.9-.4-1.7 1.4-2.6 2.3-3.1 3.2-6.7 6.5-9.2 9.6 4.1-2.4 7.9-8.1 11.8-11.9zm-32.6-23.4c3.2.4 7.3 1.5 9.9 1.4-3.1-.6-7.2-1.9-9.9-1.4zm-2-12.6c.1-1-.7-1-.6-2 4.1.6 6.3-6 4.8-7.7 0 .2-.3.4-.5.5-1.8-1.8-4.1 2.2-5.2 2-.1-.3 0-.6-.4-.6-.3 3.3-.1 6.4 1.9 7.8zm49.2 2.1c.1 2.5.6 5.1 1.6 7.2-.6 11.9-4.5 24.4-.4 35-.1-3.3-2.3-8.1-1.4-11.9.6 7 4.2 10.9 4.2 18.4-.7-1.4-.9-3.3-1.6-4.6 4.5 11.8-10.5 13.6-16.8 18.8.5-.2 1.3-.4 2-.5 3.7-2.6 10.7-4.6 14.8-7.7-2.8 3.3-9.9 5-14.6 7.6 3.9-1.2 9.5-3.1 13.6-5.6 2.6-1.6 4.5-4.4 4.6-8 .2-6.8-4.1-10.1-3.3-18.4.3-3.2 1.5-7 2.3-10.9.8-3.8 1.2-8.1 2.3-10.8.9-2.2 2.5-3.7 3.3-5.6 2.5-6 3.3-13.4 5-20.8 1.9-9.2 4.2-18 5.7-27.9h-6.6c-2.2 13.6-4.7 27.8-7.7 42.5 1-14.9 4.8-28.4 7-42.5h-9.6c-.7 14.2-4.9 30.8-4.4 45.7zM481.8 8c-.1-.8.4-.5.4 0-2.3 11.8-5 23.4-7.6 35 1.3-11.5 4.8-23.7 7.2-35zM464 80.3c.7-12.3 3-23.1 5.2-34-1.2 10.4-4 22.3-5.2 34zm2.3-29.4c.7-.8.1-3 .4-4.2 1.4.5.3 3.7.6 5.2-.7-.1-1.3.1-1.6.4 0 .5.2 1.3-.4 1.4 0 3.1-.4 7.5-1 8.9.5-5 .7-9.3.6-13.2-.1-.5-.5.3-.6-.4.7-3.1.5-5.3.4-8.9 1.5 2.5 1.7 6.5 1.6 10.8zm-54.8-15.6c-2.1.5-1.3 4.4-.4 5.6.2-1.8-.3-4.3.4-5.6zm.6-2.9c1.8-2.3 5-3.2 7.6-4.6-3 .8-7.5 1.9-7.6 4.6zm-16.8 57.3c-1.1 1.9-.7 1.2 0 0zm2.3-3.9c-.4.7-1.4 2.6-2.3 3.9 1.4-.6 2.4-3.1 2.3-3.9zM420.7 38c.2-1.3 1.8-2.8 1-4-.3 1.2-1.3 3.2-1 4zm-2.1 21.1h-1.4c.4-.1.8 0 1.4 0zm-9.4-2.7c2.1.8 5.2.3 6.2-1 5.5 2.1 15.9 1 14.2 9.2.3-5.5-6.4-5.5-11.1-5.6 6.5.3 12.8 2.6 10.1 9.9-.1-.4.1-.9-.4-1-.1 1.3.8 2.5-.4 1.4-.2 2.1.2 2.2-.4 4.2.1-.5-.8.3-1 1-.2 1-.6 3 0 4-1 .1-4.8 3.7-3 4.6-.5-1-.3-1.9.6-2.3.1.4.4.2.6 0-.1.8.2 1.4.6 1.6.8-.5-.6-1 .4-1.4-.3 1.1 1.1.5 1 1.4-1 1.8-2.3 0-3.3 1.6 1.4.7 3.2.2 3.6-1 .4-1.6-.7-1.9-.6-3.3 1.1-6 6-11.3 5.3-16.8-.9-6.8-9.2-6.1-15.8-8.2.5-.8 1.9-2.4 1.4-3.3-.8 1.1-.8 3-2 3.6-1.2-.4 0-1.3-.6-1.6.1.8-.5 1-1 1.4-5.4-2.3-7.2-4.6-11.7-9.5-3.7-4-10-8.4-10.6-13.8-.5-4.7-4.5-8.6-7-11.2-4.2-4.5-15.7-15-19.6-18.6h-24.1c7.9 8.9 23 23.3 32.5 30.5 2.2 2.7 7.7 6.4 11.2 7.2 6 1.4 8 5.1 11.8 8 .5.4 1.6.4 2 .6-.1-.1.1 1.1.4 1.4 2.8 3.1 7 6.1 10.6 7.6-7-5.2-12.8-11.4-19.2-17.2-.2.5.4 1.7-.4 1.6-.6-2.6-5.6-6.3-9.2-5 1.1-.1 2.7-.1 1.6 1 2.6-.6 5.1 1.4 6.6 3-3-3.2-10.4-1.9-11.2-7.2-.7-.6-1.6-1-2-2 .2-4.2 1.2-5.4 3.3-6.6 1 1.9 1.4 2.7 1.4 5.2h3c.9-.7.5-2.7 2-3 .4 2.3-.7 2.6.6 4.3-.5 0-.7-.2-1-.4 1.1 2.9 4.6 4.6 6.6 6.6 6.3 6.3 12 15 22.4 18.2-.7.9-4-.5-4.4.9zM385.7 27c1-.5 1.8 1.4 1.6 2.3-1.1-.1-.7-1.8-1.6-2.3zm41 24.1c16.3-2.3 11.3-26.8-5.2-25-1.1.1-2.4.6-4 1.4 1.7.7 2.4-.6 4-.6 5.3-.3 9.1 4.1 11.8 6-.5-.6-2.4-1.7-1.4-3 .6.9.3 1.3.6 2 8.7 6.1.5 21.4-9.9 18.4.4-.1.9.1 1-.4-1.1 0-3.4.9-2-.4-2.2.9-4.4-2.4-6.6-3 1.2 1.3 2.8 2 4.2 3-1.2.1-2.2-1.7-3.3-.6 2.5-.1 1.1 3.4 2.6 1.4 2.7.7 5.1 1.2 8.2.8zm.3-23.4c-.5-1.4 2.6 1.1 3.6 1.4-1.1.7-1.8-1.7-3.6-1.4zM382.8 35c-1.2-1-1.3-2.5-3-3.6-.2 1.2.1 2.3.6 3.6.4-1.1 3.1 1 2.4 0zm34.6.3c.1.1.2.1.2.2 0-.1 0-.2-.2-.2zM79 101.9C71.7 96.4 65.2 90.1 59.4 83c-1.5-1.9-7.2.4-5.5 2.6 6 7.4 12.8 13.9 20.4 19.6 2.1 1.3 7.4-1.4 4.7-3.3zm5.4-15.1c-2.1-9.7-3.6-19.4-4.6-29.2-.3-2.5-6.2-1.1-5.9 1.5 1 9.8 2.5 19.6 4.6 29.2.4 2.6 6.4 1 5.9-1.5zm9.2 6c2.3-11.5 4.5-23.1 6.7-34.5.6-3-5.5-2.4-6 .4-2.3 11.5-4.5 23.1-6.7 34.5-.7 3 5.4 2.4 6-.4z"/><path class="st1" d="M533.4 107c-4.4-2.8-14.9 3.7-18.7.4-2.4-.7-.9-6.3-3.3-5.6-.9 2.1 1.5 5.6-.7 7.1-12 2.3-24 4.6-35.2 5.1 10.5-6.4 18.6-13.8 30.1-19.7 2.2.3 2.6 4.7 4.8 5 .7-2.8-2.8-5.3-2.4-7.7 2.9-4.4 12.8-7.2 13.9-12.8 3-15.1-19.9-8.4-19 1.1l3.9 9.9c-19 16-44.5 29.7-74.7 37.5-.5.3-.6.8-.6 1.4 9.2-.2 21.9-8.6 31.3-9.3-2.4 4.2-9.8 5.8-15.6 8.3-4.8 2.1-9.9 3.8-12.2 7 26.4-12.1 57.5-25.3 81.8-23.6.7 2.4.9 4.5 2.2 7.2 6.6 8.9 25.6-4.2 14.4-11.3zm-13.8-31.9c2.3 6.3-10.3 15.7-14.6 7.8-4.6-8.4 12-15.2 14.6-7.8zm.4 42.5c-5.6-7.9 12.2-12.7 14.5-6.1 2.3 6.8-10.9 11.1-14.5 6.1zm-5.6 29.1c.7-2-1.1-3.1-2.9-3-3.4.2-5.9-1.5-7.6-4.2-1.4-2.2-5.1-.8-6.1 1-1.1 1.9-1.2 3.4-1 5.5.2 2.3 3.6 2.1 5.4.6 1.5.9 3.2 1.6 5 1.9-2.5 6.8-5.4 13.9-11.2 18.3-3.3 2.5-7.9 4.3-12 2.4-1.7-.8-3-2.2-3.5-4-.3-.9-.3-1.8-.2-2.8.1-1.8.5-2 1.2-.6-.6 3.4 6.1 2.7 6.6-.4 1.3-7.3-8-7.9-12-3.8-4.6 4.8-2.7 12.5 2.9 15.6 6.7 3.7 14.9 1.5 20.8-2.7 7.8-5.7 11.5-15 14.6-23.8zm5.2 30.7h.3c2.7-.3 5.1-3.2 2-3.2l1.8-3c1.1-2.3 2.9-5.6 2.3-8.3-1.4-6-10.3-1.8-13.1.3-1.2.8-.6 1.7.5 2 1.4.4 3.5-.4 4.6-1.2 1.6-1.2 1.6.8 1.4 2.4-.1.8-.4 1.5-.6 2.3-.4-.8-1-1.4-1.8-1.8-3.2-1.5-8.6.1-11.5 1.7-3.2 1.8-5.1 6.2-.7 7.9 2.3.9 4.9 1.3 7.5 1.4-.1.9-.3 1.6-.3 1.9-.6 2.5 5.5.2 6.2-.5.4-.8.9-1.3 1.4-1.9zm-10.1-7.5c2.7-2 3.2.9 3.1 4.1-2.2-.5-6-2-3.1-4.1z"/><path class="st1" d="M542.9 185.2c-6.3-2.1-13.4-1.3-20-.8 8.9-5.9 17.4-12.3 25.5-19.3.5-.4.3-1-.3-1.1-4.1-1.2-8-2.6-11.9-4.3-1.4-.6-5.2.4-5.9 1.9-.5 1.1-.6.9 0 1.9.5.8 2.2.7 3.7.2 2.5 1 5 1.8 7.6 2.6-8.4 7.2-17.2 13.7-26.6 19.7-1.7 1.1 0 1.6 1.1 1.6 6.9-.4 14.8-1.9 21.4.3 1.6.5 7.4-2 5.4-2.7z"/><path class="st1" d="M577.1 194.7c-.1-.9-.1-1.8-.1-2.7-.8.3-1.5.8-1.7 1.5.5-1.2-2.8-.1-3.7 0-1.9.2-3.8.5-5.7.7-3.8.5-7.6 1-11.4 1.4-1.9.2-3.8.5-5.7.7-.6.1-1.3.2-1.9.2-1.8.8-2.3.6-1.7-.7-.2-2.4 4.5-7.8 5.8-9.5 2.4-3.1 9.6-8 8.8-12.5-.7-4.2-6.5-4.2-9.7-3.7-3.5.5-5.1 5.1-.7 4.5 1.8-.7 2.6.4 2.2 3.2l-1.8 1.8c-1.3 1.4-2.6 2.9-3.8 4.4-1.9 2.4-3.6 4.8-5.2 7.4-2.4 3.9-5.2 9.2 1.4 9.9 3.1.3 6.5-.6 9.6-1 4.4-.6 8.9-1.1 13.3-1.7 2.7-.3 8.1-.1 12-1.3v-2.6z"/></svg>