<svg version="1.1" id="Слой_1" xmlns="http://www.w3.org/2000/svg" x="0" y="0" viewBox="0 0 566.9 467.7" xml:space="preserve"><style>.st0{fill:#ee7f00}</style><g id="Слой_1_1_"><path class="st0" d="M2.1 546.8c.3-.9.3-1.8.4-2.8.1-2.2.1-4.3.3-6.5.1-1.8.4-3.7.6-5.5.3-2.4.6-4.9.8-7.3.3-3.3.6-6.6.8-9.9.2-2.9.3-5.8.4-8.7.2-4.8.1-9.7-.1-14.5-.1-3.7-.3-7.5-.3-11.2 0-2.8.1-5.7.3-8.5.1-2.7.5-5.3 1-8 .2-1.3.5-2.6 1-3.8 1.1-2.8 1.8-5.8 2.4-8.7.5-2.9 1-5.9 1.5-8.8.7-4.2 1.8-8.3 2.9-12.3 2.1-7.4 4.6-14.6 7.4-21.8 6.4-16.7 12.3-33.7 18.1-50.6 1.5-4.2 3-8.5 4.8-12.6.2-.3.3-.7.4-1.1-.3-.2-.5-.3-.7-.5-4.6-2.6-7.3-6.6-8.6-11.7-.5-1.8-.7-3.6-.9-5.5-.2-3-.3-6-.1-9.1.1-3.8.5-7.6.8-11.4.3-3.3.7-6.5 1-9.8.2-1.6.3-3.2.5-4.7.5-4.3 1.4-8.6 2.4-12.8 1.8-7.3 4.3-14.4 7.1-21.4 3.1-7.7 6.3-15.4 9.6-23.1 1.8-4.2 3.7-8.3 6.3-12 2.7-4 5.5-7.9 8.3-11.8.9-1.3 1.9-2.6 2.9-3.9.8-1.2 1.9-1.9 3.4-2.1 1.2-.1 2.2-.8 2.9-1.8 7-9.4 16-16 26.6-20.7 5.1-2.3 10.3-3.9 15.7-5.1 4.3-1 8.8-1.6 13.2-2.3 4.2-.7 8.3-.3 12.4.6 1.9.4 3.7.9 5.6 1.4 1 .3 1.9.4 2.9.2 3.2-.4 6.4-.5 9.6-.4 4.5.1 9 .3 13.5.4 1.4 0 2.9 0 4.3-.4.5-.1 1.1-.3 1.6-.6 1.1-.6 1.8-1.5 2.1-2.7.4-1.5 1-2.7 1.8-4 1-1.7 1.7-3.5 2-5.5.2-1 .2-2 .2-3-.1-2 .1-4 .3-6 0-.4.1-.9.1-1.4-.2-.1-.4-.3-.6-.4-1.3-.7-2.1-1.8-2.6-3.2-.4-1.1-.6-2.3-.8-3.4-.5-2.6-.1-5.2.8-7.7.6-1.5 1.2-2.9 2.1-4.3 1.6-2.5 2.3-5.2 2.7-8.1.3-2.4.6-4.9.8-7.3.1-.6.1-1.2.1-1.8.1-1.2.1-2.5.2-3.7.1-2.9 2.6-5.4 5.4-5.9.8-.2 1.7-.1 2.5.1.3.1.6.1.9.2 1.7.1 2.8-1 2.8-2.7 0-.3-.1-.5-.1-.8-.3-1.9 0-3.8.9-5.5.8-1.5 1.8-3 3-4.3.3-.3.6-.6.8-.9.3-.4.5-.8.5-1.3 0-1.5.5-2.8 1.3-4.1.3-.6.7-1.1 1-1.7s.7-1.2 1-1.8c.6-1.2 1.2-2.4 2-3.6 1.1-1.7 2.2-3.4 3.4-4.9.7-.9 1.2-1.9 1.3-3.1s.7-2 1.7-2.7l1.5-.9c.7-.4 1.4-.8 2-1.3 1.1-1 2.5-1.7 3.9-2.3 2.4-1 4.9-1.7 7.5-2.2 2.9-.7 5.9-1.2 8.9-1.9.1 0 .3-.1.4-.2h2.5c.4.3.9.2 1.4.2 3.5.2 7 .3 10.5.5l3.9.3c2.1.2 4.1.5 6.2.8 2.7.4 5.4.9 8 1.5 4.6 1.2 8.8 3.2 12.5 6.4.5.5 1.1.9 1.6 1.4 2 1.9 4 3.8 6.1 5.6 1.3 1.2 2.6 2.6 4.1 3.5.1.1.2.1.3.2 2.6 2 4.4 4.6 5.8 7.6 1 2 1.7 4.1 2.3 6.3.7 2.4 1.4 4.8 2.2 7.1.9 2.5 1.5 5.1 2 7.7.3 1.5.4 3.1.2 4.6-.2 1.5-.5 3.1-.9 4.6-.5 2.1-1.1 4.2-1.3 6.3-.1 1.2-.2 2.5-.4 3.7-.1.5-.1 1-.2 1.5-.3.2-.6.3-.8.5-.2.2-.4.4-.6.7-.9 1.1-.9 1.1-2.2 1.5.7 1.5.3 2.9-.5 4.2-.3.5-.7 1.1-1.1 1.6s-.7 1.1-.9 1.7c-.3 1.3-1 2.4-1.8 3.4-.5.7-1.1 1.3-1.7 2-.4.4-.7.9-.9 1.5l.9.6c.6.4 1.1.9 1.6 1.4.9 1 1.1 2.1.7 3.4-.1.5-.3.9-.6 1.3-.4.6-.8 1.3-1.3 1.9-.7.9-1.5 1.8-2.3 2.6-1.6 1.7-3.3 3.5-4.9 5.2-1 1-1.7 2.2-2.2 3.5-.8 1.9-1.5 3.9-2.2 5.8-.6 1.7-1.1 3.4-1.7 5-.3.9-.7 1.8-1.2 2.7-.9 1.5-2.2 2.5-3.9 3h-.2c-.5.1-.9.4-1.1.8l-.3.6-3.9 6.9c-1.5 2.7-3 5.3-4.8 7.8a43.6 43.6 0 01-5.6 6.5c-2 1.9-4.2 3.4-6.8 4.1-.5.1-.9.3-1.4.5-1.3.7-2.1 1.7-2.3 3.2-.1.9-.4 1.7-.8 2.5-.8 1.3-1 2.8-.8 4.3.1 1.4.6 2.7 1.1 4 1.7 4.4 3.4 8.8 5 13.2.2.5.3 1.1.3 1.7.1.8-.3 1.4-.9 1.8-.2.2-.5.3-.8.5.1.4.3.8.4 1.1 1.7 4.5 3.5 9.1 5.2 13.6 1.2 3.1 2.3 6.3 3.5 9.5 1 2.8 1.9 5.7 2.6 8.7 1 4 2.1 8 3 12 .8 3.5 2.1 6.8 4 9.8.5.8 1 1.6 1.6 2.4 2.8 4.3 4.1 8.9 3.9 14-.1 2.8-.3 5.5-.5 8.3-.3 4.3-.5 8.7-.8 13-.1 1.6-.2 3.2-.3 4.9-.1 2.1-.2 4.3-.3 6.4v.7c0 1.2.6 2 1.6 2.6.3.1.5.3.8.4.9.3 1.6.8 2.3 1.4.4.4.8.8 1.3 1.2.2.1.4.2.6.4l.3-1.2.6-2.7c.4-1.9 1.2-3.7 1.8-5.6 2.9-8 5.8-16.1 8.6-24.1 2.8-7.8 5.4-15.7 7.5-23.8 1.4-5.3 2.5-10.6 3.3-15.9.3-2.2.7-4.3 1.4-6.4.7-2.1 1.4-4.2 2.1-6.4.9-2.7 1.8-5.4 2.3-8.2.3-1.7.6-3.5.8-5.3.2-1.3.4-2.6.5-3.9.1-1.8-.1-3.5-.7-5.2-.4-1-.9-1.8-1.6-2.6l-1.9-1.9c-3.4-3.3-7.1-6.4-10.7-9.5-.4-.4-.9-.6-1.5-.8l-1.2-.3c-.8-.2-1.6-.2-2.3-.5-2.6-.9-5.2-1.9-7.8-2.9-.5-.2-1-.5-1.5-.9-.6-.5-1-1-1-1.9 0-1.1-.6-1.9-1.5-2.4-.5-.3-1-.6-1.5-.8-1.6-.7-3.1-1.4-4.7-2-2.3-1-4.6-2-6.8-3.1-1.6-.7-2.8-1.9-3.8-3.3-.3-.4-.5-.9-.6-1.3-.6-1.9.4-3.7 2.3-4.3.6-.2 1.3-.3 1.9-.2s1.3.2 1.9.3c2.7.6 5.4.8 8.1.8 1.9-.1 3.8 0 5.7 0 1.9.1 3.6.6 5.3 1.6.5.3 1 .6 1.5 1 1.1.6 2.2 1.3 3.3 1.9 1 .6 2 1.2 3 1.9 1.2.9 2.4 2 3.5 3 1 1 2 2 3 3.1 1.9 1.9 4.1 2.7 6.8 2.3.3 0 .5-.1.8-.2 2.2-.5 4.3-.7 6.5-.6 2.4.1 4.7.7 6.9 1.7 2.1 1 3.8 2.4 5.4 4.1.7.7 1.4 1.4 2.1 2 .8.7 1.7 1.2 2.8 1.4.8.2 1.4.6 1.9 1.2 1.8 2.2 3.2 4.5 4 7.2 1.7 5.7.6 10.8-3.6 15.2-.7.7-1.4 1.4-2.2 2.1-2 1.7-4.2 2.8-6.7 3.4-.2 0-.4.1-.7.2-.9.3-1.4.9-1.7 1.7-.1.3-.1.5-.2.8-.8 5.5-1.6 11.1-2.4 16.6-.1.8-.1 1.6-.1 2.4 0 1.1.6 1.8 1.6 2.1.4.2.9.2 1.3.3.6.1 1.2.1 1.8.2.7.2 1.4.3 2.1.6 1 .4 1.5 1.2 1.5 2.3 0 .6-.1 1.2-.2 1.8-.3 1.4-.8 2.7-1.4 4-.8 1.7-1.7 3.5-2.5 5.2-.1.1-.2.2-.3.4-.3-.1-.5-.2-.7-.4l-2.7-1.8c-.2-.1-.3-.2-.6-.1 0 .1-.1.3-.1.5l-1.5 7.8c-.3 1.5-.6 3-.9 4.6-.1.3-.2.6 0 1 .6-.2 1.2-.5 1.8-.6.6-.2 1.2-.6 1.9-.5 0 .2.1.4.1.6.1 1 .1 2 0 3.1-.3 2.5-1 5-2.3 7.2-.4.7-.9 1.3-1.4 1.9-.5.5-1.1 1-1.8 1.1-.4-.4-.4-1-.7-1.4-.1-.3-.2-.6-.4-.8-.1-.2-.6-.2-.7 0s-.2.4-.2.6c-.6 2.3-1.2 4.7-1.8 7-.2.7-.3 1.5-.5 2.2-.1.3 0 .6.2.8.5.5 1.1.6 1.8.4.3-.1.7-.4 1.1-.3.1.3.3.5.4.8.3 1 .5 2.1.4 3.1-.1 3.1-1 6-2.7 8.6-.4.6-.9 1.2-1.4 1.7s-1 .9-1.7 1.1c-.2.1-.4.1-.6.1 0-.3-.1-.5-.1-.7v-2.2c0-.2.1-.5-.2-.6-.2.1-.4.1-.6.2-.9.3-1.4.8-1.7 1.7-.8 2.4-1.7 4.8-2.5 7.3-.1.2-.1.3-.1.6 1.2-.1 2.2-.3 3.3-.5 1.1-.1 2.1-.5 3.3-.4-.1.3-.1.6-.2.8-.3 1.1-.7 2.2-1 3.4-1 3.1-2 6.2-2.9 9.3-.3.8-.7 1.5-1.5 1.9-.5.3-.9.6-1.4 1-.1.1-.3.1-.5.3-.1-.3-.2-.5-.2-.7-.2-.9-.4-1.8-.6-2.8-.3-1.2-.3-1.2-1.5-1.5h-.5c-.1.2-.2.3-.2.4-.4 1.6-.9 3.1-1.3 4.7-.4 1.5-.8 3.1-.9 4.7-.2 3.1-.9 6-1.9 9-.8 2.6-1.6 5.1-2.4 7.7-.3 1-.6 2-.8 2.9-.3 1.1.1 2.1 1 2.8.5.4 1.1.9 1.6 1.3 2.5 2.4 4 5.3 4.9 8.5.6 2 .3 3.9-.8 5.6-.4.6-.6 1.3-.6 2 0 .2.1.4.2.5s.3.1.4.1c.1-.3.3-.6.4-.8 1.6-3.6 3.1-7.3 4.7-10.9 1.6-3.8 3.1-7.7 4.7-11.5s3.4-7.4 5.8-10.7c1.6-2.3 2.9-4.7 4-7.2.9-2.2 2.1-4.1 3.7-5.8 1.1-1.2 2.3-2.3 3.6-3.3.9-.7 1.7-1.5 2.4-2.4.4-.5.5-1.1.4-1.7-.1-.4-.2-.7-.3-1.1-.4-1-.7-2.1-1.1-3.1-.5-1.4-.9-2.8-1.3-4.2-.2-.7-.2-1.5-.2-2.2.1-.7.3-1.3.6-1.8 1.3-2.1 3.7-2.8 5.9-1.8.4.2.8.4 1.1.6 1.8 1 3.4 2.2 5 3.6s3 3 4.3 4.7c1.9 2.4 3.8 4.9 5.7 7.4 3.3 4.3 6.4 8.7 9.3 13.3 2.9 4.7 5.5 9.6 7.9 14.5 4.4 8.9 8.7 17.8 13 26.8.9 2 1.5 4.1 1.7 6.3 0 .3.1.5.2.7v2c-.5.5-1 .9-1.7 1.1-2.8 1.2-5.5 2.4-8.3 3.7-.2.1-.4.1-.5.2-1.2.4-2.2.1-3.1-.8l-.9-1.2c-2-2.9-3.9-5.9-5.9-8.9-.2-.3-.4-.5-.6-.8-1.1 1-2.2 1.9-3.2 2.8-2.4 2-4.5 4.3-6.3 6.8-2.1 2.9-3.9 6-5.5 9.2-2.7 5.3-5.3 10.7-7.9 16.1-1.8 3.7-3.4 7.6-5.1 11.4-1.9 4.3-3.9 8.7-6.4 12.7-2.3 3.8-4.4 7.8-6.3 11.8-2.4 5-4.9 9.9-7.7 14.8-.9 1.6-1.9 3.3-2.9 4.9-1.3 2-2.7 3.8-4.4 5.5-1.1 1.1-2.1 2.2-3.2 3.3-2.9 2.9-5.8 5.8-9 8.5-3.1 2.5-6.3 4.9-9.8 6.7-5.3 2.8-10.9 4.5-16.9 4.8-2.6.1-5.2.2-7.8.2-3.1.1-6.3-.1-9.4-.4-1.5-.1-2.9-.2-4.4-.3-.2 0-.4 0-.7.1v1c0 .8.1 1.7.2 2.5.1 1.3-.2 2.6-.8 3.8-1 1.8-2.5 2.9-4.2 3.8-.1.1-.3.1-.4.1-.8.2-1.4 0-1.8-.8-.2-.5-.3-1.1-.4-1.6-.1-.9-.2-1.9-.3-2.8-.5-3.7-1-7.5-1.5-11.2-.2-1.2-.6-2.1-1.5-3-2.8-2.8-4.9-6.1-6.3-9.9-1.5-4.2-2.1-8.6-2-13v-3.6c-.2-6.8-.8-13.5-1.8-20.2-.9-6.3-2.1-12.5-3.5-18.7-1.7-7.7-3.1-15.6-4.4-23.4-.5-2.8-.9-5.5-1.4-8.3-.1-.4-.1-.9-.5-1.3-.2.2-.4.3-.5.4-.5.6-1.1 1.2-1.6 1.7-.1.2-.3.4-.6.3-.8-1.1-1.6-2.4-2.4-3.6-.6-.9-.6-1.8-.1-2.7.2-.5.5-1 .7-1.4 1.5-3 3-5.9 4.6-8.9 2.2-4.3 4.3-8.6 5.9-13.1.7-2 1.6-3.9 2.7-5.7.8-1.4 1.4-2.8 1.8-4.4.2-.9.5-1.8.7-2.6.1-.3.1-.5.1-.8-.4-.2-.9-.1-1.3-.1-1.8 0-3.6.1-5.4-.2-2.5-.4-4.5-1.6-5.9-3.7-.1-.2-.3-.5-.4-.7l-.4-.4c-.1.3-.1.5-.1.7-.4 2.3-.7 4.5-1.1 6.8-.4 2.8-.8 5.5-1.2 8.3-.4 3.3-.8 6.5-1.2 9.8l-1.5 11.7c-.2 1.6-.9 2.9-2.1 4-2.4 2-4.7 4.2-7.1 6.2-2.9 2.5-5.8 5.2-9.2 7.1-.5.3-.7.6-.8 1.2-.3 2.2-.6 4.5-.8 6.7-.2 2-.3 3.9-.3 5.9-.2 3.4-.2 6.7 0 10.1.2 4.2.4 8.3.6 12.4.2 3.1.4 6.1.5 9.2.2 3.3.4 6.6.6 9.8.1 3.2.2 6.5.3 9.7.1 4.6-.1 9.2-.3 13.8l-.6 9.9c-.1 2.1-.3 4.2-.5 6.3-.3 3.1-.5 6.2-.8 9.3-.2 2.3-.4 4.6-.5 6.9-.1.8-.1 1.6-.3 2.4-.3 1.6-.8 2.1-2.4 2.1-1.3 0-2.6 0-3.8-.1-.2 0-.4-.1-.6-.1 0-.2-.1-.4 0-.6.1-1.4.2-2.8.2-4.2.2-3.1.4-6.1.6-9.2.2-2.9.5-5.7.8-8.6.2-2.3.5-4.6.6-6.9l.3-11.9c.1-4.8.1-9.6.2-14.4.1-5.3.1-10.6.2-16 0-2 .1-4-.4-6-.1-.6-.2-1.3-.1-1.9.1-1.8.2-3.7.3-5.5.2-3.3.4-6.6.6-10 .1-1.7.2-3.3.3-5 .1-1.9.2-3.8.3-5.8 0-.2-.1-.5-.1-.8-.7 0-1.3.1-1.9.1-1.5.1-2.9.3-4.4.4-2.4.2-4.7.4-7.1.5l-9.6.6c-2 .1-4.1.2-6.1.4-1.2.1-2.4 0-3.5-.6-.7-.4-1.5-.6-2.4-.7-.8-.1-1.5-.2-2.2-.3-1.5-.1-3.1-.3-4.6-.4-.5-.1-.9.2-1.1.6-.2.4-.3.8-.5 1.2-2.2 7.7-4.6 15.2-7.2 22.8-3.1 9.2-6.2 18.3-9.3 27.5-2.8 8.5-5.4 17-7.5 25.6-1 4-1.8 7.9-2.3 12-.4 3.6-.6 7.1-.6 10.7 0 3.1.1 6.3.3 9.4h-7c-.8-1.6-.8-1.6-.8-3.5 0-3.7.2-7.4.6-11.1.3-3.3.8-6.5 1.5-9.7 1.1-5.1 2.4-10 3.9-15 2.3-8.1 5-16.2 7.7-24.2 2.7-7.9 5.4-15.7 8-23.6 2.4-7.2 4.7-14.5 6.7-21.9 2.6-9.7 5.3-19.4 8.1-29 3.1-10.3 6.4-20.6 10.2-30.7 1.7-4.7 3.6-9.3 5.6-13.9.2-.4.4-.8.4-1.3-.2-.1-.4-.1-.6-.1-1.1-.2-2.2-.4-3.2-.5-3.5-.6-7.1-1.2-10.6-1.7-5.3-.8-10.6-1.9-15.6-3.6s-10-3.5-15-5.2c-1.2-.4-2.5-.9-3.8-1.3-1.4-.4-2.8-.3-4.2.3l-2.1.9c-2.3.9-4.7 1.5-7.1 2.2-.4.1-.7.2-1.1.4-.9.4-1.4 1.1-1.5 2.1-.1.5 0 1.1.1 1.6 0 .4.2.8.2 1.2.1.9-.2 1.5-1 1.9-.9.4-1.9.6-3 .4-1-.2-1.9-.6-2.8-1.2-3-2-6.1-3.8-9.3-5.6-1.2-.7-2.5-.9-3.8-.7-1.2.2-2.5.2-3.7.2-2.8-.2-5.2-1.2-7.2-3.2-1.4-1.4-2.4-3-3.3-4.7-.1-.3-.3-.5-.4-.8-.2-.3-.4-.5-.8-.5-1.1-.2-2.1-.5-3.2-.8-1.5-.5-1.8-1.1-1.8-2.6 0-.5.1-1.1.2-1.6l.3-1.8v-.9c-.9-.4-1.8-.9-2.8-1.3-1-.5-1.9-.9-2.9-1.3-.9-.4-1.8-.9-2.8-1.2l-.6 1.5c-2.6 7.3-4.1 14.7-5.2 22.3l-1.2 9.6c0 .2-.1.4-.2.7-.4-.3-.7-.5-1-.7-1.2-.9-2.5-1.9-3.7-2.8-.2-.1-.4-.3-.7-.4-.2.4-.4.8-.5 1.2-2.2 5.6-4.3 11.3-6.5 16.9-3 7.8-6.1 15.6-8.7 23.6-2 6-3.8 12-5.2 18.2-.8 3.5-1.6 7.1-2.4 10.6-1.4 6-2.8 12-3.8 18-.5 3.1-.8 6.3-.7 9.5.1 3.7.3 7.4.3 11.1.1 4 .2 8.1.2 12.1 0 3.3-.1 6.6-.3 10-.2 2.4-.3 4.9-.6 7.3-.2 2.7-.5 5.5-.8 8.2-.3 2.9-.5 5.9-.8 8.8-.4 4-.6 8-.4 12 .1 2.8-2.2 6.1-4.3 7.1-.5.3-1.1.5-1.7.4-.6 0-1.1-.3-1.4-.8-.1-.3-.2-.6-.5-.7-.9-.3-.9-.9-.9-1.5zm199.1-417.9c.1.4-.4.4-.4.8.3.1.3-.2.4-.3 0-.2-.2-.4 0-.5.1 0 .1.1.2.1h.1l-.1-.1h-.2zM311 333.2c.4-.2.4-.5.5-.8.6-1.4 1.1-2.7 1.6-4.1.1-.3.3-.7.5-1.1 1.2.5 2.2 1.2 3.4 1.7.2-.3.4-.5.5-.7.4-.8.3-1.4-.3-2-.3-.3-.6-.5-1-.7-.1-.1-.3-.2-.5-.2-.7-.1-1.3.1-1.9.5-.5.3-.6.7-.8 1.2-.8 1.9-1.4 4-2 6.2zm-122 5.3c.2-.2.3-.4.4-.6.6-1 1.1-2.1 1.6-3.1l8.4-17.1c1.4-2.8 2.6-5.7 3.6-8.7.4-1 .3-1.9-.1-2.8-.7-1.3-1.2-2.6-1.9-3.9-1.1-2.1-2-4.2-2.5-6.5-.1-.6-.3-1.1-.5-1.6-.9-2.8-2.3-5.2-4.4-7.3-3.6-3.5-7.2-7.1-10.8-10.7-2.8-2.8-5.6-5.6-8.5-8.4-2.9-2.9-6.2-5.3-10.3-6.4l-.6-.3c-.6-.4-.8-.8-.6-1.5.2-.4.4-.7.6-1.1.6-.8 1.2-1.5 1.8-2.2 1-1.2 2-2.5 2.9-3.8 3-4.4 5.8-8.9 8.6-13.5.3-.5.5-.9.7-1.4.4-.9.2-1.8-.4-2.5l-1.2-1.2c-2.7-2.1-5.1-4.3-7.7-6.5-1.7-1.4-3.4-2.8-5.1-4.1-2.4-1.8-5-3.1-7.8-4.1-.4-.1-.7-.3-1-.4-1.6-.9-2.1-2.1-1.5-3.8.2-.6.5-1.1.7-1.7 1.8-5.1 4.3-9.8 7.2-14.4 2.4-4 4.8-8 7.2-11.9 1.2-2 2.2-4.1 3.1-6.3.1-.2.1-.3.1-.6-.6-.1-1.1-.1-1.7-.2-1.8-.1-3.7-.2-5.5-.3s-3.7-.2-5.5-.3c-1.2-.1-2.5-.1-3.7.2-1.4.3-2.8.3-4.2 0-1.6-.4-3.2-.7-4.7-1.1-2.4-.5-4.8-1-7.3-1-2.8-.1-5.6.2-8.3.8-5.7 1.2-11.2 2.7-16.6 4.8-12 4.5-21.9 11.8-29.3 22.3-1.8 2.6-3.9 4.9-6 7.2-.6.6-1.2 1.1-2.1 1.2-.8.1-1.4.5-2 1-.3.3-.7.7-.9 1.1-1 1.3-1.9 2.6-2.9 3.9-.8 1.2-1.6 2.4-2.3 3.7-1.1 2.2-2.2 4.5-3.3 6.7-4.6 9.4-8.9 19-12.7 28.8-2.9 7.5-5.5 15.1-7.2 23-.9 3.9-1.6 7.8-2 11.8-.2 1.8-.4 3.5-.5 5.3-.3 2.5-.5 5-.8 7.6l-.6 7.2c-.3 4.5-.3 9 .1 13.5.1.8.2 1.5.3 2.2.4 2.2 1.3 4.2 2.2 6.2.4.8.8 1.7 1.3 2.5 1.2 1.8 2.9 2.8 5.1 2.9 1.5 0 2.9.3 4.3.8 3.1 1.1 6.3 2.1 9.4 3.2.4.1.8.2 1.2.4.2-.2.4-.5.6-.7 2.9-3.3 5.9-6.6 9-9.7 5.3-5.4 10.9-10.4 16.9-14.9 6.2-4.6 12.8-8.5 19.8-11.6 4.4-1.9 8.9-3.5 13.5-4.7.4-.1.8-.1 1.1-.3v-.2c-.9-1.6-1.8-3.3-2.8-4.8-1.8-2.4-3.8-4.6-6.1-6.5-4.5-3.8-9.7-5.9-15.7-5.9-1.1 0-2.2-.4-3.1-.9-.6-.3-.7-.7-.3-1.3.2-.4.6-.6 1-.7s.7-.2 1.1-.2c3.1-.1 6.2.1 9.2.7 5.5 1.2 10.3 3.7 14.4 7.5.5.5 1 1 1.6 1.5.2.1.4.3.5.4.4-.5.6-1 .8-1.6 4.5-12.7 8.2-25.7 10.8-38.9 1.4-7 2.5-14.1 3.2-21.3.3-3.1.1-6.2-1-9.1-.3-.7-.1-1.1.7-1.3.7-.2 1.4-.4 2.1-.5l1.8-.3c1.3-.1 2 .4 2.3 1.6.1.5.1 1 .1 1.5 0 3.5-.1 7-.2 10.5 0 2.4-.1 4.8-.4 7.2-.3 2.2-.6 4.3-.9 6.5 0 .4-.1.7 0 1.2.3-.2.4-.5.6-.8 1.3-2.4 2.7-4.9 4-7.4.1-.3.3-.5.4-.8.4-1 .6-2.1.3-3.2 0-.1-.1-.2-.1-.3-.1-.4.1-.7.5-.7 1-.2 1.9-.3 2.9-.5.5-.1 1.1-.1 1.6 0 1 .1 1.7.8 1.7 1.8 0 .4 0 .8-.1 1.2-.5 1.9-1.3 3.7-2.2 5.4-2.3 4-4.7 8-7 12.1-1.9 3.3-3.8 6.5-5.7 9.8-1.1 1.9-2 3.8-2.7 5.9-1.9 6-3.9 12-5.8 18-.8 2.5-1.6 5-2.4 7.4-.4 1.4-.4 2.8.1 4.2.3.8.8 1.5 1.6 1.8.1.1.3.1.4.2 1.7 1 2.8 2.4 3.3 4.3.1.4.2.7.3 1.1.8.3 1.6.5 2.4.8.7.3 1.5.5 2.2.8 1 .4 1.7 1.2 2 2.3.2.6.3 1.3.5 2 .2.8.2 1.6.5 2.4.1 0 .1.1.1 0 .3-.1.7-.2 1-.2 3-.7 5.3.3 6.8 3 .4.7.8 1.5 1.1 2.3.5 1.3.9 2.6 1.4 3.8.2.5.4 1 .5 1.5 11.5 4 22.8 7.8 34 11.6zm14.2-212.8c.9.9 1.1 1.9.8 3-.1.5-.5.9-.8 1.4l-2.1 2.7c-.2.2-.4.5-.5.8-.3.7-.2 1.2.4 1.7.1.1.2.2.4.3.4.4.5.8.4 1.3-.1.4-.3.7-.4 1-1 2-2 4.1-2.9 6.1-1.2 2.5-2 5.2-2.5 8-.5 2.7-.7 5.5-.7 8.2 0 3.2.2 6.5.2 9.7.1 4.7 1.1 9.2 2.9 13.5 1.7 4.3 4.2 8.2 7.1 11.8 1.5 1.8 3 3.6 4.6 5.3 1.8 2 3.5 4 4.9 6.4 1.7 2.8 3.9 5.2 6.7 7 1.8 1.2 3.7 2.3 5.7 3.2 1.2.5 2.5 1 3.7 1.3 2.6.7 5.2.8 7.8.3 1.9-.4 3.6-1 5.3-1.9 1.3-.7 2.7-1.3 4.1-1.7 1.7-.5 3.5-.9 5.3-1.4 3-.7 5.9-1.6 8.6-3 3.8-1.9 6.9-4.7 9.6-8 2.5-3 4.6-6.3 6.5-9.7 2-3.7 3.9-7.4 5.9-11.1 6.2-11.6 12-23.3 17.2-35.3.3-.8.8-1.5 1.4-2 .7-.6 1.3-1.4 1.6-2.3.2-.5.3-1 .5-1.5.2-.7.4-1.5.7-2.2.7-1.6 1.1-3.2 1.6-4.8.1-.4.1-.7 0-1.1-.1-.4-.4-.8-.3-1.3.3-.1.5-.2.7-.4.3-.1.6-.2.7-.6-.3-.6-.6-1.3-1-2-.1-.2-.1-.4-.2-.6.6-.2 1-.4 1.5-.6-.1-.2-.1-.4-.2-.6.4-.8 1-1.5 1.4-2.3l-1.2-2.7c-.3-.7-.5-1.5-.4-2.3 0-.7.1-1.4.1-2 0-.5-.1-1-.2-1.4-.4-1.3-1.1-2.5-1.6-3.7-1.8-.5-2.5-.6-4.1-.3-1.3.2-2.5.2-3.7-.2-.8-.3-1.6-.6-2.4-1-2.2-1.1-4.5-2.1-6.9-2.9l-4.5-1.8c-1.2-.5-2.3-1.1-3.4-1.8-2.6-1.9-5.3-3.8-7.9-5.8-2.6-1.9-5.2-3.8-7.7-6-3.6-3.1-6.7-6.7-8.7-11.1-.7-1.6-2-2.8-3.5-3.7-1-.6-2.1-1-3.3-1.3h-.4c.3.4.8.6 1.2.8.8.5 1.6.9 2.3 1.4.1.1.2.3.2.4s-.2.2-.3.2c-.9.1-1.8 0-2.6-.6-.9-.6-2-1-3.1-1.2-1.9-.4-3.9-.3-5.9-.1-.9.1-1.7.5-2.2 1.2-.6.9-1.5 1.4-2.5 1.9-1.3.6-2.6 1.1-4.1 1.4-.2 0-.4.1-.3.4.2 0 .4.1.5.1.7.1 1.4.1 2.1.2.2 0 .4.1.4.3 0 .2-.2.3-.4.3-.4 0-.8.1-1.1.1-.6 0-1.3.1-2 .1-.1.4-.3.8-.4 1.2l-.6 1.8c-.3.8-.9 1.3-1.7 1.5-.7.1-1.3.2-2 .3-.6 0-1 .2-1.4.6l-1.2 1.2c-.1.2-.3.3-.4.6.6.2 1.1.4 1.7.6-.2.5-.6.6-1 .8-.5.3-1.1.5-1.7.7-1.1.5-2 1.3-2.6 2.3-.3.5-.5.9-.8 1.4-.4.7-.9 1.3-1.6 1.7-.3.2-.4.4-.6.7-.8 1.5-1.6 3-2.5 4.5-1.8 3.2-3.2 6.5-4.5 9.9-.7 1.7-1.1 3.5-1.1 5.3 0 1-.2 2-.6 3l-.9 2.1c-.3 1-1 1.5-1.9 1.7-.1 0-.3.1-.5.1-.4-.7-.5-1.3-.6-2.1 0-1.3-.1-2.6-.1-3.8 0-.6-.2-1.1-.7-1.6-.7-.7-1.1-1.5-1-2.5 0-.5.1-1.1.2-1.6.1-.4.1-.7.2-1.1.1-.6 0-1.1-.3-1.6-.3-.4-.5-.7-.9-1.1-1.3-1.3-3.1-1.3-4.2-.8-1.4.6-2.3 2.1-2.3 3.8.3-.2.6-.5.8-.6.5-.3 1.1-.7 1.6-1 1-.4 1.8-.1 2.4.9.1.2.2.5.3.7.2.5.4 1 .5 1.5.7 2.6 1.3 5.1 1.9 7.7 0 .1.1.3 0 .4 0 .3-.1.5-.5.5-.1-.1-.2-.2-.2-.4-.7-1.8-2-3-3.8-3.6-.9-.3-1.8-.5-2.7-.8-.2-.1-.4-.1-.7-.1 0 .4-.1.7-.1 1-.1 2.6-.4 5.3-1 7.8-.9 3.7-2.3 7.2-4.4 10.4-.6.9-1 1.8-1.2 2.9-.3 1.6-.2 3.1.2 4.6.5 1.8 1.1 3.5 1.6 5.3 0 .1.1.2.3.3.3-.5.5-.9.7-1.3 1.9-3.9 3.7-7.8 5.6-11.7.3-.7.4-1.3.1-2.1-.3-.9-.4-1.8-.2-2.7.2-.7.4-1.5.6-2.2.3-.9.7-1.9.9-2.8.1-.6.5-.9 1-1.1 1.1-.1 2.2-.4 3.3-.7zm64.1 364.8l-.1-.2c-.2-.1-.4-.3-.6-.4-1.4-.7-2.8-1.5-4.1-2.5-1.5-1.1-3.1-2-4.8-2.8-3.3-1.6-6.8-2.3-10.4-2-1 .1-2 .3-3 .7-1.5.6-2.5 1.7-3 3.2-.2.5-.3 1.1-.4 1.7-.1.9-.2 1.9-.2 2.8 0 4-.1 8-.1 12 0 1.8.1 3.6.4 5.4.5 3.2 1.6 6.2 3.1 9.1.9 1.6 1.8 3.2 3 4.7 1.7 2.1 3.8 3.7 6.3 4.7 1.2.5 2.4 1 3.7 1.5 4.5 1.9 9.1 3.6 13.7 5 2.1.6 4.2.8 6.4.6 1.4-.1 2.7-.2 4.1-.3.9-.1 1.9-.1 2.8-.2 2.8-.3 5.3-1.2 7.5-3 1.7-1.4 3.5-2.7 5.3-4.1 3.2-2.5 6.3-5.1 9.3-7.8s5.5-5.8 7.5-9.3c1.2-2.1 2.4-4.2 3.5-6.3 2.7-5.1 5.5-10.3 8.2-15.4 2.1-3.9 4.1-7.7 6.1-11.6 4.1-8.1 8-16.4 11.7-24.8 3.3-7.4 7.2-14.5 11.6-21.4.9-1.4 1.9-2.8 3.1-4.1 2.7-3.1 5.9-5.6 9.4-7.7.4-.2.8-.5 1.2-.7-.2-.4-.4-.7-.5-1-1.6-2.8-3.2-5.7-4.8-8.5-5.4-9.3-10.4-18.9-14.8-28.7-1.7-3.8-3.4-7.5-5.1-11.2-.2-.4-.3-.8-.6-1-.1 0-.2 0-.3.1-2.1 1.7-4.2 3.4-6 5.3-1.3 1.4-2.4 2.8-3.2 4.5-1.2 2.6-2.9 4.8-4.7 6.9-.6.7-1.1 1.4-1.4 2.3-1.8 4.2-3.6 8.5-5.5 12.7-3.4 8-6.6 16-9.4 24.3-3 9.1-6.2 18.1-9.2 27.1-1.7 5-3.4 10.1-5 15.1l-.3.9c.4-.3.6-.6.8-.9 3.3-4.7 7.7-7.6 13.5-8.1 1.8-.2 3.4 0 4.8 1.1l.6.3c.1.1.3.1.5.1.3-1.2.6-2.4.9-3.5.3-1.2.7-2.3.8-3.6-.5.1-1 .1-1.4.2-1 .1-2 .1-2.9-.1-1.1-.2-1.9-.8-2.4-1.8-.3-.6-.6-1.2-.8-1.9-.4-1.3-.6-2.6-.7-3.9-.3-4.9 1-9.4 3.6-13.6 1.2-1.9 2.8-3.2 4.9-4.1 1.4-.6 2.9-.9 4.4-1 1.4-.1 2.6.4 3.5 1.5 1.4 1.7 2.1 3.6 2.1 5.9 0 1.4-.4 2.8-.8 4.1-.8 2.2-1.4 4.4-1.9 6.6-.9 4.3-2 8.5-3 12.8-1.2 5.2-2.5 10.4-3.9 15.6-.9 3.2-2.5 5.9-4.8 8.2-1.9 1.9-4.1 3.6-6.4 5-.7.4-1.5.8-2.3 1-1.3.5-2.7.5-4 .2-2.3-.5-3.9-2-4.9-4.2-.6-1.4-.9-2.8-.9-4.3 0-2 .1-4.1.2-6.1 0-1.1.1-2.3.2-3.4 0-.2 0-.3-.3-.3-.8 1.9-1.6 3.7-2.3 5.6-.4 1.2-.9 2.3-1.2 3.5-1.3 4.6-3.2 8.9-5.9 12.9-.4.6-.8 1.3-1.1 2-.7 1.8-.3 3.4.7 4.9.7-.1 1.3-.2 1.9-.3 1.2-.2 2.5-.4 3.7-.5 2.6-.2 4.5 1.4 5 3.9v.3c.3 1.6.3 3.2 0 4.8-1 5.5-3.9 9.6-8.8 12.2-1.8.9-3.7 1.5-5.7 1.7-3.4.4-6.7-1-7.8-5.2-.7-2.6-.6-5.2.5-7.8.6-1.5 1.5-2.7 2.9-3.5.3-.2.5-.3.7-.5.7-.6 1-1.3.8-2.2-.2-1-.6-1.9-1-2.9-.3.1-.6.1-.8.2-1.3.3-2.5.5-3.8.6-2.3.1-4.3-.7-6-2.3l-.5-.5c-.1-.1-.2-.3-.5-.2-.4.9-.8 1.8-1.2 2.8-.2.6-.3 1.2-.1 1.9.8 1.8 1.1 3.7 1.2 5.6.1 2.2.2 4.5-.1 6.7-.5 3.1-1.9 5.5-4.6 7.2-1.4.8-2.9 1.3-4.5 1.5-.7.1-1.3 0-1.9-.2-.7-.2-1.2-.7-1.7-1.2-2-2.1-3.2-4.6-3.7-7.5-.5-2.8-.3-5.6.1-8.3.1-.9.4-1.8.9-2.7 1.1-2.3 3-3.5 5.4-4.1.9-.2 1.2 0 1.7.8.1.1.1.2.2.3.9-.2 1.7-.7 2.4-1.3.8-.6 1.5-1.4 2.1-2.2 1.1-1.1 2-2.4 3.2-3.4zM117.5 358.3c.4.1.6.2.9.3 1.1.4 2.2.7 3.3 1.2 4.7 2 9.6 3.7 14.5 5.2 8.7 2.5 17.6 4.3 26.5 5.7 3.8.6 7.5 1.1 11.3 1.7 4.4.6 8.8 1.3 13.2 2 4.5.7 9.1 1.5 13.6 2.2.9.1 1.7.3 2.6.4 1.3.2 2.3-.3 2.9-1.4l.3-.6c1.8-3.8 3.6-7.6 5.4-11.3.1-.2.2-.5.3-.7-.3-.2-.5-.4-.7-.6-.7-.6-1.5-1.2-2.2-1.8-.8-.7-1.5-1.6-2.1-2.5-1-1.6-1.3-3.3-.8-5.1.1-.2.1-.4.1-.7-.4-.2-.7-.4-1.1-.6-1.6-.8-3.1-1.6-4.7-2.3-8.1-4-16.3-7.7-24.7-11-6.8-2.7-13.8-5-20.8-7-.2-.1-.4-.1-.6-.1-.1.3-.1.5-.2.7-.3 1.5-1.2 2.3-2.6 2.7-.5.1-1.1.3-1.7.3-1.9.3-3.9.6-5.8 1.2-4.1 1.1-7.7 3-10.8 5.9-2.1 2-4.3 4-6.4 6.1-3.2 3.2-6.3 6.4-9.4 9.7.1 0-.1.2-.3.4zm129.5-5.9c.5 0 .8 0 1-.1.5-.1 1-.2 1.4-.3 2.7-.6 5.3-1 8.1-1.2 4.7-.3 9.4-.5 14-.8 1-.1 2-.1 2.9-.2 1.3-.2 2.2-.9 2.6-2.2.2-.8.3-1.6.4-2.4.1-.9.3-1.8.4-2.7.3-1.7.7-3.4.9-5.1.7-4.7 1-9.4 1.2-14.1.1-3.2.1-6.4.2-9.6 0-1.1-.1-2.1-.4-3.1-.8-2.3-1.6-4.5-2.8-6.7-.4-.7-.7-1.5-.8-2.3-.1-.4-.1-.7-.2-1.1-.8-3.6-1.4-7.2-2.3-10.7-1-4.5-2.5-8.9-4.5-13-.4-.8-.6-1.6-.9-2.4-.5-1.4-.9-2.7-1.4-4.1l-.3-.6c-.3.2-.6.3-.8.6-.6.8-1.2 1.6-1.4 2.6-.8 3.8-1.6 7.5-2.3 11.3-.6 3-1 6.1-1.1 9.2-.1 1.9 0 3.8 0 5.8 0 .3.1.7-.1 1-1.4.5-2.8 0-3.8-.8-.6-.5-1.1-1.1-1.7-1.7l-1.8-1.5c-.1-.1-.3-.1-.5-.2 0 .2-.1.4-.1.5.1 2.8.3 5.6.4 8.4.1 1.8.2 3.5.3 5.3.1 1.3.2 2.6.2 3.8 0 1.9-.3 2.7-2.6 2.8H249c-3.2-.2-6.3-.3-9.5-.5-2-.1-3.9-.2-5.9-.3-1.1-.1-2.2-.1-3.3-.1-.9 0-1.2.4-1.4 1.2 0 .2 0 .4-.1.6-.1 1.1-.2 2.3-.3 3.4-.2 2.3-.4 4.7-.6 7-.2 2-.3 4.1-.5 6.1-.3 2.9-.6 5.9-.8 8.8-.3 3.4-.6 6.8-1.3 10.1v.7c1.1.6 2.2 1.2 3.4 1.6.7.2 1.4.4 2.2.4.4 0 .7-.1 1.1-.3 1.3-1 2.8-1.4 4.4-1.6.9-.1 1.7-.2 2.6-.3 1.2-.1 1.9-.8 2.3-1.9.2-.6.4-1.2.7-1.8 1.9-5.3 3.8-10.5 5.9-15.7.4-.9.9-1.7 1.6-2.3.4-.3.7-.6 1.1-1 .5-.5 1.1-.5 1.8-.3.3.1.5.3.5.7.1.5 0 .9-.1 1.3-.4 1.2-.7 2.4-1.1 3.6-1.2 4-2.6 8-3.6 12-.4 1-.7 2.5-1.1 4.2zm27.9 46.6c-.7-1.2-1.4-2.4-2.1-3.5-1.2-2.1-2.6-4.2-4.1-6.1-1.6-2-3.1-4-4.7-5.9-.6-.8-1.3-1.6-1.9-2.4-.7-1-.8-2-.4-3.1 1.2-2.9 4.9-4.5 7.7-3.1 2.1 1 4.1 2 6.2 3.1 1.9 1 3.6 2.4 5.1 3.9 1.5 1.6 2.9 3.3 4.3 5 .9 1.1 1.5 2.2 2 3.5.5 1.5 1.3 2.9 2.4 4 1.8 1.9 3.5 3.8 5.3 5.7l.2.2c.2.2.6 0 .6-.3s0-.7-.1-1c-.2-.7-.5-1.3-.7-2-2-5-3.9-10-5.9-15.1-.4-1-.9-1.9-1.4-2.9-.7-1.3-1.7-2.3-3-3-2-1.1-4-2-6-3l-3.9-1.8c-.6-.3-1.2-.6-1.8-1 0-.3.1-.6.1-.8.8-.1 1.5-.3 2.3-.4.6-.1 1.1 0 1.7.2l6 2.1c1.4.5 2.7 1.3 4 2.1 3.8 2.4 6.3 5.7 7.6 10 .3 1.2.8 2.4 1.3 3.5.6 1.5 1.4 3 2.1 4.5l.4.4c.1-.5.2-.8.3-1.2.1-.5.2-1 .2-1.6.1-2-.2-3.8-.8-5.7-.4-1.3-.9-2.6-1.3-3.9-.6-1.7-1-3.4-1.2-5.2-.2-2.4-1.3-4.2-3.3-5.6-.7-.5-1.5-1-2.3-1.4-5.7-3-11.4-5.9-17.1-8.8-.8-.4-1.6-.9-2.2-1.5-.1-.1-.3-.2-.3-.4 1.1-.7 2-.9 3.2-.8.8.1 1.5.4 2.2.8 1.6.8 3.2 1.6 4.7 2.4l13.5 6.9c.2.1.4.3.8.2-.2-.3-.3-.6-.5-.9-2.1-3.5-4.5-6.9-7-10.2-1.8-2.3-4.2-3.2-7.1-3-1.4.1-2.8.1-4.2.1-1.6 0-3.2-.1-4.8 0-3.3.1-6.5.5-9.7.8-3 .3-6 .7-9 1.1s-6.1.8-9 1.5c-4.5 1-8.9 2.1-13.3 3.1-.3.1-.5.2-.8.2 0 .4-.1.7-.1 1-.2 2-1.2 3.4-3 4.2-.7.3-1.5.5-2.3.7-.5.1-.9.3-1.4.5-.4.2-.7.4-.9.9l-.3.6c-1.4 3.5-2.7 7-4.1 10.5-.1.2-.1.4-.2.6l.1.1c.2 0 .4.1.6.1 1.6.2 3 .8 4.3 1.7.8.6 1.6 1.3 2.3 2 .7.8 1.4 1.6 2 2.4.6.7 1.3 1.3 2.1 1.7 1.7.9 3.5 1.3 5.4 1 1.3-.2 2.5-.4 3.8-.5 2.1-.2 4.2-.3 6.3-.4 4.2-.2 8.5 0 12.7.2.9 0 1.7.2 2.5.6 1.2.5 2.2 1.1 3.2 1.9.8.6 1.6 1.3 2.4 2 2.9 2.6 5.8 5.2 8.8 7.9.3.3.6.6 1 .8.2.1.3 0 .5-.2zm-145.5-92.3c-1.8.2-3.6.5-5.2 1.1-2.6 1-5.3 2-7.9 3.1-7.2 3-14 6.8-20.1 11.7-6.4 5.1-12.5 10.5-18.1 16.4-2.6 2.7-5.1 5.6-7.4 8.6-.3.4-.6.9-.9 1.3-.3.5-.3 1 0 1.5 1.5 3 2.9 6 4.7 8.9.3.5.6.9.9 1.3.9 1.1 2.1 1.8 3.5 1.9.6 0 1.1 0 1.7-.1 2.9-.5 5.7 0 8.4 1.2.7.3 1.3.6 1.9 1 1 .5 2 1 3 1.6.4-.3.7-.5 1-.8 2.3-1.8 2.3-1.8 5-2.7.1 0 .1 0 .2-.1 2.6-.8 5.3-1.7 7.9-2.5.7-.2 1.2-.5 1.7-1 2-2.1 4.1-4.1 6.1-6.2 2.2-2.3 4.3-4.6 6.4-6.9 1.2-1.2 2.3-2.5 3.5-3.7 3.1-3.1 6.8-5.4 10.9-6.9 3.5-1.3 7-2.5 10.5-3.8.3-.1.6-.3.9-.4 0-.2.1-.4.1-.5 0-1.3.1-2.6 0-4-.1-2-.6-3.9-1.6-5.6-.1-.2-.3-.3-.4-.5-.4.2-.8.4-1.2.5-1.4.6-2.7 1.4-3.8 2.6-.6.6-1.3 1.1-2.1 1.5-1.9 1-3.8 2.1-5.7 3.1-2.8 1.5-5.4 3.1-8 4.9-2.8 2-5.5 4.1-8.3 6.1-2 1.5-3.9 3-5.9 4.4-.7.5-1.5 1-2.4 1.3-1.7.5-3.2.2-4.5-1.1.3-.8.8-1.4 1.4-1.9 2.6-2.1 5.3-4.2 7.9-6.2 4.5-3.4 9.1-6.6 14.1-9.2 3.2-1.7 6.3-3.5 9.4-5.5.2-.2.5-.3.8-.5-.3-2.5-.7-4.9-1-7.4-.6-.2-1.1-.2-1.6-.3-.6 0-1.3 0-1.9-.1-2.3-.3-2.9-.9-3.4-3.1-.2-.7-.3-1.4-.4-2.1.2-.3 0-.6-.1-.9zm58.8 69.9c-.3-.1-.5-.2-.6-.2-1-.2-1.9-.4-2.9-.6-1.5-.4-3-.4-4.5-.1-2.1.5-4.3.4-6.4 0-.4-.1-.8-.1-1.2-.1-.8-.1-1.3.3-1.7.9-.2.4-.4.9-.6 1.3-3.4 8.4-6.5 16.9-9.3 25.5-3.3 10.1-6.3 20.3-9 30.6-.4 1.6-.8 3.1-1.2 4.7-.1.3-.2.6-.1 1 .1 0 .2.1.3.1 13.3.7 26.6 1.5 39.9 2.2h.4c.3-.4.2-.8.2-1.2.1-1.4.2-2.8.2-4.2 0-.5.1-.9.2-1.3.3-1.4-.2-2.5-1.5-3.3-.3-.2-.6-.4-1-.6-3.4-2.2-6.8-4.3-10.2-6.5-.3-.2-.5-.3-.8-.5-.7-.6-1-1.3-.8-2.2.1-.3.1-.7.2-1 .6-2.6 1.3-5.2 1.9-7.8l7.2-31.2c.5-1.8.9-3.6 1.3-5.5zm4.3-204.2h-.2c-.1.2-.2.3-.2.5-1.3 3-2.5 6.1-3.8 9.1-.8 1.9-1.5 3.7-2 5.7-.4 1.7-.6 3.4-.5 5.2.2 2 .8 3.9 1.8 5.7 1.8 3.1 3.4 6.3 5 9.5 1.1 2.3 2.3 4.6 3.7 6.8 4.9 8 11 14.8 18.2 20.8.9.8 1.9 1.5 2.9 2.1 1.6 1 3.4 1.7 5.2 2.1.7.2 1.5.3 2.2.4 1.9.4 3.7 1 5.6 1.6.8.3 1.7.5 2.5.7 1.6.3 3.1 0 4.4-1 .6-.4 1.1-.9 1.6-1.5 3.7-3.9 7.4-7.7 11.2-11.6.5-.5.8-1 1-1.6.8-2.5 1.7-5 2.5-7.5.3-.8.5-1.6.8-2.4.1-.4.4-.8.1-1.2-.4-.5-.8-.1-1.3 0-.6.1-1.2.3-1.8.4-1.3.3-2.5.8-3.6 1.5-1.5.9-3.1 1.7-4.8 2.3-3.7 1.4-7.5 1.7-11.4.9-2.6-.6-5.1-1.5-7.6-2.6-1.1-.5-2.2-1.1-3.3-1.8-2.3-1.4-4.2-3.3-5.7-5.5-.7-1.1-1.5-2.1-2.3-3.1-1.7-2.1-3.4-4.1-5.2-6.1-4.1-4.7-7.6-9.8-10.6-15.4-1-1.8-1.8-3.7-2.4-5.7-.4-1.5-.8-2.9-1.1-4.4l-.9-3.9zm9.8 116.1c.1 0 .1-.1.2-.1 0-.2-.1-.4-.1-.7-2.1-7.8-4.1-15.7-6.2-23.5-2.5-9.1-5-18.1-7.8-27.1-2.2-7.1-4.1-14.3-5.4-21.6-.6-3.4-1.2-6.8-1.5-10.3-.2-2.1-.4-4.2-.5-6.3-.2-3.2-.3-6.4-.2-9.6.1-2.6.1-5.1.2-7.7 0-.4 0-.9-.2-1.4-1-.2-2-.3-3-.3-.9 0-1.5.3-2 1.1-.3.4-.5.8-.8 1.3-1.7 3.4-3.8 6.7-5.8 10-2.5 4.2-5.1 8.3-7.6 12.5-1 1.7-1.8 3.4-2.4 5.2-.5 1.4-.9 2.7-1.4 4.1-.1.2-.1.4-.2.7.3.2.5.4.8.5 1.1.7 2.2 1.3 3.3 2 2.1 1.2 4.1 2.6 6 4.1 5.1 4.2 10.2 8.4 15.4 12.5l.3.3c1.2 1.1 1.4 2.2.7 3.6-1.5 3-3 5.9-4.9 8.7-.6.9-1.2 1.9-1.9 2.8-2.1 3.2-4.3 6.3-6.4 9.5-.2.2-.4.4-.3.8.1.1.2.1.4.2 2.5 1.1 4.8 2.6 6.8 4.4 1.8 1.5 3.5 3.2 5.1 4.8 6.2 6.2 12.5 12.5 18.7 18.8.2.2.4.5.7.7zM270 449.7v-.1c-.3-.2-.6-.4-.9-.7-2.1-1.4-3.5-3.4-3.9-5.9-.2-1-.2-2-.3-3v-2.7c0-.6 0-1.2.1-1.8.3-1.7 1.2-3 2.7-3.9.8-.5 1.6-.9 2.4-1.3 1.3-.6 2.7-1.2 4-1.8.4-.2.8-.3 1.1-.6-.1-.3-.2-.5-.2-.8-.1-.4-.2-.8-.2-1.2-.1-1.5-.1-3.1-.1-4.6-.1-2 .6-3.8 1.9-5.3.2-.2.4-.5.6-.7 1.6-1.7 3.2-3.3 4.8-4.9.3-.3.6-.7.8-1.1 1.2-3 2.5-5.9 3.5-9 .4-1 .4-2-.1-3-.4-.8-.7-1.7-1.2-2.4-1.7-3-3.3-6-5-9l-.3-.3c-.2.2-.3.4-.4.6-.4.6-.8 1.3-1.2 1.9l-1.5 2.4c-.5.8-.6 1.7-.1 2.6.1.3.3.5.4.8 1.3 2.2 2.3 4.6 3.3 6.9.2.4.3.9.4 1.4.2 1.1-.3 1.8-1.4 2.2-.7.2-1.4.3-2.1.2-1.6-.1-3-.5-4.3-1.6-.3-.2-.5-.4-.8-.6-.1-.1-.3-.2-.5-.3-.2.3-.3.6-.4.9l-3.3 7.8c-2 4.6-4.1 9.1-6.1 13.7-2 4.5-3.7 9.1-5 13.8-.9 3.2-2 6.3-3.3 9.3-1.1 2.7-2.3 5.4-3.2 8.2-1.9 5.5-3.5 11.2-5.2 16.8-.6 2.1-1.3 4.3-1.9 6.4-.2.7-.3 1.3 0 2 .7.3 1.3.1 1.9-.2 2.7-1.4 5.6-2 8.6-2 2.4 0 4.7.3 7 .8.2.1.5.1.8.1.6-1.9 1-3.8 1.4-5.6.5-1.9 1-3.7 1.4-5.6l-.9-.6c-2.5-1.8-3.9-4.3-4-7.4-.1-1.8.5-3.4 1.9-4.6.8-.7 1.6-1.3 2.5-1.9 1-.7 2-1.3 3.1-1.9.9-1 2.1-1.7 3.2-2.4zm-21.8-135.8c.2-.5.1-.9.1-1.3v-14.5c0-1.7-.1-3.4-.7-5-.2-.5-.2-1-.3-1.4 0-.8.3-1.3 1.1-1.5.7-.2 1.5-.2 2.2 0 2 .5 3.8 1.2 5.3 2.7.2.2.4.4.7.6.1.1.2.1.4.1 0-.2.1-.4.1-.6 0-.6.1-1.1.1-1.7.2-2.4.4-4.8.5-7.2.1-1.8.2-3.7.3-5.5.1-1.5.3-3.1.5-4.6.4-2.6 1.2-5.1 2.4-7.5.8-1.7 1.3-3.4 1.5-5.3.2-2.9-.4-5.6-1.5-8.2-.3-.8-.8-1.6-1.3-2.5-.7.5-1.3 1.1-1.9 1.6-.4.3-.6.7-.8 1.2l-.9 2.7c-1.3 4.2-2.7 8.4-4.3 12.5s-3.4 8.1-5.7 12c-2.9 4.9-6.4 9.1-10.9 12.6-.8.6-1.5 1.3-2.2 2.1-1.2 1.3-1.9 2.8-2.2 4.5-.1.9-.2 1.7-.2 2.6-.1 1.3-.1 2.6-.2 3.8l-.6 6.3v.7c6.1.3 12.3.6 18.5.8zm18.9 84.2c-.3-.2-.4-.4-.7-.6-2-1.6-4-3.4-5.8-5.2-.6-.6-1.4-1.2-2.1-1.7s-1.4-.7-2.2-.8c-.7-.1-1.5-.2-2.3-.2-2.8-.2-5.6-.3-8.4-.6-.8-.1-1.6 0-2.4.1-1.1.2-2 .7-2.6 1.6-.3.4-.5.7-.7 1.1-.7 1.7-1.4 3.4-2 5.2-.3.9-.2 1.7.3 2.5 1 1.7 1.9 3.4 2.8 5.1 1.9 3.5 3.9 7 6 10.4 1.2 1.8 2.6 3.4 4.3 4.8 1.4 1.1 2.8 2.3 4.2 3.4h.2c.1-.1.2-.1.2-.2 3.9-8.3 7.6-16.6 11.2-24.9zm-28.7 69.8h.3l12.9-35.4c.1-.2.1-.4.1-.6-.3-.2-.5-.3-.8-.5-.7-.4-1.4-.9-2.1-1.3-2.9-2-5.3-4.4-7.4-7.1-2.1-2.7-3.9-5.7-5.6-8.6-1-1.8-2-3.5-3-5.3-.1-.2-.1-.5-.5-.4-.6 1.2-1.2 2.5-1.8 3.7-.4.8-.6 1.7-.6 2.6 0 2-.1 3.9 0 5.9s.2 4 .5 6c.8 4.8 1.6 9.6 2.5 14.4.8 4.5 1.7 9 2.6 13.6.7 3.3 1.3 6.7 2 10l.9 3zm73.4-161c.2 0 .3.1.3.1 1.1-.4 2-1 2.9-1.7 1.3-1.3 2.1-2.8 2.6-4.6.4-1.6.7-3.3.7-4.9v-4.6c0-2.9 1-5.6 2.9-7.8.7-.8 1.1-1.6 1.3-2.6 2.2-8.1 4.5-16.2 6.8-24.3.6-2.3 1.2-4.7 1.8-7 .5-2.1.5-4.3.3-6.4-.5-3.8-2.2-7-4.9-9.6-3.3-3.1-6.9-5.7-10.8-7.8-.4-.2-.9-.4-1.3-.6-1.6-.7-3.1-.7-4.7-.2-.3.1-.7.2-1 .2-1.1.1-1.7-.3-2.1-1.3-.1-.2-.1-.4-.2-.6-.2-.4-.6-.6-1-.6s-.8.4-.9.9v.2c-.3 1.5.1 2.9 1.4 3.8.1.1.2.1.3.2 4.8 3.8 9.5 7.7 14.2 11.7.8.7 1.6 1.5 2.3 2.3 1.2 1.3 2 2.8 2.4 4.5s.6 3.4.4 5.2l-.3 3c-.4 3.1-1 6.1-2 9.1-.6 1.8-1.2 3.6-1.7 5.4-.6 1.9-1.1 3.9-1.3 5.8-.3 2.5-.8 5-1.4 7.4-1.8 6.9-3.6 13.7-5.4 20.6-.8 1.2-1.2 2.7-1.6 4.2zm-57.2-76c-.4.3-.7.6-1 .8l-3.9 3.6c-3.5 3.3-7.4 6.1-11.7 8.3-1.6.8-3.1 1.6-4.7 2.5-.3.2-.6.4-.9.5v.3c1 2.9 2.2 5.6 3.7 8.2.2.3.3.6.5.9.5.7 1.1 1.3 2 1.6 1.1.4 2 1.1 2.7 2 .3.4.7.8 1 1.2 1.2 1.6 2.3 3.3 3.4 4.9.1.2.3.4.6.6.5-1.1.9-2.1 1.4-3.1 3.3-7.3 6.5-14.6 9.8-21.9.5-1 .6-2 .1-3-.9-2.2-1.8-4.4-2.6-6.6l-.4-.8zM296.2 453c-.3.1-.5.2-.7.3-3.5 1.7-7 3.3-10.5 5-.3.2-.7.3-1 .5-.8.5-1.4 1.1-1.7 1.9-.2.6-.5 1.2-.8 1.8-2.3 5.1-4.5 10.1-6.6 15.3-.7 1.9-1.2 3.8-1.3 5.8-.1 1.9.1 3.8.8 5.6.6 1.7 2 2.6 3.6 3.1.2.1.5.1.8.1 1.3-.1 2.4-.5 3.1-1.5.3-.4.6-.7.8-1.1.5-.9 1-1.9 1.4-2.8 1.3-3.2 2.5-6.4 3.8-9.6 3-7.7 5.8-15.4 8.1-23.3 0-.4.1-.7.2-1.1zm-78.6-205.7c-.8-1.3-2.2-3-3.2-3.9-2-1.8-3.9-3.7-5.9-5.5-2.7-2.4-5.3-4.9-7.9-7.5-3.2-3.3-6.2-6.9-8.5-11l-3-5.1c-.1-.2-.2-.6-.6-.7 0 .3 0 .6.1.9.2 1.4.5 2.8.7 4.2 1 5 2.3 9.8 3.8 14.7 1.9 6.2 3.9 12.4 5.9 18.5l.3.6c1-.1 17.2-4.8 18.3-5.2zm131.7 114c.1.3.1.5.2.7 1 2.9 2 5.7 2.9 8.6.2.7.6 1.4 1.2 1.9.9.8 1.7 1.6 2.6 2.3 1.1 1 2.1 2.1 2.9 3.3 3.9 5.6 7.7 11.4 11.3 17.2 1.4 2.2 2.3 4.5 3.1 6.9.1.4.2.8.1 1.2-.3 1.7-.5 3.4-.7 5.2-.2 1.2 0 2.4.8 3.4.4.6.8 1.2 1.1 1.9 1.1 2.5 2.8 4.5 5 6 1.7 1.2 3.4 2.2 5.3 3.1h.4c-.1-.3-.1-.5-.1-.7l-1.2-5.1c-.5-2.2-1-4.5-1.5-6.7-.7-2.8-1.8-5.5-3.4-8-6.9-10.5-13.9-21-21.2-31.4-.7-1-1.4-2-2.2-2.9-2-2.3-4.1-4.5-6.2-6.8 0 .1-.1 0-.4-.1zM215.8 250.7c-1.1.3-14.5 6.3-15.3 6.9 2.9 8.8 5.7 17.7 8.6 26.5 0 .1.1.2.2.2.4.1.6-.1.7-.4.1-.6.2-1.1.3-1.7.4-2.4.8-4.8 1.3-7.1.7-3.4 1.5-6.8 2.2-10.2.5-2.4 1.3-4.6 2.8-6.6.2-.3.3-.7.3-1.1l-.3-1.8c-.3-1.5-.6-3.1-.8-4.7zm86.1 179.9c0 .1.1.1.1.2s0 .2-.1.3c-.5 1-1.2 1.6-2.2 2.1-.6.3-1.3.5-1.9.7-.8.3-1.6.6-2.5.9-.7.3-1.3.8-1.6 1.5-.6 1.4-1.5 2.6-2.6 3.7-1.2 1.3-2.7 2.4-4.1 3.3-1.1.7-2 1.7-2.8 2.8-.8 1.1-.8 2.2-.4 3.4 1.2.1 2.3-.2 3.2-1l5.1-4.5c1.6-1.3 3.1-2.9 4.4-4.5.6-.8 1.3-1.5 2-2.2 1-1.1 2.2-2 3.6-2.5.5-.2.8-.5.9-1 .1-.3.2-.5.2-.8.5-1.6.9-3.3 1.4-4.9.6-2 1.2-4 1.8-5.9.6-2 .1-3.8-1.5-5.1-.1.1-.3.2-.4.4-.5.5-1 1.1-1.6 1.6-3.7 3.2-7.4 6.4-11.1 9.7l-2.7 2.4c-.7.6-1.1 1.4-1.4 2.3-.1.6-.1.9.5 1.3 1.5-.4 3-.9 4.5-1.3 1.5-.5 3-.9 4.6-1.3 1.6-.7 3.1-1.2 4.6-1.6zm-7.9-7c.2-.1.4-.2.7-.4.6-.4 1.1-.7 1.7-1.1 1.5-.9 2.9-2 4.1-3.3 1.9-2 3.5-4.3 5.1-6.6.3-.4.4-.8.4-1.3 0-1 .1-2-.1-3-.3-1.5-.9-2.9-1.7-4.2-1-1.4-2-2.7-3-4.1-.1-.1-.2-.1-.2-.1-.1.1-.1.1-.1.2-.5 2.2-1.1 4.3-1.4 6.5s-1.1 4.1-2.4 5.9l-1.5 1.8c-1.5 1.7-2.4 3.7-3.1 5.9-.7 1.6-.1 2.9 1.5 3.8zm-61.9-134.9c.2-.1.4-.1.5-.2.2-.2.5-.4.7-.6 4.3-4.1 7.4-9 9.7-14.5.3-.7.2-1.3-.2-1.9l-6-8.4c-.1-.1-.2-.3-.4-.4-.1.2-.2.3-.2.5-1.3 8.3-2.7 16.6-4 24.9-.1.3-.1.4-.1.6zm65.4 59.4c.6-.4 1.2-.8 1.7-1.3 1.5-1.3 3-2.6 4.7-3.6.6-.3 1.1-.8 1.6-1.3.8-.8 1.2-1.9 1.1-3l-.3-1.8c-.1-.7-.4-1.3-.5-2-.4-2.8.3-5.3 2.3-7.4.6-.6 1.2-1.2 1.9-1.7 1.3-.9 2-2.2 2.2-3.7.2-.9 0-1.7-.5-2.5-.7-1.1-1.4-2.1-2.1-3.2-.1-.2-.2-.3-.5-.6-4 10.8-7.8 21.4-11.6 32.1zm-6 64.3c-.9-.6-1.8-1-2.8-1.2-2.2-.5-4.1.2-5.3 2.1-.4.7-.7 1.4-1 2.2-.5 1.7-.9 3.3-1.4 5-.3 1-.2 2.1 0 3.1.3 1.1.8 2.1 1.6 3 .3.3.7.6 1.1.8 1.2.6 2.4 0 2.9-1.1.1-.3.2-.7.3-1.1.3-1.1.5-2.1.8-3.2.8-2.8 1.9-5.4 3.2-8 .3-.4.7-.9.6-1.6zm15 69.1c.9-.1.9-.1 1.2-.6 1.1-1.7 1.9-3.6 2.4-5.6 1.1-3.7 1.3-7.6 1.3-11.4 0-.4-.1-.8-.2-1.2-.2-.8-.6-1.4-1.4-1.6-.5-.1-.9-.3-1.4-.3-1.1-.1-2.1.3-2.8 1.2-.1.1-.1.3-.2.5h2.4c-.1.8-.5 1.4-.9 1.9-1.1 1.5-1.9 3.2-2.3 5-.5 2.2-.4 4.4-.2 6.6.3 3 .4 2.9 1.9 5.3 0 .1.1.2.2.2zm14.6-256.7c.3.4.6.6 1 .8 2.2 1.6 4.4 3.1 6.5 4.9 1.4 1.2 2.7 2.5 3.9 4 1.4 1.7 2.4 3.7 3 5.8.4 1.3.6 2.7.7 4.1 0 .4 0 .7.2 1.2.5-.5.6-1 .8-1.4.7-1.8.9-3.6.9-5.4 0-1.3-.2-2.6-.6-3.8-.4-1.4-1.1-2.6-2.2-3.5-.4-.3-.7-.6-1-.9-.6-.5-1.1-1.1-1.4-1.8-.7-1.7-2-2.7-3.6-3.4-1.9-.8-3.9-1.2-6-1-.8 0-1.5 0-2.2.4zm-53.6 258.1c.1-.4.2-.6.3-.8.9-2.7 1.8-5.4 2.7-8 .7-2 1.3-3.9 2-5.9.1-.2.3-.5 0-.8-2.1.5-4.2 1-6.4 1.5-.1.4-.2.7-.3 1-.4 1.6-.9 3.1-1.3 4.7l-.9 3.6c-.3 1.5.1 2.6 1.4 3.4.8.5 1.6.9 2.5 1.3zm-46.9-122.1c1.1-.1 2-.2 2.8-.7.9-.5 1.2-1.3 1.1-2.3 0-.2-.1-.4-.2-.7-.5-1.3-1.1-2.4-2-3.4-2.2-2.4-5.2-2.6-7.8-1.5-1.9.8-2 2.2-1.2 3.7.2.3.4.6.7.9s.7.7 1.1 1c1.5 1.1 3.2 1.9 4.8 2.8.2.2.5.2.7.2zm57.2 72.4l-.3.6c-1.1 3-2.2 5.9-3.3 8.9l-.3.9c-.1.5 0 .9.4 1.2.2.2.5.4.8.5.9.4 1.9.6 2.9.6.9.1 1.5-.3 1.8-1.1.9-2.4 1.9-4.8 2.9-7.2.1-.1.1-.3.1-.4-.7-.8-4.2-3.6-5-4zm10.2 67.1v.6c.1.6.2 1.1.3 1.7l.6 3.3c.2 1.1-.2 2-.9 2.8-.9 1-2.1 1.7-3.5 2-.3.1-.6.1-.9.1-.6 0-.9-.3-1-.9-.1-.3-.1-.7-.1-1 0-.6-.3-1.2-.6-1.7 0-.1-.2-.1-.3-.1-.1 0-.2.1-.2.2v.3c.4 1.3.7 2.5 1.1 3.8.2.6.5 1.2.8 1.7.5.8 1.2 1.4 2.1 1.6 1.7.5 3.4-.2 4.3-1.8 1.7-3 2.3-6.2 1.8-9.6 0-.4-.1-.7-.3-1.1-.5-1.3-1.6-2-3.2-1.9zm11.9-59.3c-.3.2-.5.3-.6.4-.8.7-1.6 1.4-2.4 2-3 2.4-5.9 5.1-9 7.4-.2.2-.5.4-.7.6s-.3.4-.5.6c-.3.6-.2 1.2.2 1.8.4.5 1 .7 1.6.5.5-.2.9-.4 1.3-.7l2.7-2.1c1.4-1.1 2.7-2.3 4.2-3.3 1-.7 1.8-1.6 2.3-2.7.7-1.3.9-2.7.9-4.5zm19.9 5.5c.2-.3.2-.4.3-.6l1.5-4.2c.5-1.5.9-3 1.1-4.5.3-2.1.2-4.2-.7-6.2-.2-.4-.3-.8-.5-1.3 0-.1-.1-.2-.2-.3-.3.1-.6.1-.8.2-.6 2.2-1.1 4.3-1.6 6.4-.5 1.9-.7 3.9-.6 5.8.1 1.7.6 3.2 1.5 4.7zM343 239.8c-.1 0-.1 0-.2.1v.4c-.2 3.3-1.3 6.2-3.3 8.7-.8 1-1.7 1.8-2.6 2.7-.5.5-1 1.1-1.5 1.7-.3.4-.6.9-.8 1.3l-.3.6.9.3c1.4.4 2.7.1 3.7-1 .2-.2.4-.4.6-.7.6-.7 1.2-1.4 1.7-2.1.5-.6.9-1.2 1.3-1.9 1.1-1.9 1.5-4 1.5-6.2 0-1.2-.2-2.4-.6-3.5-.1 0-.3-.2-.4-.4zm-58 168.6c.3 0 .6 0 .9-.1 2.6-.5 5.3-1 8-1.6 0-.3.1-.5.1-.7.2-2 .1-2.3-1.5-3.6-1.1-.9-2.3-1.7-3.5-2.5-.2-.1-.4-.2-.5-.3-.9 1.7-3.4 8-3.5 8.8zm-11.9-20.2c.2-.6.4-1.1.6-1.7.4-1.2.8-2.4 1.1-3.7.3-1 0-1.7-.9-2.2-1.4-.9-2.9-1.7-4.3-2.5-.8-.4-1.8-.5-2.7-.4 0 .3-.1.6-.1.8-.2 1.1.1 2.1.8 2.9l5.1 6.3c.1.3.2.4.4.5zm-2.8 75.9c1.5 0 2.4-.5 3.1-1.4.9-1.1 1.3-2.5 1.4-3.9 0-.2 0-.5-.1-.7l-1.2-2.4c-.2-.3-.4-.6-.7-.8-.7-.6-1.6-.5-2.2.2-.2.3-.4.6-.5 1-.6 1.7-1.1 3.4-1.7 5-.1.2-.2.5-.2.8-.1.8.3 1.5 1 1.8.4.3.9.4 1.1.4zM299.9 359c.2-.5.3-.8.4-1.1.6-1.8 1.2-3.7 1.8-5.5.8-2.4 1.5-4.7 2.3-7.1.1-.3.3-.6 0-.9-1.2.1-2.2.8-3 1.7-.8.9-1.3 1.9-1.7 3-.8 2.3-.9 4.7-.6 7 .2 1 .3 1.9.8 2.9zm23.1-54.6c-.5.1-1.1.3-1.7.5-.4.1-.8.1-1.2.1-.4 0-.8.1-1.2.2-.4.1-.7.4-.8.9v.8c1.1.4 4.3.9 5.1.9.5-1.4 1-2.7 1.2-4.2.2-1.1-.1-2.1-.9-2.9s-1.7-1.4-2.6-2.1c-.1-.1-.3-.1-.5-.1-.5 1.2-1.3 4-1.3 4.9l2.7.3c.4 0 .8.1 1.1.2.2-.1.3.2.1.5zm-7.9 51.8c-.9-.5-3.1-1.2-4-1.2-.6 0-1.1.2-1.5.7l-.6.9c-.5.9-1 1.8-1.7 2.6-.1.1-.1.2-.2.4l6 1.8c.6-.9 1.9-4.4 2-5.2zm-115.9-29.8c-.2.3-.3.5-.4.7-2.2 4.2-4.3 8.4-6.5 12.5-.1.2-.1.4-.2.6.6.2 1.1.5 1.6.7.6.2 1.1.5 1.7.6.4-.9 2.8-9.7 3.9-14.4.1-.2.2-.4-.1-.7zm103.3-176.2c-.5.8-3.2 6.5-5.6 11.9v.4c.2-.1.4-.2.5-.3 3.1-2.1 5.3-5 6.6-8.5.2-.5.2-1 .3-1.4 0-1.1-.6-1.8-1.8-2.1zm-.8 230.1c.1-.4.2-.7.3-.9l2.4-11.7c.1-.4.2-.8.1-1.2-1.2-.7-4.3-2-5.2-2.2.2.8.3 1.6.8 2.2.2.3.5.7.7 1 1.2 2.1 1.6 4.3.8 6.6l-.6 2.1c-.2.7-.2 1.4-.2 2.1.1.7.3 1.3.9 2zm3.4-30.4c1 .4 1.8.6 2.7.5.9 0 1.7-.3 2.3-1 .9-.9 1.6-3 1.5-4.4-.9-.7-1.9-1-2.9-1.1-1.2-.1-1.9.3-2.3 1.4-.4 1.6-.8 3.1-1.3 4.6zm-46.4 151.8c-.3.2-.4.3-.5.4-.5.6-.7 1.3-.6 2 .1 1.2.1 2.4.2 3.6.2 2.6 1.3 4.8 2.9 6.7.1.1.2.1.4.2 0-.2.1-.3.1-.4v-9.3c0-.2-.1-.4-.1-.6-.8-.2-1.6.1-2.3-.2-.1-.7-.1-1.4-.1-2.4zm69.5-189.1c-1.8-.5-5.5-1.1-6.4-1.1-.3 1.3-.6 2.6-.7 3.9 1.4.7 4.6 1.9 5.5 2 .6-1.6 1.1-3.1 1.6-4.8zm-12.4-6.1c-2.1.8-4.1 3.2-4.4 5.4-.2 1.2 0 2.4.5 3.5.3.6.5 1.2 1.1 1.6 1-3.5 1.9-6.8 2.8-10.2.1 0 0-.1 0-.3zm5.4-14.3c-.6 2.3.8 5.2 3.7 6.1.4-1 .7-2.1 1-3.1.1-.3.1-.5.1-.8 0-.9-.3-1.4-1.2-1.7-1.1-.3-2.3-.5-3.6-.5zM199.1 431.9c.6-.2 1.1-.6 1.5-1 2.1-1.7 4.2-3.4 6.4-5.1.3-.3.6-.5.9-.8.3-.3.5-.6.5-1 .1-.8 0-1.6-.3-2.4-.4.2-.4.6-.6 1-.5.8-.9 1.6-1.5 2.4-.7.9-1.7 1.4-2.8 1.3h-.9c-1.2 1.7-2.9 4.7-3.2 5.6zM321.8 335c-.9-.3-1.6-.5-2.4-.7s-1.5-.6-2.3-.5c-.2 1.3-.4 2.6-.6 4 .8.2 1.6 0 2.5.2l.6 1.8c0 .1.1.2.2.3.2-.1.4-.1.7-.2.4-1.7.9-3.2 1.3-4.9zm5.9-45h2c.4 0 .8 0 1.1-.1 1-.1 1.6-.7 1.9-1.5.4-.8.1-1.6-.6-2-.2-.1-.5-.2-.7-.3-.9-.2-1.8-.3-2.7-.5-.4 1.5-.7 2.9-1 4.4zm-8.8 32.6c.3-.8.5-1.6.8-2.4.2-.8.6-1.6.6-2.4-.7-.1-4.1.1-4.7.2-.5.1-.7.4-.8.8-.1.4-.1.8.3 1.1 1.2.9 2.3 1.8 3.5 2.7h.3zm-108.4 54.9c.9-.2 1.3-.6 1.7-1.1.6-.8 1.1-1.6 1.6-2.5 1.4-2.5 2.2-5.3 2.7-8.1v-.5c-2.1 3.9-4 7.9-6 12.2zm64.8 56.2c-3.2 1.3-4.8 4.9-3 8.2 0 .1.2.1.3.2.9-2.8 1.8-5.5 2.7-8.4zm20.9-79.2c-.8.7-1.2 1.5-1.5 2.2s-.3 1.3.1 1.9c.8 1.2 1.7 2.4 2.5 3.6 0 .1.2.1.3.1-.4-2.6-.8-5.1-1.4-7.8zm-10.8-171.1c.4.4.5.4.8.1.9-.8 1.6-1.8 2.2-2.9.8-1.7 1.2-3.5 1.4-5.3l-.1-.1c-.6.6-3.8 6.8-4.3 8.2zm-73.6 157.8c.5-1 3.1-9.6 3.3-10.5-.2-.1-.5-.2-.7.1-.1.1-.1.3-.2.4-1 3-2.1 6.1-3.1 9.1-.1.2-.1.4-.1.7.3 0 .6.1.8.2zm54.6 119.3l.2-.2c.6-2 1.3-3.9 1.9-5.9 0 0 0-.1-.1-.1h-.1c-2.3 1.5-3.1 4-1.9 6.2zM308.3 334c.8-2.2 1.5-4.3 2.2-6.5-.3-.1-.6-.2-.8-.3-.4.7-1.9 5.3-2.2 6.4 0 .1 0 .1.1.2.1 0 .1.1.2.1s.3 0 .5.1zm-115.7 87.4c-.6.5-1.9 2.3-2.5 3.4.6.4 1.3.8 2.1 1 .2-1.2.5-3.7.4-4.4zm90.9-206.1c1.7 1 3.4 2 5 2.8.2.1.4.1.5.1.5-.2.9-.4 1.3-.8-1.2-.6-5.9-2-6.8-2.1zm28 127c-1-.7-2-1.4-3.2-1.9-.2.7-.5 1.3-.5 2 1 .2 2.7.2 3.7-.1zm-9.7 20c.7.7 2.4 1.7 3.4 2.1l.3-1.2c.1-.6-.1-.9-.7-.9-1-.1-1.9-.1-3 0zm-2.5-137l-1.5-.6c-.5-.2-.9-.3-1.4-.5s-.9-.5-1.5-.4c-.1.1-.1.2-.2.3v.2c1.1.6 4 1.7 4.3 1.6.2-.1.2-.3.3-.6zm-11.8 214.8c.5.2.5.2.7 0l1.5-2.7c.1-.2.1-.3.2-.5-.3-.1-.5-.2-.7-.3h-.3c-.5 1.1-1 2.3-1.4 3.5zm1.9-229.1c1.5.5 3.1.9 4.7 1.2.1-.3.1-.5.1-.8-1.6-.3-3.2-.5-4.8-.4zm-15.3 221.6c-.6-.2-1.1-.3-1.7-.2-.8.1-.9.3-.8 1.1 0 .3.1.6.4.8.7-.6 1.5-1 2.1-1.7zm5-218.8c-.8-.8-1.7-1.4-2.3-1.6.3 1 1 1.5 2.3 1.6zm-2.8-4.1c.1.6 0 1 .5 1.6-.1-.6.3-1 .1-1.5-.1 0-.2-.1-.6-.1zm10.2-134c-.4-.3-.8-.5-1.5-.8.4.6.8.9 1.2 1.1.2-.1.3-.2.3-.3zm27.4 247.5v.2c.3.2.9.1 1.1-.1v-.2c0-.1-.1-.1-.2-.1-.3 0-.6 0-.9.2zm-3.3 11.8c-.5.4-.6.8-.7 1.1 0 .1.1.2.2.3.1 0 .3 0 .3-.1 0-.4.1-.8.2-1.3zM218.1 84.9c.1-.1.1-.2.2-.3l-.1-.1c-.1 0-.2.1-.2.1 0 .1 0 .2.1.3zm108.6 190.9c-.2 0-.3-.1-.3 0-.1.2-.2.4.1.6 0-.3.1-.4.2-.6zm-23.3-57.7c-.1 0-.2-.1-.2-.1 0 .1-.1.2-.1.2 0 .1.1.1.2.2 0-.1.1-.2.1-.3zM255.2 63.8c.1 0 .2-.1.2-.1l-.3-.3c0 .1-.1.1-.1.2.1.1.2.1.2.2zm-34 191.6h-.1s0 .1.1 0c-.1.1 0 .1 0 0zM304 354s0-.1 0 0c-.1-.1-.1-.1 0 0-.1 0-.1 0 0 0-.1 0-.1 0 0 0zm7-20.8z"/><path class="st0" d="M221.2 255.4c0 .1-.1.1 0 0h-.1.1zm-80.7 166c-.1.6-.2 1.4-.3 2.3-.4 1.7-1.4 2.9-2.7 3.9l-.6.3c-1 .5-1.8.3-2.4-.7-.5-.7-.8-1.5-.9-2.4-.3-2.4.4-4.5 2.2-6.1.6-.6 1.4-1 2.2-1.2 1.2-.3 1.9.1 2.3 1.2.1.2.1.4.2.7-.1.5-.1 1.1 0 2zm49.7-101.7c.1 0 .3 0 .4.1.5.2 1.1.5 1.6.8.2.1.4.2.5.4.3.3.4.6.2 1-.4.9-.9 1.7-1.6 2.4-.5.5-1 .9-1.2 1.6-.1.2-.3.5-.4.6-.4.4-.9.6-1.6.4-.6-.2-1.1-.5-1.4-1-.5-.8-.9-1.7-.9-2.6 0-1 .3-1.8 1-2.4 1-.9 2.2-1.2 3.4-1.3zM259 191.9c.2.3.5.6.7 1 .6 1 .5 1.7-.2 2.6-.1.1-.2.3-.3.4-.3-.3-.5-.4-.7-.6-.6-.5-1.3-.7-2-.4-.4.1-.7.2-1 .4-2 1.2-4.3 1.7-6.6 1.9-1.4.1-2.7.2-4.1.3-.9.1-1.9 0-2.8-.2-2.2-.6-4.3-1.3-6.3-2.3-4.2-2.1-7.2-5.4-9.4-9.5-.8-1.5-1.4-3.1-2-4.7-.2-.5-.4-1.1-.6-1.6-.3-.5-.7-.9-1.3-1l-1.2-.3c.6-.8 1.6-1.5 2.4-1.7.7-.1 1.4 0 1.9.5l1.2 1.5c.4.6.7 1.2 1.1 1.8 1 1.6 2.4 2.7 4.2 3.2 2.2.7 4.3 1.6 6.4 2.5.7.3 1.1.8 1.3 1.5.4 1.3 1.4 1.8 2.6 1.8.4 0 .8-.1 1.2-.1h1.4c1.5.1 2.8.7 3.8 1.7 1.3 1.3 2.9 1.9 4.8 2.1 1.8.2 3.5 0 5.2-.9.1.2.1.2.3.1zM222.1 127c0-.3.1-.5.1-.6.1-.1.1-.2.2-.2 2.7-1.1 5.5-2.3 8.4-3 1.4-.3 2.9-.5 4.4-.6 1.8 0 3.5.4 5.1 1.3 1.9 1 3.5 2.4 5 3.8 1.7 1.6 3.1 3.4 4.5 5.2l3.9 5.1c.1.1.2.3.3.5-.3.7-.7 1.4-1.3 1.9-.7.7-1.5.8-2.3.1-.4-.3-.7-.7-1-1.1-1.4-2-3.3-3.6-5.2-4.9-1.5-1-3-2-4.5-3.1-2.1-1.4-4.5-2.1-7-2.3-1.7-.2-3.5-.2-5.2-.1-.7 0-1.4-.1-2-.3-1.2-.5-2.3-1.2-3.4-1.7zm41.7 22.4c-.2.9-.3 1.5-.4 2.1-1.1 5.1-2.2 10.3-3.2 15.4-.3 1.3-.5 2.7-.1 4 .1.3.1.7.3 1 .7 1.5.9 3.1 1 4.7v1.4c0 1.5-.6 2.7-1.9 3.4-1.4.9-3 1.5-4.6 1.7-.8.1-1.7-.1-2.4-.5-.9-.6-1.8-.8-2.9-.8-2.6-.1-4.8-1.1-6.5-2.9-.4-.4-.8-.9-1.3-1.3-1-.8-2.1-1.2-3.4-.8-1.1.3-2-.1-2.8-.9-1.4-1.4-2.2-3.2-2.3-5.1-.1-.7 0-1.5.1-2.2.2-1.2.9-2.2 1.8-3 .7-.6 1.4-1.1 2.2-1.6.7-.5 1.4-.9 2.2-1.3.2.3.3.6.5 1-.3.4-.7.7-1 1.1-.7.8-1.4 1.6-2.1 2.3-.3.3-.5.6-.7.9-1.2 1.7-1.2 3.6.1 5.2.3.4.7.7 1.2 1.1.6.4 1.2.6 1.9.3 1-.3 1.9-.2 2.8.4.5.3.9.8 1.4 1.1 1.2.8 2.3 1.7 3.5 2.5 1.6 1 3.5 1.3 5.3.9 1.2-.2 2.2-.9 2.9-1.9.6-.8 1-1.8 1.3-2.8.3-1.4.6-2.7.9-4.1.9-4.9 1.8-9.9 2.7-14.8.3-1.4.7-2.8 1.3-4.1.4-.9 1.1-1.6 2.2-2.4zm-8.9 31.5c.5 0 1 .1 1.5 0 .6 0 1.1-.4 1.4-1 .2-.5.3-.9.4-1.4.2-1 .3-2 .4-3 0-.1 0-.2-.1-.3-.1.1-.2.1-.2.1-1.1 1.7-2.3 3.4-3.4 5.2v.4zm12.2-31.5c.1-.2.1-.3.2-.5.4-.7.9-1.3 1.3-2 .8-1.1 1.9-1.5 3.2-1.3 1 .2 1.9.4 2.9.6 1.3.2 2.7.4 4 .6 1.8.2 3.5.3 5.3.4h.6c4.3-.1 8 3.7 8.7 7.2.3 1.7.7 3.4.9 5.1.1.9-.3 1.4-.8 2-.2.2-.5.2-.7.2-.8-.1-1.5-.4-2.3-.7-.4-.2-.7-.5-.8-.9-.1-.4-.2-.7-.3-1.1-.9-2.4-2.5-4.2-4.7-5.4-1.3-.7-2.7-1.1-4.1-1.3-3.3-.5-6.5-1.3-9.7-2-1.3-.4-2.5-.6-3.7-.9zm-23.7-4.9c-.7-.5-1.1-1.2-1.5-1.7-.5-.6-1-1.2-1.5-1.7-.5.3-.7.7-1.1 1.1-.3.4-.7.8-1 1.2s-.7.7-.9 1.2c.7.3 1.3.4 2 .6.4.1.9.2 1.3.4.1 0 .2.2.2.3s-.2.3-.3.3c-1.1 0-2.1-.1-3.1-.3-1.7-.4-3.2-1-4.6-2.2-1-.9-2-1.8-2.9-2.7-.7-.7-1.4-1.4-2.1-2-.7-.6-1.4-1.1-2.4-1.1-1.4-.1-2.1-1-2.5-2.3.7-.3 1.2 0 1.8.2.1-.2.2-.4.4-.6.4-.7 1-1 1.7-.9.5.1 1 .2 1.4.4.4.1.8.4 1.1.5.7.3 1.3.3 1.8-.4 0-.1.1-.1.2-.1 0 0 .1 0 .2-.1 1.4.5 3 1 4.5 1.7 1.9.8 3.6 2.1 5 3.6 1.1 1.2 1.8 2.6 2.3 4.1v.5zm-11.9-3.3c.3-.7.6-2 .6-2.9-1-.3-2.5-.5-3.3-.5.4.8 2 2.8 2.7 3.4zm6.9-1.2c-.5-.2-.8-.4-1.1-.5-.7.6-.6.9.3 1.3.2-.1.4-.4.8-.8z"/><path class="st0" d="M276 161c.9.3 1.8.3 2.7.5.8.2 1.7.1 2.6.5-.6.3-1.2.4-1.7.4-1.5.1-3-.2-4.5-.7-1.9-.7-3.7-1.7-5.4-2.9-.1-.1-.1-.2-.3-.3.4-.1.8-.2 1.2-.2.1-.8 0-1.6-.1-2.3-.3-.3-.6-.1-.9-.1-1 .1-2 .3-3 .4h-.5c.1-.2.1-.4.1-.5.9-1.5 2.3-2.2 4-2.3 1.2-.1 2.3.1 3.5.3 1.7.3 3.4.8 5 1.4 1.2.4 2.4.9 3.6 1.3.7.2 1.2.6 1.7 1.1.3.3.6.6.9 1-.1.2-.2.4-.4.7.4.2.7.5 1.1.8 0 .3-.2.3-.3.4-.1.1-.2.2-.4.3.2.2.3.4.4.6.2.3.1.6-.2.8-1.3-.3-2.7-1-3.6-2-.5-.6-1-1.3-1.5-2-.3-.3-.5-.7-.7-1-.8.7-2.9 3-3.3 3.8zm-.3-4.7c-.4.2-.4.5-.5.8 0 .3.1.5.4.6.2.1.4 0 .6-.2 0-.1.1-.1.1-.3-.2-.3-.3-.6-.6-.9zm-43.3-3.8c-.7 0-1.2-.1-1.7-.2-.8-.2-1.6-.6-2.3-1.1-2.6-1.7-4.5-4-5.6-7-.3-.7-.5-1.4-.5-2.3.7 1.2 1.3 2.2 2 3.2s1.5 2 2.3 2.9 1.7 1.7 2.7 2.4c.9.8 1.9 1.4 3.1 2.1zm35.3 13.3c1.1.2 1.5.5 2.3 1.1.7.5 1.5 1.1 2.2 1.5 1.4.8 2.9 1.2 4.5 1 .8-.1 1.6-.3 2.4-.5.3-.1.5-.2.8.1-.1.1-.1.2-.2.3-.7.6-1.5.9-2.4 1-3.3.3-6.2-.8-8.6-3-.2-.2-.4-.5-.6-.8-.1-.2-.2-.4-.4-.7zm-21.8-48.3c-3.5-.4-7-.8-10.4-1.2-.1-.2 0-.3.1-.4.5-.1.9-.3 1.4-.4 2.8-.3 5.5 0 8 1.2.3.2.7.3.9.8zM222 171.4c-.1.2-.1.4-.2.5-.3.5-.7.9-1.2 1.1-1.5.8-3.2 1.1-4.9 1.4v-.4c.2-.6.6-1 1-1.3 1.3-1 3.5-1.6 5.3-1.3zm17.9 32.5c-1-.2-6.2-2.5-10.2-4.4-.2-.1-.3-.2-.5-.4.7-.1 1.2 0 1.8.1 2.1.5 4 1.3 5.8 2.4.9.6 1.8 1.2 2.7 1.9.2.1.2.2.4.4zm23-16.2c1.2.7 2 1.5 2.7 2.6.4.7.7 1.5.4 2.4 0 .1-.1.2-.2.3-.1-.1-.3-.2-.4-.3L263 190c-.1-.2-.3-.4-.4-.5-.5-.7-.4-1 .3-1.8zm27.9-48.6c.7-.2 1.2-.1 1.7 0 .7.2 1.2.6 1.7 1 1 .9 1.7 1.9 2.3 3v.2c-.1 0-.2.1-.2 0-1-.4-4.8-3.5-5.5-4.2zm2.5-3.6c-.9-.3-3.4-1.7-4.1-2.3 1-.7 1.7-.7 2.6 0 .6.4 1.1.9 1.6 1.4.3.3.2.4-.1.9zM282 167.2c.1-.6.2-.6.5-.5.7.2 1.3.5 2 .8-.1.2-.1.4-.2.6-.9-.1-1.6-.5-2.3-.9zm1.6-.8c0-.3.1-.5.1-.7.9.1 1.7.1 2.5.5 0 .3-.1.5-.3.5-.8-.2-1.5-.3-2.3-.3zm-61.8-28.7c-.5 0-.9 0-1.4-.1-.1 0-.2-.3-.3-.4.5-.2 1-.1 1.4-.1.3 0 .4.2.3.6zm-1.7 1.8c.1-.1.1-.3.2-.3.5-.1 1-.2 1.5-.2.3 0 .3.2.2.6h-1.3c-.2 0-.3-.1-.6-.1zM132.7 314h1.3c.3 0 .5.1.7.2.8.5.9 1.1.3 1.8-.2.3-.5.5-.9.7s-.8.5-1.2.7c-7 3.3-13.6 7.4-19.7 12.1-2.6 2-5.1 4.1-7.7 6.2-1 .8-2 1.4-3.2 1.8-.1 0-.1.1-.2.1-1.2 0-2.3-.1-3.3-.8-.4-.3-.5-.8-.2-1.2.1-.2.3-.4.5-.6.4-.4.9-.9 1.3-1.2 6.4-5.4 13.1-10.4 20.3-14.6 2.6-1.5 5.2-2.9 7.9-4.1 1.9-1 2.3-1.1 4.1-1.1zm-42.8 32.2c-.6.9-1 1.6-1.5 2.3-2.2 2.7-4.4 5.4-6.5 8.1-.9 1.1-2.1 2-3.2 2.8-.2.2-.5.2-.7.2-.7-.1-1.4-.3-2.1-.6-.9-.5-1.2-1.2-.8-2.2.2-.5.5-1 .8-1.4 1.2-1.5 2.4-3.1 3.7-4.6 1.2-1.4 2.5-2.8 3.8-4.2.8-.9 1.7-1.3 2.8-1.5.4-.1.9 0 1.3.1.7.2 1.5.6 2.4 1z"/></g><path class="st0" d="M534.6 198.2c2 2.1 3.4-1.2 5.8-1 2.1.2 3.7 2.4 2.9 5.2-1 3.8-6.6 5.8-11.5 4.9-3.3-1.8-5.7-5.8-4.7-11.3.7-3.9 4.3-6.1 4.1-9.8-2.8-.2-2.6 4.6-5 5.5-7 .5-6.3-8.4-3.1-12 4.4-4.9 15.9-3.2 18.1 3.7 2.4 7.2-4.2 10-6.6 14.8zm.8 3.5c-1.7-.2-3.5-1.8-3.4-3.7.1-3.6 5.5-5.9 6.8-9.4 2.6-7.3-6.9-11.2-12-8.3-1.7 1-5.1 7.4-1.3 8.8 1.9-2.1 2.3-6.4 6.3-5.6 1 .2 2.2 1.4 2.3 2.7.6 4.3-5.3 8.1-4.5 13.6.3 2.3 1.5 3.5 3.1 5 4.5.6 8.8-.9 8-4.9-1.7-.3-3.1 2.1-5.3 1.8zm-28.5-7.5c.4 4.3 1.1 9.8 1.4 14.7.9-.1 2.8-.5 2.9.8.1 1.7-5.7 2-9 2.4-2 .3-4.5 1.6-4.8 0-.3-1.4 1.9-1.9 3.5-2.4-1.3-9.6-1.3-20.5-3-29.8-1.4.2-3.5 1.1-3.5-.6 0-1.2 3-1.6 4.6-1.8 2.4-.2 5.1-.4 7-.1 5.7.7 10.8 5.2 10.1 10.7-.4 3.5-2.9 4.4-5.6 6.4-.7-.1-2.3 0-3.6-.3zm-.4-2h2.6c.1-4.7-.9-8.3-1.6-12.2-1-.1-1.5-.7-2.7-.5.6 4.2.8 8.8 1.7 12.7zm-3.4 17.7c1.3.2 1.9-.4 3-.3-.7-5.5-.5-12-2.2-16.5.3-4-1-9-1.3-13.4h-2.7c1.9 9.3 1.7 20.6 3.2 30.2zm8.2-18.5c4.6-1.7 2.5-9.5-1.4-10.4.6 3.3 1.2 6.6 1.4 10.4zm-23.9-9.1c-3 10.8-5.6 22-8.7 32.7 2.6.3 5.8-1.1 6 1.8-1.4 1.1-5.5-.2-7.3.8-2.9-.6-6.3-.1-9.4.4-1.5.2-4.1 1.4-4.3-.2-.3-2.2 6.2-2.1 7.9-2.9.7-3.2 1.4-6.6 2.1-10 .2-1.1.7-2.6.5-3.4-.2-1.1-1.8-2.3-2.8-3.3-3.1-3-5.3-7-7.2-10.9-1.6-.1-4.5 2.2-4.8.1-.3-1.9 3.8-1.4 4.7-3 1.6 1.7 6.4-1.1 6.9.8.5 2.1-2.9 1.5-4.6 1.9 2.1 4.7 5.2 8.4 8.5 11.8 2.2-3.8 2.9-9 4.3-13.6.1-.4-.5-1.3.1-1.9-1.2-.4-4.7 1.6-5.3 0-.6-1.8 4-2.2 6.7-2.6 1.5-.3 8.8-1.4 9.3-.1.4 1.5-1.2 1.7-2.6 1.6zm-5.8.8c-.7 6.7-3.4 11.5-4.3 18-.2.6-.9.6-1.1 1.2-.9 4.3-1.8 8.7-2.7 13 1.1 0 1.7-.3 2.9-.2 2.9-10.6 6-21.8 8.4-32.4-1.2 0-2.2.1-3.2.4zm-38 22.4c1.1 5.1 2 10.5 2.9 15.8 1.5-.9 3.1-1 3.3.3.2 1.7-4 1.9-6 2.5-3.4 1-8.3 3.3-9 1.8-1-2 3.3-2.1 4.5-2.8-2.8-8.4-4-18.7-6.1-28-.6.1-1.5 1-2.2.1-.4-1.7 1.5-2.6 2.9-3.2 2.1-.9 4.5-1.3 6.9-1.9 1.7-.5 3.2-1.6 4.9-1.9 5.1-.7 12.2 6.1 8.6 11.6-.8 1.3-4.3 4-6.1 4.7-1.5.5-3 .9-4.6 1zm5.9-4.6c2.1-1.5 4.1-2.7 3.2-5.8-.7-2.5-3.6-4.5-5.7-4.7 2 2 3.5 7.2 2.5 10.5zm-9.2-8.6c1.2 3.4 1.8 7.5 2.9 11 1.5.5 2.2-.6 3.8-.8-.3-1.1.7-1.8.8-3 .2-2.8-1.1-6.1-2.2-7.8-1.7-1.1-3.3.1-5.3.6zm-2.2.4c-.8.5-2.2.6-3.1 1 2.4 9.3 3.5 20.2 6.4 28.9 1-.4 2-.8 3.1-1-1.9-9.9-3.5-20.2-6.4-28.9zm-17.2 6.7c2.3 6.4 5.4 13.8 6.5 20.8-1.8 1.1-4.4 2.3-6.5 2.8-1.7-1.3-2.1-5.1-3.6-6.8-2.8 3.5-4.9 8.7-8.2 12.6-.5.6-1.5 2.7-2.6 2.7-1 0-2.2-2.7-2.8-3.9-2.3-4.6-4.6-9.6-6.7-14.2-4.3-1.3 2.8-5.4 4.7-6.5 2.5 2.1 3.6 6.9 5.6 9.9 1.6-1.3 2.8-3.9 4.2-5.7-.4-3.3-.4-6.4-.2-9.4 2.5-1.1 7-1.6 9.6-2.3zm-7.4 3.8c0 1.7-.1 4.2 0 6.3 0 .7.3 1.5.3 2.1-.2 1.2-2.2 3.8-2.8 4.6-.7 1-2.5 4.3-3.6 4.3-1.2.1-1.3-1.5-1.8-2.8-1-2.6-3.2-5.4-4.1-8.1-1 .7-1.8 1.4-2.7 2.1 2.7 5.5 5.1 11.4 7.9 16.7 3.2-2.8 5.4-7.9 7.9-11.9.8-1.2 1.8-3.8 3.1-3.9 1.3-.1 1.2 1.4 1.8 2.8.6 1.4 2.1 3 2.3 5 1.5-.4 2.5-1 3.7-1.6-1.6-6.2-3.8-11.3-5.5-17.2-2.5 1-4.4 1-6.5 1.6zM385 217.8c.7 2.9 1.2 5.7 1.4 8.8.1 1.1 0 2.3.4 2.9.5.8 3.9 2.2 4.9 2.5 1.4.5 2.8.4 3.9 1.3 1.3-.7 3-3.1 4-1.7.9 1.4-1.7 2.4-3.4 3.9-1.3 1.1-2.7 3-3.7 3.7-1.5 1.1-2.9 1.8-4 2.8-.2-.2-.4-.2-.6-.2-.7-1.2-.3-2.1.5-2.8-1.6-1.4-3.6-1.5-5.4-2.5-1.1 2.1-.4 4.7.6 7.4.9-.4 1.5-1.5 2.5-1.5 2.8 1.6-2.3 3.6-4.3 4.9-1 .7-2.2 2.4-3.5 3.6-.4.3-1 .5-1.4.9-1 1-2.7 4.4-3.9 2.5-.7-1.1 2.3-3.8 3.5-4.8-.3-3.9-1.4-8-1.5-11.8-3.1-1.8-7.2-.8-10.1-3.3-.9.9-2.9 3-3.7 1.5-1.1-1.8 6.2-5.1 6.1-7.4 2 .4 5.5-5.9 7.1-4.1 1.5 1.7-3 3.2-3.5 4.7 2.6 1.2 5.8 1.1 8.4 2.4.3-2.3-.1-4.9.1-7.2-.6.3-1.4.3-1.7-.2-.6-.9.8-2 .5-2.9 2.1-.8 6.5-6.8 7.8-5.6.7.9-.5 1.4-1 2.2zm2.5 14.4c-1-.4-1.8-.4-2.3-1s-.8-1.9-.9-2.8c-.4-2.6-.2-6-1.1-8.8-.1-.1-.2-.1-.4 0-.4.6-1 1-1.6 1.5 0 1.8-.1 3.8 0 6.7.1 2.4.4 8.8-2.9 5.6-3.2-1.1-6.7-1.5-9.9-2.5-4 3.5 1.6 3 5 3.9 2.6.6 6.1 1.8 3.7 3.7-.1 2.9.5 6 1.2 9.1 1-.8 1.8-2.3 3.4-2.5-.5-1.3-1.3-2.8-1.5-4.3-.2-1.8-.4-5.9 1.6-6.7.7-.3 3.9.9 5.5 1.7 1.2.5 2.6 1.8 3.7 1.5s1.7-1.7 2.6-2.4c-1.7-.6-4-1.8-6.1-2.7z" id="Layer_1"/><g id="Режим_изоляции"><path class="st0" d="M536.5 292.9c3.7-.1 7.9 3.4 11.9 6 .2 1.3-2 1.2-.1 2.7-3-.8-6.3-6.7-10.1-7.4 1.3 3.7 3.8 7.3 7.4 10.8-1.4.3-3-1.1-4.3.1-2.9-4.6-3.6-7.2-4.8-12.2zm101.6 71.8c-4.7-8.1-7.9-16.4-14.8-24.3 7.7 4.8 12.7 16.4 14.8 24.3zM487.7 355c1.5 2.6-2.1 9.5 1.1 12.7 2 2.1 7.1 1.1 9.5 2 7.5 2.9 14.8 10.4 24.1 14.3 18.6 7.9 42.4 25.3 58.3 35.3-.5.7-1.5 1.5-.9 2-21.2-10.8-51-30.7-71.3-44.3-1.8-1.2-3.2-1.1-5.4-2.9-1-.8-2.5-2.2-3-2.4-3.9-1.9-9-.3-12.1-4.1-2.7-3-.2-9.6-.3-12.6z"/><path class="st0" d="M629.6 371.9c-1.4.9.3 1.5 1 2.2-6.7-2.6-14.2-10.1-19.2-15.3 4.2 6.8 8.6 13.5 11.6 20.4-1.2.1-2.3-3.1-3.6-4.2.8 3.1 3.9 6 5.3 9.1-10.7-14.4-23.8-35-42.1-49.5-2-1.6-2.1-2.3-3.8-2.3-.9-.4-.5-1-.2-1.5-7.4-3-12.9-9.4-18.9-13 9.9 25 28.8 49.4 55.5 72 5.7 4.8-4.5-2.1-6.6-3.9-.3.6.5 1 .9 1.4-1.8.4-2.8-2.3-.7-2.6-3.1-.2-2.4-2.8-5.9-4-.5.6-.9 1.1-1.4 1.7-1.9-1 1.2-1.5 1.7-2.1-2.6-.5-5.1 1.6-1.3-1-1-2.2-4.4-2.8-5.3-5.6-1.3-1-1.9 3.6-3.3 1.5.8-1 1.7-.7 2.5-2.2-8.3-8.4-13.4-14.8-19.7-23.4-.9-.6-.6 1.8-2 2.6-1.5-1.3.1-2.9 1.4-4.4-11.7-14.3-19-26.2-30.8-39.2.7-.9 1.4-1.7 2-2.6 1.5 1 3.2 3.1 4.6 3 .2-2.1-2.9-3.8-1.5-6 10.9 5.9 19.9 21.2 32.5 30 .9-1.6-2.4-2.8-2.8-4.3-1.7-.8-1.9-2.6-.1-.8 8.8 5.4 16.3 14.1 22.9 21-3.5-6.5-9.1-12.7-13.4-19 .9-1.3 2.4 2.7 3.1.4-.7 1.8.7 1.3-.1 2.7.7.1 1.2-.6 2 .2-.4.3-.8.1-1.1.5 5.9 5.1 9.9 18.3 18.5 19.6-1.7-.1-.9.5-2.2 1 .8.3 1.6.2 2.4.5-1.2-3.6-4.2-7.3-7.5-11.6-.8-.3-.3.7-1 1.3-.3-6.6-7.2-9.1-7.3-12.7-.4.7-2.3.6-.9-1.4-.5 2.1-3.4-.5-1.7-1.4-.1-1.7-3 1-4.3.1-2.3-1.5-2.1-3.4-3.7-5 1.4-1.1.3-1.8 1.6-2.9-1.3-1.3-2.3-4.1-3.8-3.1-5.3-7.2-10.3-14.3-13.3-21.8-4.9-3.8-13-12-13.2-21-.6-.3-1.1.5-.7.9-1.4.7-.2-2-.7-2.6 4.3 2.4 3.9 13.5 11.3 11.1 4.5-5.4-5.7-9.2-7.8-13.9 2.9 1.6 11.9 6.8 9.8 11.3 7.3 1 5.9 9.2 13.1 16 4.7 4.5 8.8 7.2 13.8 12.4-7.7-4.1-13.2-9.3-20.5-17.1-.3 1.1 1 1.3-.6 1.6 12.6 26.4 34.1 53.7 56.5 77.7.7 1.9-.5-.3-1-.8zm-37.7-45.4c-1.9.3-3.1-2.7-3.9-3.8-2 2 .4 3.6 2.1 5.2.3-1.5 2.7 0 1.8-1.4zm21.1 32.9c1.3-1.1.6 1.1 1.7 1.4.7-.8.4-1.2-.5-1.1.4-.6.9-.8 1.4-.9-.7-1-3.3-.7-2.6.6zm-137.1 21.8c15.6 3.3 34.3 12.4 47.9 18.6.9 0 .4-.8 1.9-.6 2.2 2.4 6.1 1.6 7.1 4.2 17.2 4.7 35.1 15.5 52.7 23.9 3.1 1.9 3.3 3.7.1.8-28.6-10.4-57.5-24-86.3-36-1.7-1.2.1-.5.6-1.6-8.1-3.1-16.4-7.4-24.3-8.9-1.7-3.8-.7-4.8.3-.4zm-3.4 7.7c1.1 2.1 1.2 4.3 2.7 6.3 14.1 6.2 29.1 6.7 41.2 14.7 1.7.1.9-.8 2.6-.7 11.8 6.5 30.1 9.4 43.7 16 3.3 1.6 6.8 4.1 10.7 5.8 6.3 2.6 12.5 3.2 13.6 10.1-3.1-8.2-15.4-8.9-24.5-11.2-10.7-2.7-22.5-8.8-34.4-12.8-12.3-4.1-23.9-9.3-34.4-12.8-1.8-.6.8-1.6-1-2.2-6.5-2.5-21.1-3.5-20.2-13.2zm-2.2 15c2-.2 1.4 3.2 2.8 4.3-1.7.2-1.7-3.1-2.8-4.3z"/><path class="st0" d="M487.6 412.8c.6-.2 1.3.3 1.9-.6-5.7-2.6-11-1.7-16.6-2.8 15-2.9 31.1 6.4 49.3 10.7 14.7 3.5 29.5 5.9 40.4 10.5 3.5 1.5 5.5 3.9 9 4.4 2.4.4 6.4-2.1 8.7 1.3 1 1.5-2.2-1-5.1-.6-3.8.5-9.7-.1-14.5-1.1-11.5-2.3-24-7.4-36.5-11-12.4-3.4-25.1-6.5-36.6-10.8zm-21.4 5.9c2.8 5.3 6.3 3 10.8 3 26.9.5 56.4 13 82.8 15 4.5 3.8 11.2 4.4 16.3 4 1.4 1.8 6.3 3.1 5 3.3-.2 2-2.5-1.5-4.5-2.2-5.2-1.8-11.7.1-17.5-.7-12.2-1.7-25.3-5.6-38.6-8.4-13.1-2.8-26.8-4.2-38.6-8.4 1.2-.6 2.7.9 3.9.3-5.4-2.7-15.1 1.8-19.6-5.9zM605 278.5c.7 4.2-1.7 1.8.3 5.8.1-.5.2-1.1-.2-1.5 1.6-.1.2 2-.1 2.7 2.2-1 .4 5 3.3 8.2.2-1.7-2.2-6.8-1.5-6 1.4 2.3 1.7 4.7 2.7 7.1-.7.5-.5-1-1.2-.3 0 1.9 1.6 1.1 1.8 2.1 2.4 14.2 17.8 37 29.7 52.9-15.5-11.2-28.5-31.8-29.7-43.2-.7-.7-1.2-.3-.8.1-1.5-7.6-7.3-19-9.9-28.7-4 2.2-8 4.5-12.5 2.6 3.7-1.1 6.9-3.3 9.8-2.7-2.1-2.1-.4-4.6-2.3-6.7-3.5-1.6-5.5 5.1-9.6 4.2 4.7-5.9 14.8-11.5 21-6.3 2 1.7 1.6 4.9 3.2 7.4 2.4 3.8 7.3 6.9 11.3 10.4 17.4 15.2 36 35.2 39.3 48.7-10.6-19.9-29.8-38.7-54.6-56.8zm-7.7 34.2c.9-.8 2.2 1.5 3.3 1.9-.1-3.9-3.6-5-7.2-8.5 4.2 1 6.2 5.5 10.2 8.1-.6 1.2-1.8-1.8-2.3.3.8 2.6 3 3.3 6.6 6.6-4.6-1.1-6.6-5.4-10.6-8.4zm27.4 26.8c-3.3.7-6.1-5.2-9.6-9-2.3-2.5-4.9-4.6-6.2-7 5.6 4 10.4 9.3 13.7 15.1-.4-2.7.4-.3 2.1.9zm-24.2 56.6c-15.5-11.6-34-26.8-47.6-40-2.5-2.4-2.3-6.2-4.1-8.8-7.9-11.7-26.1-16.8-31.6-28.6 14.1 7.3 25.5 27.2 39.3 28.5 13 12.6 37.8 29.6 48.8 43.7-.7 1.6-3.6 4.1-4.8 5.2zm-108.7-55.9c3.6 1.2 8.7 10 12.7 5.9.8-5.6-7.7-4.8-11.3-7.6 6.7-3.1 13.2 2.8 19 6.8 13.8 9.4 32.6 18.2 44.8 25.9-4.8-4-12.7-8.1-19.6-12.1 20.2 8.2 47.1 26.1 60.2 45.1-25.6-21.6-53.2-37.3-78.7-48.1 18.6 20.9 48.4 41.9 71 55.2-21.9-3.5-45.3-23.8-63.3-38.6 6.8 2.5 12.5 9.6 17.5 10.4-9.1-6.7-21.1-18.2-29.8-23.8-1.2-.8-3.4-2-4-1.1-4.9-5.9-15-9.5-18.5-18zm55.3 46.8c.5-.5.9-.9 1.5-.2 7.6 6-3.4-4.5-3.8-3.1 1.6 1.1 2.7 2.1 2.3 3.3zm17.8-10.9c.5.5 3 2.5 2 .9-2.6-2.6-5-2.8-7.6-5.3-.4-.2-.8 0-1.1.5 2.3 1.2 4.5 3 6.7 3.9zm16.9 12.1c-1.3-.8-4.9-4.5-4.6-3 1.3.7 4.9 4.5 4.6 3zM443.2 132.7c-1.6 9.1 1.6 22.8-2.4 30.7 1.8 5.1-.5 8.8-3 12.6-4.4-1.3-2.4-8.9-4.2-12.6-3.1 2.5-22.5 14.7-23.5 2.4-.4-4.5-5.2-8.2-4.2-16.2 2.3 1.1 1.1-8.6 3.6-7.2-1.6-4.1 3.2-4.6 3.6-8.4 2.1-.8 3.2 1 3-1.8 9.5 0 11.2 2.3 16.8 4.2.9-.3.5-1.9 2.4-1.2-1.1-2.9.9-1.6.6-4.8 2.7-.7 5-.1 7.3 2.3zm-27.1 7.9c-7.4 4.1-7.9 18-1.2 23.5 2.3 1.9 5.9 1.2 8.4 2.4.1-.7-.1-1.7.6-1.8 6.5-.3 5.6-5.3 7.2-9.6-.5-.1-1.2 0-1.2-.6 3.3-3.6-1.7-11.6-.6-15-3.7-2-7-2.9-9-3.6-.1 2.5-.4.1-1.2 0 .7 3.1-4.3.7-3 4.7zm-25.3-17.5c-2.8 12.7-2.1 25.9-4.8 40.3-.9 4.6-2.8 11.1-5.4 14.4-.7.9-2.4.9-3 1.8-.9 1.3-1.7 4.1-4.2 5.4-3.3 1.8-12 3.9-14.4 3.6-3.2-.4-5.6-3.5-9-3.6-5.7-9-14.5-21.9-10.2-32.5 2.2-.4 6 .8 7.2-.6 1.3 6.8 1.1 8.1 2.4 16.2.1.7 1.1.5 1.8.6 1 5.9 3 7.1 6 11.4 2.5-2 10.3 1.5 10.2-3 5.7.3 8.6-8 9-12.6 5.6-5.8 2.3-13.5 3.6-20.5.4-2.3 1.5-6.3.6-11.4.5.1.6.6 1.2.6-2.6-13.7-1.3-27.4-1.2-37.9.2-1.4-2.7.3-1.8-1.8-8.5.4-7.7-.9-14.4 0-.8-5.8 1.6-4.8 2.4-9 1.1 3.1 10-.5 10.2 1.8 4.9-4.3 11.3 1.4 16.2-3 2.7 2.7 5 .7 7.2 2.4-.4 2.9.7 4.1.6 6.6-3.8.7-4.6.2-7.8-.6-3.8 2.8-1.4 8.1-1.8 14.4-.2 3.4-3.4 7.9-1.2 13.8-.9-.8-2.7 3.8.6 3.2zm126-4.9c11.1 2.8 21 .7 28.9 3-1 .9-.4 2.5.6 3-1.4 2.4-3.2 4.5-4.2 7.2-1.6-1.6-.5 1-2.4.6-3.3 6-9.5 5.5-11.4 12.6-1.9-1.5-1.7 3.2-4.2 3 .4 5.2-.1 5.8-.6 10.2 8.1-.3 11.6.2 15-1.8 1.4 1.9.4.2 2.4 0-.1 1.5.7 1 .6 0 4.3 3.2 11.7-1.7 10.8 5.4-.1.6-2.8.4-1.2 2.4-4.1-.1-5.1 2-9 .6-1 3.2-2.6-.4-3.6 1.8-4.2-2.7-14.3 2.6-19.3-.6-.6 0-.5.7-.6 1.2-5.6-2.1-1.1-8.8-2.4-12 3.1-2.6 5.3-9.5 7.8-14.4.8.9 4.9-3.7 2.4-4.2 2.1-1.1 4-2.4 4.8-4.8-2.1-8-14.1-1.3-16.8-5.4 1.3-1.7 1.2-2.9.6-5.4.9-.5 2.3-.5 1.8-2.4zm-20.1-14.5c-.7 2.7 1 3 1.2 4.8-3.5 6.1-9.1 10.2-12 16.8-1.2-1-.8.1-2.4 0-2.5 4.9-8.1 9.2-5.4 14.4 6.7-2.3 17.1-.1 24.1-.6-1.6 3.3.2 5.5-1.2 7.8.7-1.2-3.3-2.4-1.2 0-10.4-1.3-21.6 1.9-27.1 0-3.1-7.7 1.6-11.1 2.4-18 3.1-1.5 5-4.3 5.4-8.4 4.2-1.1 4.3-4 5.4-7.2-2.7-5.9-13.3-.5-18-3.6.1-2.3 0-4.4-.6-6 4.2-2.8 21.7 2.6 29.4 0zm-88.4 166.9c-2.4-1.1-5.5-.5-7.6 1.7-1.7 1.7-3 4.2-3.1 6.6-.2 2.8.8 6 3.1 7.8.9.6 1.8.7 2.7 1.1.6.3 1.1.9 1.6 1.4 1.1.9 2.1 1.7 3.2 2.6 2.1 1.7 4.3 3.4 6.4 5.3 4.3 3.4 8.5 7 12.9 10.4 2.7 2.2 5.4 4.5 8.3 6.7.3.2.5-.1.7-.3.2-.4.3-.6.5-.8-2.2-2-4.3-4.1-6.2-6.2-.4-.3-.6-.6-1-1-.1 0-.1-.1-.3-.2-.5-.5-.8-.9-1.1-1.1-2.4-2.3-5-4.6-7.5-6.7-3.4-3.1-7-6.1-10.6-9.1-.9-.8-1.7-1.4-2.6-2.2.4-.4.9-.7 1.2-1.2.3-.2.5-.5.6-.7 2.7-3.1 4.1-8.2 1.7-11.8-.8-1-1.7-1.9-2.9-2.3zm1.4 8.4c.1.7 0 1.3-.2 1.9-.8 2.6-4 3.5-6.3 2-1.4-.8-3.2-3-3.2-4.8 0-2.4 1.3-4.6 4.2-4.5.7-.1 1.5.2 2.2.6 2 .8 3.1 2.9 3.3 4.8z"/><path class="st0" d="M397.7 292.7c5.2-7.4 10.8-14.4 16.9-21.1 1.5-1.7-.4-7.8-1.9-6.2-6.3 7-12.1 14.3-17.5 21.9-1.1 1.8.8 7.9 2.5 5.4zm81.2 34.4c-2.9-6.3-4.2-13.4-5.9-20-1.4-5.4-2.9-10.8-4.2-16.1-.1-.8-.2-1.4-.3-2.2 4.9 3.1 9.6 6.3 14.2 9.8.2.3.3.7.6.9 1 1.1 1.8 2.2 2.3 3.5.3 0 .8 0 1.1-.2-.7-2.4-1.5-4.9-2.4-7.3-1.3-2.8-3-5.2-5.4-7-3.9-1.7-8.5-1.7-11.4-5.1-.1-.1-.3-.2-.6-.2-.1-.2-.1-.4-.2-.7-.2-.9-2.3-.3-2.1.6.4 2.3 1 4.6 1.4 7 1.2 10.1 3.1 19.9 5.5 29.8.6 2.3 1.2 4.6 1.9 7-.4.1-1 .3-1.4.4-2.1.7-4.2 1.9-5.4 3.2-.3.3-.7.7-1 1.1-.6.4-1 1-1.3 1.4-.7.9-1.3 1.9-1.8 3-.9 1.8-1.4 3.5-1.1 5.1.8 3.2 4.4 3.9 7.2 3.3 1.4-.3 3.1-1 4.8-1.9 4.6-2 9-6.5 8.1-11.1-.3-1.9-.9-3.4-2.6-4.3zM464 338.3c0 .1 0 .3-.1.4v-.3c0-.6 0-1.2.1-1.8.3-.7.8-1.4 1.2-2.1-.8 1.2-1.2 2.6-1.2 3.8zm2.4-5.3c-.3.3-.6.7-.8 1 0-.1.1-.1.1-.2.4-.7 1-1.4 1.7-2.2-.4.5-.8.9-1 1.4zm5.4-3.9c.3-.1.6-.1.9-.2-.3.1-.8.2-1.1.4.1-.1.2-.1.2-.2zm-2.4 5.2c.1-.1.2-.2.3-.2-.1.2-.1.3-.2.6l-.2.2c0-.2.1-.4.1-.6zm4.4 4.1c-1 .9-2.9 1.8-4.5 2.1h-.1c.3-.1.6-.2.9-.4 1.5-.6 3-1.4 4-2.1.4-.3 1-.7 1.4-1.1-.5.5-1.1 1-1.7 1.5zm20.7-79.7c2.1-5.2 5.4-10 8.4-14.7 2.3-3.9 4.7-7.8 7-11.6.4-.5.7-.9 1.1-1.4.9 4.6 1.7 9.2 2.2 13.8-.1.3-.2.6-.2.8-.1 1.2-.3 2.3-.8 3.3.2.2.4.5.8.5 1-1.8 2-3.6 2.9-5.5.9-2.3 1.3-4.7 1-7.1-1.2-3.2-3.8-5.9-3.5-9.5 0-.1-.1-.3-.2-.4.1-.2.2-.3.3-.5.4-.6-1.1-1.5-1.5-.9-1.1 1.6-2.1 3.2-3.3 4.8-5.2 6.4-9.9 13-14.2 20-1 1.6-2 3.3-3 5-.3-.2-.8-.4-1.1-.6-1.6-.9-3.5-1.4-4.9-1.4h-1.2c-.6-.1-1.1 0-1.6 0-.9.1-1.8.3-2.7.7-1.5.5-2.9 1.2-3.6 2.2-1.4 2.3.2 4.8 2.1 6.1 1 .7 2.3 1.2 3.8 1.7 3.8 1.6 8.9 1.5 11-1.5 1.1-1 1.6-2.3 1.2-3.8zm-14.9-2.4c-.1.1-.2.2-.3.2.1-.1.1-.1.3-.2.2-.3.6-.7 1-.9.6-.2 1.3-.4 1.9-.5-1.2.3-2.2.8-2.9 1.4zm4.4-1.5c-.4 0-.7.1-1 .1.1-.1.1 0 .2-.1.6-.1 1.4-.2 2.2-.3-.6.1-1 .1-1.4.3zm5.3.9c.3.1.4.3.6.4-.3-.1-.6-.3-.9-.4.2 0 .3.1.3 0zm-4.4 1.6c.1 0 .3 0 .3.1-.2.1-.3.1-.4.2h-.3c.1-.2.3-.2.4-.3zm.1 4.8c-1.1-.1-2.7-.7-3.8-1.5l-.1-.1c.3.1.4.2.8.3 1.2.6 2.5.9 3.5 1.1.4.1.9.2 1.5.2-.6.2-1.3.1-1.9 0zm-46.1 89.6c-3.7-4.6-33.2-18.3-44.2-23.4-.5-.1-1.1-.3-1.8-.5-2.3-1.2-4.9-2.3-7.4-2.9-5.8-1.8-9.3 3.3-12.9 8.4-3.7 5.1-9.3 3.3-9.3 3.3s33.7 18.7 42.7 23.5c8.9 4.9 6.4 6 6.4 6s-9.3 3.3-9.8 11.6c-.4 8.2 12.3 14.2 16.5 7.2s2.7-15.8-1.8-21.3c-2.8-3.5-21-12.4-34.2-18.7l18.7-9.1c1.5-.8.1-1.5-1-1-.6.4-1.3.6-2 1 .5-.4 1.1-.6 1.7-1 .5-.3.9-.4 1.4-.6 9.7 5.4 20.8 11.5 25.6 14.1 8.9 4.9 6.4 6 6.4 6s-9.3 3.3-9.8 11.6c-.4 8.2 12.3 14.2 16.5 7.2 4.2-7.1 2.8-15.9-1.7-21.4zm-59.1-8.4c.6-.3 1.1-.5 1.8-.8-.5.3-1 .6-1.4.9-.2 0-.3-.1-.4-.1zm8-6c-3.7 1.4-7.3 2.9-10.9 4.7-4.7-2.2-7.9-3.6-7.9-3.6s10.1 1 15.6-3.5c3.6-2.9 8.4-3.8 11.4-4 .9.5 1.9 1 2.9 1.7-3.8 1.4-7.5 3-11.1 4.7z"/><path class="st0" d="M44.6 48.7l3 1.2c-.7-.3-1.5-.7-2.4-1.1-.3-.1-.5-.1-.6-.1zm82.1 33.6c.4-2.1 1.8-5.5 1.2-7.5-.4 2.8-1.4 3.4-2 5.5.7.2.1 1.8.8 2zM45.1 48.7c.4.1.8.1 1.2.1v.2c.8.4 1.4.8 2.2 1.2l-1-.3c.4.2.8.3 1.2.4C59.5 55.7 70 56.2 76 65.4c5.4 8.4 2.6 22.4 4.3 33.9 1.1 7.6 7.3 12.6 12.5 17.1 2.9 2.5 6.2 6 9.1 7.1 6.2 2.2 13.2-1.7 14-3.5-1.3.6-1.9 1.8-3.5 2 1.5-2.2 4.1-4 5.5-5.1 2.2-1.7 4-4.3 7.5-4-2.1 2.6-7.5 4-8.3 6.6 2.2-3.1 16.8-8.9 9.3-12 1.4 1.4-2.6 1.3-4 2.3 1 0 1.9-.1 2 .8-6.2 3.6-8.4 8.9-15.6 11.3 4.4-3.5 10.4-7.5 11.7-12.8-5 3.6-10.6 16-18.3 10.2-3.6-2.6-8.7-8.1-12.5-12.5-5.7-6.8-2.8-18.9-3.5-29.3-.4-6.3-3.1-11.8-4.3-16.3 15.7 5.4 29.3 12.9 44.2 19.1-11.3-5.5-23.3-11.8-34.8-16.8-4-1.8-9.6-2.3-11.3-6.3 6.8 2.9 13 6 19.1 8.9.4.2 6.3 3.1 4 1.5-3.5-2.2-8.5-4.2-12.5-6.3-4.7-2.3-13.7-4.7-13.2-11.7 2.8 2.2 7.9 6.1 9.7 6.6-3.3-3-8.7-5.3-10.5-9.7-.4-1.1 0-2.6-.4-4-1.3-4.4-4.6-9.3-6.6-12.5C63.2 20.1 58.2 9.7 52.2.3H29c2.1 4 4.1 7.4 5.1 9.3 3.2 6.1 7.7 11.4 12.1 16.7v1.4c-7.2-4.1-23.2-8.3-30.4-5-2.5 8.4 18.6 21 29.3 26zM67.4 35c.4-.8 0-.3.8-.8 3.3 1.8 2.3 7.7 6.6 8.6-.4 1.2-1.4.1-1.5.8.2.3.4.6.4 1.2 1 0 1.4-.6 1.5-1.5.2 1.5.2 4.7-.8 4.3 1.4 2.8 2.9 10.5 5.9 12.8H78c2.5 1 3.4 3.6 4.3 6.3 1.2-.3-.4-.8 0-1.5 2.4 1.9 0 7.7 2.3 8.9.1.9-1.3.2-2 .4 2.2 1.7 2.6 4.6.4 6.6.6 0 1.4.2 1.5-.4-1.9 8.3.1 18.5 2 24.6 5.3 4.6 11.7 11.8 17.1 16.3-.4-1.2 1.9 0 4-.4-1.3.4-2.6.4-4 .4-6.4-.6-11.4-7.1-16.8-12-8.4-7.8-5.3-18.2-6.6-32.8-.4-4.7-2.2-13.2-5.1-14.8-.3-.2-.4.6-.4.8-1.8-4.6-4-10-8.3-12.5-4-2.4-5.9-7.1-8.9-10.9 2.1-2.5 6.6-5.8 9.9-4.4zm32.4 85.6c.4-1.1-1.7-2.1-2.8-3.1-3.9-3.6-7.7-7.8-11.3-10.9 2.9 4.8 9.6 9.3 14.1 14zm27.7-38.8c-.4 3.8-1.8 8.6-1.5 11.7.4-3.6 1.9-8.3 1.5-11.7zm14.8-2.3c1.2.1 1.2-.9 2.3-.8-.8 4.9 7.1 7.5 9.2 5.7-.2-.1-.4-.4-.4-.7 2.2-2.1-2.6-4.9-2.3-6.3.3-.1.8 0 .8-.4-4.3.1-8 .2-9.6 2.5zm11.7-2.3c-.7-2.4-5.3-1.5-6.6-.4 2.2.2 5.2-.4 6.6.4zm3.5.8c2.6 2.2 3.8 5.9 5.5 9.1-.9-3.7-2.3-9-5.5-9.1zM89.6 58.1c-2.1-1.3-1.4-.9 0 0zm4.7 2.6c-.9-.4-3.1-1.8-4.6-2.6.7 1.6 3.7 2.7 4.6 2.6zM151 88.1c1.4.3 3.3 2.2 4.7 1.2-1.5-.3-3.9-1.6-4.7-1.2zm-25.2-2.6v-1.7c.2.6.2 1.1 0 1.7zm3.2-11.1c-1 2.4-.3 6.2 1.2 7.5-2.4 6.6-1.2 18.9-10.9 16.8 6.6.3 6.5-7.6 6.6-13.1-.3 7.7-3.1 15.2-11.7 11.9.4-.1 1.1.1 1.2-.4-1.4-.1-3.1.9-1.5-.4-2.4-.3-2.5.2-5.1-.4.6.2-.3-1-1.2-1.2-1.2-.3-3.5-.8-4.7 0-.1-1.2-4.4-5.7-5.5-3.5 1.2-.4 2.2-.3 2.8.8-.4.1-.2.4 0 .8-1-.1-1.7.2-2 .8.4 1 1.2-.7 1.5.4-1.3-.3-.6 1.3-1.5 1.2-2.1-1.2 0-2.6-2-4-.9 1.7-.2 3.8 1.2 4.3 2 .4 2.2-.9 4-.8 7.1 1.3 13.4 7.1 19.9 6.3 8.1-1.1 7.3-10.9 9.7-18.8 1 .6 3 2.2 4 1.5-1.3-.9-3.5-.9-4.3-2.3.4-1.3 1.4 0 2-.8-1 .1-1.2-.6-1.5-1.2 2.8-6.6 5.5-8.7 11.3-14 4.7-4.4 10-11.9 16.3-12.5 5.6-.6 10.2-5.3 13.2-8.2 5.5-5.1 37.2-39.2 41.5-43.8H187c-10.5 9.3-20.5 19.1-28.9 30.5-3.2 2.6-7.6 9.2-8.5 13.2-1.7 7-6 9.6-9.4 14-.4.6-.4 2-.8 2.3.1-.1-1.3.1-1.5.4-3.8 3.3-7.2 8.3-9.1 12.5 6.1-8.3 13.5-15.1 20.3-22.6-.6-.2-2.1.4-2-.4 3.1-.8 7.5-6.6 5.9-10.9.1 1.3.1 3.2-1.2 2 .7 3.1-1.8 6-3.5 7.8 3.9-3.5 2.2-12.4 8.5-13.2.7-.9 1.2-2 2.3-2.3 5.1.2 6.4 1.3 7.8 4-2.2 1.2-3.1 1.5-6.3 1.5v3.5c.9 1.1 3.2.7 3.5 2.3-2.6.4-3.1-.9-5.1.8 0-.6.2-.9.4-1.2-3.4 1.3-5.5 5.5-7.8 7.7-7.5 7.5-17.8 14.1-21.5 26.6-1.1-1 .7-4.9-1.1-5.4zm34.8-27.7c.6 1.2-1.8 2.2-2.8 2 .3-1.3 2.3-1 2.8-2zm-28.6 48.4c2.6 19.2 31.6 13.4 29.6-6.3-.1-1.3-.8-2.9-1.5-4.7-.8 2.1.7 2.9.8 4.7.3 6.3-4.9 10.9-7.1 14 .8-.7 2.1-2.9 3.5-1.5-1.1.8-1.4.4-2.3.8-7.2 10.3-25.3.6-21.9-11.7.1.4-.1 1.1.4 1.2.1-1.3-1.1-4.1.4-2.3-1.1-2.5 2.9-5.3 3.5-7.7-1.4 1.3-2.3 3.3-3.5 5.1-.1-1.3 2.1-2.6.8-4 .1 3.1-4.1 1.3-1.5 3.1-1 2.9-1.6 5.7-1.2 9.3zm27.8.4c1.8-.4-1.3 3.1-1.5 4.3-1-1.3 1.9-2.2 1.5-4.3zm-8.6-52.3c1.2-1.3 3.1-1.5 4.3-3.5-1.3-.2-2.8.1-4.3.8 1.3.4-1.2 3.6 0 2.7zm-.4 41l-.3.3c.2 0 .3 0 .3-.3z" id="Режим_изоляции_2_"/></g></svg>