<svg xmlns="http://www.w3.org/2000/svg" viewBox="0 0 566.9 467.7"><style>.st0,.st1{fill:#ee7f00}.st1{fill-rule:evenodd;clip-rule:evenodd}</style><g id="Слой_1"><path class="st0" d="M333.1 82.5c-5.5-3.6-8.4 15.7-9.2 25-2.1-5.5-4.5-10.9-7.3-16.1-.4-.6-1.5.4-1.7.7-2.5 6.1-3.9 12.3-4.2 18.8-3.2-5.5-5.8-11.2-8-17.1-.1-.3-.2-.3-.6-.3-4.7 1-10.4 2.8-14.8 4.5-.2 0 .2 1.2.2 1.2s1.7 8.1 4.6 9.1c1.8.6 3.5-.4 4.9-1.4 2.7 7 5.4 14 7.8 21.1 1.3 3.7 2.6 7.4 3.7 11 .5 1.3 2.9 6.8 3 8.9-.2.2 12.4-3.8 12.1-4.3-4.2-7.8-5.9-16.2-5.3-24.9 4.8 4.8 8.3 10.4 10.7 16.8.2.4 1-.2 1.1-.3 1.2-.5 2.5-1.1 3.7-1.6.4-.1 1.3-.7 1.2-1.2-1.5-8.7-2.9-17.4-1.5-26.2 4.3 10.4 8.4 20.9 12.1 31.5.2.4 5.8-2.5 5.7-2.9-2.4-9.3-5.8-20.2-9-29.3-1.7-4.8-3.4-9.6-5.3-14.4-.8-2.1-1.7-7.1-3.9-8.6z"/><path class="st1" d="M347.2 95.7l-.5.3c.3 10.1 2.6 20.2 6.9 29.3.4.8 2 2.9 2 2.9 5-2 9.8-4.6 14.2-7.6-1.7-2.5-3.3-5.1-5.1-7.7-1.1 1.2-5.2 4.4-5.2 4.4l-2.5-3 6.8-4.4s-.9-2.7-1.8-4.2c-1.8.7-6 4-6.9 5.6-1.8-1.7-2-3.9-2.4-6.4 2.6-.9 5-1.7 7.6-2.7.5-.2 1-.3 1.3-.8s.2-1.2 0-1.7c-.8-3.8-1.7-7.5-2.5-11.3-3.6 2.7-7.7 5.1-11.9 7.3zm44.9-18.4c-3.1 2.8-6.7 5.2-10.5 7.2 1.5 8.9 2.9 17.8 4.3 26.7l4.9-3.1s-.1-1.7-.2-3c-.1-1.9-.1-5.8-.1-5.8s.9-.9 1.4-1.3c1.6-1.2 3.2-2.7 4.6-4.2.2-.2.4-.5.7-.5.3 0 .7.3.9.5 1.7 2 3.4 4 5 6.1 1.9-2.2 3.7-4.4 5.6-6.6-5.9-4.8-11.4-10.2-16.6-16zm-1.8 16.4l-.5.4c-1-2.3-1.5-4.7-1.9-7.1 1.1-.6 2.1-1.2 3.1-1.7.5 2.2 1.4 4.2 2.7 5.9-1.1.9-2.3 1.7-3.4 2.5zm22.6-30.2c-.9-.6-2-1.2-3.1-1-1.6.3-2.3 2.3-2.4 4-.4 3.5 0 7.2 1.2 10.5-2.9-1.9-5.5-4.2-7.6-7-2 1.8-4.1 3.8-5.8 5.8l4.8 3.6c4 4 8.2 7.6 12.7 10.9-.1-.3 3.6-4.1 4.9-6-2.5-3.7-5.2-7.8-5-12.2 4.4 2.9 8.8 5.8 13.2 8.9.9-2 2.2-3.8 4-5-5.4-4.7-11-9-16.9-12.5zm25.5-.8c-1.3 1.4-4.5 4.5-5.7 6-.1.1-2.7-3-2.7-3s4.4-2.5 4.4-3.4c-1.2-1.1-2.3-2.4-3.2-3.7-1.1 1.2-2.2 2.5-3.4 3.8-.1.1-.2.2-.4.3-.2 0-.3-.2-.4-.3-1.1-1.3-2-2.5-3.1-3.8 1.6-.8 3.2-2 4.5-3.2.2-.2.4-.5.5-.8 0-.4-.3-.9-.5-1.2-.9-1.1-1.9-2.2-2.8-3.4-2.9 1.7-6.7 5.1-8.6 7.9l15.2 16.7c3.1-1.9 7.7-5 10.5-7.2-1.6-1.6-2.9-3.2-4.3-4.7zm15.2-10.6c-2-2-5.6-2.5-7.6-.5 2.3-2.8 2.7-7 .8-10.1-1.9-3.1-5.9-4.8-9.3-3.7-1.9.6-4.4 3.5-4.4 3.5 3.1 9.2 7.8 18 13.6 25.8.3.4.7.9 1.2 1 .5.1 1 0 1.4-.1 2.5-.7 5.3-1.7 6.4-4 .7-1.3.7-2.8.6-4.3 0-2.6-.6-5.6-2.7-7.6zm-11.8-2.8c-.4-.3-.7-.8-1-1.2-.6-1.1-1-2.4-1-3.6 0-.4.6-2.6 2.7-2 1.1.3 1.4 1.8 1.7 2.9.2 1 .3 2-.1 3-.3.8-1.4 1.4-2.3.9zm10.7 9.8c-.1 1.6-1.4 3.1-3 3-1.2 0-2.3-1.1-2.7-2.3-.4-1.2-1.9-4.6.5-5.7 1-.4 2.2.3 3 .9 1.2 1.1 2.2 2.6 2.2 4.1z"/><path class="st1" d="M440.1 43.2c-.1.1 0 .2.1.4l-.1-.4zm10.9-4.6c-.3 1.4 0 2.9.7 4.3.5-.8 1.8-.6 2.6 0 .7.6 1.1 1.5 1.5 2.4 1.3 3.5 2.5 6.9 3.8 10.3 1.1-.9 2.8-1.3 4.3-.9-.7-3.2-1.4-6.5-2.1-9.6.7-.9 1.9-1 2.8-.3.9.7 1.6 1.7 2.1 2.8.5 1.1 1 2.4 1.5 3.5.3.6.6 1.3 1.2 1.8.5.4 1.9.4 2.3-.1.6-.6.3-1.6 0-2.5-.8-2.5-1.2-5.1-1-7.7 0-.3 0-.7.3-.8.5-.3 1.1.2 1.4.7 1.6 2.6 2.8 5.4 3.6 8.5.1.3.1.6.4.8.3.1.5.1.8 0 .9-.2 1.8-.3 2.8-.5-.4-5.8-2.9-11.5-6.8-15.7-1.6-1.7-4.1-3.4-6.3-2.2-2.1 1.1-2.3 4-2.2 6.4-.6-1.2-1.2-2.3-2.2-3.1-1-.8-2.5-1.1-3.6-.5-1.4.9-1.5 2.7-1.4 4.3.2-1.2-1-2.2-2.1-2.2-1.2-.2-2.3.3-3.3.9-.5.2-1.1.4-1.2-.1M376.2 89c-2.8-3-6-2.4-7.2-1.8-2 1.1-4 2.3-4.3 3.5-1.2 5.6.6 11.7 2.4 17.1s5.2 11 8.2 15.9l1.4-1c1.5-1 2.5-1.4 3.9-2.1-3.9-4.2-6.3-9.8-6.8-15.6 3.5.6 6.5-3.1 6.5-6.5-.1-3.6-1.8-6.8-4.1-9.5zm-1 9.4c0 1.3-.4 3-1.7 3.2-.6.1-1.2-.2-1.6-.5-.6-.5-1-1.2-1-1.9-.4-.9-.6-3.9 1.3-4.4.9-.3 1.9.3 2.4 1 .3.7.5 1.7.6 2.6z"/><path class="st0" d="M407.6 246.9c-2.9-5.5-5.8-10.9-8.7-16.4-.6.7-1.2 1.5-1.8 2.2 4.2-.5 7.7-2.5 10.3-5.8-1 .2-1.9.4-2.8.7 3.1 4.9 8.2 10.7 14.5 7.1 6.6-3.6 5.4-11.5 3.5-17.4-.3.6-.7 1.1-1 1.6l7.2-3.9c-.7 0-1.4 0-2 .1 8.1 12.6 15.3 26.9 18.6 41.5 1.5 6.8 1.7 15.2-4.7 19.7-6.8 4.7-15.5 1.2-19.3-5.4-.4.7-.9 1.4-1.3 2.1 3-1 5.5-2.4 7.9-4.3l-2.4.3c4.5 5.4 13.1 2.6 16.2-2.9 5.4-9.4-1.2-22.3-7.3-29.6-1-1.1-3.2.4-3.2 1.6.2 4.9-3 9.8-8.3 10-2 0-3.9-.5-5.6-1.5-1.4-.8-2.1-2.4-3.4-3.2-3.3-2.1-6 2-8.5 4-1.9 1.5.4 2.4 1.9 1.3.7-.6 1.7-1.8 2.5-2.2 1.5-.7 1.2-.4 2.4.4 1.4 1.1 2.4 2.2 4.1 2.9 2.7 1.2 5.8 1.4 8.6.5 6-1.7 9.8-7.4 9.6-13.4-1.1.5-2.1 1.1-3.2 1.6 4.4 5.2 7.7 11.3 8.7 18.1.4 3.3.4 7.6-1.8 10.4-2.4 3.1-7.2 3.2-9.7.2-.7-.8-1.8-.2-2.4.3-2 1.5-3.9 2.5-6.3 3.4-.7.2-1.9 1.2-1.3 2.1 7.6 13.4 27.6 9.3 30.8-5.4 1.7-8-1.4-16.5-4.2-23.9-3.9-10.6-9-20.7-15.1-30.2-.5-.7-1.6-.3-2 .1l-7.2 3.9c-.4.2-1.2 1-1 1.6 1.1 3.4 2.9 8.4.9 11.8-4.3 7.2-10.6-1.8-12.5-4.8-.7-1-2.3 0-2.8.7-2 2.4-4.3 3.5-7.3 3.9-.8.1-2.3 1.3-1.8 2.2 2.9 5.5 5.8 10.9 8.7 16.4.1.8 3.2-1 2.5-2.4zm37.9-20.5c-.5-3.1-1.3-8.3.3-11.2 3.1-5.9 9.7.4 12.6 2.7 5.4 4.4 10 9.6 15.6 13.8 3.5 2.6 9.1 6.9 13.6 5.2 4.9-2 4.7-6.8 2.6-10.8-.9.7-1.7 1.4-2.7 2 1.4 0 3-.4 4.3-.3 1.9.1 2.2.2 2.7 1.8.6 2.2.4 5.3-.2 7.5-2.5 9.8-14.7 3.1-19.6.1-.7-.4-3.1 1.1-2.9 2 1.1 3.8 2.1 7.8 1.6 11.8-.8 6.5-6.7 9.9-12.8 7.7-9-3.3-10.5-15-6.1-22.3 1.1-1.8 4.8-4.5 4.9-6.9 0-2.7-3.6-6.3-6.1-6.7-5.1-.6-7.2 4.3-7 8.5 1-.6 2.1-1.2 3.1-1.7-1.5-1.1-3-2.3-4.5-3.4-.9-.7-3.5 1.6-3.1 1.9 1.5 1.1 3 2.3 4.5 3.4.7.5 3.1-.8 3.1-1.7-.1-.8-.4-2.1 0-2.9.9-1.9 2.9-1.7 4.4-.1 2 2.1 2.4 4.1.8 6.7-1.6 2.9-4 5.1-5 8.5-2.1 7.2.8 16.2 8.2 18.9 5.1 1.9 11.2.2 15-3.6 5.3-5.4 3.9-13.3 2-19.8-.9.7-1.9 1.3-2.9 2 6 3.8 12.9 7 19.7 3.2 6.8-3.8 5.8-10.1 5.9-16.9 0-.2-.2-.3-.4-.3-2.4.3-4.9.7-7.4.6-.6 0-3.1 1.2-2.7 2 .7 1.4 2.5 4.3 1.6 5.8-1.5 2.3-4 .7-5.7-.2-3.5-1.7-6.7-4.1-9.6-6.7-4.8-4.2-9.1-8.9-14.2-12.7-4-2.9-9-5.9-13.6-2.5-4.6 3.4-4.1 11.1-3.3 16.2.4.9 3.5-.7 3.3-1.6z"/><path class="st0" d="M467.1 237.9c-2.2-3.7-7.2-.1-8.8 2.5-2.5 3.8-2.5 10.2 1.4 13.2 7.5 5.5 16.1-12.1 6.3-16.3-1-.5-3.6 1.7-2.7 2.1 2.2.9 3.8 2.9 4.1 5.3.4 2.6-1 8.9-4.7 6.8-2-1.2-2.8-4.1-2.9-6.2 0-1.7 1.9-9.4 4.3-5.4.4.7 3.5-1.2 3-2zM456.8 203c6-8 12-16 17-24.6-1 .3-2 .6-3 .8 2.5 9.6 5.2 19.1 8.2 28.5.3 1 2.7-.5 3-1.1 2.8-5.8 5.7-11.6 8.4-17.4-1 .4-2 .7-3 1.1 3.6 3.4 7.4 6.4 11.5 9 .1-.4.1-.9.2-1.3-6.9 7.5-12.6 16.3-18.1 24.8l2.7-1.2c-1.9-1.7-4.9-3.4-6.3-5.5-1.6-2.3-1.9-6.1-2.5-8.7-.9-3.9-1.8-7.7-2.6-11.6-.3-1.4-2.6.2-3 .8-2.4 4.5-4.8 8.9-7.3 13.4l2.7-1.2c-2.7-2.3-5.4-4.5-8-6.8-.9-.8-3.8 1.3-2.7 2.2 2.7 2.3 5.4 4.5 8 6.8.7.6 2.4-.6 2.7-1.2 2.4-4.5 4.8-8.9 7.3-13.4-1 .3-2 .6-3 .8 1 4.4 2 8.8 3 13.3.5 2.3.9 5.6 2.4 7.6 1.6 2.1 4.6 4 6.6 5.7.7.6 2.4-.6 2.7-1.2 5.3-8.4 11-16.8 17.6-24.2.3-.3.7-.9.2-1.3-4-2.5-7.7-5.4-11.1-8.6-.8-.8-2.5.3-3 1.1-2.8 5.8-5.7 11.6-8.4 17.4 1-.4 2-.7 3-1.1-3-9.2-5.6-18.6-8.1-28-.3-1.4-2.6.2-3 .8-5 8.6-11 16.6-17 24.6-1.1 1.6 2.3.6 2.9-.3z"/><path class="st0" d="M484.8 181.2c3.8-7.5 7.3-15.1 10.4-23-1 .3-2.1.5-3.1.8 6.8 11.4 13.7 22.8 20.5 34.1.8 1.4 3-.1 3.2-1.2 1-7.2 2.1-14.3 3.2-21.5-1 .5-2 1-2.9 1.4 3.2 1.8 6.4 2.9 10 3.2-.4-.4-.7-.8-1.1-1.2-2.8 10.4-5.3 20.8-7.4 31.3.9-.5 1.7-1.1 2.6-1.6-2.8-.7-6.1-1.3-8.7-2.7-1.8-1-2.5-3.2-3.5-5.4-3.6-7.5-7.1-14.9-10.7-22.4-.6-1.3-2.7 0-3.1.8-1 2.3-1.8 5.3-3.2 7.4-1 1.4-1.2 2-3.4 1.3-1.6-.4-3-1.7-4.1-2.9 0 .6.1 1.1 0 1.7-.1 0-.1.1-.2.2 1.8-.3 2.7-3.3.4-2.8-1.4.2-2 .6-2.9 1.7-.4.5-.4 1.2 0 1.7 2.3 2.4 6.9 5.2 10.3 3.4 3.4-1.8 4.6-8.3 6-11.5-1 .3-2.1.5-3.1.8 4 8.3 7.7 16.6 11.9 24.7 2.5 4.8 7.1 5.3 12.2 6.6 1.1.3 2.4-.4 2.6-1.6 2.2-10.5 4.7-20.9 7.4-31.3.2-.7-.5-1.2-1.1-1.2-3.1-.3-5.8-1.2-8.6-2.7-1.1-.6-2.8.2-2.9 1.4-1 7.2-2.1 14.3-3.2 21.5 1.1-.4 2.1-.8 3.2-1.2-6.8-11.4-13.7-22.8-20.5-34.1-.7-1.2-2.7-.1-3.1.8-3.1 7.8-6.6 15.5-10.4 23-.8 2.3 2.6 2 3.3.5z"/><path class="st0" d="M208.4 39.4l2.4 1c-.6-.2-1.3-.6-2-.9-.2-.1-.4-.1-.4-.1zm66.9 27.3c.4-1.7 1.4-4.5 1-6.1-.3 2.2-1.2 2.8-1.6 4.5.5.2 0 1.5.6 1.6zm-66.5-27.3c.3.1.6.1 1 .1v.2c.6.3 1.2.6 1.8 1l-.8-.2c.3.2.6.2 1 .4 8.8 4.4 17.4 4.8 22.2 12.3 4.4 6.9 2.2 18.3 3.5 27.7.9 6.2 5.9 10.2 10.2 14 2.3 2.1 5 4.9 7.4 5.8 5 1.8 10.8-1.4 11.4-2.9-1 .5-1.5 1.4-2.9 1.6 1.3-1.8 3.4-3.3 4.5-4.2 1.8-1.4 3.2-3.5 6.1-3.2-1.7 2.2-6.1 3.2-6.7 5.4 1.8-2.5 13.7-7.3 7.6-9.8 1.2 1.2-2.2 1-3.2 1.9.8 0 1.5-.1 1.6.6-5 3-6.8 7.3-12.7 9.2 3.6-2.9 8.5-6.2 9.5-10.5-4.1 3-8.6 13-15 8.2-3-2.2-7.1-6.6-10.2-10.2-4.7-5.6-2.2-15.4-2.9-23.8-.4-5.1-2.6-9.6-3.5-13.4 12.8 4.4 23.8 10.6 36 15.6-9.2-4.5-19-9.6-28.3-13.7-3.3-1.4-7.8-1.9-9.2-5.1 5.6 2.3 10.6 4.9 15.6 7.3.4.2 5.1 2.6 3.2 1.3-2.9-1.8-7-3.4-10.2-5.1-3.8-1.9-11.1-3.8-10.8-9.5 2.2 1.8 6.5 5 7.9 5.4-2.7-2.4-7.1-4.3-8.6-7.9-.4-.9 0-2.2-.3-3.2-1-3.6-3.8-7.5-5.4-10.2-5.1-8.3-9.2-16.8-14.2-24.5h-18.8c1.7 3.2 3.4 6 4.2 7.5 2.6 5 6.3 9.3 9.9 13.6v1.2c-5.8-3.4-18.9-6.7-24.8-4.1-2 6.8 15.1 17.1 23.9 21.2zm18.1-11.2c.3-.6 0-.2.6-.6 2.7 1.4 1.9 6.3 5.4 7-.3 1-1.2.1-1.3.6.2.2.3.5.3 1 .8 0 1.2-.5 1.3-1.3.2 1.3.2 3.8-.6 3.5 1.2 2.2 2.3 8.6 4.8 10.5h-1.9c2.1.8 2.8 3 3.5 5.1 1-.2-.3-.6 0-1.3 2 1.5 0 6.3 1.9 7.3.1.7-1.1.2-1.6.3 1.8 1.4 2.2 3.8.3 5.4.5 0 1.2.2 1.3-.3-1.5 6.7.1 15.1 1.6 20.1 4.3 3.8 9.5 9.6 14 13.4-.3-1 1.5 0 3.2-.3-1.1.3-2.2.4-3.2.3-5.2-.5-9.3-5.8-13.7-9.8-6.9-6.4-4.3-14.9-5.4-26.7-.3-3.8-1.8-10.8-4.2-12.1-.2-.2-.3.5-.3.6-1.4-3.8-3.3-8.2-6.7-10.2-3.3-2-4.8-5.8-7.3-8.9 1.6-2.1 5.4-4.8 8-3.6zm-1.3 71.6l.3.6c0-.1-.1-.2-.1-.2-.1-.1-.2-.2-.2-.4zm27.7-1.9c.3-.9-1.4-1.7-2.2-2.6-3.1-3-6.3-6.4-9.2-8.9 2.3 4.1 7.7 7.7 11.4 11.5zM276 66.4c-.4 3-1.4 7-1.3 9.5.4-3 1.6-6.8 1.3-9.5zm12-1.9c1 .1 1-.7 1.9-.6-.6 4 5.8 6.2 7.4 4.6-.2-.1-.4-.3-.4-.6 1.8-1.7-2.2-4-1.9-5.1.2-.1.6 0 .6-.3-3.3 0-6.3 0-7.6 2zm9.5-2c-.6-2-4.3-1.3-5.4-.3 1.8.2 4.2-.3 5.4.3zm2.9.7c2.2 1.8 3 4.8 4.5 7.4-.8-3-1.9-7.3-4.5-7.4zm-55.3-16.3c-1.8-1-1.2-.6 0 0 0 .1 0 .1 0 0zm3.7 2.3c-.7-.3-2.6-1.4-3.8-2.2.6 1.3 3.1 2.3 3.8 2.2zm46.3 22.3c1.2.2 2.7 1.8 3.8 1-1.2-.3-3.2-1.4-3.8-1zm-20.5-2.2v-1.4c.1.5.1 1 0 1.4zm2.6-9c-.8 2-.2 5 1 6.1-2 5.4-1 15.4-8.9 13.7 5.4.2 5.3-6.2 5.4-10.7-.2 6.3-2.5 12.4-9.5 9.8.4-.1.9.1 1-.3-1.2-.1-2.5.7-1.3-.3-2-.2-2.1.2-4.2-.3.5.2-.2-.8-1-1-1-.2-2.9-.6-3.8 0-.1-1-3.6-4.6-4.5-2.9 1-.4 1.8-.2 2.2.6-.4.1-.2.3 0 .6-.8-.1-1.4.2-1.6.6.4.8 1-.6 1.3.3-1-.2-.5 1-1.3 1-1.7-1 0-2.2-1.6-3.2-.7 1.4-.2 3 1 3.5 1.6.3 1.8-.7 3.2-.6 5.8 1 10.9 5.8 16.2 5.1 6.6-.9 5.9-8.9 7.9-15.3.8.5 2.4 1.8 3.2 1.3-1-.7-2.9-.7-3.5-1.9.3-1.1 1.2 0 1.6-.6-.8.1-1-.5-1.3-1 2.2-5.4 4.5-7.1 9.2-11.4 3.8-3.6 8.2-9.7 13.4-10.2 4.6-.5 8.3-4.3 10.8-6.6 4.5-4.2 30.3-32 33.8-35.8h-21.6c-8.6 7.6-16.7 15.6-23.6 24.9-2.6 2.2-6.2 7.4-7 10.8-1.4 5.7-4.9 7.8-7.7 11.4-.3.5-.3 1.6-.6 1.9.1-.1-1 .1-1.3.3-3 2.7-5.8 6.7-7.4 10.2 5-6.7 11-12.3 16.6-18.5-.5-.2-1.7.4-1.6-.3 2.6-.6 6.1-5.4 4.8-8.9.1 1 .1 2.6-1 1.6.6 2.6-1.4 4.9-2.9 6.4 3.1-2.9 1.8-10.1 7-10.8.6-.7 1-1.6 1.9-1.9 4.2.2 5.2 1.1 6.4 3.2-1.8 1-2.6 1.3-5.1 1.3v2.9c.7.9 2.6.6 2.9 1.9-2.2.3-2.6-.7-4.2.6 0-.5.2-.7.3-1-2.8 1.1-4.5 4.5-6.4 6.3-6.1 6.1-14.5 11.5-17.5 21.7-.7-.9.8-4.1-.7-4.5zm28.3-22.5c.5 1-1.4 1.8-2.2 1.6.2-1.2 1.8-.8 2.2-1.6zm-23.2 39.4c2.2 15.7 25.8 10.9 24.2-5.1-.1-1-.6-2.3-1.3-3.8-.6 1.7.6 2.3.6 3.8.2 5.1-3.9 8.9-5.8 11.4.6-.6 1.7-2.3 2.9-1.3-.9.6-1.2.3-1.9.6-5.8 8.4-20.6.5-17.8-9.5.1.4-.1.9.3 1 .1-1-.9-3.4.3-1.9-.9-2.1 2.3-4.3 2.9-6.3-1.2 1.1-1.9 2.7-2.9 4.2-.1-1.1 1.7-2.2.6-3.2.1 2.5-3.4 1-1.3 2.6-.7 2.2-1.2 4.6-.8 7.5zm22.6.3c1.4-.4-1 2.6-1.3 3.5-.8-1.1 1.6-1.8 1.3-3.5zm-7-42.6c1-1.1 2.5-1.3 3.5-2.9-1.1-.2-2.2.1-3.5.6 1 .4-1 3 0 2.3zm-.4 33.4l-.2.2c.2 0 .2 0 .2-.2z" id="Режим_изоляции"/></g><g id="woman_x5F_01_xA0_Image"><path class="st1" d="M131.1 74.9c-5.1-2.5-9.2-5.5-16.8-4.8-4.4.4-9.7 3.4-15.4 2.4 6.1-10.9 28.2-7.5 32.2 2.4zm-45.3-1.6c3.3 5.4-.2 12.1-3.1 17-1.9 3.3-4.3 6.6-4.8 9.8.3.5 1.3-.3 2.2 0 1.1 1.1 2 2.5 2.6 4.1 3.6 1.7 9.6-5 11.8-.7 1.1-.2 2.1-.6 2.6-1.4.9-2.9-2.4-3.9-1.2-5 1.1-1.1 3 1.6 2.6 4.6-1 1.2-2.5 2.8-4.3 2.9-1.1.1-2.2-.9-3.4-1-3.2-.2-5.8 3.2-9.6 1.4-.9-1.9-1.9-3.7-4.6-3.8-.1-4 3.1-7.2 5-10.8.9-1.5 1.9-3.5 2.6-5.5 1.5-3.9 3-7.5 1.6-11.6zm-15.9 32.6c.5.7-2.2 2.4-3.1 3.4 0-2.2 1.4-2.9 3.1-3.4zm-.5 2.6c2.7 4 7.8 1.6 12.2 2.2 1.3.2 2.5 1.5 3.8 1.7 2.4.4 5.4-1 8.4-.5 4.4.8 10.2 6.3 15.8 2.2-.9 1.5-2.6 2.5-4.1 3.6-4 3.1-7.9 7.7-13.9 8.9-4.4.9-9.6-.6-13.9-1.7-5.4-2.7-5.6-10.8-8.3-16.4zm14.7 4.8c-2.8-2.8-8.4-.3-11-1 5.4 5.8 17.8 6.2 27.6 4.3-4.4-2.6-9.4-4.7-16.6-3.3zm8.1 12.3c3.4-.5 6.5-3 8.4-4.8.7-.7 2.2-1.4 1.7-1.9-6 1.3-14.4 3.3-20.9 1.2-3.2-1-5.4-3.3-7.7-4.6.3 8.1 10.6 11.2 18.5 10.1zm8.2-7.7c-3.2-.7-6.1 1.1-9.1 1.2-4.1.2-8-1.1-11.8-1.2 5 2.7 15.8 2.9 20.9 0zm9.8-7.2c1.8.8 3 2.1 2.9 4.8-.9-1.6-1.7-3.4-2.9-4.8zm-24.9 26.6c1 .5.6 2.4 1.2 3.4-1.1-.5-2-2.5-1.2-3.4zm-7 49c.5-.2.1 2.4.2 3.4-.4.2-.1-2.5-.2-3.4zm193.2 54c-3.8-7.8 6.6-12.5 12.5-9.4 2.6 1.4 2.8 6.3 1.2 9.1-1.4 2.5-6.5 4.6-9.6 3.6-1.8-.5-2.2-2-4.1-3.3zm5.3-5.5c0 3 1.7 4.4 3.6 5.5 1.2-3.1-.8-7.9-3.6-5.5zm106.1 93.8c-.7 2.6-3 3.6-3.6 6.2-.2.9 1.3.2 1 1.2-1.1 2.2-3 3.8-6.2 3.8-.3-5.9 3.2-10.2 8.8-11.2zM255.4 446.7c1.3-4.4 5.4-7.2 11.3-6.2 4.2 4.2-2.6 11.2-7.9 9.8-1.8-.5-1.9-2.4-3.4-3.6zm7.2-.7c.1-1-.3-1.5-.7-1.9 0 .8-.2 1.9.7 1.9z"/><path class="st1" d="M234.3 133.5c1.2.7-.8 1 0 1.9 3.5 1.1 6.2 4.2 9.4 6.7 5.9 4.6 12.4 8.6 19.4 12.2.2.7-.3.6-.2 1.2 5.8 3.8 12.9 5.8 19.7 9.1 6.6 3.2 13.8 5.2 20.6 7.9 1 .4 1.7 1.1 2.6 1.4 3.3 1.1 7.6 1.8 11.5 2.2 9.1.9 17.5.7 26.9 0 5.2-.4 10.2-1.6 15.6-1.7 7.5-.2 14.8-.4 21.8-1.2 6.5-5.4 13.5-10.2 19.9-15.6-4.1-2.9-2-10.2 3.1-10.6.3-.4-.4-2.4.2-3.1 1.1-3 3.8-4.7 7.4-4.3 1.9.2 3.8 2.4 4.8.5 0-.8-.8-.8-1-1.4-2 .7-7.7.9-8.9-1.4-.5-5 3.3-6.2 7.4-7.4 1.7-.5 4.4-1.7 5.5-1.7 2.6 0 4.6 2.9 6.5 3.4 9.1-9.5 18.3-18.8 29.3-26.4 1.5-1.1 2.8-2.7 4.3-3.8-.3-1.7.6-2.6.7-4.1.3-3.6-2.1-7.5-1.7-10.1.8-4.2 9-5.3 10.6-8.9-1.5-.3-3.5 1-6 .5-5.4-4.4 1.4-10 7-10.1.5.7.4 1.2 0 1.9 2 .5 2.4 2.8 3.4 4.3 4.1-3 8-6.3 11.8-9.6-.4-1.6-2.3-1.6-2.6-3.1-1.5.6-4 1.9-5.8.7.3-5.6 6.8-7.1 11.5-7.7.3.9-.8 2.2-1.4 2.9.7 1.3 2 2 2.6 3.4 4.4-4.2 8.6-8.5 14.2-11.5-.3-.6-1-.9-1.2-1.7-1.7.8-4.5 3.8-7.9 2.9-.1-6.3 6.8-6.8 11-7.9 1.1.8 1.4 2.3 2.6 2.9 4-2.1 7.3 3.7 9.1 6.7 1.8 3 3.6 5.8 5.3 8.2 4 5.4 6.7 12.4 10.3 16.6 2.4 2.7 5.7 3.6 7 7-2.5 2.9-8 2.9-10.6 5.8 1 1.5 2.1 3.1 4.1 3.6-1.9 4.4-5.9 7.9-11.3 7.9.1-3.3 2.4-4.3 4.3-5.8-.5-1-1.8-1.1-1.4-2.9-3.5 1.9-6.4 4.3-9.6 6.5.5 1.2 1.7 1.7 1.7 3.4.8-.3 2.3-.8 3.1-.2-.9 5.4-3.9 8.5-9.8 8.9-.7-3.2.4-4.7 2.2-6-.2-1.1-1.3-1.3-1-2.9-3 1.5-6.8 4.2-9.8 6.5 1 1.6 2.7 3.1 1.2 5.3 1.4-.5 3.1-1.7 4.8-1.2.9 5.2-5.1 8-9.4 7.2-1-2.1.9-3 1.4-4.3-.7-1.1-2.5-1.2-2.6-2.9-3.5 1.4-6 5.6-10.3 5.5-2.2-.1-4.2-2.1-6.5-2.4-6.9-1-8.8 2.6-12.7 5.5-4.5 3.4-8.1 6-12 9.8-2.7 2.7-5.1 5.5-7.9 8.2-2.8 2.6-5.2 5.5-8.2 7.9 1.6 4.9 2.4 13.5-.5 17.5-1.5 8.9-4.5 16.3-11.5 20.2-3.1 1.7-7.2 3.4-11 5.3-1.8.9-3.9 1.6-5.8 2.4-4 1.7-8.2 3.8-12.7 5.3-.2 1.9-.5 3.8-1.2 5.3-3.6.4-8.7-.1-12.2 1.4-2.1.9-4.5 3.9-6.7 6-14.7 14.4-31.3 28.2-45.4 42.7 1.4 1.4 1.7 4.5 4.3 3.4 1.1 3.1 3.5 3.2 3.1 7-.4 3.7-5.6 6-8.4 8.9-3.1 3.1-4.5 6.5-6.2 9.4 9.4 4.9 21.4 7.2 29 13.9 6 2.2 11.3 5.7 16.8 8.6 5.7 3 11.6 5 17 8.2 10.5 6.1 19.6 14.2 29 21.4 9.6 7.3 17.6 15.9 25.7 24.7 8.1 8.8 15.6 18.1 22.1 28.3-4.1 8.7-9.3 16.4-13.4 25.2-.6.9.4 1.2 0 1.7-3.1 3.8-5.5 8.5-7 13.9-1 .1-.7-1-1.4-1.2-.9.1-.2 1.7-1.2 1.7-.9-2.3-2-4.2-3.4-6.5-1.9-3.3-3-6.1-8.2-6.5-9.3-.7-20.7 1.1-27.1 4.1-.7-.3-.7-1.4-1.4-1.7 2.6 8.4 6.1 16.3 9.6 24 1.8 4 3 8.1 4.6 12.2 7.5 19.8 16.9 39.2 18.2 65h-4.1c-2.7-28.9-14.6-49-22.6-73.2-.2-.8-1.7-.3-1.9-1-.6-1.8-1.6-3.3-1.9-5.5-1.4.7-1.4 2.8-3.6 2.6-1.1-5.8-1.7-10.8-2.2-17.5-.5-7.8-4.4-13.1-6.7-19-15.5 4.8-26.6 13.9-38.6 22.1 2 2.4 4.4 4.4 6.5 6.7.8.1.8-.4 1.7-.2 2.7 6.3 9 11.5 13.7 17.5 2.6 3.4 5.4 7.6.2 9.8-2.4-2.2-3.8-5.3-6-7.7 8.7 25.4 21.9 47.5 37.4 65.3-1.9-.5-5 .6-7.2 0-1.8-.5-4.6-5.3-6.5-7.9-10.1-14.1-18.6-29.6-25.4-46.6-2.9-7.2-4.2-15.2-7.9-21.6-2.6-4.5-8-7.9-11-11.5-4.1 4.2-8.7 8.1-13.2 12.2-1.6 1.5-2.5 3.7-4.3 5-2.4 1.8-5.2 2.9-7.7 4.8-4.7 3.6-9.7 6.8-14.6 10.3-2.5 1.8-5.4 2.8-8.2 4.3-1.1.6-1.9 1.6-3.1 2.4-3 2.1-6.2 3-8.4 5.8.4 16.5-2.3 29.8-5.5 42.7h-3.6c3.3-9.8 3-23.1 2.9-36.2-2.5.7-4.8 3.7-7.4 5-.5 3.8-1.1 7.3-1.7 11.3-.4 2.2-.5 5-1.2 6.7-.3.8-1.4 1.5-1.7 2.4-.4 1.2.1 2.7-.2 4.1-.6 2.4-2.3 4.4-2.6 6.7H260c1.6-6 5.1-10.7 7.4-16.1 2.5-5.5 2.8-11.9 4.8-18.5-.6-1.6-.3-1.9.5-3.1-.7-.2-.7.4-1.4.2.7-1.4 1.3-2.8 2.4-3.8 4.2-19.7 1.5-43.8-2.2-62.4-7.2 4.6-13 12.5-22.8 15.4-2.4.7-5.1 1.1-7.7 1.7-2.4.6-5 .8-7.7 1.4-.9.2-.9-.8-2.2-1.2-1.4-.4-4.1.2-2.4-.7-1.3-.1-1.7.1-1.4.5-6.9-.6-14.9-1.5-22.1-2.4-4.7-.6-9.7-.9-13-2.2-1.6-.6-3.2-2-4.8-2.9-4.9-2.6-9.1-5.8-13.9-8.6-1.4 9.2-3.2 18.1-4.6 27.1-1.4 9-2.4 18.1-4.8 26.6-4.6 16.3-12.1 30.9-14.2 49h-5.3c2.6-17.4 10.5-32.5 14.9-49.9 2.2-8.6 3-18 4.6-27.8.7-4.3 1.8-8.8 2.6-13.4 1-5.5 1.6-12.2 1.2-16.8-5.8-6.3-12.3-13-17.5-20.9-3.7-5.5-7.4-11.8-11-17.8-1.8-3-3.5-5.3-3.6-8.9-1.9.5-4.6.2-7 .2-3.9 3.6-6.8 8.1-13.7 8.6-1.2.1-.7-1.4-1.2-1.9-14-.4-26.3-.5-37.4-3.8-6.8-2-13.3-4.6-20.4-6.5-2.1-.5-5.7.1-8.4-.2-2.2-.2-4.5-1.5-7.2-1.4-2.5-3.7-4.1-7.5-4.6-13.2-.8-10.5-.2-21.4-.7-32.4-.3-6.4.1-12.8.7-18.7.5-5 1.2-9 1.4-14.9.3-7.5.9-14.4 1.7-21.1.8-6.5 2.5-12.5 3.8-18.7.4-2 .4-4.1 1.2-6 1.4-3.4 3.8-7.2 5.5-10.8 1.9-3.8 4.2-6.9 6.2-10.1 3.7-3 6.6-6.6 10.6-9.4 1.4-7.8 1.2-17.5.7-26.6-.5-9.2-.4-18.3-1.7-26.4-.7-4.5-3.4-9.6-5-14.6-1.6-5.2-2.3-10.7-3.6-15.8-.3-1.2-.9-1.8-1.2-2.9-2.7-9.8-1.1-23.1-.2-33.4 1.1-13.9 1.1-28 6.2-37.9 3.4-6.6 7.6-13 12.2-18.7 1.1-1.3 3.1-3.4 4.3-4.3 3.3-2.7 7.8-5.8 12.7-8.2 7.9-3.8 19.6-7.1 30-3.4 4.8-1.2 10.1-.3 14.6 1 14.9 4.1 24.6 13 30.5 26.9 2.1 5 4.6 10.2 6.5 15.4 5.8 15.9 7.5 34.8 10.1 52.1-.2 1 1.2.4 1.2 1.2 1.1 4.1 4.5 9.8 9.4 10.1 1.7.1 3.1-.3 4.6-.2 3.1.2 5.4 1.4 7.9 1.9 8.1 1.6 12.7 2.4 17.5 5.5 2.3 1.5 4.1 4.9 7.2 6.5 1.2.2 3.3.5 4.1 1.4zm-89.7-24.2c-.8-13.3-3.2-27.4-6.5-40.6-3.2-13.2-6.9-24.1-14.4-31.7-1.5-1.5-3.5-3-5.5-5-1.4-1.4-5.1-4.1-5.3-5.5-.4-2.9 3.2-5 4.6-7 .8-2 2.7-4 3.8-5.5.3-.4 1-1.3.7-1.4-3.9 2.5-5.5 7.3-9.1 10.1-.5 2.7-2.9 3.8-5 4.8-5.5 2.6-11 3.7-15.8 5.8C78.6 38.9 72 49.8 66.2 63.5c7.3-1 15.2 1.3 16.1 8.4-4.1-3-10.1-3.9-16.8-4.3-.6 2.7-1.6 10.7 1.7 9.1.7-1.2-2.1-1.6-1.4-2.6 1.3-.8 1.3 1.4 2.6 1.2.7-.9-.9-1.1-.7-2.2 1.2.2 1.1 1.7 2.6 1 .7-.4-.9-.9 0-1.4.6 0 .3.9 1 1 5.8-1.9 11.9 2.6 12.2 6.7-1.7 0-1.4-1.9-3.1-1.9.2 2-.6 2.9-1.7 3.6 1.1.3 2.1-.8 2.6-.2-4.3 2.1-13.7 1.6-15.7-2.4-.2.6-1.1.5-1.9.5-.8 7.4-5 12.1-4.3 20.9.9 11.3 5.5 17.9 9.8 25.4 2.1 3.8 3.7 8 6.5 11.3 3.9 4.5 9.5 7 17.8 6.5 7.2-.5 13.6-3.2 19.4-5.8 6-2.7 10.8-6.7 15.1-10.3-5.5 6.5-11.9 11.4-20.2 14.6-3.1 1.2-7.6 1.3-9.6 3.1-1.1.1-1.9.5-2.9.7 3.4 10.5 8.2 19.4 11.5 30 .6.3 1.3.6 1.9 1 5.2 7.2 16.4 8.5 27.6 9.8.7-2.3 2.1-4 4.3-4.8.4-3.8 2-8 2.9-12.7 1-5.3 3-13.7 0-17 1-2.5-1.4-5.3-1.2-7.9 0-.6.5-1.1.5-1.7-.2-2.7-1.6-5.7-2.2-8.6-.4-2.3-.8-4.7-1-7-.3-4.4 1.5-7.4 1.2-10.8-.2-1.7-1.2-3.2-.2-4.8 1.2 1 1.6 2.7 3.1 3.4 1.3-1.6 1-4.2.9-6zM75.2 28.1c7.6-8.6 19.4-13.1 31.4-17.3-13.5 2.6-24.9 8.6-31.4 17.3zM93 17.6c-4.3 2.1-7.9 6.6-12 7.2-2.1 2.2-5.5 4.5-6.7 6.7 6.2-5.2 13-10.1 21.1-13.2 2.7-1.1 5.7-1.5 8.4-3.1-3-.2-7.7.8-10.8 2.4zm12.2-.5c1.7-.5 5.7-.8 8.2-.7-2.5-.2-6.6-1.1-8.2.7zM152 32.2c-3.3-6-7.1-13-13-15.8-.2 0-.3.2-.5.2 0 .3-.3.3-.2.7 7.8 4.2 10.5 13.5 15.6 20.4.4-1.9-1-3.8-1.9-5.5zm-48.2-12.7c2.9-1.1 6.5 1.4 8.6.2-1.3-1.4-7-1.4-8.6-.2zm-5.8 0c-3.4.6-7.1 3.4-10.3 5.3C77.6 30.7 68.2 38.1 66.3 51c1.1-.8 1.3-2.4 1.7-3.6 1.3-4.1 3.1-7.5 5-10.8 7.2-6.2 15.2-12.2 25-15.6 1.3-.5 3.2-.6 4.1-1.9h-.5c-.9 1.1-2.3.2-3.6.4zm49.7 20.6c-2.6-5.7-5.4-10.3-9.6-14.6-2.2-2.3-5.2-6-8.6-5 0 .3-.3.3-.2.7.5.4 1.7.2 2.4.5 9.3 5.9 13.8 16.6 18.5 27.1.3-2.8-1.3-5.9-2.5-8.7zm-70.3-4.8c7.8-5.9 16.9-10.4 27.4-13.7-11.8.1-21 7.7-27.4 13.7zm29.2-13.2c-.7 0 1.6.9 3.1.2-1.4-.1-2.3-.2-3.1-.2zm-30.7 18c6.9-7.2 18.5-10.9 26.4-16.3-10 4.1-21.5 7.9-26.4 16.3zm31.5-14.4c.3-.4 2.2-.5 1.4-1.2-.4.4-1.8.9-1.4 1.2zm42.2 10.6c1.8 3.2 2.7 6.7 4.8 9.8-2.2-7.7-6.2-13.7-10.8-19-.3 0-.7 0-.7.2 2.3 2.7 4.9 5.8 6.7 9zm2.9-8.4c4.9 4.3 7.6 11.9 10.1 18.5.7 1.9 1.4 4 2.6 5.5-3.3-9.1-5.9-18.9-12.7-24.5h-.5c0 .3.1.6.5.5zm-11.3 23c1.7 5.3 2.1 11.5 3.4 18 2.9 15.1 3.6 31 3.8 47 1.5-2.2.6-5 .5-7.4-.1-2.9.1-5.8 0-8.6-.3-16.9-3.5-31.2-5.3-45.8-.5-.6-1 .8-1.2-.5-2.6-9-6.2-17-13.2-21.6-.2.1-.5 0-.5.2 5.8 4.2 10.2 11.3 12.5 18.7zm7.9 4.1c-1.6-8.4-5.6-16.5-10.3-22.6h-.7c5.1 6.1 8 14.4 11 22.6zm-5.5-3.1c.7 2.2.8 4.6 2.2 6.5-2-9.4-5.1-17.6-10.6-23.5 3.1 4.6 6.3 10.7 8.4 17zm15.1-2.4c-.8-2-1.4-4.4-2.4-6.2-.8 3.3 1.4 6.4 2.4 9.6 2 6.8 3.9 13.4 4.8 21.4.4 3.9 1.3 8.6.7 12.5-.2 1.1-.7 1.4-.7 2.6-.1 2.2 1 5.1 1.4 7.7.5 2.7.8 5.4 1.2 7.9 2.5 16.3-.1 36.4 5.5 49.4.9-2.9-1.2-5.7-1.4-8.9-1.4-16.7.4-38.7-4.1-53.3 2.4 13.5 3.2 31.8 3.1 47.8-1.2-12.9-.6-26.9-2.6-38.4-.7-4-2-8.2-1.9-11.8.1-9.2-.2-19.1-2.2-27.8-1.7-7.8-3.5-15.3-5.8-22.3-.1-.2-.2-.3-.5-.2.8 3.3 2.5 6.8 2.5 10zm1.9-2.4c4.5 9.1 9.3 18.9 11.5 30.7 2.8 15.1 4.9 32.9 4.6 50.2-1.1-6.3-1.8-13-2.6-19.7-1.9 11.8 4.1 21.1 2.6 33.4 1.7-.5 0-4.3 1-5.5.9 2.7 2.7 6.4 5 8.4 1.3 1.2 4.3 3.6 6.2 1.4-12.1-2.4-12.1-18.1-11.5-32.4 2 7.7 3.2 16.3 9.1 20.2 4.4 3.1 10.7 1.7 14.9.2 1.6-.6 4-.8 4.1-2.4-3.6.5-5.7 2.5-8.9 2.9-13.9 1.8-16.4-12.3-18.2-22.8-1.1-.5-1 1.4-1.4.7-.8-10.8-1.4-20.7-3.1-30.7-.8-4.6-1.6-9.2-2.6-13.2-2.2-8.4-6.9-15.1-9.6-22.1-.1-.2-.2-.3-.5-.2-.1.4-.7.2-.6.9zm348 3.4c-.4.6-.9 1.1-1.7 1.4-.7.2-.5-.7-1.2-.5-7.5 5.2-13.2 12.3-20.4 17.8 2.9.7 3.6 3.6 5.8 5 2.9-3.5 7-5.8 9.8-9.4-1.1-1.7-2.2-3.4-3.6-4.8 3-4 7.2-2.6 8.6 1.2 2.1-2 4.5-3.7 7-5.3-1-2.1-2.5-3.9-4.3-5.4zm-1.2 13.4c1.8 2.2 3.2 4.8 5.3 6.7 1.7-2.3 3.7-4.3 6-6-1.7-1.9-2.9-4.3-4.6-6.2-1.5 2.5-4.7 3.3-6.7 5.5zm-353 12.7c.6 3 1.4 6.2 1.9 8.9 3.5 18.5 2.6 40.3 2.4 61 1.1-3 .9-6.5 1-9.8.1-3.5.2-7 .2-10.6 0-22.4-1.8-41.7-6.2-58.8 0-.1 0-.3-.2-.2 0-.1 0-.3-.2-.2-.9 2.1.4 6 1.1 9.7zm359.8-3.3c.9.6 1.3 1.7 1.9 2.6 2.4-1.2 4.5-2.6 7.4-3.1-.6-2.1-1.6-3.8-2.9-5.3-1.6 2.4-5.6 2.5-6.4 5.8zm-11.8-5.6c-3.1 2.9-6.4 5.6-9.6 8.4 1.6 2.7 3.9 4.7 5.8 7.2 3.9-2.2 6.9-5.2 9.6-8.6-2.2-2.1-3.4-5.2-5.8-7zM481 72.5c-2.8 2.7-6 4.9-8.6 7.7-1.7 1.1-7 3-7.4 5-.4 1.7 1.8 6.5 1.7 9.1-.3 5.2-2.4 6.8-5.3 9.4-1.6 1.4-2.7 2.8-5 3.4-9.9 7.7-18.1 17.1-26.9 25.9 1 0 1.2.9 2.2 1 3.4-5 7.9-8.7 12.2-12.7 7.2-6.7 14.3-13.4 21.8-19.4.6-5.8 5.9-6.7 8.4-10.6-2.8-1.7-4.2-4.9-7-6.7 1.5-2 3.1-3.2 5-2.9 2.7.4 4.1 5.6 6 5.5.4 0 1.2-1.6 1.9-2.4 2.2-2.5 4.7-4.4 6.2-6.7-1.6-1.9-2.9-4.2-5.2-5.6zM78.8 75.7c-1.6-1.4-4.1-2-7.2-1.9.3 2.5 5.6 1.4 7.2 1.9zm439.7 3.1c2 4.3 5 7.7 7.2 11.8 3.1-1.4 5.4-3.6 8.4-5-4-3.3-7.3-7.3-10.1-11.8-.6 2.8-2.8 4.2-5.5 5zM72.3 75.4c-1-.1-1-1.3-2.2-1.2-1.1 1 1.3 2.3 2.2 1.2zm-3.6 0c-.2.6 1 1 1.2.5-.5-.1-.6-1.1-1.2-.5zM67 79.5c1.1 1.7 4 2.9 6.5 2.4-2.2-.5-1.7-4.4-1.9-5.5-1.6 1-3.7 1.4-4.6 3.1zm.5-2.6c-.1 1 1.6.4 1.7 0-.7 0-1.1-.6-1.7 0zm-1.7 1.4c-.1-.8-1.1-.7-1.4-1.2-.2 1.1.8 1 1.4 1.2zm9.4-.2c.3 1.9 3.3 1.7 3.1-.5-1-.2-3-1.2-3.1.5zm434.4-.5c-3 2.8-5.9 5.8-8.9 8.6 1.9 1.4 3.7-1.4 5.3-2.6 1.9-1.4 4.1-2.8 5.3-4.3-.7-.5-.6-1.7-1.7-1.7zm-29.5 11.5c2.1 1.4 3.6 3.5 5.5 5 3-2.2 5.7-4.7 8.4-7.2-2.1-2-3.7-4.5-5.8-6.5-2.8 2.9-5.8 5.4-8.1 8.7zm23.5.5c2.5 2.6 4.6 5.6 7.4 7.9.2.7.8-.3 1.4 0 .4.6.6 1.2.2 1.9 2.9-1.6 5.4-3.6 7.9-5.5-2.6-4.1-4.9-8.3-7.9-12-2.7 2.8-6.1 5-9 7.7zm-334.1-1.2c2 11.8 3.4 25.4 4.6 37.4.4 4.3.4 8.6 1.7 12.5-1.8-16.9-2.9-34.5-5.8-50.4-.1-.2-.2-.3-.5-.2v.7zm325.9 1.2c-2.5 2.4-5.4 4.4-7.7 7 .4.6.9 1.1 1.4 1.4 2.6-2.2 5.4-4.4 7.9-6.7-.1-.9-.7-1.5-1.6-1.7zM476 93.2c-2 2.5-4.6 4.4-6.7 6.7.4 0 1.4-.6 1.7 0-1.5 3.3-4.1 5.5-7.7 6.7-9.7 9.9-20.8 18.4-30.2 28.6.5.6 1.1 1 1.7 1.4.8-1.8 2.9-2.3 3.6-4.3 12.3-7.8 20.3-19.8 33.8-26.4 1.3-4.4 6.6-4.8 8.9-8.2-1.9-1.4-3.1-3.3-5.1-4.5zm32.4 9.3c-4.2-2-6-6.5-9.6-9.1-2.5 2.3-5 4.6-7.7 6.7 2.5 3.3 5.2 6.3 8.2 9.1 2.6-2.7 7.1-4.7 9.4-7-.1.2-.1.4-.3.3zm-62.9 29.3c12.2-10.8 25-21.1 38.4-30.7-.5-.1-.5-.6-.7-1-2.7 1.4-5 4.4-7.7 6.2-3.3 2.3-7.1 3.5-10.1 6-2.9 2.5-5.7 5.1-8.6 7.7-5.8 5.1-11.9 10-17.5 15.1-1.6.5-2.2 1.9-3.6 2.6.4.5.9 1 1.2 1.7 2.6-2 5.1-4 7.2-6.5-.4-.1-.6.4-.7 0 .5-.6 2.2-2.5 2.1-1.1zm9.9-4.1c-.1.3-.3.6 0 .2 1.4-.6 2.2-1.8 3.8-2.2 1-1.4 2.5-2.3 3.8-3.4.7-.4.9.1 1.4-.2 5-4 11.2-10.3 20.9-9.1 2.3.3 3.9 1.5 6.2 2.2.9-.7 1.8-1.4 2.9-1.9-2.5-3.5-5.6-6.4-8.4-9.6-10.7 7.4-21.4 15-30.6 24zm-314-8.8c.6-.7 1.8-.8 2.4-1.4-.8.1-1.3-.1-1.9-.2 0 .4-.9 1.4-.5 1.6zm2.9 4.3c-.1 1-.1 2.9.2 1 .1-.4.8-3.8.2-2.6-.2.5-.3 1.1-.4 1.6zm309.4 5.5c-4.5 5-9.6 9.4-14.9 13.7.3 1 .5 2.1 1.2 2.6 3.4-5 8.5-8.7 12.2-13 .8-.9 2-1.7 1.9-2.9 0-.2 0-.5-.4-.4zM67.3 140c4.2 13.1 4.2 29.3 4.8 44.2 1.2-4.7.6-9.7.5-14.4-.3-9.9-1.5-19.3-3.6-27.6-1-3.9-3.4-9.6-3.6-12.5 0-.1 0-.3-.2-.2-2 1.7 1 7.2 2.1 10.5zm360.2 42.7c.9-.4 2-.4 2.9-1 4.4-2.8 6.7-11.7 7.7-18.7 1.3-8.7 0-16.4-4.6-22.3-1.6-2-4.7-4.6-7-5.5-.5-.2-1.2 0-1.7-.2-1.1-.6-5.1-4.1-6.5-3.6-2.5.8-6.2 1.4-8.2 3.1.5 2.7 6 2.2 7.7 1 2.7 2.6 4.8 5.9 8.6 7.4.6 4.2 9.3 11.8 3.1 14.2-3.9-3.6-7.7-7.3-12-10.3-2.6-1.9-6-4.9-9.8-3.6 0 1 0 2-.2 2.6 2.6 2.1 6 4.2 9.6 7.2 2.4 2 10.5 9.6 4.6 11.8-3.3-7-9.6-11.1-15.6-15.4-.8.9-3.2.1-3.8 1.2-.8 2.3 2.1 4.6 3.6 6.2 4.6 5 10 9.3 13.2 14.4-.6.9-1.1 1.9-2.4 2.2-4.8-3.6-10.6-6.1-13.9-11-.9 9.5 8.3 12.9 12.2 19.2-2.1.2-3.6 1.2-4.8.5-4.1 3.9-9.7 6.3-11 13 10.4-4.1 18.9-8.5 28.3-12.4zm-233-42.7c-5 1.8-9.1-1.3-10.6-4.1-.7-1.2-.7-3.8-2.9-3.8-.6 1 .7 1.8 1.2 2.6.5.9.6 2.2 1.2 3.1 6.3 9.8 19.8-2.1 25.2-5.5 0-.3 0-.7-.2-.7-4.1 2.2-9 6.6-13.9 8.4zm14.9-5.1c0-.6.9-.3 1-1h-1.2c0 .4-.2 1 .2 1zm-28.8 30.3c1.7 1.8 3.5.4 5-.5 9-4.8 13.9-12.3 20.6-19 4.3-4.3 8.2-8.4 12.2-11.5-18 4.9-22.7 23.2-37.8 31zm175.2 12.7c-5.5.4-11.3 1.4-16.1 1.7-2.2.1-4.5-.1-6.7 0-2.6.1-5.1.8-7.7 1-4 .2-8.5-.8-12.7-1.2-4.2-.4-8.6-1-12-2.2-4.6-1.6-8.8-4.1-13.2-5.5-4.5-1.5-7.5-2.5-11.3-4.3-2.7-1.3-5.5-2.2-8.2-3.4-5.3-2.3-10.1-5.8-14.4-8.6-7-4.7-13.4-9.6-20.2-14.4-2.3-1.6-4.5-3.5-6.7-4.8-1.7-.9-4.3-1.5-6.5-.7-2.9 1-6 5.6-8.6 7.9-3.3 2.9-5.9 5.8-8.2 8.6-5.2 6.5-11.1 11.2-18.5 14.9-.6.3 1.3.8.5 1.4-4.8 5.2-3.7 18.5-4.1 26.6 5.7 1.2 12.7 1 17.3 3.4-1.4 4.7-3.7 9.7-4.3 15.4-.3 3-.4 5.9-1 8.9-.5 2.6-1.8 5.3-2.2 7.9-.2 1.2.2 2.4 0 3.6-.5 3.8-1.9 7.4-1.9 11.3 4.1 4.6 9.5 8 13 13.2 7.8-2.5 17.1-.7 26.2-.5 7.4-7.2 13.1-16 18.5-25.2-3.2-12.1-6.4-24.4-15.1-31-3.6 3.1-7.5 5.1-10.6 8.6-2 2.3-2.8 6.4-7.2 6-.9-2.9-2.8-4.7-4.3-7-.1-1.4-.6-2.3-1.7-2.6 3.4-5.3 10.3-7 14.2-11.8-4.3-3-9.3-5.3-12.7-9.1 1.4-1.1 1.7-2.7 3.6-2.9 2.1-.1 3.5 2.2 5.5 3.4.5.3 1.3.2 1.9.5 1.4.7 2.6 2.4 3.6 2.9 5.2 2.3 17 2.3 24.5 5 1.2.4 2 1.2 3.1 1.4 1.1.2 3.3.1 4.6.2 2 .2 4 1.2 6 1.7 1.2.3 2.5.2 3.8.5 4.5 1 8.6 3 13.4 3.6 5 .6 10.1.8 15.4 1.7 5.1.9 10 1.6 15.1 1.9 5.2.4 10.1 2.1 14.6 2.4 3.8.3 5.9-.4 8.9-1 2-.3 4.2-.3 5.5-.7 1.2-.4 2.9-2.5 4.3-3.6 1.6-1.3 3.3-2.6 4.6-3.6 9.7-7.5 17.8-14 26.9-21.4-7 .2-13.1-.5-18.9-.1zm-159.2-41.8c.1.3-.3 1.2.2 1.2.1-.7 1-.6 1-1.4-.6-.2-.6.3-1.2.2zm221.3 6.5c2.5 1.3 4.5 3.2 6.7 4.8-1-3-4.3-3.7-6.2-5.8 0 .5-.7.4-.5 1zM82.2 152c1.3 7.6 2.1 15.6 3.8 22.8 1.4-3.5-.1-7.7-.7-11.5-.6-4-1.4-8-1.7-12-.3 0-.3-.3-.7-.2-.3.2-.4.6-.7.9zm88.8 13.2c5.8.6 8.5-1.5 11.8-3.6 3.5-2.3 6.2-4.4 7.7-7.4-4.1 2.6-8.6 6.5-14.2 7.4-3.8.7-11.6-.9-14.2-2.2-3.2-1.6-5.1-5-7.7-6 3 5.9 8.5 11 16.6 11.8zm-81.2-8.4c1.8 8.4 2 18.6 3.1 27.6 1.4-1.6.6-4.5.5-6.5-.3-7.3-1-15.3-2.4-21.6 0-.1 0-.3-.2-.2 0-.1 0-.3-.2-.2-.3.2-.4.6-.8.9zm-8.4 10.3c1.9 7.5 2.8 15.1 3.4 23 1.4-2.3.5-5.3.2-7.9-.7-8.5-2.6-16.1-4.6-22.8 0-.1 0-.3-.2-.2-1.1 1.9.6 5.1 1.2 7.9zm62.2 15.4c3.1 1 5.8 1.2 6.5 3.8.9 3.7-2.1 8.7-5.8 9.4-4.9.9-9.4-.7-8.2-6.2-9.7-.9-19.2-1.9-25.7-6 1.7 7.3 7.5 9.9 12.5 13.7 1.8 1.4 3.4 2.9 5.3 4.1 5.3 3.4 10.9 7.1 15.4 10.8 4.1 3.4 9.4 5.9 13.9 8.4 2.1-3.9 6.5-5.5 10.1-7.9-1.2-5.8-2.6-11.8-4.1-17-.5-1.9-1.2-3.4-1.9-5.3-3.1-8.2-6-17.3-10.6-23.5-1-2.6-1.9-5.3-3.4-7.4.1 7.9-2.5 15.2-4 23.1zm-66.7-21.9c-1.2 3.3 0 8.4.2 13.7.2 5.3.3 11.2 0 15.6-.1 1.7-1 4.4 0 4.8 1.4.4.5-3.4 1.2-4.6.2 1.4-.2 3.5 0 4.1 2.1-10.8-.7-22.6-.7-33.6h-.7zm322.3 2.2c-7.4 5.1-14.2 11-21.6 16.1-7.4 5.1-14 11.4-21.1 16.8-14.4 10.8-27.3 23.4-41.3 34.6 2.2 3 5.3 5.1 7.2 8.4 13.1-11.5 26-23.2 38.9-35 12.9-11.8 26.6-22.9 38.9-35.3-1-1.5 0-4.5-.5-6 0 .2-.4.1-.5.4zm-233.3 22.8c2.2 1.7 2.4 5.4 3.4 8.4 1.9-1.5 5.1.1 7.2-.2.2-7.9-1-18.3 3.4-23.5-3.4-1.1-6.7.4-10.1 0-4.1-.5-7.8-2.6-11.3-3.4 2.2 6.5 5.9 11.4 7.4 18.7zm-67.2-4.3c.9.1 1.1-.5 1.7-.7-.2-.9-.3-1.9-.7-2.6-.1.5.3 1.6-.2 1.7-.5-3.6-2-6.1-2.2-10.1-.3 0-.3-.3-.7-.2-.7 4.3 1.8 7.6 2.1 11.9zm302.4-9.9c-26.3 22.7-51.5 46.5-77.5 69.4.6.5 1 1.1 1.4 1.7 6.9-4.8 12.7-11.2 19-17 6.3-5.9 13.6-10.7 20.2-16.3 6.6-5.6 13.1-11.1 19.9-16.6 6.8-5.4 12.9-11.8 20.2-16.6-.3-1.4-2.4-2.9-3.2-4.6zm-318 20.2c1.6-4-.6-10.2-1-14.6-.1-.2-.2-.3-.5-.2-.5 4 1.2 9.9 1.5 14.8zm322.8-14.4c-.1 0-.2.7-.2.7-1.6.7-3.4 2.6-5 3.8-5.1 3.9-10.3 8.9-14.9 12.5-7.2 5.5-13.6 11.2-19.9 16.6-6.7 5.7-14.2 10.4-20.2 16.3-6.2 6.2-12.4 12.2-19 17.5 1.7 2.4 3.2 5.1 5 7.4 25.1-24.6 51.9-47.7 76.6-72.7-1.1-.9-1.3-2.1-2.4-2.1zm-306 9.6c-.4 1.5 1.1 4.9 1.7 7.2 2.6 10 3.8 19.6 3.8 30.7 6.3-3 16.2-2.6 24.5-3.6 1.3-3.5 2.6-7 2.6-10.6-5.3-3-10.3-6.8-14.9-10.3-1.7-1.3-3.7-2.1-5.3-3.4-4.2-3.3-6.7-8.3-8.9-13.7-.3 1.2-3.2 2.3-3.5 3.7zm43-1.7c-.4 1.1-1.3 1.7-2.6 1.9-1.9 3.7-.3 7.8 5.3 6.7 1.1-1.4 1.4-3.7 1.2-6.5-1-1.1-2.2-1.9-3.9-2.1zm-54.5 5.8c-6.4 5.3-14.5 10.6-20.6 17.3-1.2 1.3-2 3.2-3.4 4.3-.9.8-2.3 1-3.1 1.9-.7.8-1 2.2-1.9 3.4-1 1.3-2.8 2.2-3.6 3.4-.5.8-.7 2-1.2 2.9-2.2 3.8-5.5 5.4-5.3 10.1-1.8 2.7-1.7 5-2.2 8.6-.7 5.1-2.2 10.4-2.9 16.1-.7 5.6-.9 11.7-1.2 17.8-.3 7.3-1.3 12.8-1.7 19.2-.3 5.1-.7 10.3-.5 15.6.5 10.8 0 21.4.7 32.2.3 5.6 1.9 8.3 3.8 12.2 4.8 2 9.7.6 15.4 1.7 2 .4 3.9 1.3 6 1.9 6.4 1.8 12.2 4.2 18.5 5.8 4.5 1.1 9.2 1.3 14.2 1.9 4.7.6 10 .8 15.6.7 1.9-9.7 5.3-17.9 7.7-27.1-5.1-2.1-12.3-4.1-20.2-5.5-7.5-1.3-16-3.6-22.8-2.9-.8.1-2.3.8-3.6 1.2-1.3.4-3.1.6-3.8 1-2.4 1.3-3.2 5-7 4.3 1.1-3.8 4.6-5.3 7.9-7-1.9-.3-3.7-.7-4.8-1.9 2.3-4 7-2.5 10.8-1 .6-3.7 2.9-7.1 4.6-10.8 5.2-11.3 6.2-25.5 11-37.2-1.1-3-9.4-5-9.1-8.6.2-2 2.7-2.7 5-3.1.4.7.4 1.7 1 2.2 12.3 8.5 22.1 19.5 33.4 29 .7.6.8-.7 1.7 0 2.5 2.8 6.3 4.4 8.9 7.2 1.3-1.2 1.4-3.1 2.2-4.6.9-1.9 2.6-3.5 3.6-5.5.8-1.5 1.1-3.4 1.9-4.8 1.8-2.9 4.9-5.7 7.7-8.4 8.2-8.2 17.9-15.7 29.3-19.7-12.3-6.3-23.4-16-36.5-21.8-6.6-2.9-13.3-6.7-22.1-4.6 2.4-4.4 4.7-8.9 6.7-13.7-6.1 1.3-15.6-.1-21.1 1.7-2.7.9-4.2 4.6-7.2 3.6.1-13.8-2.5-28.7-6-40.1-1.9-1.4-3.3 1.4-5.8 1.1zm-13.7 6c.6-1.1-.1-2.7-.5-3.6.3 1.1.1 2.6.5 3.6zm95.5.7c3.3 11.9 4.8 25.6 8.9 36.7.7.7-.5.8-.2 1.7 1.1.6 2.2 1.7 3.4 2.6 1.1.9 2.3 2.4 3.1 2.2 0-6.1 1.6-11.5 2.4-16.3.5-2.8.6-5.8 1-8.6.7-5.5 2.9-10.4 4.3-14.9-7.1-1.8-15.7-2.2-22.8-4.1-.1.2-.1.4-.1.7zm54.3-.5c-2.6 3.1-5.7 5.6-9.6 7.4 1.9 1.1.8 5.6 2.9 5.8.4 0 2.2-2.1 2.9-2.6 3-2.7 7.4-5.3 9.4-7.4-2-1.1-3.2-2.7-5.6-3.2zm17 6c.5.7.6 1.8 1.2 2.6.5.7 1.5.9 1.9 1.7-.3-.5-.3.8-.2 1 .8 2.4 2.7 5 3.8 7.9 1.1 2.9 1.9 5.9 2.9 8.9.9-.6 1.6-1.5 2.2-2.4.4 0 .1.7.5.7 6.4-7.8 18.5-10.2 32.9-9.1 11.4.9 19.9 6.9 26.4 12-1.8 4.5 4.2-.9 5.8-2.2 5.2-4.1 9.5-7.9 13.9-11.8.9-.8 2.4-1.8 1.9-2.4-3.4.1-6.8 1.4-10.3 1.7-5.1.4-8.5-1-12.7-1.7-3.3-.6-6.7-.6-10.1-1-7.7-.8-15.3-2.7-23-3.1-6.8-.3-10.8-2.4-16.6-3.6-5.2-1.1-10.2-1.2-14.6-2.9-4.1.6-8.6-1.7-12-1.7 1.8 2 4.5 3.2 6.1 5.4zm147.1-1c1.4-.3 2.5-.9 4.3-.7.2-1.5.5-3.2.5-3.8-1.4 1.7-3.4 2.8-4.8 4.5zm-260.4 32.2c5.6-.9 9.3.6 13.4 2.2 17.2 6.4 30.3 17.7 44.9 25.9 2.2-1.4 5.4-1.8 8.2-2.6-7.7-9.7-16.9-17.7-26.9-25.2s-20.8-13.8-31.2-20.9c0-.1 0-.3-.2-.2-.9 8.7-5.4 13.9-8.2 20.8zm39.9-18.2c-2.7 2-6.5 2.9-7.9 6.2 1.5 1.5 2.8-.8 4.1-1.7 1.5-1.1 3.1-1.9 4.6-2.6-.2-.8 0-1.8-.8-1.9zm135.8 11.5c-.1-.8.5-.9 0-1.4-5.8-3.4-12.4-7.7-21.4-8.4-3.6-.3-7.3.1-11 .2-5.9.3-9.2.8-12.2 3.6-3.9 3.7-6.5 8.4-8.4 13-.5.4-1.3.6-1.7 1.2-3.9 5.9-7.5 12.4-12.2 17.3-3.4 3.5-6.6 7.7-12.2 8.4-6 .7-11.5-1.5-17.3-1.2-5.9.3-10.8 3.3-17 2.6-2.6 1-4.6 2.6-7.9 2.9-10 4.1-18.9 9.1-25.9 16.6-3.5 3.7-7.3 7-9.4 11.8-2.1 4.8-5.1 9-7.4 13.9-1 2.1-1.2 4.3-1.7 6.5-.2.7-.8 1.5-1 2.2-1.7 6.4-1.8 14.2-1.4 21.8 7.7-1.2 11.7-5.1 18.2-8.4 8-4.1 16-5.2 22.8-10.3 2.9-2.1 7.7-9.8 10.3-5.3 2.1 3.5-.6 8.7-3.4 11.3-1.2 1.2-3.8 1.9-3.6 3.1 2.6-1.1 4.9-.8 7.4-1.4 6-1.4 11.5-6.1 17.3-4.8 10.3-9.8 21.5-18.7 32.6-27.6 2.2-1.8 3.9-3.6 6.2-5.3 6.7-4.7 12.1-11.1 19-15.6-2.3-2.2-4.5-4.4-6-7.4 0-.9-1.7-.1-1.7-1 2.7-3.5 7.7-4.7 11.8-7 .5-2.8 2.7-3.9 5.5-4.3 1.4 2.2 3.5 3.7 4.6 6.2 12.4-7.6 22-18.1 32.2-28.1-2-1.5-2.2-4.6-5.1-5.1zm-140.1-4.3c1.7-1.2 5.2-1.9 5.3-3.8-2.3.6-4.5 2.5-5.3 3.8zm1.9 3.1c.4 0 .6.2.7.5 1.2-.1 2.4-1.4 1.9-2.4-.9.5-2.1.9-2.6 1.9zm2.6 1.7c.5 0 .3.7 1 .5.3-.3.1-1.1.5-1.4-.9-.2-1.1.4-1.5.9zm142.3 6.4c-2.9 2.7-5.7 5.8-8.6 8.6-2.8 2.7-5.3 5.8-8.2 8.2-5 4.1-11.2 6.6-15.4 11.8 1.9 2.7 3.8 5.3 5.8 7.9 11.5-9.1 22.4-18.9 33.1-28.8-1.8-3-3.8-5.7-6.7-7.7zm8 9.9c-10.3 10.1-22 18.8-32.4 28.8.7.9 1.2 1.8 2.2 2.4 10.5-10 21.1-19.8 32.2-29.3-.9-.5-.9-1.8-2-1.9zm3.1 4.1c-10.9 9.6-21.8 19.2-31.9 29.5 2.3 2.1 3.8 5 6.2 7 9.9-10.2 21.7-18.4 31.4-28.8-2.3-2.2-3.3-5.6-5.7-7.7zm7.2 10c-10.2 9.9-21.9 18.3-31.4 28.8 2.3 2.1 2.9 5.9 7.2 6-2.9 3-7.3 4.6-10.8 7-.6 2.3-2.6 3.3-5.3 3.6-1.4-1.5-2.5-3.3-4.1-4.6-7 6.9-13.6 14.2-21.1 20.9-5.6 5-11.6 9.7-17 14.6-1.8 1.7-4 3.1-5.8 4.8-1.2 1.1-2.1 2.8-3.4 3.8-2.7 2.3-5.6 4.2-7.9 6.7-.9.9-1.5 2.3-2.4 3.4-1.3 1.5-3.4 2.5-3.8 4.3 1.1 2.3 2.7 4.2 3.6 6.7-.8 1.9-2.7 1.7-2.2 3.8-1.4 1-2.9 2.4-4.6 2.2-2.4-.4-3.4-4.9-5-6.2-3.5 2.9-6.2 6.6-9.8 9.4 1.3 2.3 3.8 3.4 4.8 6-.6 1.1-1.8 1.6-2.6 2.4 1-.1 1.1.9 1.2 1.7-1 1.6-2.9 2.4-5 2.9-1.7-1.2-2.2-3.7-5.3-3.6 0-.8.5-1.1.5-1.9-2.2-2.8-4.4-5.4-6.7-8.6-1.1-1.5-5-8.2-6.7-8.6-1.7-.4-5.4 1-8.4 1.2-1.7.1-3.5.1-5 0-9.4-.6-18.8-1.1-27.8-2.2.4 1.9-2.1 0-3.1.7 5.5 8.5 10.7 17.3 16.3 25.7 4.1 6.1 9.7 11.8 14.4 17.3 1.6 1.9 3.2 4.4 4.8 5.8 2.7 2.3 6.8 4.2 10.1 6.5 3.1 2.2 7.1 4.8 10.6 6.2 2.8 1.2 7.9 1.6 12.2 2.2 11.5 1.5 24.9 3.7 34.6-.5 3.3-1.4 7.2-2.6 9.8-4.3 2.6-1.7 4.9-4.6 7.2-7 4.8-4.8 6.5-9.6 9.6-15.6 1.2-2.4 3.1-4.7 4.1-7.2 1-2.5 1.5-5.4 2.4-8.2 1.8-5.6 3.1-10.8 4.6-16.6.8-3 .7-6.2 1.7-9.1 1.1-3.2 2.7-5.8 3.6-9.4.9-3.5 2.6-5.9 4.1-8.9 1.6-3.1 2.6-5.7 4.8-8.2 2-2.2 4.1-4.8 6.5-6.7 3.1-2.5 6.5-3.8 9.8-5.3 1.8-.8 3.5-1.9 5.3-2.4 2.1-.6 4.3-.4 6.5-1.2 4.5-1.7 8.4-4.7 12-7 2.8-1.7 5.9-2.8 7-6-7.8-.4-16.3-1.9-22.3-4.6-3.8-1.6-7.2-7-7-11.8.2-3.1 1.7-8.1 2.9-10.6 1.4-3.1 5.2-5.5 7.9-7.9 1.5-1.3 2.6-2.7 4.3-3.6 1.9-1 3.9-1.5 5.3-2.9-2.5-.6-3.6-2.5-5.2-3.9zm-59.8 1.5c-2.8.8-4.8 2.3-7.2 3.4.9 3.2 3.2 5 5.3 7 1.8-1.8 3.9-3.3 5.3-5.5-1.1-1.8-2.2-3.4-3.4-4.9zm55.7 11.3c-3.7 3.6-7.8 13-4.8 19.4.6.3-.2-1-.2-1.2-.8-6.5 2.5-9.2 5.5-13.2 3.6-4.8 6.3-8.8 10.1-12-3.4 1.5-7.6 4-10.6 7zm-51.1-3.9c-1.5 1.8-3.3 3.2-4.8 5 2.2 2.3 4.4 4.6 6.5 7 1.5-1.3 2.9-2.9 4.6-4.1-2.1-2.7-3.9-5.6-6.3-7.9zm-9.9 8.7c-3.3 2.8-7 5.3-10.3 8.2-3.8 3.3-7.4 7.7-11.3 9.4-11.3 10.9-24.5 19.8-35.8 30.7.3 3.8-2.8 4-3.8 6.5 1.7 2.3 2.9 5.1 5 7 20.4-18.8 42.8-35.6 63.1-54.5-2.3-2.5-4-5.5-6.9-7.3zm17.3 1.2c-1.1 1.5-2.6 2.6-4.1 3.8.6 1.1 1.3 2.1 2.4 2.6 1.4-1.4 3-2.6 4.3-4.1-1-.5-1-2.3-2.6-2.3zm3.9 4.5c-.2 1.4-4.1 2.8-4.1 4.1 0 .5 2.5 2.9 3.1 3.6 1.2 1.4 2.4 2.8 3.4 3.6 1.1-1.6 2.9-2.5 4.1-4.1-2.4-2.2-3.9-5.2-6.5-7.2zM92.5 306.3c-1.6 5.7-4.2 12.3-6.5 17.5-.8 1.8-1.9 2.8-1 5.3 17.1 1.1 32.7 3.8 45.1 9.6-1.9-10.1 4.4-21.3.5-27.6-12.4-7.3-21.1-18.3-32.2-26.9-2.2 7.2-3.8 14.5-5.9 22.1zm180-20.9c-20.7 18.5-43 35.4-63.1 54.5 1.4 2.4 3.3 4.4 5 6.5 4.6-4.7 8.8-9.4 13.4-13.9 8.4-8.1 17.5-15.3 25.9-23 .5-.8.3-.8.5-1.7 7.3-6.2 14-13 20.6-19.9-.8-.8-1.3-1.9-2.3-2.5zm51.3 5.8c.5 1.9 4.9 5.2 7.7 6.5.5.2 1.3 0 1.9.2.7.3 1.3 1.2 1.9 1.4 3.3 1.2 11.1 1.7 14.9 1 .5.1 1.2 1 1.4.5-6.6-4.7-15.9-8-24.2-11-1.1-.4-2.2-1.3-3.4-1-.3.8-.4 1.6-.2 2.4zm-47.2-1.2c-2.9 3.3-6.2 6.3-9.6 9.4-3 2.7-6.5 5.6-9.1 8.6-12.9 14.8-30.2 25.2-41.8 40.8 2.1 1.9 3.6 4.4 5.5 6.5 19-20.8 42.5-37 61.2-58.1-2.1-2.4-3.9-5-6.2-7.2zm12.4 5.5c1.2 1.1 2.2 2.5 3.4 3.6 1.6-.8 2.7-2.1 4.3-2.9-1-1.9-2.7-3.2-3.8-5-1.1 1.6-3 2.4-3.9 4.3zm63.6 5.8c-2.2 3.9-.6 11-.7 16.3-4.6 4-13.8 3.5-19 7 12.9 3.4 23.9 10.2 34.3 17.3 10.3 7 20.9 13.7 30.5 21.1 9.7 7.5 19.5 15.2 26.9 24.7 7.6 9.7 12.7 21 20.2 31.7 2.7-2.7 2-6.6 3.6-9.8.6-1.1 2.2-1.9 2.9-2.9 1.7-2.5 2.9-5.5 4.6-8.2 1.6-2.7 3.7-5.3 4.3-8.4-6.1-9.9-13.4-18.9-21.4-27.4-8-8.4-15.5-17.2-24.7-24.2-4.6-3.5-9.2-7.1-13.9-10.6-4.7-3.5-9.2-7.3-14.2-10.3-10.2-6.2-21.7-10-32.4-16.6 0-.1 0-.3-.2-.2-.3.1-.6.2-.8.5zm-20.4 13.4c-2.7 1.4-5.4 2.5-8.2 3.8-3.2 1.5-5.7 1.5-9.4 2.6-6.2 1.9-13.1 7.5-16.3 12.2-1 1.5-1.3 3.3-2.2 5-1 2.1-2.7 3.9-3.4 5.5-.8 2-1.1 4.6-1.9 7-.7 2.2-2.6 5.1-2.9 6.7-1.7 9.2-3.6 17.7-6.2 25.9-1.3 4-2.5 7.7-4.6 11.5-1.9 3.6-3.3 7.5-5.3 11-3.3 6-8.3 10.4-13.2 14.6-5 4.3-11.4 6.7-18.2 9.6 2.5-.7 6.8-1.1 10.3-2.2 4.6-1.3 7.8-5.1 10.8-7.7 4.1-3.6 7.3-6.1 10.8-10.3 3.8-4.6 5.9-9.4 9.1-14.4 1.5-2.4 3.2-4.7 4.6-7.2 5.9-10.5 6.6-24.1 11.3-35.8 1.1-2.6 3.2-5.3 4.8-7.9 5-8.1 13-13.5 20.9-18 .9-.5-1.4-.6 0-1 7.7-2.5 14.2-6.3 23-8.2.3-4.4-.7-8.6 0-12.5-4.5 3.6-8.7 7.1-13.8 9.8zm-135.3 32.9h-.2c-4.2 2.3-10.6 3.6-15.6 4.3 1.2-5.4 14.1-3.6 16.3-7.2 1.6-2.5-.4-6.4 0-10.1-1.4.4-2.3 1.3-3.4 1.9-.3 6.9-9.7 6.8-16.3 5.8-.2-.8-.4-1.5-.5-2.4 9.2-2.3 17.2-5.2 23.5-10.1 1.2-.9 2.5-2.4 2.9-3.8-2.3-1.8-6 0-9.1 1.2-4.9 1.9-9.5 3.2-14.9 4.3-2.6.5-5.7 1.4-8.2 0 .6-1.7 1.9-2.6 4.1-2.2 1.6-2.1 6.1-3.5 7.9-6 1-1.4 2.3-5.4 0-7-3.4 2.5-6.1 5.5-9.8 7.7-4 2.3-7.9 3.7-12.7 5.3-1.7.6-5.3 1.8-6.5 2.6-5 3.4-9.7 7.1-14.9 9.4-.6.2-.4 1.2-1 1.4-4.3 1.1-8.8 2.1-14.4 1.9-1.9 5.5-3.6 11.1-5 17 5.1-1.9 10.9-.9 16.8-1.4 1.6-.1 3.3-.9 5-1 5.7-.2 12.6 1.1 17.3 1.7 6.3.8 13.3-.4 19 .7 2.2.4 4.4.1 7.7-.5 4.6-.8 7.2-1.1 7.9-5-3.6.9-7.6 2.6-11.3 2.6 2.3-5.1 11.3-3.6 15.1-7.2.2-1.4-.2-3.6.3-3.9zm129.3-20.2c-7 3.6-13.1 8.2-17.8 14.2 5.9-3.8 11-9.8 19.2-10.6 0 1.6-1.4 1.8-1.9 2.9 1.9-.9 3.8-1.9 5.8-2.9-1.7-1.2-2.9-3-5.3-3.6zm-8.4 14.7c-.3.5-.3.5.2.2 4.3-3.6 10.2-5.5 13.7-9.8-5.7 2.1-10.1 5.5-13.9 9.6zm-14.4 8.4c6.4-6.1 15.6-10.6 20.4-17.5-7.5 4.2-17.1 10.1-20.4 17.5zm24.3-9.4c2.5-2.2 5.6-3.8 8.4-5.8-.8-.6-1.5-1.3-2.2-2.2-.6.2-1.9 1-1.4 1.4.1-.6 1.1-.1 1 .2-.8 3.2-5 4.2-5.8 6.4zM301 356.9c-.7 1.4-1.5 4-1.4 5.3 10.3-8.2 21.1-17.1 30.2-25.7-9.8 6.6-19.4 13.4-28.8 20.4zm-2.1 8.2c-.3.5-1 2-.7 2.4 12.9-10.3 27-19.3 38.6-30.7-13.8 8.3-26.1 18.1-37.9 28.3zm99.6 31.9c1 .2 2.7-.3 3.4.2.3 4-3.9 4.7-4.3 7.2 2 4.2 3.8 8.7 5.8 13 9.5-2.1 17.4-5.8 30-4.8-5.2-8.5-9.5-16.9-15.6-24-6.1-7.1-13.2-13.1-20.6-19-14.8-11.6-30.6-22.5-47-32.4 0-.1-.2-.3-.2 0 16.3 19.6 33.7 38.4 48.5 59.8zm-63.6-55.9c-2.2 1.9-4.2 2.8-5 4.3 2.9-2.2 5.8-4.5 9.6-5.8-1.2-3.1-2.8-.1-4.6 1.5zm-9.4 13.7c5.8-2.7 10.8-8.2 18.2-10.1-.9-1.5-1.9-2.9-3.4-3.8-4 5.5-9.3 9.7-14.8 13.9zM297 371.3c-.2 1.3-.6 2.3-.7 3.6 7.1-4.5 14-10.2 21.1-15.6 7-5.3 14.7-10.4 19.4-17.3-13.7 9.4-26.7 19.4-39.8 29.3zm-98.9-24.4c.6-.3 1.4-.4 1.9-.7.1-.8-.3-1-.7-1.2-.1.8-1.6 1.4-1.2 1.9zm97.4 30.7c-.5 2.7-2.5 5-2.6 7.2 16-12.7 35-23.8 48.5-38.2-16.1 9.6-31.4 19.9-45.9 31zm10.3-26.9c-1.4.9-3.5 1.8-3.6 3.4 2.5-1.9 6.7-4.8 8.2-6.2-1.4.8-3.1 1.8-4.6 2.8zm-111.6 8.4c.1 1 1.5 2 2.2 1.4 1.4-1.2 3.5-2.7 4.6-3.6 1.2-1 4.8-3.4 4.8-4.3 0-.5-3.8-4.6-4.6-4.8-2.1 2.5-3 6.1-6.2 7.4.8 1.5-.9 2.8-.8 3.9zm143.1-2.4c0 .5 1.5-.6 2.2-1 2.8-1.8 6-4.1 9.1-5-.3-1.2-1.2-1.9-1.9-2.6-2.9 3.1-6.2 5.8-9.4 8.6zM307 376.4c-4.8 3.7-9.9 7.7-15.4 10.1-3.9 5.8-7 12.4-11.3 18.2-1 1.3-3.9 4.4-4.1 5.8-.1 1.1.7 3.1 1 4.6.9 5 1.8 9.5 2.2 14.9 3.4-1.7 6.3-4.6 9.6-7.2 3.6-2.8 9.3-5.8 10.6-9.6-2.6 2.2-5.5 4.3-8.4 6.5-2.7 2.1-5.5 4.8-9.1 5.3 3.3-3.2 6.8-6.2 10.6-9.4 4.1-3.4 9.6-7.2 12-11.8-6.4 3.6-12.1 8.3-18 12.2-1.9 1.3-4 3.1-6.5 3.1 9.2-8.8 22.1-15.2 29.3-25.2-3.8 3.1-7.9 6.2-12 9.1-4 2.8-8.4 6.1-13.7 7 5-6 11.4-10.5 17.5-15.4 3-2.4 6-5.1 9.1-7.4 4.8-3.6 10.2-6.2 13.2-11-9.5 6.8-18.6 14.4-27.6 21.4-3 2.3-6.1 5.5-10.1 6 9.6-8.7 19.7-17.3 30.2-25.4 10.5-8.1 22.5-14.8 30.2-25.2-19.7 11.3-36.1 27.1-53.3 40.6-2.4 1.9-4.9 4.4-8.2 4.8 8.2-9.8 19.4-16.9 29.8-24.7 10.4-7.8 20.4-16.3 29-25.2-11.7 9.5-24.5 18.6-36.6 27.9zm38-18.7c1.8-1.4 4.2-2.2 6-3.6-.6-.5-.7-1.5-1.4-1.9-1 2.2-4 3.7-4.6 5.5zm-138-2.9c-2.9 3-6.6 5.3-9.8 7.9 2 3.2 3.8 6.6 6.5 9.1 3.4-3 6-6.7 9.6-9.4-2.1-2.6-3.7-5.6-6.3-7.6zm121.4 17.5c1.2-.1 1.4.9 1 1.7 6.4-3.8 13.1-7.9 18.2-12.7 1.7-1.6 4.1-3.4 4.3-5.8-9.6 3.8-16.4 10.4-23.5 16.8zm21.6-10.8c1.2-.8 2.7-1.5 4.3-1.9.3-1.1-.8-.8-.7-1.7-1.4.8-3.2 2.6-3.6 3.6zm-10.1 8.6c-5.5 4.7-12.6 9.2-15.4 15.4 10.5-7.6 21.2-15 29.8-24.5-5.5 1.5-10.1 5.4-14.4 9.1zm14.7-6.4c-2.1 2-5.7 4.5-6.2 5.8 3-2.1 6.2-4 9.8-5.5-1.1-3.3-1.8-2.1-3.6-.3zm-9.2 12.9c5.1-3.4 11-6.1 16.8-8.9-1.2-.6-1.5-2-2.9-2.4-4.4 3.8-10.2 7.6-13.9 11.3zM325 387.2c-5.2 3.9-10.8 7.6-13.4 12.7 14.3-11.2 30.6-21.7 43.7-33.4-10.4 6.2-20.8 13.5-30.3 20.7zm20-9.1c-5 3-9.6 6.5-13.9 10.1-6.7 5.5-13.3 10.9-19.9 16.1-2.1 1.7-5.1 3.2-5.5 6.2 9-6.9 18.5-13.5 28.1-19.9 9.6-6.4 20.1-11.7 27.8-20.2.3-.3.3-.6-.2-.7-5.6 2.3-11.2 5.2-16.4 8.4zm13.6-2.4c2.2-1.5 5-2.3 7.7-3.4-1.1-.4-1.1-1.9-2.4-2.2-1.1 2.3-4.3 3.8-5.3 5.6zm-25.4-2.4c-1 .7-3 1.2-2.6 2.6 1.7-.9 5-3.5 6-5-.9.7-2.2 1.6-3.4 2.4zm10.6 18.4c8.2-5.5 16.7-10.7 26.2-14.9 0-1.2-1.7-2.7-2.9-3.6-6.8 7.1-16.7 12.2-23.3 18.5zm-11.6 4.1c-9.7 7.6-19.4 15-30.2 21.6 0 1.2-1 2.7-.7 3.4 21.2-14.7 41.7-30.2 61.9-45.8-12.1 4.8-21.4 13.3-31 20.8zm-17.7-14.6c1.4-1 4.3-3.1 4.6-3.6-1.5 1-4.3 3.1-4.6 3.6zm52.1-1.5c-21.9 10.8-39.8 25.2-58.8 39.1-4 2.9-10.1 5.5-10.3 10.8 0-.1 0-.3.2-.2 10.8-7.4 21.5-15 32.6-22.1 11.2-7.1 22.6-13.7 33.4-21.4.8-1.5 1.8-2.7 3.4-3.8 1.8-1.3 5.2-1.7 4.6-3.8-1.9-.9-3.8.8-5.1 1.4zm0 7c3.4-1.1 6.7-.7 9.4-2.4 0-.9-.7-1.1-1-1.7-1.3.4-2 1.4-3.6 1.4-.8-.2-.7-1.2-1.4-1.4-1 1.6-3.6 1.4-3.4 4.1zm-77.8 20.4c4.1-2.8 8.7-5.7 13-8.9 5.7-4.2 12.6-8.7 15.6-14.4-9.7 7.5-20.3 15.3-28.6 23.3zm87.6-21.8c-1.9 1.4-5.7 1.9-6 4.1 2.6.2 6.9.7 9.1-.2-1.2-1.2-1.5-3.2-3.1-3.9zm-64.6 22c-3.1 2.3-7.4 4.4-8.4 7.9 12.8-9 26.5-18.5 37.7-28.3-9.7 6.6-19.9 13.7-29.3 20.4zm-15.6 29.1c10.7-8.3 22.6-16.1 34.1-24 10-6.9 19.9-13.9 30.2-19.9 1.3-.7 3-1.5 3.8-2.9-6.6 1.4-12 6-17.3 9.8-5.4 3.9-10.7 7.9-16.3 11.5-11.4 7.3-23.4 13.4-34.3 21.4.4 1.8 0 3.2-.2 4.1zm13.7-8.2c18.7-12 38.9-23.8 55.2-37.2-19.1 11.6-37.5 25-55.2 37.2zm57.9-36.9c-19.3 15.3-42.4 27.6-62.9 41.8-7 4.8-13.5 10.3-20.6 14.4-1.5.8-3.7.4-3.1 3.4 31.1-19.6 60.2-43.2 96-58.8-.1-.3.9-.6.2-.7-2.7.3-6.9.2-9.6-.1zm6.9 4.5c-.9.7-2.7 1.3-2.2 2.9 2.7-1.5 5.2-3.1 6.7-5.8-2.3.3-3.1 1.8-4.5 2.9zm6.5 8.7c1.8-1 3.6-2 5-3.4-1.1-2.4-2-5.1-4.1-6.5v-1.4c-2.4 2-5.6 4.5-7.4 6.2 2.9-.4 5.8-2.2 8.4-2.2-1.8 2.3-4.9 3.4-7 5.5 1.6-.5 3.3-1.9 5-1.4 0 .3-.1.5-.2.7.6.1 1.5-.7 1.9 0 .2 1.4-1.8 1.9-1.6 2.5zm-72.5 0c3.8-3.5 9.2-6.8 12.2-10.3-3.7 3.5-9.5 6.4-12.2 10.3zm8.2 24.2c6.2-3.7 12.9-7 19.2-10.6.8-1.7 1.7-3.4 3.6-4.1 1 .2 1.5.8 2.4 1 10.1-4.8 19-10.7 27.6-17 0-.9 1.6-1.4 1.2-1.9-19.4 9.3-37.6 21.1-54 32.6zm46.3-24.5c2.3-1 4.5-2.1 6.7-3.1.2-.7-.7-.5-.5-1.2-2.1 1.1-5.2 3.7-6.2 4.3zm-47.5 14.7c8.9-5.8 19.2-11.3 26.6-17.8-8.6 6-19 11.5-26.6 17.8zm44.1-9.9c-4.4 2.8-8.9 5.6-12.7 8.4 9.1-5.1 19.3-9.2 26.6-16.1-5.2 1.5-9.5 4.9-13.9 7.7zm13.2-2.6c1-1 3.7-1.6 3.8-2.6-1 .9-3.6 1.6-3.8 2.6zm-29.2 11c5.8-3 12.9-7.7 17.3-10.6-6.6 2.8-11.9 6.8-17.3 10.6zm23-9.1c.9-.1 2.1-1.2 1.9-1.7-.4.8-1.6.8-1.9 1.7zm-4.1 2.9c-1.2.5-3.3 1.4-3.4 2.2.9-.7 4.3-2.2 3.4-2.2zm.7 2.6c1.8-.4 2.8-1.5 3.8-2.6-1.6.5-3.2 1-3.8 2.6zm-18.4 1c-.7.5-1.7.7-2.2 1.4.9-.3 1.6-.8 2.2-1.4zm3.6 7.9c.6.1.5.7 1 1 4.2-2.3 8.2-4.8 11.8-7.7-.8.1-.8-.6-1.2-1-3.9 2.7-8.1 4.9-11.6 7.7zm-2.4-2.9c2.1-.5 5.4-3 6.7-4.3-1.9 1.6-5.8 2.5-6.7 4.3zm-52.4 1.2c1.1-.7 3.4-1.4 3.1-2.6-.7.8-3.2 2.4-3.1 2.6zm3.4 23.3c0-.1 0-.3.2-.2 11.5-6.8 24-13.9 35-20.9 1.5-.9 3.7-1.8 4.1-3.6-12.9 7.3-30.1 13.6-39.3 24.7zm-17.5-13.2c1 5.1 1.3 10.9 1.4 16.8.8-.1 2.1-1.9 3.4-2.4-.6-1.4.8-2.2 1.4-3.1-.1.5-.8 1.7-.2 2.2 2.3-2.1 5.2-3.6 7.2-6-.5-.7-1 .6-1.9.2-.2-.6-.5-1.9 0-2.4-1.9.5-3.2 2.9-5.5 2.2 2.2-3.1 7.5-4.3 7.2-9.1-2.6 1.4-4.7 4.4-7.9 4.3 3.4-4.3 10.4-6.2 11-12.5-5.4 3.2-10.1 7.2-16.1 9.8zm60.9-8.6c-15.4 9.7-32 19.3-45.4 30.2-5.3 3.1-10 6.8-14.4 10.8 16.2-12.3 35.4-24 53-35.3 2.5-1.6 5.6-2.8 7.4-5.3-.2 0-.2-.4-.6-.4zm-53.5 38.8c-2.5 1.6-6.1 3.1-6.7 6.5 5.6-1.9 9.5-5.1 13.7-8.2 2.3-1.7 4.7-3.2 7-4.8 14.4-9.9 27.4-20.1 41.5-29.8.1-.3.4-.5-.2-.5-18.6 12.1-36.9 24.8-55.3 36.8zm47.5-28.8c2.7-2.4 7.6-3.9 9.4-6.5-2.9 1.3-7.2 4.5-9.4 6.5zm-53.5 23.1v5.3c14.6-10.9 31.8-22.6 47.3-32.6-15.4 9.4-32.1 17.6-47.3 27.3zm29.8-4.8c10.2-6.8 22.3-14.8 31.2-21.4-10.7 6.7-22.6 13.4-31.2 21.4zm22.8-13c-5 4.2-11 8-16.6 12-2.7 1.9-5.3 3.9-7.9 5.8-2.8 1.9-5.8 3.5-7.4 5.8 3.1-.9 5.7-3.4 8.4-5.3 5.6-3.9 11.4-7.6 16.8-11.5 2.7-1.9 5.6-3.8 7.2-6.5-.1-.2-.2-.3-.5-.3zm-49.2 12.7c-1.2.9-3.2 1.3-3.4 3.1 4.4-2.2 8.2-4.9 12.7-7-.9-1.8 1.7-3.1 1.7-4.1-3.7 2.7-7.5 5.5-11 8zm13.9 11.1c5.9-4.6 13.4-8.9 18.5-13.4-5.9 4.6-14.3 7.9-18.5 13.4zm0-3.1c1.2-1 3.7-1.9 3.8-3.1-.9 1.1-3.5 2-3.8 3.1zm-11.5 8.4c3.8-.7 7.4-3 8.6-5.5-2.6 2-6.4 3-8.6 5.5zm9.6-2.4c1.9-.2 3.5-1.9 3.8-2.9-1 1.2-2.8 1.7-3.8 2.9z"/><path class="st1" d="M118.4 74c1.1.4-.8 1.5-1 2.2 1.6 1.2 2.2-1.5 4.1-1.4-.6 1-1.8 1.4-2.4 2.4 1.7.7 2.3-1.7 4.1-1.7-.7 1-1.6 1.8-2.9 2.2 1.4 1.9 3.4-.6 5-.7-.9.8-1.7 1.7-3.1 1.9.6 1.6 3.1 0 4.3 0-.3 1.1-1.6 1.1-2.9 1.2 0 .7.5.9 1 1.2 1.5 0 2-1 3.4-1.2-.5 1-1.7 1.3-2.6 1.9.2.4 1 .3.7 1.2-2.3.8-3.7-1.2-5.3-1.9-.7 1.2-.7 3.2-2.4 3.4.5.5 2.1 0 2.6.5-3 1-7.9 0-11.5 0 .4-1.1 2.2-.6 3.6-.7-1.1-.7-2.1-4.2-.5-6-3.4-.6-6.2 2.7-8.4 3.4 1.2-4 4.9-7 10.1-6.2.9.1.6-1 1.7-.7-.2.2-.3.5-.2 1 1.5-.2 1.6-1.6 2.6-2zm-12.2 5.5c2.1-1.8 6.5-1.3 8.2-3.4-3.9-.9-6.9 1-8.2 3.4zm8.4-2.4c.5.5.9-.3 1.2-.7-.8-.1-1 .3-1.2.7zm.4 3.1v1.4c1.3.8 2.7-.2 2.4-1.9-.9-.4-1.7 0-2.4.5z"/></g><g id="Режим_изоляции_1_"><path class="st1" d="M457.3 306c.5-1 1-1.9 1.4-3 2.9-4.6 8.4-2 11.9-4.4 1.6-1.1 2.6-3 3.9-4.1 1.5-1.4 3.4-2.8 5.5-3.1 4.3-.7 12.3 3 15.8 6.6 1.6 1.7 2.1 4 3.7 5.9 3.5 4.6 9.5 8.8 15.3 13.1 6.1 4.5 12.7 8.9 18.9 11.7 1.9.8 4 1.2 5.2 2.7-1.3 4.1-5.4 2.1-8.2 1.7-6.3-.9-11.8-1.9-18.5-2.4-2.6-.3-7.1-.9-8.2 1.4-1.3 2.6 3.4 5.9 6.2 7.4 3.6 2 8.1 3.5 12.2 5.5 2.5 1.3 9.8 4.3 8.4 7-.9 1.7-5.2.7-7.7.2-8.4-1.3-16.9-3.7-25.2-4.8-5.3-.8-10.7-.3-16-.9-5.4-.7-10.8-.9-16.3-1.8-1-.5-2.1-.9-3.1-1.5-.9-.9-2.3-1.8-3-2.8-3.4-4.7-5-10.8-2.1-17.2.4-1.1 1.6-2.1 1.7-3.4.5-1.8-1.6-5-1.9-7.2-.8-2.5-.3-4.6.1-6.6zm49.1 14.2c-1.4-.4-.8-3.7-.9-4.5-.9-4.7-5.5-5.7-9.6-9.4-1.1-1-1.1-2.8-2.1-4.2-2-3.2-7.8-8.5-12.4-8.7-4.3-.2-5.5 5.8-9.3 7.9-2.9 1.6-6.4 0-9.6 1.5-2.7 1.4-4.9 5.4-4.4 8.7.4 2.7 3.5 5.5 3.2 8.3-.4 3.3-2.6 4.8-3.7 7.2-2.1 4.8-.1 10.8 3.6 13.2 4.1 2.7 7.8 2.8 11.6 2.9 2.7.2 5.4.6 7.9.7 5.1.2 9.4-2.3 14.5-1.6.3.5.5 1.1 0 2.1 7.2-.5 16.3 2.1 24.7 4.9 2.8 1 5.7 2.3 8.4 2-4.7-6-17.5-8.5-25.2-13.5-4.1-2.5-1.4-9.6 2.5-11 4.9-2 15.4 2.4 21.7 4 2.1.6 4.6 1.7 6.1.3-.9-2.1-3.5-2.8-5.8-4-6.9-3.5-14-7.4-19.5-11-.2 1.3.4 4.7-1.7 4.2z"/><path class="st1" d="M462.3 321.7c2-2.3 4-4.2 6.4-5.2-.9-3.1-1.2-6.4 1.2-10.9.2 3.2-.8 6.9 1.7 9.3 3.5-.9 6.6-3.3 11-2-.2.8-1.4.8-2.2 1.1-2.6 1.2-7.4 2.5-8.7 6.6-.9 2.7-.1 5.9.6 8.3.2.6.8 1.4.3 2.1-3.9-2.8-5.9-6.3-3.4-11.4-2.8-1.1-4.6 1.1-6.9 2.1zm-343.9 77.5c.7.4 1.3.8 1.9 1.2 2.9 2.4.5 5.9 1.9 8.5.6 1.3 1.8 2.1 2.4 3 .7 1.1 1.6 2.6 1.6 4 .1 3-3.3 8.1-6 10.1-1.3.9-2.9 1-4.4 1.9-3.5 1.9-6.9 5.6-10.4 9.1-3.7 3.7-7.3 7.8-9.9 11.6-.7 1.1-1.2 2.6-2.4 3.3-2.6-1.3-.9-3.9-.4-5.7 1.3-4.1 2.4-7.9 3.4-12.4.4-1.8 1.4-4.7-.1-5.8-1.6-1-4.4 1.7-5.6 3.4-1.7 2.2-3.2 5.1-5 7.7-1.1 1.6-3.9 6.2-5.6 5-1.1-.7.1-3.6.6-5.3 1.8-5.6 4.1-11.1 5.8-16.7 1-3.6 1.3-7.3 2.3-10.7 1-3.6 1.8-7.3 2.8-10.9.4-.7.9-1.3 1.3-2 .7-.5 1.5-1.3 2.2-1.7 3.6-1.8 7.9-2.3 11.9.4.7.4 1.3 1.2 2.1 1.6 1.3.4 3.6-.6 5.1-.6 1.7 0 3.2.6 4.5 1zm-14.6 32c.4-.9 2.6-.1 3.2-.1 3.3-.2 4.4-3.2 7.4-5.6.7-.7 2-.4 3.1-1 2.4-1.1 6.6-4.4 7.1-7.6.4-2.9-3.4-4.4-4.4-7.1-.8-2.1.7-4.4-.1-6.7-.7-1.9-3.2-3.9-5.5-3.9-1.9-.1-4.1 1.9-5.9 1.3-2.2-.6-3-2.3-4.5-3.3-3-1.9-7.3-1.2-9.4 1.2-2.2 2.5-2.6 5-3.2 7.6-.4 1.8-.9 3.6-1.3 5.3-.7 3.5.7 6.7-.4 10.1-.4.2-.9.2-1.4-.2-.4 4.9-3.1 10.8-5.9 16.3-.9 1.8-2.1 3.6-2.1 5.5 4.5-2.6 7.6-11 11.6-15.9 2.1-2.5 6.7 0 7.3 2.8.8 3.6-3.2 10.3-4.9 14.4-.6 1.4-1.6 3-.8 4.1 1.6-.4 2.3-2.1 3.3-3.6 3.1-4.3 6.4-8.7 9.5-12.2-.8-.1-3.3-.1-2.7-1.4z"/><path class="st1" d="M107.2 401.1c1.4 1.6 2.4 3.2 3 4.9 2.2-.3 4.5-.1 7.3 1.9-2.2-.1-4.6-1.2-6.4.2.3 2.5 1.6 4.8.2 7.6-.5-.2-.4-1-.5-1.6-.4-1.9-1-5.3-3.6-6.6-1.8-.8-4-.6-5.7-.4-.4.1-1.1.4-1.4 0 2.3-2.3 4.9-3.3 8.2-1.2.6-1.8-.6-3.2-1.1-4.8z"/></g></svg>