<svg xmlns="http://www.w3.org/2000/svg" viewBox="0 0 566.9 467.7"><style>.st0,.st1{fill:#ed7d00}.st1{fill-rule:evenodd;clip-rule:evenodd}</style><g id="Layer_1"><path class="st0" d="M136.2 149.6c.2.6-.2 1.5-.2 2.1-.2 3.1.1 6.9-.6 10 1.3-.1 2.1.3 3.5.2.4-5.5-.4-15.7 2.7-17.5 1.5-.9 3.4-.5 5.8-.8.1-.8-.3-1.1-.2-1.9-7-.2-12.3.9-18.4.7v4.7c3.1.1 6.7 0 7.4 2.5zm85.9-6.8c-.4-4.4 1-8.8-.4-11.9-1.1-2.4-4-3.3-7.1-2.7-2.5 2.6-7.1 5.4-6.3 10 1.8-2.6 2.5-7.6 6.5-7.7 6-.1 4.8 8.2 5 13.3-2.5 2-5.7-.3-8.7 1-1.8.7-4.2 3.9-4.8 5.6-.9 2.4.1 6.4 1.9 7.7 1.8 1.2 5.5.7 7.3 0 2.7-1.1 4.8-3.5 7.5-4.2 1.2 1.1 1.6 3.9 3.7 4 .9.1 2-.7 2.7-1.5-5.7-.5-6.8-7.9-7.3-13.6zm-12.5 12.1c-.8-1.1-.3-2.3-.6-4.2 1.2-3 8.6-3.6 9.4-.2 1.2 4.4-6.4 7.7-8.8 4.4zM147.9 94c.1-1.4.8-8.5 2.1-6.9.4-3.8 1.7-10.3 0-13.8-.2 3.4-.4-1.3-2.8 0-3.6 3.8-6.7 8-8.3 13.8 2.7 2.7 2 9.4 9 6.9zm33.3 62.9c.2-.6 1.1-.6 1.3-1.2 1.2-6.1 1.5-15 9.2-13.3 2.9 5.7-2.2 12.4-1 19.2.3 1.6 1.6 2.6 2.1 4.4 2.4.9 6.2 1.5 7.5-.8-1.6.5-3 .4-3.8-.2-7.7-4.9 3-23.8-3.3-28.3-4.5-.4-7 2.8-8.3 5.6-.6 1.3-.4 3.2-1.9 3.1-2.5-.2-.3-6.3-1.3-8.5-2.7 3.4-1.9 8.8-2.1 13.7-.6 12.2-1.7 25.1-5 34.6 2.5-3.4 3.5-8.1 4.6-12.9 1.1-4.7 1.3-10.1 2-15.4zm56.9-3.9c.7.1.9-.3 1.7-.2-.4-4.9-1.8-9.1-.4-13.8 3.6-1.3 8.3-2.6 13.1-2.1 1.4 4.1.8 10.4 1 15.8.9.1 1.2-.3 2.1-.2.8-6.2.1-13.7.2-20-5.8 1.5-12.1.5-18.3 1.2 1.9 4.7.7 14.1.6 19.3zm32.5-7c-1.3-1.4 0-4.9 0-6.9 2.1-1.2 6-.6 9.2-.8V136c-3.5-.4-7.4.8-9.2-.6.5-1.9.2-4.6.8-6.3 1.8-1.6 6.2.2 8.5-1.2-.6-.9.1-3-.8-3.7-3.4 1.2-7.8.3-11.5 1 .1 8.1.4 16.3-.6 23.6 4-.8 8.5-.1 12.9-.2.2-.9.3-1.9.4-2.9-2.9.1-6.7.1-9.7.3zm32.9 2.5c1.5-1.8.3-4.6-.4-6.9-.7-1.9-5.2-.5-5-2.9.1-1.9 4.3-1.2 5.8-1.9 2.6-1.3 2.9-6.3 1-8.8-1-1.3-8.3-2.9-10.8-2.5-3.4.5-2.9 4-3.3 7.3-.6 6-1 10.1-1.7 16.2 4 .3 11.7 2.7 14.4-.5zm-10-20.2c3.3-2.3 8.7-.8 9.2 2.7.6 4.6-4.4 5.6-9 4.2-.7-1.7.3-5-.2-6.9zm6.9 16.2c.4 4.1-5.3 4.5-8.8 3.1-.5-2 .5-4.5-.2-5.8 2.7-3.6 8.6-.9 9 2.7zm-131.6 18.3c-5.6 3.9-13.7.2-12.7-6.5.7-4.4 5.6-1 9.2-2.5-2.5 0-5.3.1-6.7-1-.5-3.2 2.9-6.5 6-6 2.5.5 5.4 6.3 1.9 6.9 1-.1 1.9-.4 3.1-.4-.6-3.2-.5-7.3-2.9-8.3-1.1-.5-4.8 0-6.2.6-3.8 1.6-8.5 6.6-8.1 11.9.8 8 11.8 10.1 16.4 5.3zm-7.1-11.7c.9.2 2.8.4 3.7 0-.5-1.8-3.1-1.9-3.7 0zm168.7-21.5c-5.7.8-13.6-.5-18.6 1-.1 1.5-.5 2.7-.6 4.2 2.5 0 3.8-.3 6-.4.7 2.2.2 4.9 0 7.7-.2 3-1.1 6.1-1 9 1.1-.1 2-.3 3.1-.4.8-5.2 3.5-10.2 2.5-16 1.2-2.2 5.5-.9 8.1-.6-.2-1.5 1.1-3.7.5-4.5zm-203.6 19.8v-9.1l1.9-.5c6.7.1 14.8-1.2 20.7-.4 0 2 1.4 5.2.4 6.9-2.1.2-4.8-.5-6.9.4-1.8 4.8-.9 12.4-2.1 17.9-2.2.1-5.5-.2-7.5-1-.9-4 .7-8.5.2-13.3-1.3-.6-3-.7-4.7-.8l-2-.1zM69.4 96.3c1.7 6.2 6.2 11.8 12.9 12.2 5.9-3.2 6.4-10.3 8.3-16.6 0 0 1.1.8 1.4.7-2.2-3.5 2-6.4 2.1-9 0-1.1-.1-.9-.2-.8 0-.1.1-.3.2-.6 1.1-3.5-.6-9.6 0-12.4 3.1-14.1-.4-33.2.7-46.9-7-1.8-13.7.3-20-2.1 1.7-2.2 2.5-5.3 2.1-9.7 1.6-.2 4.1-3.9 4.8-5.5 9 1.4 14-1.6 20.7 1.4 8.2-3.2 18.2-2.2 24.8-.7.1 4.6 1.1 19.6-.7 22.8-1.5.3-1.3-1-1.4-2.1-2.7 1-5.8 1.6-9.7 1.4 1.5 2.2-1.1 6 .7 6.2-1.6 16.9-2.5 36.2-2.8 49.7-.6-.1-.7-.7-1.4-.7.3 10.9-.5 12.5-1.4 22.1-2.8-.7-1.5 7.2-4.1 6.9-3.7 12.7-11.4 14-21.4 19.3-.7 0-.5-.8-.7-1.4-.8.1-.6 1.3-.7 2.1-7.4 1.2-9.4-1.9-13.1-.7-.4-.1-.8-.2-1.2-.4l-10.2-11.3-3.4-8.2 13.7-15.7zM190 54.7c3.1-3.2 4.7.3 6.2.7.9.2 2.5-1.1 3.4-.7.3.1 1.6 2.1 1.4 2.1 2.4.3 8.2-2.3 11 0 2.9-2.1 4.4.8 9-.7v2.1c5.8-1.3 9.7-1.1 13.8 0-.9 3.2.9 10.8-1.4 15.9-8.7 3-11.9 13.8-17.2 20-.3.3-.9-1.1-.7-1.4-.9.2-.6 1.7-.7 2.8 1.4 1.1 4.7 2 4.8 0 1.1 3.3 2.5-.3 2.8 2.1 2.9-2.4 14.2 2.1 15.2-4.1 6.5 3.7-.3 12.2 2.8 19.3-1.8-.4-2.5.3-2.1 2.1-1.2-1.5-3.9 1.2-4.1-1.4-.7 0-.5.8-.7 1.4-3.2-3.1-10.4 1.6-11.7-1.4-.9.9-1.4 2.1-2.1 0-.8.1-.6 1.3-.7 2.1-.5-1.5-6.1 2.1-6.2-1.4-.8.1-.6 1.3-.7 2.1-2.6 1.5-3.4-3.3-3.5 0-3.1-2.8-6.5.6-10.3 0-2.1-5.1-2.5-11.9-3.5-17.3h2.1c-.6-.8-.9-1.9-.7-3.5 4.9-6.1 8.5-13.5 11.7-21.4-6.6-1.1-7.4-.1-15.9-.7-2.4-6-2.3-10.4-2-18.7zm92.1 96.7c-.8.5-1.6-.1-2.5-.2-4.9-.4-11.6.4-15.2.2-.8-3.4 1.7-9.2 0-12.9.4-5.5 0-10.8 1.2-15.4 2.5-1.3 5.7-.5 8.7-.6 2.5-.1 4.9-1.5 7.1-.6.9 2 1 5.8 1 8.1-2.1 1-6 1.1-8.8.8v2.3c2.6 1.1 7-.8 8.8 1.2.2 1.7.2 4.8-.4 6.3-2.4 1-5.9-.3-8.8.4-.4.5-.1 1.7-.4 2.3 3.3-.1 6.7-.3 9.4 0 1.5 1.2.3 3.6.2 5.6-.1 1 .6 2-.3 2.5zm-46.3-20c2.8-.7 5.8-1 9.2-1 1.1 0 2 .6 3.1.6 1.4 0 2.9-.7 4.4-1 1.6-.2 3.1-.2 4.4-.6 2.1-.6 1.7 5 1.5 7.7-.2 5.1.2 12.5-.2 17.1-2 .5-4 1-6.2 1.3-2.2-3.8-.8-11.3-1.5-16.5-3.2.2-5.8 1-8.7 1.5-2.6 3.3 2.6 11.2-.2 14-1.2 1.2-5.1 1.1-6.2-.4-.2-5.7 1.4-14.8-.6-19.8 1-.7.3-1.9 1-2.9zM121 80.9c3.2-3.3 3.1-13.3 6.9-13.8v-3.5c4-1.5 5.4-5.7 11.7-4.8v-2.1c2.9 2.1 9.8 2.9 17.3 4.1 5-4.4 7.9-2.6 14.5-4.1 1.8 1.2 1.1 4.8 4.1 4.8-.7 22.2-1.1 38.8-6.2 54.5-7.3.2-11.7-1-11-9-1-.8-1.9-1.7-2.8-2.8-2.5 3.1-11 10.7-14.5 7.6-3 2.5-3.9-.8-9 .7-10.7-5.4-12.3-16-11-31.6zm54.8 84.1c.3-3.2 1-6.8 1.2-10.2.4-7.5-.9-20.1 4.6-20.6 1.6-.2 3.2 1.7 2.9 4.2 2.3-3.5 9.8-6.3 12.5-1.5 3.8 6.7-2.7 17.2-.4 24 .3.9 1.2 2 1.7 2.1 2.2.5 3.1-3 5.4-1.5 1.9 4-2.7 8.2-7.1 8.1-3.5-.1-5.3-1.3-6.7-4-.4-.8-1.1-1.8-1.3-2.5-1.9-6.8 2.2-12 1.5-18.5-4.3.9-4 8.2-5.4 12.9-.3 1.1-1.1 2.1-1.3 3.1-.5 2.2-.2 4.9-.6 7.3-.4 3.2-1.4 7-2.3 10.4-1.3 4.7-2.6 11.8-8.3 9.2-.7-3.9 1.9-7.7 2.9-12.7.5-3 .3-6.4.7-9.8zm-25-12.9c1.6-3.8 5.9-7.5 9.2-8.8 2.3-.9 4.6-.9 7.3-.8 3.6 2 5.4 7.6 4.4 12.9-3.5 1.1-8.4 1.7-12.9 1.2-.6 6 4.8 6.2 8.8 4.2.8-.4 2.7-2.4 3.8-2.1 2.5.6.4 5 0 5.6-1.5 2.1-6.2 3.8-9.6 3.8-7.5.1-14.5-7.6-11-16zm152.8-52.7c-20.3 2-34.3 4.3-49 4.1-.2-1.2.7-3.5-1.4-2.8 1-5.4-.2-9.2 0-14.5.2-4.3 4.1-6.6 4.1-11 .4-.2.9 1.1.7 1.4 2.9-3.4 4.5-12.8 7.6-17.3-.3-1.3-2 1.1-1.4-2.1-4.4 1.3-6.5-.9-9.7.7-.2-2.8-.8-1.8-3.5-2.8.2-1.6 2.6-8.3-1.4-7.6 3-2.4 1.6-4.1 1.4-8.3 5.9 2.4 11.8-.3 15.2 1.4 2.9-2.9 6.8-1.1 9-.7.6.1.7-1.4.7-1.4 1.5.3 2.8 3 4.8 2.8 2.4-.3 11.3-1.9 16.6.7.2 4.7 1 6.8.7 13.1-1.6-4.1-1.4.4-1.4 3.4-1.8-2-3.2 2.6-4.8.7-5.8 8.6-12.3 13.8-20.7 20.7v3.5c8.4 1.4 11.6-.7 20 2.1 3.4-2.2 5.1-.6 11.7-1.4 1.5 6.2 1.3 6.3.8 15.3z"/><path class="st1" d="M478.6 47.7c-1.6.9-2.5-1-3.8-1.7-1.5-.7-3.8-1.3-6-2.2-7.4-2.8-19.4-1.9-27.7.2 2.5-2.9 7.7-2.5 12.2-2.9 7.7-.6 12.8.3 18.4 2.4 2.7 1.2 6.6 1.6 6.9 4.2z"/><path class="st1" d="M475.7 49.9c-2.9 2.4-6.6-2-9.6-2.4-11.3-1.5-22.8 4.6-31.1 7.2 2.3-2 6.3-3.4 10.5-4.8 4.1-1.3 8.7-3 12.9-3.3 3-.2 6.6-.6 9.6 0 2.5.4 4.8 2.8 7.7 3.3zm14.3 54.9c-.9 1.8-2.7.3-4.1 0-10.2-2.1-19.6 3.2-22.5 10.3-1.1.5-1.9 1.5-3.6 1.4 0-4.2 4.2-7.1 8.1-9.3 2.6-1.5 5.8-3.5 7.9-4.1 5.1-1.2 9.9.6 14.2 1.7zm-5 10.6c.3.9-.7.6-.7 1.2 1 .4 2.1-.9 3.1-1.2 1.2.7-1.1 1.2-1.4 1.9 1.4-.1 1.9-1 3.1-1.2.6.8-1 1-1.2 1.7 1.4.1 1.7-.9 3.1-.7-1.5 4-7.3 2.2-11 1.4.4 1.1 1 2.4.5 3.8.5.5 1-.9 2.2-.5-1.7 3.5-6.5 2.2-10.5 3.1-2.7.6-4.9 1.8-7.2 1.4.8-8.3 9.5-14.4 18.2-10.3.6-.1.9-.7 1.8-.6zm-17.2 7.6c2.5-3.7 6.3-6.2 11.7-6.9-6.4-1.3-11.2 2.3-11.7 6.9zm.7 1.9c1.5-.2 3.1-.4 4.1-1.2-.3-1.1-.4-2.4-.7-3.3-1.3 1.3-2.5 2.7-3.4 4.5zm-5.5 13.9c2.1 3.6 5.2 7.1 3.8 13.4.6-.1 1.7.7 2.6 1 5-2.7 2.7-11.5-3.8-10.8 3.2-2.7 7.1 1.1 8.4 3.3.4 4.9-2.1 7-4.8 8.8-1.2-.2-2.1-.6-2.9-1.2-2.4 3.1-8.8 7.3-13.9 4.1-6.9 6.7-13.1-9.4-4.3-11 .8-11.4-1.6-19.6-7.2-24.6-2.5-.2-5-.4-7.4-1.4-1-.4-1.7-1.6-2.6-1.9-5.1-1.8-10.7.5-14.1 2.4-2.3 1.4-3.1 4.4-6.2 5 3-4.7 8-8.6 15.3-8.8 4.5-.1 9.3 1.2 13.9 1.7 6.9 4.3 9.9 12.5 10.3 22.7.1 2.4-.6 5-.2 7.9.4 3.6 2.6 6.3 5.3 8.1 7.2.9 12.7-4.7 9.8-11.7-1.1-2.7-4.6-5.2-2-7zm-13.4 18.9c.5-.4.6-1.2 1.4-1.2-1.6-2.4-3-5-3.1-8.8-4.3 1.1-2.3 10.1 1.7 10zm32.8-29.7c-3.5 3.8-12.3 3.3-16.7.7.1-.3.4-.6.7-.7.2 0 .2-.2.5-.2 4.4 2.3 10.8 2.3 15.5.2z"/><path class="st1" d="M443 134.7c-.9 1.4-2.7 3.1-4.5 4.3-3 1.9-6.2 3.8-11 2.4.9-1.8 3.3-.3 4.8-.5 4.3-.4 6.8-5 10.7-6.2zm46.3 20.8c1.6 1.2 2.3 3.4 3.1 5.5-.6.2-.6 1-1.7.7-.4-2.4-2.1-3.5-2.6-5.7.5-.1.6-.5 1.2-.5zm-.5 8.1c-.3 1-1.6.8-2.1 1-3 7.9-8.1 13.2-17.4 15.3-.9.2-1.8 0-2.6.2-3.7.9-7.1 3.2-12.2 1.9-2.1-.6-4.4-2.1-6.2-3.3-2.8-1.8-4.4-4.4-7.9-4.1-.7 1.1 1.6 2.1 0 2.9-2.1.3-2-2.6-1.9-3.8.6-.2 1.5-.9 1.9 0 3-.6 5.3-1.5 7.9-2.9 3.3-1.7 6.4-3.8 11.5-3.6.8 0 1.6.4 2.4.2 2-.3 4.7-3.2 8.4-3.8 5-.8 10.4 0 14.1-1.2.5-.2 1.1-.9 1.7-1 1.3.2 1.8 1.3 2.4 2.2zm-26 4.8c-6.4-.7-12.6 1.7-15.9 4.8 5.4-.6 8.8-2.6 15-2.5.7-.1 1.6.4 2.1.5 3.5-4.4 12.9-3.6 17.2-7.3-6.8.7-14.6.9-18.4 4.5zm17.1-1.9c.5.7 0 .8.6 1.4 2.7-1.5 1.6-1.6 3.3-3.6-2.7.6-1.2 1.5-3.9 2.2zm-7.8 6.9c-1.2 1.9-3.5 1.6-6.2 1.9-1.4.2-2.4 1.1-3.8 1.4-4.2 1-9.4-.1-14.1 0 2.3 2.4 6.9 5.3 12 4.5 1.7-.3 4.3-1.5 6.9-2.2 2.6-.6 5.5-.9 7.4-1.7 5.4-2 8-6.8 10.3-11.2.3 0 .2-.3-.2-.2-3 3.8-6.6 6.7-12.3 7.5zm-26.3 1.5c1.7.9 2.2.6 4.8.6-.1-.9.4-.7 0-1.2-1.6 1-3.3-.5-4.8.6zm34 10c-2.2 3.2-7.2 1.9-11.2 2.9-2.5.6-3.7 3.4-6.2 3.3 2.1-4.6 10.4-6.3 17.4-6.2zM377.7 354.1c1 4.1-2.8 7.1-6.9 7.6-.5-4.3 2.4-7.4 6.9-7.6zm55 28c-.4 2.1-2.8 2.3-4.8 3.6-2.9 2-5.6 5.2-8.4 8.1-2.8 2.9-4.1 6.4-6.2 10.3-6 11.3-10.1 24-8.4 41.1 1 10 2.5 18.1 10.8 21.5 1.2.5 2.5.5 3.6 1s1.9 1.8 2.9 2.2c2.2.8 4.2.4 6.2 1.7-8.4.7-16.7.6-21.5-2.4-9.1-5.6-8-19.7-8.4-33.9-.8-1.6-3.5-1-5.7-1.2-6.1-.4-10.7-3.9-15.1-6-2.9 2-4.7 5.3-6.7 8.4-6.3 9.8-12.2 21.2-14.3 35.4h-6c2.2-12.6 8.8-25.2 15.3-34.9 2.3-3.4 4.5-7.5 6.9-9.8 1.6-1.5 4.5-3.4 6.5-3.6 7.4-.8 11.1 7.6 19.4 6.7 2.1-9.9 5.9-19.9 10.8-28.9 2.3-4.2 5.7-7.3 9.1-10.8 3.4-3.7 8.2-9 14-8.5zM360.3 395c1.6 4.1-2 8.1-6.5 8.4-1.6-4.7 1.8-8.4 6.5-8.4zm66.2-264.6c-3 1.9-6.4 6.9-11.2 4.1.7-2.4 3.4-1.5 5-1.4-.7-.5-1.7-.7-1.7-1.9.4-.1.6-.4 1-.5 1.1-.1.9 1.1 1.9 1.2.9-.9-.8-.7-.7-1.7.7-.5 1.5-.9 2.2-.2 2.4-4.3 9-6.3 15.5-4.3 1.8 1.7 3.5 3.3 4.5 5.7-6.5.9-10.4 5.2-18.4 3.8-.2-1.4 1.3-1.3 2.2-1-.3-1-1-2.6-.3-3.8zm-.5-1.4c3.4-2 9.4-1.6 12.9 0-.5-3.6-12.7-4.3-12.9 0zm9.1 4c.8-1.2 3.1-1 4.3-1.9-1-1.1-3.7-1.8-5-1.9 1.6.4.5 3.1.7 3.8z"/><path class="st1" d="M576.1 155v.7c-1.2 2.7-3.4 2.9-5.3 4.8-1.5 1.5-2.8 3.7-4.3 5.5-4.6 5.5-9.8 10.5-14.3 15.8-6.5 7.6-14.5 12.8-22 18.2 3.6-1.8 6.4-.1 9.8.2 2.1.2 4.3-.2 6 .2 2.9.7 5.8 3.2 8.8 4.5 3.1 1.4 6 3.9 8.8 4.5 4 .9 7.8-.5 12.4.2v9.8c-3.3 1.5-7 3.9-11.5 3.6-.7-.1-1.4-.6-2.2-.7-1.1-.2-2.5.1-3.6 0-1.2-.1-2.2-.7-3.1-.7-4.5-.1-8.1.9-11.7.5-2.4-.2-4.4-1.4-6.7-2.1-2.5-.8-5.4-1-7.9-2.2-3.8-1.7-8.4-5.4-14.3-4.8.5 1.7.8 3.6 1.2 5.5 1.8.6 3.9.4 5.3 1.4.8.6.9 1.8 1.7 3.1.6 1 1.8 1.7 2.4 2.6 1.4 2 2.8 4.9 3.3 6.7.4 1.3.3 2.9.7 4.1.9 2.3 3.3 3 4.5 4.8-1.6 1.5-3 2.9-5.5 3.3-1.5.2-3.1-.3-4.8 0-2.5.5-6 3.4-7.6 4.8-.6.5-1.8 1.2-1.4 1.9 9.2-.7 20.7-.5 29.9-.5-5.2 7.1-22.4 2.1-32.5 4.3-.4 1.6-.8 3.3-.7 5.5 12.6.4 25-.9 37.3 0 6.9 6-3.6 10.6-10 11.2 2.3 4.4 6.2 7.2 8.4 11.7-.1 7.3 5.3 12.9 3.6 20.8-.5 2.5-2.9 4.4-4.8 6.2-1.9 1.9-4.8 3.8-5.5 5.7-.9 2.5-.9 5.2-1.7 7.6-2.8 8.7-6.2 17.7-9.8 24.1.8 7.7-3.6 10.2-6.2 14.6 1.2 2.2 1.9 4.8 2.6 7.4 2.4-1.5 5.4-2.6 7.9-4.1-.5-1.6.2-3-.5-4.3 1.5-2.2 4.1-4.3 6.5-3.8 1.3.2 2.6 2.5 4.3 4.3 2.6 2.8 5.1 7 3.1 11.7-.9 2.1-4.5 5.2-7.4 4.5-2.7-.6-2.6-5.2-4.5-7.2-2.2 1.6-4.3 3.4-6.2 5.3 1.5 3 1.1 8 4.3 9.3-.6 5 2.3 8.4 3.6 12.2 1.7-2.2 6.1-2.1 6.5-5.3.1-1.3-2.3.7-2.4-.7-.1-5.8 5.9-8.3 10-6.9 4.1 1.4 5.8 9.5 4.5 14.6-1.1 4.2-10.8 7.5-11 .7-1.7.9-2.9 2.3-4.3 3.6 1.7 4.7 5 7.7 4.8 14.3-1.9 2.6-4.5 5.9-8.6 6.9-4.4 1.1-9.9.4-14.3-.2-1.4-5.5.3-12.8-3.6-16-2.1 1.3-5.5 1.3-7.9 2.4.9 3.2 2.1 6 2.9 9.3-2.6 2-5.3 5.3-9.1 5.7-6 .7-9.1-4.2-9.8-10-3.3 10.4-7.1 21.4-12.4 31.5-2.4 4.6-5.9 8.4-9.1 12.9-3.2 4.5-8.4 12.2-16.3 10.5 7.4-2.7 11.4-10 16-16.3 4-5.5 6.5-11.9 8.8-17.9 5.1-13.2 10-27 12.2-40.9-1.2.6-3.4.1-5 .2-1.6-.7-2.2-2.3-2.9-3.8-1.5 3.4-4.1 5.8-6 8.8 2.1 4 4.8 5.6 4.8 10.3 0 9-11.7 13-21 11.5-1.2-.2-2.4-.8-3.8-1-2.7-.3-5.4.3-7.9-.2-2-.4-4-1.7-6-2.4-2.4-.8-4.8-1.2-6.2-2.2-2-1.2-2.9-3.4-4.5-5.5-1.5-2-4.2-3.5-4.1-6.2.1-1.9 2.6-4 4.1-5.5 3.3-3.3 6.7-5.4 11-7.2.7-4.2-2-7.6-2.4-11.2-.7-6.2 1.8-10.6 2.6-16-4.3 3.1-11.1 5.6-16.3 9.3-3.1 2.3-4.9 6.1-9.6 6 1.2-2.6 3.5-4.6 5.7-6.2 2.3-1.6 4.9-3.2 7.6-4.3.1-4.6 2.4-8.7 4.3-12.4 1.9-3.8 3.4-8 6.2-11-6.5-4.8-7.7-14.9-14.3-19.6 0-1.2 1.1-1.8-.5-2.9-16.5.8-35 1.6-46.6 8.1.1 2.5-3 2.8-4.1 4.5-.7 1-1.1 3-1.7 4.3-.6 1.5-1.1 2.9-1.9 4.3-4.3 7.9-8.2 16-12.7 23.9-6 10.5-11.9 21.3-17 32-5.3 11.2-9.9 22.7-14.6 34.4-4.6 11.6-10.1 23-13.9 35.1-1.7-.2-4 .3-5.3-.2 3.5-11.3 8.5-22 12.9-32.7 4.5-11 8.7-21.8 13.6-32.3 9.7-20.8 21.4-40 31.5-60-2.7-1.4-1.7-6.9-1.7-11.2 0-10.5-.1-22.7.7-32.5 4.5-5.4-.8-29.9 4.3-34.2.6-.5 2-.6 1.4-1.2-16.7 0-33.8-.3-49.2 1 .2 6 3.1 10.3 4.5 15.1 1.7 5.6 1.2 11 .2 17.2-.5 3-.7 5.6-1.7 8.1-.9 2.2-2.3 4.1-3.3 6.5-6.2 14-13 26.3-21.7 37.5-5.9 7.6-10.9 15.6-15.3 24.1 9 1 12.5 9.1 19.8 11.7 1.7.6 3.4.8 5.5 1-4.2 9.6-10.2 18.3-15.1 27.5-4.9 9.3-10.4 18.1-16 26.8-3 2.2-6.3 5.5-11 7.2-2.2.8-4.9.8-7.9 1.2-2.8.4-5.6 1.4-8.1 1-5.3-1-8.9-7.4-12.9-9.6-1.8 2.9-3 6-4.5 9.1-1.6 3-4.1 5.4-5.5 8.4-1.8 3.6-2.9 7.6-5.5 10.8h-4.8c2.2-2.6 2.6-5.9 4.1-8.8.9-1.9 2.7-3.4 3.8-5.3 1.2-1.9 2.1-4.1 3.1-6.2 2.1-4.1 5-7.8 6.2-12.4 2.7-3.5 5.3-7 8.4-10.5 2.9-3.3 6.2-6.4 8.6-10.3 2.5-3.9 5.2-7.3 8.1-10.8 2.9-3.4 6.6-6.8 8.6-10.5 2.4-4.5 3.3-9.4 6-13.6 5.1-8.3 9.4-16.9 15.1-24.4 8.7-11.3 16.3-22.3 22.7-36.6 1.8-4.1 4.6-8.6 6-13.6 1.4-5.2 2.9-11.6 2.2-17.7-.8-6.2-5.2-11.4-5.7-17.7-.2-2.2.4-4.6.2-5.3-22.3 1.5-45.6 1.9-68.8 1.9-11.7 0-23.2.7-34.7.7-11.5 0-22.7-1.1-33.9-1.7-3.5-.2-6.8.5-10.3.7-9.6.6-18.2.2-27.2 1-1 2.1-1 3.7-1.9 5-1.7 2.4-7.6 6-13.4 4.8-1.1-.2-2.5-1.5-3.8-2.2-3.8-2-7.5-5.3-11.2-6.7-1.3-.5-2.5-.3-3.3-.7-7.3-3.5-.3-10.7 5.5-11.2 2.3-3.7 5.3-8.1 6.9-11.7-3.6 3.6-8.9 3.4-12.7 6.5-1.2 1-1.7 2.9-2.9 4.1-.9.9-2.5 1.5-3.6 2.6-4.1 4.2-9 10.5-16.3 8.1.3-4.2 2.1-7 2.9-10.8-1.4.3-3.1.8-4.1-.2-.2-5.3.6-10.4 2.1-15.1.4-1.3 1.4-2.7 1.7-4.1.3-1.6-.3-3.4 0-5 1.2-6 8.5-11.2 13.4-14.3 7.3-4.7 15.8-8.7 23.7-4.8 1.4-1.8 4.1-2.3 6-3.6-.7-1.7.7-2.9-.5-4.1 2.3-3.6 5.8-4.2 9.6-6 2.8-1.3 5.1-3 7.6-4.3 8.3-4.2 18.5-5.7 30.6-5.7 7.7 0 15.7.2 23.9.2 7.6 0 15.1-1.2 22.7-1.7 1.8-.1 4.2-.2 5.7 0 4 .4 7.2 3 11.5 3.6 5.6.7 13.3-.5 17.7-1.2 2.2-.3 4.3-.4 6.5-.7 3.9-.6 7.6-2.1 11.5-2.6 20.6-3 39.9-7.6 58.6-11.9 4-.9 8.1-1.2 12-2.2 5.2-1.3 10.3-4.2 15.5-4.8 2.7-.3 5.8.1 8.6 0 1.8-.1 4-.5 5.5-.2 2.1.4 5.1 3.3 6.7 4.5 1 .8 2 1.3 2.6 1.9 1.5 1.5 1.6 2.7 2.6 4.3 2.9 4.5 8.5 7.5 13.1 10.3 2.3 1.4 4.7 3.3 6.9 4.3 2.7 1.2 7.3 2.8 10.3 2.9 1.3 0 3.2-1.4 3.6.5 2.2-2.8 4.3-5.6 7.9-6.9-5.7-4.3-10.3-9.7-13.9-16.3-.9 1.2-2.4 1.1-2.9 2.6-.6 1.9 1.5 3.3 1.4 5-.2 3.8-3.6 5.9-8.6 5-3.6-2.5-1.7-6.7.5-7.9 1.2-.7 3.2-.5 3.6-1.7.5-1.6-2.4-2.7-2.9-3.8-.5-1.1-.5-4.6-1-6.5-.9-4-2.8-10.3-5.3-15.5-2.7-5.9-9.4-12.8-5.3-17.4-4.6-7.8-6.7-16.8-7.4-27.2-.8-11.8.9-22.5 4.3-32.3 1.6-4.7 3.6-8.1 6.5-11.9 5.2-7 10.7-14.6 21.3-14.6 3.1-2.9 6.3-6.2 10.3-8.8 6.4-4.2 17-7.9 27.2-7.6.8 0 1.8.1 2.6.2 2.8.5 6.4 1.5 9.1 2.4 6.1 2.1 11.3 7.1 16.7 11 5.6 4 9.9 8.7 13.9 14.1 3.9 5.2 7.8 10.8 10 17.9 2.3 7.3 2.3 16.5.5 25.1 1.6-.8 3.3-1.7 6-1.4 2.4 1.5 1.9 4.8 1.9 7.4 0 3 .3 6.4-.2 9.3-1.1 5.6-3 10.6-3.3 15.8-.3 3.8.7 7.8.7 11.7 0 1.4-1.9 4.2-1.2 5.3 1 1.4 4.7.5 4.8 2.6.6 4.3-1.4 8.1-5 8.6-5.2.7-6.1-3.9-3.8-7.2-.6.2-2.4.6-2.6-.2-.6-1.1 0-2.8 0-4.1.4 1.1 1.1 3.1 2.9 2.2.1-1.3-1.8-2.7-2.4-4.1.7-1.2 2.7-1.1 3.8-1.9.4-3-.5-5.9-.7-9.1-.4-6.4 2.4-13.3 3.3-18.6.5-2.9 1.3-14.9-1.4-15.3-2.5-.4-3.2 3.8-3.8 5.7-.9 2.8-.9 5.6-2.9 6.7-1.5-3.1-2.6-6.6-4.5-9.3 2.8 17.1 9.1 40.8 3.3 58.1-.8 2.3-2.7 4.1-3.1 6.2-.6 3.5.5 7.1.5 9.8.4.7.5-.9 1.2-.7-2.3 5.7 1.4 13.2 1.9 18.4 1.3-5.7 5.5-9.9 8.8-14.1 5.8-7.4 11.3-13.1 20.8-16.7 3.6-1.4 7.3-3.1 10.5-4.1 5.5-1.6 11.6-1.6 16.3-4.5 2.6-1.1 6.8-6.3 9.9-4.4zm-64.3-57.3c1.8-6.8.5-16.3-2.4-20.8 1.1-2.7-.6-3-2.2-5.3-5.6-8.3-10.6-16-17.9-22-2.7-2.2-6-4-8.8-6.2-5.5-4.2-10.8-6.5-18.4-8.1-1.2-.3-3.7-.3-4.8-.2-6.2.5-13.3 1.8-17.4 4.1-4.9 2.7-8.7 6.1-12.4 9.8.2.8 1.1.4.5 1.4-1.7 3.7-2.9 8.5-2.6 12.9 10.3-4.2 21.9-10.2 36.8-9.3 8.5.5 14.7 4.2 21.7 6.5.5 1.2 2.6 2 2.4 3.1-7.1-3-15.2-7.8-24.9-8.4-13.5-.7-21.8 3.5-30.8 6.9-2.1.8-5.3 1.1-5.7 3.6 3.9.9 6.8-1.6 10.3-2.9 9.3-3.4 20.7-4.7 30.8-2.2 9.8 2.4 19.1 5.5 25.8 10-.1 1.7 1.6 2.9 1.7 3.6-5.2-4.8-13.7-8.6-22.7-11-9.4-2.5-19.3-4-29.6-1.4-2.4.6-4.8 1.6-7.2 2.6-2.3 1-4.9 1.5-6.9 2.9.6 2.3 2.7 1.4 4.1 1 1.6-.5 3.2-1.6 4.3-1.9 2.4-.7 5.5-1.2 7.6-1.4 7.9-.7 16.3-1.6 22.5.2 3.8 1.2 8 3.4 11.2 5.3 3 1.8 5.9 5.2 8.8 7.9 3 2.8 6.4 5.1 9.1 7.6 6.8 6.5 12.7 14.4 16.3 22.2.2-3.5 1.7-7.2.8-10.5zm-88.4-44c0-1.3-2-2.6-4.1-2.4-1.4.2-4 1.9-5.3 2.9-2.1 1.6-4.3 4.4-6.5 7.4-2 2.7-4.4 5.3-5.7 8.4-2.7 6.4-5.2 14.6-5.7 22.5-1.2 16.8 1.5 30.8 7.6 41.1-1.9-7.6-3.9-16.2-4.5-24.9-1-14.5 3.1-28.3 9.1-35.6 3.2-3.9 7.8-6.3 12.7-7.6-6.2-.6-8.3 2.9-12.2 4.5 2.2-3.4 6.3-4.8 10.8-6-2.8-2.3-5.1 1.6-7.9 1.7 2.1-1.9 5.5-4.5 9.3-3.1.8.7-.7 1.7.2 1.7.2-2.3 1.1-5.1 1-6.9-6.9-.7-10.2 4.1-15.1 6.2 3.7-3.5 7.3-7 14.3-7.2.5-1.6 1.9-1.2 2-2.7zm-12 18.9c-3.8 4.9-6.7 12.8-8.1 20.3-.7 3.9-.8 9.4-.5 13.6.8 11.7 3.4 22.7 7.6 33 2.1 5 3.9 9.8 5.5 14.8 1.7 5.3 2.8 10.9 4.8 15.8 3.7 8.9 9.7 15.8 16.5 20.6 4.4 3.1 9.8 4.7 15.1 7.2 2.2 1 4.2 2.1 6.2 3.1 2.1 1.1 3.6 2.8 5.5 3.8 1.1.6 2.9 1 4.3 1.7 3.3 1.5 6.3 2 10.8 1.7 5-1.8 8.1-6.1 10.8-10.3 1-1.5 2.3-2.7 3.1-4.1 2.3-4.1 4-8.9 6.2-13.6 2.1-4.3 5.7-8.3 7.4-12.4 1.9-4.6 3.1-12.3 2.6-17.9-.4-4.2-.5-9.2-1.4-13.9-.7-3.5-1.5-6.9-2.2-10.5-2.1-11.6-2.9-23.3-10-29.4.7-1 1.3-1.1 1.2-1.9-.1-.7-3.8-4.3-5.3-5.7-2.2-2.2-4.3-3.6-6-5-2.2-1.9-3.9-3.6-5.7-5.3-1.7-1.6-3.5-3.7-6-5.3-7-4.5-16.7-7.2-27-6-4.5.5-9.4.6-12.9 1.7-3.7 1.1-7.1 4-12 2.2-1.3.1-.1-2.5-1.2-2.6-4.8-.4-7.6 2.2-9.3 4.4zm3.4 97.2c0-.4-.2-.8-.5-1 .4 3.3.8 5.5 3.6 6.7.8-.4 1.2-1.2 1.4-2.2-3.7-8.9-5.9-19.5-9.6-28.4-3.9.3-4.7-3.8-6.7-4.5 4.7 9.4 11.1 16.9 11.8 29.4zM517 158.9c.6.7 1.2 1.4 2.4 1.4.7-1.8 1-5.7-1.4-5.7-.6 1.1-1 2.5-1 4.3zm32.8 9.3c.6-.1.8.3.7 1 .9-.4 2-.5 2.4-1.4-1 .1-2.8-.5-3.1.4zm.9 10c1.5-2.2 4.7-4 5.5-6.2-2.2 1.5-4.5 4.2-5.5 6.2zm-151 16.5c-6.1-3.7-12-7.1-14.8-13.6-1.6-1.5-2.6-2.1-4.3-3.6-.9-.7-1.6-1.6-2.4-2.2-2.6-1.7-4-1.6-7.9-1.4-3 .1-6.3-.3-8.1 0-2.3.4-4.7 1.5-7.2 2.2-2.4.7-4.8 1.8-7.2 2.4-3.8.9-7.9 1.2-11.9 2.2-19 4.3-38.8 9.2-59 12.2-11.4 1.7-23.3 6-37.3 4.5-6.2-.6-9.1-4.1-16.5-3.6-5.6.4-11.6 1.2-17.9 1.4-18.4.7-40-1.9-54 3.8-3.3 1.3-5.9 3.8-9.8 5.5 4.1 0 7.9-.9 11 0 .8.2 1.8 1.1 2.9 1.7 1.1.6 2.6.9 3.3 1.4 6.2 4.3 9.2 20.2 4.1 26.3-1.4 1.7-3.7 2.3-4.8 4.1 11.1.8 20.6-.6 30.6-1.7 5.5-.6 10.9-2.1 16.5-2.4 10-.5 22.3.6 30.8-1.4 1.8-.4 2.7-1.4 4.5-1.7 1.7-.2 4.3.2 6 .2 7.1 0 16.3.1 24.4-.5 3.6-.3 7.3-1.2 11-1.4 4.1-.3 8.5-1.2 11.9-.5 2.8.6 5.6 4 8.6 5.5 1.5.7 3.7 1.2 6 1.7 6.6 1.3 13.4 2.4 22 1.9 4.8-6.8 11.9-10.7 17.7-16.5 4.5-4.5 8.4-9.9 14.8-10.8-8.1 10.6-20.6 16.8-28.2 28 1.7-.2 2.9.1 3.1 1.4-1.5 1.7-4.3 3.9-7.2 2.6-1.8 1.1-1.3 4.9-1.9 7.2-.3 1-1.5 1.7-1 2.2 15.3-.4 28.5 1.3 43.7 1-.2-3.3.3-5.8 0-8.8-.3-2.4-2.5-6-2.2-7.6.3-1.3 3.3-3.1 5-3.3 7.5-1.3 19.4 1.9 23.7-2.9 1.1-8.8-3.6-15.8-7.6-21 4.7-6.5 23.4-.3 28.4-6.9-7.8-1.2-13.5-4.4-18.8-7.6zm94.2 2.9c-4.4 3.9-9.4 12-17.9 12.9-4.5.5-8.4-1-11.2-2.2-2.9-1.2-4.5-1.5-4.8-3.8-6.2-3.8-13.5-6.5-20.6-9.6.5 3.2 2.4 6.7 4.8 9.6 1.4 1.7 5.3 6.4 7.2 7.2 1.1.5 2.6.2 3.8.7 1.6.7 2.5 3 4.3 3.6 1.1.4 3.7 0 6 .2 3.8.3 6.3 1.1 10.5.2 1.6-.3 2.9-1.3 4.5-1.4 1.3-.1 2.7.2 4.1 0 1.2-.2 2.8-.9 4.5-1.2 1.7-.3 3.7-.3 5-.7 4.7-1.4 6.6-6.5 9.3-9.8.8-.9 2.6-1.8 2.9-2.6.3-1-.3-4.2-.5-6-.6-5.4-2.1-13.6-2.6-17.9-3.1 6.9-7 13.1-9.3 20.8zM415 185.9c.8-2.4-.2-4.6-3.1-4.1-.1 2.5.5 4.3 3.1 4.1zm114.5 7.8c-2.1.4-1.7 1.9 0 0zm-129.8 16.1c2.5 4.9 5.1 9.7 4.8 17.4-4.6 7.8-15.1 9.8-27.7 9.6 1.2 4.2 1.2 10.7.7 15.8 8.1-.6 16.9-.5 25.6-.5 5.6-5.2 13.9-7.7 21.3-11.2.6-7 1.2-14.1 2.4-20.6.4-2.3 1.6-4.7 1.4-6.5-.3-2.8-3.1-5.2-4.1-7.9-.4-1.2 0-2.6-1.2-3.1-5.6 4.5-13.8 6.3-23.2 7zm-254.8-1.7c-3 1.4-7 3.8-10 5.3-1 .5-2.5.9-2.9 1.9 4.4-.3 11.6-1.4 10.3 4.8 1.7-.4 3.4-.9 5.7-.7 1.5 1 1 4.4.2 5.7 3.8-.3 6.8.2 6.2 4.3 1.6 1 2 3.3 1.9 6 1.2-.8 2.1-2.4 2.4-3.8 1.8-9.9-3.5-23.1-13.4-22-.1-1 .8-1.5-.4-1.5zm395.6 3.8c-.4-.2-.4-.9-1-1-.7.5.8 1.5 1 1zm5.2 3.1c1 .6 2.7.5 4.3.5v-1.7c-1.9-.1-3.7-.1-4.3 1.2zm13.6 2.4c.6-.4 2.8-.4 2.6-.7-1.1 0-2.3-.1-2.6.7zm-445.9.2c-7.2 3.2-14.9 6.9-16.5 15.3 3.1-1.8 6.6-4.2 10.3-6.2 3.5-1.9 6.6-5.9 10.8-5.3-5.6 7-16.4 8.9-21.5 16.5.9 3.9-1.3 4.7-2.2 6.5-1.1 2.2-.8 4.2-1.4 7.2 4.4-4 9.2-8.7 14.8-12.4 2.8-1.9 6.2-2.8 9.3-4.5 2.9-1.6 5.8-4.7 9.6-3.8-2.8 3.6-7.5 4.9-11.2 7.6-5.4 3.9-12.2 6.8-16.3 11.7-1.5 5.4-3.8 9.9-4.8 15.8 2.6-.5 3.5-3.1 5.3-4.8.8-.8 2.1-1.1 2.9-1.9.8-.8 1.1-2 1.9-2.9 4.4-5.1 11.4-6.6 18.2-9.8 1-.2 1.1.4 1.4.7 2.5-3.9 5.9-7 10.3-9.1 2.9-1.4 6.5-3.2 10-2.9-2 4-7.5 3.4-11 6-2.6 2-4.3 5.8-6 8.6-1.8 3.1-6.4 8-4.5 11 4.2-.3 5.8-4.4 8.1-6.9 3.1-3.3 9.6-5.3 14.6-4.8-.8 1.8-2.6 2.4-4.5 3.1-1.9.7-4.5.4-5.5 2.2 3.3.2 5.9-.4 8.8-.5 1.9-5.1 8.6-12 5-20.3-.2-.6-2 .2-1.9-.7 3-3.8-2.5-4.4-6-4.1.6-1.5 1.9-3.5 1-5.7-2.8.1-3.5 2.3-6.7 1.9.5-1.3.7-3.5.2-5-4.7-3.2-10.1.5-14.8 1-.4-.8-.1-2.3-.5-3.1-2.6-1.8-4.7.9-7.2-.4zm314.5 21.1c2.2-2.3 3.2-5.3 5.3-7.6 2.1-2.4 5-3.6 7.6-5.5-5.5-.6-7-5.3-10.5-7.9-.9 6.7-2.6 13.9-2.4 21zM491 221c.8-.3 2-.2 2.4-1-.8-.4-1.9.4-2.4 1zm31.5 14.1c-1.4-4.5-5.1-7.2-6.7-11.2-2.4-.9-5.1-1.6-7.6-1.9-9.6-1.1-16.4 2.2-23.7 2.9-3.6.4-7.1 2.5-10.8 2.9-3.8.4-7.7-.3-12-1-2.8-2.6-9.9-1.3-13.9-1.4-3.8 1.6-6.4 1.9-8.8 4.1-2.3 2.1-2.8 5.3-4.8 7.6-1.3 1.6-4 2.4-6 3.8-1.5 1.1-2.3 3.4-4.8 2.9-3.7 2.1-9.2 3.9-12.7 6-1.2.7-3.2 1.1-2.9 2.4h32.7c2-2.9 5.5-4.4 8.6-6.2-.6-1.8-1.9-2.9-2.2-5 .6-1.4 2.5-1.7 3.8-1.7 4.6-2.6 9.8-4.7 16.7-5 1.2.9 1.5 2.6 2.9 3.3 3.7-.5 8-1.8 11.7-1 5.7 1.3 6.4 8.7 8.1 14.1 7.1-.4 12.4 1 19.4.7 4.4-3.7 9.1-7.1 14.8-9.6-1.2-1-1-4.3-1.8-6.7zm-223.4 3.8c-4.8-1.5-8.2-6.4-12.9-6.7-6.4-.4-13.4 1.7-20.1 2.2-6.8.4-14.3-.1-20.6.2-2.3.1-4.6-.3-6.5 0-1.3.2-2.4 1.2-3.8 1.4-3.4.6-7 .7-10.5 1-8.1.6-16.1.2-24.1.7-5.5.3-11 1.8-16.5 2.4-9.6 1-18.3 2.4-28.7 1.7-1.5 3.1-3.2 6.7-4.8 9.6-.5.9-1.8 1.7-1.2 2.6 13.6-2.2 27.9-.5 42.3-.5h44.5c7.3 0 14.6.4 21.7-.2 20.3-1.7 42.3-3 64.1-1.7-.1-3.5 1.3-5.6 2.6-7.4.6-.8 2-1.8 1.4-2.6-10.8 0-19.1-.3-26.9-2.7zm152 2.2c.7.9.9 2.3 1.9 2.9 4.1-2.4 9.1-3.8 13.4-6-.6-.4-.8-1.1-1.2-1.7-5.7.6-11 1.6-14.1 4.8zm28.4-2.4c-2.2-.5-5.6-.1-8.1.2-10.3 1.6-18.6 6.6-25.3 10.3-.8.7.6 1.2 0 1.7-.2.3-1.8 1-.7 1 13.4-.8 28.5 0 41.6-1.2-1.8-4.9-2.4-10.9-7.5-12zm-41.8 17.2c-9.1.4-18.2 0-27 0-2.3 0-6-1.1-7.4 1.7 33 2.2 68.5 1.8 101.8 3.3.3-1.8 1.8-4.9 1.4-5.7-23.1-1-45.1-.4-68.8.7zm-65.7.5c-9.3.4-18.4-.1-27.7-.5-25-1-51.6-1.5-76.2-.2-6 .3-12.1 1.5-18.2 1.7-13.1.4-26.5 0-39.7 0-26.1 0-52.2-1.7-76.7 1.2 1.4.2 1.4 1.9 2.6 2.4 4.8-1.5 10-.4 15.1-.7 29.8-2.1 62.1-1.4 91.8-.5 3.1.1 6.4-.2 9.6-.5 3.3-.3 6.5-.1 9.8-.2 6.2-.3 12.5-1.2 18.9-1.2 13.1 0 26.5-.3 39.7-.7 23-.6 46.9.5 70 .5 3.5 0 7.3 1.1 8.6-1.2-9.3-1.2-18.5-.5-27.6-.1zm22.2 5.2c-15.2-.8-30.4.2-45.6-.5-22.6-1-46.5.5-67.9.5-12 0-24.1 1-36.1 1.7-6.1.3-12.1-.4-18.2-.2-27.4.8-58.5-1.8-83.9 1.4.2 1.1.6 2 .7 3.1 2.2.7 4.3-.8 6.9-1 8.3-.6 17-.2 25.3-.7 2.1-.1 4.3-.6 6.5-.7 8.1-.3 16.4 1.1 24.9 1.4 8.5.3 16.9-.1 25.6-.2 25.9-.3 52.8 0 77.4-1.4 26.9-1.6 56.2-1.9 82.2-1.4 1.3 0 4.2.8 4.1-1.4-.2-1-1.4-.5-1.9-.6zm-267 .3c-2.4 1.8-6.3 3.4-10.3 2.9-.8-.5-1-1.5-1.4-2.4-.3.5-1.1.5-1.7.7-.2 3.7 3.3 3.9 5.7 4.8 6.1 2.2 10.1 8 17.2 8.8 1.8-2.2.5-5.5-.2-7.9-5.4 0-6.2-4.5-9.3-6.9zm275.1.7c0 .8-.3.7.5 1 1.2.4 2.8.2 4.1.2 13.6.3 25.9 1.2 40.4 1.2 12.1 0 24.3-.3 34.9-1-26.4-.9-53.6-.9-79.6-2.2-.3.1-.3.4-.3.8zm112.1 1.9c-.6.1-1.7-.3-1.9.2h2.2c3.9.6 8.7.4 12.7 1 .5-.5 1.3-.7 1.7-1.4-4.6.4-9.8.1-14.7.2zm22.2 3.3c2.8-.1 6 .2 8.4-.2-.3-1.5-1.3-2.4-2.2-3.3h-6.5c.1 1.2 0 2.7.3 3.5zm-158.7 0c-.8 5.7-.4 12.9-.7 19.1-.3 5.2-.2 10.8-1.4 15.5-.4 1.5-1.1 2.6-1.2 4.3-.7 8.9 0 18.4.2 27.7 7.7-20.7 17.6-39.1 27.7-57.4-3.8-1.6-5.3-5.5-6.5-9.8-6.2.2-11.6-.3-17.7-.2-.2.2-.4.4-.4.8zm32.1 6.7c1 .7 1.9 1.7 2.9 2.4 3.5 2.3 8 3.2 7.4 8.8 3.2-3.4 12.5-9.8 18.9-4.8 2.1 1.7 3.5 6.3 3.1 10.3-.2 2.7-3.6 6.3-5.7 7.9-1.4 1.1-2.9 1.8-4.5 2.4 3.7 5.3-.3 13.5 2.2 18.6.8 1.7 5.6 5.3 7.2 6 7.8 3.1 18 1.5 27-.2 2.2-4.3 4.8-8.3 7.4-12.2-6.1-14-10.5-29.8-17.2-43.3-1.2 1.4-3.6 1.6-6 3.1-2.5 1.6-4.5 4.5-7.4 3.6-1.4-.4-1.9-2.4-2.4-4.3-1.4-1-2.2-2.5-2.9-4.3-12.6.4-25.2-.4-36.3-.7 1.1 3.6 3.4 4.7 6.3 6.7zm72.9-5.9c3.5 8.3 7.5 16.7 11.2 25.3 2.8 6.6 4.8 13.5 7.9 19.4 2.6 4.9 3.4 9.5 7.2 12.7-4.4-9.7-8.2-19.7-12.7-29.4-3.9-8.4-8.1-16.8-11.5-25.3-.4-1.1-.8-2.7-1.9-3.3h-.5c0 .2.1.4.3.6zm23.6 42c7.6-3 15.4-9.5 22.7-13.4 5.2-2.8 12.1-3.9 10.5-12.7-3.7-3.8-6.6-8.4-9.6-12.9-7-2.5-11.3 2.7-16.7 1.9-3.7-.5-5.1-4.4-7.9-5.3-5.6-1.8-10.7.3-17.9-.5 5.9 14.8 13.1 28.2 18.9 42.9zm-32.7-39.7c-1.3-.4-1.5-2.1-2.4-2.9-.3.4-1.2.2-1.9.2 4.6 13.6 9.9 26.6 14.6 40.2 1.2-.2 2.3-.6 3.3-1-4.9-11.7-8.7-24.6-13.6-36.5zm3.1-1.9c6.3 15.4 11.1 32.3 17.9 47.1 2.6.4 3.4 2.5 5.7 3.1-1.5-4.4-3.9-8.4-5.5-12.7-4.9-13.5-11-25.5-16-38.5-1 .2-2.7-.3-3.3.2.2.5.7.6 1.2.8zm-32.5-.2c1.8 1.6 1.4 5.3 3.8 6.2 2.1-1.5 4.4-2.9 6.7-4.1 1.2-.6 2.9-.7 3.6-1.9-3.9-1.1-9.9-.2-14.6-.5 0 .5.2.6.5.3zm33.9 42.5c1-.2 1.3-1.1 2.4-1.2-3.5-10.5-7.4-20.7-11.2-31.1-1.2-3.4-2.9-6.9-3.1-10.5-1.4.2-3.5-.3-4.5.2 6.1 13.6 11 28.4 16.4 42.6zm42.3-42c-1.2.3-2.4-.6-3.1 0 .8.4 2.4.8 3.1 0zm-120.9 22.2c-6.5 11.7-12.1 24-16.7 36.6 6.1-4.4 12.7-9.7 20.1-12.9 7.4-3.2 15.1-6 23.2-9.1-1.2-2.1-2.8-3.9-4.3-5.7 1.9-1.5 3.2-3.5 6-3.1 1.6.3 1.9 2 3.6 1.9 1.4-.1 3.9-2.9 4.3-4.8 1.1-5.3-2.3-12.5-7.9-11.2-1.5.3-4.8 4.9-6 6.2-1.9 2.1-3.5 3.5-5.7 5-1.3.9-3 2-5 1.7 1.6-2.9 4.1-6.5 2.4-10.8-1.2-2.9-5.6-3.5-7.6-5.5-1.5 4.2-4.2 7.8-6.4 11.7zm128.1 28.2c6-4.2 13.2-5.9 16.5-12.2.3-6.1-.9-10.6-2.6-14.6-2.2 2.6-6 3.2-9.3 5-8.6 4.6-16 11.3-24.9 14.8 1.7 4.5 4.1 8.5 5.7 13.1 1.8-.7 3.6.7 4.3 1 3.5-2.1 6.7-4.6 10.3-7.1zm-126.7-1.2c-5.7 2.8-10.4 7.1-15.3 10.5-.1 0-.3.2 0 .2 10.9-5.5 25.4-7.3 41.3-7.6-.1-3.4.2-9.3-.2-13.1-8.6 3.7-17.7 6-25.8 10zm80.3-6.2c-3.7 4.4-5.5 9.6-8.4 14.3-.7 1.2-2.1 2.1-2.9 3.3-.7 1.2-.9 2.7-1.7 4.1-.7 1.1-1.7 2.1-2.4 3.3-.7 1.3-1 2.8-1.7 4.1-.7 1.2-1.8 2.2-2.4 3.3-1.6 3-3.1 6.5-5 9.8-2.9 5-4.6 9.1-6.2 14.8-.5 1.7-1 3.7-1.2 5.3-.7 7.3 3.7 10.4 2.6 17.7-.6 4.2-3.2 7.7-3.8 12.4-.3 1.1.8.6.7 1.4-2.9 1-1.7 6.1-4.3 7.4 4.1 1.2 8.4 4.5 13.9 5 2.1.2 4.4-.3 6.7 0 3.7.5 7.9 2.4 11.5.2 1.2-2.3 1.4-6.7-.5-8.4v3.1c-1.4 1.6-3.6 3.7-6.5 3.1.1-4.8 1.2-8.7 2.9-11.9.1-.6-1.3.2-1-.7.6-1.2 1.8-1.9 3.1-2.4 3.3-4.4 5.5-9.9 10.8-12.4-.6-6.4 12.7-12.4 15.1-6.5 2-1.1 3.6-2.6 5.7-3.6-1.3-3.5-2.9-6.7-4.3-10-1.9.4-3.2 1.8-5 2.6-1.5.7-4.4 2.1-6 1.7-1.5-.4-3.4-4.1-3.6-6.5-.2-1.7.1-3.6.5-5.5.8-3.5 3.2-7.9 5-11.7.8-1.7 1-3.6 1.9-5.3 1.9-3.4 3-6.2 5-9.6 1-1.7 2.6-3.8 2.6-4.8 0-3.1-3.9-4.3-4.5-6.2-2.4 2.2-4.9 2.8-6.5 4.5-.5.6-.6 1.7-1.2 2.4s-1.9 1-2.6 1.9c-2.1 2.6-2 7.6-2.9 11.5-1.5 6.6-2.5 13.7-9.3 13.1 3.8-7.9 2.2-21.1 9.3-25.6 1.7-4.4 7-5.2 9.3-9.1-2.1-.8-3.7-3.2-6.5-2.9-1.5.2-2.4 1.7-3.8 2.2-3.7 8.6-10.6 14-12 24.9-1.5 1.4-3.9 3.1-6.2 2.9 2.6-15.5 13.8-24.5 19.4-37.8-.1-.2 0-.5-.2-.5-.4 1.4-2.5 2.5-3.4 1.1zm6.2 5c.8-.8 2.3-.8 3.3-1.4-.5-.8-.8-1.7-1.4-2.4-.5 1.2-2 2.7-1.9 3.8zm29.9 12.9c.4 5.4-2.1 7.9-3.1 12 .9 2.1 1.8 4.2 2.6 6.5 2.5-1.7 4.4-4 8.6-4.1 3.4-7.8 7.4-16.2 8.4-25.6-6 3.2-11.3 7.1-16.5 11.2zm-51.1-.9h-.5c-6.9 1.9-15.8 2.8-23.9 2.6 4 5.4 4.9 14.8 15.3 13.1 3.1-5.2 5.5-11 9.1-15.7zm43.5.2c-.3 0-.3.3-.7.2-2.9 1.8-3.7 4.3-5.3 8.1-.8 2.1-2.4 3.8-3.3 5.7-.6 1.2-.6 2.6-1.2 3.8-2.6 5.7-8.3 15.4-3.1 21.7 1.8-.7 3.5-1.6 5.3-2.4 2-3 2.5-7.3 3.8-11.9.9-3 2.5-7.3 2.6-9.8.1-.9-.5-1.8-.2-2.6.2-.9 1.9-1.9 2.4-2.9 1.6-2.9 1.5-7.1 0-9.8-.1 0-.1-.1-.3-.1zm-62.2 19.6c-3.1 5.5-5.8 11.4-8.1 17.7 2.1-.6 4.5-3.2 7.2-1.7 2.6-5.7 5.6-11 8.6-16.3 0-.3-.1-.6-.5-.5-1.8.9-4.6.7-7.2.8zm71 3.8c.6 1.9 1.5 3.6 2.2 5.5 2.2-1.2 2.2-7.4 1-9.8 0 2.5-2.3 2.7-3.2 4.3zm-9.1 6.7c-.4 1.8-1.5 4.1-1.4 5.3 0 1.9 2.4 5.7 3.3 7.9 1.3 2.9 2.5 5.6 3.6 7.9 2.6 5.4 6.2 11 7.2 17.9.6 4.4 2.7 7.6 4.3 11.7 1.1.2 1.9-.6 2.4.2-2.8 2.9 1.2 6.1 1.7 9.3.2.9-2.1 1.6-1 1.9 2.4.6 5.7 0 8.1-.2 1.5-3.1-.6-5.3-1.4-7.4-1-2.6-2-5.6-3.1-7.6-.8-1.5-2.3-2.6-2.9-3.8-1.4-3.4-3-6.8-4.3-10-1.5-3.7-1.8-7.7-3.3-11.7-.8-2.2-2.6-3.9-3.3-6.2-2.5-7.4-5.2-15.3-8.4-21-.3 1.9-.9 3.5-1.5 5.8zm17.2 14.4c1.2-.5 2.5-1.7 3.8-2.6 1.2-.8 3.7-1.8 3.1-2.6-2.7 1.1-5.9 2.1-6.9 5.2zm-249.5 23.6c-3.3 4.3-7.2 8.3-10.8 12.7-3.6 4.4-6.2 9.2-10 13.4-3.7 4.1-8 7.8-10.3 13.1 1.8 2.6 4 4.6 6.7 6.9 2.2 1.9 5.1 5.1 8.1 5.5 1.6.2 3.6-.4 5.7-.7 1.9-.3 4.4-.2 6-.7 6.3-2.2 8.8-11.2 12.4-16.7 2.6-4.1 4.9-8.2 7.2-12.4 4.9-9.1 10.5-17.4 14.1-25.3-9.7-1.4-13.2-8.9-21-12.2-4 4.9-4.4 11.7-8.1 16.4zm223.5-7.9c-.8.8.6.6.5 1.4-2.4 5.1-3.3 12.9-5 17.9 1.9-3.7 12.3-7.8 12.7-.7 2.6-1.2 4.4-3.1 7.9-3.3-1.5-8.5-4.6-15.5-8.4-21.7-2.7 2.1-5.8 3.6-7.7 6.4zm-6.5 3.1c.4-2.2.4-5.7 0-7.9-.6-.2-.9-.7-1.7-.7-1 2.7-1.1 7.8 1.7 8.6zm-51.1 4.1c-2 .5-5.9 5.2-6 6.2-.3 2.5 2.5 4 4.1 5.7 1.7-3.6 2.6-8.1 4.1-12-.5.3-1.4-.1-2.2.1zm99.9 0c-2.4.7-3.9 2.3-6 3.3.3.2.5.6.7 1 2.2-.6 3.3-2.3 5.5-2.9.2-.7-.4-.7-.2-1.4zM505.8 422c-1-4.7-2.3-9-4.3-12.7-2 5.2.3 12.1 4.3 12.7z"/><path class="st0" d="M63.5 195.9c-5.5 3.3-4.1-.9-8.1 3.9.9-.2 1.7-.4 2.1-1.1 1.6 1.8-2.7 1.4-4 1.6 3.5 2-6.8 3.5-8.8 8.8 2.7-.8 7.9-6.7 7.4-5.4-2 3-5.2 4.9-7.7 7.5-1.4-.5 1-1.1-.7-1.5-2.8 1.2-.1 2.6-1.4 3.4C23.9 224.6 5 256.4-7.1 280c2.1-25 20.1-52.7 35.4-61.1.3-.7 0-1.1-.3-1.2-.2.1-.3.2-.5.4.1-.3.3-.4.5-.4 9.5-6.6 20.5-20 32.1-28.7-6.8-3.3-13.8-6.6-15.1-13 5 3.6 11 6 12.7 9.8 1.1-3.7 6.3-3.3 7.6-6.8-.8-5.1-12.4-3.2-14.8-8.6 12.8 1.8 30.1 10.2 28.1 20.7-.6 3.4-5.6 4.8-7.8 8.2-3.3 5.2-3.3 12.8-4.7 19.5-6.2 29.6-18.1 63.6-34.6 75.6 18.6-24.6 28.3-58.5 32-98.5zM56.9 382c-.6-.7-1-1.5-1.2-2.3 0 1.4.3 2.6.7 3.9l.5-1.6zm.6 4.9c-.3-1.1-.7-2.3-1.1-3.4l-.5 1.5c.5 1 1.1 1.9 1.6 1.9zm1.7-4.3c.6 1 1 3.4 2.5 3.2-.6-1.7-2.1-4.6-1.4-5.7.5 1.5 1.6 1.2 1.8 2.9.4-.6.9-1 1.4-.9.1 1.2 1.5 3.5 2.3 3.6-.4-1.9-2.1-5-1.6-6.2.8 1 1 2.6 1.8 1.5-.4 1.6 1.1.6 1.9 1.2.3.9 1 3 1.8 2.9-.5-2.1-1.5-4-1.6-6.2.6 1.7 1.7 2.8 3.4 2.5.3.8 1 2.8 2 2.5-.6-1.7-1.5-3.3-1.3-5.2 1.2 2 2.4 3.2 3.6 4.3-.3-1.1.1-2.4.4-3.7 6.7-.6 17-2.1 24-3.3.6-.1 4.3-.8 4.7-1.2.2-.2 1.1-5.1 2.5-5.6-.5-.2-1.1-.8-1.5-.5.6.9-1.3.3-1.8.7.9.7 1.1 1.6.7 2.6-1.1 2.4-6.6-.4-4.1-2 .6.6.4 1.4 1.6 1.8.4-.6 1.1.1 1.4-.9-.8-.3-1.2-2.1-1.8-1.5.3.3.3.7.3 1-.3-1.1-1-.4-1.9-1.2-1.2 1.4-2.9.9-4.3 1.4.1-.3.4-.6.1-.8-2.3.7-4.9.4-7.1 1.5 1.1.8 3.3.1 3.5.8-5.6.6-11.6-.3-16.9 1.8.1.4.1 2.1-.6 1.8-1-.7.2-3.3-1.3-3 .5 1.1.6 2.2.6 3.4-.5-1.3-1.3-1-1.4-2.1-.8.2-1.8-.6-2.5-.2-1 1.5 1.2 2.3.4 3.8-.7-1.3-1.1-3.4-2.1-1.7 1.2-1.6-2.4-2.4-2.3-1.4-.1-.3.3 2.7.7 4-1.1-.9-1-2.1-1.6-3.2-.3.5-.6 1.3-1.1 1.1.2-.3.4-.7.6-1-1.1-.4-.8-.2-1.6-1-1 0-.1 1-.9.8.1-.2.2-.4-.1-.5-.6 1.6.7 2.8.5 4.3-.6-1.1-.9-2.2-1.6-3.2-.2.7-2.6.4-1.2-.3-.4-.2-.7-.2-1-.2l-.6 1.9c.3.8.4 1.5 0 1.7l-.3-.6-1.1 3.6c.3.4.7.8 1.1 1.2.2-.2.6-.4 1-.5zm79.3-56.3c-3.3 1.5-8.5.8-12.1 1.9 1.6 1.3-1.8.8-1.1 2.7 3.4.7 9.6 0 14.8-.7-1.2-.8 0-3.5-1.6-3.9zm61.2 5.9c.1-.6.5-.2.9.1 1.2-1.3-.1-2.9.8-4.1-.6 0-1.2-.1-1.8-.1.1 1.2-.9 3.5.1 4.1zm-54.7-5.9c1 .6-.2 3 1.1 3.3.7-.4-.1-4.6-1.1-3.3zm108.2 15.8c-1.4.2-3.9-.9-4.6.1 1.4-.1 3.9.9 4.6-.1zm-149.7 81.7c0-.7-.8-.1-.9.5.6.6.4-.8.9-.5zm101.6-102.3c-.9-.1-1.8-.1-2.7-.2.1-1.2.2-2.4.3-3.7.8.9 1.2-.3 2.7.2-.1 1.3-.2 2.5-.3 3.7zm-4.8-4c-.2 1.3 0 3-.7 3.6-1.1.6-1.6-1.3-1.8-.1-1-.3 0-2.3-.2-3.2 1.3.4 1.4-.7 2.7-.3zm-5.7 3.3c-1.1.1-.9-.9-2.2-.6.1-1.1.2-2.1.2-3.2.5.7 2.2.9 2.3-.3.9 1.3-.2 3.4-.3 4.1zm-5-.9c-.8-.9-.8.2-2.3-.2-.9-1.9.4-3.3 2.9-2.5.3 1.4-.9 1.3-.6 2.7zm-5.1-.3c-.6-.1-1.3-.2-1.4.4-1-.5-1.4-1.7-1.1-3.3.8-.2 2.6.8 2.8-.3 1.2.6-.2 2.3-.3 3.2zm-5 0c-.9-.1-1.8-.1-2.7-.2.1-1.2.2-2.4.3-3.7 1 .8 1.9 1.5 2.7.2 1.2 1-.5 2.5-.3 3.7zm-62.9-1.9c.5.5.9.5.9-.4 1.7-.2 2.1.7 3.6.7-.5 2-2.9 2-5.2 1.9.5-.4.8-1.1.7-2.2zm25.7 13c-9.6 1.2-16 .9-20.2 5.4 2.5-.3 3.7 1 4.4 3.1-5.8.3-17.9 6-21.1-1.1-.4-1-.4-4.4-.9-7-.8-4.6-1.6-7.9.8-10.5.9.3 2.7 1.9 3.6.7-1.6-.3-1.6-1.3-1.7-2-1.2.5-.4.9-1 1.3-.3-2.1 2.7-1.8 3-3-.9-7.9-3.5-16.7-3.3-24.1 3.9 7.6 3.3 20.5 8.2 25.9-.3 1.9-4.7.9-3.4 3 2 2.7 3.6-3.1 6.9-.4 1.3-.3 1.3-2.2 2.9-2.1 2.6 6.9 15.1 1.1 19.6 1.9 1.1-.5 0-3.6 1.2-4 .6.5 1.9-.3 2.8-.3-.1 1.4-.2 2.7-.3 4.1 3.1.3.9-3.3 2.2-4.4 2.5-1.7 2.7 1.7 3.9 3.5 1.4-.2-.1-3.8 1.2-4 1.4.4 1.7-.3 2.8-.3.2 1.4-.3 4.8 1.1 3.8 1.4-.5-.2-4.6 1.7-4.5.3 1.4 1.2-.5 2.3.2.6 1.2-.6 3.9 1.1 4.2 2-.9.3-4.3 1.3-4.5.7 1.2 1.8.3 2.8-.3 1 1.3-1.1 5.2 1.4 5.2 1.4-.4-.1-4.1 1.3-4.5 1.4.4 1.4-.7 2.8-.3 0 1.7-.7 4 .1 5.1 2.9-.4.9-3.8 2.7-4.9.9 1.4.9 0 2.3.2.7 3.1-1.3 3.1-3 3.5 2.6-.5 2.4 1.3 4 1.7.6-.7 2.6-2.2 3.7-.6-5.6-.1 5.2 2 5.1.1.6 1.6 9.6 2 9.4 1-1-.3-1.8-.7-2.1-1.1 1.5.5 2.1.8 2.1 1.1 3.1 1 7.8 1.4 3.3-.2 2.8-.1 5.8 3.7 5.4 1.3 24.5 3.6 54.1 5.6 79.4 7.7-.2 2.4-.4 4.9-.5 7.3-10.9-2.3-28.9-2.6-36.9-5-10.5-.1-24.6-2.7-37.4-4.2-.6.1-.5 1.1-.6 1.8-.9-.4 0-2.3-1.7-2-.5.3-.6 2.2-.8 4.1 11.4 2.1 32 4.4 45.5 6.1-1.5-2-4.1-3-6.1-4.6 3.1 0 4.6 3.9 7.9 5.2 4.3 1.7 9.9.3 14.6 1.5-.1.4-.5.4-.5.9 6.2 1.2 9.3.2 15.5 1.6-.2 2.7-.4 5.5-.6 8.2-3.6-1.5-10.1-.5-13.6-1.9-.9.7.5 1.8-1 .8-.8-.3.2-.5.5-.9-13.3-1.2-33.7-3-47.8-6.3 2.3.2 4.5.3 6-.5-1.5-.1-2.8-.4-3.6-1.2 9-.4 16.4.3 27.1.2-12.8-3-28.1-3.8-40.9-6.3-3.5-.7-7.5-.8-10.4-1.7-.8-.2.3-.9-.4-.9-17.3-2.3-39-3.9-54.1-2.1zm-57.2 99.1c0 .3-.5 1.6-1.3.9.4-.5.7-1 1.3-.9zm61.5-5.6c1.9 0 5.3.9 8.3.1-1 .2-2.7-.8-3.3-.1-.6.2-.2-.7.3-.7-.3-.5-1.1.4-1.5 0-.4-1.5-2.9-2-4.5-2.3.3-1.2-.5-1.9-1.8-1.6-.3-.5-.1-.9.4-1.1-2.7-1.2-1.4-5.5-4-5.4-.5-1.9.4-2.4.6-4.3-.6.9-.4 1-1.4 1.5.4-1.1 1.1-2.2 1.9-3.2-.3-.4-.9.1-.9-.8.8-.5 1.2-.3 1.9-.5.1 1.3-.6 1.2.3 2.2 1.7 1.1 3.6-1 4.4-2.1-.2-.5-.8 0-.9-.8 1-.6.6-1.1 1.8-.7-1.5-.7.7-2.3.5-3.7 1.3-.1 2.4.5 3.9.2.5 1.4 1.5 1.8 2.7 1.5.4.8-2.6-.4-3 .6 1 .6 2.1.6 3.4.4.6-.3.6.1.1.3-1.7.3-3.1.2-4.5-.2-.5.8-.4 1.4-1.7 1 .2 1.4-3.1 3.9-2.6 2.9-1.1 2.3.9 3.6 1.6 6.7 1.8.2 2.9 3.6 5.2 1.1 1.1 1.7 5.1-.4 3.3-2 .9-.5.1-.5 1.3-1.1 0-.6-.7-1.5.6-2 1.6 3.3 4.2 4.2 7.1 4.4.2.4-.1.5.1.9 1-.9 1.2.3 2.7.1 1.1-2.9 1.2-4.9 2.7-7.6 1.4 2.6 3.3 4.1 5.1 5.8 5.2-1.1.9-5.7 3.7-8.9 2.1 2 3.5 4.5 5.9 4.9 2.7-1.3 1.1-4.4 1.7-6.6 2.3.9 3.5 4.6 5.4 5.1.5-.5-1-.3-.9-1.4.8-.7 2.6-1.6 1.6-2.4 1.3.2.8-1.6 2.4-1.3-1.5-.4.6-.5.1-1.2.8-.1.2.9.5 1.3.3-.2.2-2.1.8-.9.1-1.5.8-2.9.4-4.6 2.1.5 4 1.5 5.9 2.2 2.7-2.3.6-6.7 1.2-9.9 2.5.1 2.7 1.5 4.5 1.7 1-.6.9-1.7 2.3-2.2.2.7-.6.8-1.3 1.1 1.1.5 1.2 1.1 1.8 2.2 1.9-2.6 1.2-8.1.8-12.4 1.3.8 2.4-.2 3.1 1.1.1 1-.4.1-.1 1.2 2.2-.1 2.1-2.9 1.9-4.6.4-.1.4.7.8.5.5-.9-3.3-4.8-1.4-6.2-1.2-2.2-2.5-5.1-3.9-8.1 3.6 4.8 6 10.9 6.9 16.6 0 0-.5-.2-.5-.4-.1.6.3 1.2.5 1.9 1.1 4.6-.4 11.7-2.2 15.9 2.3-3.3 3.4-8.7 3.8-14.2 2.3 17.2-9.7 29.3-29 35.8-16.1 5.4-34.2 7.3-46.8 4.3zm-84.7 13.6c0 1 .6 2.7.4 3.3-.8-.7-1.7-2.2-.4-3.3zm115.2-81.2c1.2 3.1 4.7 1.8 7.2.3.8 2.6 2.4 4.7 4 3.9 0 .3-.1.5.1.9 1.1-.7 3.1-1.4 4.6-2.5 1.1 2.9 3.5 3.8 6.3 1.8-.8 1.4.6 3.6 1.9 3.9 3.2-1 3.6-3.1 5.1-4.8 2.9 2.4 4.6 5.7 5.3 9.3.1.2.4.1.6 0 .6 2.7-1.6 5.3-1.1 7.2.1.4-.5.5-.9.7-2.1 6.6-9 11.1-13 16.9-3.9 1-8.2 3.7-10.1 6.2-2.2-1.6-3-.6-5.9.1-1.4.3-2.3.2-3.5 0-.4-.4 1.7-.8.5-.8-.1-.8 1.2-.3.7.3 1.4-1.2 2.6-.5 3.7-1.8-.8-.8-1.6-.2-1.8.7-.1-1.5-1.6.1-3-.2 0-.7-.2-1.6.6-2 .7.6.3 1 .9 1.4.3-.4.9-.7.9-1.3.4 0 .6.1.8.5 1-.2.9-.9 1.5-.6.2-.1.4-1.1-.1-.9.1-.5.7-.7 1-1-.1.4-.5.8-.3 1.3 1.4.3 1.3-1.8 2.9-2.1-.6 1.8-2.7 3.2-4.1 3.5.7.3.9-.3.9.8 0-.8 1.2-1 1.7-1.6.2.8-.9 1-1.1 1.6 1.4.7 3.4-1.1 4-2.5.3.7.6.3.4 1 .6-.3 1-.7.9-1.3-.3-.5-1.1.4-1.5 0-.2-.4.1-.7-.2-1.1.4.4 1.1.4 1.7.5.4-.7.1-1.6.9-2.1-1.2 1.2 2.1 1.1.2 2 1-.3 1.9-.3 3 .2-.9-.5-1.7-1.2-2.8-1.2-.4-1 0-.8-.6-1.5-.2 1.1-1.8.3-2.5-.4.4.1.8.5 1.3.3 1-2.6 2.1-2.6 4.3-3.8-.3-.3-.6-.4-1.1-.4-.3-.9 1 .2.6-.6.5-.1.8.2.9.8 2.4-.2 1.9-2.3.6-2.9-.5.2 0 .8-.8.9-1.6-1.7.4-3.3 1.5-5-.3-.9-1.4 0-1.6-1.1.1-.9 1.6-.6 1.8-.7 1.5-1.6.2-4.2-2.5-3.1.2-1.3-1.3-1.1-1-2.5-.3-.1-1.9-1.2-1.5 0-.9-.4-2.4-2-3.2-.7-.9.1 0-.8.2-1-.2-.5-1.6-.4-1.5 0-1-.2 0-1.2-.1-1.7-.8.2-.5.9-1.3 1.1-.1-.6-1.3-1.1-1.3-.3-.4 0 0-.4-.3-.8-2.7-1.3-5.8-2.3-7.6-4.8-.2-.4-.7-.4-1.2-.1.3-1-1.5-2.3-2-1.2-.6.2-.5-1-.9-1.4.4-.1.5.7 1.2.1-.4-.4-1.2-.1-1.5-.8.2-.1.5-.2.7-.3-.4-.5-1-.6-1.5-.8.2-2-1.3-1 .2-2.4-.1-.2-.4-.1-.6 0 0-2.2 2.7-1.2 4-2.5-.2.1 2.9 1.7 1 3.1 1.6 0 2.4-1.9 3.4-2.7zm15.3-4.9c-.6-.8-.3.7-.8.9-.7.3-.1-.5-1.1-.4-.5.1-1.5.9-1.6 1-2 .4-4.5.5-6.4 1.5-1.6.8-3.4 2-4.8.5 2.2-3.3 5.3-2 8.9-3.4.7-.6.7.7 1.2.7.5-.6 1.1-1.2 1.6-1.8 2.7.6 6-.3 7.6 2.7 1.5-.5 2.4-1.8 3.5-.9-2.4 3-5.7.4-8.5.9-.5-.8.4-1.1.4-1.7zm10 3.5c1.5-1.8 3.5-.4 4.5.8-.9.2-3.1-.7-4.5-.8zm6 1.7c1.3-.7 4 3.7 5.3 6.3-1.9-2-3.3-4.9-5.3-6.3zm-3.7 41.5c-.3.3-.5.6-.4 1.1-1.1-.1-1.8-1.3-3.1-1.1 0-.3 0-.5.3-.7-.2-.3-.4.2-.4.5-.9.1.1-.6-.1-.9.9-.1.3.5.9.8-.4-1.2 1.1-.5.8-1.5.7 0 .4 1.1 1.4.6 0 .9-.3.1.6 1.2zm-22.7-3c0 .3-.1.5.1.9-.4.2-.8.3-1.3.5-.1-.7.7-1.5 1.2-1.4zm9.4-10.6c.8 1.1-.9 1.8-1.3 1.7-.2-.8.5-1.3 1.3-1.7zm-20.7 16.8c-.3 0-.5.1-.8.1-1.9.3-4.6 1.6-7 1.7-1 0-2.1-1.1-3-.8-1.1.4-1.6 2.5-2.3 3-.3-1.4 3.7-6.2 5.7-3.2 2.3-.6 4.4-.4 6.6-.6.3-.2.6-.2.8-.2zM62.9 442.2c1 1.5 3 2.7 4.5 4-1.9-.9-5.1-3-4.5-4zm-2.9-5.9c-.6-.8.3-1.4.7-2.5-2.2-1.3-1.4-3.7-1.7-5.6.5-.4.9-.7 1.4-1.1 0-.4-.9-.4-.5-.9 1.1-2.6.3-4.9 2.8-6.4 1.1 1.1.1 2.3-.5 3.5-.8 1.4-.9 3.2-1.3 4.7 0 .1-.7.8-.8 1.2-.1.7.6.3.3.8-.2.3-1.2.1-.7.5.4 0 .7-.7 1.2-.3-.4 1.9 1.4 4.4-.9 6.1zm37.5-25.4c-2.1-1.6 1.5-4.3 2.6-4.1-.4.5-1.9.8-2.3 1.6-.3.6.6 1.5.5 2.2-.1 1.7-1.1 3.6-1.4 5.1.1-1.6.1-3.1.6-4.8zm1.2 12.4c2.4-1.9 5.6 1.4 6.6-2.4-1.2-1.3-2.3-2.7-4.1-3.9 2-1 3.5-1 5.6-1.7.2-1.1-.6-1.2 0-1.9-.2-.1-.4.1-.6-.1-.1-2.1-.6-4-3-5.3.4-1 1-.4 1.5-.4.5-.9.5-.3.9-.9 1.1 1.4 2.7-1.5 1.5-2.3 1.9-1.6-.6-2.5-.6-3.8-2.2-.6-3.1-2.1-4.8-1.4.7-.3-1.1 2-2.2 1.8.2.9-.2.8-.8 1.2.2 1 .3 2.1 0 3.3-.1.3-.4.3-.2-.1.2-.9.2-1.8-.2-2.5-.8.2 0 2.5-.6 2.1.2-.9-.1-1.6-1-2 .3-1-.1-1.9 0-2.8 1 .2 2.3-1.3 2.7-.2-.2-.9.2-.5.6-1.3.6.1.2.5.5.7.8-.6 2.4-1.9 1.7-3.1-.7-.7-.7-.2-1.6-.3.1-.4 0-.8.4-1.3.7.1.3.5.6.7.7-.6 1.5-1 2.4-1.3-.4.8-.5.6-1.1 1 1.4 0 1.8-.7 3.2-.3-.2 1.9 3 1.1 3.8 3.1.2-.4.4-.5.8-.3-.3 1 .2 1.6 1.1 1.4.1 1.2.4 3 1.5 3.3.3.2-.4.8-.1 1.1 0-.4.7-.6.5-.2-.5.4.1 1.6 0 2.4.7-2.1.1-4.6.2-6 1.8 9.3-.2 22.4-4.7 33.9-5.4 13.9-14.6 22.2-27 20 4.1-.2 8-.7 10.5-2.3-3.1 1.2-8.3 2-11.7 1.1-.4-.1-.9-.4-1.3-.4.2 0 .3.3.3.3-4.1-.8-8.5-2.7-11.8-5.5 2.1 1.1 4.2 2.2 5.8 3.1 1.1-1.3 3.8 1.5 4.5 1.2.1-.3-.5-.3-.4-.6 1.3.2 3.3.4 3.4-1.2-.8-.2-.2.1-.9 0-.9-.6-.2-1.3-.7-2.3 3.1.4 7.1 1.1 9-.2-.8-.5-1.2-.5-1.5-1.4-.2.5-.4 1.1-.9.9.4-1 1.2-.9 1.6-1.6-.1-1.3-1-1.5-1.1-3.3 2.4-.3 5.5 1.3 7.3-.6-.5-1.5-1.1-2.9-1.4-4.4 1.3.3 2.2-.1 3.4-.2-.8-.4.5-.4.7-.6-.3-.3-1 .2-.9-.4.5.4.7-1.1.9 0-.2-1.2 1.1-.8 1-1.7.6.7 1.3-.5 1.8-1.1.8 0 .6 1 1 .7-.3-1.4-3-2.4-3.6-4.1 1.6-.3 3.8.9 4.8-1-.2-1.9-1.9-3-3.3-4.6zM92 439.4c.7.2.2-.9 1.1-.6-.2-.5-.7 0-.5-.7.2.1.7-.6.6.1-.2 0-.6.1-.3.3.1-.2.3-.2.5-.2-.2.9.6 1.5.7 2.3-.3 0-.6.1-.8.3-.8-.7-.2-.4-.9-.4.4-.8-.4-.6-.4-1.1zm3.7-18.2c.1.9.2 1.6-.1 2.6-.6 2.1-1.3 2.6-.2 4.3-1.9 1.3-4 4.3-4.9 7.1-4.3 2.7-7.9 7.7-12.7 8.9-.2.3-.2.7-.5.6-1.4-.4-3.4 1.1-5.3.6 0-.2.2-.4 0-.4-2.6-.6-4.9-2-6.6-4.2 1.3-1 2.8-1.3 3.6-3.6-.2-1-1.7-2.1-2.8-1.5 1.6-2 1-3.8-1.1-4.7.8-1.1 1.4-2.4 2-3.2-.2-.1-.4-.1-.6-.1.6-1.1-.9-2.4-2.7-3 1.2-1.7 2.2-4.3 0-5.2.6-.7 2-1.2 2-2.4-1.1 1.4-2.1-1-2.2-.8 1-.8.4-2.9 2-2.8 0 .2-.2.4 0 .4 1.1-1 .3.1 1.8 0 .2.4.2.8.6 1.1.1-.2.2-.4.3-.5.5.3.3.8.6 1.1.5-.5-.1-.6 0-.9.3.3 1.2.3 1 .7-.8.3.1 1.6.8 1.5-.2.4-.3.7 0 .9 1.8 1.4 2.4 3.6 3.3 5.7.3.2.6-.1.5.3-.5 0-.2.9.2 1-.2.5-.7.4-.9.9.3.1 1.2-.6 1.2.1-.3-.1-.4.9-.1 1.1.1-.1.8-.7.7-.1-.9.6.1 1.7.4 2.4-.9-.4-.2.8-.1 1.1 1-.1.8.9 1.8.8-.9 1.9 1 2.9 2.2 1.9.1-.1-.1-1.2.6-1.3.8.2.1 1 .7 1.2 1.3-.7 2.5-2.1 3.7-.9-.1.6-.5.2-.7.6.4 1 1.9 1.4 2.1-.3-.4-.1-.7-.4-.5-.7.5.3-.2-.7.4-.4 0 .3.1.6.3.8 1-1.6 1-2.4 2.9-3 .1-.4-.1-.6-.2-1 .5.6 1 1.7.2 1.9.5.5.4.2 1.1.5-.1.8.4 1.4.8 2.1-.3-.8-.3-1.5-.1-2.2-.7 1.3-.5-1.1-1.4-.2.4-.6 1.1-.3 1.6-.6-.1-.4 0-.9-.3-1.2.3.2.5 0 .8.2.3.3-.4.8-.1 1.1.4 0 .7-.2 1-.6-.5.1-.2-.1-.7-.3 1-.4 2.4-1.8 2-2.8-.4.2-.7.9-1.2.7.4-.4.6-1.2 1.2-1.2-.8 0-.3-.2-.6-.7-.3 1-1.4 2.5-2.7 2.9.3-1.2 1.8-1.1 1.6-2.1-.4-.1-.6.1-1 .2.2-.3.4-.7.8-.7-.2.3.5.2.6.1-.2-.5.4-.4.5-1.1-.3-.1-.4-.4-.4-.6.4 0 .6-.5 1-.6-.3-.4-.6-.2-1-.7.3-.6 1-.4 1.5-.4.2 1.1-1 2.1.1 2.2-.6.1-1.1.6-.6 1.3 1-.8.5-1.7 1.4-2.6-.4.3-.7-.6-.2-.5 0 .4.3-1.1.6-.8zm-3.8 3.1c-.1-.4.5-.9 1-.8-.1.3-.3.6-.4.9-.2-.2-.4-.2-.6-.1zm68.4-99.6c-.6.7-.5 3.6.6 4.2.1-1.7.5-3.7-.6-4.2zM106 375c1.5-1.2 2-.6 3.4-.6 3.8-4.3-3.2-5-3.4.6zm36.4-7.8c-.1 0-.1.1 0 0-.2.2-.3.4-.4.6-.3-.2-.1-.4.4-.6-.1.1-.1 0 0 0-2.2-.8-2-4.2-4.1-6.4-1.1.9-.9.3-2.2 0-2.3 4.5-2.1 8.4-1.6 12.3 3.7 1.4 6.1-2.6 8.9.5 3 .2 5.7-.6 8.7-.5 5.9-9.3-3.7-17.3.5-24.4-1.8-1.2-3.4-1.6-4.8-1.5.6 1.7 2 4.4.1 5.8.6.4 1 .9.9 1.4-.7 1.8-2.7 6-1.9 7.6-.6 2.8-3.4 3.4-4.5 5.2-.1 0 0 0 0 0zm-21.3 1c-.7-1.2-3.1.7-2.5-1-2.7 1.2-4.4.4-6.9 1.2.1 1.9.2 3.8.6 5.6.7-1.2 1.4-2.6 2.7-1.5-.3.3-1.1 2-.3 1.2 5.4-.9 10.3-2.3 15.2-1.9 0-1.5 1.6-5.7 0-6.6.8 1.1-1.8-.3-1.1 1.1-2.6-1.7-5.1.4-7.7 1.9zm53.8-42.9c.1 1.5-.9 3.9.6 4.2.2-.9 1-3.7-.6-4.2zm5 .4c-.2 1-1.3 3.4.6 4.2 0-1.6.9-4-.6-4.2zm-15-1.2c.1 1.7-.5 3.8 1.1 4.2.1-1.8-.3-3.2-1.1-4.2zm5 .4c.1 1.5-.9 3.9.6 4.2.6-1.4.8-2.9-.6-4.2zm20.6 1.5c-.9 1.4-1.7 2.9-.3 4.6 0-.6.8-.4 1-.9-.8 0 .2-2.7-.7-3.7zm-5.5-.4c-.1 1.2-.2 2.4-.3 3.7 1.9.7 1.5-3.4.3-3.7zm10 1.2c-.4.5-1.6 4.2.2 4.1 1.3-.5.7-1.4 1.2-3.6-.6 0-.6-.5-1.4-.5z"/><path class="st1" d="M73 315.8c1.9-2.1 3.6-4.8 5.7-7.3 1.3-1.5 4.5-5.9 6.1-4.5 1 .9-.4 3.5-1.1 5.2-2.3 5.5-5.2 10.8-7.3 16.2-1.3 3.5-1.9 7.1-3.2 10.6-1.4 3.6-2.4 7.1-3.8 10.7l-1.5 1.9c-.7.5-1.6 1.2-2.4 1.5-3.7 1.5-8 1.6-11.9-1.4-.6-.5-1.2-1.4-2-1.7-1.2-.6-3.6.3-5.2.2-1.9-.1-3.3-.8-4.6-1.4l-1.8-1.4c-2.7-2.7 0-6-1.1-8.7-.5-1.3-1.6-2.2-2.2-3.2-.7-1.2-1.4-2.8-1.3-4.2.2-3 4-7.8 7-9.5 1.3-.8 3-.8 4.5-1.5 3.6-1.6 7.4-4.9 11.3-8.2 4-3.4 8-7.1 11-10.8.9-1.1 1.4-2.5 2.7-3.1 2.5 1.5.6 4-.2 5.8-1.6 4.1-3.2 7.7-4.6 12.1-.6 1.7-1.8 4.7-.3 5.8 1.8 1 4.7-1.5 6.2-3.1zm-3.2-13.3c.7-1.3 1.9-2.8 1.2-4.1-1.6.3-2.5 2-3.6 3.3-3.5 4.1-7.3 8.2-10.6 11.4.8.4 3.3.6 2.6 1.9-.5.9-2.6-.2-3.2-.2-3.3-.1-4.8 2.8-7.9 4.9-.8.6-2.1.3-3.2.7-2.5.9-7 3.9-7.8 7-.7 2.9 3 4.7 3.8 7.6.7 2.2-1 4.3-.5 6.7.5 2 2.8 4.1 5.1 4.4 1.9.2 4.3-1.5 6-.8 2.2.8 2.8 2.6 4.2 3.6 2.9 2.2 7.3 1.8 9.5-.3 2.4-2.3 3.1-4.8 3.8-7.3.5-1.8 1.2-3.5 1.7-5.2 1-3.4 0-6.8 1.3-10.1.4-.2.9-.1 1.4.4.9-4.9 4.1-10.6 7.3-15.8 1.1-1.7 2.5-3.4 2.7-5.3-4.8 2.2-8.6 10.4-13.1 14.8-2.4 2.3-6.7-.6-7-3.5-.4-3.8 4.2-10.2 6.3-14.1zM54 338.3c1.7 1 4 1 5.7.9.5 0 1.1-.3 1.4.1-2.5 2.1-5.2 2.9-8.2.4-1.1 1.8.1 3.4.4 5-1.3-1.7-2.1-3.4-2.5-5.2-2.3.1-4.6-.3-7.1-2.5 2.2.4 4.5 1.6 6.5.4 0-2.5-1.2-5 .5-7.7.5.3.3 1.1.4 1.6.2 2 .4 5.4 2.9 7z"/><path d="M475.7 119.2c.6.5.9 1.5.5 2.4-.4-.1-.4.2-.7.2-2-.2-1.1-2.5.2-2.6zm-45.2 10.7c.4.7.4 2.5-.7 2.4-1.6 0-1.2-3.1.7-2.4z" fill="#fff" fill-rule="evenodd" clip-rule="evenodd"/></g></svg>