<svg xmlns="http://www.w3.org/2000/svg" viewBox="0 0 566.9 467.7"><style>.st0{fill-rule:evenodd;clip-rule:evenodd}.st0,.st1{fill:#ee7f00}</style><g id="woman_x5F_06_xA0_Image_1_"><path class="st0" d="M237.1 26.4c-2 .4-2.3-2.4-3.4-3.6-1.1-1.3-2.6-1.7-3.6-2.9-.6.1-1.7-.3-1.9.2 1.8-3.6 8.2 3.2 8.9 6.3zm-14.1-6c1.6.1 4.5 1 4.8 3.1-.3.4-.9.4-1.2.7-1.3-1.1-1.6-3.3-3.6-3.8zm-3.9 4.4c4.7 1 11.2 6.3 12 11 .5 3.2-1.6 9.9-3.4 11.8-.4.1-.5-.2-.2-.2 2.2-3.7 2.8-8.5 1.2-12.5-1.8-4.5-6.7-7.3-9.6-10.1zm-1.7 2.4c-1 1.9-3.2-.2-5.3-.5-1.8-.2-3.6.4-5.3-.2 2.6-2.1 8.5-.7 10.6.7zm38 2.4c-.8 1.6-3.4.8-4.8 1-4.4.5-7.5 3.3-10.3 5.3-.4-1.2 2.5-2.9 4.1-3.8 2.9-1.9 6.4-3 11-2.5zm-5.3 5.5c-3.6.7-7 1.5-9.4 3.4.7-2.5 6.1-4.3 9.4-3.4z"/><path class="st0" d="M225.1 52.4c-2.2-8.7-11.4-13.1-22.3-10.3 1.3-1.5 4.6-1.7 7.2-1.9 7.3-.5 12.7 3.8 15.4 7.9.9-6.9-5.8-11.8-13.4-12.2 6.5-3.5 20 6.9 13.7 13.4-.1 1.2 0 2.4-.6 3.1zm32.4-12c-1.6.3-4.3-.4-6.7-.7-.4-.1-1.2-.4-.2-.5 1.7-.1 4.5.9 6.9 1.2zm-10.1 1.2c-1.2 1.6-3.7.1-5.5.2-2.1.1-3.3 1.5-4.8 1.2 1.8-2.4 6.8-2 10.3-1.4zm-4.8 12c-4.3 1.2-7.6-3.9-10.8-4.6 5-.8 7.4 3.1 10.8 4.6zm14.7 39.8c-2.8.8-5.3-.2-8.9 0-4.1.2-7.9 1.1-11 2.4-2.9 1.2-5.5 4.4-9.4 3.6.1-3.8 6.2-6 11-7.2 6.5-1.6 13.6-1.2 18.3 1.2z"/><path class="st0" d="M251.3 97.7c.9.2 1.1-.3 1.9-.2.1.4-.2.4-.2.7 1.1.2 1.4-.3 2.4-.2-.1.3-.4.4-.5.7 1.1-.1 1.9-.4 3.1-.2-4.5 5.1-11.8 7.4-21.1 7.7 1.1-1.6 5-.5 6.7-1.4-1.8-.6-3.3-1.5-3.1-4.1-2.9.8-3.4 4.1-6.5 4.8 2.9-5.2 8.5-10.8 16.8-8.4.9-.1-.1.3.5.6zm-4.3 6c1.8-.9 4.4-1.1 5.3-2.9-1.3-.5-2.1-1.4-3.8-1.4.7 1.8-1.2 3.7-1.5 4.3zm-5.1-2.4c1.1-.3.9.7 1.9.5.1-.6.3-1.1.2-1.9-.9-.6-2.6-.3-2.1 1.4zm206.2-4.8c0 .6 0 1.2.5 1.2-1 1.8-3.3 3.5-6 2.9.3-2.9 2.6-3.7 5.5-4.1zm-232.8 6c-4-.8-7.8-2.2-12-2.2-4.9.1-7.5 3.5-11.3 4.6.8-3.6 6.1-7 12-7.2 4.6-.1 10.8.6 11.3 4.8zm220.5 1c-1.2 3.2-4.1 3.1-8.2 2.9-29.4-1.3-52.6 7.5-73.7 16.1-5.4 2.2-9.9 4.8-14.9 7.4-1.2.6-3.4 2.3-4.8.7.7-1.4 2.6-1.9 3.8-2.6 9.9-5.5 21.5-10.3 33.4-14.4 18.7-6.5 38.8-12.7 64.4-10.1zm-222.9 4.1c-.9-.1-1.2-.8-1.9-1-.3 1.9-.7 3.8-2.2 4.6 1 .3 2.8-.7 4.3-.7-3.6 2-12.9 3.3-16.1 0-1.7-.1-3.7 0-3.6-1.9 2.6.5 2.5-1.8 5-1.4 0-.2-.3-.2-.5-.2.4-1 2.6 0 2.2-1.2 3.5-1.4 11.8-2.3 12.8 1.8zm-8.4.4c.3.3 1 .2 1.7.2.4-.8.5-1.2.2-2.2-1.6-.2-2.1.6-1.9 2zm-5.8 2c.8 1.6 4.3 1.9 6.5 1.4-1.4-.7-2.5-1.9-2.2-4.3-1.8.5-2.3 2.5-4.3 2.9zm247.5-4.6c-.8 1.7-3.1 3.3-5.3 2.9.9-1.8 2.7-2.8 5.3-2.9zm-219.6.2c.2.1.4.3.7.2.5 2.2.3 5.7-.2 7.7-.5-2.3-.6-5-.5-7.9z"/><path class="st0" d="M219.4 106.1c4.7 6.5-.5 16.9 0 25.7.4-.4 1 .9 1.4 1.7 4 3 9.6.3 11.3-3.1 1.9.5 3.2-1.6 5.8-1.2 2.4-1.8-.1-5.2-1.4-6.2 1-.2 1.4.2 2.2.2 5.1 4.4-2.8 8.8-6.2 8.2-1.8 3.7-10.3 5.6-13.4 1.7-3.9.9-5.3-2.6-3.4-4.8.9 1.2 0 4.1 2.4 3.8 0-7.9 3.3-18 1.3-26zm25.4 1.7c-.8 1.5-3.3.7-5 .7.7-1.4 3.4.1 5-.7zm289 1c-1.1 2.6-3.5 3.9-6.7 4.3-.5-3.2 3-4.5 6.7-4.3zm-21.9 1.4c-1.1 2.5-3.6 3.6-6.7 4.1.1-2.6 3.6-3.7 6.7-4.1zm-90 1.7c-1.2 2-3.2 3.2-6.5 3.1.5-2.6 3.6-3.8 6.5-3.1zm-26.1 2.6c-.6 2.4-2.8 3.1-5.3 3.6-2.5-2.6 3.6-5.9 5.3-3.6zm-187.7-.7c-.7 1.2-2.7 1.1-4.3 1.4.7-1.1 2.9-.9 4.3-1.4zm121.7 1.9c1.3.3 1.2 2.2 1.9 3.1-.5 1.5-2.7 2.5-4.1 2.4-.9-.7-1.1-2.3-1.7-3.4.9-1.1 2.3-1.7 3.9-2.1zm169.4 6.7c.5 2.8-3.3 5.5-6 4.3.7-2.7 2.8-4 6-4.3zm-182.6.8c.1 2.1-.7 3.3-.5 5.5-1.2.9-2.2 2-4.3 1.9-.4-4.4.7-7.4 4.8-7.4zm235.9.7c-.9 1.7-3.1 3.2-5.3 2.9.8-1.9 2.6-2.9 5.3-2.9zm-24.3 7.4c-.5 1.2.2.8 1 1.2-1 2-3.9 3.5-7 2.6.8-2.5 3-3.5 6-3.8zm-273.6 2.2c2.4-.2 4.5 3.4 2.4 4.8-.2-2.2-1.3-3.4-2.4-4.8zm161.8.2c-.7 2-2.6 2.8-5 3.1.5-2.2 2.6-2.8 5-3.1zm-18.5 1c-.6 2-3.1 3.3-5.3 2.9 1.1-1.7 2.8-2.7 5.3-2.9zM251 136.8c-2.4 9.3-8.3 18.6-19.4 19.2-10.3.6-14.8-7.9-18.5-14.4 3 .9 5.2-.7 7.9-1 2.3-.3 4.8.1 7.2-.2 2.2-.3 4.3-1.5 6.5-1.7 4.4-.4 8.9.3 12.5-.2 1.5-.2 2.4-1.2 3.8-1.7zm-19.4 3.6c-2.2.5-3.8 1.8-6 1.9-2.5.2-5.3-1-7.7.5 8.6 1.5 19 0 25.9-2.4-4.5.1-8.4-.9-12.2 0zm-12 4.4c4.2 7.3 24.8 5 26.2-3.1-7.9 1.7-16.3 4.2-26.2 3.1zm16.1 5.2c-6.3 1.4-13.6-.2-17-2.6 2.2 3.5 5.5 6.5 9.8 7.2 9.1 1.6 18-6.4 19.9-13-2.8 3.1-7.4 7.3-12.7 8.4zm-25-11.5c-.7 1.5-1 3.3-1.2 5.3-1.5-1-.8-5.5 1.2-5.3zm181.2.7c-1 2.2-3.7 3.9-6.5 3.6 1.1-2.1 3.9-3.8 6.5-3.6zm69.6-.2c-.7 2.7-3.5 4.7-6.7 4.1 1.4-2.2 3.4-3.9 6.7-4.1zm-50.6 1c-.8 2-2.7 2.9-5.3 3.1.7-2.1 2.7-2.9 5.3-3.1zm104.1 3.1c-1.1 2.7-4.7 3.7-8.2 2.6.9-2.8 5-3.7 8.2-2.6zm-83-.3c-1.1 2.3-4.7 4.3-7.7 3.1 1-2.8 4.3-3.2 7.7-3.1zm134.6 0c-1.1 2.9-3.3 4.6-6.7 5 .9-2.9 3.2-4.6 6.7-5zm-25.2.5c-1.1 2.9-4.4 3.6-8.4 3.6 1.3-2.8 4.6-3.4 8.4-3.6zm-30.2 9.4c-.9 2.8-3.1 4.3-6.7 4.3 1-2.7 3.3-4 6.7-4.3zm-16.1.7c-1.4 2.7-4 4.3-8.2 4.3.7-2.5 4.3-4.2 8.2-4.3zm68.4 10.3c-1.4 3-4.8 4-8.4 4.8 1.7-2.7 4.7-4.1 8.4-4.8zm-24 2.7c-.9 1.7-3.1 3.3-5.3 2.9.9-1.9 2.6-2.9 5.3-2.9zm-16.3 1.2c-.7 2.1-2.7 2.9-5.3 3.1.8-2.1 2.7-2.9 5.3-3.1zm-402.5 1.6c.4 2.6 4.9 9.3 5.5 12.2.1.7-.2 1.4 0 1.9.7 2.6 3.5 6.1-.5 7.2-3.6-4.6-4.3-12.2-7.4-17.3.6-1.5 1.7-2.5 2.4-4zm176.9 11.1c0 1.3-.8 1.9 0 2.9-.7 1.6-2.3 2.4-4.3 2.6-1.6-3.2 1.4-5.3 4.3-5.5zm-184.3.7c.2 2.9 9.5 13 2.9 14.4-1.9-3-3-6.7-5-9.6 1.1-1.6 1.3-3.3 2.1-4.8zm174.7 1.4c-2.5 3.9-4 8.8-9.4 9.8.3-1.6 1.6-2.9 2.6-4.3 1.8-2.5 2.8-5.3 6.8-5.5zm-179.8 7.2c.9 1.5 1.9 4.6 3.4 7 1.3 2.1 3.8 3.9 0 5.5-3.3-1.5-3.9-5.7-5.5-8.9.5-1.4 1.6-2.2 2.1-3.6zm166.6.8c-.5 2.4-2.3 3.5-4.8 3.8-.2-2.2 2.3-3.6 4.8-3.8zm16.6 3.3c-.3 2.9-1.6 4.8-4.8 4.8-.3-.7-.3-1.7-.2-2.6 1.3-1 2.5-2.2 5-2.2zm-18.5 11.5c-1.1 2.6-2.2 5.4-5.8 5.5.2-3.5 2.6-4.9 5.8-5.5zm-11.3.8c-1.9 2-2.8 5-6.5 5.3.1-2.8 2.8-6.2 6.5-5.3zM366 241.7c-1.5 3.6-6 4.2-9.4 6-7.7 4.1-15.5 10.7-22.3 16.1-1.8 1.4-4.6 5.1-7.4 4.8-1.2-.1-6.9-4-6.7-5.8.2-2 3-2.4 5-3.1 8.3-7.1 16.3-14.6 26.2-20.2-.3-1.1-2 .5-2.4-.7.3-2.4 2.9-3.8 4.6-3.8 3.6-.1 7.4 6.5 12.4 6.7zm-12-.5c-5.5 1.2-9.5 5.4-13.7 8.6-3.5 2.8-6.9 5.7-9.6 8.2-.2.7-.6 1.2-.7 1.9-1.2.5-2 1.4-3.4 1.7.8 1.2 2 1.9 3.4 2.4 9.5-6.7 18.2-14.3 29-19.7-2-.6-3.3-2-5-3.1zm-68.2 47.6c-1.9 1.2-3.5 4-6.5 3.4.4-3.4 2.9-4.8 5.8-5.8 1.3-3.5 8.6-5.3 8.9-1 .2 2.8-2.8 4.7-6.2 4.8-1.2 0-.5-1.8-2-1.4zm60.3 35.2c.2 3.5-1 5.7-3.1 7-1.2-1.3-3.4-.4-5.5-1 .1-3.1 1.5-4.9 4.6-5 .5-1.3 2.7-2.4 4-1zm69.8 35.8c-.4 2.2-1.4 3.7-3.1 4.6-12.2-5.5-23.7-13.1-40.8-13 .1-4.9 3.6-5.4 8.9-5 12.8.9 26 8.8 35 13.4zm-40.8 1.4c4 .1 8.4 1.4 12.5 2.6 4 1.2 8.3 1.9 11.5 3.4 4.4 2 7.5 6.1 11.5 8.2-.5 2.1-2.1 3.2-3.6 4.3-10-6.4-19.6-13.4-31.4-18-.4.1-.5-.2-.5-.5z"/><path class="st0" d="M36 505.2c-2.7-21-1.2-46.2-1.9-69.1-7-2.9-12.5-6.2-17.3-11.5-4.2-4.6-9.3-11.4-9.8-19-1.2-16.1 5-27.3 11.5-35.5 3.8-4.8 8.4-10.5 12.7-15.4 1.3-1.5 3.9-3.5 4.3-5 .6-2.2 0-5.7 0-8.6 0-20.7.2-40.6-.2-60.5-1.7 5.4-12.7 12.2-14.2 2.4-.7-4.8 1.8-7.2 4.1-10.6 3.1-4.5 3.6-7.8 8.9-8.2 2.4-3.6 1.2-9.7 1.4-16.3.3-7.2.3-13.3 1-19.2 1.3-1.7 5.6-4.5 7-1.2-.6.7-1.3 1.2-1.7 2.2-2.1 5.5.1 15.5-.7 22.6 9.5-9 13.9-23.1 21.6-33.8-7.3-8.2 1-18.6 4.1-24.7 1.6 1.5 2.3-.5 3.6-1.2-4-2.7-8.9-5-12.5-8.4-3-2.8-6.3-7.7-2.4-10.3.8.8 2.2 1.7 3.6 2.4 1.2.6 3.1 2.3 3.8 1 .6-1.3-1.8-1.7-2.4-2.6-1.4-.8-3.1-1.2-4.1-2.4 1-1.6 1.8-3.3 2.9-4.8 2.2 1.2 5.2 3.8 7.2 3.6 1.1-1.6-1.3-2.2-2.4-2.9-1.4-.9-3.1-1.6-3.6-2.9.7-1.1 1.1-2.6 2.4-3.1 2.2.3 5.8 4.1 6.7 2.6 1.2-1.8-3.7-3.2-5.5-4.8.7-1.6 1.3-3.3 2.6-4.3 2.2.7 4.5 3.7 6.5 3.1.2-2.9-4.2-3.1-5.8-5 .8-1.6 1.5-3.2 2.4-4.6 1.4.6 6.3 4.9 7.2 2.9.5-1.1-2.1-2.2-3.4-2.9-1.8-1-3.2-1.5-3.8-3.1 1.3-1.1 2.8-2 3.8-3.4 1.9 1.1 5 3.6 6.5 3.4.7-3-4.2-3.4-5.5-5.8.7-1.2 1.3-2.6 2.2-3.6 1.6.8 5.4 4.9 7 2.6-.6-2.1-4.5-2.8-5.8-5 .9-2 2.4-4.5 4.3-7 1.5-2 3.2-5.5 5-6.2 4-1.5 7 2.1 10.3 3.4-1 3.4-6.9 8.2-2.2 10.8 2-2.9 3.8-6 6.5-8.2 1.1 1.5 3.5 1 3.6 2.6 0 .4-1.9 2-2.4 2.9-1 1.8-2.8 5.8-2.4 6.2 1.7 1.6 3-2.7 3.6-3.8 1.2-2 1.8-3.3 3.4-4.3 1.2.8 2.9 1.1 3.8 2.2-2.1 2.8-2.9 6.9-5 9.6 1 .2 1.3.9 2.4 1 1.1-3.3 2.3-7.1 5.3-9.6 1.2.6 2.6 1.1 3.4 2.2-2.1 2.8-2.7 7.1-4.3 10.3 4.7.1 3.7-7.9 7.2-8.6 1.2-.3 3.5 1 4.6 1.7 3 1.9 5.7 3.7 5.3 8.9-1.7 2.2-3.1 4.7-4.6 7.2 2.5 3.3 4.2 7.8 5.3 12.2 1.7 7.3 3.8 14.8 6.2 21.1.9 2.2 1.3 4.8 2.9 6.5.5-6.1 1.7-12.4 4.6-16.6.9-1.3 2.9-2.5 4.3-3.6 1.6-1.2 3.5-2.7 5.5-1.4-2.1 8.3-.8 16.8.5 25.2.7 4.5.9 9.6 1.9 13.4.2.7.7 1.2.7 1.9.1 3.4-2.7 5.7-3.8 8.4 8.1 9.9 14.4 21.6 21.6 32.4.9-.2 1.1.3 1.9.2 5.9 3.6 11.6 6.8 16.8 11 3.9 3.1 7.4 6.8 10.8 10.1 1.1 1 2.1 3.3 4.1 2.6.8-5.5-1.9-11.4-.7-17 .2-.9 1.2-1.9 1.4-2.9.8-4 0-8.8 0-13 0-4.4 0-8.5.2-13 1.6-4.4 2.4-8.1 4.8-11.5 5.5-7.7 12.1-15 19.2-21.6 1.2-1.1 3.7-3.2 3.8-4.3.2-1.9-2.3-4-1.9-5.8 1.2-1.3.9-3.1 1.4-4.6 1-2.6 3.3-3.4 5-5-.5-2-1.2-3.8-1.9-5.5-3.8.7-8.4 1.8-12.7 0-8.8-3.6-12.4-13.6-19-20.9-2.6-2.9-5-5.4-7.7-8.4-2.5-2.8-6-6.1-7.4-8.9-2.3-4.4-2.2-10.3-2.9-16.3-.8-7.5-1.4-15.1-3.8-20.9-.3 1.3-1 2.2-2.6 2.2.6-3.2 3.4-4.9 1.7-8.4-2.4 1.4-1 7.8-4.3 7.4-.4-2 .9-3.7.7-4.8-2.2 2.4-2.3 8.2-5.8 8.6.8-3.3 3.1-6.4 3.8-8.9-.5.3-1.7 1.1-2.2.7 2.2-2.5 4.5-6.3 6.7-7.9-1.3 2-3.2 4.6-3.6 6.7 2.5-2.7 3.3-6.7 7.2-7.4-.7 7.4 1.8 12.5 3.1 18 1.8 7.3.7 14.2 1.9 21.4 1.3 7.9 6.4 12.7 11 18.2 2.9 3.5 6 7.1 8.9 10.6 3 3.7 5.1 8.5 8.2 11.5 2.2 2.1 6.2 5.1 9.1 5.5 4.5.6 8.8-.9 11.8-1.2 6.9-3.6 11.4-9.7 16.1-15.8 6.2-8.1 13.7-14.3 15.6-27.1.7-4.5.7-10.7 3.4-13 .7.8.5.4 1.7.2.4 5.6 5.6 2.3 5.8-1.7.1-2.3-2.2-5.2.5-5.5.6.5.4 1.8 1.2 2.2 1.5-5.5 2.4-14.7 1-20.9-2.2 1.3-4.2 3-4.6 5.8-.5 4.1 3.4 9.3.5 12.2-.4-2.6-1.3-4.7-1.7-7.4-1.8.5-1.5-1.5-2.4-2.4-.2-1.4.5-1.9.7-2.9-1.1-3.1-2.5-6.4-4.1-9.6-1.5-3.2-2.6-7.1-4.6-9.4-1.2-1.3-3.4-2.5-5-3.4-1.7-1-3.9-1.4-4.8-3.1 2.9-.1 5.7 3.2 8.2 3.6-2-3.1-4.8-4.9-8.6-6-1.6-.4-3.5-.5-4.8-1.7 3.6-.5 7.7 1.9 10.3 2.4-3.1-5.1-12.2-4.2-18-6.7 3.7-.8 9 2 12.7 1.9-2.9-1.6-6.5-3.7-9.6-4.3.5.1 1.9.6 1.4 1-2.9 0-5.6-1.7-8.6-2.4-5.6-1.2-12.4-.3-14.2-5.5 3.2 1.7 7.3 3.9 12.2 4.3 4.2.3 8.3.5 11.8 1.7 1.6.5 2.5 1.9 4.1 1.7-5.9-5.8-14.8-8.6-22.3-12.7 2.1.5 3.6.1 5-.7 4.9 1.3 7.8 4.7 13.4 5.3.7.8 1.3 1.6 2.2 2.2-1 .2-1.9-1.2-2.6-.5 12.4 7.4 18.7 20.8 25.7 33.6 1.2-3.5.1-5.7-1-8.6-.4-.3-1.3-.2-1.4-.7-2.2-5.8-4.9-11.1-8.2-15.8-.7.1-1.1.5-1.7.7-2-3.5-6.4-5.9-8.2-8.9 11.1 5.7 16.8 16.8 21.4 29 .9-5.2.7-11.6-1.9-14.6.4 2.3 1.9 4.8 1.7 7-.8.1-1.2.6-2.2.5-.6-6-4.3-10.5-6.7-14.4-2.2-3.7-4.5-6.7-7.9-8.6 4.7-1.7 6.3 5.5 10.1 6.7 1.1 2.5 3.1 4.1 5.3 5.5-1.9-4.8-5.8-7.7-8.9-11.3-.8 0-.8.6-1.7.5-2.5-3.1-6.2-5-9.8-7-.5.2-.6 1-1.7 1.2-4.5-3-13.8-1.2-19.4-3.1 6-.7 13.6.2 18.5.7-2-1.8-7.2-.9-8.6-3.1 1.1-1.2 3.2-.3 4.6 0 5 1.1 9.5 3 13 5 .8.2.9-.4 1.7-.2 1.5 1.5 3.6 2.3 5.3 3.6 1.6 1.2 2.9 3.5 5 3.4-1-3.6-5.8-5.4-8.9-7.7-.2-.6 1.2-1.1 0-1.2-4.4-2.1-8-5-12.2-7.2-4.5-.3-9.3-.4-13 .7 1.9-1.8 5.7-1.6 9.4-1.7.5-.2-1.4-.7-.5-1.4 9.4 0 16.9 5.1 21.8 10.1.6.6 1.2 1.9 2.2 1.7-.9-3.1-1.9-6.4-3.6-8.6-.5-.7-1.9-2.1-2.6-2.6-.8-.5-1.9-.4-2.6-1-.9-.7-1.2-2-2.2-2.6-1.5-1-3.6-.7-5-1.9h3.4c-1.6-4.4-10-6.1-16.1-4.6 2.1-1.3 6.5-1.5 9.6-1 .6-.5-.7-1.2-1.2-1.7-2.8-2.2-6.7-1.4-9.6-.5 1.1-1.3 3.5-1.3 5.3-1.9-2.6-1.5-6.9-1.2-9.8 0 1.2 2.2 1.4 5.4.2 7.9 1.2-.5 2-1.4 3.4-1.7-3.2 1.6-3.6 6.2-7 7.4 2.6-3.4 3.9-8.7 2.2-13.7-.7-.5-2.3-.1-2.9-.7-.5 1.1 3.8 3.8 2.2 6-1.2-.9-1.1-3-2.9-2.2-.6-2-1.7-3.4-2.9-4.8-1.2.6-2-.5-3.1-.7-4.3-.7-8.8 1.2-11.8 2.4.9.6 2.8.1 3.1 1.2-1.6.7-2.9-.5-4.6-.5-1.1.6-2.2 1.3-3.6 1.7-1 .2-.7-.7-1.7-.5-4.6 1.4-8.5 3.7-11.5 6.5-1 .9-3.8 3.3-3.1 3.4 4.1.7 8.7-4.3 14.2-2.2-1.3 1.5-2.7.2-4.3.2-4.1.1-13.4 4.5-14.4 7.4-.2.5.4.7.2 1.2-.4 1.5-2.7 3.1-2.6 4.3 3-2.4 6.4-5.7 10.3-6.5-4.1 1.9-7.6 6.9-11 7.9-.4 3.6-4.1 5-4.3 7.9 2.5-2.1 5.4-4.1 8.4-5.8 2.9-1.6 6.2-3.7 9.8-3.8-3.6 4.5-10.3 5.7-14.6 9.6-1.2 1.1-2.3 2.8-3.1 4.3 2.8-1.6 5.7-4.7 9.4-7.2 5.5-3.7 22.5-6.3 26.6-.7 1.5 2 1.3 4.2 2.2 6.2-1.9 2.5-5.8 1.5-9.1.7-.1.9 1.3.3 1.4 1-9.7.4-15.7 6.1-19.9 12.2-3 4.4-6.2 8.8-9.1 13-1.1 1.6-1.6 3.5-2.6 4.8-.5.7-1.5 1-2.2 1.7-1.7 1.6-4.2 4.5-5 6.5-.3.7 0 1.5-.2 2.2-.4 1.2-1.1 2-1.4 3.4-.5 2.1-.9 4.8-.7 7.4-.8.2-1 1-2.2 1-.2-9.1 2.7-15 7-19.7.6-4.1 4.4-5.7 4.1-10.1-2.4 1.6-2.7 6.4-7 5.3 1.1-1.7.6-5 1.7-6.7.2.6-.7 1.3 0 1.7.3-1 .6-1.9.5-3.4l3.6-6c8.8-8 16.7-17.1 31.9-18.7-1.5-1.2-5.1-1.2-7.7-1-11.1 1.1-20.1 8.1-24.7 15.4-.1 1.3-.1 1.5-.2 2.4-2.2 1.4-3.8 3.4-5 5.8-.3-2.2.9-3.1-.7-3.6.2-5.2 2.6-8.3 4.1-12.2-.7 0-1.6.1-1.4-.7.7-6.6 4.5-10 7-14.9-.1-.8-.6.8-.7 0 5.7-8.4 11.9-16.7 22.3-20.9 3.3-1.3 7-2.7 10.8-3.8 3.8-1.1 7.6-3 11.3-3.4 2.9-.3 6.4.4 8.2.7.9.2 2.2 0 3.4.2 1.6.4 2.6 1.3 3.6 1.2 1.3-.1 2-1.1 3.1-1.2 4.5-.5 9 1.2 11.8 2.9 3.1 1.8 8.2 6.7 10.3 9.1 1 1.2 1.6 2.9 2.9 3.8.8.6 1.8.5 2.4 1 6.9 4.5 5.7 16.1 10.6 22.6-2 2 .7 4.5 0 7.9 3.2 4.9 7.3 8.9 9.6 14.6-.5.2-1 .5-1.4.7-2.7-2.7-4.2-6.6-7-9.4.2 1 .6 1.6.5 2.9 3.8 4.5 7.3 9.3 9.4 15.6-.5.5-1.5.6-2.2 1-1.4-3.2-3.4-7.1-5.3-9.8-.6-.9-1.4-2.4-2.2-2.2 0 2.5-1.1 5.1-1 7 7.8-1.2 6 11.6 5.3 19.7-.4 4.5-2.9 8.1-3.4 11.3-.5 3.4 2.8 9.5-1 11.3-.1-3-.4-5.9-1.2-8.2-.9 2.6-3.5 5.6-7.2 3.8 1.6 7.8 3.5 15.2 4.8 23.3 1.6-.9 2.6-2.5 3.8-3.8 4.2-4.5 8.3-8.1 13-12 5.9-5 11.6-10.5 18.5-14.6 10.3-6.2 22-11.1 36.2-13.4 4.7-.8 9.1-2.6 13.9-2.9 4.4-.3 8-.1 11-1.4.4.8-1.1 1.2 0 1.2 17.6-5.2 36.9-9.6 57.8-8.6 15.3.7 28.9 1.4 43.2 3.1 12 1.5 23.7 3.8 36 4.3 17.1.8 33.8.7 49.7-2.4v2.6c-41.8 9.3-85-2.5-125.8-4.3-27.9-1.3-52.2 3.5-71.8 12-14.8 6.4-27.1 15.5-39.8 24-4.5 7.1-15 8.2-20.2 14.6 1.8.5 1.8-.3 2.9-1 3-.8 5.8-1.9 9.8-1.7-.7.9-2.2 1-3.4 1.4 4.6-2.3 16.3.3 17.8-6 14.4-8.7 33.8-11.8 53.8-15.4 19.5-3.4 40-7.2 60.7-8.2 5.6-.3 12.1-.6 18-.2.8 0 1.8.4 2.6.2 2.3-.4 4.5-3.8 7.4-1.2-.2 1.7-1.9 2.2-3.4 2.9-1.3.6-2.8 1.7-4.1 1.9-1.6.2-3.3-.4-5-.5-28.2-1.4-52.9 3.5-77.3 7.9-18.7 3.4-37.1 5.8-51.1 13.9 1.2 1.9 3.5 2.8 6.7 2.6.7-.9-.7.3-.7-.7 4.2-4 10.6-5.7 17.3-7.2 1.2.2-.1 1.1-.2 1.4 19.1-2.5 37.6-7 58.8-7.9 24.2-1.1 45 5.7 62.9 12 1.7-.9 3-2.2 6-1.9.4 1.4-1.7 2.1-2.6 2.9 1.9.7 3.8 1.3 5.8 1.9-2.3 4.8-6.8 2.7-12 1-20.5-7-41.7-13.6-70.3-12.2-9.9.5-19.2 2.2-28.3 3.8-10.3 1.8-20.1 3.7-31.2 4.8-.6.8-1.3 2.1-2.6 2.9 19.2 1.2 35.7 5.8 53.5 8.9 2.1.4 4.6.9 7 1.7 2.1.7 4.7 2.3 6.2 2.2 1.3-.1 2.2-1.3 3.1-1.7 2.7-1.1 6-1.5 8.9-1.7 23.7-1.6 46.5 4.7 64.3 12 .8.5 1.1-.1 1.9-.2 4 3.3 10.1 5.2 16.1 7.7 16.1 6.6 35.3 13.1 58.3 11.5v2.9c-16.6 1.6-32-.6-45.1-4.3-4.1-1.1-7.8-3.1-12-4.3-2.4-.7-5-.6-7.4-1.2-4.3-1.1-6.9-4.5-10.6-6.5-2.3-1.2-5.4-2.1-8.2-3.1-18.3-7-40.1-13.9-66.2-10.1 5.5 1.1 10.9 2.8 16.1 4.8 10.2 4.1 21.1 6.2 30.7 10.8 2.3 1.1 4.6 2.3 7 3.4 2.3 1 4.6 2.6 7.2 2.6.4 2.4 3 3.7 3.8 6 1 2.6 1.3 6.2 1.9 9.4 1.9 9 3.3 19.2 5 28.1-1.2 3.5 0 7.2.2 10.6.8 13.4-3.1 26-2.2 40.1-3.3 2.3-1.6 9.6-2.2 14.4 7.6 1.3 12.3 6.3 13.9 15.1.3 1.8 1 3.5 1 4.8-.4 8.8-11.1 10.2-18.5 12.7-2.1 8.5-4.1 17.2-7.7 24.2 2.3 4.6.9 12.3 2.2 18 .4 1.7 2.3 3 2.4 4.6.1 1.1-.7 3.4-1 4.8-.9 4.3-.7 10.4-1.7 15.1-1.4 6.9-5.1 13.3-9.1 18.2-.6.7-2 1.4-1.7 2.6 6.7 1.5 14.3 5.9 17.3 11.5 3.3 6.3 2 16.3-3.4 19.2-2.4 1.3-5 1.5-8.2 2.4-.4-.9.8-2.2-.2-2.2-4.3 1.5-8 3.5-13.9 3.4 5.1 22.3 11.4 43.4 16.1 66h-4.8c-4.6-22.3-11-42.9-15.8-65-10.2 4.3-26.5 2.6-39.4 4.3 1.6 19.8 1.8 40.9 3.4 60.7h-4.1c-1.5-19.8-1.9-40.7-3.4-60.5-11.3-.3-21.1.8-32.4.5-3.7 17.2-4.6 38.5-3.6 60h-4.1c-.2-14.9-.8-31.1 1.7-44.9.9-5 2.9-10 1.4-14.6-8.1-.8-19.8 2-20.4-6.2-5.9.7-8.6 6.6-14.6 7.9-3.1 3.2-7.6 4.3-11.8 6.7-2.2 1.3-3.2 2.5-6 3.4-1 .3-1.7 1.5-2.6 1.9-.6.3-1.5.2-2.2.5-4.3 1.5-8.6 4.7-13 7-12.7 6.7-23.5 16.6-35.5 23.5-.3-1.1-.1-2.6-.7-3.4 8.8-5.3 16.9-11.3 25.2-17.3s17.5-10.5 27.1-15.1c1-.5 1.7-1.2 2.6-1.9.8.1 1-.4 1.9-.2 2.8-2.5 6.3-3.8 9.6-5.5 6.7-3.4 12.5-8.7 19.4-12 4.6-.5 7.3-3 11.3-4.1-9.1-.1-16.9-1.7-23.5-4.3 1.8-1.1 2.3-3.5 4.1-4.6 2.7.3 5.2 1.9 8.2 2.6 9.2 2.2 21.1-.1 31.2 1.4 6.5-1.7 14.7.2 22.8-.2 7-.4 14.5-2.3 21.8-3.8 7.6-1.6 14.7-3.5 19.7-6 3-1.5 5.7-3.6 7.9-6.2.2-3.5 2.4-6.2 6-5.5 4.9-5.2 8.6-12.7 10.6-21.6.6-2.8 1.6-5.9 1.9-8.6.5-5-.6-10.4-1-15.4-.4-4.6-.2-9-1.7-13-2 .6-2.7 2.7-4.6 3.8-1.5 1-3.3 1.2-5 1.9-2.8 1.2-5.2 3.3-8.4 3.6-2.9.3-5.9.2-8.9.2-2.9 0-6.3-.6-9.6-1.4-4.9-1.2-8.6-1.8-12-4.1-.9-.6-2-1.1-2.9-1.7-2.9-1.9-5.4-5.5-9.1-7-6.7-2.7-17.3-.2-25-3.4 1.9-3.7 6.6-3.3 11.3-3.8 3.3-.4 7.3-2 10.8-1-7.3-2.6-16.5-1.8-25-3.1-1.3-1.2-3-4.5-.2-5.8 3-1.4 10.8 0 15.4-.2 8.7-.4 17.8-1 20.6 2.6 2.3.2 3.7 1.3 5.8 1.7-2.8-6.8-8.8-10-16.1-13.4-1.1-.5-2.2-1.4-3.4-1.9-1.4-.6-3.3-.4-4.8-1-2.2-.8-3.4-2.4-6.5-3.6-2-.8-6-2-6.2-3.6-.6-3.5 7.6-4.9 10.6-4.1 1.6.5 3.2 1.2 5 1.7 1.7.4 3.6.7 5.3 1.2 3.4 1 6 3 8.9 4.1 3.5 1.3 6.9 1.7 9.6 3.4-1-4.9-6.5-6.3-10.6-10.1-1.3-1.2-2.2-2.7-3.6-4.1-2.8-2.9-5.1-5.9-1-9.1 3.5-.7 5.4 1.6 7.4 2.6 2.4 1.3 4.3 2.1 6.2 3.8 4.2 3.8 9.2 8.1 15.6 10.1 2.2 2.7 5.2 4.6 7.2 7.4.6-.7.1-2.5.2-3.6-2.6-2.2-6.9-4.5-7.4-8.6-.6-4.1 2.4-7.2 5-9.4 3-4.1-.9-10.1-3.4-14.4-7.6-13.2-16.1-24.9-25.2-36.2-6.6-8.3-13.2-18-22.3-23.8-2.7.8-4.8-1.6-7-1.9-1.3-.2-2.9.1-4.3 0-3.6-.2-7.3-1.5-10.8-1.7-4.5-.3-9 .5-13.7-.5-.4-1.1-.7-2.2-1-3.4 6.8.9 12.9 0 19 .5 2.4.2 4.8 1.8 7.4 2.2 3.1.5 6.6.5 9.1-.5 3.2.7 6.6-.2 11.3 0 2.6.1 5.5.7 8.2 1.2 2.6.5 6.6 1.5 8.4 1 1.2-.4 2-2.8 3.6-3.4 2.8-1 4.9-.1 7.9-.5 1.1-4.4.5-10.5 5-11.5.1 3.4-1.1 7.6-1.4 11.3 1.1 1 3 1.2 4.1 2.2 2.9-3 5-6.9 9.4-8.4.2 4.8-5.1 6.1-7 9.6 2.6 18 7.4 33.7 9.8 51.8.1.9-.1 1.5-.5 1.9 9.9-.9 20.7-.7 28.1 2.2 1.7-1.4 1-3.7 1.2-5.5 1.3-11.8 4.6-23.7 4.1-36.2-.5-11.7-3.4-21.6-5.3-32.2-.8-4.3-1.2-8.6-2.9-12.2-.8-.4-1.6.8-3.1.5-.3-.9.6-.7.5-1.4-8.8-4.2-17.9-8.9-28.1-12.2-5-1.6-10.2-2.9-15.4-4.8-4.9-1.9-9.9-3.8-15.1-5-5.2-1.3-10.3-3.3-15.6-4.6-5.4-1.3-11-2.5-16.6-3.6-5.5-1.1-11.2-2.5-17-3.1-5.8-.6-11.6-1.9-17.5-2.4-3.5-.3-5.8-.6-8.6 1-.8-.7.9-1.5.2-2.2-13.9-1.7-24.3 2.1-34.3 5-3.5 4 2.1 12.8-1.2 18 .8 6.1-.1 12.7-1.4 17.5.5.8 1.9.7 2.2 1.7-1.1 6.6 4.6 10.1 7.2 14.6-2.2 3.1-6.3 4.1-9.6 5.8-3.4 1.7-6.4 4-9.8 5.3 6.1 2 11.1 7.1 19.2 5.5-.4 2.9-3.7 4.2-5.5 6.5-1.8 2.2-3 5.4-4.8 8.2-1.7 2.6-3.4 5.3-5 7.9-3.5 5.3-7.1 11.6-7.9 17.8-.7 5 1.7 8.6 3.6 12 1.3 2.4 2.7 5.1 4.8 6.5-.1.8-.9 1 0 1.4 12.5 11.3 33.5 14.1 44.6 26.6-.9.9-2.5 1-3.1 2.2 4.6-4.2 6.3 3.5 9.4 4.3.4 2.9 2.5 4.2 3.8 6.2-2.5.8.8 4.2 0 7.2 3.5.5 9.2-1.2 12.7.2-.7 6-5.9 4.7-12.2 4.8-.4 6.8 0 14.4-1.7 19.9 7.2 3.5 15.7 5.6 22.8 9.1.2 1.8-1.2 4.6-2.9 4.8-.9.1-3.9-1.4-5.3-1.9-11.3-4.2-24.9-9.5-36.7-12.2.2-.6.3-1.3.2-2.2-9.2.2-17.7 3.1-27.1 3.8-6 1.7-15.2 2.4-22.3 3.6-13.2 2.3-26.1 4.7-39.8 6.5-.9.2.5 1.4-.2 1.4-7 .8-15.4-1.9-19.4 2.4.6 1.5.8 1.3.7 2.9 2.7 3.8 3.2 9.7 6.5 13 6.6 16.6 10.7 35.8 19.7 49.9.9.9 2.7 2.1 3.1 3.8 2.5 10.3 6.6 25.5 11 36.7 2.2 5.6 5 10.1 3.4 15.6-3.5-8.7-6.8-17.1-11-25.2-1.4-2.6-2.7-5.5-3.6-8.4-4.3 3.3-12.1 4.1-17.8 6.2-3.2 1.2-5.6 4.3-9.1 4.3-1.5-5.2-.1-13.3-2.6-17.5-5.3 1.5-10.8-2-16.1-2.9 6 7.8 10.5 18.2 13 30.7 1.9 9.7.9 20.7 1 31.9h-4.3c.6-30.7-5.5-54.8-23.5-67-4.2 10.9-10 21.7-16.6 31.4-1 1.5-2.5 2.9-2.6 4.1-.2 2.1 1.2 5.8 1.7 8.2 1.6 8.4 3.8 15.9 6.2 23.3h-6c-3-7.6-4.5-16.8-6.5-25.4-6.4 8.6-12.2 17.7-19.4 25.4h-4.1c7.4-8.7 14.7-17.4 20.9-27.4 1-.7-1.4-.6-.5-1.2 4.2-5.4 7.9-11.2 11.3-18.2 3.4-7 7.5-13.8 10.1-21.8 1.4-4.3 1.5-8.6 2.4-13.4.3-1.5 1.2-3 1.4-4.6.6-4.3 1.6-7.7 1-12.2 1.2-.9 2.5-1.6 4.1-2.2 3.3 1 5.7 2.8 8.9 3.8-3.2-11.7-10.1-21.4-15.1-31.4-4.6-9.1-8.5-18.5-15.4-25.4-1.3.3-2.2-1-3.4-1-1.6 0-4.7 2.6-5.8 4.1-1.2 1.6-2.3 4.2-3.6 6.5-1.2 2.2-3.1 4.3-3.8 6-1.3 2.8-2.1 6.1-3.6 9.1-1.4 2.8-3.3 5.5-4.6 8.2-1.3 2.8-2.1 6.9-3.1 10.6-5.9 21.4-11.8 42.5-18.2 63.4-1.1 3.7-2.8 8-2.9 10.6 0 .3.1 1.4.5 1.9-1-.3-.8.4-1.2.7.4 2.7-2 5.2-1.4 7.9.3 1.6 3.8 4.7 5 6.2 5 6.2 10.1 13.4 13.9 19.9h-5.3c-4.6-7.3-9.5-14.4-15.4-20.4-1.6 6.8-3.8 13.2-5 20.4h-3.8c1-6 3-12 4.6-18 .5-1.7 1.6-4.6 1.4-5.8-.3-2.1-6.8-7.7-8.4-9.1-8.9-7.9-18.3-12.7-28.8-19-.9-.5-1.5-1.4-2.4-1.9-2.5-1.5-5.9-2.5-8.9-3.8-8.5-3.7-18.6-6.8-28.6-9.1.5 22.4-.4 46.2 1.9 66.7h-6zM185.3 90.5c.5.1.5-.3 1-.2-.1-.4.3-1.4-.2-1.4 0 .8-.8.8-.8 1.6zm14.6-40.8c-.8 2.7-6.7 3.6-7.7 6 4.8-2.8 12.9-6.3 20.4-5.8 3.3.2 5.9 2 8.9 1.7-2.9-6.3-15.4-2.8-21.6-1.9zm5.8 9.1c1.3-.7 4.3-2.1 3.8-2.6-6.4 2.9-12.8 7-15.6 12.7 2.8-4.1 7.2-7.6 11.8-10.1zm-19 19.5c2.4-2.6 5.1-6.1 6.5-8.9-.7.7-1.7 2.2-2.4 2.2 2.2-5 6.9-8.8 10.3-11.8-6.7 3.7-13.9 9-14.4 18.5zM281 89.8c0 1.2.7 1.7.7 2.9 1.8-1.6 2.9-3.8 5.8-4.3-1.5-4.1-3.8 1.4-6.5 1.4zm16.1 45.1c-3.2 4-7.8 6.6-9.4 12.2 7.2-1.4 12.2-3.9 17.3-7.7 2.7-2 6-3.5 8.4-5.3 2.3-1.7 3.6-3.7 6-5 4.8-2.7 9.3-5.6 13.7-8.4 2.3-1.5 5.1-2.2 7.7-3.6 4.7-2.5 8.9-5.8 13.7-8.4 4.9-2.7 9.9-4.9 14.9-7.4-9.1.2-15.4 3.1-23.8 4.1.3 2.3-2.1 5-4.8 4.3 0-1.9 1-2.7 2.2-3.4-19.5 4.4-32.2 16.7-44.4 27.6.7-.5 2-1.4 2.9-1 .3 2 2.1 2.6 2.6 4.3-2.4 3.7-7.2 1.1-7-2.3zm-22.8 3.4c-3.4 7.4-8.4 12.2-13.7 18.5-5.7 6.8-10.5 13.2-17.8 17.3 2 3.4 2.3 9.5 4.8 12 3.9 3.9 15.4 1.4 19.2-.2 5.1-2.1 10.1-6.3 12.5-10.3 3.2-5.4 3.5-15.3 2.4-23-.2-1.3 0-2.8-.2-3.8-.4-1.5-1.1-2.6-1.4-4.1-1.1-4.8-1.7-10.6-3.1-14.2-1.1 2.4-1.6 5.3-2.7 7.8zm-184.1 3.8c-2.7 2.2 3.6 3.8 5.5 5 3.4 2.2 7.2 5.1 12.2 7.9 2 1.1 3.9 2.2 6.5 3.6 2.3 1.3 5.8 2.9 6 4.3.2 1.5-1.5 3.8-2.4 5.3-1.1 1.8-2.1 3.1-3.1 4.6-8.8-5.9-19.5-10.8-28.6-16.6-1.1-.7-3.2-2.2-3.8-1.2-1 1.5 3.3 3.2 4.8 4.1 2.7 1.6 4.4 2.1 6.5 3.4 1.9 1.1 3.7 2.8 5.8 4.1 2.1 1.3 4.4 2.1 6.5 3.4 3.1 2 6.8 3.8 8.6 6.7-.8.5-1.3 1.3-2.4 1.4-2.6 4.6-5.1 9.3-8.6 13-7.6-4-14.6-8.6-22.6-12.2-1.1-1.3-2.4-1.9-4.3-3.1-.4-.3-4-3.2-4.8-1.4-.4.9 2.1 2.2 2.9 2.6 9.1 5.3 19.7 11.3 27.6 16.1-.9 1.2-1.6 2.7-2.6 3.8-7.2-4.1-15.2-8.4-22.6-12.7-1.8-1-6.5-4.4-7.4-3.6v.5c-.8 1.5 2.2 2 3.6 2.9 7.7 4.6 14.8 8.8 21.6 13 1.2.7 2.5 1.4 3.4 2.4-.4 1.2-1 2.2-1.4 3.4-2.5 1.1-5.6-.2-7.9-.7-.9 1.2-1.6 2.5-2.6 3.6.5.2 1.3.6.7 1.2-1.3 2.9-3.3 5.2-5.3 7.4 10.9 11.4 20.9 24.7 22.1 44.6.9 15.3-4.7 25.8-9.4 35.8-10 21.6-28.2 30.5-44.6 45.4-2.1 1.9-8.4 6.2-9.1 8.9-.3 1.3.1 2.8 0 4.1-1.2 26.3-1.1 53.5-1.2 80.4 16.4 5.4 33.8 9.9 47.8 17.8.8.4-.6 1.5.5 1.4 8.4 4.8 16.7 10.3 23.5 16.6 2.3 2.1 4.3 4.5 6.7 6.2.1-4.4 1.3-7 2.4-10.3 4.5-13.7 8.2-29 12.7-44.6 2-7 4.4-14.7 6.5-22.3 2.1-7.6 3.8-15.9 7.2-21.6 1-1.6 3.1-3.2 3.6-4.8 1.1-3.7 2-6.7 3.6-9.8 1.5-3 3.9-5.2 5-8.4 2.3-2.2 4.7-4.5 7.4-6.2-1.3-1.6-3.7-3.3-4.1-5 11.7-2.6 24.9-4.6 37.9-5.3-8-3.4-14.5-9.1-19.9-15.4-1.6-1.8-3.2-3.9-4.6-5.8-6-8.3-12.1-15.2-16.8-24.5-1.2-2.3-2-4.8-3.4-7-2.2-3.6-4.4-6.5-4.8-11-1.9-4-4.8-7-7-10.6-1.8-2.9-2.9-6.1-4.6-9.1-1.3-2.3-3.1-4.4-4.6-6.7-4.5-6.8-10-12.7-15.1-18.7-6.8-8.1-15.5-15.6-18.2-27.1 1-1.9 1.9-3.9 3.1-5.5 1.5 8.3 6 14.5 11 20.2 5 5.6 9.6 11.5 14.4 17 9.9 11.3 16.6 24.5 24.7 37.9 5.1 5.3 11.1-1 14.9-3.6.9-2 1.4-4.4 2.6-6-6.9-9.3-13.4-22-20.4-31.4-1.1-1.5-3.3-2.9-3.6-4.6-.1-.8.9-1.8.2-2.4 3.1-3.5 4.3-7.4 3.6-13.7-.9-8.5-3.6-17.6-2.6-26.6.2-2 1.3-3.7 1-5.8-1.5.5-2.3 1.8-3.6 2.6-2.1 3.9-3.8 9.9-4.1 15.8-.1 2.1.8 5.6-1.9 6-1-.5-1.4-1.1-3.4-.2-2.3-2.8-2.5-6.7-3.8-10.6-3.6-10.2-4.7-22.4-10.1-31.2-1.1 0-.6 1.4-1.7 1.4-10.9-5.8-20.6-12.8-31.6-18.5zm-4 6c-.2.3-.2.9-.7 1 3.6 3.3 8.1 5.5 12 7.9 1.5.9 3.1 1.3 4.6 2.2 5 2.9 9.6 6.7 14.9 9.1-.2-1.1.3-1.4.5-2.2-10.6-5.9-20.4-12.5-31.3-18zm202 2.4c-.1-.3-.3-.1-.5 0s-.3.2-.2.5c.4 5.4 1.1 10.2 0 15.1-2.6 11.8-14.2 20.6-25.4 24-5 1.5-15 2.1-18.7-.5-1-.7-1.4-2.4-2.2-1.9-.7 2.6.5 5.3 1.2 7.2 4.3 1.9 8.6 4.5 14.2 4.3 4.8-.1 9.2-2.9 13.9-2.2-1 2.4-4.3 2.3-7.2 2.9-6 1.1-13.3 3.5-19.2.2.5 3.9 1.2 7.6 3.1 10.1 7.6 1.2 14.8 3.6 22.8 2.4 4.8-.7 10.8-3.6 14.9-6.5 3.8-2.7 9.3-6.9 11.3-10.3 1.5-2.6 3-9.2 3.8-14.2 1.8-9.8-.4-20.6-1.9-28.3.4-.8.6-1.4.2-2.4-.8-.1-2.4.2-3.4.2 2.3 5.1 3 11.9 2.9 19.4-1.3 1.3-2.7 2.6-5.3 2.6-.1-8.7-1.2-16.6-4.3-22.6zM79 162.8c5.3 3.3 10.8 6.5 16.1 9.8.9-.2 1.4-.7 2.6-.5.1.7-.5.7-.5 1.4 2.2.6 4.3 2 6.5 3.1 2.1 1 4.3 3.3 6.2 2.2-2.9-3.1-7.4-4.2-11-6.5-.8-.5-1.3-1.4-2.2-1.9-1-.6-2.5-.8-3.6-1.2-1.2-.5-2-1.7-3.1-2.4-2.3-1.5-5.4-2.2-7-4.3-1.5-.2-2.1-1.3-3.4-1.7-.1.7-.7 1-.6 2zm20.6 17.7c-7.4-4.7-15.3-8.9-22.8-13.2-.1-.2-.2-.3-.5-.2-.3.4-.3 1-.7 1.2 4.2 4.2 11.3 5.7 15.4 10.1 5.8 1.8 10 5.2 14.9 7.9-.2-3.4-4.1-4.4-6.3-5.8zm185.3 28.1c2.1.8 4.3 1.5 6.7 1.9 5.7-2.4 10-6.1 16.1-8.2-1.5-3.1-4.9-6.3-6.5-10.1-3.6 7.4-10.5 11.4-16.3 16.4zM66.2 212c.8-1.4-.1-2.2 0-3.6.4-4.7 7.8-7 10.3-2.6-.5 3.2 1.8 4.2 3.4 6 1.3-2.5 3.4-4.3 3.4-8.2-3.3-1.7-5.7-4.2-10.6-4.3-.1-.9.8-.6.7-1.4-1.5-.4-1.9-1.7-3.6-1.9-1.9 4.1-7.1 10.1-3.6 16zM234 223c5.1-.2 8.4 1.3 12.5 2.2 1.1-1.9 2-4.7 1.4-7.4-.4-1.9-2.5-3-2.2-4.3-.2-.5-1.3.1-1.4-.5-2.1-3.2-2.8-7.9-3.8-12.2-2.1 7.4-3.7 15.4-6.5 22.2zm.5 26.4c.1-2.7 4-4.8 4.1-7-.1.2-.2.3-.5.2 2.8-2.8 3.8-8.6 5-12.2-4.2-2.6-11-2.6-16.3-4.1 3-6 4.9-13 6.2-20.6-2.5 1.7-4.5 4.5-6.7 7.2-4 4.9-8.5 9.4-9.1 17.5-1.1 14.8-.6 30.1-2.6 44.6.8 1.4.1 3 .2 5 3.1 1.3 7.5.8 11 2.2 1.3.5 5.6 3.5 5.8 4.8.2 1.8-1.9 3.9-3.8 3.8-2.1-.1-3.1-2.8-5.5-3.8-2.9-1.3-5.6-1-8.4-1.2.7 3 2.8 5.1 4.8 7.9 1.2 1.6 5.1 5.9 5 7.7-.1 2-2.8 3.8-4.1 3.6-1.2-.2-3.9-4.7-4.8-6-4.7-6.7-8.8-13.6-14.2-18.5-8.3-7.7-15.1-14.8-24.7-19-2.9 8.3-10.1 12.2-17.3 16.1 4.9 7.7 8.3 16.2 13.7 23.3 7.2 9.7 13.9 19 23.3 26.2 4.7 3.6 10.9 6.7 18 7.2 4.3.3 10.2.9 14.6-.7 1.3-.5 2.9-1.5 4.3-2.2 1.4-.7 3-1.4 4.3-2.2 2.2-1.4 4-4.9 6-7.4 1.8-2.3 3.8-4.6 5.5-6.7 4.8-6.1 8.2-14.2 12.5-20.2-10.8-8.4-13.1-25.2-18.2-39.1-2.4-1.1-4.8-2.3-7.4-3.1.9-1.4-.8-1.8-.7-3.3zM68.4 215.6c1.7-.3 3-2.2 5-1.4-.2.8-.7 1.4-1 2.2 1.2.2 1.8-.3 2.6-.5-1.3-1.7-2.4-3.7-4.3-4.8-.5 1.6-1.7 2.8-2.3 4.5zm207.8-2.9c.4 0 .8 0 .7.5-.1 9 2 15.5 3.8 22.6 1.6 6.1 2.5 12.1 5 17.5 1.6-5.5 5-10.3 8.2-15.4 3.1-4.9 5.6-10.7 9.1-14.4.7-.7 3-1.8 2.4-2.6-9.6 0-13-7.3-21.8-7.2-.6-1.4-3.2-.6-4.1-1.7.9 0 1.7 0 2.2-.5-1.9-.6-3.9.2-5.5 1.2zM427 216c-9 .2-18-1-25.2-1.9 8 7.1 14.5 15.9 21.1 24.5 6.6 8.6 12.9 17.5 18.7 26.9.2.6.3 1.3.2 2.2.6 0 1.2 0 1.4.2 2 3.6 3.9 7.3 5.8 11 .4-3.5.3-7.4.5-11-.7 0-2.1.6-2.6 0-.2-.7.7-.5.5-1.2-.6.1-1-.1-1-.7-1.4-15.9-4.5-30.1-7.2-44.6-.6-.4-1.2.3-1.7-.5-1-3.6-4.7-4.6-6.7-7.2-2.8-.8-2.3 1.8-3.8 2.3zm-155.6-1.9c-4.8 2.1-13.3 1.2-18.5 1.2 3.7 8.6 6.8 17.8 11 25.9 3.1-2 7.7-2.5 11-4.3-2.1-6.5-3.3-14.1-3.5-22.8zm-202 5.5c-1.5 3.8-3.9 7.2-5.5 11.3-1.1 2.6-1.3 5.6-2.6 8.2-1.7 3.3-4.9 6.2-6.7 9.8-2 3.9-2.5 8.7-4.6 12.2-1.2 2-3.3 3.5-4.8 5.5-1.1 1.5-4.1 5.8-4.3 7.4-.4 2.4.2 5.6.2 8.4v61.7c8.5-8 18.7-15.3 28.1-23 10.2-8.4 16.7-16.3 22.3-29.3 2.6-6.1 5.6-12.3 6.7-19 1.3-7.8.2-15.6-1.7-23.3-3.3-13.7-10.9-23.1-19.7-32.2-2 .5-4.5 2.2-7.4 2.3zm180.9 8.2c-1.5 1.3-1.3 3-3.1 4.1-.7 6.7-4.4 12-6.7 17.8 2.4.3 3.8 1.6 6.7 1.4.9 1.2 2.7 1.5 3.8 2.4 8.1 2.1 15.2 6.6 21.6 9.6-3.5-5-9-8.8-11.8-14.2-3.8-7.5-7.1-15.8-10.6-24-.1-.2-.2-.3-.5-.2-.2 1.4 0 2.2.6 3.1zM49.7 250.1c1.9-4.3 6.4-7.3 7-12.2-2.6 3.7-6.1 7.7-7 12.2zm226.5-7.4c.2-.3.2-1.8-.5-1.9-.1.2-.1 1.7.5 1.9zM40.8 261.6v5.3c2.9-1.9 6.1-6.8 6.2-11.5-1.1 3-3.3 4.9-6.2 6.2zm209-3.1c1.4 5.1 3.3 10.1 5 14.9.7 2 1.1 4.3 1.9 6.2 2 4.4 5.1 8.2 8.6 11.8 3 3 7.9 7.3 11.8 8.9 1.6.6 3.9.9 6 1.4 2.1.5 4.3 1.2 6.2 1.4 4 .4 8.2-.1 12.5.2 2.2.2 4.5 1.2 6.7.7 2.3 2.4 6.3 2.9 10.1 3.8 4.5 3.7 8.5 8 13 11.8-.7 0-1.3 0-1.2.7 1.2 2.9 4.9 6.8 4.8 10.3-.1 1.4-1.3 2.2-1.7 3.6-.8 2.9-.2 6.1-1.2 9.1 4.6 2 10.7 2.6 15.4 4.6 1.1-9.1 2-18.4-.7-27.8-.1-.7-1.2-.3-1.4-.7-1.1-3.5-3-5.2-4.8-8.2-2.4-3.9-5.3-5.9-8.6-8.6-8.7-7-21.2-11-31.4-16.3-4.3-2.2-7.5-5.9-11.3-7.9-1.1-.6-2.5-.7-3.6-1.2-2.8-1.3-4.8-3.6-7.4-5-2.2-1.2-4.7-1.9-7-3.1-2.1-1.1-3.9-2.8-6-4.1-4.4-2.7-10.6-4.9-15.4-7 0-.1 0-.3-.2-.2-.1.2-.1.5-.1.7zm205.5 9.1c-.7 7.8-1.9 16.4-2.4 25.7 7.2 4.8 13.9 10.1 25.2 10.8 1.9-10 .8-22.1 2.2-33.1-8.8-1.1-15.2-4.5-25-3.4zm-424.6 6c-.1.8.7.5.5 1.4-1.2 1.5-3.3 2.2-3.4 4.8 3.5-.7 6.6-4.2 4.8-8.6-.4 1-1.1 1.8-1.9 2.4zm-3.3 8.7c.2.8.7 1.2 1 1.9 1.3-.9 2.7-2.9 3.1-3.8-1.3.8-2.6 1.5-4.1 1.9zM425 303.4c2.8 5.2 7.5 8.5 10.8 13.2 3.1 1.2 6.5 3.4 7.9 5.5-1.3.9-3.3 2-4.8 1.7-1-.2-2.2-1.9-3.6-2.9s-3.3-1.5-4.3-2.2c-.9-.6-1.7-1.7-2.4-2.2-3.4-2.2-9.3-4.7-13.2-6-1.6-.5-3.4-.5-5-1.2-2.6-1.1-4.8-3.1-7.4-3.8-4.1-1.1-8.1-1.2-11.8-2.9 1.5 2.6 5.2 2.7 8.4 4.3 1.1.6 2 1.8 3.4 2.4 1.5.7 3.3.5 4.8 1 1.4.5 2.4 1.7 3.8 2.4 2.1 1 4.3 1.2 6 2.2 3.9 2.1 5.6 4.5 8.4 7.7.9 1 3.2 3.4 2.9 5-.6 3.2-7.2 2.6-10.1 3.4-6.2-8.6-23.8-4.5-37-4.8 5.2 3.4 15 1.9 22.3 2.9 2.9.4 4.9 1.7 7.2 1.2 2.3 1.9 5.1 3.4 7.9 4.8-3.4 3.6-8.4.6-13.7.2-5.7-.4-10.2.1-14.4 1.2 4.9.5 11.7.6 16.8 1 4.6.3 8.9 2.7 12 5 1 .8 1.6 2.1 2.6 2.9.8.6 2.1 1 3.1 1.7 1 .6 1.8 1.7 2.6 2.2 2 1 5 1.2 7.7 1.9 3.5.9 7.4 1.7 9.8 1.4 1.1-2.1 4-1 6.7-1.4 2.9-.4 5.1-2.2 7.4-2.6.1-.5-.3-1.6.2-1.7.7 0-.2 1.5.5 1.4 3.1-1.9 6.5-3.7 8.4-7 1.8-3.1 2.5-7.7 3.8-11.8 1.4-4.2 2.2-8.7 3.1-12.7-8.9-1.2-17.3-2.8-23.8-6.5-1 4.7-.7 10.4-1.2 15.1-.2 2.3-.8 4.5-1 6.7-.2 2.8-.6 3.8-1 5.5-.6 3-.5 4.7-3.4 5-2.1-.9-2.7-3.3-2.4-5.5.1-1.2 1.1-1.9 1.4-3.1 1.3-4.2.9-9.7 1.2-14.4-1.3-3.3-3.4-4.5-5.5-7-1.8-2.1-3-4.6-4.6-6-2.2-1.9-5.9-2.9-9.1-5-3.5-2.3-5.9-6.2-8.9-7.9-.5-.3-1.3-.2-1.9-.5-1.7-.8-3.2-2.8-5.3-2.6 4.4 5.3 9.2 9.4 14.7 12.8zm58.6-.2c3.1-1 3.2-6.3 1-8.4.2 3.3-.6 5.6-1 8.4zm-152.9 29c-1.7-4.1-4.2-7.3-6-11.3-4.9-3.9-9.1-8.5-14.2-12.2-5.2 0-10.6-2.3-16.1-2.2-2.9.1-5.6.5-8.4.2-6.3-.7-12.1-3.2-17.3-4.6-.7-2-3.4-3.5-5.5-4.8 0-.1 0-.3-.2-.2-1.8 2.1-2.2 4.5-3.6 7-2.6 4.9-5.7 8.9-9.1 13.2-4.4 5.5-8.2 12.5-13.7 15.8-2 1.2-4.6 2.4-6.5 3.4-.4.2-1.8 0-1.4 1 1.6.7 3.2.1 4.8 0 6.7-.3 13.7.3 20.6.2 2.5 0 5.2 0 7.7-.2 6.3-.7 13.8.3 21.4.7 16.8.9 32 1.1 45.8 4.6.7-3.4.8-7.5 1.7-10.6zm124.8-30.7c.5-.1 1-.1 1-.7-.6.3-1-.7-1.2 0 .3 0 .2.3.2.7zm19.7 6.2c-.1-.6.7-.3.7-.7-.3-.2-.6-.3-1.2-.2 0 .5.1.9.5.9zm7 5.5c0 .6 0 1.2-.2 1.4 5.4.5 12.1-2.5 12.7-7.4-3.5 2.7-7 6.3-12.5 6zM19 375.4c-4.5 7.7-8 17.8-6.5 29.3.5 3.5 2.8 7.7 4.8 10.8 3.3 5.1 7.3 9.1 11.8 12.2 1.6 1.1 3.8 2.7 5 2.4-.6-23.9 1.5-50.7 1-75.4-4.8 6.2-11.4 12.6-16.1 20.7zm415.9 49c-12.3 3.1-25.4 7.4-41 6.2-1.8 2.8-4.3 1.4-7.9 1-3.7-.5-8.8-1-12-.5-1.3.2-2.9 1.3-4.3 1.7-5.1 1.5-9.5 2.9-13.9 4.8 2 3.7 6 2.4 11.5 2.6 9.9.5 22.1-.3 32.2-.7 3.1-.1 6.6.5 8.9 0 1.3-.3 1.5-1.4 2.9-1.7 1 .1.4 1.8 1.7 1.7 13.6-1.9 31.6.6 41.5-5 10 .9 16.1-4.3 25.4-4.8.2-4.7-.6-8.2-2.4-10.6-3.9-5-10.4-8.3-17.5-9.4-7.2 5.9-14.4 12-25.1 14.7zm-243.1 9.3c1.6-.7 2.1.7 3.8.5 6.5 3.2 15 4.5 22.3 7-1.5-3.7-3.8-6.6-4.8-10.8-.4-.8-1.1.2-1.7-.5-1.8-4.4-4-8.4-5.8-13-3.7-1.7-7.5-3.4-11.5-4.8-.3 7.6-1.3 14.7-2.3 21.6z"/><path class="st0" d="M230.2 26.4c3.2-1.6 4.6 4 4.6 7.9 2-.8.7-4.9 2.2-6.2 1 2 .4 6.4-2.2 6.5.1 4.1-1.1 6.9-2.9 9.1-.3-2.2 1.9-4.1 2.2-6.7.4-4.3-2-7.9-3.9-10.6zm23.2 8c-1.3.1-.3-.4.5-.2 5.4-2.4 10.5 2.2 14.9 3.8.5.5-.2.8.2 1.2.7.7 2.3 1.5 3.4 2.4.9.8 2.4 2.5 1.9 2.4-5.3-4.9-11.7-8.7-20.9-9.6zm-47.5 27.3c.5-.3-1.3.8-1.4 1.4-.6-.5.8-1.1 1.4-1.4z"/><path class="st1" d="M329.1 51.7c.1-.3.2-.5.4-.7 1.8-1.8.5-5.8-2.4-4.9-6.6 2.1-13.5 3.8-20 6.4-1.2.2-2.3.5-3.3 1.1-.4.2-.7.5-1 .8-1.2.1-2.2 1-1.9 2.5 2.6 13.1 6.9 26 11.3 38.5.6 1.6 3 1.9 4.1.8 1.7-2 4-3.1 6.8-3.1 2-.1 3.6-1.9 2.6-3.9-3-6.4-5.7-12.9-7.9-19.7-1.4-4.4-1.7-10.6-4-14.5 3.1-.7 6.2-1.5 9.3-2.2.1.5.3 1 .4 1.5 0 .4.1.9.1 1.3.5 7.2 1.9 14.4 4.2 21.2 2.4 7 6.1 16.3 13.9 8.7 1-1 1.4-2.5.7-3.8-5.1-9.7-8.8-20-13.3-30zm30.2 24.4c-.1-.9-.4-1.9-.7-2.8-.4-2-.8-4-1.3-6-.5-2.4-.6-5.7-1.8-7.8-1.4-2.6-4.7-2.9-7.3-2.2-3.6.9-3.8 3.9-4 7.1-.4 5.8-1.5 12.3-.3 18 .1.4.6.3.7 0 1.1-2.9 1.4-6 1.8-9.1v-.4l2.4-.3h.4c.5 2.7 1 5.4 1.6 8.1.2.9 1.1 1.2 1.9 1.1 2.1-.3 5.7-.1 6.5-2.5.1-.4.2-.8.2-1.3.3-.6.3-1.4-.1-1.9zm-10.1-15c-.1-.1-.2-.2-.2-.4.1 0 .2-.1.3-.1-.1.2-.1.3-.1.5zm-.9 9.4c-.5.2-1.1.3-1.6.5.1-1 .2-2.1.3-3.1.1-1.2.1-5.4.7-6.2.2-.2.3-.4.5-.6-.8 2.6 0 5.5.5 8.1.1.3.1.7.2 1-.2.2-.4.3-.6.3zm18.4-16.9c-1.3-.2-2.7-.2-3.8-.3-1-.1-2 .9-2.1 1.9-.2.3-.3.6-.3 1.1.2 8 1 15.9 1.8 23.8.1 1.4 2 2.8 3.3 1.7.3-.1.6-.4.8-.7 1.3-.8 3.6-.2 4.7-2 1.1-2 .8-5.5.4-8.5 4.8-1.3 8.7-6.8 7.1-11.7-1.6-4.5-7.6-7.1-11.9-5.3zm4.2 12.5c-.1-2.6.4-6.7-.4-9.4 2 .3 3.8 1.1 4.3 3.7.7 3.2-1.5 4.6-3.9 5.7zm25.7-10.2c-1.6-4-6.5-6.8-9.9-4.7-2.2.8-3.5 3-3.3 5.4 0 .5.2.8.4 1.1-2.2 3.9-3 8.7-2.4 13 .9 5.9 6.1 9.1 10.8 4.5 4.9-4.7 6.9-12.9 4.4-19.3zm-11.3 15.9c-1.6-2.2-.8-7-.3-9.4.3-1.4.7-2.7 1.3-4 .6-.2 1.1-.7 1.2-1.5 1.4 1.1 1.6 7.6 1.5 8.7-.1 2.7-.7 5.2-1.5 7.7-.8 0-1.5-.5-2.2-1.5zm32.1-.8c-.5.1-1 .2-1.5.4 0-.2 0-.4-.1-.6-1.6-6.1-3.2-12.1-4.9-18.1-.6-2-1.5-3.6-3.4-3.3-1.3-.9-3.4.1-3.1 2-.3.5-.6 1.1-.8 1.7-.1.2-.2.4-.2.6-.6 1.8-.9 3.9-1.2 5.3-1.4 5.2-2.8 10.3-3.5 15.6 0 .3.1.5.3.6-1.2.4-2.3.9-3.4 1.4-.5.2-.2.9.3 1 5.3.4 10.8-.8 16.2-2-.7 1.1-1.2 2.3-1.4 3.7-.4 2.3 2.8 3.3 3.6 1 1-2.8 2.2-4.5 4.7-6.1 1.4-1.1.4-3.6-1.6-3.2zm-12.9-9.9c.9 4 2 7.9 3.3 11.8-2.6.5-5.2 1.1-7.6 1.8 1.9-4.4 2.9-9 4.3-13.6zm18.6-9.7c0 .1-.1.3-.1.4-3.9 3.1-5.1 9.9-4.4 14.4.8 5.7 6.9 9.4 11.3 4.5 3.8-4.2 5.6-13.6 3.5-18.8-1.9-4.8-8.7-6.1-10.3-.5zm-1 13.1c-.1-1.2.1-2.6.3-3.8.1-.6 1-4.4 2.1-6.5 1.1 1.5 1.2 5.2 1.2 6.6 0 2.5-.6 4.9-1.5 7.1-.4-.1-.9-.2-1.3-.3-.4-.9-.6-2-.8-3.1zm27.9-17c-.1 0-.1 0-.2-.1-.7-.3-1.5.3-1.7.9-.8 2.4-.5 5.3-.4 8-.8.2-1.6.5-2.4.7-.4.1-.9.2-1.3.3-.1-2.8-.3-5.5-.4-8.3-.1-.9-.8-1.8-1.7-1.7-.8-.2-1.5-.4-2.3-.7-1-.8-3.2-.5-3 1.2.1.7.1 1.4.2 2.1-.7 6.6-.3 13.6-.3 20.2 0 .8.7 1.7 1.6 1.6 2.8-.3 6 .1 6.5-3.3.4-2.7-.2-6-.4-8.7.5-.1.9-.1 1.4-.2.7-.1 1.5-.2 2.3-.3 0 3.5 0 7.1.2 10.6.1 2.4 3.8 2.5 3.8 0 0-5.3-.2-10.6-.5-15.9-.2-1.2.4-5.7-1.4-6.4zm23.6 1.3c1.9-.1 2.6-3.1.5-3.5-6.3-1.1-14.3-.5-20.4 1.5-2.2.7-.5 3.3.9 2.7 1.8-.1 3.6-.2 5.3-.4-.4.5-.4 1.1-.2 1.7-1.1 6.5.4 14.2 1.2 20.4.1.9.7 1.8 1.7 1.7 3.4-.2 7.2-1.1 7.7-5.1.3-2.6-.7-5.7-.9-8.2-.4-3.5-.4-7-.4-10.5v-.2c1.6 0 3.1 0 4.6-.1zm21.6 1.4c-3-3.6-7.9-3.3-11.5-.6-3.9 2.9-6.5 8.2-6.3 13.1 0 1.5.4 3.1 1.1 4.5.9 3.6 3.9 5.9 7.7 5.5 4.9-.5 7.7-5 9.5-9.1 1.8-4.3 2.8-9.5-.5-13.4zm-10.8 4.7c.9-1.2 2.2-2 3.5-2.5 1 4.4.5 8.4-.9 12.4-1.6 1.8-4.1 2.3-5.1-.5-.2-2.4.3-5.3 1.4-7.7.4-.6.8-1.2 1.1-1.7zm31.2-.4c-.5-4.5-2.9-5.5-7.5-5.3-3.5.1-4.5 4-5.7 6.8-2.2 5.1-4 10.1-4.9 15.5-.1.8 1.1 1.2 1.4.4 1.4-3.1 2.8-6.3 4.2-9.5.4-.9 1-2.8 1.9-4.6.3 4.4.4 9.1 1.5 13.1.9 3.3 5.5 3.3 8.3 3.9 1.4.3 2.5-1 2.4-2.3-.5-6-1-12-1.6-18z"/><path class="st1" d="M527.7 51.4c-.3.2-.6.4-.9.7-10.2 3.5-10.5 30.6 2.2 26.6 6.7-2.1 10-10.9 9.9-17.2 0-6-4.2-13.6-11.2-10.1zm-3.6 10.1c.6-2.5 1.5-4.3 2.8-6.1 2.2 6.1 1.7 12.6-1.9 18.2 0 0 0 .1-.1.1l-.6-.9c-1.6-3.1-.9-8.1-.2-11.3zm31-6.7c-3.1-.7-6.2-1.1-9.3-1.3-.2-.1-.3-.2-.5-.2-1.1-.2-1.6-.1-2.7.2-.3.1-.5.2-.7.4-.4 0-.9.1-1.2.5-1.7 2.4-1.1 6.9-1.3 9.8-.3 4.6-.5 9.2-.8 13.8 0 1 .5 2.3 1.7 2.3 5.5.2 6.7-.3 7.3-6 .6-5.4.5-10.9-.2-16.3 2.3.3 4.6.6 7 1.1 2.8.6 3.5-3.7.7-4.3zM402.4 33.2c15.5-3.4 30.9-6.2 46.8-6.6 13.2-.3 29.4 3.7 41.1-4 2-1.3.8-4.5-1.6-3.9-14.9 4-29.8 1.6-45 2.9C429.3 23 415.1 26 402 32.2c-.6.3-.2 1.1.4 1zM500 192.8c5 6.5 15.9 10.8 23.9 12.3 8 1.5 16 .5 22.1-5.2 2.9-2.7-.8-6.6-4-5.2-6.5 2.9-13.8 3.7-20.8 2-6.8-1.7-13-6.3-19.9-7.1-1.8-.2-2.1 2.2-1.3 3.2zM32.4 143.6c1.8-7.2-1.3-16.4-3.5-23.1l-3.4 3.4c10.2 4.2 18.7-5.4 16-15.3-.7-2.6-5-3.6-6.2-.8-2.8 6.3.4 12.2 4.8 16.8 2.5 2.6 5.5 4.8 7.6 7.7 1.2 1.7 4.1 9.1-.7 7.8-6.2-1.7-8.4 7.3-2.6 9.5 9.5 3.7 17.1-7.1 14.9-15.7-1.2-4.5-4.3-8.2-7.7-11.2-4.1-3.7-9.9-7-9.9-13.2-2.1.6-4.2 1.1-6.3 1.7 2.6 5.7-3.8 9-8.4 7.4-1.9-.7-4.2 1.5-3.4 3.4 1.5 3.8 2.6 7.7 3.6 11.7.8 3.4 1.2 7.1 2.6 10.3.5 1.2 2.3.8 2.6-.4zM68 119.3c.4-5.7.5-11.4.7-17.2.1-2.5.1-5.1.2-7.6 0-.6 0-8.3.3-8.5-.9.1-1.9.2-2.8.4 2.1.5 4.3 5.4 5.4 7.2 1.5 2.3 2.9 4.6 4.3 7 2.6 4.4 4.7 9.4 8.1 13.2 2.5 2.8 6.9-.2 6-3.5-1.8-7-7.2-13.9-11.2-19.9-2.6-3.9-7-12.9-13-10.9-5.6 1.8-4 11.8-4 16-.1 8.2.5 16.3 2.5 24.3.4 2 3.3 1.5 3.5-.5z"/><path class="st1" d="M65.8 106c3.8-1.4 7.3-1.4 11.3-1.1 3.1.2 3.1-4.6 0-4.9-4.3-.3-8.7 1.2-12.4 3.4-1.3.8-.5 3.2 1.1 2.6zm37.4-19.6c1.6-2.2 3.4-4.2 5.5-5.9-1.3.2-2.6.3-3.9.5 5.6 3.5 11.8 5.8 18.1 8-.8-1.9-1.6-3.8-2.3-5.8-4.6 10-11.1 18.8-20 25.4-3.4 2.6-2.2 7.3 2.1 7.8 3.8.4 7.5 1.5 11 3.1 3 1.4 5.5 3.7 8.7 4.6 3.2.8 5.9-2.6 4.2-5.5-4.2-7.2-16.3-9.7-23.9-10.5l3 7.2c9.8-7.6 17.3-17.5 22.1-29 .8-2-.9-4.3-2.7-4.8-6-1.8-11.8-4.3-17.7-6.2-1-.3-2.5 0-3.1.8-2.3 3-3.7 5.7-4.1 9.6-.2 1.7 2.2 1.9 3 .7zm41.4 25.7c2.6-.8 4.9-1 7.5 0-.6-1.5-1.2-2.9-1.8-4.4-1.6 2.7-2.1 5.7-1.8 8.8.1 1.3.4 2.6.8 3.9.4 1.2 2 2.9 2.1 4 .4-.9.8-1.8 1.1-2.7-1.5 1.8-8.2-1-10.4-1.4-2.7-.5-5.7-.8-7.7 1.5-1.9 2.3-1.3 6.1-1.3 8.8-.1 4.3-.7 8.8.4 13 .9 3.3 5.9 3.4 6.8 0 .8-3.1.5-6.1.4-9.3 0-2.1-1.1-6.6-.1-8.4-.7.6-1.5 1.1-2.2 1.7 2.6-1.1 7.8 1.8 10.6 2.1 3 .3 6.5.1 8.7-2.2 2-2.1 1.6-4.6.4-6.9-2.1-4.2-2.8-6.6-2.2-11.4.2-1.5-1.5-3.1-3-3-3.6.3-6.5.9-9.6 2.8-1.5 1-.6 3.7 1.3 3.1zM44 31.7c.6 10.6 5.1 21.4 10.1 30.7 1.8 3.3 6.7.4 5-2.9-4.6-9.3-7.8-19.1-12-28.6-.7-1.5-3.2-.8-3.1.8zm37.3-1.5c-.7 7.8-1.1 15.5 0 23.3.4 3 5 3.2 4.9 0-.3-7.8-1.2-15.5-1.7-23.3-.1-2.1-3.1-2.1-3.2 0zm41.8 30.1c3.7-3.2 6.1-7.9 9.2-11.6 3.3-3.9 6.8-7.5 10.2-11.3 1.9-2.2-.7-6.3-3.3-4.3-4.5 3.5-8.1 7.5-11.1 12.4-2.6 4.3-5.8 9.4-5.7 14.6 0 .2.4.4.7.2z"/></g><path class="st1" d="M551.2 218.2c-.1.1-22.6 28.3-27.5 30.6-3.8 1.8-8.8 1.9-12.9-.4-7.4-4.1-2.8-15.5 5.3-13 5.9 1.9 6.6 9.3 6.6 9.3s.5 2.1 5.7-3.6c5.2-5.6 25-26.6 25.2-26.8-.1.1-2.3 3.8.7 7.5 3 3.6 6.1 7.3 3.8 11.1-2.4 3.8-6.7 8.1-6.7 8.1 0-.1 1.9-5.9-.4-10.8-2.5-4.8.1-12 .2-12zM373.2 6.6c-.1.1-7.7 31.3-10.8 35-2.4 2.9-6.5 4.7-10.5 4.5-7.5-.5-8-11.5-.6-12.5 5.5-.7 8.8 5.1 8.8 5.1s1.2 1.4 3.3-5c2.1-6.5 10.3-30.8 10.3-31 0 .1-.5 4 3.4 5.7 3.8 1.8 7.6 3.6 7.2 7.6-.5 4-2.4 9.1-2.4 9.1 0-.1-.7-5.5-4.3-8.6-3.8-3.2-4.4-9.9-4.4-9.9z" id="Слой_1"/></svg>