<svg version="1.1" id="Слой_1" xmlns="http://www.w3.org/2000/svg" x="0" y="0" viewBox="0 0 566.9 467.7" xml:space="preserve"><style>.st0{fill:#ee7f00}.st1,.st2{fill-rule:evenodd;clip-rule:evenodd;fill:#ef8124}.st2{fill:#ee7f00}</style><path class="st0" d="M30.3 236.7c-1.8-.8-4.2-.4-5.8 1.3-1.3 1.3-2.3 3.2-2.4 5-.2 2.1.6 4.6 2.4 5.9.7.5 1.4.5 2.1.8.5.2.8.7 1.2 1.1.8.7 1.6 1.3 2.4 2 1.6 1.3 3.3 2.6 4.9 4 3.3 2.6 6.5 5.3 9.8 7.9 2.1 1.7 4.1 3.4 6.3 5.1.2.2.4-.1.5-.2.2-.3.2-.5.4-.6-1.7-1.5-3.3-3.1-4.7-4.7-.3-.2-.5-.5-.8-.8-.1 0-.1-.1-.2-.2-.4-.4-.6-.7-.8-.8-1.8-1.7-3.8-3.5-5.7-5.1-2.6-2.4-5.3-4.6-8.1-6.9-.7-.6-1.3-1.1-2-1.7.3-.3.7-.5.9-.9l.5-.5c2.1-2.4 3.1-6.2 1.3-9-.6-.8-1.3-1.4-2.2-1.7zm1 6.3c.1.5 0 1-.2 1.4-.6 2-3 2.7-4.8 1.5-1.1-.6-2.4-2.3-2.4-3.6 0-1.8 1-3.5 3.2-3.4.5-.1 1.1.2 1.7.5 1.5.6 2.4 2.2 2.5 3.6zM68.4 46.5c-4.8-.6-7.4 2-13.3 2.7-.1.4-.2 1-.4 1.7 0 2.4-.6 4.7-.9 7.1-.1.4-.1.8-.2 1.3 0 .3 0 .6-.1.9 4.3.4 8.3-2.2 13.1-2.3 1.5 7.5 5.5 16.6 7 25 3.4 9 4.7 19.4 1.8 28.1-.4 1.3-.9 2.5-2 3.5-7.1 1.5-12.4-6.4-12.3-12.2 0-.5 1 0 .6-1.1-1.3-3.6-2.6-4.4-4.1-4.1 0 .1-.1.4-.3.4-.3.2-.8.6-1.1.7-.1.2-.2.2-.4.3-.1.1-.1.2-.2.1-.1.1-.2.2-.3.2-3.4 3.3-7 6.4-10.6 9.4l.1.1c1 1.6 2.1 3.4 3.1 5 .1-.1.1 0 .3-.1.2.4.4.8.3 1.1 2 3 4.1 6.1 6.1 9 .2.1.5.2.8.2-.1.2-.1.3-.3.4 1.3 1.5 2.7 2.8 4.2 4.1 3.3 2 8.4 3.8 11 3.8 2.2-1.5 3.8.1 8.4-1.9-.2-.5-.4-1.2.2-1.5.1.3.3.9.7.8 5.4-5.2 10.1-7.4 10.3-16 .1-.1.1 0 .2-.1v-2c-.2-3.2-.6-6.3-1.1-9.4-.4-2.9-.9-5.8-1-8.9-.4-2.9-.9-5.6-1.2-8.4-1.6-7-3.4-14.9-4.6-22.3-1.1.1-.2-2.7-1.5-3.8 2.5-.6 4.4-1.5 5.9-2.7.2.1.2.3.2.5.3-.2.8-.3 1.1-.3-.1-3.3-2.9-11-3.7-13.7-4.6-.4-11.2.8-15.8 4.4zm38 25.8c.1.2.1.4 0 .6.3 1.5-.8 1.2.3 2.7-1.4 0-.9.9-1.3 1.2-3.3-.2-5.1-1.1-9.2-.3-2.1 1.4-3.7 3.4-4.7 6.3-.2.8-.4 1.4-.6 2.2l.1.1h-.1c-.2 1.3-.4 2.6-.5 3.9v1c-.1.4.1.8.1 1.2l.3 1.8c1.6 3.2 3.7 6 6.2 7.5.8.3 1.4.6 2.3 1 0 0 .1.1.1 0 .1 0 .4.1.5.1.8.1 1.6.3 2.5.2.2-.1.4 0 .6-.1 3.3-2.2 6.6-5.9 7.4-7.1 1.1 1.3 1.7 3.7 2.5 5.5.5 0 1.1-.1 1.7-.2.2-.1.4 0 .5-.2 0-.9-.2-2-.2-2.9-.8-5.3-2.2-10.5-1.6-15.8-.1-.2 0-.5-.2-.8-.8-2.7-1.6-5.1-1.9-7.4-1.8-1.2-3.3-1.2-4.8-.5zm-3.2 17c-1-.8-.3 3.4-.1 4.2-3.6 2.5-4.3-1.4-6.3-2.6 0-3.6 1.1-6.5 2.6-9.2 1.2-1.2 1.9 1.4 1.6-.5 1.6 2 1.9 5.9 2.2 8.1zm78.4-35.6c-4.9-.2-6.2 1.4-10.8 1.8l-.5-1.8c1-1.2 1.9-2.6 2.7-3.8.3-.5.5-1 .7-1.6 1.8-4.4 3.8-8.8 6.2-12.8.1-.2.2-.2.3-.2-.8-2-1.3-3.1-2-5-7.1 1.8-14.1 3.8-21.4 4.7-.4.1-1 .2-1.3.2.2.6.3 1.5.4 2 .2 1 .4 1.8.6 2.5.4 1.2.6 2.5.9 3.8.4 0 .6.2.9 1 1.4-1.3 2.8-.4 5.1-1.7.1 1.8.6.2 1.1.9-1 2.8-.5 7.9-1.5 10 .1-.2-.6-.8-.5-.6.4 1.7-.3 3-.6 4.5 1.4 3.5 2.5 7 3.3 10.7 7.6-2.1 14.6-5.2 25-9.3-1-4.6-1-4.8-2.5-7.7-3.5 1.4-4.6.8-6.1 2.4zm-48.9 1.5c-5.7.8-11.4 1.4-17.2 1.6-1.5.1-3.2.3-4.8.4 1.8 7.5 2.7 11.4 6.4 16.1 7.8-1.6 8.3-2.7 14.3-3.3-.9 7.9-2.3 15.4-5.3 22.2.1 1.5.8 2.4 1.5 2.9l-1.9.5c1.7 3.6 3.4 8.5 5.8 12.3 3.3-1.5 6.9-2.3 10.5-3.1 4.2-.9 8.4-2 12.4-3.3 4.4-1.3 8.9-2.4 13.1-4.2.9-.3 1.6-.7 2.5-1-2.4-3.3-2-7.8-2.7-11.4-.6.1-1.1.1-1.8.2-6.6 1.4-13.4 2.3-20.3 3.1-.2.1-.4-.1-.5-.2-.6 0-1.3-.2-1.7-.4l-.1-.1c-.3-.1-.5-.4-.4-.8.1-.1.1-.2.1-.3-.1-.6-.2-1.2.2-1.5.1.1.1.3.2.4 1.1-4 2.6-7.7 4.3-11.2.8-2.6 1.8-5 3.2-7.2 1-2.5 2.3-4.8 3.6-7.2-.4-2.6-1.3-5.4-1.9-7.7-6.3 1.6-13 2.2-19.5 3.2zM44.6 211.5c-2.6-5.7-3.8-12.1-5.3-18.1-1.3-4.9-2.6-9.8-3.8-14.6-.1-.7-.2-1.3-.3-2 4.4 2.8 8.7 5.7 12.8 8.9.2.3.3.6.5.8.9 1 1.6 2 2.1 3.2.3 0 .7 0 1-.2-.6-2.2-1.4-4.4-2.2-6.6-1.2-2.5-2.7-4.7-4.9-6.3-3.5-1.5-7.7-1.5-10.3-4.6-.1-.1-.3-.2-.5-.2-.1-.2-.1-.4-.2-.6-.2-.8-2.1-.3-1.9.5.4 2.1.9 4.2 1.3 6.3 1.1 9.1 2.8 18 5 26.9.5 2.1 1.1 4.2 1.7 6.3-.4.1-.9.3-1.3.4-1.9.6-3.8 1.7-4.9 2.9-.3.3-.6.6-.9 1-.5.4-.9.9-1.2 1.3-.6.8-1.2 1.7-1.6 2.7-.8 1.6-1.3 3.2-1 4.6.7 2.9 4 3.5 6.5 3 1.3-.3 2.8-.9 4.3-1.7 4.2-1.8 8.1-5.9 7.3-10-.1-1.7-.7-3.1-2.2-3.9zm-13.5 10.1c0 .1 0 .3-.1.4v-.3c0-.5 0-1.1.1-1.6.3-.6.7-1.3 1.1-1.9-.7 1.1-1.1 2.3-1.1 3.4zm2.2-4.8c-.3.3-.5.6-.7.9 0-.1.1-.1.1-.2.4-.6.9-1.3 1.5-2-.4.5-.7.9-.9 1.3zm4.9-3.5c.3-.1.5-.1.8-.2-.3.1-.7.2-1 .4.1-.1.2-.1.2-.2zM36 218c.1-.1.2-.2.3-.2-.1.2-.1.3-.2.5l-.2.2c0-.1.1-.3.1-.5zm4 3.7c-.9.8-2.6 1.6-4.1 1.9h-.1c.3-.1.5-.2.8-.4 1.4-.5 2.7-1.3 3.6-1.9.4-.3.9-.6 1.3-1-.4.5-1 1-1.5 1.4zm54.6-67.5c-2.2-2.7-19.7-10.9-26.3-13.9-.3-.1-.7-.2-1.1-.3-1.4-.7-2.9-1.4-4.4-1.7-3.4-1.1-5.5 2-7.7 5s-5.5 2-5.5 2 20.1 11.1 25.4 14 3.8 3.6 3.8 3.6-5.5 2-5.8 6.9c-.2 4.9 7.3 8.4 9.8 4.3 2.5-4.2 1.6-9.4-1.1-12.7-1.7-2.1-12.5-7.4-20.4-11.1l11.1-5.4c.9-.5.1-.9-.6-.6l-1.2.6c.3-.2.7-.4 1-.6.3-.2.5-.2.8-.4 5.8 3.2 12.4 6.8 15.2 8.4 5.3 2.9 3.8 3.6 3.8 3.6s-5.5 2-5.8 6.9c-.2 4.9 7.3 8.4 9.8 4.3 2.7-4.4 1.9-9.6-.8-12.9zm-35.1-5c.4-.2.7-.3 1.1-.5-.3.2-.6.4-.8.5s-.2 0-.3 0zm4.8-3.5c-2.2.8-4.3 1.7-6.5 2.8-2.8-1.3-4.7-2.1-4.7-2.1s6 .6 9.3-2.1c2.1-1.7 5-2.3 6.8-2.4.5.3 1.1.6 1.7 1-2.3.8-4.5 1.8-6.6 2.8zm13.4 78.1c-.4-.1-.5.9-.5 1-.6 4.4-1.6 8.9-3.3 13-1 2.5-3.2 5.4-3.8 8-.4 1.3-.4 2.1.6 3.1.1 0 .1 0 .3.1.1.1.2.3.2.2 2.7.9 5.4 1.7 8.1 2 .4.1.5-1.2.5-1.4 1.1-2.5 2.2-5.2 3.3-7.7.7.1 1.3.4 2 .4 1.5 0 3.4.5 5.1.9 2.2.3 6.9 2.1 9.1 1.5 2.8-.7 2.8-3.8 3.5-6.3.1-.3.3-1.6-.2-1.8-6.1-1.1-12.2-2.3-18.2-3.4.9-2.1 1.5-4.1 1.9-6.3 0-.4.2-1.4-.3-1.5-2.6-.7-5.5-1.3-8.3-1.8zm5.4 9.7c-.2.4-.5 1.9.2 2 6.2 1.1 12.3 2.3 18.5 3.4-.5 1.5-1 3.3-2.2 3.7-.9.3-5.2-.8-6.1-1.1-4-.7-8.1-1.3-12.1-2.1-.1 0-.3.2-.3.3-1.3 3-1.9 6-2.1 9.2-2.4-.4-4.6-1-6.9-1.8-.4 0-.5 0-.7-.2-.1 0-.2-.2-.2-.2-.3.1-.4 0 0-.5-.1-.1 0-.1 0-.1 0-.1 0-.1.2-.2.3-.5.6-1 1-1.4.5-1 1-2.1 1.4-3.2.7-1.7 1.3-3.3 1.8-5 1.2-3.4 1.8-6.8 2.3-10.3 2.5.4 5 .9 7.5 1.5-.5 2.3-1.2 4.2-2.3 6zm21.4-27.5c-.6.7-1 2.9-1.4 4-.2.2-.2.5-.3.8-.3 1-.6 2-1.2 2.9-1 1.5-2.4.9-3.9.4-.4 0-.9 0-1.3-.1 1.3-2.8 2.6-5.7-.1-7.5-6.1-3.8-4 8-9.4 5 .7-2.7 1.3-5.4 2-8 .1-.3.3-1.6-.2-1.6-2.4-.1-3.3-.9-4.7 1-2.2 3.1-3 8.8-4.3 12.4-.1.3-.3 1.5.2 1.6.7.3 1.4.4 1.9.8.1.1.1.2.2.3 7.7 3 15.5 5.2 23.6 6.7.4.1.5-1.2.4-1.4 0-4.6 3.3-10.4 5.1-14.5.1-.3.5-1.8-.1-2-1.7-.8-4.7-2.7-6.5-.8zm6 2.6c-1.9 4.3-4.4 8.9-4.7 13.6-7.6-1.4-15-3.5-22.2-6.3-.1-.1-.1-.2-.2-.3-.8-.3-1.5-.6-2.3-.9.8-2.3 1.4-4.5 2.3-6.7.4-1.6 1.1-3.1 2-4.4 1 .1 1.8 0 2.7.2-.6 2.5-1.3 5.2-1.8 7.7-.1.3-.4 1.3.1 1.6 1.8 1.1 3.6 1.2 5 .1.4-1 .9-2 1.3-2.9.1-.3.1-.4.1-.7.6-1.2 1.5-2.1 2.8-1.2 1.9 1.4.2 4.4-.4 5.8-.1.3-.3 1.6.2 1.6 3.4.3 5 1.9 7.1-1.6.7-1.3.9-2.8 1.5-4.1.9-1.6 1.3-2.5 2.9-2.6.8.1 2.5.6 3.6 1.1zm-1.4-31.9c-3.8-4-9.5-1.8-12.5 2-1.8 2.1-5.8 8.1-4.4 11.1 1.2 2.6 7.4 4.7 9.8 6.1 4 2.4 8.2 4.7 12.1 7.2.6.3 1.2-1 1-1.6.6-2.5 1.7-4.8 3.5-6.6.3-.4.8-1.6.1-1.9-2.8-1.6-5.7-3.2-8.6-4.8 1.5-4 1.9-8.5-1-11.5zm-.4 11.5c-.2.4-.3 1.2.2 1.6 2.8 1.5 5.6 3.1 8.2 4.7-1.4 1.9-2.4 3.9-3 6.2-2.9-1.7-5.9-3.4-8.8-5.2-3.1-1.8-6.9-3.3-9.6-5.6-1.8-1.6-2.1-1.8-1.4-4.7.7-2.7 2.8-5.6 5.3-7.1 6.6-4.1 12.8 2.5 9.1 10.1z"/><path class="st0" d="M98.8 186.3c0 .2.1.3.2.3 1.8.9 3.5 1.8 5.3 2.7.5.3.8-1.5.8-1.7 0-.5 1.1-1.8 1.4-2.3.3-.7.5-1.5.3-2.2-.4-1.8-3.1-3-4.8-3-3 .2-5.1 4.1-3.2 6.2zm6.6-1.8c.2.8-.8 1.6-1.1 2.4.1.1 0 .1-.1.3-1.3-.7-2.7-1.4-4-2-2.2-1.2.2-2.6 1.6-2.6 1.2-.2 3.4.6 3.6 1.9zm33.4-17.1c-6.2-4-12.3-8-18.5-12-1.5-1-2.1-1.6-3.7-1.2-2.1.6-5.3 4.3-6.8 5.9-2.3 2.5-1.8 2.9 0 6.2 3.5 6.5 7.3 12.9 10.3 19.7.9-.7 1.8-1.2 2.9-1.8.1-.1.2 0 .3-.1 1.3-.7 2.4-1.6 2.7-2.6.7-2-1.5-3.7-1.9-5.5-.8-1.3-.6-2.2.7-3l1.8-1.5c.2-.1.6-.2.8.1.1.2.2.3.3.3l.1-.1c.6.3 1.1.8 1.7 1.3 1 .6 1.4 1.3 2.6.9 1.8-.3 5.3-5.1 5.9-5.3.3.2 1.4-.9.8-1.3zm-4.4 3.3c-.5.4-.9.8-1.4 1.3-.3.3-.6.7-1.1.7s-1.2-.4-1.7-.7-.9-.7-1.3-1.1c-1-.8-1.7-1.3-3.7-.4-1.3.7-3.2 2.6-3.4 4.1-.2.8.2 1.6.5 2.2 1.2 3.7 2.5 4.4-1.1 6.8-1.9-4-3.8-8-6-11.9-1-1.9-2.1-3.6-3-5.4-1.8-3.1-2.8-3.9 0-7 .6-.7 1.4-1.2 2-1.7.8-.5 1.2-1 2-1.3 1-.5 1.1-.3 2.1.2 1.3.7 2.5 1.6 3.7 2.5 1.3.9 2.5 1.7 3.7 2.5 3.6 2.4 7.3 4.7 10.9 7.1-.7.6-1.5 1.4-2.2 2.1z"/><path class="st0" d="M119.9 161.5c-.7-.6-1.1-1.1-2-.6-.6.2-1.1.7-1.5 1.2-2.3 3.3 1.1 6.9 2.8 9.5.5.8 1.6-.2 1.7-.9 1.4-1.2 2.6-2.2 4-3.4.3-.3.7-1.1.2-1.5-1.7-1.4-3.5-2.9-5.2-4.3zm-2.2 1.8c.3-.5.5-.5.8 0 .2.2.5.4.7.6.5.4.9.8 1.5 1.2.7.6 1.5 1.3 2.4 1.8-1 .7-1.9 1.6-2.8 2.4-1.5-1.9-3.8-5-2.6-6zm44.8-15.1c-3.9-1.9-6.1-6.2-8.3-9.8-2.4-3.9-4.7-8-6.9-12-.2-.5-.7 0-1 .2-6.1 5-11.9 10.2-17.5 15.6-.2.2-.8.8-.6 1.3 4.4 7 8.9 13.9 13.6 20.7.3-.2.5-.3.8-.5.2-.2.5-.5.6-.7l.1-.1c.3-.2.5-.5.8-.5 2.7-1.9 5.1-3.7 3.5-7-.6-1.3-8.7-10-2.9-9.4 1 .1 2.9 3.2 3.6 4.1 1.5 1.6 3.1 3.9 5.2 5 .3.1.7-.1.9-.3 2.2-1.8 3.5-3.7 6.8-4.6.4-.5 2-1.8 1.3-2zm-5.2 2.2c-.5.5-1 1.1-1.5 1.4-2.5 1.1-.8.6-2.8-.5-2.8-1.6-5.4-8.8-9.3-8.3-1.8.2-2.9 2.1-3.1 3.7-.7 6.4 10.3 9 2.3 15.2-3.7-5.2-8-10.6-11-16.3-2-4-.5-4.5 2.6-7.4 2.3-2.1 4.8-4.3 7.2-6.4 2.7-2.3 3.6-3.6 5.9-.5 1.7 2.3 3 5.2 4.5 7.7 2.1 3.4 4.3 7.7 7.7 10-.9.5-1.8.9-2.5 1.4zm22.1-23c-2 .1-3.8 2.1-5.6 2.9-.9.7-1.8 1.1-2.7 1.6-.3.2-.6-.1-.7-.3-.3-.7-.7-1.3-1-2.1-.3-.3-.3-.7-.2-1.2.2-.5 4.1-1.7 4.6-1.9.6-.2.9-1 .6-1.5-1-1.6-1.9-3.2-3-4.8-.2-.3-.8-.3-1.1-.1l-4.5 2.9c-.9-1.7-1-2 1.1-3.2 2-1 3.7-1.9 5.6-2.9.5-.2 1-1 .6-1.5-1.2-1.3-2.2-2.5-3.4-3.8-.4-.5-1-.2-1.3 0-3.8 2.7-7.7 4.7-12 6.3-.5.2-.8.6-.9 1-.6.2-1 .8-.9 1.4 1.5 4.2 3.4 8.4 5.5 12.5 1.3 2.5 3.1 7.8 5.5 9.2 1.3.7 3.6-.7 4.7-1.1 4.6-1.9 9.1-3.7 13.7-5.7.3-.2.9-.8.7-1.3-1.1-2-2.5-6.5-5.3-6.4zm2.9 6.8c-2.7 1.2-5.4 2.3-8.1 3.5-1.5.6-3 1.4-4.6 1.9-2.5 1-2.3 1.2-4-.7-4.3-4.7-7-12.9-9.2-18.8 4.2-1.5 8-3.8 11.7-6.1.8.8 1.4 1.6 2.2 2.4-2.6 1.1-6.6 2.5-7.6 4.3-.9 1.6.3 3.1 1.2 4.6.2.5.7.6 1.2.3.6-.4 3.4-2.5 4-2.5 1.1 0 2.1 1.5 2.6 2.8-1.6.6-3.2 1.3-4.6 2.3-.3.3-.5.7-.5 1.1.3 1.5 1.1 3.2 2 4.4.1.2.4.3.5.3 1.8-.2 3.1-1.1 4.8-1.9.9-.5 2.4-1.5 3.3-1.7 3.3-.7 4.3 1.6 5.1 3.8zm17.6-19.6c2.8-2.6 5.8-5.6 2.4-9.8-4.4-5.4-15.4.5-20.2 2.1-.5.1-.8.6-.8.9-1.7 2.3.9 6.3 1.6 8.7 1.4 4.4 2.8 9.3 5.1 13.4 1.5 2.7 2.8 2 5.9 1.6 3.9-.6 8-1.2 11.7-2.8 4.5-1.8 9.3-6.6 6.9-12-2.2-4.8-7.9-4-12.6-2.1zm8.6 10.5c-3.3 3.1-9.2 3.8-13.5 4.5-.9.1-1.8.2-2.7.4-1.8.5-2.8-.2-2.9-2.1-1.1-1.5-1.6-4-2.3-5.6-.7-2-5.6-12.2-4.2-13.9 3.8-1.4 12.4-5.1 15.7-3.5 7 3.3-.9 8.9-3.2 12-.7.9.3 1.4 1.1 1 2.5-1.5 8.4-4.6 11.5-2.5 3.7 2.4 3.7 6.8.5 9.7z"/><path class="st0" d="M194.5 116.1c1-.5 2.2-1.6 1.9-2.9-.2-1.2-1.4-2-2.6-2-1.6-.1-3 .6-4.3 1.5l-.1-.1c-.1-.7-2.1.2-2 .8.3 1.6.7 3 1.6 4.5.1.1.3.1.4.1 1.8-.5 3.5-1 5.1-1.9zm-4.7-2.6c1.4-.9 3.4-1.8 4.4 0 1.1 1.9-1.8 2.6-3.4 2.9-.4-.9-.8-1.8-1-2.9zm4.4 8.9c-.2 0-.4.1-.6.3-.7-.1-1.7.5-1.5 1.1.4 1.3.7 2.8 1.1 4.1.1.4.5.5.9.4 2.4-.2 4.7-.6 6.9-1.6 1.2-.5 3-1.5 2.9-3.1-.2-3.7-8-1.4-9.7-1.2zm4.3 3.5c-1.2.4-2.4.6-3.5.7-.2-.9-.5-1.8-.7-2.8 1.2-.2 2.4-.4 3.6-.5.9-.1 2.5-.7 3.3 0 1.5 1.3-2 2.4-2.7 2.6zm31.4-30.1c-1.2.1-2.6 1.2-3.7 1.7-4.2 1.8-11.4 4.8-15.9 3.1-.3-.1-.8.1-1.2.3v-.6c-.6-.1-1.1-.1-1.8 0-.2.1-.3.4-.3.5.2 1.6.7 6.6 2.4 7.6.8.5 2.5-.3 3.1-.4 2.1-.5 2.4-1.3 3.8.6.9 1.1.8 4.5 1.1 5.7.6 3.2.7 7.4 2.1 10.3 0 .2.2.2.5.2 2.6.1 5.3-1.2 7.7-1.7.3-.1 1.6-.5 1.3-1.1-1.7-3.6-4.5-8.4-4.8-12.5-.3-2.8-.1-2.8 2.6-3.8 2.1-.9 4.4-1.3 6.6-2 .3-.1 1.3-.5 1.1-1.1-.9-2.4-1.5-7-4.6-6.8zm-8 10.6c-1 1.4.6 4.3 1 5.6 1.1 3.5 2.6 6.8 4 10.1-1.2.4-2.3.7-3.4.9-3.3.2-2.7-2.5-3.1-5l-2.3-12.3c-.1-.3-.8-.1-1-.1-1.3.4-4.9 2.1-6.2 1.3-1-.6-1.5-3-1.7-5 3.3 1 6.6 0 9.9-.9 2.5-.8 5-1.5 7.3-2.7 1.8-.8 2.1-1.5 3.7-.4.9.6 1.5 3.1 2 4.6-3 .9-8.7 1.7-10.2 3.9z"/><path class="st1" d="M1147.2 38c.3.6.6 1.2 1 1.7 1.3 3-2 4.8-2 7.4 0 1.2.6 2.3.6 3.3.2 1.2.2 2.7-.4 3.8-1.1 2.4-5.8 5-8.7 5.4-1.4.2-2.7-.3-4.2-.2-3.4.1-7.6 1.6-11.7 2.9-4.3 1.4-8.7 3.1-12.3 5.1-1.1.6-2 1.5-3.2 1.6-1.5-2 .9-3.4 2-4.6 2.6-2.7 5.1-5.1 7.7-8.2 1-1.2 2.9-3.2 2.2-4.5-.9-1.5-4.1-.4-5.8.4-2.2 1.1-4.5 2.7-7 4-1.5.8-5.5 3.2-6.3 1.6-.5-1.1 1.5-2.8 2.6-3.8 3.6-3.6 7.7-7 11.1-10.6 2.2-2.3 3.8-5.1 6-7.5 2.3-2.4 4.3-4.9 6.5-7.3.6-.3 1.2-.7 1.8-1 .8-.1 1.7-.4 2.4-.5 3.5 0 7 1.4 9.1 5 .4.6.5 1.5 1 2 .7.9 3 1 4.1 1.6 1.8.5 2.7 1.4 3.5 2.4zm-24.1 18.8c.7-.6 2 .9 2.6 1.2 2.6 1.2 4.7-.7 7.9-1.3.8-.2 1.8.4 2.7.4 2.2.1 6.9-.8 8.5-3 1.6-2-.9-4.7-.6-7.3.2-1.9 2.2-3.1 2.6-5.1.2-1.8-.9-4.3-2.8-5.2-1.4-.8-3.9-.3-5.2-1.3-1.5-1.3-1.4-3-2.2-4.3-1.6-2.7-5.2-3.8-7.7-2.8-2.7 1.1-4 2.8-5.4 4.6-1 1.3-2.2 2.4-3.1 3.6-1.9 2.5-2.2 5.4-4.3 7.7-.4 0-.7-.2-1.1-.7-2.3 3.7-6.7 7.2-11 10.3-1.5 1.1-3.1 1.9-3.9 3.4 4.6-.2 10.3-5.6 15.3-7.6 2.6-1.1 5.1 2.7 4.5 5.1-.7 3.1-6.5 6.7-9.6 9.2-.9.8-2.5 1.7-2.3 2.9 1.3.3 2.6-.7 3.9-1.4 4.1-2.2 8.5-4.2 12.1-5.6.1-1-1.8-1.9-.9-2.8z"/><path class="st1" d="M1137.8 34.9c.4 1.8.6 3.4.4 4.9 1.8.6 3.6 1.7 4.9 4.4-1.7-1-3-2.8-5.1-2.4-.7 2-.7 4.3-2.9 6-.3-.4.1-1 .2-1.4.4-1.7 1.3-4.5-.2-6.5-1-1.4-2.9-2.1-4.3-2.6-.4-.1-1-.1-1.1-.5 2.7-.9 5.2-.7 6.7 2.3 1.6-1.1 1-2.8 1.4-4.2z"/><path class="st2" d="M194.4 79c.8.7 2 .8 3.1.6 1.1-.3 2-.9 2.9-1.6 10.1-7 19.7-14.6 28.9-22.7l.3-.5c.1.1.2.2.3.4 1.9-1.9 5.4-3.4 5.6-5.8 5.4-3 12.5-7.5 16.4-10.8 1.1 1.2 2.5 1.6 3.7 2.3-.7.1-1.9-1-2.2-.6 2.8 1.6 4.8 1.1 8.1 1.8 9.5-2.7 12.6-12.8 7.3-20.1-1.9-2.5-5.3-4.9-8.5-5.2-6.6-.6-13.3 6-13.1 12.2.4 1.1.3.8.1 1.7.4 1.5 1.5 3.9 2.8 6.3-.2-.3-.4-.7-.6-.3-3.8 3.8-10.3 6.9-15.4 10.4-.7.1-1.6.3-2.7.7-4.7.7-9.1 3.4-13.1 6.2-4.8 3.4-9.5 6.9-14.2 10.5-3.3 2.6-6.6 5.2-9.1 8.6-.6.9-1.3 1.9-1.5 2.9 0 1.1.1 2.3.9 3z"/><path class="st0" d="M574.2 427.8c-.1-.7-.2-1.4-.5-2.1-.7-1.6-.9-3.4-2-4.9-1.2-1.6-2.4-3-4.1-3.9-2.4-1.4-4.7-2.8-7.5-3.3-1-.2-2.2 0-3-.5-1-.6-2 .1-2.8-.5s-1.9 0-2.6-.8c-3.4-.1-6.8 0-10.1.9-.3.1-.4.8-.8-.2-.8-2.2-1.5-4.4-2.4-6.5-.8-1.9-1.3-3.8-2.1-5.7-.8-2-1.3-4-1.9-6-1.3-3.9-2.6-7.9-3.9-11.8-.5-1.5-1-2.9-1.4-4.4-.4-1.2-.8-2.4-1.1-3.6-.3-1.3-1.1-2.5-1.1-3.9-1.2-1.7-1.5-3.8-2.4-5.6-.9-1.9-1.7-3.9-2.4-5.8-.7-2-1.5-4.1-2.3-6.1-.9-2.1-1.6-4.2-2.3-6.3-.9-3-1.8-6-3.3-8.9-.3-.6-.6-1.4-.9-2.1-.5-1.2 1.1-1.2 1.2-2.1v-.2c1.3-2 2.3-4.1 3.2-6.4s1.4-4.6 1.7-7c.4-2.6-.4-5.2-.4-7.8-.8-.8-.3-1.8-.6-2.7-.6-1.8-1.1-3.6-1.7-5.4-.4-1.4-.8-2.9-1.2-4.3-1.2-3.7-2.8-7.2-4.6-10.6-.8-1.5-1.8-2.7-3-3.8-.5-.4-1-.8-1.6-1.1-.6-.4-1.2-.8-1.7-1.3-1.9-1.8-3.9-3.5-6.4-4.4-.9-.4-.7-.8-.5-1.3.5-1.1.7-2.4.7-3.5.2-2 .1-4.1 0-6.1-.1-2.1.3-4.1-.4-6.2-.3-.8.3-2-.1-2.7-.6-1 0-2-.4-2.8-.4-.9-.2-1.7-.5-2.6-.5-1.6-.6-3.3-1.3-4.9-.7-1.6-1.1-3.3-1.9-4.9-.8-1.7-1.2-3.4-2.3-5-1.7-2.4-3.6-4.8-5.7-6.9-.7-.7-.3-1.2-.1-1.6 1.1-2.1 1.9-4.2 1.8-6.6 0-.2-.1-.5 0-.7.7-2.7.7-3.7 0-6.2-.8-2.7-.6-2.6 1.5-4.1 1.2-.9 2.5-1.7 3.7-2.6 1.7-1.4 3.3-3 5-4.5.3-.3.6-.8 1-.9 1-.3 1.4-1.1 2.1-1.6.7-.6 1.5-1.1 2.2-1.8 2-1.9 4.2-3.6 6.5-5.1l3-2.1c2.5-1.8 5.1-3.6 7.5-5.4 1.8-1.3 3.6-2.6 5.1-4.1 2.4-2.3 4.1-5.2 5.7-8.1 1.5-2.8 3.1-5.4 5-7.9.6-.7 1.3-1.5 1.4-2.4.2-2.1 1.2-4 1-6.2-.2-1.8 0-3.6 0-5.5 0-1.5.1-2.9-.4-4.4-.6-1.7-.8-3.6-1.7-5.2-.7-1.4-.9-2.9-1.6-4.4-.9-2.1-2-4-3-6-1.6-3.2-4.1-5.8-6.3-8.5-1.7-2.1-3.8-3.8-5.5-5.9s-3.7-3.8-5.6-5.6c-1.1-1-2.3-1.8-3.5-2.6-1.1-.7-2.4-1.2-3.5-1.9-1.2-.8-2.7-1.4-3.4-2.5-.9-1.3-2-2.3-2.9-3.5-1.1-1.7-2.7-3.2-4.7-3.9-.9-.3-1.7-.6-2.5-1.2-1.6-1.3-3.3-2.6-5.1-3.7-1.6-.9-3.1-1.7-4.4-3.1-.5-.6-1.5-.5-1.8-.1-.9 1.2-1.6.4-2.4 0-.6-.3-1.1-.8-1.6-1.1-1.9-1.3-3.7-2.7-5.6-4-3.1-2.1-6.4-3.9-9.8-5.5-2.5-1.1-4.4-2.8-6.2-4.8-.5-.6-.9-1.4-1.5-1.9-.9-.8-2-1.4-3-2.1-1.7-1.1-3.3-2.5-5.2-3.4-1.7-.8-3.5-1.5-5.2-2.2-1.9-.8-3.9-.4-5.7-1.1-5.9-.2-11.7.4-17.6-.4-1.2-.2-2.4-.4-3.6-.7-1.2-.3-2.3-.4-3.4 0-.2.1-.5.1-.8 0-1.3-.4-2.6-.8-3.8-1.2-1.3-.4-2.7-.7-3.7-1.4-2.3-1.6-4.8-2.7-7.1-4.4-2.5-1.9-5.3-3.5-8.3-4.6-.9-.4-1.7-1-2.6-1.3-.7-.3-1.5-.4-2.3-.5-.9-.1-1.8 0-2.7 0-1.6-.1-2.7.9-3.5 2-.6.9-1.1 2.1-.2 3.2.1.1 0 .5-.1.6s-.4.1-.6 0c-.9-.3-1.7-.7-2.6-.8-1.8-.1-3.7-.5-4.8 1.5-.1.2-.6.3-.7.2-1.5-1.2-3.3-2-4.9-3-2-1.3-4-2.8-6.3-3.5-2-.7-3.8-1.9-6-2-.7-.8-1.7-.2-2.5-.6-1.9-1-4.1-1.3-6.1-1.6-2.6-.4-5.3-.1-8-.1-.7 0-1.3-.1-1.9.4-.1.1-.7.1-.8-.1-.4-.5-1-.3-1.5-.3-1.6.1-3.2-.2-4.8.4-.8.3-1.8.3-2.8.5-.9.2-1.9.3-2.8.5-.6.1-1.1.4-1.6.4-1.8.3-3.6.6-5.5.5-.3 0-.6.4-1 .4-1.3.1-2.1 1.2-3.1 1.9-1 .6-2 1.1-2.9 1.8s-2 1.2-2.8 2c-1.3 1.5-3 2.3-4.5 3.5-1 .8-1.9 1.8-3 2.6-1.6 1.2-3.2 2.3-4.6 3.7-2.5 2.6-5.1 4.9-7.1 7.9-1.2 1.8-2.5 3.7-3.6 5.6-1.7 2.9-2.8 6.1-4.5 9.1-1.2 2.1-2.6 4.2-2.8 6.8-1.8 3.7-3.2 7.6-5.3 11.2-1.9 3.3-4.1 6.5-6.7 9.3-2.7 2.9-5.3 5.8-7.8 8.8-1.5 1.8-2.8 3.6-3.4 5.9-.3.9-.5 1.9-.4 2.8.1 1-.4 1.8-.5 2.8-.2 1.6-.5 3.1-.9 4.6-.1.3-.6.8-.9.8-1.5-.1-2.5.9-3.7 1.5-2.3 1-3.6 3-4.4 5.3-1.2 3.3-2.4 6.5-4.7 9.2-1.1 1.3-1.9 2.8-3 4.2-1.7 2.2-2.9 4.7-4.7 6.7-.6.7-1.1 1.5-1.6 2.3-1.1 1.7-1.8 3.6-3.4 5-.7.6-1.1 1.5-1.7 2.3-.2.3-.5.6-.8.9 0-.4-.2-.9-.1-1.3s.3-.8.5-1.2c1.2-2.5 2.7-4.9 4.3-7.1.9-1.2 2-2.4 2.7-3.7.9-1.6 2.1-3 3-4.6 1.1-1.8 2-3.6 3.2-5.3 1.7-2.3 3.4-4.7 4.5-7.5.2-.6.5-1.1.3-1.6-.1-.3-.6-.8-.9-.8-1.1 0-2.2-.2-3.2.4-.7.4-1.6.6-2.3.9-.8.3-1.8.5-2.5 1.1-2.1 1.6-4.1 3.4-6.1 5.1-1.5 1.3-2.4 3.1-3.7 4.6-1.9 2-3.6 4.1-5.3 6.2-1.9 2.3-3.5 4.9-5 7.5-.8 1.4-1.6 2.8-2.5 4.2-.2.3 0 1.2-.9.8-.1 0 .2-.7.2-1.1.2-1 0-2 .3-3.1.5-2.2 1.3-4.3 1.2-6.6-.2-2.3 0-4.5 0-6.8-.1-3 .2-6.1-.4-9.1-.4-2-2.8-3.6-4.5-2.6-1.2.8-2.6 1.6-3.3 2.9-.9 1.7-1.6 3.6-2.3 5.4-.4 1-.3 2-.4 3-.1 1-.5 2-.4 3 .2 5.9-.8 11.7-.5 17.6 0 .8-.2 1.3-.8 1.7-3 2.4-4.8 5.7-7.2 8.6-.8 1-1.5 2.2-2 3.5-.8 2.3-1.9 4.5-2.8 6.8-.5 1.3-1.1 2.7-.9 4.2.1.9.1 1.8-.2 2.7-.3 1.4-.8 2.8-.7 4.2.1 1 0 2 0 3 .1 1.8-.6 3.2-1.8 4.5-1.1 1.1-2 2.3-2.3 3.8-.1.3-.2.5-.4.7-1.8 1.6-3.3 3.7-5.4 5-.9.6-1.7 1.3-2.6 2.1-2.4 2.2-4.8 4.5-7.2 6.7-.8.7-1.5.7-2-.1-.6-.8-1-1.7-1.6-2.5-.9-1.2-1.7-1.3-3-.3-1.1.9-2.3 1.9-3.3 2.9-8.1 8-16 16.2-24.4 24-1.9 1.8-3.8 3.5-5.8 5.3l-.2.2c-3.4 2.4-6.7 5.1-9.6 8.2-1.7 1.8-3.4 3.6-5 5.4-1.4 1.7-2.8 3.3-4.1 5.1-2.1 3-4.1 6-6 9.1-1.4 2.2-2.7 4.6-2.6 7.3 0 .3 0 .7-.1.8-1.2 1.2-.6 2.5-.1 3.7.1.2.2.4.2.6.2 3 1.3 5.8 2.6 8.5 1.4 3.1 2.9 6.1 5.1 8.8 1.4 1.8 4.4 5.1 6.9 6.8 1.8 1.2 3.6 2.6 6 2.6 1 .8 2.3.1 3.2.5 1.2.5 2.3.2 3.5.4 1.1.2 2.3.5 3.5.5 3.3-.2 6.6.4 9.8-.4 1.3-.3 2.7-.1 3.9-.6 1.3-.5 2.7-.7 4-1.3 1.3-.5 2.7-.8 4-1.3l4.8-1.5c2.1-.7 4.3-1.2 6.4-2.2 1.4-.7 3-1.3 4.5-1.8 1.9-.7 3.8-1.4 5.8-1.9s4-.9 6-1.4c2.7-.6 5.3-1.5 7.8-2.5 2-.8 4.1-1.3 6.2-1.6 1.2-.1 2.3-.4 3.4-.7 1.7-.4 3.4-1 5-1.6 2.1-.8 4.3-1.5 6.4-2.1 4.4-1.2 8.5-3.2 12.7-4.9 2.3-1 4.8-1.7 7.3-2.1 1.7-.3 3.5-.7 5.1-1.4.8-.4 1.1-.1 1.2.4.7 2.2 1.6 4.4 2.6 6.5 1.5 3.3 3.3 6.4 5.2 9.5 1.4 2.3 2.5 4.6 4.1 6.7 2 2.8 4.3 5.3 6.4 8 1.2 1.6 2.5 3.2 3.7 4.8.5.7 1.3 1.3 1.7 2 1.4 2.3 3.4 4.2 5 6.3.9 1.2 2.2 2.1 3.2 3.2 1.2 1.2 2.3 2.5 3.4 3.8 1.4 1.7 2.6 3.5 4 5.2 1.5 1.8 2.3 4.1 3.1 6.2.6 1.6 1.1 3.3 1.6 5.1.4 1.6.6 3.3 1.2 4.9.5 1.5.8 3.1.9 4.6.2 1.7.2 3.3 0 5-.1 1.2-.4 2.6-1.1 3.6-1.5 2.3-2.6 4.8-4.3 6.9-1 1.3-2.5 2.1-3.1 3.7-.1.2-.3.4-.5.5-2 1.1-3.3 3-4.9 4.5-6.1 5.8-11.6 12.1-18 17.6-2 1.7-3.8 3.6-5.4 5.7-1.7 2.2-3.9 3.9-5.6 6.1-1.5 2-3.4 3.7-4.8 5.8-2.8 4-5.2 8.3-7.4 12.6-2.1 4-4.1 8-5.9 12.1-.9 2-1.6 4-2.4 6.1-.7 1.9-1.2 3.7-1.8 5.6-.5 2-1.3 3.9-1.4 6-.9.8-.1 2.1-.8 3.1-.5.7 0 1.1.9 1.1h1.4c1.5 0 1.7-.2 1.7-1.6 0-.4-.1-.8 0-1.1.7-2 .8-4.2 1.4-6.3.6-2 1.1-3.9 1.7-5.9.4-1.3 1-2.5 1.4-3.8.6-2.2 1.5-4.3 2.5-6.2 2.7-5.4 5.3-10.9 8.3-16.1 1.2-2.1 2.6-4.1 4.1-6 1.8-2.3 3.5-4.7 5.6-6.8 4.9-5.1 10-10.2 15.1-15.1 5.1-5 9.8-10.2 15.2-14.8 1.8-1.5 3.3-3.5 4.8-5.3.7-.8 1.2-1.6 1.7-2.5 1.4-2.3 2.9-4.6 4-7 .9-1.8 1.5-3.9 1.4-6v-4.1c0-.6.3-1.2-.4-1.7 0-1.7-.9-3.3-1-5-.1-.9-.1-1.9-.5-2.7-1.1-2.8-1.9-5.7-3.1-8.5-1.4-3.2-3.4-6-5.7-8.5-3.1-3.5-6.6-6.6-9.5-10.4-1.4-1.9-3.2-3.6-4.6-5.6-2.6-3.8-5.6-7.2-8.5-10.8-1.2-1.4-2.3-2.9-3.1-4.6-.7-1.5-1.5-3.1-2.4-4.4-1.1-1.7-2-3.4-3-5.1-1.5-2.6-2.6-5.5-3.7-8.2-.5-1.1-.7-1.9.3-2.7.1-.1.1-.4.2-.6.3-.6.2-1-.4-1.1-.4-.1-1.2 0-1.2-.2-.1-.7-.5-.7-1.1-.8-1.4-.2-2.2.8-2.6 1.7-.6 1.1-1.4 1.3-2.4 1.5-1.6.3-3.2.6-4.8 1.1-3.2.9-6.4 2.1-9.4 3.5-2.2 1-4.5 1.9-6.9 2.7-2.8.9-5.5 1.8-8.2 2.7-2.6.8-5.1 2.1-7.9 1.9-.8 1-2.2-.1-3 .9-2 .2-3.7 1.2-5.6 1.9-3.4 1.2-7 1.8-10.5 2.7-1.7.4-3.4.8-5.1 1.5-1.7.7-3.3 1.5-5.1 2.1-4 1.2-7.9 2.9-12.1 3.8-1.5.4-3.2.8-4.5 1.7-1.8-.1-3.3.9-5.1 1.1-1.5.1-3.1.7-4.7.7-2.3.1-4.7 0-7.1 0-.5 0-1.1.2-1.3 0-.9-.8-1.9-.3-2.8-.4-.9-.2-1.8-.4-2.8-.4-2.8 0-5.3-1.2-7.5-2.7-2-1.4-4-2.8-5.5-4.8-1.2-1.6-2.4-3.3-3.4-5-1.2-2.1-2.3-4.2-3.2-6.4-.6-1.5-1.6-2.9-1-4.7.1-.2.1-.5 0-.7-.9-1.1 0-2.6-.9-3.7-.2-3 .5-5.7 2.2-8.2 2.2-3 4.1-6.2 6.3-9.2 1.7-2.3 3.6-4.5 5.4-6.6 2.4-2.7 5-5.1 7.9-7.1 1.1-.8 2.2-1.8 3.2-2.7 1.1-1 2.2-2 3.3-2.9 2.8-2.4 5.5-5.1 8.2-7.7 5.3-5.2 10.5-10.5 15.8-15.8 1-1 2-1.9 2.9-2.9.5-.5.8-.5 1.3 0 1.5 1.6 2.8 3.4 4.2 5.1 1.7 2.1 3.3 4.4 4.8 6.6.5.7 1.3 1.1 1.7 1.8.9 1.4 1.8 2.6 2.9 3.8l6.3 6.3 1 1c.5.5.3.6-.3 1-1.2 1-2.8 1.2-3.8 2.3-.5.5-.9.4-1.3-.1-.5-.7-.9-.4-1.5 0-1.6.9-2.5 2.1-2.9 3.8-.1.3-.2.7-.4 1-.7.9-1.3 1.7-2.1 2.5-.7.8-1.2 1.6-1.7 2.5-.5.8.2 1.1.4 1.1.6.1 1.3.2 1.8-.5.4-.5.9-1 1.4-1.5.1-.1.3-.1.5-.2 0 .2 0 .4-.1.6-.6 1.4-1.2 2.8-1.7 4.3-1 3-2.4 5.9-4.3 8.5-.9 1.3-1.9 2.5-2.9 3.8-.2.3-.5.9-.4 1.2.2.7 1 .5 1.6.5.2 0 .5-.3.7-.5 2.4-2 4.2-4.5 5.6-7.2 1.5-2.8 2.9-5.6 4.1-8.5.9-2.1 1.1-4.4 1.9-6.5-.4-1.2.6-1.4 1.3-1.8l.6-.3c1.7-1 3.5-1.9 5-3.2.1-.1.4-.1.6-.1 0 .2 0 .4-.1.5-.5.5-1 .9-1.4 1.5s-.7 1.2-1 1.9c-.1.3 0 .9.5.7 1-.3 1 .7 1.1 1 .9 2.5 1.7 5.1 2.4 7.6.2.7.6 1.3.5 2.1-.2 1.1.4 2 .5 3 .1 1.1 0 2.2.4 3.2.2.6.2 1.4-.4 2.1-.3.3-.4.8-.5 1.2-.1.6.5 1.4 1 1.2.8-.4 1.8-.7 2.3-1.4.9-1.2 1.7-2.6 1.7-4.3 0-1.2-.3-2.3-.5-3.5-.2-1.4-.1-2.8-.5-4.1-1.1-3.4-1.6-6.9-3.1-10.1-.8-1.7-.6-1.7.7-3.1.5-.5.8-1.2 1-1.8.2-.6-.5-.8-.7-1.3-.3-.8-.3-1.6-1.4-1.4-.2 0-.4-.4-.6-.6-.5-.4-.4-.7 0-1.3 1.4-1.8 3.7-2.6 5.3-4.3 3.5-1.8 6.1-4.7 9.2-7 2.5-1.9 5-3.8 7.8-5.4 1.4-.8 2.9-1.6 4.1-2.8 1.1-1.1 2.1-2 3.6-.9.3.2.7 0 1.1 0h4.8c1.7 0 3.4.1 4.9-.8.2-.1.6-.1.9-.1 2.3-.1 4.3-.8 6.3-1.7 2.2-1 4.6-1.8 6.6-3.3.7-.6 1.6-1 2.4-1.4 1.7-.8 3.6-1.4 5.2-2.3 1.6-.9 3.3-1.2 5-1.7.7-.2 1.5-.2 2.3-.5s1.6-.5 2.5-.5c.7 0 1.5-.9 2.1-.8.8.1 1.4-1.1 1.9-.3.2.3-.5 1.1-.7 1.7-.6 1.8-2 3.3-2.1 5.3 0 .2-.2.4 0 .7.7.8 1.1.9 1.9.2 1.2-1 2.3-2.1 2.3-3.8 0-.2.2-.4.2-.5l.5.5c.1.1.2.2.2.4.1 1.1 0 2.1.4 3.3.3 1.1.4 2.3.5 3.4.1 2.5 1.1 4.9 1 7.4.8 1 .3 2.1.6 3.2.4 1.5.9 3 1.2 4.5.7 2.6 1.3 5.2 2 7.8.5 1.9 1 3.7 1.2 5.6.1.8.3.8 1 .8s1.3-.1 1.8-.6c.6-.6 1.4-1.1 2-1.6.7-.5 1.4-1.1 2.1-1.6.6-.4 1.2-.9 1.7-1.3.6-.5 1.3-.9 1.9-1.5 1-1.1 2.4-1.1 3.6-1.7 1.1-.6 2.2-1.4 3.6-1.2.2 0 .5-.3.7-.4.7-.4 1.6-.5 2.4-.9.6-.4 1.1 0 1.1.8v25.2c0 .5-.1.9 0 1.4.1.6.8 1.2 1.5 1.2 1.4.1 2.7-.4 3.9-1.1 3.2-1.7 6.5-2.5 10.1-2.5 6.7-.1 13.3 0 20 0 1.2 0 2.5.3 3.7.4.2 0 .4.3.5.3 2.3.3 4.5 1.3 6.9 1.1 1.3-.1 2.6 0 3.9 0 .4 0 .9 0 1.3.1 2.5.6 4.8 1.8 7.5 1.7 1.1 1 2.5.2 3.8.8 1.2.5 2.7.3 4.1.6 1 .2 2.1.5 3.1.7 1.5.4 3 .7 4.6 1 .6.1 1.2.1 1.8 0 .6 0 1.1.2 1.6.4.6.2 1.4-.1 1.8.6s.8-.3 1.4 0c2.1.9 2.2.8 4 2.8 1.6 1.7 3.1 3.4 4.7 5.1.7.8 1.2 1.6 1.8 2.4 1.3 1.8 2.4 3.7 3.5 5.6s2.4 3.8 3.2 5.9c.5 1.4 1.2 2.9 1.8 4.3.6 1.4 1 2.9 1.4 4.4.4 1.3 1.2 2.4 1.5 3.7.7 2.7 1.7 5.3 2.6 8 1.4 4.5 2.9 9 3.8 13.7.3 1.6.7 3.3 1.3 4.9.6 1.6 1.1 3.2 1.3 4.9.3 1.9 1.3 3.7 1 5.8.6.4.4 1.1.5 1.6.1.6.4 1.1.4 1.6-.2 3.4.3 6.8-.3 10.3-.4 2.3-1.3 4.3-2 6.5-.6 1.9-1.5 3.8-2.2 5.7-1 2.5-1.8 5-3 7.4-1.4 2.8-2.7 5.7-4 8.6-.8 1.7-1.4 3.5-2 5.3-1.3 3.3-2.5 6.7-3.8 10-.8 1.9-1.6 3.9-2.5 5.8-.7 1.6-1.3 3.2-1.9 4.9-.6 1.7-1.2 3.3-1.7 5s-1.2 3.4-1.4 5.1c-.2 1.9-1.2 3.6-1 5.5-.9 1.5-1 3.3-1.2 4.9-.3 1.8-1.3 3.6-1 5.5-.8.7-.4 1.8-.8 2.6s-.3 1.8-.5 2.7c-.2.9-.7 1.7-.9 2.6-.2.9-.2 1.9-.5 2.8-1.4 4-2 8.3-3.1 12.4-1 3.7-1.7 7.4-3.1 11-.9 2.2-.8 2.2 1.5 2.1.8 0 1.3-.2 1.6-1.1.4-1.1 1-2.2 1.3-3.3.6-2.3 1.4-4.6 1.9-7 .5-2.5 1.4-4.9 1.8-7.4 1-.7-.1-1.9.8-2.6.7-2.7 1.3-5.4 2-8.1.5-2.1 1.1-4.3 1.6-6.4.5-2.2 1.1-4.4 1.6-6.6.4-2.2.7-4.4 1.4-6.5.3-1 .3-2 .5-3 .3-1.5.6-2.9 1.1-4.3 1.3-3.4 2.2-6.9 3.7-10.3 1.1-2.5 2.1-5 3.1-7.6.9-2.2 1.7-4.5 2.5-6.7 1.2-3.6 2.5-7.1 4.1-10.6 1.6-3.4 3.3-6.8 4.7-10.3 1.4-3.5 2.7-7.1 4.1-10.6 1.4-3.4 2.3-7 2.1-10.7-.1-1.7 0-3.3 0-5-.1-1.4-.2-2.8-.6-4.1-.6-1.9-.8-3.9-1.2-5.9-.2-1-.5-2.1-.8-3.1-.4-1.4-1.1-2.8-1.4-4.2-.3-1.5-.7-2.9-1-4.4-.3-1.9-.9-3.7-1.4-5.6-1.1-3.9-2.5-7.8-3.8-11.6-.6-1.9-1.1-3.9-1.7-5.9-.8-2.6-2.1-5.1-2.4-7.9 0-.4-.4-1.1-.8-1.2-1.1-.2-1-1.2-1.5-1.7-.5-.7-.8-1.7-1.2-2.4-1.2-2-2.5-4-3.7-6-1.4-2.3-2.8-4.5-4.7-6.5-.5-.6-1.1-1-1.6-1.6-.6-.8-1-1.7-1.6-2.5s-1.5-1.3-2.2-2-1.4-1.5-2.1-2.3c-.3-.3-.5-.7-.8-.8-1.4-.2-1.2-1.3-1.2-2.2 0-.6.2-1 .4-1.4.3-.5.5-1.1.5-1.6 0-1.4.5-2.7 1.1-3.9 1.3-2.6 3-5.1 4.2-7.8 1.5-3.6 3.9-6.5 6.6-9.3 2-2.1 4.2-4.2 6.3-6.3.3-.3.6-.5.8-.8.3-.5.5-1 .6-1.5 0-.2-.5-.5-.7-.8-.3-.3-.7-.5-1-.8-1-.8-2-1.5-2.9-2.3-1.1-.9-2-2-3.2-2.7-3.3-2-5.8-4.9-8.9-7.1-.6-.4-.3-.8.1-1 1.4-.6 2.8-1 4.1-1.5 2-.7 4.1-1.3 5.5-3.1.9-1.2 1.1-1.8 0-2.8-1.8-1.7-3.7-3.4-5.6-5.2l-.3-.3c-1-.3-1.5-1.2-2.2-1.8-.6-.6-1.1-1.4-1.6-2-.5-.7-1.1-1.3-1.6-2.1-1.1-1.6-2.3-3.1-3.4-4.7-1.2-1.6-1.9-3.6-3.5-5-.3-.2-.3-.7-.5-1.1.4-.1.9 0 1-.2.6-.7 1.3-.4 1.9-.4.7-.1 1.6.2 2.2-.1 1.2-.5 2.3-.4 3.6 0 1.2.4 2.6.5 3.9.5 2.3.1 4.7 0 7.1 0 1.8 0 3.6-.6 5.2-1.2 2.5-.9 4.8-2.3 6.6-4.3.8-.9 1.7-1.7 2.6-2.6 1.5-1.4 2.7-3 3.7-4.8.7-1.3 1.5-2.7 3.3-3.2 1.9-.5 3.5-1.7 5.3-2.5 1-.4 2-.7 3-1.1 2.2-.7 4.4-1.5 6.6-2.2 4.2-1.3 8.5-2.5 12.4-4.7 1.9-.2 3.4-1.3 5.2-1.8 2.8-.8 5.4-1.9 8.2-2.7 1.4-.4 2.9-.8 4.4-1 .9-.1 1.9-.1 2.7-.5 1.8-.7 3.6-1 5.4-1.2 2.7-.3 5.2-1.2 7.8-1.5 1.1-.9 2.5-.3 3.8-.8 1.8-.8 1.9-.5 1.9 1.4v3.9c0 .3-.1.7.1.9.2.3.5.8 1.1.6 1.4-.5 2.9-2.4 2.9-4v-2c0-1.3-.3-2.7 1.2-3.6.3-.2.4-.6.5-.9.3-.8.1-1.6-.8-1.7-1 0-.7-.3-.5-.9.2-.4 0-.9 0-1.4 0-.2.2-.3.3-.5.1.2.1.4.2.6.1.2.2.7.3.7 1.1-.1 1.5.8 2.2 1.4 1.5 1.4 3.1 2.6 4.9 3.5 1.1.6 2.3 1.1 3.7 1 .8 1 1.6.2 2.3 0 1.2-.4 1.6-1 1.9-1.9.4-1 .2-1.3-.9-1.8-.4-.2-.7-.4-1.2-.4-.9-.1-3.4-1.1-4.1-1.6-.5-.3-1.2-.6-1.3-1-.3-.8.9-.5 1.1-1s.5-.9.8-1.3c.6-.6.2-1-.2-1.3-1.2-.8-2.7-1-4-.4-1.1.5-1.8.2-2.5-.6-3.4-3.6-6.9-7.2-10.3-10.8l-.3-.3c-1.7-2.5-3.7-4.8-5.5-7.2-1.5-2-2.8-4.2-4.7-5.8-.6-.5-.5-1.2.2-1.7.5-.4 1.1-.7 1.6-1.1 1.3-1.2 2.7-2.2 4.1-3.2s2.4-2.4 3.8-3.4c.7-.5 1.1-1.4 1.6-2 1.3-1.5 2.7-3 4-4.5.6-.7 1.2-1.5 1.6-2.3 1.9-3.2 3.7-6.4 5.9-9.4.8-1.1 1.6-1.8 2.7-2.4.5-.3 1.1-.4 1.7 0 1.2.9 2.4 1.8 3.7 2.7 1.1.8 2.1 1.9 3.4 2.2 1.2.4 2.3.9 3.2 1.5 1.1.7 1.9 1.8 2.7 2.8 2.2 3.1 5.1 5.4 8.4 7.1 1.9 1 3.8 2.1 5.3 3.8 2.4 2.7 5.2 5 7.4 7.8 1.9 2.3 3.9 4.4 5.8 6.7 2.5 3.3 4.3 6.4 6 10.5.7 1.6 1.3 3.3 1.9 4.9.9 2.2 1.7 4.6 1.7 7v4.8c0 1 .1 2 0 3-.1.9-.3 1.9-.5 2.8-.1.5-.3 1-.5 1.4-.4.6-.9 1.2-1.3 1.8-1.4 2-2.9 3.8-3.9 6.1-.5 1.3-1.3 2.5-2.1 3.7-.9 1.3-1.6 2.8-2.8 3.8-2.1 1.8-4.4 3.5-6.8 5-1.5.9-2.8 2.1-4.2 3-2.3 1.6-4.6 3.2-6.8 4.9-1.9 1.4-3.6 3.1-5.4 4.5-2.5 2-4.8 4.2-7.2 6.2-1.6 1.3-3.2 2.6-4.8 3.8-.5.4-1.2.8-1.9.9-1 .2-.9-1-1.4-1.4-.2-.1-.3-.3-.5-.5-.4-.4-.9-.8-1.3-1.3s-.7-1.2-1.2-1.5c-.2-.1-.3-.3-.3-.4-4.4-3-8.4-6.7-12.4-10-4.6-3.9-9.4-7.6-13.9-11.5-.2-.1-.4-.1-.5-.1-.2 0-.4-.1-.6-.2-1.5-.8-3.1-1.3-4.6-2.1-2.3-1.2-4.7-1.7-7.2-1.8-.6 0-1.2.1-1.7-.4-.1-.1-.8 0-1 .2-.8.6-1.7.7-2.6.8-.6.1-1.3.3-1.9.5-.8.3-1.5.7-2.3.9-.9.3-1.5 1-2.4 1.3-1.1.3-2 1.4-2.9 2.3-.9.8-1.6 2-2.6 2.5-2.4 1.2-3.2 3.8-5.2 5.3-.2.1-.2.5-.3.8-.5 1-1.1 2-1.5 3-.4 1.1-.8 2.3-.9 3.5-.1 1.7-.2 3.4.3 5.1.3.9.7 1.7 1 2.6.5 1.7 1.4 3.2 2.3 4.7.6 1.1 1.4 1.9 2.3 2.7 1.4 1.4 2.7 3 4.2 4.1 2.6 2 5.3 4 7.6 6.3 2.5 2.5 5 4.9 7.8 7 3 2.2 5.8 4.6 8.9 6.6.7.4.7.8.2 1.4-.8.9-1.7 1.8-2.6 2.6-.7.6-1.2 1.6-2.2 1.8l-1.2-2.4c0-.1-.1-.1-.1-.2-1.1-1.9-2.1-1.8-3.6-.7-.7.5-1.3 1.2-1.9 1.9-.6.6-.4 1.3.3 1.9.5.4.8 1 1.1 1.5.2.4 0 1 .5 1.4.2.2.4.9.3 1-.6.6.4.8.3 1.3-.1.6.2 1.7.7 1.9.9.4.8 1 1.1 1.6.8 1.6 1.3 3.3 2 4.9 1.1 2.5 1.9 5.1 2.5 7.8.5 2.4 1.4 4.7 1.4 7.2.9 1.3.1 2.8.5 4.1.4 1.4.4 2.8.4 4.1 0 2.5-.1 5 0 7.5.2 2.5-.6 4.9-.5 7.3 0 1.1-.6 2.3-.4 3.5-.9.6-.2 1.7-.6 2.5-.9 1.9-1.1 4.1-1.7 6.1-.6 1.9-1 3.8-1.6 5.7-1.5 4.9-3.5 9.6-5.7 14.2-.4.8-1.1 1.6-1.3 2.4-.3 1.9-1.5 3.5-2.2 5.2s-1.4 3.5-2.3 5.2c-.9 1.8-2.2 3.5-2.5 5.6-2.2 4.1-3.2 8.7-4.9 13-1.2 3-2.1 6.1-3 9.3-.6 2.2-1 4.4-1.1 6.5-.3 3.8-.1 7.6-.1 11.4 0 1.1.3 2.2.4 3.2 0 .2.3.4.3.5.9 3.6 2.7 6.9 4.2 10.3 1.2 2.7 2.5 5.4 4.1 7.9 1 1.6 2.3 3.1 3.1 4.8 1.6 3.2 3.2 6.4 5 9.5.4.7.8 1.3 1.2 2 .9 1.5 1.8 3 2.7 4.6.2.4.3.7-.2.8-.5.2-.9.4-1.4.4-2.1.4-4.2 1-6.2 1.5-2.6.6-5.1 1.1-7.7 1.8-1.1.3-2.3 0-3.2.5-.9.5-1.8 0-2.6.4-.9.5-1.9.4-2.8.4h-3.9c-.3 0-.7-.1-.9.1-.9 1.1-2.6 1.7-2.5 3.5 0 .5-.4 1.2-.8 1.5-1 .7-1.1 1.7-1 2.8.1 1.4 0 2.9.5 4.1.8 2 .7 4.1 1.3 6.1.4 1.4.3 2.9.5 4.3.1.6.3 1.1.4 1.6.1.6-.1 1.3.2 1.7.4.6.2 1.2.3 1.7.1.6.4 1.1.4 1.6-.1 2 .8 3.8 1.1 5.7.3 2 1 3.9 1.7 5.9 1.1 3.1 2 6.3 3.6 9.2.2.4.2.6.7.6h5.7c.6 0 .6-.4.4-.8-.5-1-1.2-1.9-1.7-2.9-1.2-2-1.8-4.3-2.8-6.4-1-2.3-1.6-4.7-2.2-7s-1.2-4.7-1.5-7.1c-.2-1.2-.6-2.5-.8-3.7-.1-1.3-.9-2.5-.5-3.9.1-.2.1-.6 0-.7-1-.9.2-2.4-.9-3.3.2-1.2-.2-2.3-.5-3.4-.4-1.4-.2-2.9-.8-4.2-.2-.5-.2-1.3 0-1.8.1-.2 1-.1 1.4-.3 1.6-.9 3.5 0 5.1-.8.8-.4 1.8-.3 2.7-.5s1.9-.3 2.8-.5c.6-.1 1.1-.3 1.6-.4 1.8-.4 3.5-.6 5.3-1.1 1.6-.4 3.2-.8 4.7-1.2 2-.6 4-1.1 5.9-1.7.6-.2.6-.1.9.4 1.2 2.5 2.3 5 3.3 7.5 1.7 4.2 3.3 8.3 4.6 12.7 1 3.3 1.9 6.6 3 9.9 1 2.8 1.7 5.7 2.6 8.5 1.1 3.6 2.6 7.1 4.3 10.5.4.7.6 1.7 1.2 2.2.5.4 1.5.1 2.2.1h3c.9 0 1.1-.4.8-1.2-.6-1.3-1.3-2.5-1.9-3.8-1.3-2.4-2.5-4.9-3.4-7.5-1.8-5.2-3.4-10.6-5-15.9-.7-2.2-1.2-4.4-1.8-6.5-.4-1.4-.9-2.8-1.4-4.2-1-2.8-2.1-5.7-3.2-8.5-.6-1.6-1.8-3-2.2-4.6-.6-3-2.5-5.3-3.7-8-.4-1-1.1-1.8-1.6-2.7-1.6-2.4-2.9-4.8-4.3-7.3s-2.7-5.1-4.1-7.6c-1-1.7-2.3-3.1-3.1-4.9-2.2-4.4-4.5-8.7-6.2-13.4-.6-1.6-1.2-3.3-1.5-5-.3-1.8-.4-3.7-.5-5.5-.1-2.9.8-5.8.4-8.7 0-.2 0-.5.1-.6.6-1.4.8-2.9 1.2-4.3.7-2.7 1.6-5.4 2.6-8 1.2-3.1 2.1-6.4 3.4-9.5.9-2 1.6-4.1 2.5-6s2.1-3.7 2.8-5.7c1.1-3 2.5-5.9 3.8-8.9 1.3-2.9 2.7-5.7 3.8-8.7 1.3-3.3 2.5-6.7 3.4-10.2.7-2.7 1.5-5.5 2.2-8.2.8-3 1.3-6.1 1.4-9.2.2-6 .1-12 .1-18 0-.4.2-.9 0-1.1-.7-.6-.3-1.4-.4-2.1-.1-.8-.3-1.5-.5-2.3-.1-.7-.4-1.4-.4-2.1-.2-2.4-.9-4.6-1.6-6.9-1.1-3.8-2.7-7.5-4.3-11.2-.3-.6-.5-1.1.2-1.8 1.9-1.7 3.7-3.6 5.5-5.4.3-.3.5-.7.8-.8.4 0 .7.4 1.1.5 1.7.6 3.4 1.2 5.2 1.2 1.1 0 2.2.1 3.4.1.1 1.1.8 1.9 1.1 2.9 0 .1.3.2.3.3.5 1.8 1.4 3.5 1.9 5.4s1.2 3.7 1.8 5.6c.9 3 2.1 5.8 3 8.8.7 2.1 1.1 4.4 2.5 6.3 1 4.9 3.6 9.3 4.7 14.2.6 2.6 1.9 5 2.8 7.5.4 1.1 1.2 2.2 1 3.4-.2 1.4.8 2.4.9 3.7v.5c0 2.4 1.2 4.1 3 5.5 1.1-.1 1.1.9 1.4 1.5.8 1.9 1.4 3.8 2 5.8.8 2.5 1.6 5.1 2.3 7.7.5 1.9 1.4 3.7 1.8 5.6.5 2.6 1.6 5.1 2.2 7.7.8 3.4 2.6 6.5 3.5 9.9.1.4.2.9.1 1.2-.3.6-.8 1.2-1.3 1.8-1.8 2-3.6 3.9-5.5 5.9-1 1.1-2.1 2.3-3 3.5-1.7 2.3-3.3 4.7-4.8 7.1-1.1 1.7-2 3.4-3 5.1-2.3 4.1-3.9 8.4-5.4 12.8-1.3 3.9-2.4 8-2.7 12-.3 3.4-.5 6.8.3 10.3.5 2 1 4 1.7 5.9 1.2 3 2.8 5.5 5.3 7.6 3.7 3.1 8.2 4.4 12.8 5.4 2.1.5 4.4.4 6.6.5 3.6.1 7.1.1 10.7 0 1.4 0 2.8-.3 4.1-.4.6-1 1.8-.3 2.7-.7 1.5-.6 3.2-1 4.8-1.4 1.5-.4 2.9-1.4 4.6-1 .2 0 .4-.2.5-.3.2-.2.5-.5.6-.4.2.1.6.4.6.6.1 1.6 1.1 2.7 1.6 4.1.5 1.3.7 2.2 0 3.3-.5.9-.4 1.8 0 2.7.8 1.6 2.1 2.7 3.7 3.6 1.2-.3 1.4.8 1.9 1.5.2.4.4.7.6 1.1 1.7 3.2 2.6 6.7 4.4 9.8.3.5-.1 1.2.6 1.6.1.1 0 .7-.2 1-.6.9-1.3 1.7-2.1 2.6-.9 1-1.5 2.1-2.3 3.1-1.1 1.4-1.8 3.2-3.3 4.3-.7.5-1.2 1.1-.4 2.1.2.3.3 1 0 1.3-.7.8-.3 1.7-.4 2.6-.1.5.1 1.1 0 1.6-.6 2.9-.7 5.2 0 7.4.9 2.9 1.9 5.9 3.6 8.5 1 1.5 2.2 2.8 3.5 4 .2.2.5.4.7.4 1.6 0 3.2 0 4.7-.1-.9-1-1.8-2-2.8-3.1-.3-.3-.6-.7-1-1-2.3-1.8-3.4-4.4-4.6-7-.7-1.4-1.4-3.1-1.4-4.6-.1-3-.5-6.1.4-9.1.5-1.8.9-3.7 1.8-5.4.7-1.2 1.4-2.4 2.4-3.3.6-.6.9-1.7 1.8-2 .2.8.5 1.6.8 2.4 0 .1.2.2.2.4 1.6 3.2 3.1 6.4 4.7 9.7.5 1.1.5 2.6 2.1 3 .1 0 .2.3.3.5.8 2 1.8 3.9 2.2 5.9.7 3.5 1.8 7 2.8 10.5.3 1.1.9 2 1.4 3.1 1 .1 1.9.1 2.9.1h2.3c.7 0 1-.4 1.1-1.1.1-1.2-.3-2.3-.7-3.4-1-2.8-2.3-5.6-3.1-8.5-.1-.6-.6-1-.2-1.6.2.4.5.8.7 1.3.1.3.2.7.3 1 1.2 3 2.3 6 3.4 9.1.4 1 1 2 1.4 3 1 0 1.9.1 2.9.1h.9c.7 0 .8-.2.5-.8-.3-.6-.6-1.1-.8-1.7-1.1-3-1.9-6.1-2.7-9.1-.3-.9-.7-1.7-.9-2.6-.7-3.4-2-6.6-3.4-9.8-1.3-3-2.9-5.8-4.1-8.8-.8-1.9-1.6-3.7-2.4-5.6-.4-1-.6-2.2-1.1-3.2-.3-.6-.3-.9.2-1.2 3.8-2.2 7.6-4.5 11.2-6.9 2-1.4 4.3-2.5 5.5-4.8 1.6-1.8 2.7-3.5 2.4-5.6zM370.9 58.9c.2.1.4.2.7.3h.5c1.8.3 5.5 2.1 6.8 3.2 1.7 1.5 3.6 2.9 5.6 4 .3.2.6.4.9.4.4.1 1 0 1.2.2.2.3 0 .9.1 1.3.5 1.8 1 3.5 1.5 5.3 0 .2 0 .3.1.5-.2 0-.5 0-.6-.1-2.2-1.6-4.2-3.4-6.8-4.5-1-1.3-3-1.7-3.5-3.5-1.6-1.3-2.7-3.2-4.6-4.2-.8-.4-1.4-1.2-1.9-1.9-.1-.2 0-.7 0-1zm-50.2-8.1c.2 0 .4-.3.6-.3 1.1-.2 2.3-.4 3.4-.4 2.7-.1 5.3 0 8 0 1.8 0 3.7.1 5.5 0 2.5-.3 4.8.5 7.1 1.1 1.2.3 2.3.7 3.5.8 1.1.1 2.2.5 3.2.9 3 1.3 6.1 2.7 8.8 4.7.7.5 1.4.9 2.2 1.3 2.6 1.4 5.1 3.1 6.7 5.7 0 .1.1.1.2.2.5.5 1 1.1 1.4 1.6-.9.3-1.4-.7-2.1-.7-1.5 0-2.7-.8-4.1-1.1-2.3-.6-4.3-2.2-6.4-3.2-2.6-1.3-5.4-2.4-8.1-3.4-.5-.2-.8-.7-1.2-.8-2.4-.6-4.4-2.4-7-2.4-1.2-.7-2.5-.3-3.7-.5-2.8-.5-5.6-.8-8.4-1.6-3-.8-6.1-1.4-9.3-1.1-.6.1-1.3.3-1.9-.2.5-.3 1.1-.4 1.6-.6zm68.3 88.6c-.1 1.6.8 3 .5 4.6 1 2.5.2 5.2.5 7.3 0 1.7.1 3 0 4.3-.1 1.1.4 2.2-.3 3.3-.5.9.3 2.1-.6 2.9.1 1.6-.5 3.1-.8 4.6-.5 2.4-1.4 4.6-2.1 6.9-.8 2.3-1.7 4.6-2.7 6.8-.8 1.7-1.9 3.2-2.9 4.7l-.3.3c-.1-.2-.2-.5-.2-.6 1.2-1.8 1.7-3.8 2.6-5.8.6-1.5 1-3.1 1.5-4.6.7-2 .8-4.2 1.4-6.2.4-1.3.2-2.8.5-4.1.5-1.6.1-3.3.5-4.8.6-2.1.3-4.1.3-6.2 0-1.1-.3-2.3-.4-3.5s.3-2.5-.1-3.6c-.4-1.4-.2-2.8-.4-4.2-.2-1.1-.3-2.3-.5-3.4-.3-1.1 0-2.3-.8-3.3 0-2.7-1-5.2-1.8-7.7-.3-1-.7-2-1.1-3-1.3-2.8-2.3-5.7-3.6-8.5-1.1-2.4-2.6-4.6-4-6.8-2.3-3.5-4.9-6.7-7.8-9.8-1.1-1.2-2.4-2.3-3.6-3.5s-2.3-2.4-3.5-3.5c-.5-.4-1.1-.7-1.6-1.1-3.3-2.8-6.7-5.6-10.3-8.1-1.3-.9-2.5-2.1-3.7-3.2-2.1-1.8-4.1-3.7-6.2-5.3-1.9-1.4-3.8-2.8-5.4-4.5-.4-.5-1-.8-1.6-1.1-2.1-1-3.6-2.6-5.1-4.2-1.4-1.6-2.5-3.3-3.7-5-.1-.1-.1-.3-.1-.5.2 0 .5 0 .6.1 2.4 2.1 5.3 3.1 8.2 4.4 1.3.6 2.5 1.3 3.9 1.7 1.7.6 3.3 1.4 5.1 2 1.7.6 3.3 1.7 4.7 2.8 1.5 1.1 3.1 2 4.7 2.9 2.7 1.4 5.2 3.1 7.4 5.2.8.7 1.9 1.3 2.5 2.1 1.1 1.7 2.7 3 4.1 4.4l.2.2c3.2 2.7 5.3 6.2 7.6 9.6 2.3 3.5 4.2 7.2 6.1 10.9 1.2 2.3 2.7 4.5 3.9 6.8 1.8 3.7 3.2 7.6 4.5 11.5.5 1.6.9 3.2 1.5 4.8.5 1.5.8 3.1 1.2 4.7.3 1 0 2.4.6 3.2.5 1.2-.3 2.4.6 3.1zm-76-87.5c1.1-.1 2.2.3 3.3-.5l.4.4c0 .1 0 .3-.1.4-.6 1.8-.6 1.9 1.4 2.4.5.1.7.2.2.6-.1 0-.1.1-.1.2.5 1.3.3 2.3-.9 3.2-.2.1-.2 1.1.2 1.6 1 1.3 1.9 2.7 2.7 4.1 1 1.6 2.5 2.8 3.6 4.4.7 1 1.8 1.8 2.9 2.3s1.9 1.3 2.8 2.1c1.7 1.5 3.4 3 5.3 4.3.8.5 1.5 1.2 2.2 1.9 1.8 1.8 3.8 3.1 5.8 4.6.2.2.5.3.7.6 1.7 1.9 3.8 3.4 6 4.7.2.1.3.3.5.5-.3.1-.6.2-.8.2-.5-.1-.9-.3-1.4-.4-2.7-1.1-5.5-2.1-8.2-3.4-2.7-1.2-5.1-2.8-7.4-4.7-1.6-1.3-3.4-2.1-5-3.3-2.2-1.6-4.7-2.8-6.7-4.7-1.7-1.6-3.1-3.6-4.3-5.7-1.2-2-2-4-2.3-6.3-.9-.5.4-.8.1-1.3-.3-.4-.3-.9-.5-1.4-.2-.6.4-.8.6-1.1.9-1 1-1.4.3-2.7-.5-.8-1-1.5-1.5-2.3-.1-.1-.1-.2-.2-.3.2-.3.3-.4.4-.4zm-.8 12.7c0-.1.1-.2.2-.4.1.1.2.2.2.3.1 2.6 1.7 4.5 3 6.5 1.9 2.9 4.4 5.3 7.5 6.9 2.1 1.1 4.1 2.7 6.1 4 .1.1.1.2.2.3-.2.1-.5.2-.6.1-1.3-.6-2.5-1.5-3.8-1.7-1.4-.3-2.4-1.6-4-1.5-3.2-1.7-6-3.8-7.6-7.2-1.1-2.2-1.4-4.8-1.2-7.3zm-62 75.3c.1-2 .7-3.9 1.4-5.8.2-.5 0-1 .1-1.6.2-3.1 1.2-5.8 3.3-8.2 2.5-3 5.2-5.7 7.7-8.7 2-2.3 3.8-4.8 5.5-7.4 1.6-2.6 3.1-5.3 4.4-8 1.5-2.9 2.6-6 3.7-9.2.6-1.6 1.3-3.3 2.3-4.7 1.1-1.5 1.8-3.2 2.5-4.9 1.1-2.6 2.5-4.9 4-7.2 2.2-3.3 5-6.1 7.9-8.8 2.1-2 4.5-3.8 6.8-5.5 1.9-1.3 3.7-2.7 5.5-4.2.2-.1.4-.1.6-.3 1.1-.7 2.4-1.1 3.2-2.2.1-.1.4 0 .6-.1 0 .2 0 .4-.1.5-.3.4-.1.7.2.9.6.7 1.4 1.1 1.6 2.1 0 .2.1.3.2.5-.1 0-.3.1-.4.1-1.3-.9-2.8-.3-4.1-.4-1.3-.2-2.1.4-2.7 1.7-.3.7.1.8.3 1 .3.2.7.2 1.1.1 1-.2 1.9.3 2.8.5.5.1 1 .3 1.3.6.3.4 0 .9-.2 1.4-.6 1.5-.7 1.7-2.3 1.6-2.7-.1-5.3.4-7.7 1.8-1 .6-2.3.7-3.3 1.4-.7.5-1.3 1-1.8 1.6-.2.2-.2.6 0 .9.1.2.5.3.7.3.6-.1 1.1-.2 1.6-.4 1.5-.7 3.1-1.4 4.7-1.9.6-.2 1.1-.4 1.7-.3 1.5.1 3.1-.3 4.6.4.2.1.5-.2.8-.2.1 0 .4 0 .4.1.2.7.4 1.4.4 2.1 0 1.5.6 3 .8 4.4.1.9 1.2 1.2 1 2.1 2.1 2.2 4.1 4.4 6.9 5.7 4 1.9 8.2 3.3 12.3 4.9.8.3 1.7.6 2.6.9 2.7 1.2 5.5 1.7 8.2 2.8 1.7.7 3.6 1.4 5 2.8.8.8 1.9 1.3 2.8 2 2.3 1.5 4.5 3.2 6.5 5.1.6.5 1.5.8 1.9 1.5 1.3 2.1 3.5 3.4 4.7 5.5.6 1.1 1.3 2.1 2.1 3 1.8 1.9 2.7 4.4 3.4 6.8.6 2.1 1.6 4.1 2.2 6.1.1.2.1.4.1.6-.2-.1-.4-.3-.6-.3-1.1 0-2.1-.4-3.2-.6-1.2-.2-2.5-.3-3.7-.4-1.8-.1-3.6 0-5.3.8-.3.1-.7 0-1.1.1-1.4.1-2.9 1.3-3.2 2.5-.2.6.3 1.1.4 1.6.2.7.7.3 1.1.4 1.5.3 2.7-.9 4.2-.9.4-.6 1.1-.4 1.6-.4 1.7 0 3.5.1 5.2 0 2-.2 3.8.9 5.8 1 .3 0 .7.6.8.9.5 1.9 1.4 3.7 1.4 5.8v.2c.7.5.7 1.5.4 1.8-.5.5-1.4.5-2.2.7-.2.1-.6 0-.3-.4.5-.6.4-1-.5-.9h-.5c-.6.1-.9-.3-.8-1 0-.1-.2-.3-.3-.3-.3.1-.7.2-1 .3-.4.1-.8 0-1.2 0 .2-.3.5-.5.6-.8.1-.2 0-.5.1-.8-.2 0-.4-.1-.6 0-.5.2-1 .6-1.5.8-.1 0-.3-.1-.4-.1 0-.1.1-.2.1-.3.1-.2.3-.3.5-.5.1-.2.2-.5.2-.6-.2-.2-.6-.4-.7-.3-1.3.7-2.8.4-4.1.4-.8 0-1.5-.4-2.3-.4-2.7 0-5.3.7-7.8 1.4-.9.2-1.7.8-2.2 1.6-.1.2 0 .6 0 .9l.6-.3c1.7-.6 3.4-1.2 5.2-1.8.2-.1.7-.1.3.4-.1.1-.2.2-.2.4 0 .9-.2 1.9.2 2.6.3.5 1.4.4 2.2.7.4.1.8.3 1.2.4.8.2 1.1.6 1.1 1.4 0 .3-.2.9.4.8.3 0 .6-.3.9-.6.1-.1.1-.4.2-.6.1-.1.3-.2.4-.1.2.1.4.2.4.4.1.2-.1.5 0 .7s.5.3.7.3c.3-.1.4-.4.7-.6.4-.3.6-.4.9.2.4.7.8.6 1.3-.1.4-.5.6-.5.9 0 .1.1 0 .3.1.4.6.8 1.3.9 1.7-.1.3-.6.2-.7.7-.3 1.3 1 4.1 1.6 5.7 1.2.4-.1.5-.1.5.3.1 2.5.4 5 .4 7.5 0 2.1-.7 4.2-.4 6.4-.8 1.6-.3 3.4-.5 5-.1 1.6-.4 3.2-.4 4.8-.1 1.7.1 3.4-.1 5-.1 1.1-.5 2.4-1.8 2.8-2 .7-2.4 2.6-2.6 4.3-.2 1.2-.6 2.1-1.1 3.2-1.5 2.8-3.7 4.9-5.8 7.1-.4.4-.7.6-1.5.3-1.3-.6-2.9.7-3 2.3 0 .7-.1 1.1-.9 1.5-1.2.5-2.3 1.4-3.5 2l-4.8 2.7c-1.1.7-2.1 1.5-3.1 2.4-1.6 1.5-6.1 4.4-8.8 5.8-1.2.6-2.7.4-3.9 1-1.5.8-3.1 1-4.7.8-1.7-.2-3.4-.7-5-1.1-3.7-1-6.9-2.9-9.9-5.3-1.6-1.3-3.4-2.4-5.1-3.6-1.6-1.1-3.2-2.3-4.7-3.5-.9-.7-1.9-1.4-2.7-2.3-1.2-1.3-2.4-2.5-3.7-3.7-.9-.8-1.7-1.8-2.3-2.9-.6-1.2-1.7-2.2-2.6-3.2-.4-.4-.5-.8-.6-1.4-.1-.8.6-.7.9-1 .4-.5.7-1.1 1-1.6.1-.2.1-.6 0-.6-.6-.2-1-.5-1.1-1.1l-1.2.3c-.1 0-.1.1-.2.2-.4.2-.5 1-1.1.7-.8-.4-1.6-.7-1.8-1.7-.2-.6-.4-1.2-.7-1.8-1.7-3.8-3.7-7.6-4.8-11.6-.6-2.1-1.3-4.2-1.3-6.5.1-3.6 0-7.1 0-10.7v-10.2c-.1-2.5.8-5 .5-7.5.8-2.4.9-5 2.2-7.3 1.7-2.8 3-5.7 4.6-8.5 1-1.8 4.4-4.7 6.6-5.8 1.1-.5 2.3-1.1 3.5-1.3 1.3-.3 2.1-1.1 2.8-1.9.2-.2.2-.7.2-1 0-.1-.5-.3-.8-.2-1 .2-1.9.4-2.9.7-1.1.4-2.1.8-3.1 1.3-.9.5-1.8 1.1-2.7 1.8-3.3 2.5-5.3 4.9-7.4 8.7-.6 1.1-1.2 2.1-1.8 3.1-.5 1.1-1 2.1-1.7 3.2-1 1.5-1.4 3.4-2 5.1-.2.7-.4 1.4-.4 2.1-.1.7.1 1.4 0 2-.6 2-.1 4.2-.5 6.2-.6 2.6-.2 5.2-.4 7.8 0 .5-.1.7-.7.8-1.7.4-3.2 1.2-4.4 2.5-2.3 2.5-1.4 5.7 1.8 6.5 1.6.4 1.6.4 1.2 1.9-.1.2-.1.4-.1.6-.2 2.7-.3 5.5-.5 8.2-.2 2.1.3 4 .9 6 .8 2.5 2.1 4.7 3.7 6.7 1.5 1.9 3.7 2.7 5.9 3.4.6.2 1.1.4 1.5.8.2.2.3.5.4.7-.3.1-.5.3-.8.3-2.9.2-5.4-1.1-7.8-2.5-1.2-.7-2.6-1.1-3.4-2.4-1.3-.1-1.5-1.4-2-2.1-1-1.4-2-3-2.7-4.5-1-2.2-2-4.5-2-7.1 0-.7-.3-1.4-.4-2.1-.1-.7 0-1.4 0-2-.1-2.2.5-4.3 1.1-6.4.6-1.8.8-3.7 1.6-5.5.2-.4.2-1 .5-1.4 1.3-2 1.6-4.3 2.6-6.4.1-.1.1-.3.1-.4-.2-2.1.8-4.1.5-6.2.8-3.8.2-7.6.5-11.4.1-1.3.6-2.6 1.2-3.8 1.4-2.9 2.9-5.6 4.3-8.4.1-.3.7-1.2.8.1 0 .1.5.3.6.2.5-.6 1.5-.4 1.7-1.5.2-.8.8-1.5 1.2-2.2.1-.2.3-.5.5-.7 0 .3.1.6.1.9 0 .2-.3.4-.3.5 0 .4.1.8.1 1.2.4-.1.9-.1 1.2-.4.9-.8 1.5-1.7 2-2.8 1.1-2.6 2.5-5.1 4.4-7.3 1.9-2.3 4-4.3 6.1-6.3 1.3-1.3 3-2.1 4.3-3.4.3-.3.8-.6.4-1.1s-.7-.6-1.4-.2c-1.7 1-3.3 2.1-4.7 3.4-1.8 1.7-3.4 3.4-5.2 5.1-.1.1-.3.1-.4.2 0-.2.7-1.8 1.1-2.3 1.5-1.4 2.2-3.4 3.5-4.9 1.5-1.6 3-3.2 4.7-4.7.8-.7 1.9-1.2 2.9-1.8.2-.1.5-.2.5-.3.1-1.7 1.7-1.7 2.6-2.4.6-.5 1.3-1 1.8-1.5.2-.2.1-.7 0-1-.1-.1-.5-.2-.8-.2s-.7.2-1 .3c-1.5.6-2.8 1.6-4.1 2.7-5.1 4.4-9.6 9.3-14.4 14-1.8 1.8-3.2 4-4.5 6.1-2 3.2-3.8 6.6-5.9 9.9-1.8 2.9-3.3 6.1-4.7 9.2-1 2.1-1.9 4.3-1.8 6.8.1.8.4 1.5.1 2.4-.3.7-.1 1.6-.1 2.5v2.7c0 .8.1 1.7 0 2.5-.3 1.3-.5 2.6-.4 3.9.1 1.3-.7 2.3-1 3.5s-.9 2.3-1.4 3.5c-.9 2.1-1.8 4.3-2.2 6.6-.2 1-.7 1.9-.9 2.8-.3 1.2-.6 2.4-.5 3.7.1.9-.5 1.1-1.3.7-1.6-.7-3.1-.7-4.5.2-.7.4-.9.3-.9-.4-.1-1.5-.4-3.1-.4-4.6-.1-1.6 0-3.2 0-4.8 0-1.2.3-2.2.8-3.3.8-1.7 1.6-3.3 2.8-4.8 1.6-1.9 2.5-4.2 3.5-6.5 1.8-3.8 3.6-7.6 4.9-11.6.3-1 .4-2.1.7-3.1.9-3.6 1.4-7.2 2.8-10.7 1.1-2.8 2.2-5.6 3.9-8.2.7-1.1 1.4-2.3 2-3.5 1.3-2.5 3.2-4.6 4.8-6.9 1.3-1.8 2.7-3.6 4.1-5.4 1-1.4 2.4-2.5 3.7-3.7.5-.4 1.1-.7 1.6-1.1 2.3-2.6 5.4-4.1 8.4-5.6 1.1-.5 2.3-.7 3.4-1 1-.2 1.5-.9 2.1-1.5.2-.2.3-.7.3-1-.1-.6-.6-.3-.9-.4-1.7-.1-3.2.7-4.7 1.3-3.6 1.5-6.9 3.6-9.6 6.4-.9.9-2 1.7-3 2.6-2.5 2.3-4.6 5-6.5 7.8-1 1.6-2.4 3-3.5 4.5-.7 1-1.5 1.9-2.1 3-1.7 3.3-3.9 6.4-5.3 9.8-1.3 3.1-2.4 6.2-3.1 9.4-.6 2.9-1.2 5.7-1.8 8.6-.3 1.3-1 2.6-1.5 3.9l-3 6.3c-.4.9-.6 1.9-1.1 2.7-1 1.9-2.3 3.6-3.5 5.4-1.5 2.2-2.9 4.6-2.8 7.5.1 2.7 0 5.3 0 8 0 .5-.2 1 .1 1.3.4.5.6 1 .2 1.6-.3-.4-.6-.8-.8-1.2-.7-1.1-1.4-2.2-1.9-3.3-.7-1.5-1.6-3-1.9-4.7-.3-1.6-.2-3.3 0-4.9.3-2.1.7-4.1-1.1-5.7-1.3-.5-.9-.8-.9-1.1zm122.3-1.6c-.1 0-.2-.3-.2-.3.5-.4 1-.7 1.5-1.1.1.1.1.2.2.3 0 .8-.9 1.4-1.5 1.1zm2 1.3c.1.5-.3.6-.7.5-.2 0-.4-.1-.6-.2.3-.3.5-.6.8-1 .3.4.5.6.5.7zm-7.8-1.5c-.3.1-.7.2-1.2.3-.4-.2-.9-.4-1.5-.5-.9-.2-1.9.3-2.8-.3.3-.8.7-1.5.9-2.4.2-.7.5-.6.9-.3 1 .8 2 1.7 3 2.6.4.2.5.4.7.6zm-7.2-4.1c-.2.3-.5.5-.8.9-.3-.3-.6-.5-.9-.8.3-.3.5-.7.8-.7.2 0 .6.4.9.6zm14.5 44c-.1.1-.3.3-.4.3s-.3 0-.4-.1c-.3-.4-.6-.9-.9-1.4-.2-.3 0-.7.4-.7.9 0 1.3.4 1.3 1.5 0 .1.1.3 0 .4zm-92.9-10.4c.6 1.8 1.3 3.6 2.4 5.2.1.1 0 .3 0 .4-.2 0-.4 0-.5-.1-2.2-1.8-3-4.5-4-7-.8-2-1.1-4.2-.9-6.4 0-.1.2-.3.3-.5.3.5.6.8.6 1.1-.4 2.7 1.3 4.9 2.1 7.3zm-4.4-19.3c0 .6-.4.6-.7.4-.4-.2-.7-.6-1-.9-.3-.3-.8-.6-.5-1.1.3-.4.8-.5.9-.6 1.4 0 1.5.1 1.3 1.3-.1.3 0 .6 0 .9zm-6.4 26.9c-.1.2-.2.3-.2.4l-.3-.3c-2.2-2.1-4.5-4.2-6.7-6.2-.4-.3-.2-.6-.1-1 .2-1.4 1.2-2.5 1.5-4 .1-.5.3-.9.4-1.4.2-.7.5-1.4.7-2.1.1.7.1 1.3.2 2 .3 2.3.7 4.5 1.5 6.6.7 1.8 1.5 3.5 2.6 5.1.1.3.3.7.4.9zm-9.5-10.5c-.8.1-.4-.5-.6-.9-.2-.5-.6-1-.4-1.6.1-.2.2-.5.3-.7.2.1.6.2.7.4.2.4.3.9.3 1v.9c0 .4.3.9-.3.9zm-12.3-5.5c.3-.9.3-1.8 1-2.5.4.8.8 1.5 1.2 2.3.8 1.2 1 2.7 2.1 3.7.1.1.1.3.1.4-.1.1-.1.3-.2.4-.8.7-1.4 1.7-2.5 2.1-.6.3-1.2.8-1.7 1.3-2.3 2.1-4.6 4.3-6.9 6.4-.1.1-.3 0-.5.1 0-.2-.1-.4 0-.4 1.9-1.9 2.7-4.5 4.2-6.7 1.5-2.3 2.3-4.8 3.2-7.1zm8.8 57.9c-.8.7-1.4 1.5-1.6 2.5-.1.3-.5.5-.8.6-2.2.6-4.5 1.2-6.7 1.8-1.1.3-2.2.5-3.3.8s-2.3.5-3.2 1.1c-1.6 1.1-3.6 1.3-5.2 2.3-1.6 1-3.3 2-5 2.9-2.5 1.4-5.3 2.3-7.9 3.3-.3.1-.8 0-1.1 0-.7 0-1.4 0-2.1.4-1 .5-2.1.6-3.2.5-1.1-.1-2.1-.1-3.2 0-3.6.3-6.6-1.5-9.7-3.1-.6-.3-1.2-.6-1.9-1-.1-.1-.3-.1-.4-.1-1.4.7-2.9 1.3-3.5 2.9-.3.7.2 1.6 1 1.6 1.5 0 2.4 1.2 3.7 1.5.1 0 .2.6.1.7-.7.5-1.4 1.1-2.1 1.5-1.5.8-2.9 1.8-4.4 2.7-1.6 1-3.2 2.3-4.7 3.4-2 1.6-3.9 3.3-5.9 4.9-1.6 1.2-3.3 2.3-4.9 3.5-1.1.8-2.2 1.4-3.1 2.3-.7.7-2.1.7-2.1 2-.2 0-.4 0-.5-.1-1.2-1.2-2.3-2.5-3.8-3.4-1.4-2.1-3.3-3.8-4.8-6-1.1-1.5-2.2-3-3.4-4.5-.1-.2-.4-.3-.5-.5-.4-.6-.7-1.2-1.1-1.8-.4-.6-.9-1.1-1.4-1.7.5-.4.9-.8 1.4-1.2.6-.5 1-1.1 1.6-1.6 2.8-2.2 5.2-5 8.3-6.9.4-.3.7-.8 1.1-1.1 2.2-2 3.9-4.3 6.4-6 .6-.4 1.2-1.3 1.2-2-.1-1.7 1.1-2.8 1.8-4.1.8-1.4 1.5-2.8 1.4-4.4 0-1.1-.1-2.1 0-3.2.1-1.5 0-3 .5-4.3.4-1 .3-1.9.3-2.8 0-1.1.2-2.1.5-3 .9-2.3 1.9-4.5 2.9-6.8.8-1.9 2.3-3.4 3.4-5.2.9-1.4 2.1-2.5 3.2-3.7.8-.8 1.6-1.7 2.3-2.7.9-1.4 1.5-2.7 1.4-4.4-.1-2-.1-3.9 0-5.9.1-1.8.3-3.7.4-5.5.1-1.8-.2-3.7.1-5.4.2-1.4.2-2.8.4-4.1s.9-2.5 1.3-3.8c0-.1.4-.1.4 0 .2.2.4.5.4.7.2 1.9.6 3.8.5 5.7-.1 1.6 0 3.2 0 4.8v6.6c0 .9-.1 1.7-.4 2.6-1.1 2.6-1 5.5-1 8.2 0 .7.4 1 1.1 1.2 1.6.4 2.7-.5 3.7-1.4 1.6-1.4 2.7-3.2 3.9-5 2-3.1 3.6-6.5 5.9-9.4.2-.2.2-.5.4-.7 1.4-1.6 2.9-3 4.1-4.7.9-1.2 2.1-2.2 2.8-3.6.3-.6 1-1.2 1.6-1.6 1.8-1.2 3.1-3.1 5.2-3.9.9-.3 1.8-.4 2.5-1.1.1-.1.5 0 .6.2.1.1.1.4 0 .6-.5.8-.9 1.6-1.4 2.4-2.1 3-4.2 5.9-5.7 9.2-.3.6-.7 1.3-1.2 1.8-1.8 1.7-2.9 4-4.3 6-.9 1.3-1.9 2.6-2.8 3.9-1.3 1.8-1.9 3.9-2.6 6-.5 1.4-.1 3-.1 4.5 0 .8.9 1.3 1.6 1 1-.5 1.9-1.2 2.5-2.1.3-.5.6-1 1-1.4 1.2-1.2 2.2-2.5 3.1-4 .5-.8 1.2-1.4 1.9-2.2 1.9-2.2 3.1-4.9 4.9-7.1 1.8-2.2 3-4.8 4.7-7.1 1-1.3 2-2.7 3-4 2-2.5 3.6-5.3 4.6-8.3 1.2-3.7 1.8-3.3 4.9-3.4.5 0 .6.2.7.6 0 .6-.3 1.3.4 1.9.2.2.2.8 0 1.1-.7 1.1-.4 2.3-.4 3.5 0 1-.1 1.9-.5 2.8-1.1 2-1.1 4.4-2.3 6.3.1 1.5-1.1 2.4-1.4 3.7-.3 1.2-1.2 2.2-2 3.3-.8 1.2-1.3 2.6-2.1 3.7-1.4 1.7-2.5 3.6-4 5.2-2.4 2.7-5 5.2-7 8.2-.7 1.1-1.5 2.3-1.3 3.8.1.6.4.6.8.5.8-.2 1.4-.6 2-1.2l4.5-4.5c2-2 4-3.9 6.4-5.5.1 0 .1-.1.2-.2 2.5-2.5 4.9-5.1 7.7-7.2 1-1.8 3-2.6 4.5-3.7.2-.1.3-.3.5-.4.6-.4.7-1.3 1.6-1.2 0 .8.8 1 1.1 1.6.5 1.1 1.5 1.8 2.3 2.7.4.5.5 1 .1 1.4-1.3 1.5-1.7 3.4-2.9 5-1.9 2.4-3.1 5.1-5.2 7.4-1.1 1.2-1.9 2.8-3.1 3.9-3.4 2.9-6.3 6.2-9.6 9.2-1.8 1.6-3.5 3.3-5.2 4.9-2.4 2.2-3.9 5.1-5.3 8-.2.3-.2.7-.2 1 0 1.1.1 2.3 0 3.4-.1 1.6.9 2.6 1.9 3.5.1.1.4.1.6.2 2.3.2 5.4-.1 7.8-1 .9-.4 1.9-.7 2.8-.8 1.7-.1 3.3-1 5-1.1.5 0 1-.3 1.5-.3h4.8c2.3 0 4.2 1.1 6.2 2.1.2.4.5.6.1.9zm-5.3-6.9h-3.2c-1-.1-2 .2-3 .5-2.1.5-4.1 1.1-6.2 1.4-.6.1-1.1.2-1.6.5-1.3.6-2.7 1.1-4.2.9-.2 0-.4 0-.7.1-1.3.3-2.3-.2-2.4-1.5-.1-.7 0-1.4 0-2.2-.1-1.3.1-2.7 1.4-3.8.3-1.8 1.8-2.7 2.9-3.8 1.2-1.1 2.1-2.5 3.6-3.3.4-.2.8-.7 1.2-1.1l5-5c1.2-1.2 2.4-2.4 3.8-3.4 1.3-.9 2.1-2.4 3.1-3.7.6-.8 1.1-1.7 1.8-2.4 2.7-3.1 4.7-6.7 6.9-10.1.5-.7.8-.9 1.4-.4.5.4.9.8 1.3 1.3 2.2 2.2 4.4 4.3 7.2 5.8 1.3 1.7 3.5 2.4 4.9 4 .6.7 1.6.6 2.4.9 1 .5 1.3.7.9 1.8-.6 1.8-1.1 3.6-1.7 5.4-.1.2.1.5 0 .7-.3.5.8.9.1 1.5-.4.3-.3 1-.5 1.6-.1.2-.2.3-.4.4-1.3 1-2.5 2-3.3 3.4-.3.6-.9 1-1.4 1.5-1.7 1.7-3.1 3.7-4.4 5.7-.4.7-1.4.9-1.4 1.9-1.3 1.5-2.7 3-4 4.5-.3.3-.4.2-.7 0-2.7-2.3-5.6-3.1-8.8-3.1zm109.5 71c-1.7-.7-3.5-1-5.4-1.4-2.2-.4-4.4-.4-6.5-1.2-1-.4-2.3-.3-3.4-.4-1.7-.2-3.1-1.2-4.8-1.2-.2 0-.4-.3-.6-.3-1.1-.2-2.1-.4-3.2-.5-.8-.1-1.5-.1-2.3 0-2.7.3-5.3-.3-7.8-1-1.8-.5-3.6-.9-5.5-.9h-19.5c-1.4 0-2.7.5-4.1.5-1.2 0-2.5.5-3.7.9-1.4.5-2.8 1.3-4.2 1.9-.9.4-1 .4-1-.6v-22.9c0-1.4-.7-2.7-.5-4.1.1-1-.7-1.4-1.7-1-.8.3-1.7.4-2.4.8-1.1.6-2.3.8-3.5 1-1.1.2-1.9 1.2-3 1.5-3.1 1-5.7 2.7-8 4.8-.6.6-1.4 1.1-2.1 1.6-.3.2-.7.3-1.1.5 0-.4-.1-.7-.1-1.1-.4-1.9-.7-3.9-1.4-5.8s-1-3.9-1.7-5.9-.8-4.2-1.4-6.2c-.4-1.3-.3-2.7-.5-4.1-.1-.8-.3-1.5-.4-2.3-.1-.7-.2-1.4-.4-2.1-.3-1.1-.3-2.3-.5-3.4-.4-2.1-.8-4.2-.6-6.4.1-.8.2-1.2 1-1.7.9-.5 1.9-1.5 1.7-2.8-.3-2 .8-3.4 1.9-4.7 2.3-2.6 4.4-5.4 6.4-8.3.8-1.2 2.2-2 2.9-3.3h.4c.1 0 .1.3.1.3-.6.6-.2 1.3-.3 1.9-.2 1.5.4 3.1-.4 4.6-.2.3.1.8.2 1.3.1.3.3.5.2.8-.1.5-.3.9-.3 1.4 0 .4.3.8.3 1.2-.1 3.3 1 6.4 2.1 9.4.6 1.7 1.4 3.4 2.3 5 .6 1 .4 2.3 1.6 3 1.1 2.4 2.7 4.4 4.5 6.3.6.6 1 1.4 1.4 2.1.7 1 1.3 2.1 2.2 2.9.5.4.8 1 1.1 1.6 1.2 1.9 3 3.3 4.5 5 3.2 3.5 7.1 6 11.2 8 1.2.6 2.5 1 3.7 1.5 2.1.7 4.1 1.4 6.2 2.1.3.1.7.4.8.3 1-1 1.9-.2 2.8 0 4.8 1.5 9.5 3 14.3 4.5.9.3 1.6 1 2.6 1 2.3 1.6 5.2 2.1 7.6 3.5 1.5.8 3.1 1.3 4.6 2.2 1.4.9 2.7 1.9 4 2.8 2.5 1.6 4.9 3.3 7.3 5l2.7 1.8c.1.1.2.3.2.5-.1 0-.4.1-.5.1zm-79.7-58.3c0-.1.1-.3.3-.3h.9c1.3 0 1.7.2 1.9 1.5.1.4-.1 1.2-.2 1.2-.6.1-1.3.3-1.7-.3-.5-.7-.8-1.4-1.2-2.1zm7.2 4.8c.2-.2.6-.3.8-.2 1.2.4 2.4.7 3 1.9.3.5.2 1.1.3 1.7 0 1 .1 2.1-.7 2.6-.9.6-1.9 0-2.7-.7-.3-.3-.8-.4-1.1-.7-1.5-1.4-1.3-3.4.4-4.6zm74.6 46.3c0 .6-.1 1.2-.2 1.7-.5-.3-1-.5-1.4-.9-1.8-1.9-4.4-2.8-6.4-4.4-1-.8-2.1-1.7-3.3-2.4-2.5-1.5-5.2-2.9-7.9-4-4.1-1.5-7.9-3.7-12.1-4.9-3.6-1-7-2.4-10.6-3.4-1.8-.5-3.3-1.5-4.9-2.3-.6-.3-1.1-.6-1.7 0-1.2 1.2-2.6.2-3.6-.2-3.9-1.4-7.5-3.3-10.7-6-1.4-1.2-2.9-2.4-4.1-3.8-1.4-1.6-2.7-3.3-3.9-5-.3-.4-.7-.9-.7-1.4 0-.3.8-.5 1.2-.8.7-.5 2.1-2 2.2-2.7.3-1.8 1.1-3.6 1-5.5 0-.7-.3-1.1-.7-1.5-1.6-1.8-3.7-2.1-5.8-1.8-.6.1-1.1.6-1.6 1-1 .9-1.8 1.8-2.7 2.7-.2.2-.6.4-.5-.1.1-.4-.9-.5-.2-1s1.4-1 2-1.7c.5-.6.9-1.3.8-2.1v-2.3c-.1-1-1-2.1-2-2-1.1 0-2.2-.4-3.2.4-.3.2-.9 0-1.3 0-.5 0-.6-.1-.7-.6-.7-2-1-4.1-1.7-6.1-.5-1.5-.9-8.7-.4-10 .5-1.5.1-3 .5-4.4.5-1.6.8-3.3 1.5-4.8.3-.7.4-1.3 0-1.9-.5-.9-.3-1.7-.1-2.6.1-.7.8-1.3.7-1.9 0-.7.6-1.3.2-2v-.3c.3 0 .6-.1.9-.1 1.2 0 2.3.1 3.4-.6.9-.6 2.1-.5 2.8-1.4.2-.3.6-.3.9-.5.4-.3.7-.3.9.1.9 1.1 2.2 1.8 2.8 3.2.4.8 1.2 1.3 1.9 2 2.4 2.3 4.8 4.8 7.4 6.9 2.8 2.2 5.6 4.6 8.6 6.6 1.9 1.3 3.7 2.7 5.7 3.9 2.4 1.4 4.9 2.3 7.7 2.9 2.3.5 4.4.1 6.7.3.4 0 .8-.3 1.2-.4 1.8-.6 3.7-1 5.4-1.7 2.2-.9 4.1-2.6 6.1-3.8.5-.3.9-.7 1.4-1s.7-1.1 1.4-1.1c-.1.5-.3 1.1-.4 1.6-.4 1.2-.5 2.5-1.4 3.5-.6.7-.8 1.3-.5 2.4.3 1.2-.2 2.6-.4 3.9 0 .2-.4.5-.6.6-1 .7-1 2-1.6 3-.3.5.4.7.6 1.1.1.2 1-.1.5.4-.4.4.3 1.4-.7 1.4-1-.1-1.5.9-2.2 1.2-.9.4-1.6 1.3-1.8 2.4-.2 1.4 0 2.8.6 4.1.4.8 1 1.4 1.6 2.1.8 1 1.9 1.3 3.1 1.2.6 0 1-.2 1.4-.6 1-1 2.1-2 2.6-3.5.1-.3.3-.6.5-.9.1-.2.3-.3.5-.5.1.2.1.4.2.6.5 1 1.1 1.9 1.4 3.1.3 1 1 1.9 1.6 2.8 2 3.1 3.5 6.6 5.6 9.7.5.7.6 1.7 1 2.5.4.9 1 1.7 1.3 2.6.3.9.4 1.8.9 2.6v.2c-.2 2.2 1 4.2 1.3 6.3.2 2 1.3 3.9 1 6 .8.9.1 2.2.6 3.1.5 1 0 2.1.3 3.1.7 1.7.3 3.4.4 4.9-.3 1.1-.3 2-.3 2.8zm-22.5-52.4c-.3 0-.5-.2-.7-.2.3-.1.6-.1.8-.2.8-.5 1.5-.4 2.4 0 1.3.6 1.3.4 1.3 2.2-.1.5-.3 1.3-.5 2.1-.1.6-.8 1-1.2.6-.6-.5-1.3-1.1-1.8-1.8-.4-.5-.4-1.2.1-1.8.5-.6.3-.8-.4-.9zm6.9-9.4c.4-.6.6-1.1 1.4-1 1.1.1 1.8.8 1.9 1.7v.7c0 .3.1.6 0 .9-.1.3-.3.5-.5.6-.1.1-.4-.2-.6-.3-.6-.3-1.3-.6-1.8-1-.8-.4-.9-.8-.4-1.6zm19.6 4.3c1.7 2 3.6 3.8 5.4 5.7.8.8 1.8 1.5 2.7 2.3.7.7.7.8-.3 1.3-.8.4-1.7.5-2.6.9-2.4 1.2-5.1 2-6.9 4.2-.9 1-.7 1.8.4 2.6s2.2 1.7 3.3 2.6c2.3 2 4.4 4.1 6.9 5.7 1.8 1.2 3.4 2.8 5.1 4.1.4.3.8.5 1.3.8.6.4.6.7.2 1.1-1.2 1.2-2.3 2.4-3.5 3.5-2.8 2.7-5.1 5.9-7.2 9.1-1.4 2.1-2.3 4.5-3.4 6.8-.2.5-.6 1-.9 1.5-.1.1-.2.2-.3.2-.1-.1-.2-.2-.2-.4-.2-2-.1-4-.5-5.9-.5-2.2-.6-4.5-1.2-6.7-.5-1.6-.7-3.4-1-5.1-.1-.4 0-.9-.5-1.2.6-.6-.8-1-.2-1.8.2-.3-.2-1-.3-1.5-.2-.8-.2-1.6-.5-2.3-1.8-4.3-3.7-8.5-6.2-12.5-1.5-2.5-2.9-5-4.3-7.6-.7-1.4-1.2-2.8-1.9-4.2-.2-.5-.9-1-.8-1.4s.8-.7 1.3-1c1.5-1.2 2.1-2.9 2.3-4.7.1-.6 0-1.2 0-1.8 0-1.6-.6-2.2-2.2-2.3h-1.5c-.7.2-1.6-.4-2.4.4-.2.2-.7.3-1.1.4 0-.4-.1-.9-.1-1.3.1-.5.2-1.2.6-1.6.5-.5 1.2-.7 1.8-1.1 1.7-1.1 3.6-1.5 5.4-2.3.3-.1.6-.1.8-.2.5-.2 1.1-.7 1.5-.6.4 0 .8.6 1.1 1 1.6 1.8 2.8 3.8 4.2 5.8 2.1 2.4 3.8 5.1 5.7 7.5zm-4.4-19.5c-2.9.4-5.6 1.5-8.3 2.5-1.9.7-3.8 1.3-5.6 2.4-.4.2-.8 0-.7-.5.3-1.1.4-2.3 1-3.2s1.5-1.6 2.5-2.1c2-1 4.1-2 5.8-3.5.2-.2.9-.1 1.2.1.4.3.9.7 1.1 1.1.6 1.3 1.6 2 2.9 2.4.3.1.5.3.8.5-.5.2-.6.3-.7.3zm5.7-7c-.6.3-1.3.2-2 .2v-.1c-.6 0-1.2.1-1.8 0-.9-.3-1.7-.7-2.5-1.1l1.6-1.6c1.3-1.5 2.7-2.9 4-4.5.5-.6.8-1.5 1.3-2.2.3-.4.6-.9 1.1-.2.6.8 1.6 1 2.6.9.5 0 .8.1.8.7 0 4.2-1.6 6.4-5.1 7.9zm2.6 2.9c-.1.1-.3 0-.4 0-.2 0-.4-.1-.6-.2.1-.2.1-.6.3-.7 1.9-1.2 5.3-5.6 5.9-7.4.3-1 .6-2.1.6-3.1 0-.9.4-1.6.8-2.4.5-.9 1.1-1.8 1.4-2.8.5-1.6-.5-2.9-1.6-3.8-.7-.5-.9-1.1-1.1-1.8-.1-.4 0-.9 0-1.4v-25.7c0-1.9 0-3.9-.5-5.7-.7-2.6-.9-5.3-1.7-7.9-.1-.2 0-.6.1-.6.2-.1.5 0 .8.1.5.2 1 .6 1.5.7.3 0 .8-.3 1.1-.6.1-.1-.1-.7-.2-.9-1.2-1.3-2.7-2.1-4.2-3-.5-.4-.7-.8-.9-1.3-1.4-3.5-2.6-7.1-3.9-10.7-1.1-2.9-2.8-5.3-4.6-7.7-.8-1.1-1.8-2.1-2.7-3.2-.1-.2 0-.5 0-.8.2 0 .5 0 .6.1.3.2.5.5.8.8 1.4 1.4 2.9 2.9 4.4 4.3 3.5 3.3 6.2 7.2 8.2 11.6 2 4.3 3.8 8.7 5.3 13.3.5 1.6.6 3.4 1.1 5 .3 1.1.2 2.3.5 3.2.4 1.1.2 2 .4 3s.6 1.9.5 3c-.1 1 .2 2 .3 3 .3 2.1.1 4.2.1 6.4 0 1.1.1 2.1 0 3.2-.1 1.2.3 2.5-.3 3.7-.5 1 .3 2.4-.6 3.4.3 1.2-.3 2.3-.5 3.4-.5 3.4-1.1 6.8-2.3 10-1 2.8-2.5 5.3-3.8 8-.5 1-1 2.1-1.7 2.9-1 1-2.1 1.8-3.1 2.6zm31.7-26.8c.2 3.1-.8 6-1.4 9-.1.4-.7.8-.9 1.2-.6 1.6-1.4 3.1-1.4 4.9 0 .6-.2 1.1-.4 1.6-.6 1.2-1 2.5-1.4 3.7-.4 1.1-1.2 2.1-1.9 3.1-1.7 2.2-4.3 3.3-6.3 5-1.5.2-2.7 1.2-4 1.8-1.4.5-2.7 1.2-4.2 1.4-1.4.2-2.8.1-4.2 0-.4 0-.8-.3-1.2-.3-.6 0-.8-.2-.8-.8 0-.4-.1-.9-.4-1.2-.4-.6-.4-.9.1-1.2 1.7-.8 2.8-2.2 3.9-3.6 1.6-2 2.9-4.1 4.5-6.1 1-1.3 1.7-2.6 2.4-4 2-3.8 3.6-7.8 4.8-11.9.6-2.1 1.3-4.2 1.6-6.4.3-2.3.6-4.6 1-6.9.4-2.2.3-4.4.3-6.7 0-1.1-.3-2.3-.4-3.5s.2-2.5-.1-3.6c-.5-1.8-.4-3.7-1.2-5.4-.4-.8-.3-1.8-.5-2.7-.7-4-1.7-7.9-3.1-11.7-.5-1.4-1.1-2.8-1.4-4.2-.4-1.4-1-2.8-1.6-4.1-1.1-2.4-2.2-4.9-3.7-7.1-1.6-2.3-2.6-5-3.9-7.4-1.4-2.5-3-4.9-4.5-7.2-1-1.5-2.1-2.9-3-4.4-1-1.6-2.4-3-3.6-4.4-2-2.2-4-4.4-6.3-6.3-2.7-2.3-5.5-4.6-8.8-6.2-2.2-1.1-4.4-2.3-6.4-3.9-1.9-1.5-4.3-2.4-6.6-3.3-3.9-1.4-7.6-3.2-11.3-5-.3-.1-.5-.3-.7-.5-.1-.1-.1-.2-.1-.3.1 0 .3-.2.4-.1 2.2.8 4.5 1.6 6.7 2.4 1.7.6 3.3 1.3 5 1.6 2.4.4 4.5 1.5 6.7 2.5 1.7.7 3.2 1.7 4.9 2.5.7.3 1.4.5 2.2.8 2.6 1.1 4.9 2.8 7.4 4.2 1.5.8 2.9 1.9 4.3 2.8.8.5 1.6 1 2.3 1.5 2.4 2 4.7 4 7 6.1 2.2 2 3.6 4.5 5.3 6.9 2.7 3.8 4.8 7.9 6.7 12 1.2 2.7 2.3 5.4 2.9 8.4.3 1.4.9 2.7 1.3 4 .8 2.6 1.5 5.1 2.3 7.7.9 2.9 1.7 5.8 2.6 8.7.9 2.8 1.6 5.7 2 8.8.2 1.8.6 3.5.9 5.3.3 1.6.1 3.3.4 4.8.8 3.6.5 7.3.3 11-.1 3.6-.8 7.1-2 10.5-1.5 4.3-3.7 8.2-5.8 12.2-1.2 2.3-2.7 4.7-5.2 6-.8.4-1.3 1.2-2 1.7-1.3 1-2.6 1.8-3.8 2.8-.3.2-.5.5-.7.9s.1.9.6.9 1 0 1.4-.4c1.1-.9 2.4-1.5 3.5-2.4 1.6-1.2 3.2-2.5 4.5-4 2.8-3.1 5-6.8 6.8-10.6 1.6-3.4 3.2-6.7 4.2-10.3.3-1.2.6-2.5.9-3.7.8-3.2.1-6.4.4-9.1v-5.3c-.1-2.3-.3-4.6-.4-6.9-1-1.2-.2-2.7-.8-4-.5-1.2-.2-2.8-.6-4.1-.8-2.2-1.3-4.5-1.9-6.7-.8-2.5-1.6-5-2.2-7.5-.6-2.6-1.4-5.2-2.3-7.7-1-2.7-1.6-5.5-2.7-8.2-.6-1.6-1.1-3.3-1.8-4.9-2.2-5.1-5.3-9.7-8.3-14.3-1.9-3-4.4-5.5-7-7.7-2.9-2.5-5.9-4.9-9.1-7-1.2-.8-2.5-1.3-3.7-2.1-1.7-1.2-3.6-2.2-5.6-3-3.2-1.4-6.3-3.1-9.5-4.5-2.1-.9-4.4-1.6-6.6-2.1-.5-.1-.9-.3-1.4-.4-.2-.1-.4-.1-.6-.2.2-.1.3-.2.5-.2 1-.2 2 .4 3 .4 1.2.1 2.2.4 3.3.8 1.8.5 3.4 1.5 5 2.3s3.2 1.4 4.9 2c1.8.6 3.4 1.6 5.1 2.5 2.7 1.5 5.4 2.9 8.6 3.5 1.8.3 3.5 1.3 4.8 2.6l4.2 4.2c.5.5.8.6 1.3 0 .2-.3.5-.5.8-.8.6-.7.6-1.5 0-2.2-.5-.5-.9-1-1.4-1.5-.1-.1 0-.3 0-.4.2 0 .4 0 .5.1.7.7 1.5 1.3 2.1 2.1 1.6 2.2 3.2 4.4 4.7 6.7 1.7 2.8 3.2 5.7 5 8.4.9 1.4 1.4 3.1 1.9 4.7s1.1 3.2 1.7 4.8c.8 2.5 1.6 5.1 2.5 7.6.5 1.5.9 3 1.4 4.4.4 1.5.5 3.1 1.4 4.4.3 3.4 1.9 6.4 2.3 9.7 1 1.9.7 4.2 1.7 6.1.4.8.2 1.8.5 2.7.5 2 .7 4 1.4 6 .4 1.3.3 2.7.5 4.1.1 1.1.3 2.1.4 3.2.1 1.1-.3 2.2.4 3.2.2.3 0 .7 0 1.1V160c0 .9-.3 1.8-.4 2.8-.1.8.4 1.8-.4 2.6-.6.2-.6.5-.5.7zm55.4-28.5c1.2 1.6 2.5 3.2 3.7 4.8.2.3.4.6.7.9 2.7 2.9 5.4 5.8 8.2 8.6.6.6.7 1 .3 1.8-.5.9-.6 2.1-.5 3.2.1 1 0 2 0 3 0 .7-.5 1.2-1.1 1.1-1.2-.2-2.3.6-3.5.5-.8 1-2.2-.1-3 .9-2.1-.1-4.1.7-6.2 1-1.9.3-3.8.4-5.6 1.3-2.9 0-5.5 1.3-8.3 1.9-1.6.3-3.2 1.1-4.8 1.7-4.1 1.4-8 3.4-12.2 4.7-1.3.4-2.5 1-3.7 1.4-1.6.5-3.3.9-4.8 1.5-1.6.6-3.2 1.1-4.8 1.7-1.1.4-2.1.8-3.1 1.2-2 .9-3.9 1.8-5.9 2.7-.2.1-.4.1-.6.1 0-.2 0-.4.1-.5.6-.4.6-.9.6-1.6-.1-2.8.4-5.5 1.3-8.1.4-1.2.4-2.6.5-3.9.1-1 .3-2 .5-3 .2-.9-.4-2 .4-2.8v-.2c-.2-3.1 1-6.3.4-9.4-.4-2.4-.1-4.8-.5-7.1-.2-1.2-.4-2.4-.4-3.7 0-1.2-.8-2.2-.5-3.4-.9-2.5-1.3-5.1-1.7-7.7-.6-3.6-1.8-7-2.5-10.6-.3-1.8-.7-3.6-1.4-5.3-.7-1.7-.6-3.6-1.6-5.3-1.3-6.1-3.6-11.8-5.6-17.7-1-3.1-2.2-6.2-4.2-8.9-.2-.2-.2-.5-.3-.8-.9-1.1-1.1-2.7-2.2-3.6-.1-.1 0-.3 0-.4s.1-.1.2-.2c.1.1.2.1.3.2.4.3.8.5 1.3.8 1.8 1.2 1.7 1.3 3.4 4.2.6 1 1 2 1.3 3.1.7 2.4 2.4 4.4 5 5.7 1.5.7 2.8 2 4.7 1.9.4 0 .7.4 1.1.6 1.1.5 2.2 1.2 3.4 1.6 1.7.6 2.9 1.5 4 3s2.7 2.8 4.2 4c1.6 1.3 3.3 2.4 5 3.4 1.6 1 3.3 1.9 5 2.7.3.2.7.1 1.1.1 1.1 0 2.3-.1 3.4 0 1.6.1 3-.3 4.3-1.1 1.9-1.1 4-1.8 5.8-3 .9-.6 2.1-.8 3.2-.9.9-.1 1.9.2 2.7.5 2.6.9 4.8 2.4 7 3.9 2.2 1.4 4.3 2.9 6.4 4.3.4.3.4.5.2.9-1.2 2-2.4 4-3.7 5.9-.8 1.2-1.4 2.5-2 3.7s-1.4 2.3-1.4 3.7c0 .7-.7 1.4-1 2.1-.3.6-.1 1.4.4 1.4 1.6 0 2.2 1.2 2.9 2.2 1.4 1.7 2.8 3.5 4.1 5.3zM393.9 78c-2.1-.7-2.3-2.7-3-4.2-1.1-2.4-1.5-5.1-2.3-7.7-.2-.5.1-1.1.6-1.3.2-.1.6.1.9.2 2.2 1.1 3.6 2.9 4.4 5.2 1 2.7 1.9 5.4 2.8 8.1.4 1.2 1.4 2.3 2.2 3.4.4.6 1.1 1.1 1.6 1.6 1.3 1.3 1.3 1.3-.3 2.1-1.2.6-2.5 1.1-3 2.5 0 .1-.2.2-.3.4-.1-.1-.3-.3-.5-.4-1.5-1.2-1.8-3-2.5-4.6-.2-.5-.2-1-.5-1.4-.4-.6-.6-1 .1-1.7s.6-2-.2-2.2zm71 39.7c-.9.3-1.4 1.1-2.1 1.6s-1.4 1-2.1 1.6c-1.3 1.2-2.7 2.4-4 3.5l-.3.3c-.1-.3-.2-.6-.1-.8.6-1.2 1.1-2.4 1.8-3.6 1-1.7 2.1-3.4 3.2-5.1.7-1.2.7-1.2 1.8-.5.5.4 1.1.8 1.6 1.1.4.3.8.5 1.2.8-.3.5-.6 1-1 1.1zm14-19.3l-2.4 3.3c-1.3 1.8-2.3 3.7-3.4 5.6s-2.3 3.6-3.5 5.4c-.1.1-.6.1-.7 0-.8-1.1-2.1-1.5-3.3-2.1-.6-.3-.6-.5-.3-.9.2-.2.2-.6.3-.8.7-.5-.1-.7-.3-1-.2-.3-.4-.7-1-.2-.5.5-1.3.9-1.8.9-.6-.1-1.1-.8-1.8-1.2l-8.1-5.1c-1.9-1.2-4-1.8-6-2.6-1.4-.5-2.6.4-4 .6-2.4.4-4.3 2-6.5 3-1.4.7-2.9 1.5-4.4 1.4-1.6-.1-3.3.3-4.8-.6-.9-.5-1.9-.9-2.8-1.5-.9-.5-1.7-1.3-2.7-1.7-1.8-.8-3.2-2.3-4.7-3.5-1.3-1-2.2-2.6-3.3-3.8-.8-.9-1.5-1.8-2.5-2.6-.4-.4-1.2-.4-1.8-.6-2-.6-3.9-1.3-5.5-2.7-.2-.2-.2-.5-.2-.8 0-.1.4-.2.6-.2h3.1c2.1-.5 4.1.7 6.2 1.6 1.8.8 3.7 1.4 5.3 2.5.7.4 1.3.8 2 1.2 1.6 1 3.4 1.4 5.3 1.5 1.6.1 3.2 0 4.8 0 1.9.1 2.9-1.4 3.9-2.5.6-.6-.1-1.5-1-1.6-.7-.1-1.1.5-1.8.3-.6-.2-1.3-.2-2-.2h-2c-.4 0-.9 0-1.3-.1-1.3-.6-2.7-.8-3.7-1.9 1-.8 1.6-2.2 3-2.6 1.7-1.9 4-2.7 6.1-3.9.4-.2.8-.4 1.1-.7.6-.5 1.4-1.4 1-2s-1.4-.2-2.2.2c-2.6 1.3-5 2.7-7.2 4.6-1 .9-2.1 1.7-3 2.6-.6.6-1 .5-1.7.3-1.9-.8-3.7-1.6-5.6-2.4-1.3-.6-2.6-1.2-4.1-1-.9.1-1.8-.1-2.7 0-1.4.2-2.4-.4-3.4-1.2-2.7-2.2-4.4-5.1-5.3-8.5v-.3c.1-.1.3-.1.4-.1 1.5.7 2.9 1.4 4.4 2 .6.3 1.2.5 1.8.7.5.2 1.1 1 1.7 0 1.2.1 1-1.1 1.5-1.6.1-.1-.2-.7-.5-.9-.9-.5-1.8-1.2-2.8-1.4-1.7-.4-3.1-1.4-4.6-2-.8-.3-1.5-.7-2.3-.9-.9-.3-1.6-.8-2.1-2-.9-1.9-2.1-3.8-4.3-4.5-1.2-.4-2.4-.3-3.5-.2-.6.1-1.1 1-1.6 1.5-.2.1-.6.2-.7.1-1.3-1-2.9-1.8-3.9-3.1-1.2-1.5-2-3.4-2.9-5.1-.2-.3-.1-.7-.1-1.1 0-.6.4-.7.7-.5 1.6.6 3.4.6 4.8 1.6.6.4 1.5.5 2.1.8 2.5 1.3 5 2.7 7.3 4.5 2.3 1.9 5.1 3.1 7.7 4.5 1.6.9 3.5 1.1 5.2 1.8 1.5.6 3.1 1 4.5 1.7.9.4 1.7.7 2.7.6 3.2-.2 6.4.7 9.6.5 3.3-.2 6.5-.1 9.8 0 1.7.1 3.4.5 5 1 1.1.3 2.3.5 3.4 1.2.9.6 2.1.9 3 1.5 1.6 1 3.1 2.1 4.6 3.2.5.4 1.1.7 1.6 1.1.8.9 1.6 1.7 2.3 2.6 1.1 1.4 2.5 2.6 4.2 3.5 2.5 1.4 5.1 2.7 7.7 4 2 1.1 4 2.3 5.7 3.8 1.5 1.3 3.4 2.1 5 3.4.7.6 1.6 1 2.3 1.6.8.7.8 1.3.4 2zm17.7 183.4c.4.2.9.4 1.3.6 1 .6 2 1.2 2.8 1.9 1.4 1.2 2.8 2.3 4.3 3.4 1.3 1 2.5 2.3 3.4 3.8 2.1 3.7 3.3 7.7 4.9 11.6.3.8.4 1.7.6 2.5.2.8.7 1.6.9 2.4s.1 1.9.5 2.5c.7.8-.1 1.9.8 2.4l.6 6.6c.2 4.5-1.6 8.4-3.3 12.3 0 .1-.1.1-.1.2-.2.2-.4.4-.6.5-.1-.2-.1-.4-.2-.6-.9-1.8-1.7-3.6-2.3-5.4-.4-1.2-1-2.3-1.5-3.5-.9-2.1-2-4.2-2.9-6.3-1.2-2.8-2.1-5.6-3.2-8.4-.3-.7-.8-1.4-.8-2.1s.6-1.4.8-2.1c.6-1.5.7-2.9.1-4.4-.2-.6 0-1.3-.2-2-.7-1.9-2.2-3-3.9-4l-1.4-1.4c-.8-1.7-1.4-3.3-2-5.1-.1-.3-.3-.5-.1-1l1.5-3.3c-.2-.3-.1-.7 0-1.1zm-6-37.3c1 3 2.3 5.9 3.2 8.9.1.3.3.5.3.8 0 2.5 1.1 4.8.9 7.4 1 1.3.2 3 .7 4.5.5 1.4.1 3.1.2 4.7.3 3.8-.9 7.3-2 10.8-.2.6-.2 1.1-.4 1.7-.2.8-.4 1.9-.9 2.3-.9.7-1.3 1.7-2.1 2.3-.9.6-3.1.3-3.6-.7-.1-.1 0-.4.2-.5.7-.6.9-1.3 1.1-2.3.4-2.7 1.1-5.3 1.9-7.9.2-.6.3-1.1.3-1.7v-6.1c0-1-.1-2 0-3 .3-3.9-.8-7.5-1.9-11.1-.7-2.3-1.5-4.5-2.5-6.7-1-2.1-2-4.2-2.9-6.3-.6-1.4-1.6-2.3-2.5-3.5-.3-.5-.4-.7 0-1.1.7-.7 1.4-1.3 1.8-2.2.2-.4.6-.7 1.1-.2 2.9 3 5.7 5.9 7.1 9.9zm-16.8-15c1-.3 1.5-1.2 2.2-1.8.1-.1.2-.1.4-.2.1.1.3.2.5.3 1.6 1.5 3.1 3.1 4.6 4.6.3.3.2.4 0 .7-.6.7-1 1.4-1.6 2-.8.8-1 .9-1.5 0-1.3-1.9-3-3.3-4.5-4.9-.1-.1-.1-.7-.1-.7zm-.4-2c-1.1.6-1.1.6-2-.3-.6-.6-1.2-1.1-1.5-1.9-.4-1.1-.3-1.5.8-1.9 1.3-.4 2.2.4 3.2.9.3.2.2.9.3 1.4 0 .9-.1 1.5-.8 1.8zm5.7 14.4c.7 1.1 1.6 2.1 1.9 3.5.4 1.6 1.4 3.1 2.1 4.6 1.6 3.2 2.3 6.8 3.6 10.1.3.8.4 1.9.4 2.7.1 1.5.6 2.9.6 4.4-.1 1.4 0 2.9 0 4.3v4.8c0 .1-.1.3-.2.4-.1-.1-.2-.3-.3-.4-1-1.6-1.5-3.4-1.8-5.2-.3-1.8-1-3.4-1.6-5.1-.5-1.7-1-3.4-1.7-4.9s-1.2-3.1-1.8-4.7c-.4-1.2-.8-2.4-1.4-3.5-1.4-2.4-2.1-5-3.1-7.6-.4-1-.7-2.1-1.2-3.1-.2-.5-.3-.7.3-.9.8-.3 1.6-.9 2.4-1.3.8.5 1.4 1.1 1.8 1.9zm-13.4-44.8c.1 0 .2.4.2.6 0 .1-.1.2-.2.3h-.2c-1.8.2-3.7.2-5.5.5-2.9.5-6 .7-8.8 1.8-.5.2-1.1.4-1.6.6-1.4.6-3.4 1-4.7.8-.3 0-.5-.3-.7-.5-.1-.1.1-.5.2-.6 1.1-1.1 2.3-1.8 3.9-2.1s3.1-.8 4.6-1.5c1.3-.6 2.6-.9 4-.8h2c.7 0 1.4.1 2 0 1.9-.4 3.2.8 4.8.9zm-13.5-8.9c1.6-.7 2.5.5 3.7.9 0 0 0 .5-.1.6s-.4.1-.6.1c-1.9-.2-3.7.5-5.4 1.1-.6.2-1.3.1-1.9.4-1.3.5-2.6 1.1-3.7 2-1.5 1.3-3.3 1.3-4.6 1.6H438c-.5-.1-.7-.8-.3-1.1.8-.7 1.5-1.4 2.4-1.9 2.3-1.4 4.8-2.4 7.6-2.5 1.5-.2 3.1-.6 4.5-1.2zm-22.9-1.2c.9 0 2.4 1.2 2.5 1.8 0 .2-.2.5-.4.7-.1.1-.3.1-.5 0-.6-.5-1.3-.9-1.9-1.4-.2-.2-.3-.5-.4-.7.3-.2.6-.3.7-.4zm-5.9 6c.4.1.9.4 1.2.8.3.3.4.7.6 1.2-.2.1-.5.3-.6.2-.4-.2-.7-.5-1-.8-.5-.4-.5-1.5-.2-1.4zm5.4 16.4c-.5 1.1-.5 2.4-.6 3.6-.1.7 0 1.4 0 2 0 .2-.1.4-.2.6-.1-.2-.2-.3-.3-.5-.6-1.1-.8-2.3-.9-3.5-.1-.7 0-1.4 0-2.4-.3-1.9.5-3.9 1.4-5.9.1-.3.4-.6.6-.9.1-.1.3-.1.4-.1.2.1.4.3.3.4 0 2.4.3 4.6-.7 6.7zm8.3 7.7c-.5 1.4-.9 2.9-.7 4.5 0 .1-.2.3-.3.5-.1-.1-.2-.3-.2-.4 0-1.8-.7-3.4-.5-5.2s0-3.6 0-5.4c0-.3.9-2.9.9-3.2 0-.7.4-.7.9-.7.6 0 .5.4.5.7.2 1.1.4 2.1.5 3.1-.3 2-.4 4.1-1.1 6.1zm8.6 7.7c-.1.2-.3.4-.3.6 0 .7 0 1.3-.7 1.8-.2-.6-.6-1.1-.7-1.7-.1-1.3 0-2.6 0-4.2-.2-1.7 0-3.7.9-5.5.1-.2 0-.5.1-.6.2-.2.6-.6.9-.5.3 0 .6.4.8.7.1.2 0 .6 0 .9 0 .8-.1 1.7 0 2.5.4 1.9-.2 3.9-1 6zm8.4.9c-.1.9-.3 1.7-.4 2.5-.3 2.4.6 4.7 1.1 7 .2.7.4 1.3.6 2 .1.3-.5.7-.8.5-.4-.2-.9-.5-1.2-.8-1.5-1.6-3.1-3.3-4.5-5-.4-.5-.7-1.2-.7-2 .1-1.4.1-2.7 0-4.1-.1-1.1.1-2.1.5-3 1.3-2.4 1.3-4.9 1.3-7.4 0-1.2-.2-2.3-.9-3.3-.2-.3-.2-.6-.7-.6-2.5-.3-4.1.8-5.4 3-1.4 2.6-2.3 5.2-2.2 8.2 0 1.4-.2 2.8.4 4.1.1.1 0 .3 0 .4-.2 0-.4 0-.5-.1-1.3-1-2-2.3-1.8-4 .1-1 .1-2 0-3-.1-1.3.3-2.4.7-3.6.7-2.2 1.3-4.4 1.2-6.8-.1-1.6.2-3.2-.4-4.8-.5-1.1-.7-1.5-1.7-1.1-1.2.4-2.5.6-3.4 1.6-1 1.1-1.7 2.2-2.2 3.7-.6 1.9-.4 3.8-.4 5.4v3.7c0 .3-.2.6-.3.9-.2-.3-.5-.6-.6-.9-1.2-2.1-.9-4.4-.9-6.6 1-.9 0-2.3.8-3.3.6-.8.2-2.1 1-3-.2-1.5.4-3.1-.4-4.6-.2-.5-.2-1.3-.7-1.5-.7-.1-1.4-.2-2.1.2-1.4.8-2.9 2.4-3.5 4-.1.2-.3.3-.4.5-.9 2-1.7 4-1.4 6.2v.9c0 .1-.1.2-.2.4l-.3-.3c-1.7-2.1-2.4-4.8-3.5-7.2v-6.4c0-.2.3-.4.5-.5.2 0 .5.1.6.2.7.4 1.3 1 1.9 1.4 1.3.8 2.5.5 3.3-.8 1.3-1.9 1.3-2 1.4-5.1 0-1 0-1 .9-.7.5.2 1.7.4 1.9.4 1 0 1.6-.6 2.2-1.3 1.4-1.5 2.4-3.1 1.6-5.3-.2-.4.4-1 .8-.9s.8.3 1.1.6c1.9 1.7 3.7.6 5.1-1.1.4-.4.7-1 1.2-1.3.4-.2 1 .3 1.4.3 1.6.1 2.8 1 4.2 1.4.5.2.9.5 1.4.7-.5.2-.9.3-1.4.5-.2.1-.4.1-.6.1-2.7-.1-4.9 1.5-7.1 2.6-1.3.7-2.4 1.6-3.6 2.4-1.5.9-2 2.4-2.3 4-.1.7.2 1.2.7 1.5.8.6 1.8 1.1 2.8.9 2.2-.6 4.6-.8 6.3-2.3 1.4-1.3 3.2-1.6 4.8-2.1 1.2-.4 2.6-.8 3.9-.9 1.6-.2 3.2-.1 4.8 0 .9 0 1.8.3 2.8.4.1 0 .2.2.3.3-.1.1-.2.2-.4.2h-3c-1.7 0-3.2.5-4.8 1.1-.8.3-1.7.8-2.6.8-.7 0-1.5.1-2.1.5-2.7 1.5-5.4 3-6.7 6.1-.5 1.3-.2 2.2 1.2 2.5.7.1 1.4.5 2.1.4 1.3-.2 2.6-.6 3.9-1 2.1-.7 4.1-1.4 6.3-1.8 1.3-.2 2.6-.2 3.9-.4 1.4-.3 2.8-.5 4.2-.8 1.4-.3 2.9-.4 4.4.2.7.3 1.4.2 2.1.4.2 0 .3.3.5.5-.2.1-.3.2-.5.3-1.1 0-2.3.1-3.4 0-3.3-.2-6.2.9-9.1 2.2-1.9.9-3.5 2.1-4.8 3.6-.9 1-.7 1.5-.4 2.7.3.9 1.1.9 1.5.9 1.7.3 3.4.1 4.9-.7 1.7-.8 3.4-1.5 5.1-1.8 1.9-.3 3.4-1.3 5.2-1.7 1.2-.3 2.3-.8 3.5-.8.8 0 1.5 0 2.4-.4.8-.4 1.9-.3 2.6.7.4.6.9 1 1.4 1.5.1.1.1.2.1.3-.1 0-.3.1-.4.1-2.5-.6-3.1-.4-6.2-.1-2.9.3-5 2.2-7.6 3.2-1.5.6-2.6 1.7-3.6 2.8-1.8 1.8-3.6 3.5-4.8 5.7-.6 1.4-1.8 4.5-1.9 5.6zm14.1-20.7c-.1.1-.2.2-.4.2-2 .6-4.1 1-6 1.8-.4.2-1 .2-1.4.5-1.7 1-3.6.9-5.5.9-.1 0-.2-.1-.3-.2l.3-.3c1.9-1.3 3.9-2.1 6.1-2.6.7-.2 1.4-.4 2.1-.4.7-.1 1.4 0 2 0h2.7c.2-.1.3 0 .4.1zm-1.7 35.3c-1.5 0-2.8-.1-4.1 0-.7 0-1.2-.3-1.5-.8-.9-1.3-2-2.5-2.2-4.1-.1-.8-1.3-.4-1-1.4.1-.5.2-1.1-.3-1.7-.4-.5.2-1.4-.5-1.8 0-1.3 0-2.6-.1-3.8-.1-2.5.4-4.7 1.8-6.7 1.2-1.7 2.3-3.5 4.2-4.6 2.1-1.3 4.1-2.7 6.6-3.4 1.3-.4 2.6-.8 4-.8 1.3 0 2.6.5 3.9 1 1.4.6 2.9.9 3.9 2.1 1.3.1.2.6.1.8s-.5.4 0 .6c2.8 1 3.7 2.3 3.7 5v3.4c0 1 0 2-.4 3-.2.7-.4 1.5-.7 2.2-.6-.4-1.2-.8-1.7-1.3-1.6-1.7-3.3-3.5-4.8-5.3-.2-.2-.9-.9-.1-1.4L476 220c-.3-.3-.6-.4-.9-.1-.2.1-.4.3-.6.3-1.7-.2-3.2.3-4.5 1.2-.2.1-.5.2-.6.2-1.4-1.3-1.9.2-2.7.9-.4.3-.5.9-.8 1.2-.7.7-.8 1.5-.3 2.4.1.2.3.5.3.8.1 2 1 3.4 3 3.9 1 .2 1.6 1 2 1.7 1.1 1.7 2.6 2.9 3.9 4.3l.8.8c.4.5.4 1-.2 1.2-1 .4-2 .7-3 1.1-2 .6-4 .3-5.9.4zm16.7 44.4c-.1-.1-.3-.1-.4-.2-.3-.8-.7-1.5-.9-2.4-.4-1.7-1.2-3.3-1.8-4.9-.8-2.2-1.5-4.4-2.3-6.6-.6-1.7-1.1-3.5-1.9-5.1-.4-.9-.7-1.7-.9-2.6-.4-1.5-1-2.9-1.5-4.4-.7-2.1-1.4-4.3-2.3-6.3-.5-1.2-.6-2.4-1.2-3.6-.6-1.4-1-2.9-1.7-4.3-.3-.5-.2-.8.4-.9.8-.1 1.5-.4 2.5-.7 0 0 .1 0 .2.1.8 2.7 2.2 5.2 2.8 7.9.3 1.3 1.2 2.5 1.8 3.8 1.5 3.6 2.8 7.2 4.1 10.8.6 1.7 1.3 3.4 1.8 5.2.7 2.1 1.2 4.2 1.8 6.3.1.3.2.5.3.8.6 1.3.9 2.6 1.3 4 0 .2.1.4 0 .5-.7.9-1.8 1.4-2.1 2.6zm5.8 15.4c-1.5-2.8-2.4-5.9-3.9-8.6-.1-.1 0-.4.1-.6 0-.1.3-.1.4-.1 2.1 1.1 3.9.2 5.6-.9.4-.2 1-.2 1.1.2.4 1.7 1.2 3.3 1.7 5s1.3 3.3 1.8 4.9c.2.8.1.9-.8 1.3-.9.3-1.8.7-2.8 1-1-.8-2.4-.7-3.2-2.2zm2.6 5.6l-.6-.6c.3-.1.6-.1.8-.2 1.2-.3 2.5-.5 3.6-1.1 1.1-.5 1.2-.4 1.7.7.2.5.3.9.5 1.4.4 1.1 0 1.7-1.2 1.7h-.9c-1.2-.1-2.7-.5-3.9-1.9zm8.7 28.7c-.7-3.2-1.9-6.2-2.5-9.4-.2-1.3-.9-2.5-1.3-3.8-.7-2.2-1.1-4.4-1.8-6.5-.4-1.2-.9-2.4-1.3-3.6-.1-.2.1-.6.1-.8 2.2.2 3.3 0 4.3-.7.9-.6.9-.6 1.3.4.8 1.9 1.7 3.7 2.2 5.7.3 1.2.8 2.2 1.3 3.3.9 2.1 2 4.2 2.9 6.3 1.2 3.1 2.9 5.9 3.7 9.2 0 .2.2.4.3.5.5.9.5 1.5-.3 2.4-1.6 1.9-3.1 3.9-4.9 5.7-.4.4-1 .3-1.1-.2-.5-3-2.3-5.6-2.9-8.5zm28.5 84.2c-2.7.1-5 1.5-7.6 2-2.2.5-4.4 1.2-6.8 1.2-1.2 0-2.3.3-3.5.4-1.1.1-2.3.1-3.4 0-1.3-.1-2.6-.3-3.9-.4s-2.6.2-3.9-.1c-1.6-.4-3.3-.5-4.9-.9-1.5-.3-3-.8-4.4-1.4-2.3-1-4.5-2.2-6.3-3.9-2.2-2.1-3.5-4.8-4.6-7.6-1.2-3.3-1.6-6.7-1.4-10.1v-3.2c0-1.7.4-3.3.8-4.9.3-1.5.7-2.9 1-4.4.5-2.3 1.3-4.5 2-6.7.8-2.4 1.9-4.7 3.1-6.9 2-3.6 3.9-7.2 6.5-10.5 2.2-2.9 4.4-5.7 6.9-8.3 1-1 1.9-2.2 2.9-3.3.3-.3.4-.2.5.2.9 2.4 1.9 4.8 2.7 7.3.5 1.6 1.1 3 1.7 4.5 1.2 3 2.5 5.9 3.4 9.1.4 1.3 1 2.5 1.6 3.7 1 2 1.8 4.1 2.5 6.2.6 1.8 1.4 3.5 2.1 5.3.5 1.2 1.1 2.4 1.5 3.7.3 1.3 1.5 2.3 1.4 3.7 1.1 1.6 1.6 3.4 2.4 5.1l2.4 5.1c.7 1.7 1.4 3.4 2.1 5 .8 2 1.6 4.1 2.5 6 .4.9.6 1.9 1 2.8.4.9.3 1.3-.3 1.3zm13 10c-.6 1-.9 1.2-2 .9-.3-.1-.7-.1-1-.4-.5-.4-1.4-.3-1.5-1.5s-1.1-2.2-1.7-3.4c-.6-1.3-1.3-2.7-1.8-4-.5-1.4-1.1-2.8-1.3-4.2-.4-2-1.6-3.8-2.2-5.7-.7-2.1-1.8-4.1-2.4-6.3-.2-.6-.6-1.1-.9-1.7-1.2-2.5-2.3-5.1-3.3-7.7-.8-1.9-1.8-3.8-2.6-5.7-.8-1.9-1.3-3.9-2.3-5.7-1.3-2.5-2-5.2-3.1-7.8-1.2-2.7-2.4-5.4-3.3-8.2-.9-2.6-1.7-5.2-3.1-7.6-.6-1-.8-2.2-1.2-3.4-1-2.9-2.3-5.6-3.1-8.5-.1-.5-.3-.9-.5-1.4.2-.5.3-.9.6-1.2 1.7-1.9 3.4-3.7 5.1-5.6.5-.5 1.1-.5 1.2.2.6 2.4 1.7 4.6 2.5 6.9.7 2.1 1.4 4.3 2.1 6.4.6 1.9 1.5 3.8 2.2 5.7 1 2.5 1.9 5 2.8 7.5.4 1.2 1.4 2.1 1.4 3.5 2 4 3 8.5 4.5 12.7 1.4 3.8 2.6 7.7 3.8 11.6 1 3.1 2 6.1 3 9.2.5 1.5.9 3 1.5 4.4 1.1 2.7 2.1 5.5 3.1 8.3.5 1.5 1.1 2.9 1.8 4.2.8 1.5 1.4 3.1 1.9 4.7.2.7.8 1.3.8 1.9-.1.7-.7 1.3-1 1.9zm2.1 3.7c-.2.1-.6 0-.9-.1-.1 0-.1-.1-.1-.1.4-.4.7-.8 1.1-1.1l.7.7c-.3.1-.5.4-.8.6zm6.5 25.4c-.1-.1-.3-.1-.3-.3-.3-.6-.5-1.1-.9-1.7-.9-1.6-1.4-3.3-2.1-5-.1-.3-.1-.7-.2-1.1.1-.2.2-.4.2-.5.1.2.2.3.3.5.2.5.3 1.1.5 1.6.8 1.8 1.7 3.5 2.5 5.3.1.2.1.6.1.8.1.2 0 .3-.1.4zm.6-12.7c-.1 0-.3-.1-.4-.2-1.7-3.2-3.4-6.5-5-9.7-.1-.1 0-.3.1-.4.2.1.4.1.5.2 1.5 2.4 2.8 4.9 4 7.4.4.8.8 1.5 1.1 2.3.1.1.1.2.2.3-.2 0-.4.1-.5.1zm17.8-10.7c-1.9 1.2-3.5 2.8-5.5 3.7-2 .9-3.5 2.6-5.6 3.4-.8.3-1.4 1.1-2.1 1.6-.6.5-1 .3-1.4-.5-.7-1.5-1.5-3-2.2-4.5s-1.6-2.9-2.4-4.2c-.4-.6-.6-1.3-1-1.9-.2-.4-.3-.6 0-1 .9-1.1.7-2.5.7-3.8 0-.2 0-.5-.1-.6-.9-.8-1.6-1.9-2.7-2.3-1-.4-1.3-1.2-1.6-2-.7-2.2-1.6-4.2-2.6-6.2-.1-.3-.5-.5.1-.5 1 0 1.8-.6 2.8-.5.6.1 1.2-.3 1.9-.4 1.4-.2 2.7.4 4 .6 1 .2 2.1.6 3.1.7 1.6.1 3.1.6 4.6.9 2.3.4 4.2 1.7 6.1 2.8 1.8 1 3.2 2.6 4.4 4.3.6.9.9 1.8 1.2 2.7.4 1.1.5 2.4.6 3.4-.1 2.1-1.1 3.6-2.3 4.3z"/><path class="st0" d="M290.4 446.4c-3.3-.2-6.5-.8-9.8-1.7-2.3-.6-4.5-1.1-6.7-1.9-2-.8-3.9-1.4-5.9-2.2-2.7-1.1-5.2-2.6-7.8-3.7-.9-.4-1.6-1-2.3-1.7-1-1-1.1-1.4 0-2.5.7-.7 1.3-1.5 2.4-2 .7-.3 1.4-.5 1.8 0 1.3 1.4 3 1.9 4.6 2.7 4.8 2.6 10.1 4.2 15.2 6.1 1.8-.1 3.4.7 5.1 1 2.2.4 4.4.7 6.7.9 1.5.2 3.1.3 4.6.4 1 0 1.4.8 1.3 2-.2 1.4-.5 2.9-.6 4.3-.1 1.7-.6 3.4-1.1 5-.9 3.1-1.9 6.2-3 9.2-1 2.6-1.9 5.3-3.1 7.8-1.1 2.3-1.9 4.7-2.8 7-.3.6-.6 1.3-.9 1.9-.8 1.6-1.5 3.2-2.3 4.8-.6 1.2-1.2 2.4-1.9 3.6-.1.2-.3.3-.5.3h-3.2c-.5 0-.4-.1-.2-.5l3.6-7.2c.6-1.2 1.4-2.4 1.6-3.6.2-1.4 1.2-2.4 1.5-3.7.4-1.8 1.6-3.4 2.2-5.2 1-3.3 2.6-6.4 3.3-9.8.4-1.7 1.2-3.3 1.3-5.1.7-.7.4-1.5.4-2.3.1-.7.6-1.3.5-2.1-.1-1.2-.5-1.7-1.8-1.8h-2.2zm-11.1-124.6c-1 .2-1.3-.6-1.6-1.2-.6-1-.6-2.3-1.5-3.3-.2-.2-.5-.7-.4-.9.1-.5.5-.9.8-1.3 1-1.1 2.4-1.6 3.7-2.1 1-.4 1.9-.9 2.9-1.3 2-.9 4-1.6 6.2-2.1 3.3-.7 6.6-1.3 9.8-2.5 1.2-.5 2.6-.7 3.9-1 2.5-.6 4.9-1.3 7.3-2.1 2.1-.7 4.2-1.3 6.2-1.9 1.3-.4 2.8-.5 4.2-.8 2-.4 3.6-1.4 5.4-2.3.3-.1.7-.3.9-.5.5-.4 1.3.1 1.6-.6.2.4.5.9.7 1.3 1.2 2.5 1.2 2.4-1.4 3.3-1.6.5-3.2 1.1-4.6 2-1.3.8-2.8 1.2-4.3 1.6-3.3.9-6.6 1.5-9.8 2.5-3.5 1.1-7.2 2.1-10.8 3-2.4.6-4.9 1.2-7.3 2-.9.3-2 .3-2.9.6-1.7.4-3.4.6-5.1 1-.9.2-1.1.6-.7 1.5.2.4.4.9.5 1.4.2.8.6 1.7.4 2.3-.2.5-1.3.6-2.1.8-.6.3-1.3.5-2 .6zm50.9-9.6c-2.7-.2-4.6.7-6.7 1.1-.8.1-1.8.5-2.4.2-2-1.1-3.8.1-5.7.3-1.7.2-3.3.8-5 1.1-.9.2-1.8.3-2.8.5-.9.2-2 .1-2.7.5-.8.5-1.8.4-2.6.8s-1.8.2-2.7.5c-.1.1-.4-.1-.6-.2.1-.2.2-.4.4-.5 1.1-.4 2.3-.7 3.4-1.2 2.8-1.2 5.9-1.4 8.7-2.7.6-.3 1.3.1 1.9-.4.4-.4 1.3.2 1.8-.5 2.9-.3 5.6-1.6 8.3-2.5 2.3-.7 4.6-1.2 6.9-2.1.4-.2.9 0 1.4 0 1.5 0 1.4 0 1.9 1.4l.9 2.1c.2.5-.1.9-.7 1-1.5.3-2.9.5-3.7.6zm51.6 52.7c.1 0-.3-.2-.7-.3-.3 0-.6.3-.9.4-.7 0-1.8-1.1-2.1-2-.4-1.5.1-3.6 1.2-4.8.8-.9 1.3-1.8 2.6-2.4 1.4-.6 2.5-.4 3.6.4 1.2.9 1.7 2.2 1.2 3.5-.6 1.6-1.1 3.4-2.6 4.6-.6.4-1.1.7-2.3.6zM366.3 420c.4 2-.6 4-1.9 5.7-.8 1-2 1.9-3.6 1.6-.9-.2-1.7-.9-1.8-1.9 0-1.2-.1-2.4 0-3.6 0-.5.1-1.2.5-1.6 1.4-1.4 2.5-3.1 4.5-3.8.4-.1.7-1.1 1.3-.3.4.5 1.1.8 1 1.6-.1.7 0 1.3 0 2.3zm10.5-116.8c-.7 1.3.1 2.1 1.1 3.1.4.4.6.9 1 1.4s.2.9 0 1.4c-.6 1.8-1.9 2.8-3.4 3.6h-.2c-.5.5-1.3 1.1-1.8.8-.5-.3-.6-1.2-.7-1.9-.3-1.1-.6-2 0-3.1.2-.3.1-.8-.1-1.1-1-1.3.1-2.3.5-3.3.5-1.2 1.5-1.9 2.7-2.3.4-.1 1-.2.9.6v.8zM324.5 167c3.5.2 4.5 2.3 6.9 3.5.8.4 1.6.7 2.5.6.7-.1 1.4.2 2 0 4.6-1.4 11.7 3.6 13.3 4.6.9.5 1.6 1.2 2.4 1.9.1.1 0 .6-.1.7-.6.4-1.3.8-2 1.2-1.2.7-7.6 3.8-9.8 4.4-3.2.7-8.3.9-13.3-.6-2.8-.9-5.6-2.1-7.9-4s-8.9-8.1-10-9.1c-.3-.3-.7-.5-1-.8-.5-.5-.5-.9.1-1.2.5-.3 1-.5 1.5-.7 1.1-.2 2.1-.5 3.2-.5 1 .1 9-.3 12.2 0zm-12.3 2.4c0 .1.7.8.8 1 .4.3.8.6 1.2.8 2.9 1.5 5.6 3.6 8.5 4.9 12.5 5.8 20.5 1.9 21.4.9 1.9-.9.7-1-.3-1.4-.4-.1-3.6-1.6-5.4-1.2-1.8.3-6.3.9-10.5-1.7-3.5-2.5-8.9-3.3-9.2-3.4-1-.2-6.9-.7-6.5.1zm36.4-10.4c.1-1.6-.4-3.1-1.4-4.4-.2-.3-.5-.4-.8-.6 0 .3-.2.6-.1.9.2 1-.3 1.8-.9 2.6-.8 1-2 1.2-2.9 1.8-.1 0-.3-.2-.5-.4-.1-.1-.1-.4 0-.5.4-.4.7-.8 1.4-1 1.2-.2 1.4-.9 1.5-2.1.1-1.3-.1-2.5-.6-3.6-.5-1.4-.8-2.7-.8-4.2 0-3.3.1-6.7 0-10-.1-1.4.2-2.8.6-4.1.3-1.4 1.3-2.6 2.3-3.6.1-.1.5-.1.6 0s.2.4.2.6c0 .2 0 .5-.2.6-1 1-1.5 2.3-1.8 3.6-.1.4-.3.8-.3 1.2 0 2.3-.2 3.8-.1 5.8 0 2.6.3 4.4.4 7.3 0 .6.4 1.4.7 1.8.8 1 1.9 1.8 2.7 3 .5.9.9 1.8 1.2 2.7.2.7.2 1.4.5 2.1.2.6.6 1.1.9 1.7.6 1 .6 2.2 1 3.2 1.2 3.5 2.8 6.8 5.2 9.7.1.1.2.2.2.4 0 .1 0 .3-.1.4 0 0-.2 0-.3-.1-2.8-1.5-4.1-4.1-5-7-.6-2-1.2-4-1.9-6.1 0-.1-.1-.3-.2-.4l-.3.3c-.4 1.2-1 2.8-2.7 2.9-1.8-.1-3.6.4-5.3-.4-1.5-.7-2.9-1.1-4.7-.5-2.2.7-4.3-.3-6.1-1.6-1.7-1.3-3.6-2-5.5-2.7-.5-.2-1-.1-1.5-.1-1.4-.1-2.6-.7-3.6-1.8-.8-.9-1.1-1.9-1.2-3.2-.1-2.3 1.2-3.8 2.8-5.2.3-.2.8-.2 1.2-.3.2 0 .4.1.6.2l-.3.3-1.8 1.8c-2.1 2.1-1 4.8 1.3 6.2.3.2.7 0 1.1.1 1.3.2 2.5.4 3.8.7 1.6.4 2.8 1.5 3.9 2.6 1.4 1.3 3.1 2 5 1.7.8-.1 1.6-.2 2.3-.6 1.3-.7 2.5-.3 3.7.3 1.1.5 2 1.3 3.4 1.2 1.5-.1 2.1-.7 2.2-2.1.2-.5.2-.8.2-1.1zm-27.2-30.1c-1.8-.4-3.5-.8-5.2-1.3-.6-.2-1.4.2-1.9-.4 0 0-.4.2-.6.4-.4.3-.8.6-1.2.8-.2.1-.4-.1-.6-.1.1-.2.2-.3.2-.5.2-.4.4-.8.5-1.1 0-.1 0-.3-.1-.4 0 0-.2 0-.3.1-.8.4-1.5.8-2.3 1.1-.3.1-.6-.2-1-.3.1-.3.2-.6.4-.7.3-.3.7-.4 1.1-.7.1-.1.2-.3.2-.5-.2 0-.4-.1-.6 0-.8.3-1.7.7-2.5 1.1-.3.1-.4 0-.4-.4-.1-.7.3-.9.7-1.3.2-.1.3-.2.5-.4-.3-.2-.6-.5-.9-.5-.5 0-.9.3-1.4.4-1.4.2-2.5-.6-3.6-1.2-.5-.3-.5-.6-.1-1.1.8-.9.8-.9 2.2-.4.2.1.4-.1.6-.1-.1-.2-.3-.3-.3-.5 0-.4.1-.8.2-1.2.4.1.8.2 1.2.4.2.1.3.3.5.5.4.4.8 1 .8-.2 0-.3.2-.5.4-.8.3-.5.7-.5 1.1 0 .1.1.3.2.3.3.1.7.4 1.3 1.3 1.1-.2-.4-.3-.9-.5-1.3-.4-.7.4-.8.6-1.1.4-.6.6.1.8.3.3.3.4.7.7 1.1l.6.6c.1-.3.1-.6.2-.8.1-.2.3-.5.5-.5.3 0 .8-.2.9.4.1.3.3.6.4.9.1.1.2.3.3.4 0-.1.1-.3.2-.4.2-.2.3-.5.5-.7.6-.5 1.2-.2 1.3.6v.7c0 .1.1.2.2.4l.3-.3c.1-.2.2-.5.4-.7.3-.4.6-1 1.2-.6.2.1 0 .8 0 1.2 0 .2-.1.3-.1.5.1 0 .3.1.4 0 .2-.1.3-.4.5-.4.3-.1.7-.1.9 0 .2.1.1.5.3.8.1.2.3.4.5.6.1-.1.4-.3.4-.4 0-.6.4-.5.8-.5.2 0 .5.1.6.2s0 .4-.1.6c-.6.9-.6 1.3.3 1.8 2.6 1.4 3.7 4 5.2 6.2.1.2-.1.5-.1.8-.2-.1-.5 0-.6-.2-1.1-1.3-2.6-2.2-3.4-3.8-.3-.6-1-1.1-1.6-1.6-.5-.4-1.7-1.3-2.3-1.7.3 1.1 0 2.4-1.6 2.9-.1 0 .8.5.9.5.9.5.9.6 1.5.7.5.1.7.3.6.7-.2-.2-.6-.1-.9 0zm-2.5-4.6c-.7-.5-1-.7-1.4-1-.1.2-.3.4-.3.7-.1.6.2.8.8.7.2 0 .4-.2.9-.4zm-5.9-1.6c-.1 0-2.8.4-3.1.5.2.2 1 .9 2.3 1.3.3.1.5.2 1 .3.5.1.4-.2.4-.5-.2-1.3.6-1.6-.6-1.6zm-1.3-10c-2.1.2-4.3.3-6.4.6-1.4.2-2.8.9-4.2 1.3-.3.1-.6.3-1 .4-.2.1-.4-.1-.6-.1.1-.2.2-.3.3-.5.2-.9 1.2-1.2 1.8-1.6 1.7-1 3.5-1.7 5.4-2.3h.4c1.8-1.3 3.9-1.3 6-1.4 2-.1 3.7.6 5.5 1.1.7.2 1.3.5 2 .7 1.4.4 2.6.9 3.8 1.8 1.6 1.2 3.4 2.1 5 3.2.8.6 1.5 1.2 2.2 1.9 1.1 1 1 2.9-.2 3.8-.3.2-.7.3-1 .2-.5-.1-.9-.4-1.3-.7-1.9-1.9-4.3-2.9-6.3-4.5-2.2-1.7-4.6-2.9-7.3-3.7-.3-.1-.7-.2-1.1-.2h-3c0 .1 0 .1 0 0zm-21.4-9.8c.1-.3.1-.6.2-.9 1.9-2.9 3.7-6 6.4-8.2 1.2-1 2.4-2 3.9-2.6.6-.2.8-.1 1.1.2.5.4-.1.6-.2.8-.4 1.5-1.9 2-3 2.8s-2.1 1.8-2.9 2.9c-1.1 1.4-1.9 2.8-2.8 4.3-.3.6-.9 1-1.4 1.4-.2.2-.7.2-1 0-.3 0-.3-.4-.3-.7zm25.5 50.7c-.3.4-.4.9-.8 1.3-1.1 1-2.2 2-3.3 2.9-2.4 1.8-5.1 3.3-7.8 4.6-.2.1-.4.1-.6.1.1-.2.1-.5.3-.6 1.7-1.2 3.4-2.3 5.1-3.4 1.2-.8 2.5-1.4 3.5-2.5.4-.5 1.1-.7 1.6-1.1.5-.4 1-.9 1.5-1.4.1-.1.3 0 .5.1-.1-.2-.1-.1 0 0z"/><path class="st0" d="M326.6 152.2c.4-1.3.7-2.5 1.1-3.7.1-.3.5-.5.9-.6.2-.1.6.1.8.2.1 0 0 .4-.1.6-.7.9-.8 2.1-1.2 3.1-.1.3-.2.6-.3.8-.2.2-.5.4-.7.3-.3-.1-.4-.5-.5-.7zm-16.5 89.4c-1.3.4-2.2-.3-3.1-1.2-.8-.9-.9-1.8-.6-2.8.1-.3.3-.6.2-.8-1.1-1.5.1-2.7.7-3.7 1.3-2.2 4.6-3.4 7.1-2.9.7.1 2.2 2 2.3 2.8.2 2-.7 3.7-1.6 5.4-.2.4-.4.8-.7 1.1-1.1 1.4-2.3 2.5-4.3 2.1zm3.6-6.2c-.2-1.8-.5-2-2.2-2-.7 0-.5.5-.8.8-.8.9-1.4 1.8-1.2 3.1.1.4.3.9.6 1.1.6.3 1.4.5 2 .4.4-.1.8-.8 1-1.3l.6-2.1zm19.5-9.3c1.2.1 2.2-.1 3.1.4 1.1.7 1.7 1.6 1.8 3 .1 1.8-.5 3.3-1.8 4.5-.4.4-.8.7-1.1 1.1-1.3 1.7-3.1 1.7-4.8 1.4-1.2-.2-1.8-1.4-1.8-2.7 0-.6-.1-1-.8-.9-.2 0-.5-.3-.5-.5-.3-2.4.7-4.2 2.8-5.4 1-.6 2.1-1 3.1-.9zm-.4 3.2c-.8 0-1.3.4-1.5 1.1-.3.9.7 3 1.6 3.4.2.1.5.1.7 0 .6-.1 1.8-1.7 1.8-2.3-.1-.9-1.4-2.1-2.6-2.2zm-30.8-.4h1.1c1.6 0 2.7 1.1 2.7 2.8 0 1 .3 2-.4 3-.9 1.2-1.7 2.3-3.1 3-.9.4-3.3.4-4.3 0-1-.3-1.4-.9-1.3-2 .2-1.4.3-2.8.5-4.1.2-1.2 2-2.7 3.2-2.7h1.6zm1.1 5.1c0-1.6-.9-2.4-2.1-2.4-.8 0-1.1.5-1.1 1.8 0 .3-.1.6 0 .9.1.3.3.7.5.7.7.1 1.5.3 2.1.1.3-.1.5-.9.6-1.1zm17.9 5.4h-1.8c-.7 0-1.5-.9-1.6-1.6v-2.7c0-.3.3-.6.4-.9 1.2-2.4 3.9-3.7 6.3-3.4 1.3.2 1.9.9 1.9 2.2 0 .9 0 1.8-.1 2.7-.2 1-1.8 3.3-2.7 3.6-.7.2-1.6.1-2.4.1zm2.1-3.9v-.9c.1-.7-.3-.7-.8-.7h-1.1c-.1 0-.3.1-.3.2 0 .7-.2 1.5.2 1.9.3.4 1.1.4 1.7.6.1 0 .3-.3.3-.4v-.7z"/><path class="st2" d="M133.7 342.4c.6-.4 1.2-.9 1.8-1.3 3.2-1.8 5.5 1.6 8.3 1.3 1.3-.1 2.5-.9 3.6-1.2 1.3-.3 2.9-.6 4.2-.1 2.7 1 6.2 5.7 7 8.9.4 1.4 0 3 .2 4.6.5 3.8 2.6 8.2 4.6 12.6 2.1 4.6 4.5 9.3 7.1 12.9.8 1.1 1.9 2 2.1 3.3-2 1.9-3.8-.5-5.3-1.6-3.3-2.5-6.3-4.9-10-7.4-1.4-1-3.8-2.9-5.3-1.8s0 4.5 1.1 6.3c1.4 2.3 3.5 4.6 5.3 7.2 1.1 1.6 4.3 5.6 2.6 6.8-1.1.7-3.2-1.3-4.6-2.3-4.5-3.5-8.6-7.6-13-11-2.9-2.1-6.1-3.6-8.9-5.8-3-2.2-5.9-4.1-8.9-6.3-.5-.6-.9-1.2-1.3-1.9-.3-.8-.7-1.8-.8-2.6-.4-3.8.6-7.9 4.4-10.6.6-.5 1.5-.8 2.1-1.4.8-1 .7-3.4 1.2-4.8.6-1.6 1.6-2.7 2.5-3.8zm23.8 24.2c-.7-.7.8-2.4 1-2.9.9-3-1.3-5.1-2.5-8.6-.3-.9.3-2 .2-3.1-.2-2.5-1.7-7.5-4.4-9.1-2.5-1.4-5.1 1.6-8 1.6-2.2 0-3.7-2.1-6-2.2-2-.1-4.5 1.5-5.4 3.6-.7 1.7.3 4.3-.8 5.8-1.3 1.8-3.1 1.9-4.5 2.9-2.7 2.1-3.6 6.2-2.2 8.9 1.5 2.8 3.7 4.1 5.7 5.4 1.5 1 2.9 2.1 4.4 3 2.9 1.8 6.3 1.7 9 3.8 0 .4-.1.8-.7 1.2 4.3 2.1 8.7 6.6 12.7 10.9 1.3 1.5 2.5 3.2 4.2 3.8-.8-5-7.4-10.6-10.3-16-1.5-2.8 2.3-6 5.1-5.6 3.5.5 8.2 6.4 11.3 9.4 1 1 2.1 2.5 3.5 2.2.2-1.5-1.2-2.8-2.1-4.1-2.8-4.3-5.7-8.8-7.8-12.8-.6.7-1.4 2.9-2.4 1.9z"/><path class="st2" d="M131.5 353.2c1.9-.7 3.7-1.1 5.4-1 .5-2.1 1.4-4.1 4.2-5.9-.9 1.9-2.6 3.7-2 5.9 2.3.6 4.9.2 7 2.5-.4.4-1.1 0-1.6-.1-1.9-.2-5.1-1-7.2 1-1.4 1.3-1.9 3.4-2.3 5-.1.4 0 1.1-.5 1.3-1.3-2.9-1.3-5.5 1.8-7.7-1.5-1.5-3.2-.9-4.8-1z"/><path class="st0" d="M96.9 381.6c-.3-2-2.3-4.2-4.5-4.7-1.8-.4-4.2 1-5.8.2-2-1-2.4-2.7-3.7-3.9-2.6-2.3-6.8-2.4-9.1-.6-2.5 2-3.4 4.3-4.4 6.6-.7 1.6-1.5 3.2-2.1 4.8-1.3 3.2-.6 6.5-2.2 9.5-.4.1-.8 0-1.3-.5-1.3 4.6-4.9 9.7-8.5 14.4-1.2 1.5-2.7 3-3 4.8 4.8-1.7 9.2-9.1 13.9-12.9 2.5-2 6.3 1.2 6.4 4 .1 3.5-4.9 9.2-7.3 12.8-.8 1.2-2.1 2.5-1.5 3.8 1.5-.1 2.5-1.6 3.7-2.8 3.7-3.5 7.7-7.1 11.2-9.9-.8-.5-3.1-.9-2.3-2 .6-.8 2.5.4 3.1.5 3.1.4 4.8-2.2 8-3.9.8-.5 2-.1 3.1-.4 2.5-.6 7.1-3 8.2-5.9 1-2.7-2.4-4.8-3-7.6-.4-2.2 1.4-4 1.1-6.3zm-9.6 3c-.2 2.4.6 4.8-1.2 7.3-.5-.3-.2-1.1-.2-1.6-.1-1.9 0-5.2-2.2-6.9-1.5-1.1-3.7-1.3-5.4-1.4-.4 0-1.1.2-1.3-.2 2.6-1.8 5.2-2.3 7.9.4 1.2-1.7.2-3.3.1-4.9 1.1 1.7 1.7 3.4 1.9 5.2 2.1.1 4.3.7 6.5 3.1-2-.6-4-2-6.1-1zm-29-30.8l.7-.7c.2-.5.3-1 .5-1.5l-1.2 2.2z"/><path class="st0" d="M67.9 352.8c-.9 2.7-23 43.1-30.2 64.6 13.1 9.3 26.3 18.6 39.4 27.9 1 .7 2.1 1.4 3.3 1.3 1.2-.2 2.2-1.1 2.8-2.2 17.1-29.6 22.7-41.9 39.3-63.5-24-9.4-32.4-14.9-54.6-28.1zm24.9 50.6c-1.4.6-2.9.5-4.5 1-3.6 1.2-7.6 4-11.6 6.7-4.2 2.8-8.4 6-11.5 9.3-.9.9-1.6 2.2-2.9 2.7-2.2-1.7-.2-3.9.7-5.5 1.9-3.7 3.8-7 5.5-11.1.7-1.6 2.2-4.3.9-5.5-1.4-1.3-4.4.8-6 2.2-2 1.8-3.9 4.3-6.2 6.4-1.4 1.3-4.8 5.2-6.2 3.7-.9-.9.7-3.3 1.5-4.9 2.7-5 6-9.8 8.5-14.8 1.6-3.2 2.5-6.6 4.1-9.8 1.6-3.3 3-6.6 4.6-9.8.5-.6 1.1-1.1 1.6-1.6.7-.4 1.7-1 2.4-1.2 3.7-1 7.8-.8 11.2 2.5.6.5 1 1.4 1.7 1.8 1.1.7 3.5.1 5 .4 1.8.3 3.1 1.1 4.3 1.8.5.5 1 1 1.6 1.5 2.3 2.9-.6 5.7.2 8.4.4 1.3 1.3 2.3 1.8 3.3.5 1.2 1.1 2.8.8 4.1-.5 2.8-4.5 7-7.5 8.4z"/></svg>