<svg xmlns="http://www.w3.org/2000/svg" viewBox="0 0 566.9 467.7"><style>.st0,.st1{fill:#ee7f00}.st1{fill-rule:evenodd;clip-rule:evenodd}.st4{fill:none;stroke:#ee7f00;stroke-miterlimit:10;stroke-width:4;stroke-linecap:round}</style><g id="Слой_1"><path class="st0" d="M84 226.9c-12.4-8.4-23.3-18.6-32.4-30.5-.3-.4-.7-.6-1.1-.7 2.5-3.1 5.1-6.2 7.4-9.5 1.4-2.1 5.6-6.6 5-9.5 0-.2-.1-.2-.3-.2-.2 0-.3.1-.5.1-1.4.1-3.6 3.2-3.4 4.5v.4s.1.1.2 0c-.8.9-3.9 6.5-4.5 7.1-1.7 2.2-3.5 4.4-5.3 6.6-1.9 2.4-3.9 4.6-5.9 6.8-.5.4-.8.9-1.2 1.4l-3.3 3.9c-5.8 7-11.1 14.2-14.9 22.5-1.1 2.4 2.9-1.7 3.4-2.7 3.7-7.9 9.1-14.7 14.8-21.2 10.5 12.7 22.2 24.5 35 35 .7.6 1.5.4 2.2-.2 1.1-.2 2.4-1.9 2.7-3 1.3-3.7 3.1-7.2 5.1-10.4.4-.7 1-2.3-.1-2.6-1-.2-2.2 1.5-2.9 2.2z"/><path class="st0" d="M94.9 214.4c3.3-5 6.7-10.2 10-15.2 2.3-3.4-.9-1.5-2.2.3-1.3 2.1-2.9 4.3-4.2 6.5-.1-.1-.3 0-.4 0-4.6 1.2-9.1-3.9-11.8-6.8-.5-.6-.9-1-1.4-1.6 2.8-4.1 5.6-8.3 8.5-12.3 2-2.9-.5-4.9-2.5-1.9-2.7 3.9-5.3 7.8-8.1 11.7-1.9-2.5-3.4-5.2-4.9-7.9 1.8-2.7 3.7-5.4 5.8-8 2.2-2.9-.8-5.2-3.1-2.4-3.9 5.1-7.3 10.3-10.6 15.8-.2-.1-.4-.1-.6 0-1 1.5-1.9 3-2.7 4.6 0 .2.1.3.3.5.1.1.2.1.1.2l-.1.1c.1.1.1.1.1.2.7.6 1.2 1.3 1.7 2.1l.1.1c6.5 7.4 13.9 13.7 22.1 18.9 2 .7 5.1-3.4 3.9-4.9zm69.7-103.6h-.2c-8.2-.4-9.9 2.1-11.8 4.3.4-1 .8-1.9 1-2.9 1-3.1 2.4-7.4 2.1-10.8 0-.4-.1-.8-.2-1.2-.3-2.1-1-5.2-1.2-6.8 0-.3-.1-.6-.4-.6-.2 0-.3.1-.4.2-1.4 1.3-6.6 3.2-3.2 8 .2.6.3 1.3.4 1.9.2.4.4.9.5 1.6 2.2 4.6-1 11-3.6 15.3-2.8-3.2-5.4-6.4-7.9-9.8l.2-.2c-.6-.6-1.2-1.2-1.9-1.8l-.1-.1c-.3.4-.6.7-.8.9-.4.4-7.2 4.7-7.5 5.5-1.2 1.1.3 2.3 1 3.3 6.8 9.3 14.3 17.9 22.8 25.6.9.9 1.5 1.7 2.4.9 3.1-2.5 5.5-2.9 8.6-6.9-.7-.3-1.3-.8-1.7-1.7l-.1-.2c-.1.1-.1.2-.2.2-4.5-4.4-8.9-9-13-13.7 2.1-2.2 1.3-2.2 4.7-4.2 2.5-1.1 5.1-1 8.3-.5 9.8 1.5 17.4 8.6 17.4 8.6l5.3-4.8c.2 0-10.6-9.6-20.5-10.1zm-57.1 23.4c-.3.2-.4.6-.7.8-.1.1-.2.3-.3.6-7 10.4-14.2 20.5-21.6 30.4-.8 1.1-1 6.4 0 5.2 2.1-2.8 4.3-5.8 6.4-8.7 0 .5 0 1 .2 1.2 6.7 7.5 13.6 14.7 20.9 21.7-.6.9-.8 2.1-.7 3.2.1.6.5 2.5 1.3 1.3 1.8-2.3 8.8-11.8 8.8-11.8s-1.6-.9-1.7-1l-.1-.1c-8.3-7.5-15.2-16.2-21.1-25.7 2.8-4.1 5.7-8.2 8.5-12.3.6-.5 1.1-6.1.1-4.8zm97.7-15.8c-.7-.5-6.2-1.9-5.4.4 2.8 8.3-5.2 15-13.1 12-.9-.3-4.5-.8-4.1 1.1 1.3 6.3 4.2 11.8 8.8 16.3 1.3 1.3 7.4 1.3 5.6-.5-3.9-3.8-6.5-8.2-7.8-13.2 8 .9 17.1-2.5 17.6-10.3 6.6 5.5 11.9 12.4 13.5 21.1 1 5.6.4 12.4-4.4 16.1-2.5 2-5.5 2.7-8.6 3-2.8.2-6.5 0-8.1-2.5-.9-1.3-.4-3.4-1.7-4 2.7.8 6.3-1.2 2.2-2.6-7.1-2.3-10.2 4.4-4.2 8.8 6.2 4.5 16.6 4.4 23.3 1.1 8.8-4.3 9.5-15.1 6.8-23.5-3.6-10.1-11.7-17.7-20.4-23.3zm41.2 7.2c-1.7-2.7-3.6-5.4-5.4-8-2.5-3.5-5-8.8-9.1-10.7-11.7-5.5-12.2 10.6-10.6 18.1.4 1.7 6.3 1.6 6.2 1.1-.7-3.4-1.9-14.1 1.7-17.5 1 1.2 1.8 2.7 2.5 3.6 1.5 2.1 3 4.4 4.6 6.5.2.3.3.5.5.8-5.6-.2-8.9 5.3-10.2 11.1-1.4 6.6 1.9 10.3 8.3 10.4 5.9 0 8.7-4.6 9.9-9.6 1.7.8 5.7.7 5.4.1-1-1.8-2.3-3.9-3.8-5.9zm-12.9 13.2c-2.6-4.7.3-13.4 4.6-16.8.5.6 1.2 1.6 1.7 2.5-.3.1-.3.2-.4.3-.2 2.6-.3 5.2-1.2 7.6-.2 1.2-2.7 5.4-4.7 6.4zm42.4-30.3c1.1-1-4.5-3-5.8-1.7-4.3 3.9-7.9 8.7-10.1 14-3.7-13.7-7.4-27.6-10.8-41.4-.4-1.4-5.2-2.2-6-1.1-3.1 4.5-6.8 7.9-11.6 10.4-2 1 3.7 2.9 5.1 2.2 3-1.6 5.6-3.5 7.9-5.7 4.1 16.5 8.5 32.9 13 49.3.4 1.4 6.3 2.2 6.1.8-.7-10.4 4.7-19.9 12.2-26.8z"/><path class="st0" d="M291.1 81.1c-3.1-2-5.8-1.6-8.5.7-2.6 2.3-5 4.7-7.7 7.1-1.3 1.2-3.1 3.4-5.1 5.3.4-3.1 1-7.2 1.1-8 .5-3.8 1.2-7.6 2-11.4.5-2-4.5-2.7-5.6-1.9-3.3 2.6-6.7 5.2-9.9 7.7-2.3 1.8 3.5 3.7 5.1 2.5.9-.7 1.9-1.5 2.9-2.2-.7 3.9-1.1 7.7-1.3 11.6-.2 3.4-.8 6.3 3.1 7.2 3.5.9 5.7-1.6 8-4 2.3-2.2 4.6-4.3 6.9-6.5 1.7-1.6 4.1-4.8 6.5-6.1.8.1 1.5.1 2.1-.2.9-.1 1.8-1 .4-1.8z"/><path class="st1" d="M58.3 77.4c-1 .3-3-.5-3.5.5.8.2 2.3-.5 2.5.3-11-.3-19.2-3.7-28.6-5.6-.5 1.5 2.2 1.3 1.4 1.8-1.6 1-1.8-2.6-3.1-3.2-9.5-1.1-22.4-3.7-29.7-4.4.1 4.6-.6 12.7-.5 17.3 9-.5 20.9.4 29-.4 3.4-.4 8.1-.2 11.6-1 1-.3 1.7-1.1 2.7-1.2 9.5-1 19.5.9 29.3-.2 5.4-.6 9.9-3.3 15.3-3.6 3.1 2.1 3.4 7.4 6.7 9.4.4-.6 1.2-.9.9-2.2-3.6-2.2-3.3-8-7.1-9.4-5-2-22.9 7.8-26.9 1.9zm-27.6-2.7c2.1-1.4 6.5.9 9.3 1.3-2.7.6-7.6-.5-9.3-1.3zm16.7 57.2c.9-1-.4-.4-.7-1.1-.9.4-2.1.4-3.5.5-14.1-3.6-30.6-.2-45.7 2.4.1 4.2.1 8.3.2 12.5 15.6-1.2 33-2.3 46.3-9.1 3.6-1.1 8.4-2 10.6-2.4 1.4.5 4.2 2.5 4.2 1 10 6.3 33.1 3 32.5-11.4-2.6 10.1-12.1 13-24.9 12.5-6-2.9-11.1-6.4-19-4.9z"/><path class="st1" d="M55.7 117.5c5 4.2 10 8.3 17 10.3-1.4-3.4-6.2-3-7-7.2-1.1-.4-.8.6-1.4.7-1.7-2.8-3.7-2-5-4 .3.3 1 .8.9.1-1.4-1-2.9-1.8-4.8-2.1-.2.6.6.9 0 1.1-.1-.3 0-.4-.3-.3-3.6-3.4-9.1-1.8-16.2-1.1-13.6 1.2-27.8 3.2-41.5 3.8.1 3.5.1 7.1.2 10.6 14.9-3.6 32.5-6.4 47.3-10.1 4.2-1.2 7.2-2.3 10.8-1.8z"/><path class="st1" d="M44.5 106.4c4.3 1.7 7.8 5.3 11.8 7 2.4 1.1 4.5 3 7.3 3.5-1.1-1.5-2-3.7-3.1-3.2.1-.8-3.5-4.9-5.6-6.1-.6-.3-1.3.4-2 0-1.5-.5-3-2.9-4.9-4-3.3-1.9-6.2-2.6-11.1-2.3-12 .9-26.8 3.2-39.8 3.4 0 3.2.1 6.3.2 9.6 10.9-2.3 22-4.5 32.9-6.6 4.9-.7 10.3-2.9 14.3-1.3zm44.8-67.9c-.5-5.5-3.6-12.1-8.1-15.5-9.4-7-25.5-3-30.9 6.5-.4 2.1-.2 1.5-1.3 2.6-.8 2.6-1.2 7.2-1.5 12.1 0-.5.1-1.3-.7-1.1-9.1 2.3-21.8 1.1-32.7 1.8-1.1-.5-2.7-1.1-4.6-1.4-7.8-3.2-16.8-3.2-25.4-2.6-10.3.7-20.7 1.8-31 3-7.3.9-14.6 1.8-21.5 4.7-1.8.8-3.6 1.7-4.9 3.1-1.3 1.4-2.1 3.2-1.5 5.1.6 1.9 2.3 3.1 4.2 3.7 1.9.5 3.9.4 5.8.2 21.5-1.4 42.9-4.1 64.1-8.1l.9-.4c.1.3.1.6.2.9 4.6-1.2 11.2-.3 13.7-3.6 10.9.4 25.7.1 34.6-1.5.6 2.8 2.3 4.7 3.5 6.9-1.2-.4-1.9-3.3-2.8-2.8 2.8 5 6.2 6.1 10.5 10.1 17 4.6 30.9-7.9 29.4-23.7zM73.3 56c-3.5 2-7.8 2.5-11.2.6-3.7-.7-7.1-2.8-9.3-6.7-3.4-6.1-1.8-16 4.4-19.7 1.6-1.6 3.5-2.8 5.7-3.5 1.7-.7 3.5-1.2 5.4-1.3 2.7-.6 5.7-.2 8.5 1.7 10.4 7.1 7.1 24.8-3.5 28.9zM29.2 350.8c.6-.4 1.2-.9 1.8-1.3 3.2-1.8 5.5 1.6 8.3 1.3 1.3-.1 2.5-.9 3.6-1.2 1.3-.3 2.9-.6 4.2-.1 2.7 1 6.2 5.7 7 8.9.4 1.4 0 3 .2 4.6.5 3.8 2.6 8.2 4.6 12.6 2.1 4.6 4.5 9.3 7.1 12.9.8 1.1 1.9 2 2.1 3.3-2 1.9-3.8-.5-5.3-1.6-3.3-2.5-6.3-4.9-10-7.4-1.4-1-3.8-2.9-5.3-1.8s0 4.5 1.1 6.3c1.4 2.3 3.5 4.6 5.3 7.2 1.1 1.6 4.3 5.6 2.6 6.8-1.1.7-3.2-1.3-4.6-2.3-4.5-3.5-8.6-7.6-13-11-2.9-2.1-6.1-3.6-8.9-5.8-3-2.2-5.9-4.1-8.9-6.3-.5-.6-.9-1.2-1.3-1.9-.3-.8-.7-1.8-.8-2.6-.4-3.8.6-7.9 4.4-10.6.6-.5 1.5-.8 2.1-1.4.8-1 .7-3.4 1.2-4.8.6-1.6 1.6-2.7 2.5-3.8zM53 375c-.7-.7.8-2.4 1-2.9.9-3-1.3-5.1-2.5-8.6-.3-.9.3-2 .2-3.1-.2-2.5-1.7-7.5-4.4-9.1-2.5-1.4-5.1 1.6-8 1.6-2.2 0-3.7-2.1-6-2.2-2-.1-4.5 1.5-5.4 3.6-.7 1.7.3 4.3-.8 5.8-1.3 1.8-3.1 1.9-4.5 2.9-2.7 2.1-3.6 6.2-2.2 8.9 1.5 2.8 3.7 4.1 5.7 5.4 1.5 1 2.9 2.1 4.4 3 2.9 1.8 6.3 1.7 9 3.8 0 .4-.1.8-.7 1.2 4.3 2.1 8.7 6.6 12.7 10.9 1.3 1.5 2.5 3.2 4.2 3.8-.8-5-7.4-10.6-10.3-16-1.5-2.8 2.3-6 5.1-5.6 3.5.5 8.2 6.4 11.3 9.4 1 1 2.1 2.5 3.5 2.2.2-1.5-1.2-2.8-2.1-4.1-2.8-4.3-5.7-8.8-7.8-12.8-.6.7-1.4 2.9-2.4 1.9z"/><path class="st1" d="M27 361.6c1.9-.7 3.7-1.1 5.4-1 .5-2.1 1.4-4.1 4.2-5.9-.9 1.9-2.6 3.7-2 5.9 2.3.6 4.9.2 7 2.5-.4.4-1.1 0-1.6-.1-1.9-.2-5.1-1-7.2 1-1.4 1.3-1.9 3.4-2.3 5-.1.4 0 1.1-.5 1.3-1.3-2.9-1.3-5.5 1.8-7.7-1.5-1.5-3.2-.9-4.8-1z"/><path class="st0" d="M138.6 311.4c-.5-2.9 1.9-5.4 1.5-8.4-.4-2.7-3.1-5.6-6-6.3-2.4-.5-5.6 1.3-7.8.3-2.7-1.3-3.2-3.6-5-5.2-3.5-3.1-9.1-3.2-12.2-.8-3.3 2.7-4.6 5.8-5.9 8.8-.9 2.1-2 4.3-2.8 6.4-1.7 4.3-.8 8.7-2.9 12.7-.5.1-1.1 0-1.7-.7-1.7 6.2-6.6 13-11.4 19.3-1.6 2-3.6 4-4 6.4 6.4-2.3 12.3-12.2 18.6-17.3 3.3-2.7 8.4 1.6 8.6 5.4.1 4.7-6.6 12.3-9.8 17.1-1.1 1.6-2.8 3.3-2 5.1 2-.1 3.3-2.1 5-3.7 5-4.7 10.3-9.5 15-13.3-1.1-.7-4.1-1.2-3.1-2.7.8-1.1 3.3.5 4.1.7 4.1.5 6.4-2.9 10.7-5.2 1.1-.7 2.7-.1 4.1-.5 3.3-.8 9.5-4 11-7.9 1.3-3.6-3.2-6.5-4-10.2zM125 325.6c-9.9 3.8-19.7-5.4-20.2-15.2-.1-2.9 2.5-3.7 2.6-.8.3 7.2 9.4 14.3 16.4 11.6 2.7-1.1 3.9 3.3 1.2 4.4zm2.2-18.6c-.3 3.2.8 6.4-1.6 9.8-.7-.4-.3-1.5-.3-2.1-.1-2.5 0-7-2.9-9.2-2-1.5-5-1.7-7.2-1.9-.5 0-1.5.3-1.7-.3 3.5-2.4 7-3.1 10.6.5 1.6-2.3.3-4.4.1-6.6 1.5 2.3 2.3 4.6 2.5 7 2.8.1 5.8.9 8.7 4.1-2.7-.8-5.4-2.7-8.2-1.3zm-38.8-41.2l.9-.9c.3-.7.4-1.3.7-2l-1.6 2.9z"/><path class="st0" d="M101.2 264.4c-1.2 3.6-30.8 57.7-40.4 86.5 17.5 12.4 35.2 24.9 52.7 37.3 1.3.9 2.8 1.9 4.4 1.7 1.6-.3 2.9-1.5 3.7-2.9 22.9-39.6 30.4-56.1 52.6-85-32-12.6-43.3-19.9-73-37.6zm33.3 67.7c-1.9.8-3.9.7-6 1.3-4.8 1.6-10.2 5.4-15.5 9-5.6 3.7-11.2 8-15.4 12.4-1.2 1.2-2.1 2.9-3.9 3.6-2.9-2.3-.3-5.2.9-7.4 2.5-5 5.1-9.4 7.4-14.9.9-2.1 2.9-5.8 1.2-7.4-1.9-1.7-5.9 1.1-8 2.9-2.7 2.4-5.2 5.8-8.3 8.6-1.9 1.7-6.4 7-8.3 5-1.2-1.2.9-4.4 2-6.6 3.6-6.7 8-13.1 11.4-19.8 2.1-4.3 3.3-8.8 5.5-13.1 2.1-4.4 4-8.8 6.2-13.1.7-.8 1.5-1.5 2.1-2.1.9-.5 2.3-1.3 3.2-1.6 5-1.3 10.4-1.1 15 3.3.8.7 1.3 1.9 2.3 2.4 1.5.9 4.7.1 6.7.5 2.4.4 4.1 1.5 5.8 2.4.7.7 1.3 1.3 2.1 2 3.1 3.9-.8 7.6.3 11.2.5 1.7 1.7 3.1 2.4 4.4.7 1.6 1.5 3.7 1.1 5.5-.8 4-6.1 9.7-10.2 11.5zm39.1-120.2c-.4-.2-.8-.5-1.2-.7-1.5-1.3-3.3-2.7-5-3.6-4-2.4-7.7.8-11.4 4.1-3.7 3.2-7.7.8-7.7.8s22.3 20.4 28.2 25.7c5.9 5.3 3.8 5.8 3.8 5.8s-7.7.8-9.6 7c-1.8 6.1 6.7 13 11.3 8.5 4.5-4.6 5-11.5 2.6-16.5s-32.2-28.1-32.2-28.1 7.5 2.6 12.5.2c3.3-1.6 7.1-1.3 9.4-1 7 6.5 17.1 15.6 20.8 19 5.9 5.3 3.8 5.8 3.8 5.8s-7.7.8-9.6 7c-1.8 6.1 6.7 13 11.3 8.5 4.5-4.6 5-11.5 2.6-16.5-2.3-4.3-22.1-20.2-29.6-26zm25.5-14.1c-1.6-1.3-3.8-1.5-5.8-.3-1.6.9-3.1 2.4-3.7 4.1-.8 2-.7 4.5.5 6.2.5.7 1.2.9 1.7 1.4.3.4.6.9.9 1.3.6.8 1.1 1.7 1.8 2.5 1.1 1.7 2.4 3.4 3.5 5.1 2.4 3.4 4.7 6.8 7.1 10.2 1.5 2.2 3 4.3 4.5 6.4.1.1.4.1.6-.1.2-.2.4-.3.5-.5-1.2-1.9-2.2-3.8-3.2-5.8-.1-.3-.3-.6-.5-.9l-.1-.1c-.3-.4-.5-.8-.5-1-1.3-2.2-2.6-4.3-4-6.4-1.8-3-3.7-5.9-5.8-8.7-.5-.7-.9-1.4-1.4-2.1.4-.1.8-.3 1.1-.6.2-.1.4-.3.6-.3 2.6-1.6 4.6-5 3.7-8.1-.2-.9-.8-1.7-1.5-2.3zm-.7 6.4c-.1.5-.2.9-.5 1.3-1.1 1.7-3.6 1.6-4.8.1-.8-.9-1.7-2.8-1.4-4.1.5-1.7 1.9-3 4-2.4.6.2 1 .5 1.5.9.9 1 1.4 2.8 1.2 4.2zm24.8-13.5c-.9-1.8-2.9-2.9-5.1-2.7-1.8.2-3.8.9-5 2.2-1.5 1.5-2.5 3.8-2.1 5.9.2.8.7 1.3 1 1.9.2.5.2 1.1.2 1.6.2 1.1.4 2 .5 3.1.4 2 .8 4.1 1.1 6.1.8 4.1 1.4 8.1 2.2 12.2.5 2.6.9 5.2 1.4 7.8.1.2.3.2.6.2.3-.1.5-.2.6-.2-.3-2.2-.4-4.4-.5-6.5-.1-.4-.1-.6 0-1.1-.1-.1 0-.1-.1-.2-.1-.5 0-.9-.1-1.1-.3-2.5-.6-5-1-7.5-.5-3.4-1-6.9-1.6-10.3-.1-.9-.3-1.6-.4-2.5.4 0 .8 0 1.3-.1.3 0 .5-.1.7-.1 3.1-.4 6.3-2.6 6.7-5.9.2-1 0-2-.4-2.8zm-3.3 5.5c-.3.4-.7.8-1 1-1.7 1.1-4 0-4.5-1.9-.4-1.1-.3-3.3.5-4.3 1.2-1.4 3-2 4.6-.5.4.3.8.8.9 1.4.6 1.4.3 3.1-.5 4.3z"/><path class="st0" d="M206.3 198.1c6.6-1.6 13.2-2.9 19.9-3.7 1.7-.2 3.6-4.6 2-4.5-7 .9-13.9 2.2-20.6 3.9-1.5.4-3.5 4.9-1.3 4.3zM64.6 29.1c-2.3.9-4.5 2.2-6.4 3.9-.5.5-2.2 1.7-1.1 2.3 1.1.6 1.4-.9 1.9-1.4 1.5-1.8 3.3-2.8 5.4-3.8 2.3-1 4.7-2.1 7.2-1.6.1-.4.1-.8.2-1.2.1 0-6.5 1.6-7.2 1.8zm-9.7 9.2c0 .1.1.1.2.2.1-.2.3-.4.4-.6l-.6.4zm1.3 1c.1-.2.2-.5 0-.7-.2-.3-.8 0-1.1-.1-.8 1.3-.8 3-.8 4.5 0 .2 0 .5.2.7.3.3.7.1 1-.1.3-.2.6-.5 1-.5-.3-1.2-.7-2.6-.3-3.8z"/><path d="M203.3 127c6.2 3.6 11.1 9.4 13.8 16 2.7 6.7 3 14.2 1 21.1-.1.3-.4-.3-.1-.5m7.2-51.3c1.8-.3 3.4.8 4.8 2 5.9 5 9.9 12.2 11.1 19.8m-.1-48.4c4.4 15.4 8.8 30.7 12.7 46.2.4 1.7.9 3.5 2.3 4.5s3.9.5 4.1-1.2m3.4-55.7c-1.5 3.3-1.9 7.1-2 10.8-.1 3.6-.1 7.2.2 10.8.1.7.2 1.6 1 1.9.4.1.9 0 1.3-.2 2.6-1.2 4.9-3 6.7-5.2" fill="none" stroke="#ee7f00" stroke-width="2" stroke-miterlimit="10"/><path d="M41.6 205.7c4.6 19.2 12.2 37.6 22.4 54.4" fill="none" stroke="#ee7f00" stroke-width="4" stroke-miterlimit="10"/><path class="st4" d="M92.8 242.5c-1-5.3-3-10.3-6-14.8-.1-.1-.2-.3-.1-.4.1-.1.5-.4.4-.4-6.1 10-13 19.5-20.5 28.6-3 3.7-6.2 7.3-8.2 11.6-.2.4-.3.8-.2 1.2.2.6.9.9 1.5 1.1 6.7 1.6 13.7-.2 20.4-2"/><path class="st0" d="M144 141.6c-.9.6-1.8 1.1-2.7 1.8 3.5 3.1 3.7 9.1.5 12.5-2.2 2.3-5.6 3.3-8.8 3.6-2.7.3-5.5.3-7.9-.8-3.3-1.4-5.6-4.7-6.5-8.2-.9-3.5-.4-7.2.8-10.6.9-2.5 2.3-4.9 4.5-6.2-.5-1.8-1-3.7-1.3-5.5-1.7 0-3.8 1.1-5.4 2.8-1.9 2-3.1 4.5-4 7.1-1.6 4.8-2 10-.9 14.9s3.9 9.5 8 12.5c4.7 3.3 11 4.2 16.4 2.3 5.4-1.9 9.8-6.4 11.5-11.9 1.7-5.2.4-11.6-4.2-14.3z"/><path class="st4" d="M122.2 124.2c.8 5.6 2.1 11.1 4 16.4.3-.4.3-1-.1-1.3"/><path class="st0" d="M159.3 87.5s29.1 28 29.3 28c.2 0 .4-.1.6-.2.8-.5 4.5-4.7 4.8-5.2.3-.5.4-1.1.4-1.7.4-6.5 0-14.8.5-21.3 3.3 3.3 6.5 6.6 9.8 9.9 1.5-1.6 4.8-4.7 6.3-6.3.1-.1.3-.3.3-.5s-.1-.4-.2-.6c-7.1-9.2-15.9-18.3-25.8-24.5-1.6 1.5-6.3 6.2-8.2 7.4 3.8 4.1 8.9 7.5 12.7 11.6.5.5 1 1.1 1.2 1.8.2.6.1 1.3 0 2-.7 4.7-1.3 9.4-2 14.1-1.8-4.8-21-22.6-21-22.6l-8.7 8.1zm31.5-29.8s24.8 28 25 28c.2 0 .4 0 .6-.1.8-.4 4.5-4 4.8-4.5.3-.5.4-1 .5-1.6.9-6-2.5-17.8-1.6-23.8 2.8 3.3 9.2 10.7 11.9 14 1.5-1.4 2.4-2.1 3.9-3.5.1-.1.3-.3.3-.4 0-.2-.1-.4-.2-.5-5.9-9-14.3-19.2-22.9-25.6-1.6 1.3-4 3.8-5.8 4.8 3.2 4.1 4.5 3.6 7.7 7.7.4.5.8 1.1 1 1.7.1.6 0 1.2-.1 1.8-1 4.3 2.2 13.3 1.2 17.5-1.3-4.6-17.7-22.4-17.7-22.4l-8.6 6.9zm1.6-17.9c-.7-2.5 0-5.4 1.6-7.4 1.2-1.4 2.9-2.5 3.3-4.4 1.4.5 4.8.7 6.3.7-1.6 1.5-3.2 3.2-4.1 5.2-.9 2-1.2 4.5-.2 6.5.4.9 1.2 1.7 2.2 1.9-.4-.1-3.4 2.7-3.9 2.9-.5.2-1.7-.8-2.1-1.1-1.5-.9-2.6-2.5-3.1-4.3zM48.2 360.5c.2.6.5 1.2.8 1.7-.5.2-.7.7-.9 1.2-.6 2.1-.8 4.4-1.5 6.5-.6 1.9-1.9 3.9-3.8 4.7-1.4.6-5.1 1-6-.6 2.5-1.9 5.1-3.1 7.2-5.6 1.1-1.3 4.8-6 4.2-7.9z"/></g><g id="woman_x5F_01_xA0_Image"><path class="st1" d="M335.6 153.8c-.6-2.2-.1-5.1-.7-7.2-2.4-7.5-9.7-10.9-14.4-16.6-2.9-3.6-5.7-9.3-6.2-14.9-.5-4.8.4-9 1.2-13.7.7-3.9 1.2-8 2.6-12 2.3-6.3 5.5-12.2 7-19.4 2.4-12.1 2.7-27.1 10.8-34.1 4.1-3.5 11.9-5.9 18.2-5 4.2-9.3 10.2-16.8 20.9-19.7-1 1.6-2.7 1.5-4.1 2.2-7.5 3.7-12.6 10.4-15.1 18.2-2.1 1-4.2-.2-6.5 0-23.9 1.7-18 29.8-25.7 48.5-3.7 9.1-8.3 20.6-7.7 32.2.3 6.4 2.7 11.9 5.8 16.1 4.4 6.1 11.1 9.1 14.4 16.1.7 1.5 2.4 8.1-.5 9.3z"/><path class="st1" d="M408.8 40.6c-2.5.3-3.1-2.2-4.6-3.6-8.2-7.9-24.2-15.6-39.8-12.2 8.6-4.5 21.2-.8 30 3.6 4.4 2.2 8.7 5 12 8.4 1 1 2.6 2.3 2.4 3.8z"/><path class="st1" d="M414.8 58.6c-1.7-1.2-1.7-3.2-2.4-4.8-4.3-9.9-14.9-16.6-24.2-21.8-.5-.3-1.8-.2-1.7-1.2.2.1.7-.6 1.2-.5 8.4 2.9 18.9 11.3 24.2 19 .9 1.4 2 2.9 2.6 4.6.5 1.1 1.9 3.5.3 4.7zm-57.2 16c-7.1-.4-15.4-8.4-23-3.1-.4-1.4 1.5-1.8 2.4-2.4 2.4-1.7 5.8-3.9 10.1-2.4 4 1.5 8.7 5.8 10.5 7.9zm73 34.6c2.3-13.9-3.7-24.8-7-35.5.6-.2.8-.8 1.7-.7 2.4 9.1 9.1 20.3 7.4 32.4-.1 1.4-1.3 2.2-2.1 3.8zm-87.4-33.6c6.8-2.9 11.9 2.2 14.4 6.5-1.9.8-2.3-1.8-3.6-2.4-.8 1.6-2 2.8-3.8 3.4 1.4.5 3.3.5 5.3.5-3.3 2.3-9.5-1.7-12.2.7-.2-.7.7-.5.5-1.2-.9-.9-1.7.4-2.4.5-.3-.9.5-.8.7-1.2-.8-.7-1.4.7-2.4.5.2-.7.9-.8 1.4-1.2-.8-1.3-1.7.7-2.9.5.4-.8 1.2-1.2 2.2-1.4-1-1.4-4.2.1-5.3-1.7 0-.8.9-.7 1.7-.7-.2-.4-.8-.4-1.2-.7.7-1.1 1.7.1 2.9 0 .7-.4-1.1-.4-.7-1.2.9-.9 1.2.2 2.2.5.8-.4-.8-.9 0-1.4.3 0 .4-.1.5-.2.8-.1.5.9 1.2 1 .6-.2-.9-1.1.2-1.2.5-.8.8.2 1.3.4zm4.1 3.1c1.2 0 1.6 0 2.2-.2.4-2.2-2.9-2.3-2.2.2zm.7 4.1c-2.3-.4-3.7-3.3-2.4-5.8-2.3.1-3.3 1.5-4.6 2.6 1.2 2.2 4.5 3.3 7 3.2zm15.2-3.4c2 2.2 1.5 6.9.7 10.1.1-3.4-.5-6.4-.7-10.1zM336 144.2c-.3-12.1-7.8-17.1-12.5-26.2-2.4-4.7-3.7-9.5-3.6-16.6 0-1.5-.3-4.2 1.7-5 .6 3.8 0 8 .5 11.5.8 5.8 3.4 9.8 6 14.2 3.4 5.6 8.3 9.5 9.4 16.8.2 1.5.9 3.8-.5 5-.2.3-.5.4-1 .3zm22.4-44.8c-.3 1.8-4.6 5-1.4 7.4 2.3-.1 2.7-1.6 4.8-.7.8 5.6 8 2.4 10.8.7 1.4.5 2.9 1.2 3.8 1 1.8-1.8-.2-5-.7-6.7 1.5 1.6 3.9 3.4 2.9 6.7-1.6 2-3.4.3-5.8.5-3.5.3-6 4.4-10.8 1.7-.8-.4-.8-1.1-1.9-1.9-1.6.1-2.6-.4-4.3-.2-.7-.8-1.2-1.7-1.7-2.6.6-2.9 2.5-4.3 4.3-5.9zm-11.8 7.4c0 2.4-3.8 3.3-4.3 6-.2 1 1.1 2.2-.2 2.9-2.6-4.4 2.6-6.7 4.5-8.9zm-8.9 12c.5-3.2-2.7-4-2.4-6.2.9 0 5.4 4.1 2.4 6.2zm62.9-5.3c.4-.1.5.2.5.5-2.1 1.8-1 6.7-3.1 8.4-.3-3.1 0-7.8 2.6-8.9z"/><path class="st1" d="M338.9 136.8c1.8 1.6 2.4 5.7 2.4 9.1 0 4.5-.6 10.4-4.1 11.3 2.8-4.6 2.9-14.7.5-19.9.5-.1.6-.5 1.2-.5zm-5 42.7c2.5-4.7 3-11.6.5-16.3-4.2-8-13.2-14.2-15.1-23.8.6-.3 1.9-1.1 2.4-.7 1.5 4.5 3.9 8.6 7 12.5 2.9 3.7 6.4 7.2 8.4 11 .9 1.8 1.6 4.2 1.7 6.2.1 4.3-.6 10.4-4.9 11.1zm11-36.5c1.3 2.9 2.4 11.1-1.7 12 1.1-3 1.6-9-.2-11.5.5-.3 1-.6 1.9-.5zm120.3 24.5c-2.2 1.2-4-1.6-5.3-2.9-4.2-4.3-7.9-10.3-9.1-17.5.5-.2 1-.5 1.4-.7 2.3 9.1 7 15.7 13 21.1zm-154.4-11h.5c-.6 10.5 6.7 17.6 6 30.5-.2 2.8-.8 5.9-1.7 8.6-.7 2.3-1 6.2-4.3 6 2.6-6.2 3.9-12 3.4-19.2-.7-9.3-6.8-16.1-6-24.7.6-.6 1.3-1 2.1-1.2zm12.5.7c1.6 2.4 1.7 5.2 2.9 8.2 1.2 3 3.4 6.2 4.6 9.8 1.5 4.9 4 12.6-.2 15.1.3-14.1-7.1-20.6-9.1-32.4.7-.1 1-.7 1.8-.7zm54.3.5c-1.5 3.2-.4 8.9-.7 13.2-1.7-.3 0-1.1-.7-2.2-1.8.4-3.5.9-5.5 1-.9.5-.7 2-2.2 1.9-.6-3.5-1-8.1-1.9-12 1-.8 2-1.5 3.6-1.7 1.9 1.5 4.5-.4 7.4-.2zm11 62.4c1-.1.2 1 .2 1.4-.5 0-.1-1-.2-1.4zm-86.2 246c1.7-.6 1.8-2.9 2.9-4.1-.3-.7-2.2.7-2.4-.5-.6-4.2 3.1-7.3 7.2-6.7 2 6-2.7 13.5-8.4 14.6-3.3.7-8.9-.9-10.6-2.9-2-2.5-2.3-7.9-1.7-12.7.4-3.1 2.7-6.1 4.6-9.4 1.6-2.9 3.6-5.6 5.3-8.4.9-1.5 1.4-3.2 2.4-4.6 1-1.3 2.3-2.5 3.1-3.8.8-1.3 1-2.8 1.7-4.1 1.8-3.6 4.8-7.6 5.5-12.7.4-3 .2-6.4-.7-9.1-.8-2.2-2.9-3-3.8-5-1.9 1.5-3.5 3.2-7.2 2.9-5.5-5.1 3.6-10.1 10.1-7.9 1.3.4 2.4 2.2 3.1 3.1 1.1 1.3 2.2 2 2.9 3.4 2.6 5.3.7 13.9-1.2 18.5-.7 1.6-2.4 3.3-3.4 5.3-.7 1.3-1 2.9-1.7 4.1-1.3 2.1-3.3 3.7-4.6 5.8-.6 1-.8 2.3-1.4 3.4-3.4 5.7-8.4 11.1-9.1 15.8-1.2 7.3.5 14.9 7.4 15zM410 56.6c1.5 1.2 1 3.4 1.7 5.5.6 2 2.2 3.9 3.1 6.2 1.9 4.5 4.1 7.7 6.5 11.8 1.1 1.9 2.7 3.6 3.6 5.5 4.5 9.2 5.9 25.1-1 32.9 1.2-4.7 3.1-9.6 3.1-15.8 0-17.1-12.8-26.1-17-40.3-.5-1.5-2.1-4.3 0-5.8z"/><path class="st1" d="M327.9 321.6c-1.3.8-2.1 2-3.4 2.9 1.5 1.2 3 2.5 2.6 5.5-1.7 1.1-3.8-.2-5.5-.5-1.6 2.7-2.1 5.5-3.6 8.2-1.4 2.5-3.9 4.1-5.3 6.5-1.5 2.6-2.1 5.8-3.6 8.4-1 1.6-2.6 2.8-3.6 4.3-2.3 3.3-3.6 7.2-6.5 10.1-.2 1.1 1.1.6.5 1.7-2.5 2.7-7.4 3.4-9.8.2-8.3 13.4-17.2 26.2-25.9 39.1 8.6 4.4 16.9 9.2 26.4 12.7-1.3 4.6-5.7 5.9-6 11.5-.9 1.6-2.9 3-4.6 2.9-1.7-.1-3.2-2.6-4.6-3.6-5-3.7-12.3-8.2-16.6-11.5-7.2 17.5-15.3 34-23.3 50.6 3.4 1.2 5.8 3.5 8.9 5-2.5 4.8-7.1 7.8-10.6 11.8-5.4 6.2-9.5 13.6-15.8 19h-3.1c-.5-.8.8-1.3 1.4-1.9 1.8-2 4-4.9 6-6.7-.3-1-.4-1-.2-2.2 3.5-6.8 6.6-13.9 9.6-21.1-.9-.6-2.1-.9-3.1-1.4-2.4 5.8-3.6 12.9-6.7 18-.3 1.3.6 2.3.2 2.9-.9.5-1.5 1.3-3.1 1.2-.7-4 2-7.6 3.1-11.5 1.2-3.9 2.5-7.8 4.1-11.3-2-1.2-4.8-1.6-7-2.6-1.2 1.7-1.9 4.6-2.6 7.4-.7 2.6-2.1 5.3-2.4 7.4-.1.9.4 2.4 0 3.1-.5.9-2.2 1.2-3.1 1.2.3-7.3 3.4-13.9 5.5-20.2-.9-1.2-2.7-1.5-3.8-2.4-.3 3.5-2.4 7.3-2.9 11.3-.3 2.8.1 6.5-2.9 7-1.8-7.2 3.1-13.5 2.6-20.2-1.4-.1-1.7 2.9-2.2 4.6-3.2 12.8-6.7 26.3-11.5 37.4h-4.3c5-14.8 10.2-30.6 12.7-47 1.8-2.2 6.1-2.9 7.9-.2.4-4.8 2.4-9 3.6-13.4 1-3.9 1-8.1 1.9-12 .8-3.5 2.7-6.6 3.6-10.1.5-1.8 1.2-3.5 1.7-5.3 1.3-4.4 1.6-8.7 3.1-12.7.2-1.1-.6-1.2-.7-1.9 1-1.6 2.3-2.8 3.8-3.8-.8-.9-2.3-1.1-2.9-2.2.9-1.8 2.7-2.7 5.3-2.9 6.6-8.1 12-16.8 18.5-25.2 2.1-2.8 3.5-6.2 5.8-8.6 1.5-1.6 3.5-2.6 4.8-4.3 2.8-3.5 5.2-7.6 7.9-11.3 8.2-10.8 16-22 24.2-32.9-4.5-1.3-8.4-3.5-11.3-5.8 0 4.3-1.8 6.7-3.6 9.1-6.1 1.8-14.2.1-22.1.7-1.4.1-2.7.6-4.1.7-2.8.2-5.5-.2-8.2 0-2.1.1-4.2.9-6 1-3.2.1-7.4-1.8-10.1-1-2.4.7-3.8 6.2-4.8 8.2 4.1-.2 7.1 2.2 10.8 4.1 7.8 4 14.1 8.8 13 21.4-.2 2.5-1.3 5.6-1.9 8.4-.7 2.9-1.1 6-1.9 8.2-1 2.6-2.9 5.2-4.3 7.9-6.7 12.9-19.2 21.6-32.4 28.6-8.2 4.3-21.3 6.5-28.6 1-1.6 8.7-5.1 16.2-10.1 22.6-9.5 12.1-18.1 25-26.9 38.4-4.5 6.8-7.7 15-8.4 24.2-.5 7.2 2.1 11 4.3 16.1-1.8.6-4.6.1-6.7.2-6.2-11.7-1.5-28.1 5-37.9 4.4-6.5 8.3-13.6 13-19.9 4.5-6.1 9.2-12.6 14.2-19 5.3-6.8 11.2-17.5 9.6-26.9 1-1.1 2.5-1.8 4.1-2.4 1.9 1 2.1-.2 4.3 0 2.1.2 3.5 2.2 5.3 3.1 4.2 2.1 13.6 1.7 19-.7 10.6-4.8 20.5-12.8 27.1-22.6 4-5.9 6-10.2 7.9-18.5.6-2.7 1.7-5.6 1.9-8.2.4-4.6-.7-9.9-2.4-13.2-2.5-4.8-8.1-6.5-13-9.1-2.8-1.5-4.7-3.2-9.1-1.9-.4-1.2.9-2.1 1.4-3.1 1.5-3.1 3-6.6 5.3-9.1-8-1.8-16.8-3-23-6.2-5.5-2.9-7.5-9.9-6-19.4.3-2.1 1.3-5.8 2.4-8.2 2.1-4.5 6.7-7.8 9.8-11.8 1.5-1.8 2.3-3.9 3.8-5.5 1.4-1.5 3.1-2.7 4.8-4.3 3.1-2.9 5.5-6.7 8.6-9.6 3.2-2.9 6.7-5.5 9.8-8.6 3-3 6.4-6 9.6-8.6 6.8-5.6 14-10.7 20.2-16.6 6.5-6.2 12.4-12.5 17.8-18.7 4.6-2.7 8-8.4 11.5-13 5.5-2.5 8.3-7.7 13.9-10.1.1-10.4-4.6-19.1-3.8-29 .3-4.6 1.9-9.1 2.9-13.4 1.2-5.6 3.9-10.1 3.4-16.6-.5-6.8-3.2-10-2.9-17.3.5-10.9 3.9-19.5 7.7-27.8 1.2-2.6 2.9-5.3 3.6-8.2 1.2-4.6.7-9.4 1.9-14.2 1-4.2 3.3-7.9 3.4-12.5 3.1-5.8 7.9-11.1 12.5-16.1 1.4-1.5 3-3.5 4.6-4.8 2.9-2.4 7.1-3.7 10.3-5.5 2.8-1.6 5.5-3.3 9.1-4.1 4.8-1.1 12.1-1.8 15.4 1.7-3.2 2.5-5-1.3-9.6-1-2.2.2-7.7 1.7-9.8 2.6-7 3.3-14 8.2-19.2 13.9-2.7 2.9-4.1 5.9-6.2 9.6-2.7 4.6-5.5 10.2-7 16.6-.9 3.9-.6 8.4-1.7 13.4-1.2 5.5-4.3 11.1-6.7 16.3-3 6.4-5.2 14.5-4.6 24 .3 4.4 2.5 8.4 2.9 13.4.4 5.6-1.7 10.9-2.9 16.6-1.1 5.3-2.6 11.2-2.6 16.8 0 7.8 2 15.4 2.6 22.8.1.8.4 1.9 1.4 2.6-1.5 1.2-.4 1.8-.5 3.6-.1 2.9-1.5 6.1-2.4 9.1-.9 3-2.6 5.1-3.8 7.7-.4.8-.3 1.9-.7 2.6-1.7 3-5.6 4.1-8.2 5.5.9 2.1 2.1 3.8 3.1 5.8 5.5-4.4 11-12.2 12.2-21.4.3-2.3-.8-6.3 2.6-6.2.2 14.6-6.6 22.2-14.2 29 1.4 2.4 3.6 4 6 5.5 6.8-6.5 13.4-14.2 14.9-26.4.2-1.3.1-3.3 2.2-3.1.9 5.9-1.6 11.8-4.1 16.3-2.4 4.4-6 9-9.4 12-.7.6-1.4 1.1-2.4 1.2 1.2 1.3 2.4.1 4.1.7 1.1.4 1.6 1.8 2.6 2.2 4 1.4 14.2 1 18-.5 3.5-1.3 5.5-4.6 7.2-6.5-5.6-2.2-11-4.5-17.5-5.8 1.7-3.4 5.1-5 7.4-7.9 6.9-8.4 10.9-19.3 17-28.6-1-3.8-1.9-7.7-3.1-11.3 1-2 3.5-3.6 6.5-2.9.2-1.3-.7-1.5-1.2-2.2.7-4.8-1.1-7.8-1.7-11.8-.2-1.1 0-2.2-.2-3.1-.4-1.5-2.5-3.6-4.1-5.3-1.6-1.7-3.1-3.2-4.3-4.8-4-5.2-8.5-9-10.3-16.6-1.4-5.7-.4-16.3 1-23 .9-4.7.4-9.8.7-15.1.2-2.9 1-6 1.4-8.9.5-3.4.4-6.6.7-9.6.3-2.6 1.8-5.7 2.9-8.4 2.8-7.2 6.5-13.2 14.6-14.9 3.1-.6 4.2.1 7.2 1.2-2 1.1-5.1-.4-7.9.2-5.9 1.4-9 7.1-11.5 13.2-1.3 3.3-2.7 6.7-3.1 9.6-.3 2.1-.1 4.8-.2 7-.7 8.9-2 19.1-3.4 29-1.4 10.2-.3 20 3.8 26.4 2.5 3.8 5.9 6.8 7.9 10.6 4.1 4.1 8.5 8.1 12.5 12.7 1.2 1.4 2.4 3.3 3.8 4.3 3.1 2.2 7.5 1.7 11.5 3.6 8 0 12.4-6.2 18.2-10.8 4-3.1 8.8-4.9 12.2-7.9 2.8-5.3 5.8-10.3 9.1-15.1.6-6.8 5.5-10.9 3.6-19-.4-1.5-2.3-3.3-3.4-5.3-2.9-5.3-4.3-12.8-6.5-18.7-2.8-2.1-5.6-2.7-9.1-2.4-5.2.4-9 4.2-13.7 2.9-.8-.2-1.7 1.6-1.9.5.5-1.7 2.8-2.5 4.6-3.6 5.4-3.4 13.3-5 19.7-.2-3-12.8-7.4-22.7-15.8-29.8-3.1-2.6-8.3-4.7-13-6-3.4-.9-7.3-1.6-10.3-3.4-.6-.4-1.4-1.9-2.2-2.2-.6-.2-1.4 1-2.2.2.8-3.8 7.1-5.7 12-6.2 5.6-.6 10.9 2.1 14.4 4.1-4.5.7-8.9-3.6-14.9-3.1-3.8.3-7.9 1.4-9.8 4.3.7.7 1.2-.8 2.2-.7 3.3 1.7 7.1 1.2 10.6 1.9 2 .4 4 1.4 6 1.9 5.7 1.3 11.9 4 15.6 7.4 1.3 1.2 2.3 3.1 3.6 4.6 5.3 6 9.6 15 12 24 2.9 11 5 24 12.5 31.2 1.3-1.7-.9-6.8 2.2-6.7 0 2.8 0 5.6-.5 7.9-.1 1.3 2 .6 2.2 1.7-.6.7-2.1.3-2.6.5-.4 5.6-2.6 10.9-5.3 15.6-2.6 4.6-5.2 9.5-8.2 13.2-2.1 2.6-4.9 4.9-7.9 6.2 8.4-7.9 16.1-18.9 19.2-32.4-1.9-.5-3.3-1.5-4.8-2.4-2.3 4.8-3 11.2-5.3 16.1-.2 1 .8-.3 1.2.5-3.9 7.6-10 13-12.7 21.8 2.9-1.6 8.2-3 10.8-5.8-1.1 4.2-8.8 3.8-10.8 7.9-.2 4.8 1.4 7.7 2.9 10.8 2.9-1.7 3.4-5.1 5.3-7.7.8-1 2.1-1.7 2.9-2.9 2-3.1 2.7-6.9 4.8-9.8 1.5-2.1 3.8-3.5 5.3-5.5 5-6.5 8.3-14.5 13.7-21.1.4-3.2.6-6.7.2-9.8-1.2-10.2-1.8-20.6-4.1-30.5-1.7-7-2.9-13.9-4.8-21.1-3.4-13.1-8.2-25.2-18.7-31.7-4.1-2.5-8.3-4.8-13.7-6.5-3.5-1.1-7.5-2.3-11.5-1.9-3.2.3-4.7 2.4-7.9 1.4 3.5-3.1 10.6-3.4 15.4-3.1 8.7.5 16.5 6.6 22.8 9.8.8 2.3 3.3 2.8 5 4.3 3.9 3.5 7.6 11.4 9.4 17.3 2.5 8.5 5 18.6 7 28.8 2.4 12.3 5.3 24.4 4.8 36.2 3.3-1.1 3.5-5.8 5.8-8.4.6-.7 1.8-1 2.4-1.7 2.1-2.2 2.8-5.2 5-7 1.4 0 1.7 1.1 2.9 1.2 2.9-.8 4.9-3.1 7.4-4.8 5.1-3.3 11.6-4.2 19-6-3.5-.7-3.4-1.7-5.3-4.3-.8-1.1-1.8-1.9-2.2-2.9-1.1-3.1-1-9.1-.5-13.2.5-3.8 3.4-7.7 5.8-10.3 4.3-4.7 10.4-11 20.9-9.6 3.5.5 6.7 2.8 9.1 4.6 6 4.2 10.6 12.9 9.1 26.4-.6 6-3.9 10.1-7.2 14.2-2.2 2.8-4.8 5.3-7.2 7.7-5.1 4.9-12.2 7.7-17.8 12-2.2 1.7-4.3 4.4-6.5 7.2-2.7 3.5-4 6.5-5.8 10.8-1.6 3.8-4.6 7.7-7.7 10.8-1.2 1.2-2 2.8-2.9 3.1-1.4.5-5.9 1-7.2 1-2.1 0-4.2-1.3-6.2 0 4.7 15.4 18.7 21.8 25.7 35.3 2.3 4.4 2.4 9.9 6 14.2 2-.4 3.9-1.1 6-.2 1.9 4.5-3 7.6-4.3 11.3 5.2 8.1 6.5 18.2 10.3 27.4 2.7 6.5 5.4 13.1 8.4 19.7 4.4 9.6 8.7 22.2 11.8 34.3 1.2 5 1.7 10.5 2.9 15.6 1.5 6.7 2.5 11.7 2.9 19 .4 7.3 1.2 13.1-2.6 18-1.2 1.6-4.1 2.9-6.7 4.1-3.5 1.6-5.8 3.7-9.6 4.1-5.9.6-10.3-.8-15.8-1.2-6.9-.5-13.2-3.7-19.2-6.5-11.3-5.2-20-12.1-26.2-22.1-1.9 3.8-5.3 7.1-7.2 11.3-2.2 4.7-2.7 10.3-5.5 14.9 5.4 14.2 9.1 29.9 8.6 49.9-.4 1 1.2 0 1.2.7.1.8-.4 1-.2 1.9 3.7 10.9 7.7 21.5 11.3 31.9 1.8 5.1 4.5 10 6.5 15.1 10 25.4 23.3 48.6 31.4 75.8h-6.2c-2-5.6-4.1-11.1-6-16.8-7.5 3.5-13.7 8.3-23.3 9.8-1.5-.1-.3-1-.7-1.4-8.8.4-15.5-.8-20.4-5-10.5-9.1-17.4-29.7-18.7-48.2-.2-2.5-.2-5 .5-7.4-.7-.7-1.6.3-2.6 0 1.3-3.2 4.2-2.8 8.4-3.1 10.6-.9 18.4-7.7 28.6-8.9-3.7-9.3-7.8-20.2-11-30.7-1.7 4.3-1.3 9.6-3.4 13.2-.4.7-1.4 1-2.2 1.9-.7.8-1.1 1.9-1.7 2.4-1.5 1.3-4.9 2.7-6.7 2.9-.8.1-2.5-.3-3.4-.2-5.9.4-13.1 4.2-18.7 6.5-4.6 1.9-9.8 5.3-13.9 8.4-4.1 3.1-7.8 7.1-11.3 11-8 9.2-14.6 20.5-13.4 36.5.2 2.3.9 5.4 1.4 8.6.4 2.3.8 5.8 2.2 7.7.8 1.1 3.5 1.7 3.6 3.6.2 3.1-8.1 5.3-11.5 7.2-2 1.1-2.7 2.7-6 2.2-.3-.7 1.1-1.6 1.9-2.2 2.7-1.8 6.7-3.4 9.8-4.8-1.3-2.9-4.6-2.6-7.2-3.8-1.5-.7-2.7-2.2-4.3-3.4-4.1-2.8-9.6-5.8-12.7-9.6-3.6-4.3-5.6-11.1-7.2-17.8-2.4-10 1.2-20.3 4.3-30.2 4.7-15 12.2-25.8 24-33.6 8.1-5.4 19.4-9.8 32.2-7 2.7-7.3 4.6-15.2 6-23.5 1.3-8.1 3.7-16.5 4.3-25 1.1-15.7-2-29.1-6-41.5-3.9-12.1-9.3-23.3-12.5-35.3-3.4-12.9-2.2-29.5 1.7-42-2.8 3.3-4.2 7.4-6.7 11-2.7 3.8-3.9 7.8-6 12-.9 1.9-2.3 3.4-3.1 5.3-.9 2-1.2 4.1-2.2 6-1.5 3.2-3.9 6-5.5 9.4-1.6 3.2-3.9 6-5.8 8.9-4 6-7.3 12.6-12.5 17 4.4 4.3 7.4 9.9 13.2 12.7 0 1.7-1.4 1.9-2.6 2.4 1 1.8 3.7 1.4 3.8 3.6.4 5.6-11.5 3.4-14.9 1.7 1.2 1.7 4.3 1.7 4.6 3.8.3 3.4-5.7 4.3-9.8 3.6-1.9-.3-3.4-1.8-4.8-2.2-.9 0-1.9.9-2.3-.2zm60.2-280.8c9.1 7.4 14.3 18 17 31.2 1.3 6.5 3.7 14.4 6.2 19.4.3.5.2 1.8 1.2 1.7-.6-1 .6-.8 1.2-1.2-4.5-16.6-7.7-35.1-17.3-46.1-1.3-1.5-2.6-3.4-3.8-4.6-6-5.5-17-8.6-27.1-9.6 9 2.1 16.6 4.3 22.6 9.2zm97.9-1.2c-.6.5-1.3 1.9-2.4 3.1-2.2 2.5-4.8 5.6-5.3 9.1-.5 3.9-.7 10.2.5 13.2.4 1 3.4 5.1 4.1 5.5 2.1 1.4 5.2.6 8.4.7-1-3.7-4.1-8-4.6-12.5-.9-9.3 9.9-15 15.6-17.5-4.1-3.6-11.8-5.3-16.3-1.6zm21.2 5.8c-2.3-1.6-6-1.4-7.9-.7-1.3.5-2.2 2.2-3.4 3.4-2.2 2.2-4.1 3.8-3.6 8.4.4 3.2 3.6 10.6 4.1 11.3 3.3 4.3 7.5.9 12.7 1.9-1 2.4-3.6 2.3-6.2 2.9-1.4.3-2.4 1.5-3.6 1.7-.8.1-1.4-.4-2.2-.5-3.7-.2-8.2 1.4-12.5 1-4 4.9-14.8 3.5-20.4 6.7-.8.4-1.5 1.4-2.4 2.2-.7.6-2.2 1.1-1.7 1.9 2.8 1.1 5.8 1.9 8.9 2.6-1.2 1.7-2.5 3.4-2.9 6-4 4.3-6.8 9.6-9.8 14.6-3.1 5.1-7.7 9.1-10.1 14.6 3.9 2.8 9.1 7 16.3 4.3 2.2-2.9 4.3-5.8 5.5-8.9 2.6-6.2 5.5-11.2 10.3-16.6 4-4.5 9.7-6.8 14.6-9.8 4-2.4 8.4-6.4 11.5-10.3 4.8-5.9 9.4-11.9 7.4-22.8-2.8.7-6.9 6.5-11.5 4.6-2-.8-2.4-4.8-1.7-7.2 1.1-3.7 6.1-6.6 10.3-6 1.1 3.8-2.3 5-5 5.8-.1 2 .3 3.5 1.4 4.3 6.5-1.5 6.2-12.4 1.9-15.4zm-54.8 52c-2.1 4.8-4.9 7.8-7.9 11.8-1.8 2.4-3.7 4.8-5.5 7-4 4.7-7 10.2-10.8 14.4-2.1 2.3-4.2 4.2-5.8 6.7-4.9 7.8-10.3 15-14.9 22.8 1 .3 1.7.9 2.6 1.2 5.5-7.3 11.2-14.3 16.6-21.6 5.4-7.4 11.8-14.1 15.4-23 3.9-4.8 8-13.9 12.2-17.5-.9.5-.5-2-1.9-1.8zm-10 12c1.9-3.1 4.4-5.7 5.8-9.1.1 0 .3-.2 0-.2.5-1.7 3.5-5 4.1-8.2 1.7 1.4 2.7 3.4 4.3 4.8 1.7-1.9 2-5.2 5.3-5.5.7.5-.7 1.5 0 1.9 0-.9 2.5-1.7 1.4-2.2-4.1-.6-7.2-2.7-10.3 0-.1-.7.6-1.1 0-1.7-3.8 1.1-5 5.2-6.5 8.2-5.1 9.9-11.4 17.9-17.8 26.4-8.5 11.2-17.4 22.2-24.5 34.6 1.5 1.1 2.3-.6 2.9-1.4 2.4-3.2 3.9-6.6 6.2-9.6 3.2-4.1 5.2-9.1 8.4-12.7 1.3-1.5 2.9-2.5 4.1-3.8 3.8-4.4 6.5-9.8 10.3-13.9 0 .6-.1 1.4.5 1.4 2.5-2.6 4-6 5.8-9zM458 98.6c1.2-.2 3.2-2.9 2.9-4.6-.8 1.7-2.8 3.2-2.9 4.6zm-42.3 0c.8-.3 1.5-.8 2.2-1.2-.9-.5-.9-1.9-1.9-2.2.1 1.4-.5 2.1-.3 3.4zm1.7 1.7c1.2 1.5 2.6 2.8 4.3 3.8-.2-.8.4-.9.2-1.7-1.5-1.4-2.7-3.1-4.1-4.6.1 1.1-.4 1.6-.4 2.5zm39.1-.9c-4.4 4.9-7.8 10.9-11 16.8-9.5 17.1-23 31.2-33.6 46.3 1.2.5 2.1 1.3 3.1 1.9 5.2-7.1 10.6-14.1 14.6-22.3.9-.2 1.3-.9 1.7-1.4 2.4-2.9 4.3-6.9 6.5-10.3 2.1-3.4 3.8-7.3 6.2-10.6 2.4-3.3 5.2-6.2 7.2-9.6 1-1.8 1.8-3.8 2.9-5.5 1-1.7 3.1-2.8 2.9-5 0-.3-.2-.4-.5-.3zM440 139.2c.9-1.5 1.7-3.2 3.1-5.5 1.8-2.9 5.5-5.9 1.2-7.4-1.8 3.1-4.1 5.7-6 9.1-1.6 2.9-2.9 6.3-4.8 9.4-2.3 3.8-5.3 7.4-7.2 11-.8 1.6-1.2 3.3-2.2 4.6-1.7 2.2-5.7 6-5.8 8.9-.1 1.9 2 3.8 1.7 5.8 6.6-12.3 13-24.1 20-35.9zm4 4.6c-.3 6 1.5 12 3.8 15.4-.4.1-.6.4-1 .5-4.3-3.3-5.1-11.3-4.8-18.5-2.3 4.2-4.3 8.6-6 13.4-1.5 1-3.6 4.1-3.1 5.5 1.3 1.4 1.1-1.8 3.1-1.2 0 .8-.7 1.1-.7 1.9 2.7.7 6.5 2 9.1 1.2 2.6 1.8 5.9 2.9 9.6 3.6.3.2-.1.4.5.7 1 .3 1.4-.2 2.4.2 3 2.3 8.2 2.3 10.8 5 2.4 6.3 7 10.3 11.3 14.6.4-1.2 1.4-1.8 1.7-3.1-7.2-.6-7.6-8.1-9.1-13.4-.8-2.9-1.8-5.6-3.8-8.2-7-8.8-16.8-15.1-21.1-26.4 0-.1 0-.3-.2-.2-2.7 1.6-2.3 5.2-2.5 9zm-57.3.2c-3.2 2.6-6.3 6.1-10.1 7.4-8.4 2.9-19.4.1-25-5 .1 4.3 1.4 7.4 1.7 11.5 3 2 7.8 2.2 12 2.9.2 1 .6 1.8.5 3.1-2.3-.1-7.2-.9-7.4 1.9 1.6-.2 5.5-1.1 7.7-.7.7 2.6.1 5.2 1 7.7-4 2.8-6.6 7-10.3 10.1-4.6 11.5-7.7 25.9-7.4 41.5 2.9-4.5 6.6-7.9 9.6-12.2 4-5.7 8.5-10.7 13-15.8-1.2 0-1.9-.5-2.4-1.2-.6-7.1 7.6-5.3 10.8-8.6.7-1.9 1.7-3.4 2.6-5-1.1 0-2.1.1-2.4-.7.2-3.8 2.7-5.3 4.6-7.4-2-1.2-4.3-2-6.7-2.6v-7.4h1.9c1.1-2.6 5.4-2 7-4.1-3.1-.7-7.4 1.3-8.9 3.8v-3.6c5.6-4 10.4-8.8 17.3-11.5-2.3 2.9.9 4.1 1.4 6 .5 1.8-.4 3.1 0 5.5 1.2-.1 2.4-.3 3.1-1-.2-2.2-2.8-4-3.6-6.5-1.5-4.7 0-10.5.7-14.9.3 0 .2-.3-.2-.2-3.5 2-7 4.1-10.5 7zm47.3 90.7c2.2-2.6 4.4-4.9 4.3-8.6-1.7-3-3.8-5.4-4.6-9.4-4.4-5.1-5.4-12.4-7.9-19-2.5-6.5-5.4-13-7.4-19.4-.3-.7-.7.1-1-.7-2.1-6.5-9.4-17.3-18.2-15.1-.4.1-1 .7-1.7 1-3.4 1.3-5.4 1.4-6.5 4.8 2.5-.4 6.3-1.4 9.1-1 1.2.2 1.9 1.2 2.9 1 1.4.8 2.4 2.5 3.8 4.3 1.8 2.4 5 4.2 3.4 7-2.9-3.3-6.2-6.1-9.6-8.9-8.3-1.7-14.2 2.4-16.8 7.9 6.7-4.4 18.2-2.9 21.6 3.6 2.3-.1 1.8 2 .2 3.1-1.2-1-2.2-2.1-3.8-2.6-.4-.8-1.3.4-1.7-.2-3.7-3.3-14.7-6-15.8 1.4 3-.5 5.5-1.6 8.6-1 1.7.3 3.6 1.9 5.3 2.6 2 .9 4.2 1.2 5.3 2.6-1 2.9-3.7.5-5.8-.5-3.5-1.6-7.3-2.7-11.8-1.7-5.1 1.2-9.3 4.5-13.7 6.2 0 1.9 5.3 1 6 1.7 3.5-.2 4.3-3.1 7.4-3.6 5.6 1.7 12.4 1.2 16.3 4.8.6 4 2.6 6.6 4.6 9.6 3.8 5.7 8.3 10.3 13.4 13.9 1.2 6.7.8 15 2.9 20.9 6 1.1 8.4-1.4 11.2-4.7zm65.7 63.1c.3 1.2 1.7 5.1-.5 5.8-2.3-4.4-5-7.5-8.2-11-2.2-2.4-3.6-5.3-5.5-7.9-3.8-5.2-9-9.1-12.7-14.2-.9 0-.7 1-1.7.5-10.7-12.6-20.4-26.3-30.5-39.6-2.1 1.7-3.4 3.9-5.3 5.8-4 3.9-9 5.4-15.4 7-1-.4-1.2-1.7-3.1-1.2 1.2 5.4 3.8 10.2 5.8 15.4 1.5 4 2.6 8.2 4.1 12.2.6 1.6 2 3.5 2.9 5.5.9 2 1.6 4.1 2.6 5.8 4.4 7.3 7.8 14.6 12.5 21.4 6.2 8.8 13.4 15.2 23.8 19.9 5.9 2.7 12.8 6.5 19.7 7 5.8.4 10 1.5 15.8 1.2 2.2-1.5 4.9-2.6 7.4-3.8 3.4-4.4 2.3-10.1 1.9-16.6-.4-6.3-1.4-12.4-2.9-18.7-1.4-6.1-1.9-12.3-3.6-18-3.3-11.3-6.3-22.4-10.8-32.4-9.5-21.1-14.2-43.6-26.9-59.8-.2-.7-.6-1.2-.7-1.9-4.1-3.4-7.6-9.5-14.4-8.6-3.4-2.6-7.6-2.6-12-3.8-1.2-.3-2.3-1.2-3.6-1.7-2.7-.9-5.6-1-8.4-1.7-3.2 4.7-4.7 11.2-8.2 15.6 2.5 3.1 3.3 7.6 4.8 11.5 3.4 8.9 7 16.5 11.5 24.2 3 5.2 6.1 10.3 8.9 15.6.2.9 1.1-.6 1.2.2.8 1.6 2.4 3.1 3.6 4.8 1.1 1.5 2.4 4.3 3.6 4.1-.5-6.1.5-10.7 6-10.8-.5 3.6-.8 7.5-.5 11.8.2 2.8.4 6.5 1 8.4.6 1.8 4.1 5.6 5.8 7.7 3.9 5 5.7 8.9 10.8 12.5 1.9 1.3 4.5 3.8 5.8 4.1 1.3.3 2.8-.1 4.1 0 4.6.5 8.2 2.9 10.1 5.8-1.1 1.3-2.7 2.1-4.6 2.6-1.9-.9-3.6-3.3-5.5-3.4 3.8 4.9 9.4 11.9 11.3 18.7zM364.6 165.4c-1.6 1.9-4.3 2.6-6 4.3 2.8.9 5.8-1.9 7.2-4.1-.3-.2-.6-.3-1.2-.2zm-23 18.4c-3.8 6.7-7.7 13.5-12.7 18.5-1 1-2.7 1.9-2.4 2.9 5.4 2.3 11.7 3.5 16.6 6.2-1.8 3.3-4.7 5.6-7.7 7.7-.2.7.8.3.5 1.2-4.9 2.8-9.3 6.1-14.4 8.6 2.7 5.3 6.3 9.6 8.4 15.4 2.6-.8 4.3-2.8 6.2-4.6 2.8-2.4 7.5-5.5 8.4-9.4.6-2.4.1-5 .2-7.2.6-13.6 2.9-27 6.7-36.7-.4.5-1.8.7-2.4.2.2-4.9-1.7-7.8-2.6-11.5-1.5 3-3.2 5.8-4.8 8.7zm-50.9 10.1c-1.6 1.9-3.5 3.4-4.8 5-1.2 1.5-1.7 3.5-4.1 3.8-6.6 6.8-12.7 13.7-20.4 19.7-4.2 3.2-7.8 7.1-12 10.1-4 2.9-8 6.7-11.8 10.3-3.9 3.7-8.3 6.8-11.8 10.3-1.9 1.9-3.6 4.3-5.5 6.2-2 2-4.3 3.8-6 5.8-1.7 2-3.5 5.1-5.8 7.7-2.1 2.4-4.7 4.8-6.2 7.2-2.6 4.2-4.5 13.1-3.1 20.4 1.1 5.7 6.7 7.9 12.7 10.1 4 1.4 9.5 2.1 13.4 2.6 4.4.6 10.7 1.9 15.6 1.7 2.2-.1 4.4-.8 6.7-1 9.1-.5 16.9-.7 25.2-.7-1-3.9-3-6.7-2.4-11.8.8-6.4 3.6-11.7 6.5-15.4.4-.5 1.5-.6 1-1.4-3.5-1.2-7.4-.7-11.5-1.2-5.8-.7-11-3.6-16.1-1.9-1-1.4-2.8-.3-4.6-.5-1.9-.2-3.6-1.3-5.8-1.4-2.7-.2-5.9 0-8.9 0-6 0-11 .8-14.4-.7 3.1-5.5 14.4-1.3 21.4-2.9-3.7-2.1-7.9-3.6-12-5.3 3.6-5.3 10.5-1.4 15.4 1.2 3.4 1.8 6.1 4.7 9.4 5.3-3-5.4-8.9-8.1-12-13.4 1-1.4 2.6-2.4 4.8-2.6 4.3 4.2 8.8 8.2 12.7 12.7 6.4-3.5 12.1-7.4 18.5-11.3 4.6-2.8 15-8 17-13 .9-2.1 1.1-4.7 1.9-7 1.7-4.4 3.4-8.2 5.8-12 1.8-2.8 3.8-7.7 7.4-5-3.1 6-8.3 11.7-9.1 19.2-.1 1 .2 1.9 0 2.9-.1.6-.7.9-1 1.4-1.1 2.7-.9 6.3 0 8.9 9.7-2.6 19.7-6.9 28.6-11-2.2-6.3-6.2-10.7-8.9-16.6 2.8-2.8 7.3-4 10.3-6.7-3.7.5-7.8.5-11.5 1-.2-.8-.9-1.2-2.2-1-1.5-3.1-5.7-2.2-8.9-3.4-3.9-1.4-5.7-4.8-8.9-7-.9-3.9-5-5.6-5.8-8.9 2-.5 3.3-2.8 5.5-1.7 6.2-5.1 10.6-13.4 11.3-23.3-.1-.2 0-.5-.2-.5-5.6 4.1-11.1 9.8-15.4 15.1zm94.3-.9c-1.2 1.9-3.4 3-4.8 4.6-1.2 1.4-2.1 3.3-3.4 4.8-1.3 1.6-2.5 3.1-3.6 4.8-5.4 8.3-12 16.3-17.8 24-1.2 1.6-2.2 3.4-3.4 5-2.3 3.2-5.3 5.7-7.4 9.1-2.1 3.5-5 6.2-7.2 9.6-4.5 6.9-8.4 13.9-13 20.6 3.6 4.1-.5 11.8-5 13.4 1 .2 1.7.8 2.6 1.2 2.1-5.6 5.4-9 8.4-13.7 7.1-11 15.1-21.1 22.6-31.7 5-7 10.4-13.5 15.6-20.4 7.6-10.1 14.2-21.2 21.8-30.7-1.6-.4-3.6-.4-5.3-.7.1.1 0 .1-.1.1zm7.9 1.2c-2 2.8-4.5 5.2-6.5 7.9-1.3 1.8-2.3 3.9-3.6 5.8-3.8 5.5-7.6 11.2-11.8 16.6-2.7 3.5-5.9 6.7-8.4 10.3-13 18.6-26.9 36.5-38.4 56.2 1.7.5 3.6.7 5.5 1 2-4.8 5.6-8.4 8.4-12.7 2.1-3.3 3.8-7 6-10.3 2.2-3.3 4.7-6.4 6.7-9.8 4.1-6.9 7.8-14.1 12.5-20.6 4.5-6.3 10.5-12 14.2-18.7 4.4-8 9.5-16.4 14.6-23 .2-.6 2.4-2.4 1-2.4 0-.3-.1-.3-.2-.3zm-13.2 25.9c-4.8 8.2-12.1 14.7-17 22.8-2.5 4.2-4.8 8.5-7.2 12.7-7.2 12.5-16.3 23.7-23 36.7 2.7.6 5 1.5 7 2.9 1.5-4.4 3.6-7.4 6.2-10.8 4.8-6.1 8.2-13.1 12.2-19.4 1.4-2.1 2.3-4.5 3.4-7 2-4.8 4.4-9.8 6.7-14.4 1.1-2.3 3-4 4.3-6.2 2.4-4.1 4.5-8.4 7-12.5 4-6.6 7.4-13.2 11.3-19.4 2-3.3 6.5-6.1 6-10.3-.2-.4-.8-.3-1.2-.5-5.3 8.3-10.6 16.8-15.7 25.4zm-4.5-24c-2.7 4.5-6.4 8.2-9.6 12.2-1.6 2.1-2.8 4.3-4.3 6.5-1.5 2.1-4 3.5-5.5 5.5-2.4 3.2-3.9 7.1-6.7 10.1-.7.7.5 1.9-.2 2.6-.5 1.1-1.9 1.3-2.9 1.9-3.3 5.2-7.3 9.9-10.6 15.1-3.3 5.3-7.5 9.7-11 14.6-3.2 2-4.7 5.9-7 9.1-.9 1.3-1.8 2.5-2.6 3.6-.9 1.2-2.6 2.4-2.2 3.4 2.6.3 4.4-1.3 7-1.7 6.9-8.4 11-18.8 17.8-26.9 2.3-2.8 3.9-6 6-8.9 1.5-2 3.3-3.6 4.8-5.5 4.7-5.9 9-11.9 13.4-17.8 6-7.9 11.2-16.5 17.8-24 0-.3.3-.4 0-.5-1.3.6-2.7.7-4.2.7zm19.9 9.3c-.4 2.3.6 5.4.2 7.9 1.6-3.3 3.4-6.4 5.3-9.4-.6-1.7-1.1-2.8-2.4-3.4-.5 1.9-2.7 2.6-3.1 4.9zm2.4 11.8c-.4.6-1.2 1.1-1.4 1.7-2.3 5.2.8 10.9 1.4 16.8 2.8-1.6 5.2-4.4 8.6-7 1.3-.9 3.4-2.1 5-3.1 1.2-.7 4.7-2.4 4.8-3.4.2-1.6-3.3-3.6-4.6-4.6-4-2.9-6-6.4-8.6-10.1-1.7 2.7-3.3 6.6-5.2 9.7zm-11.5 3.1c.5 4.1-.5 8.6-1 12.5.5 1 .5 1.2.5 2.4.1 5.4-1 10.3-1 15.1 0 5 .6 9.6 1.7 14.4 1.8 7.9 5 15.7 8.2 24 6.2 16 11.8 33.1 10.6 53.8-.6 8.9-3 17.6-4.6 26.4-1.4 7.8-3.4 15.2-5.3 21.8-.3 1.1-.4 2.4-.7 3.4-.8 2-2.6 2.2-3.1 4.6 10.8 3.7 19.3 9.8 31.4 12.2 3.1-2.4 3.5-6.8 4.3-10.6 5.7-26.3-1.1-56.7-10.3-76.3-1.4-3-2.7-5.9-3.8-8.9-1.2-3.2-1.7-6.6-3.1-9.6-1.7-3.6-4.2-5.7-4.6-10.3-.9-10.4-.6-21.3 2.9-29.3-2.2-3.2-4.8-6.4-7.2-9.8-2.2-3.2-5.2-7.3-6.7-10.8-.9-1.9-1.2-4.4-1.9-6.7-2-6.6-2.6-15.6-2.9-23.8-.9 2.1-2.2 3.8-3.4 5.5zm30 4.3c-3.2 1.8-6.1 3.5-9.8 6.5-2.4 2-7.4 5.5-7.7 7.7-.4 3.4 4.2 8.6 6 11.5 3.4 5.5 6.1 9.4 9.8 13-4 4.9-4.2 14.2-3.6 21.8.2 2.3-.3 5.6 0 8.2.5 4.6 3.3 7.4 4.8 10.8 2.9 6.9 5.1 15.9 8.6 20.9 2.4-9.4 7.8-15.9 12.5-23-1.5-3.2-3.4-6.4-5.3-9.6-1.8-3.1-4-6.3-5.5-9.6-2.6-5.7-4.6-11.4-7.2-17.3-1.1-2.5-2.1-5.3-3.1-7.9-2.1-5.3-3.6-10.9-5.8-16.3 1.5-2.7 5.5-3 8.2-2.2-1.3-4.2-1.2-9.7-1.9-14.5zm-88.8 24c-3.1.9-6.6 2.6-9.8 4.1-6.6 3.1-14.7 5.9-21.8 8.4-1.7.6-3.4.5-5.3 1-2.2.5-4.4 1.9-7 2.6-2.3.6-4.8 1.8-7 2.6-7.5 3-14 6.1-19.2 10.3 9.1 1.5 18.5 2.6 27.6 4.1-.1 1-.3 2.7-.7 4.1 2.6.2 4.4 1.2 6.5 1.9 2.4-1.3 5.4-.4 7.7-1 3.9-1 6.3-5.2 10.6-5.5 1.9-3.4 4.7-6.1 7-9.4 2.3-3.2 3.9-6.9 6.5-9.8 5.2-6 9.8-12.3 13.4-19-2.8 2.1-5.5 4-8.5 5.6zm-55.5 18.3c5-1.9 13-4.9 19.2-7.2-.1-1.8-.2-3.8-.2-5-5.8 4.5-12.8 7.9-19 12.2zm38.7 17c-.7 0-1.7-.3-2.4-.2-3.5.5-5.6 3.5-7.9 5-2.9 1-7.3.6-9.8 1.9-2.8-1.5-6.7-1.9-9.8-3.1-3.2 4.1-4.6 9.9-4.8 17 1.4-.4 2.4.4 3.6.2.3 0 .6-.6 1-.7 3.6-.8 6.2 3.6 9.6 5 2.7 1.1 5.1 1.1 8.4 1.4.3.3.1 1.1.5 1.4 4 1.8 5.5 6.2 10.6 7 3.5 4.9 8.7 8.1 15.4 9.8 1-2.1-1.4-2.9-2.6-3.6-4.8-2.7-8.9-6-12.2-9.6-.3-.3-.1-1.1-.5-1.4-1-.8-3-2-2.9-3.1 3.1 1 6.4 2.7 9.4 3.6 1.4.4 2.8.8 4.3 1.2 2.8.9 5.5 2.5 7.9 3.1.4.1 1.3-.2 1.7 0 2.3.9 3.6 2.8 6 3.1 2.3.3 5.1.3 6.7-1-2.6-2.2-6.3-3.4-9.1-5.3-1.2-.8-2.1-2-3.4-2.6-6.7-3.5-15.3-4.7-19-10.8 2.9-.1 4.9 2.3 7.9 3.1 1.2.3 2.5.2 3.8.5 2 1.7 4.9 2.7 7.7 3.6 3.6 3.9 11.5 3.6 15.8 6.7 1.9-.9 4 .1 6.5 0-3.9-4.1-10.4-6.2-15.4-9.1-1.6-1-3.4-2.4-5-3.1-1.7-.7-3.7-.5-5.3-1.2-1.2-.5-2.3-1.7-3.6-2.4-1.4-.8-3.1-1.2-4.3-1.9-.6-.4-1.1-1.3-1.7-1.7-.8-.5-1.7-.7-2.2-1.4.4-.6.9-1.1 1.7-1.4 3 1.2 5.3 3.2 7.9 3.8 2.7.7 5.2.2 7.9.7 6.7 1.4 6.3 5.9 10.8 8.6.6.4 1.6.3 2.4.7 2.2 1.1 2.7 2.7 5 2.2-5.2-3.6-8.1-11.4-14.6-14.6-3.9-2-8.7-1.9-14.2-2.9-2.4-1.8-6.2-2.7-9.6-3.1-1.1-.2-2.8.2-3.4-1 1.6-1 3.8-1.9 6-1 3.8-1.3 8.6-3.6 7.7-7.9-3.6 1.7-7.9 4.2-12.5 4.5zm-34.6 23.8c.2 2.1.6 4 1.4 5.5.6-1.8 1.9-2.9 1.4-5.8-1.1-.1-1.6.5-2.8.3zm19.7 5.3c-7 13.7-18.6 22.7-24.7 37.2.8 1.2 2.1 1.9 3.4 2.6 8.9-12.2 17.1-25.2 25.9-37.4-1.6-.8-2.4-2.3-4.6-2.4zm26.6 10.3c.5-1.3 1.6-2.1 2.4-3.1-3.1-1.3-6.2-2.6-9.8-3.4 1.6 3 4.3 5 7.4 6.5zm-20.4-6.3c-9.3 11.7-16.9 25-25.9 37 2.8 1.5 5.3 3.4 8.4 4.6 7.2-12.9 15.4-24.9 23.3-37.2-2.3-1.1-3.8-3-5.8-4.4zm-15.6 43c1.8.6 2.9 1.9 4.6 2.6 6.3-13.8 16-24.2 23.3-37-1.6-.9-2.7-2.4-4.3-3.4-8.4 12.2-16.4 24.6-23.6 37.8zm28.8-33.4c-6.6 13.3-17.1 22.7-22.6 37.2 1.1.9 2.1 1.8 3.4 2.4 2-4.2 5.3-7.5 7.9-11.5 1.9-2.9 2.4-6.6 4.3-9.6 1.6-2.5 4.1-3.9 5.3-6.2 1.3-2.5 1.6-5.4 2.9-8.2.5-1.1 1.8-1.9 1.9-3.1-.9-.4-2.1-.6-3.1-1zM265 353.3c-1.5 3.5-4.5 5-6.7 7.4-2.2 2.5-3.6 5.9-5.8 8.6-6.4 8.4-12.1 17.3-18.5 25.4 3.5-.4 4.6 1.6 7 2.4 5.5-6.3 9.5-13.7 14.4-20.4 4.9-6.7 11-12.5 15.4-19.7-2.2-.9-3.7-2.6-5.8-3.7zm7.7 5c-4.7 6.4-9.4 11.1-15.4 19.4-3.3 4.5-6.7 10.1-10.1 15.1-.9 1.3-3.7 4-3.6 5 .2 1.7 3.7 3 5 3.6 2.1 1 4.1 2 6 2.9 9.1-13.6 17.5-27.8 26.6-41.3-2.8-1.5-5.7-3-8.5-4.7zm10.3 6c-9 13.4-17.4 27.6-26.4 41 1.8.9 4.2 1.2 6 2.2 8.1-13.7 17.9-25.8 25.7-39.8-1.9-1-3.3-2.5-5.3-3.4zm91 32.2c-6.7.7-12.7 3.6-17.5 7.4-8.5 6.8-15.3 17.6-18.7 29.8-.9 3.1-1.4 6.4-2.4 9.6-1 3.4-2 6.8-2.2 10.1-.3 5.7 1.4 10.3 2.6 15.4 2.7 11 10.6 16.1 19 20.9-6.2-24.8 6.4-43.1 19.4-55.2 10.9-10.1 24.7-16.9 39.1-21.6-5.2-1.5-10-3-14.4-5.5-4.4-2.6-9.4-3.6-13.7-6.5-.3-1.3 1-1 1-2.2-2.7-2.3-8.1-2.7-12.2-2.2zm-145.7 12c-1.5 4.6-2.8 9.7-4.3 14.9-1.1 3.7-3 7.2-3.6 10.8-.5 2.9-.9 5.6-1.4 8.4-.6 2.6-1.7 5-2.4 7.7-1.1 4.1-.4 8-2.6 10.6 1.2.9 2.4 1.9 4.1 2.4 6.6-19.2 11.9-39.8 20.2-57.4-2.7-1.7-5.2-3.6-7.9-5.3-1.1 2.3-1.8 4.9-2.1 7.9zm11.7-1c-7.8 17.8-13.2 38-19.7 57.1 2.2 1.3 4.6 2.5 7.4 3.1 3.5-8.7 8-17 11.5-25.9 3.5-9 6.6-18.3 10.1-27.6-3-2.2-5.8-4.7-9.3-6.7zm13.7 2.2c.8 2.4 3.4 3 5.3 4.3.2-.7.8-1.1.7-2.2-1.8-.7-3.9-2.4-6-2.1zm7 5.5c7.4 3.8 12.9 9.6 20.2 13.7 1-2 2.8-3.1 3.6-5.3-8.5-2.8-15-7.6-23-10.8-.3.8-.9 1.3-.8 2.4zm-12.7 9.6c-1.6 3.8-2.2 8-3.6 11.8-4 11-10.2 21.3-14.2 32.2 1.4.2 2.2 1 3.6 1.2 7.8-16.8 16.2-33 23-50.9-1.7-1-3.5-2-5-3.1-.6 3.3-2.6 5.8-3.8 8.8zm166 12c0 11.5 2 23.2 5.8 33.4 4.1 11.2 11.4 22.5 23 25.4 11.2 2.9 21.8-4.6 29-7.4-8.3-21.1-18.3-40.4-26.9-61.2-10.9 2.6-19.9 7.2-30.9 9.8zm-189.6 57.1c0 .8 1.2-.9 1.4-1.2 3.9-5.1 8.5-9.7 12.2-14.4-2-.7-3-2.4-5-3.1-2.7 6.3-5.5 12.7-8.6 18.7z"/><path class="st1" d="M389.1 111.8c2 .9 6.6 6.3 2.9 9.1-.4-.6.4-2.2.2-3.4-.2-2.1-2.4-4.1-3.1-5.7zm-2.7-31.2c-2.5 0-4.3 2.7-7.2 3.1 3-4 11.4-7.9 16.6-4.1 1 .1 1.6-.2 2.4-.2-.2.4-.4.8-1 .7.3 1.2 1.7-.4 2.2.2.2.7-.7.5-.5 1.2.6.5 1.5-.3 2.2-.5.7.5-.5 1.1-1.2 1 .1.8 1.4.4 2.2.5.5.5-.1.5-.2 1 .5.2.8.6 1.7.5 0 1.2-1.6.9-2.9 1-.1 1.1.7 1.2.7 2.2-.3 0-.4.1-.5.2-1-.5-1.1-1.8-1.9-2.4-.2.2-.5.3-1 .2-.1 1 1.4 1.7 1 2.2-1.4.8-1.1-1.9-2.9-1.4-.6.7.9.7.5 1.9-1.5.2-.9-1.7-2.4-1.4-.8.6.7 2.3-.5 2.6-.8-.3-.4-1.9-1-2.4-3.5.3-5.6-.8-8.9-.7 0-1.1 2.2-.8 2.9-.5-.5-1.3-1.2-3.5-.3-4.9zm1.7 2.2c.8-.1 1.2-.6 2.2-.5-.2-.8.4-.9.2-1.7h-2.4c0 1 .5 1.4 0 2.2zm5.3 3.1c2-.3 4-.6 5.3-1.7-1.2-.9-2.5-1.8-3.8-2.6.2 2.2-1.3 2.6-1.5 4.3zm-7 29.5c1.5.4 2.3 1.5 2.4 3.4-.9.5-.9-.1-1.7-.2-3.4 10.3-16.9 20.2-29.5 12.7-1.2-1.8-3.4-3.8-4.1-5.3 3.6-.6 4.7 3.9 7.4 5.3 9.2 4.7 18-1.8 22.6-9.1-4.7 2.4-8.5 6.5-15.8 6-9.7-.6-16.5-6.5-20.2-13-.6.1-.7.8-1.7.5 0-1.6 1.2-2 2.4-2.4 1.5 3 5 2 8.2 2.4 4 .5 6.9 3.3 11.5 2.9 2-.2 4-1 6.2-1.2 3.9-.3 8.3.7 11.5-.7 1 .2.4-1.1.8-1.3zm-18 5.8c4.6-.2 8.5-2.9 13.2-2.9-5.3-1.8-10.4 1.2-15.6 1-4.8-.2-8.7-4.3-13.9-2.9 5.2 1.4 10.3 5.1 16.3 4.8zm13.7-1.7c-5.2.3-10.8 3.4-17.3 2.6-3.8-.4-7.2-2.7-10.6-3.4-.1 0-.3 0-.2.2 3.5 9.8 24 9.4 28.1.6z"/></g></svg>