<svg xmlns="http://www.w3.org/2000/svg" viewBox="0 0 566.9 467.7"><style>.st0{fill-rule:evenodd;clip-rule:evenodd}.st0,.st1{fill:#ed7d00}</style><g id="Layer_1"><path class="st0" d="M88.6 59.1c.1 1.1-.1 2.4 1.4 2.1 1.8-3.1.8-18.1.7-22.6-6.6-1.6-16.5-2.6-24.7.6-6.6-2.9-11.6 0-20.6-1.4-.7 1.7-3.2 5.3-4.8 5.5.4 4.3-.4 7.4-2.1 9.6 6.3 2.4 12.9.3 19.9 2.1-1.1 13.7 2.4 32.7-.7 46.7-.6 2.8 1.1 8.9 0 12.3-.1.3-.2.5-.2.6.1-.2.2-.3.2.8-.1 2.5-4.2 5.4-2.1 8.9-.2.1-1.4-.7-1.4-.7-1.9 6.2-2.3 13.3-8.2 16.5-10.6-.6-15.5-14.2-13-22.6.2-.7 1.5.3 1.4-1.4-1.2-16.3-11.3-.9-20.6-4.1-1.4 4.9-5.7 3.7-8.2 8.2v1.4c3.2.4 1.6 7.2 4.1 6.2.6 2.2-.6 2.6-1.4 3.4 4.7 2.6 2.7 11.9 7.5 14.4-1.8 1.1.1 2.8 1.4 4.8 3 4.7 12.1 11.7 17.2 13 3.7-1.2 5.6 1.8 13 .7.1-.8-.1-2 .7-2.1.2.5 0 1.3.7 1.4 9.9-5.3 17.6-6.6 21.3-19.2 2.6.3 1.3-7.5 4.1-6.9.9-9.5 1.7-11.1 1.4-22 .7 0 .8.6 1.4.7.3-13.4 1.1-32.6 2.7-49.4-1.7-.2.8-4-.7-6.2 3.9.3 7-.3 9.6-1.3zm188 66.5c-6.6.8-8.3-.8-11.7 1.4-8.4-2.7-11.5-.6-19.9-2.1v-3.4c8.4-6.8 14.8-12.1 20.6-20.6 1.6 1.9 3-2.7 4.8-.7 0-3.1-.3-7.5 1.4-3.4.3-6.2-.5-8.4-.7-13-5.2-2.6-14.1-1-16.5-.7-2 .2-3.3-2.4-4.8-2.7 0 0-.1 1.5-.7 1.4-2.2-.4-6.1-2.2-8.9.7-3.4-1.7-9.2 1-15.1-1.4.2 4.2 1.6 5.9-1.4 8.2 3.9-.7 1.6 6 1.4 7.5 2.6 1 3.2 0 3.4 2.7 3.1-1.5 5.2.6 9.6-.7-.6 3.2 1.1.7 1.4 2.1-3.1 4.5-4.7 13.8-7.5 17.2.2-.2-.3-1.6-.7-1.4 0 4.4-3.9 6.7-4.1 11-.2 5.3 1 9.1 0 14.4 2.1-.7 1.2 1.5 1.4 2.7 14.6.2 28.5-2.1 48.7-4.1.5-8.9.7-9-.7-15.1zm-76.1-.7c-1 6.2-12.2 1.7-15.1 4.1-.3-2.3-1.6 1.2-2.7-2.1-.1 2-3.4 1.1-4.8 0 .1-1-.2-2.5.7-2.7-.2.3.4 1.7.7 1.4 5.3-6.2 8.5-16.9 17.2-19.9 2.2-5 .5-12.5 1.4-15.8-4.1-1.1-8-1.3-13.7 0v-2.1c-4.5 1.4-6-1.4-8.9.7-2.8-2.3-8.6.3-11 0 .2 0-1.1-2-1.4-2.1-1-.4-2.5.9-3.4.7-1.5-.4-3.1-3.9-6.2-.7-.2 8.3-.4 12.6 2.1 18.5 8.4.6 9.3-.4 15.8.7-3.2 7.8-6.8 15.2-11.7 21.3-.2 1.6.1 2.6.7 3.4h-2.1c.9 5.3 1.3 12.1 3.4 17.2 3.9.6 7.2-2.8 10.3 0 .1-3.2.9 1.5 3.4 0 .1-.8-.1-2 .7-2.1.1 3.4 5.7-.2 6.2 1.4.1-.8-.1-2 .7-2.1.7 2.1 1.1.9 2.1 0 1.3 3 8.5-1.8 11.7 1.4.2-.5 0-1.4.7-1.4.2 2.5 2.9-.2 4.1 1.4-.4-1.8.3-2.5 2.1-2.1-3.3-6.9 3.4-15.4-3-19.1zm-65.9-36.3c-6.6 1.5-9.4-.2-14.4 4.1-7.4-1.3-14.2-2-17.2-4.1v2.1c-6.3-.8-7.7 3.3-11.7 4.8v3.4c-3.8.5-3.7 10.4-6.9 13.7-1.2 15.5.4 26 11 31.6 5.1-1.5 6 1.9 8.9-.7 3.5 3.1 11.9-4.5 14.4-7.5.8 1 1.7 1.9 2.7 2.7-.7 7.9 3.7 9.1 11 8.9 5.1-15.6 5.5-32.2 6.2-54.2-2.9 0-2.2-3.6-4-4.8zm-24 16.4c2.3-1.3 2.5 3.4 2.7 0 1.6 3.5.4 10 0 13.7-1.3-1.6-2 5.4-2.1 6.9-6.9 2.4-6.2-4.3-8.9-6.9 1.7-5.7 4.7-9.9 8.3-13.7zm305-83.4c-.1.2 2.6.4 4.1.5-.4 3.5-3.7 2.9-6.2 2.9-3.8-.1-7.5 1.4-10.7 2.1.8-3 6-3.8 9.1-4.8-5-1.3-10.9.5-17.7 1.4 4.7-4.2 14.6-5.4 21.5-4.1-.1.6.5 1.7-.1 2zm-32.5 1.9c-.6 1.2-1.4 2.1-2.9 2.4.1-.8-.8-.6-1.2-1 .7-1.4 2.5-2.8 4.1-1.4zm53.5 2.7c-1.9 5.6-8.1 1-12.4 1.2.4-1.9 2.1-2.5 3.3-3.6 2.8 1.5 6.4.7 9.1 2.4zm-49.2-.5c-.9 1.6-2.6 2.5-4.3 3.3.9-1.6 2.2-2.8 4.3-3.3zm17.4 2.6c-1.5 4.4-5.7 2.6-9.1 3.3 1.6-2.7 6-4.3 9.1-3.3zm-14.3 1.2c-1.1 2.6-4.5 2.8-6.2 4.8.5-2.1 3.8-4.6 6.2-4.8zm35.3 2.6c-.6 1.5-2 2.1-3.1 3.1-1.4-.5-3.8 0-4.8-.2 1.2-2.4 4.6-4 7.9-2.9zm-30.3.3c0 2.8-4.1 3.8-6.7 3.6 1.3-2.6 3.7-3.5 6.7-3.6zm18.6 1.2c-2 3.9-9.1 3.5-12.7 2.9.7-1.5 2.1-2.2 3.3-3.1 3.8.7 6.9-.3 9.4.2zm-13.6 3.3c-1.1 2.6-4.1 3.2-6.9 4.1 1.5-2.4 4.3-4.2 6.9-4.1zm-6.2 1.7c-1.4 1.7-3.2 3.9-6.2 2.6.4-2.1 3.3-4.1 6.2-2.6zm11.5 3.6c-.8 1.7-2.4 2.5-4.8 2.6 1-1.5 2.5-2.4 4.8-2.6zm-8.4 1.6c-1.1 2.1-2.9 2.3-5.5 2.6.9-1.8 2.8-2.6 5.5-2.6zm2.2 4.6c.6 1.6-3.5 2.9-4.5 3.8 0-1.8 3.1-2.6 4.5-3.8zm9.3 57.2c-6.5-.2-11.8 1.1-16.2 2.6 2.2-3.1 4.9-5.6 9.1-6.7v.7c7.6-2 17.1 1 22-5 .4 2.1.9 3.6 1.2 6.2 1.4.4 2.1 1.6 3.6 1.9-.3 1.9-1.9 2.5-3.3 3.3-5.2-2.9-9.8-1.9-16.7-1.9-.2-.5.2-.6.3-1.1zm19.1 12c3.4-1.1 5.7-.5 9.3-1.7-2.4 3.2-7.9 3.2-11.9 4.8-1-3.2-4.3-4.1-6.4-6.2-1 2.1-2.3 3.8-4.1 5 1.6 0 4 .3 5.7-.2-3.3 4.7-13.4 1.7-17.7-.2.6-1.5 1.9-2.5 3.6-1.7-1-2.1.2-4.2 1.4-5.5-4.4.1-8.6 2.4-11.5 4.8.2-1.3 1.8-2.5 3.1-3.3 3.5-2.1 9.4-4.5 15.5-3.3 5.5.8 9.5 5 13 7.5zm-13.4-2.2c-.1-1.2.5-1.9 1.2-2.4-2.6-2.7-5.4 3.5-1.2 2.4zM338 113c-.4 1.3-2.3 1-3.1 1.9-.2-.9 1.8-1.6 3.1-1.9zm98.1 8.1c-.1.7-1 .6-1.2 1.2-1.4-1.1-4.3 1.2-4.8-.5 1.6.1 3.7-1.3 6-.7zm.2 3.9c-.2.6-.8.8-1.2 1.2-.9-.4-1.5-1.1-2.6-1.2.4-1.9 3-.6 3.8 0zm-8.6.7h.5c2.1.1 4.3 1 6 2.2 1.3.9 3.8 2.1 3.1 3.8-3-1.8-5.1-4.4-9.3-5-.2-.3-.3-.6-.3-1zm-7.6 3.6c-2.1 2.2-8.9 1-11.7-.2-.2-.8.6-.5.7-1 3.5 1.1 6.6 1.3 11 1.2zm-67.3 26.4c2.6-3 5.1-6.1 9.3-7.4-1.1 3.1-6.3 3.2-6.2 6.7-.7 1.6-2.3 2.3-3.6 3.3-.6 0-.1-.8 0-1-.8-.1-1.7 1.8-3.1 1.9V158c-2.1 1.6-2.5 4.2-5.5 5.3-1.1-4 1.3-6.6 3.8-7.9.4.2 0 .4 0 .7 1.4-1.7 2.6-3.5 4.8-4.3-1 1.7-2.3 3.1-2.6 5.5 1.3-2.7 3-5.2 5.3-6.9-1.7.8-3.5 1.2-5.3 2.4-1.3.9-2.7 3.2-3.6 2.1-.8.4-.9 1.3-2.1 1.2 1.5-3.7 4.1-6.4 7.9-7.9-.8 2.2-3.4 2.6-4.3 4.8 3.6-2.6 8.7-5.8 14.6-6.9-.8 3.1-4 3-6.4 4.1-.6 1.6-2 3.8-3 5.5zm4.8 4.1c-.4-.1-.5-.4-.5-1-.9.8-1.9 1.6-2.9 2.4-.5 0-.5-.6-.5-1.2-.9.8-2.3 2-3.3 1.9.2-1.3 2-3.1 4.1-3.3 3.5-3.6 7.3-6.9 11.7-9.5-.3 3.1-6.7 3.2-5.2 8.1-1.2.9-2.2 1.9-3.4 2.6zm30.7 5.5c-2.6-1.9 1.1-7 2.9-6.2.3.1 1 2.2 1 2.9-.2 1.7-2.2 2.5-3.9 3.3zm21.3-2.6c1.7 1.7 2.1 5.8-1 6.2-.1-1.8-.8-3-1.4-4.3.8-.7 1.6-1.3 2.4-1.9z"/><path class="st0" d="M252.8 468.4c.4-19.1 6.6-40.5 8.1-58.2-4.9 1.1-10.3 3.7-15.8 4.8-3.5.1-7.3 1.3-10.7.2-3 .6-4.6-.6-7.4 0-.4-1.1-1.3-.1-2.1-.2-.6-.1-.9-.5-1.7-.5-1.1 0-2.8-.3-3.8-.7-1.4-.5-2.1-1.5-3.3-1-.3-.4-.6-.7-1-1-.2.2-.2.5-.7.5-.5-.9-1.3-1.3-2.1-.7-.2-.7-.9-.9-1.2-1.4-.2.1-.4.2-.5.5-1-1.1-1.6-1.7-3.1-1.9-.2-1.4-2.7-1.7-2.1-3.1-1.7-.9-2.5-3.3-3.6-3.6-1.1-1.1-2.5-4.7-4.1-5.2-.7-2-.6-3.2-2.4-4.1.5-1-.7-1.3-.5-2.6-2.7-3-1.8-6.7-4.1-10.5 1.2-.6-.8-2 .2-2.4-2.1-6.1-2.8-14.8-3.3-23.9 0-.6-.3-2.8-.5-2.4-.5 0 .2-.9.2-1.2-.2-2.5-.8-5.2-.5-7.9.5-4.1 1.9-8.9 2.1-13.4.4-8.4 4-15.7 6.7-23.6 1.6-4.8 2.5-9.7 4.5-14.1 4.9-12 11.6-23 19.8-32.5 4.2-4.9 9-10.5 13.1-16 4.3-5.7 8-10.7 10.7-17.4 1-2.3 2.9-5.6 4.3-8.1 1.7-3.1 4.7-6.3 7.4-9.8 6.8-8.7 12.7-17.7 21.5-24.3 1.8-.9 3.3-1.9 4.5-3.3 3-.9 6.1-3.3 9.3-3.8.4-.4 1-.4 1.2-1 4.2-1.6 8.1-1.8 11.2-3.8 1.8-1.2 2.9-3.5 5.5-4.1 2.5-7.2 7.3-13.2 12.2-17.9 1.1-1.1 2.5-2.1 4.1-2.4-.5-5.3-.5-12.9.7-18.6-1.5-4.7-1.1-8.8-1.4-13.8-2.5-1.4-5.6-1.6-7.2-3.6-3.5-4.5 1.1-8.6 5.3-10h1.4c-1.1-2.3-1.9-7.2-1.4-10.7.3-2.4 2.4-4.2 1.9-7.2-.1-.5-.6-1-.7-1.4-1-5.7 2.2-11.7 2.9-18.4.4-3.9.3-9 1.2-14.1.4 0 .2-.8.7-.7.5-3.1 1-6.2 2.6-8.1 2.7-8.2 9.2-12.7 17.9-15 2.8-2.2 5.5-4.5 8.6-6.4 2.4-3.7 7-7 12.2-7.6 4-.5 8.3 2.1 11.9 0 3.8-2.2 7.2-5.2 12.2-6.2 1.1-.2 2.5-.2 3.8 0 1.5.2 4.3.7 5.7 1.4.2.1.3.7.5.7 1.2.3 2.7 0 3.8.2 4.8.9 8.4 3.8 13.4 4.8.8 1.2 2.5 1.5 3.3 2.6 11.7-1.3 19.7 6.8 27.2 11.7.7.2.5.2 1.2 0 1 1.4 2.9 1.9 3.6 3.6 5.1 1.9 5.3 7.8 6.9 12.2 4.1 5 3.5 12.7 3.8 20.5.1 2.6-.5 5.2-.2 7.9.6 6.1.4 14 .7 21 .5 9.4-5.1 15.6-8.6 22 2.2-.8 5.6-.1 7.2 1.7 1.7 9.1-5.5 14.2-13.4 14.6-.9 4.7-1 10.3-4.8 12.2v1.2c.4 0 1.6-.1 1.9-.2.3.1.2.6.2 1 .4 0 .5-.3 1-.2.3.3.3.9 0 1.2.6-.3.7.1 1-.2 1.1 3.3 5.4 7.4 7.9 11.5.3 0 .1-.2 0-.2.5-.7.7 1 1 1.4 1.1 1 2.6 1.7 3.1 3.3.7.2.9 1 1.9 1-1.3.8 1.3 1.1.5 2.1.1.6.4-.3 1 0-.2 1.7 4.1 3.7 4.1 6 1.4.5.8 3 2.6 3.1 0 1.4 1.1 1.6 1.2 2.9 1.2-.5 1.8 1.9 2.6 1.7.3.5.2 2.2 1.7 2.1 2.2 4.6 8 3.3 12.2 5.7 1.7-1.1 3.6 3 6 1.9-.4.5 0 .3 0 1 .6-.3 2.4-.5 2.6.7 2.1-.8 4.2 2.6 6.7 2.1.3.3.3.6 0 1 3.2 1.7 4 4.2 7.9 5.5 0 .4.3.5.2 1 .4 0 .5-.3 1-.2-.1.5.2.6.2 1 1.2-.9 2.1.7 3.1 1.2.6.3 1.5 0 1.9.2.6.3.6 1.3 1.2 1.7.6.4 2.8.2 2.1 1 .6-.3.7.1 1-.2 1.3 1.1 2.4 2 4.8 2.4.8 1.4 2.2 1 3.8 2.4-.2 1.7 1.5 1.5 1.2 3.3.5 1.2 2.3 1 2.1 2.9.8.1.7-.4 1.2 0-.4 1.5 1.1 1.1 1 2.4.2-.2.5-.3 1-.2 3.4 3.8 6.4 7.8 11.7 9.1v.7c1.9.8 4.3 3.1 5.5 4.8.4 0 .5-.3 1-.2-.1.6.4.5.2 1.2.2-.2.5-.3 1-.2.1.4-.2.4-.2.7.7 0 .5-.4 1 0-.3 1.7 1.4 1.3 1.2 2.9.3 0 .4-.1.5-.2.4 1.8 2.3 4.5 2.6 4.8.6-.1 1.1 2.1 1.9 2.6-.2 6 .3 12.6-.2 18.1-.7-.3-.8-.7-.5-1.4-.6-.6-2.6-2.6-2.1-4.3-1.2-.1 0 .8-1 .7.9-1.1-1.7-2.8-.5-2.6-.9-.4-1.2-2.6-2.4-2.6 0-1.7-2.2-2.5-1.9-3.8-.1-.5-.6.3-1-.2.4-1.8-2.4-3.3-2.1-5-1.1.2-2-1.4-2.6-2.4-.4.4-1 .3-1.9-.7-.1-.2-.1-.8-.2-1-.5-.4-1.5-.5-2.1-1-.9-.7-1.3-1.9-1.7-2.2-.2-.1-.5.2-.5.2-.7-.5-.5-1.5-1.4-1-.3-1.8-2.7-.7-3.6-2.9-.8.3-.8.1-1.7 0-.5-2.1-2.7-2.2-3.1-4.5-.5 0-.3.6-1 .5-.6-1.2-2.1-2.7-2.9-2.9-.7-.8-1.6-2.8-2.1-2.4-.3-1.3-1.9-2.5-1.7-4.1-.3 0-.4.1-.5.2-1-2-3.2-3.5-5.7-4.1.5-.9-.3-.2-.2-.2-.7 0-4.7-3.4-5.7-2.4-.4-.5.2-.5-.2-1-.2.1-.4.2-.5.5 0-.4-.5-.6-.7-1.4-.5 0-.3.7-1 .5-2.2-3.2-6.4-2-7.4-5-.3.1-.2.6-.2 1-.9-.8-.6-1.7-2.6-1.7.5-.5.1-.9-.7-.7-.4-3.3-6.3-4-8.4-6.7-.3.5-1.4.8-1.2-.2-.5-.1-.9.1-1 .5-.1-1-.1-.2-1.2-.5-1.4-.4-3.1-2-4.5-1.9-.3-1.7-4.7-1.1-5.3-2.4-.9.8-1.3-.7-1.9 0-.3-.1 0-.2 0-.5-1.8.3-2.8-.4-4.5-1-.3 2 1 3.6 1.4 6 .1.3-.5.1-.5.2-.2 1.3 1.4 3.4 1.9 5.2.9 3.1 1.3 7.1 1.9 9.1.2.6 1.8 3 1.7 4.3-.3 3.3-3.9 5.2-6.2 7.6-1.6-.3-3.3-1.5-4.8-1.2-1.5-2.1-4.6-2.9-6.9-4.3-.2.2-.2.5-.7.5-2.2-1.5-4.8-1.2-6.7-3.1-.2.1-.4.2-.7.2.9 3 2.6 3.9 3.6 6.9.2-.1.4-.3.7-.2 1 2.8 3.9 5.4 4.5 8.8.3 0 .4-.1.5-.2 0 1 .4 1.2 1 1.9-1.9 4.8-5.7 8-9.6 9.6-5.5.5-9.7 3.5-14.6 4.3-4 2.2-9.3 3.9-13.1 6.9.2.7.6.3 1.2.2.6 1-.2 1.3-.2 2.4 8.4 6 14.2 14.6 15.5 26 1.4-.5 2-1.9 3.1-2.6 7.4 2.5 15.4.8 22 3.3-.1-.2-.2-.4-.2-.7 5.8 1.2 11.5.7 17.4-1.2.6 0 .7.4 1.2.5 1.3-.6 2.8-.4 3.8.5.1 3.1-.7 8.2-.7 11.2-.8 1.7-.6 5.9-.7 8.6-.1 1.4.1 3.9-.5 5.3-.6 1.3-1.4 5-1.7 6.9 0 .3.5.7.5.9-.1.6-.7 1.1-.7 1.7 0 .3.5.1.5.2.1.9-.7 3.3-.7 4.1 1.2.9 3.5 1 4.5 3.1.6.1.5-.4 1.2-.2-.3.3-.1.4 0 .7 2.3 1.3 5.6 3.7 7.4 5.5 1.5-6.3 2.6-14.4 4.5-20-1-.6-1.1-1.2-1.9-1.7.4-3.4 2.9-4.8 4.5-6.9-.6-1.9-1-5.9-.2-6.4-.4-6-1.8-12.2 0-18.1h.5c1.8 1.6 1.9 4.4 2.6 6.9 1.4 4.9 3.5 7.9 3.8 13.1.7-.3 1-1.1 1.2-1.9 3.8-6.1 8.2-11.9 13.1-17.4 1.6-1.8 2.7-4.3 5.3-5-4.3 6.7-11.8 14.4-15.5 22.7-1.4 3.2-3.9 7.3-1.9 10.3 1.4 2 4.3 3.8 5.7 4.5-.4 1 .2 1.5 1 1.4.2 3.2-2.8 6.8-5.7 8.3-2.8-1.7-5-5.2-7.9-6 0-.8-.5-1.1-.5-1.9-1.2 3.8-1.3 7.9-1.9 12.4-.5 3.2.3 7.6-2.4 9.5 0 .9 1.2.5 1 1.7 3.2-2.5 8.3-1.6 11-2.6 0 .2-.2.2-.2.5 1-.8 1.9.5 3.1-.5-.2.5 1.3.3 2.4 0 3.7 1.1 7.8.9 11.7 1 .6 0 .6-.5 1-.7 1.7.7 2.5-.3 4.8-.2-1.9 5.6-6.5 9-12.2 7.9-1.3.9-4.5.8-6.2 0-2.8.5-6.6-.2-9.5-.2.2.2.4.6 0 .7.1.3.7.3.7 0 .6.5.5 1.9 2.1 1.9 0 1.1 2.4 2.5 2.9 3.3.7 1.3 1.9 2.7 2.9 3.8 1.9 2.2 3.9 4.2 5.7 6.2.3 1.2 2 2.7 2.1 4.8.5.4.3 0 1 0-1.1 3.8-3.7 6.1-6.4 8.3-.4-.9-1-1.6-1.2-2.6-.8 1.3-.2.1-.5-.7-.1-.4-1.2-1.8-1.9-2.6-1.1-1.4-3.4-2.9-3.6-4.5-.5-.1-.7-.6-1.4-.5-1.1-2.5-2.8-4.6-5.3-5.7-.8-1.4-.9-2.1-2.6-2.6.1-1.4-2.4-3.4-3.3-3.8-1.6-3.2-4.8-3.5-6-6.7-.7.2-.5.2-1.2 0 .4-.6.3-.7-.5-.5v-1c-.8.1-1.4-.4-1.7-1.4-1.1 1-1.6-2-2.9-1.4-.7-.2.2-.5 0-1-.2-.7-.4.6-.9.2-.8-1.3-3.2-3.3-5-3.6-.1-.5-.7-.4-.5-1.2-1.6.5-1.6-1.3-3.3-1 0-.4.3-.5.2-1-1.6.2-3.1-2.3-4.8-2.1v-1c-1.1.4-1.4 0-1.7-1-.3 0-.2.4-.2.7-1.2-1.2-2.4-1-3.3-2.4-9.3 15.4-15.9 33.4-24.8 49.2.2.6 1.5.1 1.4 1 .2 0 .2-.3.2-.5 3.2 2.2 5.8 1.6 8.8 3.8.7-.3-.1-.6.5 0 .7.7 1.6.3 2.4.7.8.4 1.2 1.3 1.9 1.7 1.2.7 2.9.6 4.1 1.2 0 0-.3.4-.2.5.4.2 1.7-.3 1.2.7.9-.2 2.2.4 2.9.7.2.1.6.9.7 1 .1 0 .5-.4.7-.2.2.2.1.8.2 1 .1 0 .5-.4.7-.2 1.1.6 2.3 2.4 3.3 3.6 2.6-.4 4.1 3.1 5.5 2.4.9 1.7 2.3 3.1 4.8 3.8-.6.8 2.5 2.1 3.3 2.9-.1-.1.2 2 .7.7.4.1.5.4.5 1 .9.1 2 .9 2.6 1.2.3.2.4.8.7 1 .9.5.4.1.7.5.9 1.1 3.1 1 4.3 2.4.2 0 .2-.3.2-.5 2.6 1.3 4.7 4 8.1 5.2v.7c.5-.3 1.8.2 1.4.7.9-1 .7.4 1.7 1 .4.2 1.2-.1 1.7.2.6.4 2 2 2.9 2.2.2 0 .6-.4 1-.2 1.3.6 1.3 1.1 2.4 1 .3 0 2.3.7 1.4 1 2.4.6 3.8.2 5.3 1.4 1.3-.4 1.9.3 3.1.7.5.2 1.3-.3 1.9-.2.8.1 1.3.6 1.9.7 6.4.8 14.4.6 19.8 1.9.2 0 .2-.3.2-.5 3.2 1.1 7.3-.4 9.5.7.8-.9 3.6-.4 5-.9.6 1.5.1 4 .2 6-7.8 2.9-15.2 1.7-22 2.4-.3 0-.2-.4-.2-.7-1.5.3-3.2.5-4.3-.5-.3.1-.5.3-.5.7-4.3-1.4-7.2-.5-10.7-1.7-1.2.9-2.8-.6-3.8-.5-.5.1-1.7 1.1-2.4-.2-.3 0-.2.4-.2.7-2.6-1.5-4.9-1.8-7.6-1.9-.5-.7-2.3-1.4-2.6-.7-.5-.1-.5-.6-.7-1-1.2 1.2-2.2-1.5-3.6-.7-2.6-2.3-6.1-3-8.1-5-.2 0-.2.3-.2.5-3.2-2.9-5.3-3.7-8.6-6-.4.1.1.3 0 .7-1.3-1.2-3.3-2-4.3-2.9-.1 3.3.3 6.2 0 9.8-.2 1.9.6 3.4.7 5.3.1.9-.6 2.4-.5 3.6.3 3.4.5 8.6-.5 12.9.9 2.7-.6 6 .5 8.8-.7.2 0 1.8 0 3.1 0 3.6-1.4 8.8-1.4 12.4 0 1.1.4 2.2.2 3.1-.4 2.3-2.1 3.3-3.1 5h-3.6c.6-3.8 1-7.7 1.2-11.5.4-8.9.6-18.3.5-27.2-.1-5.4-.5-13.8-.7-20.3h.5c.1-1.5-.8-3.3-.5-5 .3-1.4 1.3-2 1.9-3.3-1.1-.8-1.6-2.3-3.3-2.1.2-1-1-1.9-1.4-1.4-.9-2-3-1.3-3.6-3.6-.2.1-.4.2-.5.5-.3-.1-.5-1.6-1-.7-.8-1.6-2.9-2.3-4.1-2.4-1.2-2.5-4.2-3.2-6-5.3-1.5 1.1-1.9-1.3-3.1-.5-.1-1.5-1.9-.4-2.4-1.9-.4-.1-.4.2-.5.5-1.6-1.8-4.7-1.8-6.2-3.8-.5-.1-.9.1-1 .5-.4-.2-.4-.8-.7-1.2-1 .2-2.5 0-3.6-1.2-1.6.3-3.2-.2-4.3-1.7 1.2-2.6 2.6-5 3.8-7.6-.6-.9-1.5-1.5-1.9-2.6-.4 0-.5.3-1 .2-1.4-2.3-4.4-2.4-6-5-1 .6-1.8-1.5-2.6-1 .1-1.2-1.6-.6-1.4-1.9-2.8-.2-3.6-2.5-6.2-2.9-.1-.4.2-.4.2-.7-2.8-.6-4.8-4.6-6.7-5-1.1-1-2.6-1.5-3.1-2.1-.6-.7-1.4-2.3-2.9-2.6.1-.8-.1-1.4-1-1.2-.6-3-2.4-6.4-2.9-9.8-.2 0-.2.3-.2.5-3.6-2.8-7.1-5.8-10.5-9.5-.1-.4.2-.5.5-.5-1.8-.7-2.6-2.3-3.1-4.3-1.1 0-1.6.6-2.9 1-.4-.5 0-.6 0-1.2-.3-.3-.6-.3-.7.2-.3-.3-.6-1.7-1.2-1 .2-.7 1.1-2.7 1.9-3.6-6.7 0-10.9-1.6-18.6 0 .4 4.7-.7 10.4.2 15 2.5 2.7 5.3 3.2 7.2 6.2.8.3.9 1.2 1.9 1.2v1c.4.1.4-.2.5-.5.2 1.6 2.3 2.2 1.9 3.6.2-.2.7-.1.7-.5.2.2 0 .7.2 1.4.1.4.3-.1.7 0 4.4 5.9 8.5 11 9.8 18.6-.5.9 0 1.8.2 2.6-.7.3.7 2.7-.5 3.3 1.2 2.6-.1 4.9 1 6.7-1 3.7-.8 8.9-1.2 12.4-1.7 13.3-11.2 20.9-19.6 28.2-.8 5-.8 9.1-1.9 12.9.3 3.9-1.7 6.7-1 10.7-1.7 6.1-1 11-2.6 16.7.4 4.8-.2 7.6-.2 12.7h-6c.4-13.9 3.1-25.6 4.3-38.9.2 0 .2.2.5.2-.2-2.8.6-6.2 1.2-9.8-5.3 3-11.4 3.9-17.2 4.8-1.4.2-2.4 1-3.6 1.2-.3 0-.2-.5-.2-.5-1.8.1-4.3.5-5.7.7-.9-.7-1.5-.7-2.6-.2-.2-.2-.5-.2-.5-.7-1.2.3-1.1.6-1.9-.2-.2 1.2-3-.5-3.8-.7-.5-.1-1 .4-1.4.2-.5-.1-.9-.8-1.4-1-1.9-.5-4-.5-5.3-1-.5-.2-.6-.7-1-.7-.1 0-1 .8-1-.5-.4.1-1 .1-1.2.5-.5-.1-.5-.4-.2-.7-2.3.1-4.2-.8-5.2-2.2-1.8.7-2.8-1.6-4.5-1 .1-1.3-2.1-.3-1.9-1.7-.5.2-3.8-.5-4.1-2.1-.2 0-.2.3-.2.5-2.3-1.4-5-2.4-6.9-4.8-1.3.5-3.9-1.4-4.5-3.1-.4 0-.5.3-1 .2-.1-.4.2-.4.2-.7-1 .3-.9-.5-1.2-1-.4 1.2-.6-.8-1.2 0-.7-.2.3-.6 0-1.2-.2.2-.2.5-.7.5-1.6-2.5-4-4.2-4.5-6.7-1.5.7.3-1-1.2-.7.2-1.9-1.2-2.4-1.7-4.5-5.2 5.7-11.5 10.3-18.6 14.1-1.5 9.4-4 18.9-5.7 28.9-.1.8-.3 1.9-.5 2.9 0 .2.5.5.5.5-.6 5.2-1.8 10.7-1.9 16h-.5c-.3 3-.4 6.7-.5 9.5-1 1-.4 2.4-.7 3.8-1.9-1-3.7-1-5.4-1zM389.1 8.3c-5.5.9-7.7 5.1-12.2 6.2-4 .9-8.2-1.1-11.9-.5-2.2 3-6.2 4.2-9.1 6.4 5.8-1.3 12.2-3.2 16.9-5.2-4.8 6-15.3 6.3-22.9 9.5-2 4.2-9 3.4-12.2 6.2-1 .9-1.6 3-2.4 4.5-1.6 3.1-3.2 5.9-3.1 9.5-.4.2-.4.9-1 1-.9 5.1-.7 11.2-1.4 17.4-.7 5.5-4.8 11.6-1.4 16.7-1.9 4.1-3.2 8.9-1.7 14.3 1.3-8.7 3.2-16.4 4.3-24.6 1.5-10.6 1.9-21.9 6.7-29.4 5.6-8.9 15.7-14.3 26-18.8 0 .3-.8.9-.2 1 5.2-1.7 10.5-3.9 16.2-5 2.3-.4 4.7.4 6.9 0 1.4-.3 2.4-1.7 3.8-1.9 1.8-.3 2.6.5 4.5.5.4.1.2.5 0 .7 2.3-1.1 4.8-2 7.2-3.1-4-1.5-8.6-.9-13.1 0 1.7-2.5 5.2-3.3 8.3-4.3-6.6-1-12.4 2.7-16.5 5.5 1.9-2.9 6.2-4.7 8.3-6.6zM364 174.6c-4.4-2-6.5-5.5-9.1-8.8.7-.8 1.3-1.7 2.6-1.9 2.9 2.4 2.6 5.3 6.4 6.9-.1-1.2.8-1.6 1.2-2.9-1.6-.8-3.3-1.4-4.5-2.6.5-1 1.4-1.7 2.4-2.2.5.5 1 .9 1.7 1.2.5-3 1.8-5.2 3.8-6.7 0-3 2.7-4.4 4.3-5-.6.7-.8 1.9-1 3.1.6.3 1.3-1.4 2.6-1.2 0 1.6.3 1.7.2 3.6-.9 1.4-3.3 2.4-2.4 4.8h1.2c.6-2.9 2.5-4.5 4.8-5.7-.5-2.4 1.8-3.5 3.6-4.3.4 1.7.9 3 1.4 5-.4 1-1.7 1-1.7 2.4 1.3-.9 2.2-2.3 3.8-2.9-.1 1.3.6 3.2 1.2 4.5-.4.5-1.1.7-1.2 1.4 1.5 0-.2.5 0 1.2 2.1 0 2.6 2.7 4.5 2.1-1.2.8-.1 1.9-.2 3.1-.3 2.2-2.5 3.9-2.9 5.3 5-1.2 7.4-5 11.2-7.4-3 3-5.6 6-9.3 7.9-1.3.6-2.8.6-4.1 1.2-2 .9-3.3 3.2-5.5 3.6-1.5 9.4-5.4 16.3-7.4 24.6.9.4 2.5.2 3.8.2 2.1-6.6 6.4-16.1 11.5-19.6 2.4-1.7 4.2-.1 6.4-.7.9.5 1.5 1.9 2.4 1.7-.2 1-.6 2.5.5 2.9-1.1 3.4.1 7.4-.7 11.5 12.8-2.1 20-7.8 26.7-15.5 7-8 13.5-16.8 18.4-26.5.3-2.2 1.8-4 1.7-6 .5-.4.6-1.2 1-1.7.2-1-1-.8-1-1.7 1.8-2 1.8-4.3 2.4-7.4-.4-.2-.8.7-1 0 .4-1.1.4-.8-.2-1 2.3-6.3 1.4-15 2.9-20.5-1.4-4.5.4-9 .7-13.1.3-3.9-1.2-8.1-.9-11.9.3-4.8 2.4-8.1 3.6-12.2.7-2.5 2.1-5 2.4-7.6.1-.5-.5-.7-.5-1.2s.5-1.3.5-1.9c-.1-4.4-1.2-9.3.5-13.1.1-4.2-4.4-7.5-4.3-11.9-.9-.9-1.6-2-2.1-3.1.2-.9-.3-1.1-.2-1.9-.9-2.2-2.2-2.9-3.8-4.8-.6-.8-.8-1.7-1.4-2.1-2-1.3-4.8-1-6.7-2.4 2.1-4.6 6.1-2.6 9.5-1.2 1.6.6 3.7 3.1 4.5 4.3 1.9 2.6 2 6.4 4.1 8.4.2.7-.4.7-.2 1.4 1.8 3.2 4.4 6.1 4.3 10.3-.1 2.1-1 4.1-1 6.2 0 3.5 1 7 .5 10.7-.2 1.8-1.4 3.5-1.9 5.3-.5 1.7-.8 3.5-1.4 5.3-1 2.9-2.4 5.7-2.6 9.1-.2 3.4 1.3 6.9 1.2 10.3 0 1.1-.6 2.3-.7 3.3-.4 3.7-.2 7.2-.2 11-.1 3.8-1.8 8.1-.7 11.9 2.3-6.9 5.1-13.3 9.1-19.6 1.6-2.6 3.7-5.1 4.8-8.4 1.4-4.4-.1-8.8 0-13.6 0-2.8.5-5.5.5-8.4 0-2.2-.6-4.5-.7-6.7-.2-5.1.5-9.7.5-13.8 0-2.6-.7-8.4-1.9-11-.4-.9-1.4-1.6-1.9-2.6-1-2.1-.8-4.6-1.7-6.9-1.3-3.8-6.2-5.6-8.1-8.8-7.8-3-13-10-21.2-11.7.3.7 0 2-.2 2.9-1.4.2-2.1-.1-3.6.2-1.6-1.5-3.3-3.1-5.3-4.3-4.9 3-8.3-1.2-12.9-1.4-4.3-.2-8.3 2-11.9 3.3-3.9 1.4-6.6 3.5-9.5 5.5 1.6-2 3.8-3.3 5.7-5-3.4-1.6-5.3 1-7.6 1.4-1.8.3-3.5-.3-5-.2-5 .2-10.8 3.7-16.9 4.5-.4-.1-.2-.5 0-.7-6.9 3.6-13.8 6-18.4 11.5-6.6 7.9-6.5 21.3-8.4 32.2-1.9 11.4-4.3 21.7-5.3 32.9-1.4 2.8-1.6 8.3-1 11-.7 3.5.3 10.4 1.2 14.3-3.2 15.1.8 30.7 6.7 43.7 5.4 8.6 13.4 16.4 18.1 26.5 1.9 1.5 3.7 3.9 5.7 4.5 2.7-6.5 5.5-14.2 8.1-20 .1 0 .3-.2 0-.2-2.5-.4-3.7-3.8-4.5-6.2zm-45.6-71.1c-.1 4.6 2.7 6.2 6 7.4.2-2.5.8-5.5 0-8.4-2.5-.4-4.5-.1-6 1zm145.8 16c-.1-3.4-2.3-4.6-5.7-4.8-2.3 3.2-4 6.9-5.3 11.2 5 3.4 11.1-.9 11-6.4zm-16.4 18.4c.8-2.2 1.9-4.2 1.2-6.7-.2 2.3-1.1 4.7-1.2 6.7zm-131.3 18.3c-2 6.9-1.4 16.6-8.8 19.1.2-1.8.7-3.3 1-5-1.5.6-3.4 2.8-5.3 3.8-4.3 9-10.8 15.9-17.2 22.9 2.3 1 3.1 2.6 4.8 3.3-.2-.1.6-.2 1 0 .7.4 2 .5 2.4 1.4 1.1-.4 3.4.5 4.5 1.7 1.6-2 4.2-1 6.4-1.9.9-.4 1.6-1.3 2.4-1.7 7-3.3 17-6.2 25.5-4.3.8-5 2.8-11.3 3.1-16.7-6.2-8.8-9.6-19.5-11-31.7-.3 0-.5-.1-.7-.2-1.6 4.2-5.2 6.4-8.1 9.3zM467.3 181c-1.5-4.1-2.6-5.2-5.3-8.3.1 0 .3-.2 0-.2-.1.1-1.7-1.2-2.1-1.9-.7-1.1-.6-.9-1.4-1.7-.6-.5-.9-1.6-1.4-2.1-.2-.2-.7-.3-1-.5-1-.8-1.5-2-2.4-3.1-.7-.9-1.1-2.5-1.4-1.4-1.9-2.4-2.9-5.5-5.5-7.2-3.1 10.2-2.9 22.5-4.5 32.9-1 1.1-2 2.3-3.6 2.9.1-5.6 2-12.7 1.4-17.9-11.3 22.6-27.6 40.4-38.2 63.7 1.3 1.6-2.1 3.5-1.9 4.8 7.6-1.2 16.7 4.2 22 8.1.2-.4.4-.8 1.2-.7 1.2.9 2.3 1.8 3.8 2.4 7.4-9.2 19.3-12.8 30.1-16.7-1.2-1.5-2.4-4-3.6-4.8-2.3-4.2-3.1-6.8-5.7-10.3 0-.3.4-.5 0-.7-.6-1.9-2.9-5-2.4-7.4.7-3 4.4-4.9 6.2-6.9.2.7.7.4 1 0 1.8 1.3 6 .6 8.1.7.2.9 2 1.8 2.4 1-.1.5 0 .9.2 1.2 1.1.3 1.9 0 2.9.5.1 0-.3.5-.2.5.3.2.9-.2 1.2 0-.1 0-.2 1.1.5.5.5-.5.8.3 1.4.5.9.2 1.9-.1 2.6.7-1.1-3.9-1-7.8-2.9-11 0-.3.4-.2.5-.5-1.9-4.5.3-11.7-1.2-16.9-.5-.2-.7.2-.8-.2zm-89.5-20.7c0-.8.3-1.3 1-1.4-.2-.4-.1-1.2-.5-1.4-.4.6-1.4 2.1-.5 2.8zm-9.5.7c.2 1.1 0 1 .5 1.7-.6 1-1.8 1.6-2.4 2.6 2.6 1 2.7-4.1 4.8-5.3-.5 0-.2-.8-.7-.7-.4.9-1.5 1.1-2.2 1.7zm11.7 2.1c1.2-.4 1.6.7 2.2.2 0-1 .1-2.2-.5-2.6 0 1.4-1.5 1.3-1.7 2.4zm-2.2-1.6c-.1.6-1 .6-1 1.4h1.2c-.4-.3.5-2.3-.5-1.7.3.1.4.1.3.3zm43.2 26.9c-6.9 6.8-14.6 12.6-25.8 15-2.4 15.3-6.3 27.9-9.8 43 2.3-1.9 6.6-3.9 10.7-4.8 10.7-23.6 26.7-41.8 38.7-64.2.9-4.3 3.1-8 4.1-11.9-5 8.4-11.1 16.2-17.9 22.9zm-53.9-19.3c-.2 4.7 2.7 6.4 5 8.6-4.7 6.8-6.6 16.5-10.7 23.9 3.1 1.1 6 2.5 8.6 2.9 2.1-7.8 6-15 6.4-23.6.9-1.3 1.8-2.7 3.1-3.6 2.6-.3 5.4-1.9 7.2-3.8 0-1-.5-1.4-.5-2.4-4.1-4-8.8-4.2-15.5-4.5.1.9-2.1 2.5-3.6 2.5zm-79.2 12.4c-2.3 1.9-5.2 1.9-7.6 3.1-8.8 4.2-14.8 11.8-20.3 19.1-2 2.6-4.3 5.2-6 7.9-4 6.6-6.6 14-11 20.5-12.1 17.9-28.4 31.6-37.2 52.7-2.2 11.4-7.8 20.6-9.5 31.5-1.1 2.4-1.6 5.3-1 7.9-.7 0-.2 1.2-1 1.2.1 5.7-1.9 12.1-.7 16.9-.1 6 1.3 13.9 1.7 20.5 1.2 2.2 1.7 5.2 1.4 7.4.7.8 1.1 2.4.9 3.8.3.1.5.3.7.5 0 2.2.6 4.6 1.9 6.4.3 1.8.9 2.9 1.9 3.6.2 2.5 2.3 3.8 3.8 7.2.8.3.2-.8 1-.5-.4 1 .6 3.1.7 1.4.4.7.5.6.2 1.7.5.3.9-.6 1 0 .1.6 1.6 2.8 1.4 2.6.1.1 1 .1 1 0 .4.5.4 1.8 1 2.4.4.4 1.3.3 1.7.7.7.9 1 .8 1.7 1.9 3.8 1.2 5.4 2.5 9.1 3.8.7-1 2.1.7 3.3 1 2.1.5 3.8-.2 4.8.7.8.3.2-.8 1-.5 8.3 2.2 21.9.4 30.8-4.1 4.7-.3 8.5-3.9 12.4-6.2 3.2-1.9 6.6-3.3 8.1-6.4-1.8-5-1.8-8.2-2.9-12.9.9-1.3.1-3.6.2-5.2 1.9-19 13.7-32.5 27.2-41.8-2.3-.3-3.4-2.9-5.5-2.6-.3-1.6-2-3.1-3.1-2.6.1-.7-.5-.9 0-1.4-1.9.3-2.4-2.3-4.1-2.9-1.7-3.4-5.7-4.6-8.8-7.6-3.8 4.2-8.8 6.6-13.1 10.3-3.4 2.9-6.4 7.3-9.8 11-2.3 2.4-5.3 4.1-7.4 6.4-2.8 3.1-4.1 7.8-8.1 9.8 2.4-5.9 6.7-10.6 10.7-14.6 1.4-1.4 2.9-2.8 3.8-4.3-2.2.4-5.3 1.1-7.9 1.7-2.2 1.7-5.8 2.2-8.4 3.6-3.1.1-7.4 2.9-10.3 3.8 2.6-7 9.2-9 15.3-11 .7-.3 1.3-1 2.1-1.2 1.1-.2 3.1-.7 5-1.4 1.2-.4 2.6-1 3.3-1.9-3.3-3.8-7.7-6.5-11-10-.2 1.2-.7-.7-1.2-.7-.1.3-.3.4-.5.5-.3-.9-1.5-1.2-2.4-1.4-1-.3-2.5-.8-2.4-.7-1.2-.3-3.3-.2-4.8-1.2 0 .4-.2.6-.5.7-.4-1.1-1.3-.6-2.4-1.2.9-2.8 3.1-6.6 5.7-7.4 1.1-.3 2.8.7 4.1 1 1.3.3 3.1.1 4.5.5.6.1 1.1.8 1.7 1 1.5.5 3 .6 3.6 1.2.2-.8.1 0 1.2 0 1.3 2.4 3.9 2.7 5.3 5.3 1-.2.8.8 1.9.5 2.3 3 4.7 6 6.9 9.1 4.3-3.6 9.3-8 14.6-11.9 4-3 7.4-6.5 8.8-11.2-.6-4.1 2.5-7.1 4.8-10.3-1.5-1.9-2.5-4-4.1-5.3-.5-.4-2.4-1.4-3.1-1.7-3.3-1.1-6.9 0-10 0-7.2 0-15.6 1.2-20.5-4.1 2.6-9.3 14.6-12.4 24.6-13.1-3-5.6-8.4-7.2-12.9-11.2-2.6-3.9-5.7-9.2-3.8-14.1 2.1-5.6 10.2-10.7 15.3-12.7 2.1-5.5 4.8-11.7 6.4-16.9-2.4.8-5-.5-6.9-1.9 0 .4-.2.6-.7.5-.1-1.1-1.1-1.2-1.7-.7-1.6-1.3-3.4-2.6-4.5-2.9-.7-2.9 2.8-5.8 5-8.3 5.2-5.8 11.8-12.6 14.1-18.9-3.2 1.9-7.1 3-10.5 3.6zm50.1 66.6c-.3.1-.8 1-.2 1.2.4-.6.7-1.3 1.2-1.9-1.3-1.1-2.5-2.5-3.6-3.8-2.1.1-3.2-.2-4.8-.2-4.9-8.5 9.8-24 13.1-11.2 1.3-4.9 3.5-8.9 5.2-13.4-.8-2.2-3.4-1-5.2-2.1-2.5-6.9 7.3-15.2 10.7-13.4-1-1.1-2.3-2-3.3-3.1-3.4-6.5-7.4-12.5-12.2-17.7-.8 5.4-2.1 8.8-2.9 14.1 3 1 8.3 2.9 6.7 6.7-2.1 4.9-9.2 7.5-14.1 8.4 2.7 2 6.6 3.7 6 7.4-.6 3.2-5.4 7.5-9.5 7.4-1.2 0-2.2-1-3.3-.2 2.8 9.3 6.2 17.9 16.2 21.8zm46.8-55.8c-2.4 3.5-3.6 9.4-4.8 12.6 3.4-.7 7.8-.6 10-1.9-.8-3.2.2-5.1-.5-8.4-.8-.2-1.2-.9-1.4-1.7-1.3-.1-1.7-.3-3.3-.6zm-75.2 9.5c4.5 1.9 10.3 4 15.3 6.9.1-.9 1.1-.8 1.7-1.2 4.2.9 9.8-.6 13.4-2.4-1.3-1.9-2.9-3.7-6.2-4.3-.8.4-1 1.2-2.1 1.2.1-.7.4-1.2.5-1.9-6.4-2.3-15.6-1.5-22.6 1.7zm48.2 4.5c-.2-.7.4-.7.2-1.4-.8.3-.2-.8-1-.5.3.7.2 1.7.8 1.9zm-32.2 8.9c-4.6-2.1-8.4-6.2-13.1-6.7-3.3-2.4-10.4-4.9-15.8-1.7-2.7 6.3-5.4 14.3-7.9 19.3 3.3-1.5 8-3.1 12.2-2.4 2.1-3.1 3.8-7.5 7.4-8.3 2-.5 4.3 1 6.4 1.9 5.2 2.2 10.6 6.5 16.7 4.8-.2-4-4.2-4.3-5.9-6.9zm32-5.3c1.3 1.1 2.1 2.6 3.6 3.6 1.2-1.1 4.1-2.9 6.2-1 .4-1.6 1.1-2.9 1.4-4.5-2.7-.1-6.2-1.4-8.8-2.4-.1 2.3-1.8 2.7-2.4 4.3zm10.9 103.4c-.4.4.7-2.1 0-2.9 1.3-5.3 2.2-10.1 2.4-14.6 1.2-2.8 1.8-7 1.7-9.8 1.5-3.6 1.8-11 2.4-12.7.5-1.4.3-1.2.2-2.4 0-.6.6-1 .7-1.7 1.4-6.8 3-14.8 4.8-22.9 1.4-7.2 4.2-13 5-20.8 2.1-5.6 2.3-13.1 4.1-20-3.2 1.2-6.7 1.6-10.3 1.9-1.5 1.8-.9 3.8-2.1 5.3-3.3 19.2-11.7 39.2-17.7 59.4-9.8 17.3-15.1 39-27 54.2 2 .2 3.6-.5 5.7-.7 1.3-.1 1.8.3 2.6.2.4 0 .8-.4 1.2-.5 1.3-.1 3.1.6 5 .5 2.2-.2 4.2-.4 5.7-.2.5 0 1-.5 1.2-.5 1.1.1 3.4 1.4 3.3.2 2.3.4 7.6 1.6 10.5 2.4-.1-3.7.8-10.9.6-14.4zm-14.3-103.9c.2-2.6-5.8-3.8-7.4-1.4-1.4 2-.4 5.2 2.1 5.5.6.1 1.3-.7 2.1-.2.7-1.8 3.1-2.2 3.2-3.9zm16.7-1.1c-.8 2-2.2 3.3-3.1 5.3 4.1 4.7 1.6 14.3-2.1 17.9.5 1 1 2 2.1 2.4.9-8.8 5.2-16.7 6.4-25.5-.7 0-1.9-.1-3.3-.1zm-19.3 5.9c2.1 2.8 5 4.9 7.4 7.4-.4.5-.8.7-.5 1.4.9.5 1.4 1.5 2.4 1.9.5-6.5-5.3-8.5-7.9-12.7-.3.9-1.3 1-1.4 2zm6 14.6c-1.7-.2-1.6-2.1-3.1-2.9-1.8 5.1-4.2 9.6-6.2 14.6 1.3 1.1 2.4 2.4 4.1 3.1.6-1.7 2.6-2.7 4.3-2.6 1-5.4 2.8-9.9 8.6-10.5 2.5-4.2 2.1-13-2.1-14.1 3.5 4.2-2.5 12.7-5.6 12.4zm-55.2-4.8c0-.1 0-.3.2-.2 3.7 2.4 9.7 3.1 11.5 7.9 1.4 3.8-2.6 8-5.5 9.3-2.3 1-5.4.3-7.9 1.4-2.1-.2-4.5-.8-6.9-.7-4.2.1-6.7 2.6-9.1 3.8 2.1-3.3 4.7-6.1 8.6-7.2 5.6-1.5 12.8 1.3 17.9-1-.2-4.1-4.2-5.6-6.4-6.9-2.6-1.5-4.3-2.8-7.2-3.1-3.9-.5-5.9.7-8.4 1.4-5.3 1.6-10.5 3.9-14.1 6.9-2.2 3.5.4 7.7 1 10.7 2.2 4.7 11.6 8.1 14.8 12.9 2.5 3.7-1.2 7.7-4.5 9.3.1-.3.4-.5-.2-.5-6.4 1.3-14 1.6-19.1 6 6.7 9.3 27.8-1 35.1 7.2 4.2 6.7 8.4 11.8 15.8 15.3 4-7.9 8.4-15.4 10.7-24.8-.9-.1-.9-1-1.7-1.2-2.5 1.3-5.4.4-6.2-1.2-3.6-7.2 10.7-20.3 12.9-8.3 1.2-2.2 1.7-4.9 2.6-7.4-1.2-.1-1.5-1.1-2.9-1 .3-.6.6-.9.2-1.7-4.3-.7-6.2-3.8-8.8-6.2-3.5-6.2-6.2-12.4-6.4-20.3-5.6-2.1-7.1-4.5-13.4-5.3-.7 1.6-2.2 3.8-2.6 4.9zm42.8 10.7c-.5.5-.8 1.1-1.2 1.7 1.1.7 2.1 1.6 2.9 2.6 2.6-4.8 5.2-9.6 6.4-15.8-1-1.1-2.1-2.2-3.3-3.1-1.5 5-4.5 9.5-4.8 14.6zm-11-3.5c-1.6 2.2-2.5 7.8.7 8.6 1.5.4 2.8-.5 4.3-.5 3.1-3.2-.1-9.5-5-8.1zm30.8 10.9c0-2 1.7-3.5 1.4-5-.5.6-.8 1.3-1.7 1.4-1.1-1.7-2-2.8-3.8-4.1-3.6 3.8 2.8 6 4.1 7.7zm-25.6-1.4c3.4 3.6 7.3 6.7 11 10 .2.6.2 1.6 1.2 1.4 1.6-3.5-3.2-4.2-6-6.9-.8-.8-.9-1.9-2.1-1.9-.7-1.7-2.3-2.6-3.3-4.1-.2.7-.8.8-.8 1.5zm55.6 4.5c-2.8-.1-7.4 1.7-10 3.3-.8 3.2-1 5-1.9 8.3 3.9-.3 7.4-1.9 11.5-2.9 5.4 4.5 10.6 7.2 17.7 9.5 2.3-3.5 5.1-6.5 7.2-10.3-6.9-4.3-15.3-10.4-24.5-7.9zm-43.4 9.1c2.3 2 4.6 3.9 7.4 4.8.3-2.2 1.3-3.8 1.9-5.7-1.1.1-1.3-.7-1.4-1.7-.4-.1-.5.3-1 .2-.3-1.1-1.1-1.7-1.7-2.6.4-.5.7-1.1 1-1.7-1-1-1.8-2.2-3.3-2.6 2.2 4-1.6 6.6-2.9 9.3zm-16.2 8.1c1.4.6 2.6 1.4 3.6 2.4 1.6-4.4 2.8-9.1 4.5-13.4-.9-1.1-2.4-1.7-3.3-2.9-1.7 4.6-3.3 9.3-4.8 13.9zm9.5-9.5c-1.3 4.4-3 8.3-3.8 13.1 1.7 1 3.2 3.5 5.5 2.4 2.3 4.1-1.7 8.8-4.8 10.5 1.2 2.4 4.5 2.6 6.9 2.9.2-1.3 1.9-2.7 2.1-4.5.2-1-.5-2.1-.2-3.1.3-1.2 1.4-1.7 1.4-2.6.2-3.4-3.4-4.8-6.7-5 1.9-5.6 4.9-10.8-.4-13.7zm68 11.4c.9.1 1.2 1.1.7 1.9 2 .3 3.3 1.3 4.5 2.4 2.1-4.7 6.4-7.3 7.6-12.9-1.9-.5-3.3-1.6-4.8-2.6-2.7 3.6-5.4 7.4-8 11.2zm-22.2-6.4c-2.6.8-4.9 2-7.9 2.4-1.3 1.8-1.4 5.8-1.7 7.2 3.1-.9 6-3 9.1-4.5 1.6-.8 3.5-1.1 4.8-2.4-2.1-.7-2.2-2-4.3-2.7zm27.5 12.6c1.7 1 3.2 2.2 4.3 3.8-.8 1.5-1.8 2.8-3.3 3.6-7.1-6.6-16.8-11.8-26.3-13.6-4.3 1.7-8.3 3.8-12.2 6-.8 4-1.6 9.7-2.4 14.6 5.8-1.2 10.5-4.7 15.7-7.2 3 2.8 6 5 9.3 6.9.3.4.8.6.7 1.4 3.3.4 5.6-.9 8.8-.2-1 1.4-1.8 3.1-3.3 3.6-.8.2-1.8 0-2.6 0-9.7.5-21.2 1.2-30.3 4.3.4 2.3-1.6 5-.7 7.6 10.1-3.1 22.4-4.7 33.4-3.3-.7 1.5-1.9 2.6-3.1 3.6-11.2-.9-21.2.2-31.3 2.9 0 2.7-.4 5-.2 8.1 3.2.2 6.9-1.3 10.7-1.2 4.6.1 9.4 2.4 12.4 0-.5.9.2.5.5 1.2 1.3.2 1.6-.6 2.6-.7 3.3 2.7 10.6-2 14.8-1.4-1.6 4.5-7.1 4-11.9 5.5 2.1 2.2 3.5 6.3 6.7 6.7.4 1.8 2.3 2.4 4.1 3.6-.1 1 .6.3.7.7.7 4 1.5 5.1 2.6 8.8.6.8 2.4 1.2 1.9 2.4 1.6-.2 1.4 1.4 2.1 2.1 2.1.9 3.4 2.6 5.7 3.3.1 2.3 3.4 2.3 2.9 3.8.6.1.9 0 1.2-.2 1.9 2.2 3.7 3 5.7 3.8.3 1.2 1.7 1.4 2.4 1.4 0 .4-.1.9.2 1 1.5.6 4 2.1 5.7 3.8.5.1.5-.3.7-.5-.1 1.8 2.1 1.4 2.6 2.6 5.2-9.7 9.4-20.3 14.6-30.1-2.2-.6-3.1-2.3-4.5-3.3-2-1.4-4.1-2.2-6.2-3.3-.9-.5-1-1.2-1.9-2.1-1.2-1.2-3.2-2.9-4.3-4.3-1.7-2-3-3.7-3.1-7.2-.1-3.4.3-7.5 0-11.5-.4-5.1-.4-8.7-1.4-13.6-.7-3.5-2.2-7.3-2.9-11-1.8-2.4-3.6-4.7-4.8-7.6-3.3-1.8-4.6-5.5-8.4-6.9-2.5 4-5.6 7.7-7.9 12.1zm-94.3-9.7c-1.6 4.1 1.5 7.9 6 6.2 1.2-4.2-2.3-9.3-6-6.2zm25.5 2.1c2.3-.3 4.1.9 5 2.6.2-1.1 1-1.6 1.2-2.6-2.2-.7-3.9-2-5.7-3.1-.3.8-.5 1.8-.5 3.1zm-18.3 4.1c.8 1.6 2.7 2.2 3.6 3.8 3.4 1.1 5.4 4.9 9.5 4.5 0-.9 0-1.8-.2-2.4-5-.3-7.6-5.1-12.4-6.9-.1.5-.7.3-.5 1zm23.8-.3c0 .4.2.8.5 1 .1-.4.9-1.1.2-1.4.3.8-.3.8-.7.4zm-23.4 46.1c.9-2 .1-.1-1.2.2-1.1-.9-1.6-1.4-2.1-2.9-2.2-5.3-.9-10.9 1.2-16.9 1.7-4.9 5.1-11.9 6.4-16-2.5-1-3.6-2.4-5.7-3.6-2.1 9.1-8.9 17.3-12.6 26.3-2.9 7.1-6.7 23.8 1.9 24.6-.1 1.5.9.5 1.2 1-.4.4.3.7.5 1.2.1-1.3.8-.3 1.2 0 3.2-4 7-9 9.2-13.9zm1.7-3.6c5.5-6.8 9.2-15.5 13.4-23.6-4.7.5-10.7-2.3-8.8-7.4h-.7c-2.6 9.6-11.2 21.9-3.9 31zm57.1-27.7c-3.6 2.8-7.9 4.8-12.6 6.4 0 1-.8 2.4-.2 3.1 5.2-2.6 12.2-3.4 18.9-4.5-1.7-2.1-4-3.4-6.1-5zm56.8 23.4c0 4.8 2.9 6.7 5 9.8h.7c3.2 4.8 9.4 6.6 13.6 10.5 2.5-5.5 6.1-10 11-13.1.3 1 .5.9 1.7.7-.6.6.6.6 0 1.2 1.9-.2 2.7 1.1 4.1 1.9 2-8.5 2.2-19.5 2.9-28.4-3.4-2.1-7.2 1.1-9.8 0-2.9 1.2-5.8.6-8.6 1.2.2-.6-.5-.5-.7-.7-.2.3-.6.5-1 .7-1.6-.7-3.2-.6-4.8-.5-.3-.8-2.2-1.1-3.1-.5-.1-.6-.9-.5-1.7-1-1.1.5-3.6 0-5.7-.2-1.2.4-2.2-.1-4.1-.2-.3 6 .5 13 .5 18.6zm-151.6 1.7c.5.3 1.1.7 1.4 0 2.8 3.4 5.8 4 7.9 8.4 1.3-.1 2 .6 2.1 1.7.5.3.9-.6 1 0 1 2 1.9 1.3 3.1 3.1.3-7 1.9-13.2 4.5-18.9-4.5-2.1-9.3-5.5-12.6-9.5-1 6.5-5.2 9.8-7.4 15.2zm49.9 26.7c-.5-.1-2-.5-2.2-.2.1 0 .3.2 0 .2-5.9-.1-10.5-.3-16 .7-2.4-.8-4.9.6-7.2 1-6.1.9-12.2.5-17.2 5-.3-.6.5-1.2 0-1.2-6.9 4.8-12.5 12.3-13.4 22-.5 6.1-1.3 11.4 0 16.5.1-.2 0-.5.2-.5.1 1.6 1.8 8.4 2.6 9.5.3.4.5-.1.7.2.4.8.6 3.5 1.4 2.6-.2.7-.2.7 0 1.4h1c.8 4 6.2 7 9.1 9.5 0-.3 0-.7.2-.7.5 1.4 1.5 2.4 2.6 3.1-.1 0 .1-.6.2-.5.7.4.6.6 1.4 1 1.3.6 1.8 2.2 3.3 1.7-.2.7-.2.5 0 1.2.4 0 .7-.1 1-.2 3.1 2.9 6.7 3.1 9.8 5.5.4.1.5-.3 1-.2.4 1.3 1.5 1.2 2.6 1 .4 1.4 1.1 1 2.1 1.7 0-.3 0-.7.2-.7 0 .5.6.3.5 1 3.8.1 7 2.5 10.5 2.1.9 1 1.6 1.2 3.3 1 0 .3 0 .7.2.7 2.6 0 10 1.6 12.4.2.3.1.6.4.9.5 2.3-1.5 6.3-.5 8.8-2.2.9.3 3-.1 3.6-.9 3.1-.2 7.4-2.2 11.2-5.3 4.2-3.3 9.3-7.5 9.3-14.1.7-4.5 1.7-10.5 1.7-15 0-1-.7-2.1-.7-2.9 0-.1.3-1.2.2-1.9-.4-3.3-.1-8.8-1.2-11.9 0-.1-.6-.2-.7-.5-.9-2.3-1.8-3.7-2.6-5.3 0 .3-.4.3-.7.2.1-.4.4-.6.5-1-1.5-1.1-2.5-2.4-2.9-4.1-.4 0-.7 0-1 .2-.4-1.6-1.6-2.6-2.6-3.6.3 0 .4.3.5 0-2-1.6-4.6-3.8-6-6.7-1.8-.4-2.3-.9-3.8-2.1-.6-.4-1.3-.8-1.7-1.2-.6-.6-1.8-1.5-1.7-1.9-3.4-.3-5.1-3.6-8.8-3.3-.3-.1 0-.9-.5-1-1.8.5-4.8-1.4-7.4-.5 0-.3 0-.7-.2-.7-.2.9-1 .2-1.4 0-.2 1.5-3.8-.9-3.1.6z"/><path class="st0" d="M362.3 111.8c-2.5 4.7-13 2.5-16.9 0 .5-.9 1.2-1.6 2.1-2.1.8.4 1.8.6 2.6 1 0-1.4-.1-4.2 1.2-5-5.4.5-9.5 2.3-12.2 5.5-1.5.1-4.3-.3-5.5 0 1.6-2.7 6.2.4 7.6-2.4 0-.7-.6.6-.5-.5 3.6-2.9 8.6-4.6 13.6-4.8 7.1-.3 12.2 3.1 15.8 7.9-.3 1.1-1.5 1.3-2.1 2.2-2.1-1.6-3.6-3.8-5.7-5.5-1 1.7-2.5 2.9-3.8 4.3.9-.1 3.1 0 3.8-.6zm-5.9-4.7c0-.3.7-.3.7 0 .1 1-1 .9-.9 1.9 1.1.8 1.4-.9 2.4-1 .3.2.1.9.7.7.4-.6.7-1.3 1.2-1.9-1.5-.2-2.3-1-4.1-1 .3.7-.6 1.2 0 1.3zm-7.7 14.3c-.1 1.4-1.4 1-2.1 1-2.5-.3-6.2-3.1-7.6-4.5-1.4.4-3.3.2-4.3 1 .2-1.3 3.8-2.2 5.3-1.9 2 .3 5.6 4.9 8.7 4.4zm-1.4 224.3c.4-.2.1-.5-.2-.5 2.1 1.1 6 1.2 10 2.9.4.2.6.8 1 1-.2-.1 2.3 0 2.9.2 1.3.5 2.2 2 3.6 1.4 0 .7.7.6.7 1.2.2-.2.5-.3 1-.2 1.8 2.6 6.1 3.8 7.6 6.7 1.5-.4 1 1.3 2.4 1-.1.9-.3 1.1.2 1.7.4.1.4-.2.5-.5.8.3.7 1.4.5 1.7.6.1 1.1.3 1.2 1.4.2-.1.4-.2.5-.5.4.7 1.2 1.8 1.2 2.1.2 2.9-4.5 7.7-6.9 7.4.2-.6-.6-1.2-.7-2.1-.8-.2-.6 0-1.4-.2.3-1.4-1.3-2.2-1.7-2.1-.4-.9-1.2-2.1-2.1-1.7-1.3-2.7-3.7-2.7-5.2-5-.2 0-.2.3-.2.5-1-1.7-3.5-2.6-4.3-3.8-.8 1.1-1.2-1-2.1-.2.1-.7-3.7-1.7-4.8-1.7v-.7c-1.2.1-1.7.1-2.1-.7-.5-.1-.5.3-.5.7-1.4-1.4-3.1-2-5.2-1.7-1.2-1-1.7-.9-3.8-1-1.1-2-4.5-.3-5.7-2.1-2.4.3-4.7-.3-6.9 0-1.2.2-2.3.8-3.3 1-.2 0-.4-.5-.5-.5-.9 0-3.2.8-4.8 1.2-2.3.6-3.8 1-5.3 2.1-5.8 1.3-8.3 5.9-8.4 12.9-1.9 2.9-3.3 6.2-6.7 7.6 2.2-17.8 15.5-29.1 30.5-30.8.2-.2.4-.4.5-.7 4.3.3 9.2-1.1 12.4.5.3-.1.6-.4.2-.5 1.6 1.2 3.5.7 5.9 2zm11.7 89.5c3.7 6.3-4.3 14.6-9.3 11.5-.3-1.6-.4-1.9-.2-3.8-2.9-1.1-6.2-.3-9.8-1.2.8-1.7 2-2.9 3.3-4.1 2 .6 5.2 1.5 6.4 1 2-.8 2.6-4.2 5-4.5 1.5-.3 2.3 1 4.6 1.1zm-2.4 8.6c1.4-3.5-2.2-6.3-4.3-5.5.1 2 .1 5.9 4.3 5.5z"/><path class="st0" d="M345.6 88.9c2.1 4.2 9 3 12.6 4.8.6.6-.3.7-.2 1.4 1.6.3 2.2.4 3.6.5.3.9-.6.7-.5 1.4 4.8 1.2 7 3.8 11.7 4.8.1.8-1.1.8-.5 1.4 2.7 2.1 3.4 3.8 3.1 8.8-.3 5.2-1.6 12.3-4.3 16-2.8 3.9-10.8 7.1-10.3 11.2.5 4 8.9 1.8 10.3 6.2 2.8 1.9 7.1 2.8 11.2 1.7 2.3-.6 4-2.4 6.4-2.6 1.9-.2 3.4 1 5.5.2.4-1.6-.8-1.7-.7-3.1.5-1.1 1.3-1.7 2.6-1.9 2 3.1-2 7.1-5.7 7.4-1 .1-3.6-.6-4.3-.5-1.8.3-3.6 2-5.7 2.6-3 .9-8.9.7-11.2-1.2-.6-.5-1.2-1.9-2.4-2.6-3.7-2.3-10.1-.7-8.1-6 1.4-3.6 6.4-6.6 9.3-9.1 3.1-2.6 6.3-16.6 4.8-21.2-.6-1.8-1.9-2.2-3.3-4.1-2.6-.4-6.5-2.6-8.6-3.6-5.5.9-9.5-3.7-14.3-4.3-3.2-.4-5.9 1.5-9.8 1.9 1.5-3 4.7-4.3 7.2-6.4-.6-1.4 1.3-2.2 1.6-3.7zm20.6 64.9c-4.2 1.6-3.7 7.8-8.1 8.3 1.4-4.5 4.7-7.1 8.4-9.3.6 1.1 1.5-1 2.9-1.2-.3.9-.6 1.8-.5 3.1-3.3 2.5-3.4 6.7-7.2 8.6-.1-4 4-5.6 4.5-9.5zm21.7-3.1c-.1 1.7 1.4 1.8 1.4 3.3.8-.8 1.5-1.6 2.6-2.1.8.2.9 1.1 1.9 1.2.5-1-1.5-1.2-1.7-2.1.2-1.3 1.4-1.7 2.1-2.4 1.5 2.3 4.6 3 6.4 5 .6-.2.9-.7 1.4-1 2.4 2.3 7.8 2.6 7.4 6.9-.3.2-.6.3-1.2.2.9 1.9-.5 3-2.1 3.6.4.4.3 1.3.7 1.7-.4 1.2-1.4 1.8-2.4 2.4-.4-1.4-1-2.5-1.4-3.8-1.1.1-.9 1.5-2.4 1.2-1-2.1-.8-4.9-1.9-6.4-.5.1-.8.5-1.2.7-.1.9 1 .7 1 1.7-1.4 2.1-2.6 4.4-5.3 5.3-1-.9-.8-2.7 0-3.6-.5-1.2-.8-1.4-1.4-2.6 1-1.4 2-3 3.1-4.3.1-.6-.7-.3-.7-.7-1.2.6-2.7 3.2-4.5 1.7-1.1.9-2.1 1.9-3.3 2.6 0-1.7-2.3-2.9-2.4-4.5 0-2 1.8-3.4 3.9-4zm14.8 10.8c.5-.6 1.3-2 2.4-1.2-.6-1 .3-1.3.5-2.1-1.4.5-2.9 2.2-2.9 3.3z"/><path class="st1" d="M86 340.8c-1.1-.4-2.4-.5-3.6-1.2-2.4-1.4-2.3-5.5-6-6h-2.2c-1.4.3-2.8.6-4.3 1.7-1.2.8-2.6 2.9-3.8 3.2-.8.2-1.8-.1-2.5-.1-4.7 0-7.9 2.7-9.8 6-.4.7-.6 1.8-.9 2.5v2.3c1.1 3.5 2.3 6.8 3.4 10.3 1.1 3.4 2.8 6.5 3.8 9.9 1.6 5.3 2.6 11.1 4.1 16.6.5 1.7 1 4.5 2.3 4.6 2 .1 1.8-5.1 1.9-7 .1-3.1-.2-6.2 0-8.9.2-2.1.9-5.7 2.8-5.7 1.8 0 2.6 3 3.2 4.6 1.5 4.2 2.5 7.8 3.7 11.8.5 1.8.5 4.8 3.3 4.5.6-1.2.2-2.6.3-4 0-4.5.9-9.7 1.9-14.6 1-4.7 1.9-9.5 3.7-12.9.8-1.4 2-2.4 2.5-3.8 1.2-3.1 1.2-8.9-.4-11.3-.7-1.2-2.2-2-3.4-2.5zm.9 13.9c-.6 1-1.8 1.5-2 2.4-1.1 3.5-.5 6.5-3.1 8.4-.5.4-2.7.8-2.5 1.8.2 1.4 2.2.1 3.1-.1-.6 4.4-1 9.8-1.3 14.9-.1 1.6.3 3.5-.8 4.6-1.3-.5-1.3-2.4-1.5-3.8-.7-4.2-1.1-11.8-3.6-14.3-2-1.9-6.9-1.7-7.4 1.5-.8 6 1.2 14.5-1.1 19-1-1.5-.9-3.7-1.2-5.6-.6-5.8-1.6-12.1-3.8-16.3.7.1 1.1-.1 1.3-.5-.9-3.3-3.7-5.2-5-8.4-.6-1.6-1.2-3.3-1.8-5-.9-2.3-1.9-4.6-1.4-7.8.4-2.9 3.5-5.8 7-5.9 1.8 0 3.2.9 5.3.3 1.7-.6 2.5-3.2 4.1-4.2 1.9-1.2 5-1 6.5.3 1.8 1.4 1.8 4 3.6 5.3 2.3 1.7 6.2.8 7.4 3.4 1.2 2.9-.4 7.8-1.8 10z"/><path class="st1" d="M78 341.2c-3.3-.2-5.2.9-6.9 2.3-1.3-1.1-3-1.9-5-2.4 1.2 1.1 3 1.5 3.3 3.6-3.8 0-5.3 2.1-6 5.2.5.1.8-.5 1.1-.8 1.2-1.1 3-2.5 4.8-2.7 2.8-.3 5 2.1 6.4 3.4.4.4.7 1.1 1.3 1-.4-3.1-2.7-4.2-4.2-6.1.9-2 3.3-2.5 5.2-3.5zm8.2-68.4c-.4 1.1 1.7 2.1 2.7 3.1 3.8 3.6 7.7 7.9 11.3 10.9-2.8-4.9-9.5-9.4-14-14zm-54.4 43.4c.7 2.5 5.3 1.5 6.6.4-2.1-.2-5.1.4-6.6-.4zm28.2-8.5zm-23.1 33.9c.6.2 2-.5 2 .4-3.1.8-7.5 6.7-5.9 11-.1-1.3-.1-3.2 1.2-2-.7-3.1 1.8-5.9 3.5-7.8-3.8 3.5-2.2 12.4-8.6 13.3-.7.9-1.2 2-2.3 2.3-5.1-.2-6.4-1.4-7.8-3.9 2.3-1.2 3.2-1.6 6.3-1.6v-3.5c-.8-1.1-3.2-.7-3.5-2.3 2.7-.4 3.1.9 5.1-.8 0 .5-.2.9-.4 1.2 3.4-1.3 5.5-5.5 7.8-7.8 7.5-7.5 17.8-14.2 21.5-26.6 1.1 1.1-.6 5 1.2 5.5 1-2.4.3-6.2-1.2-7.4 2.4-6.6 1.2-18.8 10.9-16.8-6.5-.3-6.5 7.5-6.6 13 .4-7.7 3.1-15.1 11.7-11.9-.5.1-1.1-.1-1.2.4 1.5.1 3-.9 1.6.4 2.5.3 2.6-.2 5.1.4-.6-.2.3 1 1.2 1.2 1.1.3 3.5.8 4.7 0 .1 1.1 4.4 5.7 5.5 3.5-1.1.5-2.3.3-2.7-.8.5-.1.2-.4 0-.8 1 .1 1.6-.2 2-.8-.5-1-1.2.7-1.6-.4 1.3.3.5-1.3 1.6-1.2 2.1 1.1 0 2.6 2 3.9.9-1.7.2-3.7-1.2-4.3-2-.4-2.2.9-3.9.8-7.1-1.3-13.4-7.1-19.9-6.3-8 1.1-7.3 10.9-9.8 18.8-1-.6-2.9-2.3-3.9-1.6 1.3.9 3.5.9 4.3 2.3-.4 1.4-1.5-.1-2 .8 1-.1 1.2.6 1.6 1.2-2.7 6.6-5.5 8.7-11.3 14.1-4.8 4.4-10 11.9-16.4 12.5-5.6.6-10.2 5.3-13.3 8.2-5.4 5-10.6 10.6-14.9 15.2v28.5c10.5-9.3 20.5-19.2 28.9-30.5 3.2-2.6 7.6-9.1 8.6-13.3 1.6-7 6-9.6 9.4-14.1.4-.6.4-1.9.8-2.3-.1.1 1.2-.1 1.6-.4 3.7-3.3 7.2-8.2 9-12.5-6.4 8.4-13.9 15.3-20.7 22.8zm-12.1 3.1c-.2 1.4-2.2 1-2.7 2-.6-1.2 1.7-2.2 2.7-2zm28.9-106.8c3-.1 6-.7 8.6-2 14.1.7 28.9 5.4 41.4.4-3.9.2-9.6 2.8-14.1 1.6 8.2-.7 12.9-5.1 21.9-5.1-1.6.9-3.9 1.1-5.5 2 14-5.4 16.1 12.4 22.3 19.9-.2-.7-.4-1.5-.7-2.4-3.1-4.4-5.4-12.6-9.1-17.6 3.9 3.4 5.9 11.6 9 17.3-1.4-4.6-3.6-11.3-6.6-16.1-2-3.2-5.3-5.4-9.4-5.5-8.1-.2-12 4.9-21.9 3.9-3.8-.4-8.3-1.8-12.9-2.7-4.5-.9-9.6-1.4-12.9-2.7-2.6-1-4.4-3-6.6-3.9-7.1-3-15.8-4-24.6-5.9-10.9-2.3-21.8-5.3-33.6-7v7.8c16.2 2.6 33.5 5.9 50.8 9.4-17.7-1.1-34.1-5.9-50.8-8.6V232c17 1.2 37.1 6.5 54.7 5.9zM7.2 215.3c-1 0-.7-.5 0-.4 14 2.8 27.8 5.9 41.4 9-13.5-1.7-27.9-5.7-41.4-8.6zm85.6 21.1c-14.6-.9-27.5-3.6-40.3-6.3 12.4 1.6 26.5 4.9 40.3 6.3zM58 233.6c-.9-.9-3.5-.1-5.1-.4.6-1.7 4.4-.3 6.3-.8-.1.9.1 1.5.4 2 .6 0 1.5-.2 1.6.4 3.7 0 8.9.5 10.6 1.2-5.9-.5-11-.9-15.6-.8-.6.1.3.7-.4.8-3.6-.9-6.4-.5-10.6-.4 3-1.9 7.8-2 12.8-2zm70 19.2c-.1-.2-.3-.5-.4-.7 0 .1.1.2.1.3.1.1.2.3.3.4z"/><path class="st1" d="M59.2 311.1c-.5 2.1-1.8 5.5-1.2 7.4.4-2.7 1.5-3.5 2-5.5-.7-.2 0-1.8-.8-1.9zm-8.6-12.9c-2.7-19.3-31.6-13.4-29.7 6.3.1 1.2.8 2.9 1.6 4.7.8-2-.7-2.9-.8-4.7-.3-6.3 4.8-10.9 7-14.1-.8.6-2 2.9-3.5 1.6 1.1-.8 1.5-.4 2.3-.8 7.1-10.3 25.3-.6 21.9 11.7-.1-.5.1-1.1-.4-1.2-.1 1.3 1 4.1-.4 2.3 1.1 2.6-2.9 5.3-3.5 7.8 1.5-1.4 2.4-3.4 3.5-5.1.1 1.4-2.1 2.6-.8 3.9-.1-3 4.1-1.3 1.6-3.1 1-2.8 1.7-5.7 1.2-9.3zm-27.8-.4c-1.7.5 1.2-3.1 1.6-4.3.9 1.4-2 2.2-1.6 4.3zm35.6 13.7c.4-3.7 1.8-8.6 1.6-11.7-.5 3.6-2 8.4-1.6 11.7z"/><path class="st1" d="M34.9 305.2c-1.5-.2-3.3-2.1-4.7-1.2 1.5.4 3.9 1.7 4.7 1.2zm-6.6 10.2c-2.7-2.2-3.8-5.9-5.5-9 1 3.6 2.4 8.9 5.5 9zm3.5-6.2l.3-.3c-.1 0-.2 0-.3.3z"/><path class="st1" d="M43.5 313.8c-1.2-.1-1.2.9-2.4.8.8-4.9-7.1-7.5-9.1-5.7.2.1.4.4.5.6-2.1 2.1 2.6 4.9 2.3 6.3-.3.1-.8 0-.8.4 4.2.2 8 0 9.5-2.4zm52.8 21.5c2.2 1.3 1.5.9 0 0zm-4.7-2.7c.9.4 3.2 1.7 4.7 2.7-.7-1.6-3.7-2.8-4.7-2.7zm-60.2 17.6c-1.2 1.3-3 1.5-4.3 3.5 1.4.2 2.7-.1 4.3-.8-1.3-.3 1.3-3.6 0-2.7zm110-5.5l-2.9-1.2c.7.3 1.5.7 2.4 1.1.2.1.4.1.5.1z"/><path class="st1" d="M141 344.7c-.4-.1-.8-.1-1.2-.1v-.2c-.8-.4-1.6-.8-2.3-1.2l1.2.5c-.5-.2-.9-.4-1.3-.5-10.8-5.3-21.3-5.9-27.3-15.1-5.4-8.4-2.6-22.5-4.3-34-1.1-7.7-7.3-12.6-12.5-17.2-2.9-2.5-6.2-6-9-7-6.2-2.2-13.2 1.7-14.1 3.5 1.2-.6 1.9-1.7 3.5-2-1.6 2.1-4.1 4-5.5 5.1-2.1 1.7-3.9 4.3-7.4 3.9 2-2.7 7.5-4 8.2-6.6-2.2 3-16.8 8.9-9.4 12.1-1.5-1.5 2.7-1.3 3.9-2.3-1 .1-1.9.1-2-.8 6.2-3.7 8.4-8.9 15.6-11.3-4.4 3.5-10.5 7.5-11.7 12.9 5-3.7 10.6-16 18.4-10.2 3.6 2.7 8.7 8 12.5 12.5 5.8 6.8 2.7 18.8 3.5 29.3.5 6.3 3.1 11.8 4.3 16.4-15.7-5.4-29.3-13-44.2-19.2 11.3 5.5 23.3 11.8 34.8 16.8 4 1.7 9.6 2.4 11.3 6.3-6.9-2.9-13.1-6-19.2-9-.4-.2-6.3-3.1-3.9-1.6 3.5 2.3 8.6 4.3 12.5 6.3 4.7 2.4 13.6 4.7 13.3 11.7-2.8-2.2-8-6.1-9.8-6.6 3.3 2.9 8.8 5.3 10.6 9.8.4 1.1 0 2.7.4 3.9 1.3 4.4 4.6 9.2 6.6 12.5 8 13.2 14.2 26.9 23.1 38.3v-.7c3.2 7.4 12.2 20 20.3 15.6 8.9-4.7-4.9-26.5-8.1-32.6-3.3-6.1-7.8-11.3-12.2-16.7v-1.5c7.2 4.1 23.2 8.2 30.4 5 2.8-8.4-18.3-21-29-26zm-22.4 13.7c-.4.8 0 .3-.8.8-3.3-1.8-2.4-7.8-6.6-8.6.4-1.1 1.4-.1 1.6-.8-.2-.3-.4-.6-.4-1.2-1 0-1.5.6-1.6 1.6-.2-1.5-.1-4.7.8-4.3-1.4-2.8-2.9-10.5-5.9-12.9h2.3c-2.5-1-3.4-3.6-4.3-6.3-1.2.3.4.8 0 1.6-2.5-1.9 0-7.8-2.3-9-.1-.9 1.4-.2 2-.4-2.2-1.7-2.7-4.7-.4-6.6-.6 0-1.5-.2-1.6.4 1.8-8.2 0-18.6-2-24.6-5.3-4.6-11.7-11.8-17.2-16.4.4 1.2-1.8 0-3.9.4 8.3-2.5 14.3 5.7 20.7 11.7 8.5 7.9 5.3 18.3 6.6 32.8.4 4.7 2.2 13.3 5.1 14.9.3.2.4-.6.4-.8 1.8 4.6 4.1 10 8.2 12.5 4 2.4 5.9 7.1 9 11-1.8 2.4-6.4 5.7-9.7 4.2z"/><path class="st1" d="M151.8 304.8c-1.2.3.4 2-2 2.2-1.2-.8.8-.6-.1-1.4-2.5 1.3-5.4 1.9-7.8 3.7-.7.9 4.8-2.3 7-2.2-2.9 3.5-11.1 2-9 4.4-1-.2-4.1-1.6-3.4.2.4-.5 1.1-.4 1.9-.3-4.3 2.6-2.2-.3-7.1.8 13.1-29.3 29.2-52.5 49.9-66-15.6 4.8-33.5 27.5-45.8 48.3-2.8 4.7-4.8 10.5-8.6 13.5-2.5 2-6.7 1.8-8 4.2-4.2 7.4 6.7 18.2 16 22.9-.4-4.7-9.7-6.3-9-10.4 1.9-2.3 5.7-.6 7.5-3.2.3 3.3 4.3 6.7 7.1 10.7.7-5.2-3.8-9.5-8.1-13.8 11-3.7 22.8-10.9 31.7-13.5-.2-.1-.3-.5.1-1 13.7-2.4 34.5-18.7 42.6-37.1-15.5 14.8-38 34.1-54.9 38z"/><path class="st1" d="M164.4 304.8c-.2 0-.3.1-.5.1.1.2.3.2.5-.1z"/><path class="st0" d="M218.2 149.4c.2.1.4.4.1.4-1.6 2.4-5.1 4.9-7.6 6.9-4.7 3.8-10.3 6.7-15.4 1.4-.3-2.5 1.2-4 2.8-4.8 0 1-.3 1.1-.2 1.8 6.2 8.1 15.7-1.2 20.3-5.7zm-91.3 12.5c.5-1.3 1.5-2 2.4-2.7 2.2.9 4.2-.2 6.8-.3 2-4.8 9.2-13.5 15.4-12.4 1.3.2 2.4 1.2 3 2.5-.5 4.3-4.3 6.9-7.4 8.8-2.8 1.8-6.3 2.8-9.6 3.1-1.2 4.1-2.3 9.5-1.7 13.7 1-1.8 7.7-3 8.2.4.3 2.5-4.3 6.4-6.5 6.5-7.3.3-4-15.4-2.1-20.1-1.9-.1-6 1.3-8.5.5zM146 157c2.3-.8 7.1-2.9 5.5-6.2-4.6-4.7-12.8 2.5-13.3 7.8 2.2-.1 5-.6 7.8-1.6zm-9.1 18.6c.7.3-.1.7-.1 1.3 1.1 1.1 3.2 3.1 4.6 1.2 0-.6-.5-.3-.1-.9-1.4-1-2.7-2.4-4.4-1.6zm57-9.4c.3 0 .3.2.3.4-1.4 1.6-2.1 3.5-2.2 5.8.2.8.9 1.1 1.3 1.8 4.7.4 6.2-4.5 9.2-6.8.4.7-.5 1.5-.8 2.1-1.2 7.7 6.4 6.8 10.4 4.1-1.5 3.4-7.7 6-12.2 3.7-.4-1.7-1.3-3.3-.8-4.8-1.8.6-4.4 4.4-7.2 4.4-5.5.1-.4-9.9 2-10.7zm-69.4 4.1c.8 0 1.5-1.8 2.7-1.9-2.7 6.4-2.5 15 2.5 17.5-.6 1.2-1.6 2.1-2.8 2.6-5-3.3-4.8-10.1-3-16-2.8 1.4-5.8 6.1-10.6 4.4-2.1-6.3 5.6-13.7 11.5-9.6-.1 1.1.9 2.2-.3 3zm-.1.5c-.5-.3-1.1 1.1-1.9 1.1-.1-3-4.1-4-6.5-2.4-3.1 8.3 6.5 4.8 8.4 1.3z"/><path class="st0" d="M110.4 167.1c.2 0 .1.2.1.4-1.3 3-3.8 7.3-2.9 10.8.8 3.2 3.7 3.9 7.1 4.1-1.8 3.3-7 3.2-9.1 0-1.1-2.3-.6-5.4.2-7.8-2.8 2.1-5.6 7.4-10 7.1-3.7-.3-1.4-8 1.6-9-1.2 2.3-1.5 7.3 2.5 6.1 4.7-1.3 7.2-9.6 10.5-11.7zm-19.5 13.1c-.9 2.3-5.2 5.7-8.4 5.9-1.3.1-2.3-.5-3.6-.7-.6-.8-1.1-1.7-1.6-2.7 1.4-5.4 6.3-6.6 9.5-9.8 1.1-2.7-2-4.9-4.4-3-.4 2-1.5 3.1-3.1 3.7 1.7-3.9 4.3-6.7 8.9-7.2.4.5 1.1.9 1.3 1.6.4 2.8-1.5 5-3.6 6.9-1.5 1.4-4.8 2.4-5.5 3.8-1.1 2.2 1.1 3.5 2 4 3.3 2 7-1.3 8.5-2.5zm149.9 8c-.6 3.4-.1 7.7 0 11.3 1.2-.4 2.7-.5 4-.7 0 .7-.3 2.8 0 3.7-.2.9-1 1.3-1.5 2-1 0-1.6.5-2.4.1-2.7 1.4-6.9.5-10.2 1.2-.3-3.2.7-5.4 4.4-5.3.2-1.3.4-3 .5-4-1.8 1.5-5.9 3.2-8.5 1-1-2.7-.2-5.6.7-8.6-1.3 0-2.5.2-4 .5.1-1.1.1-2.3.6-2.9 0-.3-.4 0-.4.1.1-1.5 1.4-2 2.6-2.2 2.1-.3 5.1-1 6.9-1.3-.2 2-.1 3.8-1.7 4.8-.2 2.2.1 3.9.6 5.6 3.5.3 3-3.3 3.8-5.6-.5-.3-.8.1-1.3-.1.1-1.8.9-3.8 2.3-4.7 2.2.2 5 0 7.5-.7.7.8.1 2.7.5 3.6-.9 1.5-2.1 2.3-4.4 2.2zm-2.4-3.2c-.5-.3-2-.4-2 .7.5-.1 1.1-.2 1.5 0-.8 4.4-2.4 9.3-7.2 9.6-.4-2.5-.8-4.1-.6-6.2.2-2 2-2.4 1.7-4.3-1.8.7-3.8 1-6.1 1.2-.1.3-.4 1-.1 1.3 1.2-.2 2.9-.6 4-.4-1 2.3-1.8 6.2-.9 8.6 1.9 1.4 4.4.9 6.6.1.7-.9 1.1-2 2.2-2.5-1.3 2.8.2 8.3-2.8 9.2-.7.2-1.9-.2-2.5.1.1.4-.2 1.1.1 1.3 3.1-.9 7.7-.1 10.7-1.3-.3-.5.2-1.2.1-1.8-1.4.2-2.8.3-4 .7 0-1-.2-2.5-.2-3.4-.3-2.7-.1-6.6.1-9.2.2-2.4 2.4-2.9 4.3-2.5 0-.5.1-1.8 0-2.3-1.6.8-2.9.5-4.9 1.1zm-58.8 20.7c-.4.8-.3 2.2-.6 3.1 1.5-.7 4.3-.8 6-1 .5 1.9.3 4-1.3 4.8-5.1 0-9.5 1.3-14.7 2.1-.1-2.8.3-5.7 2.7-5.6.2-4.1.9-8.5 1.1-12.6-.4 0-1.6-.1-2.3 0 0-2.6-.4-7.1 2.4-7.1 4 0 8.3.3 11.5 1.2 1.2.3 3.1 1.7 4.2 2.6.9 2.4 1.8 4.5.7 7.1-1.2 2.6-5.4 5.8-9.7 5.4zm-7.6-11.5c.5.5 2.2 0 3.2.4-.7.7-.9 1.3-1 2.6-.3 3.8-1.2 9-1 12.6-.6.5-.8 1.4-1.6 1.7-.5.1-.5-.3-1-.2-.1.5-.2 1-.1 1.6 5-1 8.4-1.7 13-2.2-.1-.4 0-.6-.2-1-1.6.3-4.4.5-5.9 1 .5-2.8.5-6 2.6-7.2 2.4.8 6.6.2 7.7-1.7 1.3-2.1-.2-6-1.2-7-3.3-3.2-10-3.4-14.3-3.4-.1.9-.3 1.8-.2 2.8zm38-4.7c-.1 2.4 1.1 3.1.7 4.8-.8 3.6-5.7 2.1-8.8 3.1.7-2.1 1.9-3.9 2.8-5.8-.5.1-1.1.2-1.5.5.8-3 4.1-2.3 6.8-2.6zm-4.6 2.1c-.4 1.4-1.3 2.3-1.7 3.8 2.2-.5 3.4-.2 5.4-.5-.3-1.4-.5-2-.5-3.3-1.2-.3-2 .2-3.2 0zm-43.2 14.3c1 .7 2.4 1.3 3.1 2.6-1.3 7.1-11.8 6.9-17.8 6.9.2-2.1.9-5.1 3.4-4.5.3-4.9.4-7.9 1.2-12.6-1.8.3-3.1.2-4.4 1-.1-1.8.7-5.4 2.6-5.8 1.9-.4 4.6-.1 7.5-.2 4.3-.2 7.9-.4 9.8 2.6 2.5 3.7-1 9-5.4 10zm-12.7-8.7c1.2-.8 3-.7 4.4-1-1 4.6-1.2 10.1-1.3 14.6-.5.7-1 1.6-1.8 2-.3.1-1.6-.6-1.5.4.7.4 2 .3 2.9.2 4.3-.2 8.4-.1 11.5-2.6-1-2.1-3.1-3.1-5.6-3.6.7-3.5 6.7-2.3 8.3-4.5 1.1-1.5.3-3.7-.4-4.9-1-1.7-3.4-2.7-5.5-2.9-3.4-.4-7 .5-10.7.4.3.9-.3 1.6-.3 1.9z"/><path class="st0" d="M177.5 197.6c.6-1.2 1.9-2.9 3.7-3.1 2.3-.2 4.2 1.1 3.7 3.4-.3 1.4-1.9 3.2-3.2 3.6-1.3.4-2.7-.5-4.3-.4 0-1.3.5-1.9.5-3.2-.3-.3.3-.5-.4-.3zm2-1.1c-.2.9-.3 1.9-.5 2.7 1.4.2 2.4.4 4.2.4.2-.3 0-1 .2-1.3-.8-1.2-2.6-2-3.9-1.8zm-16.4 1.9c-.1 3.9-4.2 5.8-7.4 4.2.2-2.5.7-4.8 2.7-5.5 1.7-.6 3.5.2 4.7 1.3zm-5.7 2.4c.9.2 3 1 4 .1-.6-1.6-2.2-1.7-3.8-2.1-.1.5-.3 1.5-.2 2zm2 8.1c0 3-3.5 4.2-5.9 3.2.2-1.7.8-3.9 2.2-4.4 1.3-.5 2.8.4 3.7 1.2zm3.1 2c.9.2 1.4.5 2.4.3-.4-1.1-1.5-.7-2.4-1.1v.8zm14.7-38.9c-1.8.7-4.9 1.7-7.3 2.4 5.6 1.9-1.6 10.7-5.1 7.5-2 .8-5.3 2.4-7.4.7-1.9-1.5-.7-6-.5-8.4-1.5.9-4.4 2.6-6.6 2.5-.1 2.4-1.4 3.4-3.1 3.9-.1-.7 0-1.8-.3-2.8 2.4-3-.2-9.3 4.3-10.3-.6 2.1-.3 4.2-.8 6.3 2.4.4 5.1.3 6.8-1 .6-2.7 2-4.5 4.1-5.3.2 1.4-1.1 2.5-1.8 3.5-.4 2.2-1 5.8 0 8 .4.6 1 1.1 1.5 1.6 1-.2 2.1.1 3.1-.4.4-5.7 2.7-10.8 7.1-12.8-1.2 1.7-2.8 2.9-3.4 5.3 4.5-.9 8.9-2 12.6-3.9-1.4 2.3-3.3 5.1-2.2 7.6 1.4 3.3 5.5 2.4 8.8 1-2 2.8-6.8 5.4-11 2.9.2-1.2-1-1.7-.5-2.6-.2 0-.2.1-.2.2-.4-1.8.8-4.2 1.9-5.9zm-7.7 7.9c.2-1.8-1.3-2.2-2.6-2.8-1 1.7 1.3 3.1 2.6 2.8zm26.3 24.8c.9-4.3 2.3-8.1 3.9-11.6-1.2-.3-2.7.1-3.9-.1.2-1.7.1-4.2 1.8-4.9.5-.2 1.2.1 1.8-.1.5-.2.9-.7 1.5-.9.8-.2 1.8-.3 2.6-.4 3.2-.4 6.5-.7 9.7-1.1 1.8-.2 3.5-.8 5.1-.4.3 1.4.1 2.3.5 3.4-.6 1.1-1.7 2.3-3.1 2.2.4 1.2.3 2.3.5 3.7.4 2.6 2.3 4.6 1.8 7.1 1.4 0 2.7-.5 4-.7.5 1.1-.2 2.4-.1 3.6 0 .4.3.9.2 1.3-.2 1.1-1.5 2.2-2.6 2.5-1.7.4-3.8-.3-5.4-.2-1.9 0-4.7.8-6.5.1-.1-2.7.5-5.7 3.6-5.1.4-1.1-.2-1.6-.2-2.7-2.4.7-5.9.8-8.3 1.3-.4 1-.9 1.8-1.5 2.7.8-.2 2.1-.1 3.2.1-.6 2-1.3 3.7-2.6 5-4-.1-6.8.7-10.7.9-.1-2.6 1.4-6.7 4.7-5.7zm11.9-16.7c-.8.1-1.7 0-2.4.1-.6.1-1.2.4-1.8.5-1 .1-2.1 0-2.8.2-.4.2-.8.7-1.2.9-.6.2-1.3-.1-1.8.1-.1.5 0 .6-.1 1.1 1 .4 2.9-.2 4 .2-.8 1.4-1.5 3.3-2.2 5.4-.7 2-1.1 4.1-1.6 6.1-.6 2.6-1.8 4.7-4.5 3.8-.1.4-.3 1-.2 1.8 2.9.1 5.9-1 9.4-.7.2-.4.6-1 .5-1.3-.6-.2-2.4-.1-3.1-.1 1.5-2.1 1.6-5.2 3.8-6.2 2.1-1 6.5-.5 9.2-1.6.4 1.5.3 3.1.7 4.8-.6.7-1 1.6-1.8 2-.6-.4-1.4-.1-2-.2-.1.4-.2.8-.2 1.2 2.5 1.1 4.7-.1 7 0 1.3.1 2.5.5 4 .2.1-.8.2-2.4.2-3.3-1.6 0-2.7.5-4 .7-.3-4.2-2.3-6.5-2.4-11-1.9-1.7.1-4.4 2.8-3.7-.1-.7-.2-1.5-.2-2-3.2-.1-6.4.6-9.3 1z"/></g></svg>