<svg xmlns="http://www.w3.org/2000/svg" viewBox="0 0 566.9 467.7"><style>.st0{fill-rule:evenodd;clip-rule:evenodd}.st0,.st2{fill:#ee7f00}</style><g id="Слой_1"><path class="st0" d="M171.8 33.9c0 .8-.1 1.7 1 1.4 1.3-2.2.5-12.6.5-15.8-4.6-1.1-11.5-1.7-17.2.5-4.6-2-8.1 0-14.3-1-.5 1.2-2.2 3.7-3.3 3.8.3 3-.3 5.1-1.4 6.7 4.4 1.7 9 .2 13.9 1.4-.8 9.5 1.7 22.8-.5 32.5-.4 2 .8 6.2 0 8.6-.1.2-.1.3-.1.4.1-.1.2-.2.1.5-.1 1.8-2.9 3.8-1.4 6.2-.2.1-1-.5-1-.5-1.3 4.3-1.6 9.3-5.7 11.5-7.4-.4-10.8-9.9-9.1-15.8.1-.5 1 .2 1-.9-.8-11.4-7.9-.6-14.3-2.9-1 3.4-4 2.6-5.7 5.7v1c2.2.3 1.1 5 2.9 4.3.4 1.5-.4 1.8-1 2.4 3.3 1.8 1.9 8.3 5.3 10-1.2.8.1 2 .9 3.3 2.1 3.3 8.5 8.2 11.9 9.1 2.6-.9 3.9 1.3 9.1.5.1-.6-.1-1.4.5-1.4.1.4 0 .9.5 1 6.9-3.7 12.3-4.6 14.8-13.4 1.8.2.9-5.2 2.9-4.8.6-6.6 1.2-7.8 1-15.3.5 0 .6.4.9.5.2-9.4.8-22.7 1.9-34.4-1.2-.2.5-2.8-.5-4.3 2.4.3 4.5-.1 6.4-.8zm86 43.7c-.8 4.9-10.6 1.4-13.1 3.3-.2-1.8-1.4 1-2.4-1.6-.1 1.6-3 .9-4.2 0 .1-.8-.2-2 .6-2.2-.1.2.4 1.3.6 1.1 4.6-4.9 7.4-13.4 14.9-15.7 1.9-4 .4-9.9 1.2-12.5-3.5-.8-6.9-1-11.9 0v-1.6c-3.9 1.1-5.2-1.1-7.8.5-2.4-1.8-7.4.3-9.5 0 .2 0-1-1.5-1.2-1.6-.9-.3-2.2.7-3 .5-1.3-.3-2.7-3.1-5.4-.5-.2 6.6-.3 10 1.8 14.7 7.3.5 8-.3 13.7.5-2.8 6.2-5.9 12-10.1 16.8-.2 1.3.1 2.1.6 2.7h-1.8c.8 4.2 1.1 9.5 3 13.6 3.4.4 6.3-2.2 8.9 0 .1-2.6.7 1.2 3 0 .1-.6-.1-1.5.6-1.6.1 2.7 4.9-.1 5.4 1.1.1-.6-.1-1.5.6-1.6.6 1.7 1 .7 1.8 0 1.1 2.3 7.4-1.4 10.1 1.1.1-.4 0-1.1.6-1.1.2 2 2.5-.1 3.6 1.1-.4-1.4.2-2 1.8-1.6-2.6-5.8 3.3-12.5-2.4-15.4zm-54-23.1c-4.6 1.1-6.6-.2-10 2.9-5.2-.9-9.9-1.4-11.9-2.9v1.4c-4.4-.6-5.3 2.3-8.1 3.3v2.4c-2.6.3-2.5 7.3-4.8 9.6-.9 10.8.3 18.1 7.6 22 3.5-1 4.2 1.3 6.2-.5 2.4 2.2 8.3-3.1 10-5.3.6.7 1.2 1.3 1.9 1.9-.5 5.5 2.6 6.3 7.6 6.2 3.5-10.9 3.8-22.4 4.3-37.7-2 0-1.6-2.5-2.8-3.3zm-16.7 11.4c1.6-.9 1.7 2.3 1.9 0 1.1 2.4.3 7 0 9.6-.9-1.1-1.4 3.8-1.4 4.8-4.8 1.7-4.3-3-6.2-4.8 1.1-4 3.2-6.9 5.7-9.6zm100.8-7.6c-3.2.4-4-.4-5.6.7-4-1.3-5.5-.3-9.5-1v-1.6c4-3.2 7-5.8 9.8-9.8.8.9 1.4-1.3 2.3-.3 0-1.5-.1-3.6.7-1.6.1-3-.2-4-.3-6.2-2.5-1.2-6.7-.5-7.8-.3-1 .1-1.6-1.1-2.3-1.3 0 0 0 .7-.3.7-1-.2-2.9-1-4.3.3-1.6-.8-4.4.5-7.2-.7.1 2 .8 2.8-.7 3.9 1.9-.3.8 2.9.7 3.6 1.2.5 1.5 0 1.6 1.3 1.5-.7 2.5.3 4.6-.3-.3 1.5.5.3.7 1-1.5 2.1-2.2 6.6-3.6 8.2.1-.1-.1-.8-.3-.7 0 2.1-1.9 3.2-2 5.2-.1 2.5.5 4.3 0 6.9 1-.3.6.7.7 1.3 6.9.1 13.6-1 23.2-2 .1-4.3.2-4.4-.4-7.3zm-86.1 237.1c.4.7.9 1.3 1.3 2 1.7 3.6-2.1 6-1.9 9 .1 1.4.8 2.7 1.1 4 .3 1.4.4 3.2-.2 4.6-1.3 2.9-6.6 6.4-10.2 7.1-1.6.3-3.2-.2-5-.1-4.1.3-9.1 2.4-14 4.3-5.1 2-10.4 4.3-14.6 7-1.2.8-2.2 2-3.8 2.1-2-2.4.8-4.2 2.1-5.7 3-3.5 5.8-6.5 8.7-10.4 1.1-1.5 3.4-4 2.3-5.6-1.1-1.8-4.9-.3-6.9.8-2.6 1.4-5.3 3.6-8.2 5.3-1.8 1.1-6.4 4.3-7.6 2.4-.7-1.2 1.6-3.4 2.8-4.8 4.1-4.7 8.9-8.9 12.8-13.6 2.5-3 4.4-6.5 6.8-9.4 2.6-3.1 4.8-6.2 7.4-9.3.7-.5 1.4-.9 2.1-1.4.9-.2 2-.7 2.9-.7 4.2-.2 8.6 1.2 11.3 5.4.5.7.7 1.8 1.4 2.4 1 1 3.7 1 5.2 1.6 1.9.8 3.1 1.9 4.2 3zm-27.9 24.5c.8-.7 2.5 1.1 3.2 1.3 3.3 1.2 5.7-1.1 9.5-2.2 1-.3 2.1.5 3.4.4 2.8 0 8.3-1.4 10.2-4.3 1.7-2.6-1.4-5.7-1.2-8.8.1-2.4 2.5-4 2.8-6.4.2-2.2-1.4-5.1-3.6-6.1-1.8-.9-4.7 0-6.3-1.2-1.9-1.5-1.9-3.5-2.9-5.1-2.1-3.1-6.6-4.3-9.5-2.9-3.2 1.5-4.7 3.8-6.3 5.9-1.1 1.6-2.4 3.1-3.5 4.6-2.2 3.1-2.3 6.7-4.8 9.6-.5 0-.9-.2-1.2-.9-2.6 4.6-7.7 9.2-12.7 13.2-1.7 1.4-3.7 2.5-4.4 4.4 5.5-.6 12.1-7.4 18.1-10.2 3.2-1.5 6.4 2.9 5.8 5.9-.8 3.8-7.5 8.6-11 11.8-1.2 1.1-2.9 2.2-2.6 3.7 1.7.3 3.1-1.1 4.7-2 4.9-2.8 10-5.6 14.4-7.7-.8-.9-3.2-2-2.1-3z"/><path class="st0" d="M190.2 292.3c.7 2.1 1 4.1.7 6 2.3.7 4.4 1.8 6.2 4.9-2.1-1.1-3.9-3.1-6.3-2.6-.8 2.5-.5 5.3-3.1 7.5-.5-.4.1-1.2.2-1.8.4-2 1.4-5.5-.6-7.9-1.3-1.6-3.6-2.4-5.3-2.8-.5-.1-1.2-.1-1.4-.6 3.2-1.2 6.1-1.1 8.4 2.4 1.6-1.4.9-3.3 1.2-5.1z"/><path transform="rotate(36.259 383.84 336.327)" class="st0" d="M363.5 310.6h40.6V362h-40.6z"/><path class="st0" d="M398.7 324c.4.3.9.6 1.3 1 2 1.9.2 4.3 1 6.3.4.9 1.2 1.5 1.7 2.3.5.8 1.1 2 1 3-.1 2.2-2.7 5.7-4.7 7.1-.9.6-2.1.7-3.2 1.2-2.6 1.2-5.2 3.8-7.9 6.2-2.8 2.5-5.6 5.4-7.6 8.1-.6.8-.9 1.8-1.9 2.3-1.8-1-.5-2.9-.1-4.2 1-3 2.1-5.6 2.9-8.8.3-1.3 1.2-3.4.1-4.2-1.2-.8-3.2 1.1-4.2 2.3-1.3 1.6-2.5 3.6-3.9 5.4-.9 1.1-3 4.4-4.2 3.4-.8-.6.2-2.6.6-3.8 1.5-4 3.4-7.9 4.8-11.9.9-2.5 1.2-5.2 2-7.7.9-2.6 1.5-5.2 2.4-7.8.3-.5.7-.9 1-1.4.5-.4 1.1-.9 1.7-1.2 2.6-1.2 5.8-1.4 8.6.7.5.3.9.9 1.5 1.2.9.4 2.6-.3 3.7-.3 1.4 0 2.5.4 3.4.8zM387 346.7c.4-.7 1.9 0 2.3 0 2.4 0 3.4-2.1 5.5-3.8.6-.4 1.5-.2 2.3-.6 1.8-.7 5-3 5.4-5.3.5-2.1-2.3-3.3-3-5.3-.5-1.6.6-3.2.2-4.8-.4-1.4-2.2-2.9-3.8-3-1.4-.1-3 1.2-4.3.8-1.6-.5-2.1-1.8-3.1-2.5-2.1-1.5-5.3-1.1-6.8.5-1.7 1.7-2.1 3.6-2.6 5.4-.3 1.3-.8 2.6-1.1 3.8-.6 2.5.2 4.9-.7 7.3-.3.1-.6.1-1-.2-.5 3.6-2.6 7.8-4.8 11.6-.7 1.3-1.7 2.5-1.8 3.9 3.4-1.7 5.9-7.8 9-11.1 1.7-1.8 4.8.3 5.2 2.3.5 2.6-2.7 7.4-4.1 10.3-.5 1-1.3 2.1-.7 3 1.1-.2 1.7-1.5 2.5-2.5 2.4-3 5-6.1 7.3-8.5-.6-.3-2.4-.4-1.9-1.3z"/><path class="st0" d="M390.5 324.9c1 1.2 1.6 2.4 2 3.7 1.6-.1 3.3 0 5.2 1.6-1.6-.2-3.3-1-4.7-.1.1 1.8 1 3.5-.1 5.6-.4-.2-.3-.8-.3-1.2-.3-1.4-.5-3.9-2.4-4.9-1.2-.7-2.9-.6-4.1-.5-.3 0-.8.2-1 0 1.8-1.6 3.7-2.2 5.9-.6.7-1.3-.2-2.4-.5-3.6zm-23-177.7c-.1 1.2-1 1.5-1.5 2.3-1.2-.1-1.9-.1-3.2-.6-4-2.4-11.9-2.4-16.1-4.2-1.3.4-2.6.5-4.4.9.5-2.2 2.7-2.5 5.1-2.8.6-.6 1.2-1.2 1.7-1.9 4.3 1.4 8.6 2.5 12.9 3.2 1.5 1.2 2.8 2.9 5.5 3.1zm-4.2 9.3c-.5 1.4-2 1-3.4.6.9-1-.1-1.5-.2-2.8-.9-.1-1.4-.6-2.3-.6 0 2.1-1.9 4.8-5.3 4 .4-1-3-.7-4.2-1.3.2-.8 1.1-1.7 1.9-1.1.5-.2-.1-1.5.4-1.7-2.1 0-3.5.9-5.3 1.3.5-.9-.8-.8-1.7-.9.1-.7.6-.9.9-1.5 5.9.4 17.4-2.9 19.2 4zm-11-1.1c.1-.9.7-1.1.8-1.9-.9-.2-1.6.4-2.1 0 .1 1 .6 1.5 1.3 1.9zm41.1.7c.2 0 .2.1.2.2 0 .6 1.3.2 2.1.2 2.6 0 5.2 0 7.4.6-.1 1.2 2.8 3.4.6 4.2.5-.2-.9-.1-1.1-.2 0 0-.4-1-.4-1.1-.1 0-.5.4-.4.4-.1-.1-.1-.6-.2-.6-2-1.1-4.6-1.4-5.5.9 2.2.9 3.3.8 5.9.8-.1.7-.7 1-1.1 1.5-5.4.2-8.4-1.9-13.6-1.9 0-1.4 1.8-1 2.6-1.7-1.3-.4-2.9.7-4.7.6 1-3.1 4.9-3.2 8.2-3.9zm-1.7 2.9c.4 0 .3.6.8.4.1-.3.3-.4.2-.8-.5 0-.8.1-1 .4zm-32 27c.4 1.2-.9 2.6-1.9 3.2-.2-1.1 1.4-2.1 1.9-3.2zm-15.5 24.6c.2.8-.8 2.1-1.3 3-.4-1.1.9-2.1 1.3-3zm26.5 9.3c.9 1.3 1.5 3.9-.2 4.7.4-2-1-3.7.2-4.7zM369 224c-.3-1.3-.6-3.1.4-3.6.7 1 .6 3-.4 3.6zm-1.9-2.4c.9.7.7 2.7-.4 3 .1-1.4-.6-2.3.4-3zm-1.9 1.1c.2 1.7-.1 3.1-1.1 4.5.4-1.6-.8-4.3 1.1-4.5zm1.1.6c.6 1.4-.2 3.2-.8 4-.2-.9 0-3.3.8-4zm-3.6.2c.3.6-.8 1.6-1.5 1.9.3-.7.8-1.4 1.5-1.9zm142.1 244.2h-7.6c-.7-7 2.6-14.9 1.7-20.8.7-2.1-1-4.1-1.1-5.7-.1-.4-.4-.5-.9-.4 0-.4.3-.5.2-.8-.9-.3-2.1-1.8-2.8-3-.7.2-1.4-1.3-2.3-.8 0-.2.2-.2.2-.4-.4-.3-1.5.2-1.7.2-.4-.1-1.2-.9-1.9-.9-1.5 0-2.5 1-4 1.1 3.3 4.6-2.6 10.4-6.2 11.5-1.1-.7-1.3-2.8-1.5-3.6-.2 0-.2.3-.2.4-1-5 3.3-10 8.1-12.9.9-.6 2.2-1 3.2-1.7 1.7-.4 4.3-.7 6.6-1.5.4.2 1.2 1.1 1.5.2.3.7 1.7.7 1.9.4.7.5 1.5 1.7 2.8 1.5 1.1 1.7 2.4 4.2 3 5.3.7 1.6.8 4.8 1.3 7-1 5.2-1.7 10.1-2.5 16.3.1 2.9 1.5 5.9 2.2 8.6z"/><path class="st0" d="M262.8 467.7c.2-21.9-.7-41.2-.9-64.1.3-2.6.9-6.9-.9-8.3-.1-.1-.9-.2-1.1-.4-.4-.4-.4-1.3-.6-1.5-.5-.5-1.5-.5-2.1-1.1-.1-.1 0-.4-.2-.6-.5-.7-.2-.4-.9-.8-1.4-1.1-2.9-2.5-4-3.6-.9-.9-.9-.4-1.7-.8-.6-.3-1.3-1.2-1.9-1.7-.7-.5-1.3-1.2-1.9-1.7-.7-2.2-3.1-2.7-3.6-5.1-.6-.3 0 .8-.6.2-.8-.8-1-2.6-2.3-2.8-.2-1.5-1.6-2.7-2.3-3-.5-2.3-3-3.3-3.2-5.9-1.4.2-1.4-2.4-3-3.6-.3-.8-.7-1.5-1.1-2.3-.1-.3-.9.2-1.1-.4.5-.8-.9-2.1-1.3-3-2.8-5.6-4.9-11.4-6.6-18-1.3 0 .2-1-.8-.8.7-1.1-.4-1.4-.6-2.3-.1-.4.3-1.1.2-1.5 0-.1-.6 0-.6 0-.1-.1.2-.3.2-.4-.5-1.5-.7-3.3-1.1-4.7-1-4-.9-8.1-2.1-11.9.6-1.4-.1-2.7-.2-4-.5-5.1-.4-11.1-.2-17 .1-4.1-.7-8.3-.2-12.1.4-3.3 1.3-6.9.7-10 .4-1.7.6-3.4.8-5.1 2.3-19.2 8-40.3 14.8-57.9 7.1-11 12.7-24.4 22.3-33.7 4.4-4.3 9.7-9.9 15.3-12.7 5.9-3 12.4-6.6 18.9-6.4 3.4-.9 6.3.7 10.6-.6 2 .8 3.8.3 5.9.6 1.5 1.2 3.6 1.7 5.9 1.9-.1 1-.2.6.2.8 1.3.4 2.4 1.5 4 2.5.1-4.7.7-7.1.8-11.5-2.7 2.9-8.1 2.1-10.6-.6-4.2-4.6-.1-13.2 3.8-16.1-1.4-8.3.2-20.6 2.3-26.7-.1.6-.7 0-.4-.4.4-3 .8-5.4 1.7-7.4 1-2.3 3.1-3.6 4.5-5.5.7-.9.9-2 1.5-2.8.6-.9 1.4-1.5 2.1-2.3 3.2-3.4 7-6.7 10.8-8.9 1-2.7 3.4-4.5 6.2-5.3 3-.9 4.8-2.1 7.6-2.1.9-.6 1.3-1.7 2.5-1.9 2.2 1.5 2.6-1.2 5.5-1.5.5.2.3 1.1.6 1.5 1.3-.8 1.7-2.5 3.4-3-.2.9.4 1 .4 1.7 1.5-.5 1.9-1.9 3.6-2.1.4.9.6 1.1 1.1 1.5 1.6-.3 1.8-1.6 3.2-1.7.7-.1 1.3.8 2.3.8 1.2.1 2-.6 3.2-.4 1.1 2.1 2.7 1.9 4.7 1.7 1.1-.1 2 .5 3.2.6.9.1 1.8-.2 2.5 0 .4.1.9.8 1.5 1.1 2.7 1.2 4.6 2.1 7.4 1.9 1.1 2.5 2.8 3.2 6.1 3.2.4 1.2.8 2.3 1.5 3.2 1.1.4 1.6.7 2.6.8.6 2.6 3.9 2.6 5.3 4.4.3 1.7 1.2 2.6 2.1 3.6.5.5.9 1.2 1.3 1.5 1.3 1.1 3.2 1.4 4.2 2.8.4.5.5 1.4.8 1.9.4.6 1.1.7 1.5 1.3 1.3 1.9 1.9 4.5 2.5 7.6 1.2.9 1.6 2.5 3.2 3 .7 2.3.3 4.6.2 6.8-.2 4.9 1.3 8.8.4 13.4-.3 1.5-1.4 3-1.7 4.7-.3 1.8 0 4.2-.6 6.1-.7 2.2-2.4 3.6-3 5.3-.8 2.3-.1 4.7-.4 7.6-.2 1.5-1 3-1.5 4.7-.6 2-1.1 4.3-1.5 6.2-.1.8 0 1.6-.2 2.3-.4 1.1-1.7 1.9-2.1 3-.3.8.2 1.7-.4 2.3.2 1 1-.7 1.7-.6.7.2 1.2 1.8 1.7 1.5-.5-.7 1.6.6 1.7 1.3 6.2-.5 10.9.7 17.8-.2 1-6 1.1-12.9 2.3-19.7.7-3.9 1.4-8 1.9-11 .3-2.1.5-3.9.8-5.7.6-3.1 1.8-6.4 2.3-8.7.5-2 .2-3.9.4-5.7.3-2.9.7-5.6 1.1-8.3.9-6 1.8-12 2.8-18 .4-.6.8-1.2 1.1-1.9-4.2-1.1-3.7-9.8 1.1-9.1-2.1-3.9.5-7 2.8-8.9.7-8.2 2.3-13.2 3-20.4.2-1.7.5-3.6.6-5.3.1-1.1-.2-3.2-.2-3.2 0-.4.6-.7.6-1.1.1-.4-.4-.6-.4-1.1 0-.4.4-1 .4-1.3.1-5.5.2-9.7 1.1-14.6-1 0-3.3.5-5.1 0 1.3-2.9 3.4-4.9 5.7-6.8-.3-1.8.5-3.7.4-5.3-4.6-.4-7.1.2-11.5-1.3-1.7 1.5-2.7 3.8-4.9 4.9-.4-.5-1-.6-1.3-.6-.9-1.8 0-3.2-.8-4.9.4-5.2 5-12.9 9.3-14-.8 1.7.8.2 1.3 1.1.4.6.1 2 .2 3 .9-.7 1.7 1.3 2.7 1.7 1.5-.6 3.7.7 5.7.6.5-2.3 1.1-5.5 1.1-7.6-.3-.6-1.1 1.1-1.3 0 .2-3.1.7-5.2.4-7.8.8-1.6 1.8-3.1 2.3-4.9-4.2-1-7.3.3-12.7-.4.1-.9 1.3-1.8.9-2.5-1.1.2-1.9-.2-2.5-1.1-.6.2-1.7-.1-2.5-1.1 1.4-2.7 3.1-5 5.7-6.6 1.4.6 3.1.9 4.7 1.3 1.1.2 3.6.7 4 0 .3.1 0 .8.4.8 2-.7 5.3.7 7.9.4-.1 1.1-.7 1.6-.6 2.3 3.4-2.4 8-6.6 12.5-7.6 0-.9 1.5-.5 1.3-1.1 1.8.4 3.6-.2 5.7 0 2.7-.5 4.7-1.7 6.6-1.3-.7 3.5-3.6 5.8-5.7 7.2-.2-.7-1.1-.5-1.3-.6-3.5 1.8-7.4.7-10.8 1.7-1.6.5-5.5 2.4-6.6 3.4-1.3 1.2-1.6 3.2-3.4 4.2.3 1.6-.4 3.3-.2 4.7.2-.4 1.1-.6 1.5-.2-.8 7.4-2.1 12.6-2.3 19.1.4.4 1 .5 1.3 1.1-2.3 3-1.8 7.2-2.6 11.5 1.3.2 2.6-.2 4.2 0 1-4.7 2-12.8 3.2-18.7.4-1.9.6-4.3 2.1-4.7-1.3 7.1-2.8 15.7-4.2 23.3 1.9-.1 2.2.5 4 .4.5-2.9 1.1-6.2 1.7-9.5.7-4.5.6-10.3 2.7-11.7-.7 7.5-2.4 14.2-3.2 21.6 1.8.7 3 .4 5.7 1.5 0-3.5 2-8.4-.6-10.2 1.4-2.7 3.2-5 5.7-6.6.4-3.1.8-6.8 1.1-8.3.4-2.4.4-5.3 1.5-7.4-.2.7-.6-.2-.4-.6-.2-.2-1.7-.4-1.9-1.3 2.1-3.1 4.2-6.9 7.4-6.4.3.1.1.6.2.7.9.2 2.1-.2 2.8 0 .6.1 1.1.7 1.7.8 2.2.3 3.6-.5 5.3.2 3.3-1.9 8-3.3 10.8-4.9 2.4-4.6 5.5-9.7 9.3-12.1-3.6 6.1-6.8 12.6-11.7 17.4.9.4 1.9.5 2.6.8 1.2-1.1 2.4-3 3.8-3.2.1.5.6 1.1.2 1.5.7.1 1.1-1.2 1.5-.6-.7 6.3-2.4 11.2-7.4 14 .6-.8.2-1.7.4-2.5-6.6.1-10.5-1.2-15.5-2.3-1.4 1-2.5 2.2-3.8 3.2.4 2.7-.4 7.4-.2 11.9 1.5-.5 1.8 1.2 3.4 0 1 1.2 2.7 1 3.8.6 1 1.4 3.3.4 4.4 1.5 1.3-1.3 2.4-2.8 4-3.8 1.4 0 2.9.3 3.8.4 2 6.6-.9 17.9-8.5 21 .4-2.5-2.8-2-3.8-3.8.5-.9.1-3.2.4-4.9-3.1 0-4.8-.5-7.4-.4-.1 2.2-1.3 5.1 0 6.8.4-.5 1.2.8 1.7.6-.7 2.8-3.3 5.4-5.7 7.2-.3-.2-.3-.7-.8-.6-.2 6-1.9 11.2-2.3 16.5-.4 5-.3 10.5-4 13.4 1 .6 2.3.8 3.8.8 2.3 1.2 4.6 3.4 6.6 4.2 1.7 3.3 4.3 5.9 6.8 8.3.8.8 2.2 1.5 2.8 2.3.2.3.1 1 .4 1.5.9 1.4 2.5 2.6 3 4 1 3.3.1 7.1 0 10.8 0 1.5.3 3 .2 4.7-.3 6.3-1.5 11.9-1.9 17.4 0 .8.5 1 .9 1.5-.4 1.1-1.5 1.4-1.9 2.6 2.8 8.1 6 15.6 8.7 24 2.7 3.9 3.9 9.7 5.5 14.4 0 .1.6.1.6.2.1.2-.3.3-.2.6.7 2.4 1.4 4.5 2.5 6.6 1.5-.7 5.1-3.9 7.2-4.7.3 2.7-1.7 4.3-3.4 5.5-2.3 1.8-5.5 3.5-8.5 5.5-2.8 1.9-5.7 4-8.7 5.3-.6.2-1.3.2-1.9.4-2.9 1.2-4.9 3.6-7.4 4.7-1.3.5-3.1.6-4 1.3 1 .2.5.7.9 1.3 4.3 3.5 6.1 7.6 10.6 12.9.5-.3-.3-.5.2-.6 1.1 2.9 3.1 4.2 5.3 6.8.4 1.2.4 1.2 1.5 1.7.2 1.5 1.5 2.7 2.1 3 .4 1.8.9 2.1 2.1 3-.1.9.6 1.2.9 1.5.4.5.9 1.2 1.1 1.5.3.4 0 .9.2 1.3.1.1.6-.2.6-.2.1.1.3 1.2.6 1.7.5.8.8 1.6 1.3 2.3.5.8 1.5 1.2 1.7 1.5.4.6 1 2.4 1.5 2.8.3.3.5-.4.8 0 .1.2.3.8.4 1.1.7 1.1 1.5 2 2.1 3-.1 3.7.3 8.1-.2 11.4-.8.9-1.3-.3-1.9.6-.7-2.3-3.3-3.6-3.8-6.4-.5-.1-.9-.4-1.3-.6-.3-1.7-2.8-2.8-3.4-5.3-.4-.1-.5.3-.6 0-1.1-2.5-3.8-5.5-4.7-7.9-1.8-1.1-2.1-3.7-3.6-4-.3-1.7-2.3-4-3.2-4.2-1.3-3.1-4.3-4.6-5.7-7.6-.4-.6-.7 0-1.1-.4-.3-2.4-2.7-2.6-3-5.1-.8-.2-.9-1.3-1.5-1.1-.4-1.1-1.4-1.6-1.7-2.8-1.4-.7-1.7-1.9-2.5-2.8-.5-.5-2-1.2-1.9-2.5-.8.1-1.2-.1-1.3-.6 1.2-2.1 1.4-4.2 2.8-6.4-2.5 0-4.8-1-6.8-2.3-1.2.3-3.6-.8-5.7-1.7-.5 0-1.6.7-2.5.2-.4 3.4-.3 6.5-.6 9.7-.4 3.7-1.7 7.2-1.7 10.8 0 2.1.3 3.7 0 5.5-.3 2.1-1.1 4.2-1.3 6.6-.5 6.1-.8 12.1-2.8 18 .1.2 1.6-1.8 2.8-1.9 1 .3 1.9.8 3.2 1.1 1.9.4 3.9 1 5.5.9.7 1.2 1.5 1.4 2.8 1.7 1.2-.6 1.5-2.1 3.2-2.3-.3 1.2.1 1.8-.2 3 1 .9 2.1 2.8 1.7 4.5 1.2 1.5 2 3.5 2.8 5.3.8 1.9 1.7 3.8 2.5 5.7.8 1.9 1.8 6 2.6 6.4.6.3.4 1.6.6 2.1.3.5 1 .9 1.3 1.5.9 1.8 1.4 2.5 2.8 3.6-.1.2-.2.1-.4 0 2.3 2 1.7 3 4 4.2-.1.1-.5 1 0 1.1 1.3.9 3.2 2.5 4.6 4 .1.5.4-.7.9 0 2.1 3 4.6 3.8 7.6 5.3.2.7.1-.6.6-.2 1.1.8 2.4 1.3 3.6 1.7 1.3.4 3 .3 3.8.9.4.3-.1.5.2.6.8.3 2.4.1 2.8 1.3.5.3.5-1 .8-.2-.1 12.4.3 25.3-.2 37.3-1.1.5-.6-.9-1.1-1.3h-.8c-.2-.1-.5-.6-.6-.6-1.4-1.1-2-1.6-3.4-2.8-1.9-1.5-3.7-3.4-5.9-4.5-.2-.1 0-.6 0-.6-.2-.2-.8-.2-1.1-.4-.6-.5-.9-1.1-1.5-1.5-.3-.2-.8 0-1.1-.2-.1-.1.1-.5 0-.6-.1-.1-.5.2-.4.2-1.5-.7-.9-1.3-2.1-1.5-.4-.1-.2-.5-.4-.6-1-.5-2.5-1.1-3.4-2.3-.3.8-1.4-1-2.1-1.1-.9-.5-1.1-1.6-2.5-1.5.2-1.4-.6-.4-1.1-.8-.3-1-1.4-1.6-2.1-1.7.5-1.5-1.1.3-.4-1.3-.7-.3-.2.7-.8.4-1.4-2.5-4.2-3.2-5.3-5.5-.8-.2-1.5-.5-2.1-.9 0-.4.2-.5.2-.8-1.8-.4-2.1-2.3-3.6-3 .1-1.6-1.3-1.5-1.9-2.5-.7-1.2.1-1.1-.8-1.1-1.4-3-2.2-4.9-4-7.6.1-2.2-1.4-4.6-2.1-6.2.8-.4-.9-2.6-.4-3.8-2.2-2.8-1.9-5.8-3.4-9.8.6-.4-.6-3.2-.2-4.7-2.9-.6-4.9.2-7.8-.9-1.8 12.2-2.9 24.7-4.3 36.9-1.2 10.3-2.9 18.8-2.3 28-.4 2.8-.7 6.6-.8 9.5 0 .5.5 1.2.4 1.7 0 .5-.6 1-.6 1.7-.2 2.3-.9 4.8-1.3 7.4-.6 4.6-.8 8.6-1.1 13.4-.3 6-.8 12.2-.8 18.2 1.1.3 3 .1 4 .9-1.4 2.7-3.2 4.9-5.5 6.6-.5 3.1.2 8-.4 11-.2.8-1.2 1.4-.6 1.7 3.2 1 3.8 4.7 5.5 7.2.3.6.9-.5 1.1 0 .9 2.2 2.6 5.2 3.6 7.2.7 1.4 1.3 3.1 2.1 4.7.9 1.7 2 3.4 2.3 4.7.5 2 .4 4.4.6 6.4.1 1.1.8 2.4.6 3.4-.3 1.5-1.8 2.2-2.8 3.4 0 2.9-.8 5-3 5.7-1.3-1.7-1.3-4.8-2.8-6.4.4 7.7-1 17.1-6.4 21.2-.3 9.1-1.5 18.2-1.3 25.5h-1.5c-.2-7.3 1.1-15.9 1.3-24-.1-.5-.7.3-.8.4-.9-1.5-.2-3.3-.6-4.9-.1-.5-.8-.8-.9-1.3-.2-2 .9-4.2.7-6.2-.1-.7-.6-.8-.9-1.5-.9-2.5-.4-5.7-1.9-7.6-2.5-2-5.8-4.7-9.1-4.5 1.2.4 1.4 2.8 2.5 2.5.9 3 4.6 6.5 5.5 8.9 0 .7-.7.7-.8 1.3.1.3.4-.2.4.2.1 6.8-2.1 11.4-2.7 17.6-1.8 1.5-2 4.5-5.1 4.7.1-.4-.2-.4-.2-.2-.2-2.7.4-6.9-1.5-8.5-.9 7.9-1.5 14.8-2.1 22.9h-1.3c.5-8 1.7-16.2 1.9-25-2.1-3.7-4.5-7.3-7-10.6-.9 13.1-2.3 22.3-3.2 35.6h-1.3c.8-10.3 2.1-23.3 3-33.1.1-1.1.5-2.1 1.3-3-2.1-1.4-3.4-3.6-5.7-4.7-1.2 14.6-4.1 26.8-4.7 40.7h-1.3c.9-13.6 3.5-27.6 5.1-42-1.3-.9-3.3-3.1-4.7-1.9-.4-1.1-1.5-1.4-3.2-1.3-2.1 15.4-4.5 29.8-6.2 45.2h-1.1c1.1-15.4 4-30.5 5.9-44.8-2.3-1.2-4.8 1.2-7.9 1.9-3.2.7-7.5 1.2-11 1.7-1.6.2-3.5 0-4.7.4-1.7.7-2.6 2.2-4.2 2.5-2.6.6-5-.6-7.4-.4-3.5.2-6.3 1-9.1-.4-1.8-.9-2.9-2.4-5.3-2.8-.4 1-1 1.8-.9 3.4-1.3 4.3-3.9 8.2-7 11.5-1.4 1.5-3.1 3.1-5.1 3-1.9-1.2-3.3-1.6-5.7-1.3-.1-.3.2-.4.2-.6-3.2-.2-5 0-6.8-1.9-1.5 3.6-1.1 7-2.5 10.6-2.9 7-9 10.1-11.9 17.2h-4.9c6.5-7.6 10.6-18.5 11.9-28.6.1-.7-.6-.4-.4-1.1.3-.5.4-1.3.9-1.7-1.1-1.2-3.4-1.5-4.2-3.4-.4 0-.3.6-.9.4.1-.5-.4-.5-.2-1.1-1.1.1-2.7-1.1-3.4-2.1-1.3-.1-2-.7-2.6-1.5-1.2.3-2.4-.9-3-1.9-.7-.3-.2.7-.8.4-.8-1.8-3.6-1.5-4.2-3.4-1.6-.3-2.7-1.1-4.5-2.1-.2-.1-.1-.6-.2-.6-.9-.5-2.9-1.1-3.8-2.5-.2 0-.2.3-.2.4-.6-1.1-3.5-1.4-4.9-3.2-.4-.1-.4.2-.4.4-2.3-1.6-3.9-2.9-6.4-3.4v-.8c-2.4-.4-2.8-2.2-4.5-2.1-.3-.1-.2-.5-.2-.8-.2.1-.2.5-.6.4.2-.7-.5-1.1-.6-.4-.3-.9-.8-1.5-1.9-1.1-.3-1.7-3-1.2-3.6-3-.2.1-.2.5-.6.4-1-1.8-4-2.1-4.5-3.8-.3 0-.6 0-.6.2-.4-.5-1-.7-1.1-1.5-1.1 6.4-.5 11.8-.2 18.5-.3-.7-.4 2.5-.4 3.2-.2 9 1 17.7 1.1 25.2 0 .3-.4.1-.4.2-.3 1.9 0 5.2 0 7.4 0 2.9 0 6 .6 8.7-.1.3-.3-.1-.6 0 .6 1.2.2 3.1.4 4.2-2.1.1-4.1.1-6 .1zm228-475c.8 0 1.1-.4 1.3-1.1-.5 0-.7.4-1.1 0 .1.6 0 .9-.2 1.1zm-11.7 31c1-.1 1.1.4 1.7.2 1.1-1.9.7-5.7 1.5-7.9-.9.5-1.3-.6-2.3-.6-.5 3-.6 5.2-.9 8.3zm-9.5 5.5c-1.9-.2-2.9-.2-3.8-.8-1.4 9.8-4.1 20.8-5.5 30.8-.5 3.3.4 8.1-2.3 9.5 1.9-14.3 4.5-26.6 6.6-40.5-1.5-.1-1.5-.4-3.2-.4-1.1 2.2-.6 4.7-.6 7-.4 11.1-3 23.7-4.3 34.4-1.1 1.9-2.5 3.4-3.8 5.1 8.6-2.7 14.6-8 21.6-12.3.2-9.9 2.3-20 3-31.2-2.5-.4-4.5-.2-6.6-1.1-1.3 9.3-2.8 19.9-4.4 28.6-.5 2.9-.6 6.3-3 8.1 3.3-11.4 4.1-25.3 6.3-37.2zm5.9 32.3c.2-.7 1.5-.2 1.9-.6 1.3-10.9 3.1-19.7 3.2-29.7-1.1.5-1-.4-2.1-.4-.7 10.8-2.9 20.9-3 30.7zm0 65.1c-.1 2.2-.9 4.4-1.1 6.6-.1 1.6.1 3.3 0 5.1v2.1c-.1 2.8-.6 6.5-.9 9.1-.1 1.2.2 2.9.2 2.8-.3 7.1-1.9 14.2-1.9 21.6.8-2 3.6-1.1 4.9-2.3 1.8.4 4.1.7 5.5 2.1 2.5-.5 4.7 1.8 7.2 2.1 1.2-2.3 2.2-4.7 3.8-6.6-1.3-2.9-3.1-6-4.5-8.5-.5-.3-1 .5-1.1 0-.2-.7.6-.4.4-1.1-2.1-4.9-4.1-9.6-6.2-14.4-1.4-3.2-4.6-8.4-.4-9.8-.3 1 .6.8.4 1.7 4.6 5.7 6.2 13 9.1 19.7 5.2-2.2 10.5-6.3 15.3-9.8-4-8.6-6.4-17.3-9.8-26.7.3-.7.7-1.3 1.1-1.9.7-10.3 2.1-21.9 2.5-33.1-1.2-1.2-1.8-3.2-3.6-3.2-.8-1.6-1.7-2.1-2.5-3.8-4.6-1.7-5.8-7.2-9.1-10.2-2.1-1.8-4.9-2-7.6-3.2-.8-.3-1.6-1.4-2.6-1.5-1.3-.1-3.5 1.7-5.1 2.8-1.6 1-3.4 1.7-4.7 2.5-2.4 1.5-4.5 3.5-7 4.9-2.8 1.5-5.7 2.2-8.5 3.6.2 1.5.4 4.6 2.1 4.9.3 0 1.5-.6 2.1-.9 1.8-.8 2.6-1.3 4-1.9 2.8-1.2 6.7-1.7 10-3 3.6-1.4 6.4-3.4 8.9-3.2-1.1 2.5-3.7 3.5-6.4 4.5-4.5 1.6-9.4 3.7-13.8 5.3-3.4 1.3-7 2-10 3.6 0 1.3 1.5 2.9 3 3.4.7-.5 1.4-1.8 2.1-1.5 0 .7-.5 1.6 0 2.1 3.8.6 8.1.8 12.3.4 3.3-.3 6.6-1.8 9.5-1.5-1.2 4.2-6.3 4.3-10.2 5.7-2 .7-3.9 1.7-5.7 2.3-2.1.8-4 1-5.9 1.7-5.4 2 1.2 4.7 3.8 4.7 1.5 0 3.2-.3 5.1-.4.2 0 .8-.2 1.1-.2 5.9-1.1 11.6-5.1 16.8-6.1.3 2.7-1.9 4.7-3.6 5.9-4.2 3-11.4 3.6-14.8 7.2 2.6 2.5 7.3.8 10.2 0 4.9-1.3 10.3-3.1 14.4-4-1 3.2-5.2 3.1-8.1 4.5 1.3 4.5 5.2 6.4 7.2 10.2-.5 1-1 2.1-2.1 2.5-2.2-1.3-3.8-3.1-5.7-4.7.1 2.8 0 5.1-.1 7.9zm-24.8-32.7c.3 1.7-.8 3.3-.4 4.9 3.2-2.6 8.9-2.9 12.7-4.9.3-.1 0-.4-.2-.4-2.9.9-8.6.4-12.1.4zm-23.1 183.7c-.2 10.7-1.9 21.9-3.4 31.4-.6 3.6-.1 7.2-1.1 10.6 1.6 14.5-.9 30.9-4.2 43.1 0 .2-.3.3 0 .4 2.6.8 4.4.6 6.2 1.3 1.1-9.9 3.7-19.1 4-29.1.1-3.8-.7-7.7-.8-11.7-.4-9.3 2.7-19 3.6-27.8.3-3.2 1.1-6.3 1.3-9.1.2-3.9-.4-7.6-.2-11.2.7-12.8 1.6-21.8 4-32.5 3.3-14.5 4.3-29.3 5.1-45.4.4-7.7 1.3-15.2 2.3-22.9 1.1-7.5 1.8-15.1 3.2-22.5 2.1-11.1 1.9-22.5 4.2-33.3.8-3.6.8-7.6 3-9.5.7 1.3-.3 2.4-.6 3.6-3.1 11.8-3 26-5.7 39.5-1.3 6.5-1.7 13.3-2.5 19.9-.9 7-1.8 13.8-2.1 20.6-.7 14.1-1.3 28.1-3.8 41.4-1.2 6.6-3.3 12.8-3.8 19.3-.5 6.7-1.3 13.4-1.7 20.2-.2 4 .3 6.3.2 9.8-.1 3-1 6.2-1.3 9.3-.3 3.5-.8 6.9-1.5 10.2-1.1 5.4-2.8 13.3-2.1 20.4.3 3.3.9 6.5.8 10.2-.3 10-3.5 20.3-4.2 30.5 2.1.3 3.8.3 5.3.4-1.8-11.4-.5-26.2 1.3-38 .6-4.1.8-8.4 1.3-12.5.9-7.9 3.5-15.5 4.9-23.3.7-3.9.5-8.2.8-12.3.4-4.2.8-8.4 1.3-12.5 1.1-8.4 3.3-16.7 3.6-24.8 1-22.3 2.5-44.5 4.7-66.4 2.1-21.8 4.1-43.5 8.7-64.3 1.6-.7 2.4-2.5 4.3-3.6 3-1.8 7.6-3.2 10.8-4.5 1.1-.4 2.7-.9 3.2-2.1-3.2-.3-6 2.4-9.3 3.6-5 1.9-12.9 3.7-18 1.9-1.1 7.2-1 13.3-2.7 19.1-.8 2.6-1.3 5.1-1.7 7.9-.7 4.7-1.4 9.5-2.1 14-.7 4.6-1.6 9.3-1.9 14-.3 5.1-.9 10-1.5 15.1-.6 4.5-.4 9-1.5 13.6-.7 2.7-1.2 5.2-1.7 7.8-.4 2.2-.3 4.3-.4 6.6-.4 5.1-1.5 10.3-1.7 15.5-.2 5 .4 10-.8 14.9.7.3-.5 3.1.4 5.1-.9 4.4-1.3 8.9-2.5 13.4.1.1 1.4-.3 1.7 0-.2 2-2.1 2.9-2.8 4.9-.7 2.2-.5 5.2-.8 7.9-.4 2.8-.6 5.6-.8 7.8.9.5 1.3.3 1.9.8-1.2 1.1-2.2 2.1-2.9 3.3zm-61.8-165c-.2-1.5-1.6-1.5-2.8-1.1-.3-.3-.2-.9-.2-1.5-.4-.3-1-.4-1.5-.6-.8 1-1.4 2.2-3 2.5-.6-.7-.3-1.4-.9-1.7-.5 1.4-1.6 2.3-2.8 3-.5-.9-.5-1.4-.4-2.6-1.1.3-1.3 1.5-2.8 1.5-.3-1-.8-1.9-1.3-2.8-.5.7-.9 1.2-1.9.8-.2-1.6-1-2.7-1.3-4.2-.9.1-.9 1.1-1.9 1.1-1.4 0-1.3-1.5-2.1-2.1-1.1.4-2.1 2.6-3.8 3.2-.4 1.8-1.3 3-2.3 4-.1 2.4-.1 6.5-3.2 7.8-.8 4.8-2.7 8.6-5.5 11.5.1.9-.3 1.1 0 1.7-2.2 3.1-3.9 6.6-4.9 11-.7 3.2-.5 5.7-1.5 8.5.3.8.7 1.6.6 2.8-.9 1.1-1.4 2.6-3 3 .4-.4.1-1.3-.4-1.5-1.4 2.7-.9 6.3-.2 8.9 0-.2.7-.6.6-.2 0 .8-.5 1.2-.8 1.7-.1 17.1 9.6 28.9 18.2 39.9 1.7 2.8 3.7 5.2 5.7 7.6.2-.4.4-.9.8-1.1.5.3-.2.8.2.9.5-.9 1.1-2.7 1.9-2.6-.9.9-1.6 3-1.1 4.7.3.2 1-1 1.3-.6 0 .8.2.1.6.2-.1.1-.5.8 0 .8 0-.2.6-.9.6-.4-.3.1-.3 2.3 0 1.7 0-.9.3-1.6 1.1-1.7-.4.8.5 1.3-.2 2.3.5.5.4-.3 1.1-.2-.1.9.3 1.4.9 1.7.3-.4.6-1.1 1-.6.1.3-.2 1.1.2 1.1.1-.3.3-.5.6-.6 0 1.5 2.3 1.7 1.1 3.2 1.1.4 1.1-.2 1.9-.4v1.7c.5.7.8-.8 1.1-.2v.6c1.3-.1 2.4.6 2.3 1.7.5-.3.9-.5 1.7-1.1-.4.7.1.2.4 0-.1 1.1.4 1.6 1.1 1.9 0-.9.5-1.3 1.1-1.7.2.6-.4 1.5 0 1.5-.1-.3.6-.7.6-.2.1.6-1.2 1.6-.6 1.3.7-.3.8-1.2 1.7-1.3.5.2.8-.1 1.1.6.5-.9 1.3-.3 2.1-1.1-.2-1.4 1-3.9 1.3-2.3.1-.2.7-1 .8-.4-.5.8-.7 1.8-1 2.8.5 0 1 0 1 .4-.9 1.3-2.3 4.1-4.2 3.2-.2-.1.1-.6-.2-.6-.2 0-.6.7-.9.4-.2-.5.7-.9.2-1.1-.3.4-1.2 1.3-1.5 1.1.2-.2.9-1 .4-1.3 0 .5-.7 1.2-.8.8-.2-.5.7-.9.2-1.1-.5 1.8-5.3 1.3-4.9-.6-.7-.1-.8.3-1.3.4-.2-1.5-1.3-.8-1.7-1.3-.2.3-.2.9-.8.8.9 3.2 2.6 5.8 3.4 9.1 1.4.5 2 .8 3.2 1.7 0-.9.5.2 1.1 0 1.2-1.6 2.5-3.1 4.5-4 2.9.3 5.3.4 8.7-.2.7 2-1.7 2.6-1.5 4.9 2.3-1.1 3.3-3.5 5.9-4.2.2-3.3.2-7.8 1.1-10.2-1.8 1.4-3.8 3.7-6.4 3.6-.6.9-2 2-3.4 1.3-.2-.6.9-1.1.4-1.3-.3.7-1.9 1.8-1.9.9-.3.3-.9 1.4-1.3.8.7-1.5 1.7-2.7 2.7-3.8-.2.7 2.1-.4 1.5-.6 0 .2-.2.3-.4.4 1-1.1-.1-4.3 1.7-4.7.1 1.2-.6 3-.6 3.8.3-.5.7-1.5 1.3-1.1-.2.1-.5 1.2 0 1.3.7-.4 1.3-2.7 2.3-1.5.2-1.8.3-3.8 1.7-4.5.8.3.5 1.7 1.5 1.9.2-1.1.5-1.9 1.5-2.1.4.5 0 1.7.4 2.1.5-1.3 1.6-2 2.8-3.4 1.3-1.6 2.4-4.8 3.6-4.5.5-1.6 2.2-3.5 3-4 1.6-1.1 4.1-3.9 5.9-5.9 6.4-7.1 11-15.3 11.7-26.5-.3-.4-.6-.8-.6-1.5.3-.7.5-1.5 1.1-1.9 1.3-11.4 3.2-23.7 4-35.2-.6-1.9 0-3.4-.9-5.3-.7 0-.7.7-1.5.6-.6-1.5-.4-2.7-1.1-4.2-.9.1-.9.9-1.9.9-.8-1.3-.2-3.7-.6-4.7-.7 1-1.6 1.8-3 2.1-1-1.2-.5-2.7-1.5-4-5 4.2-7.2-2.5-10.8-3-1.4.8-3 1.7-4.7 1.7-.4-1.1-.8-1-1.1-2.3-1.4.6-1.6-1.1-3-.4-.1-.4.3-1.3-.2-1.3-.9.8-1.9 1.6-3.4 1.3.1-.8-.6-.9-.4-1.7-.7.2-.7 1.1-1.9.8-.7-2.5-2.8-3.6-5.1-4.4v-1.1c-.8-.1-.8.7-1.9.4.1-.4-.3-.4-.4-.6.2-.1.7-.8.2-.8-.7.1-1.7.9-2.1.6.6-.6-.4-1.2-1.4-.8zm3 117.1c.2-.3 1.2-.9.6-1.3 0 .5-1.2.8-.6 1.3zm94-115.2c-1.2 13.9-4.3 27.7-4.4 42-.2 14.8-.5 29.6-1.9 44.3-.7 7-1.9 14-2.8 21-.9 7.2-.9 14.5-1.5 21.6-.5 7-1.9 13.7-2.7 20.4-.9 6.9-.8 13.5-1.1 20.4-.3 7.5-2.4 15.5-3 23.5-.6 8.4-3.4 16.2-3.4 23.8 0 1.6.4 3.2.4 4.9.4 9.4-.6 17.9-.2 28 1.9.3 1.8-.1 3.4 0-.2-1.2.2-2.2.2-3.4 0-1-.5-2.1-.4-3 .1-1.2.6-2.1.6-3.2.2-4 0-6.8.4-10 .6-4.4 1.8-8.6 2.3-13.4.1-.9-.3-1.7-.2-2.5 0-.6.6-1.2.6-1.7.3-2.7 0-6.8 0-9.3 0-5.6.8-11.1 1.5-16.3 1-7.8 1.7-15.3 3-22.9.1-.5-1 .5-1.1-.2 2.2-2.8 1.8-5.4 2.3-9.1.3-2.1.9-4.3 1.5-6.8.2-.8.7-1.6.9-2.3 0-.3-.5-.5-.4-1.1.1-1.2.4-2.2.4-2.8.2-2.8.2-5 .4-7.4.4-5 .4-10.8 1.5-15.7.3-1.3 1-2.4 1.3-3.6 1-4.7.7-8.5 1.3-13 .2-1.8 1-3.4 1.3-5.1.4-2.1 0-4.1 0-6.4 0-4.2 1.1-8.4 1.5-12.7.4-4.4 1.1-8.7 1.5-12.9 1.4-7.9 1.6-15.4 1.9-24 .1-1.5.6-2.9.6-4.4 0-.6-.2-1.3-.2-1.9.1-8.8 1.8-16.9 2.3-26.3.1-1.8-.2-3.7 0-5.1 0-.2.6-.3.7-.6.6-2.3.9-3.8 1.9-5.3 0-.1 0-.2-.2-.2-3.6 1.4-6.6 2-10.2 2.7zm-4.5 0c-5.3 27.8-7.4 56.9-9.8 86.6-.3 3.7-.9 7.5-1.1 11.2-.2 3.8-.1 7.7-.4 11.5-.7 7.5-.6 15-1.7 22.3-1.6 10.8-3.5 21.8-4.3 31.8-.3 3.7-.1 7.4-.6 11-.9 5.9-2.8 11.9-4 18-1.2 6.2-1.4 12.8-2.3 19.3-1.8 12.6-3.3 27.2-.6 38.4 2.3-.2 4.6-.2 7.2-.2 0-5.6 0-10.9.2-16.1.3-5.6-.6-11.2-.2-17.2.4-7.2 2.9-14.3 3.4-21.9.5-7.6 2.3-15 2.8-22.5.5-7.8.1-15.3 1.3-22.9 1.1-7.3 2.2-14.4 2.8-21.6.5-7.2.9-14.4 1.7-21.4.8-7.1 2.3-14.1 2.8-21.2 1.5-21.3.7-43.8 3.8-64.7.9-6.3.8-13.1 2.3-18.5.2-.6.8-1.2.4-1.9-1.9-.6-2.5.6-3.4-.6-.3 0-.3.3-.3.6zm-44.9 16.1c.3-.3.2-1.1-.4-1.1-.1.6-.1 1.1.4 1.1zm-105.1 7.7c-4.3 5.8 1.7 15.2 8.1 12.1-.2-1.1-.8.6-1.1 0-.3-1.2 0-4.2.2-6.2-.4 0-.5.2-.9.2-.5-1.3.6-3.6-.2-4.7-.8 1-1.2 2.3-2.8 2.6.1-.7-.1-1-.2-1.5-.3-.6-.9.4-1.1-.2-.1-.9-.6-1.3-.4-2.5-.6-.2-.9.2-1.6.2zm198.8 10.8c-5.1 3.1-10 6.4-14.9 9.8 1.1 2.6 2.4 5 3.2 7.8.4.4.5 0 1.1 0-.6.5-.4 1.1-.2 1.9.7.1.8-.5 1.3 0 3.8-3.6 8.6-6.2 13.6-8.7-1.5-3.5-2.8-7.2-4.1-10.8zm-7.6 23.5c.5 1.6-.7 2.3-.8 4 4.7-3.4 10.6-5.5 15.5-8.7-.2-2.5-1.6-3.8-2.1-5.9-2.6 1.1-4.8 2.4-7 3.8-2.2 1.5-4.5 2.7-6.8 4 0 1.4.9 2 1.2 2.8zM305 167.3c-.4-.1-.4.3-.7.4-.7-1.2-3.2-1.6-4.4-1.7-1.1-1.4-2.9-.8-5.3-.9-.5-1-3 .6-4.2-.2-2.4.8-6.4-.8-9.5.6 3.6.4 5.2.2 8.3 1.1 4.3 1.1 8.9 3.3 9.5 6.4-.2.4-.5.7-.8.9-.6-.3-1.5-.4-2.3-.4-5.2-3.3-11.1-6.1-18.5-5.3-8.2.9-14.6 6.4-19.5 10.4-.4 0-.5-.2-.8-.2-8.7 7.3-12.9 19.2-19.3 28.8-1.3 6.4-4.6 10.7-5.5 17-3 8.3-5.2 17-6.6 26.7 1-1.1 1.8-2.4 3.4-3 .1 4.9-2.1 7.6-4.9 10.2-1 11.1-2.3 19.6-1.9 31.6.8-1.4 2.4-2.2 2.8-3.6.3-1.3.1-.4.8-.7.6-.1 1.1-1.6 1.7-1.5-.1.7.1 1 .2 1.5-.1.1-.4-.2-.4-.2-.8 2.1-1 5.6-2.1 7.6-.1 4.2-.4 9.2-2.8 12.1 0 1.8.2 2.1.2 3.8l.6.6c-.3 0-.2 4.6 0 5.3.1.2.6.4.6.6.1.4-.3.9-.2 1.3.3 2.4 1.5 4.6 1.1 7 1.6 2.9 1.6 8.9 3.8 11.9-.5.8.7 3.2 1.1 4.7 0-.2.2-.2.4-.2 0 1.9 1.8 5.2 2.1 5.5v1.1c.4.1.5-.3.6 0-.4 1.6 2.2 3.8 1.7 4.9 2.9 3.2 4.8 8.6 8.1 11.4.3 1.7 2.5 3.3 3.4 5.1.1-.2.3-.5.4-.2.1.3-.3 1.1.2 1.1 0-.3 1.7 1.1 1.3 1.7 2.3.7 2 3.9 4.5 4.5.6 1.4 2.2 2.8 3.6 3.2-.5.5.8 1.4 1.3.8.1 1.9 3.2 2.1 4 4.2.5-1.1.9 1.2 1.5 1.5.2-.4-.6-.7 0-.8.4 1.2 1.8 1.6 1.9 2.5.9-.1.6-.1 1.3.4.3.2.4 1.1.8 1.5 1.2 1.2 2.6 1.1 3.2 2.6.4 0 .5-.2.9-.2.4 2 2.6 1.1 3.2 3h1.1c1.2 2.3 4 2.6 5.3 4.7.8 0 .7.3 1.1-.2v.8c.4.1.4-.3.6-.4 1.3 1.8 4.1 2.4 5.7 3.8 0-.2 0-.4.2-.4.3.5.5.9 1.3 1.5.2.1 2 1.3 1.7.4 1.2 2.2 3.8 1.7 4.7 3.4 0-.3 0-.6.2-.6.2.3.2.5 0 .9 1.6.1 1.6 1.3 3 1.1.1.3.3.4.2.9.4 0 .5-.2.8-.2.1 1 1.5.7 2.1 1.1.6.3 1.1 1.3 1.9 1.7.2.1.6-.3.6-.2 1 .5 1.4 1.3 2.1 1.9 1.4.5 2.8.9 3.4 2.1 1.2-.6 2 2.1 2.8 1.3 2.6 2 6 3.5 8.5 5.5 0-.2 0-.6.2-.6 1 1.4 2.9 2.5 4.7 3v.6c3.1 1.4 4.3 2.6 6.6 4.2 0-.2.2-.3.4-.4 0 .4 0 .7.2.9 1.7-.5 2.6 1.8 4 1.5.4 1.4 2.8 1.2 3.4 3 1.2 0 2.4.3 3.6.6 0-.2 0-.6.2-.6 0 1.1 1.3.5 1.9.6 1.6.5 2.7 1.2 4.7.9-.1.3-.3.4 0 .6 2-2.1 1.7-6.5 3.4-8.9.5-4.3 3.3-7.5 5.1-11 4-8.1 7.7-15.9 12.7-23.3-1.9-1.4-4.1-2.6-5.5-4.5 0 .2 0 .6-.2.6.1-1-1.2-.6-1.1-1.7-.4 0-.5.2-.8.2.1-.5.5-.9-.2-1.1 0 .4-.2.5-.4.6.3-1.6-2.9-1.4-1.7-2.5-1.1 0-2.1-.6-1.7-1.5-.4-.1-.4.3-.6.4-.4-.4-.5-.6-.2-1.3-.7-.3-.2.7-.8.4 0-.4 0-.7-.2-.9-1.5-1.3-4.5-3.2-5.9-5.3-1.7-.7-2.6-2-3.6-2.8-.6-.5-2.1-.7-2.3-2.1-.8-.1-.8-.3-1.5 0-.5-1.7-2.7-2-3-2.8.3.1 0 .3-.4.2v-1.1c-2.7-1.3-4.4-3.2-6.1-4.7-.6.4-1.9-.7-2.3-1.1-.4-.3-.5-.1-.6-.2-.2-.2-.1-.8-.4-1.1-.5-.5-1.8-.2-1.5-1.3-1.7.1-2.5-2.3-4-2.1-.1-.4-.6-.4-.4-1.1-1.2.4-1.3-1.3-2.3-.4-.2-.7-.2-.4.2-.8-1.5-.9-3.8-2.2-4.2-1.9-.3 0-.2-.5-.2-.8-2.5-.6-4.1-2.6-6.4-2.8-.1-1.8-2.9-.9-3.4-2.3-1.8-.3-4.1-.6-5.3-1.9 0 .4-.2.6-.4.6-.3-1-3.1-1.4-3.4-1.1-.3-.6-.8-1-1.5-.6-.1-.7-1.6-1.2-1.5-.6-.2 0-.2-.3-.2-.6-2.1-.2-5.1-.4-7-1.9-4-.6-7-1.8-11-2.8 1.6-3.2 3.2-6.4 5.9-7 .2-.1 1.1.5 1.7.4 2.8-.4 6.3 1 8.7 1.5.4.1.6-.5.9-.4.7 0 .9 1 1.5.6-.8-2.3-2.5-3.7-3.6-5.7-.9.2-1.1-.3-1.3-.9 1-3.4 3.1-5.6 5.9-7.2 1.5.8 2.4 3.1 3.8 3.4.9 1.7 1.9 3.3 3.2 4.7v-.4c-.3-.4 1-3.7 0-5.3-.1-.2-.5.1-.6-.2-.2-.7-.2-1.4 0-2.1-.4-.1-.5.3-.6 0-1-4.8.7-12.8.4-19.1.7-.8 1-2 1.1-3.4 4.1-4.8.9-14.3 1.7-19.5-.5.1-.8-.1-.8-.4 1.4-2.7.3-4.9.8-7.4-.6.1-.4-.4-.6-.6.5-3-.9-5.7-.4-8.9-.5-.2-.6-.8-1-1.1 1.6-2.3 3.2-4.6 5.3-6.4.4.1 1.2-.3 1.3.2 0 5.3.8 9.9 1.3 15.7 1.7-1.2 3.4-3.4 5.3-3.6-1.4 2.8-3.3 5.1-5.7 6.8-.4 1.5.6 1.8-.2 2.5.8 3.1 1 6.4 1.3 9.3-1 5.6-4.3 10.7-3.4 17.2-1.4 3.5-.9 8.7-.4 12.9.8.9 1.5 2.3 1.7 3.6.2 1.6-1.1 6.1-1.1 7 .2 5-.3 9.6-2.1 13.8.7-.1.6.5.8.9 1.1-.4 1.4.1 1.7.6.6.1.4-.4.8-.4 1 1.3 3 1.4 4.9 1.9.3.9 1.5.6 2.3 1.1 1 .6 1.9 2.1 3 1.7-.1.5.1.8.4.8.6-.6 1 .7 1.1-.2.3 0 .2.5.2.8 3.2 1.1 5.5 2.9 8.3 4.9 4-22.2 17.2-38.2 32-50.9-2.1-5.1-2.3-10-4.9-14.6.2-.2.3-.6.2-1.1-.4-.1-.5.3-.6 0 .2-2.3-2.7-4.2-2.1-6.8-1.1-.2-.3-1-1.3-1.3.4-2.2-2.4-4.8-2.1-7-.2 0-.6 0-.6-.2-.4-3.1-2.1-4.9-3.8-7.9-.9 1.4-2.2 2.5-3.4 3.6-.3-.5-.5.3-.7-.2.6-1.3-.7-1.6 0-3.2-1.3-1.7 0-5.7-1.9-6.6-.2-3.7-4.8-2.1-7-3.4-4.1.8-9.2-.7-14.2 1.7-.1-.4-.4-.6-.6-.8.4-2.6 1.8-5.9 2.3-8.5.3-1.7 0-3.5.4-5.3.7-2.9 2.8-5.7 2.1-9.3-3.2-.4-5 .2-7.2-1.1-2.6.6-4.6-1.7-6.8-1.1-.7-.6-2.5-2-3.2-1.3.1-.7-.8-.3-.2-.8-.8 0-.8-.3-1.5 0 .2-.7-.6-.4-.6-.8-2.9-.3-5.4-2.8-8.1-3.4.2-1.1-.7-.1-1.1-.8 0-2.6 2.1-4.4 3.8-6.6 2.2-2.8 4.9-6.7 6.8-10 .9-1.6 1.4-3.5 2.1-5.1 1.3-2.5 3.6-7 2.5-10.2.8-.7 0-1.8.2-3.6-.3-.5-.4-.1-.6-.4-.2-3-1.1-4.9-.6-7-1.5-.7-.9-4.2-.2-5.3-1.9-.2-3.2-1.8-4.7-3.2-.5-.2-.9.7-1.1.2.6-.5-.8-1.4-.6-.6-1-.4-1.3-.6-1.4-1.1zm-46.3 9.4c.9-1 2.1-1.7 3-2.8-1.2.5-2.7 2-3 2.8zm231.4 3.8c1.3-.6 2.3-1.8 3.4-1.9-.4-.9-.6-1.9-1.7-2.1-.2 1.5-2 2.6-1.7 4zm-110.5 85c.4 7.5-1 14.3-.8 20.4-1.7 2.2-3.2 5.7-5.9 6.2.5-4.3.8-7.7 1.1-11.5.2-2.3 0-4.7.2-6.8.2-2.1 1.4-4 1.9-5.5 1.1-3.4-.3-9.2 0-13.6.7-.8.8-2.1 1.5-3-1.6-.8-2.7-1.2-3.8-2.3 0 1.2-.2.1-.6 0-1.2 1.6-2.3 3.3-4.2 4.2-.7-.8.4-1-.4-1.5-1.2 2-2.9 4.2-4.9 4.7.8-2.1-.3-3.8-.4-6.4-.2.3-.5.5-1.1.4 2.2 12 4.2 18.9 6.4 29.3-2.8 1.5-.5 3.5-.2 6.4.1 1.2 0 1 .2 1.5.9 2.6 1.6 4.4 2.3 6.8 9.7-8.4 20.4-16.8 30.5-24.6 3.6-2.8 7.2-5.7 10.2-8.9 3-3.3 4.7-7.8 6.8-12.3.7-1.4 2-2.7 2.5-4 0 0-.3-.6-.2-.9 1.2-3.7 4.7-7.2 7.6-10-1-8.4 2.1-19.3 1.3-26.7.7-1.9.7-3.9.8-5.9 3.1-7.4 2.3-15.3 3.8-24.6-1.5 1.8-3.3 1.5-5.9 1.7-.8.1-1.5.6-2.1.6-.6 0-1.4-.5-2.1-.4-1.8.1-3.8.7-5.1 0-1.7.8-3.1 2-5.3 1.3 1.8 10.7 2.8 21.4 7.8 29.9-1.5 3.9-5.5 4.1-9.1 5.5-2.9 1.1-5.4 2.9-8.3 3.8 3.4 2.7 7.4 5 10.8 7-1.1 3.6-4.8 4.9-7.4 6.8-1.6 1.2-3.2 2.6-4.7 4-3 3-6 5.5-8.7 8.7 0 .6.6-.5.4.4-1.5 3.1-3.8 7.2-7.4 6.8-2.8 3.9-5.1 8.3-7.5 12.5zm12.8-56.4c-2.1 2.1-3.2 4.3-4.5 7.2-1 2.5-4 4-4.7 5.9-1.2 3.7 0 8.3-1.3 11.3 3.1-1.4 6-4.5 9.5-3.6 1.3 5.2-.4 10.3 2.3 14.4 5.6-5 10.8-10.6 16.8-15.3-4.4-2.7-7.8-4.9-11.9-7.6 1.4-4.6 6.8-4.7 10.8-6.6 2.8-1.3 5.2-2.8 8.1-3.6-3.2-6.2-5.1-15-5.9-22.3-.3-2.8-1-4.9-1.3-6.6-.2-1.3.8-2.7 0-3.4-2.1 14.4-9.9 22.2-17.9 30.2zm-51 32.7c-.4-3.6 4.4-9.9 6.6-9.8-.1 0 1.4 1.5 1.9.8v.6c.4.1.4-.3.6-.4-.2.8 1 1.2 1.3.8-1.4-2.3-2.3-5-3.4-7.6.3-.4.7-.9.9-1.5-1.8-1.5-4.7-.3-5.7-3.2-.8.2-.6-.9-1.3-.2-7-9.1-14.3-18-20.2-27.8-1.2-2.2-2-4.8-3.6-6.6-2.8 10-9.1 18.1-14.6 26.1 1 1 2 1.5 3.4 1.7 1.5 2.1 6.3 2.5 9.1 4.9 1.1-.6 3 1.5 4.9 1.1v.6c1.8.2 3.2 0 4.2 1.1.7-.7 3 .8 5.1 0 .1 1 1.3.6 1.7.2.6 5-3.2 10-2.6 15.5-1.3 2.3-1.7 5.5-2.1 8.1 3 .1 5.5-1.9 9.3-.6 1.7-1.1 4.5 1 5.5-1.1-.6-.4-.9-1.8-1-2.7zm35.9-18.1c1.1.1 1-1.5.2-1.7.2.8-.4 1-.2 1.7zm-10 5.8c.4-.5 1.2-.5 1.1-1.5-.6.1-1.3 1.3-1.1 1.5zm-.8 0c0-.5 1.2-.9.6-1.3-.3.3-1.2.9-.6 1.3zm14.8 9.7c1.8-.4 2.4-.7 4.5-.4 0-.9.1-.5.4-.2.3-.6-.4-1.7-1.1-1.9-1.2.9-2.7 1.5-3.8 2.5zm-40.9 116.9c.5 1.6 2.2 2 3.6 2.8-.3.9.8.5.6 1.3 1.7.8 2.7 1.7 4 2.8.9.7 3 1.9 4.3 3.6 1.1.3 2.8 1.1 2.5 2.1h1.1c.4 0 .4 1 .6 1.3.7.7 3 1.8 3.2 1.9.5.5.8 1.5 1.3 1.9.4.4 1.4.7 1.9.8v.8c2.1.7 2.7 2 3.8 3.2.5.3.7-.8.9-.2.8 1.5 1.6 2.5 3.2 2.8 1.5 2.1 4.3 4.1 6.6 5.3-.2 3.4-3.2 5.5-4.4 8.5 1.8.6 2-.5 3.2-1.1-.1.6.4.5.9.6 4.1-1.2 9 .2 13.1-.6 1.3-.2 2.9-1.4 4.4-2.1 6-2.9 11.9-5.5 17.8-7.8.8-3.5 1.2-9.5 1.9-13.2-.5-.1-1.5.3-1.7-.2 1.5-6.6 2.9-14.2 4-21.6.5-3.2 1-7.2 1.1-10.6 0-3.1-.6-6.6-.6-9.8 0-1.1.6-2.2 0-3.2 1.1-12.7 4.1-27.6 4.4-41.8.7-.3 1-1 1.5-1.5.2-9.4 1.6-17.8 1.3-27.8.3-.4 1-.4 1.5-.6.5-2.1.7-5.2 1.3-8.3-1.9 1.5-2.8 3.7-5.9 2.8-9.2 20-28.4 30-43.9 43.7-5 3.3-9.2 7.8-13.8 12.1-4.5 4.2-9.6 7.7-13.4 12.5-3.9 5-7.2 12-9.3 18.3-2.2 4.8-2.5 9.3-3.2 14.6 0 .6.9.4.8 1.1-.4 1.3-1.4 2-1.9 3.2.7.5 1.5.9 2.3 1.3-.4.4-.1 1 0 1.5.4-.1.4-.6 1-.4zm14.8-101.6c.1.5.4.9 0 1.3.6.1.4-.4.9-.4.5 1.3.3 2.8 1.5 2.5.1 2.2 1.5 4 1.9 6.2 0-.2.4-.3.4 0-.5.6 0 1.5.6 1.7 0 .3-.1.5-.2.6 2 2.2 1.7 5.4 3.6 7.6-1.3-7.4-3.7-17.3-4.9-23.1-.9 1.5-2.5 2.4-3.8 3.6zm23.4 10.8c2.1-3.9 4.3-7.7 6.8-11.2-3 0-4.5-1-6.8-2.1-.3 4.5-.3 8.9 0 13.3zm37.5 105.5c-.5 3.5-.9 7.3-1.5 10.8 0 .6.4-.3.8 0-.3.6-.9.8-1.1 1.5 2.7-1.1 4.9-.5 8.1-.8.2-3.4.6-7.7 1.3-11.2-2.1-.8-5.1-.5-7.6-.3zm8.7.8c-.4 2.7-.4 7.7-1.5 10.8 2.9.1 4.7-.1 7-.2.4-4 .3-6.9.6-11.2-2 .5-4.1-.1-6.1.6zm8.5-.4c-.3 3.4-1.4 7.4-1.7 10.8 2.8-.2 5.7.1 8.1.2.6-3.4.3-7.8.8-11.2-2.4.2-4.2.2-7.2.2zm7 12.1c3-.2 4.3 2 7.2 1.3.2-4.4.1-7.4.6-12.3-1 .4-2.3-.3-3.4.2-.2-.5.6-1 0-1.3-.5.5-1.6-.1-3 0-.5 4 .1 9.5-1.4 12.1zm-18.7 2.3c0-.3 0-.7-.4-.6-8.3-1-13 3.1-18.9 5.7-.1 0-.2.2 0 .2s.3-.2.4-.2c-1.8 4.1-7.4 5.6-12.5 5.7-1.2.7-1.4 2.3-2.8 2.8-3.2-1-7.4-.7-10.4-1.1-3.4 7.9-6.2 16.3-8.1 25.7 1.6 1.3 6 .3 7 1.5 3.3.2 5.7-.4 8.3-1.3 5-1.7 10.5-2.4 16.4-2.5 0 .4-.2.5-.2.8 2.8 0 5.2-1.8 8.1-2.3.2-.9.1-2.1 1.5-1.9.2.9-.5 1.4 0 1.9 1.7-.3 1.9-2.2 3.6-2.5.2 1.1-.3 1.5-.2 2.5 1.1-.1 1.8.8 3.2.2 4.9 4.9 10.9 9.1 15.3 13.8-.2.8-.9 1.1-1 1.9.8.8 1.2 1.9 1.9 2.8.1-.3.3-.5.6-.6 2.4 2.8 3 6.7 3.2 10.8 3.4-6.2 6.8-18.3-.4-21-1.4-5-5.8-7-7.8-11.5 1.1-3.7 5.5-2.9 8.5-1.5.7-1.9 1.9-3.3 3-4.9.4-3.4 3.6-5.6 7.4-4.2-1.2-1.4-2.8-2.4-3.6-4.2.8-.8 1.1-2.1 2.5-2.3 1.4 2.6 4.5 3.6 6.1 6.2 1.7 2.6 3 6.8 3.4 10.6.3.6.4-.7 1.1-.4 1.2 1.9 2.4 3.6 2.8 6.4.9-.8 1.9-1.5 2.6-2.5-.8-7.3-2.6-12.8-6.4-17.4-2-5.6-5.4-9.7-8.5-14.2-6.3-1.2-10-2.6-15.9-2.1-.1-.7.5-.9-.2-1.1-3.8.5-6.2-.2-9.6.8zm-50.2 12.1c-3.2 8.1-8.2 14.5-11.2 22.7 2.8-.4 4.2 1.1 6.8 2.1 1.9-8.5 4.7-16.1 6.8-24.4-1.1 0-1.4-.6-2.4-.4zm73.1 11c-.8.1-.9-.6-1.7-.4-.1.9 1.5 1.2 1.7.4zm-2.3 3.9c-.3 1.5-.9 2.6-1.1 4.2 4.1 1.4 6.2 4.8 6.4 10.2 2 3.8.1 10.6 2.1 14 2-2.7 3.4-5.8 3.8-10.2.6-5.7 0-16.2-2.3-20.2-.3-.4-.7.8-1.5.6-2.8-2.6-4.9 1.9-7.4 1.4zm-3.8 2.1c.2.3.6.4.4 1.1.4 0 .7 0 .8.2.4-1.6 1.3-2.7 1.9-4-1.1.3-.5-1-1.3-1.1-1.1.7-1.5 2.2-1.8 3.8zm-.6 33.9c-.2.7-1.9 1.8-1.1 2.1 1.9-1.3 2.8-4.7 2.8-7.2-.5 1.8-1.9 2.7-1.7 5.1z"/><path class="st0" d="M385.6 195.1c.1.3.3-.1.7 0-.8 2.1-2.8 3.1-3.8 4.9-6.3 4-20.3 2.3-25.3-3.2-.8.4-2.8-.6-2.1-1.7-2.6-.6-3.2-2.4-5.7-3.4-.8 1.4-1.4 3-2.3 4.3-.6-.3.4-.7.2-1.3-.4.2-.3.9-1 .8.9-2.7 1.9-5.2 3.4-7.2-1.5.5-2 2-2.8 3.2.2-3.2 4.2-4.3 6.2-5.5-.5 1.4-2.1 2.7-2.8 4.2 1.1-.2 1.4-.1 2.5 0 .4.5 0 1.4.9.9-.1 1.7.9 2.3 2.1 2.8-.3.7 1 2.5 2.8 1.7-.4 1.5 1.4 2 3 2.5.7-.2.4-1.3 1.5-1.1-.6 1.2 2.2 2.6 2.8 1.9 1.9 2.2 5.2 2 8.9 2.1 1.2-.8 1.6-.9 3.6-.8.8-.3.6-1.6 1.7-1.7-.5.8.2.8.6 1.3 1.5-.5 1.9-2.9 1.5-4.7-1.3 0-2.1.6-2.6 1.5-.5-.1-.2-1.1 0-1.3-1.2.3-2.2.9-2.8 1.9-.6-.2.2-.7.2-1.1-1.5.5-4.3 1.1-5.5 0 .3-.4.6-.8 1.1-1.1.6 0 .9.4 1.5.4 5.1-1.6 10.8-3 15.1-4.7-2.2-1-3.5-.2-5.1.4 0-.6-.5-.6-.4-1.3-.3.8-.1 1.1-.6 1.9-.6.1-.7-.3-.6-.8-.9 1-1.3-.1-2.3.8 0-.6-.5-.7-.4-1.3-.9 0-.5 1.3-1.5 1.3v-.6c-1 1.5-3-.1-3.8 1.5-.5-.1-.1-.9 0-1.1-.1-.3-.8.2-.6-.8-.6.4-1.1.9-1.5 1.5-.4-.2.1-1.1.2-1.5-.9.3-1.1 1.2-1.7 1.7-.5-.3.1-1.3.2-1.7-.2-.6-.5.5-.6.6-.5 0-.1-.8-.2-1.1-.6.3-.6 1.3-1.5 1.3.2-.4.2-1 .4-1.5-.5.5-1 1.1-1.5 1.7-.6-.2 0-1.1 0-1.5-.3-.7-.5.4-1.1.2.1-.5-.1-.6-.2-.8-.3.1-.5.3-.6.6-.3-.1-.2-.5-.2-.8-.3-.6-.4.7-1.1.4 0-.5 0-1-.2-1.3-.4 0-.7.1-.8.4-.6-.1.2-.5 0-.9-.2 0-.4 0-.4-.2-.5 0-.7.3-.8.6-.5 0 .2-.6.2-.8-.7-.6-.7.7-1.5.6.3-.5.8-.9 1.1-1.5-.7.5-1.5 1-1.9 1.7-.3-.9 1.1-1.9 1.5-2.8.6.2-.2.6-.2.9 1-.4 2.3-1.2 3.2-2.6 2 .6 3.7 1.6 5.3 2.6 4.6-.4 8.3 2.1 12.3-.9.5-1.4 1.3-2.6 2.1-3.8-.4-5.4-5.2-9.5-1.9-14.4-.2-2.8-.8-5.8-.4-8.3.8-5.6 7.6-7.6 11-10.6 4.3-.8 8.7-3.3 13.4-1.5 0 .4.6.3.4.9.7-.1 1 .1 1.5.2.1.5.6.7.2 1.1.7-.2.9.2 1.3.4.2.7-.3.7-.4 1.1.2.3.7.3 1.1.4-.2 1.1-.2 1.5.8 1.7-.3 1.1-1 1.8-1.9 2.3-1.3-.6-2.9-.9-4.7-1.1.1-.3.3-.5.4-.8-.8 0-2.3 0-1.7-.6-5.4-2-11 .1-15.1 2.3-.5 0-.3-.2-.2-.4-1.4.5-2.6 1.3-3.4 2.5.3 2-.6 5 .6 5.5.1 2.7-2.1 4.4-1.5 6.8.8 3.2 3.4 6.5 3.4 9.7 0 2.8-1.8 4.7-3.2 7 .2.2.8-.2.8.6.9.2.4-1 1.3-.8.3 1.7 1.8 2.3 3.6 1.5 1.7.8 4.3 3.5 2.3 5.3-1.2-.6-2.1-.3-2.3-1.9-2.1 1.3-3.1 2.9-4.2 4.4zm-36.5-4.9c.2-.9 1.5-1.7 1.3-2.3-.4.7-1.8 1.5-1.3 2.3zm1-.8c-.7.4-2.2 2.2-1.9 2.1.6-.5 2.3-2.1 1.9-2.1zm4.7-13c-1.7 2.9-5 6.1-8.5 8.1 1.8-3.7 5.9-5.2 8.5-8.1z"/><path class="st0" d="M355.2 186c.3-.4-.6 1.3-.8 1.7.7-.6 1.5-1 2.1-1.7.5.3-.5.9-.6 1.3.6-.4 1.1-.8 1.9-1.1-.5.9.6 0 1.1 0-.4 1.2-1.6 1.5-2.1 2.5-.6-.1.2-.5 0-.8-.6.4-1.1.9-1.5 1.5-.5-.6.9-1.3 1.3-1.7-.7-.1-2.1 1-2.8 1.7-.6-.1.3-.3.2-.7-1.5 1.6-.6-.5-1.7 1.1-.5-.4.7-1 .8-1.5-.8.3-1.3.9-1.7 1.5 0-1.2 1.6-2.7 2.3-3.8.3.3-.7 1.1-.8 1.7.6.1 1.4-1.4 2.3-1.7zm6.6 37.3c.2.6-1 1.6-1.3 2.3-.3-.6 1-1.6 1.3-2.3zm45.2 50.5c.2.2-.2 1.4-.8 1.5 0-.7.6-.9.8-1.5zm-46.3 193.9c2.4-4.7.8-11 1.9-16.1.5-2.4 1.7-4.4 3.2-6.6 1.9-3 3.9-6.3 7.2-7.2 2-.5 4.1-.1 6.4-.9.1.7 1.1.3 1.9.2 1 1.1 3 1 4.2.2 2.9 4.8-.6 11.4-4.9 13.4.5-1-.7-2.8-1.7-2.3-.1-.8-.1-.6 0-1.5-.2.1-.4.2-.4.4-.3-.7.3-1.5 0-2.8-.5-.1-.4.3-.4.6-2.9-2.5-6.9-.7-9.3-1.1-1.3 3.6-.6 7-.8 10.4-.3 4.5-2.3 8.1-2.6 13.1h-1.5c-.1-.3.3-1.1-.2-1.1.1.7-.6.6-.6 1.1-.8.2-1.6.2-2.4.2zm162.5-239.8c6.3 9.2 12.7 18.5 19 27.7 2.4 3.5 4.8 7 5.9 11.1.4 1.2.3 3-1 3.3-.9.2-1.8-.6-2.4-1.4-9-11.4-18.1-22.9-24.9-35.8 7.6 11.8 15.2 23.6 25.1 33.5-6.6-12.5-13.8-24.7-21.6-36.4 3.3 7.5 7.8 14.4 12.2 21.3 2.9 4.4 5.7 8.8 8.6 13.2-7.1-11-14.1-22.1-21.2-33.1 5.7 12.3 13.6 23.5 21.5 34.5-6.9-8.6-13.3-17.7-18.9-27.2 6.8 10 14.2 19.6 22.2 28.7"/><path d="M521.8 228.4c4.5 6.5 9 13.1 13.4 19.6 2.2 3.2 4.4 6.3 6.5 9.5 1.8 2.7 5.3 7.1 5 10.5-.2 1.8-1.5-1.1-2.3-2.1-1.1-1.4-2.3-2.9-3.4-4.3-2.2-2.9-4.5-5.8-6.6-8.7-4.8-6.5-9.2-13.3-13.1-20.5-.9.3-1.9.6-2.8 1 7.6 11.8 15.2 23.5 25.1 33.5.6.6 3.3-.1 2.8-1-6.6-12.6-13.9-24.7-21.7-36.6-.5-.7-3.2.1-2.8 1 5.5 12.3 13.6 23.4 20.9 34.7.5.8 3.3-.1 2.7-1.1-7.1-11-14.1-22.1-21.2-33.1-.5-.7-3.2.1-2.8 1 5.8 12.4 13.7 23.6 21.6 34.7.9-.4 1.8-.8 2.7-1.1-6.9-8.6-13.2-17.7-18.9-27.2-.9.4-1.8.8-2.7 1.1 6.9 10 14.3 19.6 22.2 28.7.7.8 3.4-.3 2.7-1.1-7.9-9.2-15.3-18.7-22.2-28.7-.5-.8-3.3.1-2.7 1.1 5.7 9.5 12 18.5 18.9 27.2.6.8 3.4-.2 2.7-1.1-7.9-11-15.7-22.1-21.4-34.3-.9.3-1.9.6-2.8 1 7.1 11 14.1 22.1 21.2 33.1.9-.4 1.8-.8 2.7-1.1-7.3-11.2-15.3-22.1-20.7-34.3-.9.3-1.9.6-2.8 1 7.8 11.7 14.9 23.8 21.5 36.2.9-.3 1.9-.6 2.8-1-9.8-10-17.5-21.8-25.1-33.5-.5-.8-3.2.2-2.8 1 4.6 8.6 10.1 16.7 16 24.5 2.8 3.7 5.8 9.2 9.5 12 1.2.9 2.6 1.5 4.1.7 5.1-2.6-2.2-11.9-4.1-14.7-6.4-9.5-13-18.9-19.5-28.4-.4-1.1-3.2-.2-2.6.8z" fill="#fff"/><path class="st2" d="M591.4 233.5c-10.7-13.2-21.3-26.4-32-39.6-10.3-12.8-20.4-25.8-26.2-41.4-.3-.8-2.7 0-2.9.6-1.6 4.6-4.3 8.2-8.2 11.2-1.2.9 1.7.7 2.3.3 3-2.3 5.4-5 7.1-8.1 5.7 13.7 14.6 25.5 23.9 37.1 11 13.7 22.1 27.4 33.1 41.1.7.5 3.5-.5 2.9-1.2zm-38.8 220.6c1.4-3.1 4.6-6 4.9-9.6.4-3.7-2.6-7.9-3.7-11.4-2.6-8.5-2.7-17.6-1.7-26.4 2.1-19.1 9.8-37.1 11.4-56.3 1.2-15.2-2.3-30.6-10.2-43.7.1-.6.2-1.3.4-1.9.1-.6-.9-.5-1.7-.3-.9-1.4-1.9-2.8-2.9-4.2-1.3-1.7-2.7-3.4-4.2-5 0-.3.1-.7.1-1 .1-.5-.7-.6-1.4-.4-3.1-3.3-6.6-6.2-10.3-8.8 0-.1-.1-.2-.1-.3-.1-.3-.4-.4-.9-.4-.4-.3-.8-.6-1.2-.8 0-.1-.1-.2-.1-.4-.1-.3-.5-.4-1-.3-7.9-4.9-16.6-8.4-25.8-10.2-.7-.1-3.1.9-2.4 1.1 9.2 1.8 17.7 5.3 25.3 10.2-.3 0-.6 0-.9.1-.6-.4-2.6.1-2.7.8-.5 4.7-.8 9.4-.6 14.1-.4 4.9-.3 9.8.2 14.7-1-1.3-1.9-2.6-3-3.8-.5-.6-3.3.4-2.7 1 2.4 2.9 4.6 5.9 6.6 9.1l.3 1.8c.1.3.5.4 1 .3 6.5 11.6 9.8 24.7 9.4 38.2-.1 2.3-.2 4.6-.4 6.9-.3.9-.6 1.9-.9 2.8-.1.4.2.5.6.4-.4 3.3-.9 6.5-1.5 9.8-1 1.6-1.9 3.1-2.8 4.7-.1.2.1.4.3.4.5.2 1 .3 1.5.3-2.2 11.1-4.9 22.2-6 33.4-3.4 35.4 3.9 71.4 20.6 102.7.4.8 3.2-.2 2.9-.8-9.2-17.3-15.6-36-18.9-55.2.2.1.4.1.7 0 .6 2 1.4 3.9 2.3 5.8.1.1.3.2.6.2-.5 1.2-.9 2.4-1.4 3.6-.3 1 2.5.1 2.8-.3 1.8-2 3.5-4 5.2-6.1-.1.5-.2 1-.2 1.5-1.7 4.2-3.3 8.5-4.6 12.9-.2.8 2.6.4 2.9-.4.5-1.7 1.1-3.4 1.7-5v.1c.2 1.3 3.1.6 2.9-.8-.3-2.6-.2-5 .2-7.4 1.8-4.3 3.7-8.6 5.9-12.7-5.9 16.4 4.2 34 14 47 .5.7 3.1-.5 2.9-.8-10.7-13.5-21.4-31.8-13.4-49.2zm.8-13.8c-.2 0-.5.1-.7.2-.1-1-.3-2.1-.7-3.2 0-.1.1-.2.1-.3.5 1.1.9 2.2 1.3 3.3zm-16.9-51.1c.2-.3.4-.6.6-1 .2-.1.3-.3.5-.4-.1.2-.3.4-.4.7-.2.2-.5.4-.7.7zm.9-10.1c2.1-1.7 4.1-3.6 6-5.4-1.4 1.5-2.7 3-4.1 4.5-.7.8-1.4 1.6-2.2 2.4l.3-1.5zm17.9-45.8c-.3.5-.7.9-1 1.4l.9-1.8c.1.1.1.3.1.4zm-9 83l-1 1c.5-.9.9-1.8 1.3-2.7-.1.5-.1 1.1-.1 1.6-.1 0-.2.1-.2.1zm-1.5-9.2c-2.2 5-5.2 9.6-8.8 13.7 2.1-5 5-9.6 8.8-13.7zM532.4 436c.1-.1.2-.2.3-.4 0 .3 0 .6.1.9l-.3.9c-.1-.5-.1-1-.1-1.4zm2.9-7.1c2.3-4.7 5.1-9.1 8.2-13.3-2.3 4.8-5.1 9.3-8.2 13.6v-.3zm11.1-37.6c-1.9 3.2-3.9 6.2-6.2 9 1.7-3.2 3.8-6.2 6.2-9zm7.1-25.8c-1 1-2 1.9-3 2.9 1-1.2 2.1-2.5 3.1-3.8 0 .4-.1.7-.1.9zm-7.6 18.1c-1.9 2.2-3.7 4.5-5.3 6.8-.2.2-.4.5-.6.7 2.4-4 5.1-7.6 8.3-11-.9 1.2-1.6 2.3-2.4 3.5zm.6 25.5c.2-.4.4-.8.6-1.1 0 .3 0 .6-.1.9-.2 0-.4.1-.5.2zm-9.4 4.6c0-.1.1-.1.1-.2l.1-.1c-.1.1-.1.2-.2.3zm-2.4-.3v-.1c.7-2.3 1.5-4.6 2.4-6.8 4.8-4.7 8.8-9.9 12.2-15.7-.2 1-.4 2.1-.6 3.1-5.5 5.9-10.2 12.4-14 19.5zm17.3-71.1c-1.6 3.3-3.5 6.5-5.5 9.5 1.7-3.2 3.4-6.3 5.3-9.3.1 0 .2-.1.2-.2zm4.2 3.8c-.1.6-.2 1.2-.3 1.9-1.6 1.6-3.2 3.3-4.7 5 1.7-2.3 3.4-4.7 5-7.1v.2zm-7.4 13.5l-1.7 1.7c1.6-2.3 3.4-4.5 5.2-6.6-1.1 1.6-2.3 3.3-3.5 4.9zM538.3 376c4.6-5.3 9-10.8 13.2-16.5 1.1-1 2.2-2.1 3.3-3.1 0 .3-.1.7-.1 1-4.7 6.8-10.2 13.1-16.4 18.7-.1 0 0-.1 0-.1zm9.3-1.7c1.4-1.6 2.9-3.2 4.4-4.8-.1.2-.2.3-.3.5-1.4 1.4-2.8 2.8-4.1 4.3zm-6.3 7.9c-.1.1-.1.1 0 0 .4-.6.9-1.3 1.5-1.9-.6.6-1.1 1.3-1.5 1.9zm-8.4 63.4v-.3c.1-.7.3-1.3.5-2 0 .5.1 1 .1 1.6-.2.3-.4.5-.6.7zm9.9-22.4c-1.6 3-3.4 5.8-5.3 8.6 1.5-3 3.3-5.9 5.3-8.6zm4.6-20.7l.2-.2v.2h-.2zm-6.7 5c2.2-3.5 4.7-6.9 7.4-10.1 0 .1 0 .3-.1.4-2.1 3.4-4.6 6.7-7.3 9.7zm10.9-91.8l-.9 1.2c.2-.7.4-1.3.6-2 .1.2.2.5.3.8zm2.1 10.7c0 .1.1.2.1.3.1.4.2.9.3 1.3-3.8 6.1-7.2 12.5-9.9 19.1l-2.1 3c1-3.1 2.2-6.2 3.4-9.2 3.1-4.6 5.9-9.4 8.2-14.5zm-9.6 35.1c.5-.6 1.1-1.2 1.6-1.8-.9 1.2-1.8 2.5-2.7 3.7.4-.6.7-1.2 1.1-1.9zm-7.5 84.7c0-.5-.1-1-.1-1.5.1-.1.1-.3.2-.4 3.4-4.6 6.6-9.3 9.5-14.3.1.8.2 1.5.4 2.3-.8 1.2-1.7 2.3-2.5 3.5-2.6 3.4-5.1 6.9-7.5 10.4zm10.5-22.8c-.8.1-1.7.7-1.6 1.4.1.7.1 1.5.2 2.2-.4.1-.7.2-.8.3-3.6 3.7-6.6 7.8-8.9 12.3-.1-.7-.1-1.4-.1-2.1 4-5 7.6-10.4 10.6-16.1h.6c-.1.7-.1 1.3 0 2zm0-115.9l1.2 1.2c-.7 1-1.3 2-1.9 3 .2-1.3.5-2.7.7-4.2zm2.5 3.4c-1.9 7.8-4.9 15.1-8.9 22 1.7-7.8 4.7-15.2 8.9-22.1v.1zm2.1 8c-2.3 6.2-5.4 12-9.2 17.4 2.2-6.2 5.2-12 9.2-17.4zm-7.1 18.2l-1.8 4.2c-.9 1.3-1.7 2.6-2.7 3.9.2-1.1.5-2.2.7-3.3 1.3-1.6 2.6-3.2 3.8-4.8zm-5.3 12.7c.2-.3.4-.5.6-.8-.2.5-.4 1.1-.5 1.6-.1-.2-.2-.5-.1-.8-.1 0-.1 0 0 0zm-2 33.3c-.4.6-.8 1.2-1.2 1.9.1-.4.2-.7.2-1.1.4-.3.7-.6 1-.8zm-.1 69.6c2.6-6 5.8-11.7 9.4-17.1.1-.1.2-.3.3-.4.3 1.3.6 2.6.9 3.8-4.1 4.6-7.6 9.6-10.4 15-.1-.4-.1-.9-.2-1.3zm7.1-145.6c-.1 1-.2 1.9-.4 2.8.1-.9.2-1.7.3-2.6.1 0 .1-.1.1-.2zm-16.3 2.3c0-3.5.4-7.2 1.2-10.8 0 1.2-.1 2.3-.1 3.5-.6 2.5-.9 4.9-1.1 7.3zm7.8 19.6c-.1.8-.2 1.7-.3 2.5V329c.1.1.2 0 .3 0zm1.7-14.9c.7-2.7 1.6-5.3 2.7-7.9-.8 3.7-1.9 7.3-3.1 10.8.2-.9.3-1.9.4-2.9zm1.8 10.3c1.1-2.1 2-4.2 2.7-6.4-.8 2.6-1.8 5.1-2.9 7.6.1-.4.2-.8.2-1.2zm.6 35.2c0 .1-.1.2-.1.4v-.2c.1 0 .1-.1.1-.2zm-4.8 106.6l.4-.4c.1.2.2.4.3.7-.2.4-.3.7-.5 1.1-.1-.5-.2-1-.2-1.4zm9.1-19.2c-.6.9-1.2 1.9-1.8 2.8.6-1 1.2-1.9 1.8-2.8zm7.2 2.1c.1.4.6.6 1.1.6-.3.5-.6 1.1-1 1.6-.3-.1-.9-.1-1.4.1l1.2-2.7c0 .2.1.3.1.4zm4.1-71.3c.6-2.8 1.3-5.6 2.1-8.4l-2.1 8.4zm4.5-39c-.1-.3-.4-.5-.8-.5-.1-.4-.1-.9-.2-1.3.5 0 1-.2 1.3-.5.2 1.6.3 3.1.4 4.7-.2-.8-.4-1.6-.7-2.4zm-20.4-39.4c.1-1.8.1-3.5 0-5.3.6.6 1.2 1.2 1.8 1.9-.7 1.1-1.3 2.2-1.8 3.4zm-2.9-7.3c0-.3 0-.6-.1-.9.2.2.4.3.6.5-.2.2-.4.3-.5.4zm-6 33.8v.8c-.1-.2-.2-.4-.3-.7.1 0 .2-.1.3-.1zm1.9 5.1c0 .1 0 .1 0 0 0 .1 0 .1 0 0 0 .1 0 .1 0 0zm4 10.4c-.1 1-.2 1.9-.2 2.9 0 .4.5.4 1.1.3-.2.9-.4 1.8-.5 2.7h-.1c-.3-1.9-.6-3.8-1-5.7.1-.1.4-.1.7-.2zm1.5 118.9c0-.4-.1-.7-.1-1.1 4.2-5 7.9-10.3 11-16l.3.9c-3.5 4.5-6.6 9.2-9.4 14.2-.6.7-1.2 1.3-1.8 2zm15.8-13.5c-.3-1.2-.6-2.3-.9-3.5.3-.5.6-1 .9-1.6.7 2.1.5 3.6 0 5.1zm-1.9-10.2h-.3c-.1-.5-.2-1.1-.3-1.6.2.5.4 1 .6 1.6zm-7-136.4c-.1.1-.2.1-.2.2-.2.3-.3.6-.4.9 0-.5 0-1-.1-1.5 0-.1 0-.3.1-.4.2.2.4.5.6.8zm-17.1-15.7c-.1.2-.1.4-.2.6 0-.1 0-.1-.1-.2v-.6c.1.1.2.2.3.2zm6.6 52.1c.3-.1.5-.2.8-.3 0 .9-.1 1.9-.1 2.9-.2-.9-.5-1.8-.7-2.6zm2.5 133.2c.4-.9.8-1.9 1.2-2.8.4-.2.8-.4.7-.6 0-.3-.1-.5-.1-.8 1.2-2.6 2.5-5.1 3.8-7.5 1.2-1.5 2.4-2.9 3.6-4.5-1.1 2.1-2.3 4.2-3.2 6.2-.6 1.4-1.2 2.7-1.6 4.1-1.4 2-2.9 4-4.4 5.9zM43.5 159.1c-8.7-2.7-14.9 6.9-14.7 15.1.2 9.9 7.8 18 17.9 17.1 10.2-.9 15.1-9.2 14.1-18.9-1-9.3-8.8-14.5-17.3-13.3zm3.7 30c-6.3.6-11.6-3.8-13.6-9.6-1-2.8-1.3-5.8-.9-8.7.4-3.1 2.3-9.1 6.3-9.8.1.6 1.4 1.1 2.5.7.2-.1.4-.1.6-.2.1 0 .2.1.3.1.7.4 2.3-.1 3-.7 13.8-.2 17 26.7 1.8 28.2z"/><path class="st2" d="M46.3 169.3c-.1-.1-.2-.1-.4-.2-3.9-1-10.3-1.1-11.4 3.9-1.2 5.1 3.2 10.2 8.3 10.2 4.4 0 9.9-3.1 9.6-8.1-.3-3.5-3-5.4-6.1-5.8zm-4.4 11.4c-2.1-1.2-3.6-3.6-3.8-6-.1-1.1 0-2.9.8-3.8.5-.5 1.1-.6 1.8-.6-.6.7 1 1.1 2.3.7.2-.1.4-.1.6-.1h.4c2.1.1 4.1 2.7 4.4 4.5.9 3.5-2.9 7.4-6.5 5.3zm8.8-31.4c-.7.4-.4.5.3.5-.8.3-1.5.7-1.4.9 2 3.6 5.2 4.5 8.7 4 3.2 7.7 6.2 15.4 8.9 23.3 1.4 4 2.6 8.1 3.8 12.2.8 2.7.5 5.4 3.3 6.2 1.8.5 5-.8 6.1-2.2 3.4-4.3-1.9-14.2-3.8-19.1 11.3-2.3 20.2-13.8 12.2-25.1-9-12.7-27.2-6.3-38.1-.7zM75.3 174c-.3 0-2.9.4-2.7 1.1 1.3 4 4.7 10 4.8 14.2.9 1.4.7 2.3-.7 2.7-1.2 1.2-1.8.6-1.6-1.6-1.2-2.1-1.6-5.4-2.3-7.8-3.1-9.9-6.8-19.7-10.9-29.3-.3-.7-2.1-.1-2.5 0-2.5.7-4.9-1.6-6-3.5-.1-.1-.2-.2-.3-.2.2 0 .3-.1.4-.1 10-5.1 25.9-9.3 32.6 2.9 4.6 8.5.1 21-10.8 21.6z"/><path class="st2" d="M81.1 151.9c-5-2.6-11-1.1-15.5 1.7-1.9 1.2.2 2.5 1.8 2.1.8 5.2 2.7 10.5 8.3 12 4.2 1.1 8.6-1 9.8-5.3 1.2-4.1-.6-8.5-4.4-10.5zm.9 9.6c-.6 3.7-3.9 4.7-6.9 2.3-3-2.3-3.7-6.3-4.1-9.9 2.7-.9 5.6-1 8.1.5 2.3 1.5 3.3 4.4 2.9 7.1zm36.1-30.3c-10.1-3.3-21.5 2.6-31.2 5.3-.4.1-.7.3-1 .5-.2.1-.4.3-.5.5-2.2 3.4-.8 6.2 2.7 8.3.9.5 2.3.4 3-.4 5.1-5.9 6.1 3 6.7 5.2.5 1.7.9 3.5 1.6 5.2.9 2.1 2.2 4.6 4.5 5.5 2.8 1.1 6.5-.7 9.3-1.5.6-.2 1.9-.8 1.6-1.6-2.2-5.8-3.6-11.9-5.2-17.9 1.6 0 3.3-.1 4.9-.3.6-.1 1.7-.3 2-1 .8-2.1 1.6-4.1 2.4-6.2.1-.8-.1-1.3-.8-1.6zm-4.9 6.1c-1.4-.1-4.5.4-5.4.3-.8-.1-2.9.4-2.6 1.7 1.7 6.3 3.1 12.7 5.3 18.8-1.8.7-4.1 1.5-5 1.1-1.8-.7-3-5.7-3.5-7.4-1-3.3-1.8-6.6-2.8-10-.2-.5-.7-.7-1.2-.8-3.2-.7-6.1 0-8.5 1.9-1.3-1.2-1.8-2.5-1-4.2 4.9-1.4 9.7-2.7 14.6-4.1 4-1.1 7.5-2.3 11.6-1.3-.5 1.3-1.2 2.6-1.5 4zm27.3-15.7c.4-.4.4-.8-.7-.8-9.3-.1-15 6.6-16.7 15.4-1.4 7.4-.6 18.3 8 20.9 19.1 5.7 29.4-30.2 9.4-35.5zm7.1 17.8c-.9 6.7-7.8 23.1-17.4 14.1-7.2-6.8-5.2-28.3 5.9-30.6.1.1.3.1.5.2 8.3 1.4 12 8.3 11 16.3z"/><path class="st2" d="M140.8 128.2c-.2-.2-.5-.4-1-.5-10-1.4-12.1 15.5-6.5 20.9 3.1 2.9 6.3.7 7.7-2.4 2.5-5.4 2.6-11.6.6-17.2-.1-.4-.5-.7-.8-.8zm-2.2 14.1c0 .2-1.1 4.2-1.7 4.5-2.2.9-2.9-7.8-2.9-8.6 0-2 1.1-7.8 4-7.8.9 2.6 1.3 5.3 1.2 8 0 1.3-.2 2.6-.6 3.9zm81.8-11.2c-2.1-.3-3.6-.3-5.3 1.2-1.6 1.3-1.6 3.5-2.9 4.7-6.1 5.5-9.6-3.6-7.6-7.1 1.6-2.7 3.7-1.8 6.8-2.3 1.6-.2 3.1-.5 4.6-1 1.4-.5 2.8-1 3.5-2.1.5-.2 1-.6 1-1.2 0-8.6-7.7-13.7-15.9-11.7-8.7 2.2-13.3 10.9-13 19.4.3 9.5 4.5 17.6 14.8 17.6 9.3 0 14.8-7.5 15.1-16.3.2-.7-.4-1.1-1.1-1.2zM207.9 146c-7.4.7-10.9-5.2-12-11.6-.9-5-.5-10.4 2.2-14.8 4.9-7.8 18.1-7.2 18.7 3-.2.2-.4.4-.4.7-.8 3.5-12.7.7-15.4 3.4-2.3 2.4-.7 8.1.6 10.6 1.7 3.3 4.9 5.1 8.6 4.4 1.2-.2 2.3-.7 3.3-1.4 1.2-.9 2.8-4.6 4.3-6.1-.7 5.6-3.4 11.2-9.9 11.8z"/><path class="st2" d="M202.5 122.7c.1.1.3.2.5.3 2.9 1.1 6.3.6 8.7-1.3 1-.8 2.1-1.9 1.9-3.3-.2-1.4-1.5-2.3-2.9-2.6-2.8-.6-6.6.7-8.5 2.8-.8.9-1.6 2.6-.5 3.6.2.2.5.4.8.5zm3-3.4c.3-.3.7-.5 1.2-.7.9-.4 2.6-1 3.1.3.4 1-1 1.9-1.8 2.2-.6.2-1.2.2-1.8.1 0-.2-.1-.4-.3-.6-.3-.2-.6-.3-1-.3.3-.3.3-.8.6-1zm69.5 19.5c-.8-.3-1.8 0-2.6-.1-4.8-.5-6.7-2.4-7.6-6.8-1.1-5-1-10.2-2.1-15.1-1.8-7.8-7.4-6.5-14.2-5.9-5.1.5-12.3.7-14.6 6.3-1.3 3.2-.4 7.5-.1 10.8.3 2.8 1.6 8 .5 10.6-.7 1.8-1.7 2.1-3.9 2.8-6.5 2.1-5.5 3.7-5 9.8-.1.1-.2.3-.2.5-.1 2-.2 1.9.1 3.5.1.3.4.5.7.6 2.3.4 6.7.6 8.6-1 1.8-1.6 1.2-4.7.9-7.1 5.1-.4 10.2-.7 15.4-1.1 4.2-.3 14.6-2.8 17.5.8 1.4 1.7 1 3 3.6 3.7 1.5.4 4.2.4 5.5-.5 3-2.3 1.2-10.6-2.5-11.8zm-3.3 7.1c-.5-.3-.7-1.3-1.2-1.7-2.8-2.1-8.5-.5-11.6-.2-8.4.6-16.8 1.2-25.2 1.7-.7.1-2.2.5-2.1 1.5.1 1.4.2 2.8.3 4.1-.6 3-1.6 3.1-2.9.4.1-.2.1-.3.1-.5-.2-4.1-1.6-5.8 3.2-7.9 1.2-.6 2.6-.3 3.7-1.2 2.9-2.1 2.2-6.3 2-9.4-.2-3.6-1.5-8.1-.8-11.7 1.1-6.2 7.2-8.4 13.1-8.1 7 .3 8.7 3.7 9.5 9.5.5 3.9.7 7.8 1.7 11.6 1 4 2.3 6.2 6.3 7.1 3 .7 6.1-.6 6.7 3.4.3 3.1-.9 2.7-2.8 1.4z"/><path class="st2" d="M243.9 122.3c-4.8 3.7-2.9 12.8-1.6 17.7.1.4.8.4 1.6.3 3 1.3 7.1-.1 9.2-2.5 3.3-3.7 2.8-11.3.1-15.3-2.1-3-6.8-2.2-9.3-.2zm7.2 13.1c-.2.7-.5 1.3-.9 1.9-.7 1.7-2 2-3.7 1 .1-.2-.3-.3-.8-.3-.6-2.6-1-5.3-1-8 0-1.7.6-10.1 4.4-7.1 1.8 1.4 2.3 6.1 2.4 8.1.1 1.5.1 3-.4 4.4zm-66.7-18.5c-.1-.2-.5-.2-.6-.3-3.9-.4-8.1.9-11.9 1.2-5.8.4-11.7.3-17.5-.2-.5 0-3.3.3-3.1 1.1 2.2 10.8 3.7 21.7 4.6 32.7 0 .5 2.5.3 3.4-.3.5-.1.9-.2 1.1-.3 1.2-.7 7.1-.5 8.3-2.4 1-1.6-.6-6.1-.8-7.9-.6-4.3-1.3-8.5-2-12.8 4-.4 9.5-1 10.8.5 1.6 2 1.4 6.9 1.6 9.3.4 3.5.8 6.9 1.9 10.3.2.6 1.7.2 2 .1l6.9-1.5c.3-.1 1.9-.5 1.7-1-1.7-4.8-3.2-9.6-4.2-14.6-1-4.3-.7-9.7-2.2-13.9zm-4.6 9.3c-.7-.6-.7-.3-1.8-.6-.4-.1-.8.1-1.2.1-4 .2-7.7 1-11.8.8-.5 0-3.2.2-3.1 1.1.7 3.8 1.3 7.6 1.9 11.4.2 1.1.5 8.2 2.1 9.3-1.3.1-3.2.1-3.6.1-1 .2-1.9.6-2.8 1-.9-10.2-2.3-20.3-4.2-30.3 3.4.2 6.8.3 10.2.2 2.8-.1 5.6-.3 8.3-.5 1.2-.1 4.2-1 5.2-.6 3.1 1 2.2 2.2 2.5 5.3.3 2.4.6 4.7 1 7 1 5.2 2.4 10.2 4.2 15.2-1.1.2-2.1.4-3.2.7-1-3.2-1.4-6.4-1.7-9.7-.2-2.3 0-8.8-2-10.5z"/><path class="st0" d="M130.3 371c-2.6 2.2-7.6 2-12 2.4-.9-.9.8-2-1.5-2 2.6-1.2 8.3 1.2 11.5-.4-3-2-6.9-3.1-11.4-3.6.8-1 2.7-.9 3-2.5 4.7 1.6 6.8 3.2 10.4 6.1zm-113.7 5.5c8 3.2 15 7.4 24.4 9.2-8.3.9-18.5-4.6-24.4-9.2zm113.9-77.8c-2.5-1-3.8-8-7.9-8.5-2.7-.4-5.8 3.2-8 3.9-7 2.1-16.5.8-25.5 3.3-17.9 4.8-44.8 5.7-61.9 7.4 0-.8.3-1.9-.5-2 21.4-4.2 54.1-6.6 76.4-8.3 2-.1 2.9-1 5.5-1 1.2 0 3 .1 3.5 0 3.8-.8 6.7-4.9 11-3.9 3.7.9 5.6 7 7.4 9.1z"/><path class="st0" d="M18.7 366.5c.5-1.5-1.1-.9-2-1 6.3-1.9 15.9-.7 22.4.2-6.8-2.5-13.8-4.9-19.9-8.2.8-.8 3.4.9 5 1-2.3-1.8-6.2-2.2-8.9-3.6 15.9 4.4 36.9 11.8 58.2 12 2.3 0 2.9.5 4-.5.8-.2.9.4 1 1 7.1-2 14.6-.5 21-1.3-21.2-12.4-48.7-19.4-80.6-20.7-6.8-.2 4.4-1 7-.9-.1-.6-.9-.4-1.5-.5 1.1-1.3 3.3 0 2 1.5 2.3-1.6 3.3.6 6.5-.4v-2c2-.3 0 1.7 0 2.5 2.1-1.1 2.8-4 1.5 0 2 1 4.7-.4 7 1.1 1.5 0-.7-3.7 1.5-3 0 1.2-.9 1.5-.5 3 10.7 1.3 18 3.1 27.4 5.7 1 0-.6-1.7 0-3 1.8.1 1.6 2.1 1.5 4 16.5 3.7 28.5 8.2 44.3 10.9v3c-1.7.1-4-.4-5 .5 1 1.6 4.2 1.1 4.5 3.5-11.2 1.9-26.3-4.1-40.4-3.3.3 1.7 3.3.7 4.5 1.5 1.7-.4 2.8.8.5.5-9.4 1.1-19.7-1-28.4-2.2 6.1 2.7 13.7 4 20.4 6.2.1 1.4-3.3-.6-2.5 1.5-.5-1.7-1.2-.5-1.5-2-.5.3-.5 1.1-1.5 1 .1-.4.5-.5.5-1-7.1-.4-17.5-7.6-24.4-3.7 1.3-.9.4-.8 1-2-.7.2-1.3.7-2 1 2.9 1.9 7.2 2.9 11.9 4.1.7-.2-.2-.6 0-1.5 3.9 4.5 10.4 2.5 12.4 5.1-.1-.8 1.3-1.7 1.5.5-.8-1.8 2.8-1.5 2 0 1.1 1.2 1.6-2.4 3-2.5 2.6-.2 3.5 1.2 5.5 1.5-.4 1.5.8 1.5.5 3 1.7.2 4 1.6 4.5 0 7.9 2.2 15.5 4.5 21.9 8.2 5.7 0 16.2 1.3 21.4 7.7.6-.1.5-1 0-1 .6-1.3 1.3 1.3 2 1.5-4.4.7-10.4-7.5-14.4-1.6-.2 6.5 9.3 3.4 13.4 5.6-3 .5-12.5 1.8-13.4-2.6-5.8 3.4-9.4-3.3-18.4-4.2-5.9-.6-10.4-.2-16.9-1.1 7.8-1.4 14.8-.8 24.4.7-.4-.9-1.5-.4-.5-1.5-24-12-54.9-19.5-84.6-24.2-1.6-.9.5 0 1.2 0zM71.4 378c1.2-1.3 3.8.2 5 .5.3-2.6-2.3-2.4-4.5-2.5.7 1.2-1.9 1.5-.5 2zm-33.8-11.8c-.3 1.5-1.1-.5-2 0 0 .9.4 1.1 1 .5 0 .7-.2 1.1-.5 1.5 1.1.2 2.8-1.5 1.5-2zm86.6-93c-13.1 6.4-31.7 10.4-45 13.6-.7.5.2.8-1 1.5-2.9-.5-5.3 2.3-7.5.9-15 6.3-34 8.6-51.5 12.5-3.3.4-4.4-.8-.5-.5 26.5-8.6 55-15.1 82.5-22.7 1.9-.1.2.4.5 1.5 7.6-2.3 16-3.9 22.5-7.3 3.3 1.8 3.2 3.1 0 .5zm-1.9-7.5c-2-.9-3.2-2.4-5.5-3-13.7 3.5-24.8 11.6-38 12.6-1.3.9-.2 1.1-1.5 2-12.1 1.9-27 10.2-40.5 13.1-3.3.7-7.2.8-11 1.9-6 1.7-10.8 4.8-15.5.4 6.8 4.2 16.1-2.3 24-5.8 9.2-4.1 21.2-6.4 32-10.2 11.2-3.9 22.5-6.8 32-10.2 1.6-.6.4 1.6 2 1 6.1-1.8 17.2-9.3 22-1.8zm-6.9-12c-1.3 1.3-2.8-1.5-4.5-1.5 1.2-1.2 3.1 1.2 4.5 1.5z"/><path class="st0" d="M97.9 257c-.3.5-1.1.5-1 1.5 5.6-1.4 8.9-5 13.5-7.4-9.2 10.6-26 12.9-41.6 20.1-12.6 5.8-24.6 12.4-35 15.2-3.4.9-6.2.3-9 1.9-1.9 1.1-3.4 5.1-7 3.9-1.6-.5 2.2-.5 4-2.5 2.4-2.5 7-5.4 11-7.4 9.6-4.8 21.4-8.2 32.5-12.7 11.1-4.3 21.9-9.2 32.6-12.6zm12.1-16.4c-5-2.2-6.2 1.4-9.5 3.9-19.6 14.8-48 22.4-68.1 35.8-5.4-.2-10.6 3.1-14 6.4-2-.5-6.3 1.3-5.5.4-1-1.6 2.6-.3 4.5-1 4.8-1.6 8.4-6.7 13-9.4 9.7-5.6 21.4-10.2 32.6-15.7 11-5.4 21.7-12 32.6-15.7-.6 1.1-2.5.9-3 2 5.4-1 9.9-9.7 17.4-6.7zM89 420c-2.8-2.6.3-2.2-3.5-4 .2.4.4.9 1 1-1.1 1-1.2-1.3-1.5-2-1 2-3.1-3.4-6.9-4.1.8 1.3 5.4 3.7 4.5 3.5-2.3-.9-3.9-2.4-6-3.5.2-.8.9.4 1-.5-1.1-1.4-1.8.1-2.5-.5-9.7-8.9-33.7-16.6-51.2-21.4 17.5-.7 38.5 6.9 45.8 14.4.9.1 1-.5.5-.5 5.4 4.6 16 9.6 23.3 15.2 1.7-3.8 3.2-7.8 7.6-8.9-2 2.9-3.1 6.3-5.6 7.4 2.7.3 2.9 3.1 5.5 3.5 3.4-.8 1-6.8 4.6-8.4 0 6.9-4.2 16.7-11.6 16.4-2.4-.1-3.9-2.6-6.4-3.5-3.9-1.4-9.2-.9-14-1.1-21.1-1.2-45.8-5-55.7-13 18.6 8.2 43 10.9 71.1 10zm-13.7-29c-.2 1.1-2.5.2-3.5.5 2.3 2.8 5.4 1.6 10 2.1-3.5 1.7-7.6-.5-12-.1-.2-1.2 2.3.3 1.5-1.5-2.1-1.4-4-.6-8.5-1.1 4.1-1.8 7.9.2 12.5.1zm-34.9-3.8c2-2.4 7.3.4 12 1.1 3.1.5 6.1.6 8.5 1.6-6.3.3-12.8-.9-18.4-3.2 1.8 1.7-.2.3-2.1.5zm-14.5-54.5c17.8-.4 39.6.1 56.8 2 3.1.3 5.2 3.2 7.9 4.1 12.3 4 28.3-2.6 38.9 2.8-14.3 2.7-33.7-5.2-44.4 1.6-16.5-1.7-43.9 0-59.8-4-.3-1.6.4-5.1.6-6.5zm109.9-21c-3.3 1.1-11.9-2.3-12.5 2.9 2.6 4.5 8.2-.9 12.5-.9-3.1 6-11.1 5.4-17.5 5.8-15.3 1-33.8 5.3-46.9 6.6 5.7.2 13.8-1.3 21-2.3-19.2 5.5-48.7 7.7-68.8 1.4 30.6 1.2 59.4-3.1 83.9-9.7-25.2-4.6-58.5-2.9-82.3.3 17.8-9.9 46.1-8.4 67.4-7.9-6.3 2-14.4.1-18.5 2.3 10.3-.3 25.5 1.2 34.9.3 1.3-.1 3.6-.5 3.5-1.5 6.7 1.6 16-1.5 23.3 2.7zm-66.3-2.6c-.1.6-.2 1.2-1 1-8.8-.1 5 1.4 4.5 0-1.6.2-3.1.1-3.5-1zM62.9 327c-.7-.1-3.6-.1-2 .5 3.4.4 5.2-.8 8.5-.4.4-.1.6-.4.5-1-2.3.3-4.9.3-7 .9zm-19 .8c1.3-.2 6.1.5 5-.5-1.3.3-6-.4-5 .5z"/></g><g id="Режим_изоляции"><path class="st2" d="M220.7 186.3c-.8-2.3-1-5.3-2.2-7.2 1.4-.2 2.1 4.5 2.2 7.2zm-3.2-8.5c-.8-.1-2.3-1.6-3.5-2.2 1.9-1 3.1.9 3.5 2.2zm-15.7-10.7c.8-.2.3.8.7 1 .7-.3 1.3-.7 2-1 2 1.5 5.2 1.8 5.5 5 1.4.1 2.6-.7 3.2.5-3.1 1.7-5-1.7-7.5-2.2-.1-.9.7-.8 1-1.2-.3-.9-.5.5-1 .5-.7 0 .1-.5-.7-.8-.5-.1-1.6.3-1.7.2-1.9-.3-4-1.1-6-1-1.6.1-3.6.5-4.2-1.3 3-2 5.2.2 8.7.3zm-9.7.7c-.1 3 3.4 3.2 6 2.8-.2 2.4.4 4.8 2 4.7-.1.2-.3.4-.2.7 1.2-.2 3.1-.1 4.7-.5-.1 2.8 1.6 4.5 4.7 3.7-1.2.9-.8 3.2.2 4 3 .3 4.1-1.3 6-2.2 1.6 3.1 1.9 6.5 1.2 9.7 0 .2.3.2.5.3-.5 2.4-3.2 3.9-3.5 5.7-.1.3-.6.2-1 .2-4.1 4.8-11.5 6.2-17 9.7-3.7-.5-8.2.2-10.7 1.7-1.3-2.1-2.3-1.6-5-2-1.3-.2-2.1-.6-3-1.2-.2-.5 1.7-.1.7-.5.2-.7 1.1.2.5.5 1.6-.5 2.4.5 3.7-.2-.4-.9-1.3-.7-1.7 0 .5-1.3-1.4-.5-2.5-1.2.3-.6.4-1.4 1.2-1.5.4.8-.1 1 .2 1.5.4-.3 1-.3 1.2-.7.3.1.5.3.5.7.9.2 1.1-.5 1.5 0 .2 0 .8-.8.2-.7.2-.4.8-.4 1.2-.5-.2.3-.7.5-.7 1 1.1.7 1.7-1.1 3.2-.7-1.1 1.3-3.4 1.7-4.7 1.5.4.5.9.1.5 1 .3-.7 1.4-.5 2-.7-.1.7-1.1.6-1.5 1 .9 1 3.3.2 4.2-.7 0 .7.4.5 0 1 .6-.1 1.1-.3 1.2-.7-.1-.5-1.1-.1-1.2-.5 0-.4.3-.5.2-1 .2.5.8.7 1.2 1 .6-.4.7-1.3 1.5-1.5-1.4.6 1.4 1.6-.5 1.7.9.1 1.7.4 2.5 1.2-.6-.8-1-1.6-2-2 0-.9.3-.7 0-1.5-.6.8-1.6-.4-2-1.2.3.2.5.7 1 .8 1.7-1.8 2.7-1.5 5-1.7-.1-.4-.4-.6-.7-.7 0-.9.8.5.7-.2.4.1.6.4.5 1 2.1.7 2.5-1.3 1.5-2.2-.5 0-.3.7-1 .5-.8-2 1.5-2.7 3-3.7.1-.9-1.2-.5-1-1.5.4-.7 1.6.1 1.7 0 1.8-.8 1.6-3.5-1-3.5.6-1-.7-1.4 0-2.5-.2-.2-1.2-1.7-1.2-.5-.6-.7-1.3-2.5-2.5-1.8-.8-.2.3-.7.5-.7 0-.5-1.3-.9-1.2-.5-.8-.5.4-1.1.5-1.5-.7-.1-.8.6-1.5.5.1-.6-.7-1.4-1-.8-.4-.1.1-.3 0-.7-1.8-2.1-4.1-4-4.7-6.7-.1-.4-.4-.6-1-.5.6-.8-.4-2.5-1.2-1.7-.6 0-.1-1.1-.2-1.5.4.1.2.8 1 .5-.2-.5-1-.5-1-1.2h.7c-.2-.6-.6-.9-1-1.2.9-1.6-.7-1.3 1-2 0-.2-.3-.2-.5-.3.8-1.8 2.8-.1 4.2-.7-.3 0 1.9 2.4-.3 3 1.7.1 3.1-1.2 4.2-1.6zm8.7 45.2c-.4.1-.6.4-.8.7-.9-.5-1.1-1.8-2.2-2 .1-.2.2-.4.5-.5-.1-.3-.4 0-.5.2-.8-.2.3-.5.2-.7.8.2 0 .6.5 1 .1-1.2 1.1 0 1.2-1 .6.3 0 1 1 1-.3.9-.3 0 .1 1.3z"/><path class="st2" d="M182.6 202.5c-.1.2-.3.4-.2.7h-1.3c.2-.6 1.1-1.1 1.5-.7zm11.7-5.8c.3 1.2-1.4 1.2-1.7 1 .1-.7.9-.9 1.7-1zm-23.4 7c-.2-.1-.5-.1-.7-.2-1.8-.4-4.5-.3-6.6-1.1-.9-.3-1.4-1.7-2.2-1.7-1.1 0-2.2 1.6-3 1.7.3-1.3 5.3-4 6-.7 2.2.4 3.9 1.2 5.8 1.8.2.1.5.1.7.2z"/><path class="st2" d="M142.5 214.4c1.6.7 4.2 2.7 7 3-.9-.2-2-1.7-2.7-1.2-.6 0 .1-.7.5-.5-.1-.5-1.1-.1-1.2-.5.2-1.4-1.7-2.7-3-3.5.7-.9.2-1.8-1-2 0-.5.2-.8.7-.7-1.9-2 .7-5.2-1.5-6 .3-1.8 1.2-1.9 2-3.5-.8.5-.7.7-1.7.7.8-.8 1.7-1.5 2.7-2-.1-.4-.8-.2-.5-1 .8-.1 1.2.2 1.7.2-.4 1.1-1 .8-.5 2 1.1 1.5 3.4.4 4.5-.2 0-.5-.7-.3-.5-1 1.1-.1.8-.7 1.7 0-1-1.1 1.4-1.7 1.7-3 1.2.4 1.9 1.3 3.2 1.5 0 1.3.7 2 1.7 2.2.1.8-2.1-1.2-2.7-.5.6.8 1.6 1.2 2.7 1.5.6 0 .4.3 0 .2-1.5-.3-2.7-1-3.7-1.7-.7.5-.9 1-1.7.2-.4 1.3-4 2.2-3.2 1.5-1.7 1.6-.5 3.4-1 6.2 1.5.8 1.2 4 4 2.7.3 1.8 4.5 1.5 3.5-.5.9-.1.2-.4 1.5-.5.2-.5-.1-1.5 1.2-1.5.2 3.4 2.1 5 4.5 6.2.1.4-.2.4-.3.8 1.2-.4.9.7 2.2 1 1.9-2 2.8-3.7 5-5.5.3 2.7 1.4 4.6 2.2 6.7 4.8.9 2.8-4.6 6.2-6.2 1.1 2.4 1.4 5 3.2 6.2 2.7-.2 2.5-3.3 3.7-5 1.6 1.6 1.3 5.1 2.7 6.2.6-.2-.7-.6-.2-1.5 1-.3 2.7-.4 2.2-1.5 1 .6 1.2-1.1 2.5-.2-1.1-.9.7-.2.5-1 .7.2-.1.8 0 1.2.3-.1.9-1.7 1-.5.7-1.3 1.7-2.1 2-3.7 1.6 1.2 2.8 2.6 4.2 4 3.1-1 2.9-5.4 4.5-8 2 1 1.7 2.2 3.2 3 1.1-.2 1.4-1.1 2.7-1 0 .6-.8.5-1.5.5.8.8.6 1.3.7 2.5 2.5-1.5 3.8-6.5 5-10.2.8 1.1 2.1.6 2.2 2-.3.9-.4 0-.5 1 1.9.7 2.8-1.7 3.2-3.2.4.1.1.7.5.7.7-.6-1.1-5.2 1-5.7-.2-2.3-.4-5.2-.5-8.2 1.4 5.3 1.2 11.3 0 16.4 0 0-.3-.3-.2-.5-.3.5-.2 1.2-.3 1.7-.7 4.3-4.5 9.8-7.5 12.7 3.1-1.9 5.9-6.1 8.2-10.7-4.1 15.4-18.5 21.4-37.1 20.1-15-.7-31-5.4-40.6-12.4zm32 142.3c.2 6.4-2.8 3.1-.6 9 .3-.9.5-1.7 0-2.4 2.4-.5-.1 3-.6 4.3 3.4-2-.3 7.7 3.3 12 .6-2.7-2-10.2-1.1-9.1 1.6 3.3 1.7 7 2.8 10.4-1.1 1-.5-1.4-1.7-.1-.3 3 2.2 1.4 2.2 2.9.9 21.7 19.4 53.8 34 76.1-20.7-14.1-36-43.5-35.8-60.9-.5-.6-1-.5-1.2-.3 0 .2 0 .4.1.6-.2-.2-.2-.5-.1-.6-1.1-11.6-7.3-27.7-9.2-42.1-6.3 4.3-12.5 8.8-18.8 6.8 5.6-2.6 10.6-6.7 14.8-6.3-2.7-2.8.3-7.1-2.2-10-4.8-1.8-8.9 9.2-14.8 8.6 7.9-10.3 23.7-21.2 31.9-14.3 2.6 2.2 1.4 7.3 3.3 10.9 2.9 5.4 9.5 9.2 14.6 13.7 22.7 19.9 46.5 47.1 48.8 67.4-11.9-28.5-36.7-53.6-69.7-76.6z"/></g></svg>