<svg version="1.1" id="Слой_1" xmlns="http://www.w3.org/2000/svg" x="0" y="0" viewBox="0 0 566.9 467.7" xml:space="preserve"><style>.st0,.st1{fill:#ee7f00}.st1{fill-rule:evenodd;clip-rule:evenodd}</style><path class="st0" d="M431 516.3h-1.2c-1.5 0-3.1.4-4.4-.1-2.7-1.1-5.8-1.5-8.3-3.2-1.5-1-3.1-2-4.6-3.2-1.1-.9-2.2-1.7-3.4-2.4-.5-.3-.9-.9-1.2-1.4-.6-1.1-1.1-2.3-1.8-3.4-.7-1.2-.7-2.5-1.1-3.7-.4-1.4-.1-3.1-.1-4.6 0-2.4-.7-4.6-1-7-.1-.9-1.1-1.5-.9-2.6-1.6-2.2-1.8-4.8-2.7-7.3-.6-1.5-.9-3.1-1.2-4.7-.8-3.9-1.9-7.7-3.1-11.5-.7-2-1.2-4.1-1.8-6.1-.5-1.7-.9-3.4-1.5-5s-.5-3.3-1.4-4.8c.1-3.8-2.3-7-2.5-10.8-.9-1.6-1.3-3.4-1.7-5.2-.2-1-.8-2.1-.7-3.1.1-1.6-1-2.9-1-4.5-.8-.5-.2-1.5-.5-2-.6-.7-.3-1.4-.4-2.1l-1.2-5.1c-.3-1.1-.4-2.3-.7-3.4-.5-1.9-.8-3.9-1.6-5.7-.5-1.1-.3-2.3-.8-3.4-.9-2.1-1.2-4.4-1.8-6.6l-.3-.9c-.1-.4-.1-1-.3-1.1-.4-.2-1-.2-1.4 0-1.4.7-2.9 1-4.3 1.5-1.4.4-2.8 1.2-4.2 1.6-.3.1-.6.2-.8.4-.4.3-1 .6-.3 1.2.2.2.1.8.2 1.1.1.2.2.7.9.3 1.4-.9 2.9-1.8 4.4-2.4.7-.3 1.7-.3 2.2 0 .4.2.1 1.2-.2 1.9-1 2.5-1.6 5.2-2.6 7.8-.7 1.9-1.8 3.5-3.9 4.4-2.1.8-4.1 2.1-6.3 2.6-2.1.5-4.3 1.2-6.4 1.8-.3.1-.6 0-.9.1-2.8.9-2.9 1-1.6 3.6 1.2 2.3 2.6 4.5 3.4 7s1.9 4.8 2.7 7.3c.8 2.3 1.5 4.6 2.4 6.9.6 1.4.7 2.8 1.3 4.1.5 1.3.9 2.7 1.2 4.2.2 1.4 1 2.7 1.3 4.1 1.2 4.3 2.8 8.5 4 12.9 1.2 4.3 2.5 8.5 3.5 12.8.2.9.1 2 .5 2.7.5.9.2 1.7.4 2.6.5 2.1.7 4.3 1.1 6.5.2 1.3 0 2.7.5 3.9.6 1.3-.1 2.7.4 3.8.8 1.8.2 3.6.7 5.4.5 1.7-.1 3.6.3 5.3.7 3 .2 6 .4 8.9.1.9.4 1.8.5 2.8.1.9 0 1.8 0 2.7 0 1.3 0 1.4-1.2 1.3-2.4 0-4.7-.1-7.1-.2 0-2.3-.1-4.6-.1-6.9 0-3-.9-5.9-.5-8.9-.8-1.6-.3-3.3-.6-5-.2-.9-.4-1.8-.5-2.8-.1-.9.2-1.7-.3-2.6-.4-.8 0-2-.2-2.9-.7-2.3-.4-4.8-1.4-7.1-.4-1-.3-2.3-.5-3.5-.3-1.7-.9-3.3-1.1-5-.2-1.6-.8-3.1-1.2-4.6-.6-2.4-1.4-4.7-2.1-7-1.3-4.1-2.3-8.4-4-12.4-.3-3.2-1.6-6.1-2.6-9-1.6-4.9-2.8-9.9-5.3-14.5-.1-1.7-1.4-2.9-1.9-4.4-.4-1.6-1.3-2.9-2-4.4-.6-1.4-1-2.9-1.8-4.2-.7-1-1.2-2-1.5-3.1-.1-.2-.3-.4-.3-.6.2-2.7-1.3-4.9-1.8-7.4-.6-2.8-1.4-5.6-2.1-8.5-.6-2.3-1.3-4.6-1.8-6.9-.3-1.7-.6-3.3-1.1-5-.6-2-.9-4-1.6-6-.4-1.3-.8-2.5-1-3.8-.3-2.2-1-4.4-.9-6.7-1.1-1.1-.2-2.6-.9-3.8-.6-1.1-.2-2.7-.6-3.9-.6-1.7-.6-3.6-1.4-5.3-.2-.5 0-1.3-.1-1.9s-.4-1.2-.5-1.8c-.1-1.3.1-2.7-.3-3.8-.4-1.2-.1-2.4-.6-3.7-.6-1.5-.2-3.3-.6-4.9-.6-2.2-.5-4.4-1.4-6.6-.5-1.4-.5-3.1-.5-4.7-.1-3.6 0-7.2 0-10.8 0-2.5.7-4.9.5-7.4-.2-2.4-.1-4.9 0-7.4 0-1.2 0-1.6-.5-2.3-2.1-3.4-4.7-6.4-7.9-8.9-.4-.3-.6-.8-1-1.2-.4-.4-.7-.5-1 .2-1.1 2.1-2.7 3.8-4.3 5.6-2.3 2.7-5.1 4.8-8 6.9-.5.4-1.2.6-1.8.9-1.7.9-3.2 2.1-5 2.8-3.3 1.4-6.6 2.7-9.9 3.9-1 .3-1.8.9-2.6 1.4-.9.5-1.5 1-1.9 1.9-.2.6-1.3 1-1.3 1.4.1.8.6 1.6 1.1 2.2 1.2 1.5 1.4 3.1 1.3 4.9-.1 1.1-.1 2.1 0 3.2.1 1.2-.2 2.4-.8 3.1-1 1.3-2.1 2.6-3.8 3.1-2.4.8-4.8.7-7.2-.2-1.4-.5-1.3-.5-2.1.6-.7 1-1.3 2-2.1 2.8-1.9 1.9-3.1 4.3-4.8 6.4-.3.4-.5.8-.7 1.2-.1.1-.1.2-.2.3.2 0 .6.2.6.1.8-.9 1.1-.3 1.4.4.9 2 1.9 4.1 1.8 6.4 0 .4-.2.9-.4 1.3-1.7 2-3.3 4.1-5 6.1-1.6 1.9-3.4 3.5-4.9 5.3-.9 1-1.8 2.1-2.6 3.1s-1.9 1.7-2.5 2.9c-.6 1.2-1.8 2-2.6 3.1-1.7 2.2-3.6 4.4-5.7 6.2-3.1 2.6-6 5.6-9.6 7.8-1.2.7-2.2 1.9-3.3 2.8-2.4 2-4.6 4.3-7 6.4-1.7 1.5-3.3 3.1-5 4.5-.8.6-.6 1.1-.1 1.8 1.5 2.2 2.8 4.4 4.3 6.6.8 1.1 1.8 2 2.6 3.1.6.9 1.1 1.3 2.2 1.2.4 0 .9.3 1.2.6 3 3 5.1 6.6 6.4 10.6.3.8.5 1.6 1.1 2.3.5.5.4 1 .3 1.7-.7 2.7-2.5 4.7-3.7 7.1-.2.5-.6.9-.9 1.4-1.5 2.9-3 5.7-4.8 8.3-.9 1.3-1.5 2.8-2.3 4.2-1.5 2.5-2.9 5-4.5 7.5s-3.4 4.8-5 7.3c-.9 1.4-2.3 2.5-3.2 3.8-1.1 1.5-2.7 2.7-3.5 4.4-.1.3-.5.5-.7.7-2.4 2.8-4.9 5.5-7.3 8.3-2.3 2.7-4.5 5.6-6.8 8.3-3.2 3.7-6.2 7.5-9 11.5-2.7 3.8-5.4 7.7-7.7 11.8-1.6 2.9-3.4 5.8-4.8 8.8-.4.8-.9 1-1.6 1H163c-.4 0-.7-.2-1.1-.3.2-.3.3-.7.5-1 1.6-1.8 2.2-4 3.5-6 2.3-3.5 4.3-7.1 6.9-10.4 1.7-2.2 3.2-4.6 4.9-6.8.8-1 1.6-2 2.4-2.9 2.5-3 5-5.9 7.5-9 1.6-2.1 3.4-4 5-6 2-2.6 4.5-4.9 6.3-7.7.9-1.3 2-2.5 3.1-3.6 1.8-1.8 3.1-4 4.6-6 2.7-3.5 4.8-7.3 6.9-11.2 1.6-2.9 3.5-5.6 5.2-8.4.8-1.3 3.5-7.1 3.5-8.6 0-1.6.5-3.2-.3-4.8-.2-.3-.2-.8-.1-1.2.4-2-.6-3.6-1.7-5-2-2.6-3.9-5.3-5.9-7.9-2.3-2.8-4.4-5.7-6.2-8.8-.2-.3-.6-.6-.8-.9-.3-.4-.4-.1-.7 0-4.1 2.7-8.1 5.3-12.2 8-3.1 2.1-6.2 4.2-9.2 6.4-1.4 1.1-2.9 2.1-4.5 2.9-2.5 1.2-4.8 2.6-7.2 3.9-1 .5-2.1.8-3.2 1.2-1 .4-1.9.9-2.9 1.3-1.1.4-2.3.3-3.3.9-.4.2-1 .1-1.4.1h-6.4c-2.4 0-4.6-1.1-6.3-2.5-2.4-1.8-4.3-4.2-5.6-7-.8-1.6-1.8-3-2.6-4.6-1.1-2.2-2-4.6-2.9-6.9-.8-2-1.9-3.8-2.2-6-.2-1.2-.9-2.3-.8-3.6.1-2.2-.8-4.4-.5-6.7-.7-1.1-.2-2.4-.6-3.5-.4-1.2-.1-2.4-.5-3.5-.5-1.4-.1-2.7-.5-4-.8-2.8-.3-5.6-.4-8.4 0-1-.8-1.9-.5-3 0-.1-.1-.3-.2-.4-.1.1-.3.2-.3.3-.8 1-1.7 1.9-2.4 2.9-.8 1-2.1 1.5-2.5 2.9-.1.5-.8.8-1.2 1.2-2.2 2.1-4.1 4.5-5.9 6.9-1.5 1.9-3.2 3.6-4.9 5.4-1.6 1.7-3.2 3.5-5.1 5-3.8 3.1-7.6 6.1-11.5 9.1-2.7 2-5.5 3.8-8.2 5.7-2.7 1.9-5.4 4-8.2 5.8-2.1 1.4-3.7 3.3-5.5 5.1-2.8 2.7-5.5 5.4-8.2 8.2-1.1 1.1-2.3 1.8-3.7 2.3-.8.3-1-.3-1-.5-.3-1.1.1-2.1.8-2.8 1.6-1.5 3-3.3 5-4.6 1.5-1 2.8-2.4 4.2-3.6 1-.8 2.2-1.5 2.9-2.5 1.3-2.1 3.2-3.5 4.7-5.4 1.4-1.8 2.9-3.5 4.3-5.4 2-2.8 4.2-5.4 5.8-8.4.7-1.4 1.7-2.8 2.5-4.1 2.2-3.4 4-7 5.8-10.7 2.2-4.4 3.8-9.1 5.5-13.7 1.2-3.4 1.8-6.9 3.4-10.2 0-2.6 1.2-4.9 1.6-7.5.3-1.8.6-3.6 1.3-5.3.5-1.2.3-2.7.6-4 .3-1.3.3-2.6.8-3.8.4-.9.1-2 .5-3 .5-1.2.2-2.7.6-3.9.8-2.6 1.1-5.3 1.7-7.9.5-1.9.9-3.9 1.3-5.9.3-1.8.6-3.6 1.3-5.4.3-.9-.2-2.1.6-2.9 0-2.3 1.2-4.4 1-6.7.8-1 .1-2.3.6-3.2.7-1.1.2-2.2.4-3.3.1-.9.7-1.7.5-2.8-.1-.8-.3-1.8.5-2.5v-.2c-.4-2.4.5-4.8.5-7.2 0-1.6.4-3.1.4-4.7.1-1.6-.3-3.4.1-4.9.7-2.6.2-5.1.4-7.7.1-1.2.3-2.5.5-3.7s-.4-2.4.5-3.5c.2-.2 0-.6 0-1 .2-2 .2-4 .5-5.9.1-.8.4-1.6.5-2.5 0-.8.3-1.5.4-2.3 0-.2-.1-.4-.2-.7-.2.1-.4.2-.5.4-2.5 2.3-4.6 4.9-6.3 8-1.4 2.5-2.5 5.1-3.9 7.5-2.8 4.7-5.1 9.7-7.6 14.6s-4.7 9.9-7.4 14.7c-1.9 3.4-3.9 6.8-6.3 9.9-2.6 3.2-5 6.6-8 9.5-2.6 2.5-5.5 4.5-8.5 6.3-5.1 3-10.2 5.8-15.5 8.3-4.2 2-8.4 3.8-12.9 5-1.8.5-3.4 1.5-5.3 1.5-.6.8-1.6.2-2.2.5-.7.3-1.3.4-2 .5-.8.1-1.5.4-2.3.5s-1.7 0-2.5.4c-.6.3-1.6-.1-2.4.1-2.2.5-4.5.7-6.7 1-1.3.2-2.8 0-4 .5-1.4.6-2.8 0-4 .4-1.8.7-3.7.2-5.5.5-4.9.9-9.9.2-14.8.5-1.2.1-2.4.2-3.4.7-.5.2-.6-.1-.9-.1-.8-.1-.8-.2-.3-.7.9-1.1 2.2-1.8 3.5-2.2 2.1-.6 4-1.6 5.8-2.7 4.6-2.8 9-6 13.5-9 1.9-1.3 3.8-2.7 5.7-4.1 2.7-2.1 5-4.5 7.6-6.6 3.8-3.1 7.1-6.7 10.5-10.2 2.3-2.4 4.6-4.8 6.8-7.2 3.3-3.6 6.1-7.6 8.6-11.7 2.4-4 4.3-8.2 6.5-12.3 1.1-2.1 2-4.3 3.1-6.4 1.4-2.5 2.8-4.9 4.3-7.3 2-3.1 4.2-6.2 6.2-9.2 2.3-3.5 4.6-6.9 7-10.4 1.8-2.7 3.7-5.4 5.6-8 .7-1 1.5-1.9 2.3-2.8 1.8-2 3.6-3.9 5.4-5.9 1-1.1 1.9-2.4 3-3.4 2.5-2.4 5-4.9 7.6-7.1 2.7-2.2 5.3-4.5 8.2-6.3 3.2-2 6.3-4 9.9-5.2.7-.3 1.1-1 .9-1.7-.2-.6-.3-1.2-.7-1.7-.4-.5-1-.9-1.5-1-.9-.1-.7-.3-.2-.8.7-.6 1.2-1.5 2.4-1.3.3.1.8-.5 1.1-.8.7-.8 1.6-1.2 2.5-1.6 1.6-.7 1.6-.7 2.4.9.2.4.5.8.7 1.2.2.3.3.6.5.8.4-.2 1-.4 1.1-.7.8-2.3.9-4.7-.1-6.9-.3-.6-1.4-1-2.2-1.1-3.5-.6-6.8-2.1-10-3.5-1.9-.8-3.6-2.1-5.3-3.1-1.1-.7-2.1-1.7-3.3-2.2-1.5-.6-2.1-2.1-3.5-2.8-1.3-.6-2.4-1.6-3.3-2.7-1.5-2-3.3-3.7-4.3-6.1-.3-.8-.6-1.5-.2-2.2.4-.6.2-1.1-.1-1.7-1.2-2.9-2.4-5.7-3.3-8.7-.7-2.4-1.4-4.7-1.8-7.1-.4-2.2-.7-4.3-1-6.5-.3-1.9-.6-3.8-.8-5.8-.2-2-.3-4.1 0-6.1.3-2.4.6-4.7 1.2-7.1.5-2 1-4.1 1.3-6.2.3-1.9.1-3.9.5-5.7.6-3.2.8-6.5 1.9-9.5.2-.4 0-1 0-1.5v-15c0-1.2-.4-2.3-.5-3.5-.1-1.1-.2-2.3 0-3.4.4-2.5.4-4.9 1.3-7.3.5-1.4.7-3 1.2-4.4.2-.8.8-1.5.9-2.3.2-1.6 1.3-2.7 1.7-4.2.4-1.4 1.5-2.7 2.4-3.9.7-1.1 1.1-2.4 2.2-3.3.2-.2.2-.8.4-.8 1.2-.2 1.5-1.5 2.4-1.9 3.1-1.4 6-3.4 9.6-3.6.5 0 1-.5 1.5-.4 1.7.3 2.5-.5 3-2 .7-2 2.1-3.7 3.5-5.2 1.8-2 3.5-4.1 5.8-5.5.7-.4 1.3-1.2 2-1.7 1.6-1.4 3.6-1.9 5.6-2.5 1.3-.4 2.6-1 3.9-1.3 1.2-.3 2.4-.7 3.7-.7 2 .1 3.9-.8 5.9-.5 1.3.2 2.6.4 4 .5s2.9-.2 4.2.1c1.3.3 2.7.3 4 .4s2.6.5 4 .5c1.5.1 3.1.5 4.4 1.1.8.4 1.6.1 2.3.3.8.2 1.5.9 2.3.9s1.5.5 2.3.6c.6 0 1.2.3 1.8.5 2.1.8 4.3 1.1 6.3 1.9 1.8.7 3.5 1.3 5.3 2 2.9 1 5.6 2.5 8.2 3.9 1.7.9 3.4 1.7 5 2.7 1.6.9 3.5 1.3 4.8 2.8 3.7 1.3 6.7 3.9 9.8 6 3.2 2.2 6.2 4.9 8.4 8.2 1 1.5 2.2 2.7 3.5 4 1.1 1.1 1.9 2.3 2.6 3.6 1.6 3 2.9 6.2 4.3 9.3 1 2.4 2.2 4.7 2.9 7.2.4 1.6.9 3.2 1.3 4.9.2.8.1 1.9.6 2.5.8 1 0 2.3.8 3.4.4.5.3.9 1.1.5.5-.3 1.2-.2 1.9-.2.2 0 .4.3.6.5.9 1.6 1.5 3.4 1.5 5.3 0 1.2-.1 2.5 0 3.7.3 3.2-.7 6.2-1.7 9.1-.3 1-.8 2-1.3 2.9-.3.6-.6 1.3-.5 2 .4 3.1-.6 6-1 8.9-.2 1.6-1 3.2-1.6 4.8-.1.2-.3.4-.3.6v3c-.1.9-.4 1.8-.5 2.8-.2 3 1 5.6 2.7 8 1 1.4 2.3 2.7 3.4 4 .3.4.8.8 1.2.5 1.1-.8 1.6-.1 2.3.6.3.3 1.1.6 1.3.4 1.2-1 1.8.2 2.6.6.3.1.4.5.7.7.4.3.8.7 1.2.6.3 0 .5-.6.8-1 .2-.2.4-.6.6-.7 1.8-.6 1.9-2.2 2.3-3.7.3-1 .6-1.9.1-3.1-.4-.8-.1-2-.9-2.8-.1-.2-.3-.6-.2-.6.8-.8 1.6-1.6 2.5-2.2.3-.2.9-.1.9.7.1 1.5.9 2.6 2 3.6 2.4 2.1 3.2 5.2 4.8 7.8 0 1.6.8 3 .9 4.5.2 2 .3 4.1 0 6.1-.4 2.6-1 5.3-2 7.8-.4 1-1.5 1.6-2.3 2.4-.1.1-.3 0-.4-.1-.2-.2-.4-.5-.5-.8-.2.3-.4.7-.6 1-1 1-1.9 2-2.9 2.8-.7.5-1.3 1-1.6 1.9-1.4 3.5-4.1 6-7.1 8.1l-4.8 3.3c-.6.4-1.2.7-1.8 1-1.9.9-3.8 1.8-5.8 2.6-.8.4-1.7.7-2.6.8-2.3.2-4.6.8-6.9.5-1.5-.1-3-.1-4.4 0-1.6.1-3.1-.5-4.7-.6-.2 0-.3-.1-.5-.2 0 .2-.1.5 0 .7.5 1.4 1.1 2.7 1.6 4 .8 2.1 1.9 4 2.7 6s2.5 3.3 3.5 5.2c.1.1.4.2.6.2 1.1-.2 1.8.5 2.2 1.2.6 1.3 1.6 2 2.5 2.9.8.8 1.5 1.8 2.7 2.4 1.1.5 2.1 1.5 3 2.4 2.3 2.2 5.1 3.6 7.6 5.4 4.5 3.1 9.2 6 13.7 9 .4.3.7.7 1.1 1 .5.3 1.1.8 1.6.8 1.6-.3 2.4.7 3.3 1.7 3.8 4.4 8.2 8.4 12.1 12.7 1.9 2.1 3.6 4.4 4.8 7.1.2.5.9 1.2.7 1.5-.4.7-.2 1.7-1.1 2.3-.7.4-.6.5.3.9.8.4 1.1.2 1.5-.5 2.7-4 5-8.2 8.1-11.9 1.4-1.6 2.8-3.2 4-5 .7-1.1 1.3-2.3 2.1-3.3 2.1-2.7 4.4-5.2 7.3-6.9 1.7-1 3.7-1.7 5.8-.5 2.1-.3 3.7 1.3 5.8 1.6 1.8.3 3.5 1.4 5.3 2.1 1.1.4 2.2.6 3.1 1.5.2.3.9.2 1.4.2.2 0 .5-.4.5-.6-.1-.4-.3-.8-.5-1.3-.6-2-1.1-4.1-1.8-6.1-.4-1.1-.4-2.5-.6-3.7-.3-1.2-.5-2.4-.9-3.5-.2-.6-.5-.5-.9-.4-3 .9-6.2.4-8-1.3-1.2-1.2-1.5-2.7-.4-4 .6-.7 1.2-1.4 2.2-1.8 1.6-.6 3.2-1.5 4.7-2.2.6-.3 1.3-.3.6-1.2-.5-.6-.5-1.6-.6-2.4-.1-1.1-.7-1.1-1.3-.9-1 .3-2 .3-3 .5-2.5.4-2.5.5-4.3 0-1.5-.5-1.9-.9-1.9-2.3v-.2c-.4-2.3 1-3.4 2.8-4.5 1.6-.9 3.2-1.4 4.9-1.8 1-.2.3-.4.2-.8-.6-3.3-1.4-6.6-2.5-9.8-.8-2.4-1.6-4.8-2.6-7-1.4-3-2.4-6.1-3.3-9.2-.7-2.6-1.3-5.2-2-7.8-.8-2.9-1.6-5.9-2.9-8.6-.9-1.8-1.6-3.6-2.5-5.4-.8-1.5-1.8-2.9-2.9-4.2-2-2.6-4.8-3.8-7.9-4.8-1.4-.5-2.9-1.1-4.1-2-1.2-.8-2.6-1.5-3.9-1.8-1.4-.4-2.5-1.4-4-1.7-1.3-.2-2.4-1.3-3.8-1.6-1.2-.2-2.3-.8-3.6-.8-1.2-.1-2.6-.1-3.7-.6-.7-.3-1.4-.3-2.1-.3-1.2-.1-2.1 0-2.9 1.4-.7 1.4-2.4 2-4 2-1.2 0-2.5.1-3.7 0-2.3-.1-4.3-1.1-6.2-2.2-.4-.2-.8-.6-1-1-1.3-2.3-1.8-4.9-1.5-7.5.1-.9.6-1.8 1.1-2.5 1.6-2 3.6-3.7 6-4.4 1.5-.5 3-1.2 4.7-1.1 2.4.2 4.4 1.1 5.9 2.9.1.1.3.2.3.4-.2 2 1.2 1.7 2.4 1.7 2.6 0 5.3-.1 7.9 0 1.1 0 2.2-.4 3.3.4.8.5 1.9 0 3 .4 1 .4 2.3.5 3.4.5 2.5.2 4.9.9 7.5 1.1 1.5.1 2.9.8 4.4 1.1.4.1.7.3 1.1.3 1.5 0 2.9.5 4.3 1 .8.3 1.7.3 2.5.5.5.1 1.1.3 1.4.7 2.4 2.2 5 4.2 7.1 6.7 2.9 3.5 5.1 7.4 6.3 11.9.4 1.4 1 2.7 1.5 4 .9 2 1.5 4.1 2.9 6 .5.7 1.1 1 1.8.8 1.2-.3 2.5-.5 2.7-2.2.1-1 .9-1.3 1.7-1.7 2.9-1.3 6.3-.9 8.6 1.2 1.3 1.2 1.9 2.5 1.1 4.4-.7 1.6-1.5 3-3.1 3.6-2 .7-4.2 1.5-6.2-.2-.8-.7-1.8-.5-2.7-.5-.6 0-.9.9-.6 1.4 1.3 3.2 2.4 6.4 3.2 9.7.2.8.4 1.6.5 2.5.2 1.9 1.3 2.9 3.1 3 .9.1 1.8 0 2.7 0 .2 0 .5-.4.5-.6.1-1.5 1.3-1.6 2.3-1.8.6-.2 1.3 0 2 0 .5 0 .7.2.7.7-.3 3.4 1.2 6.4 2.1 9.5 1 3.7 2.8 7 4.3 10.5 1.6 3.9 3.1 7.8 4 11.9.5 2.1 1.4 4.2 2.1 6.2.7 1.9 1.5 3.8 2.2 5.7s1.6 3.8 2.2 5.7c.7 2.2 1.5 4.5 2.2 6.7 1 3.7 2.5 7.2 3.7 10.8.8 2.5 1.5 5.1 2.2 7.7.5 1.8 1 3.5 1.5 5.3.6 2.3 1.2 4.6 2 6.8.7 2.2 1.4 4.5 2.1 6.8.5 1.5 1.1 3 1.4 4.6.6 3.2 1.7 6.2 2.7 9.2.7 2.4 1.5 4.8 2.3 7.2l.3.9c.4 1 .7 1.1 1.5.8.3-.1.5-.4.8-.4 2.2-.2 4.5-.3 6.7-.5.8-.1 1.7-.3 2.5-.5.8-.1 1.6.3 2.3-.5.2-.2.9 0 1.4 0 2.2 0 4.4.1 6.6 0 1.5-.1 2.8.4 4.2.7l1.8.3c.6.1 1.2.5 1.8.5 1.6 0 3 .7 4.4 1.2 3.7 1.6 7.3 3.5 10.7 5.7 3.6 2.3 6.6 5.3 9.6 8.5.9 1 1.1 2.2 1.5 3.3.2.6.3 1.3.5 2 .6 1.9.7 3.7.1 5.8-.4 1.6-.9 3.3-1.3 4.9-.7 2.8-2.6 4.7-4.3 6.8-1.1 1.4-2.3 2.7-3.3 4-1.5 2-2.2 4.3-3 6.6-.7 2.3-.7 3.4 0 6.5.1.4 0 .8 0 1.2.1 1.1-.2 2.2.4 3.3.5.8.1 1.9.5 3 .4 1 .1 2.3.6 3.5.2.4.2.9.5 1.3.4.7.7-.3 1.1-.2 1.7.1 3.5.1 5.2.5 2.3.5 4.6 1.2 6.9 1.7 3.1.8 5.1 2.9 6.8 5.4.9 1.3 1.7 2.8 2.5 4.1 1.3 2.2 1.8 4.7 2.5 7.1.7 2.2.6 4.6 1.5 6.8v.2c.2 2.4.2 4.8.5 7.2.1 1.2-.3 2.2-.6 3.2-.6 1.9-1.6 3.7-2.6 5.6-.8 1.7-2.3 2.9-3.7 4-.2.2-.6.3-.8.5-.5.4-.4.8.2 1 .8.2 1.6.4 2.4.7 3.9 1.4 7.1 3.6 9.6 7.1 2.2 3 3.6 6.4 4.6 9.9.4 1.6.4 3.3.5 5s.3 3.5 0 5.2c-.6 3.5-1.6 7-3.4 10.1-.2.4-.6.8-.9 1.1-.8.8-1.7 1.6-2.4 2.5-2 2.4-4.6 4-7.4 5.3-.5.2-1 .3-1.4.7-.4.3-.7.6-.4 1.4.4 1.3.6 2.4 2.3 1.9 2.6.8 4.9 2.2 6.5 4.4 1 1.3 1.7 2.9 2.8 4.2 2 2.4 2.5 5.4 3.4 8.2.4 1.1.6 2.2.9 3.3.5 1.9 1.1 3.9 1.1 6-.1 1.3.1 2.6 0 3.9-.1 1.2-.3 2.3-.5 3.5-.1.7-.2 1.4-.5 2-.5.9-.7 1.8-1.1 2.7-.5 1.1-1.2 2.2-2.1 3.1-1.4 1.5-3.2 2.4-5.2 2.9s-4 .7-6 1c-.9.1-1.2.5-1.4 1.3-.7 2.6-2 4.8-3.8 6.8-.4.4-.7 1.1-1.1 1.5-2.5 2.8-7.1 5.8-10.5 6.6-1.3.3-2.6.4-4 .5-1.4-.4-2.8-.5-4.2-.5zM135.8 35.9h-.2c-1.5 1.5-2.9 2.9-4.3 4.4-.1.1 0 .3 0 .5.1-.1.3-.1.4-.2l4.3-4.3.2-.2c-.1-.1-.2-.2-4.8 4.9l-.3-.3c-.2.2-.5.4-.7.7-.3.6-1.4.7-.9 1.7.5-.4.9-.7 1.3-1.1.2-.2.3-.6 5-6.1zM17 334.2c.9 0 1.8.3 2.5-.1.9-.5 1.8-.3 2.8-.4.9-.1 1.8-.4 2.8-.5 1.7-.2 3.5-.1 5.2-.6 1.3-.4 2.6-.1 3.7-.5 1-.4 1.9-.3 2.8-.4 1-.1 1.9-.6 3-.6 1.2.1 2.6-.1 3.7-.5 2.1-.8 4.3-1.2 6.4-1.8 4.5-1.4 8.8-3.2 13.1-5.3 4-2 7.9-4.3 11.9-6.4 2.4-1.2 4.5-2.7 6.5-4.6 3.2-3 5.9-6.4 8.6-10s4.9-7.5 7-11.4c1.7-3.1 3.2-6.4 4.6-9.6 1.5-3.5 3.4-6.8 5.2-10.1 1.5-2.9 3.1-5.8 4.6-8.7 1.2-2.3 2.3-4.6 3.7-6.8 1.5-2.3 2.9-4.7 4.8-6.6.6-.6 1.4-1 2-1.6 1.1-1.1 2.3-1.9 3.6-2.5.8-.4 1.1-1 1.3-1.7.2-.7.4-1.3.5-2 .8-3.7 2.1-7.3 3.8-10.7 1.7-3.5 3.7-6.9 5.7-10.2 1.2-2 2.7-3.8 4.1-5.7.5-.7 1.1-1.3 1.7-2-.8-.8-1.8-.4-2.7-.3-1.3 0-2.2-.3-2.7-1.5-.4-1-1.3-1.2-2.2-1.5-.4-.1-.9-.2-1.3-.3-1.7-.4-3-1.5-4.6-2-2.8-.9-4.8-2.5-6.3-4.9-.3-.4-.6-.7-1.4-.5-1.4.5-2.6 1.3-3.8 2-4.2 2.6-8 5.8-11.7 9.2-4.2 3.8-7.9 8-11.6 12.4-2.1 2.6-4.1 5.2-6.1 7.8-2.8 3.6-5.1 7.6-7.6 11.3-1.8 2.7-3.7 5.4-5.5 8.1-2.8 4.1-5.2 8.3-7.6 12.6-1.4 2.4-2.4 4.9-3.6 7.4-1.3 2.7-2.5 5.6-4.1 8.1-1.8 2.8-3.6 5.6-5.6 8.3-1.8 2.4-3.6 4.8-5.7 6.9-7.8 7.8-15.2 16.2-23.9 23-2.3 1.8-4.6 3.6-7 5.2-1.1.8-2.1 1.6-3.4 2.2-1.2.6-2.3 1.6-3.4 2.4-2.6 1.7-5.3 3.4-8 5.1-.3.2-.6.3-.9.5.4.1.8.2 1.2.2 2.4 0 4.8-.1 7.1 0 2.3.3 4.5-.6 6.8-.4zm218.6-82.4v-6.2c0-.4.2-1 0-1.2-.7-.8-.3-1.7-.5-2.5-.1-.9-.4-1.8-.5-2.8-.1-1.1-.1-1.1-1-.7-1.5.8-3 1.5-4.4 2.5-2.4 1.7-5.2 2.5-7.6 4.1-1.3-.1-2.1.8-3.1 1.5-.9.7-1.8 1.4-3 1.6-1 .2-1.5 0-1.5-1v-2.7c0-.5 0-1-.2-1.4-.9-2.4-1.8-4.8-2.8-7.2-.7-1.7-1.9-3.2-2.3-4.9-.4-1.6-1.2-2.8-2-4.1-.8-1.4-1.7-2.7-2.9-3.7-.7-.6-1.4-1-2-1.6-.5-.5-.9-.8-1.7-.7-.2 0-.5-.2-.8-.3.1-.3.2-.6.4-.8.5-.4 1.1-1 1.7-1.2 1.6-.4 3.4-1.4 4.7.6.1.1.2.2.4.3 2.5 1.5 4.2 3.8 5.6 6.3 2.1 3.9 3.6 8 5.3 12.1.8 1.8 1.6 3.7 1.6 5.7 0 .4.1.5.5.3.8-.5 1.6-.9 2.4-1.2 2.6-.8 5-2 7.1-3.6 2.3-1.6 4.9-2.5 7.3-3.7.7-.3 1.6-.1 2.4-.1.1 0 .3.3.3.5.1 1.9.8 3.8.9 5.7.3 4.1-.2 8.2.5 12.3.1.8.1 1.6.1 2.4.7-.3 1.5-.7 2.3-.8 2.6-.4 5.2-1.1 8-1.1 4.6.1 9.2 0 13.8.1 1.5 0 3.1-.4 4.5.5 2.2-.1 4.4.3 6.5.8.4.1 1.1-.3 1.3-.7.4-.7-.5-.6-.8-.8-1.1-.8-2.3-1.6-3.4-2.4-2.3-1.7-4.6-3.4-7-5-2.2-1.5-4.5-2.8-6.5-4.5-2.1-1.8-4.5-3.3-6.8-4.9-2.2-1.5-4.4-2.9-6.5-4.5-1.8-1.4-3.6-3-5.6-4.2-3-1.9-5.8-4-9-5.6l-8.1-4.2c-1.7.1-2.8-1.2-4.3-1.6-1.5-.4-2.9-1.2-4.4-1.9-3.1-1.5-6.2-3-9.2-4.6-2-1.1-4-2.2-6.4-1.8-.7.1-.8-.4-.4-.9.5-.6.5-1.1-.4-1-1 .1-1.3-1.6-2.5-1.1 0 0-.2-.2-.2-.4-.1-1.1 0-2.1 1-2.8.9-.6 1.8-1.2 2.8-1.7.8-.4 1.6-.6 2.5-.5 1.7.1 3 1.9 2.6 3.7-.2 1.1.7 1.9 1.8 1.6.4-.1.9-.4 1.3-.4 1.8 0 3.5-.6 5.2-1.1 1.9-.6 3.8-1.1 5.2-2.9.8-1 1.3-1.8 1.2-3-.3-1.8.7-2.8 2.2-3.5.1 0 .1-.1.2-.2 1.2-.4 1.9-1.4 2.7-2.3.2-.2.2-.6.1-.8-.6-1.1-.8-2.3-1-3.5-.1-.4-.3-.7-.5-1-.3.3-.6.5-.8.8-.7 1-2.5 2-3.6 2.1-.6 0-.9-.1-.9-.8 0-1-.1-1-1-.4-.5.3-1 .4-1.4.7-.9.5-1.8.8-2.6 1.5-1.3 1-2.9 1.4-4.4 1.9l-5.4 1.8c-2.3.7-4.6 2-7.2 1.7-1.1-.1-2.3.2-3.4.6-2.4.9-4.8 1.5-7.3 1.3-.2 0-.4.1-.6.2l.6.3c1.8.5 3.5 1 5 2.3.7.7 1.7 1.1 2.5 1.6.9.5.9.5.3 1.2-.5.6-1.4 1.2-1.4 1.8-.1.6.7 1.3 1.1 1.9.4.6.8 1.1 1.2 1.7 2.6 4.1 5.2 8.2 5.4 13.3.8.4.1 1.1 0 1.3-1.1.8-1.9 2-3.5 2-.5 0-.9.1-.9-.7-.1-1.9-1.4-5.8-2.2-7.7-1.5-3.5-3.9-6.4-5.8-9.7-.2-.3-.6-.6-.9-.6-.9.1-1.4-.4-2.1-.9-1.2-.9-2.5-2-3.9-2.4-2.3-.6-4.4-2-7-1.6-.2 0-.4.1-.5 0-.7-1.2-1.5-.1-2 .2-.9.4-1.7 1.2-2.4 1.9-2.9 2.6-6.6 4-9.9 5.9-2.1-.1-3.1 1.4-4.2 2.8-1.2 1.5-2.3 3.2-2.8 5-1.3 4.9-3.9 9.4-4 14.6-.9.9-.2 2.1-.5 3-.5 1.1-.4 2.2-.5 3.3-.1 1.8.2 3.6-.4 5.5-.4 1.1-.2 2.5-.5 3.7-.3 1.3-.2 2.6-.5 4-.4 1.9-.1 3.9-.5 5.9-.4 2.1 0 4.3-.1 6.4s-.5 4.1-.5 6.2c.1 10.5.1 21 0 31.5 0 2.6.3 5.3-.4 7.9-.4 1.8 0 3.8-.1 5.6-.1 1.8-.3 3.6-.5 5.5-.2 3 .2 6.1-.4 9.2-.5 2.5-.2 5.1-.5 7.7-.5 4.9.1 9.9-.5 14.8-.4 2.9-.1 5.9-.1 8.8.1 2.9-.1 5.8.4 8.7.5 2.7-.1 5.4.5 8.2.3 1.4.1 2.8.4 4.2.5 2.1.9 4.3 1 6.5.1 2.3.7 4.6.6 6.9-.1 1.3.5 2.6.8 3.8.3 1.4 1.1 2.5 1.6 3.8 1 2.7 2.1 5.4 3.3 8 1.4 3.1 3 6 5 8.8 1.1 1.6 2.7 2.4 4 3.7.6.5 1.5.6 2.3.9 1.5.5 7.7.6 9.1.1 3.6-1.2 6.9-3.2 10.1-5.2 1.4-.9 2.8-1.9 4.2-2.9 2.2-1.5 4.3-3 6.5-4.4l14.1-9.3c2.1-1.4 4.1-2.8 6-4.4 2.7-2.3 5.2-4.9 7.8-7.3 1.7-1.6 3.4-3.3 5.2-4.7 1-.7 1.7-1.7 2.7-2.3 2.7-1.5 4.8-3.9 7.2-5.8 1.5-1.2 2.7-2.7 3.9-4.2 1.8-2.2 3.6-4.3 5.4-6.4 1.8-2.2 3.8-4.2 5.7-6.3 1.8-2 3.6-3.9 5.4-5.9.1-.2.3-.5.2-.6-.2-.2-.5-.4-.7-.4-3 .4-5.2-1.8-7.7-2.8-3.8-3.3-6.8-7.3-9.2-11.7-1.8-3.3-3.3-6.7-4.3-10.3-.8-2.9-1.9-5.8-1.6-8.9.1-.9 0-1.8 0-2.7 0-.6-.4-.6-.8-.4l-4.2 2.4c-2.2 1.2-4.5 2.3-6.6 3.6-3.2 1.9-6.3 3.8-9.5 5.7-3 1.8-5.8 3.9-8.6 5.9-1.1.8-2.1 1.7-3.1 2.5-1.2 1-2.5 1.9-3.7 2.9-.2.1-.4.4-.3.6.2.8-.5 1.1-.9 1.6-.5.7-1.5 1-1.6 2-1.8 1.8-2.9 4.2-5.3 5.4-.8.4-1.8 1.3-2 2.1-.3 1.3-1.1 2.4-1.6 3.5s-.8 2.4-.9 3.5c-.2 2-.3 4.1.8 6 .2.4.2 1.4-.2 1.8-1.5 1.8-3.5 2.8-5.7 3.4-1 .3-1.2-.1-1.9-1.2-1.1-1.6-.9-3.3-.9-5 0-2.1.3-4 1.4-5.8.3-.4.3-1 .5-1.5-.8-.2-1 .6-1.4 1-.5.5-.8 1.2-1.3 1.7-2.3 2.3-4 5.1-6.1 7.6-.7.8-1.3 1.7-1.1 2.7.4 2.1-1.1 3.1-2.4 4-.6.4-1.4.6-2 1-1 .7-2 .4-3 .5-.1 0-.4-.3-.4-.4 0-1.7-.2-3.4 1.1-5 1.3-1.5 2.5-3.1 3.7-4.6 1.9-2.6 3.9-4.9 6-7.3 1.3-1.6 2.9-2.9 4.3-4.4 1.7-1.7 3.8-3 5.8-4.3.7-.5 1.7-.7 2.1-1.3 1.2-1.8 2.6-3.2 4.4-4.3.3-.2.4-.6.6-1 .5-1.1.2-2.4.6-3.5.7-2 .9-4.1 1.3-6.1s.7-4.2 1.2-6.2c.6-2.6 1.2-5.2 1.7-7.8.6-3.2 1.7-6.3 2.2-9.5.2-1.3.6-2.7 1-4s.3-2.8 1-4c.7-1.3.2-2.8.8-4.1.5-1 0-2.4.1-3.6s.4-2.5.5-3.7c.1-1.9.1-3.8 0-5.7-.1-1.8-.3-3.6-.5-5.5-.2-3 .3-5.9-.4-8.9-.5-1.9-.2-3.9-.5-5.9-.5-3.4-.4-6.9-.6-10.4 0-.8 0-1.5-.4-2.3-.4-.9-.3-2.3.9-3 1.7-.9 3.4-1.8 5.1-2.6.6-.3 1.3-.1 1.7.6.3.5.5 1.1.6 1.7.1 2.2 0 4.5.5 6.7.4 2.1-.1 4.3.5 6.5.5 2 .2 4.1.5 6.2.4 3.2-.3 6.4.6 9.6-.3 4.6.5 9.2-.5 13.8-.2.9 0 1.8 0 2.7-.1.9-.2 1.9-.5 2.7-.5 1.9-.7 3.8-1.3 5.6-.8 2.9-1.4 5.8-2.1 8.7-.2.8-.3 1.7-.5 2.5s-.1 1.8-.5 2.5c-.5.8-.2 1.8-.5 2.5-1.1 2.5-1 5.3-1.9 7.8-.4 1.2-.1 2.6-.6 3.7-.6 1.2 0 2.5-.9 3.6-.3.4-.1 1.1 0 1.7 0 .1.3.2.4.1.4-.2.8-.4 1.2-.7 2.9-2.3 6-4.4 9.1-6.4 2-1.3 4.2-2.5 6.3-3.7 3-1.6 5.7-3.6 8.7-5.1 2.9-1.4 5.5-3.2 8.5-4.5 1.2-.5 1.6-1.3 1.7-2.6.2-2.5 1-4.8 3.2-6.3 1.2-.8 2.5-1.4 3.9-1.9 1.2-.5 1.9-.1 2.2 1.2.2.7.3.8.9.5.6-.3 1.2-.8 1.9-.8.8 0 1.2-.3 1.7-.8l2.1-2.1c1.2-1.1 2.2-2.1 1.8-3.9 0-.1 0-.3.1-.5 1-2.1 1.7-4.3 3.4-6 1.9-1.7 4-2.9 6.2-4.1.3-.2.7-.4 1.1-.4.9.1 1.6-.1 2.1-.8.1-.1.5 0 .8 0-.2 1.3 2 .3 1.7 1.7.2 0 .5.1.7 0 1.9-1.2 3.7-2.7 5-4.6s3.1-3.3 4.6-4.9c.4-.5 1.4-.7 1.6-1.3.6-1.3 1.5-2.4 2.3-3.5 1.5-2.1 2.7-4.4 4.5-6.3 1.1-1.2 1.8-2.7 2.7-4 .3-.5.4-1-.1-1.5l-4-4c-.5-.5-1-.5-1.5-.2s-1.3.9-1.6.7c-1-.6-2.1-.1-3-.5-1.9-.8-3.9-.8-5.8-1.3s-3.9-.5-5.9-.5c-5.3-.1-10.7.1-16-.1-3.4-.1-6.4.9-9.5 2.2-1.5.6-2 .3-2.1-1.3-.2-1.7-.2-3.9-.2-6zm197.6 262.6h2c2.1.2 4-.7 5.7-1.8 2.7-1.7 4.6-4.1 6.4-6.6 1.6-2.2 2.3-4.8 3.2-7.3.2-.4 0-.5-.2-.7-1.6-1.7-1.7-3.9-2-6-.2-1.4 0-2.8-.1-4.2-.1-2.7.9-5 2.2-7.2.8-1.4 1.1-2.7 1.3-4.2.2-2.1-.6-4.1-.6-6.2 0-.4-.4-.9-.8-1.1-.6-.3-1.3-.5-2-.5-1.6.1-3-.5-4.5-1-1.3-.4-1.9-1.2-2.5-2.2-.7-1.1-.6-2.1-.2-3.2.9-2.7 2.4-5 5-6.6.9-.6 1.9-1.1 2.7-1.7.2-.2.3-.5.4-.8-.3-.1-.5-.3-.8-.4-1.8 0-3.6-.1-5.4 0s-3.4-.7-4.6-1.8c-.8-.7-1.4-1.9-1.5-3 0-.9 1.3-2.8 2.1-3.5 1.8-1.6 4.1-2.1 6.4-2.5.4-.1.7-.2 1-.5.6-.4-.2-.6-.2-.9-.1-2.1-1.1-4.1-1-6.2-1-1.5-.9-3.2-1.4-4.8-.6-1.7-.5-3.6-1.1-5.2-.5-1.3-.3-2.6-.9-3.8-.2-.4-.2-.7-.7-.7-.8 0-1.8-.3-2.4.1-1.1.7-1.9.2-2.8 0-1.1-.2-2.1-.5-3.1-.9-1.2-.5-1.5-1.3-1.8-2.2-.3-1.1-1-2.2-.1-3.6 1.7-2.7 2.1-3.9 4.9-5.7l.6-.3c-.2-.1-.4-.2-.6-.2-2.6.2-4.5-1-6.2-2.8l-1.4-1.4c-.8-.9-.8-1.9.1-2.7.8-.7 1.9-1 3-1.1h4.9c.8 0 .8-.4.7-.9 0-.3 0-.7-.1-.9-.6-1.6-1.2-3.1-1.7-4.7-.5-1.5-1.3-3-1.5-4.5-.2-2.3-1.1-4.4-1.1-6.7 0-1.4-.4-2.8-.6-4.2-.3-1.5-.5-3.1-.8-4.6-.3-1.2-.3-2.5-.5-3.7-.1-.3-.6-.7-.8-.7-.7.3-1.9.7-2 1.2-.3 1.2-1.3 1-2 1.3-2 .8-3.2.2-4.2-1.6-.2-.5-.5-.9-.8-1.4-.9-1.9-.5-4.1.9-5.6 1.5-1.7 3.7-2.2 5.5-3.3 1 .3 1-.4 1-1.1 0-1.7-.5-3.2-1-4.8-.2-.8.1-1.7-.2-2.4-.5-.9-.3-1.8-.2-2.6.1-.9-.6-1.5-.5-2.3.1-3.5-.5-7 1.4-10.2.1-.2 0-.5-.1-.6s-.5-.2-.6-.1c-1.6 1.1-3.4 1.7-5.2 2.4-2.7 1.1-5.2 2.6-8.1 3.1-1.3.2-2.6.7-4 .9-1.5.2-3 .5-4.5.5-2-.1-3.9-.1-5.9 0-3.2.2-6.4-.4-9.6-.5-.2 0-.4.1-.5 0-.7-1.1-2-.1-2.9-.8-.7-.6-1.9-.6-2.8-1-.5-.2-.5 0-.5.3.1 1.2.5 2.4.9 3.6 1.5 4.8 3.1 9.6 4.5 14.4.9 3 1.9 6 2.7 9 1.3 4.5 3 8.9 4.5 13.4 1.3 3.9 2.1 7.8 3.2 11.7.5 1.7.8 3.4 1.3 5.1.8 2.6 1.7 5.2 2.6 7.8.6 1.7 1.1 3.3 1.7 4.9.7 1.7 1 3.5 1.7 5.2.5 1.3.6 2.7 1 4 .7 1.8 1 3.7 1.6 5.5 1.1 3.2 2.2 6.3 3.3 9.5.8 2.4 1.7 4.9 2.4 7.4.5 1.7 1.1 3.4 1.4 5.1.8 3.6 1.6 7.2 2.6 10.8 1 3.7 1.5 7.4 2.3 11.1.5 2.4.5 4.8 1 7.2.3 1.7 0 3.5.5 5.2.3.9-.2 2.1.3 2.8.6.9-.2 1.9.6 2.7.6.7-.1 1.8.6 2.7.4.5-.6 2.3-1.2 2.6-1.8.7-3.8.5-5.7.5-.2 0-.4-.2-.6-.4-.8-1.1-1.6-2.1-2.3-3.3-.3-.5.2-.8.8-1.3 1-.8 2.4.2 3.1-1-.9-1.1-.1-2.6-.6-3.7-.4-.7-.3-1.4-.3-2.1-.2-2.1-.3-4.3-.5-6.4v-.2c-.8-.7-.6-1.7-.4-2.5.2-1-.7-1.8-.5-2.8.3-1.5-.4-2.8-.6-4.2-.2-1-.2-2-.5-3-1.4-4.1-2.2-8.4-3.3-12.7-.9-3.3-1.9-6.5-2.8-9.7-1-3.3-2.4-6.6-3.4-9.9-.8-2.5-1.8-4.9-2.3-7.4-.4-1.9-.9-3.9-1.6-5.7-1.6-4.4-2.9-9-4.7-13.3-1.6-4-2.4-8.4-3.5-12.6-.8-2.8-1.2-5.7-2.1-8.5-1.5-4.6-3.2-9-4.7-13.6-1-3.2-1.7-6.5-3.1-9.6.2-1.5-.7-2.9-1.1-4.2-.4-1.4-.7-2.8-1.3-4.1-.5-1.4-1.3-2.8-1.5-4.3-.4-2.2-1.5-4.2-1.6-6.5-.7-.7-.5-2-1.6-2.6-.9-.5-1.7-1.1-2.6-1.5-1.3-.7-2.8-1.3-4-2.1-1.4-1-2.7-2.3-4-3.4-.1-.1-.3-.2-.5-.2 0 .2-.1.5 0 .7.9 1.6 1.2 3.4 1.7 5.2.6 2.2 1.7 4.1 2.5 6.1.7 1.7 1.5 3.5 2.1 5.3s1.2 3.6 1.9 5.4c1.1 3.3 1.7 6.7 2.5 10 .3 1.3.6 2.7 1 4 .6 2.2 1.4 4.4 1.9 6.6.6 2.5 1.6 4.9 1.6 7.5 1.3 3 1.6 6.2 2.4 9.3.8 3 1.5 5.9 2.4 8.9.5 1.5.7 3.1 1.1 4.7.2.8.3 1.7.5 2.5s.4 1.6.7 2.4c.8 2.3 1.4 4.7 1.8 7.1.3 1.6.9 3.2 1.3 4.9.5 1.9 1.2 3.8 1.5 5.8.3 2.3.8 4.6 1.6 6.7.6 1.6.9 3.2 1.3 4.9.5 2.1 1.8 4 1.6 6.2.8.8.3 1.8.6 2.7 1.1 3 1.7 6.2 2.8 9.2.7 1.8 1 3.7 1.5 5.5.4 1.4 1.2 2.7 1.4 4.1.3 1.9 1.1 3.7 1.4 5.5.4 2 1.1 3.9 1.5 5.8.6 3 1.7 5.7 2.8 8.5.7 1.8 1.4 3.8 1.7 5.7.3 2.6 0 5.3.5 7.9.4 2.1 1.2 3.9 2 5.8.7 1.6 2.1 2.5 3.4 3.5 2 1.4 3.9 3 6.1 4.2 3.6 1.9 7.3 3.1 11.4 2.9zM135.8 77.1c-.1-.6-.3-1.2-.4-1.8-.2.6-.4 1.2-.7 1.7-.9 1.3-.9 2.9-1.3 4.4-.9 3.1-1.4 6.4-1.6 9.7-.1 1.5 0 3 0 4.4v3.9c-.1 1.3.5 2.5.6 3.7.1 1 .1 2.1.5 3 1.7 3.8 4.2 6.9 7.9 8.9l1.8.9c-.5.5-1 1.1-1.6 1.6-.1.1-.3.1-.4.2-.4.3-.8.3-1.3 0-1.5-.7-2.7-1.8-4-2.8-.4-.3-.7-.3-1 0-.5.6-1 1.2-1.5 1.9l.6.3c1.4.9 3 1.2 4.6 1.5.3.1.5.2.8.3-.1.3-.2.6-.4.8-.9 1-2 1.7-3.3 1.2-1.6-.5-3.1-1.2-4.6-1.9-.8-.4-1.5-1.3-2.1-1.3-.7.1-1.3 1.1-1.9 1.7-.1.1-.3.1-.4.1-.6.2-.6.6-.3.9 1.5 1.4 2.9 2.8 4.5 4 .8.6 2.1.6 2.4 1.9 0 .1.5 0 .7.1s.4.3.7.5c-.2.2-.4.3-.6.5-.7.5-1.2.5-2.1.1-1-.4-2-.7-2.8-1.5-.5-.5-.9.1-1.2.5-.3.4-.3.6.2.9 1.6.9 3.1 2 4.7 2.9.6.3 1.4.4 1.8 1.2-.6.4-1.3.7-1.9 1.1-.4.3-.5-.1-.7-.2-.4-.2-.9-.1-.8.4.2 1.1-.7 1.2-1.2.9-.6-.4-1.2-.5-1.8-.4-2.4.2-4.7-.4-6.9-1.2-.4-.2-.5-.2-.5.2-.1 1.4.4 2.5.9 3.8 2 5 4.5 8.5 8.4 11.2.4.3.9.4 1.2.7 2 2.2 4.9 3.3 6.8 5.7.3.4.7.4.9-.1.2-.3.4-.7.5-1 0-.8.6-.6 1.1-.6s.8-.1 1 .7c.1.5.4 1 .4 1.5.1 1.7.9 2.2 2.5 1.4 1.7-.7 1.8-1.1.9-2.6-.1-.3-.3-.5-.5-.8-.9-1.6-2.2-2.9-3.6-4.2-2.2-2.2-4.2-4.6-6.1-7.1-.7-1-1.5-1.8-2.3-2.7-.5-.6 0-.7.2-.9.5-.4 1-.4 1.5.1.6.6 1.3 1.1 1.7 1.8 1.5 2.2 3.2 4.1 5.1 6 1.5 1.5 2.9 3 4.1 4.7 1 1.3 2 2.7 2.3 4.4.2 1 .6 2.1 1.2 2.9 1 1.5 2.4 2.8 3.2 4.3s2.2 2.4 3.1 3.9c1.5 2.6 5.8 6.4 8.9 8.6 1.4 1 2.9 1.8 4.3 2.8 2.4 1.6 5.1 2.1 7.8 2.6 1 .2 2 .4 2.9.8 2.6 1.2 5.4 1.7 8.2 2.3 1.1.2 2.1.3 3.2.6s2.1.9 3.4.8c1.2-.1 2.3.3 3.5.1 3.1-.4 5.7-1.6 8.2-3.5 1-.8 2.2-1.4 3.3-2 2-1.1 4.3-1.5 6.4-2.4 1.1-.5 2.3-.9 2.9-1.8 1.3-2 3-3.8 2.9-6.4 0-.2.1-.4.2-.6 1-2 1.6-4.1 2.6-6.1.3-.7.5-1.5.6-2.2.2-1 .1-2.2.6-2.9.6-.9-.1-2.1.9-2.8.1-1.9 1.2-3.6 1-5.5 0-.4.1-.8.2-1.1 1.1-3.1.6-6.4.7-9.5-.8-.7-.4-1.7-.5-2.5s-.4-1.7-.5-2.5c-.2-1.6-.1-3.2-.6-4.7-.7-2.3-.9-4.6-1.9-6.9-.8-1.8-1-3.8-1.6-5.8-.4-1.4-1.2-2.7-1.4-4.1-.5-2.7-1.9-5.2-2.3-7.9-.3-1.8-1.9-3-1.7-5 0-.2-.2-.4-.4-.6-1.4-1.7-2.7-3.5-4.2-5.1-1.2-1.3-2.3-2.5-2.4-4.4-.7-.5-.4-1 .1-1.4.6-.5.3-.8-.1-1-.8-.3-1.7-.5-2.5.2-1 .8-2 1.2-3.2 1.1-1.1 0-2 .2-2.8.9-.9.8-1.9 1.3-2.8 2-2.5 2-5.7 2.8-8.5 4.4-1.9.1-3.7 1.2-5.7 1-1.2-.1-2.5 0-3.7 0-3.3 0-7.1-2.2-9-5-2.4-3.5-4.2-7.3-6.2-11-1.8-3.3-3.4-6.7-5.6-9.7-1-1.3-2-2.7-3.2-3.8-1.7-1.5-3.5-2.9-5.5-3.9-.7-.4-1.3-1.4-2.4-.9.5.7.9 1.4 1.4 2.1.5.7 1.1 1.4 1.6 2.1 1.1 1.6 2.6 3.1 3.2 4.8 1 2.6 2.3 5.1 3.1 7.8.4 1.3 1.2 2.5 1.4 3.8.6 3 1.8 5.7 2.9 8.4.8 2 2 3.8 3.4 5.5 2.2 2.7 3.4 3.3 6.5 2.8.3-.1.7 0 1 0 .5 0 .4.1.2.5-.6 1.1-1.5 1.6-2.6 1.9-.6.1-1.3-.2-1.8.5-.1.2-.8 0-1.1-.1-1.3-.5-2.7-.8-3.7-1.8-1-1.1-2.1-2.2-2.8-3.5-1.6-2.9-3.1-5.9-4-9.2-.6-2.1-.9-4.3-1.9-6.3-.4-.8-.7-1.7-1-2.5-1.1-2.9-2-5.9-3.9-8.5-1.2-1.5-2.4-3.1-3.4-4.8-.3-.6-.6-1.3-1.2-1.2-.7.2-.3 1-.3 1.5 0 2.6.1 5.1.4 7.7.4 2.9.1 5.9.1 8.8 0 1.8.2 3.5-.5 5.2-.2.5-.5 1-.5 1.5-.1 2.3 0 4.6 0 6.9 0 .7.4 1.2.5 1.8.1 2.1.8 3.9 2.3 5.5.3.4.7.9.7 1.4 0 .7.3 1 .7 1.4.6.6 1.2 1.1 1.7 1.7.7.8 1.6 1 2.7 1.3 1.4.4 2.8.4 4.2.4.1 0 .3.1.4.1-.1.1-.1.3-.2.3-.9.9-1.7 1.8-2.6 2.6-.6.5-1.2.9-2.1.9-1 0-2.1-.4-3 .4-1-.6-2.2-.2-3.2-.4-1.1-.3-2.2-.5-3.3-.9-1.7-.6-3-1.8-4.2-2.9-2.9-2.6-4.1-6.1-4.4-10 0-.4.1-.8 0-1.2-.5-2.3-.5-2.3 0-4.5.1-.5.2-1.1-.1-1.4-.8-1.1-.3-2.4-.4-3.5-.1-1.2-.3-2.6.1-3.7.5-1.2.3-2.4.4-3.5-.3-.9 0-2.1.2-3.2zM339 239.9c-.1-.6.2-1.3-.3-1.8-.9-.9-2-1.6-3.2-1.8-1.1-.2-2-.4-2.8-1.1-.3-.2-.7-.5-1-.5-.9.1-1.8-.2-2.2-.6-.7-.8-1.8.1-2.4-.8-3-.6-5.7-2.1-8.7-2.8-1.2-.3-2.4-.6-3.6-.8-1.4-.2-2.5.1-3.4 1.3-1.9 2.3-3.4 4.9-5.7 6.8-.3.2-.3.7-.5 1-1.2 2-2.5 4.1-3.6 6.1-1.9 3.5-4.7 6.3-6.8 9.7-1.1 1.7-2.2 3.4-3.3 5-2.7 4-5.1 8.3-7.8 12.3-3 4.4-6.2 8.6-10 12.3-2.4 2.4-5 4.6-7.4 7-.6.6-1.9.6-1.9 1.9-.8.4-1.6.8-2.5 1.1-.5.2-.5.5-.2.9 1.8 3 3 6.4 5.2 9.2 1.6 2.1 3.2 4.2 4.6 6.5 1 1.7 2.6 2.9 3.9 4.3.5.5.9.4 1.2-.1.9-1.6 2.4-2.9 2.3-4.9 0-.2.1-.5.3-.6 1.4-.8 2.5-2.1 4.4-1.9 2.1.2 4-.4 6-1 1.4-.4 3-.9 4.1-1.8 1.9-1.5 4.2-2.6 5.7-4.6.1-.2.4-.3.6-.4 1.9-1.2 3.8-2.5 5.1-4.3 1.3-1.9 3-3.4 4.6-5 1.3-1.3 2.4-2.7 3.2-4.3.5-1 1-2 1.4-3.1.4-.9.9-1.6 1.5-2.3 2.7-2.7 6.1-4.1 9.5-5.5 2.2-.9 4.6-1.5 7-2.2 2.7-.9 5.6-1.5 8.2-2.7 2.1-1 4.1-2.2 5.8-3.8.6-.5.6-1 .2-1.7-.7-1.3-1.8-2.1-3-1.3-1.5 1-3.3 1.2-4.9 1.8-2.5.9-5.1 1.2-7.7 1.6-2 .3-3.9.8-5.8 1.5s-3.6 1.9-5.5 2.8c-.8.4-1.6.8-2.4 1.4-1 .7-2.1 1.2-3.2 1.7-.7.3-1.1-.1-1.2-.9 0-.5 0-1.3-.1-1.4-1.1-.3-.7-.6-.2-1.1.6-.5 1.1-1.2 1.8-1.7 2.9-2.1 5.7-4.3 8.7-6.2 1.8-1.2 3.7-2 5.7-2.9.9-.4 2-.5 3-.5 1.1 0 2.2-.5 3.2-.5 1.5 0 3 .2 4.5.5.8.1 1.5.6 2.3 1 .3.1.5.4.8.4 1.6 0 3 .7 4.5 1.1 1.2.3 2.1-.2 2.8-1.4.7-1.3.8-1.4-.7-2-2-.8-3.7-2-5.7-2.8-3.9-1.4-7.7-2.8-11.9-2.7-1.3.1-2.7-.2-3.9.1-.8.2-1.5 1-2.4 1.4-1.4.7-2.9 1.3-4.3 2-1.1.5-2.1 1.3-3.2 1.8-2.6 1.4-5.2 2.8-8.2 3.3-.8.1-1.5.2-2.3.1-.5 0-.6-.7-.2-1 1.2-1 2.5-1.9 4.2-1.8.6 0 1.2.1 1.7-.1 2.7-.9 4.9-2.5 6.6-4.9 1-1.5 2.2-3.1 3.9-4 1.1-.6 2.4-1.8 3.6-1.2 1 .5 1.9 0 2.7.6.9.6 1.9.2 2.8.3.4.1.9.3 1.3.4 1.9.3 3.4 1.8 5.5 1.6.5 1 1.7.1 2.4.8.8.8 1.5-.5 2.4-.3 1.7.3 2.9-.6 3.9-1.8.6-.6.6-1.2-.2-1.5-1.6-.8-3.3-1.6-5-2.1-2.5-.7-5-1.4-7.3-2.5-2.4-1.1-4.7-2.4-7.2-3.4-1-.4-2.1-.6-3-.4-2.8.7-5.5 1.9-7.7 4-2.9 2.7-5.8 5.5-8.7 8.2-.9.8-1.8 1.5-2.8 2.3-.4.3-.8.5-1.2.7-.2.1-.5-.1-.8-.1.1-.2.1-.5.2-.7 1-1.1 2.1-2.1 3.1-3.1 2-2 4.1-5.7 5.1-8.7.7-2.2 1.5-3.6 3.3-5 .5-.4 1.2-.7 1.8-.9.3-.1.8.4 1.2.6l.9.3c2.2.9 4.3.5 6.4-.1.4-.1.9-.3 1.3-.4 1.5-.2 2.9.5 4.2 1.2 1.8 1 3.7 1.9 5.4 3 1 .6 1.3-.6 2.2-.3.1-.4-.4-1.4-.2-1.8zm-67.5-113.5c1.4.1 2.7 0 4 .4 1.2.4 2.6.2 4 .5 2.2.5 4.4.6 6.5 1.5 2.9 1.3 6 1.8 8.9 2.9 1.9.7 3.8 1.4 5.8 2.1 3.6 1.3 7.2 2.9 9.9 5.8.6.6 1 1.5 1.6 2 1.2 1.2 2.1 2.5 2.7 4.1.6 1.5 1.2 2.9 2 4.3.7 1.2 1 2.5 1.5 3.8.3.8.3 1.7.6 2.4.8 2.1 1.2 4.4 1.8 6.6.5 2.1 1.3 4.2 1.8 6.4a31 31 0 002.1 5.8c1.2 2.7 1.8 5.6 3.2 8.3.4.7.6 1.6.8 2.4.6 2.9 1.6 5.6 2 8.5 0 .2.3.4.4.4.5.1 1 .1 1.5 0 2.3-.2 4.1.8 5.7 2.4 1.1 1.2 1.1 1.8-.1 2.7-.5.4-1.1.6-1.6.8-.7.2-1.5.3-2.3.5-1.6.4-1.9.8-1.3 2.5.2.6.7 1.1.6 1.7-.1 1.3.3 2.1 1.6 2.6.4.1.6 1.1 1 1.1 1.1.1 1.9.7 2.6 1.4.3.3 1 .1.9.9-.1.6.1 1.1-.5 1.5-.5.3-.9.6-1.4.9-.6.4-1.2.8-1.7 1.2-.1.1-.2.4-.2.5.6.7 0 1.7.4 2.3 1.1 1.7.7 3.8 1.8 5.4.4.5.4 1.3.5 2 .5 2.4 1.1 4.8 1.6 7.2.1.6.5 1.3.4 2-.1 1.1.1 2.2.6 3.2.4.8.5 1.7.4 2.5 0 .3-.1.7 0 1 .3 1.4.4 2.8 2.4 3.2 1.9.4 3.6 1.5 5.5 2.2.9.3 1 .9 1 1.6 0 1.8-1.1 2.9-2.4 3.8-.7.5-1.4.9-2.1 1.4-.2.2-.6.4 0 .6 1 .3 1.7.9 2.8 1.1 1 .2 1.9 1 2.9 1.4 1.3.5 1.8 1 1.3 2-.7 1.3-.9 3.1-2.7 3.5-.6.2-1.4.4-1.8.9-.4.6.3 1.3.2 2.1-.2 1 .2 2-.8 2.9-.4.4-.2 1.5-.1 2.2.3 1.5.9 2.9 1.3 4.4.8 2.8 1.6 5.6 2.5 8.3.6 1.9 1.5 3.7 1.9 5.6.3 1.5.6 3.1 1.1 4.5.5 1.5.8 3.1 1.3 4.6.5 1.4.9 3 1.1 4.5.2 2.3 1.2 4.5 1.5 6.8 0 .1.4.3.5.3.2 0 .4-.2.4-.4.3-.8.3-1.7.7-2.4 2.6-3.9 5.7-7.3 9.6-9.9.8-.6 1.7-1.1 2.5-1.7.1-.1 0-.3 0-.5.1-1-.5-1.9-.8-2.9-.7-2.2-1.6-4.3-2.1-6.5s-1-4.4-2.1-6.3c-1.2-2.3-1.6-4.8-2.4-7.1-.2-.7-.3-1.5-.5-2.2-.3-.8-.7-1.5-.9-2.3-.2-.7 0-1.5-.4-2.3s-.8-1.6-1.1-2.5c-1-4-3.3-7.3-4.5-11.2-.4-1.4-1.4-2.7-1.9-4.1-.6-1.5-1-3-1.5-4.5-1-2.7-1.9-5.4-2.7-8.3-.7-2.7-1.6-5.3-1.8-8.1-.1-1.2-.4-2.8-1.5-3.5-.7-.5-.8-.9-1-1.6-.2-1-.6-1.9-.9-2.8-.6-2.4-1.1-4.9-2.2-7.2-.2-.3-.2-.8-.3-1.1-.7-2.3-1.2-4.6-1.8-6.9-.4-1.8-1.1-3.5-1.2-5.4-.1-1.1-.3-2.2-.6-3.2-.9-2.9-1.4-6-2.3-8.9-.4-1.3-.2-2.9-1.8-3.7-.1-.1-.2-.5-.1-.6.5-.5.3-.8.1-1.4-.7-2.2-1.6-4.5-2.1-6.8-.9-4.2-2.2-8.2-3.7-12.2-.3-.8-.6-.9-1.4-.5-.5.2-1.1.1-1.7 0-.6 0-2.2-1.1-2.1-1.2.6-.5 1.3-.9 2-1.2.4-.2 1.4.4 1.4-.4 0-1.1-1-.4-1.5-.5-.4-.1-.8 0-1.2 0-.2 0-.5-.1-.6-.2-.2-.1-.3-.3-.5-.5.1-.1.3-.2.4-.2.2-.1.5-.2.6-.3.5-.4 1.4.1 1.7-.7.4-.8-1.1-.9-.7-1.7-1.1-1.6-1.9-3.3-2.4-5.1s-1.5-3.5-2.1-5.3c-.7-2.6-2-4.9-3.6-7.2-1.3-1.8-2.8-3.4-4-5.2-.9-1.4-2.4-2.2-3.9-3-.4-.2-.8-.4-1.3-.5-1.3-.4-2.7-.6-3.9-1.2-2.4-1.4-5.1-2.1-7.6-3.1-.8-.3-1.9-.2-2.4-.7-.8-.8-2 .1-2.6-.9-1.7 1-3.3.3-5 0-2.1-.4-4.2-.8-6.2-.9-2.5-.2-5.2-.6-7.7.4-.3.1-.7.1-1 0-1.4-.8-3-.4-4.5-.5-1.7-.1-2.3.7-2.5 2.4-.1.8.4 1.7-.5 2.3.2.7.3 1.6.8 2.1.3.4 1.3.7 1.7.5 1.1-.8 2.4-.4 3.7-.6zm60.1 193c0 1.2.1 2.5 0 3.7-.3 3.1.7 6.1 1.1 9.2.1.8.2 1.7.4 2.5.3 1.2.2 2.4.6 3.5.3.9.2 1.7.4 2.5.3.9.5 1.8.5 2.8 0 .8.4 1.7.4 2.5.1 1.3-.3 2.7.5 4-.2 2.3 1 4.4 1 6.7.8.8.1 2.1.7 2.9.5.7 0 1.5.3 2.1.3.7.5 1.3.5 2 0 1.6 0 1.5 1.7 1.5h13.6c1.5 0 3 .4 4.5-.4.3-.2 1-.2 1.2 0 .6.7 1.4.3 2.1.4 1.2.3 2.2-.5 3.2-.5 1.9.1 3.6-1.1 5.5-1.1.3 0 1-.5.7-1.3-.7-1.7-.9-3.6-1.3-5.3-.7-3.1-1.7-6.1-2.8-9-1.2-3.2-2.5-6.5-4.1-9.6-.7-1.5-1.3-3.1-1.6-4.8-.6-3.3-2.1-6.2-2.8-9.4-.6-2.4-1.8-4.7-2.5-7.1-.5-1.5-.9-2.9-1.6-4.3-.3-.6-.7-1-1.5-.9-1.1.1-2-.3-2.9-.7-2.4-1-4-2.8-5.3-4.9-1.7-2.8-2.5-5.9-2.1-9.2.2-1.6 1-3.3 2.5-4.3.6-.4 1.3-.8 2-1 .6-.2.8-.3.8-.9-.1-1.1-.1-2.2-.4-3.3-.8-2.8-1.7-5.6-2.4-8.4-.5-2.1-1.8-4-1.7-6.2 0-.2-.4-.5-.4-.8 0-.9-.3-.8-1.1-.5-3 1.6-6.3 2.5-9.5 3.7-1.1.4-2.3.4-3.4.7-1.7.5-3.4 1.1-4.9 1.8-2 .8-4.4 1.7-4.3 4.7-.8.6-.3 1.1.2 1.5s1 .7 1.5 1.1c.9.7 2 1.4 2.8 2.2 2 2.1 4.2 4 6 6.4 1.3 1.8 2.3 3.8 3.6 5.6.4.5.3.8-.1 1.2-.5.5-1.2.8-1.1 1.8.1 1.6.1 3.1 0 4.7-.1 1.5.3 2.9-.3 4.5-.5 1.4-.1 3.1-.1 4.6-.1 1.1-.1 2.1-.1 3.1zM133.2 353v-1.5c0-.2-.1-.3-.1-.5-.2.1-.4.1-.5.2-.9 1-2 1.8-3.3 2.3-1.2.4-2.6.4-3-.4-.5-1-.7-2.2-1-3.3.7-.6 1.3-1.3 2.1-1.9.5-.3 1.1-.4 1.7-.6 1.8-.6 2.2-.5 3.1 1 .2.3.3.5.5.8.1.2.2.5.3.7.1-.2.2-.4.2-.7.2-3.2-.3-6.4.4-9.7.3-1.5 0-3.1.1-4.7s.3-3.1.5-4.7c.2-2.9-.3-5.8.4-8.7.4-1.6 0-3.4.1-5.1s.4-3.5.5-5.2v-34.4c0-.9-.1-1.7.5-2.5.5-.6.5-1.4.5-2.2.2-4-.4-8.1.4-12.1.4-1.8.1-3.8.4-5.7.5-2.7.4-5.6.6-8.4.1-1-.3-2 .4-3 .2-.3-.1-1-.2-1.6 0-.2-.3-.5-.2-.6 1.1-1.3-.2-3 1-4.3 0-2.4 1-4.7 1.5-7 0-.3.2-.5.4-.7-.3 0-.6 0-.8.1-.7.4-1.4.5-2 0-.3-.3.1-2.1.5-2.5.3-.3.6-.5.9-.7 2.6-1.5 2.6-1.5 4.2-4.4.3-.5.6-.9.9-1.4 1.2-2.2 3-4.1 4-6.5.1-.3.5-.5-.1-.6-2.1-.3-3.4.5-4 2.7-.2.9-.5 1.9-1.2 2.1-.7.2-.7.7-1 1.1-2.2 3.1-5.5 8.6-7.4 13.2-1.6 4.1-2.8 8.2-3.7 12.5-.1.7-.4 1.3-.5 2-.1.8-.1 1.5-.4 2.3-.3.7.1 1.7-.5 2.5-.1.1.1.3.1.4.1 0 .3 0 .3-.1.6-.7 1.5-1 2.4-1.4 1.4-.6 2.3-.5 3.2.5.8.9 1.2 3.3.7 4-1 1.2-2.3 1.8-3.8 2-.9.1-1.3-.3-1.4-1.2v-1c0-.1-.3-.1-.3-.1-.3.8-.7-.3-1.1.1-.2.2-.5.5-.5.8-.1.9 0 1.8 0 2.7-.1.8-.4 1.7-.5 2.5-.2 1.8 0 3.6-.4 5.5-.4 2 0 4.1-.1 6.1s-.3 4-.5 5.9c-.1 1.1.3 2.4-.1 3.4-.5 1.2-.3 2.4-.4 3.5-.1 1.2-.4 2.5-.5 3.7-.2 2.1-.3 4.3-.5 6.4v.2c-1.2 1.1-.1 2.6-.7 3.9-.6 1.1-.5 2.6-.7 3.9-.2 2.2-.7 4.3-1.2 6.5-.6 2.6-1.2 5.2-1.7 7.8-.6 2.8-1.6 5.5-1.6 8.5-1 .9-.3 2.2-.9 3.3-.6.9-.4 2.3-.6 3.4-.1.5-.4 1-.5 1.5-.1.6.1 1.4 0 2-.7 2.4-1 4.8-1.5 7.3-.2.9-.1 1.9-.5 2.7-.5 1.3-.5 2.7-.9 4.1-.4 1.3-.7 2.7-1 4-.4 1.6-.7 3.3-1.2 4.9l-2.7 8.7c-1.3 4-2.7 7.9-4.5 11.7-.9 1.9-1.5 3.9-2.6 5.6-2 3.2-3.5 6.6-5.7 9.7-1.4 2-2.4 4.3-3.9 6.2-2.3 3-4.2 6.3-6.9 9-.1.1-.1.4-.1.7.2 0 .4 0 .5-.1 1-.7 2-1.4 3.1-2.1 1.9-1.4 3.8-2.7 5.7-4.1 1.4-1.1 2.8-2.2 4.3-3.2 2.3-1.6 4.5-3.1 6.5-5.1 1.4-1.5 2.9-2.9 4.3-4.3 1.3-1.3 2.8-2.4 3.8-3.9 1.9-2.7 4.3-5.1 6.4-7.7 1.8-2.3 4.3-4.2 6.1-6.6 1-1.3 2-2.6 2.7-4.1.5-1.1 1.2-2.1 2.2-2.7.4-.3.7-.3.7-.9-.1-4.2-.6-8.3.3-12.4zm269.1-13.4c1.8 0 3.6.1 5.4 0 1.5-.1 2.9-.6 4.3-.8 2.2-.4 4.1-1.6 6.2-2.4 2-.8 4.1-1.7 6-2.9 3.2-2.1 6.6-3.9 9.3-6.8 2.4-2.6 3.7-5.6 4.6-9 .3-1.1.3-2.2.6-3.2.4-.9.4-1.7-.1-2.7-.5-1.2-.9-2.5-1.1-3.7-.2-1-.5-1.8-1.2-2.5l-3.3-3.3c-.8-.8-1.5-2-3-1.7-.1 0-.3-.1-.4-.2-1.8-1.3-3.7-2.6-5.4-4-1.1-.9-2.2-1.5-3.5-1.6-1.7-.2-3.2-1-4.7-1.7-2.4-1.2-5.5-2.1-7.7-2.3-2.8-.2-5.4.5-8.2.5-2.1 0-4.1-.3-6.2.4-1.6.5-3.3.6-5 1-3 .6-6.1 1.1-9 2l-4.2 1.2c-1.4.5-2.7 1.3-4 2.2-2.4 1.8-4.2 4.1-5.9 6.5-1.5 2.1-2.3 4.5-2.1 7.3.2 1.8-.1 3.7.5 5.5 1.2 3.7 2.9 7.1 5.4 10.1 1.6 1.9 3.5 3.3 5.8 4.4 1.4.6 2.6 1.6 3.9 2.4s2.6 1.5 4.1 1.9c1.7.5 3.3 1.2 4.9 1.7 1.1.4 2.3 1.2 3.4 1.1 2.2-.1 4.3.7 6.4.6h4.2zm-153.9-35.2c-.5.5-.9.8-1.3 1.2-2.3 2.9-4.4 5.9-6.9 8.7-.6.7-.5 1.7-1.2 2.2-1 .8-.6 1.8-.6 2.7.1 1.4.3 2.8.5 4.2 1 .5.5 1.6.7 2.4.9 3.1 2.3 5.9 3.7 8.8 1.8 3.9 4.2 7.4 7 10.6.8.9 1.7 1.7 2.6 2.6.6-1 1.3-1.9 1.9-2.9 0-.1.1-.1.2-.2 2.3-2.7 4-5.8 6.4-8.5 1.6-1.8 2.9-4 4.3-6.1.3-.5.4-.8 0-1.2-1.5-1.3-2.5-2.9-3.5-4.5-2-3.1-4.2-6.2-6.3-9.2-1.4-2-2.7-4.2-4.2-6.1-1.1-1.3-2.2-2.7-2.9-4.2 0 0-.1-.1-.4-.5zM459.6 430v1.4c.1 2.2-.5 4.1-1.8 5.9-.8 1-1.8 1.8-2.5 2.9s-1.7 1.7-2.6 2.5c-.7.6-1.6 1.1-2.4 1.2-2 .1-3.9.9-6 1.1-1.1.1-1.8.9-1.9 2 0 2 1.6 3.7 3.6 3.9 1.6.2 3-.5 4.5-.5 1.1 0 2.6.6 2.9-1.3 0-.1.1-.2.2-.2 1.6.1 2.5-1.2 3.6-2 2.8-2.1 5.2-4.6 6.3-8 .6-1.8 1.3-3.6 1.5-5.5.2-2 .9-4.1.6-6.2-.2-.9-.4-1.8-.5-2.7-.1-2.6-1.1-4.9-1.9-7.3-1.2-3.4-3.8-5.8-6.3-8.2-.2-.2-.5-.4-.8-.4-1 0-1.7-.4-2.6-.9-1-.6-2.1-.8-3.2-1-.6-.1-1.2-.1-1.8.4-.2.2-.8 0-1.2 0-1.2 0-2.5-.1-3.7 0-.9.1-2 .2-2.6.8-1.8 1.5-3.6 3.1-4.7 5.2-.5.9-.3 2.2-.1 3.2.1.6.9 1.3 1.5 1.5.9.4 2 .4 3 .6.9-1 2-.3 3-.5 1.1-.2 2.2-.4 3.2-.5 3.1-.3 5.8.7 8.3 2.5 2 1.5 3.5 3.2 4 5.8.3 1.5.2 3 .4 4.3zm-98.7-22.1c-.6-2.3-1.1-4.1-1.5-5.9-.2-.8-.1-1.6-.4-2.3-.8-1.6-1.3-3.3-1.8-4.9-.5-1.7-1.5-3.4-1.5-5.3-1.6-3.2-2.3-6.8-3.2-10.2-.6-2.2-1.3-4.5-1.2-6.9v-1.7c0-.6-.3-.6-.7-.6-2.4 0-4.8.1-7.1 0-1.2 0-2.3-.4-3.5-.5-.9-.1-1.1.1-.9 1.1.2.9.4 1.8.5 2.7.1.9.6 1.7.8 2.6.7 2.7 1.3 5.4 2.2 8 .6 1.8.8 3.7 1.3 5.6.8 2.5 1.4 5 2 7.5 1 4.2 2.2 8.4 3.5 12.6.3.8.6 1.2 1.5 1.2.4 0 1.1.2 1.2 0 .7-.9 1.8-.2 2.6-.9.7-.6 1.9-.4 2.9-.6.9-.2 1.7-.9 2.6-.9 1.1.1.7-.4.7-.6zm88.3-22.8c-.1 1.9.2 4.2-.5 6.3-.8 2.3-1.4 4.6-3.7 5.8-.9.5-1.7 1.2-2.4 1.9-.8.8-1.9 1.5-2.8 1.4-1.1-.1-2.2.6-3.3 0-1.1.7-2.3.4-3.5.5-.1 0-.3.1-.4.2.1.1.1.3.2.3 1.2 1 2.4 2 3.7 2.9.4.3 1 .5 1.5.5 2 .2 3.9-.8 6-.5.5.1 1.3-.5 1.5-.9.4-1.1 1.2-1.1 2.1-1 .3 0 .8.1 1 0 .9-1.2 2.5-1.6 3.3-3 .9-1.5 1.7-2.9 2.3-4.5 1.1-2.9 1.6-3.3 1.1-7v-.2c-.1-1.7 0-3.5-.4-5.2-.4-2-.7-4.2-1.1-6.2-.4-2.1-1-4.2-2-6.1-1.4-2.5-3-5-4.5-7.5-.3-.4-.6-.8-1-1-1.1-.6-2.3-1.1-3.5-1.5-1.7-.6-3.5-1-5.3-1.5-.5-.1-1 0-1.6-.4-.4-.3-1.1-.2-1.7 0-.4.1-.7.8-1 .9-1.4.3-2.7 1.3-4.1 1.4-1.9.1-2.8 1.3-3.6 2.6-.7 1.1-.1 2.3.4 3.3s1.1.3 1.8.1c1-.2 2-.1 3-.5 2.2-.8 3-.7 5.1-.1.6.2 1.2.5 1.8.5 2 0 3.6 1 5 2.3 1.5 1.3 2.9 2.7 4.2 4.2.8.9 1.5 1.9 1.8 3.2.4 1.6.6 3.2.8 4.8-.1 1.2-.2 2.5-.2 4zM185.7 195.9h4.4c.5 0 1 .1 1.4-.1 2.8-1.2 5.8-1.6 8.8-1.9.3 0 .6-.2.8-.3 2.3-.8 4.6-1.7 6.9-2.4 1.3-.4 2.7-.7 3.8-1.4.7-.5 1.4-.9 2.2-1.2.8-.4 1.4-.9 2.1-1.5 1-.9 1.9-2 3-2.9 1.7-1.3 1.7-1.2 1.6-3.4-.1-2-.6-4-1-6 0-.1-.1-.3-.1-.4-.2.1-.4.2-.5.3-1.9 3.3-4.9 4.6-8.5 5-.5.1-1.1.3-1.5.5-1.1.7-2.2 1.5-3.3 2.2-3.6 2.5-7.7 3.8-12.1 4.1-2.5.2-4.8-.3-7.2-1-2.8-.8-5.6-1.4-8.2-2.7-.8-.4-1-.3-1 .5.1.9.4 1.8.4 2.7.1 1.4-.1 2.8-.4 4.2-.3 1.4-.3 2.9-1 4.3-.2.4-.1.8.5.8 3.2.2 6 .8 8.9.6zm266.8 260.9c-1.3-.1-2.4.3-3.6 1-1.6.9-2.2 2.4-2.7 4-.3.9-.1 1.5 0 2.3.1 1.3 1.1 1.5 1.8 1.9.8.5 1.7.7 2.7.6.5 0 1.1.1 1.6.3.7.3 1.3.8 2 1.1 3 1.7 4.2 3.7 3.3 6.5-.4 1.3-.6 2.7-.3 3.7.5 1.5.2 3 .4 4.5.1.7-.1 1.1-.9 1-.9-.1-1.8.2-2.3 1-1.1 1.7-1.8 3.4-1 5.5.1.2.2.5.2.6-1 1.4-.4 2.7 0 4 .5 1.5 2.8 3.1 4 2.6.8-.3 1.5-.4 2.3-.4.6 0 1-.2 1.5-.7 1.4-1.5 2.4-3.2 3.2-5.1.9-2.1 1.4-4.1 1.3-6.4v-1.7c0-.6 0-1.2.4-1.8.3-.4-.4-1.3-.4-2 .1-1.5-.5-2.8-.8-4.1-.5-2.2-1-4.5-1.7-6.7-.4-1.2-.7-2.5-1.5-3.5-1.3-1.7-2.6-3.3-3.6-5.1-.6-1-1.4-1.7-2.1-2.5-.3-.4-.6-.5-1-.1-.1.1-.4.1-.5 0-.7-.6-1.5-.6-2.3-.5zM110.1 103.1v5.4c-1.2 1.3 0 2.4.5 3.3.3.6.5 1.1.5 1.8v3c0 .5.7 3.5 1 4 .7 1.4 1.6 2.7 2.6 3.9 1.8 2.1 4.3 3.1 6.4 4.8.2.2.6.1.9.2.1 0 .3-.1.4-.2-.1-.1-.1-.2-.3-.3-.8-.5-1.7-1.1-2.5-1.6-.1-.1-.1-.4-.1-.6 0-.1.3-.2.4-.2.4.1.7.2 1.1.3 1.9.8 3.5 2.2 5.5 2.6.4.1.6.8 1.2.3-.3-.3-.5-.6-.8-.8-.5-.4-1-.8-1.6-1-2.9-.8-4.7-2.8-5.9-5.4-1-2.1-2-4.3-3-6.4-.9-1.8-1.4-3.8-1.4-5.8 0-4.4-.6-8.9.4-13.3.2-1 .5-2.1.8-3.1.5-1.9 1.4-3.7 2.1-5.5.6-1.7 1.2-3.4 2.1-5.1 1.2-2.3 2.4-4.6 3.8-6.8.6-1 1.3-2 1.5-3 .5-2.2 1.9-3.8 3.2-5.6.4-.5.9-1.3.8-1.8-.1-1.7.6-2.9 1.6-4 .1-.1.2-.3.2-.5-.2 0-.5-.1-.7 0-.7.6-1.4 1.2-1.9 1.9-2.1 3.3-4.4 6.4-7 9.4-.7.9-1.4 1.9-1.9 2.9-.7 1.3-1.4 2.5-2.3 3.7-2.3 3.3-4.2 6.7-5.6 10.5-.4 1.1-.9 2.3-1.3 3.4s-.3 2.4-.6 3.5c-.4 1.3-.3 2.5-.4 3.8.2.6.3 1.5.3 2.3zm126.5 109.3l-.6-.6c-1.4-1.4-3-2.7-4-4.5-.5-.8-.8-1.6-1.4-2.4-1.6-2.1-3.4-4.2-4-7-.1-.6-.8-1.1-1.2-1.6-.2.5-.4 1-.7 1.4-.2.4-.5.8-.9 1.1-1.4 1.3-2.8 2.7-4.3 3.9-1.9 1.6-3.9 2.6-6.2 3.4-1.3.4-2.5 1-3.8 1.4-.8.2-.4.4-.1.7l.6.3c2 1 3.9 2.1 5.9 2.9 2.1.9 4.1 1.9 6.3 2.7 2.7 1 5.3 2.3 7.9 3.5 3.1 1.4 6.1 3.1 9 5 1.1.7 1.8.7 2.9 0 .6-.4.7-.8.2-1.4-2.1-2.2-4.3-4.3-6.4-6.4-.8-.8-.8-.8 0-1.7.2-.2.5-.4.8-.7zm122.5 158.5c0 .2-.1.5 0 .7.5 1.6 1.2 3.2 1.4 4.8.2 1.7.8 3.3 1.3 4.9 1.1 3.2 1.6 6.6 3.2 9.7.6 1.3.5 1.3 1.7.8 3.1-1.3 6.3-2.5 9.6-3.5.2-.1.4-.4.5-.6-1-.8-.4-1.9-.7-2.9-.8-2.1-1.4-4.4-1.7-6.7-.2-1.7-.7-3.3-1.2-4.9-.3-1.2-1-2.4-.8-3.6.2-1.3-1-1.8-1.1-2.8 0-.1-.6-.3-.8-.2-1.5.4-3.1.9-4.6 1.3-1.7.4-3.4.8-5.2 1.1-1.3.3-1.6.5-1.6 1.9zm19.2-93.3c-.5-1.4-1.3-2.6-1.4-4-.5-3.5-1.7-6.9-2.7-10.2-1.4-4.5-2.6-9.1-4.2-13.5-.2-.6-.2-1-1-1-.9.1-1.9.4-2.7.4-1.8.1-3.2.1-4.2.8-.4.3-.6.5-.4 1.2.7 1.8 1.2 3.8 1.8 5.6.8 2.4 1.5 4.8 2.5 7.1.7 1.8 1.3 3.5 1.9 5.3 1.2 3.5 2.3 7.1 3.5 10.6.1.2.5.4.7.4 1.3-.4 2.6-.8 3.8-1.4.7-.3 1-1.3 2-1.1.2.3.4-.1.4-.2zm-250.2-224c-2.9 0-2.8 0-3.9 2.8-.3.8-.3 1.6-.3 2.3-.1.9.1 1 .9.6 1.4-.6 2.8-1.3 4.2-1.7 1-.2 2-.5 2.7-1.3s1.5-1 2.4-.6c.3.1.4.5.7.1.4-.5.9-.8 1-1.6.2-1.5 1.3-2.6 2.7-3 2.5-.6 5.1-1.7 7.7-1.5 3.3.2 6.6-.6 9.9-.5h.5c2.7-.5 2.7-.5 5 0 .9.2 1.9.4 2.7-.6.4-.5 1.2-.7 1.8-.8 3.8-.3 7.1 1.1 10.2 3.3 1.4 1 2.6 2.1 4.2 2.8 4.3 1.9 8.2 4.5 12.1 7 1.4.9 2.3 2.4 3.9 3 .4.2.6.8.8-.2.3-1.1 1-2 1.4-3.1.1-.4.2-.8-.6-1.2-1.4-.7-2.4-2-3.7-3-1.9-1.5-4.1-2.8-6.3-3.7-2.1-.9-4.3-1.6-6.3-2.6-2.4-1.2-4.8-2.4-7.3-3.2-2.6-.9-5.3-.9-8-1.6-.6-.2-1.5-.3-1.9 0-1.1.8-2.2.2-3.3.4s-2.1.7-3.2.5c-1-.1-2.1-.3-3.1-.3-1.1.1-2.1.6-3.1.7-2.9.3-5.8 1-8.5 2-2.5.9-5 1.6-7.4 2.9-.5.3-1.1.5-1.1 1 .1 1.2-1 1.6-1.6 2.3-.2.2-1 .2-1.3 0-1.3-1.1-2.6-1.4-3.9-1.2zm316.3 332.8c-.2-2.7-.3-5.4-.6-8.1-.1-.8-.4-1.7-.9-2.6-1.4-2.1-3.2-3.6-4.9-5.3-.5-.5-1.3-.9-1.9-1.3-.1-.1-.3 0-.4.1v.3c.1.4.2.7.3 1.1.2 1.5.2 3 .6 4.4.2.7.3 1.3.4 2 .1.8.4 1.5.5 2.3.2 1.5.1 3.1.6 4.4.4 1 .2 2 .5 3 .8 2.5 1.5 5.1 2.3 7.6.2.6.4 1.1.6 1.7.7-.4 1.2-.9 1.4-1.7.1-.4.3-.7.4-1 .7-2.2 1.2-4.5 1.1-6.9zM101.7 86.1V94c0 .1.1.3.2.4l.3-.3c.4-.8.7-1.7 1.1-2.5s1.1-1.4 0-2.3c-.2-.2 0-.9.1-1.3.4-1.1 1.1-2.1 1.2-3.2.2-2.3.1-4.6.5-6.9.5-3-.3-6.1.5-9.1.3-1.1 0-2.3.1-3.4.1-1.2.4-2.3.4-3.5 0-1.1.4-2.2.5-3.2.1-2.3 1.3-4.2 2.6-5.8 1.6-1.9 3.3-3.8 5.5-5.1.1-.1.1-.3.1-.5-.2 0-.4-.1-.5 0-1.8 1.1-3.8 1.7-5.3 3.3-1.6 1.7-2.7 3.8-3.8 5.8.2 1.3-1.3 2.2-1 3.5-1.2.9-.9 2.4-1.4 3.6-.6 1.3-.9 2.8-1 4.2-.1 1.6-.7 3.1-.6 4.7.2 2.1.1 4.3.4 6.4.4 2.4.1 4.9.1 7.3zm155.1 84.7h.7c.7.1 1.4.1 2.1.2-.5.5-1 1.1-1.5 1.5-.3.3-.8.5-1.2.7-.2.1-.7.3-.7.4 0 1.4-.9 2.1-1.7 3-.5.6-.5.8.4 1 1.2.3 1.5.7 1.1 1.3-.3.5-.4 1-.2 1.5.3-.3.7-.6 1-.8 1.5-.7 2.8-1.5 3.7-2.8.8-1.2 1.4-2.5 2-3.8.6-1.2.4-1.2.5-2.6.2-2.4.2-4.9 2.2-6.7.3-.2.4-.6.5-1 .1-.3 0-.6 0-.8-.2 0-.5 0-.7.1-2.3 1.4-4.8 2.2-7.2 3.3-1.4.7-3.5 1.3-4.2.9-1.3-.7-3-.6-4.2-1.8-1.1-1.1-2.8-1.3-3.9-2.5-.1-.1-.4 0-.6 0 .1.2.1.4.2.5.2.3.5.4.7.7 1.7 2.8 4.4 4.6 6.8 6.7.6.5 1.4 1 2.3.8.8.1 1.4.2 1.9.2zm27.6 78.7c-.1-.2-.3-.3-.3-.6-.3-1.1-1.2-1.6-1.9-2.4-.7-.8-1.2-1.6-1.9-2.4-.5-.5-1.2-.8-1.7-1.2-2-2-4.2-3.8-6.5-5.6-3.7-3-7.8-5.5-11.5-8.4-3.2-2.5-6.8-4.6-10.2-6.8-.1-.1-.3-.1-.3 0-.1.1-.1.3-.1.4.1.2.3.4.4.6 4.5 4.3 8.5 9.2 13.5 13 2.1 1.6 4.2 3.2 6.4 4.6 2.5 1.6 5 3.2 7.3 5.1 1.9 1.6 4.1 2.8 6.1 4.2.1.1.3 0 .5 0 0-.1 0-.3.2-.5zm77.4-15.3c-1.7.1-3.1-.1-4.5.5-.4.2-.8.2-.7.7.1.5.2.9.3 1.3.4 1.2.8 2.5 1.2 3.7.9 2.7 1.9 5.3 2.9 7.9.3.9.4.8 1.1.4 1.8-1 3.8-1.8 5.9-1.7.8 0 1-.3.9-1-.1-.5-.1-1-.3-1.6-.7-1.7-1.1-3.5-1.7-5.2-.5-1.5-.9-3-1.5-4.5-.1-.3-.7-.8-.8-.8-.9.7-2 .1-2.8.3zm-2.1-15.7c-.1-.4-.1-.6-.2-.8-.9-1.7-1.5-3.6-2.1-5.5-.6-2-1.5-4-2.2-6-.4-1-.5-1.1-1.4-.8-.4.1-.7.2-1.1.4-1.4.7-3 .6-4.3 1.4-.8.4-.7.5-.3 1.1.5 1 .8 2.1 1.2 3.2.8 2.8 1.7 5.5 2.4 8.3.1.5.4 1 .6.7.7-.7 1.5-.3 2.2-.6s1.4-.6 2.2-.7c.8-.1 1.6-.1 2.4-.2.3 0 .5-.4.6-.5zm2 13.8h2.2c.5 0 .5 0 .3-.6-.5-2-1.5-3.8-1.7-6-.1-1.2-.9-2.4-1.4-3.6-.9-1.8-1-1.9-3.1-1.3-.4.1-.8 0-1.2.1-1.4.3-2.9.6-4.3 1-.2 0-.3.5-.3.7 1.1 3.3 2.3 6.6 3.4 9.9.4 1.1 1.2 1.6 1.9.9 1.3-1.1 2.9-1.2 4.2-1.1zm-135-65.1v-.7c0-.6-.3-.7-.8-.5-.2.1-.3.4-.6.4-.8.2-1.2-.1-1.1-1 .2-1.5.8-2.8 2.2-3.4.6-.2 1.2-.5 1.2-1-.2-1.6.5-3 .5-4.5 0-.1-.1-.3-.1-.4-.1.1-.2.1-.3.2-1.2.9-2.1 1.7-2.6 3.3-.8 2.9-2.2 5.7-2.4 8.8-.9 1.1-.6 2.4-.4 3.5.2.8.3 1.5.4 2.3.1.8.4 1.5.5 2.3.2 1.3.1 2.8.6 3.9.4.8 0 1.6.6 2.2 2.1 2.1 4.3 3.9 7.5 4 .6 0 1.2-.2 1.8.3.3.3.9.1 1.4.1.1 0 .3-.1.4-.2-.1-.1-.2-.3-.3-.3-.8-.3-1.6-.5-2.3-.9-2.1-1.4-4.1-3.1-5.2-5.4-1-2-1.4-4.1-1.5-6.3 0-2.4-.2-4.7.5-6.7zm227.9 264.4c0-1 .1-1.8 0-2.6-.2-1.2-.3-2.5-.7-3.6-1-2.9-3.3-4.4-6-5.4-.1-.1-.6.2-.6.4-.1.9.1 1.8.4 2.8.5 1.8.6 3.7 1.1 5.4.9 2.7 1.5 5.5 1.9 8.3.1.7.3 1.4.5 2 0 .1.7.2.8.1.6-1.5 2-2.4 2.4-4.2.2-1.2 0-2.3.2-3.2zM372.4 283c0 .2-.1.6 0 .7.9 1.2.6 2.8 1.4 4.1.7 1.2.9 2.7 1.3 4.1.1.2.1.5.3.6.2.2.6.4.7.3 1.7-1.2 3.8-1.2 5.6-1.9.5-.2.6-.4.5-.8s-.3-.7-.4-1c-.8-2.6-1.6-5.2-2.5-7.8-.4-1.2-.8-1.5-1.8-1.1-1.3.4-2.5 1-3.9 1.3-.8.2-1.2.6-1.2 1.5zm-24.5-77.8h.7c1.9-.7 3.7-1.4 5.8-1.5.1 0 .3-.4.2-.6-.1-.4-.3-.7-.5-1-.9-2.6-1.7-5.2-3-7.6-.1-.2-.4-.5-.5-.6-1.5 0-3-.1-4.4 0-.5 0-1 .4-1.4.7-.1.1.4.6.4 1-.1 1.7.6 3.2 1 4.8.4 1.4.6 2.8 1 4.3.2.2.6.4.7.5zm-89.7-82.3c-.7 1.5.7 2.8 1.1 4.3.4 1.6 5 3.5 6.7 3.2.6-.1 1.4-1 1.5-1.6 0-.1-.3-.3-.4-.3-.9 0-1.9.2-2.7-.1-.9-.3-2.1-.2-2.7-1.2-.4-.6-.4-1.5-.5-2.2-.2-1.3.5-2.4.8-3.6.3-1.5 1.2-2.2 2.4-2.9 1-.6 1.9-1 3.1-.9.2 0 .5-.5.5-.5-.6-1-1.5-1.5-2.4-2.2-.9-.6-1.2.3-1.7.4-3.4.7-5.9 4.3-5.7 7.6zM157.8 52.6h-1.6c-.1 0-.3.4-.2.4.8.6 1.5 1.4 2.5 1.5 1.3.1 2.5.7 3.7 1.3 2.4 1.2 4.7 2.4 7.1 3.7 1.1.6 2.1 1.3 3.1 2 1.7 1.2 3.5 2.4 5.1 3.7 1.3 1 2.8 2 3.7 3.3.7.9 1.5 1.7 2.2 2.5.1.1.3 0 .5 0 0-.2.1-.4 0-.5-1-1.2-2-2.5-3.1-3.6l-5.4-5.4c-1.9-1.9-3.7-3.7-6-5.1-2.1-1.2-4.2-2.2-6.6-2.4-.3 0-.7 0-.9-.2-1.3-1.1-2.9-.9-4.1-1.2zm54.6 29c.1 1.9.1 1.9 1.1 2.4.1.1.3.1.4.2 2.2 1 4.3 2.3 5.9 4.2.3.4.7.7 1 1 .1.1.3.1.3.1.1-.1.2-.3.1-.4-.6-1.2-1.2-2.5-2-3.6-1.4-2-2.7-4-4.2-5.9-1.6-2-3.5-3.6-5.1-5.4-.1-.1-.6 0-.6.2-.3.5-.4 1.1-.7 1.7-.3.5-1 .9-1 1.3.1.5.6 1.1 1.1 1.5.9.7 1.9 1.4 2.8 2.1.4 0 .7.4.9.6zm45.8 77.3h2.2c.1 0 .3-.2.3-.3 0-.2-.1-.6-.2-.6-.9-.3-1.9-.3-2.6-.8-1.7-1.2-3.3-2.6-5-3.9-.6-.5-.8-1.1-.3-1.7.4-.5.3-.8-.1-1.2-.7-.6-1.5-1.1-2.2-1.8s-1.1-1.5-1.8-2.2c-1.4-1.5-2.9-2.9-3.5-4.9-.1-.2-.5-.4-.5-.3-.2.2-.5.5-.4.7.2 1.1.4 2.3.8 3.3 2.1 4.7 5.3 8.5 9 11.9 1.1 1.1 2.6 2.4 4.3 1.8zm88.6 33.5c.9-.1 2 .2 3-.5.3-.2.4-.2.2-.6-.9-2-1.8-4-2.6-6-.5-1.2-.6-2.5-1-3.7-.3-.7-.8-.7-1.1-.5-.9.6-1.8.5-2.8.4-.8 0-.8.6-.6.9 1 1.6.8 3.6 1.4 5.3.3.8.6 1.6.5 2.5 0 .6.2 1.5.6 1.9.4.3 1.2.2 1.8.2.2.1.3.1.6.1zm-243.9-52.6c-.1.1-.3.2-.3.3 0 .6-.2 1.2 0 1.7.8 1.7.9 3.6 1.4 5.3 1 3.9 3.3 9.4 4.9 12.7 1.4 2.9 3.3 5.5 5 8.2.1.2.5.3.6.2.6-.2 0-.4-.1-.6-.2-1-.4-2-.6-2.9-.1-.4-.2-.7-.4-1-1.6-2.5-2.6-5.4-4.3-7.8-.1-.2-.1-.5-.1-.7-.7-1.8-1.3-3.7-2.2-5.5-1.5-3.1-2.7-6.3-3.8-9.5.1-.2 0-.3-.1-.4zm84.6-56.2h1.7c.2 0 .4-.2.6-.2-.2-.2-.3-.4-.5-.5-.3-.2-.7-.3-1-.5l-8.5-8.5c-1.1-2.5-3.8-3.3-5.4-5.3-.4-.5-1-.7-1.5-1-.1 0-.2.1-.3.2v.2c.2.3.3.5.5.8 1.3 1.4 2.7 2.8 3.8 4.3 1.7 2.5 3.4 5 5 7.5 1.4 2.2 3.2 3.2 5.6 3zm-.1 4h-2.6c-1 0-1.9 0-2.6.9-.5.5-1.3.8-2 1.1-.3.1-.8.1-1.2.2.4.3.8.6 1.2.8.4.1 1-.1 1.4.1 1.9.9 4 .5 5.9.3 1.7-.2 3.4-.8 5-1.5 1.6-.6 3.1-1.5 4.7-2.3.2-.1.3-.3.3-.5s-.2-.4-.4-.4c-1.3-.3-2.7-1.2-3.8.5 0 .1-.3 0-.5 0-1.7.6-3.7 1-5.4.8zm86.7 232.3c.9-.4 1.6.3 2.1 1 .3.5.2 1.2.3 1.8.1 1.4 0 2.5-1.6 3.1-.6.2-1.1.9-1.6 1.5-.4.5-.3 1.6 0 2 .6.7 1.8 1.2 2.5.8.9-.5 2-.8 1.7-2.2-.1-.4.3-.9.4-1.3s.1-.8 0-1.1c-.6-1.2-.6-2.5-.8-3.8-.3-1.4-.5-1.7-1.9-2.3-1.3-.6-2.7-.4-3.9-1.4-.3-.3-1.1-.1-1.5.5-.9 1.2-2.2 1.7-3.6 1.9-.3.1-.6 0-.3.5.7.9 1.2 1.9 1.9 2.9.5.6 1.2.5 1.2-.3.1-1.4 1.1-1.7 2-2.4.9-.7 1.8-1.3 3.1-1.2zm57.3-57.6c-1.6-.1-3.1.9-4.7.5-.1 0-.3.1-.4.2-1.1.8-2.2 1.7-3.4 2.4-1.5.9-2.9 1.9-4.1 3.1-.7.7-1.7 1.1-2.5 1.7-.2.1-.2.5-.3.8.3 0 .6.2.8.1.5-.3 1-.7 1.5-1 .6-.4 1.2-.9 1.9-1.3.9-.4 2-.5 2.8-1 2-1.3 4.4-1.6 6.6-2.4 1.1-.4 2.3-.4 3.5-.5 1.2-.2 2.3-.3 3.5-.5.1 0 .3-.1.4-.2l-.3-.3c-1.7-.9-3.5-1.5-5.3-1.6zm-.8-65.5c-1.7.1-3.1.8-4.6.6-.2 0-.5.4-.8.5-.8.3-1.2 1.2-2.3 1.1-.5-.1-.9 1.2-.7 1.9.1.6 1.4 1.7 1.6 1.5.9-.9 2-.5 3-.4 1.8.1 3.5-.7 5.2-1.1.7-.2 1.3-.9 2-1.4-.6-.7-.8-1.8-1.8-2.1-.6-.3-1.2-.5-1.6-.6zm-77.8 101.6c0 .7.1 1.3 0 2-.3 1.5.7 2.5 1.2 3.7.3.8 1.2.9 1.8.3.9-.8 2-1.1 3-1.7.1-.1.3-.3.3-.4-.7-1.5-1.3-3.1-2.1-4.5-.3-.6-.7-1-.8-1.7-.1-.8-.6-1.7-1.2-2.2-.7-.5-1 .8-1.5.8-.7.1-.7.4-.7.9v2.8zm-140-148.8c-.1 0-.1.1-.2.1 0 .1-.1.3-.1.4 1.4 2.7 2.7 5.5 4.4 8 1.1 1.6 2.3 3.2 3.6 4.7.6.6.9 1.1 1.8 1 .4-.1.8-.1 1.1.6.5 1 1.4 1.9 2.1 2.8.1.1.4.1.7.2.2.1.3.1.5.2 0-.2.1-.5 0-.7-2.1-1.9-3.4-4.3-5-6.6-1.8-2.5-3.5-5.1-5.8-7.2-.9-.8-1.8-1.6-2.3-2.7-.1-.3-.5-.5-.8-.8zm113.6 5.8c.1-.1.2-.1.3-.2 1.5-1.2 2.5-2.8 3.4-4.5 1.2-2.2 1.8-4.7 2.9-6.9.7-1.4.6-2.3 0-3.8 0-.1-.2-.2-.3-.3-.1.1-.3.2-.3.4-.8 1.3-1.3 2.8-2.3 4-.6.6-1.2 1.3-1.5 2.1-.8 2.2-1.4 4.4-2 6.6-.2.7-.3 1.5-.5 2.3.1 0 .2.2.3.3zM97.7 124.8v-4.9c0-.1-.2-.2-.3-.3-.1.1-.2.1-.2.2-.2.7-.4 1.5-.5 2.2-.2 1.3.3 2.7-.5 4-.1.2-.1.6 0 .7.9.8.3 1.8.4 2.8.1.9-.2 1.9.1 2.7.6 1.5.5 3 .9 4.5.3 1.5.2 3.2.6 4.7.6 2.3 1.3 4.5 2 6.8.7 2.2 1.3 4.5 2.4 6.6.1.2.2.4.3.7.1-.2.1-.4.2-.7v-.2c-1.1-2.4-1.6-4.9-2.2-7.4-.7-2.7-1.3-5.4-1.6-8.1-.2-1.4-.9-2.7-.5-4.2-.9-1.1-.2-2.4-.5-3.5-.4-1.3-.4-2.5-.4-3.7-.2-1.1-.2-2-.2-2.9zm232.8 85.8c-1.8-.4-3.1 1-4.8 1.7-.7.3-.8 1.2-.3 1.8.7.8 1.6 1.6 2.8 1.5 1.5-.1 3-.2 4.5-.5 1.7-.3 2-1.5 1.4-3.1-.3-1-1.1-.9-1.7-1.2-.4-.3-1.1-.2-1.9-.2zM182.1 34.9c.9 0 2.5-1.1 2.8-1.9 0-.1-.1-.4-.1-.4-1 .2-1.9-1.4-3-.2-.1.1-.3 0-.4.1-.7.5-1.4.9-2.1 0-2-.2-3.9-1.1-6-1h-5.6c-1.4 0-2.7.5-4.1.9-.3.1-.6.2-.8.3.3.1.5.2.8.3 3.5.2 7.1-.3 10.6.4 1.7.4 3.5.5 5.2 1 .8.3 1.8.3 2.7.5zM271.3 149c-.1.3-.3.4-.2.6.1 1-.4 1.8-.9 2.6-.4.6-.8 1.2-1.2 1.7-.2.3-.1.4-.1.7.2 1.6.2 3.2.2 4.8 0 .5-.1.9-.5 1.3-.3.3.3 1 .6.7 1-1 1.6 0 2.3.4.2.1.2.4.3.6.1-.2.2-.4.2-.6.2-.8.4-1.6.5-2.5.1-.7.1-1.5 0-2.2-.2-.6.7-1.1.1-1.9-.3-.5 0-1.4-.1-2.1-.3-1.2-.4-2.4-1-3.5-.1-.1-.1-.3-.2-.6zm-5.2 163.3l-.3-.3c-.8-1.1-1.5-2.2-2.2-3.2-.4-.6-1.4-.9-1.4-1.9-1-.1-1.1.9-1.7 1.2l-1.8.9c-.4.2-.5.5-.2 1 1 1.8 2.5 3.3 3.3 5.2 0 .1.4 0 .5 0 .8-1.4 2.1-2.1 3.5-2.7 0 0 .2-.1.3-.2zM156.6 34.8c-.4-.2-.7-.4-.9-.4-.9.3-1.7.7-2.6.9-2.8.7-5.3 1.9-7.8 3-2.4 1-4.5 2.6-6.7 4.1-1.2.9-2.2 2.2-3.3 3.3-.1.1 0 .2 0 .3 0 0 .1.1.2.1.4-.1.8-.2 1.1-.3 2.9-1 5-3.1 7.3-4.9 2.4-1.8 5-3.2 7.9-4.2 1.4-.5 2.7-1 4.1-1.5.2.1.3-.1.7-.4zm-42.9 26.7l.4-.4c1-1.7 2.5-2.9 3.8-4.3.2-.2.3-.5.4-.8.5-1.6 1.6-2.7 2.7-3.8.2-.2.6-.2.8-.4.1-.1.2-.3.3-.5-.1 0-.3-.1-.4-.1h-.7c-2.3 1-4.6 1.7-6.3 3.8-1.4 1.7-1.5 1.6-1.3 4.2.1.6 0 1.1 0 1.7l.3.6zm130.7 41.2c0 1.1-.1 2.1 0 3.2s.3 2.2.5 3.2c0 .2.2.3.3.5.1-.1.1-.3.2-.4.7-1.8.4-3.9 1-5.7.3-1-.4-2-.4-3 0-1.3-.5-2.4-.8-3.6-.2-.9-.1-1.9-.1-2.8 0-.4.3-.7.3-1.1.1-1-.8-1.7-.5-2.7-.3 0-.6-.2-.8-.1-.5.3-.8.8-.6 1.4.1.5.4 1 .5 1.5.1 1.1 0 2.3 0 3.4.1 1.1.4 2.2.5 3.2 0 1.1-.1 2.1-.1 3zM208 72.6c-.1-.2-.3-.4-.4-.5-1.9-1.6-3.9-3.2-5.8-4.8-.2-.2-.6-.2-.8-.4l-2.1-1.5c-.1-.1-.3 0-.4.1v.3c.3.5.5.9.9 1.4.7.9 1.4 1.7 2.1 2.6.7.9 1.4 2 2.3 2.7.6.5.7 1.8 1.6 1.7.8-.1 1.6-.8 2.4-1.3-.1 0 0-.2.2-.3zm-79.3-10.5c-.2-.1-.3-.2-.4-.2-.5.3-1.2.5-1.6.9-1.9 1.9-4.1 3.5-4.9 6.3-.2.6-.7 1.2-1.2 1.7-1.8 1.8-2.3 4.3-3.6 6.3-.1.1.1.3.1.4.1 0 .3-.1.3-.1.6-1 1.2-2 1.9-2.9 1.3-1.7 2.7-3.3 3.9-5 1.7-2.4 3.3-4.9 5.2-7.1.2 0 .2-.2.3-.3zm218.8 233.7l-.2.2c-.2.5-.5 1-.5 1.5-.1 1.7.5 3.2.8 4.8.4 2.2 2 3.6 3 5.4.2.4.9.6 1.3.9.4-.6-.1-1.1-.2-1.6-.5-2-1.4-3.8-1.9-5.8-.4-1.8-1.9-3.1-2-5.1 0-.1-.2-.2-.3-.3zM127.8 95.5c0 .8-.1 1.5 0 2.1.1 1.2.4 2.4 1 3.5l.3.6c.1-.2.2-.4.2-.6v-8.4c0-1-.3-2 .4-3 .5-.8-.1-1.9.5-3 .4-.8.2-2 .6-2.9.1-.2-.1-.4-.2-.6-.1.2-.2.4-.3.5-.6 1.1-.9 2.3-1 3.5-.1 1-.6 1.9-.4 3-1 .7-.1 1.9-.7 2.7-.8.9-.2 1.9-.4 2.6zM142 82.8V89c0 .2.2.4.2.6.1-.2.2-.4.2-.6.4-1 .5-1.9.5-3 0-1 .4-2 .4-3 .1-2.5 0-5.1 0-7.6 0-.5-.1-.9-.2-1.4-.5.3-.6.7-.9 1.2-.4.9-.4 1.8-.4 2.8.2 1.5.2 3.1.2 4.8zm-3.9 106.3v-2c0-.2-.2-.6-.2-.6-.7.1-1.2-.3-1.8-.5-.1 0-.5.2-.5.4-.1.6 0 1.3 0 2 .1 1.2-.3 2.2-.9 3.3-.6 1.1-1.6 1.7-2.3 2.7-.1.1 0 .3 0 .5.2 0 .4.1.5 0 .9-.9 1.7-1.9 2.9-2.4.7-.3 1.8-.3 2.1-.7.4-.8.2-1.8.2-2.7zM268 142.7c-.1.1-.3.1-.4.2-.5 1-.5 2.3-1.5 3-.1 0 0 .5.2.6.7.5 1.2 1.2 2 1.7.9.5 1.8-.9 2.4.3.1-.1.3-.3.3-.4.1-.2.1-.5 0-.7-.8-1.5-1.7-3-2.6-4.5 0-.2-.2-.2-.4-.2zM126.7 51.6c1.3-.2 2.5-.3 3.8-.5v-.5c0-.8-.3-1.6-.1-2.3.2-.9.6-1.7 1-2.5.2-.4.6-.6.1-1 0 0-.7.4-.8.7-.2 1-1.1 1.3-1.7 2-.1.1-.6 0-.8-.1-.2-.2-.5-.3-.3-.9.3-.8.6-1.6 1.2-2.2.1-.1 0-.3-.1-.4h-.3c-.5.7-1.1 1.4-1.6 2-.5.7-.3 1.7.5 2.2.4.2.8.5 1.3.5.8 0 .7.2.3.7-.8.9-1.6 1.6-2.9 1.3-.1 0-.3 0-.4.1s-.1.3-.1.4c0 .1.1.4.2.4.2.1.5.1.7.1zm4.2 7.8c-.4-.2-.6-.4-.7-.4-.8.1-1.7.2-2.5.5-1.3.4-2.6.6-3.8 1.5-1 .8-.2 2.1-1.1 2.8-.1 0 .1.5.2.6s.5 0 .6-.1c.2-.1.4-.3.5-.5 1.6-1.6 3.2-3.2 5.7-3.3.5-.1.7-.7 1.1-1.1zm-11.2-11.2H117c-.3 0-.6.1-.9.1.1.3-1.5.6 0 .9.1 0 .3.4.3.6v1.5c.1.6.3.2.6.1 2.1-.8 4.1-2.1 6.4-2.2.1 0 .3-.2.4-.2-.1-.1-.2-.3-.3-.3-.3-.2-.7-.4-1.1-.4-.9-.2-1.8-.1-2.7-.1zm44.7-4.9c1.7-.1 3.6.1 5.5-.4 1.5-.4 3.1-.4 4.7-.6.1 0 .2-.2.4-.3-.1-.1-.3-.2-.4-.2h-.5c-3 .2-6.1-.4-9.2.5-1.2.3-2.5-.3-3.7.5-.4.2-.9.1-1.4.2.4.7 1 .3 1.4.3h3.2zm-12.5-11c-.1-.1-.2-.3-.3-.3-.3 0-.7-.1-1 .1-2.5 1.1-5.1 1.8-7.5 3.3-2.2 1.5-4.4 3-6.3 5-.1.1-.1.3-.1.3.1.1.3.2.4.1.2-.1.4-.2.6-.4 2.2-2.3 4.8-3.9 7.7-5.2 1.8-.8 3.5-1.9 5.5-2.3.4-.1.7-.4 1-.6zm190.7 144.4h-.7c-1.6 0-1.6 0-1.1 1.6.1.1.1.3.2.4.4 1.2.4 1.2 1.7 1 .5-.1 1 0 1.5 0 1.2 0 1.5-.5 1.2-1.6-.2-.9-.8-1.3-1.8-1.3-.4-.1-.7-.1-1-.1zm-200.1 17.7c1.2-.2 2.3-.3 3.5-.5.7-.1.5-.6.4-.9-.2-1.3-1.2-2-2-2.8-.1-.1-.4 0-.5.2-.7 1.2-1.4 2.4-2.1 3.5-.3.4-.2.5.2.5h.5zm-9.3-161.1c-.1-.1-.1-.2-.2-.2s-.3 0-.3.1c-2.8 2.6-5.3 5.4-6.9 8.9-.2.4-.4.8-.5 1.3 0 .3.1.6.2.9.1-.2.1-.4.3-.6 2.5-3.2 4.1-7 7.2-9.8.1-.2.2-.4.2-.6zm-31.1 67.8c0-.1-.1-.3-.1-.3-.5 0-1-.1-1.5 0-.1 0-.2.5-.3.8-.3 1.3-.5 2.6-.5 4 0 1.2.4 2.4-.5 3.5-.1.1 0 .4.1.4.2.1.6.2.6.1.3-.4.6-.8.7-1.2.2-1.1.4-2.1.5-3.2.2-1.2.3-2.3.5-3.5.1-.1.3-.3.5-.6zm52.2-62.8c0-.8 0-.8-.6-.6-2.6.8-5.2 1.6-7.6 3.1-.6.3-1 .8-1.5 1.1-.1 0 0 .3 0 .3.1.1.3.1.4.1 2.1-1.2 4.5-1.9 6.8-2.7.6-.2 1.3-.5 1.9-.8.4-.1.6-.4.6-.5zm-28.5 162.8v.5c.5.4.9.9 1.5 1.2 3.1 1.9 6.3 3.7 9.8 4.7.4.1.8.4 1-.1s-.2-.5-.6-.7c-1.3-.5-2.9-.4-4.1-1.4-.9-.8-2-1.7-3.1-1.9-1.3-.2-2-1.4-3.3-1.7-.3-.1-.6-.6-.9-.8 0-.1-.2.1-.3.2zm118.4-21h3.1c.2 0 .4-.2.5-.3-.2-.2-.3-.4-.5-.5-.3-.1-.6-.2-.9-.2h-3c-1.4 0-3.4-.6-5.1-1.4l-1.2-.6c-.1 0-.3 0-.4.1 0 0 0 .3.1.3.4.4.8.7 1.3 1 2 1.4 4.2 1.9 6.1 1.6zM113.5 64.6c0 .6-.1.9 0 1.1s.5.3.6.2c1.1-.8 2.2-1.7 2.3-3.1.1-.8.5-1.4.7-2.2.1-.4.2-.7.3-1.1 0-.1-.1-.3-.2-.4-.1.1-.3.1-.3.2 0 1-1 1.2-1.4 1.9-.8 1.1-1.8 2.2-2 3.4zM160.8 201c-.2-.1-.6-.3-.7-.2-.4.5-1 .5-1.5.5-1.3 0-2.4.7-3.6 1.2-.2.1-.3.3-.5.5l.6.3c.6 0 1.4-.2 1.9.1.8.4 1.4.1 1.9-.3.7-.5 1.3-1 2-1.6-.1-.1-.1-.2-.1-.5zm-6.3-21.4c-.3.1-.5.1-.5.2-.1.2-.1.5 0 .6.8.7 1.1 1.6 1.6 2.5.2.4.5.8 1 .2.5-.7 1.1-1.3 1.6-1.9-.7-.3-1.3-.7-2-1-.6-.3-1.2-.5-1.7-.6zm37.1-113.7c-.1.2-.3.3-.3.3.6.8 1.1 1.5 1.7 2.2l4.5 4.5c.1.1.3.2.5.2 0-.2.1-.5 0-.6-1.9-2.1-3.9-4.3-5.9-6.4 0-.1-.3-.2-.5-.2zm-29.4-37.1l-.3-.3c-.7-.3-1.5-.9-2.2-.5-.8.5-1.5.3-2.3.5-1.2.3-2.4.3-3.5 1-.2.1-.3.2-.5.3.2.1.5.2.6.2 1.2-.6 2.5-.5 3.7-.5 1.5.1 3.1 0 4-.5.2-.1.4-.2.5-.2zm-33.3 125.7h-.4c-.6.6-1.3 1.2-1.7 2-.1.3.6 1 .9 1.5.4.5.8 1 1.2 1.4.2.2.4.3.7.4 0-.3.2-.8.1-.9-.7-.8-.4-1.6-.5-2.5v-1.5c0-.1-.2-.3-.3-.4zm27.9-112.7c.5 0 1 .1 1.2-.1.8-.8 1.8 0 2.5-.5.8-.7 1.7-.1 2.5-.4.8-.3 1.6-.5 2.5-.5.3 0 .7-.2 1-.3-.3-.1-.6-.2-.8-.4-.5-.5-1-.4-1.5-.2-.3.1-.6.4-.8.3-1.2-.3-2.4.3-3.4.6s-2.2 0-3 .9c-.1.1-.4.2-.6.2.1.2.3.3.4.4zm-18.2 113.3c.1.3.4 1.1.7 1.8.2.4.7.8.7 1.2.1.9.5 1.3 1.3 1.4.2 0 .5.1.7.2-.1-.2 0-.5-.2-.7-1.2-1.3-2-2.8-1.8-4.7 0-.2.1-.4 0-.5-.2-.3-.5-.5-.8-.8-.2.2-.5.4-.7.7 0 .3.1.6.1 1.4zm-18.1 17.7c0 .2-.2.4-.1.5.2.3.6.6.7.9.8 1.9 2.5 2.7 4.1 3.6.3.2.7.3 1.1.3.1 0 .3-.1.4-.2-.1-.1-.1-.3-.2-.3-1.8-1-3.3-2.4-4.8-3.8l-.9-.9s-.2 0-.3-.1zm17.6-104.9v2.9c0 .2.2.3.3.5l.3-.3c.1-.1.3-.2.3-.4.2-.8-.1-5.6-.5-6.3-.1-.2-.4-.3-.6-.2-.1 0-.4.4-.4.5 1 1 .5 2.3.6 3.3zm17.2 133.5c.6-.4 1.7-.8 1.9-1.4.4-1.3.7-2.7 1.5-3.8 0 0-.1-.3-.2-.3s-.4-.1-.5 0c-.4.7-.6 1.4-1.1 2-.6.9-1.4 1.7-2.1 2.6-.1.1-.1.3 0 .5.1.1.3.2.5.4zm47.3-118.8c.7 0 1.5.1 2.2 0 .2 0 .6-.7.6-.8-.2-.4-.6-.8-1-1-.2-.1-.6.2-1 .3-.4.1-.9.2-1.3.4-.5.3-.9.7-1.3 1 .5 0 .9.1 1.4.1.1.1.3 0 .4 0zm63.5 76.1v-1c0-.3-.2-.5-.3-.8-.3.2-.7.3-.9.6-.2.2-.2.6-.2.9-.1.6.1 1.2-.5 1.8-.3.2 0 .7.6.7.9 0 1.3-.4 1.4-1.2-.1-.3-.1-.7-.1-1zM149 109.5l-.4-.4c-.6-.6-1.3-1.2-1.9-1.9-.4-.5-.6-.2-.9.1-.2.2-.5.4-.8.5-.9.2-.2.6 0 .7 1.1.5 2.3.9 3.4 1.3.1 0 .3-.2.6-.3zm-7.3 87.8v.1c1.4-.2 2.8-.5 4.1-.8.2 0 .4-.4.6-.7-.2-.1-.4-.1-.7-.2-1-.3-1.8.7-2.7.5-1.1-.2-2 .6-3 .5-.1 0-.3.1-.4.2.1.1.2.2.4.2.5.3 1.1.2 1.7.2zm30.6-115.6c-.1.1-.2.3-.2.4 1.1 1.9 1.9 3.9 3.6 5.3 0 0 .3 0 .3-.1.1-.1.1-.4 0-.5-1.1-1.6-2.3-3.3-3.4-4.9-.1-.1-.2-.1-.3-.2zm-50.9 60.5c-.4-.6-.8-1.3-1.1-1.9-.3-.5-.4-1.1-.7-1.6-.1-.2-.5-.3-.8-.4-.1.3-.4.8-.3 1 .7 1.2 1.5 2.4 2.6 3.3.1 0 .2 0 .3-.1v-.3zm219.5 11.1v1.2c.1.7.8 1.6 1.1 1.5.7-.3.2-1 .4-1.5.3-1-.3-1.7-1-2.2-.1-.1-.4 0-.4.1-.1.3-.1.6-.1.9zm-6.1 3.3c.4-.2 1.1-.2 1.2-.5s-.1-.9-.3-1.2c-.4-.7-.6 0-.8.1-.3.1-.6 0-1 0-.3.1-.5.2-.8.3.1.3.2.6.4.8.3.3.8.4 1.3.5zm-8.7 95.1l-.2-.2c-.6 0-1.1.1-1.5-.5l-.7.7c-.3.3-.6.5-.8.9-.2.3-.3.6-.5.8.4 0 .8.1 1.1-.1.8-.3 1.5-.8 2.2-1.2.2 0 .3-.2.4-.4zm-192.1-76c-.1 0-.2.1-.2.1 0 .1 0 .3.1.3 1 1 2 2.1 3.1 3.1.3.2.7.3 1 .4.1 0 .3-.1.4-.1 0-.1 0-.3-.1-.3-1.6-.9-2.7-2.2-3.9-3.4 0-.2-.3-.1-.4-.1zm99.5-27.6c1-.1 2-.8 2.1-1.5.1-.5-.1-1-.5-1.2-.6-.3-.7.3-.9.7-.3.5-.6 1.1-.8 1.6-.1.1 0 .3.1.4zm-97.9-97.8c-.1-.1-.3-.2-.4-.2-1.1-.2-1.7 1-2.7 1 0 .2 0 .4.1.5.5.6 1 .7 1.7.2l1.2-1.2s0-.1.1-.3zm-30 85.9c-.2-.7-.6-1.8-1-3 0-.1-.2-.3-.2-.4-.1.1-.2.3-.2.4-.1 1.5.6 2.9 1 4.3 0 .1.2.1.3.2 0 0 .1-.1.1-.2v-1.3zm16.2-28.8c.1 1.3.8 2.3 1.4 3.4.1.1.3.2.5.3 0-.2.1-.5 0-.7-.4-1-.9-2.1-1.4-3.1-.1-.2-.2-.3-.3-.5 0 .2-.1.4-.2.6zm196.6 134.1l-.3-.3c-.3-.4-.7-.7-1.2-.5-.2.1-.4.4-.5.6-.2.3-.3.7-.4 1-.1.1-.1.3-.1.5 0 .1.2.3.2.3.7-.5 1.5-1.1 2.3-1.6zm-172.9-84.3c-.1-.2-.1-.4-.2-.6-.2.2-.6.3-.7.5-.2.5-.4 1-.5 1.5-.1.3-.9.3-.3.8.1.1.6-.2.8-.3.6-.5 1.1-1 .9-1.9zm119.1-6.5c-.2-.4-.3-.9-.5-1.3-.3-.4-.6-.4-1 0-.3.3-.7.5-.1.9.3.2.6.6.9.8.1.1.3.1.5 0 .1-.1.1-.3.2-.4zm-140-71l.2-.2c.5-.9 1-1.8 1.5-2.8 0-.1-.1-.3-.2-.4 0 0-.1 0-.2.1-.5 1-1.1 2-1.6 3l.3.3zm44.8 111.7c-.1.1-.3.3-.3.5-.1.6.6 1.7 1.1 1.9.1 0 .3-.3.3-.4-.2-.6-.4-1.3-.7-1.9.1 0-.1 0-.4-.1zm8.9-146.6c-.6-.4-1-.6-1.3-.9-.6-.4-.8 0-1.1.4-.1.1 0 .3 0 .5.7-.2 1.1.3 1.7.5 0 0 .3-.3.7-.5zm-34.1 116.6c.6-.5 1.2-1 1.7-1.5 0 0-.1-.3-.2-.4-.1-.1-.3-.1-.5-.1-.6.2-.8 1.1-1.6 1v.5c.3.2.4.3.6.5zM119 131.6c-.8-.5-1.2-.8-1.6-1-.1 0-.4.1-.4.2-.1.6.4 1.6.7 1.6.3-.2.7-.4 1.3-.8z"/><path class="st0" d="M275.4 488.8h-5.2c-1 0-2.1-.1-3.1-.2-1.1-.1-2.4.1-3.2-.4-1-.6-2.2.3-2.9-.8-3.3-.2-6.2-1.5-9.3-2.5-1.6-.6-3.3-1.2-4.8-2-1.5-.7-1.1-1.3 0-2 .3-.2.6-.5 1-.6 1-.4 1.9-1 3.1-.4 3.1 1.6 6.4 2.9 9.9 3.5 1.4 1 3.1.8 4.6 1.4 1.1.4 2.5.5 3.7.5 1.9.1 3.7.8 5.7.6 2-.2 3.9 0 5.9-.1 2.5-.1 5-.1 7.4-.6 1.2-.2 2.3-.4 3.5-.4.2 0 .5.1.6.3.1.2 0 .5-.2.6-1.1 1-2.4 1.7-3.8 2-1.5.3-3 .2-4.4.6-3.1.9-6.1.2-8.5.5zm14.8 2.2v-.7c.2-.8-.4-1.8.3-2.6 1-.9 2.2-1.3 3.4-1.9.4-.2 1.2.5 1.1 1-.1 1 .3 2.1-.3 3.1-.2.4-.2.9-.2 1.4.3 2-.3 3.8-.6 5.7-.3 1.8-.8 3.6-1.2 5.3-.6 2.8-2 5.3-3.1 7.8-1.2 2.5-2.6 4.9-4.4 7-1 1.1-1.8 2.3-2.6 3.6-1.1 1.7-2.7 1.6-4.3 1.5-.1 0-.3-.1-.4-.2l.3-.3c2.8-3.3 5.3-6.8 7.3-10.7 1.3-2.7 2-5.6 3.2-8.3-.1-2.5 1.2-4.9 1-7.5-.1-.7.4-1.3.4-2 .2-.7.1-1.5.1-2.2zm57.6-36.4c.2 1.4-.5 2.1-1.6 2.7-2.7 1.5-2.9 1.4-3.8-1.5l-.3-.6c-.6-1.9-.2-3 1.5-3.8.5-.2 1-.3 1.5-.5.3-.1.8-.5 1-.4.3.3.6.7.7 1.1.2.8-.3 1.8 1 2 .1 0 0 .8 0 1zM324.5 408c-1 .3-1.5-.3-2-1.3-1.1-2.4-1.1-2.7 1.3-3.9.3-.2.7-.4 1-.5.6-.2 1.3-.4 2-.6.1 0 .3.2.4.3.4.3 2 2.3 2 2.6 0 .3.1.8-.1.9-1.3 1.1-2.3 2.7-4.6 2.5zm-2.7-61c.1 1.1-.1 1.8-1.4 2.1-1.1.3-2 1.4-3.3 1.3-.4 0-1 .4-1.3-.6-.2-.8-.8-1.6-.1-2.4 1.4-1.5 2.8-3 4.8-3.8.4-.2.8-.3.9.3 0 1.1.2 2.1.4 3.1zM210.4 199.8c-1.4 0-1.7-.2-2.3-1.6-.5-1.1.1-1.9.8-2.5 1.5-1.3 3.3-2.1 5.3-1.9 1.3.2 1.8.7 1.6 2-.1 1.1-.4 2-1.6 2.5-1.2.6-2.3 1.7-3.8 1.5zM192 164.4c-2-.4-4.8-.3-7.4-1.4-1.7-.7-3.7-.8-5.5-1.5-.8-.3-1.9 0-2.9 0-.2 0-.4.7-.6.1-.1-.2.1-.7.4-.8 1.3-.7 2.5-1.4 3.9-1.8 3.2-1 6-2.6 8.7-4.5 1.2-.8 2.6-1.4 4.1-1.5 1.7-.1 2.9-1.3 4.1-2.4.3-.3.5-.9.9-1 3.3-1.5 6.6-3.1 10-4.4.7-.3 1.2-.7 1.8-1.1.8-.6 1.6-1.3 2.4-1.9.1-.1.5 0 .6.2.1.1.1.5 0 .6-.7.8-2.2.9-2.3 2.2-.1 1.1-.5 2.1-.9 3.1-.4.9-.4 2-.6 2.9-.4 2-1 4-2 5.8-.8 1.4-2 2.7-3.6 3.4-1.5.7-2.8 1.8-4.4 2.5-3.3 1.4-3.2 1.5-6.7 1.5zm7.6-9.1l-.2-.2c-.1 0-.3-.1-.5-.1-.6.3-1.2.7-1.8 1-1.3.6-2.5 1.4-3.9 1.7-.2.1-.4.3-.5.5.3.1.6.2.8.1l5.4-2.4c.3-.1.5-.4.7-.6zm-48.7-30.5l-.2-.2c-.4 0-.9-.1-.7-.6s.6-.9 1.3-.9h1.5c1 0 .5-.3.3-.7-.3-.6.3-1.1 1-.9 2.3.6 4.2-.8 6.4-.7 2.3.1 4.6.4 6.8.9 1.7.4 3.9 1.2 1.6 2.8-1.7 1.2-3.5 2.3-5.4 3.3-1.6.8-3.7 2.3-5.5 2.2-1.4-.1-2.3.4-3.1 1.4-.5.6-.6.6-.9-.4-.1-.2-.2-.4-.4-.5-.2 0-.4.1-.6.3-.2.2-.2.6-.4.8s-.6.4-.8.3c-.5-.3.1-.4.2-.7.1-.2.1-.5.1-.7 0-.1-.1-.3-.1-.4 0 0-.3 0-.3.1-.4.4-.7.8-1 1.3-.4.6-.4.6-1-.1-.1-.1-.2-.3-.2-.4-.4.3-.7.8-1.1.3-.1-.1.2-.6.3-1l-.5-.3c-1 1.1-1.8-.3-2.8-.2 0 0-.1-.3-.1-.4 0-.1.1-.4.2-.4.6 0 1.3 0 1.9-.1.1 0 .2-.2.2-.3-.1-.1-.3-.1-.4-.2-.8-.2-.6-.6-.2-1 .3-.5.8-.5 1.3-.5.3 0 .6-.1.9-.2-.3-.1-.6-.2-.8-.4-.3-.3 0-1.2.5-1.3.6-.1 1.1 0 1.7-.1-.1.1.1-.1.3-.1zm10.9-2.8c-.3 0-.6-.1-.8 0-.5.2-.1-.1.5 1.3.5 1.4.4 3.2-.9 4.4-.1.1-.2.3-.3.5.3 0-.7 0-.5-.1 2.2-1 4.4-2.1 6.6-3.1.8-.4 1.5-.8 2.2-1.2.1-.1.2-.3.1-.4-.1-.2-.3-.4-.4-.4-2.3-.3-4.4-.7-6.5-1zm-7.9 6.9c.1 0 1.8-.1 2.3-.2-.3-.3-.7-.4-1.1-.4-1.2-.1-1-2.3-1.3-2.8-.2-.5-1.2.5-1.4.8-.2.2-.4.3-.5.5l-1.2 1.5c.7.2 1.4.4 2.2.6.1.1.3 0 1 0zm2.8-3.4c.9 0 1.7-.5 1.6-1-.1-.4-.5-.8-.8-1-.5-.2-1.2.7-1.1 1.4 0 .3.2.5.3.6zm30.6-11.4c-.5 0-.8.1-1 0s-.5-.5-.5-.6c.8-1.6 1.1-3.3 1.9-4.9.8-1.5 1.7-2.9 2.9-4 .6-.6 1.3-1 2-1.5s.8-1.1 1.3-1.9c.3-.4.6-.5.6.2 0 .1.1.3.2.4.1-.1.2-.2.3-.4.1-.4.1-.8.3-1.1.1-.2.3-.3.5-.4.1.1.2.3.2.4.1.5.1.9.1 1.4.3-.5.5-1 .9-1.4.2-.2.4-.3.7-.5.1.3.2.5.2.8 0 .2-.6.4-.1.7.1.1.5-.2.7-.4.2-.1.2-.4.3-.6.2-.3.2-.3.7.3.1.1.5.3.6.2.7-.4 1.4-1 2.1-1.4.1 0 .4.2.5.4-.6.5-.2.7.3.6.3-.1.6-.5.9-.7.1-.1.3-.1.3 0 .1.1.2.3.1.4-.2.3-.5.6-.8.9-.1.1-.1.3-.1.3.1.1.3.2.4.1.6-.3 1.2-.7 1.8-1.1.2-.1.3-.2.5-.2 0 .2.1.6 0 .6-.9.8-1.5 1.9-2.7 2.3-.2.1-1.3.7.1.8-.1.3-.3.7-.2.9.6 1.1.3 1.6-.9 1.6-.2 0-.6.2-.5.3.2 1-.3 1.3-1.2 1.2-.3 0-1.1.8-1.3 1-.6.5-1.1 1-1.7 1.5-1.2.9-2.5 1.7-3.8 2.2-2 1-4.2 1.3-6.6 1.6zm10.2-4.6c.6-.4 2-1.9 2.7-2.5.9-.7 1.4-1.6 1.7-2.7.2-.7-.1-1.3-.7-1.4h-1.8c-.5.1-1.5.3-2.4.5-.2 0-.3.7-.3.7 1.7 1.4 2.1 3.2.9 4.9 0 0-.5.7-.7.9-1.1.9-2.5 1-3.9.4-1.2-.5-2-1.1-2.3-2.4 0-.2-.2-.3-.3-.5-.1.1-.3.2-.3.4-.9 1.5-1.8 3-2.6 4.6-.1.2-.1.6 0 .8 0 .1.5.2.7.1 1.5-.5 3-.6 4.5-1 1.4-.5 4.8-2.8 4.8-2.8zm-2.8-4.1c0-.1-.1-.3-.2-.6-.3.2-.7.3-1 .5-.2.2-.3.6-.2.8 0 .2.3.6.5.6.3 0 .8.3 1-.3 0-.2-.1-.5-.1-1zm7.9 30.6c.1.9-.2 1.8-1 2.5-1.1 1-2 2.2-3.7 2.3-.6 0-1.1.5-1.3 1.1-.3 1-.4 1.9-.9 2.8-1.1 1.9-3.3 2.6-5.3 2.9-.2 0-.4-.2-.6-.3.1-.2.2-.5.5-.7.7-.5 1.5-.9 2.3-1.1.8-.2 1.3-.4 1.8-1.1.4-.6.6-1.3.7-2.1.1-2.1-1.1-3.8-2.3-5.4-1.3-1.8-2.6-3.7-4-5.5-.9-1.3-1.7-2.6-2.6-3.9-1.9-2.7-3.3-5.7-4.9-8.6-.8-1.5-.3-3-.4-4.5 0-.3.5-.6.7-.9.2-.2.3-.3.5-.4.1.2.2.4.2.7 0 1.6.8 3.1.5 4.7-.1.3.3.7.5 1 1.8 2.7 3 5.7 4.9 8.3 1.2 1.6 2.3 3.2 3.5 4.7 1.3 1.7 2.2 3.8 3.8 5.3.3.2.4.7.5 1 .2.6.5 1.1.7 1.7.5-.4.9-.8 1.4-1.2.6-.5 1.3-1 2-1.5.1-.1.3-.2.4-.3.3-.3.3-.8.2-1.2-.5-2.3-3-3-4.8-4.1-.4-.2-.2-.4 0-.7.5-.5 1-.5 1.5-.2 1.4.7 3 1.2 4.1 2.4.7.8 1 1.6 1.1 2.3zm-38.8-21.1c-.2.2-.4.3-.6.5-.9 1.1-2.3 1.4-3.5 1.6-1.7.3-3.5.7-5.2 1.1-1.6.4-3.1.7-4.6 1.5s-3.2 1.3-4.7 2.4c-1.7 1.3-3.1 2.6-4.2 4.4-.2.3-.4.7-.7.9-.1.1-.5.1-.6 0s-.2-.4-.2-.6c.6-1.8 3.1-6.3 4.3-7.8 1.2-1.4 2.9-2.3 4.5-2.7 2.5-.6 4.8-1.6 7.2-2.2 1.8-.4 5.4-1.2 6.5-.8.8.3 1.2 1.1 1.8 1.7z"/><path class="st0" d="M206.1 94.7c-.2.1-.4.2-.6.2-.9.1-1.9-.3-2.7.5-1.8-.3-3.1.9-4.6 1.5-2.3.9-4.5 1.9-6.4 3.5-1.1.9-2.2 1.7-3.3 2.6-1.3 1.1-2.5 2.2-3.8 3.3-.2.2-.4.5-.5.5-.4 0-.9-.2-1.3-.4-.7-.4.1-.6.1-.9 0-1.3.8-2.1 1.6-3 1.6-1.9 3.7-3 5.5-4.5.9-.7 2-1.2 2.9-1.9 1.4-1.3 3.1-2 4.7-3 .6-.4 1.4-.7 2.2-.6.9.1 5 1.2 5.7 1.7.1.1.2.3.5.5zm-23.3 52.7c.1.7-.8 1.9-1.5 1.7-1.9-.7-3.8-1.4-4.6-3.5-.1-.3-.2-.6-.1-.9.5-1.7 1.1-3.5 1.6-5.2.1-.2.5-.3.8-.5.1.3.4.3.3.9-.3 1.4-.4 2.9-.2 4.3.1.5.2 1.1.5 1.5.4.5 1 .8 1.6 1 .6.1 1.2 0 1.6.5-.1 0-.1.1 0 .2zm-55.7-9.3c.3-.3.5-.7.7-.7.4-.1.8-.1 1 .6.7 2.4 2.1 4.3 4.4 5.5.4.2.8.4 1.2.7s.2.4 0 .7c-.5.5-1 .6-1.5.2-1.1-.9-2.6-1.1-3.3-2.7-.4-1-1.2-1.9-1.8-2.9-.3-.5-.5-.9-.7-1.4zm87.6-2.8c.1.1.5.2.8.4 1.7 1 1.6 2.9 2.3 4.4.1.2-.4.9-.7 1.1-.4.2-.7-.1-.7-.6 0-.3-.4-.5-.5-.8-.4-1.2-1.1-2.1-2.2-2.4-.6-.2-.8-.3-.8-.9.1-.6.4-1 1-1.1.2-.1.4-.1.8-.1zM168.6 161c0-.4-.1-.8 0-1.2.1-.2.5-.4.7-.4s.7.2.7.4c-.1 2 .2 3.9 1 5.7.1.2-.1.4-.1.7-.2-.1-.4-.2-.5-.3-1.3-1.3-1.6-3.1-1.8-4.9zm-83.3 88c1-.1 1.7.2 2.4.9.6.7 1 1.3.7 2.1-.2.7.6 1 .4 1.9-.7 2.4-2.5 3.2-4.5 3.9-.6.2-1.2.6-1.7.4-1.1-.3-2.1-.8-3.1-1.4s-1.1-1.8-1.2-2.6c-.1-.9.6-1.9 1.1-2.7.4-.6 3.4-2.2 4.4-2.4.3-.1.9-.1 1.5-.1zm21.1 4.5c-.6 0-1.2.2-1.7 0-.6-.3-1.4-.3-1.7-1.3-.9-2.6-1.3-2.3.7-4.4 1.3-1.3 3-1.8 4.7-2.2 2.2-.5 3.9.5 5 2.4.1.2.4.4.6.5.5.2.5.5.2.9-1.5 2-3.8 2.9-6 4-.4.3-1.2 0-1.8.1 0-.1 0 0 0 0zm-53.1 63c-1.2.3-2.1-.4-2.9-1.3-.8-.9-1.9-1.7-2.1-3.1-.1-.4-.2-.6 0-1 1.5-3 4.5-3.7 6.7-3.4.2 0 .4.2.6.3 1.3 1.2 2.2 2.6 2.8 4.3.4 1.1 0 2-1.2 2.8-2.1 1.4-2.1 1.4-3.9 1.4zm34.4-18.7c-.4 0-.8.1-1.2 0-.4-.1-.8-.3-.9-.6-.3-.8-.7-1.7-.6-2.4.3-1.6.5-3.5 2.4-4.3 1.4-.6 2.7-1.3 4.1-1.9 1-.4 2.8.2 3.1 1 .3.8.4 1.6.6 2.4.2.7-.4 1-.8 1.4-1.4 1.2-2.7 2.5-4.2 3.6-.7.5-1.7.7-2.5 1 .1-.1 0-.2 0-.2zm26.1-76.3h-.9c-1.9 0-2.7-1.4-1.9-3.1.2-.5.5-1 .6-1.5.4-2.3 2.4-2.8 4-3.8.9.4 1.5-.8 2.4-.3.5.2 1.2.2 1.5.6.5.6.8 1.3 1 2 .5 1.8-.4 3.6-2.2 4.7-1.6.8-2.9 1.7-4.5 1.4zm-37.7 66.8c.4 1.5-.8 2.3-1.9 3-1 .6-2.1 1-3.1 1.4s-1.8-.1-2.3-1.1c-.8-1.6-.7-2.7.4-3.9 1.3-1.3 2.7-2.4 4.7-2.3 1.4 0 2.2.8 2.3 2.2-.1.2-.1.3-.1.7zm-63.6 41.9c.2-.6.3-1.2.7-1.7.5-.8 1.1-1.7 1.9-2.1l2.1-.9c1.9-.7 3.6.6 3.3 2.6-.2 1.1-1.1 1.7-2 2.2-.5.3-1 .4-1.4.7-1.3 1.4-2.8.1-4.2.2-.1 0-.3-.6-.4-1zm110.8 42.3c-.2 1.1-1.3 2.4-2.8 3.6-.3.2-.7.3-1 .5-2 1-3.1.5-3.5-1.7-.1-.5-.3-1-.4-1.5-.4-1.3 0-2.7 1.1-3.6.8-.6 1.6-1.2 2.6-1.5 1.8-.7 4.2.9 4 4.2zm1.9-63.7c.2-.8.2-1.8.7-2.4.6-.8 1.5-1.4 2.4-1.7.9-.2 1.7-.9 2.7-.6.3.1.6.2.8.4.2.1.8 2.7.7 3-.7 2.4-2.8 4-5.3 4-1.2 0-1.8-.5-1.9-1.7 0-.3 0-.7-.1-1 .1.1 0 0 0 0zm276.8 23c-1.6-.2-3.5-.4-5.5-.5s-3.9 0-5.9 0c-.8 0-1.7-.4-2.5-.5s-1.5 0-2.3-.5c-.5-.3-1.3 0-1.9-.1-1.5-.2-3.2-.2-4.5-1-1.4-.9-2.7-1.4-4.4-.5-.8.4-2-.7-2.1-1.8 0-1.1.1-2.2.4-3.3 1-3.1 2.9-5.4 5.4-7.2 3.3-2.3 7-3.6 10.9-4.5 3.3-.7 6.6-1.6 10-1.5 1.1-.6 2.3-.6 3.5-.5 2.5.4 5 .9 7.5 1.5 1.4.3 2.8.7 4.3 1 2.3.5 4.6.6 6.8 1.4 2.6.9 4.7 2.5 6.5 4.5.4.4.6 1.1.7 1.7.2.8-.4 2.8-.9 4s-1.4 2.1-2.6 2.7c-2.6 1.3-5.3 2.4-8.1 3-1.9.4-3.8.7-5.7 1.1-1.7.3-3.4.1-5 .5-1.4.4-2.8.3-4.6.5zm-1.6-19.3h-4.6c-.6.8-1.5.4-2.3.5s-1.5.3-2.3.5c-2.4.7-4.9 1.2-7 2.6-1.5 1-2.6 2.3-3.9 3.5-.8.7-1.5 1.6-1.6 2.8 0 .6-.8 1.1-.3 1.7.4.5 1 .8 1.5 1.2.7.5 1.4 1 2.1 1.4 1.6.9 3.3 1.8 5.3 1.5.3 0 .8-.1 1 0 .8.6 1.7.5 2.5.4 1-.1 1.8.5 2.7.5 1.9.1 3.8 0 5.6 0 1.8.1 3.6.2 5.4.5 1.2.2 2.3-.5 3.5-.5 1 0 2 .1 2.9 0 .8-.1 1.6-.7 2.5-.4 1 .3 1.8-.3 2.7-.6 1.7-.4 3.4-1 4.9-1.8.8-.4 1.7-1 2-2 .2-.8.2-1.7.5-2.2.9-1.4 0-2.2-.7-3.1-.4-.5-1-.8-1.5-1.2-2.9-2.4-6.4-2.8-9.9-3.4-1.2-.2-2.5-.2-3.7-.6-2.3-.8-4.9-1.6-7.3-1.3zM344.5 36.2c-4.4-1.2-7.3.9-12.9 1-.1.4-.3.9-.5 1.5-.4 2.2-1.1 4.4-1.7 6.5-.1.4-.2.8-.3 1.1-.1.3-.2.5-.2.8 4 .9 8.1-1 12.6-.6.4 7.2 3.2 16.4 3.7 24.5 2 8.8 2.1 18.8-1.8 26.8-.5 1.2-1.2 2.3-2.3 3.1-6.8.6-11-7.5-10.2-13 0-.5.9.1.7-.9-.8-3.5-1.9-4.5-3.2-4.4 0 .1-.1.3-.3.3l-1.2.6c-.2.1-.3.2-.5.3-.1 0-.2.1-.2.1-.1.1-.3.1-.4.2-3.5 2.8-7.3 5.2-11.2 7.5v.1c.7 1.7 1.5 3.4 2.3 5.1.1 0 .2 0 .2-.1.2.4.3.8.2 1 1.5 3.1 3.1 6.1 4.7 9.2l.6.3-.3.3c1.1 1.5 2.2 3 3.5 4.3 2.9 2.3 7.4 4.6 10 4.9 2.2-1.1 3.6.6 8.2-.8-.1-.6-.2-1.2.3-1.4.1.3.2.8.6.8 5.8-4.2 10.5-5.8 11.6-13.9h.2c.1-.6.2-1.3.3-1.9.2-3 .2-6 .2-9.1-.1-2.8-.1-5.7.2-8.5 0-2.7-.1-5.4-.1-8.1-.7-6.8-1.3-14.5-1.7-21.6-1.1 0 .2-2.5-1-3.8 2.5-.2 4.3-.9 5.9-1.8.1.2.1.4.1.5.4-.1.7-.2 1.1-.2.3-3.1-1.4-10.9-1.8-13.4-4.3-.5-10.6-.1-15.4 2.7zm32.7 29c.1.2 0 .4-.1.6.1 1.3-.9 1-.1 2.6-1.3-.3-.9.7-1.4 1-3.1-.6-4.6-1.6-8.7-1.5-2.1 1.1-3.9 2.8-5.2 5.3-.3.7-.6 1.4-.8 2.1 0 0 0 .1.1.1h-.1c-.4 1.2-.7 2.4-.8 3.6 0 .3 0 .7-.1.9 0 .4-.1.8-.1 1.2 0 .6 0 1.1.1 1.7 1.2 3.2 2.7 6.1 5 7.9.6.4 1.3.8 2 1.2h.1c.1.1.3.1.4.2.7.3 1.5.4 2.4.5.2 0 .4 0 .6-.1 3.4-1.6 7-4.7 7.9-5.8.9 1.3 1.1 3.7 1.7 5.5h1.5c.2 0 .4 0 .5-.1 0-.9.1-1.8.2-2.7-.1-5.1-.7-10.2.4-15.2v-.8c-.4-2.6-.8-5.1-.8-7.2-1.7-1.4-3.2-1.6-4.7-1zm-5 15.7c-.8-.9-.6 3.2-.6 4-3.7 2-3.9-1.9-5.6-3.1.5-3.4 1.9-6.1 3.6-8.4 1.3-1 1.6 1.6 1.6-.3 1.1 1.9.9 5.7 1 7.8zm78.3-24.2c-4.6-.8-6 .5-10.4.4l-.2-1.7c1.1-1.1 2.1-2.2 3-3.3.3-.5.6-.9.9-1.4 2.2-4 4.6-7.8 7.4-11.4.1-.1.2-.2.4-.2-.4-1.9-.9-3-1.2-5-6.9.9-13.8 1.8-20.7 1.9-.4.1-.9.1-1.3.1 0 .7.1 1.3.1 2 .1.8.2 1.7.2 2.5.2 1.2.3 2.4.4 3.6.3.1.5.2.6 1 1.5-1 2.7-.1 4.9-1-.1 1.7.5.3.9 1-1.2 2.5-1.4 7.4-2.6 9.3.2-.2-.4-.8-.4-.6.2 1.7-.6 2.8-1.1 4.1.9 3.4 1.5 6.9 1.7 10.5 7.5-1 14.4-3.2 24.7-5.7-.4-4.6-.4-4.7-1.5-7.7-3.2 1-4.2.4-5.8 1.6zm-46.3-4.5c-5.5 0-11-.1-16.4-.6-1.5-.1-3.1-.1-4.6-.2.8 7.3 1.2 11 4.1 16 7.6-.5 8.1-1.6 14-1.3-1.9 7.3-4.1 14.3-7.6 20.2 0 1.5.4 2.3 1 2.9l-1.8.2c1.2 3.7 2.2 8.4 4 12.3 3.4-1 6.8-1.3 10.3-1.6 4.1-.4 8.1-1 12.2-1.6 4.3-.7 8.7-1.2 12.9-2.3.8-.2 1.6-.4 2.4-.7-1.8-3.4-.9-7.7-1.2-11h-1.7c-6.5.6-13 .5-19.5.5-.2 0-.3-.1-.4-.2-.6-.1-1.2-.3-1.6-.5v-.1c-.3-.1-.4-.4-.3-.7 0-.1.1-.2.1-.3-.1-.6-.1-1.2.3-1.4 0 .1.1.3.2.4 1.5-3.6 3.4-6.9 5.5-10 1.1-2.3 2.3-4.5 3.9-6.3 1.4-2.2 2.8-4.3 4.3-6.4 0-2.6-.6-5.3-.9-7.5-6.5.4-13 .1-19.2.2zm-30 76c-9.2.4-9.3 13.4-6.3 19.3.6 1.2 3.5.1 2.7-1.3-1.7-3.4-2.9-9.2-.4-12.7 6.2-8.3 11.9 4.4 12.7 8.3.1.7.3 1.8.4 3-.7-.4-1.5-.6-2.5-.4-3.6.6-4.8 4.9-4.8 8 0 2.6.9 6.5 4.1 6.7 3.7.2 4.8-4.1 5.5-6.8 1.3-5.6 1.2-11.6-1.5-16.8-2-3.4-5.5-7.5-9.9-7.3zm7.6 26.6c-.2 1.9-1 1.9-2.4.1-.4-1.1-.5-2.2-.3-3.4.1-2 2.9-5 3.4-1.8.1.4.4.6.8.7-.2 1.9-.7 3.5-1.5 4.4zm21 1.2c-1.7 1.7-4.1 4.6-7.2 1.9-.7-.6-1.3-1.8-1.6-2.7-.7-1.6-1.2-3.2-1.4-4.9.4 0 .9-.2 1.1-.3 2.4-1.9 7-9 1.8-10.6-3.6-1.1-5.4 2.9-5.9 5.7-.8 4.6 0 11.9 4.2 14.9 4 2.9 8.7-.5 11.5-3.4 1.2-1.3-1.7-1.4-2.5-.6zm-10.1-11.9c.2-1 .2-2.9 1.4-2.3 2.1 1.2-.1 4.5-1.7 6.4v-.4c-.1-1.3 0-2.5.3-3.7zm37.2 4.4c-8.7 1.7-7-12.1-12.5-14.9-.6-.3-1.9.1-2.4.5-2 1.7-2.7 4.5-3 7.5-.7-1.8-1.6-3.6-2.6-5.4-.5-.8-2.7-.1-3 .6-.6 1.4-.9 2.9-1.2 4.3-.9-3.2-1.8-6.5-2.7-9.7-.3-.9-2.5 0-2.9.4-1.1 1.3-1.6 2.2-1.9 3.9-.2.8 2 .5 2.7-.1 1.5 5.3 2.9 10.7 4.4 16 .2.9 3 .1 3-.8-.2-3.5-.3-6.9.3-10.3 1.2 2.6 2.1 5.3 2.8 8.3.2.9 2.8 0 3-.6.9-3.2.4-9 2.2-12.3 2.6 2.7 3.1 8.6 5.3 11.3 2.1 2.6 4.8 3.4 8 2.7 1.3-.3 2.6-1.9.5-1.4zm10.8-19c-1.6 2.3-3.6 4.8-6 6.3-2 1.2-5.5 1.9-7.3.2-.9-.9-1.6-2.1-2.1-3.2-1-2.5-1.3-5.4-1-8.1.2-1.5.2-2.4 1.6-3.1 1.1-1.2 1.7-.9 1.8 1 .1 1.2-.1 2.4-.3 3.5-.2 1.2 2.8.7 3-.3.7-3.6-.3-8.9-5.2-7.4s-4.5 10-3.4 13.8c1.2 4.5 4.6 8.1 9.6 7.1 5.1-1 9.3-5.5 12.1-9.6.9-1.2-2.2-1-2.8-.2z"/><path class="st0" d="M450.4 122.2c-.1 1.3-.9 2.6-2.4 2.1-1.1-.3-1.5-1.3-1.9-2.3-.6-1.3-1.2-2.5-2.7-2.9-.1 0-.3-.1-.5 0l.9-3.3c.3-1 5-10.6 5.5-9.6.7 1.1 3.5 0 2.8-1.3-2.3-3.9-6.2.9-7.6 3-2.8 4.3-4.2 9.2-5.2 14.1l-2.4-5.4c-.6-1.3-3.5-.4-3 .8 1.5 3.3 2.9 6.7 4.4 10 .5 1.2 2.8.7 3-.5.3-1.8.6-3.6 1-5.4.7.7 1 2.2 1.6 3 .8 1.2 2.1 1.9 3.4 2.1 2.9.4 5.8-1.7 6.1-4.6.2-1.5-2.8-1.1-3 .2zm21.5-7.9c-4.7.9-6.1-5.4-6.6-8.6-.2-.9-3-.2-3 .8.1 3.8-.2 7.6-1 11.3-.5-.9-.8-2-1.1-2.9-.8-2.1-1.5-4.1-2.3-6.2-.3-1-3.3-.1-3 .8 1 2.7 1.9 5.6 3 8.3.7 1.5 1.3 2.7 3 3.3.7.3 2.5 0 2.7-.9.6-2.3 1-4.5 1.3-6.8 1.4 1.9 3.5 3 6.6 2.4 1.3-.3 2.5-1.9.4-1.5zm19.6-15.5c-1.8 2.5-5.6 8.7-9.9 5.7-2-1.4-3-4.8-3.5-7.1-.2-.8-3 0-3 .8-.1 1.8.4 7.4-.3 10.3-1.9-1.9-3.3-5.6-4.1-7.7-.3-.8-3.3.1-3 .8 1 2.6 3.7 10 7.6 9.1 1.4-.3 2-1.2 2.4-2.6.3-1.1.4-2.2.4-3.4 1.3 1.6 3 2.6 5.3 2.4 4.9-.5 8.3-4.8 10.9-8.5.6-.9-2.3-.5-2.8.2zm-18.6-12c-1.9-6.7-1.1-13.5 2.5-19.6.3-.6-2.5-.4-3 .5-3.6 6.1-4.5 13.1-2.5 19.9.2.8 3.2 0 3-.8zM382.8 185c-.5 1.4-.2 2.3 1.1 2.6 1.1 3.2.7 6.7-.4 10-.6 1.9-1.5 4.5-3 6-4.2 3.8-7.1.1-8.9-3.3-1.8-3.7-2.6-8-2.2-12 .2-2.1.7-4.2 1.4-6.1.4-1 3-7.5 4.7-4.8.2.3.6.4 1.1.4.3 1.1.9 2.2 1.5 3.2 1 1.5 4.9 0 3.7-1.8-1.4-2.1-1.9-4.4-1.5-6.9.3-2-3.8-1.5-4.1.3-.1.5-.1.9-.1 1.4-3.4-.1-7.2 4.1-8.5 6.9-3.3 6.8-3.2 15.5.7 22 3.4 5.6 10.2 6 15 1.6 5-4.6 7.2-14.4 3.5-20.2-.7-1.2-3.6-.4-4 .7zm30.3-14.7c-4.1 2.6-6.1 7.5-4.9 12.9 1.6 7.4 7.7 11.4 14.9 8.5 7.5-3.1 9-12.1 5.2-18.8-3.1-5.4-10.8-7.4-15.2-2.6zm7.3 20c-2.8.5-4.5-.7-6-3-1.1-1.6-1.8-3.3-2.2-5.2-.7-3.3-.2-8.3 2.6-10.7.6-.2 1.2-.4 1.4-.7l.3-.3c.4-.1.8-.3 1.3-.3.5-.1 1-.3 1.4-.5 1.6.3 3.1 1.7 3.9 2.8 1.3 1.6 2.1 3.7 2.6 5.7 1.2 4.7.3 11.3-5.3 12.2zm82.7-64c-3.8-2.8-7.8-.7-10.5 2.6l-.3.3c0 .1-.1.1-.1.2-1.6 2-2.7 4.4-3.1 6.4v.6c-1.1 4.7-.6 9.8 2.5 13.7 4.8 6 12.9 2.7 15.2-3.7 2.3-6.2 2.1-15.8-3.7-20.1zm.1 18.7c-.8 3-3.5 6.7-6.9 4.3-1.7-1.2-2.6-3.6-3.1-5.5-1.2-4.6-.2-9.5 2.5-13.4.2-.3.3-.5.3-.8.5-.5 1.1-.9 1.8-1.1 2.5-.8 4.2 2.3 5 4.2 1.6 3.8 1.6 8.4.4 12.3zm25.4-45.7c-2.9 1-5.3 3.1-6 6.1-.5 2.3-.3 5.8 1.3 8 1.2 5.3 6.6 9.5 12.2 9.1 8.1-.5 10.7-8.1 7.9-14.9-2.5-6.3-8.5-10.7-15.4-8.3zm12.5 16c-.6 3.8-4 5.8-7.6 3.9-2.1-1.1-3.8-2.8-4.8-4.9.8-.5 1.3-1.1.4-1.4-.4-.2-.8-.4-1.2-.7-.3-1.3-.3-2.6 0-3.9.2-.7-.7-1-1.6-.9.1-3.2 1.9-6.5 4.9-6.5 4.6 0 7.8 4.8 9.1 8.7.7 1.8 1 3.9.8 5.7z"/><path class="st0" d="M491 159.4c-.8.3-1.5.6-2.2 1-.1-1.3-.8-2-2-2.5-3.7-5.4-6.8-11.3-9.1-17.4 0-.1-.1-.2-.2-.3 2-1.2 3.9-2.6 5.7-4.1.2 1.1.4 2.2.7 3.3.5 1.6 4.5.5 4-1.1-.7-2.2-1-4.5-1-6.8 0-1.9-4-1.1-4.1.4v.7c-.2.1-.3.2-.4.3-3.9 3.5-8.2 6.4-13 8.7-1.3-.2-3.2.7-3 1.8.4 1.8 1.5 3.2 3 4.2.8.5 2.1.2 2.9-.3.6-.4 1.1-1.3.3-1.8-.7-.4-1.2-1-1.6-1.7 1-.5 1.9-.9 2.9-1.5 2.8 7.1 6.4 13.8 11 19.9.1.2.3.3.6.4-.7.6-1.3 1.2-1.9 1.8-.6.7.5.8 1 .8.9 0 2.1-.3 2.7-1 1.5-1.6 3.2-2.9 5.2-3.6.4-.1 1.7-.7 1.2-1.3-.5-.6-2.2-.1-2.7.1zm-83.9 36.1c-1.2.3-2.4.7-3.6 1.1-.1-.4-.2-.8-.2-1.1-.1-.3-.3-.5-.6-.6-2.8-7-5.4-14.2-7.5-21.4 1.3-.5 2.6-1 3.9-1.6.5 1 1 2 1.6 3.1s4.4-.4 4-1.1c-.7-1.4-1.4-2.7-2.1-4.2-.4-.9-2.6-.1-3.2.2-1.8 1-3.7 1.8-5.6 2.5-.8 0-1.8.3-2.4.8-1.8.6-3.6 1.1-5.5 1.4-.2 0-2.8.7-2.4 1.4l1.8 2.7c.7 1.1 4.4-.5 4-1.1s-.8-1.3-1.3-1.9c1.1-.3 2.1-.5 3.2-.9 2.4 7.9 5.1 15.7 8.3 23.3 0 .1.1.1.1.2-1 .5-1.9 1-2.8 1.6-.7.4-1.1 1.2-.3 1.7s2.2.1 2.9-.3c2.6-1.7 5.3-2.8 8.3-3.6.7-.2 2-.8 1.7-1.7-.2-.8-1.7-.7-2.3-.5zm53.9-21.2c-.4-.3-1-.3-1.5-.3-.1-.1-.3-.2-.4-.3.1-.3.1-.5-.1-.8-4.9-6.3-8.7-13.3-12.4-20.4.9-.6 1.9-1.2 2.1-1.3 1.2-.6 2.5-1.1 3.9-1.6.4-.1 2-.5 1.8-1.2-.2-.6-1.9-.2-2.2-.1-2.2.7-4.4 1.5-6.5 2.6l-1.4.7c-.6.1-1.3.5-1.6.9-.8.5-1.5 1.2-1.7 1.9-.1.1 0 .3.1.3.2.2.5.2.8.3l-1.2 4.5c-.3 1.1-.6 3.8-1.2 5.5-1.2-.9-2.4-2.3-3.2-3.1-1.3-1.3-2.5-2.6-3.7-4 .6-.4 1.1-1.1.3-1.6-.7-.5-2.2-.1-2.9.4-1.5 1.1-3.1 2-4.9 2.6-.6.2-1.6 1-1.1 1.7.6.7 2 .3 2.7.1s1.4-.5 2.1-.9c2.8 7.8 3 16.3 6.6 23.8.1.2.3.4.6.5l-1.5.9c-.6.4-1.1 1.1-.4 1.5.8.5 2.2 0 2.9-.4 2.2-1.3 4.4-2.4 6.8-3.3.6-.2 1.6-.9 1.1-1.6-.5-.7-2.1-.3-2.7 0-.9.3-1.8.7-2.7 1.1-2.6-5.4-3.4-11.4-4.7-17.2.3.3.7.6 1 .9 1.4 1.1 2.7 2.4 4.6 1.9 2.1-.5 2.6-2.2 3.1-4 .6-2.1 1.1-4.1 1.7-6.2 3.1 5.6 6.3 11.2 10.2 16.3.1.1.3.3.5.3-.1.3-.1.7.2 1l.1.1c-.6.4-1.2.8-1.9 1.2-.7.5-1 1.5-.2 2 .9.6 2.1.2 2.9-.3 1.4-.9 2.7-1.8 4.1-2.6.3-.2.7-1.3-.1-1.8z"/><path class="st0" d="M481 165.3c-.7 0-1.5.2-2.1.6-3.3-3.6-6-7.5-8.3-11.7-.2-3.4-1-6.7-3.7-7.9-.6-.2-2.9.1-3.5.8-.3.1-.5.2-.6.3-4.3 3.9-5.1 9.9-5.3 15.4-.2 4.2-.1 10.1 5.7 9.2 5.3-.9 6.6-6.1 7.1-10.7 1.7 2.5 3.7 4.9 5.9 7.1-.6.6-1.2 1.2-1.9 1.8-.7.6.6.8 1 .7.9-.1 2-.3 2.7-1 1.4-1.3 2.7-2.7 4.1-4 .5-.6-.7-.7-1.1-.6zm-14.6-7.3c0 1.2-.7 13-3.8 11.6-2.4-1.2-1.2-8.9-1-10.6.3-3 .9-6.3 2.5-8.9.7 1.7 1.4 3.3 2.2 4.9.1 1.1.1 2.2.1 3zm65.9-30.4c-1-.3-2.2 0-2.9.8-.1.2-.3.3-.4.5-5.6-4.8-11.3-9.7-16.9-14.5-.8-.7-4.3-.1-3.9 1.3 2.7 8.7 5.1 17.5 7.1 26.3 0 .1.1.1.1.2-.5.4-.9.8-1.4 1.1-.6.5-1.1 1.4-.3 1.9s2.2.3 2.9-.3c1.5-1.2 2.9-2.4 4.4-3.6.6-.5 1.1-1.4.3-1.9-.6-.4-1.6-.3-2.4 0-1.5-6.2-3.1-12.4-4.9-18.5 4.1 3.5 8.3 7.1 12.4 10.6.2.1.4.2.7.2-.4.9-.7 1.7-1 2.7s1.2 1.3 1.9 1.3c1-.1 2-.6 2.2-1.6.5-1.7 1.3-3.2 2.5-4.6.7-.7.4-1.6-.4-1.9zm24.1-20.7c-1-.4-2.1.1-2.9.8l-.4.4c-4.9-4.8-9.1-10.2-12.6-16.1 1.8-1.2 3.4-2.7 4.8-4.4 1 2.2 2.9 3.9 5.2 4.9 1.6.7 4.7-1.6 2.4-2.6-3.3-1.4-4.9-5-4.3-8.5.3-1.9-3.5-1.4-4 0-1.4 4-3.9 7.2-7.5 9.4-.4.2-.6.6-.7.9-.3.4-.3.9 0 1.3 3.3 5.6 7.1 10.7 11.6 15.3 0 .3.1.6.5 1 .8.6 1.5 1.2 2.3 1.9h.1c-.4.7-.8 1.4-1.1 2.2-.8 2.1 3.2 2 3.8.4.8-1.9 1.9-3.6 3.4-5 .6-.7.2-1.6-.6-1.9zM452.5 218.2c-2.4-1.1-5.5-.5-7.6 1.7-1.7 1.7-3 4.2-3.1 6.6-.2 2.8.8 6 3.1 7.8.9.6 1.8.7 2.7 1.1.6.3 1.1.9 1.6 1.4 1.1.9 2.1 1.7 3.2 2.6 2.1 1.7 4.3 3.4 6.4 5.3 4.3 3.4 8.5 7 12.9 10.4 2.7 2.2 5.4 4.5 8.3 6.7.3.2.5-.1.7-.3.2-.4.3-.6.5-.8-2.2-2-4.3-4.1-6.2-6.2-.4-.3-.6-.6-1-1-.1 0-.1-.1-.3-.2-.5-.5-.8-.9-1.1-1.1-2.4-2.3-5-4.6-7.5-6.7-3.4-3.1-7-6.1-10.6-9.1-.9-.8-1.7-1.4-2.6-2.2.4-.4.9-.7 1.2-1.2.3-.2.5-.5.6-.7 2.7-3.1 4.1-8.2 1.7-11.8-.8-1-1.7-1.9-2.9-2.3zm1.4 8.4c.1.7 0 1.3-.2 1.9-.8 2.6-4 3.5-6.3 2-1.4-.8-3.2-3-3.2-4.8 0-2.4 1.3-4.6 4.2-4.5.7-.1 1.5.2 2.2.6 2 .8 3.1 2.9 3.3 4.8z"/><path class="st0" d="M441.9 240.3c5.2-7.4 10.8-14.4 16.9-21.1 1.5-1.7-.4-7.8-1.9-6.2-6.3 7-12.1 14.3-17.5 21.9-1.1 1.8.8 7.9 2.5 5.4zM501 73.2c-2.6-5.7-3.8-12.1-5.3-18.1-1.3-4.9-2.6-9.8-3.8-14.6-.1-.7-.2-1.3-.3-2 4.4 2.8 8.7 5.7 12.8 8.9.2.3.3.6.5.8.9 1 1.6 2 2.1 3.2.3 0 .7 0 1-.2-.6-2.2-1.4-4.4-2.2-6.6-1.2-2.5-2.7-4.7-4.9-6.3-3.5-1.5-7.7-1.5-10.3-4.6-.1-.1-.3-.2-.5-.2-.1-.2-.1-.4-.2-.6-.2-.8-2.1-.3-1.9.5.4 2.1.9 4.2 1.3 6.3 1.1 9.1 2.8 18 5 26.9.5 2.1 1.1 4.2 1.7 6.3-.4.1-.9.3-1.3.4-1.9.6-3.8 1.7-4.9 2.9-.3.3-.6.6-.9 1-.5.4-.9.9-1.2 1.3-.6.8-1.2 1.7-1.6 2.7-.8 1.6-1.3 3.2-1 4.6.7 2.9 4 3.5 6.5 3 1.3-.3 2.8-.9 4.3-1.7 4.2-1.8 8.1-5.9 7.3-10-.1-1.7-.7-3.1-2.2-3.9zm-13.5 10.1c0 .1 0 .3-.1.4v-.3c0-.5 0-1.1.1-1.6.3-.6.7-1.3 1.1-1.9-.7 1.1-1.1 2.3-1.1 3.4zm2.2-4.8c-.3.3-.5.6-.7.9 0-.1.1-.1.1-.2.4-.6.9-1.3 1.5-2-.4.5-.7.9-.9 1.3zm4.9-3.5c.3-.1.5-.1.8-.2-.3.1-.7.2-1 .4.1-.1.2-.1.2-.2zm-2.2 4.7c.1-.1.2-.2.3-.2-.1.2-.1.3-.2.5l-.2.2c0-.1.1-.3.1-.5zm4 3.7c-.9.8-2.6 1.6-4.1 1.9h-.1c.3-.1.5-.2.8-.4 1.4-.5 2.7-1.3 3.6-1.9.4-.3.9-.6 1.3-1-.4.5-1 1-1.5 1.4zm-13.5 193.5c-2.9-3.6-26-14.3-34.6-18.3-.4-.1-.9-.2-1.4-.4-1.8-.9-3.8-1.8-5.8-2.3-4.5-1.4-7.3 2.6-10.1 6.6-2.9 4-7.3 2.6-7.3 2.6s26.4 14.6 33.4 18.4 5 4.7 5 4.7-7.3 2.6-7.7 9.1c-.3 6.4 9.6 11.1 12.9 5.6s2.1-12.4-1.4-16.7c-2.2-2.7-16.4-9.7-26.8-14.6l14.6-7.1c1.2-.6.1-1.2-.8-.8-.5.3-1 .5-1.6.8.4-.3.9-.5 1.3-.8.4-.2.7-.3 1.1-.5 7.6 4.2 16.3 9 20 11 7 3.8 5 4.7 5 4.7s-7.3 2.6-7.7 9.1c-.3 6.4 9.6 11.1 12.9 5.6 3.6-5.5 2.5-12.4-1-16.7zm-46.3-6.6c.5-.2.9-.4 1.4-.6-.4.2-.8.5-1.1.7-.1 0-.2-.1-.3-.1zm6.3-4.7c-2.9 1.1-5.7 2.3-8.5 3.7-3.7-1.7-6.2-2.8-6.2-2.8s7.9.8 12.2-2.7c2.8-2.3 6.6-3 8.9-3.1.7.4 1.5.8 2.3 1.3-3 1-5.9 2.3-8.7 3.6z"/><g id="Режим_изоляции"><path class="st0" d="M531.4 201.7c-.3-2-2.3-4.2-4.5-4.7-1.8-.4-4.2 1-5.8.2-2-1-2.4-2.7-3.7-3.9-2.6-2.3-6.8-2.4-9.1-.6-2.5 2-3.4 4.3-4.4 6.6-.7 1.6-1.5 3.2-2.1 4.8-1.3 3.2-.6 6.5-2.2 9.5-.4.1-.8 0-1.3-.5-1.3 4.6-4.9 9.7-8.5 14.4-1.2 1.5-2.7 3-3 4.8 4.8-1.7 9.2-9.1 13.9-12.9 2.5-2 6.3 1.2 6.4 4 .1 3.5-4.9 9.2-7.3 12.8-.8 1.2-2.1 2.5-1.5 3.8 1.5-.1 2.5-1.6 3.7-2.8 3.7-3.5 7.7-7.1 11.2-9.9-.8-.5-3.1-.9-2.3-2 .6-.8 2.5.4 3.1.5 3.1.4 4.8-2.2 8-3.9.8-.5 2-.1 3.1-.4 2.5-.6 7.1-3 8.2-5.9 1-2.7-2.4-4.8-3-7.6-.4-2.2 1.4-4 1.1-6.3zm-9.6 3c-.2 2.4.6 4.8-1.2 7.3-.5-.3-.2-1.1-.2-1.6-.1-1.9 0-5.2-2.2-6.9-1.5-1.1-3.7-1.3-5.4-1.4-.4 0-1.1.2-1.3-.2 2.6-1.8 5.2-2.3 7.9.4 1.2-1.7.2-3.3.1-4.9 1.1 1.7 1.7 3.4 1.9 5.2 2.1.1 4.3.7 6.5 3.1-2-.6-4-2-6.1-1zm-29-30.8l.7-.7c.2-.5.3-1 .5-1.5l-1.2 2.2z"/><path class="st0" d="M502.4 172.9c-.9 2.7-23 43.1-30.2 64.6 13.1 9.3 26.3 18.6 39.4 27.9 1 .7 2.1 1.4 3.3 1.3 1.2-.2 2.2-1.1 2.8-2.2 17.1-29.6 22.7-41.9 39.3-63.5-24-9.4-32.4-14.9-54.6-28.1zm24.9 50.6c-1.4.6-2.9.5-4.5 1-3.6 1.2-7.6 4-11.6 6.7-4.2 2.8-8.4 6-11.5 9.3-.9.9-1.6 2.2-2.9 2.7-2.2-1.7-.2-3.9.7-5.5 1.9-3.7 3.8-7 5.5-11.1.7-1.6 2.2-4.3.9-5.5-1.4-1.3-4.4.8-6 2.2-2 1.8-3.9 4.3-6.2 6.4-1.4 1.3-4.8 5.2-6.2 3.7-.9-.9.7-3.3 1.5-4.9 2.7-5 6-9.8 8.5-14.8 1.6-3.2 2.5-6.6 4.1-9.8 1.6-3.3 3-6.6 4.6-9.8.5-.6 1.1-1.1 1.6-1.6.7-.4 1.7-1 2.4-1.2 3.7-1 7.8-.8 11.2 2.5.6.5 1 1.4 1.7 1.8 1.1.7 3.5.1 5 .4 1.8.3 3.1 1.1 4.3 1.8.5.5 1 1 1.6 1.5 2.3 2.9-.6 5.7.2 8.4.4 1.3 1.3 2.3 1.8 3.3.5 1.2 1.1 2.8.8 4.1-.5 2.8-4.5 7-7.5 8.4z"/><path class="st1" d="M44.1 148.5c.6-.4 1.2-.9 1.8-1.3 3.2-1.8 5.5 1.6 8.3 1.3 1.3-.1 2.5-.9 3.6-1.2 1.3-.3 2.9-.6 4.2-.1 2.7 1 6.2 5.7 7 8.9.4 1.4 0 3 .2 4.6.5 3.8 2.6 8.2 4.6 12.6 2.1 4.6 4.5 9.3 7.1 12.9.8 1.1 1.9 2 2.1 3.3-2 1.9-3.8-.5-5.3-1.6-3.3-2.5-6.3-4.9-10-7.4-1.4-1-3.8-2.9-5.3-1.8-1.5 1.1 0 4.5 1.1 6.3 1.4 2.3 3.5 4.6 5.3 7.2 1.1 1.6 4.3 5.6 2.6 6.8-1.1.7-3.2-1.3-4.6-2.3-4.5-3.5-8.6-7.6-13-11-2.9-2.1-6.1-3.6-8.9-5.8-3-2.2-5.9-4.1-8.9-6.3-.5-.6-.9-1.2-1.3-1.9-.3-.8-.7-1.8-.8-2.6-.4-3.8.6-7.9 4.4-10.6.6-.5 1.5-.8 2.1-1.4.8-1 .7-3.4 1.2-4.8.6-1.6 1.6-2.7 2.5-3.8zm23.8 24.2c-.7-.7.8-2.4 1-2.9.9-3-1.3-5.1-2.5-8.6-.3-.9.3-2 .2-3.1-.2-2.5-1.7-7.5-4.4-9.1-2.5-1.4-5.1 1.6-8 1.6-2.2 0-3.7-2.1-6-2.2-2-.1-4.5 1.5-5.4 3.6-.7 1.7.3 4.3-.8 5.8-1.3 1.8-3.1 1.9-4.5 2.9-2.7 2.1-3.6 6.2-2.2 8.9 1.5 2.8 3.7 4.1 5.7 5.4 1.5 1 2.9 2.1 4.4 3 2.9 1.8 6.3 1.7 9 3.8 0 .4-.1.8-.7 1.2 4.3 2.1 8.7 6.6 12.7 10.9 1.3 1.5 2.5 3.2 4.2 3.8-.8-5-7.4-10.6-10.3-16-1.5-2.8 2.3-6 5.1-5.6 3.5.5 8.2 6.4 11.3 9.4 1 1 2.1 2.5 3.5 2.2.2-1.5-1.2-2.8-2.1-4.1-2.8-4.3-5.7-8.8-7.8-12.8-.6.7-1.4 2.9-2.4 1.9z"/><path class="st1" d="M41.9 159.3c1.9-.7 3.7-1.1 5.4-1 .5-2.1 1.4-4.1 4.2-5.9-.9 1.9-2.6 3.7-2 5.9 2.3.6 4.9.2 7 2.5-.4.4-1.1 0-1.6-.1-1.9-.2-5.1-1-7.2 1-1.4 1.3-1.9 3.4-2.3 5-.1.4 0 1.1-.5 1.3-1.3-2.9-1.3-5.5 1.8-7.7-1.5-1.5-3.2-.9-4.8-1z"/></g></svg>