<svg xmlns="http://www.w3.org/2000/svg" viewBox="0 0 566.9 467.7"><style>.st0{fill-rule:evenodd;clip-rule:evenodd;fill:#ee7f00}</style><g id="Layer_1"><path class="st0" d="M146.2 213.3c1.5 1.9 2.8 5.9 3.5 8.3-1.9 1.7-6.1 3-9.2 3.5.2.8.5 1.6.7 2.5 3.1.4 7.2-2.9 9.8-1.4.7 1.8 1.6 5 1.5 6.9-2.2 1.8-6.4 1.4-9.3 3.1-.3.7.4 1.8.3 2.6 3.5-1.1 7.1-2.4 10-2.9 2 .8 1.4 3.8 1.9 5.9.3 1.1 1.3 1.9.6 2.7-.7.8-1.7.3-2.7.6-5.3 1.1-12.2 3.9-16.1 4.8-1.9-3.4-1-10.3-3.9-13.7-1.2-6-3.2-11.6-3.4-16.7 2.3-2.2 6-2.2 9-3.2 2.5-1.1 4.6-3.4 7.3-3zm-13.8 7.6c2.6 8.6 5.3 17.2 6.5 25.4 4-2 9-2.7 13.7-4.1 0-1-.3-2.1-.5-3.2-3 .8-7 1.9-10.2 3.1-1.9-1.1-1.5-5.3-2.1-7.4 1.9-1.9 6.2-2.5 9.6-3.6-.2-.8-.5-1.6-.7-2.5-3.9.6-7.6 3.1-10 2.2-.1-2.2-1.2-4.9-1.1-7 1.5-2.2 6.6-1.7 8.7-3.8-.9-.8-.8-3.2-1.9-3.7-3.2 2.4-8.3 2.8-12 4.6zm43.5 3.6c6 4.3 6.8 13.4-1 16-4.5 1.5-9.1 1.1-13.9 2.4-3.4-8.3-2.9-18.3-5.9-26.9.4-.9 1-1.6 1-2.7 1.7-2 3.6-3.1 7.8-3.8 4.7-.7 9-1 11.5 1.4 3.6 3.5 5.3 10.9.5 13.6zM169 226c-.4-2 4.3-2.6 5.6-3.8 2.4-2.1 1.2-7.6-1.7-9.7-1.5-1.1-9.8-.5-12.2.6-3.5 1.6-1.9 5.2-1.3 8.8 1.2 6.6 2 11.1 3 17.7 4.4-.9 13.4-.6 15.3-4.8 1.1-2.4-1-5-2.5-7.3-1.3-1.7-5.6 1.1-6.2-1.5zm37.3-26.5c.6 1.8.1 3.7.3 5.9.2 1.8 1.4 4.7 0 5.5-1.6.9-4.6-1.5-7.2.3 1.2 5.8.9 10.9 1.3 16.2 1.9.2 5-1.7 6.3-.5 1.3 4.1-6.1 1.8-7.6 4.6-2.6-.8-10 4.6-11.5 3.3-2-1.8 2.4-3.6 4-4.5-1.3-5.1-1.7-9.7-2.8-14.7-2.4-.2-4.5 1.9-6.3 2-1.9-2.1-1.1-6.6-2.4-8.4.7-3.4 5-4.1 8.9-5.2 4.1-1.2 9.1-2.8 13.4-4.3 1.3-.3 2.4-1.2 3.6-.2zm-22.5 9.7c.3 1.6.3 3 .7 4.7 2.7-.7 4-1.4 6.2-2.2 1.4 2.1 1.7 5.2 2.3 8.2.7 3.2.7 6.9 1.7 9.9 1.1-.4 2.1-.9 3.2-1.3-.7-5.8.7-11.9-2.2-17.8.6-2.7 5.6-2.6 8.4-3.1-.6-1.7.1-4.4-.8-5.1-5.8 2.7-14.6 3.6-19.5 6.7zm-44.7-13.3c3.3 6.1-6.7 11-10.1 6-2.9 3.7-10.5 10.8-16.3 7.5-1.5-.9-3.7-3.3-4.6-5.1-2.9-6.2 2.2-17.1 10.9-16.8-1.1-2.6-1.5-9-4.3-9-4.6.1-1.2 6.5-3.6 9.2-1.2 1.3-3.2 1.8-5 1-1.8-4.5-1.1-10.4.9-13.3.3-.5 1.3-1.1 1.9-1.9.7-.9.7-1.7 1.4-2.2 4.1-3.1 10-2.1 12.4.9 2.4 2.9 2.9 8.5 4.3 12.9 1.5 4.6 5 11.3 7.9 11.3 1.6 0 3.9-1.6 4.2-.5zm-14.4-9.2c-1.7-4.6-1.6-9.7-4-12.6-1.9-2.2-5.2-2.3-8.4-.7-1.9 3.5-5.9 7.9-3.7 12.6 1.2-3.3.4-8.9 4.6-10.2 6.3-2 7.6 7.2 9.3 12.6-2.1 2.9-6.2 1.5-8.9 3.6-1.6 1.3-3.3 5.4-3.4 7.4-.2 2.8 2.1 6.8 4.4 7.6 2.2.8 6.1-.9 7.8-2.2 2.6-2 4-5.2 6.7-6.8 1.6.8 2.9 3.7 5.1 3.2 1-.2 1.9-1.3 2.4-2.5-6.2 1.5-9.6-6-11.9-12z"/><path class="st0" d="M163.3 223.7c-1.3-1.7-1.2-5.5-2.3-7.3 2.8-3.4 9.1-3.5 10.7.1 2 4.6-3 7.2-8.4 7.2zm1.1-6.3c.3 1 .6 2 .9 3.1 6.9.1 2.4-6.4-.9-3.1zm-33.1 37.3c-2 1.1-4 2.2-6.2 3.3-3.5-3.4-4.2-11.8-6.6-17.2-3.3 1.2-5.8 2.9-8.8 4.3-1.8 4.3 6.2 11.1 4 15-.9 1.6-5.1 2.7-6.7 1.5-1.9-6-3-16.2-6.6-20.9.6-1.2-.5-2.2-.1-3.5 2.8-1.6 5.9-2.8 9.5-3.8 1.2-.3 2.3 0 3.5-.3 1.5-.4 2.8-1.7 4.4-2.4 1.7-.7 3.2-1.1 4.5-2 2.1-1.3 3.3 4.8 4 7.7 1.5 5.5 4.2 13.3 5.1 18.3zm-9.3-22.6c-5.8 3.4-12.8 4.2-19.1 6.8 3.5 4.5 5.1 15 6.5 20.5.8-.1.9-.7 1.8-.7-1.9-5.1-4.7-9.2-4.6-14.6 3.5-2.5 8.1-5.3 13.3-6.2 2.8 4 4 10.8 5.8 16.5 1-.1 1.2-.7 2.2-.8-1.1-7-4.1-14.8-5.9-21.5zm-45.5-39.9c1.4-4.4 8.5-9.7 12.9-5.4 6.1 6 2.3 19.2 6.9 25.7.6.8 1.9 1.8 2.5 1.7 2.5-.2 2.4-4.1 5.3-3.3 3.3 3.7-.4 9.6-5.1 10.8-3.7.9-6.1.2-8.4-2.3-.7-.8-1.8-1.5-2.2-2.3-4.1-6.6-1.3-13.5-4-20.1-4.3 2.3-1.8 10-1.8 15.4 0 1.3-.6 2.6-.5 3.7.1 2.5 1.2 5.3 1.6 8 .5 3.6.7 7.9.7 11.8 0 5.5.8 13.4-6 12.3-1.9-4-.3-8.8-.8-14.4-.3-3.3-1.5-6.9-2.1-10.7-.6-3.5-1-7.5-1.9-11.2-1.9-8.2-7-21.1-1.3-23.3 1.5-.7 3.7.8 4.2 3.6zm21 24.8c-9.7-2.9-4-26.2-12-29.1-4.9 1-6.6 5.1-7.1 8.4-.2 1.5.6 3.5-1.1 3.9-2.8.6-2.3-6.6-4-8.6-1.8 4.4.6 9.9 1.9 15.2 3.1 13.2 5.7 27.2 5.1 38.4 1.6-4.4 1.3-9.7 1-15.1-.3-5.5-1.7-11.4-2.7-17.2 0-.7.9-1 1.1-1.6-.6-6.8-2.9-16.4 5.8-16.9 4.9 5.2 1.4 13.9 4.8 20.8.8 1.7 2.5 2.3 3.6 4.1 2.8.3 7-.2 7.8-3.1-1.6.9-3.1 1.2-4.2.8zm-58-13.2c.6 2.1 3 5.1 2.5 7.3-2.2.8-5.3.9-7.3 2.5-.5 5.7 2.8 13.5 3.2 19.7-2.3.8-6 1.5-8.3 1.2-2.2-3.9-1.9-9.3-3.8-14.2-3.1-.5-7.7 1.6-10.8 1.1-1.4-2.5-3.3-5.5-3.9-8.4 1.2-1.7 3.4-1.7 5.4-2.2 7.3-1.8 16.1-6 23-7zm-25.2 10.3c.8 1.6 1.7 3 2.4 4.6 4-.2 9.8-3.2 11.7 0 .4.6.3 1.7.4 2.3.8 3.4 2.2 7.3 2.4 10.8 1.4-.6 2.3-.3 3.7-.8-1.2-6-5.1-16.6-2.4-19.5 1.3-1.4 3.5-1.6 5.9-2.6-.2-.8-.7-1-.8-2-8.9 2.3-14.8 5.9-23.3 7.2zm53.8 0c-3.4 2.2-8.5 4.3-13.4 5.1 1.2 6.6 7 5.2 10.7 1.8.7-.6 2.1-3.4 3.5-3.4 2.8-.1 2 5.2 1.7 5.9-1 2.7-5.4 5.9-9.1 7-8.1 2.5-17.9-3.6-16.7-13.6.5-4.6 4-9.8 7.2-12.2 2.1-1.6 4.6-2.3 7.6-3 4.3 1 8 6.4 8.5 12.4zm-8.4-9.4c-1.3-.2-5.1 1.4-6.4 2.5-3.5 2.9-7.1 9.6-5 15.2 3.1 8.1 15.4 7.1 19 .6-4.8 5.9-14.6 4.4-15.5-3.1-.6-4.9 5.6-2.7 9.1-5.5-2.7.7-5.6 1.8-7.5 1-1.5-3.2 1.1-7.8 4.5-8.2 2.8-.3 7.7 5.1 4.1 6.8 1.1-.4 1.9-1 3.2-1.3-1.6-3.3-2.7-7.6-5.5-8zm-3.6 7.9c1 0 3.1-.4 3.9-1.1-1.1-1.8-3.8-1.1-3.9 1.1zm108.7 24.8c-1.1-2-.8-4.9-1.9-6.1 1.8-4.6 9-3.6 10.4.1 1.7 4.4-4.3 6.5-8.5 6zm1.6-6c.2 1.1.1 2 .5 3.2 1.4-.5 3.4-.7 4-1.6-1.1-1.4-2.3-2.4-4.5-1.6zM113.2 199c.4-3.6 8-6.5 10-3.1 2.5 4.4-4.6 10.2-8.1 7.4-1.2-.9-1.1-2.3-1.9-4.3zm3.3 0c-.1.6.1 1.3.4 2.1 2.1-.1 4.2-1.5 3.9-3.5-1.5-.4-2.9.8-4.3 1.4zm33.7-117.3c.2-.5.4-.9.6-1.4 1.7-.1 3.4-1.3 4.9.2.8-.6 1.1-1.5 1.9-1.1-.9 2.2-3.3 1.3-4.8 2-.4-.4.1-.7 0-1.1-.5-.3-.1.5-.3.7-.3.3-.2-.3-.7-.1-.3.1-.7.8-.8.9-1.1.6-2.5 1.1-3.5 2-.8.7-1.6 1.8-2.7 1.2.7-2.3 2.7-2.1 4.6-3.6.3-.4.5.3.8.3zm8 18.2c.7.5-.2 1.2-.5 1.3-.2-.5.1-.9.5-1.3zm-4 8.9c-.2-.4.1-1 .4-1 0 .2 0 .3.2.5-.2.2-.4.4-.6.5zm-4.3 4.7c-.1-.2.9-1.3 1.1-.7-.4.2-.7.3-1.1.7z"/><path class="st0" d="M143.2 88.1c.9-.2 1.1-1.5 1.5-2.1 1.2 1.6 3.1.2 4.2-1.1.9 1.4 2.3 2.3 3 1.6 0 .2 0 .3.2.5.5-.6 1.5-1.4 2.2-2.3 1.2 1.5 2.8 1.6 4-.1-.2 1 1 2 1.8 1.9 1.7-1.1 1.5-2.5 2.1-3.7 2.1.9 3.7 2.5 4.8 4.5.1.1.2 0 .4-.1.8 1.5 0 3.4.7 4.4.1.2-.2.4-.4.6 0 4.2-3.3 8.1-4.5 12.2-2.1 1.3-4.1 3.6-4.8 5.5-1.6-.5-1.8.2-3.4 1.1-.7.4-1.3.5-2.1.6-.3-.2.8-.8.2-.6-.2-.4.7-.4.5 0 .6-.9 1.4-.8 1.8-1.7-.6-.3-.9.2-.9.7-.3-.9-.9.4-1.8.4-.1-.4-.4-.9 0-1.3.5.2.4.5.8.7.1-.3.4-.6.3-.9.2-.1.4-.1.6.2.5-.3.3-.7.8-.6.1-.1 0-.7-.2-.5-.1-.3.3-.5.4-.8 0 .3-.1.5 0 .8.9-.1.4-1.3 1.3-1.8 0 1.1-1 2.3-1.8 2.8.4.1.5-.4.7.3-.1-.5.5-.8.7-1.2.3.4-.3.8-.3 1.1.9.1 1.8-1.3 1.9-2.2.3.4.4.1.4.5.3-.3.4-.6.3-.9-.3-.2-.6.4-.8.3-.2-.2-.1-.4-.3-.6.3.2.7 0 1.1 0 .1-.5-.2-1 .1-1.4-.5.9 1.4.3.5 1.1.5-.3 1.1-.5 1.8-.4-.6-.2-1.2-.4-1.9-.2-.4-.5-.2-.5-.6-.8.1.7-1 .5-1.6.2.3 0 .5.1.8 0 .1-1.7.7-1.9 1.8-3-.2-.1-.5-.1-.7-.1-.4-.5.6-.1.3-.4.3-.2.5 0 .7.3 1.4-.6.7-1.7-.2-1.8-.3.2.1.5-.3.7-1.3-.7-.4-2-.1-3.2-.3-.5-.8.2-1.1-.3-.1-.5.8-.6.9-.7.6-1.2-.6-2.5-2-1.4-.1-.8-.9-.4-1.1-1.3-.2 0-1.3-.3-.8.3-.6-.1-1.7-.7-2 .2-.5.2-.1-.5-.1-.6-.2-.2-1 .1-.9.3-.6.1-.2-.7-.4-1-.4.3-.2.6-.6.9-.2-.3-1-.4-.8 0-.2.1-.1-.2-.3-.4-1.8-.3-3.8-.3-5.3-1.4-.2-.2-.5-.1-.7.2 0-.6-1.3-1.1-1.4-.4-.3.2-.5-.5-.8-.7.2-.1.4.3.7-.2-.3-.2-.7.2-1-.2.1-.1.3-.2.4-.3-.3-.2-.7-.2-1-.2-.2-1.2-.9-.4-.3-1.4-.1-.1-.2 0-.4.1-.4-1.3 1.4-1.2 1.9-2.2-.1 0 2 .3 1.1 1.5zm16.1-7.5c.6-1.3 2-.9 2.7-.3-.4.2-1.9.1-2.7.3zm8 2.6c-1.4-.8-2.8-2.3-4.2-2.8.6-.6 3 1.5 4.2 2.8z"/><path class="st0" d="M176.5 102.9c.8-2.3.4-5.7-.4-9 4.5 9.6-.3 18.9-10.4 26.2-8.4 6-18.6 10.5-26.5 11 1.1-.3 3.3-.4 4.9-1.4-.6.3-1.7 0-1.9.5-.3.3-.2-.4 0-.5-.3-.2-.6.4-.9.3-.5-.8-2-.7-3-.5 0-.7-.6-1-1.4-.6-.3-.3-.2-.5.1-.7-1.8-.2-1.8-3-3.3-2.4-.6-1.1-.2-1.5-.5-2.6-.2.6 0 .7-.6 1.1 0-.7.2-1.5.6-2.2-.2-.2-.5.2-.7-.3.4-.4.7-.4 1-.6.3.7-.2.8.6 1.2 1.2.3 1.9-1.3 2.2-2-.2-.3-.5.1-.7-.3.5-.5.1-.7.9-.7-1-.1 0-1.5-.4-2.3.8-.3 1.5-.2 2.3-.6.6.7 1.2.8 1.8.4.4.4-1.6.2-1.6.9.7.2 1.3 0 2-.4.3-.3.3 0 .1.1-.9.5-1.8.7-2.7.7-.2.6 0 .9-.8.9.4.8-1.1 2.8-1 2.1-.2 1.5 1.2 1.9 2.1 3.6 1.1-.2 2.3 1.6 3.2-.3.9.8 2.9-1.2 1.6-1.7.4-.5-.1-.3.6-.9-.1-.4-.7-.8 0-1.3 1.5 1.6 3.2 1.7 5 1.3.2.2.1.3.2.5.4-.7.7 0 1.6-.4.1-1.9-.2-3.1.2-4.9 1.3 1.2 2.7 1.8 4 2.5 2.9-1.6-.5-3.5.5-5.8 1.6.8 2.9 2 4.3 1.8 1.3-1.3-.1-2.8-.2-4.2 1.5.1 2.9 2.1 4.1 2 .2-.4-.6 0-.8-.7.4-.6 1.2-1.4.5-1.7.8-.1.2-1.1 1.2-1.2-1 0 .3-.4-.2-.7.5-.2.3.5.5.6.1-.2-.2-1.3.3-.7-.2-.9-.1-1.8-.6-2.8 1.3-.1 2.6.1 3.9.2 1.2-1.9-.9-4-1.1-6 1.5-.4 1.8.4 2.9.2.5-.5.2-1.2 1-1.7.3.3-.2.6-.6.9.7.1.9.4 1.4 1 .6-1.9-.8-4.9-1.8-7.4.9.2 1.3-.6 2 .1.2.6-.2.1.2.7 1.3-.4.7-2.1.3-3 .2-.1.4.3.6.2.1-.6-2.8-2.2-1.9-3.4-1.1-1.1-2.4-2.5-3.8-4 3 2.1 5.5 5.3 7 8.4 0 0-.3 0-.3-.1.1.4.4.7.6 1 1.6 2.4 2.1 6.8 1.8 9.6zm-19.8 14.4c-.3-.3.8-.5.2-.8-.5.2-.7 1-.2.8z"/><path class="st0" d="M167 104.7c.4-.1.4.6.9.1.1.6-.2.2.5.6-.1.2-.2.5-.1.7-.7.1-1.3-.4-2-.1 0-.2-.1-.3 0-.5-.2-.1-.2.2-.1.3-.5.2-.1-.4-.2-.5.5-.2.3.3.7.3-.4-.5.6-.4.3-.9zm-24.8 13.4c-.4-.8 1-4.3 2.8-2.9 1.4-.8 2.8-1.1 4.2-1.7-1.1.4-2.6 1.9-4.2 2.4-.6.2-1.4-.3-1.9.1-.6.4-.5 1.7-.9 2.1zm-167.5 32.7c32.4-14.1 62.3-25.9 93-42.4-5.4-12 8.1-21.9 20.2-20.6-.8.4-5.5.6-3.4.8.4 1.1 3.9 1.7 5.6-.2-.5-.3-2.1 0-1.8-.8 9.9 1.2 10.2 5.9 12.4 13 2.9 9.3 7.4 26.6-4.7 30.8 1.4 2.8.1 4.7 1.5 7.1.3.5 1.5.6 2.1 1.3 1.3 1.5 1.8 3.4 2.2 4.1.9 1.7 2.6 3.3 2.9 4.7.6 3.5-.5 11-3.5 11.1-2.6.1-7.7-6.3-8.2-8.8-1-4.1.9-8 .3-11.1-.2-1.2-1.3-.6-1.6-1.6-.4-1 1.2-3.1-1-4.2-1.9.5-3.9-1.5-6.4-1.6-3.3-.1-5.8 2.6-9.1 3-5 4.8-11.5 7.5-17.4 10.9-12.1 7.1-23.3 13.6-36.1 20.4-2.4 1.2-5.9 2.8-9.5 4.5-3.4 1.6-6.9 4.9-9.2 4.9-8.8.4-18.3-6.4-26.8-6.5-3-1.9-1.6-7.2-3.9-8.5.7-3.5 1.6-6.9 2.4-10.3zm1.2 8.3c-.9 1 1 1.9-.1 2 0-.5-.7-2.1-1.3-1.1.7 1 2.5 3 1.9 3.7-1.1-.6-1.3-1.8-2.2-2.5-1.2 4.2 1.3 5.8 2.5 6.2.8-.8.9-1.2 1.2-1.7.3 1.4 1.3 3.9 2.8 3.5-3.3-2.6-2.3-9.2-4.8-10.1zm44.8-11.9c.6.6 1.9 2.5 2.7 1.9-1.1-1.5-2.4-2.8-2.8-4.7 1.8 1.6 3.3 2.4 4.8 3.2-.7-1-.7-2.4-.7-3.8 6.4-2.7 16-7.3 22.5-10.5.6-.3 3.9-2.1 4.2-2.6.2-.3-.5-5.3.7-6.2-.6-.1-1.4-.5-1.6 0 .9.7-1.2.7-1.5 1.2 1.1.4 1.5 1.2 1.4 2.3-.3 2.7-6.6 1.7-4.6-.7.7.4.8 1.2 2.1 1.3.2-.8 1.1-.2 1.1-1.3-.9 0-1.8-1.7-2.2-.9.4.2.5.6.6.9-.6-1-1.1-.1-2.3-.6-.8 1.8-2.6 1.8-3.8 2.7 0-.3.2-.7-.2-.9-2 1.4-4.6 1.9-6.5 3.6 1.4.5 3.3-.9 3.7-.3-5.3 2.3-11.5 3.2-16 6.9.3.3.8 2-.1 2-1.2-.3-.8-3.4-2.2-2.5.8.9 1.3 2 1.6 3.2-.9-1.1-1.6-.5-2-1.7-.7.5-2-.1-2.5.6-.5 1.8 1.9 1.9 1.5 3.6-1.1-1-2.1-3-2.6-1 .7-1.9-3.1-1.7-2.6-.6-.2-.2 1.1 2.6 1.9 3.7-1.3-.6-1.6-1.8-2.6-2.6-.2.6-.2 1.4-.7 1.4.1-.4.2-.8.3-1.1-1.2 0-.8.1-1.9-.5-1 .3.3 1-.7 1 0-.2.1-.5-.3-.5-.1 1.8 1.6 2.5 1.8 4-.9-.9-1.5-1.9-2.6-2.6 0 .7-2.4 1.2-1.2.1-1-.2-1.5.4-2.2.7.6.8 2.3 2.7 1.6 3.2-.7-.7-1.2-1.4-1.9-2.1-.2.5-.2 1.4-.7 1.4.1-.4.2-.7.3-1.1-1.2.1-1.4.2-1.8-.8-.9.5-.1 1.1-.1 2-.5-.2-.5-.8-.9-1-.5 1.5 2.1 2.8 1.1 3.5-.7-.6-.7-1.7-1.9-2.1-.4 2.3-.9-.3-2.4-.2-.3.6.3 1.1-.3 1.1.1-.4-.6-.6-.8-.2.6.8 2.3 2.7 1.6 3.2-1.1-1-2.1-3-2.6-1 0-1-1.6-1.1-2.2-.9.2.1.4.4-.1.4-.4-.1-.4-.7-.8-.2.6 1.1 2.2 3.1 1.9 3.7-.9-.8-1.4-1.7-2.2-2.5-.2.5-.2 1.4-.7 1.4.4-1.3-1.3-.2-1.6-1.6-.6.9 1.3 1.7-.1 2 .5-.9-.6-.9-.9-1.4-.1 1.8 1.6 2.5 1.8 4-1-.8-1.7-1.8-2.6-2.6-.7.7.6 1.7-.4 1.5-.1-1.6-1.3-.9-2.1-1.3.4.5.5 1.2.8 1.8-.5-.2-1.2-2-1.7-1.2.7 1 2.5 3 1.9 3.7-.8-.8-1.4-1.7-2.2-2.5-.2.5-.2 1.4-.7 1.4.1-1.1-1-.5-1.6-1.6-.7.8 1.2 1.6 0 1.6.1-.5-1.1-1.8-1.3-1.1.9.9 2.2 3.3 1.8 4-.7-.9-1.2-1.8-2.2-2.5-.3.6.3 1.1-.3 1.1-.1-1.6-1.1-.7-2.2-.9.5.2.2.9.5 1.3-.5-.2-.5-.8-.9-1-.3 1.8 1.7 2.2 1.4 3.9-.9-1-1.4-2.1-2.5-3-.8 3.2 1.4 6 2 6.5 1.7 0 1.2-.5 2-1.5.2 1.7 1.6 2.7 2.7 3.8-.1-2.7-3-3.8-2.8-6.7.6 1.6 2.3 1.8 2.9 2.7 1.3-.2.2-1 1.1-1.3.4 1.2 1.9 3.3 2.8 3.1-.8-2.5-4.3-5.1-2.9-7.9-.6 2.8 2.3 5.4 4 3.4.7 1.1 2.3 3.3 3.2 3.2-.7-2.4-3.3-3.8-3.6-6.5.9 1 1.7 2 2.9 2.7.6-1 .9-1.3 1.2-1.7.4 1.3 1.8 3.6 3.2 3.2-1-1.6-3.2-4.2-3-5.5.4 1.4 2.7 1.1 1.5 2 1.4.7 1.6-.6 2.5-.6.6.9 1.8 2.9 3 2.3-1-1.9-3.1-3.2-3.4-5.6 1.4 1.3 2.4 2.8 4.7 1.9.7.8 1.9 2.9 3 2.3-1.7-1.8-3-4-4.1-6.2 1.5 2 2.5 1.2 3.3 2.8.9-.5-.2-1.3 1.1-1.3.7 1 2.4 3 3.3 2.8-1.4-2.2-3.3-4-4-6.6.7 1.2 1.9 2 3.3 2.8.3-.4.6-.7 1-.9.9.8 2 3 3.4 2.4-1.1-1.5-3.5-3.9-3.1-5.2.9 1.3 1.9.7 2.6 2.2.2-.7.6-1.2 1.1-1.3.5 1.1 2.5 2.9 3.3 2.8-1-1.7-3.5-4.3-3.4-5.6 1.1.8 1.8 2.3 2.2.9.1 1.7 1.2.3 2.3.5.5.8 1.9 2.7 2.6 2.2-1.1-1.9-2.7-3.5-3.4-5.6 2 1.5 3.4 2.3 5 1.4zM80 107c-.8 1.3-.8.6-2.2.7-.8 5.1.5 8.9 2.1 12.5 4.1.3 5.2-4.4 8.9-2.2 3-.7 5.4-2.4 8.4-3.2 2.9-10.9-8.9-15.8-6.9-24-2.1-.7-3.8-.6-5.2-.1 1 1.5 3.3 3.7 1.8 5.6.7.2 1.2.5 1.3 1.1-.2 1.9-.8 6.8.4 8.1.4 3.2-2.8 4.6-3 7.3-.4-.2-.1-.5.2-.8-2.3-.1-3-3.5-5.8-5zm-7.6 8.1c-3.1-.7-5 2.1-7 4.3-1.1-1-2.8 1.7-2.7-.3-2.3 2-4.2 1.7-6.4 3.2.7 1.8 1.3 3.7 2.3 5.3.3-1.4.6-2.9 2.1-2.3-.2.4-.5 2.3.1 1.2 5-2.5 9.4-5.4 14.4-6.5-.4-1.5-.2-6.1-2-6.5 1.1 1-1.9.4-.8 1.6zm-19.7 15.5c1.1-1.6 1.8-1.2 3.2-1.6 2.3-5.3-4.7-3.9-3.2 1.6zM118 24.7c1.4 1.1.9 3.4 1 4.1-1.1.4-1.2-.6-2.4.1-.3-1.1-.5-2.1-.7-3.2.6.5 2.3.2 2.1-1zm-10 2.8c1.4.3.5 2.4.7 3.2-.7.1-1.3.2-1.3.8-1.2-.2-1.8-1.2-2.1-2.9.8-.4 2.9-.1 2.7-1.1zm17.9-4.1c1 .7 1.1-.6 2.8-.6.3 1.2.6 2.4.8 3.7-.9.2-1.8.4-2.8.6-.2-1.3-.5-2.5-.8-3.7zm-12.3 3.3c.6 1.3-.5 1.5.2 2.9-1.1-.7-.8.5-2.3.5-1.5-1.6-.7-3.3 2.1-3.4zM41.7 52c.3-.6.3-1.4-.1-2.4.7.4 1 .2.8-.7 1.6-.7 2.3.1 3.8-.4.1 2.2-2.2 2.8-4.5 3.5zm8.7.4c-1.3-.5-.9-3.2-.9-4.1 1.6.6.2 2.6.9 4.1z"/><path class="st0" d="M212.6 32.9c-4-.4-10 2.6-14 2.2-.7 1 1 1.6-.7 1.1-.9 0 .1-.5.3-1-13.4 2.8-34 7.3-48.8 8.3 2.4-.5 4.5-1.1 5.7-2.3-1.5.3-2.9.4-3.9-.1 8.7-3.1 16.2-4.7 26.7-8.1-13.4 1-28.7 4.8-42 6.3-3.6.4-7.6 1.5-10.8 1.5-.8 0 0-.9-.7-.8-17.7 2.9-39.5 7.9-53.7 14.3-9.1 4-15.5 5.7-18.1 11.4 2.4-1.1 3.9-.2 5.2 1.7-5.6 2.1-15.8 11.3-21 5.3-.7-.9-1.7-4.2-3-6.6-2.2-4.3-3.9-7.3-2.4-10.5.9 0 3.2 1 3.8-.4-1.7.2-2-.8-2.3-1.4-1 .9-.1 1-.6 1.6-.9-2 2.1-2.6 2-3.8-3.3-7.5-8.5-15.3-10.5-22.7 6.1 6.3 9.4 19.1 15.9 22.9.3 1.9-4.3 2.3-2.5 3.9 2.7 2 2.6-4.2 6.7-2.5 1.2-.7.6-2.5 2.2-2.9 4.7 5.9 15.1-3.5 19.8-4.1 1-.8-1.1-3.6 0-4.3.7.4 1.8-.9 2.7-1.1.3 1.4.6 2.8.9 4.1 3.2-.6-.1-3.5.8-5 1.9-2.4 3.2.9 4.9 2.3 1.3-.7-1.3-3.7 0-4.3 1.5 0 1.6-.9 2.6-1.1.6 1.3 1.1 4.8 2.2 3.4 1.2-1-1.6-4.4.3-4.9.7 1.3 1-.9 2.3-.5.9 1 .6 4 2.3 3.8 1.7-1.5-1-4.3-.1-4.8 1.1 1 1.8-.2 2.6-1.1 1.3.9.5 5.5 3 4.6 1.2-.8-1.4-4-.1-4.8 1.5 0 1.2-1.1 2.6-1.1.5 1.6.5 4.2 1.6 4.9 2.7-1.2-.2-4.1 1.1-5.6 1.3 1.1.9-.2 2.3-.5 1.6 2.8-.3 3.5-1.9 4.3 2.4-1.3 2.8.6 4.4.4.4-.9 1.9-3 3.5-1.8-5.7 1.6 6.4.3 4.9-1.6.7 2.1 15.4-2.2 7.2-2.2 1.8 1.1 12-.5 5.6-.8 2.7-1 6.9 1.9 5.7-.4 25.1-3.9 54.8-10.9 80.2-16.5.6 2.4 1.1 4.9 1.7 7.3-11.4 1.1-29.1 6.2-37.7 6.3-10.3 3.1-25 4.9-37.9 7.3-.6.3-.1 1.2 0 1.9-1-.1-.7-2.3-2.3-1.4-.4.4 0 2.3.5 4.2 11.8-1.4 32.7-5.5 46.5-7.8-2-1.6-5-1.7-7.4-2.7 3.1-1 5.7 2.4 9.3 2.7 4.7.3 9.9-2.7 14.8-2.9 0 .4-.4.6-.2 1 6.4-.7 9.2-2.6 15.7-3.1.8 3 1.5 5.7 2.1 8.5zM93.3 45.4c-.4-1.8-1.2-3.1-2.3-3.8.5 1.6.7 3.9 2.3 3.8zm4.6-1.1c.2-1.5-.1-3.1-1.9-3.9.5 1.5.3 4.1 1.9 3.9zm5-1.1c-.1-.9-.1-3.9-1.9-3.9.6 1.4.4 4.1 1.9 3.9zM108 42c-.5-1.4-.3-4.1-1.9-3.9.1 1-.3 3.8 1.9 3.9zm4-1.4c2.1.1.5-3.8-.8-3.7.2 1.3.5 2.5.8 3.7zm5.7-.3c-.1-.6.7-.6.7-1.1-.7.2-.5-2.8-1.8-3.5-.5 1.6-.8 3.3 1.1 4.6zM88.3 47c-.4-1.7-.6-3.7-1.9-3.9-.3.9.6 3.7 1.9 3.9zm34.4-7.9c1.2-.9.3-1.6.1-3.9-.6.1-.8-.4-1.5-.1-.3.6-.3 4.6 1.4 4zm4.7-.6c0-.6.5-.4.9-.2.8-1.6-1-2.9-.5-4.2-.6.1-1.2.3-1.8.4.6 1.2.3 3.8 1.4 4zm-44 10.1c.7-1.1-.5-2.4-1.5-2.5.3 1.2.7 2.1 1.5 2.5zm-9.3 3.6c.6-.6-1.4-4.4-2.1-2.9 1.1.3.7 3.1 2.1 2.9zm-19.7 4.6c2 .8-1.5 1.4-.3 3 3.6-.3 9.4-2.9 14.3-5.2-1.4-.3-1.1-3.3-2.7-3.3-2.8 2.4-8.1 3.3-11.3 5.5zM182.9 32c-1.3.6-4.1.3-4.5 1.5 1.4-.6 4.1-.3 4.5-1.5z"/><path class="st0" d="M123.6 23.9c.2 1.3.9 2.9.4 3.8-.9.9-2-.8-1.8.4-1.1 0-.7-2.2-1.2-3.1 1.4 0 1.1-1.1 2.6-1.1zm-23.4 5.4c1.3.5 2.3.9 2.7-.6 1.5.5.3 2.5.8 3.7-.9.2-1.8.4-2.8.6-.1-1.2-.4-2.5-.7-3.7z"/><path d="M442.8 181.1c.4-1 1.9-1.4 2.3-2.5 1.5-3.7 1.7-10.3 1.3-14.8-1.2-14.1-5.3-26.2-6-38.6-2.9 1.4-2.4-3.3-1.3-2.6-3.6-4.9-1.8-10-2.5-13.1-1.3-6-4.8-10.2-2.1-13.9 3.2-.1 4.1.2 7.4-1.5-.6-2.3-1.9-3.2-2.3-6-2.5-1-4.1 1.5-7.3-.3-3.4 5.4-10.9 1.7-14.3 7-.8-2.1-8.1 3.6-9.9 1 .3 4.1-2.1 3.8.1 9 6-2.6 5.6-1.2 13.4-3.8-.3 2.2 2-.2 2.1 1.2 2.7 9.7 5 22.8 11 34.8-.6.2-.8-.3-1.3-.2 2.2 4.6 2.2 8.5 2.4 10.8.6 6.8 5.7 13.1 2 19.9.9 4.4.3 12.9-5.1 14.1 1.2 4.1-6.9 3-8.7 5.4-3.9-3.3-6.1-3.8-8.6-9-.7.1-1.6.5-1.8-.1-3.4-7.2-3.5-8.5-6.5-14.4-.8 1.6-4.6 1.5-6.5 2.4-1.3 10.9 10.3 20.6 17.9 27.4 3.2-.7 6.2 1.5 9.3 1 2.4-.4 9.8-4.6 12.4-7.1 2.1-1.9 2.1-4.7 2.6-6.1zm48.7-11.7c2.7 3 2.8 10.6 7.2 10.6 1.3-4.2 2.5-8.3-.5-12.5 1.7-8.4-4.8-20.2-5.8-29.1-2.8-1.7-5-1.6-7.3-.4 1.1 2.9-1.1 2.2.7 4.6-1.9-.1-1.1 1.3-1.9 1.7-5.7-.3-7.9-2-16.7.5.9 2.5-.5 1.2-2.3 2.5.6 3.7-3.7 5.4-1.2 8.7-2.7-.6.9 8.1-1.5 7.6 1.2 7.7 6.6 9.9 8.1 14 4.2 11.2 18.9-5.1 21.2-8.2zm-22.2-16.7c-2.2-3.3 3-2.4 1.5-5.2.8-.1 1.7 2 1.1-.3 2.1.2 5.4.1 9.3 1-.1 3.4 6.6 9.6 4.5 13.8.2.5.8.2 1.3.2-.4 4.4 1.8 8.8-4.2 10.8-.6.3-.2 1.2-.1 1.8-2.7-.5-5.8 1.1-8.4 0-7.6-3.3-10.8-16.4-5-22.1zm19.2-43.6c5.2 1.7 13.7-6.1 17.7-1.3-.2 3.3.5 5.9-3.1 8.1.7 4-.3 7-2.8 9.2 1.1 6.6-2.4 11 2.5 17.4 5.5.4 15.1-5.6 25.1-7-2.5-1.7 1.5-1.6 1.1-.3.7-2.5-1.5-4.1-.9-7.6-6.4 2.3-16.5 2.9-22.1 6.8-3.8-4.1.2-9.6 1.3-14.8 1.5-.4.9-1.2 2.2-.6 1-6.9 5.1-12.2 6.8-18.7-.6-1.6-2.3-1.5-2.4-4.1-6.5 4.5-24.1 4-27.3 7.7.8 1.1 1.4 3.1 1.9 5.2zm61.4 12.5c-.1 2.4-1.5 4.1-3.2 5.7 2.4-.2-.1 5.2-1.1 4.5-1.1 5.3-1.3 12.2-3.5 15.4 2 2.6-.4 10.1 5.4 10.5 0-.5-.3-1.1.2-1.3 5.4 1.7 13.4-5.9 18-4.5.4-2.3 2.8.6 2.9-2.6 4 .2 4.4-2 8.2-2.9-2-1.4.6-1.9.5-2.5-1.1-6.8-6.6-.4-11.4-2.2.4.9-.2 1.6-.6.2-1.8.8-.4 2-2.2.6-2.6 2.8-6 3.2-13.5 5.6-.7-4.2-.4-4.9-2.1-9.6 2.4-.5 1-4.8 3.1-3.9-.1-7.2 5.8-8.3 7.3-14.7 1.9-.2.2-2.2 2.1-1.2.3-2.8 1.4-5.2 2-7.8-1.1-.2-2-1.5-1.3-2.6-7.9-.1-16.5 4.4-27.5 4.7 1 1.7-.4 2-1.1 2.7 1.2 2.1 1.6 3.3.9 5.2 3.5 3.2 12.9-6.2 16.9.7z" fill="#ee7f00"/><path class="st0" d="M492.1 275.5c5.1.2 9.9-2.6 9.8-8.7-4.4-3.8-11.9 0-13.6 4.2 1.3.4 2.8-.7 3.1 0-.7 1.5-.3 3.7.7 4.5zm3.5-6.6c1.1 0 1.7.4 2.4.7-.1 1.7-1.2 2.3-2.8 2.4-.1-1.3.1-2.3.4-3.1zm-88.2 38.3c-3.9 1.6-9 3-10.8 7.3h1c.1-.9 1-1 1-2.1 16.3-7.3 34.5-11.6 52.3-17.4 13.3-4.4 26.9-8.1 41.1-11.2 4.6-1 10.9-.5 13.2-4.2-10.2-.8-20 2.8-29.6 5.2-19.3 4.8-37 11.6-55.1 17.4-4.2 1.5-8.8 3.2-13.1 5zm16.4 31.4c0 1.9 1.2 3.4 2.1 5.9 3.2.7 6.8-2.7 8.4-5.2 7.1-11.3-10.4-10.4-10.5-.7zm4.9 2.1c-.4-2.4-.5-8 3.8-5.2-.2 2.8-1.9 4.1-3.8 5.2zM253 176.5c3.2.1 2.6-3.7 2.8-6.6-.4 0-.5-.4-1-.3-1.7 1.2-1.1 4.7-1.8 6.9zm9.1-63.1c2.1-.3 4.9.5 5.9 0-1-.9-5.2-2-5.9 0zm177.4 167.7c-3.7-2.5-7.3 1.1-10.5 1-5.2 2.2-6.9 12.1-.3 12.5 5.4.4 12.2-7.6 10.8-13.5zm-3.2 3.4c-.7 3.4-3.7 7.3-7.3 5.6.4-3.5 2.9-7.6 7.3-5.6zM258.6 187c3.9.3 5.4-1.8 6.6-4.2-2.6-.2-5.4 2-6.6 4.2zm17.7 77.7c4.4-.4 9.8-3.9 8.4-8.7-2.1-7.2-14 3.3-8.4 8.7zm14.3-22.3c4.7 2 10.5-2.1 9.1-7-1.9-6.5-13.6-.2-9.1 7zm184.1 32.7c-5.9-7.1-19.5 4.6-11.5 11.5 6.7-.9 11-4.3 11.5-11.5zm-3.5 3.2c-1.1 2.3-2.3 4.4-5.6 4.5-.7-4.4 3-8.5 5.6-4.5zm-231.8 10.4c-5.3 1.4-5.5 12.2 1 11.9 5.8-.3 6.2-13.8-1-11.9zm316.8.7c.5-4.1 2.6-6 3.5-9.4-2-3-7.1-3.7-9.8-7.3-1.6-2.2-2.6-5.2-4.5-7.7s-4.6-4.6-5.2-7c-.5-1.7 0-3.7-.4-5.9-.9-5.2-4.7-9.3-2.8-14.3-4.9 1.7-6.8 1.4-12.2.7-4.2-.5-9.4-2.7-12.2-2.1-3.7.8-4.2 7.3-5.9 10.5-2.6 4.7-8.5 5.8-12.9 8.7 2.2-1.8 4.5-8.7 1.4-10.5-2.6-1.5-8.5 1.9-11.2 3.5-4 2.4-7.2 4.7-7.7 7.7 1.9 1.7 4.2 3 4.9 5.9-7.5 3.6-18.3 5.8-27.2 7v-2.8c4.6-.4 12.1-1.8 11.2-6.6-.5-2.3-5.7-4.5-9.8-3.8-6.2 1-17.2 9.2-11.9 14.3-5-.6-10.7 1.1-16.4.7-3.9-.3-8.3-2.1-12.5-2.4-3.8-.3-7.8 1-10.5.4-1.7-.4-3-2.5-4.9-2.1-2.7.7-1.9 5.1-2.1 7.3-.4 4-1.5 8.7-2.1 11.9-2.1-17.1-13-25.6-21.3-36.6 34.8-15.5 19.2-79 12.9-111.5-3.5-8.6-2.1-18.8-3.5-28.2-.9-5.9-4.4-12.2-6.6-18.1-5.9-15.5-12.3-28.9-20.9-40.8-1.6-2.2-4.5-4-4.9-7 15.2 15.4 23.5 37.6 31.7 60-.9-7-1.9-13.9-2.1-21.6-1.6-3.6-2.1-7.3-3.1-11.5-1.3-5.1-2.1-7.1-3.8-11.9-2.7-7.3-4.9-10.4-9.4-15.7-6-7.1-13.1-16.8-27.5-11.9-1.9.7-3.3 2.7-4.9 3.1 1.7-5.1 10.2-5.7 16-4.5.6.1.9-.4 0-.3-4.3-2.4-18.3-2-23 0-3.9-4.8-9-10.3-17.1-9.8 2.3 1.5 5.2 2.5 6.3 5.2-3.9-1.6-5.6-4.9-9.8-5.6-5.7-1-10.8.8-14.6 1.7-2 .5-4.3.5-6.3 1-6.1 1.6-10.3 4.3-14.6 6.3-2.3 1-4.6 1.5-6.6 2.4-3.8 1.8-6.4 5.3-9.8 8-13 10.6-25.2 22.2-28.2 40.8-.3 1.8 1.7 1.3 1.4 3.1-3 10.3-5.4 20.3-6.6 31.7-.2 1.6-1.1 3-1.4 4.5-.9 5.2-.9 11.1-2.1 16.7-1.5 7.1-4.8 13.6-5.2 20.2-1 15.3-.2 33.2 3.5 45 .2-7.5 0-13.8.3-20.9 1-23.1 2.1-43.3 7.7-61.7 3.5-11.8 7.8-23.2 12.2-33.5 1.6-3.7 2.4-8 5.2-10.1-5.9 14-11.7 28.7-16.4 45-5.3 18.7-6.3 38.1-7.3 60.3-.4 8.8-1.9 18.5-.3 26.5.6 3.1 2.6 5.7 3.5 8.7.5 1.5.5 2.9 1 4.5.5 1.5 1.4 3.3 1.4 5.2 2.1 2 3.1 5.8 4.5 8.4 1 1.8 3 2.8 2.8 4.9-.5 3.9-6.1 5.6-7.3 10.1-13.8 5.7-27.9 10.3-40.1 16.7-4.1 2.2-7.4 5.2-11.5 7.7-2 1.2-4.2 1.8-6.3 3.1-1.9 1.2-3.3 3.1-5.2 4.2-7.4 4-15.1 4.9-21.3 9.8-2.9 2.3-5.4 4.8-8.4 7-15.1 11.5-24.9 26.1-32.1 46-3.5-.2-6.8 1.8-9.8 3.1-3.3 1.5-6.2 2.8-9.1 4.9-15.9 11.9-27.9 28-38 45.3-10.2 17.4-13.6 41.9-19.2 63.8-.7 2.8-1.5 5.6-2.3 8.3h3.6c1-3.8 1.9-7.5 2.9-11.8.5-2.5 2-4.9 2.4-7.3.4-2.3 0-4.6.3-7 1-6 2.5-12.5 4.5-18.5s3.1-12.4 5.2-17.8c1.5-3.8 4.7-8.1 7-12.2 6.5-11.6 16.3-23.9 24.7-32.4 6.5-6.5 14.1-10.8 23.4-14.6-1.2 5.3-3 11.1-4.9 17.1-1.9 6.2-2.7 12.6-3.8 18.8-.4 2.5-2 5.3 0 8-1.1 1.6-3 3.3-4.2 5.2-1.1 1.9-1.6 4.5-2.8 7.3-2.3 5.3-5.5 9.1-4.9 18.1.2 3.4.4 7.4 2.4 10.5 6.5 1 5.3-6.2 6.3-11.5.9-5 3-10.5 5.6-12.9.9 6.7 7.5 14.4 12.5 16.7 2.4 1.1 5.6 1.6 8.7 1 3.2 1.9 5.6 4.7 9.1 6.3-1.1 1.2-3.2 1.5-4.9 2.1 2.3 2.2 6.4.8 8.7-.7 3.1 1.3 4.8 4.1 8.4 4.9-2.2 1.1 2.6.8.3 2.1 1.6 0 4.9-1.9 7-.7 4.7-5.4 11.4-7.5 18.8-11.2 12.3-6 25.5-11.9 37.6-18.8 8.2-4.6 16.8-8.4 24.7-12.9 4.1-2.3 8.1-4.8 12.2-6.6 4.4-2 9-3 13.6-4.9 4.2-1.7 7.9-4.5 12.2-6.6 28.8-14.5 60.6-27.5 90.3-40.8 3.5-1.5 6.8-3.5 10.1-5.2 3.5-1.8 7.3-2.9 10.8-4.5 1.3-.6 2.4-1.9 3.8-2.4 5.1-2.2 12.1-3 18.5-4.5 5.9-1.5 11.8-3.6 17.4-5.2 9.3-2.6 19.3-3.9 27.9-6.6 3.2-1 6.4-1.2 9.4-1.7 5.2-1 10.4-3.6 16-5.2 5.5-1.6 11.4-2.5 17.1-3.8 8.4-2 15.7-4.7 25.1-6.6 2.2-.4 6.1-.9 6.3-4.2-10.8 1-21 5.2-31.7 7.7-5.4 1.2-10.8 2.3-16 3.8-5.2 1.5-10.1 3.9-15 4.9-2.7.5-5.5.3-8 1-5.9 1.7-13.4 4.2-20.6 5.6-9.7 1.9-18.6 4.9-27.9 7-9.6 2.2-17.8 5.2-26.5 8.7-8 3.3-15.7 7.6-23.7 11.2-16.1 7.2-32.5 14.3-48.5 21.6-11.9 5.4-23.6 11.1-35.6 17.1-3.9 2-7.6 4.3-11.5 5.9-5 2-10 3.1-14.6 5.2-4.2 2-8.3 4.6-12.5 7-25.2 13.7-51.7 26.5-78.4 39-.5-1.5-.7-3.2-1-4.9 17-9.9 36.2-16.1 53.7-25.8 17.4-9.7 36.3-16.3 54.4-24.7 9-4.2 17.8-9 26.8-12.9 22.9-9.9 46.2-19.6 67.6-31.4 4.2-2.3 8-5 12.2-7.3 2.5-1.4 6.3-1.2 7.3-4.9-5.6-.4-9.6 3.8-13.9 6.3-12.9 7.6-27.4 13.5-41.5 20.2-9.3 4.4-19.1 8.6-28.6 12.9-9.4 4.3-18.6 8.9-27.9 13.2-18.7 8.7-38.6 15.7-56.8 25.8-15.4 8.6-33 15.2-49.5 23-1.5.7-4.4 3.7-5.9.7-.6-1.8 3.5-1.7 4.9-2.8 1.4-.6.2-1.8 1.4-2.4 4.2-1 8.3-4.7 13.6-5.9 4.7-1.1 10.9-.1 11.9-5.9 15.6-5.7 30.3-13.4 46-19.2 7.9-2.9 15.3-6.5 22.7-10.1 7.3-3.6 14.5-8 22-10.5 1.1-.4 2.2-.6 3.5-.4 8-4.7 16.6-8.8 25.1-12.9 8.4-4.1 16.8-8.2 25.1-12.5 4.4-2.3 9.2-3.4 13.6-5.6 12.1-5.9 24.9-12.6 37-19.5 2.9 6.5 11.7 6.1 17.8 2.4 8-4.8 18.4-16.8 20.9-27.5 1.3-5.7.8-12.4 2.1-18.1 8.8-1.4 16.6 1.9 23.7 2.4 3.2.3 6.3-.5 9.4-.7 5.8-.4 11.8.5 17.4-.3 11.4-1.7 21.6-4.9 30.3-8.4 1.6.3.7 3.3 2.1 3.8 2.6-.5 3.2-2.8 3.1-5.9 9.6-6.5 22.5-9.8 25.8-22.7 6.2.7 14.8 3.2 19.5 2.1-.5 4.3 2.4 7.6 3.1 11.5.4 2.3-.1 4.7.7 7 .9 2.6 4.2 4.9 6.6 8.4 2.3 3.3 2.9 6.4 5.6 8.7 2.1 1.8 5.2 2.4 6.6 4.5-3.3 6.1-3.1 14.5-1.4 22-10.1 10.1-19.3 21.1-23 37.6-5.7 2.7-11.2 5.6-16.4 8.7-1.3 0-.7-1.8-1.4-2.4-2.1.5-2.1 3-3.1 4.5-6-7.2-17.5-9.4-30.3-10.1-18.9-1.1-38.6 4.3-52.6 12.5-7.9 4.6-15 10.3-20.2 16.7-9-11.2-20.3-31.7-39-26.5 5.4-2.6 11-5 15-9.1 27.3-4 56-6.5 80.9-12.9.9.8-1.7 1.5-2.4 2.8-.9 1.5-1.2 3.1-1 5.2.4 1.9 2 .3 3.1.7 1.3.5 1 1.5 2.8 1.4 4.3-.4 6.7-7.8 5.9-11.5 7.4-1.5 16.6-3.5 25.1-4.5 2.4-.3 6.5.5 7-2.8-10.1-.8-20.3 1.5-30.3 3.5-18.9 3.8-38.5 8.2-59.6 10.8-10.2 1.2-21.2 1.4-30.7 4.2-3.9 1.1-6.5 5.3-10.1 7.7-7.4 4.8-17.4 7.6-26.1 11.5-9.1 4.1-17.5 8.6-25.4 12.2-1.9-1.1-3.6-2.4-5.9-3.1 12.7-4.8 26-12.4 38.7-17.8 4.5-1.9 9.1-3.1 13.9-4.9 4.1-1.5 7.9-4.2 12.2-5.6 11.7-3.7 25.2-5.5 38-7 12.9-1.5 25.9-3.1 39-5.6 17.8-3.4 37.7-6.5 56.5-10.5 6.6-1.4 13.9-3.5 19.2-3.1 3.3.2 6.6 2.6 7.3-2.4-5.7-2.3-11.9-.2-17.4.7-16.8 2.8-33.9 6.2-50.9 9.4-22.7 4.3-45.9 7.6-69.7 10.8 30.8-10.9 64.8-20.1 99.3-28.2 4.3-1 9.9-1.7 12.5-5.6-4.7-.6-9.1 1.7-13.6 2.8-23.2 5.6-47.5 11.6-70.1 18.8-10.7 3.5-22.2 6.3-29.6 12.5-6.3.9-12.1 1.9-17.8 3.5-5.5 1.5-9.8 4.6-14.6 6.3-10.1 3.5-19.6 6.8-28.6 11.5-8.9 4.6-18 8-26.8 12.9-4.6-2.1-11.4-1-11.2 4.9-9.1 3.7-17.9 7.9-26.5 12.9-8.5 4.9-17.7 8.5-26.5 12.9-34.8 17.5-70.6 34.2-106.7 50.5-17.9 8.1-36 15.5-52.3 25.4-.1-2.9 0-5.6.3-8 12.1-2.8 19.2-10.5 29.6-15-5.7-2.6-11.9 3.6-16.4 6.3-4.6 2.8-8.3 5.1-13.2 6.3-.1-4.5.9-8 1.7-11.5 3.4-1.8 6.8-3.6 10.5-5.2-3.4-3.3-7.7 1.1-10.8 2.4-.9-1.6-.5-4.6-2.1-5.6-4.9.4-2.3 4.6-2.1 7.3.6 6.9-1.3 15.4-1.7 24v.3h8.1c32.2-18.5 67.9-31.3 101.7-48.4 17.4-8.8 35.5-16.8 53-25.4 8.7-4.3 18.1-7.7 26.5-12.9 4.1-2.5 8.3-4.9 12.6-7 4.9-2.3 10.2-3.9 14.6-6.6 1.7 5.6 4.8 9.8 9.4 12.5-16.4 6.3-30.1 15.2-46 22-1.7-.5-.2-4.2-1.7-4.9-4.4-.3-4 3.6-3.1 7-5.4 2.9-11.2 6-17.4 8.7-6.1 2.7-11.8 6.7-17.4 8.4-1.1.3-1.9.7-3.1 0-5 4.8-13.3 7.5-20.6 11.2-5.4 2.7-11 5-16.4 7.7-5.4 2.7-10.5 5.8-16 8-14.4 5.8-28.5 12.9-42.2 19.8h5.7c.4-.2.9-.4 1.3-.7 5.6-2.8 11.6-4.9 17.1-7.7 5.5-2.8 10.5-5 17.1-7.7 5.7-2.3 10.9-5.8 16.4-8.4 11.4-5.4 22.7-10.6 33.8-15.7.1-.4.7-.2.7-.7.4.1.3.6.3 1-5.7 2.4-11.1 5.7-16.7 8.4-5.6 2.6-10.5 6.3-16 8.7-11.5 5.1-22.2 11.7-33.8 16-4.8 1.8-9.3 4.1-13.7 6.6h5.2c2.2-1.1 4.4-2.2 6.8-3.1 17.6-6.9 32.8-15.5 48.8-23.7 2.7-1.4 5.7-2.5 8.4-3.8 2.6-1.3 4.8-3.5 7.3-4.5s5.2-.4 6.6-2.4c-.4 5.2.4 12.6.7 18.1.4 6.3.1 12.9-.6 19.5h3.7c.7-7.1 1-14.3.7-21.6-.3-6.6-.5-14.8-.3-22.3 7.3-4.1 15.7-7.1 23-11.2 1.4-.4.1 2.3 1.4 1 1.6-.7 3.4-1.3 3.5-3.5 1.9-1.1 4-2 5.9-3.1.3-.1.3.1.3.3 3.2 19.5 1.4 40.5-.9 60.3h3.9c3.2-19.9 3.8-41.9 1.6-62.7 16.7-7.4 31.7-16.4 48.8-23.4 8.8 6.6 20.5 10.4 32.4 13.9 1.3 6.3 5.6 20.1-1.4 22.7-4.9 1.8-7.9-1.1-11.2-2.4-1.4-.6-2.8-.5-3.8-1-1.4-.8-3-2.9-4.9-4.5-5-4.4-11.9-10.8-11.8-17.8 10.9.1 15 13 23 15.3 2.6.8 6.7 1.3 6.3-3.5-1.8-.7-3.3-.3-5.2-1-6.8-2.6-12.7-14.5-20.6-15.3-5-.5-6 3-6.6 7.3-.9-3-2.6-5.4-6.3-4.9-6 .8-4 8.7-2.8 13.2 2 7.2 7.2 13.9 9.8 17.1-13.3 1.9-15.3-9.4-17.4-17.4 1.6-.9 5.3.2 5.9-1.7.8-2.3-2.8-3.3-5.9-2.8-7 4.4.1 20.5 4.9 24.4 4.4 3.6 14.2 2.3 19.5 0 4.4 3.7 12.4 1.3 15.7-2.1 1.9 1.5 4.3 2.5 8 2.1 3.6 2.5 7.6 4.2 12.5 4.5-11.6 11.8-24.2 22.7-33.1 37.3-.9-.1-2-1.5-2.1.3-.4.8-.6 1.6-.6 2.4h4.1v-.3c4.7-8 10.6-14.2 17.1-20.6 2.7-2.7 5.1-6.5 8.7-10.1 2-2 8-8.2 10.5-8.7 1.2-.2 2.9.4 4.2.3 16.3-.8 29.9-7 38.7-15 9.3-8.4 14.1-21.8 12.2-39 1.2.6 2.4.1 3.5-.3 7-8.6 17.4-15.6 27.5-19.9-.6 4-.6 8.7-1 12.9-9.1 2.6-3.4 16.2 3.5 16.4 8.1.2 14.7-14.8 5.6-18.8.3-5.1-.6-8.9-.7-13.6 6.8-.3 15-1 21.6-.3 0 5.2-1.2 10.7-.3 15.7-1.6 2.3-4.2 3.7-3.8 8 4.1 4.7 17.6 2.9 17.1-3.8-.3-3.6-3.5-3.6-5.2-6.3.7-4.1.9-8.6 1.7-12.5 7.6 3 15.6 5.6 22.7 9.1 1.6 0 3.3-1.8 4.2-1.4.7 5.5-6.2 11.1-2.4 17.4 4.6.5 14.3-.3 16-4.5 2.1-5.1-2.3-9-7.7-8.4.3-3.4.1-6.3-2.4-7 2.2-3.1 7.6-2.8 9.1-6.6-.2-.6-1.7 0-1.7-.7 3.9-1.8 7-4.2 11.5-4.5 1.6-1.8.9-4.2 1.4-6.3 2.7-12.5 12.8-23.6 20.2-31.4.6 1 1 2.3 2.4 1.4 2.7-1.7.9-5.5.3-8.7-1-3.3-1.8-7.3-1.4-11zM360.4 78.6c.4-.1.6.1.7.3 13.5 27.5 17.5 68.4 17.8 109.4.1 10.2-.8 21.1-2.1 31-1.2 9.6-2.1 19.3-7 25.8 8.6-23.6 8.7-56.4 7-86.8-1.7-29.7-6.8-58.1-16.4-78.8-.7-.2-.1-.5 0-.9zm-8.8-11.9c.6-.1.6.3 1 .3 14.8 31.5 18 82.3 13.9 129-1 11-2.4 21.9-4.9 31.7-.7 2.9-1.5 6.2-3.5 8.4 12.5-47.7 13.1-127.4-6.6-168.4v-1zm-8.7-12.9c.6-.1.6.3 1 .3 3.6 26.3 10.6 50.9 11.8 80.5 1 22.4-.9 44.5-4.2 64.1-1.1 6.5-1.6 13-4.5 18.5 5.5-24.5 8.5-53.1 7.7-82.6-.8-29.2-8.7-53.9-11.8-79.8-.6-.2 0-.6 0-1zm10.8 169.8c-.9 6.1-1.5 12.4-4.5 16.4.5-4.7 3.2-10.3 3.5-16.4h1zm-26.8-9.5c9.7-28.7 16.8-61.3 16-101.1-.1-.6.3-.6.3-1 .3.2.6.3.7.7 1 45.7-8 81.5-20.9 113.3-.3-3.7 2.5-7.7 3.9-11.9zm13.6-8.3c-.2 12.6-.9 26.5-5.6 33.5-.5-1.8.8-3.6 1.4-5.6 2.1-7 3-16.9 3.1-26.8v-1h1.1zM316.8 50.3c-4.7 7.9-8.4 17.6-11.5 27.2-1 3.2-1.2 6.6-3.1 9.4 2.2-13.3 7.8-26.3 13.6-37.3.4.1.5.6 1 .7zm-2.5-1.7c-6 10.6-13.6 20.9-17.4 33.8-.5 1.7-.3 4-2.1 5.2 2.6-15.3 11.4-27.4 18.5-39.4.6-.1.6.4 1 .4zm-57.5 6.6c4.2-4.8 8.3-9.3 13.2-12.9h1c.2 1.1-1.5 2-2.4 2.8-8.1 6.5-16.3 15.2-21.3 25.1.4-6.2 5.7-10.6 9.5-15zm-20.9 50.9c-1.2-11.7 2.6-21 9.8-25.4 11.7.6 22.3 9.6 16.7 22-3.4-3.2-3.8-9.4-10.5-9.4-.3-.6-.6-1.3-.7-2.1-1.3-.1-.6 1.7-1.7 1.7-1.2.2-1.1-1-1-2.1-1.2 0-1.4 1.2-1.4 2.4-1.3.3-.8-1.3-1.7-1.4-.8.5-.5 2.1-1 2.8-1.2-.2-.2-2.6-1-3.1-2.4.2.1 4.5-1.4 4.9-1.2 1.2-.4-1.6-1.7-1.4-2 1 .2 2.5 0 4.5-.8 1.4-1.9 2.5-3.1 3.5 1.7 1.3.4 1.7 0 3.5 6.6-3.5 16.5-1.8 22.3 1-.5 1.9-2 2.4-.3 3.8-6.3 0-12.1 8.4-8 14.3 1.7 2.4 4.1 2 7.3 1.7 4.7-.4 7.7 2.5 12.2 3.5 1.9-1.6 5.8-2.8 6.3-6.3.4-3.2-1-7.4-4.9-7.7-.2 3.2 3.1 7.2.3 10.5-3.7 1.6-6.7-3-12.2-2.8-2.7.1-6.7 2-7.7-2.1-1.1-4.4 2.8-6 5.2-8 2.6-2.2 9.4-12.8 9.8-17.8.5-6-4-11.3-7-13.6-3.8-2.9-7.7-2.5-11.1-7.3.7-.8 1.1 0 1.7.3 2.1-1.8 3.1-4.5 5.6-5.9 3.6-8.8 10.4-16.2 17.8-22.7 2.8-2.5 5.2-5.9 8.7-6.6-8.4 7.8-19 16.3-24.7 27.9 3.4 2.2 6.2-4.7 8.4-7.7 4.2-5.7 8-9.9 12.5-14.6 2.1-2.2 4.1-5.6 7.7-5.6-9.4 8.1-17.9 17.2-24 28.6.3.8 2 .1 2.8.3-.3 3.7-.3 6.4 0 10.1 7.8-14.3 15.7-28.4 27.5-38.7-4.4 5.9-9.7 11.8-14.3 18.5-4.5 6.6-9.2 13.5-11.8 21.6 7.4 3.8 8.8-6 11.1-10.5 5.5-10.3 13.4-20.7 20.9-27.2-8.8 11.1-18 21.8-23.7 35.9 2.2-.5 2.3 2.4 2.1 5.2 6.5-15.1 15.1-30 25.1-40.4.6 1.2-1.5 2.9-2.8 4.5-8.3 10.5-16.1 23.8-21.6 37.3.5 2.6 4 3.5 7 2.4 3.5-7.7 7-15.5 11.2-22.7 4.1-7 7.9-14.4 14.3-19.2-7.2 9-13.3 18.8-18.8 30-1.8 3.7-2.5 8.3-4.5 11.5-1.4 2.2-5.3 3-4.9 6.3 2.2 1.2 3.3-1.5 4.9-2.4 3.3-1.9 7.6-2.1 10.8-4.2 3 .5 6.6.4 8.4 2.1 4.2-12.9 7.6-26.6 14.6-36.6-4.6 11.2-10.5 24.1-13.6 38 1.3.8.7-.7 2.4-.3 1.3 4.2 4.2 6.8 5.6 10.8 2.3-15.8 6.3-29.9 8.4-46 1.7 3 0 7.7-.7 11.9-1.3 7.9-3.5 15.3-4.9 23.7-.7 4.2-1.8 9.1-1.4 12.9.3 3.1 2.1 6.3 2.8 9.4.7 3.4 1.8 6.8 2.1 10.1.1 1.3-.5 3.1-.4 4.5.9 9.6-2.8 20.5-4.5 31.4-4.8 4.5-6.2 12.4-11.9 16-.1 1.4.6 1.9.3 3.5 3-2.8 6.4-5.2 8.7-8.7-.6 11.4-3 23.9-2.8 37.3-7.3 2.2-9.9 9.5-14.3 14.6-1.1 1.3-3 2.1-4.2 3.5-3.3 3.7-5.6 9.2-8.7 13.6-9.3 12.9-17.5 26.1-30.3 35.6-.4.8-1.2 1.1-1 2.4-1.8-.7-4.7-.2-7-.4-2.9-8.7-4.7-23-1.4-32.8 4.9-1.2 8.4-7.2 7-11.5 0-1.6 1.1.4 1 1 2.1-2.9 2.3-6.5 2.4-10.5.1-3.8 2.3-8 2.8-12.2.8-6.4 1.1-12.3 0-18.8 14 2.6 29.2-.1 37.6-6.3-.2-.9-1-1.3-1.4-2.1-7.6 3.5-17.7 7.9-28.2 6.6-3.8-.5-8.1-.4-11.2-1.7-5.7-2.4-10.6-6-13.6-10.1 1.5 18.5 5.5 36.3 9.4 51.2-3.6-6.5-5-15-6.6-23.4-1.6-8.4-3.2-17.5-3.8-26.1-.1-.9.2-2 0-2.8-.8-2.9-4.3-5.8-5.9-8.7-2-3.6-2.6-6.9-4.2-10.1-.1-1.2-.9 0-1-.7-1.8-13-3-31.6 3.5-41.5-1.9-3.4 2.2-7.2 3.5-10.4zm23.7-1.4c-2.8.4-2.4-2.3-5.2-1.7 1.1-1.3 2-2.9 2.1-5.2 1.9 1.4 3.3 3.3 3.1 6.9zm-9-4.5c-.3-1-.4-2.2-.7-3.1 1.9-.8 2.5 3.1.7 3.1zm-4.6 1.7c-1.6-.3-2.4.4-3.8.3.4-1.8 2.5-1.9 3.1-3.5 1.3-.1-.2 2.4.7 3.2zm8.4 216.1c.8-.2 1.8-.3 1.7-1.4.8.2-.1 2.1.7 2.4 1.5.7 1.9-1.5 2.4-.7 1.1 6-6.1 6.7-7 11.9-3.3-4.6-4.8-11-8.4-15.3.1-.4.3-.2.3 0 2.5-.7 6.7-.7 9.8.7.1.9 0 2 .5 2.4zm3.5-5.9c.2-1.5.6-2.9 1-4.2-.3-.9-.8.7-1 1-1.9-6.1-11.3-5.1-13.2.3-8.1.5-8.9-6.2-15-7.7-.2-6.8 1.2-12.1 2.8-17.1 6.6-2.5 13.5-5.6 21.3-2.4-5.6 8.1 7.2 15.4 9.8 6.6 0-1.4-.6-2.2-.3-3.8 1.2.6 2.4 1.3 2.8 2.8.7-.1.3-1.3 1-1.4 1.5.4 2.9.9 4.2 1.4-.8 3.4-2.5 5.8-3.5 9.1-5.8-4.5-11.3 8.2-5.2 10.5-1.7 1.7-1.5 5.9-4.7 4.9zM242.2 242c-.7 3.2-2.3 5.6-2.4 9.4-4.9.2-6.8 11.5-.7 11.8.5 5.2 1.3 10.1 2.8 14.3-1.7 1.3-4.9 1.1-6.6 2.4-.5-.2 0-.3 0-.7.7-1 .5-1.8.3-2.8-.8-8.5-6-17.8-5.2-28.6 2.4-1.5 4.5-3.4 5.2-6.6 3-.1 4.4-.2 6.6.8zm-4.9-12.9c2.5 3 5.1 7.6 5.9 11.2-2.6-2.9-5.3-7.5-5.9-11.2zm36.6 59.6c-.8-2.8-2.4-6.7-4.9-6.6-.7-1 1-1.7 1.7-2.8 1.2-1.8 1.8-3.8 3.5-5.2 4.5-3.7 11.2-5.7 16.4-9.8 5.2-4.1 9-8.6 13.6-12.5.4-.5 1.6-.2 2.1-.7 1.2-1.2 2.3-2.6 3.8-3.5-6 26.2-23.1 44.3-38.7 62-3.2 1.5-5.7 3.6-7.7 6.3-.7-.6-.6-2-1.4-2.4 3.9-8.3 8-16.3 11.6-24.8zm30.3-41.1c-8.9 9.8-18.9 18.6-32.4 23.7-3.1 2.4-5.9 5.1-7 9.4-2.9-1.2-6.2-2-9.4-2.8 7.3-7.4 15.1-14.2 21.3-22.7 4.6-6.2 9.1-12.9 13.2-19.5 2.9-4.6 5.1-9.2 9.8-12.2 3.7 6 10.2-.1 8-7-.3-.9-1.1-1.2-2.4-1 1.1-2.6 5.4-2 7.3-3.8.3 1.8 1 3.2 1.4 4.9-3.7 2-3.8 9.4 2.8 8.4.4 1.3.9 2.4 1.4 3.5-2.1 3.2-4.6 6.1-6.3 9.8-4.4-.4-9.2 4.7-7.7 9.3zm-54-39.4c-.8-4-1.5-8.2-2.1-12.2.2-.3.4-.6.4-1 .4-.1.6.1.7.4 1 8.6 3 16.1 4.5 24.1-2.4-2.9-2.7-7.2-3.5-11.3zm-22.7-48.1c1.5 2.6.5 6.5.3 10.5-.6 14.6 1.2 31.8 4.5 44.3 1.2 4.3 3.3 8 3.5 11.9-8.2-16.5-9.8-42.7-8.3-66.7zm-4.1 46.4c-2.2-20.1-4.4-42.5.7-61.7.5 8.5-2 17.1-2.1 26.1-.2 22.7 3.4 46.1 8 63.4-4.3-7.3-5.5-17.6-6.6-27.8zm8.7 70.7c-3 6.7-5.3 14.2-5.6 23.7-1.9-14-.7-30.8.7-44.6 1.3 7.3 2.4 14.8 4.9 20.9zm-6.6-31.3c.1-.1 1.6-2.4 1.7-.4-.3.1-.3-.1-.3-.3-1 2-3.1 2.6-1.4.7zm-.7 3.1c-2.1 14.4-3.2 34.3-2.1 51.9-8.4 2.2-9.9-4.1-14.6-8-1.5-1.3-3.1-1.2-3.8-3.1 6.4-5.4 13.4-10.1 16-19.2-5-1-8.9-3.2-14.6-3.5 7.4-5 12.4-12.4 19.1-18.1zM90.6 367.9c2-12 7.6-24.2 12.2-34.2 7.1-15.5 15-25.3 27.5-34.9 3.5-2.7 6.7-6.3 10.1-8.4 5.2-3.2 11.9-3.9 17.8-7.3 2.2-1.3 4-3.2 6.3-4.5 6.7-3.9 12.7-8.8 19.9-12.2 10-4.7 20.5-8.1 31-12.5-2.9 7-13.4 9.4-17.1 16.7 1.8 1.7 5.4.3 8.4.7 3.1.5 6.3 2.9 9.4 2.4-3.6 8.2-12.9 10.6-16.7 18.5 3.7 3.6 9.8 6.7 11.9 10.8-5 2-9.2 5-12.5 8.7-2.2.3-4.5.6-5.2 2.4-.5 1.7 1 1.3 1 2.4-6.7 7.9-11.8 23.8-26.8 18.8-7.3-6.4-11.9-15.6-26.1-15-1.5 0 .5-1.5 0-2.8-2 .1-2.2 2-3.1 3.1-2.9.9-6.2 1.4-6.3 5.2 1.8 1 3-1.1 4.9-1-2.4 16.3-1.6 35.2 4.2 47.1-7.6-.3-15.3 2.2-22.7 3.5-5.2.9-8.1 2.2-14.3 2.8-6.7.6-12.2 3.3-17.4 5.9.4-6 1.3-11.8 3.6-16.2zm40.8 50.8c-5.5-4.8-6.8-13.9-7.3-23.7 1.2-.9 2.8-1.8 4.2-.7 4.4-4.1 6.2-.7 9.1 2.4.9 1 2.2 1.5 2.8 2.1 3.6 4 5.8 9.9 10.1 10.8-5.8 3.7-13.2 5.6-18.9 9.1zm24.3-11.5c-10.4-2.9-13-13.5-20.6-19.2-2.4.5-3.2-.5-4.2-1.4-4 .3-5.4 3.2-9.1 3.8.1 4.9-.6 10.3 0 15.3 1.4 11.5 9.3 17.2 12.2 27.9-19.1-1.2-21.2-21-22.3-39-3.1.4-2.6 4.4-2.4 7 .5 7.6 2.2 16.6 4.5 22.3-1.1.4-2.1-1-3.1-1.7-2.8-2.1-8-4.9-10.1-8-3.4-5-1.6-12.5-3.5-19.5-4 5-1.5 20.5 2.8 24.4-6.2-3.4-12.9-9.2-13.2-19.5-1.8-.4-.4 2.4-1.4 2.8-5.9 5.4-7 15.5-9.1 24.7-1.9-.8-1.9-4.3-2.1-6.6-.5-6 1.4-11.9 3.1-15.3-.1-1.3 1.3.1 2.1-.7 2.6-8.2 8.3-13.4 13.2-19.2 3.3-.3 5.3-1.9 8.4-2.4 1.3.6-1.7 2.7-2.1 3.8 6.9-4.3 19.9-7.1 29.6-9.4 3.8-.9 13.5-1.5 16.7.7 2.6 1.8 4.8 5.7 5.9 9.1 1.2 3.6 1 8.1 3.1 11.5 1.6 2.6 4.4 3.3 7.3 5.2-1.3 1.5-3.4 2.5-5.7 3.4zm63.5-26.5c-19 6.1-35.3 14.9-53.3 22-2-3.5-5.9-5-9.1-7.3-3.3-7.9-3.1-19.2-11.2-22.3-6.1-12.4-8.7-31.6-5.2-48.8 9.8-.3 13.9 5.2 19.2 9.4.8.6.7 2.1 1 3.1 3.9 2 6.6 4.7 12.2 4.2 12.6-1.3 18.2-16.8 24.7-24.7 15.7 12.6 23.5 36.7 21.7 64.4zm3.5-1.3c1.1-27.5-5.6-53.2-21.3-66.2 4.3-5.5 11.4-8.1 20.6-8.7 1.2-.4 1.1.5 1 1.4 2.6-1.8 4.5 2.9 5.6.4 2 1.1 3.7 2.6 5.6 3.8-.1.4-.6.3-1 .4 1.4 1.6 2.9 3.2 5.2 3.8 8 14.6 17.3 27.8 19.2 48.4-12.2 5-23.8 10.6-34.9 16.7zm31-45.7c1.2-5.1 5.8-8.1 9.1-11.9 1.6-1.8 2.5-4.3 4.2-5.9 2.9-2.8 6.2-5 9.1-7.7 8-7.6 15.7-17.4 22.3-26.8 9.1-13.2 12.4-29.5 20.6-45.3.3-1.4-.2-1.8.4-2.4.1-.5.6-.5.7-1 4.7 5.1 7.7 10.3 13.6 14.6 1.8 5.9 5.6 11.6 7.3 16.4-6.8-.2-13.6 1.1-19.5 2.1-2.7.4-6.5.4-7 2.8-.5 2.9 5.4 9.2 6.6 10.8 3 3.9 4.9 6.6 7.7 9.8-19.9 8.2-37.5 18.7-52.3 32.1-.9.5-2.3.5-3.1 1-6.2 6.5-11.4 12-15.7 20.6-1.5-3.2-2.6-6.3-4-9.2zm138-33.8c-1.8 3.6-10.4 12.9-13.9 15-1.4.8-5.4 2.2-7.3 2.1-3.7-.3-4.6-3-6.6-5.6-4.9.7-8.8 3.9-12.9 6.3-12.1 6.9-25.7 12.4-38.7 18.5-17.2 8.1-33.6 17.4-51.2 24.7-1.3-4.3-1.1-10.1-2.8-13.9 4.8-5.6 6.8-15.7 13.9-17.8 7.6-9.4 19.9-16.6 31-23.7 7-4.5 14.9-8.7 21.3-11.2 3.1-1.2 8.9-1.5 9.4-4.9.3-2-5.4-7.8-7-9.8-3-3.6-5.1-6.3-7.3-9.8 2.2-.3 5.6-1.5 7.7-1.7 6.7-.9 18.4 1.7 19.2-3.8.3-1.9-1.8-3.1-2.8-4.9-1.7-3-2.7-6.6-4.2-8.4 1.8.3 6 1.2 6.6 3.8 4.3.3 9.3 2 14.3 1 3.7-.7 6.1-3.9 8.7-4.2 6.9 7.3 17.5 17.4 21.3 30 1.6 5.6 3.7 13.3 1.3 18.3zm58.9-30c-1.1.6-3.3.3-5 .3-.3.1-.5.1-.6 0h.6c1.6-.5 5.4-3.5 5-.3zm9.4-8c-1.7 0-3.1.4-4.5.7 1.5-1.6-1.1-1.2-1.7-1.7 1.3-2 5.4-.7 6.2 1zm28.6-6.3c-.4-1.6 1.7-.8 1.7-2.1-2.4-2.4-5 .4-5.2 3.1-1.8-.4-2.5-1.1-3.8-2.4 3.3-1.8 7.4-6.2 11.9-4.5.5 3.8-2.6 5.8-4.6 5.9zM467 325.3c.5.4 1.3.3 1.7.7-.1 1.7-.9 2.6-1.4 3.8-1.7-.3-.9-3.5-.3-4.5zm-147.8 93.4c-1.7-.6-3.3-.3-4.5-1-5.8-3.7-10.3-14.7-11.5-22.3 5.6-.8 5.2 7.2 9.4 5.6 3.2 8.9 10.5 13.7 17.4 18.8-4 2.7-7.5.1-10.8-1.1zm129.7-66.9h1c-2 4 1.3 10-.4 14.6h-1c-1.5-3.7.3-10.1.4-14.6zM345 391.2c-4.4-1.1-9.7-4.1-14.6-6.3-5.4-2.4-10.9-3.9-14.3-6.6-.8-.5-.3-1.5-.7-1.7-4.6-2-11.2-7.5-7.7-13.2 14 3.3 19.2 17.3 38 14.6 1-.6 1.6-1.6 1.7-3.1-2.3-2.5-9.7.2-12.2-2.1 5.8-4.3 12.5-7.7 18.5-11.9.6 4.9 8 17.8 4.5 26.5-1.4 3.6-7.9 5.1-13.2 3.8zm51.3 24.1c-1.5 1-3.7 1.4-5.6 2.4-4.6 2.5-7.9 3.9-15.3 5.2-5 .9-9.9 2.4-13.6.4-4.4 2.4-9.3-.6-13.6-1.4 1-2.6 4-4.9 4.5-9.4.6-5.3-1.1-11.8-2.1-16.4 15.8-1.7 11.3-26.2 7-37.3 3.3-2.3 8.2-3 9.4-7.3-4.9-.8-7.4 6.3-12.5 4.2-1.3.3-.8 2.4-1.7 3.1-7.3 3.9-13.8 8.6-20.9 12.5-3.7-1.4-6.5-3.8-9.1-6.3 14.8-5.8 27.6-13.5 42.9-18.8.4.4-2.4 2.9-3.8 3.8-1.7 1.1-4.9 1.5-4.5 4.2 6.5.1 7.9-6.4 15-6.3 7.2.1 13.1 5.7 17.1 10.1 4.9 5.3 11.5 13.3 15 18.8 2.8-.2 2.6-3.4 6.3-2.8 2.6 19.5-2.3 33.3-14.5 41.3zm25.4-48.5c-2 1.6-4.6 5.1-7.7 3.8-2.1-2.8 3.6-5.8 5.9-7.3 7.2-4.9 16.9-10.3 25.1-12.9.9 0 .4.3.3.7-8.9 3.7-16.3 9.8-23.6 15.7zm22 6.3c-1.5-.5-.2-2.3 1-2.1.2 1.2-1.2.8-1 2.1zm11.1-1.1c2 6.5-9.2 10.4-9.8 4.2-.3-2.7 4.1-5.8 6.6-5.9 1.8-.1 2.8.3 3.2 1.7zm2.1-24.4c5.5-1 13.5-2.2 18.8-.4-5.9-.6-12.6.4-18.8.4zm20.6 3.5c1.6-.2 2.6.2 3.8.3-1.6 3.5-1.4 8.8-2.4 12.9h-1c-1.6-3-.5-9.4-.4-13.2zm5.9 21.3c-2 .2-3.5.9-5.9.7.2-1.3-.6-1.5-.4-2.8 2.1-1.5 5.4.2 6.3 2.1zm-5.2-25.8c11 1.3 22.8 1.9 27.5 9.4-8.6-3.4-17-7.3-27.5-9.4zm29.9 10.8c.2-1 1.3-1 2.1-1.4-.3.8-1 1.3-2.1 1.4zm13.3 13.6c-2.6 1.4-5.8 2.1-9.4 2.4-1.7-4.8 7.7-5.9 9.4-2.4zM242.9 143.4c-.3-1.3.9-1.9 0-2.8-2.5.9-4.8 6.7-3.1 8.4 1.1-1.3 1.7-4.3 4.2-3.1-.3.9-.5 1.9-.4 3.1.6.9 1.1 1.9 1.4 3.1 6.6 6.4 23.2 9.7 31 2.1 1.8-1.7 2-4 5.2-3.8.2 1.6 1 2.7 1.4 4.2.1-.4.5-.4 1-.3.1-2.4-2-5.4-2.4-8.4-1.5-.3-.6 1.7-1.7 1.7-9 1.6-11.9-10.5-20.9-5.6-4.7-4.7-10.7 2.2-15.7 1.4zm10.8-.7c1.9 0 3.8 1.9 5.9 2.1 1.7.1 3.5-.7 5.2-.3 3.5.7 6.2 3 8.7 4.2-2 0-4.1-.2-5.2.7-4.6-3.4-12 1.4-15.3-3.1-1.9.2-2.9-.6-4.9-.3 1.2-1.5 3.6-3.3 5.6-3.3zm1.7 8.7c7.2-.8 11.7-.2 18.1 0-3.3 7.6-25.8 5.4-27.5-3.1 3.5.8 7.3.4 9.4 3.1zM169 439.7c18-8.1 34.8-17.4 51.9-26.5 8.6-4.6 17.6-8.2 26.1-12.9 12.8-7 26-12.9 39-19.9 4-2.2 9.2-3.6 11.8-7.7-2.3-1.2-4.8.9-6.6 1.7-15 6.8-30.1 15.3-45 23.4-8.5 4.6-17.5 8.3-26.1 12.9-8.4 4.5-17 9.1-25.4 13.6-8.7 4.6-17.9 8.1-26.8 12.2-8.8 4-17.3 8.8-25.8 13.2-12.7 6.6-25.7 12.3-38.5 18.4h6.6c10.9-5.1 22-9.7 32.6-15.3 8.8-4.5 17.2-9.1 26.2-13.1zm119.9-329.8c7.9.7 15 2.8 20.2 5.9 1.2-1.9-1.1-2.7-1.7-3.8 1.3.3 2.6.5 2.8-1-.5-1-2.3-.3-2.4-.7-.1-2.1 2.7-1.2 2.4-3.5-.8-.7-2.2.1-3.1.4.1-.9-.5-1.1-.7-1.7.9-.7 2.1-1.2 1.7-3.1-1.5-.2-1.8 2.1-3.1 1 .5-1.2 1.8-1.7 1.7-3.5-1.9-1.1-2.1 3.5-4.2 1.4.5-1 1.8-1.2 1.4-3.1-2.3-.5-1.6 2.1-3.5 2.1-.8 0-.1-1.5-.3-2.1-1.6-.4-1.1 1.2-2.1 1.4-8.3-1.1-13.6 3.8-15.7 10.1 2.1.6 4.4 0 6.6.2zm10.5-5.2c1.2 2 3.2 3.3 3.8 5.9-1.6.6-3.7-1.1-5.9-1 1.1-1.2 2.1-2.5 2.1-4.9zm-3.5 0c-.3 0-.3.4-.3.7-1.6.2-2.3-.5-2.1-2.1 1.3-.1 2.4.1 2.4 1.4zm-6.3-1.4c1.6.4-.7 2.3 0 4.2-1.4 0-2.9-.1-3.8.3.4-2.3 2.8-2.7 3.8-4.5zm-44.7 28.8c-.1-.3-.3-.4-.7-.3-2.2 4.6-2.2 5.3-8 9.5 5.5-1.7 6.9-3.8 8.7-9.2zm-1-22.2c3.1-.8 7.9 0 9.8-2.1-2.5-.6-8-.1-9.8 2.1zm44.8 40.4c-2.6-1.3-1.5-3.7-2.3-7.7-3.5 6.3 3.7 5.4.4 13.9 3.7-1.4 1.7-4.8 1.9-6.2zm-4.7-37.9c3.9 1.1 9.5 3.9 13.2 2.8-2.4-2.5-10.2-3.2-13.2-2.8zm-35.5 54.3c3.5-1.5 7.4-1.2 11.5-.7 1.2 1.5 3.2 2.4 4.5 3.8 1.4 1.6 1.4 4 3.5 4.9 2.6-9.7-15.8-15-19.5-8zm47.4 16.1c.3 1.2.7 2.3 1.7 2.8 1-1 2.3-1.6 3.5-2.4-.2-1.2-.2-2.6-.7-3.5-1.4 1.1-2.5 2.5-4.5 3.1zm201.8 139c-1.8 3-.2 7.6 2.8 8 4.7.7 8.8-5.4 7.7-10.5-2.8-2.2-9.4.7-10.5 2.5zm5.2 4.2c-1.1.2-.9-.9-1.7-1 .8-.7 2.1-.9 1.7-2.8 1.1-.2 1.4.5 2.1.7 0 1.7-1.1 2.4-2.1 3.1zM75.2 461.3c-.5 2.2-1 4.5-1.3 6.9h2.9c.2-2.6.3-5.2.5-7.6h-.7c-.5.2-.9.5-1.4.7z"/></g></svg>