<svg xmlns="http://www.w3.org/2000/svg" viewBox="0 0 566.9 467.7"><style>.st0{fill-rule:evenodd;clip-rule:evenodd;fill:#ee7f00}</style><path class="st0" d="M515.6 36.4V34c-1.5-2.2-3.5-3.9-5.6-5.5h-.9v.1c2.8 2.1 4.3 5.2 6.5 7.8zm-87.2 130c.4 1.4 1.1 2 1.8 3 .3.4.4 1.1.6 1.5.7 1 1.7.5 1.8-.6.1-1.5-2.4-3.5-2.8-5 .4.2.4-2.4.2-.7 0-.4-.1-.6-.3-.7-.2.2-.6-.1-.9.1-.7-1.8-1.5-3.6-3.7-4-.4 1 .6 1.7.7 2.5-1.9-.4-5.3-.1-7.8-.4-6-.8-11.6-5.4-17.1-3.1-3.8-3.4-10-5-13.9-7.8-.7.1.5.6.4 1-.2-.2-.5-.2-.9-.1.1.8 1.3.5 1.2 1.5-.4-.4-.4-.5-1.2-.6.9 3 1.2 6 2.1 8.7 1.8 5.6 8.6 11.4 14.9 12.4 7.6 1.2 12.1-1 16.4-2.7.4-.2 2.2-.4 2.5-.7.1-.1-.1-.3.1-.4 1.8-1.2 4.4-2.5 5.9-3.9zm-40.2-11.6c-.2-.2-.3-.6-.3-1 .5.2.7.6.3 1zm26 6.5c-4-.1-8.7-.8-12.7-1.3 3.5-1.9 9.2.3 12.7 1.3zm-15.5-3.8c.9.8 1.3 2.1 2.7 2.4-4.4-.1-7.6-2.7-9.6-5.6 2.2 1.3 4.9 1.6 6.9 3.2zm1.7 4c6.1 1.7 13.1 1.5 20.1 2.7-4.6 2.1-11.7 3.7-18 3.3-7.9-.6-9.8-6.8-12.3-13 3.1 2.2 5.9 5.7 10.2 7zm20.9 7.7c-2 1.1-5 1.9-7.5 2.8-7.2 2.5-16.8.8-21-4.3-2.5-3-3.5-7.7-4.1-11.5 1 3.7 3.7 6.7 6.7 9 4.1 3.3 8.6 5.1 16.1 4.4 5.5-.5 10.2-2 14.3-3.8.4-.2 1-.9 1.5-.4-2.1 1.2-3.9 2.6-6 3.8zM76.6 194.8c.1 1.6.1 3.1 0 4.7l.6-4.5c3.6-2.2 1.9-3-.6-.2zm-21 194.1c3.2-.7 3.8-5.4 4.8-8.4 8.2-26 15.8-59.5 23-87 .5-3.1 4.1-1.2 4.4-4.6.1-2.4 1.3-5.5.7-7.5-.3 6.5-4.4 8.2-6.3 11.8-6.8 12.7-9.9 30.9-15.1 47.3-3.9 12.6-7.2 24.9-10.4 37-1.1 4-4.1 9.5-1.1 11.4zm75.8-211.5c.3 2.1-.2 3.4.6 4.6 2.6 3.6 10.9 0 9.7-4.8-1-3.8-9-3.1-10.3.2zm3.1.8c1.5-.2 3.1-1 4.4-.2-.3 2-2.6 2.8-4.6 2.3 0-.8 0-1.5.2-2.1zm248.1-36.4c-1.8 2-.4 6.2 1.3 6.4 0-2.8 1.2-5.2 1.7-7.1-.1-.1-.3-.5-.4-.1.2 0 .2.3 0 .3-.1-.8-2.2.9-2.6.5zm-44.7 326.4h1.7c-.6-.2-.8-.2-1.4-.3l-.3.3zM125.3 181c.3 2 1.8 4.9 2.9 6.1 4.6 4.7 13.7 0 17.4-2.7 1.8 5.7 12.6 3.8 11.1-2.9-.1-1.1-2.6-.2-4-.6-2.7-.8-4.2-8.1-4.4-12.8-.2-4.6.9-10-.6-13.5s-6.8-6.1-11.6-4.2c-.8.3-1 1-1.9 1.7-.8.6-1.9.9-2.3 1.3-2.7 2.2-4.9 7.6-4.4 12.4 1.5 1.2 3.6 1.4 5 .4 3-1.9 1.4-8.9 5.9-7.8 2.7.7 1.4 6.9 1.7 9.7-8.2-2.8-15.9 6.2-14.8 12.9zm17.8-11.2c-.2-5.6 1.1-14.7-5.5-14.5-4.4.1-5.2 5.6-7.1 8.4-.8-5.1 4.2-8.1 6.9-10.9 3.4-.6 6.6.3 7.8 2.9 1.5 3.4 0 8.2.4 13 .5 6.3 1.7 14.3 8 14.7-.8.9-1.9 1.7-2.9 1.7-2.2-.1-2.7-3.3-4-4.4-3 .8-5.2 3.4-8.2 4.6-1.9.8-6.1 1.3-8 0-2-1.4-3.1-5.8-2.1-8.4.7-1.9 3.3-5.3 5.3-6.1 3.1-1.2 6.7 1.3 9.4-1zM422.7 31.9l.3.6c11.6-5.8 28.4-9.7 43.1-9.6 3.8 0 7.4.2 10.7.8 35.3 5.5 49.1 36.6 55.5 70.5l2.5-.5c-4.7-25.3-13.9-49.9-33.4-63.2 6.1 2.4 10.5 6.3 14.1 11.2v-2.1c-3.1-2.3-5.5-5.3-8.7-7.4 2.4 1 4.9 2.1 6.9 3.7.6.4 1.1 1.4 1.8 1.2-.7-1.2-2-1.9-3.1-2.7-2.2-1.5-4.7-2.9-7.5-4-1.7-.7-3.8-1-5-1.9h-1.3v.1c-6.1-3.6-13.2-6.2-21.3-7.5-3.5-.6-7.2-.8-11.1-.8-13.7 0-28.9 3.2-40.6 8.2H421c-2.6 1.5-5.8 2.6-5.6 5.5.7-.2 3-.1 4.4-.6.9-.2 1.9-.9 2.9-1.5zM82.9 202.4c6.1 2.8 7.6-4.9 9-10.1 1-3.6 2-7.8 2.5-11.3.4-2.7.1-5.6.6-8 .2-1.1 1.1-2.1 1.5-3.4 1.5-5.1 1.1-13 5.9-14.1.7 7-3.7 12.8-1.7 20.2.2.8 1 1.8 1.5 2.7 1.5 3 3.6 4.3 7.4 4.4 4.9.2 9.9-4.4 7.8-8.8-2.5-1.6-3.4 2.2-5.9 1.7-.6-.1-1.6-1.4-1.9-2.3-2.6-7.4 4.6-19 .4-26.3-3-5.3-11.2-2.1-13.7 1.7.4-2.8-1.4-4.8-3.2-4.6-6 .6-4.6 14.2-5 22.5-.2 3.7-.9 7.7-1.3 11.1-.4 3.7-.2 7.5-.8 10.7-1 5.4-3.9 9.6-3.1 13.9zm8.2-40.2c.2-5.3-.6-11.2 2.3-14.9 1.1 2.4-1.3 9 1.5 9.2 1.7.1 1.5-2 2.1-3.4 1.4-3 4.2-6.5 9-6.1 6.9 4.9-4.9 25.5 3.6 30.9 1 .6 2.4.8 4.2.2-1.5 2.5-5.6 1.9-8.2.8-.6-2-2-3-2.3-4.8-1.4-7.5 4.3-14.8 1.1-21-8.5-1.9-8.8 7.9-10.1 14.5-.3.6-1.2.6-1.5 1.3-.7 5.8-.9 11.7-2.1 17-1.2 5.3-2.3 10.4-5 14.1 3.5-10.4 4.8-24.4 5.4-37.8zm102.5 10.1c4 .2 11.3-.6 16.6-.2 1 .1 1.9.8 2.7.2.9-.6.2-1.6.2-2.7.1-2.1 1.4-4.8-.2-6.1-3-.3-6.7-.1-10.3 0 .3-.7 0-2 .4-2.5 3.2-.8 7.1.7 9.7-.4.6-1.7.6-5.1.4-6.9-2-2.1-6.9 0-9.7-1.3v-2.5c3.1.4 7.4.3 9.7-.8 0-2.5-.1-6.6-1-8.8-2.4-1-5.1.5-7.8.6-3.2.1-6.7-.8-9.5.6-1.2 5-.8 10.8-1.3 16.8 1.9 3.9-.8 10.3.1 14zm3.4-28.6c4.1-.7 8.9.3 12.6-1.1.9.7.2 3 .8 4-2.5 1.4-7.3-.4-9.3 1.3-.6 1.9-.3 4.9-.8 6.9 2 1.5 6.3.2 10.1.6v2.5c-3.5.1-7.8-.5-10.1.8.1 2.2-1.5 6 0 7.6 3.3-.3 7.4-.3 10.5-.2-.1 1.1-.2 2.2-.4 3.2-4.8 0-9.7-.6-14.1.2 1.1-8 .8-17 .7-25.8zM423 32.5zM71.7 181.1c3.8-.1 8.9-1.9 10.5-4.2.5-.7 2.7-5.4 0-6.1-1.3-.3-3.4 1.9-4.2 2.3-4.4 2.2-10.3 1.9-9.7-4.6 4.8.5 10.3-.1 14.1-1.3 1.1-5.8-.9-11.9-4.8-14.1-3-.1-5.5-.1-8 .8-3.7 1.4-8.4 5.5-10.1 9.7-3.8 9.3 3.9 17.7 12.2 17.5zm-1.4-24.3c1.5-.7 5.5-1.2 6.7-.6 2.6 1.1 2.5 5.5 3.2 9-1.3 0-2.2.3-3.4.4 3.8-.7.7-7.1-2.1-7.6-3.4-.6-7.1 3.1-6.5 6.5 1.6 1.2 4.6 1 7.4 1.1-4 1.6-9.3-2-10.1 2.7-1.2 7.4 7.8 11.4 13.9 7.1-5.1 5.2-17.1 2.9-17.9-5.7-.6-5.7 4.7-11.1 8.8-12.9zm5.2 5.8c-.9.4-3.1.3-4 0 .7-2 3.5-2 4 0zm363.4 106.8c-1.7 1.3-2.7 3.4-3.8 5.3-3.6 5.9-6.4 13.3-8.9 20.4-1.3 3.8-2.1 7.6-3.4 11.4-1.2 3.5-2.3 7.2-3.5 10.8-1.2 3.6-2.7 7.2-3.7 10.9-1 3.9-2.2 7.6-3.4 11.5-2.3 7.4-4 15.2-6.2 22.8-1.1 3.8-2.1 7.7-3.3 11.4-1.7 5.5-3.4 9.4-3.7 16.4 0 .8-.8 0-.9.6-1.9 9.3-6.4 17.8-9.5 26.9-1.5 4.5-2.7 9.1-4.3 13.6-2.4 6.9-3.8 14.3-5.9 21.1-1.7 5.3-3.3 10.4-4.8 15.7h3.9c.9-3.5 1.9-6.9 3.1-10.5.7-2.1 1.3-4.3 1.9-6.4 1.6-5.2 2.7-10.4 4.4-15.5 1.7-4.9 3.1-10 4.7-15.1 3-9.2 7.4-17.7 9.9-27.6 0-.5-.3-.9-.4-1.3.2-.7 1-.7 1.3-1.2-.1-3.6 1.3-6.7 2.4-10.1 3.2-9.8 5.2-20.2 8.4-30.3.7-2.2 1.3-4.5 1.9-6.8 2.2-7.9 4.6-15.6 7.1-23.5 1.8-5.6 4-10.9 5.5-16.7 1.4-5.6 3.5-11.1 5.9-16.6 1.2-2.6 2.1-5.3 3.4-7.7.6-1.1 1.5-2.1 2.2-3.3 1-1.7 1.6-3.7 3-4.1-.3-.7-2.2-2.1-3.3-2.1zm-53.2-128.6c0 .1 0 .2-.1.2 0 .1.1.1.1-.2zm75.3-16c-2-2.6-5.4-3.7-8.9-4.7-1.2-.3-2.1-.8-3.2-1.3-7.1-3-18-4.3-26.5-2.4 1 .8 2.1 1.6 3.3 2.2 8.2-2.2 18.5-.2 24.8 2.1 1.3.4 2.5 1.1 3.7 1.5 2.9.9 5.1 1.1 6.8 2.6zM207.1 406.7c-.3 5.1-1.1 10.3.6 13.7 1.4-28.3 4-61.3 16.4-81.6 2.3.5 4.3 1.3 7.2 1.3 10.7-1.8 8-24.2-3.3-17.7-4.5 2.6-3.5 14.6-8.1 16.4-1.7 1.8-5.8-2.1-6.3.3 1.4 1.7 5.6 1.2 5.9 3.8-3.4 11.5-6.9 22.9-11.5 32.8-.8-12-3.5-22.4-3.5-35 1.2-1.8 5.2-.1 6.5-1.9-2.1-1.8-5.9 0-7.7-1.4-2.5-4.5-.5-14.4-4.8-17.9-11.7-9.4-16.3 13.5-7.7 17 3.5.4 6.9.8 10.4 1.2 5.3 23.7 5.6 52-1.2 81.8.1.6.5.9.9 1.2 4-8.1 2.5-22.9 6.1-31.3 2.5 4 .5 11.1.1 17.3zm24.5-83.8c7 .1 6.7 13.7.9 15.3-9.1 2.6-7.7-15.4-.9-15.3zm-36 12.2c-9.2 1.5-10-15.9-2.4-16 6.6-.1 11.2 14.6 2.4 16zM39.8 155.9c.5 5.2-1.3 10.2-.2 14.5 2.1.8 5.8 1.2 8.2 1.1 1.3-6 .3-14.3 2.3-19.6 2.3-1 5.3-.2 7.6-.4 1.1-1.9-.4-5.4-.4-7.6-6.4-.9-15.3.5-22.6.4v-.2l-2.2.2 2.2 10.6c1.8.2 3.7.3 5.1 1zm-5.2-8.8c6.6.2 12.5-1 20.1-.7-.2.9.3 1.3.2 2.1-2.6.3-4.7-.1-6.3.8-3.3 2-2.5 13.1-2.9 19.1-1.5.1-2.3-.4-3.8-.2.7-3.4.4-7.5.6-10.9 0-.6.4-1.7.2-2.3-.7-2.7-4.6-2.6-8.1-2.8v-5.1zm104.1 250.1c-.5-2.5 1.7-4.4 2.9-6.6-3.4 1.8-4.6 4-5.4 6.4-2-.3-4.1-.1-6.4.6 1.9.3 3.9-.3 5.4 1.5-3.8 2.2-4 5.3-2.8 8.8.5-.2.5-.9.7-1.4.6-1.8 1.5-4.2 3.2-5.6 2.6-2 6.2-.9 8.4-.4.6.1 1.4.7 1.9.2-2.3-2.7-5.3-2.5-7.9-3.5zm271.2-313c-.3-1.2-1.2-3.4-1.6-3.8-.3.6-1 1.4-1.8 1.9 1 7.7 3 15.3 9.2 18.6-2-3.4-4.1-7.2-5-11.5-.4-1.8-.3-3.6-.8-5.2zm22.6 22.1c-5.7-5-11.2-9.3-14.5-16.1-1.6-3.2-2.1-8.1-4.4-10.8 0-.1 0-.2-.1-.1l-1.2 1.2c2.5 12.7 11.4 19.9 20.2 25.8zM165.2 417.1c-1.8-5.3-3.9-10.6-4.1-15-.1-1.9.5-3.6.2-5.3-.7-3.7-4.1-9.5-7.2-11-1.4-.7-3.4-.6-4.9-.3-1.3.2-2.7 1-4.2 1-3.3 0-5.6-4.1-9.5-2.3-.7.4-1.4.9-2.1 1.3-1.2 1.1-2.4 2.3-3.3 4.2-.7 1.6-.8 4.4-1.9 5.5-.7.7-1.8.9-2.6 1.4-4.6 2.8-6.2 7.4-6.1 11.8 0 .9.4 2.2.6 3.1.5.8.9 1.5 1.4 2.3 3.1 2.8 6.4 5.3 9.6 8.1 3.1 2.7 6.7 4.8 9.8 7.5 4.8 4.3 9.2 9.4 14 13.9 1.5 1.4 3.7 3.9 5 3.2 2.1-1.1-1.2-6.2-2.3-8.1-1.7-3.1-3.9-6-5.4-8.8-1.1-2.1-2.5-6.2-.7-7.4 1.8-1.1 4.3 1.4 5.9 2.6 4 3.2 7.2 6.2 10.8 9.5 1.6 1.4 3.4 4.4 6 2.4-.1-1.6-1.3-2.7-2.1-4.1-2.7-4.4-5-10-6.9-15.5zm2.1 14.3c-3.3-3.8-8.1-11.1-12.1-12-3.1-.7-7.9 2.5-6.4 5.9 2.8 6.5 9.8 13.6 10.3 19.5-2-.9-3.1-3.1-4.5-4.9-4.1-5.4-8.8-11-13.6-13.9.7-.3 1-.8 1-1.3-2.9-2.7-6.8-2.9-10-5.3-1.6-1.2-3.1-2.6-4.8-3.8-2.2-1.7-4.6-3.4-6.1-6.9-1.3-3.2 0-7.9 3.4-10 1.7-1.1 3.8-1 5.5-3 1.4-1.6.5-4.7 1.5-6.6 1.2-2.3 4.3-4 6.6-3.6 2.6.4 4.2 3 6.8 3.1 3.3.3 6.7-2.9 9.4-1 2.9 2.1 4.3 8 4.2 10.9 0 1.4-.8 2.5-.6 3.6 1 4.1 3.4 6.7 2 10.2-.3.6-2.2 2.4-1.5 3.3 1 1.2 2.2-1.3 3-2 2 4.8 4.8 10.3 7.7 15.5.9 1.7 2.4 3.2 2 5-1.5.4-2.7-1.4-3.8-2.7zM76.6 223.3c-1.5 7-4.9 13.7-7.3 21.1-3.7 11.5-7.3 25.2-10.7 38.2-5 19-10.6 37.6-8 49.8-1.2-9.5 2.8-19.3 6.6-29.7 8.9-25 15.6-54.8 19.4-79.4zm438.8 210.9c-3.2-13.1-8.9-24.4-14.2-35.5-5.4-11.3-9.9-22.8-14.2-35.5 2.2-.5 3.8-1.6 5.2-3 1.1-6.9-2.6-12.1-9.6-12.3-1.4-6.6-2.4-13.5-1.9-21.4.4-6.2 2.1-11.8 4.3-17.1 6.5-15.6 17.7-28.3 22.9-44.3 1.1-3.5 2-7.7 2.7-11.5.7-4 1.6-7.9 1.8-11.8.7-12.8-2-22.5-6.2-31.6.3.4 1.7.5 2.2.1 1.4-.9 2.5-1.9 3.4-3 .5-.6 2.3-2.7 2.2-3.5-.2-1.4-3.6-2.3-4.3-3.3-.3.5.7.5.7 1.5 0 .8-1.4 2.8-1.9 3.4-1 1.1-2.8 2.1-3.7 2.7-.7-2.7-2.3-5.3-4.9-5.6 1.8 3.7 3.6 7.2 5 10.9 1.5 3.8 3.1 7.9 3.5 12.6 2 22.3-3.8 40.2-12.3 55.1-1.7 3-3.7 5.7-5.5 8.6-1.8 2.8-3.5 5.8-5 8.9-3 6-5.9 12-7.5 19.2-2.1 9.6-.7 22 2.1 31.9-4.1 2-10.2 3.9-16.3 4.3-4.2.2-8.8.4-12.6.1-.9-.1-1.8-.4-2.7-.3-2.2.3-2.9 2.9-2.5 5.8.4 2.4 1.4 5.1 2.4 6.4 1 1.3 3.5 3 5.5 3.3 5.3.7 11.2-.2 15.5-.9 5.4-.8 11.2-2.5 15.1-4.1 3.7 10.5 7.6 20.7 12.3 30.4 7.8 16.4 15.2 32.8 18.6 52.5-.4-4.1.8-9.5-.1-13zM486 357.6c-.4-1.7-3.4-3.4-5.2-2.7-1.5 2.6 1.6 3.9 3.3 4.7-.4.3-.8.7-.4 1.3-8.7 3.4-19.9 6.7-32.4 5.8-1.4-2.7-2.6-8-.7-10.1 2-.7 5.3-.6 8.3-.6 2.1 0 4.3.3 6.5.1 5.9-.3 11.7-1.2 15.5-3.4.8 1.2 1.6-.8 3-.7-.3-.5-.2-1.4-.6-1.8 1.3-.1 2.7 0 4.4 0 2 2.5 2.2 9.2-1.6 9.8-.6-.7.1-1.5-.1-2.4zm-1.2-165.1c-1-.9-1.8-2-3.5-2.1-4.8 3.5.1 10.8 4.9 11.2.6-1.8-1.6-1.6-2.7-2.1-1.4-2.2-.7-6.1 1.3-7zm38.5-23c-.7-.2-1.4.2-1.6.9-.2.7.2 1.4.9 1.6 2.2.6 2.7 1.8 2.8 3.7.1 2.7-2.1 6.6-4.1 7.8-.6.4-.8 1.2-.4 1.8.3.4.7.6 1.1.6.2 0 .5-.1.7-.2 2.9-2 5.2-6.1 5.3-10 .2-2.6-1.4-5.4-4.7-6.2zm-32.1 38.1c.7.1 2 .2 3.4.3.8-.3 1.3-1 1.8-1.5 3-2.9 2.1-7-1.5-8.7.2.5-.5.1-.4.4 1.3 3.3-.8 6.7-3.2 7.5 0 1-.4 1.6-.1 2zm-38.3 152.1c-.4.7.5 1.6-.3.9-.3 1.7 2.8 4.1 5 4.3 2.7-2.4-2.2-5.8-4.7-5.2zm62.5-166.4c-1.5 2.4-5.1 2.9-6.8 4.4-.2.2-1.1.9-1.6 1.3 2.4 1.1 6 .9 8.6-.9-.1-1.5.2-3.5-.2-4.8zm8.1.3c-.7.2-1 1-.8 1.7.6 1.7 1 3.5 1 5.3 0 2.3-.6 4.5-1.8 6.5-.4.6-.2 1.4.4 1.8.2.1.5.2.7.2.4 0 .9-.2 1.1-.6 1.5-2.4 2.2-5.2 2.2-7.9 0-2.1-.4-4.2-1.1-6.2-.3-.7-1-1.1-1.7-.8zM-3.4 301.4c-1.1 11-2.7 15.9 9.1 16.5 5-9.1-2.1-14.8-8.5-18.9 10.5-35.2 27-69.3 33.2-106.1-6 11.2-12.7 29.9-18.9 49.5C4.6 264.8-2 287-3.4 301.4zm-10.5-10.1c4.4-3.1 3.3-7.8 4.5-12.3 4.2-15.1 11.1-34.2 14.7-53.2 3-15.9 13-31.6 6.1-40.1-6.3 9.9-5.4 24-9.8 37.2-5.5 16.3-9.5 35.4-13.8 49.6-1.8 6.2-10.7 14.9-1.7 18.8zm527-128.2c.1 1.3 1.7 1.3 2.5 1.5v-4c-1.1.8-1.8 1.8-2.2 2.5 0-.1-.3-.1-.3 0zm-169 109.5c-.1 0-.2-.1-.3-.3l.3.3c.3.1.7 0 .8-.3-1.3-1.8-6.2-4.6-5.9.4 1.1 1.2 2.5 2.1 4.1 2.8 1.4-.2 1.6-2.1 1-2.9zm35.4 54.4c.5-2.9.8-5.8 1.2-8.7 1.1-7.5 2.5-16.8 4-25.3.5-2.7.6-5.5 1-8.3.5-2.9 1.2-5.8 1.6-8.6.8-5.6 2.3-10.7 3.7-16 3.5-13.2 7.1-25.8 14.6-35.2.4-.1.5-.4.9-.4.1-.2.1-.6.3-1 1.9-1.9 3.5-3.6 6.2-5.3 2.7-1.7 5.7-3.6 9.8-4.3 2.8-.5 5.8-.2 9.2-.1.4-.1-.1-1.1.3-1.2 15.7-.5 27.6-6.7 36.4-13.6 3 3.2 6 6.5 12.6 6.2.6-.5 1.1-1.1 1.6-1.6-2.5-.9-6.4-.3-9.8-1.2-1.1-1.6-2.2-3.2-2.2-5.9.6-.5.1-.5.9-.7.4-.6-.9-.5-.7-1.3 1.3-3.5 2.8-6 5.6-7.5.6-.3 1.9-.4 2.2-1 0-.6-1.9-1-1.5-1.5.2-.6.4.6.4-.3.3.4.3-.8.4-.4.6-.2 1.6.8 2.4 1.3 4 3 8.4 4.8 14.3 6.7 1.2.4 5.5 1.2 6.1 2.4.8 1.8-1.4 4.6-2.2 5.9.5 1.8 1.6 2.1 3.2 2.2.8-1.1 2.7-3.1 2.5-5.2-.2-3-7.3-5.9-10.1-6.8-4.7-1.6-9.3-2.2-12.6-4.6-4.6-3.4-4.5-10.7-1.6-14.9.4-.6 1-.9 1.3-1.3.3-.5.3-1.1 1-1.9.9-1.1 1.9-1.4 3.2-2.5-3.8.1-7.7 1-9.3 4.4-1.1-.3-1.3-1.2-2.2-1.2-1.2 0-2.6 1.8-4 1.9-.7.1-1.1-.3-2.1-.7-.4-2.3 1.7-3.8 2.2-5 .2-.5 0-1 .1-1.3 1-1.9 3.6-3.7 6.5-4.6-4.3-2.5-7.4 3.5-10 3.7-1.5 1.6-3.6 5.7-1.2 7.8-2.2 1.7-3.5 2.1-4.1 5.5-10 4.5-18.3 10.4-33.9 9.8-3.6-.2-7.1 0-10.2.4-6.2.9-10.1 3.5-17 4.4-2.3.3-7.4.4-9.3-.9-1.7-1.2-2.7-5.9-3.1-8.6-.8-4.6-.8-8.7-1.2-13.5-1-11.8-10.5-20.2-11.4-32.1-.6-8.4 2.3-14.9 5.3-20.4.9-1.7 2.7-4.1 3.4-6.2.4-1 .5-2.4.3-3.7.3-.3.5.5.7.7.9.8 2.5 1.6 3.5 2.2.4-.1-.6-.6.3-.4 3 .3 5.9.6 7.4 2.4-1-.1-1.5-1.1-2.7-.7-1.8.5-2.8 3.6-1.3 5.2-1.5-.2-3-1.8-4.6-2.5 2.6 2.2 5.8 5.1 10.6 5.6.4-.5 1.6-1.2 2.1-2.1.9.4 1.5 1 2.4 1.3-1.9-4.6-5.7-7.1-10.1-9.9-1-.6-1.8-1.4-2.7-1.9-1.7-1-3.8-1.1-5.3-2.4-.3.3 1 .8.6 1.2-1.6-.2-1.1-2.1-.9-3.3.2-1.1.8-2.2 1-3 1.2.6 2.4 1.2 3.5 1.9 1 .6 2.4 1.2 3.3 2.1.6.6.8 1.6 1.3 2.2.8.8 2.1 1.3 3.1 2.1 1.3 1 3.2 1.9 4.1 3 .7.8 2.7 4.3 2.8 5.2 0 .3-.2.8-.2 1.2.1 2.1 1.1 4.9.6 7.1-.1.6-.7.6-.4 1.3-.5.3-1.1 1.1-1 1.8-.4.4-1 .6-.9 1.2-.8.6-1.5 1.6-2.7 3-1 1.2-2.3 2.3-2.8 3.1-.9.4-2.1 2.2-3 2.7-.5.7-1.1 1.2-1.5 1.6-.4.5-.9 1.3-1.5 1.3.1.8.1.3-.3.7-.2.2-.5 1.2-1.2 1.5 0 .9-.7 2.4-.7 3.2 0 1.1.6 2.5 1.2 3.4 1.4 2 5.3 4.5 9.6 4.9 1.9.2 3.8.2 5.6.6 2.4.6 4.5 1.5 7.4 1.2 1.1-.1 1.9-.9 2.7-.9.2-.4.3-.8.4-.9.6-.6.8-.2 1.5-1.8 1.4-3.2-2-8.7-6.8-8.6.1.9 2 1.3 3.5 1.3 1.3 1.2 2.4 3.4 1.9 5.9-.6 1.7-1.1 1.9-2.2 3.1-.7 0-1.5.6-2.7.7-2.3.2-5.4-1-8.7-1.5-4.6-.7-8.4-.3-10.5-2.8-1.8-2.2-1.5-5.2-.7-7.1.7-.7 1.2-1.4 1.5-2.2.4-.1 1.2-.8 1.2-1.3 1.4-1.1 3.2-2.8 4.3-4.3.7-.4 1.3-1 1.9-1.6.7-.7 1.2-1.4 1.9-1.9.4-.8.6-1.4 1.2-1.3 0-.5.4-1.2.7-1.6.1-.1.5 0 .6-.1.1-.1-.2-.4-.2-.4s.4-.1.4-.2c.2-.5.5-.8.7-1.3.2-.4.5-.8.6-1 .1-.1-.2-.4-.1-.4l.3.2c.8-3-.2-6.4-.9-8.6.2-.4.6-.2.3-.7-2.3-6-7.7-8.9-11.5-13.5.1-.4.4.3.7.1-1.9-2.4-5.2-3.3-7.4-5.5 2.4-6.6 3.6-14.9 7.7-20 1.3 5.8 3.8 10.8 6.9 15.1 3.1 4.2 6 8.6 10.9 10.9-5.6-5.1-10.1-11.3-13-19.1-3.2-8.3-2.9-18.1-.1-26 1.4-4.1 4.9-8.3 7.7-11.4.8-.9 1.4-1.9 2.2-2.7 1.3-1.3 2.8-2.5 4.9-4 1.1-.8 2.5-1.3 2.7-2.1.2-1-.8-1.1-2.1-1.6-1.6-.7-2.4-1.2-3.4-1.2-3.1 0-6.8 1.8-9.5 3-2.9 1.3-5 2.9-7.1 4.7-2.1 1.8-4 3.9-5.6 6.2-2.3 3.3-4.4 6.8-4.6 12-.2 5.5.3 12.5 4.4 15.8.3-.4-.1-1.5.3-2.1-1.2-4.3-1.6-8.8-1.2-12.7.4-4.2 2.3-7.8 4.4-10.9.9-1.4 2.2-2.4 3.4-3.7 2.6-2.7 4.3-4.5 8-6.5 1.8-1 3.8-1.6 5.6-2.4-.4.9-1.4 1.3-2.1 1.9-.6.5-1.1 1.2-1.8 1.8-1.4 1.4-2.5 2.8-3.8 4.4-2.4 3-5 6.2-6.2 10.1-1.4 4.6-1.8 9.3-1.9 14.8-.6.4-.8 1-1.2 1.3-1.8 1.9-3.6 5.9-4.7 9-.4 1.1-1.2 2.1-1.5 3.1-.3.9-.2 1.9-.4 2.8-1.2 4.2-2.7 8-4.6 11.5-.5 1.7.3 5.5 0 7.4-.3 1.9-1.8 4.2-2.8 6.1-.3.6-.9 1.1-1.2 1.6-.4.9-.6 2-1 3-1.8 3.8-3.6 6.1-4 11.5-1.1 15.7 8.5 22.9 10.9 36.2.5 2.7.5 5.5.7 8.4.5 5.3.6 11.8 3.7 15.2 2.9 3.2 7.2 5.4 11.8 5.8 6.7.5 13.1-2.9 19.7-4.4 3.9 2.5 5.6 7 8.6 10.3-2.5 0-5 2.2-7.8 3.3-2.3.8-4.8 1.3-7.2 2.1-4.7 1.5-9.4 3.2-14.2 4.3 1.1 2.8 3.5 5.1 4.7 7.2-4.8.7-10.5 1.4-15.8 1.2-.2 3.3.1 7.2-.1 10.5-.2 2.3-1.2 4.2-1 5.8-7.1 5.9-17.1 11.9-23.1 18.8-3.2 3.8-5.6 8.1-5.3 16-1.8-.2-3.4-1.8-4.6-1.8-.7.2 0 1.2 0 1.6-2.8-1.1-5.6-2.3-8.3-3.5 1.9-3-3.8-7.3-6.6-5-.2 0 .1.8.3.9-2.4-1.1-4.5-2.8-6.8-4.3-4.5-3.1-9.6-4.8-14.3-8.1-4-2.8-7.9-3.9-14.6-3.5-.8-.1.5.5-.3.4-1 .1-1.8.3-2.7.4-3.1-7.2-7.8-14.6-10.8-21 1.8-.5 2.7 2.2 4.9 2.4.2-3.7-1.7-6.5-4.6-7.5-.3.4.2 1.3.3 1.8-.1.5-1.1-.5-1.6-.6.1 1.1 1.5 2.3 1 3-1 .1-1.1-1.3-1.5-2.1-1.1-2.4-2.7-5.2-3.7-7.7 1.5-.1 2.5 1.4 3.8 1.9.9-3.5-1.6-6.8-4.4-7.1-.3.7-.1 1.8-.4 2.5-2.1-3.6-3-7.8-4.6-11.8-2.9-7.5-5.9-15.5-7.4-23.9-.8-4.4-1.7-8.8-2.2-13.2-.3-2.8-.5-5.7.1-8.1.5-1.8 2.6-5.4 3.8-6.8 2.3-2.6 5.9-4.3 9.8-6.2 4.9-2.4 9-3.7 16.3-3.1 1.3.1 2.4.7 3.7 1 1.4.3 2.9.2 4.4.3 4 .4 8.2 1.6 12.4 1.9 2.8.2 5.4-.1 8 .1 1.3.1 2.4.2 3.5.1 1.9-.2 4.3-.9 6.5-.3 1.4.3 1.9 1.8 3.5 2.2.2-.5-.3-1.6-.1-2.5 2.5.3 5.1-1 7.8-1.5 2.5-.5 4.1-.7 6.7-1.2 1-.2 2.7-.5 3.1-1.2 1-1.6-1.1-5.6 0-7.8-.8-.9-2-2.3-3.4-2.5-1.8-.2-4 1.3-6.1 1.8-1.8.4-3.6.5-5.3.9-1 .2-1.9.3-3 .4-3 .5-4.9 2.1-7.5.9-.5 0 .5.4 0 .4-5.5 0-10.4.6-15.1-.9-2.9-.9-5.6-2-8.6-2.5s-5.8-1.3-8.7-1.9c.2-1 2.1-.4 3.1-.4.1-1.7 0-3.2-.6-4.3-2.6-5.3-13.4-2.8-20-4.3-.9-1.6-2.3-2.7-4.1-3.4.1 1.2.1 2.3.3 3.4-8.2-.4-15.7.5-21 3.2-3.4 1.8-6.2 3.9-8.9 5.8-1.4 1-2.8 1.9-4.1 3.4-1.3 1.4-2.9 2.8-4 4.4-2.2 3.4-4 7.3-4.6 11.5-.6 4-.2 8.9 0 13.4.3.4-.8.8-.6 1.2.8 1.5 2.3 2.3 4 3 .7-.1.3-1.4.3-1.5 2.4.8 3.9 2.5 7.2 2.1 1.7 17.7 8.1 32.5 14 46-.9-.6-1.4.7-2.7 1-1.5.4-3.4-.2-4 .9-1.1 2.6 2.8 5.5 4.6 5.5 1.8-.1 2.7-2.2 4.4-2.2.6 2.3 1.4 3.8 1.9 5.9-.3.2-.8-.1-1.3-.1-1.9 0-4.8.7-5.8 1.3-.5 3.2 2.2 4.5 4.3 5.6 2.1-.8 2.4-2 4.4-2.5 1.8 5.1 3.3 9.6 5 14.8-.6.5-.8.1-1.9.3-3.2 3.1-3 8.4 0 12 .4.5 1.3.8 1.2 1.5-.3-.4-1-.4-1.5-.7-.8.2-1.3.9-1.9 1.5-.9.8-2.3 1.7-2.2 3.8.1 3.6 3.8 6.9 5.9 9-.2.3-.7-.3-1.2-.3-1.8 3.9 1.5 7.4 3.7 9.6-.7 0-1.1 1.1-1.5 1.8-1.4 2.7-1 4 .6 6.9.8 1.6 1.8 2.6 2.8 3.7 2.2 2.2 4.9 5.3 7.8 4.3 1-3.5.1-7.6-.7-10.6.7.4 3 1.5 3.5.1 4 12.1 8.4 22.6 12.7 33.7-.7.3-1.5-1.1-2.8-1.2-1.5-.1-2.8.8-4 1.2-2-1.5-5.2-4-6.5-.2-.2 2.9 1.3 5.8 3.1 7.8.8 1 3.4 3.1 4.7 2.8 1.5-.4 1.4-3.1 1.2-5 2.1.2 3.7-1.2 5.8-1.5.9 3.3 2.1 6.3 3.1 9.5-1.9-.9-4.4.9-6.2 1.6-1.5-.9-3.4-2.3-4.6-.1-.7 1.3-.8 2.7-.3 4.4.8 2.8 5.3 7 7.1 6.7 1.7-.3 1.4-2.9 1.6-4.9 1.4-.8 2.8-1.6 4.1-2.5 1.6 3.7 2.8 7.8 4.1 11.7-2.2.3-3.6 1.4-5.2 2.2-2.2-2.5-7.8-4.1-7.4 1.5 0 .3-.2.6-.1.7.6 3.1 7.3 9.6 8.9 4.7 2.1.3 4.3-1.5 6.5-1.9 3.8 10.7 6.9 22 10.5 33-1.3-.9-3.4.1-5.9 0-.9-3.6-3.5-5.4-6.7-6.8-1.6 2.8-1.2 8.5 1 11.5.8 1.1 3.5 3.2 4.7 3.1 1.5-.1 1.9-2.3 1.9-3.8 1.8-.1 4.4.3 6.4.4 1.7 5.5 3.9 11.1 5.2 16-.9.1-1.1.4-2.5-.1-.4-3-3.1-4.6-5.3-5.3-.7.6 0 2 0 2.8-.4 0-.5-.3-.9-.3-.1 1.7.7 3.4 1 5.3.3 1.9.2 3.9.9 5.3.8 1.6 2.5 2.3 4.3 3 1.2-1.1.5-3.8.7-6.2.8-.1 1.4-.5 2.2-.6 2.9 6.3 4.8 14.3 6.7 22.3.2 1.1.8 2.4.7 3.3 0 .6-.4.9-.4 1.5-.2 1.2.1 2.4-.1 3.5-2.9-5.4-5-11.1-8.1-16.3-9.1-15.2-18.4-30.3-30.3-42.9-.3-.5 0-.4.1-.9-6.8-7.1-13.1-13.3-18.9-21.6-4.5-6.4-6.2-13.4-6.8-23.4-.1-2-.4-4.6-.6-6.9 0-.6.1-1.5 0-1.9-.6-1.8-3.2-2.5-5.2-2.8-4.3 4.4-8.1 9.8-10.9 13.6-1.7 2.6-4.5 5.6-7.5 9.9-.9 1.3-2 2.6-2.5 4-.7.4-1.4 1.6-2.2 3-.3.5-1.9 2.7-2.7 4-1.5 2.8-2.9 6-4.4 9.2l-6.8 13.6c-1 2.1-2.4 4.2-2.4 5.8-1.3 1.5-2.8 3.3-4 5.8-.7.6.2 2-1 2.2.6 1.5 2.8 1.9 3.8 2.5 3.7-.8 9.2-.6 13.9-.4 9.3.4 16.6 4.2 22.8 8.6 3.1 2.2 5.9 4.6 8.3 7.4 2.5 2.8 4.7 5.8 6.9 8.7 4.6 5.9 9 11.7 12.1 19.2 3 7.2 6.2 14.4 9.6 21.1.8.5 1.1 2.2 1.9 3.1-.4.2-1.2-.6-1.9-.6.7 1.1 1.7 1.7 2.8 2.1.4.6.7 1.2 1.1 1.8h1.9c-.1-.2-.2-.4-.4-.6 1 .1 1.9.4 2.9.6h6.5c1.4-.3 2.9-.8 4.4-.9.9-.1 1.8.1 2.7 0 3.5-.3 7-1.7 9.6-3 2.9-1.4 4.4-3.6 6.5-5.3-.3-.4.6-.3.1-.4.4-.1 1.1-.7 1.3-1.3.6 1.9.3 4.8.6 6.9-1.5.3-2.3 3-1.3 4h3.2c.3-.9.4-2.4 1.4-2.2-.3-2.3 1-3.1 1.5-4.7.3-.3.7.2 1 .3.3-.3-.6-.7-.4-1.3 2.4-4.2 3.9-9.1 6.2-13.9 1.5-3.1 2.6-7.4 4-10.8.5-1.2 1.2-2.7 1.2-3.5 0-.8-.6-1.6-.6-2.4-.1-2.5 1.6-4.3 2.8-6.4 1.9-6.6 3.2-13.5 4.9-20.1-.2-.5.5-.2.7-.3.1-.6-.4-.7-.3-1.3 1.2-2.6.5-6.4 1-9.6.4-2.6 1.7-5.2 2.4-7.8 2-7.6 3.2-16.1 5-24.2 3.5-11.1 5-22.2 7-33.3zm16.7-215.3c-.6.4-1.3.3-1.9.1-.8-1.4.9-2.4 1.9-1.5.1.5.1.9 0 1.4zm23.7 76.4c1-.8 1.4.6 1.9 1-.5.2-1.1-.9-1.9-1zm57-4.3c-.2.5-.5-.1-.4.6-.3-.1-.7-.3-1.2-.3.3-.5 1.1-.5 1.6-.7-.1.3.1.4.1.6-.1.2-.1 0-.1-.2zm-1.8-12c.1 0 .1.1.1.1-1.6 4.2.4 8.5 2.4 10.9-1.2-.6-2.1-1.5-3.4-2.1-2.5.8-4.8 2.6-7.5.9-.7-1.1-1.5-2.2-1.6-3.8 3-2.2 6.5-4 10-6zM427 194.1c-1.8-2.6-3-4.9-5-6.5 4.6-.6 8.7-.2 12.7-.1 10.7 0 19.7-4.4 27.5-8.4.2-.1.2-.2.4-.3 1.5 1.8 3.4 3.3 5.6 4.4-5.8 2.7-12.8 4.6-18.9 7.5-4.2 2-9 3.9-14.2 5.8-1.4.5-3.9 1.7-4.9 1.5-1.2-.3-2.3-2.6-3.2-3.9zm-24.9 16.3c7.9-2.1 15.7-4.7 23.2-7.8 2.8-1.2 6.8-2.9 9.5-1.8 3.8-1.2 7.2-2.7 10.6-4.1 0-.2-.4-.1-.6-.1 6.6-2.8 13-5.8 20-8.3 1-1.3 3.3-4 5-1.8.7-.4 1.5-.5 2.1-1-.3 1.2-1.6.9-1.8 3.1-1.5 1.5-2.7 3.4-4 5.2.3.3.8-.5 1.3-.4 0 .7-.3 1.1-.3 1.8-2.9 3.4-6.9 5.2-11.4 7.8-5.8 3.4-12.1 5.9-20.3 6.8-4.7.5-9.7 1-14.8 1.5-.5-.1-.1.7-.6.6-4.3-.2-7.7 3.1-11.8 4.1-.7.2-1.5-.2-2.4 0-1.4-1.7-2.6-3.7-3.7-5.6zM292.2 322.3c-1.2-1-1.3-3.4-2.1-4.4.2-.8.6-1.5 1-2.4 1.7.9 2 5.3 1.1 6.8zm2.9-4.6c-.1-.1-.1-.4-.3-.4.1-.3.6.2.9.2-.2.1-.4.2-.6.2zm2.6 17.3c.5.8 0 .8-.2 1.6-1.1-1.4-.7-4.1.4-5.2.9.3.9 1.5 1 2.5-.4.4-.9.6-1.2 1.1zm4.9 14c-.1.9 1.3 1.5 1 2.5-.4 0-.9 1-1.6 1.2-.9-2.3-.5-4.4 1.3-5.3.4.1.3.7.4 1-.5 0-.7.4-1.2.4.3.3.1.5.1.2zm11.4 33c.7.9 1 2.3 1.3 3.5-1.7 0-1.2-1.7-1.3-3.5zm.9 8.6c-.3-.1-.1-.8-.4-.9 0-.4.4.2.6.1 0 .4-.4.4-.2.8zm.4-3.3c-.3 0-.1-.6-.4-.6 0-.2.8.1.7.4-.2.1-.3.1-.3.2zm75.5-168.6c4.2.4 8.5-.3 12.4-.6-.2.5-1 .9-1 .9 0 .5 1 1 1 1.6.3 2.5-3.4 3.3-5.3 4.4-1.6 1-3 2.3-4.1 3.1-1.9 1.4-3.3 2-4.4 3.3-.2-1.6 1.3-3.4 1.6-5.3.4-2.5-.3-5-.2-7.4zm-29.1 44.8c.5-2.5 1.6-5 2.8-6.9.9-1.5 1.5-2.2 2.8-3.5.6-.6 1.1-1.4 1.6-1.9 2.7-2.8 6.4-5.1 9.8-7.5 2.5-1.9 5-3.8 7.2-5.8.7 0 .8 0 1.2-.1 2.8-1.9 7-5.3 9.8-7.2.1-.1.4-.1.5-.3-11.9 23.4-15.4 55.3-20 85.1-3.6-6.5-7.2-13-10-20.2-2.7-6.9-4.3-15.2-5.8-23.5 0-.4 0-.7.4-.6-1-1.6-.8-5.4-.3-7.6zm-4.7 26.9c2.2-5.6 1.8-15 0-20.5.6.1.9.4 1.5.6 1.9 12 4.7 23.1 9.8 31.9-5-2.2-9.6-6-13.5-9.9 1.1-.6 1.4-2 2.2-2.1zm-15.1-29.6c.6 0-.1.5-.1.7-.5.1-.6-.2-.9-.3.3-.5 1 .2 1-.4zm-36.1-14.3c3.9-.3 7.8-.9 10.9.6 2.1 1 3.9 2.8 6.1 3.8 6.4 3.2 12.4 7.2 18.3 10.9-.4.7-1.5.3-2.1 0 .8 1 3.5 3.7 5.5 2.2 3 1.6 6 3.2 9.3 4.4 1.6 5.7 1.6 14.5-.1 19.8h-.4c.4.4-.6.2-.7.7-5.3-1.7-9.5-6.2-15.1-7.7-.8-.2-1.8-.1-2.8-.3-1-.2-2-.8-3-.9-3.2-.4-6.7.8-10.3.4-2.3-.2-4.1-1.1-5.9-2.1-4.2-6.9-7.1-15.1-10.2-23.1 2.3.8 5.3.9 7.8 1.5 2.2 2.5 4.2 5.2 7.4 6.8-3.6-4.4-7.5-9.7-15.7-9.9-.8-.9-2.9-.5-3.4-1.6 0 .4.3.5.3.9-.6-.2-1.5-.2-2.2-.3-3.3-3.2 1.7-8.5 6.3-6.1zM340 132.4h1.6c.7-.2-.3-.4.1-.7 4.4-1 9.3-1.3 13-3 .3 1.7.3 3.7.4 5.2-3.9 1.8-9.7 2.2-14.6 3.4.7-2.4-.7-2.6-.5-4.9zm-42.6-13.6c-.3.9-.1 2.2-.4 3.1-4.5-.7-9.3-.1-13.6-.9.2-.5-.1-1.8-.1-2.8 4.3-.4 8.9.8 14.1.6zm.8 5.6c-1.1.3-2.3-.5-3.7-.4.5-.4 3.1-.3 3.7.4zm-11-1.1c-.7.4-2.2 0-3 .3.8-.5 2-.4 3-.3zm-6.2.6c-1.4.9-3.4.7-4.9.9-1.4.2-2.8 1-4.3 1.3-1.7.4-3.5.3-5 .7-2.8.9-5.1 3.4-8.3 3.4 5.8-3.7 14.1-5.6 22.2-6.5.1.1.2.2.3.2zM240.2 159c-.2-8.1-.3-16.6 3.4-21.7.8-1.3 1.5-2.5 2.4-3.5 2.5-2.9 4.7-5.3 7.2-7.1.7-.5 1.2-.8 1.8-1.2.5-.3.9-.7 1.6-.9.3-.1-.1-.6.1-.3 5.7-4 12.9-6.5 22.9-6.2.2 1 .3 2 .4 3.1-22.4 2.4-37.8 9.2-38.9 32.2-.1 1.7.2 2.6.1 3.8.7.7 1 1.7 1.9 2.1-.9.5-2 .1-2.9-.3zm7.6 1.6c-.7.1-1.6-1.1-2.8-1-1.3-13.6 4.4-24.1 12.3-28.5 0 0 .3.8.2.9-1.8 1.8-4.1 3.5-4.7 5.2-4.7 4.5-5.8 15.2-5 23.4zm24.2 87.2c.1-2.4.3-4.5 1.8-6.1.6 1.8 1.1 3.8 1.8 5.6.9 1 2.2 1.7 3.4 2.4-.2-.6-.3-1.2-.6-1.6 2.2 1.4 5.4 5 4.1 8.9h-1.3c0-.4-.3-.6-.3-1-1.8.1-2.3-1.3-3.2-2.1-.3.1.2.6.1.9-2.4-.4-3.4-2.1-4.7-4-.9-1.2-1.2-1.1-1.1-3zm8.7 42.1c-1.9-1.7-4.9-5.1-4.9-8.3 0-1.5 1.4-2.6 1.9-4.1.9.6 1.7 1.3 2.8 1.6.2 1.5 1 3.2 1.2 5.3.2 2.1.5 4.6-1 5.5zm3.3-10.3c-.2 0-.3 0-.3.2-1.1.1-1.2-.7-1.9-1-.4-.1-.9.1-1.5-.1-2.7-.9-7.5-6.8-5.8-10.6 2.2 2.3 5.3 3.6 8 5.5.4 1.8 2.1 3.9 1.5 6zm-2.5-9.6c-.3.1-.4.4-.7.4.3.7.8 1.2 1.2 1.8-3-1.4-6.2-3.8-8.7-6.8-2-2.5-4-5.3-2.7-8.9.8-.8 1.8-2 3.5-2.7-.2-.3-.5-.6-.7-.9.8.3 2 1.4 3.1 1.9.7 1.5 1.7 2.7 2.5 4.1.9 1.5 1.2 3 1.8 4.7 1.1 3.1 3 6 3.7 9-1.2-.7-2-1.8-3-2.6zm17.1 46.5c.7-.1 1.1-.4 2.1-.3.2 1.1.5 1.3.7 2.4-.8-.9-2.1-1.2-2.8-2.1zm8.6 34.5c.4-.6 1.3-1.1 2.1-1.5.8-.4 1.7-.6 2.4-1.2.4.5.5 1.3.7 1.9-2-.5-4 1.1-5.2.8zm15.6 36.9c.3-.3 1.3 0 1.6-.3 0 .6.5.8.4 1.5-.6-.4-1.1-1-2-1.2zM250 353.3c2-2.4 4.2-5.2 6.1-7.7.9-1.3 1.4-2.4 1.9-3.1.5-.6.8-1 1.2-1.5 2.2-3.2 5.5-6.9 8.6-10.9-3.5 7.8-9.3 13.9-13.7 21.4-1.6 1.8-3.8 5-4.9 7.2-2.3 2.7-4 5.7-5.9 8.6-.4.5-1.1 1.1-1.5 1.6-.3.4-.4 1.5-1.2 1.6 2.8-6.1 6.8-13.2 9.4-17.2zm42.2 84.3c-3.7-6.8-8.6-12.5-13.2-18.5-6.7-8.8-15.5-15.7-26.6-20.8-3.7-1.7-7.8-3.4-12-3.7-4.4-.3-8.2-.1-12.6-.1 2.4-4 4.7-6.5 7.5-10.2 3.2-4.1 4.5-5.6 7.1-9.3 8.3-11.6 16.5-24.4 25.4-36.7 0-.2-.2-.6 0-.3.9-1.2 1.6-2.6 2.2-3.7 1 3.5.7 7.1 1.5 10.5 1.7 7.2 5.7 12.4 9.9 17.7 4.1 5.2 8.9 10.1 13.5 14.6 0 .5.4.6.3 1.2 4 4.9 8.3 9.5 12.1 14.5 3.8 5 7.1 10.5 10.5 16 3.4 5.5 7 10.8 10.2 16.4 1.7 2.9 2.6 6.2 4.1 9.2.8 1.5 1.5 3 2.2 4.4 1 2.1 1.7 4.7 3 6.1-.4.5-.8 1.1-1.3 1.8-2.8 3.7-7.5 7.5-13.3 9.9-5.8 2.4-13.1 4.8-20.7 2.8-3.8-7.1-6-14.8-9.8-21.8zm46 15.8c-1.5 1.9-2 3.2-4 4.3-1.3 2.2-3.6 4-7.1 5.3-3 1.1-5.5 1.7-9.2 1.9-4.2.2-8.5 2.3-12.4.9-.9-1.9-1.9-3.6-2.8-5.5 6.7 4.1 17.6 1.2 24.5-1.9 2.2-1 3.8-2.3 5.6-3.7 2.1-1.6 4.3-2.7 4.9-4.1 0-.2.1-.1.1 0 .3-.4.8-.5.9-1 .8 1.5.8 2.9 1.3 4.6-.2 0-1.3-.5-1.8-.8zm22.3-49.2c-.4 1.7-.8 3.3-1 4.9-.6 3.4-1.6 6.2-2.4 9-.9 3.6-1.3 7.2-2.4 10.6-1 3.3-2.3 6.6-3.4 9.9-2.2 6.7-5 13.2-7.7 19.5-.5-5.2-2.2-8.8-3.5-12.9 0-.6.9-.4.9-1 0-1.7.8-4.6-.1-6.2-.1-.7.9-.2.7-.9-1.8-9.4-3.9-17.3-7.4-25.4-.1-.6.7-.2 1-.3-8.6-24.2-16.9-53.9-26-77.7-.2-.6-.1-.7.4-.4-1.5-2.1-2.5-5.4-3.5-8.4-2.3-6.5-4.3-12.7-7.2-19.2-2.8-6.2-4.6-13-6.9-19.8-.8-2.2-1.9-4.3-2.7-6.4-.4-1.3-1.2-3.4-1.3-4.6-.1-.8.2-1.2.1-1.8-.2-1.9-1.4-4.2-2.2-6.1-1.4-3.2-3.6-5.5-4.6-9.3 1.2-.1 2.4 2.3 4.3 1.6.8-.3.7-2.2.4-3.4-.8-3.2-4.5-5.9-5.9-7.8.4-.5 1.1-1.5 1.8-2.2-.7-1.7-3.6-3.4-4.3-1-2.2-7.9-5.6-15.9-8.3-24.1-2.5-7.9-6.3-15.4-9.5-23.2-2.9-7.2-5.9-16.3-7.4-24.4-1.7-9.4-2.6-19 .2-28.1.9-3 2.4-4.7 3.8-6.7.3-.1-.1-.6.2-.3 2-2.3 4.6-4 6.8-6.1 3-.4 4.9-2.3 7.7-3 2.1-.5 4.3-.8 6.5-1.5 2.1-.6 4.4-.7 6.8-1.2 4.9-1.1 9.9-.9 14.6 0 2.3.4 4.7.5 6.9 1 2.1.5 4.1 1.1 6.2 1.5 2.2.4 4.5.9 6.5 1.5.8.3 1.5.9 2.4 1.2 4.3 1.3 10.5.9 15.8.7 0 2.2.5 3.1.6 5.3-9.9.9-19.6.3-28.2-.7-2.9-.3-5.7-.8-8.4-1-1.5-.1-2.7-.9-4.1-1.2-2.1-.3-6.8-.6-8.7-.1-2.4.5-5.1 1.5-7.5 2.7-3.4 1.6-6.4 3-8.9 5-1.9 1.6-5.4 6-5.9 9.2-.7 4.6.1 9.7 1 14.2 1 4.8 1.3 8.5 2.5 12.7 2.3 8.2 4.8 15.2 7.8 23.4 5.7 15.6 14.5 29.5 21 43.3-7.2 2.1.8 9.4 4.6 10.1 2.4 6.2 4.5 12.4 7.7 18 3.1 5.6 5.8 11.3 8.6 17 5.4 11.2 10.4 23.1 15.4 35.6 2.4 6.1 4.7 12.2 7.2 18.2 2.5 5.8 4.6 12 7.2 18 4.4 10.1 8.6 21.5 11.7 33.3.4 1.6 1.5 3.5 1.5 4.6 0 1.2-1 3-1.4 4.4zm3.7-18.5c-.3.8-.8-.2-1.2.4.2 2.2-.2 3.9-.6 5.6-5-14.5-10.8-28.8-16.3-42.9-1.8-4.7-4-9.2-5.8-13.9-3.5-9.2-7.3-18.6-11.4-27.9-1.9-4.4-4-9.1-6.2-13.6-2.3-4.6-4.3-9.6-6.7-13.6 1.3.3 3.1 1.4 4.4 2.1 7 16.7 12.6 34.9 20.1 51 2.8 6.1 5.9 12.1 8.7 18.2 4.7 10.2 8.6 20.8 13.3 31 1.4 1 2.7 1.6 1.7 3.6zm.9-3.8c-3.4-7.9-6.8-15.9-10.2-23.9-5-11.9-11.8-22.9-16.3-35.5-1.5-4.2-2.9-8.4-4.6-12.6-2.5-6-4.8-12.4-7.2-18.5-1.2-3-2.1-5.7-3.1-8.7 1.6.6 3.6 0 5.6.1.2.8-.5.7-.4 1.5 1.3 1.4 2.9 3.2 5.3 3 .3-1.3-1.5-1.4-1.5-2.1.4-.3.9.3 1.6.1.1-1.9-1.6-2-2.5-2.8 8.8-.3 14.2 3.9 20 7.1.7.1-.3.5-.4.7 2.1 2.2 4.9 4.6 7.7 6.9 2.5 2.2 7.2 5 9.3 5.6 1.9 3 3.6 6.2 5.2 9.6 1 2.2 2 4.4 3.4 6.2-3.7 22.2-7.1 43.4-11.9 63.3zm167-275.1c-.7 0-1.3.6-1.3 1.3 0 3.7.1 7.4.1 11.1 0 4.5-.1 8.9-.8 13.1-2.1 14.1-9.9 23.8-16.7 36.8-.3.6-.1 1.4.5 1.8.2.1.4.2.6.2.5 0 .9-.3 1.2-.7 6.7-12.7 14.8-22.7 17-37.6.7-4.4.8-8.9.8-13.5 0-3.7-.1-7.4-.1-11.1 0-.8-.6-1.4-1.3-1.4zM315.6 288.9c-3.7-7.4-6.9-16.1-11.2-23.1-1.4-2.3-3-5.2-4.6-6.7-.4-.4-2.1-2.2-3-1.3-.4.3-.7 2.1-.7 2.5 0 2.2 1.2 4.8 1.6 6.1.2.7.2 1.5.4 2.1.8 2.3 2.4 4.5 3.5 6.8 1.2 2.4 2 5 3 7.5 1.9 4.9 4 9.9 6.1 14.8 12.2 28.9 22.9 62.1 32.5 90.8 1.1.7 2 1.6 3.4 2.1-9.7-28.4-18.6-57-29.6-83.2-2.2-5.3-4.6-10.5-6.8-15.8-2.2-5.2-3.8-10.7-6.5-15.8-1.9-3.6-4-7.7-4.9-12-.3-1.5-.8-3.2-.2-4.7 1.5 2.2 2.6 4.7 3.7 7.1 3.5 7.7 7.3 15 10.8 22.6 4.6 10.1 9 20.4 13.3 31 7.4 18.2 13.9 37.7 20.4 56.9 1.6 4.7 2.3 9.1 6.5 10.5-8-21.9-15.1-44.5-24.1-66.7-4.1-10.5-8.6-21.6-13.6-31.5zm26.5-6.4c.7-.2 1.5-1.5 1.2-2.5-.4-1.2-3.3-2.3-4-2.5.4.2.5 1.3.3 1.3.1 0-.1-.5-.2-.4-.2.4.2.5 0 .7-.5-.1-1.3-.6-1.6-.4-.5 1.8 3.2 4.1 4.3 3.8zM44.7 201.6c0-.5-.3-.8-1-.9-.2.6-.3 1.2-.5 1.8-5 14-9.7 28.4-14.6 43-4.9 14.7-12.3 29.7-13.7 44.5.2-1.7 4.2-12.1 5.5-15.9C25.7 258.5 30 245 36 229.5c-5.8 21.7-11 44.3-16.4 64.3 10.2-28.6 17.2-61.7 25.1-92.2zm301.6 66.7c-.2-1.6-2.2-2.5-3.2-3.1-1.3.6-1.7-.6-3.1-.1-3.1 3.6 7.3 9.2 6.3 3.2zm-3.5-2.9c.6.1 0 .7.3.9-.2.2-.6-.6-.3-.9zm85.9-176.8c-.3-.5-.4.5-.9.4 4.3 12.3 14.7 19.9 25.1 26.3-6.6-4.7-13.1-9.6-17.7-16.1-2.1-2.9-3.3-6.4-5.2-9.3-.3-.4-.8-1.4-1.3-1.3zm8.3-54.8c-2-.7-4.7-.8-6.9-.7 1.2 3.6 6.1 1.6 9.9 3-.3-1.3-1.9-1.9-3-2.3zm-144.3 265c-.4-.6-1.4-.5-2.1-.9-.3-.2-.4-.8-.7-1-1-.8-2.7-1.9-3.7-1.8-2.9.4.1 4.3-.6 5.6.7 3.2 2.8 6 6.5 6.7 1.9-1.6.7-2.6.4-5.3.4.4.8-.2 1.3-.1-.1-.6.2-.7.4-.9-.8-1-2.3-.2-2.8-1.5 1 .2.9-.5 1.3-.8zm-3.1 5.5c-.5-2.2-3.3-5.1-1.2-7.2.5 0 .5.4.9.7-.1.2-.5.2-.7.3.5.9 1.9 1.8 1.9 3.6 0 1.1-.5 1.9-.9 2.6zm46.4-18.8c-.1 2.1 2.7 2.8 4.3 3.5.8-.9 1.3-1.3 1.3-2.1.2-2.1-5.4-4.9-5.6-1.4zm114.7-154.2c-2.5-2.3-6.2-2.6-9-4.6-2.1-1.4-4.3-3-6.8-3.8-2.5-.8-5.2-.6-8-.3-.5.3.5.5 0 .7-.7.1-1.3.4-1.8.7.4.3.7.7.7 1.3.9.4 1.6.3 2.7.9 1-.5 2.5-1.2 4-.7-.7 2.9 1 4.4 2.5 5.5-2.3-.3-4.2-1.8-5.9-2.2 3.2 2.7 7.5 4.4 12.4 5.3-.2-1-1.3-1-1.9-1.6 2.5-.2 2.1-1.8 2.7-4.1 3.1 1.5 4.9 5 8.1 5.9-1.6-1.7-3.3-3.3-5-4.9 1.5.7 3.1 2.2 5.3 1.9zm-16.7-3.2c-.5-1 .3-2.5 1.5-1.8.7.9-.2 2.5-1.5 1.8zm-250.6 81.5c3.9 1.6 10.2 1.2 9.7-3.4-.4-3.9-6.9-6.8-9.9-2.9.7 1.4-.4 4.1.2 6.3zm3.1-5.2c2.4-.2 3.2 1.1 3.8 2.7-.8.7-2.8.3-4.2.4-.1-1.2.3-2 .4-3.1zm-.8-8.2c5.1 1.5 10.6.4 9.9-4.6-.5-3.9-6.5-5.4-10.1-2.9.6 1.9-.6 5.5.2 7.5zm2.7-5.7c4.1-2.2 6.6 5.2 0 3.2v-3.2zm293.9-42.3c-1.1-.3-1.9.3-3.7-.1-.7.8-1.7 1.6-2.1 2.7-1 3.3 1.3 6.6 3.1 7.4.3-1.7-.4-6.9 2.5-7.8-.5-.2 0-.6-.4-.9.3.1.9-1.1.6-1.3zM180 186.7c.5 9-2.7 18.3-1.7 27.1 4.9.1 9.2 1.7 13.9 1.5 8.1-.4 9.8-9.2 5.3-14.9 5.2-1.3 5.6-8.7 3.2-13-1.7-2.9-5.9-3.9-10.5-4.4-4.2-.5-6.3.1-8.4 1.5-.4 1-1.2 1.5-1.8 2.2zm6.1-1.2c2.6-.4 10.7 1.3 11.8 2.7 2.2 2.8 1.8 8.3-1.1 9.7-1.6.7-6.1.1-6.3 2.1-.2 2.6 4.7 1.1 5.5 3.2.8 2.6 2.1 5.6.4 7.6-2.9 3.4-11.3.8-15.8.4.8-6.6 1.2-11.1 1.9-17.7.4-3.6-.1-7.5 3.6-8zm-46.5 52.6c.4-1.8-2.6 0 0 0zM482.2 129c-2.9-3-6.4-5.5-9.9-8.1-5.8-4.4-11.8-8.4-16.4-13.7-1.2-1.4-2.3-2.8-3.4-4.1-1-1.3-1.8-3-3.4-3.8 1.3 4.3 4.5 7.6 7.7 10.5 2.8 2.5 5.8 4.6 8.4 6.6 5.9 4.4 11.7 8.5 17 12.6zM124.6 324c-.7 3.3-3.7 6.9-.1 10.2 5.3-3.6 5.6-10.9 7.9-17.8 4.4-13.2 11.8-27.8 16.2-41.9 4-12.9 10-29.1 2-34.1 5.6 7.6-2.8 23.7-8.2 38.3-4 10.9-6.7 22.3-11.4 28.4 2.7-11.7 4.4-22.9 7.2-34.7.7-1.1 3.1.6 3-1.8-.8-.6-3.3-.1-2.8-1.4 2.6-11.7 8.9-25.5 1.2-31.1 5.7 7.4-1.7 19.5-4.8 30.2-5.2 18.2-6.8 38.8-10.2 55.7zm81.3-136.9c.7 2.1-1.2 6.1 0 8.6 1.7.3 4.3-1.1 6.5-.2-.2 5.1-1.1 9.5-1.3 14.7-1.8.4-6.4.9-5 3.2 1.1 1.7 9.5-1.4 11.8 0 2.2-2.2 8.5 1.9 8.4-2.3-.9-1.5-4.3-.6-6.1-1.3 1.1-5.2 2.7-9.9 3.2-15.8 3-1 5.2 2.2 6.9 1.7 1.5-.4 1.2-3.5 1.5-5.3.3-2.1 1.4-3.8 1.3-5.7-.8-1.2-2.1-.7-3.4-.6-4.4.2-9.7.4-13.9.4-4.1.1-8.4-.4-9.9 2.6zm23.5-.2c.6.9-.8 3.3-.6 5-2.8-.3-7.5-1.7-8.8.6 1.1 6.3-1.9 11.7-2.7 17.4-1.1.1-2.2.3-3.4.4-.1-3.2.8-6.6 1-9.9.2-3 .8-6 0-8.4-2.3.1-3.7.4-6.5.4.1-1.7.5-3 .6-4.6 5.5-1.4 14.1 0 20.4-.9zm271.3-92.2c2 5.8 3.6 11.5 7.2 15.5 0-3.5-1-5.5-2.1-8.3-4.6-11.9-8.1-24.8-14.2-34.9-7.1-11.7-17.4-20.7-30.2-26.5-.2 0-.2-.2-.3 0 6 3.5 11.6 6.3 16.1 10.8 4.5 4.5 8.5 9.4 11.8 15.2 5.1 8.8 8.4 18.9 11.7 28.2zm7.3 70c1.8-1.9 2.8-5.7 1-8.1-1.9-2.6-6-4.5-8-1.5.6.1.8.6 1.3.7.4-.4.5-.4.9-.4 1-.1 2-.7 2.8-.3 2.3 6.6-4.2 11.2-11.1 9.2-4.1-3.9-1.6-10.4.9-13.3.9-1 2-1.8 3.4-2.8.4-.3 1.1-1.3 1.8-1.8.6-.4 1.7-.4 2.2-.9-2.4-.8-5.8-.6-7.8.6-1.6.9-2.2 2.6-3.4 3.3-.9 2.1-3.1 4.4-2.7 8.3 1 7.4 13.6 12.5 18.7 7zM88.3 334.1c-3.8-4.6-9-5.3-12.1 1.9 0 0-.5-.2-.6-.2-.6 2.2-1.2 4.4-1.7 6.6 2.8 8.8 12.6 2.3 14.1-4.6 2.2.8-.9 4.6 1.9 5 2.4.6 3.9-.3 4.5-2.7-.9-2.5-4.1-1.2-4.6-4.4.3-2.9 5 1.6 5.4-1.1 1.1-2.5-4.6-1.1-2.8-4 6.1-9.9 11.1-21.7 15.9-33.6-1.7 12.5-2.6 24.5-2.4 35.9-.2 3.2-3.8.4-4.5 2.6-.9 2.7 4.4.1 5.1 2.6-.8 5.8-2 11.1 2.4 12.8 6.5 2.6 12.1-9.9 7-14.2-3.1-2.6-4 1-8.3-.3.5-28.2 5.1-73.1 28.5-86.1-9.3 2.4-18 13.3-22.5 26.8-.6-11.9 7.2-23.3 13.9-28.4-14.2 3.2-14.8 25.6-19.4 41.7-4.6 16.9-13.9 31.5-19.8 43.7zm-10.6 11.3c-3.7-4.1.9-14.8 5.4-13.3 5.1 1.8 1.1 14.3-5.4 13.3zm35.3-7.3c4.1 1.6 1.2 11.2-2.4 11.6-5.2-1.1-2-12.3 2.4-11.6zm391.6-154.7c3.7-.1 7-3.4 6.9-6.9 0-2.3-3.7-4.2-6.2-4.4.4 1.3 1.8 1.6 2.8 2.4-.7 4.3-3.9 7.5-9 6.4-1.4-2.3-1.9-4.6-3-7.1.2.3-.5-.9-.4-.3-.1 0-.2 0-.1-.1-.3.2-.9.5-1.6 1 .7 4.3 6 9.1 10.6 9zm-342.5-8c1.2 1.6 5.5 1.7 6.7.4 3.1-3.1-2.6-11.7.2-15.3 3.2-.5 6-1.5 9.5-1.7.8 5.8-.8 13.9 1.7 18.1 2.3-.4 4.5-.9 6.7-1.5.4-5 0-13.1.2-18.7.1-3 .6-9.1-1.7-8.4-1.5.4-3 .4-4.8.6-1.7.2-3.3 1.1-4.8 1.1-1.1 0-2.2-.6-3.4-.6-3.8-.1-7 .3-10.1 1-.7 1.1 0 2.4-.8 3.4 2.1 5.4.4 15.4.6 21.6zm22-23.9c-.1 6.9.6 15.1-.2 21.9-1-.2-1.4.3-2.3.2-.2-5.9.5-12.7-1.1-17.2-5.2-.5-10.3.9-14.3 2.3-1.5 5.2 0 9.8.4 15.1-.9-.2-1.1.3-1.9.2.1-5.6 1.5-16-.6-21.2 6.8-.8 13.7.3 20-1.3zm321.7 36.6c1.7 2.5 7.8 4 9.8.6v-9.6c0-1 .4-2.7-.4-3 .6 7-2.5 13.7-9.4 12zm-17-50.6c-1.4 2.7 1.5 3.2 3 4.1 0-.5.2-.8.1-1.5 2.1-2.6 5.2-4 9-4.9-1.3-4.8-10.9.1-12.1 2.3zm-4.1 36.2c-2.5 4.3 3.6 10.2 7.7 10.2-1.1-.8-2.1-1.8-3.7-2.2-1-1.6-1.7-5.3.1-6.5-.2-.8-.3-1.7-.7-2.2-1.3.2-2.5-.7-3.4.7zM30 396.5c9.5-.4 14.4-17.9 6.8-23.2-3.3-2.2-8.3-1.3-12-3.2 3.9-35.9 12.1-75.5 24.6-117.3.1-.7-.4-1.1-.9-1.5-2.1 3.1-2.3 9.4-4.5 12.3 0-4.6 3.8-8.3 1.8-11.7-8.6 29.4-19 56.6-29.5 80.1-4.9 11-9.2 22.1-16.4 30.3-16.8-13.2-28.9 15.7-16.5 21.2 12.8 5.7 15.1-10.8 21.5-18.1 3.5 2 11.1 3.2 16.3 6.2-4 12.3-2.6 25.4 8.8 24.9zm-44.5-13.7c-10-2.5-4.4-21.9 6-20.2 12.3 2 2.7 22.4-6 20.2zm20.6-22.1c8-16.5 15.6-33.7 23.5-50.2 0 16.6-5.1 38.3-7.3 54.5-5.9 1.3-12.9-.5-16.2-4.3zm25.2 13.7c13 .7 5.2 21.8-4.5 19.4-10-2.6-4.8-19.9 4.5-19.4zm473.3-242.9c1.2 3 1.6 6.7 4.1 8.7 1.5-2.1 0-4.8-1-7.1-2.3-5.2-5.5-8.9-9-12.3-5.2-4.9-10.7-8.9-15.1-12.9 7.4 8 16.7 13.1 21 23.6zm-334.8 238c12.2 13.1 21.5-13.1 12-18.6-4-1.1-8-2.1-12-3.2-2.1-28.8 2.5-62.2 15.7-95.9 0-.7-.4-1.1-.9-1.5-6.1 8.8-6.9 26.5-12.7 35.8-2.3-5.1 1.3-13.2 2.8-20.4 1.3-5.9 3.2-11.9 1.7-16.2-6.6 33.1-15.4 71.4-33.6 93.1-2.7-1-4.8-2.3-8.2-2.8-12.9.3-13.6 27 .8 21.4 5.7-2.2 6.6-16.5 12.4-17.9 2.3-1.8 6.5 3.5 7.5.7-1.3-2.3-6.4-2.4-6.2-5.5 6-12.9 12.1-25.8 19.3-36.6-1.2 14.2.2 26.9-2.1 41.8-1.8 1.9-6.2-.7-8 1.1 2.1 2.5 6.9 1 8.8 3 2.2 5.6-1.9 16.8 2.7 21.7zm-38.6-9.6c-8.2-1.3-5.4-17.3 1.6-18.2 11.2-1.4 6.5 19.5-1.6 18.2zm44.5-8.1c11.1-.2 9 20.5 0 19.3-7.7-1.1-10.5-19.1 0-19.3z" id="Layer_1"/><path class="st0" d="M145.5 62.7c-2.2.5-2.4-2.3-3.9-2.9-4.7 2.3-7.1 1.5-10.1 5.7-5.8.4-11.1 1-13.6 0l.4 1.5c-4.9.5-5.2 3.8-7.9 5.7.2.9.4 1.7.6 2.6-2.7 1-.9 8.5-2.7 11.5 1.8 11.9 4.9 19.5 13.9 21.8 3.6-2 4.8.3 6.6-2.1 3.2 1.7 8.2-5.5 9.5-8.2.8.6 1.6 1.1 2.6 1.6.9 6.1 4.4 6.2 9.8 4.8.9-12.8-1.8-25.3-5.2-42zm-14.9 29.1c-4.8 3.1-5.4-2.1-7.9-3.6.2-4.6 1.7-8.3 3.8-11.8 1.5-1.4 2.5 2.1 2.1-.5 1.9 2.3 2.1 7.4 2.4 10.3-1.3-.9-.6 4.5-.4 5.6zm80.5-41.9c2.1.3 2.4-.6 3.1 1.5 2.1-1.7 4-.5 7.1-2.2.1 2.5.9.3 1.4 1.3-1.5 3.9-1.1 11.2-2.6 14.2.1-.2-.5-1.1-.8-.9.8 3.3-1.8 5.7-1.1 9 .8 4 2.3 6.7 2.6 10.8 1.4-.9 1.2.9 1.5 1.8 11-2.5 21.1-6.7 35.9-11.8-1.2-6.8-1.1-6.9-3.2-11.2-4.8 1.8-6.4.9-8.5 3.1-6.8-.6-8.8 1.6-15.3 2l-.6-2.6c5.1-6.6 9-11.7 11.8-19.1 1.6 1.1 1.8-2.6 3.5-1.4-.6-2.3-1.5-5.6.4-2.8-.9-4.7-1.9-6.2-2.8-9.7-4.4-1-10.8 1.8-12.5 2.4-1.5.5-2.9-1.2-4.1-1.2 0 0 .2 1.1-.3 1.2-1.7.1-5-.6-6.6 2.1-2.8-.7-6.7 2.4-11.6 1.7.9 3.1 2.3 4.1.4 6.4 2.8-1.2 2.2 4.2 2.3 5.4zM89.5 132c-.1-.6-.4-1.4.2-1.7.2.4.3 1 .8.9 6.5-5.7 12.1-8.1 12.6-18.2 2.1-.2-.4-5.9 1.9-5.9-1-7.3-.7-8.7-2.9-16.7.5-.1.7.3 1.2.3-2.3-10.2-5.1-24.7-6.9-37.6-1.3.1-.1-3.1-1.6-4.5 2.9-.5 5.2-1.5 7-2.7.2.8.4 1.8 1.4 1.3.8-2.7-2.6-13.7-3.5-17.1-5.3 0-12.8 1.1-18.4 4.9-5.5-1-8.7 2.1-15.7 2.6-.2 1.4-1.5 4.6-2.6 5 1.1 3.2 1 5.6.2 7.6 5.2.7 9.8-2.1 15.3-2 1.6 10.5 7.6 24.1 7.8 35.2 0 2.2 2.4 6.5 2.2 9.3v.5c0-.1.1-.3.3.6.4 1.9-2.2 4.8 0 7.1-.2.1-1.2-.3-1.2-.3-.3 5 .6 10.4-3.3 13.8-8.1 1.4-14.2-7.9-13.8-14.7 0-.6 1.2 0 .8-1.3-3.8-12.1-8.7 1.3-16.2.6-.2 4-3.6 3.8-4.7 7.7l.2 1c2.5-.3 2.4 5.1 4.2 3.9.8 1.5 0 2.1-.4 2.8 4 1.1 4.2 8.5 8.2 9.5-1.1 1.2.6 2.1 1.9 3.4 3.1 3 11.2 6.6 15.2 6.7 2.4-1.7 4.4.2 9.8-2zM172 66.2c-1 6.4-2.4 12.6-5 18.1.1 1.2.5 2 1.1 2.5l-1.5.4c1.6 3.8 3.1 8.8 5.6 12.3 3-.3 4.9-3.4 7.7-1.8-.5-2.5.9 1 2.6-.6-.1-.6-.4-1.4.2-1.7.7 2.5 4.2-1.1 4.9-.1-.1-.6-.4-1.4.1-1.7.9 1.4 1 .5 1.5-.4 1.5 2 6.1-2.8 9-1 0-.4-.2-1 .3-1.2.6 1.9 2.2-.6 3.3.3-.6-1.3-.2-1.9 1.2-1.9-3.5-4.8 0-12.4-5.5-14 .4 4.8-8.9 3.5-10.6 5.8-.6-1.7-1 1.2-2.4-1.1.3 1.5-2.4 1.5-3.6.9-.1-.8-.6-1.9 0-2.2-.1.2.6 1.2.8.9 2.9-5.6 3.4-14.2 9.4-18 .8-4.2-1.9-9.5-1.8-12.1-3.2-.1-6.2.4-10.3 2.4l-.4-1.5c-3.2 1.9-4.8 0-6.6 2.1-2.5-1.2-6.4 1.8-8.2 2 .2 0-1.2-1.3-1.4-1.3-.8-.1-1.7 1.1-2.5 1.1-1.2 0-3-2.4-4.8.6 1.3 6.3 2 9.5 4.8 13.6 6.5-1.1 6.9-2 12.1-2.4z" id="Режим_изоляции"/></svg>