<svg xmlns="http://www.w3.org/2000/svg" viewBox="0 0 566.9 467.7"><style>.st0{fill-rule:evenodd;clip-rule:evenodd}.st0,.st1{fill:#ee7f00}</style><g id="Layer_1"><path class="st0" d="M133.6 64.7c-5.3 2.4-8 1.4-11.6 5.9-6.5.1-12.5.7-15.3-.7l.3 1.8c-5.5.3-6 4.1-9.1 6 .2 1 .4 2 .6 2.9-3.1 1-1.4 9.5-3.6 12.8 1.5 13.4 4.7 22.1 14.6 25.1 4.1-2.1 5.4.6 7.5-2.1 3.5 2.1 9.4-5.8 11-8.8.9.7 1.8 1.4 2.8 1.9.8 6.9 4.6 7.1 10.8 5.8 1.7-14.2-.7-28.3-3.8-47.2-2.5.5-2.5-2.7-4.2-3.4zM120.5 94c-1.4-1.1-.8 5-.6 6.2-5.5 3.2-6-2.6-8.7-4.4.4-5.1 2.3-9.3 4.7-13.1 1.7-1.5 2.7 2.5 2.3-.5 2 2.8 2 8.5 2.3 11.8zm-31-46.8c.2.9.3 2 1.5 1.5 1-3-2.3-15.5-3.2-19.4-5.9-.2-14.5.7-20.9 4.7-6.1-1.4-9.9 1.9-17.8 2.3-.3 1.5-1.9 5.1-3.2 5.5 1.1 3.6.9 6.4-.2 8.5 5.8 1 11.1-1.9 17.3-1.6 1.3 11.8 7.5 27.4 7.2 39.9-.1 2.5 2.4 7.4 2.1 10.5 0 .3-.1.4-.1.5 0-.1.2-.3.3.6.4 2.2-2.7 5.3-.3 7.9-.2.2-1.3-.4-1.3-.4-.6 5.6.2 11.7-4.3 15.4-9.2 1.3-15.6-9.5-14.9-17.1.1-.6 1.3 0 .9-1.4-3.7-13.7-9.8 1.1-18.2-.1-.4 4.4-4.2 4.1-5.6 8.4l.2 1.2c2.8-.2 2.5 5.9 4.5 4.6.9 1.8-.1 2.3-.6 3.2 4.5 1.4 4.3 9.7 8.8 11-1.3 1.3.6 2.4 2 3.9 3.3 3.5 12.3 8 16.8 8.2 2.9-1.7 5.1.6 11.2-1.6 0-.7-.4-1.6.2-1.9.2.4.2 1.1.8 1.1 7.6-6.1 13.9-8.6 14.9-19.9 2.3-.1-.1-6.6 2.4-6.5-.8-8.2-.4-9.8-2.5-18.9.6-.1.8.3 1.3.4-2-11.5-4.5-28-5.9-42.6-1.5.1 0-3.5-1.6-5.1 3.5-.5 6.1-1.5 8.2-2.8zm143.2 26.3c-7.6-.9-9.9 1.4-17.3 1.6l-.6-2.9c6-7.2 10.6-12.8 14.1-21 1.7 1.3 2.1-2.8 4-1.4-.5-2.6-1.5-6.3.6-3.2-.8-5.4-1.8-7-2.8-11-4.9-1.3-12.2 1.5-14.2 2.2-1.7.5-3.2-1.5-4.5-1.5 0 0 .2 1.3-.4 1.3-1.9 0-5.5-.9-7.5 2.1-3.2-.9-7.7 2.4-13.1 1.3.8 3.5 2.4 4.7.2 7.2 3.2-1.2 2.4 4.8 2.4 6.2 2.4.4 2.8-.6 3.4 1.8 2.4-1.8 4.5-.3 8.1-2.2 0 2.8 1 .4 1.5 1.5-1.9 4.3-1.7 12.5-3.6 15.9.1-.2-.5-1.3-.8-1.1.7 3.8-2.2 6.3-1.7 10 .7 4.6 2.3 7.6 2.4 12.3 1.6-.9 1.3 1.1 1.6 2.1 12.5-2.3 23.9-6.6 40.8-11.6-1-7.7-.9-7.8-3.1-12.7-5.3 1.8-7 .7-9.5 3.1zM191 84.9c.2 5.4-10.1 3.5-12.2 6-.6-1.9-1.2 1.3-2.7-1.3.2 1.7-2.7 1.5-4.1.8-.1-.9-.6-2.1.1-2.5-.1.3.6 1.4.8 1.1 3.5-6.2 4.4-15.8 11.3-19.8 1.1-4.6-1.7-10.8-1.5-13.7-3.6-.2-7 .2-11.7 2.3l-.3-1.8c-3.6 2-5.4-.2-7.5 2.1-2.8-1.5-7.2 1.7-9.4 1.8.2 0-1.3-1.5-1.5-1.5-.9-.2-2 1.2-2.8 1.2-1.4-.1-3.3-2.8-5.4.4 1.2 7.1 1.8 10.8 4.8 15.4 7.3-.9 7.8-1.9 13.6-2-1.4 7.2-3.2 14.1-6.4 20.1.1 1.4.5 2.2 1.2 2.8l-1.8.3c1.7 4.3 3.1 10.1 5.8 14 3.4-.2 5.7-3.6 8.8-1.7-.5-2.8 1 1.1 2.9-.6 0-.7-.4-1.6.2-1.9.7 2.9 4.8-1.1 5.5.1 0-.7-.4-1.6.2-1.9.9 1.7 1.1.6 1.8-.3 1.6 2.3 6.9-2.9 10.2-.8 0-.5-.2-1.2.4-1.3.6 2.1 2.5-.6 3.7.5-.6-1.4-.2-2.1 1.4-2.1-3.6-5.3.7-13.7-5.4-15.7zm267-35.6c5.5-3.5 12.7-7.9 21.3-10.6 9-2.7 19.6-1.7 29.8-1.2 8.4.4 15.3 3.9 20.3 8.3-6-3.8-10.5-4.7-19.5-5.1-6.2-.3-11.3-1.1-17.9-.6-10.6.7-19.6 7.2-27.4 10.8-.2.1-.7.1-.6 0-.2.1-1 1.1-1.6 1.2-2 .3-3.4-1.3-4.4-2.8z"/><path class="st0" d="M527.5 48.9c-5.1-.9-11.6-2.3-17.5-2.6-7.6-.4-15.2 1.7-21.9 3.5-6.8 1.8-12.5 4.9-17.1 7.5-1.6-.9-3.7-1.3-4.3-3.2 8.1-5.1 20.4-9.8 33.5-10.8 5.6-.4 9.7.6 14.6 1.2 5.7.6 9.3 1 12.7 4.4z"/><path class="st0" d="M516.3 49.3c-.8.6-2.4 1.7-2.8 2.6-11.6 3.1-22 7.2-30.5 13.4-1.9.5-4.8 1.7-6.1 1 .6-.7.3-2.2 1.2-4.1 6.9-5.3 16.9-9.2 27-12.4 3.7-1.1 8-2.2 11.2-.5zm-90.6 20.3c.9.2 1.4.8 2 1.2.5 3.9 2.5 7.1 5.1 9.1 2 1.6 4.6 1.8 6.3 3.7-6.6-2.5-12-6.2-13.4-14zm105.6 25.8c-2-.6-3.4-1.7-4.7-3 2.3-4.3 4.4-8.9 4.5-15.4 1.2 0 1.3-.2 2.4-.4 2.5 2.4 2.6 3.8 1.6 8.3-.7 3.8-2 7.3-3.8 10.5zm-56 26.4c-6.5-2.7-13.2-7-16-14 .9.1 1 .9 1.8 1 2.4 6.6 8.3 9.8 14.2 13zm88.1 27.6c-.4 7.1 1.3 15.9.2 22.1-.5 3-1.4 5.8-1.8 8.5-.5 2.9-1.2 5.3-1.8 7.9-1.3 5-1.9 10.3-3 16-1.1 5.6-.9 12 .8 17.9.7 2.4 1.7 4.9 2.8 7.3 1 2.1 2.7 4.7 3 7.1.9 5.6 0 11.9 0 17.7 0 5.9.6 12.1 0 17.7-.3 2.7-1.7 5.7-2.8 8.9-.9 2.6-2.3 5.8-3.3 8.5-2.1 6.1-4.6 12.6-5.7 18.7-1.9 10.9 2.3 19.4 7.5 26.6 1.6 2.2 4.2 4.3 4.3 7.7-.1.5-1-.5-1.4-1-3.2-3.5-6.8-8-9.5-12.4-3.3-5.4-6.4-11.6-6.1-18.7.2-4.9 1.8-10.3 3.2-14.8 1.5-4.7 3.3-9.4 4.9-14 3.2-9.1 7.1-18.7 7.3-29 .2-8.4-1.5-15.7-4.1-21.5-3-6.8-6.2-12.4-6.5-20.7-.4-11.6 3.3-20.6 5.3-30.5 2.1-10.1 4.4-19.6 6.7-30zm-186.2 37.7c-.9.3-1.5.8-1.6 1.8-.9-.4-.8.4-1.4-1.4-.3-.9-1.6-2.4-1.8-3.9-.3-2.3.9-4.3 1-6.5 5-1.1 4.3 4 3.8 10zm89.9-.6c1.3.8.5 2.8-.2 3.9-.6-1.2.4-2.4.2-3.9zm-169.3 1.1c1.8 2.1.5 3.9-.4 6.5-1.7 5.1-1.9 10.5.6 16-8.5-1.7-7.2-17.4-3.7-22.5 1.7-.1 1.8-.3 3.5 0zm21.9 16.2c-6.6 5.7-5.8 19.4-3.3 28.2-1.8-.8-3.3-1.9-4.7-3-2.9-10.1-3.2-21.5 3-28 2.6.1 4.1 1.2 5 2.8zm-205.7-2c3.5-.6 7.3 4.6 9.3 8.9 1.5 3.2 4.6 10.8.8 12-4 1.2-8.9-8.1-10.8-11.4-1.2-2.1-3.8-4.5-2.4-7.7.7-1.3 2.1-1.7 3.1-1.8zm218.3 45.5c-4-3.2-7.1-8.2-6.7-15 1.5-.3 3.5-.1 4.3 3 .3 1.3.2 3.6.8 5.5.9 2.9 2.3 3.8 1.6 6.5zm-26.2 3.2c3.2 3.6 2.6 10.1 4.3 15 .9 2.8 3.5 3.8 4.9 5.9 1.2.3 2.5 1.4 3.7 2.2 1 .7 3.2 1.2 2.4 2.4-.8.3-2-1.7-2.8-2.2-2.1-1.4-4.5-2.3-6.5-4.1-2.7-2.3-5.3-4.9-6.9-8.3 0-.6.5-.7.6-1.2-1-3.3-.3-6.6.3-9.7zm71.1 3.4c.8.1 1.3-.5 1.8-1.2 2.9.7 5.1 2.2 6.5 4.5-1.2 5.3-8.3.7-8.3-3.3zm48.7-.6c5-1.4 8.7 1.4 13.6 2.6 8.9 2.3 21 0 25.2 6.7-2 2-2.7 5.4-2.8 9.3-5.1-1.8-11.1-2.1-17.1-2.8-2.8-.4-5.6-1.1-8.5-1.4-4-.5-7.6-1.4-11.6-.8l-1.2-.6c-.7-.2-.2.9-.6 1-2-.7-3.6-1.8-4.9-3.2 2.4-4.4 5-7.8 7.9-10.8zm18.7 5.9c-4.7-1.1-9.1-4.1-13.4-3-1 .3-1.8 1.3-2.4 2-.6.7-3.1 4.2-3.7 5.3 10.3 2.3 22.4 2.7 32.3 5.3-.4-3.5.6-5.7 1.6-7.7-4.4-.8-9.1-.6-14.4-1.9zm-63.1 49c-2.7-1.3-6.6-3.4-4.3-7.3 3.5.9 6.7 2.1 6.3 6.9-1.7.1-2.8-2.2-2 .4zm176.6 46.5c4.2 1.4 6.3 4.9 5.5 11.4-2.9-2.7-3.9-8.2-5.5-11.4zm-8.5 28.8c1.8.8 3.2 2 4.7 3 1.9 7.5 2.3 18.3-.8 25.6-1.7-1-3.7-1.7-4.7-3.5 3.5-6.6 2.4-18.7.8-25.1zm7.5 67.2c-.6 0-2.1-3.6-2.4-5.7-.2-1.1.1-2.3 0-3.5-.2-4.3-1.3-8.7-1.8-11.8 2.7-.1 3.3 2 4.9 3 .7 5.5 1.5 8.9 1.6 14.8-1.1 1.4-1.8 2.2-2.3 3.2zM449.9 46.2c-.2-.8.6-2.6.4-2.8.8-1.2 2.4-2 3.7-2.8 6.2-3.9 14.2-7.6 22.7-9.3 18.1-3.7 41.6-2.9 51.8 7.9-4.7-2.8-10.5-5.9-17.7-6.3-22.2-1.4-38.2 2.5-51.6 10.4-1.3.8-2.5 2.1-3.9 2.6-1.6.6-3.6.1-4.9.6-.3.2-.3.1-.6 0 .1-.1.1-.2.1-.3z"/><path class="st0" d="M326.6 468.4c-5.1-9.2-7.1-21.9-7.7-35.5-.7-14.2 2.7-27.1 4.5-39-8.8-6.6-18.4-14-27.6-21.3-9.1-7.2-18.6-14-27.8-21.1-8.7-6.7-19.5-13.7-28.6-20.3-6.8-4.9-14-10.4-21.1-15.4-2.2-1.5-6.1-4.4-7.9-4.5-.8 0-1.7.7-2.8.8-1 .1-2.1-.1-2.8 0-1.4.2-2.7 1.3-4.1 1.4-5.7.6-12.3-3.8-17.7-3.5-5.2.3-10.5 1.4-16 2-1.9.2-4.2.8-5.7.6-2.2-.3-5.7-3.2-7.9-5.3-1.8-1.7-5.5-4.6-6.1-7.3-.6-2.7-.1-6.3 1.6-6.9 2.2-.8 5 1.1 6.9 2.4 1.8 1.3 3.7 3.9 5.3 4.1 1.8.2 4-1.5 4.9-2-4.6-2.2-11.6-3.1-11.4-9.5-4.8-.6-7.5-4.2-7.3-9.1-5.9.8-8.2-3.4-6.9-9.7 2.1-1.3 3.8-3 6.3-3.9-4.6-3.4-9.2-6.9-14-10.6-5.3-4-10.3-9.7-18.1-10.6-.8-.6-2.6-1.1-3.4-1 0 .6-.5.9-.4 1.6.9 2 5.6 2.3 5.3 5.7-.5 4.8-11.3 1.9-12-1.4-1.5 7.7-16.7.6-16-4.1.4-2.3 4.1-2 6.5-1.4 0-1.9 1.7-3.1 1.6-4.5-3.2-.1-6.8-1.6-10.8-1.6-1.8-1.4-.8-5.1-.6-7.5 10.4-14.2 21.4-27.7 31.9-41.8 1 1.8 2.1 3.9 3.3 5.9 1.1 1.9 2.2 4.2 4.1 4.7 1.5-1 .1-3 .4-5.1 3.3-4.7 10.3 3.6 9.1 8.3-.2 1-1.1 1.8-2 2-1.9.5-3.7-2.2-5.1-.2.5 2.4 2.5 5.1 3.9 7.3 1.4-.5 2.5-1.3 3.7-2 0-2.2-.2-4.5 1.2-5.3 6.6-.1 8.5 12.1 1.8 13.4-1.3-.8-2-2.2-2.8-3.5-2.9 1.3-.4 3.8.6 5.1 2.9 3.7 6.3 5.5 9.5 8.3 1.7 1.4 2.8 3.2 4.3 4.7 4.7 4.4 11.2 8 16.2 12.6 1.5 1.4 3.7 4.3 5.1 4.7 3.5.8 8.5-2.4 12.4-2 5.9.6 13.2 7.1 17.3 9.9 5.7 4.1 10.9 7.3 15 12.2.9 1.1 1.7 2.8 2.4 3.7 2.4 2.8 5.4 5.3 8.1 7.9 2.7 2.5 5.5 5.1 9.3 6.7 3-2.1 5.9-4.4 8.5-6.9-.1-1.5 1-2.5 2.6-3.2 4.7 4.9 10 9.3 15.2 13.6 3.9 3.2 7.2 7.5 11 10.6 1.3 1.1 2.9 1.9 4.3 3 4 3.5 6.6 8.8 12.2 10.4 3.7 4.7 10.3 6.3 14.4 10.6.5-.2-.5-.8.4-.8.5 2.3 3.6 1.9 4.3 4.1 3.3.5 5.9 4.3 9.7 4.3 1 1.2 2.3 1.5 3.3 1.2 1.9 2 6 1.8 8.7 3 3.5-1.1 7.7-3.5 10.4-5.3 1-.7 2.3-1.4 2.6-2.2.4-1.1-1.9 0-1.6-1.8 1 .2 1.7.7 2.4 1.2.6-1 1.8-2.1 2.4-2.4 4.3-7.2 7.2-17.2 8.3-28 .4-3.6.9-7.9.4-11.4-.2-1.5-2.1-3.3-3-4.9-2.9-4.6-5-10.1-7.3-14.6.5-1.4-.4-2.8-.6-4.7-.4-3.6.8-7.7 1.2-11 .9-3 2.3-4.6 3.9-6.9 1.6-2.4 2.3-3.1 4.7-4.5.5-.3 1-.7 1.4-1 3.8-2.6 8-4.9 11.2-7.7 2.7-2.4 5.6-5.2 8.3-7.5 1.8-1.5 3.6-2.9 5.3-4.5 1.5-1.4 2.9-3 4.7-4.3-1.2-3.3-4.8-5.2-6.7-7.1 5.7 1 10.7-1.2 16.4-1 .9-6.6.3-13.4.8-20.3 8.5.9 16-1.6 19.1-6.7-.2.1.9-.5 1.6 0 .6-2.3 1-5.7.8-8.1-9.3-1.4-17.9-5.9-23.8-11-4.9-4.3-7.9-9.4-6.7-16.2 0-.6-.6.9-.6-.2.8-3.6.9-7 2-10.2.5-1.3 2-3.1 2.6-4.7 1.9-5.2 1.8-10.8 2.6-16.4 1.3-8.6 3.7-16.9 7.7-22.7 2-3 4.1-6.1 6.3-8.9 1.8-2.3 4.2-4.2 6.3-6.3 2-2 3.6-4.1 5.3-6.5 3.4-4.9 6.6-10 9.5-15.6 1.5-2.8 3.2-5.3 4.9-7.7 1.5-2.1 2.5-3.3 4.1-5.3 2-2.4 3.6-5 5.7-6.9 1.7-1.6 3.6-2.8 5.5-4.1 4.3-2.8 12.4-6.7 19.3-8.3 7.2-1.7 14.6-1.5 23.2-1.2 8 .3 15.9.1 22.5 2.2 6.3 2 12 4.6 16.4 8.5-6.1-3.1-13-6.3-21.7-7.1-13.2-1.3-29.3-1.4-39.8 2-5.1 1.7-10.3 4-14.6 6.3-4.1 2.2-7.4 6.1-10.8 9.9 1.5 1.2-1 4.7.4 6.5 1.6 1.6 5 1.8 5.5 4.1.4 1.8-1.2 3.6-.6 6.1 3.4-1.5 5.9.7 7.7 2.4.1 1.1-.3 2.8.2 3.6 3.8-1.9 6.4 1.6 8.5 3.3 2.2-1.4 6.4 1.6 7.1 3.4.4 1 0 2.2.4 3 .8 1.7 3.2 1.8 3.5 3.7 3.6-1.6 7.1 1.7 8.5 4.3 3.5-2.9 6.8 1.5 9.1 3.5 3.3-3.2 10.5 1 10 6.7 1.5-.3 2.6-1.8 4.5-1.8 2.9 0 5.8 3.2 7.1 5.1 2.5-.2 4.7.5 5.3 3-.7.1-1.4.1-1.8.4 1.4.7 2.7 3 2.8 5.7 1.8 0 3-2.2 4.9-2 1.5.1 5.6 3 4.3 5.7 1.2 0 2.4.9 3.3.6 2-2.7 4.2-5.5 6.1-8.5 1.8-2.8 4.2-6.3 5.3-9.3 3.2-9 2-21.2-2-30.1-1.5-3.3-3.6-5.9-5.3-8.7-.5-.8-1.9-1.7-1.2-2.8 1.9.5 3.4 2.1 4.5 3.7 1.4 1.9 2.6 4.2 4.1 6.3 4.1 6.1 7 14.9 6.7 23.4-.2 6.8-2.7 12.9-5.9 18.3-3.9 6.6-8.6 12.6-13 17.9-2.6 3.2-5.1 6-7.7 9.3-6.1 7.7-8.2 15.9-11.2 25.6 1.6 1 3.3 1.8 4.5 3.3-2 .9-3.6 2.3-5.7 3-.5 6.2-.2 11.6.6 16.6.8 4.8 1.4 9.6 2.8 14.2 1.2 4 3.2 7.8 4.1 12 .9 4.9 1.7 10.7-.2 15.6-.8 2.1-3.2 5.1-4.9 6.5-.2.1-.6 0-.6 0-.1.1.3.4 0 .6-4.4 3.1-10.8 4.7-16.6 6.1-10.3 2.4-14.5 6.5-16.7 17.1-1.1 5.4.3 11.7 3 14.4 8.6 3.2 20.4-1.1 18.1-9.9-3.6-.1-4.1 1.1-5.5 2.6-1.3-1.1-4-1.8-4.1-3.5.8-1.2 2-2.3 3.7-2.4 4-.4 10.5 3.9 11 7.5.6 4.1-2.5 6.3-5.1 8.3-9.9 4-22-.8-25-9.1-2-5.7-.5-12.5 1.2-18.1.8-1.3 1.2-1.9 2-2.8.6-.7 1.1-1.3 2-2.2 4.6-4.8 14.8-4.9 22.5-8.3 1.5-.7 4.4-2.4 5.3-3 1.1-.9 3.9-4.5 4.7-5.9 1.7-3.1 1.5-7.6 1.2-11.4-.4-6.3-3.2-11.8-4.7-16.2-1.4-4.4-2.1-9.1-2.6-13-.7-4.8-1.6-9.7-1-15.2-3-.9-5.7-3.2-8.1-4.1-3.8 4.3-8.3 7.8-14.4 9.7.2.9 1.3 1 1.2 2.2-.7.9-3.2 5.4-2.6 7.9.2.8 1.5 1.8 1.8 2.4 2 3.8 3.8 8.2 6.5 12.2 2.7 3.9 6.1 7 8.3 10.4-3.9 5.8-7.5 12-9.3 19.9-7-5.3-18.3-6.3-29.8-7.1 1.7 9 5 17.8 6.1 27.2-1.7-.8-3.5-2-5.5-2.8-8.6-3.4-21-1.2-31.7-.2-15.9 1.4-25.6 6.3-31.7 15-.7.5-.8.2-1.6 0-.5 1.9-1 3.8-1.8 5.5-.3.9 1 .3 1.2.8-.5.4-1.7.2-1.8 1-4.9 27.5 1.6 55.2 6.9 79.2 1.1-.1 1.7.4 2.6.4.8.3 1.2-.5 2.2-.4 1.5.1 2.8 1.3 4.5 1.8 3.6 1.2 7.8 1.6 11.8 2 2.6 1.6 5.5 1.5 8.5 2.4 5.4 1.6 9.5 5 14.8 6.5 1.2.8 2.5 1.6 3.5 2.6 1.9-2.1 6.5-1.5 8.9-3 5.2 1.9 6.8-1.7 9.5-4.5 1.8-1.8 3.7-3.4 4.7-5.1 9.9-4.7 15.9-12.9 18.9-24.6 2.7-10.4 3.8-23.1 1.6-35.9 1 .5 3.4.4 4.3.4 2 11.9 2.7 24.5-.4 35.1-1.5 5.2-2.5 11.3-4.9 14.8-.5.7-1 1.2-1.8 1.6-2.3 6.5-6.6 11.3-11.2 15-.8.6-1.5 1.9-2 2.2-.5.2-1-.1-1.4.2-2.5 1.7-4.3 4.7-7.5 5.3.4 1.2-2 .5-1.6 2.2-.7-.2-.9-.9-1.4-.2-4.3 3.2-10 4.9-14.8 7.5-.4.5-.7-.4-1.2-.4-.2 1.3-2 1.3-3 1.6-1.3.4-2.8 1-4.5.8-.6-.1-.2.9-.6 1-1.9-.7-3.6.8-5.3 1-.6.1-1.3-.5-1.8-.4-.6.1-1 .8-1.6.8-.7.1-1.4-.2-2-.4-.4.3.4 1-.6 1-3 .1-5.3 2-8.3 2.6-.8-.3-.1.9-.6.8-2.3 0-5.2 1.6-7.7 2.6-1.5-.7-5.6 1.7-6.3 0-1 3 .2 6.6.6 10.2.4 3.6.8 7.3 1.2 10.8 1.7-.8 4-.2 4.7-1.6 10.8.7 20.5-4.6 28.4-3.3 2.2-1.4 5.2-.5 8.1-1 1-.2 1.9-.7 2.8-.8 4.5-.4 8.6-.2 12-2.2 1.1.8 2.3-.2 3-.8 1.4.4 5.7-.7 7.5-2.2 2.2 1.3 4.6-2 7.5-2 .3-1.2 1.8-1.2 3.1-1.4 1.5-2.1 4.3-1.7 6.3-4.3 2.7-.1 3.2-1.6 4.5-2.4.5-.3 1.3-.4 1.8-.8 1.1-.8 1.3-2 3-2 1.7-2.7 5.4-3.4 6.7-6.5 1.2 0 1.6-.9 2.6-1 .6-.5.6-1.5 1.2-2 4.4-1.4 5.3-6.3 9.5-7.9 3.6-5 8.1-9.3 11.2-14.8 2-.8 2.6-2.9 3.7-4.7-4.9-10-11.7-20.5-11.6-33.1.1-10 2.8-19.7 5.9-28.2 3.5-9.5 6.3-18.8 4.7-29.6-1.6-10.6-11.7-16.1-12.6-27-.8-9.4 2-16.7 5.5-23.4 4.2-5.9 9-8.9 11.4-16.4.3-.9.5-2 .6-3 .9-14-13.1-18.8-14.6-30.9.4-1.2 1.3-.5 1.2-1.6.2-.3.5-.7.6-.8.7-.5-.3.7.4 0 .3-.4 1.1 1.9 1.4 2.6.4 1.2 1 2.4 1.2 3.2 1.5 5.2 3.8 9.6 7.3 13.6 3.6 4.2 6.4 7.8 7.1 13.8.8 6.5-2.8 10.3-5.1 14.6-1.8 1.3-3.2 3.3-4.9 5.3-4.6 5.2-7.2 13.4-7.7 22.3-.5 9 4.3 14 8.1 19.7 3.8 5.7 5.9 13.7 5.1 21.9-.6 6.1-3 12-5.1 17.9-4 11-7.8 25.9-4.3 39.4 1.5 5.8 4.1 11.3 6.7 16.9 1.7-.8 3.1 2.6 4.7 3.9-.5.8-1.1 1.5-1.2 2.6 6.3 11 6 28.7 1.8 40.4-1.6 4.6-4.1 8.9-5.5 13.6-1.8 6.3-4.8 14.4-3.7 21.9-2.5.2-.5 9.1.6 11 2.2 3.5 7 4.6 8.7 8.5 4.2 9.6-5.7 18.7-.8 28.4-4.2-1-5.6-4.5-5.9-7.9-.7-8.5 6.5-17.6 1.4-24.8-2-2.8-6.4-4.4-8.1-7.3-.9-1.5-.6-2.8-1.4-4.9-.2-.4-.2.1-.4 0-1.1-.6-.8-3.8-1.8-4.5 2.7-.4 1.9-2.7 2.2-5.3.5-4 1.6-8.1 2.6-12 1-3.9 2.3-7.8 3.7-11.4 1.4-3.6 3.2-6.9 4.3-10.2 3.2-10.1 3.1-23.2.2-32.5-7.2 12-16.3 22.3-26.2 31.3-.8.7-1.2 1.4-2 2-.7.5-.9.3-1.2.8-1.1 1.5-1.1 4.1-1.4 5.5-.8 3-1.9 6-2.4 9.3-1.4 9.3-1.9 21.6 0 30.3 1.5 7 6.9 12.1 10.8 16.9 7.2 8.8 14.5 18.3 19.7 28.4h-3c-6.3-12.4-14.3-22.9-22.5-33.3-6.8-4.7-9.8-14-10.6-23.6-.8-10.4 1.2-20 2.2-27.8-.2.7-.7 1.2-1.2 1.6-4.4 2.4-8.3 5.3-12.2 8.1 0-.5 0-1-.4-1-.5 1.2-2.9 1.4-3.5 2.6-1.1 2.5 1.5 5.4 2.4 7.9 1.2 3 1.3 5.8 2 8.7.5 2 1.3 3.8 1.6 5.7.4 2.1.9 4 1.2 6.1.7 4.4 0 8.6-.2 13.8-.1 1.9.1 3.7 0 5.7-.6 10.2-5.1 17.4-8.3 25.2v.2h-7.5c4.9-7.2 8.1-18 10.2-29 .8-4.1 2.2-8.4 1.8-12.8-.2-2.5-1.5-5.1-2.2-7.7-2.3-7.6-4.1-15.5-8.7-20.9-.9.3-1.5 1-2.4 1.2-1.7-.4-1.8.9-3.2.6-1 .8-2.8.8-4.1 1.4 6.9 17.9 1.7 42.3-6.9 55.2 1.6 3.2 2.2 7.8 1.2 12h-2.8c2.8-2 2.6-7-1-8.1-1.7 2.8-3.7 5.4-5.5 8.1h-7.3c3-3.1 6.1-6.2 8.1-10.4-6.6-6.3-8.4-17.3-16.6-21.9-6.1 6.2-10.2 14.3-15 21.7 2.9.6 5 1.8 7.9 1.6.9-.1 1.9-.7 2.8-.6 4.7.3 7 6.9 9.7 9.5h-4.5v-.2c-2.3-4.7-6.4-2.4-11.4-3-2.6-.3-4.4-1.3-6.3-2.6-.7-.5-1.4.3-2-.2 0-1-.3-1.6-.4-2.4-7.4-5.4-15.3-9.9-22.9-15.2-2.4-1.7-4.5-4.4-7.7-4.9-.5.8.8 1.4 1 2.6.3 1.6-.1 3.3-.6 4.5-3.2-.7-5.8-6.7-2.4-9.1-3.4-3.3-7.5-5.9-11.4-8.7-2.7 5.4-11.1 1.5-15.2 0 3.6 3.8 9.9 7.8 8.9 16-.2 1.4-1.1 3.9-1.6 4.1-.2 0-2.9-2.1-3.7-2.6-1.7-1.2-2.6-2-3.7-2.6-2.8-1.9-5.7-3.1-7.5-5.1-3.7-4.1-5-10.7-6.5-17.1-3.1-3.2-6.2-6.4-5.9-11.6.2-2.5 1.8-4 1.2-7.1-4.4-2-7.4-5.3-11.8-7.3-1.3 9.1-4.9 19.1-5.5 29.6-.6 10.7 1 21.8 5.1 29.8 1.3 2.5 2.7 4.8 3.9 7.1 1.2 2.3 2.9 4.1 4.3 6.1h-8zM433.4 54c9.9 5.3 13.5 20.9 11.4 33.9-.6-.4-.7 1-.8 1.6-1 .2-1.5 2.7-2.8 3.3-.3 1.2-.9 1.4-1.6 2.4-.4.5-1.8 1.8-2.2 2.2-.5.5-1.1 1.5-1.6 2-.1.1-.4-.3-.4-.2-.3.4-.1.7-.4 1-.3.3-1.2.6-1.4.8-.7.8-1.5 1.2-2.6 2.2-1.5 1.3-5 3.2-5.5 3.7-1.9 1.8-4.4 2.9-5.7 4.5.1-.1-.6 0-.6 0-.3.3-.1.8-.4 1-.2.2-.8.1-1.2.6-.4.5-.5.6-1 .8.1.8-1.2 1.1-1.6 2 0-.1.4.4.2.6-.1.1-.4-.2-.4-.2-1.1 2.9 1.7 4.1 2.4 6.5 2.1 1 4.3 1.1 7.1 1.6 3.2.6 6 2.9 8.3 3 2.1.2 3-1 4.1-1.2.6-1.4.9-1.6 1.6-2.4-.3-.9.3-3.2-.2-4.5 2.2-.6 2.6 3.3 2 5.7-.1.5-.9.2-.4 1-1.1.6-2.1 3-5.1 2.8-3.1-.2-5.2-2.6-8.9-3-6.9-.8-12.6-3.7-13-10.6.7.4.1 0 .2-.6.9-.5 1.6-2.3 2.4-2.2-.7-.6.5.2.2-.8 1.4-.3 1.3-1 3.2-2.4 0 .2-.3.3 0 .4.1-.3.3-.4.2-.8.8-.1 1.3-.7 1.8-1.2.8-.8 3.5-2.6 4.3-3 .4-.2.7-.3 1.2-.8.7-.7 2.4-1.6 3.7-2.2.4-.2.1-.6.4-.8.4-.3 1.3-.3 1.6-.6.1-.1.1-.5.2-.6 1.3-1.2 2.8-2.7 4.1-3.7.8-1.6 1.8-2.6 3.3-3.7 0-.9.6-1.3 1.2-1.6-.6-.7.5-.5.6-.8-.2 0-.2-.3-.2-.6 1.1 0 .8-1.9 1.8-2.2-.5-.6.8-2.2.8-2.4 0-.1-.3-.6-.2-1 .6-2.3-.4-9.2-.8-12.8-4.7-3.9-4.3-13-9.9-16-1.4 3.8-4 7.3-6.1 11 8.1 2.3 14.3 7.6 15.4 16.2-1.8-1.7-2.8-.3-4.3-.2-3.2.2-6.1-2.4-6.7-5.7.6.3.2-1.2 1-1-.2 0-.2-.3-.2-.6.9 0 1.6-2.1 3.7-1.6-1.1-1.1-.8-2.4-2-3.3-2.2-1.5-6.4.1-7.9-2.2-.3.9-1.1 1.3-1.2 2.4-5.9 9.1-14.3 14.2-19.7 24.4-3.9 4.1-5.4 10.6-6.7 16.9-.7.2-.4 1.3-.8 1.8 2-.7 3.2.7 4.3 1.6-1.8-1.1-3.6.9-4.7.8-.6 5-.3 9.1-1.2 13-.4 1.8-1.6 3.5-2 5.3-.1.6.1 1.2 0 1.8-.6 2.8-2.1 5.5-2.8 8.3-.6 2.5-1.4 5.9-1.2 8.7.9 13.9 16.8 17.3 31.1 18.3 5.9.4 11.8.9 17.9.6 6.9-.3 12-1.1 17.9-2 7.1-1.1 14.6-2.1 20.7-4.3 4.8-1.7 10-4.2 13.2-7.1 1.9-1.7 3.1-3.9 5.5-5.1 2 1.3 4.4 2.3 5.3 4.7 1.5.8 4 .8 5.7.2 2.3-11.1 5.9-24.7 13.4-32.5 3.1-4.9 6.7-8.6 10.6-13.4-2-.2-3.3-3-5.5-3.5-.7-.1-1.6.3-2.2.2-2.3-.3-5.4-2.8-6.7-4.7-.8-1.1-1.5-2.9-1.4-4.7.2 0 .6 0 .6-.2-2.3-1.1-4.4-2.4-5.7-4.5-4.9 4.4-11.3-.5-12.8-5.5-2.9 2.2-6.7-1.2-8.7-3.5-3.7 2.5-7.4-1.8-9.1-4.3-3.6 2.8-8.5-1.6-9.3-5.5-1.4-.9-2.8-1.8-3.2-3.7-3.4.4-5.5-2.3-7.5-4.1-4.5.4-7.9-2.1-8.9-5.9-4.6-.8-9.5-5-7.3-11.4-1.9-.8-3.8-2.7-5.1-3.5-1.1 1.8-3.7 4.5-4.8 7.1zm0 22.3c4.6 1.4.1-5.5 0 0zM420.9 174c-1.1 3.8-.7 7.7-1.8 11.2-1 3.2-2.4 5.9-3.2 9.1-1.6 5.9-4 11.6-5.9 17.7-1 3.1-2.5 6-3.5 9.1-1.3 4.4-1.8 8.6-3.2 12.6-.4 1.1-1.5 1.9-1 3.2 1.8-3.3 4.9-6 8.3-8.5 3.2-2.4 5.9-5.4 9.9-6.9 11.3-4.1 21.8-10.4 31.7-17.1 9.9-6.7 19.5-12.8 26.8-20.3-1.1-4.6-1.4-11 0-15.4-16.7 4.3-38.4 7.2-58.7 4.9.2 0 .3.3.6.4zm62.9 13.6c-1 .1-1.8 1.3-2.6 2-.9.8-1.9 1.8-2.8 2.4-.2.3-2.1 1.7-3.2 2.6-1 .8-2.2 1.5-3.3 2.2-6.4 4.6-12.4 9.1-18.7 13-7 4.3-13.5 8.5-20.5 12-5 2.5-10.1 3.2-13.8 6.3-.8.7-1.3 1.6-2 2.2-1 .8-2.2 1.1-3 1.8-2.4 1.8-4.8 4.6-6.3 6.7 8-2.6 21.1-4 32.5-4.9 8.4-.6 16.1.8 21.5 4.1-1.4-9.2-4.3-17.5-6.1-26.8 11.3.8 22.2 2.2 30.3 6.3 1.8-7.4 5.2-13.2 8.9-18.7-3-4.2-7.6-8.7-10.4-13.8-.3.9-.6 1.5-.5 2.6zM399.1 229c1.4-4.1 1.8-8.5 3.2-12.6 3.3-9.5 7.2-18.5 9.5-27.2 0-.1 0-.2-.2-.2-3.8.9-8.8 2.5-13 1.6.1 5.8-.6 12.9-.8 20.1-4.9.3-10.2 1.3-14.6 1.4-.5.4.3.9.4 1 6.2 6.6 9.8 15.6 11.4 26.6 1-3.6 2.8-7.1 4.1-10.7zm-256 4.7c-2.5-1.6-5.3-3-7.3-5.1-4.2-4.3-6.4-10.7-9.5-16-3.2-5.5-6.8-10.6-9.5-16.2-.2 0-.2-.2-.4-.2-4.2 5.6-9.2 11.6-13.8 17.3-3.9 4.9-7.8 10.2-11.2 15.2-.4.6-1.2 1.5-.8 2.2 5.5-.3 11 2.6 16.2 3.7 1.7.4 3.2.2 4.7.6 4 1.1 7.7 3.8 11.2 6.3 10.2 7.4 20.4 16 29.8 23.1 2.9-1 5.3.1 7.7 1-12.9-11.3-28.1-20.2-42-30.5-1.3 1.5-2.8.3-4.5-.2-3.1-1-5.3-1.4-7.9-2.2-2.2-.7-8.8-3-9.1-5.1-.3-1.8 1.8-3 2.2-4.9 5-1.1 8.4 1.3 12.4 3 3.3 1.5 6.9 2.2 8.5 4.7.1.7.3 1.3.2 2.2 6.9 4 12.9 9.1 19.3 13.8 6.5 4.7 13.3 8.8 19.5 13.8 12.3 10 25.1 19.3 38.4 28.2.1-.8-1.4-1.1-1-1.6 5.8 3.8 10.7 8.3 16.4 12.2 5.8 4 12.3 6.7 17.9 11 5.4 4.1 10.5 8.7 16 12.6 2.8 2 5.9 3.7 8.5 5.9 2.6 2.1 5 4.7 7.7 6.7 5.5 4.1 11.4 7.6 16.9 11.8 5.5 4.1 11 8.3 16.4 12.4 5.4 4.1 10.4 8.8 16 12.6 5.8 3.9 11.6 7.5 17.5 11.4 1.5-2.3 3.1-4.5 4.7-6.7-9.5-6.8-21.1-13-30.5-20.1-3.2-2.5-6.2-5.6-9.5-7.5-1-.6-2.7-.9-3.9-1.6-1.8-1.1-3.4-2.6-5.3-3.9-1.8-1.2-3.6-2.5-5.5-3.7-7.8-4.7-14.7-9.9-21.7-15-7.1-5.2-14.9-9.8-21.9-14.8-3.6-2.5-6.6-5.5-10.1-8.3-3.5-2.8-7.6-4.6-11.6-6.9-7.9-4.5-14.2-10.4-21.3-15.4-10.8-7.7-22.1-14.7-31.9-23.4-3.3-2.9-6.4-5.7-10-8.3-9.1-6.7-17-12.6-26.6-19.5-.8-.6-5-3.2-4.3-4.7 1.2-2.5 5 1.3 5.7 1.8 12 9.8 25.4 18.6 36.5 28.2-.7-1.7.8-2.6 1.4-3.7-7-5.2-13.3-11.4-20.6-16.2zm242.2-12.6c-2.2 3.2-7.6 6.5-9.1 8.1-2.2 2.3-4 3.3-5.7 4.9-1.6 1.4-3.5 2.8-5.7 4.5-2.8 2.1-4.8 3.4-7.1 4.9-1.2.8-2.9 1.6-3.7 2.4-.6.6-1.1 1.8-1.8 2.8-.7 1-1.5 2-2 3-2.9 5.2-3 11.4-2 17.1 1.2 7.3 5.3 12.6 8.1 17.9.6.7 1.6 1 2 1.8v1.2c2.2 2.6 4.3 5.2 6.3 7.9 5.2 11.7 9.8 26.1 11 42.2.1 1.2-.3 2.3.2 3.5.7-.3 1.3-.8 1.6-1.4 1.8.8 5.6-1.8 8.5-1.2 2.7-2.4 6.8-.2 10.1-1.2-3.3-12.1-5.6-25.6-7.7-39.2-1.4-8.6-2.1-18.5-1.8-26.4.2-5.8 3.1-13.3-.8-15.4 1.1-.1 1.8.2 2.4 0 3.2-11.2 2.4-24.8-.8-34.5-.3-1-1-3.7-1.8-2.8 0-.3-.1-.4-.2-.1zm-281.4 27.4c-1.1-2.1.7-4.4 2.6-4.1.4-.7.6-1.4.8-2.2-1.4-.7-3.4-.4-4.9-1.4-.8 1.6-1.6 3.2-2.2 4.9 1.5.5 2.9 2.2 3.7 2.8zM229 288.3c-3.6-2.3-7.3-4.2-10.2-7.3-2-2.2-3.3-5.6-5.5-8.1-5.6-6.4-14.7-11.5-21.9-16.2-2.5-1.6-5.6-4-8.1-4.7-4.2-1.1-8.4 2.1-13 2-.4.3.1 1.4-.6 1.4-.6-.8-2.5-1.2-3.3-.2 3.9 3 7.7.1 12.2.8 3.4.5 8.2 5.1 10.4 6.9 9.8 8.2 21.8 13.4 31.7 20.5 2.1 4 6.9 6.2 11 7.5.2-1.6-1.9-2.1-2.7-2.6zm-42.1-16.5c4.9 3.6 9.6 7.4 14.6 11 4.8 3.4 9.9 7.4 15.2 10.4 3 1.6 5.8 2.8 8.3 4.5 2.6 1.7 4.7 3.6 7.1 5.7 4.6 4 9.7 7.3 15 10.4 5.3 3 10.3 6.5 15 10.6 7 6 14.9 10.6 22.9 15.4 2.7 1.6 4.8 4.1 7.3 5.5 1.2.6 2.5.8 3.7 1.4 3.3 1.9 6.1 5.1 9.1 7.5 3.2 2.5 6.5 4.7 10.2 6.7 7.3 4 13.7 8.6 20.3 13.2 1.4-1.1 2.5-2.5 3.5-4.1-4-2.8-7.9-5.8-12-8.5-4.2-2.8-8.7-5-13-7.7-8.2-5.3-16-11.4-24.2-17.1-7.9-5.5-16.5-10.7-25-16.2-5.9-3.9-12.3-8.6-18.3-12.6-3.4-2.3-6.4-3.7-7.7-7.1-3.1-.9-5.3-2.8-7.3-4.9-1.9-.2-3.6-1.9-5.7-3.5-6.9-5.2-14-9.4-21.3-14-2.9-1.8-5.5-4.5-8.3-5.9-1.1-.6-2.4-.6-3.5-1.2-4.9-2.7-7.8-8.8-13.4-10.2-2.6-.6-5.2 0-8.1-.2 5.2 3.6 10.5 7.1 15.6 10.9zm-23.9-1.6c1.4-.2 2.2.2 2.8-.6-1.6-.8-2.4-2.3-4.1-3 .7 1 1.1 2.2 1.3 3.6zm-18.9-.4c-.8.9-2 1.4-2.6 2.4 6 3.7 13.7-.6 19.5-2-4.7-3.7-12.7.4-16.9-.4zm21.5 4.9c-5.3 1-13.8 1.5-16.6 5.7 5.8 5.8 15-1.5 21.3-2.4 0-1 .5-1.5.8-2.2-1.1-1.5-4.3-1.4-5.5-1.1zm137.9 95.4c-1.9-1.6-3.2-3.6-5.1-5.1-1.9-1.5-4-2.7-6.1-4.1-8.2-5.4-15-12.4-22.9-17.9-4-2.8-8.6-5-12.4-8.1-1.6-1.4-2.8-3.2-4.5-4.5-5.1-4.1-10.6-7.2-15.6-11.2-6.8-5.4-13.7-10.3-21.1-14.8-7.4-4.5-14.1-9.7-21.3-14.6-7.1-4.8-14.3-9.5-21.1-14.8 0-.2-.2-.1-.4 0-.2 1.1.3 1.6.2 2.6 1.5.7 3.3.9 4.5 2 1 .9 1.1 2.6 2 3.7.9 1.1 2.9 2 4.5 3.3 1.5 1.1 3.1 2.4 4.5 3.5 9 7.1 19.1 12.8 28.2 19.1 12.6 8.7 24.4 18.1 36.6 26.4 25.5 17.3 48.7 36.3 72.1 54 .3-1.5 1.6-2.1 2-3.5-7.4-6.2-16.7-9.9-24.1-16zm-147.6-82c2.2 1.7 5.1 2.8 8.1 3.7-.6-6.5 6.7-4.8 10.8-6.3-.1-.9.2-2.1-.2-2.6-8.3-.4-12.9 3-18.7 5.2zm193.5 41.6c-1.5 2.1-4.2 4.8-6.7 6.3-2.9 1.8-7.1 4.4-11 4.7-2 .1-3.3-.5-5.1-.6-2.2-.1-4.6.3-6.7 0-2.2-.3-4.2-2.3-7.1-1.4-22.3-13.8-44.2-31.4-63.1-49.3-1.1-1.1-3.3-3.3-4.3-3.2-1.2.1-1.6 2.3-2.2 3.2-1.3 2.1-4.3 4.5-4.9 6.5 8 6.3 17 11.3 25.2 17.5 4.1 3.1 8.2 6.1 12.6 8.7 6.7 4 12.9 8.7 19.3 12.8 2.2 1.4 4.6 2.5 6.7 4.1 4.3 3.2 8.1 6.3 12.6 8.9 4.5 2.6 8.9 5.2 13.2 8.1 4.3 2.8 8 6.3 12.2 9.3 1.1-.9 3.6.9 4.1.8 1.8-.4 2.5-6.3 3.2-7.3 2.2-3 6.2-4.3 8.1-6.3 2.5.1 4-2.1 6.1-3 2.4-1.1 5.4-1.3 7.1-3.5 1 0 2 .1 2-.8-.9-.5-2.4-.5-2.6-1.6.8.5 1.8.7 2.8 1 .5-14.2-2.9-29.3-7.3-40.8-1.5-4-3.2-8-5.1-11-.8 15.5-2.5 27.9-9.1 36.9zm-171-41.6c-3 3.8-9.3 1.9-13 4.7 2 .2 2.9 1.5 5.1 1.6.1 1.2 1 1.5 1.8 2 .3 1.4.1 3.1-.4 4.3-4.7.5-6.9 3.4-11.8 3.7-2.7-3.2-6.8-5.9-11-6.5 3 3.7 7 9.3 13.2 9.7 1.9.1 4.4-.4 7.1-.8 2.6-.4 5.1-.3 7.3-.6 1-.1 1.9-.7 3-.8 8.2-1 16.1 4.5 21.9 3 1-.2 2.2-1.6 3-1-9-6-17.9-12.4-26.2-19.3zm206.9 63.3c.1.7-.3.9-.6 1.2-2.4-.8-5 1-7.3.6-.5.4.4 1.1-.4 1.2-.4-.1-.5-.4-1-.4-1.7 1-4.1 2.2-5.7 2.6.3.1.4.3.4.6-3.5-.8-4.2 3.3-6.3 2-5.4 4-13.5 5.2-17.1 11 1.8 1.4 3.7 2.7 5.5 4.1 1.9-.8 3.6-1.8 5.9-2.2-.7-4.6.7-8.9 4.7-9.5 2.5 5.1 8.3 6.9 13 9.7 7.6.1 16.9 2.1 22.3 1-.6-2 0-4.7 1-5.9 1.1.3 3.6-1.4 5.1-.2.4-.1-.1-1.2.6-1 .3.5.7.7 1.4.8 3.7-.4 7.4-1.6 11.4-2.6.3-.3.1-1 .6-1 3 .1 4.3-2 6.7-1.8 0-.5.1-.8.4-1 .7.7 2 .1 2.4-.6-2.4-1.9-6.4-2.3-8.5-4.5-.7 0-.8.6-1.6.4-1.9-3-6.4-.8-9.5-3.2-2.6 0-4.2.2-5.7-.8-.6-.2-.2.7-1 .4-.7 0-.7-.7-1.2-.8-.2.4-.6.6-1.2.6-2.8-1.9-6.5.3-8.3-1-.2.2-.1.7-.6.6-.8-1.3-3.4.2-5.4-.3zm-21.9 16.7c-1.6.4-4.3 2-2.6 3.7 1.1-.7 3-.5 4.1-1.2-.6-.9-1.2-1.6-1.5-2.5zm-20.1 3.8c-1.4 1.4-3 2.5-4.1 4.3 2.4 2 4.7 4.1 7.7 5.5 1.4-1.5 2.5-3.3 3.5-5.3-2.4-1.5-4.4-3.4-7.1-4.5zm41.4 6.5c-.4.3-.9.5-1.4.6-10.5-2.4-29.2-5.3-34.5 6.1 2.3 6-3.8 10-6.7 13-.7.7-2 1.7-1.6 2.6 1.4.6 2.8-1.3 3.9-2.4 1.2-1.2 2.3-2.8 3.9-2.8 1.3 8-7.6 9.1-9.5 15.2 1.3 2.1 2.8 4 4.7 5.5 1.4-5.6 3.9-11.2 8.1-13.2.8 7-5.4 9.4-7.1 14.4-1.2 3.4 1.3 7.9 2.6 10.8 3.6 7.3 11 10.7 17.1 14.4-1.8-4.4-5.8-5.1-8.3-8.1-2-2.3-2.3-6.1-2-9.1.5-6 6.3-13.4 10.8-15.4 3.3-1.5 7.3-1.3 10.8-3.5.4-.8.6-1.7 1.2-2.2 2.8.6 3.3-2.8 5.7-3.7 3-1 7.2-.6 10.6-.8 3.6-.2 7.1-.2 10.4-.8 0-7-1.6-12.3-2.2-18.7-5.7-1.5-11.8-.1-16.5-1.9zm-48.3.4c-1.1 2.2-2.8 3.8-4.1 5.9 2.7 3.1 6.6 4.9 9.7 7.5 1.1-2.5 1.9-5.3 3-7.7-3.2-1.5-4.9-4.6-8.6-5.7zm-8.9 13.2c3.6 2.5 6.9 5.3 11 7.3.2-2 .8-3.6 1.6-4.9-3.8-1.7-6-5.1-10.2-6.5-.5 1.8-1.8 2.6-2.4 4.1zm138.4 34.7c.3-5.3-1.9-8.8-3-13.2-1-3.6-1.7-7.3-3.7-10.2 0-.1 0-.2-.2-.2 0-.1 0-.2-.2-.2-2.6.9-5.1.4-6.9 1.4-3.8-.5-7 1.1-10 .4-.1.5-.2.9-.6 1-1-1.9-1.7.4-3.2-.6-.9 1.6-3.8-.2-5.7 1-.5-.1-.4-.7-1-.6-1 1.3-3.1.4-4.3 1.4-.8.1-.8-.5-1.6-.4-2.3 1.1-5.6 2.1-8.3 2.2-.3 0-.1.6-.4.6-1.6-.9-4.4-.2-5.9.4.9 1.6 1.2 5 0 6.5-.6-1.5-3-2.6-4.9-1.6 6.8 4.8 15.9 10.7 23.1 16 .7.5 2.9 2.5 3.3 2.4 1.5-.2 1.6-3.6 3-3.3 1.8 1.7 3.9 2.7 5.5 4.7 5 6.1 6 16.4 14.2 19.3 5.2-6.2 10.2-16.2 10.8-27zM391.8 406c3.3 2.1 6.4 4.3 9.9 6.1.8-1.3 1.9-2.4 3-3.5-.3-1.1-.2-2.6-.8-3.5-3.6-.6-8.6.6-12.1.9zm-10.7.6c4.2 5.1 10.4 8.2 15.6 12.2 1.1-1.2 1.7-2.9 2.6-4.3-6.1-2.2-9.8-9.9-18.2-7.9zm-2.7 2.7c-2.5 2.1 1.2 3.7 1.6 5.5.4 1.6-.7 3.9-.4 5.3.9 3.9 8.2 5.1 10.6 7.3 1.4-1.9 3.1-3.6 4.5-5.5-4.9-4.8-11.2-8.1-16.3-12.6zm-7.9 4.9c1.8 1 4 2.3 6.1 2.4-.2-1.1-2-2.4-2.4-4.1-.9 1-2.7.9-3.7 1.7zm8.3 9.3c-4-2.6-9.8-3-12.2-6.7-.3-.4-.2-1.3-.8-1.4 0-.1 0-.2-.2-.2-1 .7-2.6.8-3 2 3.1 2 7.4 2.4 9.1 5.9.5 1 .5 2 1 2.6 3.1 3.8 9.1 5.1 12.6 8.7.7-1.6 1.8-2.8 2.6-4.3-3.5-1.4-5.6-4.4-9.1-6.6zm23.8-6.9c-.8 1.5-2.2 2.6-3.2 3.9 8.4 7.9 18.2 14.3 27.2 21.5 1.4-2 2.9-3.8 4.1-6.1-9-6.9-18.5-13.2-28.1-19.3zm-45.7 6.5c3.1 1.4 7.2 2.7 11 2.8-2.5-2.4-6.9-3-8.7-6.1-.6 1.3-2 1.8-2.3 3.3zm40.2.8c-1.3 2-2.7 3.8-4.1 5.7 10.1 6.2 18.4 14.1 28.2 20.5 1-1.9 2.4-3.4 3.5-5.3-9.1-7.1-17.7-14.6-27.6-20.9zm-6.1 8.3c-1.4 1.2-2.2 2.8-3.2 4.3 9.1 7.2 19.4 13 28.8 19.9.8-1.3 2.2-2 2.6-3.7-9.6-6.6-17.9-14.5-28.2-20.5z"/><path class="st0" d="M523.6 66.9c.3.2 1.1-.1.6-.4.3-1 .5 1.2.6 0 .2.1.4.2.4.4-.7.5.2.1.2.6 0 1.3-1.1 3.8-.4 5.3-1 1.8-2.1 5.4-3 7.5-1 2.1-2 2.1-3.2 3-.6.5-.8 1.2-1.2 1.2-.6-.8-.8.2-1-1.2.8.6 0-.7 0-1.2.2 0 .2.2.4.2-1.7-3.9 1.7-7.2 3-11.6 1.6-1.2 3.2-2.7 3.6-3.8zm-122.4 56.3c-.9-1.1-2.1-3.6-2.4-5.9 2.5-.1 2.2 3.1 2.8 4.5 2.7 5.6 10.7 6.9 11.8 14 7.1 1.6 10.3 7 14.6 11.4 2.8.5 5.6 1.1 7.3 2.6-3.4-.9-5.9-1.1-8.9-2.4-.5.2 1.1.5.4 1-.9-.4-1.5.9-2.6.4-10.2 5.9-24-6.7-24.4-16.6 0-.7-.1-2.2.2-2.8 0 0 .4.3.4.2 0 0-.6-1.5.2-.8.1-.5-.4-.4-.2-1 .7.7.1-1.9 1-1.4-.2-.1-.5-1.1 0-1.2 0-.9.3 0 .6 0 .6-1.2-3.2-2.9-.8-2zm25.7 23.3c-3.4-2.1-5.1-6.5-8.7-8.5-2.1-1.2-5.1-.6-6.9-2.6 0-4.4-4.2-7.8-7.5-10.2 4.2 10.5 11.1 19.4 23.1 21.3zm-24.3-16.8c-.5 0-.7 1.4-.8 2.2-.6 7.9 6.5 16.2 13 16.9 4.6.5 6.3-1.2 9.7-1.6-1-1.1-2.5-1.3-3.7-1.8-8.5-3.8-13.8-10.3-17.9-18.3 0 .3.1.8-.2.8.3.1-.5 1-.1 1.8zm34.1 17.7c2-.2 4.4 4.4 2.8 4.9.2.2.3.5.2 1-.3.2-.9.2-1.2.4-.3 0-.4-.8-.4 0-.5-.4-.7-1.1-.8-1.8 1.1.1 1-4-.6-4.5zm-76.8 28c.2 0 .1.2 0 .2.1 0 1.5 0 1.4-.4 2.4.8.1 3.3.2 3.9-.6-.1-.3.7-.8.2 0 1-.7 1.7-1.2 1.8.3 1-1.7 4.4-2 5.1-.3.5-.4.5-.6 1.2-.4 1.4-2.1 3-2.4 4.5-.1.3.4.3.2.8-.3.7.1.3-.2 1.2 0 0-.4-.3-.4-.2-.3.5-.3 2.1-.6 3.5-.8 3.5-2.2 8-2.4 11.4-.2 2.1-.2 3.1-.2 5.1-.2 0-.2-.2-.4-.2-.3 2.4-.8 6.1-1.4 7.1-3.4-7.3-3.1-18.3-.2-26.6h.6c-.3-.7.3-1.9.8-2.4-.9.1.2-.7.2-.6.9-1.9 2-5.2 3.7-8.1.1-.1.2.1.2.2 1-2 1.9-3.4 2.8-4.5.1-.1.3.3.4.2.1-.1.2-1 .2-1 .3-.2.5.5.2-.4.5 0 .9-.2.6-.8.5.6.7-.8 1.2-.2-.1-.6.1-.8.1-1zm-62.9 55c.7-.4.3 1.2.6.4-.2 1 .9.7 0 2-.5.1.2-1.1-.6-.8-.1-.6.4-.7.2-1.4-.2 0-.2.4-.2.6-.3.7-.3-.8 0-.8zm225.8-173c.5-.1-.2-.3.2-.6.5-.1-.1 1 .4.8-.8-.3-.2 1.2-1.2.8-1 3.5-5.1 4.1-7.5 5.7-.3.2.1.3-.2.6-.8.8-2.7 1.4-3.7 2-.3.2-1.9 2-3 2.8-1.3.9-1.6.9-3.2 2.2-.6.5-1.2 1.1-1.2 1 0 .1-1.3 1.4-1.4 1.4-.9.4-4.3.3-4.7 0-1.6-3.4 2.4-5 4.7-6.7.9-.7 2.1-1.7 2.8-2.2.4-.3 1.1-.9 1.6-1.2 1-.8 2.4-1.7 3.9-2.6.7-.5 4.6-3.5 6.3-4.1 1.1-.4 3-.3 4.1-.4.6 0 2.1-.3 2.1.5zM491.7 113c-.3.5-1-.4-1.4-.4.1.2.2.4.4.4-2.5-.6-5.3-2.8-6.9-5.1-8.6-3.4-16-8-22.3-13.6.9-.5 1.8.6 2-.2 4.3 2.7 10 4.8 14.6 7.7 2.2 1.4 4.2 3.3 6.3 4.9 2.4 1.8 4.9 3 6.5 4.7.2.2-.6 1.3.8 1.6zm-26.2-4.8c.7.1 1.4-.6 2.4-.8-3.5-.7-7-1.4-8.9-3.7 6.1-.2 10.9 2.8 14.2 5.9 1.5 1.4 3.3 3.1 4.5 4.7 2.3 3.1 1.8 7.5 4.9 10.4-3.3-1.2-6.9-3.8-7.3-8.5-.2 0-.2-.2-.4-.2.2 1.3-2.2 1.3-3.4 2.2-3.2-1-7.6-2.7-7.5-6.3-.1-2.3 1.3-1.8 1.5-3.7zm.8 3.4c.2.7 2.2.5 2.4 0 .1-1.1-.2-1.7-1-1.8-.6.3-1.5 1.3-1.4 1.8z"/><path class="st0" d="M375.6 126.2c-.4.5-1.1.8-1.6 1.2-1.1 3.2-1.3 6.3-3 8.7-1.7 2.4-4.6 3.9-5.7 5.9-1 .8-2.5 1.9-3.7 2.8-2.8 2.2-6.2 4.1-9.7 6.3-9.1 5.7-16.5 12.4-21.9 17.9-1.3 2.3-4.5 5.5-5.3 7.7-1.6 1-3.7 2-4.1 2.6-2.6-.3-.1-3.5-.8-5.5 3.8-7 9.4-11.4 14.6-16 .3-.2.4-.8.6-1 3.8-3.7 7.9-5.5 12.4-8.3 3-1.9 5.5-3.7 8.1-5.5.5-.4 1.2-.5 1.6-.8.4-.3.8-1.2 1.4-1.6.4-.3 1.1-.4 1.4-.6 0 0 .1-.7.2-.8 1-1 2.5-2.1 4.3-4.1 1.1-1.2 2-2.8 3-4.1.6-2.8 1.6-4.3 1.8-7.7.9.3 1-.8 1.6-.2 1.6-15.3 6.8-27 15.6-35.9 1.8-2.3 4.4-5.9 7.1-8.1.3-.2 1-.2 1.2-.4.2-.1.3-1 .6-1.2.1-.1.8-.2.8-.2.2-.3.8-1.5 1.4-2.2 7.5-8.8 12.6-21.4 18.9-31.7 1.6-2.7 3.1-5 4.9-7.5.5-.7 1.1-1.8 2-2-.6-.6.4-.4.2-1.2 3.2-4.3 6.8-8.7 11-13.2C442.6 11 453 5.6 464.9 1c7.7-3 15-5.4 24.2-5.9 4.2-.2 10.3.1 15 .4 9.3.6 19.6 3.1 26.8 7.9 7.8 5.1 14.5 11.6 15.4 22.3 7.5 1.7 12.2 6.1 17.3 10.2v2.2c-4.1-5-8.4-9.8-17.9-9.5-1.5-1-3.1-1.9-4.5-3 1.4-7.1-2.7-14-6.7-18.3-5.6-6-18.2-8.3-27.4-8.7-6.9-.3-14.5-.6-20.9.4-6.3 1-12.7 3.5-18.3 5.7-5.8 2.3-11.3 5-16 7.7-10.5 6.1-17.2 15.1-23.8 23.8-6.3 8.3-13.1 20.9-18.5 31.5-2.2 2.5-3.2 5.6-5.1 8.1-1.8 2.5-4.2 4.2-5.5 5.7-2.1 2.5-5.5 5.8-8.1 8.5-7.9 9.3-14.1 20.5-15.3 36.2zm128.1 157.2c.9 3 2 4.2 2.2 8.7.8 14.2 9.4 25.5 15.2 35.1.2.4.9 1.2.6 1.8-7.6-9-17.2-20.5-19.7-35.3-.3-2-1.2-5.2-.8-6.9.3-1.4 2-1.8 2-3.3.4-.2.1 1.2.4.4.1-.1.1-.3.1-.5z"/><path class="st1" d="M44.7 262.1c4.5 1.6 8.3 5.1 12.6 6.9 2.5 1 4.8 2.9 7.7 3.4-1.1-1.5-2.2-3.7-3.4-3.2 0-.8-3.7-4.8-6-6-.6-.3-1.3.3-2.2.1-1.6-.5-3.3-2.8-5.2-3.8-3.5-1.8-6.6-2.6-11.7-2.2-11.1.9-24.2 2.9-36.6 3.7v8.6c9.8-2.1 19.8-4.1 29.5-5.9 5.4-1 11.1-3.1 15.3-1.6zM24.5 362.8c3.7-.4 8.6-.3 12.3-1.1 1.1-.2 1.8-1.1 2.9-1.2 10.1-1.2 20.6.6 30.9-.7 5.6-.7 10.5-3.5 16.2-3.8 3.4 2 3.7 7.3 7.2 9.2.5-.6 1.3-.9 1-2.2-3.8-2.1-3.5-7.9-7.6-9.2-5.6-1.8-24.3 8.2-28.7 2.4-1.1.3-3.1-.4-3.6.5.8.2 2.4-.5 2.6.3-11.6-.1-20.3-3.4-30.4-5.2-.5 1.4 2.3 1.2 1.5 1.8-1.7.9-1.9-2.6-3.4-3.2-9-.8-18.1-1.3-25.5-1.8v13.5c8.6-.1 16.9 1.5 24.6.7zM11.7 329c11.5.3 27.2-.3 36.7-2 .8 2.8 2.5 4.6 3.9 6.8-1.3-.4-2.1-3.3-3-2.8 3 4.9 6.6 5.9 11.2 9.8 17.9 4.3 32.4-8.3 30.5-23.9-.7-5.4-4-12-8.9-15.3-10-6.8-27-2.6-32.5 6.9-.3 2-.2 1.6-1.4 2.6-.8 2.6-1.1 7.2-1.4 12.1-.1-.6 0-1.3-.8-1.1-9.6 2.5-23.1 1.4-34.5 2.3-2.4-1-7.6-2.1-11.5-2v10c4.4-.7 9.5-.6 11.7-3.4z"/><path class="st1" d="M55.8 290.1c1.4.4 4.5 2.4 4.4.9 10.7 6.2 35.2 2.5 34.2-11.7-2.5 10.1-12.7 13-26.1 12.9-6.3-3.1-11.8-6.4-20.2-4.8 1-1-.5-.3-.8-1.1-.9.4-2.2.5-3.6.5-13.6-3-29.1-.3-43.7 2.3V302c15.3-1.3 31.8-3 44.7-9.3 3.7-1.2 8.7-2.1 11.1-2.6z"/><path class="st1" d="M56.7 273c5.4 4 10.7 8.1 18.2 9.9-1.5-3.4-6.7-2.9-7.5-7-1.2-.4-.9.6-1.4.8-1.9-2.8-3.9-1.8-5.4-3.9l-.2-.2c.1.1.1.2.2.2.3.3 1 .7.9.1-1.4-1-3.1-1.7-5.1-2-.1.6.6.9 0 1.1 0-.2-.1-.4-.4-.4-3.9-3.4-9.7-1.6-17.1-.9-12.7 1.2-25.9 3.1-38.8 4v9.8c14.7-3.3 31-6.1 45.1-9.7 4.6-1.2 7.7-2.4 11.5-1.8zm89.4 65.4c-1.6-.9-3.1-2.5-4.7-3 .7-.8 3.3 1.5 4.7 3zm-5.9-3.3c-.5.3-2.1.2-3 .4.6-1.5 2.2-1 3-.4zm-13.9 1.3c.4-.5.6.3.9.2.2-.5.4-1 .7-1.5 1.8-.1 3.8-1.4 5.5.2.8-.6 1.2-1.6 2.1-1.3-1 2.4-3.6 1.4-5.3 2.3-.5-.4.1-.8 0-1.2-.6-.4-.1.5-.3.8-.4.3-.2-.3-.8-.1-.3.1-.8.9-.9 1-1.2.7-2.8 1.2-3.9 2.3-.9.8-1.8 2-3 1.3.6-2.6 2.9-2.4 5-4zm-5.2 5c1.4 1.8 3.4.2 4.7-1.3 1 1.5 2.5 2.5 3.4 1.7 0 .2 0 .3.2.5.6-.7 1.7-1.5 2.4-2.5 1.3 1.7 3.1 1.8 4.5-.1-.2 1.1 1.1 2.2 2 2.1 1.9-1.3 1.7-2.7 2.3-4.1 2.4 1 4.1 2.8 5.3 4.9.1.1.3 0 .4-.1.9 1.6.1 3.7.7 4.9.1.2-.3.4-.4.6 0 4.7-3.6 9-5 13.5-2.3 1.5-4.5 4-5.3 6.1-1.8-.6-2 .2-3.8 1.2-.8.5-1.5.6-2.3.7-.4-.2.9-.8.2-.6-.2-.5.7-.4.5.1.6-1 1.6-.9 2-1.9-.7-.3-1 .2-1 .8-.3-.9-1 .4-2 .5-.1-.5-.4-1 0-1.4.6.3.4.6.8.7.1-.3.4-.7.4-1 .2-.1.4-.1.6.2.6-.3.4-.8.8-.7.1-.1 0-.8-.2-.5 0-.3.3-.6.5-.9 0 .3-.1.6.1.9.9-.1.5-1.4 1.5-2 0 1.3-1.1 2.6-2 3.1.5.1.6-.4.8.3-.2-.5.5-.9.8-1.4.3.5-.4.8-.4 1.3 1 .2 2-1.4 2.1-2.4.3.4.5.1.5.6.3-.3.5-.7.4-1-.3-.3-.7.5-.9.3-.2-.2-.1-.4-.3-.7.4.2.8 0 1.2 0 .2-.5-.3-1.1.1-1.6-.5 1 1.6.3.5 1.2.6-.4 1.2-.6 2-.5-.7-.2-1.4-.4-2.1-.2-.4-.5-.2-.5-.7-.9.1.7-1.1.5-1.7.2.3 0 .6.2.9 0 .1-1.9.8-2.1 2-3.3-.2-.1-.5-.2-.8-.1-.4-.5.7-.1.3-.5.3-.2.5 0 .8.3 1.5-.6.8-1.9-.2-2-.3.2.1.5-.3.8-1.4-.8-.4-2.2-.1-3.5-.4-.5-.9.3-1.3-.4-.1-.6.9-.7 1-.8.7-1.3-.7-2.7-2.2-1.5-.1-.9-1-.4-1.2-1.4-.2 0-1.5-.4-.9.3-.7-.1-1.9-.8-2.2.2-.6.2-.2-.5-.1-.7-.2-.3-1.1.1-.9.3-.7.1-.3-.8-.4-1.1-.4.3-.2.7-.6 1-.2-.4-1.1-.4-.9 0-.3.1-.1-.2-.4-.4-2-.3-4.2-.3-5.9-1.6-.2-.2-.5-.1-.8.2 0-.7-1.4-1.2-1.5-.4-.3.2-.6-.6-.8-.7.3-.1.5.3.8-.2-.4-.2-.8.2-1.2-.2.1-.1.3-.2.4-.4-.4-.2-.8-.2-1.2-.2-.3-1.4-1-.4-.4-1.6-.1-.1-.3 0-.4.1-.4-1.4 1.5-1.3 2-2.4-.1.1 2.2.5 1.3 1.8 1 0 1.1-1.5 1.6-2.2zm26.2 21.5c-.1.3-.2.5-.1.8-.8.1-1.4-.5-2.2-.1 0-.2-.1-.4 0-.5-.2-.2-.3.2-.2.4-.6.3-.1-.4-.2-.5.6-.3.3.3.8.3-.5-.7.6-.6.2-1.2.4-.1.5.6 1 .1.3.7-.1.2.7.7zm-15.2 2.7c0 .2 0 .3.2.5-.2.2-.5.4-.7.6-.2-.4.1-1.1.5-1.1zm3.9-8.8c.7.5-.2 1.4-.5 1.4-.3-.5.1-1 .5-1.4zm-10 15c-.2.1-.3.1-.5.2-1.2.6-2.7 2-4.2 2.5-.7.2-1.6-.3-2.1.1-.6.5-.5 1.9-.9 2.4-.5-.9 1.1-4.8 3-3.2 1.4-.8 2.8-1.2 4.1-1.7.3-.2.4-.2.6-.3zm-11.1 19.5c1.3-.4 3.6-.5 5.4-1.6-.6.3-1.9 0-2.1.6-.3.3-.3-.4.1-.5-.3-.3-.7.5-.9.3-.6-.9-2.3-.8-3.3-.6 0-.8-.7-1.1-1.5-.7-.3-.3-.3-.5.1-.8-2-.2-2-3.3-3.7-2.7-.7-1.2-.2-1.7-.5-2.9-.2.7 0 .7-.6 1.2.1-.8.3-1.6.6-2.4-.2-.2-.5.2-.8-.3.4-.5.7-.5 1.1-.7.3.8-.2.9.7 1.4 1.3.4 2.1-1.4 2.4-2.3-.2-.3-.5.1-.7-.3.5-.6.1-.8 1-.8-1.1-.2 0-1.6-.4-2.5.9-.3 1.7-.2 2.5-.7.6.8 1.3.8 2.1.4.4.4-1.8.3-1.8 1 .7.2 1.5 0 2.3-.4.3-.3.4 0 .1.1-1 .5-2 .7-2.9.8-.2.6 0 1-.9 1 .4.9-1.2 3.1-1.1 2.4-.2 1.7 1.3 2.1 2.4 4 1.2-.3 2.6 1.7 3.6-.3 1 .9 3.2-1.3 1.7-1.9.5-.5-.1-.3.6-1-.1-.4-.8-.8 0-1.4 1.7 1.8 3.6 1.9 5.5 1.4.2.2.1.4.2.5.5-.8.8 0 1.7-.5.1-2.1-.2-3.4.2-5.5 1.4 1.4 3 2 4.5 2.8 3.2-1.8-.6-3.9.6-6.5 1.8.9 3.2 2.2 4.8 2 1.4-1.4-.2-3.1-.2-4.6 1.7.1 3.2 2.3 4.5 2.2.2-.4-.7 0-.8-.7.4-.6 1.4-1.5.6-1.9.9-.1.2-1.2 1.3-1.3-1.1.1.3-.4-.2-.8.5-.2.3.5.6.7.1-.2-.3-1.4.3-.7-.2-1-.1-2-.6-3.1 1.4-.1 2.9.1 4.3.3 1.3-2.1-1-4.4-1.2-6.6 1.6-.4 2 .4 3.3.2.5-.6.2-1.3 1.1-1.9.3.4-.2.7-.6 1 .8.1 1 .5 1.6 1.1.7-2.1-.9-5.5-2-8.2 1 .2 1.5-.6 2.2.1.2.6-.2.2.2.8 1.4-.5.8-2.3.3-3.4.2-.1.4.4.6.2.1-.7-3.1-2.5-2.1-3.7-1.2-1.2-2.7-2.8-4.2-4.4 3.3 2.4 6 5.9 7.8 9.3 0 0-.3 0-.4-.2.1.4.5.7.7 1.1 1.6 2.8 2.1 7.7 1.8 10.7.9-2.6.4-6.3-.4-10 5 10.6-.4 20.9-11.6 29-9.8 6.7-21.1 11.6-29.9 12.2zm19.7-16.1c-.5.2-.8 1-.2.9-.4-.3.9-.5.2-.9zm-18.7-226.4c0-.1-.1 0-.2 0-.7.2-1.3.5-1.9 1-11.4 7.2-9.1 28.2 6.1 23.4 19.4-6.2 4.4-26.2-4-24.4zm5.3 19.5c-9.5 5.4-13.5-9.6-7.3-12.8 2.9-7.4 18.5 6.4 7.3 12.8zm10.3-25.6c-.3 1.2-.4 3.4 0 4.6 1.8-.1 3.7-.4 5.4-.9.9 8.5-3.7 17.9-4.2 26.6-3.6-2.2-5.8-.3-6 3.5 5.7-.9 11.7.9 17.5 0 .4-.9.8-3 .7-3.9-2.6-.2-5.4-.1-8-.2.4-14 21.9-2.8 20.3-19-1.3-13.7-16.3-12.6-25.7-10.7zm18.5 12.1c-1.3 4.8-5.5 3.8-9.4 4.9 1.4-3.4 1.9-7.5 3.8-11h-.1l-1.9.6c.6-.3 1.3-.5 1.9-.6h.1c3.7-.7 6.8 1.8 5.6 6.1zm134 4c.1-6.9-1.3-14.1-1.9-20.9 1.5.3 3.6-.5 5.1-.2.1-1-.4-4.2-.7-5.2-4-.1-7.7.6-11.3-.7-.6 1.6-.7 4.3-.7 6 1.1-.2 2.8.4 3.9.2-.4 2.1-1.1 4.7-1.2 7.1-3.2-.7-6.6 0-9.4 1.5-1.3-2.5-.8-5.5-.9-8.5 1.3.7 3.1.4 4.6 1.2-.6-2.2-1.1-4.5-1.9-6.8-3.3-.2-8.5.1-10.1.6l.5.3c-.3.1-.6.2-1.1.5-.4 1.6-.4 4.4 0 5.9 1.2-.5 3.4 0 4.6-.5-1.9 5.5-.7 13.9-.6 20-2.3-1.3-2.8-.6-5.3-.4 0 .4 1 3.5 1.2 4 4.5.7 8.7-1.1 13.3-.5 0-.3.2-3.7.2-4-1 .5-2.6.2-3.9 1-.8-2.8-.8-5.8-1.4-8.5 3.5-1 7.7-1.9 11.3-2.1-.1 2.8.1 6.1.7 8.6-1-.1-2.3.3-3.2.2-.5 1.9-.2 4.2.7 5.9 4.4-1.6 10.2 0 14.8-.7.4-1.3.4-3.9 0-5.2-2.4.4-4.7 1.2-7.3 1.2zm-54.4 2.7c.3-5.1 3.3-15 1.8-19.6-1.8-5.7-6.6-3.1-10.7-3.4.1 8.5-1.1 17.6-2.8 25.8-2.4.1-4.9.1-7.3.2-.2 3.1-.2 6.3 0 9.3 2-1 2.9-2.4 2.9-4.7 10.2 1.2 20.5-3.3 31-2.5-.5 2.4-.6 5.5-1.2 7.9 1.1.3 2.8.3 3.9 0 1.1-4.1.7-8.5 1.5-12.6-5.8 1.3-13.1-.1-19.1-.4zm-8.9 1.4c2.5-4.4 5-12.7 3.3-17.6l.7 1.4c.7-.3 1.2-1.1 2.6-.6-.1 5.4 0 15.8-6.6 16.8zm23.9-28.4c0-.1-.1 0-.2 0-.7.2-1.3.5-1.8 1-11.4 7.2-9 28.2 6.1 23.4 19.3-6.2 4.2-26.2-4.1-24.4zm5.3 19.5c-9.5 5.4-13.5-9.6-7.3-12.8 2.9-7.4 18.5 6.4 7.3 12.8zm-84.8-13.7c-.3-.1-.7-.2-1-.5-2 2.3-2.4 6.2-1.9 9.5 1.5.1 2 0 3.2-.5-.3-.8-.3-1.9-.5-2.7 1.5-.4 4.3-.4 5.8-.1-1.7 4.6-1.8 10.5-1.9 15.6-1-.4-2.3-.2-3.2-.5-.3.8-.7 3.2-.7 3.8 4.3-.8 10.4-.2 14.8.7.3-.9.6-4 .5-4.7-2.4.5-4.7.8-7.1.6.1-6.5-.8-16.7 8-14.8-.4 1.7.1 4.2-.5 5.9 1 .2 2.2.2 3.2 0 1.3-3.7.9-8.1.7-12.1-4.4-.1-15.7-2.2-19.4-.2zm148.7-9.9c-4.4-.2-15.7-2.3-19.3-.4-.3-.1-.6-.2-1-.5-2 2.3-2.4 6.2-1.9 9.5 1.5.1 2 0 3.2-.5-.3-.8-.3-1.9-.5-2.7 1.5-.4 4.3-.4 5.8-.2-1.7 4.7-1.8 10.5-1.9 15.6-1-.4-2.3-.2-3.2-.5-.3.8-.7 3.2-.7 3.8 4.3-.8 10.4-.2 14.8.7.3-.9.6-4 .5-4.7-2.4.5-4.7.8-7.1.6.1-6.5-.8-16.7 8-14.8-.4 1.7.1 4.3-.5 5.9 1 .2 2.2.2 3.2 0 1.2-3.4.8-7.9.6-11.8zm-114.4 8.8c.1 0 0 0 0 0-2 .3-4 1.1-6.1 2.7l1.9-.8c-11.1 7-5.6 24.6 9.7 20.6 15.8-4.2 6.6-24.1-5.5-22.5zm3.3 19.6c-8.1 3.2-12.1-7.7-7.6-12.3l-.4.2c7.4-10.6 19.7 7.5 8 12.1zm61.3 8.9v-1.4 1.4z"/><path class="st0" d="M205 371.3c3.9-2 9.5-3 9.7-5.9-1.4 1.2-3.6 1.2-1.3 1.5-5.6 1.4-11.1 4.2-15.7 8 2.3-.6 4.7-2.3 7.3-3.6zm-16.5 8.5c-.6.8-2.8 1.4-2.4 2.3 3.4-2.7 7.4-3.3 9.5-6.9-3.6 2.2-4.7 3.8-7 3.9-1.6-.9 1.1-1.2.3-2-3.1 2.8-7.4 3.4-9.1 6.6 3.7-2.1 5.4-4.7 8.7-3.9zm103.2 45.9c.2-1.1-2.1 2.7-3.9 3.4-.8 4.4-2.8 9.9-7.1 12.7-3 8.2-7.3 16.4-11.9 24.7h3.2c4.3-7.9 8.8-15.6 12.1-23.1 2-4.6 1.9-10.5 4.6-14.4 1.2-1.6 4.6-2.7 3-3.3zm-8.2 3.1c.3-2.5 3.2-4.6 1.7-4.1-3.4 1.1-2.3 5-3.1 6.9-1.2 2.8-3.7 3.9-5.7 6.5-5.9 7.3-10.9 17.8-16.6 28.4h3.2c5.6-8.9 12-17.5 16.3-25.9 1.9-3.8 3.8-8.6 4.2-11.8zm7.1-8.7c-6-.7-7.9 4.3-11.5 9-2.3 2.9-5.2 5.2-7.3 7.6-7.7 8.8-13.8 21.3-20.8 29.8h4.1c.7-.9 1.3-1.9 1.9-2.8 6.1-9 13.8-17.4 18.5-25.7 4.1-7.1 7.5-17.2 15.1-17.9zm-70.8 34.7c16.4-11.6 38.7-26.4 46.6-43.8-16.2 15.8-40.5 35.8-62.2 46.4 14.8-18.8 34.2-38.1 58.1-54.5-18.8 6.5-39.9 24.8-51.4 39.7 4.9-4.8 10.2-10.4 14.6-13.5-9.2 8.4-20.9 22-31.9 31.3-2.3 1.9-4.9 3.9-7 6.1h14.7c.9-.6 1.7-1 2.6-1.4-.6-.7.9-2.2 1.8-3.1 6.6-6 18.9-13.4 26.6-19.4-1.7 4-8.8 7.1-12.5 12.2zm6.7-27.6c2.7-1.6 3.4-3.5 6.2-5.1 1.5-.5-.7 1.2-1.2 1.5-1.3 1.6-3.2 3.1-4.8 4.6-.4-.4-.5-.7-.2-1zm-12.9-16.9c-.3-1.3-2.4-1.7-1.7-2.3 8.6-3.2 15.1-6 24-11 1.1 1 .6 1.7 1.3 2.6 2.1-.7-1.7-2.3-.5-3.1 2.5-.1 3.8-2.8 5.9-3.1 1.3 3.7.2 1.2 1.1-.8.4.6.1 3.2 1.4 1.9-.4-.5-.7-1-1.1-1.5 1.8-2.6 3.8-1.5 4.7-4-.2 1.9 2.3 1.7 2.4 0-.5.3-1 .9-1.4.5 2-1.4 10.1-8.3 4.8-4.6-24.9 17-49.6 27.1-72.7 29.6 4.3-4.2 10.9-7.3 15.1-12.8.4.4.8.8 1.3.2.3-1.4 1-1.3 2.8-2.6 16.3-11.9 36.4-18 50.9-23.6-2.9.5-6 2.4-8.8 2.3 1.3-.8 4.2-1 4.4-2-6.4.9-13.1 3-19.6 5 5.5-2.9 13.4-7.5 17.1-12.5-.7.4-1.6 1.8-2.1.3.5-.3 2.6-.8 1.1-.8-25.2 13.1-52.8 24.8-77.7 29.2.1-1.4-.4-.4-1.2-.9 8.1-4.3 13.8-7.7 18.9-13.2-5.5 2.9-8.7 5.8-13.5 8.6-7.3 4.4-13.8 1.3-16.3 7.2-3.2-2.8-9.7 3.6-11.7 5.6 4.4-.6 9.8-8.3 13.3-3.3.2 6.8-8.9 3.9-11.9 6.9.6-.2 2.6 1.4 2.3 0-.4.3-1-.3-.6-.8 7.5 1.9 16.2-3 20.5-6.2 6.9-.8 14-3.3 21.2-6.1-.5-1.5 2.1-1.7 3.4-2.5.6 1.4 1.5.6 2 2 1.7-.9 3.2-.3 5-1.9 1.1-.9-.6-3.9.9-3.6.3 1.4 2.4.2 1.9-.7-.1-.1-.3-.2-.4-.4.2.1.3.3.4.4 1.1.9 1.5-.4 1-.8 3 .8 6.7-4.3 12.3-3.1-.3-.8-1.3-.6-.8-1.1 3.7-1.5 6.9-3 9.8-3.4.1-.1.1-.2.2-.4 0 .1-.1.3-.1.4.5-.1 1-.1 1.4-.1-.4.6-.6 1.3-1 1.9-.1-1.1-.7-.8-.5-1.7h-.1c-3.3 6.5-14.9 6.9-20.4 10.5-.3-.4 0-.7-.2-1-.8.4-.4 1.1-.6 1.6-1-1-.9.3-2.2-.7 1.8 1.2-1.9 1.5-1.1 2.5 6.3-2.1 12.7-5.4 18.9-6.8-7.3 3.9-16.3 8.1-22.8 14.3-1.9 1.1-.4 1.4.7.1 1.3 0 3.1-2.5 4.3-1.4-10.2 8.4-25.1 12.4-32.5 20.1 1.5 1.7 3.7-.5 5.4.2-.2 1.2-2.3 2.1-3.5 3.1.6.8 1.1 1.5 1.7 2.3 13.5-6.9 25.1-10.2 39.7-16.6 1.2 1.4 2.2 3.1 3.5 2.1zm15-32.9c0 .5.1.9.4 1.4.2-.8.5-.9 1-.2-.4.9-2.1-.2-1.5 1.1-1.2.3-.8-1.9.1-2.3zm-36.3 14.8c1.1-.5 3.9-.7 4.1-2.4 1.4-.5-.5 1.2.7 1.8-1.8 1.1-3.6 2.7-4.8.6zm22.8-25.4c8.1-3.9 15.8-4.7 23.6-6.7-7.1-.1-17.8 1.4-23.6 6.7zm-3 62.2c14.1-8.3 30.9-20.1 44.2-30.4-.7-1.2-2-4.2-3.2-5.2-14.3 5.9-34.1 22.6-47.6 30.5-4.3 11.2-23.4 16.1-32.7 26.2 11.1-1.8 19.5-15.8 31.1-19.7 2.5-.9 5.6.1 8.2-1.4zm66.6-10.7c-11 12.7-24.1 25.2-32 38.4-2.4.2-2.7 3.6-5.2 4.9-.6 1.2.3.9.1 1.7-.9 1-1.8 2.1-2.7 3.2h3c12.9-16 26-31.9 37.5-48.1 3.2-2 1.6-2.2-.7-.1zm-6.2 3.3c-.6.3-1-.7-1.5-1.2-12 11-31.9 26.7-42.7 40.4-1.7 2.1-3.5 3.9-5.5 5.7h1.5c15.5-13.5 35.7-31.2 48.2-44.9z"/><path class="st1" d="M234.9 234.2c.8.4 2.4-.1 2.5-1 0-1.3.1-2.5.2-3.8.3-.2.5-.5.3-.7-.1-.1-.2-.3-.2-.4.8-9.8 2.9-19.3 6.4-28.3 0 .5 0 1 .1 1.4.4 2.7 1.7 4.1 3.4 6.1 3.8 4.5 1.8 7.8-2.6 11.1-1.6 1.2.8 1.9 1.9 1.1 4.2-3.1 8.3-7.4 4.3-12.4-3-3.8-4.9-6.2-3.5-11.3 1.1-4 3.1-7.7 4.1-11.8.3-1.4-2.4-.6-2.8 0-7.7 13-12.4 27.3-13.9 42.3-2-.4-4.4.3-6.2 1.1-.1 0-.2.1-.3.1h-.1c-3.2 1.8-5.8 4.1-8.1 6.9-.1.1-.1.1-.1.2-1.3 1.5-3 3.2-3.2 5.2-1.4 5 5 4.2 7.8 3.1 4.1-1.4 8.6-4.4 10-8.9zm42.8 14.2c-7.6-.6-15.2-.6-22.7.1.1-.5.1-1.1 0-1.6v-.2c1.1-13.2 5.4-25.7 12.5-36.9.8-1.3-2.1-1.3-2.8-.3-6.8 10.6-10.9 22.4-12.4 34.8h-.1c-2.3-.5-4.9.6-6.9 1.7-1.9 1.1-4.1 2.8-5.4 4.8-5 1.1-10 2.5-14.9 4.2-1.7.6-1.3 2.4.5 1.8 4.4-1.5 8.9-2.8 13.4-3.8 0 .1 0 .2-.1.3-.1.3-.3.5-.3.8-.2.8 0 1.5.5 2.1-.3 1.1.2 2 1.6 2.5 1.3.4 2.8 0 4.2-.5.9-.3 1.9-.8 2.7-1.3.3-.2.6-.4.9-.5 2.2-1.4 4.6-3.4 5.9-5.8 7.4-.7 14.9-.8 22.4-.2 1.3 0 3-1.9 1-2zm-28.1 3.8c-.7-.1-2 .2-2.3.6-.4.6-.7 1.1-1.1 1.6-.6.8-2.5 1.9-3.6 1.5-.1 0-.1-.1-.2-.1l-.2-.2c-.1-.1-.1-.3-.2-.4.1-.2.1-.3.2-.6.3-.7.9-1.4 1.4-2 .2-.3.5-.5.7-.8 2-.4 4-.7 6-.9-.2.5-.5.9-.7 1.3zm-3.1-2.6c1-1 2.1-2 3.1-2.9h.6c1.2.2 1.1.6 1 1.5 0 .2-.1.5-.2.8-1.4.1-3 .4-4.5.6z"/></g></svg>