<svg xmlns="http://www.w3.org/2000/svg" viewBox="0 0 566.9 467.7"><style>.st0{fill-rule:evenodd;clip-rule:evenodd;fill:#ee7f00}</style><g id="Layer_1"><path class="st0" d="M108.1 240.6c.3-.6.5-1.2 1.3-1.5 39.6 1.5 75.8-5.7 104.7-18.2-.4-4.5-.7-9-1-13.5 2.3-11.8 32.7-11.6 23.6 5.7-3.4 6.4-16.5 6.2-21.7 10.5-1.3 2.7 2 7.1.1 10.2-2.5-1.2-1.4-6.7-4-7.8-16.2 3-28.8 9-43.9 12.9 13.8 3.5 29.3 5.1 44.7 6.7 3.2-1 1.6-6.2 3.4-8.4 3.2 0-.8 6.3 2 8 3.5 5.5 18.6 1.3 22.9 6.4 11 12.8-16.9 21.7-21.8 8.5-.6-3.7-.1-6.4-.1-9.5-29-11-71.7-6.3-108.3-1.2 3.9-3 10.8-3.2 17.4-4 8.1-1 17.7-.2 22.1-4.4-11.5-2.8-30.2 2.7-41.4-.4zm128-34.2c-2-9.7-24.1-4.4-19.9 7 4 10.7 21.6 1.4 19.9-7zm4.5 49.8c-1.5-8.8-24.9-6.1-19.4 4.9 3.5 6.9 21 4.1 19.4-4.9zm-13.3 135.7c.7.5 1.5.9 2.3 1.4 3.5 2.8.8 7 2.5 10 .8 1.4 2.2 2.3 3 3.4.9 1.3 2 3 2.1 4.7.1 3.6-3.6 9.6-6.7 12.1-1.4 1.1-3.4 1.4-5.1 2.4-4 2.3-8 6.8-12 11.1-4.2 4.5-8.3 9.4-11.2 14.1-.9 1.4-1.3 3.1-2.8 3.9-3.1-1.4-1.2-4.6-.7-6.7 1.3-5 2.6-9.4 3.6-14.7.4-2.1 1.4-5.7-.4-6.8-2-1.2-5.1 2.1-6.5 4.2-1.9 2.7-3.5 6.2-5.6 9.3-1.3 1.9-4.3 7.5-6.4 6.1-1.3-.9-.1-4.2.5-6.2 1.9-6.7 4.5-13.3 6.2-19.8 1-4.2 1.2-8.6 2.3-12.8 1.1-4.3 1.8-8.6 2.9-12.9.5-.8 1-1.6 1.4-2.4.7-.6 1.7-1.6 2.5-2.1 4.1-2.2 9.1-3 14 0 .8.5 1.6 1.4 2.6 1.7 1.5.5 4.2-.8 6-.9 2.1-.3 3.8.3 5.5.9zm-16 38.2c.5-1.1 3-.2 3.8-.3 3.9-.4 5.2-3.9 8.5-6.8.9-.8 2.4-.6 3.6-1.2 2.8-1.4 7.6-5.5 8.1-9.2.5-3.5-4.2-5-5.6-8.3-1.1-2.5.6-5.2-.4-7.8-.8-2.3-3.9-4.4-6.6-4.4-2.3 0-4.7 2.3-6.9 1.8-2.6-.6-3.6-2.6-5.4-3.6-3.7-2.1-8.7-1.1-11 1.7-2.5 3-2.9 6.1-3.4 9-.4 2.1-.9 4.3-1.3 6.3-.7 4.1 1 7.9-.1 11.9-.5.2-1 .3-1.7-.3-.3 5.8-3.2 12.9-6.3 19.4-1 2.2-2.4 4.3-2.3 6.6 5.2-3.2 8.5-13.3 13.1-19.1 2.5-3 7.8-.2 8.7 3.1 1.1 4.1-3.3 12.3-5.3 17.1-.6 1.6-1.8 3.6-.8 4.9 1.8-.5 2.6-2.6 3.7-4.3 3.5-5.2 7.3-10.5 10.7-14.7-.9-.4-3.8-.3-3.1-1.8z"/><path class="st0" d="M214.1 394.4c1.7 1.8 3 3.6 3.7 5.7 2.6-.4 5.3-.3 8.6 2-2.6-.1-5.4-1.2-7.6.5.4 3 2.1 5.6.5 9-.7-.2-.5-1.2-.7-1.9-.6-2.2-1.3-6.2-4.5-7.6-2.1-.9-4.8-.6-6.7-.3-.5.1-1.3.5-1.7.1 2.6-2.8 5.6-4.1 9.5-1.7 1.1-2.3-.5-3.9-1.1-5.8zM65.4 277.2c4.4-.5 9.7 3.3 14.8 6 .3 1.5-2.2 1.6.2 3.2-3.7-.6-8.2-7.3-12.8-7.7 1.9 4.3 5.2 8.3 9.9 12.1-1.6.5-3.6-1-5 .5-4.1-5.2-5.2-8.4-7.1-14.1zm127.7 75.2c-6.4-9.2-11-18.7-19.9-27.3 9.6 4.8 16.7 18 19.9 27.3zm-179.6 3.1c2 2.9-1.6 11.4 2.5 14.9 2.6 2.3 8.6.6 11.5 1.5 9.2 2.7 18.6 10.9 30 14.6 22.9 7.5 52.8 25.8 72.7 36.1-.5.9-1.6 1.9-.9 2.5-26.3-10.8-63.6-31.4-89-45.5-2.3-1.3-3.8-1-6.7-2.9-1.3-.9-3.2-2.3-3.8-2.5-4.8-1.8-10.8.5-14.8-3.6-3.3-3.6-1-11.5-1.5-15.1z"/><path class="st0" d="M183.7 361.7c-1.6 1.3.6 1.8 1.4 2.5-8.2-2.5-17.9-10.6-24.3-16.2 5.7 7.6 11.5 15.2 15.8 23-1.4.3-3.1-3.4-4.7-4.7 1.2 3.6 5.2 6.8 7.2 10.3-14.1-16.1-31.7-39.1-54.8-54.5-2.5-1.7-2.8-2.6-4.7-2.3-1.1-.4-.7-1.1-.4-1.8-9.1-2.9-16.3-9.9-23.7-13.5 14.2 28.6 39.1 55.7 72.9 79.9 7.3 5.1-5.6-2.1-8.3-4-.3.7.7 1.1 1.3 1.6-2.1.7-3.6-2.4-1.1-3.1-3.7.1-3.2-3-7.4-4.1-.5.7-1 1.4-1.4 2.1-2.4-1 1.2-1.9 1.8-2.7-3.1-.3-5.8 2.4-1.6-1.1-1.4-2.5-5.5-2.9-6.8-6.1-1.6-1.1-1.9 4.5-3.8 2.1.8-1.3 2-1 2.7-2.9-10.7-9.1-17.4-16.2-25.7-25.7-1.1-.6-.6 2.2-2.2 3.2-1.9-1.3-.2-3.4 1.3-5.4-15.2-15.8-25-29.1-40.3-43.3.7-1.1 1.4-2.2 2.2-3.2 1.9 1.1 4.1 3.3 5.8 3.1.1-2.5-3.8-4.2-2.3-7 13.5 5.9 25.8 23.2 41.5 32.4.9-2-3.2-3.1-3.8-4.9-2.1-.8-2.5-2.9-.2-.9 11 5.6 20.7 15.1 29.3 22.7-4.7-7.3-12-14.1-17.8-21.2.9-1.6 3.1 3 3.8.2-.6 2.2 1 1.5.2 3.2.8 0 1.4-.9 2.3 0-.4.4-.9.2-1.3.7 7.5 5.5 13.6 20.7 23.9 21.4-2 0-1 .6-2.5 1.4 1 .3 1.9.1 2.9.4-1.7-4.2-5.7-8.2-10.1-13-1-.3-.3.8-1.1 1.6-1-7.7-9.5-10.1-9.9-14.4-.5.9-2.6.9-1.3-1.6-.4 2.5-4.1-.3-2.2-1.4-.3-2.1-3.4 1.5-5 .5-2.9-1.6-2.9-3.8-4.8-5.6 1.5-1.4.1-2.2 1.6-3.6-1.7-1.4-3.1-4.6-4.9-3.2-7-8-13.7-16-17.9-24.5-6.2-4-16.6-12.9-17.8-23.6-.8-.3-1.3.7-.7 1.1-1.6 1-.5-2.3-1.1-3.1 5.3 2.4 5.9 15.6 14.6 12.1 4.8-6.9-7.7-10.3-10.6-15.6 3.5 1.6 14.8 6.9 12.8 12.4 8.8.4 7.9 10.3 17.1 17.6 6 4.9 11.2 7.7 17.6 13.3-9.5-4.1-16.6-9.7-26.1-18.2-.3 1.3 1.4 1.5-.5 2 17.5 30.1 45.7 60.3 74.7 86.6.7 2-.9-.5-1.6-1zm-49.2-50.1c-2.2.6-3.9-2.9-5-4.1-2.2 2.6.8 4.2 3 5.9.2-1.8 3.2-.2 2-1.8zm28.3 36.9c1.4-1.4.8 1.3 2.2 1.4.7-1 .3-1.4-.7-1.3.5-.8 1-1 1.6-1.2-1-1-4.1-.3-3.1 1.1zM2.1 387.6C21 390 44 398.9 60.8 405c1.1 0 .4-1 2.2-.9 2.9 2.6 7.4 1.3 8.8 4.3 20.9 3.9 43.2 14.9 65 23.1 3.8 2 4.2 4.1.2.9-35-9.5-70.7-22.8-106-34.2-2.1-1.3.1-.6.5-2-9.9-2.9-20.1-7.2-29.7-8.2-2.4-4.2-1.3-5.5.3-.4zm-3.3 9.5c1.5 2.4 1.8 4.9 3.8 7.2 17.4 6 35.2 5.1 50.4 13.4 2-.1 1-1 3.1-1.1 14.6 6.5 36.6 8.2 53.4 14.7 4.1 1.6 8.4 4.2 13.3 5.8 7.8 2.4 15.2 2.6 17.1 10.6-4.5-9.4-19.2-9-30.2-10.9-12.9-2.1-27.6-8.2-42.1-11.8-15-3.7-29.3-8.7-42.1-11.8-2.2-.5.8-2-1.4-2.5-8-2.2-25.4-2.1-25.3-13.6zm-1.1 18c2.4-.4 1.9 3.6 3.8 4.9-2.1.3-2.4-3.6-3.8-4.9z"/><path class="st0" d="M19.1 423.9c.7-.3 1.6.3 2.2-.9-7-2.5-13.3-.9-20-1.7 17.6-5 37.6 4.5 59.6 7.9 17.9 2.7 35.6 4.1 49 8.6 4.3 1.5 7 4 11.2 4.3 2.8.2 7.4-3.1 10.4.7 1.4 1.7-2.7-1-6.1-.2-4.4 1-11.5.8-17.3.1-13.9-1.7-29.2-6.4-44.5-9.4-15.1-3-30.4-5.4-44.5-9.4zM-5.7 433c3.8 6 7.7 2.9 13.1 2.5 31.9-2 68.2 9.9 99.7 9.8 5.7 4.1 13.7 4.2 19.8 3.1 1.8 2 7.8 3.1 6.3 3.4 0 2.4-3.1-1.5-5.6-2.2-6.3-1.7-13.9 1.3-20.9.8-14.6-.9-30.6-4.2-46.6-6.2-15.9-2-32.2-2.4-46.6-6.2 1.4-.8 3.3.8 4.7 0-6.8-2.5-17.9 3.6-23.9-5zm145.3-138.2c1-1 2.8 1.6 4.1 2-.5-4.6-4.8-5.6-9.3-9.4 5 .7 7.9 5.9 12.9 8.7-.7 1.4-2.3-1.9-2.7.5 1.3 3 3.9 3.6 8.4 7.2-5.6-1-8.3-5.9-13.4-9zm35.2 29c-3.9 1.2-7.7-5.6-12.2-9.7-3-2.8-6.3-5-8.1-7.7 7 4.2 13.3 10 17.8 16.6-.8-3.3.3-.4 2.5.8zm-23.2 69.4c-19.6-12.3-43-28.4-60.4-42.7-3.2-2.6-3.4-7.1-5.7-10.1C75 327.3 52.8 323 45.2 309.6c17.5 7.3 32.9 29.7 49.5 29.9 16.7 13.6 47.8 31.3 62.2 47-.8 2-4.1 5.2-5.3 6.7zM17 337.5c4.4 1.1 11.4 11 15.7 5.8.4-6.7-9.6-4.9-14.2-7.9 7.7-4.3 15.9 2.1 23.2 6.2 17.3 9.8 40.5 18.4 55.8 26.3-6.1-4.2-15.9-8.4-24.5-12.4 24.8 7.7 58.5 26.4 75.9 47.6-32.5-23.1-66.8-39-98.2-49.3 24.1 23 61.5 44.9 89.7 58.4-26.4-2-56.1-23.8-79-39.5 8.3 2.3 15.8 10.1 21.8 10.6-11.4-7.1-26.9-19.5-37.8-25.2-1.6-.8-4.2-2-4.9-.9-6.2-6.6-18.5-9.9-23.5-19.7zm70.3 50.1c.5-.6 1-1.2 1.8-.4 9.6 6.4-4.4-5-4.9-3.2 1.9 1.1 3.4 2.2 3.1 3.6zm20-14.6c.7.5 3.8 2.7 2.5.9-3.4-2.8-6.2-2.9-9.5-5.6-.5-.2-.9 0-1.3.7 2.8 1.2 5.6 3.1 8.3 4zm21.2 12.6c-1.6-.8-6.2-4.9-5.8-3.1 1.7.8 6.3 4.9 5.8 3.1zm.7-300.7c-1.7 9.8 1.7 24.7-2.6 33.3 2 5.5-.6 9.5-3.3 13.7-4.7-1.4-2.6-9.6-4.6-13.7-3.4 2.7-24.4 15.9-25.5 2.6-.4-4.9-5.6-8.9-4.6-17.6 2.5 1.2 1.2-9.3 3.9-7.8-1.7-4.4 3.5-5 3.9-9.1 2.3-.9 3.4 1.1 3.3-2 10.3 0 12.2 2.5 18.3 4.6 1-.3.6-2 2.6-1.3-1.2-3.2.9-1.8.7-5.2 2.9-.8 5.4-.1 7.9 2.5zm-29.4 8.5c-8.1 4.4-8.5 19.6-1.3 25.4 2.5 2 6.4 1.3 9.2 2.6.1-.8-.1-1.8.7-2 7.1-.3 6-5.8 7.9-10.4-.5-.1-1.3 0-1.3-.6 3.6-3.9-1.8-12.6-.7-16.3-4-2.1-7.6-3.1-9.8-3.9-.1 2.7-.4.1-1.3 0 .6 3.5-4.8 1-3.4 5.2zM72.3 74.5c-3 13.7-2.3 28.1-5.2 43.7-.9 5-3.1 12.1-5.9 15.7-.8 1-2.6 1-3.3 2-1 1.4-1.9 4.4-4.6 5.9-3.6 1.9-13 4.2-15.7 3.9-3.5-.4-6.1-3.7-9.8-3.9-6.2-9.7-15.8-23.8-11.1-35.2 2.4-.4 6.5.8 7.8-.7 1.4 7.4 1.2 8.7 2.6 17.6.1.8 1.2.6 2 .7 1.1 6.4 3.3 7.7 6.5 12.4 2.7-2.1 11.2 1.6 11.1-3.3 6.2.4 9.4-8.6 9.8-13.7 6.1-6.2 2.5-14.6 3.9-22.2.5-2.5 1.7-6.8.7-12.4.5.1.6.7 1.3.7C59.6 70.9 61 56 61.1 44.6c.3-1.6-3 .4-2-2-9.2.4-8.4-1-15.7 0-.9-6.3 1.7-5.2 2.6-9.8 1.2 3.4 10.9-.5 11.1 2 5.3-4.7 12.3 1.5 17.7-3.3 2.9 2.9 5.4.8 7.8 2.6-.5 3.1.7 4.5.7 7.2-4.1.8-5 .2-8.5-.7-4.1 3.1-1.5 8.7-2 15.7-.2 3.7-3.7 8.6-1.3 15-.8-1.1-2.8 3.8.8 3.2zm137-5.3c12.1 3 22.8.7 31.4 3.3-1 1-.5 2.7.7 3.3-1.5 2.6-3.4 4.8-4.6 7.8-1.7-1.7-.5 1.1-2.6.7-3.6 6.5-10.3 5.9-12.4 13.7-2.1-1.6-1.8 3.5-4.6 3.3.5 5.6-.1 6.3-.7 11.1 8.8-.3 12.6.2 16.4-2 1.5 2 .4.3 2.6 0-.1 1.6.8 1.1.7 0 4.7 3.5 12.7-1.9 11.8 5.9-.1.7-3 .4-1.3 2.6-4.4-.1-5.5 2.1-9.8.7-1.1 3.4-2.8-.5-3.9 2-4.6-3-15.6 2.8-20.9-.6-.6 0-.5.8-.7 1.3-6.1-2.2-1.2-9.6-2.6-13 3.4-2.8 5.7-10.3 8.5-15.6.9 1 5.3-4 2.6-4.6 2.3-1.2 4.3-2.6 5.2-5.2-2.3-8.7-15.3-1.4-18.3-5.9 1.4-1.8 1.4-3.2.6-5.9.9-.9 2.5-.8 1.9-2.9zm-21.8-15.8c-.7 2.9 1.1 3.2 1.3 5.2-3.8 6.6-9.9 11-13.1 18.3-1.3-1.1-.8.1-2.6 0-2.7 5.3-8.8 10-5.9 15.7 7.3-2.5 18.5-.1 26.2-.7-1.7 3.6.2 6-1.3 8.5.8-1.3-3.6-2.6-1.3 0-11.3-1.4-23.5 2.1-29.4 0-3.4-8.3 1.8-12.1 2.6-19.6 3.4-1.6 5.4-4.6 5.9-9.1 4.6-1.2 4.6-4.4 5.9-7.8-2.9-6.4-14.5-.5-19.6-3.9.1-2.5 0-4.8-.7-6.5 4.5-3.1 23.6 2.8 32-.1zm49.3 99.3c1 2.4 1.1 6.7 1.1 9.3-2.4 1.2-7 1.3-10.2.9v2.7c3 1.3 8.1-.9 10.2 1.3.2 1.9.2 5.5-.5 7.3-2.7 1.2-6.8-.4-10.2.4-.4.6-.1 2-.4 2.7 3.8-.1 7.8-.4 10.9 0 1.7 1.3.3 4.2.2 6.4-.1 1.2.8 2.3-.2 2.9-.9.6-1.8-.1-2.9-.2-5.6-.4-13.4.4-17.6.2-.9-3.9 1.9-10.6 0-14.8.5-6.3 0-12.5 1.3-17.7 2.9-1.5 6.6-.5 10-.7 3-.1 5.8-1.8 8.3-.7zm-16 3.8c.1 9.3.4 18.7-.7 27.2 4.6-.9 9.8-.2 14.9-.2.2-1 .3-2.2.5-3.3-3.3-.1-7.6-.1-11.1.2-1.6-1.7 0-5.7 0-8 2.4-1.4 7-.7 10.7-.9v-2.7c-4-.5-8.5.9-10.7-.7.5-2.2.2-5.3.9-7.3 2.1-1.8 7.1.2 9.8-1.3-.7-1 .1-3.5-.9-4.2-4 1.5-9.1.4-13.4 1.2zm42.7 15.9c4.8 6 3 15.3-5.6 15.7-4.9.2-9.5-1.5-14.7-1.5-1.1-9.3 2.3-19.1 1.8-28.6.6-.8 1.5-1.3 1.8-2.4 2.2-1.5 4.5-2.1 8.9-1.6 4.9.6 9.3 1.6 11.1 4.7 2.6 4.5 2.2 12.3-3.3 13.7zm-7.4-.4c.2-2.1 5-1.4 6.7-2.2 3-1.4 3.4-7.2 1.1-10.2-1.2-1.5-9.6-3.3-12.4-2.9-3.9.6-3.4 4.6-3.8 8.4-.7 6.9-1.2 11.6-2 18.6 4.7.4 13.6 3.2 16.7-.4 1.8-2.1.4-5.2-.4-8-.9-2.2-6.1-.6-5.9-3.3zm44.9-16c.1 2-1 3.7-1.3 6-.3 1.8.1 5.1-1.6 5.5-1.8.5-4.2-2.8-7.3-1.8-.5 6.2-2.2 11.1-3.3 16.6 1.9.7 5.5-.3 6.4 1.3.1 4.4-6.6.1-8.9 2.4-2.4-1.5-11.3 1.8-12.4 0-1.5-2.3 3.4-2.9 5.3-3.3.2-5.5 1.1-10.2 1.3-15.5-2.4-.9-5.1.6-6.9.2-1.3-2.6.8-6.9 0-9.1 1.7-3.2 6.2-2.7 10.4-2.7 4.5 0 10-.2 14.7-.4 1.4.1 2.8-.4 3.6.8zm-25.3 3.4c-.2 1.7-.6 3.1-.7 4.9 2.9 0 4.4-.3 6.9-.4.8 2.5.3 5.7 0 8.9-.3 3.4-1.2 7.1-1.1 10.4 1.2-.1 2.3-.3 3.6-.4.9-6 4.1-11.7 2.9-18.4 1.4-2.5 6.4-1 9.3-.7-.1-1.9 1.3-4.4.7-5.3-6.7.8-15.8-.7-21.6 1zm-95.6 30.5c1.5 7.1-9.9 9.1-11.8 3.1-3.9 2.9-13.6 7.9-18.4 2.9-1.2-1.3-2.8-4.3-3.1-6.4-1.1-7 7-16.5 15.8-13.7-.3-2.9 1.1-9.5-1.8-10.2-4.7-1.2-3 6.2-6.2 8.2-1.5 1-3.7.9-5.3-.4-.5-5 1.9-10.7 4.7-13.1.5-.4 1.6-.7 2.4-1.3.9-.7 1.2-1.5 2-1.8 5-1.9 10.6.8 12.2 4.4 1.6 3.6.5 9.3.7 14.2.2 5 1.8 12.7 4.7 13.5 1.4.4 4.1-.5 4.1.6zm-11.7-13.2c-.4-5.1 1.1-10.1-.4-13.7-1.2-2.8-4.6-3.8-8.2-3.1-2.9 3-8.2 6.2-7.3 11.5 2.1-2.9 2.9-8.8 7.6-8.9 6.9-.2 5.6 9.4 5.8 15.3-2.9 2.3-6.6-.3-10 1.1-2 .9-4.8 4.5-5.6 6.4-1 2.7.1 7.4 2.2 8.9 2 1.4 6.4.8 8.4 0 3.1-1.2 5.5-4.1 8.7-4.9 1.4 1.2 1.9 4.5 4.2 4.7 1 .1 2.3-.8 3.1-1.8-6.7-.4-8-8.9-8.5-15.5z"/><path class="st0" d="M251 168c-.8-2.1.4-5.8-.2-8 3.8-2.6 10.1-1 10.7 3.1.7 5.3-5.1 6.5-10.5 4.9zm2.9-6v3.3c6.9 2.2 4.3-5.6 0-3.3zm-43.8 27.9c-2.3.6-4.7 1.1-7.1 1.6-2.6-4.4-.9-13-1.8-19.1-3.7.2-6.6 1.2-10 1.8-3 3.8 3 12.9-.2 16.2-1.3 1.4-5.9 1.3-7.1-.4-.2-6.6 1.6-17.1-.7-22.8.9-1 .1-2.4.9-3.5 3.3-.8 6.7-1.2 10.7-1.1 1.3 0 2.4.6 3.6.7 1.6 0 3.3-.9 5.1-1.1 1.9-.3 3.6-.2 5.1-.7 2.4-.7 1.9 5.7 1.8 8.9-.3 5.7.2 14.3-.3 19.5zm-2.9-25.2c-6.7 1.7-14 .5-21.1 1.3 2.2 5.6.8 16.4.7 22.4.9.1 1.1-.4 2-.2-.5-5.6-2.1-10.5-.4-15.9 4.2-1.5 9.6-3 15.1-2.4 1.7 4.8.9 12 1.1 18.2 1 .1 1.4-.4 2.4-.2.9-7.3.1-16 .2-23.2zm-88.8 3.8c2.6-4 11.3-7.3 14.4-1.8 4.4 7.7-3.2 19.8-.4 27.7.3 1 1.4 2.3 2 2.4 2.6.5 3.6-3.5 6.2-1.8 2.2 4.6-3.1 9.5-8.2 9.3-4-.1-6.2-1.5-7.8-4.7-.5-1-1.3-2-1.6-2.9-2.2-7.8 2.5-13.9 1.8-21.3-5 1.1-4.7 9.5-6.2 14.8-.4 1.3-1.3 2.4-1.6 3.5-.6 2.5-.3 5.6-.7 8.4-.5 3.7-1.6 8.1-2.7 12-1.5 5.5-3.1 13.6-9.6 10.6-.8-4.5 2.2-8.9 3.3-14.6.6-3.4.5-7.4.9-11.3.4-3.7 1.1-7.8 1.3-11.7.4-8.7-1.1-23.1 5.3-23.7 2.1 0 3.9 2.1 3.6 5.1zm14 30.7c-8.9-5.6 3.5-27.4-3.8-32.6-5.1-.4-8.1 3.3-9.6 6.4-.7 1.5-.4 3.7-2.2 3.5-2.9-.2-.4-7.2-1.6-9.8-3.1 3.9-2.2 10.1-2.4 15.7-.6 14.1-2 28.9-5.8 39.9 2.9-3.9 4.1-9.3 5.3-14.8 1.2-5.6 1.5-11.9 2.2-17.9.2-.7 1.2-.7 1.6-1.3 1.4-7 1.7-17.3 10.7-15.3 3.4 6.6-2.6 14.3-1.1 22.2.4 1.9 1.9 3 2.4 5.1 2.7 1.1 7.1 1.8 8.7-.9-1.9.7-3.4.5-4.4-.2zm-54.5-29.6c0 2.3 1.6 6 .4 8-2.4.2-5.5-.6-8 .4-2.1 5.6-1.1 14.3-2.4 20.6-2.5.1-6.4-.2-8.7-1.1-1.1-4.6.8-9.8.2-15.3-3-1.4-8.2-.6-11.1-2-.7-2.9-1.8-6.4-1.6-9.5 1.7-1.3 3.9-.7 6-.7 8.1.3 18.1-1.4 25.2-.4zm-28.2 3.1c.3 1.8.9 3.4 1.1 5.3 4.1 1 10.8-.4 11.8 3.3.2.7-.2 1.8-.2 2.4-.2 3.6.1 7.9-.7 11.5 1.6-.2 2.4.4 4 .2.5-6.4-.4-18.1 3.1-20.2 1.7-1 3.9-.6 6.7-.9.1-.9-.4-1.2-.2-2.2-9.7-.2-16.7 1.7-25.6.6zm54 15.2c-4 1.3-9.8 1.9-14.9 1.3-.7 6.9 5.5 7.2 10.2 4.9.9-.4 3.1-2.8 4.4-2.4 2.9.7.5 5.7 0 6.4-1.7 2.4-7.1 4.4-11.1 4.4-8.8.2-16.9-8.6-12.9-18.4 1.8-4.4 6.8-8.7 10.7-10.2 2.6-1 5.3-1 8.4-.9 4.2 2.4 6.4 8.8 5.2 14.9zm-5.8-11.7c-1.3-.6-5.5 0-7.1.7-4.3 1.9-9.9 7.6-9.3 13.7.8 9 13.5 11.5 18.9 6-6.5 4.5-15.9.3-14.7-7.5.8-5 6.4-1.1 10.7-2.9-2.9 0-6.1.2-7.8-1.1-.6-3.6 3.3-7.5 6.9-6.9 2.9.5 6.2 7.2 2.2 8 1.2-.1 2.2-.5 3.6-.4-.7-3.8-.6-8.4-3.4-9.6zm-5.8 6.9c1 .3 3.3.4 4.2 0-.5-2.2-3.5-2.2-4.2 0zm156.5-.9c-.6-2.3.6-5.2-.2-6.6 3.2-4.1 10-1 10.4 3.1.5 4.7-6.1 5.2-10.2 3.5zm3.3-5.5c-.1 1.1-.5 2-.4 3.3 1.5-.1 3.6.3 4.4-.4-.6-1.8-1.5-3.2-4-2.9zm-98.7 9c1.4-3.5 9.9-4.2 10.9-.2 1.3 5.1-7.5 8.9-10.2 5.1-.9-1.3-.4-2.6-.7-4.9zm3.4.9c-.2.6-.3 1.4-.2 2.2 2.2.5 4.6-.4 4.9-2.4-1.4-.8-3.1 0-4.7.2zM406.2 34.8c10.3 4.5 15.9 21.5 11.3 33.7-1-.1-1.3.4-1.9.7-1.3-.4-2.1-1.3-3.1-1.9-.1-.7.3-1.9-.5-1.9 3.4-7.8 1.2-19.4-2.6-26-1.1-1.7-2.9-2.9-3.2-4.6zm2.6 56.5c.2 2.1-.5 3.3-1.2 4.6-3.9-.4-5.8-2.8-10.4-3.4-8.8-1.1-18.4 2.8-23.6 6.7-.2-2.1 1.9-3.1 3.4-4.1 1.4-.9 3-2.2 4.6-2.9 2.8-1.2 6.2-1.3 9.2-1.9 6.5-1.4 13-3.6 18 1zm72.1 43.8c.2 1-1.3 1.4-1.2.2.6.1.5-.4 1.2-.2zm-40 24.3c.2 0 .2.3.2.5-3.7 8.6-22.1 9.9-28.9 2.9 4.7.3 8.5 2.7 12.8 2.9 5.4.1 11.7-2.4 15.9-6.3zm122.2 25c-.4 1.2-1.8 2.1-2.9 2.6-6.3 3-15.7 4.8-20.5 9.9-1 1.1-1.3 3.2-3.4 2.9-.2-2.5 3.2-4 5.1-5.3 6.1-4.1 14.4-7.2 21.7-10.1zm2.2 2.8v8.7c-1.2-.6-2-3.8-2.9-5-.2-.3-2-1.3-1.9-1.7 0-.5 4.4-3.1 4.8-2zm-1.2 10.6c-.8 1.7-2.5 2.4-4.6 2.9.6-3.1-4.8-5.7-4.8-7.7 0-1.7 2.3-2.1 3.9-3.1 2.3 2.4 3.9 4.5 5.5 7.9zm-12.5-3.8c1.4 1.2 2.3 4 3.6 6.3.3.5 1 .4 1 1-.2 1.5-2.7 1.8-4.3 2.6-1.7-2.4-2.8-5.3-4.8-7.5.9-1.3 2.2-2.4 4.5-2.4zm-.8 11.3c-1 1.3-2.5 2-4.1 2.6-2.5-2-3.6-5.3-5.8-7.7 4-6.4 7.5 2.2 9.9 5.1zm14.5-2v1c-7 3.2-13.6 6.8-21.5 9.1 2-2.3 5-3.5 8.7-4.1 3.9-2.3 8.5-4 12.8-6zm-39.1 22.9c.2 1.5-.4 2.3-1.9 2.2-.1-.2-.2-.4-.5-.5-.3-2.1 1.5-2.9 2.4-1.7zm-135.7 31.2c-3.1-1.7-.3-6.2 1.9-6.3 4.1.1 1.2 7.1-1.9 6.3zm2.4 5.6c-1.5-2.9 1.4-6.1 3.9-5.8 1.7 2.7-1 6.3-3.9 5.8zm16.6-1.2c-.1 2.8-2.5 3.6-4.8 3.6-.5-.9-.2-1.2-.5-2.2 1.2-1.2 3.3-3.1 5.3-1.4zm-6.5.2c-.3 2.8-2.3 6.5-5.3 4.3.3-3 2.1-4.8 5.3-4.3zm-30.6 57.5c-.6 0-.7.4-1.2 0 .1-.6-.5-2.3 0-3.1-1.9-2.1-4.4-2.3-6.5-3.4.4-2 1.4-3.4 3.1-4.1 1.5 1.2 4.4 1.3 5.1 2.6 2.5-2.2 5.4-4 8.4-1.7 3 6.5-3 13.6-8.4 11.1-.2-.4-.7-.6-.5-1.4zm6.8-1.7c-.2-2.8-1.4-4.7-3.9-5.3-.9 3.1 1 5.3 3.9 5.3zm-21.3 95.4c2.2-1.8 5.4-1 8.2.5 1.1 6.1-5 11-9.6 7.7.3-1.3-.9-2.1-.2-3.6-3.2-1.5-5.9-4.2-9.4-6 .4-1.9 1.7-2.8 2.9-3.8 2.9.9 5.5 3.2 8.1 5.2zm5.3 5.1c-.9-.9-1.6-2-3.6-1.9.5 1.9 2.2 2.6 3.6 1.9z"/><path class="st0" d="M565.3 217.3c-7.8 3.2-15.1 10.5-24.8 9.4-4 4.8-11.2 8.2-18.8 5.5-4.3 4.6-7.3 10.5-10.8 15.9 3.3 3.7 6.5 8.4 8 14.2 2.2 8.7.6 18.5.2 27.7 2.4 4.4 3.2 10.8 4.3 17.1.5 3 1.7 5.8 2.2 8.7.7 4.1 1.5 10.5-.5 13 2.5-.6 5.6-1.8 7.5-2.2 1.3 17.7 7.4 39.4 8.7 58.4.7 10.4 2.1 20.1 1 31.5-.6 5.5-2.7 11.2-5.1 16.1-2.9 5.9-5.1 10.4-12.3 11.5-1.5-1-2.4-2.6-3.1-4.3-1.3 0-1.4 1.1-2.4 1.4-1.3-1.7-3.3-2.1-4.8-3.1-1.6-1.1-2.7-2.7-4.3-3.1 1-.3-.8-1.1-1.7-1.4-.5-1.9-2.1-1.3-2.4-3.1-1 .3-1.9-1.2-2.2-2.2-.8.5-1.2-2.1-2.9-2.2 0-2.1-3.1-3.2-3.6-5.5-1.7-.3-2.7-4.1-4.3-4.6 0-.9-.5-1.4-1.2-1.7-.3-1.2-1.4-1.5-1.2-2.6-3.4-2.6-5.1-7.9-8-10.3-2.1-3.7-3.2-6.8-5.8-9.9-.6-1.9-1.1-3.2-2.6-4.6-.8-1.4.1-2-1-2.6-.1.4.4.6 0 .7-.1-1.6-2-3.1-1.7-4.3-1.1.2-1.2-3.2-2.4-2.9-.6-3.2-2-4.6-3.1-6.7-.2-2-1.7-4.7-3.1-5.8.9-.9-.3-3.1-1-3.1.5-.7-.6-3.4-1.2-4.6-1.5 8.4-1.9 16 .2 24.5.7 1.2 1.5 2.1 1.2 3.6.7 0 .6.4 1.2 1 .9 2.9 2.7 5.7 4.6 8.2-.6.6.3.7.2 1.4 1.5-.1.9 3.4 2.2 2.4v1.7c2.2 1 1.7 3.5 4.1 4.6-.2 1.6 2.2 3.1 2.2 4.6 2 .6 2.6 4.3 4.1 4.8.4 2.2 3.1 3.2 2.9 5.3 1 0 1 .9 1.7 1.2 1 2.3 2.8 4.7 4.1 7 1 1.7 4.3 6.2 4.8 6.7 1.3 3.5 4.5 6.4 5.1 9.9 1.9.7 1.2 3.2 2.9 4.1.8 3.5 2.4 6.5 4.1 8.9 0 .7-.7-.6-.5.5.7.3.7 1.3 1.2 1.2.7 4.3 2.6 6.6 3.4 10.3h-9.2c-2.7-7.7-5.6-12.4-8.7-19.2-.1-.8-.9.6-1-.2 1.1-1.1-2.2-2.7-1.4-4.3-.9.5-.5-.2-1.2-.5-.3-3.1-3.7-5-4.6-8.4-.5 1.3-.5-2.4-1.7-1-.2-2.4-1.9-3.8-3.1-5-.8-3.4-3-3.9-3.4-6.3-.3-.6-1.2-.1-1.2-.5-1.7-4-4.4-5.9-5.8-9.4-.5-.8-.6.9-1 0 .5 0-.4-.9.2-1.2-.4-.7-.7.7-1 0-.9-2.1-1.2-3.1-2.6-4.1-.3-2.5-2.3-4-3.4-6.7-.1-.8-.5 1-.7 0-.1-1.7-.8-1.6-1-3.4-.6-.4-.5 1.1-.7.2-.2-.9-.5-1.8-.7-2.6-.5-.8-.5.7-.7 0-.8-3.5-3.3-6.4-3.4-10.3 0-.9-.8.5-.7-.2.1-5.8-1.3-12.5.5-17.8-1.2.1-.6 1.9-1.7 2.2.6-2 1-4.1 1-6.7 4.5-6.3 7.1-15.8 14.5-18.5-.5 1.2-1.3 2-1.9 3.1 1.7 1.5 2.7 4.7 2.9 7 .7.4.7.2 1.2.5-.6.8.4 1.7.7 2.4 1.3 2.7 1.8 4.9 2.9 7 1.3 2.5 2.3 4.6 3.9 6.7.5 3.2 3.7 5.1 3.6 8.2.4.5 1.4.4 1.4 1.2v1.4c.6.3.9-.6 1 0 .1.9 1 3.1 2.2 3.8-.1.3-.3.5-.2 1 1-.6.4 1.3 1.7 1.7-.7.7-.3.2.5 1.2.1.2-.3.4-.2.5.1.2.7-.3.7-.2.4.6.4 1.2.7 1.7.8 1.2 1.5 3 2.9 3.6 0 2.2 2.5 3.1 2.9 5.3 1.9 1.8 2.8 4.6 5.1 6 .3 1.7 1.8 2.7 2.7 3.1-.2 2.1 3.5 3.5 3.4 5.5 1.6-.1 1.3 2.1 3.4 2.4 0 .6 0 1.2.2 1.4 5.4 3.6 10.2 12.9 16.2 18.3 3.6.2 7.3.1 9.2-2.6 1.1-1.6 2.3-5.1 2.9-7.4.9-3.7 1.3-7.2 1.4-11.3.1-2.5.4-5.1.5-7.7.1-3.2-.9-6.4-1.2-9.9-.5-5.8-.1-11.9-1-17.6-.3-2.1-1.1-4-1.4-6-.4-2.3-.4-4.6-.7-7-2-12.4-5.2-24-5.8-36.8-5.7 2.6-11.1 3.7-17.8 4.3-2.7.3-5.4 1.7-8 .2.4 3.2 1.4 6.2 1.2 9.1-.1 1.3-.7 2.6-.7 3.8 0 2.3 1 4.6 1.4 6.7.4 2.4.6 4.7 1 7.2 0 .4.7.1.7.5 1.4 10.5 4.4 21.6 8.9 29.1-1 1.4-1.7 3.1-3.6 3.6-3-6.2-5.4-12.6-6.7-19.2-.3 3-3 6.8-1.4 9.4-1.2 1.3-2 3-3.9 3.6 1-6.8 4-14.9 3.1-21.2-3.8.7-6.4 2.6-10.1 3.4 1.6-3.6 5.6-4.8 9.6-6-3.1-24.2-10.6-38.1-17.8-57.7-.8-.4-1 .9-1.2.2-.9-1.8-1.5-3.4-1-5-.9.9-2.5 1.5-3.9.7-.8-1.4.7-3.5.5-4.3-1-.8-1-3.5-2.2-4.6-3.9 6.6-8.1 12.9-12.8 19-4.6 6.1-8.2 13.1-12.1 19.7-3.8 6.6-8.2 13-12.1 19.7-3.9 6.8-8.8 12.9-11.8 20.2-8.4 9.7-14 22.1-20.5 33.7-.1.6-.3 1.1-.2 1.9-6.9 9.2-12.3 19.8-18.8 29.3 1.5 4.5 3.1 6.7 4.6 11.1 0 .9.8-.5.7.2v1.4c.4.7.8 0 1.2.7.1 1.2.1 1.3.2 2.2 3 4.8 5 10.1 7.2 14.4-3.4-.1-7.4.3-10.4-.2.1-1.5-1.3-1.6-1.2-3.6-3-3.5-3.5-8.5-6.3-11.5-.5-1.9-1.4-5.5-2.2-5.3-.6-.5-1.1.9-1.4 1.4-1.6 2.5-3 5.7-4.3 7.9-.7.2.7.2.2 1-1.1 1.8-2.4 3.8-3.6 5.8-1.1 1.7-2 4.9-5.1 4.6 1-2.4 2.6-4.3 3.9-6.5-.6.1-.9-.1-.7-.7 2.3-3.6 4.5-8.8 7.2-12.5.9-1.2 2.7-2.7 2.9-3.8.2-1.1-1-2.4-1.4-3.6-.7-1.8-.6-3-1.4-4.3-6.8 7.8-9.9 19.1-15.9 26.7.3-1.5.3-3.2.5-4.8 2.8-2.4 2.9-6.6 4.6-9.9 2.8-5.4 7.5-9.5 9.9-15.4-1.8-5.4-3.7-11.4-4.3-15.6-4.4-15.2-3.2-30.2-1.7-46.2-1.4.7-.6 3.6-1.7 4.6-.8-6.7 2-12.2 2.7-18 .5-4 .5-5.8 1.4-8.9 1.6-5.3 3.2-10.2 5.1-14.7 2.7-6.5 3.8-13.3 7.2-19 0-.6-.8-1.6-.2-1.9.9-.4.5.6 1 .7 1.2-2.1-.4-5.4-1.7-6.3-.4-1.6-.6-3.7-1.7-5.3-.1-.6-.5.8-.7-.2-.1-1.8-2.2-2.9-3.9-3.8.6-1.8-2.5-2.8-1.9-4.6-.9.5-.5-.5-1.2 0-1-5-4-7.6-4.3-12.5-6.2-7.9-12.1-15.4-18.3-23.3-2.5-.1-2.9-2.4-4.8-3.1-.5-.8-.7-1.9-1-2.9 4.2-5.7 12-7.8 15.7-13.9-4.7-2.6-9.6-4.3-13.7-8.2-1.1-2.9-4.9-4.4-6-7.7-1.5.6-1.5-2.3-2.7-1.9-.6-2.4-3.4-4.1-2.9-6.3.5-2.5 5.6-5.4 8.7-7 2.5-1.3 5.7-2.7 8-3.8 1-.5 2.3-.8 2.9-1.2 1-.7 1.7-2.2 2.7-3.1 1.2-1.2 3-1.7 3.1-3.1-4-.3-6.2-3.2-8.7-3.1.7-.6.3-.4-.5-.2-1.7-3.4-3-7.3-4.6-10.8-1.5-3.3-3.6-4.6-4.1-8.2-1.1-1.5-2.8-2.5-3.1-4.8-2.2-.3-2.5-2.5-4.6-3.4-1.1-.5-4.2-.6-5.8-.2-1.5.4-3.5 1.7-5.3 2.4-1.4.5-2.9.4-3.9 1-1.1.6-1.5 2-2.4 2.9-2.1 2.2-4.9 3.8-6.3 5.3-.2 1.2.3 1.6.5 2.4-.8-.2-1.1-1-2.2-1-2.5 2.6-4.8 5.4-7.2 7.9-.5-.2-.4-1.1-1.2-1-4.1 4-7.3 8.4-10.6 13-4.7 6.4-8.8 13.2-13.3 19.7-8.9 13-19.1 25.3-26 39.9-5.6 11.9-13.3 22.4-18.6 34.1-2.6 5.8-4.6 12.7-6.8 19.2-3.5 10.9-5.2 21.3-6 32.2.7 1.3.7 1.6.5 3.1.3 1.7 2.1 4.2 1.9 6.3.9.7 2.1 2.2 1.9 3.1 1.6-.6 1 2.2 2.4 1.9-.2.7.4.7.2 1.4 1.3 0 1.5 1.1 1.9 1.9 3.3 2.1 5.5 3.7 8.2 6 1 0 2.2.9 3.1 1.4 1-.2 3.5 1.2 4.6 1.7 1.3-.4 2.6.3 4.3 1 0-.3 0-.7.2-.7.6.4-.5.8.5.7 2.7-.3 4.6.8 7.5 0 .6.6 1.2.4 2.4.7 1.6-.2 3.2 0 4.3-.2 4.3-.9 7.1-1 10.9-1.7 6.7-1.2 12.4-4.2 18.1-8.7 6.3-4.9 11.9-7.7 14-15.1.4 0 .2.6.7.5 4.2-8.8 8.8-20.1 10.1-28.9-.7-.5-.1-1.3-.5-2.4-3.1.6-4.8-.6-6.3.2 0-.4-.2-.8-.5-1-1.6.6-3.2-.3-5.1-.7-2.6-.6-5.8-.8-7.7-1.7-.6-.3-.8-.9-1.4-1-.4 0 0 .6-.2.5-.1-.1-.5-.7-1-1-.6-.3-1-.3-1.2-.7.2.4-.5 1-.5.5-.6-.9-1.6-.6-2.4-1.7 0 1.1-.6-.3-1-.2-1.4.4-2.2 2.7-3.6 2.4-.1-1.4 1.3-2.4.7-3.6-.2-.8-1.3.2-1.2-1.2-5.1 6.2-11.3 11.1-18.6 14.9-7 3.7-13.7 8.9-21.9 10.3-.3.7-1.8 1.4-2.2 1.2 1.1-3.6 3.7-5.6 6-7.9 6.3-1.5 11.7-4.2 16.2-7 2-1.2 4-1.8 6-2.9 4.3-2.2 7.8-5.3 11.6-7.7 1.4-2.7 3.6-4.4 5.1-7-.2-.6-.5-2.2-.2-2.4 4.1 1.6 7.9 2.9 11.1 4.3 1.2-4.4 3.2-7.9 3.1-13.5-1.5-3.2-3.1-6.2-4.1-9.6-.4-1.5-.3-3.1-.7-4.6-1.5-4.7-4.1-8.5-6.3-12.7-.9.1-.9-.8-1.4-1-1.9-5.3-6.2-8.1-7.7-13.7 1-1.3 2.2-3.6 3.6-3.6 2.4 1.3 4.1 3.2 6.7 4.3-2.8-6.5-8.3-11.3-9.2-19 1.2-1.5 1.9-3.4 3.9-4.1 3.1 1.9 4.7 5.1 7.7 7.2.7.7-.5-.9.5-.5 1.4 2.1 3 5.3 5.1 6-1.5-5.4-3.6-13.3-4.8-19.7-.8-4.5-1.5-9.7 3.4-11.3 7.1 7.3 10.7 15.4 15.2 25.2.9-8.5-1.8-21.2 4.3-24.5 6.3 15.4 7.8 30.6 10.6 47.4 1.4-2.8 3.3-5.4 5.1-7.9 1.7-2.4 3.3-5.7 7-6 .1 5.2-3 8.4-3.6 12.7-.3 2.5-.5 5.5-.2 8.7.2 1.8.9 3.8 1 6 .4 11.3-8.5 18.8-13.7 24.5-.7 4-1.2 8.4-2.9 12 .1.5 1.2.1 1 1-.4.8-1.7 2-1.4 2.6.9-.9 2.3.2 2.9 0-.3 13.5-6.6 25.4-12.5 36.3.5 1.2 1-1.5 2.4-1-1.8 11.2-1.6 22.2-2.2 34.6 1 8.8.3 19.6 1.2 29.6 0-.3.1-.6.2-.2-.3 4.3.4 7.6.7 11.3.1.7.6 2.1-.2 2.2.3.5.6 1 .7 1.7-.2.7-1.1-.5-.5.5.1.6 0 .5.7.7-.8 4.3 1.3 8.1.5 11.3.5.5.5 1.6 1 2.2.8 9 5.4 21.9 8.7 30.8-3-.3-7.2.6-9.4-.5.6-.7-2.7-6.3-2.2-8.9-1 .1-.6-1.1-1.2-1.4-.8-5.5-2.3-11.7-3.6-18.3.7-.6 0-1.2.2-2.9-1-7.6-1.8-14.3-2.2-21.9-.2-3.4-.2-7.4-.2-10.3 0-8.6-.7-15.2-.7-23.8 0-4.9 0-9.1.5-15.1.2-2.4 1-5.3.5-7.7-.3-1.3-1.7-2.2-1.4-3.6-8.8 9.6-19.3 18.7-32.3 23.3-4.9.6-9.9 1-14.9 2.6-3-.2-7.4-.8-11.8-.5-.7-.9-1.7-.1-2.7-.2-2.9-.4-5.9-2.4-8.2-1.9 0-.8-.8-.8-1.2-1.2-.8-.3-.2.8-1 .5.5-.8 0-.7-.5-.2-.9-1.1-2.6-1.6-4.1-2.6-1.5-1.1-2.8-2.6-4.3-3.1-.5-1.7-2.6-2.7-3.9-4.3-1.2-1.6-1.5-3.7-2.9-4.1-.1-1.6-1.3-2.2-1.4-3.8.1.7-.1.8-.5.5-3.2-12 .8-24.3 2.9-35.6 2.9-7.2 4.4-14.7 7.2-21.6 2.8-6.8 6.3-13.2 9.9-19.5 7.3-12.6 13.5-25.6 21.2-37.5 3.8-5.8 8-11.4 12.3-17.1 4.3-5.6 7.6-12 11.6-17.8 6-8.7 12-17.6 19.3-24.8 2.5-2.4 4.4-5.7 7.7-7.2.3.6-.7 1 0 1.2 0-.7.6-.9 1-1.2-.3-1.2-1.9-1.6-2.4-3.1-.3-.9 0-1.9-.2-2.9-.6-2.9-1.7-5.8-1.9-8.4-.6-8.5-.8-15.4.7-21.9 2.3-10 6.2-19.4 8.9-27.9 1.2-3.7 2.8-7.6 3.1-11.5.2-3.1-.3-5.6-.5-7.9-.8-13.3 3.9-26 8.9-36.3 2.1-4.2 4.7-7.3 7.2-11.1 4.9-7.4 8.3-11.8 14.5-16.1 3.6-3.5 8.7-5.9 13.7-8.2 5.7-2.6 11.5-5.6 18.3-6.3 1.6 1.1 3.6.8 5.3 1.4 1.5-1.1 1.9-2.2 2.7-2.6 5.9-3.8 19.9-3.2 28-2.6 8 .5 12.3 2.5 17.1 5.3 1.5.8 2.8 2.1 4.6 3.1 2.6 1.4 5.7 2 8.4 3.4 9.1 4.4 20.3 10.3 24.1 19.2 2.1 4.9 1.9 11-.2 15.6 7.3 5.3 10.3 12 13.5 20.7 1.5 4.1 3.1 8.1 3.9 12.7 1.1 6.4 2.5 12.6 6 16.3 4.9 5.2 11 8 14 13.7 4.1 7.9 5.2 18.8 3.1 27.9-.4 1.6-.4 3.3-.7 4.8-1.3 6.2-3 11.8-5.3 17.3-.7 1.7-2.2 3-2.9 4.6-1 2.3-.8 4.4-1.9 6.5-.1.1-.7.4-1 .7-1 1.4-1.5 2-2.4 3.1-4.1 5.1-10.6 18-4.6 25 5.5 1 10.3-.3 11.1-5.3-1.4-1-3-1.8-4.1-3.1 4.3-4.1 8.9-2.4 13.3.2 4.5 2.7 8.1 6.6 8.9 12 1-.2 1.6-.8 2.9-.7-2.3-4-4.6-6.1-5.3-10.1-.7-3.6.3-5.9 1.2-8.2 2.3-5.4 6-8.8 10.4-11.8 2.3-1.6 5.2-3 7.2-4.8.6-.5.9-1.2 1.4-1.7 1.7-1.3 4.6-2.8 7-4.1 5-2.7 13-5 17.6-1.2h.2v5.3c-2.2-.8-4.7-3.7-6.5-3.4.8 1.2 1.4 2.4 1.7 4.1-.9 1.4-2.5 2-4.3 2.4-1.1-2.5-1.7-5.5-4.1-6.7.2-.5 1.2-.9.2-1.2-.7.4-1.6.7-2.4 1 1.4 2.8 4 4.5 5.3 7.5-1 1.1-2.3 2-4.1 2.4-2-2.4-4.1-4.8-5.8-7.5-1.2.6-2.3 1.2-3.1 2.2 2.5 1.4 4.5 3.4 5.5 6.3-1.5.7-2.1 2.2-4.3 2.2-1.7-1.9-3.8-7.3-6.8-4.8 1.8 1.5 3.8 2.9 5.1 5-1.4.9-2.6 1.9-4.3 2.4-1.6-1.4-2.6-3.5-4.6-4.6-1.6.5-2.3 1.8-3.4 2.9 2.2 0 4.9 1.4 5.8 3.6-1 1.2-2.3 2.1-4.1 2.4-1-1.4-2.2-2.6-4.1-3.1-1.8 3.1-3.9 7.6-1.9 11.8 1-2.4 2.8-3.9 5.5-4.6-1.6 2.2-4.9 8-2.2 10.6.7-3.5 3.2-6.4 6.3-6.7-1.9 2.8-4 7.9-2.7 11.8 1.1-3.1 3.2-6.5 6.5-6.7-1.7 2.8-3.2 5.7-3.6 9.9.8.2 1.1.9 1.7 1.2 1.2-2.8 2.7-6.6 6-6.5-1.2 2.5-2.7 6.1-.7 8.7 0-.3.4-.2.7-.2.1 3.8 5.8 2.6 8.2 1.7.4-3.3.4-7-1-9.6 1.6-.6 2.3-2 4.6-1.9 1.2 2.4.8 6.6 1 9.4.9-.2 1.4-.7 2.2-1 .3-2.9.1-5.4-.7-7.7 1.2-1.2 2.4-2.3 4.6-2.4.5 2.8.7 4.6.2 7.7.9-.2 1.4-.7 2.2-1 .5-1.7 1-6.1-.2-7.7.5-.6.9-1.2 1.7-1.4-.8 2.7-.8 5.9-.8 9zM386.9 20.9c-12.4 2.2-23.1 8.2-32.3 14.4 0-.1-.2-.3-.2 0-4.3 4-7.8 7.1-11.3 12.3-2.3 3.3-4.3 6.3-6.7 9.9-1.6 2.4-3.2 5.1-4.3 7.7-2 4.5-4.9 11.7-5.8 16.6-.8 4.1-1.2 8.8-1.4 12.7-.2 3.5.7 6.9.5 11.1-.1 1.9-.6 4.2-1.2 6.3-1.4 4.6-2.7 9-4.3 13.5-2.7 7-5.3 14.7-6.7 22.4-1.6 8.7-1.5 21 1.7 27.6 5.1-4.9 10.4-9.5 16.4-13.5-3.2-3.6-2.6-13.2 0-17.1 2.2.8 3.7 1.8 5.3 3.6-1.2 2.4-2.6 7.5-1.7 12 4-2.7 9.5-2.4 14.2-.5 2.3 4.4 4.7 8.8 6.8 12.3 2.7 6.4 5 10 8.9 13.9-.1.8-.4 1.3-.2 1.9 2.3.9 4.7 2.6 7.7 2.9.2-4.5-2.3-9.7-1.9-14.4 6.5.8 5.9 8.7 7 14.9.7 0 2.5.5 2.7 0 1.1-3.1.6-7.7 3.9-8.7.3-3 2.5-5.6 0-7.5 0 .6 0 1.2-.7 1.2-.5-1.5-1.3-2.6-1.2-4.1-7.1-9.1-11.7-20.6-16.2-32.2-.8 3.9-5.8 1.6-9.2 3.1-3.9-1.1-6-3.2-6.5-7-.5-3.9 1.6-6.2 1.4-8.9-.1-2-2-3.7-2.2-5.3-.1 1-.1 2.1-.5 2.9 0-3.1-1.7-5.6-1.2-8.4C340 89 348.8 59.1 362.2 42c7.3-5.6 11.9-13.8 21.2-17.3 1.7-1.5 3.6-1.5 5.5-2.9 2.9-1.1 6.1-1.4 9.6-2.4 2.1-.6 4.8-1.8 5.8-1.9 9.8-1 19.1 2.2 31.8 2.4-5-2.5-11.9-2.9-17.8-3.4-11.7-1-23.1 3.5-30.4 3.1-.5.6-.7.4-1 1.3zm81.2 25c-2-9.7-9.5-15.5-18.6-18.8-4.9-1.8-8.8-4.4-14.7-3.6 14.9 3.5 25.9 12.2 33.3 22.4zm-.7 6.7c-2-1.3-2-2.4-2.4-4.3-.9-4.1-4-8.2-6.3-11.1-5.4-6.8-14.9-9.5-23.6-10.8-4.1-.6-9-3.1-14.5-2.4-.7.1-1.4.6-2.4.7-1.9.1-4-.7-6.3-1-3.5-.4-7 .5-10.1 0-.9.1-1 .9-1.9 1-8.3.4-13.3 4-18.8 7.2-.8-.1-1.2-.6-2.2-.5-3.1 1.1-4.2 5.6-6.8 6.5.4-.2.8-.4.7-1-4.8 2.6-7.5 7.8-10.8 12.3-2.6 3.5-5.3 6.1-4.8 10.3-2.6 5.4-5.1 11.9-6 19-1 7.4.1 15-1.7 21.4-1.3-3.2-.9-5.5-.7-9.6.8-16.5 6.5-31.7 12.3-42.8-8.5 10.8-15.6 26.2-14.7 45.9.3 5.8.7 11.7 2.7 16.3.4-3.5 2.9-7.1 3.4-10.6.2-1.4-.1-3 0-4.3.4-7.8 1.8-13.8 3.1-20.4 1-5.3 2.3-10.8 5.1-14.4-1.5 1.9-.8 4.2-.5 6 1 5.8-.8 12.8 0 18.8 4.4-3.4 9.8-7.2 17.6-8.2 1.5-.2 3.2.1 4.8-.2 3.3-.6 6.2-3.1 8.9-4.1 2.1-2.4 2.8-1.9 4.6-4.1-.7-.3.3-.9 0-1.7 5.6-7.9.6-23.4-3.9-27.9 10.2 3.7 14.8 20.7 9.9 32.2-.2.6-.8 1.2-1.2 1.7-.5.6-.9.3-1.2.5 0 0 .1.5-.2.7-2.7 2-8 6.2-13 6.5-9.5.6-16.5 4.1-21.2 8.7-2 .8-4 2.4-5.5 3.1-.1 8.1.8 15.6 2.4 24 .6 3.2 1 6.6 1.7 8.4.9 2.3 3.7 3.5 2.4 6.5 3.1 6.8 4.3 14.4 8.2 20.9.7 1.2 1.2 2.8 1.9 4.1.5.8 1.4 1.3 1.9 2.2 3.9 6.5 7.6 14 13 16.1 1.4 2.8 4.7 3.6 6.5 6 4 1.8 7.8 3.9 11.1 6 3.9.6 6.5 1.5 9.6 2.2 1 .2 1.9.3 3.1.5 2.5.3 3.7.6 6.3.7 9.4.5 14.2-3.9 21.5-6.7 2.8-2.7 4.9-6 7.5-8.9.3-2.2 1-4 1.9-5.5.5 0 .2.8.7.7.2-1.1.5-2.1 1.2-2.6.4 0 .1.7.5.7.4-1 .5-2.3 1-3.1.2-.5 1.2-.1 1-1 3.9-6.3 6.9-13.3 8.2-22.4 2.7-18.8-3.2-38.7-8-52.9-2.7-.9-5.4-3.7-9.9-3.6-.9-.1-.6 1-1.7.7-7.4-.1-13.9 4.7-18.8 8.7-.9-.2-.9 0-1.4-.2-1.4 4.7-1.6 12.7.2 17.8 1.5 4.1 4 9.6 5.8 13.2 2.1 4.1 5.7 7.7 3.6 12.7-2.8 2.3-6.9 6.6-12.5 6.5-.6 0-1-.4-1.7-.5-2.8-.4-6.2 1.3-8.7.7-.7-.2-2.9-1.6-3.9-2.4-2.6-2-4.6-5.2-2.7-7.9.6 3.2 3.6 7 7.2 7.7 2.2.4 6-.6 9.2-.5 6.3.3 10.6-2.9 13-5.8-1.7-3.5-3.7-7.4-5.5-11.5-1.8-3.9-4.2-7.9-5.1-12-1.9-9.2-.9-16.7 2.9-25 9.5-3.1 20.9-8 29.2-1.7-.3-1.5-2-3-1.9-4.1 1.2-.2 1.7.4 2.9.2 3.2 4.2 4.3 10.4 6.3 15.9-.2-2-.4-4.1-.7-6 2.9 1.5 2.7 6.1 3.9 9.4.6 1.5 1.8 2.9 1.9 4.6.1-.5-.3-1.6.2-1.7.3.6 1.4.5 1.9 1 .1 2.3.1 3.4-.2 5.5 3 2.6 3.6 9.4 1.9 13.9 0 .7.3 1.1.5 1.7-1 1.3-1.9 2.7-2.7 4.3v-1.2c-1 .4-1.7 1.1-2.9 1.4-.9 12.8-3.7 25.3-9.2 34.9.4.5.9 1 1.2 1.7-1.6 1.8-2.7 4-4.6 5.5-.2-.6.5-2.1-.5-1.9-1.1.9.2 1.6.2 2.6-.8 1.7-3.4 3.6-4.3 5.5-.5 1.1-1.1 3.3-.2 4.1-.5.3-1.1.3-1.7.5.5-.3 1-1.9.5-2.4-.4 1.3-2.6 2.3-2.4 3.4 0-.2.4-.3.5 0-1.8 3.2-6.3 5-8.4 9.1-.8 1.4-.7 3.6-1 5.5-.7 5.1-2.9 12.1-2.4 16.8 3 2.5 5.3 9.4 6 13.9.5 2.9-.3 6 .7 8.7.9 2.4 2.5 3.7 3.6 6 3.8.9 9.3 1.5 12.3-.5-5.2-4.2-10.8-9.2-10.1-18.5 2.5-.2 4.7 1.5 5.3 4.1.1.4-.3 1.3-.2 1.7.2 5 3.8 9.1 6 12.3 3.1.2 4.8 1.9 6.5 3.6 5 1.3 7.8-2.6 11.8-1.7 2.1-1.8 5.4-3.4 5.8-4.3-.6-1.3-2.4-1.6-3.6-2.4-3.9-2.6-7.9-6.2-9.2-10.3 5.9.7 5.3 7.5 9.6 9.4 2.8 1.2 6.8.8 9.4.5 4.9-.5 8.7-4.5 11.8-2.9.1 1.2 1.1.1.5 1.4 2.9-1.3 4.9-5.5 6.7-8.7.7-.3-.9-.2-.5-1-.1-1.2 1.8-3.6 2.2-5 .1-.4-.3-1.2-.2-1.7.4-2.4 1.4-4.7 1-7.2-1-5.6-4.6-8.6-9.6-5 3.8 1.2 3.1 6.9.2 8.7-2.9 1.2-7.5 1.7-10.9.5-4.1-1.5-9.7-6.4-10.9-10.6-1.3-4.5.9-10.8 2.2-13.9 1.8-4.6 5.8-7.5 7.5-10.3 1.3-2.1 1.5-5.5 2.9-8.2.8-1.5 2-2.7 2.7-4.3 2.3-5.6 3.8-9.9 4.8-16.3.6-4.2 2.3-8.5 2.4-12.3.3-7.2-2.2-19.3-7-24.3-3.5-3.6-7.4-6.1-10.6-9.4-3-3-5.3-7.3-6.3-12.7-2.3-12.5-4.8-24-13.5-33.2-2 4.4-4.5 5.4-8.7 7.7-3.8 0-7-1.1-8.9-4.1 2.3-4.9.5-14.7-2.9-16.8.9 10.3-6.3 15.6-13.3 19.5-.5 0-1.5-1.3-1.4-.2-2 2.7-4.3 5.2-7.5 6.7-1.8-1.2-3.9-2.2-5.3-3.8 3.6-2.1 7.1-4.6 8.2-8.7 1.6-6-.7-12.9-2.4-16.8-1.3-3-4.1-5.3-3.9-8.4 6.6 5.5 11.4 12.8 12.3 24 3-2.5 7.2-6.6 8-11.8.6-4.1-1.1-7.1-2.2-9.9 3.3 1.2 5.5 3.5 6.8 6.7 5.9 3.9 10.1 8.8 10.4 17.3 4.1-.5 5.9-5.6 7.5-9.9zM358.2 81.5c.2-1.7.5-4.6 0-6.3-.3 2-.6 4.1 0 6.3zm113.8 25c.5-.9.5-2.1 0-3.1-.4.8-.8 2.4 0 3.1zm-120.8 9.8c.2-2.1 1.4-3.3 2.4-4.6-.9-1.1-.3-4.3-1.2-4.6-.5 2.9-3.3 6.7-1.2 9.2zm121.7-.7c.4 1.1.3 3.6.2 4.3 2.3-1.6 1.7-7.2 1.9-10.1-.4 2-.3 5.9-2.1 5.8zm1 8.7c1.5-.5 2.7-1.1 3.9-1.9 0-2.5-.7-4.3-1.9-5.5-.3 2.7-2.3 4.9-2 7.4zm-119.6 3.8c-.5 0-.2-.8-.7-.7-.3 1.6-1.2 2.5-1.9 3.6.5 1.8 1.2 3.3 2.2 4.6 2.4.4 2 .6 4.1 1 .5-2 .9-4.1 2.7-4.8.4 1.6.8 3 .7 5 1.1.1 2-.1 2.9-.2-1.2-5.7-5.4-8.4-8.4-12.3-.3 1.5-.6 3-1.6 3.8zm39.3 175c2.7-4.7 4.9-10 8.7-13.7 5-8.8 7.8-18.3 11.1-28.6-4.1-.3-1.1-5.2 1.7-5.5.2.5.6.6 1.2.7 1.8-2.4-.2-6.9 4.3-7.2.8-1.2 1.3-3 .5-4.6.8-1.1 1.8-1.9 2.9-2.6 2.9-8 6.1-16.2 9.4-24 .2-.6.6-1.8.7-2.4.9-4.1 1.4-8 2.4-11.8.8-3.2 2.5-6.2 2.6-9.9-4.7 1.8-9 1.9-13.7 2.6-1.4-1.1-4 0-6.7-.5-5.1-2-11.6-2.4-15.4-5.5-.7.4.5 1.7 0 1.9-2-1.3-5.1-1.7-5.3-4.8-.9-.3-.5.8-1 1-1.8-1.1-3.2-2.4-5.1-3.4-.5-1.9-1.8-3.5-3.6-4.8-2.3 10.9-4.8 22.4-10.6 30.5 3.8 8.1 5.5 14.9 7.7 24.8 3.9-.6 2.6 5.5.2 6.5.4 1.6-.2 3.7.7 5.5 4.4-4.4 5.7 3.5.7 4.6.3 3.5-1.6 5.7-1.7 9.1-.1 3.4 1.6 6.6 2.7 9.4 1.2 3.2 2.2 7.1 1.9 11.1-.2 2.8-1.1 5.1-1 7.7.1 2 .6 3.9 1 6.3.4-.5 1.4 2.2 2.4 2.6-.2.6 1.1 2.9 1.3 5zm-45.1-89.9c.1.5-.3.5-.2 1 .5.1.5-.3 1-.2 1.1 3 3.7 4.6 5.8 6.7 2.2 3.6 5 5.4 8 8.4.5.1.5-.3.7-.5.7.8 1.7 2.3 2.9 1.7.8 2 3.4 1.5 4.6 2.6-3 7.2-9.5 10.9-14.7 15.9.7-.2-.2 1.1.5 1 1.4.2 1.5 1.2 2.2 2.4.5.1.5-.3.7-.5.6 1.1 1.1 2.3 2.9 2.2 1.4 2.4 4 5 5.5 7 .6.3-.4.7.2 1 .3-.4 1 .5.7 1.2.3 0 .5-.1.7-.2-.2 1.5 1.6 1.1 1.4 2.6 2.1 1.4 2.8 4.1 4.8 5.5v.7c4.6 3.5 4.3 11.5 8 15.4-.3 0-.3.4-.2.7 2.3-3 .1-7.5-.2-11.5-3.8-4.9-3.4-11.8-2.2-17.6.6-2.6-.4-6.6-.5-9.1-.1-2.8-1-5.6-1.2-8.2-.1-1.1.4-2.2.2-3.4-.4-3.3-2.6-9.8-3.6-12.5-.3-1.3-.6-3.8-1.9-5.3-1-4.6-3.9-7.4-3.9-13-2-2.3-3.8-4.8-5.5-7.5.5-.2.6-.6.7-1.2-2.6 1.3-4.3 4-6.8 6-3.5 2.9-7.7 4.9-11.8 7.2.8.6.8 1.9 1.2 1.5zm91.2-.7c1.6-3.3 2.5-8.7 2.7-12.7-1.3 3.4-2.6 8.9-2.7 12.7zm-127.8 18.7c-2.3-2.2-2.3-5.3-4.6-7.7-1-2.7-3-5.2-4.3-7.2-.4-.5-.7-1.5-1.2-1.2 2.2 11.2 5.2 21 7.7 31-3.2 7.5-7.1-.3-9.9-3.6-.7-.3-.6 1.3-1 .5.2-2.7-3.2-4.7-4.6-5.8 2.4 2.3 2.8 6.4 5.1 7.7-.1 3 2.1 4.6 2.9 7.7-1.5 4.7-5.6 4.2-8.2 1.4.7 1.1 1.6 2.1 1.9 3.6 3.6 3.8 6.4 9 8 14.4.5 1.7.5 3.6 1 5.3 1 3.3 4.3 7.5 4.1 11.1-.4 5.6-3.7 10.3-4.6 16.1 1.1-.4 2.8.2 3.6 1.4.5-.8 1.7.1 2.4.7 3.7.3 7 1.9 10.9 1.9 3.2-3.7 1.7-7.8 3.4-12 .6-1.5 2.2-3.4 3.1-4.3 2.3-2.3 4.8-4.3 6.8-7.2 1.7-2.5 3.6-6.5 3.9-10.1.3-3.2-1-6.4-1.2-9.6-.6-8.1 3.3-13.2 3.9-20-5 3.7-6.4 11.1-11.3 14.9-3.9.8-5.1 7.5-8.4 8.9 1.2-1.9 1.9-3.7 3.4-5.8 1.1-1.5 4.1-3.6 4.3-5.1.2-1.4-.7-5-1-7-.8-7.5-3.5-16.8-4.3-22.6-.5-3.4-.9-7-2.9-9.1-.5 5.9-.1 14.9.2 20.7-1.1 1.5-1.9 3.4-4.3 3.6-1-4.8-3.6-8-4.8-12.6zm209.3-7.7c2.5-1.3 5.7-2 9.4-2.2-.5-1.3-1.7-2-2.7-2.9-1.3.5-3.6.1-5.3.2 0 2.1-1.2 4.1-1.4 4.9zm10.8-.9c-.3-.1-2.3 1.3-2.9 1.4-3.3.6-6.6-.5-8.9 1.4 2.2 5 10.5 6 15.7 4.1.5-1.3 1.8-1.9 1.9-3.6-1.6-1.4-3.7-2.4-5.8-3.3zm-13.5 2.1c.8.1 1-.4 1.4-.7-.5-.1-.7-.6-1.4-.5v1.2zm-123.9 87.1c8.3-4.5 15.3-7.5 24.4-10.8.4.1.6.4 1 .5 2.5-1.7 6-2.6 8.9-3.8-3.3-8.9-7.3-18.9-7.2-28.4 1.9-1.6 3.5-4.7 6-5 2-.2 5.3 2 7.2 3.1.4.2.6 1 1 1.2.5.3 1.1 0 1.4.2.5.4.3 1 .7 1.4.2.2.8.1 1 .2 1.4 1.3 2.1 3.3 3.1 3.6.3-7.1 2.4-13.3 4.8-19.2-.6 0-.8.5-1-.2.4-1.4 2.7-1.7 2.9-3.1.2-1.4-1.5-2.5-2.4-3.1-.2-1.5-1.3-2.1-1.9-3.1-2.3-4.2-1.8-7.8-2.4-12.5-2.2 1.1-3.6 3.2-5.8 4.3-1.7-4.2-1.6-7.6-2.7-11.1-3 5.7-4.3 11.4-7 17.3-2.4 5.3-6.9 9.6-8.9 14.9-1 2.5-1.2 6.1-2.4 7.7v1.4c-1.5 2-1.8 4.8-2.6 7.2-1.3 3.6-3.4 7.5-5.3 10.6-3.4 5.5-7.6 10.7-10.1 17.3-1.9 1.5-2 4.7-4.3 5.8.1 1.1.4 1.9.7 2.6.7.1.9-1 1.2 0 0 .3-.9.9-.3 1zM505 244.2c.4 0 .9-.1 1 .2-.5 1.1-1.9 1.4-2.9 2.2-.5.5 0 .6 0 1.2-3.3 2.9-5.7 6.6-8 10.6 1.6.2 3.4-.1 5.5 0 6.6-8.8 12.1-18.7 19.1-27.2-1.4-.4-2.8-.9-3.6-1.9-3.6 5-7.7 9.6-11.1 14.9zm-10.6 0c-1.2.7-5 4.2-8.4 5.5-1 .2-.8-.8-1.9-.5-2.3.6-3.6 1.2-5.5 1.2-3.8 0-6.8-2.9-9.2-3.1-1.2-.1-2.6.9-4.1 1-3.6 0-7.7-.4-11.6-1.9 4.5 6.6 9.4 12.9 13.3 20.2.7.2.9.8 1.7 1 2.1 3.2 3 6.2 4.8 9.6 1.2-2.5 3.7-3.9 5.3-6.3 3-4.4 3.8-10.5 8.7-13.2 2 .3 2.3.3 4.8.5 1.4-1.7 2.7-3.6 3.9-5.5-1.8-3.9 1.5-8.3 6-8.2 1.1-1.6 2.3-3 3.4-4.6-2.5 1-5.4 1.5-8.9 1.4.3 1.3-1.4 2.2-2.3 2.9zm-47.2 31.3c0 2 .6 4 .2 5-.7 1.9-3.6 3.2-5.3 4.1-4.6-5-8.7-10.7-15.2-14.9.2 5.9 3.4 12.7 5.5 18.8.2.6 0 1.3.2 1.9.2.6 1 1.3 1.2 1.9.1.4-.2 1 0 1.7.4 1.3 1.2 1.6 1 2.6-.4 2-3.4 2.7-4.8 4.1-2.2-.6-3.3.6-5.8 1.4-1.5.5-3.2.7-4.3 1.2-3 1.3-3.7 4.1-6.3 5.3-1.2.6-1.9.3-2.9.7-6.6 2.7-13.3 5.1-19 8.7-2.5 4.4-4.9 9.3-7 14.4-5 12.3-5.5 26.9-7 39.2 0 .5.6 1.9-.2 1.4-.3.8.8.2.5 1-1.4 10.8-1.3 22.6 1.2 32.2.6 5.5 2.5 11.7 4.6 17.8 4.3-5.1 7.5-11.4 10.8-17.6h1c7.8-14.4 19.1-25.4 26.5-40.2 0-.8-.7-1.1-.7-1.9 1.8-2 2.7-4.8 4.6-6.7 1.3-3.6 3-6.8 5.1-9.9 2-3 4.8-5.3 6.7-8.2 1.2-1.8 2.3-4 3.4-6 3.7-6.6 7.8-13.1 11.1-19.7 5.8-9.3 13.1-17.2 17.8-27.6.3-.7 1.2-.8 1.5-1.4-.6.2-1.4.2-1.7-.5 0-1 .9-1 1-1.9-1.5-4-3.2-6.4-4.6-10.3-.5-.6-1 .3-1.4-.2-4.3-6.9-8.3-14-13.5-20-3.4 7.1-4.2 15.5-4.2 23.6zm68.4-3.1c-.3-6.9-4.6-16.9-8-20-1.5 2-2.9 4-4.1 6.3 1.5-.2 2.3.3 3.1.7-3.9 4.7-12.3-.9-17.4 2.9-1.8-.5-2.4-.7-4.6-.7-.9 2.4-2.2 4.8-4.1 7.7-1.1 1.7-5 5.7-4.6 6.5.1.1.4.1.2.5 2.3-.4 3.3-3.1 4.8-5 1.6-2.1 3.4-3.8 5.5-5 .5.4.2.4 1 .2 3.8-1.4 9.1-2.7 12.5-1.2-3 3.6-10.2 1.1-14.5 3.1-5.5 2.7-6.4 9.4-11.8 13 6.8-1.9 13.2-7.2 20.7-8.9-6.2 5-16.9 5.4-20 13.5 8.7.5 15.3-4.5 23.9-4.1-6.7 5.1-13.6 10-15.4 20 1.7-.5 2.4-2.4 3.6-3.6 3.8-3.8 9.2-6.5 14.7-8.4 1.2 3.4 1.8 7.5 4.1 9.9.6-.4.4-1.6 1.4-1.7.7 5.7-1.3 10.7-.7 15.6.2 1.6 1 3.2 1.2 4.8.5 4.6.3 9 1.2 13 5.6-.8 9.7-.3 15-2.2-.9-12.9-3.7-26.5-8-37.5-.1-.8-.9.6-1-.2.2-2.1-.6-3.1-1-4.6 2.9-3 2.5-9.1 2.3-14.6zm-31.3 13.4c-1.4 1.8-2.9 3.4-3.9 5.5 1 1.4.6 2.8 1.9 4.1 3.1-4.3 6.3-8.4 11.1-11.1-3.4.2-6 1.1-9.1 1.5zm-11.1 2.9c-11.5 15.6-20.9 31.9-30.6 49-7.1 5.8-9.8 16-15.4 23.3-5.2 12.6-14.4 22.5-21.7 33.4-3.7 5.6-7.1 11.3-10.6 17.1-3.4 5.6-7.6 11-9.9 17.3 1.6 2.1 1.3 4.9 2.9 7.2 5.2-6.1 8.7-14.1 13.3-20.9 1.7-2.5 2.6-5.1 4.1-7.7 2.7-5 5.8-9.7 8.4-14.7 3.6-6.9 8.7-12.5 12.3-19.2.7-.6-1.2-1-.2-1.9 9.4-13.8 17.3-28.7 26.3-42.8 2.2-3.5 3.9-7.3 6.5-10.6 7.8-9.8 13.3-21.2 21.2-30.8 0-.1 0-.3-.2-.2-1.9.9-4.6.8-6.4 1.5zm23.1 3.8c-3.7 1.6-6.1 4.2-8.4 7-.7.8-2.1 1.7-1.9 3.1.2.7.6-.3 1.2 0 3.9 9.8 8.6 20.7 11.8 31 1.5-.9 1.8-3.1 3.4-3.9.3.9 2.1.3 2.9.7-.3-8.6-2.9-17.4-.7-26.4-.5-.5-.8 1.1-1.7 1-.1-1.1-1-.4-1.4-.7.1-1.7-.9-3-.7-4.3-.7-.3-1.2.8-1.4.2-.5-2.8-1.3-5.2-2.2-7.7h-.9z"/><path class="st0" d="M336.5 71.8c.4.1 1.5-1.9 1.2-2.6.5.1 1.3-1.8 1.2-1.7.2-.2.8-1.3.7-1.2.3-.6.4-.6.7-1.7.3.3.5.2.5-.2.6-.1.8.4 1-.2.2.2.4.3.5 0 .4.1.5.4.5 1-.2 0-.2-.3-.2-.5-.6.3.4 1.1.2 1.7-1-.9.4 1.3-.7.5.4.6-.2 1.3-.7 1 .2.3.3.6.2 1.2-.9-.4-.7 1.7-1.4 1.4 0 .4.3.5.2 1-1 .3-1 .6-1 2.2-.5 0-1.3.9-1 2.2-1-.9.4 1.3-.7.5.4 1.2-.8 2.5-1 3.1-.2.8.4 1.5-.5 1-.1.6.4.5.2 1.2-1 1.2-1.1 1.2-1 2.9-.8-.3 0 1.9-1 1.7-.1.6.4.5.2 1.2-.8.1-.8 3-1.4 4.1-.8-1.3-.1 1.7-.7-.2-.4.6 0 1 0 1.9-1-.6-.5-2.9-1.2-3.8.8 0 .2-.8.2-1.9.4-.1.7-1.4.5-2.4.2 0 .2.2.5.2 0-2.7 1.5-4.2 1.2-6 .2 0 .2.2.5.2-.4-1.6 1.6-3.4 1-4.1.4-.8 1.5-2.4 1.3-3.7zm3.6 23.1c0-.6.7.1.5.5.3-.1.2-.5 0-.5.4-1.1.5 1.2.7.2.6.1-.3.4 0 1-.7-.8-.3-.1-.2.7-.5 0-.2-.8-.7-.7.1.5.6.7.5 1.4-.8-.6-.3.5-.2 1-1.5.1-.4 1.7-1.4 2.2.8 2.3-.9 1.9-.2 3.6-.2 0-.2-.2-.5-.2.5 1.6-.7 1.1-.2 2.6-.4-.1-.6-.4-.5-1-.6.4.3 1.4 0 2.4-1-2.7-1-4.4-.7-6.3-.1 1 .8-1 .2-1.2 1-.6 1.1-1 1-2.4.2 0 .2.2.5.2.1-.6-.4-.5-.2-1.2.2 0 .2.2.5.2-.4-.9.6-.6.5-2.2.2.2.4.4.5.7.6-.1-.3-.4 0-1 .1.3.1 0-.1 0zm137.4 8.9c2.5.1 1.9 3.3 2.7 5.3-.9-.8-2-3.5-2.7-5.3zm9.4 8.7c2.4.8 3.6 3.9 5.3 6 1.8 2.3 3.7 4.4 5.3 6.5.4 1-.2 1.5.5 1.9-3.5-4.1-8.1-9.1-11.1-14.4zM486 169c-.2.9-.8-1.1-.5-.2-.3-.7-.7-2.3 0-2.4-1.7-5.4 1.7-11.1 1.7-18 0-3.4-1.1-6.4-1.5-10.1 9.6 2.6 7.1 20.9 4.1 28.4-1.8-.2-3.3 2.1-3.8 2.3zm-124.7-7.5c.4.1-.2.4.2.5-.4.9-.7-.4-1.2-.2.5-1.1-1.7-2.9-1-4.8.3.3.4 1.2.7.2 1 .5 1.3 3.8 1.3 4.3zm103.7 25c3.8 1.4 2 14.9 1.7 18-2.6-1.3-.9-6.2-1.4-9.6-.2-1.4-.1-3.6-.2-5.3-.2-1.3-.8-2.2-.1-3.1zm-160.4 63.2c-.1-.6 1.1 1.4 1.7 1.7-.1.4-.4.5-1 .5-.1-1.3-.2-1.3-.7-2.2zm18.1-106.5c.1.4.6 2.2-.2 1.4.9.3-.4 2.1-.2 1.7-.3.9-.9 5.6-1.2 1.7-.3.1.2 1.6 0 2.4-.4-1.1-1.5-6.3-.5-6.7-.1-.4-.6-2.2.2-1.4-.5-2.3 1.5-3.7 1-5.5.6-.2.4-1 1-2.2.8.4.1 0 .2-.7 1 0 3.1.7 2.2 2.6-.1-.5-1.5 3.6-1.7 4.3-.2.9.1.6 0 1.2 0 0-.4-.3-.5-.2-.1.1.8 2.5-.3 1.4zm125.7 1.5c-2.9 8.5-11.7 16.6-21.7 17.3-5.9.4-11.8-1.5-17.8-2.9-1.2-1.6-3.9-1.7-4.8-3.6-.2-.7.4-.7.2-1.4 2.2-1.6 6.9-.7 9.4-1.7 3-2.8 8.3-2.3 13.3-2.9 3.8-.4 6.7-3.3 10.4-1.9-.1 1.9-3 1-4.1 1.2-1.5.2-2.9 1.5-4.3 1.7-1.6.2-3.3-.2-4.8 0-2.9.4-5.4 1.2-8.4 1.9 0 .2-.2.2-.2.5 13.2 1.7 23.2-3.5 32.8-8.2zM426.7 155c-5 .5-10.8-.8-15.4.2 1.1.6 2 1.3 2.9 2.2 12.7 2.8 22.9-.5 29.9-8.7.2 0 .3-.4 0-.5-5 2.3-10.6 6.1-17.4 6.8zm-29.2-55c-7.1 0-10.9 7.2-17.8 7.7-.1.8-.5 1.3-.5 2.2 2.7.7 4.1 1.1 6.7-.2 6.1 1.9 13.5-.8 19.5-1.9.9-.1 1.3.5 1.9.7 0-.6.1-1 .5-1.2.8.6.9 1.8 2.2 1.9.1-.8.6-1.2.5-2.2-3.2-4.1-6.9-7-13-7zm-12.6 8.1c1.1-1.1 2.6-1.9 3.9-2.9.6.6-.1 2.5.7 2.9-.7.8-3.5 0-4.6 0zm6-1V105l3.2 1.1-3.2 1zm9 .8c.1-1.7 1-2.7.7-4.8 2.8.2 4.4 1.6 6 2.9-2.1.9-4.4 1.8-6.7 1.9zm33-2.4c2.5-.1 2.5-2.8 4.6-3.4-1 .2-1.9.5-2.9.7 1.8-1.9 2.9-4.3 5.8-5.1-.5 1.6-.2 2.4 0 4.1-.4-.4-1.5-.1-1.9.2 6.5 2 12.5-1.1 17.6-2.6.1-.3-.3-1.2.2-1.2 1 .6 1.7 1.4 2.9 1.7.1-.7.2-1.6.5-2.2-7.8-8.4-25.4-3.7-26.8 7.8zm8.5-5.3v-2.1l3.2 1.1-3.2 1zm8.6.7c.7-1.6.4-3.6-.2-5 2.3.6 4.7 1.1 6 2.6-2.1.6-3.3 2.1-5.8 2.4z"/></g></svg>