<svg version="1.1" id="Слой_1" xmlns="http://www.w3.org/2000/svg" x="0" y="0" viewBox="0 0 566.9 467.7" xml:space="preserve"><style>.st0,.st1{fill:#ee7f00}.st1{fill-rule:evenodd;clip-rule:evenodd}</style><path class="st0" d="M386.1 104.3c.3.2.7.4.8.7.1.6 0 1.2 0 2-.8.3-1.5.6-2.4 1 .2 1.9.5 3.9.7 5.9.1.5.2 1.1.2 1.6 0 3 .5 5.9.9 8.9.3 1.9 0 3.8.1 5.7.3 4-.5 7.8-1.1 11.7-.5 2.9-1.9 5.6-3.4 8.2-1.5 2.6-3.7 4.7-5.7 6.9-2.3 2.7-4.4 5.5-5.9 8.7-.3.6-.4 1.2-.5 1.8-.2 3.2-.3 6.4-.5 9.6 0 .5-.1 1.1-.1 1.8 1.1 0 1.9.6 2.7 1.4 3.5 3.8 7.8 6.8 11.9 10 1.7 1.3 3.4 2.5 5 3.9 2.1 1.8 4.5 2.9 7.3 3.5 2 .4 3.9 1.1 5.8 1.6 2 .5 3.9.8 6 .2 3.4-.9 6.8-1.5 10.3-2 .4-.1.7-.2 1.4-.4.9 1.3 1.9 2.8 3 4.1 2.8 3.6 5.6 7.2 8.4 10.7 2.5 3.2 4.9 6.3 7.4 9.5.2.3.4.8.7.9 2.2 1.2 3.3 3.3 4.6 5.2 3.8 5.5 7.5 11 11.4 16.4 1.8 2.5 3.9 4.7 5.8 7.1 4.8 5.7 9.7 11.3 14 17.4 1.2 1.7 2.2 3.4 2.6 5.4.2 1.1.2 2-.8 2.8 1.5 4.9 1.6 9.9 1.3 14.9-.1 2.3-1 4.5-1.6 6.8-.3 1.3-.8 2.6-1 4-.2 1.7-1 3.5-2.3 4.8-2.7 2.6-5.3 5.2-8 7.7-2.9 2.7-5.9 5.2-8.8 7.8-6.6 5.9-12.8 12.1-20.4 16.7-4.3 2.6-8.6 5.2-12.9 7.7l-5.4 3.3c-.3.2-.7.4-.9.7-2.1 1.9-4 2.9-7.3 4-.9-1.2-2-2.3-2.9-3.6-1.1-1.4-2-3-3.2-4.4-1-1.1-1.7-2.2-1.8-3.7-1.5-.3-2.5.6-3.6 1-2 .8-4 1.6-6.1 2.4-.6.2-1.2.3-1.9.4-2.3 3.2-4.7 6.5-7.3 10.1v6c0 2.1.5 4.1-.2 6.1 1.4.9 2.6 1.6 3.8 2.4 1.2 4.4 1.3 8.5-2.7 11.9.4 1.8.8 3.6 1.1 5.4 1.1 5.3 2.1 10.5 3.2 15.8 1 4.6 1.7 9.3 3 13.9.9 3 1.1 6.3 1.7 9.4.6 2.8 1.2 5.6 2 8.4.7 2.5 1.1 5 1.4 7.6.3 2.5.2 5 .4 7.5s.7 4.9 1.1 7.4c.6 3.5 1.1 6.9 1.7 10.4.2 1 .4 2 .7 3 1.2 4.8 2.4 9.5 3.5 14.3.1.4.1.9.1 1.4-.2 3.8-.3 7.7-.5 11.5-.1 1-.5 2-.8 3.1 2.2.6 3.2 2.6 4.3 4.3 1.3 2 2.5 4 3.5 6.1 3.2 6.2 6.4 12.4 9.5 18.6 1.3 2.7 2.3 5.6 3.6 8.4 2 4.3 4.1 8.6 6.2 12.9.3.6.5 1.1.8 1.6-.6 1.5-1.9 2-3.1 2.4-1.3.5-2-.2-2.2-1.7 0-.4-.2-.9-.4-1.3-3.7-6.8-6.2-14.2-9.5-21.1-2.2-4.8-4.8-9.3-7.3-14-1.6-3-3.2-6.1-4.9-9.1-.7-1.3-1.6-2.5-2.5-3.8-2.1 1.4-3.9 3-6.2 4-1.4.6-2.5 2-3.5 3.1-.7.8-1.5 1.6-2.5 2-2.7 1.3-5.5 2.6-8.2 4-.9.4-1.8.9-2.7 1.4-1.4.7-2.8 1.3-4.3 1.6-2 .4-4.1.8-5.7 2-1.4 1-2.9 1.4-4.3 2-.9.4-2 .3-3.3.4.2.7.3 1.1.5 1.5 2.8 4.9 4.5 10.3 6.5 15.5 1.5 3.9 3.1 7.8 4.7 11.7.5 1.2 1 2.4 2 3.4.6.6.9 1.6 1.4 2.6h-6.1c-2.9-6.1-5.4-12.3-7.5-18.6-1.6-4.8-3.6-9.3-6-13.7-.2-.3-.4-.7-.6-1-3.2-.5-6.1.4-9.1 1-2.9.6-5.8 1.2-8.8 1.3-1.3 0-2.6.4-4 .6.8 2.2 1.5 4.3 2.2 6.3 2.4 6.8 4.7 13.5 7.1 20.3.3.9.9 1.7 1.3 2.5.2.4.4.8.6 1.4-1.8.4-3.4.1-5.1.2-2.6-6.1-4.3-12.6-6.6-18.8h-5c-.5.5-.4 1.1-.2 1.7 1.4 4.9 2.8 9.7 4.2 14.6.2.7.3 1.5.5 2.4h-3.8c-1.5-2.2-2-4.8-2.7-7.3-1-3.3-1.9-6.7-2.9-10.1-1-3.8-2-7.6-3.1-11.4-.3-.1-.5-.4-.7-.3-2.3.7-4.7.4-7 .4h-2.4c-4.8 0-9.5-.6-14.2-1.3-6.2-.9-12.2-2.7-18.3-3.8-4.7-.9-9.3-1.7-13.9-2.9-2.1-.6-4-1.3-5.7-2.5-.2-.2-.5-.3-1.1-.5-.2 1.3-.5 2.4-.6 3.6-.1 2.2 0 4.4-.1 6.6-.1 7-.2 14-.5 21-.1 2.9-.6 5.7-.9 8.6H250c0-.3-.2-.6-.1-.8 1.1-1.6.9-3.5.9-5.3 0-5.9-.1-11.8 0-17.8.1-4.5.3-9 .5-13.4.1-1.5.4-3.1.6-4.8-.9-.5-1.7-1.1-2.5-1.5-2-.8-3.8-2.1-5-3.8s-2.8-2-4.6-2.4c-4.1-.7-8.2-.4-12.2-.5-1.8 0-3.4-.5-5-1.2-5.3-2.5-10.7-4.9-16-7.2-3-1.3-6-2.5-9.2-3.8-.1.4-.3.8-.3 1.3v4.3c-.5 18.3-.4 36.6-.4 54.9v1.9h-4.6v-6.1c0-1.1.3-2.2.3-3.3 0-6.7 0-13.4.1-20.1 0-1.7.4-3.4.5-5.1.1-4.5 0-9 0-13.5.1-5 .2-10.1.4-15.1.1-1.6-.5-2.7-1.9-3.5-4-2.2-7.9-4.6-11.8-6.8-1.4-.8-2.9-1.6-4.4-2.3-1.2-.5-2.5-.9-3.7-1.3-2.8-1.1-5.5-2.2-8.2-3.3-.4-.2-.7-.6-1-.9 1-3.1 1.9-6.1 2.8-9.2.3-1.1.7-2.3.8-3.4.1-1.8.7-3.3 1.5-4.9.8-1.7 1.7-3.4 2.6-5 1.7-3.3 3.2-6.6 4.3-10.1.9-3 2.7-5.8 4.1-8.7.7-1.5 1.5-2.9 2.1-4.5 1.9-5.4 3.7-10.9 5.5-16.4.1-.4.2-.8.4-1.1 1.6-1.6 1.7-3.8 2.6-5.7.8-1.9 1.7-3.9 2.4-5.9.6-1.6 1.1-3.2 1.7-5.1-.4-.3-.8-.6-1.3-.9.4-2.1.8-4.2 1.3-6.2.5-1.9 1.1-3.8 2.1-5.4 3.6-6.3 6.7-12.9 9.1-19.8 1.6-4.5 3.8-8.7 6.3-12.8.8-1.3 1.5-2.5 2.3-3.8.9-1.6 1.4-3.3.9-5.3-22.2-2.6-44.3-6.2-66.1-11.8-.6.7-.3 1.5-.3 2.2.2 3.5-1.3 6-4.3 7.7-.5.3-1.1.6-1.6.9-.1 0-.1.1-.2.3.7 2.9 1 5.9.9 8.9-.1 2.7-.9 3.8-3.6 4.3-.1 0-.3.1-.6.3v1.7c0 9.4 0 18.8.1 28.2.1 3.9.5 7.8.8 11.7v.5c.6 8.1.5 16.2.4 24.3-.1 4.9.8 9.6 1.7 14.4.1.7.2 1.4.2 2.1 0 10.2.1 20.4 0 30.5 0 3-.5 5.9-.9 8.9-.3 2.9-.5 5.8-1 8.6-.9 4.7-.8 9.4-.9 14.1-.1 2.6-.6 5.3-.8 7.9-.2 2.4 0 4.7-.1 7.1-.2 2.8-.5 5.6-.8 8.4-.1.9-.1 1.7-.1 2.6 0 3.8-.1 7.6 0 11.4.1 3.3-.6 6.4-1.1 9.5-.3 1.9-.9 3.8-1.3 5.7-.3 1.5-1.4 2.4-2.6 3.2-.3.2-.7 0-1.2 0-.3-1-.4-1.9 0-2.8 1.1-2.1 1.2-4.3 1.6-6.5 1.3-6.7.6-13.5 1-20.2.2-2.7.5-5.4.8-8.2 0-.2.1-.5.1-.7 0-4.4.1-8.8.5-13.2.4-4 .2-8 .6-12 .2-2.7.9-5.4 1.3-8.1.3-1.9.4-3.7.6-5.6.3-3 .6-5.9.8-8.9.1-.9.1-1.7.1-2.6 0-8 .1-15.9 0-23.9-.1-2.9-.7-5.7-1.1-8.6-.3-1.9-.6-3.8-.7-5.8-.1-2.8 0-5.5-.1-8.3-.1-6 0-12-.5-17.9-1.3-13.8-.6-27.5-.9-41.3 0-1.1-.3-2.2-.3-3.3 0-.7.1-1.4.2-2.1-.5-.5-.8-.2-.9.4-.5 3.2-.8 6.3-1.5 9.5-.7 3.1-.3 6.1-.4 9.2-.2 5.3-.1 10.6-.5 15.8-.6 7.2-.4 14.3-.2 21.5.1 4.1.1 8.2.3 12.3 1 15.8.3 31.7.4 47.5 0 2.1-.5 4.2-.8 6.3 0 .4-.1.8-.1 1.2v1.2c-.2 5.3 0 10.7-.6 16-.5 5.4-.2 10.7-.4 16-.1 3.7 0 7.4-.1 11.1 0 2-.3 4.1-.5 6.1-.4 3.2-.8 6.3-1.4 9.5-.6 3.1-.4 6.3-.4 9.4 0 2.2-.9 3.2-3.5 3.9-.2-.6-.5-1.1-.5-1.7.1-2.5.2-5 .4-7.5.1-1.9.3-3.7.6-5.6.4-3.2 1-6.5 1.3-9.7 1-9.3 0-18.7.6-28.1.3-5.3.2-10.5.5-15.8.2-3.7.8-7.4 1.3-11.2.1-.6.1-1.3.1-1.9v-36c0-3.7-.1-7.4-.5-11.1-.6-5.2-.2-10.4-.3-15.6-.1-3.9-.1-7.7 0-11.6.1-7 .3-14 .5-21 .1-2.7.2-5.3.5-8 .4-3.1 1.1-6.1 1.7-9.2.1-.6.1-1.2.2-2.1-.6.1-1 .1-1.4.2-1.1.2-2-.3-2.3-1.4s-.5-2.1-.5-3.2c-.1-3.6 0-7.3 0-10.9-.3-.3-.6-.5-.9-.7-1.7-1.1-2.6-2.6-2.4-4.8.1-1 .3-2.2-.4-3.5-.9 1.5-1.7 2.7-2.4 3.9-.7 1.2-1.4 2.4-2.2 3.6-.5.7-1.1 1.5-1.8 1.8-1.6.7-2.3 2-2.9 3.4l-5.1 12.6c-1.8 4.3-3.3 8.8-5.3 13-4.4 9.4-9 18.8-13.6 28.1-1.8 3.6-3.1 7.4-4.2 11.2-1.3 4.7-3 9.2-5.1 13.5-1.9 3.9-3.4 8-4.5 12.2-.6 2.3-1.7 4.6-2.8 6.7-3 5.8-5.6 11.7-8 17.8-.9 2.4-1.5 4.9-2.6 7.3-2.4 5.2-4.7 10.4-6.7 15.7-.8 2.1-1.4 4.3-2.1 6.4-.9 2.7-1.9 5.5-2.8 8.2-1.4 4.2-2.8 8.4-4.3 12.6-.6 1.8-1.3 3.7-1.9 5.5-1.7 4.9-3.5 9.8-5.2 14.8-.8 2.4-1.6 4.9-2.4 7.3-.3.9-.6 1.8-1 2.6-1 2.2-1 2.2-3.4 3.4-.7-.4-.7-1-.5-1.6 3.3-8.7 5.6-17.8 9.3-26.4 1-2.4 1.7-4.9 2.4-7.3 1-3.5 2.2-6.8 3.6-10.1 1-2.2 1.6-4.5 2.2-6.9.9-3.4 2.2-6.6 3.5-9.9 1.6-4.3 3.4-8.5 5.5-12.7.5-1 .9-2.2 1.3-3.3 2.2-7 5.2-13.7 8.5-20.3 1.3-2.7 2.7-5.3 3.5-8.2 1.3-5.2 3.5-10 5.7-14.8 1.8-4 3.2-8.1 4.4-12.3 1.3-4.4 3-8.5 5-12.6 3.6-7.3 7.2-14.6 10.7-21.9 3.4-7.1 6.2-14.5 9-21.8 1.2-3.2 2.8-6.3 4.2-9.4.7-1.5 1.3-3 1.9-4.5-.2-.2-.4-.4-.6-.5-2.2-1.1-2.8-2.1-2-4.4s1.9-4.6 3.1-6.8c1.2-2.2 2.5-4.3 3.9-6.6-.3-.3-.6-.7-1-.8-4-1.5-7.8-3.2-11.9-4.3-7.3-2-14.1-5-20.7-8.7-3.2-1.8-6.5-3.4-9.8-5.1-2-1-4-2-6.1-3-4.1-1.9-7.7-4.4-11.4-7-4.7-3.3-8.9-7.2-12.8-11.5-2.3-2.5-4.3-5.2-5.4-8.4-.2-.4-.4-.9-.4-1.3-.1-3.6 0-7.2 1.4-10.6 1.2-2.9 3-4.9 5.9-6 .3-.1.6-.3.9-.3 1.7.2 3.2-.6 4.7-1.3 1.6-.7 3.2-1.1 5-1.2 2.5-.2 5-.4 7.4-1.2 1.2-.4 2.6-.6 3.9-.6 2.5-.1 5.1-.1 7.6 0 1.9.1 3.7.5 5.6.7 1.5.2 3.1.4 4.6.6 7.4 1.1 14.7 2.8 21.8 5 4.7 1.5 9.5 2.6 14.3 3.6 3.3.7 6.5 1.5 9.7 2.5 5 1.7 10.1 3 15.3 4.2 3.8.8 7.5 2.1 11.2 3.4 4.2 1.5 8.2 3.4 12.4 4.9s8.1 3.6 12 5.9c1.6 1 3.3 1.7 5.1 2.4 5.2 2 10 4.9 14.8 7.7 2.9 1.7 5.8 3.4 8.8 5 4.5 2.3 8.7 5.3 12.9 8.2 1.2.8 2.3 1.7 3.5 2.4.9.6 1.9 1.1 2.9 1.7.4-.4.7-.7.8-1l6.3-18.3c.2-.7.4-1.5.4-2.3v-30.1c0-.5-.1-.9-.1-1.4-1.7.1-3.2.1-4.7.2-.9.1-1.7.2-2.5.3-.7.1-1.4.2-2.1.1-2.2-.2-4.5-.6-6.7-.8-1.5-.2-2.9-.4-4.4-.5-3.1-.3-6.2-.5-9.3-1-7.9-1.2-15.9-2.5-23.5-4.8-3.9-1.2-7.7-2.5-11.5-3.8-1.1-.4-1.1-.4-3.6.6-1.1-.7-2.2-1.3-3.3-2-1.3-1-2.7-1.8-4.2-2.4-1.3-.5-2.3-1.6-3.4-2.4-1.1-.8-2.1-1.7-3.1-2.6-.7-.6-1.1-1.5-1.8-2.1-1.2-1.2-2.5-2.3-3.9-3.4-2.9-2.4-5.9-4.7-8.9-7-2-1.5-4.1-2.9-6.1-4.4-1.3-1.1-2.7-2.2-3.7-3.6-.9-1.3-1.9-2.6-2.3-4.3-.4-1.6-1.4-2.9-3-3.7-1.3-.6-2.6-1.6-3.9-2.1-7.2-2.6-12-7.8-15.7-14.2-1.4-2.4-2.4-4.9-3.8-7.3-2.3-4.1-5.2-7.8-8.6-11.2-.8-.8-1.7-1.6-2.5-2.5-.4-.4-.5-1-.8-1.6.6-.3 1-.6 1.4-.8.8-.3 1-.8 1.2-1.6.7-2.1 1.2-4.2 2.4-6.1 2.2-3.2 5.2-5.1 9-5.6.8-.1 1.6.1 2.2-.9-.9-2.1-3.2-3-4.2-4.6-4.1-1.1-7.3-2.8-9.4-6.2-1.4-2.2-1.9-3.9 1-6.1-.6-1.6-1.1-3.2-1.6-4.7 1.2-2.7 2.5-3.8 5.2-4.8-.2-1.5-.8-3 .3-4.6 1-1.5 2.3-2.3 4-2.9 0-.5.1-1 0-1.4-1.2-3 1-4.8 2.6-6.8.4-.5 1-.7 1.6-1.1 2-1.1 4-1.2 6 .1.6.4 1.3.7 2.2 1.3-.1-3.8 1.3-7.1 1.1-10.6-.1-1.4.1-2.9.5-4.2.7-2.3 0-4.3-1.1-6.5 1.1-.3 2.1-.6 3.3-.9 0-.6.1-1.3.1-2 .2-5 .1-10.1.5-15.1.5-5.4.9-10.8.9-16.2 0-1.5.4-2.9.6-4.7.6-.9 1.6-1.7 3.2-1.4.1.3.2.5.2.7-.3 2.9-.6 5.8-.9 8.6-.1.7-.1 1.4-.1 2.1.1 3.9-.2 7.7-.9 11.5-.1.5 0 1.1.3 1.7.1-.5.3-1 .4-1.5.1-.6.2-1.2.4-1.8.1-.6.4-1.2.4-1.8.7-4.7 1.9-9.3 3-13.9.2-.9.4-1.8.7-2.7.7-2.4.9-2.5 3.7-2.3-1.4 6-2.8 11.9-4.3 18 1-.1 1.1-.8 1.3-1.3 1.4-2.9 2.8-5.8 4.1-8.7.7-1.4 1.6-2.5 3.2-2.9.4-.1.8.2 1.3.3-3.4 6.1-6.2 12.3-8.9 18.5-.5 1.2-1 2.5-1.4 3.7-.1.4 0 .9-.1 1.4-.1.1-.2.2-.2.3.1-.1.1-.2.2-.4.3-.4.8-.7 1-1.2 2.7-5 5.4-10.1 8-15.1 1.4-2.6 2.6-5.3 3.9-7.9.6-1.1 1.7-1.3 2.7-1.6.7.3.9.8.7 1.5-.2.6-.4 1.2-.7 1.7-3 5.7-6.1 11.4-9.1 17.2-.4.9-1.5 1.5-1.3 2.7-.1.1-.2.1-.4.2l.2.2c.1-.1.1-.2.2-.4.4-.4 1-.7 1.3-1.2l7.8-12.6c.7-1.1 1.2-2.2 1.9-3.2.8-1.3 1.6-1.5 3.6-.9-.5.9-.9 1.8-1.4 2.7-3.3 5.4-6.3 11-10.3 16-1 1.3-2 2.6-3.1 3.8-2.5 2.6-4.6 5.6-6.5 8.8.4.5.9 1 1.3 1.6-1.8 3.4-2.5 7-2.8 10.8-.1 1.7-.7 3.4-1 5-.2.8-.3 1.5-.3 2.3-.1 1.2-.2 2.5-.4 3.7-.2 1.7.1 3 1.3 4.3 1.8 2 4 3.4 6.3 4.5 2.9 1.4 4.7 3.8 6.7 6.2 1.3 1.6 1.1 3.6.2 5.3-1.4 2.6-2.9 5.2-4.4 7.7-.9 1.5-1.4 2.9-.8 4.7.2.6.1 1.4.2 2.2 1.6 1 3.2 1.9 5.2.8.4.3.7.7 1.1.9 1.2.5 1.5 1.6 2.1 2.6 1.2 2.2 2.6 4.2 4 6.3.6 1 1.2 2 2 2.9 1.1 1.3 2.3 2.6 3.5 3.8.5.5 1.3.9 2 1.3 1.5.9 3.2 1.5 4.4 2.7s2.2 2.6 3.5 3.7c2.5 2.1 5 4.1 7.5 6.1 2.6 2.1 5.2 4.1 7.6 6.3 3.3 3 7.3 5.2 11.1 7.6 1-.7 1.9-1.4 2.9-2 .9-.5 1.9-1.2 3.2-.8 1.6 2 .9 4.9 2.1 7.2 2.3-1.1 4.4-3.1 7.4-2.5 1.4 1.4.9 3.4 1.7 5.1 3.4-1.2 7-1.5 10.6-1.4 2 .1 4.1.2 6.1.4.8.1 1.5-.1 2.2-.7 1.8-1.6 3.6-3.2 5.6-4.6 2.6-1.8 4.3-4.3 6.4-6.6 2.6-2.9 4.9-5.9 7.5-8.7 1.6-1.7 3.6-3.1 5.3-4.6 2-1.7 3.9-3.5 5.8-5.2 1.2-1 2.3-2.1 3.6-3.1s2.9-1.3 4.6-1.5c4.3-.3 8.6-.3 12.9-.6 4.8-.4 9.5-.8 14.3-.8 3.7 0 7.4.3 11 1.1 1.7.4 3.4.3 5 .1 2.7-.4 5.3-1.1 8.2-1.8 1-4.4 2-8.9 3.1-13.5-.8-.4-1.5-.9-2.4-1.4-.5 2.8-2.8 2.3-4.8 3.1.1-.6.2-.9.3-1.5-4.2-1.5-7.7-4-10.3-7.9 1.2-1 2.4-1.7 4-1.3 1 .2 1.7-.1 2.1-1 .6-1.2 1.1-2.4 1.4-3.7-1.1.4-2.1.9-2.8 1.8-1.2 1.4-2.4 1.6-4 .8-.7-.4-1.4-.7-2.1-1.1.8-1.7.8-1.6 2.3-1.6 1 .1 2 0 3.3 0 .1-.9.1-1.7.1-2.5-.2-.3-.3-.5-.5-.6-2.9-2.2-4.5-5.2-5.4-8.6-.5-2.2-.7-4.5-.8-6.7-.1-1.5-.3-2.6-1.5-3.7-2.8-2.5-4.3-5.9-4.5-9.5-.2-2.2.6-4.5 1-6.7.4-2.1.5-4.1-.4-6.2-.5-1.1-.4-2.7-.1-3.9.7-2.7 1.7-5.3 2.5-8 .3-1.2.6-2.4.7-3.7.1-1.9-.1-3.8.1-5.7.4-5.7 1.6-11.3 4.9-16.2 1.4-2.1 2.9-4.1 4.4-6.1.5-.6 1.1-1.2 1.7-1.7 2.1-1.8 4.1-3.6 6.3-5.3 3.9-2.9 8.2-5.2 12.7-7.2 1-.4 2.1-.7 3.1-.8 2.9-.3 5.7-.7 8.4-1.8 1.6-.7 3.5-.6 5.2-1.1 2.1-.7 4.2-.4 6.2.1 2.9.7 5.6 2.6 6.4 5.9.2.8.4 1.6.7 2.4 2.2-.6 4.4-1.2 6.5-1.8 1.9-.6 3.7-.1 5.4.7 1.8.8 3.4 2 4.7 3.5l1.5 1.5c.6.7 1.3 1 2.3 1 3.1.2 5.9 1.2 8.5 2.9.5.3.9.9 1.1 1.5.9 1.9 1.7 3.9 2.6 5.7.8 1.7 1.7 3.4 2.6 5 1.5 2.7 1.9 5.5 1.2 8.6-.3 1.4-.5 2.9-.6 4.4-.1 1.9-.6 3.5-2.5 4.7 2.2 1.2 2.5 3.5 3.6 5.3 1.1 2 1.4 4.1 1.2 6.5-.2.2-.4.5-.7.8-1.1 1.3-1.4 2.5-.5 4.3 1.2 2.3 1.4 4.8-.4 7-1 0-1 .5-1.3 1 0 .1-.1.2-.2.3.1-.1.2-.2.2-.3zm-17-45.4l-.5-.5c-.6-1.2-1.5-1.7-2.8-1.4-1.2-1.1-2.6-1.1-4.1-1.1-1.7 0-3 .6-3.6 1.4h.4c1.4 0 2.6-.9 4.1-.6 1 .2 2.2.1 3.2.2.7 1 1.7 1.2 2.8 1.4.2.2.4.4.5.6.2 0 .3.1.4.2-.2-.1-.3-.1-.4-.2zm-66.3 53c-.2.1-.4.3-.6.4-.5.2-1 .5-1.4.7-2 .9-4 2.1-6.6 1.3 0 1.1-.2 2.2.1 3.1.4 1.3.4 2.6.4 4-.1 3.5.9 6.7 2.5 9.7.7 1.3 1.8 2.6 3 3.6 1.6 1.4 3.5 1.6 5.6.4-.7-2.4-1.4-4.6-2.1-6.9-.4-1.2-1-2-2.4-2.1-1.1-.1-2.1-.7-2.8-1.5-.2-1.1-.4-2.2.8-2.7 1.2-.6 2.6-.8 3.9-1.2v.5c.3 2.2.4 4.4 2.4 5.8.4.3.5 1 .6 1.5.7 2.3 1.3 4.6 2 7 .5 1.6 1.3 3.1 1.6 4.6.6 3.9 2.3 7.2 4.7 10.2 2.9 3.7 6 7.3 10.5 9.2.3.1.5.4.8.6 4.6 2.9 8.6 6.5 12.7 10 2.2 1.9 4.4 3.5 7.3 4.1.2 0 .4.2.6.3 3.3 1.4 6.8 1.3 10.2 1 1.4-.1 2.8-.5 4.1-1 3.5-1.4 5.6-4.1 7-7.5 1.1-2.6 2.4-5.1 4.2-7.3 1.3-1.5 2.7-2.9 4.1-4.3 3.5-3.6 6.3-7.6 7.4-12.6.6-2.8 1.2-5.7 1.2-8.5.1-4.3-.2-8.6-.4-12.9-.1-1.1-.5-2.1-.9-3.1-.3-.8-.4-1.4-.3-2.2.3-2 .3-4 0-6.1-.4-2.5-.6-5-.6-7.5-.1-3.7-.2-7.5-1-11.1-.9-3.8-1.4-7.7-3.7-11-.3-.4-.4-1-.6-1.5-.6-2-1.1-4-1.7-6.1-.8 2.1-.7 4 .1 6.2-.7.1-1.2.1-2 .2-.2-1.7-.5-3.3-.5-4.8 0-1.1.5-2.2.7-3.4.4-1.9.3-5.2-.4-7-.3 2.5-.5 4.5-.8 6.5-.2 1.9-.4 3.9-.6 5.9-.3.1-.7.3-1.1.5-1.2-1-1.4-2.2-1.2-3.5.2-1.4.5-2.9.7-4.5-1-.1-1.8-.1-2.6-.2-.3-.4-.7-.6-.9-.9-1.9-2.7-4.8-3.8-7.7-5-.4-.2-.9-.3-1.4-.3l-5.4.3c0-.5.3-1.2-.7-.9-.1 0-.2.4-.2.6.3.1.7.2 1 .3-.6 1.4-1.5 2.2-3.2 1.9-.5-.1-1 .2-1.7.3-.3-.2-.7-.5-1.1-.7-1-.4-2.1-1-3.1-.9-2.5.3-5.1.7-7.5 1.8-1.3.6-2.4 1.4-3.6 2.2-1.3.9-2.4 2-3.8 2.8-3.2 2-6.5 3.8-9.6 5.9-2.1 1.4-4.2 2.7-6.7 3.4-.5.1-.9.6-1.2 1-.8 1-.8 1-2.2.2-.7.5-1.5.9-2 1.5-2 2.1-3.9 4.3-5.9 6.4-1.2 1.3-2.3 2.7-3.5 4 1.1.6 1.6 0 2.2-.6 2.2-2.3 4.4-4.7 6.6-7.1 1.2-1.3 2.5-2.3 4.3-2.4.4 1.2-.5 1.5-.9 2.1l-1.2 1.8c.4.3.6.5.8.7-1.5 1.9-1.5 1.9-.6 2.9.9-1.9 2.2-3.4 4.3-4.1-.5 1-1.2 1.8-1.8 2.7-.8 1.2-1.5 2.5-1.3 4.1-.1.1-.1.2-.2.3.1-.1.1-.2.2-.4 1.1 0 1-1 1.4-1.6.4-.7.9-.9 1.8-.8-1.2 2.8-3.8 4.8-3.8 8.2.9-.5 1.1-1.9 2.3-1-.6 1.3-1.3 2.5-1.9 3.8-.3.7-.5 1.3-.2 2.2.3.9.2 2 0 3-.2 1.2-.6 2.4-1.2 3.5-.7 1.3.1 2.6-.5 3.8-.1.1 0 .3-.1.5-.7 1.1-.5 2.2 0 3.4.4.9.7 1.9 1 2.8-.4.8-1.2.9-1.9.7-.7-.1-1.4-.5-1.8-.9-1.2-1.2-2.3-2.4-3.4-3.7-1.8.8-3.7 1.7-6.1 1.1.4-.5.5-1.1.9-1.3.8-.4 1.7-.7 2.6-.9 2.1-.3 2.8-.7 3.8-2.6 0-.5.1-.7.2-.9.1-.1.2-.1.3-.2l-.2-.2c0 .2 0 .3-.1.4zm2.9-64.9l-.5.5c-2 .6-4.2 2.9-4.6 5 1.7-1.9 3.1-3.5 4.6-5.1.1-.1.3-.2.5-.4l.5-.5c.6-.2 1.2-.3 1.7-.5 1.5-.4 2.9-1.4 4.5-.4 2.2-2.2 4.4-4.4 7.4-5.4.2-.1.3-.3.5-.4 1.2-.8 2.4-1.5 3.5-2.3.4-.3.8-.5 1.6-1.1-3.4.1-6.1.9-8.5 2.4-1.3.8-2.7 1.5-4.1 2.3-2.5 1.4-4.8 3.1-6.7 5.3-.1.3-.3.5-.4.6zm-205 123.1c-.1 0-.2.1-.4.1l.2.2c.1-.1.1-.2.2-.3.1-.1.2-.1.4-.2l-.2-.2c-.1.2-.1.3-.2.4zM362 208c-.1 0-.2.1-.4.1l.2.2c.1-.1.1-.2.2-.3.1-.2.3-.3.5-.5 1.1-.9 1.1-.9.6-2.4-.8.5-2 .1-2.5 1.3 1.3.3 1.3.3 1.8 1.1-.1.2-.2.3-.4.5zm-41.6 144.9c-.4-.1-.9-.3-1 .4-.3 0-.6 0-.9.1-7.2 3.2-14.7 5.3-22.2 7.6-1 .3-2 .4-3.3.6.2-.6.2-.9.4-1.2 1-1.3 2.3-1.6 3.8-2 5.3-1.5 10.6-3 15.8-5 6-2.3 11.9-5.1 17.8-7.7.2-.1.4-.4.6-.6.3 0 .6 0 .8-.1 0-.1-.1-.2-.1-.3-.2.1-.4.3-.7.4-.2 0-.5-.2-.7-.1-2.8.8-5.6 1.5-8.2 2.5-6.8 2.7-13.8 4.2-21.2 4.1-2.6-.1-5.2 0-7.8.1l.1.1c.4-.9.8-1.8 1.2-2.6 5.2-.4 10.2.3 15.2-.5 4.4-.6 8.6-1.6 12.6-3.3.5-.2.9-.6 1.1-.7-.4-3-.9-5.7-1.1-8.4-.3-3.6-.4-7.2-.5-10.8-.1-7.5.1-15-.4-22.4-.3-3.9-.1-7.9-.1-11.8 0-.5-.2-1.1-.2-1.6-.1-1.1-.6-2.2-.3-3.1.9-3.1 1.7-6.4 3.5-9.1 1.4-2.2 2.2-4.6 3.2-7 1.1-2.7 2-5.5 3.6-7.9 2.6-4 4.6-8.4 7.9-11.8.1-.1.2-.2.3-.4 3.6-5.5 7.3-11 10.8-16.5 1.3-2 2.4-4 3.6-6.1-2.1-1.9-4.2-3.7-6.1-5.6-2.2-2.2-4.4-4.3-7.1-5.8-.5-.3-.9-.8-1.4-1.3-1.5-1.3-2.9-2.6-4.4-3.9l-3.3-2.7c-1-.2-2-.5-3.1-.6-.8-.1-1.6 0-2.3.2-1.6.3-3.2.8-4.7 1.2-2.9.8-5.8 1.2-8.7 1.6-2.9.3-5.7 1-8.5 1.2-2.1.2-3.6 1.2-5.3 2.3.2 1.5.4 2.9.5 4.3.2 2.2.3 4.4.6 6.6.4 3.3.9 6.5 1.3 9.7.2 1.5.4 2.9.5 4.4 0 4.6.5 9.1-.3 13.7 0 .2 0 .5.1.7.7 3.2.1 6.5-.5 9.6-1 5.5-1.8 11.1-2.5 16.6-.4 3.3-.6 6.5-1 9.8-.3 2.5-.8 5.1-1.3 7.6-1 5-1.6 10-2 15.1-.2 2.7-.1 5.3-.4 8-.5 3.7-.4 7.4-.6 11.1-.1 3-.6 5.9-1.4 8.8-.7 2.7-1.9 5.2-2.2 8.1-.3 2.7-1.2 5.3-1.8 8-.6 2.9-.2 5.9-.3 8.9.6.1.9.2 1.2.1 2-.7 4-.4 6.1-.5 1.8-.1 3.6-.2 5.4-.5.8-.1 1.7-.4 2.2-1.2.5-1 1.6-1.2 2.5-1.5 1.2-.5 2.6-.7 3.7-1.4 2.8-1.5 5.6-3.2 8.3-4.9.9-.6 2.1-.8 2.5-1.9.1-.2.6-.2.7-.7 0-.2.1-.3.2-.4-.1.1-.2.3-.2.4zm27.4-11.9c-.8.2-.8.2-1.1.9.3-.1.5-.1.6-.2.2-.2.3-.4.5-.7.1-.1.2-.1.3-.2l-.2-.2c0 .2 0 .3-.1.4zm-45.5-237.7c-1.7.4-2.6 1.6-3.1 3.1 1.3-.7 2.4-1.6 3.1-3.1.2 0 .3-.1.4-.1l-.2-.2c0 .1-.1.2-.2.3zm27.1-42c-.3 0-.7-.1-.9.1-1.6 1.1-3.3 2-4.7 3.3-.8.8-1.8 1.7-1.5 3.2-.4.4-.8.6-1.1 1.1-1.1 1.9-2.5 3.6-4.1 5.1-2.5 2.3-7.1 3.3-10.8.8.4-.4.8-.8 1.4-1.2-1.2-.4-2.2-.6-3.1-1-1.2-.6-2.2-.7-3.3 0-1.3.8-2.6.8-3.7-.7-1.8 1.6-.5 3.6-1.2 5.2-1.3.9-2.7 1.5-4.5.9 0 1-.3 1.8.1 2.6.2 0 .3 0 .3-.1 4.1-3.1 8.4-4.7 13.6-2.7.8.3 1.7.5 2.5.5 2.2.2 4.4.4 6.4-.9 1.7-1.2 3.3-2.5 4.9-3.9 1.5-1.4 2.2-3.5 2.6-5.6 1.1-1 2.1-2.1 3.4-2.9 1.4-1.1 2.4-2.6 3.7-3.8 0-.2.1-.2.2-.3-.1 0-.2.2-.2.3zM361 48.4c1.3.3 2.2-.4 3.1-1.4-1.5-1.8-2.9-3.5-5-4.4-2.8 1.1-4.2 2.6-4.4 4.4 1.5-.6 3.1-1.1 4.9-1.8l-.4 1.2 2.1.9c0 .5-.1.8-.3 1.1-.3 0-.7 0-1.1-.2-1.9-.8-2.2-.4-3.2.8-.9 1.1-1.6 2.3-2.3 3.5-.1.2.2.7.3 1.3 2.3-1.8 4.3-3.6 6.3-5.4zm-30.7 302.1c-.2 0-.5-.1-.7-.1-4.2 1.9-8.3 4-12.2 6.4-2.9 1.8-5.9 3.5-8.8 5.3-.4.2-.6.5-1.1 1 2.5.4 4.5.1 6.5-1.2 5.3-3.7 10.6-7.2 16-10.7.1-.1.1-.5.3-.7.2-.1.5-.1.8-.1 0-.1-.1-.2-.1-.3-.3.1-.5.2-.7.4zm-5.2-299.7c.5 0 1.1 0 1.6-.1 2-.3 4-1.3 6.2-.4.4.2 1.1-.1 1.5-.3 2-1 4-2 6.3-2.1.2-2.6.1-2.7-2.1-2.9-2.4-.2-4.6.2-6.7 1.4-1.1.6-2.2 1.2-3.2 1.9-1.2.9-2.8 1.2-3.6 2.5-.2.1-.5.1-.8.1 0 .1.1.2.1.3.3-.1.5-.2.7-.4zm31.7 5.7c.4-.1.9-.2 1.3-.3 1.5-.3 3-.9 4.5-.9 2.9-.2 5.6.6 8 2.2.5.4 1 .4 1.4-.3-1.1-1.3-2.5-2-3.9-2.9-1.9-1.2-3.9-.4-6-.3 1-1.5 1.1-1.6 2.3-2 3.3-1.2 6.2.1 9.5 1.5-.8-1.7-1.7-2.7-2.6-3.7-1.6-1.7-3.8-.4-5.3-1.4-1.1.5-2 .9-3 1.2-.5.1-1.3-.3-1.7-.1-1.4.7-2.5 1.7-3.5 3.3 1.7-.4 3.1-.7 4.5-1.1.1.1.1.3.2.4-.7.4-1.4.7-2 1.1-1.7.8-3 1.7-3.7 3.3 0 .1-.1.2-.2.3.1-.1.1-.2.2-.3zm11.4 139.2c-.6-.1-1.2-.2-2-.4.2-1.3.4-2.4.6-3.6.2-1.2.6-2.5.5-3.7-.1-1.1 1.2-2.2.1-3.4-1.1.5-2.3.9-3.4 1.4-1.2.5-2.4 1.1-3.7 1.5-1.1.4-2.3.5-3.5.8-4.4 1.2-8.8 2.6-12.9 4.7-1.6.8-3.3 1.3-5 1.9-.6.2-1.3.3-1.3 1.1l2.4 3.3c-.5.6-1.2 1.1-.5 2 2.3-.2 4.6-.5 6.9-.7 3.6-.2 7.2-.5 10.8-.4 3 0 5.9-.7 8.7-1.4 1.9-.5 2.1-.9 2.3-3.1 0-.1.1-.3.2-.4-.1.2-.2.3-.2.4zm-187.5 5.7c-2.1-1.4-4-2.7-6-4-3.5-2.2-6.9-4.6-9.9-7.5-1.3-1.3-2.8-2.3-4.2-3.4-2.2-1.7-4.5-3.4-6.7-5.2-4-3.3-7.9-6.7-12-9.9-1.5-1.1-2.7-2.4-3.7-3.9-2-3.1-4-6.1-6.1-9.4-1.7 1.4-3.3 2.7-5.1 3.9-2.7 1.8-5.3 3.6-8.1 5.2-3.6 2.1-7.2 4.2-10.9 5.9-3 1.4-6.2 2.7-9.6 2.6-.2 0-.4.2-.6.3 0 .2 0 .4.1.5.2.3.4.5.6.8 3 3.5 5.7 7.3 7.7 11.5 1.7 3.8 3.9 7.3 6.6 10.5 2.4 2.9 5.3 5.1 8.8 6.5 2 .8 3.9 1.9 5.9 2.9 1.9.9 3 2.5 3.8 4.3.5 1.4 1.3 2.5 2.3 3.5l4.2 4.2c1.1 1 2.1 2.1 3.3 3 4 3.1 8 6.1 11.9 9.2 3.5 2.8 6.9 5.7 10.4 8.4 1.2.9 2.6 1.8 4.1 2.3 6.7 2.3 13.4 4.6 20.2 6.6 5.4 1.6 11 2.7 16.7 3.4 2.7.4 5.4.9 8.1 1.3 1.9.3 3.8.7 5.6.5 1.6-.1 3.2-.2 4.7-.3 2.4-.2 4.8-.5 7.2-1.1 1.8-.4 3.5-1.1 5.4-1.6-.4-3.5-.8-6.7-1.1-9.8 1.7-1.8 1.7-1.8 4.2-2.5.1 1.5.2 3 .4 4.5.4 3.1.9 6.2 1.3 9.2.1.4-.1.8-.1 1.2l-.3 2.1v20.6c0 .8.1 1.8.4 2.5.8 2 .5 4.1.4 6.1-.1 2.3-.6 4.6-.7 7-.1.9-.2 1.6-1 2-1.1.6-1.5 1.6-1.8 2.6-1 2.7-2 5.4-2.9 8.1-.4 1.2-.7 2.4-.9 3.6-.3 1.6-.6 3.2-.9 5 .7.6 1.5 1.4 2.5 1.9 3.8 2.1 6.3 5.3 7.7 9.3 1 3 1.1 6-1 8.7-.5.6-.8 1.3-1.3 2 5.3 2.2 10.7 3.5 15.8 5 .5 1 0 1.5-.3 2-.6 1.1-1.3 2.1-1.9 3.2-.9 1.7-1.6 3.5-2.5 5.3-1.7 3.5-3.6 7-5.2 10.5-1.4 3-2.5 6.1-3.9 9-2.2 4.6-4.6 9.1-7 13.6-1.9 3.7-4.7 6.9-7.6 9.8-2.5 2.6-5.4 4.8-8.5 6.7-3.7 2.3-7.7 3.4-12 3.3-2.6-.1-5.2-.7-8-1.1 0 0-.1 0-.2.2-3.8 4.2-5.6 9.7-8.6 14.4-.1.1-.1.3-.2.4-1.1 3-2.3 6-3.3 9-1.3 4.1-3.1 8-5.2 11.8-1.2 2.2-2.1 4.5-2.9 6.9-.8 2.6-1.9 5.1-3.1 7.6-1 2-2.2 4-3.2 6-.6 1.3-1.1 2.7-1.4 4.2-.7 3.1-1.4 6.2-2.5 9.2-.5 1.4-.9 2.8-1.3 4.2 3.2 1.9 6.6 3 9.9 4.1 4.7 1.7 9.4 3.3 13.9 5.7 3.7 2 7.2 4.1 10.8 6.2 1.3.8 2.6 1.7 3.9 2.6 1 .7 2 1.5 3.2 2 4.1 1.8 8.1 3.6 12.2 5.4 2.2.9 4.5 1.6 6.8 2.5.6.2 1.2.3 1.8 0 .2-.1.4 0 .7 0 .3.4.5.8.8 1.2 3.1.1 6.3.1 9.4.1-.4-3.6-1.9-7.1 1.2-9.9-.3-3.1 1.7-5.5 2.7-8.2 1.2-.8 1.2-2.1 1.2-3.4-.3-8.3.3-16.7-.4-25-.4-5-.2-10-1.1-15-.2-1.3.1-2.6 0-3.9s-.4-2.6-.4-4c-.2-4.9-.4-9.9-.5-14.9v-1.9c-1.6-1.7-2.9-3.2-4.3-4.6-1.2-1.2-2-2.5-1.9-4.4s-.1-3.8.1-5.7c.2-2.4.1-4.8 2.3-6.6 1-.8 1.2-2.1.8-3.4-.5-1.5-.9-3.1-1.1-4.8-.1-1.1-.4-2.3.2-3.4 1.3-2.3 3-4.3 5-5.9 3.9-3 7.6-6.3 12.4-8 .3-.1.6-.3.8-.4 7.6-4.4 15.7-7.1 24.4-8.3 1.3-.2 1.7-.8 1.6-2.2-.2-2.9-.2-5.8.7-8.6.4-1.3.9-2.7 1-4.1.1-2.3.7-4.5 1.5-6.6 1.8-4.8 2.1-9.7 2.3-14.7v-3.5c.3-3.4.6-6.7.9-10.1.2-2.7-.1-5.3.5-8 .6-2.6.8-5.2 1.3-7.8 1-5.2 2-10.4 2.1-15.8 0-.5.1-.9.1-1.4.3-2 .6-4 .8-6 .2-2.3.4-4.5.5-6.8.2-2.5.3-5 .4-7.5 0-.6-.2-1.4-.6-1.9-.9-1.2-1.9-2.3-2.9-3.4-3.5-4.1-6.8-8.3-10.4-12.2-4.5-4.8-9-9.7-15.2-12.5-.4-.2-.8-.6-1.2-.8-.9-.5-1.6-1.2-1.8-2.4 3.4-2.7 6.9-5.5 10.3-8.2 3.5-2.7 7.3-5.1 10.5-8.4-1-1.2-1.8-2.4-2.8-3.3-2.4-2-5-3.8-7.5-5.6-2.2-1.6-4.6-3-6.7-4.3-.4-1.4 0-2.3.8-3 .6-.5 1.1-1.1 1.8-1.5 4.7-3.2 8.8-7.1 13-10.9 3-2.8 5.9-5.7 8.7-8.7 1.1-1.1 2-2.3 3.1-3.7-1.5-.2-2.7-.6-4-.6h-35.3c-1.2 0-2 .4-2.9 1.3-1.3 1.4-2.8 2.7-4.3 4-2.4 2.1-4.8 4-7.1 6.2-1.6 1.5-3.1 3.2-4.4 4.9-2 2.6-4.4 4.9-5.5 8.1-.3.9-1 1.6-1.6 2.3-.6.8-1.2 1.5-1.7 2.2-1.7 2.5-3.9 4.5-6.3 6.3-1.2.9-2.4 1-3.8.5-1.6-.6-3.2-.8-4.8-.7-1.5 0-3 .1-4.5-.1-3.7-.5-7.3-.5-10.8 1.2-.8.4-1.6.5-2.4.3-1.3-1.7.3-4.1-1.7-5.6-2 1.4-4.1 2.9-6.9 3.3-1.6-1.8-.7-4.3-1.7-6.2-1.5.4-3 1.2-4.5 2.1zm122.7 174.8c.2 1.1.3 1.9.6 2.7 1.3 3.7 2.1 7.5 3 11.3.6 2.7-.4 4.7-2.8 6-2.3 1.2-4.7 1.4-7.2.3-2.3-1-3.4-2.3-3.5-4.8-.1-3.2 0-6.3 0-9.5v-2.4c-1.1-.1-2-.2-2.9.1-1.6.6-3.3.7-5.1.7-2 .1-4 .4-6 .8-2.8.6-5.5 1.6-8.3 2.3-5.7 1.5-10.9 4.2-16.2 6.6-3 1.4-5.4 3.7-7.9 5.7 1.7 1.9 1.8 2.3 1.9 4.8 0 4.8 0 9.6.1 14.4 0 2.1-.2 4.1-2 5.5.8 2.7.4 5.4.5 8.1.1 3.2.2 6.4.6 9.6.5 4.3.9 8.5.8 12.8 0 1.3 0 2.5.1 3.8.5 4.6.9 9.2.8 13.8v5.2c0 .5-.1 1.1-.1 1.6-.1 2.8-.1 5.6-.2 8.4 0 .1.2.2.5.4.5-.3 1.1-.7 1.7-1 2-1.1 4-2.3 6.1-3.1 6.8-2.7 13.7-5 20.9-6.5 4.2-.9 8.4-2.3 12.8-2.8 4.8-.6 9.4-2 14.1-3 2.7-.6 5.3-1.1 8-1.5 1.9-.3 3.9-.3 5.8-.6 2.6-.4 5.1-.9 7.7-.8h4.5c1.9 0 3.7-.1 5.6.4 1.4.4 2.9.4 4.4.5 1.2.1 2.5.3 3.7.4 2.3.2 4.5.5 6.8.5 2.9.1 5.8 0 8.8 0 2.3.1 4.5.2 6.8.6 2.5.4 5 1.1 7.5 1.8 4.9 1.4 9.9 2.9 14.3 5.6.4.3.9.4 1.6.8 0-1.2.1-2.2 0-3.2-.3-3.7-.7-7.3-.8-11-.2-4.9.1-9.7-.5-14.6-.5-4-.9-7.9-1.5-11.8-.3-2.5-.9-4.9-1.3-7.3l-1.5-8.7c-.4-2.4-.8-4.7-1.3-7.1-.8-4.5-1.7-9-2.4-13.5-.6-3.5-.9-7-1.5-10.4-.3-1.8-1-3.6-1.6-5.4-.9.1-1.5.1-2 .2 0 3-.1 5.7 0 8.5.2 3.9-1.3 7.3-3.4 10.5-.7 1.1-1.7 1.8-2.9 2.3-1.1.5-2.1.4-2.9-.3-2.7-2.5-4.9-5.2-4.9-9.2 0-2.8.4-5.6 1.2-8.3.5-1.5.8-3.1 1.2-4.7-.4-.1-.6-.3-.8-.3-2.5-.4-4.9-.9-7.1-2.2-.6-.4-1.5-.5-2.2-.6-1-.2-2-.2-3-.5-2-.7-4.1-1.1-6.2-.9-.4 0-.8-.1-1.2-.1-2.4-.4-4.6-1.2-7.1-1.3-3.4-.1-6.9-.6-10.3-.9-6.4-.4-12.7.5-19 1-1.5-.3-3 0-4.8.3zm142.5-91c-2 1.7-3.9 2.2-6.2 1.7-1.6-.3-3.4-.1-5.1-.1-.5 0-1.1.1-1.6.2-2.2.2-4.6 0-6.1 2.2-.2.2-.5.4-.8.6-1.1.8-2.2 1.5-3.1 2.4-4.9 4.9-9.4 10.2-13.7 15.6-1 1.3-1.8 2.7-2.9 4s-.9 2.4-.1 3.8c2 3.5 3.1 7.3 3.9 11.2.9 4.6 1.6 9.3 2.5 14 .5 2.6 1 5.2.9 7.9 0 .6.2 1.2.3 1.8.4-.1.7-.2.9-.3 4.9-3 9.7-6 14.7-8.9 7-4.1 13.5-8.8 19.3-14.5 2.2-2.2 4.6-4.1 6.9-6.1 3-2.6 5.9-5.2 8.8-7.8 1.6-1.4 2.9-3.3 4.6-4.6.5-.4.9-1.1 1.1-1.7 1-2.6 1.9-5.1 2.7-7.7.8-2.5 1.3-5.2 1.1-7.9-.2-3 .2-6.1-.4-9.2-.4-1.7.1-3.6-.5-5.3-.9-2.7-1.6-5.6-3.4-7.9-3.6-4.7-7.3-9.2-11-13.8-2.6-3.2-5.4-6.3-7.9-9.6-2.3-3-4.4-6.3-6.7-9.4-.1-.1-.2-.2-.4-.3-.3.1-.6.1-.9.2-3.9-5.6-7.6-11.3-11.7-16.7-4.2-5.4-8.3-11.1-13.5-15.9-4.5-.1-9-.3-13.6-.4-2 0-3.9.1-5.9.1-.8 0-1.6 0-2.3-.3-2.6-1.1-5.5-1.3-7.7-3.2h-.3c-.1.2-.2.4-.2.6v11.4c0 .4.1.8.1 1.2.3 2.3.6 4.6.8 7 .2 2.4-.1 4.8.4 7.3.5 2.2-1.5 4.5-3.8 4.4-2.7 0-5.5-.2-8.2-.6-3.8-.5-7.6-.3-11.7.4.2.8.3 1.4.5 2.1 1.4 4.1 2.8 8.3 4.1 12.4 1.5 4.7 3 9.4 4.4 14 .4 1.3.3 2.5-.9 3.4-.8.6-1.7 1.2-2.6 1.5-8.2 2.7-16.1 6.1-23.8 9.9-.8.4-1.7.8-2.5 1.3-2.4 1.4-4.8 3-7.3 4.3-3.7 2-7.5 4-10.2 7.4-.3.4-.8.8-.9 1.3-.3 1.5-.5 2.9-.5 4.4.1 3.3.3 6.6.4 9.9.2 4.6.1 9.3.4 13.9.4 6.2-.1 12.4.5 18.6.2 2.7.7 5.4 1.3 8 .2.1.4.1.5.1.3 0 .6 0 .9-.1 3-1 5.9-2 9.1-1.8.5 0 1.2-.4 1.7-.7 2.5-1.7 5-3.4 7.7-5.3-1.6-1-3-1.9-4.4-2.8v-2.1c.1-2.2 1.1-3.4 3.3-3.8.9-.2 1.8-.4 2.6-.6.1-.2.2-.3.2-.4v-.7c0-3.3 2.3-5 4.7-6.6.3-.2.7-.2 1.1-.2 2.1 0 4.2 0 6.7.1.6-.8 1.3-1.9 2.2-2.9 1.1-1.4 2.2-2.9 3.5-4.1.8-.8 2-1.2 3.1-1.5s1.9.2 2.2 1.3c.3 1 .4 2 .5 3 .1 1.5-.2 3 .3 4.8 2.7-3.2 5.2-6.2 8.3-8.3.2-2.9.4-5.7.7-8.4.3-2.5.7-4.9 1.2-7.4 1-4.6 3-9 3.8-13.7.7-3.7 1.6-7.4 2.6-11.1.6-2.1 1-4.5 3.4-5.6-.5-1-1-1.9-1.4-2.8 1-1.5 2.6-2.1 4.3-2.5.2.3.5.6.6 1 .4.8.7 1.7 1.3 2.4 2.8 3.8 6.6 6.7 10.3 9.6 4.1 3.2 8.2 6.4 11.8 10.1.5.5 1 .9 1.8 1.7v-9.8c1.2-1.6 2.6-2.4 4.5-2.7-.1 1.7-.4 3.2-.4 4.7s-.3 3.1.3 5c.4-1.1.6-1.9.9-2.5.8-1.8 1.6-3.6 2.5-5.3 1.3-2.5 3.5-3.7 6-4.6.3-.1.7.1 1.4.2-.8.7-1.4 1.1-1.9 1.5-.6.5-1.2 1-1.6 1.7-1.8 3.1-2.9 6.5-3.9 10.2 1.9-.5 3.2-2.1 5.4-1.8-1.7 1.4-3.2 2.6-5.1 4.1 2.8-.2 5.2-.1 7.5-.7 2.4-.6 4.5.3 6.7.3.2 0 .5.4.9.8zm-315.8 38.7c.2.2.5.5.7.5 2.3.7 4.6 1.4 7 2 5.4 1.4 10.8 2.8 16.3 4.1 3.6.9 7.3 1.7 10.9 2.5 4.2.9 8.5 1.8 12.8 2.7 3.2.6 6.4 1.1 9.7 1.6l3.9.6c3.8.6 7.5 1.2 11.3 1.8 1.5.2 2.9.4 4.4.6 3.1.4 6.2.8 9.3 1.3 3.6.5 7-.6 10.5-1.1 4-.5 7.5-2.6 10.6-5.1.8-.6 1.5-1.4 2-2.3 1-1.8-1.8-8.6-3.4-9.1-1.1-.3-1.6-1.2-2.3-1.9-2.2-2.3-4.6-4.2-7.3-5.9-2.5-1.6-5.1-3-7.6-4.7-4.5-3.1-9-6.3-13.9-8.7-2-1-3.8-2.1-5.7-3.2-4.4-2.5-8.7-5-13.1-7.4-2.6-1.4-5.5-2.3-8.1-3.6-2.4-1.2-4.7-2.9-7.2-4-4.8-2.1-9.6-4.2-14.5-6-4.8-1.8-9.6-3.6-14.7-4.7-3.6-.8-7.1-1.7-10.6-2.6-2.5-.7-4.9-1.7-7.4-2.3-4.4-1.1-8.8-2-13.2-3.1-7.3-1.8-14.5-4.3-21.9-5.8-4.4-.9-8.9-1.8-13.4-2.1-1.8-.1-3.6-.1-5.4-.5-3.6-.8-7.2-.4-10.6.7-.4.1-.9.2-1.4.3-1.5.3-3.1.4-4.5 1-1.5.6-2.9 1.1-4.4 1.4-1.8.3-3.7.7-5.5.9-.9.1-1.3.6-1.6 1.4-1.3 3.3-.8 6.7-.7 10 0 .4.3.9.5 1.3 1.8 3.1 3.8 5.9 6.3 8.5 3.4 3.5 7 6.7 11.1 9.5 3 2.1 6.1 4.1 9.3 5.9 3.4 1.9 7 3.5 10.5 5.3 3.1 1.6 6.3 3.2 9.4 4.8 3.8 2 7.5 4.2 11.7 5.4 5.6 1.7 11.2 3.4 16.5 5.8.7.3 1.4.4 2.4.6.3-1.6.5-2.9.7-4.1-1-.7-1.7-1.3-2.4-1.8 2-3.6 3.6-3.3 6.1-3 1.3.2 2.6.3 4.1.4 1.2-1.6 2.4-3.1 3.6-4.8-2.1-1.3-3.9-2.6-4.5-5-1.6.3-2.9-.2-4.1-.8-.7-.3-1.5-.4-2.3-.6-4.6-.9-8.5-3.2-11.5-6.8-.6-.8-1.2-1.7-1.6-2.6-.5-1.2-.4-2.5.4-3.6 1.1-1.4 2.5-2.3 4.4-2.4 1.5-.1 2.9-.4 4.4-.6 2.3-.3 4.6-.7 7-.8 3.1-.1 6.1-.1 9.2.3 3 .4 6 1.1 8.7 2.4 4.5 2.2 9 4.4 13.5 6.5 1.5.7 3.2 1.4 4.7 2.1 2.1 1 4.2 2 6.3 3.1 1.4.8 2.6 1.8 2.9 3.4-1.2 3-3.4 4.8-6.3 5.8-3.3 1.1-6.6 1-9.9-.3-2.2-.9-4.3-1.9-6.4-3-1.4-.7-2.8-1.3-4-1.5-1.3 1.5-2.4 2.8-3.6 4-1.4 1.3-3.4.9-5.1 1.2-3.1 4-3.1 4-2.7 5.6 1.4.6 3.2-.6 4.4 1.2-1.7 3.2-3.2 6.2-4.7 9.3zm204.1 157c-.3-.1-.5-.3-.7-.3-3.4.3-6.8-.9-10.3-.1-3 .6-6.1.5-9.1 1.1-5.1.9-10.2 2.3-15.3 3-3 .4-5.9 1.4-8.8 2.1-7.3 1.9-14.6 3.7-21.7 6.2-2.5.9-5 1.8-7.3 3-2.4 1.3-4.7 2.9-7 4.4-2.2 1.4-3.8 3.5-5.7 5.4 1.7 2.5 3.3 4.8 4.9 7.1.2.3.6.6.9.8 2.1 1.3 4.3 2.7 6.8 3.1 3.1.6 6 1.9 8.7 3.3 3.6 1.8 7.3 3.1 11.2 4 2.1.5 4.3.9 6.4 1.2 3.2.4 6.3 1.4 9.5 1.1h1.4c2.9.3 5.7.6 8.6.9.4 0 .8.1 1.2.1 3 .3 6.1.6 9.1.8.5 0 1-.3 1.4-.4-.1-1.4-.3-2.7-.4-4.1-2.1.4-3.5-.3-4-2.2h-6c-1 0-1.8.2-2.6.9-1 1-2.1 1-3.5.5-2.9-1-5.8-2.3-8.6-3.5-5-2.2-10-4.3-15-6.6-3.6-1.7-7.1-3.6-10.2-6.2-2.4-1.9-4.7-3.9-7.7-4.9-1-.3-1.6-1-1.8-2 .6-1.5 1.5-2.6 3.1-2.7.7.4 1.2.8 1.9 1.1 2.4 1.1 4.5 2.5 6.5 4.1 2.6 2.1 5.2 4.1 8.2 5.5 7.3 3.3 14.7 6.5 22.1 9.7.7.3 1.5.4 2.3.4h10.4c1.8 0 3.5-.2 5.2-.9 1.1-.5 1.8-1.1 2.2-2.2 1.3-2.8 2.6-5.7 4.1-8.5 3.7-6.9 6.7-14.1 8.6-21.7.3-1.1.6-2.3 1-3.5zM219 345.1c-.7 1.8-1.1 3-1.7 4.2-.8 1.6-1.8 3.1-2.7 4.7-1.5 2.8-3.1 5.4-4.3 8.3-2.9 7.2-5.6 14.4-9.4 21.2-1.9 3.3-3.4 6.8-3.8 10.9 1.9 1.8 4 3.6 6 5.4.3.3.9.3 1.3.5 2.2.8 4.5.4 6.8.5 2.5.1 4.8-.6 7-1.8 5-2.8 9.2-6.5 12.4-11.3 3.1-4.6 5.6-9.6 7.9-14.6 2.4-5.3 4.7-10.7 7.2-16 1.1-2.4 2.4-4.7 3.6-7.1.8-1.6 1.4-3.2 2.1-4.9-.4-.3-.6-.6-.9-.7-4.2-1.3-8.5-2.5-12.7-4-1.7-.6-3.1-.4-4.6.6-2.8 2-6.1 2.7-9.4 3.2-1.7.3-3.3.7-4.8.9zm136.7-115.5c-1.6 2.6-3.1 5.1-4.7 7.5-4.6 7-9.3 13.9-13.2 21.3-.2.5-.3 1.1-1.1.9-.2 0-.6.4-.8.7-1.1 2.1-2.5 4.1-3.2 6.2-1.4 4-3 7.9-5.2 11.5-.4.6-.7 1.2-.9 1.9-.2.5-.2 1.1-.4 2 14.1-8.2 28.6-14.7 43.4-20.3 0-.5.1-.9 0-1.3-2.5-8.2-4.8-16.4-7.9-24.4-.7-1.8-1.4-3.6-1.5-5.6.4-.4.8-.8 1.3-1 1.2-.5 2.4-1.1 3.7-1.4 3.5-.8 7.1-1.2 10.7-1 1.2.1 2.4.1 3.5 0 1.3-.2 2.4.1 3.5.5.5.1 1.1 0 1.7-.1 0-1.9.1-3.6 0-5.3-.2-2.4-.7-4.8-.7-7.2-.1-4.3 0-8.7 0-13 0-.7.2-1.4.3-2.1.2-1.3-.2-2.5-1.1-3.4-1.3-1.2-2.6-2.2-3.8-3.5-1.5-1.6-3.2-2.7-5.3-3.6-1.1 3.1-2.3 6.2-3.4 9.3.4.1.6.2.8.3 2.2.3 2.2.4 1.5 2.5-2.3 6.7-5.7 12.9-8.9 19.3-1.6 3.3-3.2 6.6-4.9 9.9-.3.6-.3 1.6-1.3 1.8-.8-.8-1.4-1.5-2.1-2.4zM323.3 515c2.6.1 4.8.1 6.9.5 1.2.2 2.1.2 3.2-.1.8-.2 1.7-.4 2.5-.7 3.1-.9 6.3-1.9 9.4-2.6 5-1.1 10-2.2 14.8-4.1 4.9-1.9 9.6-4 14.4-6.2 2.8-1.3 5.5-2.7 8-4.3 2.4-1.5 5-3 6.5-5.8-.4-.3-.7-.6-1.1-.8-2.2-1.1-4.3-2.1-6.5-3.1-1-.4-2-.8-3.1-1.1l-3.9-.9c-3.6-.8-7-2.1-10.8-2-1.6 0-3.2-.4-4.9-.6-2.2-.3-4.3-.5-6.5-.8-.5-.1-1.1 0-1.7 0-2.9-.3-5.7-.6-8.6-.9-1.2-.1-2.5-.2-4-.3-1.2.4-1.3 1.8-1.6 2.9-1.5 6.1-3.6 11.9-6.5 17.4-1.7 3.3-3.5 6.7-5.1 10-.5 1.1-.9 2.2-1.4 3.5zm-76.1-13.5c1.7-.1 3.1-.8 4.2-2.1.3-.4.6-.7 1-1 3.7-2.3 7.2-4.7 11-6.6 2.8-1.5 5.9-2.4 9-3.4 5.5-1.7 11-3.2 16.6-4.7 3.4-.9 6.9-1.8 10.4-2.6 2.1-.5 4.3-.7 6.4-1.1 2.6-.5 5.2-1.1 7.8-1.6 2.1-.4 4.1-.7 6.2-1 2.5-.3 4.9-.7 7.4-.8 2.5-.1 5 0 7.5.4 2.6.4 5.3.3 8 .6 3.7.4 7.5.9 11.2.9.2 0 .5 0 .7.1 1.9.3 3.9.6 5.8.9 1.4.2 2.8.4 4.2.5 2.8.1 5.6.6 8.3 1.2 2.9.7 5.7 1.4 8.6 2.2 1.3.4 2.7.9 3.9 1.5 1.4.7 2.8 1.5 4 2.1 1.1-.3 1.8-1.2 3-.6.2.6.4 1.3.8 1.8.5.6 1.2 1 1.8 1.5.2.2.4.5.5.7 1.7 2.2 2.8 4.6 3.5 7.4.9-.7 1-1.6 1-2.6 0-1.3-.1-2.5 0-3.8.3-2.8-1.3-4.4-3.3-5.8-1-.7-2-1.2-2.9-2-3-2.5-6.5-4.3-10-6.2-2.3-1.3-4.7-2.2-7.2-2.8-1.1-.3-2.1-.6-3.1-.9-3.7-1.3-7.5-2.1-11.4-2.4-3-.3-6.1-.3-9.2-.4-1.8-.1-3.6.1-5.4-.1-3-.2-6.1-.6-9.1-.9-1.6-.2-3.1-.6-4.7-.5-5.3.2-10.5-.5-15.8.4-2.8.5-5.8.5-8.6 1-4.1.7-8.2 1.8-12.3 2.5-2.8.5-5.5 1.6-8.5 1.7-1.2 0-2.5.2-3.7.5-3.6 1-7.2 1.8-10.8 2.8-5.9 1.6-11.8 3.3-17.5 5.6-3.1 1.2-5.9 2.8-8.2 5.3-3.3 3.7-4.1 9.1-1.1 12.3zM269.1 228c1.6 1.2 3 2.3 4.4 3.3 3.6 2.6 6.9 5.5 9.9 8.7 3.8 4 7.3 8.3 11.4 12 .4.3.8.7 1.3 1.1.2-.4.5-.7.5-1 .1-3.8.5-7.7-.2-11.5-.3-1.8-.6-3.7-.6-5.6-.1-5.6 0-11.2 0-16.8 0-.8.3-1.7-.4-2.5-1.5.4-3.1.8-4.7 1.2-.1-.4-.2-.6-.2-.8.3-7.4-.5-14.8.5-22.2.4-2.8.5-5.6.9-8.4.2-2 1.2-3.1 2.8-3.9.6-.3 1.3-.6 2-1 1.7 1.2 3.5 2.3 5.3 3.5 2.2-4.3 3.4-8.8 4.4-13.6-.7.1-1.2.1-1.7.2-.7.2-1.3.6-2 .6-2 0-3.7 1.2-5.6 1.5-.3.1-.6.3-.8.5-1.8 2-3.5 4-5.3 6-1.1 1.2-2.2 2.5-3.4 3.6-2.8 2.6-5.7 5.2-8.6 7.7-1.6 1.5-3.4 2.8-5 4.3-.6.5-1.1 1-1.8 1.7.4.3.7.5.9.7 2.9 2 5.8 3.9 8.7 6 3 2.1 5.3 4.8 7.6 7.8-.5.7-.9 1.4-1.4 1.9-1.3 1.2-2.5 2.3-3.9 3.4l-11.7 9c-1 .7-2 1.6-3.3 2.6zm113.8 151.5c.7-.8.4-1.7.5-2.4.2-1.2-.5-1.9-1.6-2.3-3.4-1.2-6.5-3.5-10.3-3.7-4.8-1.8-9.9-2.1-14.8-3.1-3.4-.8-6.9-1.1-10.4-1.4-3-.3-5.9-.5-8.9-.5-5.1.1-10.2-.1-15.3.3-5.7.5-11.5.4-17.2.6-1.8.1-3.7.1-5.3.6-2.7.8-5.4.9-8.1.8-2.3 0-4.5.4-6.7 1.1-.7.2-1.3.5-2 .1-.4-.2-.9-.1-1.4-.2-2.1-.2-4 .5-6 .9-5.3 1.2-10.5 2.9-15.3 5.5-2.2 1.2-4.5 2.2-6.7 3.3-.8.4-1.7.8-2.5 1.3l-6.3 4.8c-.2 3.2.6 7 1.6 8.3.6-.4 1.2-.7 1.7-1.2 5.3-4.8 11.9-7.5 18.4-10.1 3.7-1.5 7.7-2.6 11.5-3.7 3-.9 6-1.6 9.2-1.5 1.5 0 3.1-.3 4.7-.5.4-.1.8-.5 1.2-.7-.1-2.1-.1-3.9 1.6-5.5 1.5-1.5 3.1-2.4 4.9-1.7 2.2 1.3 2.4 3.4 3.2 5.3 2.9-1.6 5.9-1.9 8.9-2 .5 0 1 0 1.4-.1 3.2-.7 6.5-1 9.8-.9 4.8.1 9.6-.2 14.4.4 2.9.3 5.7.6 8.5 1.3.5.1 1.1.2 1.6.2 2.4 0 4.8.4 7.1 1.2.9.3 1.8.6 2.7.6 1.5.1 2.8.7 4.2 1.3 1.6.8 3.4 1.7 5.4.9.1-.9.1-1.7.2-2.4 1.3-1.7 2.7-2.8 4.9-2.6 2.2.2 3.6 1.4 3.8 3.6.1 2.3.2 2.4 2.4 3 .3.1.7 0 .9.1 1.4 1 3.1-.5 4.1 1zm4-57.4c.7-.1 1.3-.2 1.9-.4 1.9-.5 3.8-1 5-2.8.7-1.1 1.5-2.2 2.4-3.2 2.9-2.8 5.8-5.5 8.7-8.2.4-.4.9-.7 1.4-.9 2-.9 3.2-2.6 4.5-4.3.2-.3.5-.6.7-.9 3.1-3.3 6.2-6.5 9.3-9.8.5-.5.9-1 1.2-1.4-1.3-1.3-2.3-2.6-3.5-3.7-2.7-2.6-5.3-5.4-8.2-7.8-4.6-3.8-9.5-7.2-13.7-11.5-.3-.3-.7-.5-1.2-.7-.7 2.8-1.5 5.4-2.1 8-1 3.8-1.6 7.6-2 11.5-.3 2.9-.6 5.9-1.1 8.8-.4 2.7-1.6 5.2-.8 8 .1.3 0 .6 0 .9 0 .5.1 1 .2 1.7 4.3-2.6 8.4-5 12.5-7.4 1-.6 2.1-.9 3.2-1.3.7-.2 1.2 0 1.7.5 1.1 1.4 1.2 3.7 0 5-.9 1-2 2-3.1 2.9-2.7 2.2-5.7 3.9-8.7 5.5-1.5.8-3.2 1.4-3.8 3.1-2.9.6-6 2.5-8.6 5.3 1.3 1 2.6 2 4.1 3.1zm-71.7-165.2c-.6 3.3-1.2 6.7-3 9.4.8 1 1.4 1.8 2.1 2.6 1.8 2.2 3.4 4.5 5.4 6.5 5.4 5.5 10.7 11.1 15.4 17.3 1 1.3 1.3 1.4 3 .9 5-1.6 9.7-3.8 14.5-6 3.2-1.5 6.4-2.9 9.6-4.4 1.3-.6 2.6-1.4 3.7-2 .2-3.2.4-6 .6-9.1-1.1.8-1.8 1.5-2.7 1.9-3.4 1.7-6.8 3.2-10.7 2.8-2.7-.3-5.5-.2-8.2-.6-1.4-.2-2.8-.4-4-1.3-1.9-1.4-3.7-2.9-5.5-4.3-1.8-1.5-3.5-3.2-5.6-4.3-5-3.1-9.8-6.2-14.6-9.4zm76.2 335.8c-1.2 1.4-2.2 2.7-3.4 3.6-3.6 2.9-7.4 5.5-11.6 7.5-3.8 1.8-7.6 3.5-11.5 5.2-3.1 1.3-6.3 2.8-9.6 3.7-6 1.8-12.2 3.2-18.2 4.8-1.5.4-3.1.7-4.4 1.3-1.4.7-2.5 1.8-3.8 2.7.8 1.7 1.5 3.4 2.3 5.1.6 0 1 .1 1.4.1 1.7-.1 3.4-.4 5.1-.4 3 0 5.9-.6 8.8-1.2 3.1-.7 6.3-1.2 9.4-1.6 1.9-.2 3.9-.4 5.7-1 2.4-.8 4.7-1.6 7-2.4 4.8-1.7 9.6-3.2 14.1-5.5 3.9-2 7.6-4.1 10.5-7.4 1.9-2.1 3.1-4.4 2.1-7.4-.9-2.6-1.9-5-3.9-7.1zm-10.4-162c-1.2.6-2.3 1.1-3.3 1.7a6.5 6.5 0 01-4.3.9c-2.3-.3-4.6-.8-6.9-1.2-1.5-.3-2.9-.2-4.2.7-1.6 1.2-3.2 2.3-4.8 3.4-.2.1-.2.4-.3.7 1.7.7 3.5.6 5.2 1 1.9.4 3.7.3 5.6.3 1.8.1 3.6.1 5.4 0 1.8-.2 3.6-.6 5.7-.9-.3.7-.3 1.1-.5 1.4-1.4 1.7-3.6 2-5.5 2.1-5.4.3-10.8.3-16.1-.7-.9 3-.2 4.5 2.7 6 3.3 1.8 6.7 2.9 10.6 2.6 1.8-.1 3.6 0 5.6 0-.7 1.6-1.6 2.5-3 2.6-4.1.1-8.2.5-12.1-1.1-.7-.3-1.3-.4-2.2.3.3.5.5 1.1.8 1.5 2.5 2.8 5.6 4.2 9.3 4.3 2 .1 4.1.1 6.2 0 .9 0 1.9-.2 2.7-.6 3.7-1.9 6.9-4.2 8.7-8.2.8-1.9 1.7-3.7 1.6-5.8-.1-1.1-.1-2.2.1-3.2.8-3.4.3-6.7-.3-10-.2-.9-.5-1.8-1.5-2.2-.5-.2-.8-.7-1.1-1.2-1.3-1.9-3.3-2.5-5.2-3.4-.2-.1-.6.1-.9.1-2.2.3-4.3.7-6.5.7-3.5.1-6.9.1-10.4.1-1.6 0-3.3 0-4.9-.4-1.1-.3-2.3-.4-3.4.2 0 1.7.1 2.1 1.7 2.7 2.1.8 4.3 1.4 6.5 2 2.9.7 5.8 1.3 8.7 1.9 1.9.4 3.8.7 5.8.9.5.1 1.1-.1 1.6-.3.8-.3 1.5-.7 2.5-1.2-.1.7.1 1.5.4 2.3zm-3.9 27.4c-2.3 1-4.6.8-6.8.8-1.3 0-2.7.1-4 0-3.8-.2-6.9-1.8-9.5-4.6-1-1.1-1.2-2.5-.5-3.9.3-.5.6-1.1.9-1.6-1.5-1-2.8-2.2-3.1-4-.3-1.7-.3-3.5.7-5.1-.5-.6-.9-.8-1.5-.4-1.3.9-2.9 1.7-4.1 2.8-3.1 2.8-6.1 5.7-9.6 7.9-.3.2-.6.5-.9.7-4 3.5-8 7-12 10.6-.2.2-.4.5-.7 1.1h1.5c6.1.2 12.3-.2 18.4.3 4.8.4 9.6.9 14.4 1.6 3.3.5 6.6 1.2 9.9 1.8l7.5 1.2c.4-3-.2-5.9-.6-9.2zM111.3 168.2c2.5-.4 12.2-6.6 15-9.5-.5-1.1-1.2-2.2-1.6-3.3-1.5-3.9-1.9-7.7.8-11.3 1.2-1.7 2.2-3.6 3.2-5.5 1.2-2.2 1.3-3.9-.9-6.1-1.7-1.7-3.4-3.5-5.6-4.7-2.3-1.3-4.6-2.7-6.7-4.7v.7c0 .2.1.3.1.5-.1 2.3.9 4 2.5 5.6 1.3 1.3 2.9 2.2 4.4 3.1.9.5 1.8 1.1 2.7 1.7-1.3 1.9-2.8 2.4-4.5 1.4-2.2-1.2-4.5-2.3-6.3-4.1-.2-.2-.6-.4-.9-.5-.4 1.1-.8 2-1.2 2.8 2.1 1.3 4.2 2.4 6.1 3.7 2.6 1.8 2.5 3.8-.2 5.5-.8.5-1.7.8-2.6 1.3 1.5.8 2.6 1.8 2.6 3.4-.9 2.5-3 3.1-5.2 3.3-3.1.3-6-.4-8.9-1.5-.3-.1-.7-.1-1.1-.2 0 .4 0 .7.1.9.5 1.3 1.5 2.2 2.6 2.9 1.2.8 2 1.7 2.1 3.2.1.9.1 1.7.4 2.5 1 2.9 2.1 5.9 3.1 8.9zm30.9 130.2c.6.2 1 .5 1.5.6 1.2.4 2.4.6 3.6 1.1 1.2.5 2.4 1.1 3.6 1.7 3.5 1.8 7.1 2.9 11 2.5.7-.1 1.4-.1 1.8-.9-.9-1.4-2.4-2-3.8-2.7-3.6-1.7-7.2-3.3-10.8-5-3.5-1.7-7-3.5-10.5-5.1-3.6-1.7-7.3-2.8-11.3-2.7-.7 0-1.4-.2-2.1-.2-.9-.1-1.9-.1-2.8-.1-1.6.1-3.3.2-4.9.3-2.1.2-4.3.4-6.3 1.2 0 .3 0 .5.1.6 2.4 2.9 5.2 5.4 9 6.5 2 .6 4 1.2 6 2 1.1.5 1.9.4 2.7-.5 2.9-3.2 6.7-3.8 10.8-3.4 1.7.2 2.5 1 2.7 2.7-.2.4-.3.8-.3 1.4zm250.1 45.3c2.2.4 2.2.3 3.7-.4 2.6-1.1 5.1-2.3 7.7-3.4 1-.5 2.1-.8 3.3-1.3-.6-2.1-1.2-4-1.8-6-1.3-4.2-2.7-8.3-4.7-12.1-.4-.7-.6-1.6-1.6-2-3.1 1.5-6.2 3.1-9.4 4.7.2.6.4 1.1.6 1.6.9 2.5 1.9 4.9 2.8 7.4.4 1.2.7 2.4.7 3.6.1 2 0 4.1 0 6-.5.8-.9 1.3-1.3 1.9zm-60.7-147.9c-1.2-1.6-2.2-3.1-3.4-4.4-4-4.4-8.1-8.8-12.1-13.2-.7-.8-1.4-1.7-2.2-2.5-1.1-1.2-2.1-2.5-3.1-3.6-1.2.3-1.8.8-2 1.9-.1 1-.6 1.9-.8 2.9-.1.4 0 .9.1 1.3 1.3 3.3 2.5 6.7 3.9 10 .2.5.6 1.1 1.1 1.4 3.2 1.4 5.5 3.8 8 6 1.5 1.3 3.2 1.9 5 2.5.5.1 1.1 0 1.6-.2 1.3-.6 2.4-1.3 3.9-2.1zM143.9 340.3c0-1.9-.1-3.8 0-5.8.1-1.2-.2-1.8-1.2-2.1-1.3-.4-2.5-.8-3.8-1.1-3.4-1-6.7-2-10.1-2.9-1.5-.4-1.8-.1-2.3 1.4-.7 2.6-.4 5.2-.4 7.7 0 .6.3 1.3.7 1.7.8.8 1.7 1.4 2.6 1.9 1.8 1 3.9 1.1 5.9 1.3 3.1.4 6 .1 8.6-2.1zm192.6-301c-1.7.4-3.1.7-4.4 1-3.7 1-7.4 2-10.8 3.8-1.3.7-2.6 1.5-3.6 2.6-.9 1.1-1.8 1.8-3.2 2.2-.6.2-1.3.6-1.8 1-1.8 1.9-3.5 3.8-5.3 5.7-.5.5-.7 1.1-.2 1.7h.2c.2-.1.4-.3.6-.4 2.8-2.5 5.8-4.8 9.5-5.8 1.2-.3 2.3-.3 3.2.1 1.2-.7 2.3-1.3 3.4-1.9l3-1.8c1.1-.6 2.2-1.2 3.2-1.9.9-.7 2.4-.5 3.1-1.8-1.3.1-2.4.1-3.4.2s-2 1-3.1-.1c1-.4 1.9-.9 2.9-1.1 2.3-.6 4.6-1 6.9-.9 1 0 2.1.1 3.1 0 .9-.1 1.1-.7.6-1.6-1.5.6-3 .7-3.9-1zm-240.1 93c-2.2.9-2.8 1.8-2.4 3.3.9 3 2.3 5.9 4.8 7.9 2.6 2.1 5.3 3.9 8.4 5.1 2 .8 4.1 1.5 6.4 1.2.5 0 1.2-.4 1.3-.8.1-.5-.1-1.2-.3-1.7-.1-.3-.6-.5-.9-.7-1.4-.7-2.7-1.5-4.2-2-2.1-.7-4-2.2-5.9-3.4-2.2-1.3-3.8-3.2-5-5.5-.7-1-1.4-2.1-2.2-3.4zM371 400.6c.5-.8.8-1.3.9-1.8.4-1.7.8-3.5.9-5.3.1-2.6.2-5.3-.3-8-.4-2.4-.4-4.8-.5-7.2-.1-1-.3-1.9-1.3-2.4-.2.3-.3.4-.3.5.4 1.6-.1 2.8-1.4 3.8-.3.2-.7.5-.8.8-.6 2.3-1.2 4.6-1.6 7-.2 1.8-.1 3.6 0 5.4 0 .5 0 1 .2 1.4 1 2.2 2.3 4 4.2 5.8zM100.4 125c-2.1 1.5-2.3 2.1-1.7 4 .3.8.6 1.6 1 2.4 2.3 5.2 6.1 9 11.2 11.5 2.4 1.2 4.9.5 6.3-1.5-1.1-1.6-1.1-1.6-2.8-2.8-2-1.4-4-2.5-6.7-2.1-2 .3-2.9-.6-3.7-2.5-1.1-3-2.3-5.9-3.6-9zm29.5 221v4.9c0 1.7 0 3.4.1 5.6 3.2-1 6.3-1.2 9.2-2.3-.4-2.8-.8-5.4-1.3-8.2h-8zm-10.7-20.7c-2.2 3-3.9 6.1-5.4 9.4-.6 1.3-.6 2.5-.3 3.9 1.3.2 2.5.4 3.7.5 1.3-1.9 2.5-3.8 3.8-5.7 1.4-1.9 2.4-3.9 2.6-6.5-1.4-.5-2.8-1-4.4-1.6zm211.4 213.2c.5-2.6-.4-4.6-1.7-6.4-1.7-2.5-2.6-5.3-3.3-8.2-.1-.4-.5-.8-.7-1.1h-2.4c-1 1.9-.9 1.9-.4 3.8.5 2 1.4 3.7 1.7 5.8.3 2.1 1.2 4.1 1.8 6.1h5zm8.8-190.4c-3.4 1-19.5 11-22.8 13.8-.2.2-.3.5-.6.9h6.7c5.5-4.8 11.1-9.8 16.7-14.7zm-36.3 45c-.7-4.8-3.5-15-4.6-16.6-1 1-1.5 2-1.5 3.5.1 2.7 0 5.3 0 8 0 .6 0 1.3.2 1.9.6 2.3 2.6 3.4 5.9 3.2zm27.2-340.7c-3.3-.6-5.8-.1-8.2 1.3-4 2.5-7.7 5.4-11.1 8.7-1.5 1.4-2.6 3-4 4.6 2.5.9 3.9-.1 5.3-1.7 4.5-5.4 9.7-9.7 16.5-12 .3-.2.6-.4 1.5-.9zm-85.9 347.9c-.6.1-.8.2-1 .2h-.7c-1 .1-1.7.7-1.4 1.4.9 2-.1 3.9-.4 5.7-.6 3.7.4 5.8 4.2 7.7V403c0-.9-.4-1.7-.7-2.7zM108.5 132.2c.8-1 .9-2.1.7-3.3-.1-1-.3-2-.4-3-.1-1.1 0-2.2-.3-3.3-.3-1.5-.3-2.9.3-4.5-1-.7-2-1.4-2.9-2.2-2 1.8-1.8 3.8-1.3 6 1 3.6 2.2 7 3.9 10.3zm14.1 185.2c-.4 1.2-.8 2.6-1.3 4 1.6.6 2.9 1.2 4.3 1.6s2 .2 2.7-1.1c.7-1.4 1.2-2.8 1.8-4.1-1.5-1.1-2.5.4-3.8.5-.9-1-2.1-1.3-3.7-.9zM346.7 60c-1.9-2.3-6.1-3.6-8.6-3-3.4.9-5.9 3-8.5 5.4.6.3 1.1.6 1.6.9 4.6-3.3 9.4-4.8 15.5-3.3zm-57.5 43.3c1.4-2.7 2.6-5 3.8-7.4-.8-.1-1.3-.2-1.8-.3.7-1.2 1.3-2.2 2-3.5-1.2-.1-2.1-.2-3.2-.3.3-2.6.6-5.1 1-7.9-1 1.3-1.3 2.4-1.5 3.6s-.1 2.5-.6 3.7c-.6 1.4-.2 2.4.5 3.5.6.9.6 1.9.5 2.9-.2 1.3-.6 2.6-.8 3.9-.1.3 0 .8.1 1.8zm57.1 227c1.3 1.3 2.9 2.2 4.7 2.8.5.1 1.2 0 1.6-.2 1.2-.9 2.3-1.8 3.5-2.8-2.8-1.9-5.5-1.3-8.3-.9-.7 0-1.3.2-1.5 1.1zm23.4-17.8c-3 1.1-3.5 4.1-5.7 6.3 2.6.1 4.8.3 6.9-.1.4-3.5.3-4.4-1.2-6.2zM325.2 60.7c.9-.5 1.8-.9 2.6-1.4 1.7-1 3.3-2 5-3.1.7-.5 1.4-1.1.6-2.1-3.5.5-6.4 2-8.7 4.7.1.6.3 1.2.5 1.9zM303 78.1c-1 .6-2.2.9-2.9 1.7-1.9 1.9-3.6 4-4.6 6.5-.1.3-.1.6-.2 1.2 1.7-1.8 3.1-3.4 4.6-4.8 1.6-1.4 3.5-2.4 5.8-3.5-1.1-.5-1.8-.8-2.7-1.1zm3.3-8.6c1.7 2.1 4.2 2.5 6.1 1 1-.8 1.9-1.8 2.9-2.7v-1.7c0-.1-.1-.3-.2-.4-5 3.7-4.5 2.7-8.8 3.8zm-5.7-9.6c1.7-1.9 3.4-3.7 5.1-5.5-.5-.2-.9-.4-1.4-.5.8-1.9 2.7-3.1 3-5.1-2 2-4.2 3.9-5.8 6.3-.3.4-.5.8-.6 1.3.1 1-1 2.1-.3 3.5zm-167.2 243c1.7-1.3 3.2-2.6 4.2-4.5-1.3-1.1-2.6-.4-4-.6-.2.3-.4.6-.7.9s-.8.6-.9.7c-.1 2.1-.1 2.1 1.4 3.5zm160.7-188.7c1.7-1.7 3.3-2.4 5.3-2.1.4-.9.7-1.7 1.1-2.9-.9.3-1.3.5-1.7.5-.4.1-.9 0-1.3 0-.2-.4-.3-.8-.5-1.2l-2.7 1.2c-.1 1.5-.1 2.7-.2 4.5zm87.4-40.7c.1-5.1-1.8-9-6.5-11.4.2 1.2.3 2 .4 2.9.6-.1.9-.1 1.2-.1.3.6.5 1.4.8 1.5 1.5.2 1.7 1.4 2.1 2.5.6 1.5 1.3 3 2 4.6zm13.4 396.1c-.1 0-.2 0-.3-.1 0 .7-.1 1.4 0 2.1.2 2 .2 3.9-1.6 5.4.8.6 1.4 1.1 2 1.5s1.2.8 2.3 1.5c-.9-3.8-1.6-7.1-2.4-10.4zM100.8 148.4c-2.5-1.9-4.8-3.7-7.1-5.5 0 0-.1.2-.2.3 0 .1-.1.3 0 .5 1.1 2.5 2.8 4.5 5.3 5.6 1 .3 1.5-.1 2-.9zm212.6-73.8c2.7-2.4 4.2-4.6 4.5-6.9-2.3 2.3-4.5 4.4-7.5 5.8 1 .3 2 .7 3 1.1zm27.8-18.8c.1-.6.2-1.3-.4-1.8-.8-.7-1.6-1.3-2.3-1-1.5 1.6-2.8 2.8-4 4.1.1.1.1.2.2.3 2.1-.5 4.2-1 6.5-1.6zm9.6-9c1.1-1.1 2-2.1 3-2.9 1-.8 2.2-1.4 3.6-2.3-3.2-1.2-4.8 1.5-7.2 1.8.2 1.1.4 2.1.6 3.4zm-25.2-5.9c1.3-.5 2.6-.9 3.8-1.3 1.2-.4 2.7-.2 4-1.6-3.1-.4-5.7-.1-8.1 1.6.1.5.2.8.3 1.3zm48.7 19.2c.3 1.4.4 1.5 1.4 1 1.3-.7 2.6-1.1 4-.5 0 0 .2-.2.3-.4-1.1-1.4-1.3-3.5-3-4.8-.6 1.5 1.3 1.9.9 3-1.1 1.1-1.1 1.1-3.6 1.7zm-48.7 143.8c-3.2-.7-5.6 1.2-8.2 2.3 2.7-.3 5.4-.6 8.2-1v-1.3zM316.2 53c-3.2 1.8-6.4 4.8-7.4 6.8 2.1-1 5.7-4.2 7.4-6.8zM105.4 161.1c-.9 1-1.5 1.7-2.3 2.6 1.5.3 2.2.9 2.5 2.1.1.5.6 1.1 1.6.9-.5-1.7-1.1-3.4-1.8-5.6zm199.2 24.4c1.1.6 1.9 1.6 3.3 1.8.3-2-1.8-2.6-2-4.4l-1.3 2.6zm40.6-149.4c-2.1-2.3-5.2-3-9.1-1.9 3.5.2 6.4.5 9.1 1.9zm-55.9 74.5c.8 1.5 1.3 2.7 2.6 3.8.1-1.3.2-2.3.3-3.5-.8 0-1.6-.1-2.9-.3zm6.9-11.8c-.2-.1-.3-.2-.5-.3-1.9 1.2-2.4 3.2-2.6 5.3.6-.4 1.2-.9 1.2-1.4.1-.8.5-1.4 1-2 .4-.5.6-1.1.9-1.6zM363 58.1c1 1.5 2.6 1.9 4.6 2.6-1.2-2-2.8-2.5-4.6-2.6zm-62 35.4l-.4-.4c-1.3 1.2-2.6 2.5-4.2 4 .7.1 1.2.3 1.3.2 1.2-1.3 2.2-2.6 3.3-3.8zm23.4-25.7c1-.4 1.7-1.1 2.4-1.8s2.1-.8 1.8-2.4c-1.5 1.5-3.5 2-4.2 4.2zM295.9 106c-1.6-.9-1.7-.8-3.2.5.3.4.7.9 1.1 1.5.8-.8 1.4-1.3 2.1-2zm2.9-27.8c-2 .2-3.5.6-4.5 2.5 1.8-.3 3.3-.8 4.5-2.5zM343 55.8c0 .2 0 .3.1.5.9.2 1.8.4 2.8.7.2-1.1-.1-1.6-.9-2-.7.3-1.3.5-2 .8zm17 166.9c-1.7 1.2-1.9 1.4-1.9 2.1.3.2.8.5 1.2.8 1.1-.9 1-1.8.7-2.9zm48.1 121.1c.4-1.5-.4-2.3-.9-3.5-.6.3-1.2.5-1.7.8-.1 0-.1.2-.1.4.5.1 1.1.2 1.5.3.4.7.8 1.3 1.2 2zm-67.6-293c-2.2-1.4-2.8-1.4-4 0h4zm-45.2 52.8c2.6-1.8 2.6-1.8 2.7-3.5-.7 1.2-2.2 1.9-2.7 3.5zm3.8 5.2c1.3-.8 2.6-1.7 3.1-3.4-1.3 1-2.6 1.8-3.1 3.4zm70.7-44.6c-.7-1.3-1.2-2.1-1.8-3.2-.4.7-.6 1.1-.8 1.4.7.8 1.1 1.6 2.6 1.8zm-68.9 134.4c-.3 1.9.1 2.2 2 2.6-.7-1-1.4-1.8-2-2.6zm-8-129.5c-.1 0-.3-.1-.4-.1-.1 1.3-.2 2.6-.4 4.1 1.4-1.3.7-2.7.8-4zm26.9-16.2c1.1 0 1.1 0 2.2-1-1.4-.2-1.4-.2-2.2 1zm35.5 152.2c-.1-.2-.2-.4-.3-.5-.3.2-.7.4-1 .7l.2.3c.4-.1.7-.3 1.1-.5zM308.5 79.4c-.6-.4-1.1-.5-1.4.2 0 .1 0 .3.1.4.6.5.9.1 1.3-.6zM138.2 303.9c0-.8-.1-1.1-.1-1.7-.5.3-.7.5-1.1.7.3.3.5.5 1.2 1zM350.4 52.4c.3-.7.4-1.1.7-1.7-1.1.3-1.1.7-.7 1.7zm-26.6 18.2c-.2-.1-.3-.2-.5-.4l-.6 1.2c.1.1.2.1.3.2.3-.3.5-.7.8-1zm-221.7 96.1c-.1-.1-.1-.3-.2-.4-.3.1-.6.1-.8.2-.2.1-.3.4-.4.6.1.1.2.1.3.2.4-.2.8-.4 1.1-.6zm195.7 207.9c.1 0 .2-.1.3-.1 0-.3 0-.6-.1-.8-.2-.2-.5-.3-.7-.5-.1.1-.1.2-.2.3.2.4.5.8.7 1.1zm41.9-171c-.1-.1-.2-.3-.4-.4-.3.3-.6.5-.9.8l.3.3c.3-.3.6-.5 1-.7zm-38.8-80.1h.5c0-.3-.1-.7-.1-1h-.3c0 .4 0 .7-.1 1zm30.9 75.7c-.2-.3-.2-.4-.3-.5-.2.2-.4.3-.7.5.1.1.2.3.2.3.3-.1.5-.2.8-.3zm-29.2-53.9c-.2-.3-.3-.4-.5-.6l-.6.6.2.3c.3-.1.5-.2.9-.3zm-9.3-78.2h-.3c0 .3 0 .6.1 1h.3c-.1-.4-.1-.7-.1-1zm57.3 135.7c-.1.1-.2.2-.2.3.1.1.3.2.4.1.1 0 .2-.2.2-.2-.1-.1-.3-.1-.4-.2zm-7.3 138.3l-.1.1h.1v-.1zm17.6-283.4l-.1-.1v.2l.1-.1zm-50.6 93.2c0-.1-.1-.1-.1-.2-.1 0-.1.1-.2.1l.2.2c.1 0 .1 0 .1-.1zm74.8-45.9l-.1-.1v.1h.1zm-56.3-36.4c0-.1-.1-.1-.1-.1-.1 0-.1.1-.2.1l.2.2c0-.2.1-.2.1-.2zm-27.2-4.7l.1-.1-.1.1zm46.9-.9l.1-.1h-.2l.1.1z"/><path class="st0" d="M469.2 416.7c-2.6-1.1-2.8-1.5-2.3-3.8.2-.7.2-1.4.3-2.1.1-.6.1-1.2.2-2-1.5-1-3.9-.8-4.9-2.9-.9-1.8-2.1-3.5-1.7-5.8h-1.6c-3.1 0-6.2-.4-9.3-.8-2-.3-4.1-.6-6.1-.5-3.6.1-7.2-.6-10.7-1.1-2-.3-4-.7-6-.9-3.1-.4-6.2-1.3-9.4-1.9-5-1-9.7-2.6-14.5-4.2-1.3-.4-2.7-.8-3.4-2.3-1.7 0-3.4-.1-5 0-1.8.2-3.3-.2-4.6-1.7.1-1.3 1.2-2 1.7-2.6 3.8-.8 7.1-1.4 10.5-2.1 4.5-1.1 9-2.3 13.6-3.3 2.4-.5 5-.6 7.4-1.1 5.4-1.2 10.8-.9 16.2-1 .8 0 1.7-.2 2.5-.5 6.1-2.4 12.1-5 17.7-8.6 1.1-.7 1.9-1.5 2.4-2.7.3-.6.6-1.3 1.1-1.8.9-1.1 1.9-2 3.5-2.1 1.2 0 1.5-.4 1.6-1.6.1-.6.1-1.3 0-1.9-.4-2.5 1.7-4.6 3.7-5.1 2.1-.5 4.3-.8 6.4.6.7 3.2-.8 6.2-.7 9.3 1.5.9 3 1.5 4.3 2.5 2.3 1.7 4.6 3.4 6.7 5.4 1 .9 1.5 2.3 2.2 3.6.5.9 1 1.9 1.5 2.9 2.1-.3 4-.7 5.9-.8 1.5-.1 3 .1 4.4.3 2.1.2 4.2.4 6.3.7 3.3.4 6.6.9 10 1.3 1.9.2 3.7.4 5.6.6 2.4.3 4.8.6 7.2.8.8.1 1.6.1 2.4.1 5.2.2 10.2 1.2 15 3.1.3.1.5.3.8.4-.7 2.5-1.6 3.3-3.9 3.3h-12.1c-.8 0-1.6.1-2.2.4-4.5 1.9-8.9 3.8-13.3 5.8-1.3.6-2.5 1.3-3.8 1.9-4.6 1.9-9.2 3.3-14.2 3.8-2.7.3-5.4 1-8.1 1.3-2.5.3-5 .4-7.6.7-1 3-3.2 4.9-5.7 6.6-.5 1.6.3 3.4-.7 4.8-.9 1.3-1.8 2.6-2.4 3.6 0 2.6.1 5 0 7.3-.1 2.8-.4 5.6-.4 8.5-.1 3.5-.5 6.9-.9 10.3-.3 2.5-.4 5-.5 7.5-1 21.8-.1 43.7-.5 65.5 0 2.4-.6 4.8-.8 7.2-.1 1.2 0 2.5 0 4.1.6.2 1.3.4 2 .7.9.4 1.9.7 2.8 1.2.5.3 1.1.9 1.1 1.4.1 1.5.2 3.2-.3 4.6-.9 2.6-2.5 4.9-4.9 6.4-.9.5-1.3 1.3-1.3 2.3.1 4.6 0 9.2.1 13.7 0 1.6.3 3.2.5 5h-5.9c-.1-.6-.3-1.1-.1-1.5.6-1.4.4-2.8.4-4.2V541c-1.6-.3-3.1-.5-4.6-.8-2.6-.5-3.1-.9-3.7-3.7-.6 0-1.3-.1-2-.1l-1.8-.3c-1.7-.4-3.1-1.3-3.4-3.1-.3-2 .7-3.5 2-4.8 1.6-1.5 3.6-1.2 5.6-.9.7.1 1.3.4 1.7.5 1.6-.9 2.9-1.7 4.6-2.7.2-1.1.4-2.5.6-4 .2-3 .2-6.1.6-9.1.6-4.8.1-9.6.5-14.4.4-4.4.1-8.8.4-13.2.8-9.2.1-18.4.5-27.6.2-4.7 0-9.5.5-14.1.7-8.7-.2-17.3.3-26zm53.8-29.3c-1.7-.3-3.4.1-5.1.3-3.2.4-6.4.5-9.6.5-10.2-.1-20.5-.3-30.7-.4-.4 0-.8 0-1.2-.1-5-.8-10.1-.4-15.1-.2-3.7.1-7.3.6-11 .8-2 .1-4.1-.3-6.1-.3-2.6-.1-5.2 0-7.8.3-4.1.4-8.2.4-12.2.5h-3.8c-.9.1-1.9.3-2.8.4s-1.9.1-2.8.2c2.4.9 4.8 1.4 7.2 2 2.5.6 4.9 1.4 7.6 1.4 1.3 0 2.6.3 3.9.6 3.4.7 6.7 1.4 10.2 1.3 2.2 0 4.4.1 6.6.5 3.2.6 6.3.9 9.6.9 3.5-.1 6.9 0 10.4 0 .6 0 1.3 0 1.9.1 3.5.5 7 .7 10.5 0 .7-.1 1.6-.2 2.3.1 1.5.5 2.9.3 4.4.2.9-.1 1.7-.2 2.5-.3 1.6-.2 3.3-.3 4.9-.6 2.5-.4 5-1 7.6-1.3 4.3-.6 8.3-1.8 12.2-3.7 2-.9 4-1.7 6-2.6.2-.1.2-.4.4-.6 0-.2.1-.3.2-.4-.1.2-.2.3-.2.4zm3-4.2c0-.1 0-.3.1-.4-1.8-.2-3.7-.5-5.5-.7-3.1-.3-6.2-.6-9.3-1-1.4-.2-2.8-.3-4.2-.6-2.5-.4-5.1-.9-7.7-.8H494c-.7 0-1.4.1-2.1.2-2.3.5-3.2.1-4.2-1.9l-.6-1.5c-.8-2-2-3.7-4-4.8-.9-.5-1.8-1.3-2.6-1.9-5.7 0-11.4.1-17.1 0-2.1-.1-3.8.4-5.5 1.5-3.5 2.3-7.2 4.1-11 5.7-1.1.4-1.9 1.3-2.9 1.9-.8.5-1.6 1.1-2.5 1.2-1.4.1-2.8.3-4.3.2-4.5-.3-9-.3-13.4.4-3.7.6-7.4 1.2-11 1.9-2.3.4-4.5 1-7 1.6 1.4 1 2.7 1 3.9 1 5.8-.2 11.6.3 17.5-.4 4.1-.5 8.3-.2 12.5-.4 7.8-.5 15.6-.1 23.4-.5 8.9-.4 17.8-.1 26.7-.1.6 0 1.3-.1 1.9 0 4.3.6 8.6.9 12.9.9h7.1c.6 0 1.1 0 1.7-.1 2.6-.3 5.1-.6 7.7-.8 1.5-.2 3.2-.4 4.9-.6zm-53 153.5c.1.1.3.2.4.3.6-.9 1.3-1.7 1.7-2.7.6-1.7-.1-3.4-1.7-3.9-1.8-.6-3.7-.9-5.5-.6-1 .1-1.9.3-3 .5.1.7.3 1.5.4 2.4-.8.8-1.7 1.6-2.7 2.5 1.6 1.2 3.1 2.1 5 1.9 1.2-.2 2.3-.3 3.5-.4h1.9zm7.7-136.7h-15.3c-.2 2.1 1 4 3.1 4.5 1 .3 2.2.3 3.2.5 2.5.4 4.8-.6 7.1-1.1 1.8-.4 2.2-1.5 1.9-3.9zm-6.3 8.7H471c-.3 2.1-.3 2.1 0 3.7.8.2 1.6.4 2.5.5 1 .1 1.6-.4 1.7-1.4.2-1 0-1.9-.8-2.8zm-.7-46.3c.3-2.2 1.4-4.1.9-6.2h-2.7c-.2 1.9-.5 3.7-.7 5.4.9.3 1.5.5 2.5.8zm-6.6 3.6c.1-1.1-.6-1.4-1.3-1.4-.7 0-1.1.5-1.1 1.4h2.4zm-10.9 165.6c.5.2.9.4 1.6.7-.4-1.2-.8-1.2-1.6-.7zM70.8 78.4c-2.8 1-3.6 2.8-4.1 5-.8 3.7-2.1 7.3-2.3 11.2 0 .7-.4 1.3-.6 2.1-1.2.9-2.5 1.5-4.3.8 0-1-.2-2.1 0-3.2.7-3.3 1.4-6.7 2.3-10 .4-1.5 1.1-2.9 1.6-4.3.8-2.1 3.3-3.2 5.7-2.8.6.1.9.6 1.7 1.2zM46.5 97.6c-2.4 2.2-1.2 4.6-.9 6.9.2 1.7.8 3.3 1.1 5 .1.5 0 1.1 0 1.6-1.7 1.4-1.7 1.4-4.5 1-.5-2-1-4.1-1.4-6.2-.3-1.8-.5-3.6-.5-5.3.2-2.9 3.4-4.5 6.2-3zm220.3 332c-.7-.1-1.2-.2-1.7-.3-.5-2.9 1.3-4.4 3.2-5.8.4-.3 1-.5 1.5-.7 2.8-1.2 5.7 0 6.7 2.9.2.6.2 1.3.1 1.8-.7 2.2-1.8 4.1-3.9 5.4-2.7 1.7-5.1.7-5.7-2.4-.1-.3-.1-.5-.2-.9zm5.6.3c.3-1.8.3-1.8-1.2-2.6-.4 1.2-.1 2.1 1.2 2.6zm94.9-1.3c-.9.2-1.6.3-2.2.4-.1-.3-.3-.4-.3-.5.5-3.7 5-6.7 7.7-6.3 1.6.2 3 1.4 3 3 .1 3.4-1.5 5.8-4.2 7.6-.6.4-1.5.5-2.2.5-1 0-1.7-.7-1.8-1.8v-2.9zm3.9.3c1.1-.9.4-1.3.2-1.8h-.5c.1.5.2 1 .3 1.8zm-42.7-10.2c.3.5.5.9.7 1.3.6 0 1.1.1 1.7.2 1.9.3 2.9 1.6 2.6 3.5-.4 2.5-1.8 4.3-4 5.4-1.2.6-2 .5-3-.4-.6-.7-1.2-1.4-1.7-2.2-1.1-2 .4-6.4 2.4-7.5.3-.3.9-.2 1.3-.3zm5-271.6c.5-.2 1-.5 1.4-.5 3 .1 5.9-.5 8.7-1.7.5-.2 1.1-.2 1.6-.2 1.1-.1 2.2-.4 3.3-.3 1.7.1 3.5.2 5 1 1.8 1 3.3.9 5.1-.1 1.8-1 3.8-1.8 5.8-2.6.5-.2 1.2-.4 1.6-.2 2 .9 3.8-.1 5.7-.4.3 0 .6-.1 1.4-.4-.7.8-1 1.3-1.5 1.5-1.4.6-2 1.7-2.5 2.9-.9 2-1.9 3.9-3.2 5.7-1.3 1.9-2.7 3.6-5.1 4.3-.8.2-1.5.8-2.3 1.2-1.7.8-3.6.5-5.3.6-5.6.1-10-2.5-13.8-6.3-1.7-1.7-3.7-2.9-5.9-4.5zm33.6-1.6c-1.8.7-3.4 1.1-4.9 1.8-2 1-4.3.8-6.4 1.3-1.2.3-2.5.6-3.6.2-3.1-.9-6.4-.9-9.6-1.3-.9-.1-2.2-.8-3.3.1.2.3.4.5.5.6 1.3.6 2.5 1.2 3.4 2.3.3.4.9.6 1.4.7 1.2.4 2.5.9 3.7 1.3 2.8.9 5.7.8 8.6.6 1.5-.1 3.1-.6 4.3-1.6 1.7-1.3 3.3-2.6 4.9-4 .7-.4 1.1-1 1-2zm-46.5-42.1c1.4-.8 3.2-1.3 4.3-2.5 1.1-1.2 2.3-2.2 3.7-3 .2.2.4.6.5.5 1.4-.5 2.7.2 4.1.2.7 0 1.4-.1 2.1-.2.8 0 1.7.1 2.4-.1.9-.3 1.6-.4 2.5.1.3.1.7 0 1.1 0 .2 0 .6-.3.6-.2 1.1 1.1 2.9.1 3.8 1.5.4 3.4.4 3.4-.9 4.4-.1-.6-.2-1.1-.3-1.5-.2-.1-.4-.2-.5-.2-.8.3-1.6.8-2.4.8-2 0-4 0-6-.3-1.3-.2-2.6-.5-3.8.4-.3.2-.7.3-1.1.3-1.3 0-2.4.3-3.4 1.2-.7.6-1.6.2-2.4-.1-1.4-.4-2.9-.8-4.3-1.3zm56.5-3.4c-.8.3-1.6.6-2.6.9-1-.4-2.2-.8-3.6-1.3-2 .7-4.2 1.4-6.4 2.2-2.4-1.1-3.9 2.1-6.4 1.4-.6-1.6 0-3.1.9-4.3.5-.6 1.4-1.5 2-1.4 1.4.2 2.4-.5 3.6-.7.1 0 .3-.2.4-.2 2.2.5 3.7-1.1 5.5-1.9 2.4-1.1 3.6-.9 5.2 1.1.8 1 1.2 1.1 3.5 1.3.5.7 1 1.4 1.7 2.2-1.3 1.5-3 1.9-5.1 2.5.7-.7 1-1.1 1.4-1.5.7.1 1.1-.1 1.2-1-.7-.2-1.1 0-1.3.7zm-9.6-2.5c.1-.1.1-.2.1-.4 0-.1-.1-.1-.2-.2-.1.1-.1.2-.1.3 0 .1.1.2.2.3zm5.3-1.4l-.1-.1-.1.1.1.1s0-.1.1-.1zm-26.3 33.1c-.7.3-1.1.5-1.5.6-1.6.7-2.2 1.6-1.9 3.3.2 1 .7 1.9 1.2 2.8.4.7 1.1.9 1.8.6 2.5-.7 4.8-.5 7.3.4 2.1.8 4.4.3 6.2-1.3 1.6-1.4 2.1-3.2 1.4-5.3-.9-2.6-1.9-5.1-2.6-7.7-.8-2.9-1.6-5.8-2.2-8.8-.3-1.8-.2-3.6.6-5.3.2-.5.5-1 1.3-.5-.2.7-.5 1.4-.6 2.1-.1.8-.4 1.8-.2 2.5 1.1 4.8 2 9.7 3.8 14.4.1.3.3.5.5.8.6 0 1.3-.3 1.6-.1 1 .8 1.9 1.6 2.6 2.7.5.8.4 1.9.6 2.7-1 1.4-2.1 2.1-3.4 2.5-1.5.4-2.9 1.1-4.4 1.7-2.4.9-4.8.8-7.2.4-1.9-.3-3.7-.6-5.5.1-.8.3-1.6.1-2.1-.6-.6-.8-1.4-1.5-1.8-2.5-1.3-3 .8-5.5 4.5-5.5zm14.9 5.7l.4.4c.5-.1 1-.2 1.5-.4 1.8-.9 2.2-2 1.3-3.8-.5-1-1.2-1.9-2.6-2.6.5 2.3.7 4.4-.6 6.4zm-31.8-23.7c-1 .5-1.9.9-2.7 1.4-.2.1-.3.4-.5.6.9.3 1.8.6 3 .9-1.3 1-2.6.6-3.6.4-1.1-.2-2-1-2.9-1.9.6 0 1.1-.1 1.8-.1-.1-.3-.1-.6-.2-1 .6 0 1.2-.1 1.9-.1 0-.4-.1-.8-.1-1.3.6.1 1.2.3 1.9.4.2-.4.4-.9.6-1.3.4.1.8.3 1.2.4.4-.5.7-.9 1-1.2.9.1 1.7.4 2.4.3 3.2-.4 5.9.6 8.3 2.6.2.2.5.3 1 .6-.2.3-.5.6-.7.9-2.3-.7-3.8-3-6.5-3 0 .4-.1.8 0 1.1.2.7.4 1.2 0 2-.6 1-1.5 1.4-2.4 1.7-1.4.4-2.7-.5-3.1-2.3-.1-.4-.2-.6-.4-1.1zm3.2 0c-.4-.1-.6-.3-.9-.3-.1 0-.3.5-.3.5.2.2.4.4.7.4.1.1.3-.2.5-.6zm30.7-3.3c-1.1 1.3-2.1 2.4-3 3.4-.1.1-.3 0-.6 0 .4-1.3 1.1-2.2 2-3 .8-.6 1.7-1.2 2.5-1.7 1-.6 2.1-1.3 3.2-1.9.1.1.3.4.5.7.5-.3 1.1-.6 1.6-1 .2.3.5.6.9 1 .6-.3 1.3-.6 2.2-1.1-.2.5-.4.8-.7 1.4.8-.1 1.4-.2 2.1-.3 0 .3 0 .7-.1 1.2 1.2-.8 2 .2 3.2.4-.6 1.7-1.8 2.5-3.9 2.8.7-.8 1.1-1.2 1.6-1.7-1.8-.8-3.5-1.5-5.3-2.2-.2-.1-.4.1-.9.2 1 1.1 1 2.3.8 3.4-3 2.4-5.3 1.8-6.1-1.6zm3.5.2c-.3-.2-.5-.5-.6-.4-.2.1-.4.4-.6.6.2.1.3.4.5.4.2-.2.4-.4.7-.6zm8.8 40.6c.7-1.6 1-3.3 1.1-5.1 0-1.7-.3-3.1-1.4-4.3-1.3-1.5-2.3-3.3-3.2-5.6 2.3 2 3.8 4.1 5.2 6.2 1.5 2.3 1.1 5.4-.7 7.6-.4.3-.7.7-1 1.2zm-39.4-9.9c0 1.1-1 1.6-1.6 2.2-.6.5-1.3.9-2 1.2-1.7.9-3 2-3.1 4.1-.1.8-.6 1.1-1.5.9-.1-1.6.3-3.1 1.6-4.1 2.1-1.5 4.4-2.8 6.6-4.3zm-11.7-33.3c-2.2 2.5-4.4 1.4-6.6.6.7-.2 1.4-.3 2.1-.5-.2-.3-.5-.6-.8-.9 1.9-.7 3.4.6 5.3.8zm6.6 40.9c.3-.6.7-1.1 1-1.7.1.1.2.1.3.2-.3.6-.6 1.2-.9 1.9-.2-.1-.3-.3-.4-.4zm5.2-7.5c.1-.1.1-.2.1-.2s-.1.1-.1.2c-.1-.1 0 0 0 0zm-23.9 138.9v4.7c0 2.7-1.4 3.9-4.5 3.8 0-1.7-.1-3.4 0-5.1.2-2.1 1.8-3.3 4.5-3.4zm-8.7 44.2v-3.4c.7-.4 1.6-1 2.5-1.4 1.2-.5 1.9 0 2 1.4v1.4c-1.1 1.2-2.4 2.2-4.5 2zm16.8-73.1c-.5.3-.8.5-1.2.6-.2.1-.5 0-.8 0-.2-.9-.6-1.7-.6-2.6-.1-1.1 0-2.2 0-3.3.2-.1.3-.3.5-.4 1.6-.7 2-.4 2.1 1.1v4.6zm5.1-24.9c-.1-1-.2-2-.3-3.2.4-.5.9-1.3 1.9-1.3.9 3 .6 3.9-1.6 4.5zm-32.5 127.8c0 .1-.1.2-.1.2.1 0 .1 0 .1-.2zm109.6-17.7c-.8 2.4-2.3 4-5.1 4.3 0-1.8.1-3.4 1.8-4.3 1.4-.7 1.8-.7 3.3 0z"/><path class="st1" d="M546.1 240.3c.2.7.2 1.4.4 2.2.2 3.6-3.8 4.2-4.7 6.8-.4 1.3-.2 2.6-.6 3.7-.2 1.3-.7 2.8-1.8 3.7-2 2-7.7 3-10.9 2.4-1.5-.2-2.6-1.3-4.2-1.7-3.6-1.1-8.4-1.1-13.1-1.2-4.9-.1-10.1.1-14.5.9-1.3.2-2.6.9-3.9.5-.8-2.6 2.1-3.2 3.7-4 3.6-1.8 7.1-3.5 10.8-5.7 1.5-.8 4.1-2.2 3.9-3.8-.3-1.9-4-1.9-6.1-1.6-2.7.3-5.6 1.2-8.6 1.6-1.8.3-6.8 1.4-7.1-.6-.1-1.3 2.5-2.3 4-3 5-2.4 10.4-4.4 15.3-6.9 3.1-1.6 5.8-3.9 8.8-5.5 3.2-1.7 6.2-3.5 9.3-5.2.7-.2 1.5-.3 2.2-.4.8.2 1.9.2 2.6.4 3.6 1.2 6.7 3.9 7.5 8.5.2.7 0 1.7.3 2.5.4 1.2 2.7 2.1 3.7 3.2 2 .6 2.6 1.9 3 3.2zM514.6 251c.9-.4 1.8 1.7 2.2 2.1 2.2 2.1 5.1 1 8.7 1.5.9.1 1.7 1.1 2.6 1.4 2.2.9 7.4 1.6 9.8 0 2.4-1.5.8-5.2 2-7.8.9-1.9 3.4-2.4 4.5-4.3.9-1.8.6-4.7-1-6.3-1.2-1.3-3.9-1.7-4.8-3.2-1.1-1.9-.4-3.5-.7-5.2-.7-3.4-4-5.8-6.9-5.7-3.2.1-5.2 1.4-7.2 2.8-1.5.9-3.1 1.7-4.5 2.6-2.8 1.9-4.2 4.8-7.2 6.3-.4-.1-.7-.4-.8-1.1-3.7 3-9.5 5-15 6.7-1.9.6-3.9.9-5.3 2.1 4.7 1.5 12.6-2.1 18.5-2.3 3.1-.2 4.3 4.6 2.8 6.8-1.9 3-9.1 4.5-13.2 6-1.3.5-3.1.8-3.4 2.1 1.3.8 2.9.2 4.5-.1 5-.7 10.3-1.3 14.5-1.4.2-.9-1.4-2.5-.1-3z"/><path class="st1" d="M537.5 233.8c-.2 2-.6 3.8-1.4 5.2 1.7 1.3 3.1 3 3.4 6.3-1.4-1.6-2.1-3.9-4.4-4.3-1.5 1.8-2.3 4.2-5.2 5.1-.2-.5.5-1 .8-1.4 1-1.6 3-4.1 2.2-6.8-.5-1.8-2.2-3.2-3.5-4.2-.3-.2-1-.5-.9-1 3.1.1 5.5 1.2 6.1 4.8 2-.5 2.1-2.4 2.9-3.7z"/><path class="st0" d="M54.3 126.9c-2.4-1.1-5.5-.5-7.6 1.7-1.7 1.7-3 4.2-3.1 6.6-.2 2.8.8 6 3.1 7.8.9.6 1.8.7 2.7 1.1.6.3 1.1.9 1.6 1.4 1.1.9 2.1 1.7 3.2 2.6 2.1 1.7 4.3 3.4 6.4 5.3 4.3 3.4 8.5 7 12.9 10.4 2.7 2.2 5.4 4.5 8.3 6.7.3.2.5-.1.7-.3.2-.4.3-.6.5-.8-2.2-2-4.3-4.1-6.2-6.2-.4-.3-.6-.6-1-1-.1 0-.1-.1-.3-.2-.5-.5-.8-.9-1.1-1.1-2.4-2.3-5-4.6-7.5-6.7-3.4-3.1-7-6.1-10.6-9.1-.9-.8-1.7-1.4-2.6-2.2.4-.4.9-.7 1.2-1.2.3-.2.5-.5.6-.7 2.7-3.1 4.1-8.2 1.7-11.8-.8-1-1.7-1.9-2.9-2.3zm1.4 8.4c.1.7 0 1.3-.2 1.9-.8 2.6-4 3.5-6.3 2-1.4-.8-3.2-3-3.2-4.8 0-2.4 1.3-4.6 4.2-4.5.7-.1 1.5.2 2.2.6 2 .8 3.1 2.9 3.3 4.8z"/><path class="st0" d="M43.7 149c5.2-7.4 10.8-14.4 16.9-21.1 1.5-1.7-.4-7.8-1.9-6.2-6.3 7-12.1 14.3-17.5 21.9-1.1 1.8.8 7.9 2.5 5.4zM466 39c-3-3.4-6.6-3.2-11.3-6.3-.3.3-.7.6-1.3.9-1.5 1.7-3.3 3-5 4.5-.3.3-.6.5-.9.8l-.6.6c2.8 3 7.3 3.6 10.8 6.5-3.6 6.3-6.4 15.4-10.5 22.4-3.2 8.5-8.6 16.9-16.3 21.3-1.1.7-2.2 1.2-3.6 1.3-6-3.3-5-12.3-1.3-16.5.3-.4.7.6 1.1-.4 1.3-3.4.9-4.8-.3-5.5-.1.1-.3.2-.4.1-.4-.1-.9-.1-1.3-.2h-.5c-.1 0-.2 0-.2-.1-.1 0-.3 0-.4-.1-4.5.3-9 .3-13.5.1v.1c-.3 1.8-.6 3.7-.9 5.5.1 0 .1.1.3.1-.1.5-.2.8-.4 1-.4 3.4-.8 6.9-1.2 10.3.1.2.2.4.4.6-.2 0-.3.1-.4.1 0 1.9.2 3.7.5 5.5 1.2 3.5 3.6 8 5.6 9.6 2.5.3 2.7 2.5 7.3 3.9.2-.5.5-1.1 1-1-.1.3-.3.8 0 1 7.1-.3 11.9.9 17.4-5.1.1 0 .1.1.2.1.4-.5.9-1 1.3-1.4 1.8-2.4 3.5-4.9 5.1-7.5 1.5-2.4 3-4.8 4.8-7 1.5-2.3 2.9-4.6 4.4-6.8 3.2-6 6.9-12.8 10.6-18.9-.9-.6 1.5-2 1.3-3.7 2.2 1.2 4.1 1.7 5.9 1.8 0 .2-.1.4-.2.5.4.1.7.3 1 .4 2-2.4 4.8-9.8 5.9-12.2-3.3-2.8-8.8-5.9-14.4-6.3zm11.3 42.3c-.1.2-.2.4-.4.4-.7 1.2-1.3.3-1.5 2.1-1-.9-1.1.1-1.7.1-2.3-2.2-3-3.9-6.4-6-2.4-.3-4.8.1-7.3 1.6l-1.8 1.2v.1l-.1-.1c-1 .8-1.9 1.6-2.7 2.5-.2.3-.4.5-.6.7-.3.3-.5.6-.7.9l-.9 1.5c-.8 3.3-1.1 6.6-.2 9.3.3.7.6 1.4 1 2.1 0 0 0 .1.1.1.1.1.2.3.3.4.5.6 1 1.2 1.7 1.7.2.1.3.2.5.3 3.7.5 8.4-.1 9.7-.5 0 1.6-1.1 3.7-1.6 5.5.4.3.9.6 1.3.9.2.1.3.2.5.2.5-.7 1.1-1.5 1.6-2.2 2.7-4.3 5-8.9 8.7-12.4.1-.2.3-.4.4-.7 1.1-2.4 2.1-4.7 3.3-6.5-.5-1.9-1.6-2.9-3.2-3.2zm-12.9 10.3c-.2-1.2-2.3 2.3-2.7 3-4.2-.4-2.2-3.7-2.9-5.7 2.3-2.6 4.9-4 7.6-5 1.6-.1.5 2.2 1.5.6-.1 2.3-2.4 5.3-3.5 7.1zm78.6 23.1c-3.4-3.2-5.3-2.9-8.9-5.4l.8-1.6c1.5-.3 3-.7 4.3-1.1.5-.2 1-.4 1.5-.7 4-2.1 8.2-3.9 12.5-5.4.2-.1.3 0 .4 0 .7-1.9 1-3 1.7-4.8-6.2-3.1-12.5-6.1-18.3-9.9-.4-.2-.8-.4-1.1-.7-.3.6-.7 1.2-1 1.7-.4.8-.8 1.5-1.2 2.2-.5 1.1-1.1 2.2-1.7 3.3.3.2.3.5 0 1.2 1.8 0 2.3 1.4 4.7 1.9-1.1 1.4.3.5.2 1.3-2.4 1.4-5.3 5.4-7.3 6.3.2 0 .1-.9 0-.8-.7 1.5-2.1 2-3.2 2.9-1.2 3.4-2.6 6.6-4.3 9.7 6.8 3.3 13.7 5.3 23.7 8.9 2.1-4 2.3-4.1 3-7.2-3.3-.8-3.7-2-5.8-1.8zm-36.1-29.4c-4.6-3-9.1-6.1-13.4-9.6-1.2-.9-2.5-1.8-3.7-2.7-3.4 6.5-5.1 9.9-5.4 15.6 6.6 3.7 7.6 3.2 12.4 6.6-5.6 5.1-11.3 9.7-17.6 12.7-.8 1.2-.9 2.2-.7 3l-1.7-.8c-1 3.7-2.8 8.2-3.5 12.5 3.3 1 6.4 2.6 9.5 4.3 3.6 2 7.3 3.7 11 5.4 3.9 1.8 7.9 3.8 12 5.2.8.3 1.6.5 2.4.8.4-3.9 3.5-6.9 5.1-9.9-.5-.3-.9-.6-1.4-1-5.7-3.1-11.1-6.7-16.5-10.4-.2-.1-.2-.3-.2-.4-.4-.4-.8-.9-1-1.3v-.1c-.1-.3-.1-.6.2-.8.1 0 .2-.1.3-.1.3-.5.6-1 1-1 0 .1-.1.3-.1.5 3.2-2.2 6.6-3.9 10.1-5.4 2.2-1.3 4.4-2.5 6.8-3.1 2.3-1.1 4.7-2 7.1-2.9 1.4-2.1 2.4-4.7 3.4-6.8-5.6-3.1-10.9-6.9-16.1-10.3zm-336 22.8c-2.6-5.7-3.8-12.1-5.3-18.1-1.3-4.9-2.6-9.8-3.8-14.6-.1-.7-.2-1.3-.3-2 4.4 2.8 8.7 5.7 12.8 8.9.2.3.3.6.5.8.9 1 1.6 2 2.1 3.2.3 0 .7 0 1-.2-.6-2.2-1.4-4.4-2.2-6.6-1.2-2.5-2.7-4.7-4.9-6.3-3.5-1.5-7.7-1.5-10.3-4.6-.1-.1-.3-.2-.5-.2-.1-.2-.1-.4-.2-.6-.2-.8-2.1-.3-1.9.5.4 2.1.9 4.2 1.3 6.3 1.1 9.1 2.8 18 5 26.9.5 2.1 1.1 4.2 1.7 6.3-.4.1-.9.3-1.3.4-1.9.6-3.8 1.7-4.9 2.9-.3.3-.6.6-.9 1-.5.4-.9.9-1.2 1.3-.6.8-1.2 1.7-1.6 2.7-.8 1.6-1.3 3.2-1 4.6.7 2.9 4 3.5 6.5 3 1.3-.3 2.8-.9 4.3-1.7 4.2-1.8 8.1-5.9 7.3-10-.1-1.7-.7-3.1-2.2-3.9zm-13.5 10.1c0 .1 0 .3-.1.4v-.3c0-.5 0-1.1.1-1.6.3-.6.7-1.3 1.1-1.9-.7 1.1-1.1 2.3-1.1 3.4zm2.2-4.8c-.3.3-.5.6-.7.9 0-.1.1-.1.1-.2.4-.6.9-1.3 1.5-2-.4.5-.7.9-.9 1.3zm4.9-3.5c.3-.1.5-.1.8-.2-.3.1-.7.2-1 .4.1-.1.2-.1.2-.2zm-2.2 4.7c.1-.1.2-.2.3-.2-.1.2-.1.3-.2.5l-.2.2c0-.1.1-.3.1-.5zm4 3.7c-.9.8-2.6 1.6-4.1 1.9h-.1c.3-.1.5-.2.8-.4 1.4-.5 2.7-1.3 3.6-1.9.4-.3.9-.6 1.3-1-.4.5-1 1-1.5 1.4zm-81.6 67.3c-2.9-3.6-26-14.3-34.6-18.3-.4-.1-.9-.2-1.4-.4-1.8-.9-3.8-1.8-5.8-2.3-4.5-1.4-7.3 2.6-10.1 6.6-2.9 4-7.3 2.6-7.3 2.6s26.4 14.6 33.4 18.4c7 3.8 5 4.7 5 4.7s-7.3 2.6-7.7 9.1c-.3 6.4 9.6 11.1 12.9 5.6s2.1-12.4-1.4-16.7c-2.2-2.7-16.4-9.7-26.8-14.6l14.6-7.1c1.2-.6.1-1.2-.8-.8-.5.3-1 .5-1.6.8.4-.3.9-.5 1.3-.8.4-.2.7-.3 1.1-.5 7.6 4.2 16.3 9 20 11 7 3.8 5 4.7 5 4.7s-7.3 2.6-7.7 9.1c-.3 6.4 9.6 11.1 12.9 5.6 3.6-5.5 2.5-12.4-1-16.7zM38.4 179c.5-.2.9-.4 1.4-.6-.4.2-.8.5-1.1.7-.1 0-.2-.1-.3-.1zm6.3-4.7c-2.9 1.1-5.7 2.3-8.5 3.7-3.7-1.7-6.2-2.8-6.2-2.8s7.9.8 12.2-2.7c2.8-2.3 6.6-3 8.9-3.1.7.4 1.5.8 2.3 1.3-3 1-5.9 2.3-8.7 3.6zm385.9-45.2c-2.2-.7-4.3-1.5-6.4-2.4-.6-.3-1.6-.3-2 .3-2.6 3.5-5.1 7-7.7 10.5-1.1-4.3-2.3-8.6-3.4-12.9.3-.4.2-.9-.7-1.1-3.4-1.1-6.7-1.5-10.2-1.3-.5 0-1.2.3-1 .9 1.5 5.1 3.9 10.2 5.1 15.3.7 3-1.3 4.4-3.4 6.4-1.9 1.8-4 3.4-6.2 4.9-.5.4 0 1 .4 1.1 2.2 1 5 3.2 7.5 3 2.7-.2 4.9-3.4 6.8-5 .4-.4.8-.6 1.1-.7.3-.3.6-.5.9-.8.2-.2.7-.1.8.2.3 1.1.6 2.1.9 3.2.2.5.3 1 .4 1.4.3 1 .6 2 1 3 .1.2 0 .4-.1.5.1.3.2.7.3 1 1.4 3.4 5.3 2 8.3 3.8.5.3 2.8.5 2.3-.6-1-2.6-2.1-5.1-3.2-7.7-1-2.2-3.5-5.8-2.5-8.3.9-2.2 3.6-4.4 5.1-6.2 2.1-2.5 4.2-5 6.2-7.5.5-.4.3-.9-.3-1zm-14.3 15.2c-.1.2-.3.4-.2.6 2 4.3 4 8.7 5.8 13.1-.5-.2-1-.3-1.6-.4-2.5-.4-2.7-.6-3.4-3.3-.6-2.2-1.5-7.9-3.8-9-1.5-.7-3 .5-4.2 1.3-1.9 1.3-3.5 3.5-5.4 4.7s-3.9 0-5.7-1.1c3.3-2.3 9.1-6 9.8-9.8.3-1.9-2-6.1-2.6-7.9-1-2.9-1.9-5.8-2.8-8.8 2.2 0 4.3.3 6.3.9 1.4 5.3 2.8 10.5 4.2 15.8.3 1 2.1.8 2.6.2 3-4 5.9-8.1 8.9-12.1 1.3.5 2.6 1 4 1.5-4 4.7-8 9.5-11.9 14.3zm35.3-6c-.9-.2-1.9-.4-2.8-.6-1.2-.2-2.5-.4-3.7-.7-1.8.9-3.5 2.6-5 4.5.2-1.7.2-3.5 0-5.3-.1-.9-1.3-1.1-2-.9-1.5.4-3.1.8-4.6 1.2-.7-.1-1.5.1-1.7.8-1.1 6-1.9 12-2.4 18.1 0 .5.5.8.9.9 1.6.4 3 1.1 4.4 1.9.5.3 1.4.3 1.9-.2 1.7-1.7 3.3-3.5 5-5.2-.4 1.9-.5 3.9.1 5.6.9 2.8 2.7 2 5 3.1.5.2 1.8.3 2-.4 1.6-4.8 2.6-9.7 3.2-14.7.5-2.4 1.2-5.9-.3-8.1zm-2 5.4c-.5 5.3-1.4 10.6-3 15.7-.2-.1-.4-.1-.6-.2-.7 0-1.3-.3-2-.5-.2-.1-.3-.3-.3-.5.1-.9.3-1.7.5-2.6-.1-2.3.7-5.1 1.4-7.1.4-1.2-1.8-1.5-2.4-.8-2.7 2.8-5.4 5.6-8 8.4-1-.5-1.9-.8-2.9-1.2.5-5.6 1.3-11.2 2.2-16.8 1-.3 2-.5 3-.8.2 3.5-.3 6.8-1.4 10.2-.4 1.3 2.1 1.6 2.6.6 1.3-2.4 2.7-4.6 4.6-6.6.4-.5.9-1 1.4-1.4.4-.7.8-1.3 1.5-1.4 1-.3 2.2.5 3.2.6.4.1.5.5.4.7.2 1.1-.1 3.1-.2 3.7zm28.2 12.4c-.4-7.8-9.9-16.3-17.9-14.1-.1 0-.2.1-.2.2-.1.2-.1.4-.1.5 0 0-.1 0-.1.1-2 1.5-2.4 3.5-3.2 5.9-1 3-2 6-2.9 8.9-2 6-3.9 11.9-5.9 17.9-.1.2.4.5.5.6 1.9.9 6 4 8.2 2.2 1.3-1.1 2.1-5.6 2.5-7.1.8-2.8 1.4-5.6 2-8.5 6.8 3.2 17.6 3.8 17.1-6.6zm-17.2 5c-.3-.2-2.2-.9-2.3-.3-.8 4.3-1.8 8.4-3.1 12.6-.5 1.4-1.9 5.8-4.2 2.9-1.3-1.7.6-5 1.2-6.6 1.4-4.3 2.8-8.7 4.3-13 1.2-3.7 2.1-10.3 5.3-12.8.5 0 .8-.1.6-.3 1.4 0 2.7.1 4.1.1.9.5 1.9 1 2.8 1.5 1.4.9 2.4 2 3.3 3.3 1.3 1.7 2.2 3.6 2.5 5.8.4 2.6 0 5.5-1.9 7.4-3.5 3.4-9 1.9-12.6-.6z"/><path class="st0" d="M464.5 148.2c-.3-.1-.5-.1-.7 0-.7-.3-1.6-.3-1.8.3-.6 2.2-1.2 4.3-1.8 6.5-.1.3.2.6.5.8 2.3 1.3 10.4 7.4 12 2 1.2-4.7-4.4-8.8-8.2-9.6zm5.1 9.6c-1 .9-2 .1-2.9-.4-1.3-.7-2.6-1.4-3.9-2.2.5-1.8 1.1-3.7 1.6-5.5 2.8.8 5.6 3.2 5.6 6.3.1.5 0 1.4-.4 1.8zm35.9 4.7c.3-.5 0-1.1-.5-1.4-2.8-1.5-5.6-3-8.3-4.6-.5-.3-1.4-.5-1.8 0-1.9 2.4-3.9 4.6-6 6.7V154c0-.2-.1-.4-.2-.6 0-.2-.1-.4-.5-.7-1.5-1.1-3-2.3-4.6-3.4-.4-.3-2-.9-2.2.1-.9 5.6-1 11.1-1.4 16.7-.5 6.2-7.6 10.9-11.9 15.1-.6.6.4 1.4.8 1.5 1.9.4 3.2 1.5 4 3.1.3.5 1.5.9 2.1.5 5.5-4.2 11.1-8.3 16.6-12.5 4.5-3.2 10.9-6.5 13.9-11.3zM474.2 184c-.8-1-1.8-1.7-2.9-2.2 2.1-2 4.1-4 6.2-6.1 1.9-1.8 4.3-3.5 5-6.1.6-2.3.1-5.6.2-7.9.2-3.3.5-6.5 1-9.7.8.6 1.6 1.2 2.5 1.8V166c0 1.1 1.8 1.5 2.5.9 2.9-2.6 5.5-5.3 7.9-8.3 2 1.1 4 2.2 6.1 3.3-3.4 4.6-9.8 8.1-14.3 11.4-4.7 3.6-9.5 7.1-14.2 10.7zm44.2-5.8c-3-3.8-8.1-8.8-13.1-5.6-3.5 2.3-6.7 6.2-9.4 9.3-3.2 3.5-6.1 7.3-8.9 11.2-.8-.1-1.5.5-.5 1.3.1.1.2.1.2.2.1.2.4.4.6.5 1.7 1.5 3.3 3 5 4.5.4.4 1.4.9 1.9.3 2.7-3.7 5-7.5 7.2-11.4 3.4 3.5 7.8 6.9 12.8 4.8 6.4-2.6 8.5-9.7 4.2-15.1zm-16.9 8c-.3-.3-1.5-1-1.9-.3-2.1 4.1-4.5 7.9-7.2 11.7l-3.3-3c2.4-3.4 5-6.8 7.8-10 1.5-1.7 3-3.3 4.5-4.9 1.6-1.6 3.7-4.6 5.7-5.3 4.2-1.6 9.3 2.8 10.7 6.4 1.2 3 .4 5.2-1.6 7.4-5 6.1-10.3 2.9-14.7-2z"/><path class="st0" d="M509 178.2h-.3c-.3 0-.5 0-.6.2-1.5 1.6-5.1 3.3-3.3 6 .7 1.1 2 1.4 3 2.2 1 .7 2.1 1.6 3.4 1.4 2.5-.2 3.8-3.1 3.3-5.3-.6-2.4-3.1-4.2-5.5-4.5zm-.4 7.3c-.5-.4-1.1-.6-1.5-1-.3-.3-.3-.1-.4-.5-.1-.3.2-.8.3-1 .7-1.2 2.1-1.9 3.1-2.9 4 .6 1.4 7.6-1.5 5.4zm27.5 13.4c-2.5-3.3-5.5-6.1-8.6-8.8-.3-.2-1-.8-1.3-.5-6 4.8-11.8 9.9-17.3 15.2-.2 0-.3 0-.2.2l-.1.1 1.5 2.1c1.4 2.1 3.4 5 5.2 4.9 1.7-.1 3.7-2.9 4.6-3.9 2.1-2.3 3.8-4.8 5.3-7.4 1.6 1.8 2.7 3.8 4.3 5.7.4.5.9 1 1.5 1.3 2.1 1 3.8-1.1 5.3-2.3 3.3-2.6 2.3-3.4-.2-6.6zm-3.6 6.1s-1.7 1.6-1.5 1.6c-.2 0-1.8-2.7-2-3.1-1.2-1.6-2.5-3-3.9-4.3-.1-.1-1.4-1.2-1.6-.7-1.7 3.1-3.7 6-6.2 8.6-.9.9-2.2 2.9-3.4 2.6-.9-.2-2.1-2-2.8-3.3 5.4-5.2 11-10.2 16.9-14.9 2.6 2.2 5.8 5 7.3 7.9 1.4 3.3-.5 3.7-2.8 5.6zm-346.8-98.5c5.1-1 8.3-12.9 13.3-13.2 2.2-1.1 5 3.9 6.2 1.8-.8-2.1-4.9-3-4.4-5.6 7.1-9.9 14.2-19.9 22-27.9-3.2 11.9-4 22.8-8.3 35-1.8 1.3-5.1-1.6-6.9-.3 1.4 2.5 5.7 1.9 7 3.9.9 5.2-4.3 14-1.3 18.9 8.2 13 20.2-7.6 13-13.9l-9.6-4.5c2.8-24.7 11.8-52.2 28.3-78.6.2-.6-.1-1-.5-1.4-6.5 6.5-10 21.3-16.3 28.3-1.2-4.7 3.1-11 5.6-16.8 2-4.8 4.6-9.6 4-13.5-10.8 27-24.3 57.9-43.1 73.4-2.2-1.3-3.8-2.6-6.6-3.7-10.6-1.9-15.4 20.7-2.4 18.1zm32 13.7c-6-3-3.3-18.5 5.2-15.7 9.2 2.9 1.8 19.2-5.2 15.7zm-29.5-30.6c9.5 1.9-.1 17.6-6.3 14.4-6.4-3.3.2-15.5 6.3-14.4z"/><g id="Режим_изоляции"><path class="st1" d="M231.4 124.5c-.7.9-1.4 1.7-2 2.6.6.4 1.2.9 1.8 1.4.6-.8 1.3-1.6 2-2.4-.7-.6-1.2-1.1-1.8-1.6zm28.9-36.4c-.1-.9-.5-1.7-1.4-2s-1.8-.1-2.5.4-1.3 1.3-1.8 2c-5.8 8.1-11.2 16.5-16 25.2l-.1.5c-.1-.1-.2-.1-.4-.2-.9 2-3.2 4.1-2.8 5.9-1 1.1-2.1 2.4-3.1 3.7.6.5 1.1 1 1.7 1.6 1.1-1.3 2.1-2.6 3.1-3.9.5-.2 1.2-.6 1.9-1.2 3.4-1.8 6.1-5 8.4-8.3 2.8-3.9 5.5-7.9 8.1-11.9 1.8-2.9 3.7-5.7 4.7-9 .1-1 .3-1.9.2-2.8zm-29.1 49.2c-.7-1-2.2-2.6-3.9-4.1.2.2.5.4.6.1.6-1.2 1.4-2.4 2.3-3.7-.6-.5-1.2-.9-1.8-1.4-1.1 1.5-2.1 3-2.9 4.3-1.2-.6-2.4-.6-3.5-.8.5-.3 1.7.3 1.8-.2-2.6-.5-4 .4-6.7.8-6.6 4.6-6.2 13.3-.2 17.4 2.1 1.4 5.4 2.3 7.9 1.7 5.3-1.3 8.6-8.2 6.8-12.9-.4-.6-.3-.5-.4-1.2zm-6.7 10.4c-4.2 1.2-8.9-1.9-8.8-6.5.1-4.9 6.2-8.2 9.8-4.7.7.3 1.3.7 1.9 1.2 3.2 3.3 1.3 8.8-2.9 10z"/><path class="st0" d="M511.9 334.1c.2-.1.2-.3.1-.3 12.1-6.9 22-18.5 32.9-27.7 3.2-1.2 6.6-.2 8.8-2.1 7.3-6.1 2.8-19-3.1-25.5-1.9 4.7 5.5 8.2 3 12-2.8 1.8-5.4-.7-8.3 1.3 1.3-3.2-.5-7.4-1.2-11.8-3.1 4.9-1.1 9.9.5 14.9-11.6 1.1-25.5 5.4-34.7 5.8.1.2 0 .6-.5 1-4.6-.3-10.8.9-17.5 3.1l.4.4c-6.4 2.3-12 6.7-16.6 11.9-2 2.3-7.9 9.9-1.5 10.7.1.1.1 0 .2 0 5.2-9.4 14.5-14.5 23.8-19.3.1-.1 0-.1-.1-.3 8.4-2.8 16.2-4.5 22.4-4.5 1.2 0 .5-2.1 2.8-1.7.7 1-1 .4-.5 1.3 2.9-.7 5.8-.7 8.7-1.8 1.1-.7-5.4 1.1-7.2.5 4.2-2.7 10.8.6 10.1-2.2.8.4 2.9 2.5 3.2.6-.6.4-1.2.1-1.8-.1 5.1-1.5 1.8.7 6.8.7-8.8 8.6-17.6 16.5-26.4 23.3-9.8 7.1-24.8 16.3-36 8.3-.3-.2-.9-.3-1.1.1-.2 1.2.1 2.2.4 3.1-.1.3.3 1 .6 1.1.2.1.3.1.4.3 3 2.8 9.3 3.5 12.8 3.2 2-.1 3.8-.5 5.5-.9 4.8-1.1 9.1-3.1 13.1-5.4zm-17.5-26.6c.1-.1.2-.2.3-.2l.1.1c-.1 0-.1.1-.4.1zm-20.6 16.6c.1.1.2.1.3.2-.3.2-.4 0-.3-.2zm38.8 7.1c1-.9 2-1.7 3-2.6 3.9-2.8 7.7-5.6 11.3-8.6-4.6 4.2-9.2 8-14.3 11.2zm-29.7 4.4c5.8.9 10.2 1.8 16.3.1 4.3-1.2 8.2-3.2 12-5.5-1.2 1.1-2.5 2.2-3.8 3.2-3.5 1.8-7 3.6-10.8 4.2-.7.1-1.2.1-1.9.2-3.7.2-7.7-.6-11.5-1.4-.6-.5-1.2-1-1.7-1.5.3.2.9.5 1.4.7z"/></g></svg>