<svg xmlns="http://www.w3.org/2000/svg" viewBox="0 0 566.9 467.7"><style>.st0,.st1{fill:#ee7f00}.st1{fill-rule:evenodd;clip-rule:evenodd}</style><g id="Layer_1"><path class="st0" d="M215.9 267c-3.6-.4-5.9-1.7-8.8-2.6-18.1 23.6-25.5 64.2-30.9 99.2-1.7-4.4 0-10.8 1.1-17.1 1.3-7.7 4.7-16.3 2-21.6-5.6 10-5.7 28.6-11.6 38.1-.5-.4-1-.8-1-1.5 12.3-36 15.6-71.3 12.1-101.4-4.3-.9-8.5-1.8-12.7-2.8-10.3-5.4-1.7-33.3 11.7-20.1 5 4.9 1.2 16.9 3.7 22.8 2.1 2 7.1.2 9.4 2.7-1.8 2-6.6-.5-8.3 1.5-1.7 15.7.3 29-.2 43.9 7.1-11.7 12.8-25.5 18.6-39.3 0-3.3-5.3-3.2-6.8-5.5.9-2.9 5.6 2.4 7.9.4 6-1.7 6.3-16.7 12.2-19.3 14.7-6.4 15.2 21.7 1.6 22.6zm-44.5-31.1c-9.5-.9-10.7 20.9.9 20.2 11.1-.7 7.3-19.4-.9-20.2zm46.4 28.8c7.3-1.3 9.5-18.1.8-19.1-8.5-1.1-12.5 21.1-.8 19.1z"/><path class="st0" d="M187.3 369c-3.7-1.8-7.6-3.8-10.7-5.7-.1.7.2 2.6-.9 2.3-.8-.2-.4-2-.5-2.5-.6-2.5-3-3-5.3-5-.6-.5-.6-1.5-1.1-2.3-1.2-1.7-4.3-4.5-6.8-4.5-2.3 0-2.9 3.2-4.9 4.4-1.5.9-3.5.1-5.1.9-1.4.7-2.5 2.9-2.3 4.7.2 1.5 2 2.9 1.8 4.4-.2 1.8-1.4 2.6-1.9 3.9-1 2.6.1 5.8 2.1 7.1 2.2 1.4 4.2 1.4 6.2 1.4 1.4.1 2.9.2 4.3.3 2.8.1 5.1-1.4 7.8-1 .2.3.3.6 0 1.1 3.9-.3 8.8 1 13.3 2.4 1.5.5 3.1 1.2 4.5.9-2.6-3.2-9.5-4.4-13.7-6.9-2.2-1.3-.8-5.1 1.2-6 2.6-1.1 8.4 1.1 11.7 1.9 1.1.3 2.5.9 3.3.1-.3-1-1.8-1.3-3-1.9zm-25.6-6.4c-1.4.6-3.9 1.4-4.6 3.6-.4 1.5 0 3.2.4 4.5.1.3.4.8.2 1.1-2.1-1.5-3.2-3.3-2-6.1-1.6-.4-2.5.8-3.7 1.3 1-1.3 2.1-2.3 3.4-2.9-.5-1.7-.7-3.5.5-5.8.2 1.7-.3 3.7 1 4.9 1.9-.5 3.5-1.9 5.9-1.2 0 .4-.7.4-1.1.6zm-11-22.7l-12 40.2 51.1 15.3 12-40.2-51.1-15.3zm38.2 32.4c-3.4-.4-6.4-.9-10-1-1.4-.1-3.9-.4-4.4.9-.6 1.4 1.9 3.1 3.4 3.9 2 1 4.4 1.8 6.6 2.9 1.4.7 5.3 2.2 4.6 3.7-.4.9-2.7.4-4.1.2-4.6-.6-9.1-1.8-13.6-2.3-2.9-.3-5.8 0-8.6-.3-3-.3-5.8-.4-8.8-.7-.6-.2-1.1-.5-1.7-.7-.5-.4-1.2-1-1.6-1.5-1.8-2.5-2.8-5.7-1.3-9.2.2-.6.8-1.2.9-1.8.2-1-.9-2.7-1.1-3.9-.3-1.5 0-2.6.2-3.7.2-.5.5-1.1.7-1.6 1.5-2.6 4.5-1.2 6.4-2.5.9-.6 1.3-1.6 2-2.3.7-.7 1.8-1.6 2.9-1.8 2.3-.4 6.7 1.5 8.5 3.3.9.8 1.2 2.1 2 3.1 1.9 2.4 5.2 4.6 8.4 6.9 3.3 2.4 6.9 4.6 10.3 6.1 1 .4 2.1.6 2.8 1.5-.8 1.9-3.1.9-4.5.8zm-62.1-61c.8.2 1.6.1 2.4.3-.2-.5-.5-1-.7-1.5-1.1.2-.5.6-1.7 1.2zm2.1-1.2c-.2 0-.3 0-.5-.1v.1c.2.1.3 0 .5 0zm3.7 7c.6-.8.3-1.2-.6-1 .4-.6.9-.8 1.3-1-.9-.8-3.3-.3-2.5.9 1.2-1.2.7 1 1.8 1.1zm-21.9-27.4c.1-.1.2-.3.3-.6-.2.2-.3.4-.3.6zm-4.8-2.7c.2-1.5 2.7-.2 1.6-1.5-1.8.5-3.2-2.4-4.1-3.4-1.8 2.2.7 3.5 2.5 4.9zm-26.4 45.2c-.4-.1-.8 0-1 .6 2.3 1 4.6 2.5 6.8 3.3.5.5 3.2 2.2 2.1.7-2.8-2.4-5.1-2.4-7.9-4.6zm15.9-73.4c4.9 4 9.2 6.3 14.4 11-7.8-3.4-13.7-8-21.4-15-.2 1.1 1.1 1.2-.4 1.6 14.3 24.7 37.5 49.6 61.3 71.2.6 1.6-.8-.4-1.3-.9-1.3 1 .5 1.4 1.2 2.1-6.7-2-14.7-8.7-19.9-13.3 4.6 6.2 9.4 12.5 12.9 18.9-1.2.2-2.5-2.8-3.8-3.8 1 3 4.3 5.6 5.9 8.4-11.6-13.2-26-32.2-44.9-44.9-2-1.4-2.3-2.1-3.8-1.9-.9-.3-.6-.9-.3-1.5-7.5-2.4-13.3-8.1-19.5-11.1 11.7 23.6 32.1 45.9 59.8 65.7 6 4.2-4.6-1.7-6.8-3.3-.3.6.6.9 1 1.3-1.8.5-3-2-.9-2.5-3 .1-2.6-2.5-6-3.4l-1.2 1.8c-1.9-.8 1-1.6 1.5-2.2-2.6-.2-4.8 1.9-1.3-.9-1.2-2.1-4.5-2.4-5.6-5-1.3-.9-1.6 3.7-3.1 1.8.7-1.1 1.6-.8 2.2-2.4-8.8-7.5-14.3-13.3-21.1-21.2-.9-.5-.5 1.8-1.8 2.7-1.6-1.1-.2-2.8 1-4.4-12.5-13-20.6-24-33.1-35.7.6-.9 1.2-1.8 1.8-2.6 1.6.9 3.4 2.7 4.7 2.5.1-2.1-3.1-3.5-1.9-5.8 11 4.8 21.1 19 34 26.6.7-1.7-2.6-2.6-3.1-4-1.8-.7-2.1-2.4-.1-.7 9 4.6 17 12.4 24 18.7-3.9-6-9.9-11.6-14.6-17.5.8-1.3 2.5 2.5 3.1.2-.5 1.8.8 1.2.1 2.7.6 0 1.1-.7 1.9 0-.3.3-.7.1-1 .6 6 4.4 11 16.6 19.1 17.6-1.7-2.9-4.5-5.8-7.5-9.1-.8-.2-.2.7-.9 1.3-.9-6.4-7.8-8.3-8.1-11.8-.3.7-1.8.8-1.3-.7-.8.9-2.9-1-1.5-1.8-.2-1.7-2.8 1.2-4.1.4-2.4-1.3-2.4-3.1-4-4.6 1.2-1.1.1-1.8 1.3-3-1.4-1.1-2.6-3.8-4-2.7-5.7-6.5-11.2-13.1-14.7-20.1-5.1-3.3-13.7-10.6-14.6-19.4-.6-.3-1 .6-.6.9-1.3.8-.4-1.9-.9-2.5 4.4 2 4.8 12.8 11.9 9.9 4-5.6-6.3-8.5-8.7-12.9 2.9 1.3 12.2 5.7 10.5 10.2 7.4.3 6.7 8.4 14.2 14.5zm27.4 20.3c-4.6-.8-6.9-4.8-11.1-7.4.9-.9 2.3 1.3 3.4 1.6-.4-3.8-3.9-4.6-7.7-7.7 4.1.6 6.5 4.9 10.6 7.1-.5 1.2-1.9-1.6-2.2.4 1.1 2.5 3.3 3 7 6zm17.8 16.5c-3.2 1-6.3-4.6-10-8-2.5-2.3-5.1-4.1-6.6-6.4 5.8 3.4 10.9 8.3 14.6 13.6-.7-2.6.2-.2 2 .8zm-37.3 83.3c-21.6-8.9-52.2-25.8-73-37.4-1.9-1-3.2-.8-5.5-2.4-1.1-.7-2.6-1.9-3.1-2.1-3.9-1.5-8.8.4-12.1-3-2.8-2.9-1-9.5-1.3-12.4 1.7 2.4-1.3 9.4 2 12.3 2.2 1.9 7 .5 9.4 1.2 7.5 2.2 15.3 8.9 24.6 12 18.8 6.2 43.3 21.2 59.6 29.7-.3.8-1.2 1.6-.6 2.1zM-1 348.1c15.5 1.9 34.4 9.3 48.1 14.3.9 0 .3-.9 1.8-.7 2.4 2.1 6.1 1 7.2 3.6 17.1 3.2 35.4 12.3 53.3 19 3.1 1.6 3.5 3.3.1.7-28.7-7.9-58-18.8-86.9-28.1-1.8-1.1.1-.5.5-1.6-8.1-2.4-16.5-5.9-24.4-6.7-1.9-3.6-1.1-4.7.3-.5zm-.5 26.6c-1.7.3-2-2.9-3.1-4 1.9-.4 1.6 3 3.1 4zm-.2 1.2c14.4-4.1 30.8 3.7 48.9 6.5 14.6 2.2 29.2 3.3 40.2 7 3.5 1.2 5.7 3.3 9.1 3.6 2.3.2 6.1-2.6 8.6.6 1.1 1.4-2.2-.8-5-.2-3.6.8-9.4.7-14.2.1-11.4-1.4-23.9-5.3-36.5-7.8-12.4-2.5-24.9-4.5-36.5-7.8.6-.3 1.3.2 1.8-.7-5.8-2-10.9-.7-16.4-1.3zm108.2 25c0 2-2.5-1.2-4.6-1.8-5.2-1.4-11.4 1-17.1.7-12-.7-25.1-3.5-38.2-5.1-13-1.6-26.4-2-38.2-5.1 1.1-.7 2.7.7 3.8 0-4.6-1.8-11.7 1.4-16.8-1.5-1-.4-1.9-1.2-2.9-2.7.8 1.2 1.8 2.1 2.9 2.7 2.3.9 4.8-.4 7.9-.6 26.2-1.7 56 8.2 81.8 8 4.6 3.4 11.2 3.4 16.2 2.6 1.6 1.6 6.5 2.6 5.2 2.8zm-19.3-12.3c-10.6-1.8-22.6-6.7-34.5-9.7-12.3-3-24-7.1-34.5-9.7-1.8-.4.6-1.7-1.2-2.1-6.5-2-20.8-1.8-20.6-11.3 1.2 1.9 1.5 4.1 3.1 5.9 14.2 4.9 28.9 4.2 41.3 11 1.7-.1.8-.8 2.5-.9 12 5.4 30.1 6.7 43.8 12.1 3.4 1.3 6.9 3.5 10.9 4.8 6.4 2 12.5 2.1 14 8.8-3.7-7.7-15.7-7.4-24.8-8.9zm25.2-20.3c-21.6-1.6-46-19.6-64.8-32.5 6.8 1.9 12.9 8.3 17.9 8.8-9.4-5.8-22.1-16.1-31-20.8-1.3-.7-3.5-1.6-4-.7-5.1-5.4-15.2-8.1-19.3-16.2 3.6.9 9.3 9.1 12.8 4.8.3-5.5-7.9-4.1-11.7-6.5 6.3-3.6 13.1 1.7 19 5.1 14.2 8 33.3 15.1 45.7 21.7-5-3.5-13-6.9-20.1-10.2 20.3 6.4 48 21.7 62.2 39.2-26.7-19-54.8-32.1-80.6-40.5 20 18.7 50.8 36.7 73.9 47.8zM72 317.5c-2.6-2.1-2.8-5.9-4.7-8.3-8.7-10.8-26.8-14.3-33-25.3 14.4 6 27 24.5 40.6 24.6 13.7 11.2 39.2 25.8 51 38.7-.6 1.6-3.3 4.3-4.3 5.5-16.1-10.1-35.3-23.4-49.6-35.2zm67.3-20.9c7.9 4 13.7 14.9 16.3 22.5-5.2-7.6-9-15.4-16.3-22.5z"/><path class="st1" d="M178.2 451c.2 1.3.2 2.9 1.3 3.4.9-1 .6-2.6.7-4 .2-4.5.6-9.2 1.1-13.1-.7.2-2.5 1.3-2.7.1-.1-.9 1.8-1.2 2.2-1.6 2.3-1.7 1.7-4.3 2.7-7.4.2-.8 1.2-1.2 1.8-2.1 1.2-1.9 2.7-6.2 1.6-8.7-1-2.3-4.4-1.6-6.5-3-1.6-1.1-1.6-3.4-3.1-4.7-1.4-1.1-4-1.3-5.7-.2-1.4.9-2.1 3.2-3.6 3.7-1.9.6-3.2-.3-4.7-.2-3 .1-5.8 2.6-6.2 5.1-.4 2.8.5 4.8 1.2 6.8.6 1.5 1 3 1.6 4.4 1.1 2.8 3.6 4.5 4.4 7.4-.2.3-.5.5-1.1.4 2 3.7 2.8 9.2 3.4 14.3.2 1.7.1 3.6 1 4.9 2-3.9.3-11.4 1-16.7.4-2.8 4.7-3 6.5-1.3 2.2 2.2 2.5 8.8 3.1 12.5zm-8.1-32c-1.6.2-3.2 1.4-4.3 2.3-.3.3-.6.8-1 .7.6-2.7 1.9-4.6 5.3-4.6-.2-1.8-1.8-2.2-2.9-3.1 1.7.4 3.2 1.1 4.4 2.1 1.5-1.2 3.2-2.2 6-2-1.6.9-3.8 1.3-4.5 3.1 1.4 1.7 3.4 2.7 3.7 5.4-.5.1-.8-.6-1.1-.9-1.3-1.1-3.2-3.3-5.6-3zm-.9 24.9c-.2 2.4.1 5.1 0 7.8-.1 1.7.1 6.2-1.7 6.1-1.1 0-1.6-2.5-2-4-1.3-4.8-2.2-9.9-3.6-14.5-.9-3-2.4-5.8-3.4-8.7-1-3.1-2.1-6-3-9.1v-2c.2-.7.4-1.6.8-2.2 1.7-2.9 4.5-5.3 8.6-5.3.7 0 1.5.3 2.2.1 1.1-.2 2.3-2.1 3.4-2.8 1.3-.9 2.6-1.2 3.8-1.4h1.9c3.2.4 3.1 4 5.3 5.3 1 .6 2.2.6 3.1 1 1.1.4 2.4 1.1 3 2.1 1.4 2.1 1.4 7.3.3 9.9-.5 1.2-1.6 2.1-2.2 3.4-1.6 2.9-2.4 7.2-3.2 11.3-.9 4.3-1.6 8.9-1.7 12.9 0 1.2.3 2.4-.2 3.5-2.4.3-2.4-2.4-2.9-3.9-1.1-3.5-1.9-6.8-3.2-10.4-.5-1.4-1.2-4-2.8-4-1.7-.2-2.4 3-2.5 4.9zm36-16.5c-3.3 2.8 3.1 10.3.3 14.4-4.3-10-5.8-26.1 2.5-29.3 2.7-1 5.9 2 9.3 2 5.1.1 10.6-3.2 16.1-5.1 24-8.5 53.6-14.9 69.5-8.2-25.8-3-54.4 5-84.8 19.8 4.8 2.5 1.1 3.4 6.3 4.1-.5-.5-1-1.1-1.7-1 .6-1.9 2.2 1.3 2.9 2.2-.1-3.4 5.5 3.4 10.2 2.5-1.7-1.6-8.3-2.7-7.1-3 3.1.1 5.8 1.6 8.8 2.2.3 1.2-1.2-.2-.8 1.2 2.1 1.4 1.9-1 3.1-.5 16.3 8.2 47.5 7.8 69.8 6.2-18.9 9.4-46.7 8.6-59.4 1.3-.6.1-.8.5-.7.8.2.1.3.1.5.2-.3.1-.4 0-.5-.2-8.9-4-23.3-6-34.7-10.5.6 6.4 1.3 12.8-2.7 16.5.4-5.1-.6-10.5 1.5-13.4-3.4 1.1-5.3-2.8-8.4-2.2z"/><path class="st0" d="M95.9 136.8c.5-.6.8-1.4.8-2.2 0-.6-.2-1.2-.5-1.6-.2-.2-.4-.4-.7-.5-.5.3-.8.8-1.1 1.4-.3.8-.5 1.9-.5 3v.8c.9 0 1.5-.4 2-.9zm-23.4-2.4c-.1.7-.1 1.4-.1 2v.1l.3-.4c.5.3 1 .5 1.5.5s.9-.2 1.2-.5c.3-.3.5-.7.5-1.3-.8-.3-1.7-.5-2.5-.5-.4.1-.6.1-.9.1zm23.5-7.8c-.7.1-1.4.3-1.9.6-.1.1-.1.3-.2.4l-.3-.1c-.5.4-.9.9-1.2 1.5-.9 1.5-1.3 3.6-1.3 5.7 0 1.5.2 3.1.6 4.4v-.3c-.1-.7-.1-1.4-.1-2 0-1.1.1-2.2.4-3.3l-.4-.1c.2-1.1.6-1.8.8-2.5l.2-.7.7-.2c.5-.1 1-.2 1.5-.2 1.4 0 2.6.6 3.4 1.5.8.9 1.1 2 1.1 3.1 0 1.3-.4 2.7-1.3 3.7-.9 1.1-2.3 1.8-3.9 1.8-.4 0-.8 0-1.3-.1l-.7-.2c.2.4.3.8.5 1.2.9 1.6 1.9 2.4 3.1 2.4 1 0 2.6-.7 4.6-2.8 1.8-2 2.5-3.9 2.5-5.7 0-2.2-1.1-4.4-2.6-5.9-1.5-1.1-3.1-1.9-4.2-2.2zm-15.4 6.2c-1.8-1.2-4.1-2-5.6-2.2-1-.1-1.8-.2-2.5-.2-1 0-1.8.1-2.3.3-.5.2-.8.5-1.1.9-.6.8-.9 2.4-1.1 4.9-.2 2.9-.8 6.7-.8 10.1 0 .7 0 1.3.1 1.9 1.3-.2 3.1-.4 4.6-.5.1-1.9.1-3.9.2-5.7v-1.2h3.8c1.9 0 3.8-.1 5.2-.6 1.4-.6 2.1-1.2 2.4-2.9v-.5c.1-1.6-1-3.1-2.9-4.3zm-3.6 5.1c-.8.8-1.8 1.2-2.9 1.2-1 0-2-.3-2.8-.9l.3-.4-1.4.4c-.1-.6-.2-1.1-.2-1.7 0-1.2.2-2.3.3-3.1l.1-.9.8-.2c.7-.2 1.4-.3 2.1-.3 1.5 0 3 .4 4.3 1l.6.3.1.6c0 .3.1.5.1.8-.2 1.3-.6 2.4-1.4 3.2zm20.4 56.9c-.5 0-1.1 0-1.5.1l-1.1.6v.7c0 1.3-.1 2.6-.3 3.8 1.3-.3 2.7-.5 4-.5h.7l1.1.1.1 1.1c.1 1.6.1 3.2.1 4.8 0 3.1-.1 6.1-.4 9.1h.2c.1 0 .3 0 .4-.1-.2-1-.2-2-.2-3.2 0-3.6.7-7.7 1.5-10.3l.3-.9 1 .1h.7c1.2 0 2.5-.2 3.9-.2-.2-1.2-.3-2.5-.4-3.8-3.3-.5-7.1-1.4-10.1-1.4zM91.9 166c-.1.1-.2.1-.4.2v2.7c0 1.4 0 2.7.1 4 .3 0 .5-.1.8-.1.4-.1.8-.1 1.1-.2 0-.9.1-1.8.1-2.7 0-1.6-.1-3.1-.4-4.6-.5.2-.9.5-1.3.7zm31.1 26.2c-.1 0-.1 0 0 0-.2.2-.4.4-.5.6-.3.6-.5 1.5-.5 2.3 0 .9.2 1.7.5 2.3.3.5.6.7.9.7.2 0 .6-.1 1.1-.4.9-.6 1.2-1.3 1.2-2.1s-.4-1.7-1-2.4-1.3-1-1.7-1zm-7.7-19.5c1.2 0 2.5-.3 3.8-1 3.1-1.8 4.2-4.4 4.3-7.3 0-2.4-.9-4.8-2.2-6.6-1.4-1.8-3.2-2.9-5-2.9-1.4 0-2.9.6-4.5 2.2l-.1-.1c-.4.5-.8.9-1.2 1.4-1.4 1.9-2.3 4.1-2.3 6.5 0 .5 0 .9.1 1.4.5 3.8 3.6 6.4 7.1 6.4zm-4-12.1c.3-.4.7-.6 1.2-.9.7-.6 1.5-1.1 2.4-1.5l.4 1.1c1 .2 1.8.7 2.5 1.4.9.9 1.6 2.1 1.6 3.6 0 1.6-1 3.3-2.9 4.3-.9.5-1.8.8-2.7.8-1.2 0-2.2-.6-2.8-1.5-.6-.9-.9-1.9-.9-3v-.6l-.5-.1c.3-1.4.8-2.7 1.7-3.6zm-10.6 16.1l-1.4.1.1-1.4v-1.3c0-4.8-1.8-9.6-2.1-14.9-1.9.3-4 .9-6.4 1v-.9h-.5c-.9 0-2 .2-3 .6.3 1.3.4 2.7.4 4 0 3.8-.9 7.5-.9 10.8v.8l.1 1.5-1.5-.3c-.4-.1-.8-.1-1.1-.1-1 0-1.3.3-1.6.7-.3.5-.5 1.4-.5 2.6 0 1 .1 2.1.2 3.2.5-.1 1.1-.3 1.6-.5-.2-.6-.3-1-.4-1.3l-1.1-1.8 2.1-.1c6.4-.3 12.9-1.5 19.5-1.8l2-.1-.8 1.8c-.1.2-.2.9-.2 1.6v1.1h1.2c.3-1.5.5-3.2.7-4.9-2-.3-3.8-.5-5.7-.5-.2.1-.4.1-.7.1zm-4.8-3.1v.8l-.8.3c-.6.2-1.4.3-2.3.5-.9.1-1.7.3-2.3.3h-.1l-1.1-.1-.1-1.1c-.1-1.8-.2-3.6-.2-5.4v-4.8h1.6l-.1-.2s.1 0 .1-.1c.1-.1.4-.2.7-.4.6-.3 1.3-.7 2.1-1.1l1.3-.5.4 1.3c.7 2.2.8 4.5.8 6.7.1 1.3.1 2.6 0 3.8zm37.4-.6c-.1-.6-.1-1.2-.1-1.7 0-1.7.3-3.2.5-4.9l.1-1 1-.1c1.6-.1 3.1-.1 4.7-.1s3.2 0 4.8.1l1.4.1-.3 1.4c-.3 1.4-.5 2.8-.5 4.3v.5h.7c.4-5.8 1.2-11.5 1.3-17.1-.2 0-.4 0-.6.1-.3 0-.7.1-.9.1-.4 1.8-.8 3.1-1.1 4.2-.4 1.2-1.1 2.2-2 2.8-.6.4-1.3.7-2.2.9-1.1.3-2.5.6-4.3 1.1l-1.9.5.4-1.9c.3-1.7.6-3.6.6-5.4 0-.4 0-.9-.1-1.3-.3 0-.6 0-.9.1l-.6.7c.2 1.2.3 2.5.3 3.9 0 4.5-1 9.4-2.1 13.1.7-.3 1.3-.4 1.8-.4zm-9.1 15.1c-.5 0-.9.1-1.4.2v.2c-.3 0-.6.1-.8.1-.9.4-1.9 1-2.9 2.1l-.4-.4-.3.3c-.9 1.2-1.4 2.8-1.4 4.4 0 1.9.6 3.9 1.8 5.4 1.1 1.4 2.7 2.4 4.7 2.4.9 0 2-.2 3.2-.7 3.7-1.5 4.8-3.8 4.8-6.1 0-1.9-.9-3.9-2.2-5.4-1.4-1.5-3.2-2.5-5.1-2.5zm1.6 11.6c-.8.5-1.6.8-2.4.8-1.4 0-2.4-.9-3-1.9-.6-1-.9-2.3-.9-3.5 0-.5.1-1.1.2-1.6l-.6-.2c.4-1.1.9-2 1.6-2.6.3-.3.7-.6 1.2-.7.4-.3.8-.5 1.3-.7l.1.4c1.4.1 2.6.9 3.4 1.9.9 1.1 1.6 2.5 1.6 4-.1 1.5-.9 3.1-2.5 4.1zm-12-32.6c.3 0 .8-.1 1.5-.5 1.4-.8 1.7-1.5 1.7-2.2 0-.6-.3-1.3-.9-1.8-.5-.5-1.3-.8-1.9-.8-.2 0-.3 0-.5.1-.8.9-1.3 2.2-1.3 3.2 0 .7.2 1.2.4 1.5.4.3.5.5 1 .5zm58 19.9c-.7 0-1.3.2-1.9.5-1.1 1-2 2.3-2.6 3.7 0 .3-.1.6-.1.9v.6c.2-.7.5-1.3 1-1.8.3-.3.8-.5 1.3-.5.7 0 1.2.4 1.6.7h.2v.1c.4.5.7 1 1 1.6.5 1.2.9 2.6.9 4 0 .9-.1 1.9-.7 2.7-.5.8-1.5 1.4-2.6 1.4h-.1c-1 0-2.1-.4-3.4-1.1.1.4.3.7.5 1 .6.9 1.4 1.4 2.6 1.4 1 0 2.4-.4 4.2-1.5.7-.4 1.5-1.5 2-2.9s.8-3.1.8-4.7c0-2-.5-3.7-1.2-4.5-1.1-1.1-2.3-1.6-3.5-1.6zm13.3.4c-1.2 0-1.9.3-2.8 1.3-.2.3-.6 1.3-.8 2.5-.2 1.3-.4 2.8-.5 4.5-.2 2.9-.2 6-.3 7.8.3.1.8.1 1.3.2.3 0 .6 0 .9.1.9-3.2.3-7.5 1.1-11.5l.2-.9h.9c2.9-.1 5.8-.1 8.5-.2.2-.9.4-1.9.4-2.8-.5.1-1 .1-1.5.1-2.8 0-5.5-1.1-7.4-1.1zm-14.7 10.9c.1-.2.3-.7.3-1.4 0-.8-.2-1.8-.5-2.7-.1-.2-.2-.4-.2-.5-.2.1-.4.2-.5.3-.1.5-.2 1-.3 1.8l-.7-.1c-.2.7-.4 1.5-.4 2.3.8.4 1.5.6 1.8.6.3 0 .4-.1.5-.3zm-19.2-11.1c-1.3 0-2.7-.1-4-.3-1.4 4.5-2.9 9.6-3.7 14.2l.3.5c.2-.7.3-1.4.5-2.1.7-2.3 1.5-4.5 3-6.2 1-1.1 2.3-1.9 3.9-1.9h.8l.3.8c1.2 3.2 1.6 6.3 3.2 8.7.9 1.4 1.5 2.2 1.8 2.6.3.3.1.2.8.3.5 0 1.3-.1 2.5-.2-1.5-5.2-4.3-10.7-5.8-16.5-1.2 0-2.4.1-3.6.1zm-41.9 15.1h-.7c-1.3 0-2.9.2-4.5.3-.6 2.4-1.2 5.8-1.2 8.7 0 1.5.1 2.8.4 3.8l.4 1.2-1.2.3c-.4.1-1.1.2-1.9.4-.8.1-1.4.2-1.9.2h-.1l-1.3-.1.1-1.3c.3-3.3.5-6.8.5-10.3 0-1.2 0-2.4-.1-3.5-1.6.1-3.2.4-4.5 1l-2.1.9.3-2.2c.3-1.8.6-3.6.6-5.5V195h.5l-1.2-1.2 1.7-.7c1.3-.5 2.7-.7 4.1-.7 3.9 0 8.3 1.2 11.4 1.4l1.1.1v1.2c0 2 .2 4.1.6 6l.4 1.6-1.4-.4zm18.3 2.1c-1.4.6-2.8.8-4.1.8-2.8 0-5.1-1.4-6.6-3.3s-2.3-4.4-2.3-6.9c0-2.1.6-4.2 1.9-5.9 1.1-1.4 2.7-2.5 4.8-2.9 1-.4 1.9-.5 2.9-.5 2.7 0 5.2 1.3 6.9 3.2 1.8 1.9 2.9 4.4 2.9 7.1 0 3.3-2 6.7-6.4 8.4zm1.1-30.3c1.3-3.4 2.6-9.2 2.6-14 0-1.8-.2-3.4-.5-4.7l-1.1-1 1.7-.8c1.2-.6 2.7-.7 4-.7h1.7l.2 1c.1.9.2 1.8.2 2.7 0 1.4-.1 2.7-.3 4 1.2-.3 2.1-.5 2.7-.7 1-.3 1.4-.6 1.7-1 .2-.3.4-.7.7-1.4.3-1 .6-2.3 1.1-4.3l.2-.6.6-.2c.6-.2 1.2-.3 2.1-.4.8-.1 1.5-.2 2-.2h.2l1.1.1v1.1c0 6.6-1 13.1-1.4 19.6l-.1.9-.9.2c-.6.1-1.2.2-1.8.2-.6 0-1.2-.1-1.8-.2l-.9-.2-.1-.9c0-.6-.1-1.1-.1-1.7 0-1.2.1-2.3.2-3.4-1.1 0-2.2-.1-3.3-.1-1.2 0-2.4 0-3.6.1-.2 1.3-.4 2.5-.4 3.6 0 .8.1 1.6.3 2.4l.3 1.2-1.3.3c-1.4.3-3.9.6-5.2.7h-1.8l1-1.6zM108.4 157c1.7-2.2 3.9-4.1 6.2-5.6l.8 1.1c.3 0 .6-.1.8-.1 2.8 0 5.2 1.6 6.9 3.8 1.7 2.2 2.7 5.1 2.8 8.1 0 3.6-1.6 7.3-5.5 9.5-1.6.9-3.3 1.3-5 1.3-4.8 0-8.9-3.5-9.6-8.5-.1-.6-.1-1.2-.1-1.8-.1-2.9 1-5.6 2.7-7.8zm.4 18l1.3.2-.2 1.3c-.4 2.2-.6 4.6-1.2 7.1l-.2.7-.7.2c-.7.2-1.4.2-2.2.2-.7 0-1.4-.1-2.1-.2l-1.3-.4.4-1.2c.1-.2.1-.9.1-1.7v-.9c-5.4.3-10.8 1.2-16.3 1.6.1.3.2.5.3.7l.7 1-1 .7c-1.4.9-3.5 1.5-5 1.5h-1.2l-.1-1.2c-.1-1.3-.3-3-.3-4.7 0-1.3.1-2.6.8-3.8.6-1.2 2-2 3.7-2h.1c.1-3.6.9-7.1.9-10.3 0-1.5-.2-3-.6-4.3l-.4-1.1 1-.5c1.6-.7 3.4-1.2 5-1.2.8 0 1.5.1 2.3.4l-.2.4c1.9-.3 3.8-.8 5.9-1l1.3-.1v1.3c0 5.3 2.1 10.5 2.2 16.3v.2c2.6.1 4.8.5 7 .8zM82 142.8c-1.9.7-4.1.8-6 .8h-1.4c-.1 1.9-.1 3.8-.2 5.7v1.2h-1.2c-1.4 0-3.8.3-5.4.5 0 .2.1.3.2.5l-2.3.9c-.7-1.7-.8-3.6-.9-5.7 0-3.6.6-7.5.8-10.2.1-1.9.3-3.5.8-4.9.5-1.4 1.5-2.5 2.9-3 .9-.4 2-.5 3.2-.5.8 0 1.8.1 2.8.2 2 .3 4.5 1.1 6.7 2.5 2.1 1.4 4 3.5 4 6.3 0 .3 0 .6-.1.9-.3 2.5-2 4.1-3.9 4.8zm19.8-.5c-2.2 2.4-4.3 3.6-6.4 3.6-2.4 0-4.2-1.7-5.3-3.7-1.1-2.1-1.6-4.7-1.6-7.3 0-2.5.5-5 1.6-7 .5-.9 1.2-1.8 2.1-2.4.2-.3.4-.5.7-.7.7-.5 1.6-.7 2.4-.7 2.2 0 4.4 1.3 6.3 3.2 1.9 1.9 3.3 4.6 3.3 7.6.1 2.5-.9 5-3.1 7.4zm-44.9-7.8c2.7 4 4.4 11 4.6 15.3v1l-.9.3c-.8.2-1.6.4-2.3.4-1.9 0-3.4-1.1-4.1-2.4-.6-1-.9-2.1-1.3-3.2-.9.2-1.6.5-2.1.7-.7.3-1.1.6-1.3.9-.6.7-.9 2.2-1.6 5.3l-.2.9h-.9c-1 0-2.5.2-3.9.2-.6 0-1.3 0-1.9-.2l.1-1.3-.6-.2c1.5-6.2 1.6-12.8 2-19.5l.1-.9.9-.2c2.7-.6 4.7-1.2 6.7-1.2 1.2 0 2.4.3 3.5.9 1.3.7 2.3 1.7 3.2 3.2zm-19.3 20.4c-.7.2-1.6.3-2.4.3-.9 0-1.8-.1-2.5-.3l-.9-.2v-1.1c0-3.5-1.3-6.8-1.9-10.6-1.5.1-3 .3-4.6.5.2 3.3.9 6.7 1.1 10.2l.1 1.2h-1.2c-.3 0-1.1.2-1.8.5-.6.2-1.1.5-1.3.6-.1.1-.2.1-.2.1-.1.1-.3.1-.4.1-.3 0-.6-.1-.9-.4l-1.5-.7c.5-.9.8-3.3.8-5.9 0-4.3-.7-9.5-1.4-11.6l-.3-1 .9-.5c.6-.3 1.3-.6 2.4-.8 1-.3 2.2-.6 3.5-.8 2.6-.5 5.5-1 7.5-1 .5 0 1 0 1.4.1.4.1.9.2 1.3.5 1.1 1 1.5 2.3 1.9 4 .4 1.7.6 3.6.8 5.6.3 4 .4 8.1.7 9.6l.2 1.1-1.3.5zm124.6 50.8c-2 .1-3.1.3-4.1.3-.9.1-1.9-.3-2.6-1-.6-.7-1.1-1.5-2-2.9-1.8-2.7-2.2-5.7-3.1-8.2-.5.2-.9.5-1.3 1-.7.7-1.3 1.9-1.8 3.2-1 2.6-1.6 5.8-1.9 7.9l-.1.7-.6.3c-1 .4-2.2.8-3.3.8h-1.2l-.2-1c-.1-.4-.1-.8-.1-1.2 0-1.1.3-2.1.8-2.9.8-5.8 2.8-12.2 4.4-17.4l.3-1 1.1.2c1.6.3 3.2.4 4.7.4 1.4 0 2.9-.1 4.3-.4l1.2-.2.3 1.1c1.5 6.3 4.9 12.5 6.4 19l.3 1.4-1.5-.1zm33.7-12.9l-.3.8h-.8c-2.8.2-5.7.1-8.4.2-.5 3.5.1 8-1.4 11.9l-.4 1-1.1-.3c-.2-.1-.8-.1-1.5-.2s-1.5-.1-2.3-.4l.7-1.7-2.1-.1c.1-1.4.1-3.9.3-6.7-.1.6-.3 1.1-.5 1.6-.6 1.7-1.6 3.2-3 4.2-2 1.3-3.8 1.9-5.5 1.9h-.1c-2 0-3.6-1-4.6-2.5-1-1.5-1.4-3.4-1.4-5.4 0-2.1.5-4.4 1.4-6.5.3-1.5 1-2.8 2-3.8.5-.5 1-.9 1.6-1.2.4-.4.9-.7 1.4-1.1l.3.4c.5-.1 1.1-.2 1.7-.2 1.9 0 3.9.9 5.4 2.6 1.1 1.3 1.6 3.1 1.7 4.9.1-.5.1-.9.2-1.3.3-1.4.6-2.6 1.3-3.6 1.2-1.7 3.1-2.3 4.7-2.3 2.7 0 5.3 1.1 7.5 1.1.8 0 1.5-.1 2.2-.4l1.5-.6.2 1.6c.1.5.1 1 .1 1.5-.1 1.5-.3 3.1-.8 4.6zm-161.3-54c-.3-1.4-.8-2.4-1-2.6 0 0-.1 0-.2-.1-.2 0-.6-.1-1-.1-2.6 0-7.6.9-10.4 1.7-.4.1-.7.2-1 .3.7 2.8 1.2 7.2 1.2 11.2 0 1.5-.1 2.9-.2 4.1.1 0 .2-.1.3-.1.5-.2 1-.4 1.6-.6-.3-3.3-1-6.7-1-10.3v-1.1l1.1-.1c2.3-.3 4.5-.6 7-.6h1.1l.1 1.1c.5 3.6 1.9 7 2.1 11.1H36c-.1-1.5-.2-3.5-.4-5.7-.2-2.9-.5-6-1-8.2zm16.3.7c-.3-.5-.7-1-1.2-1.4l-.3.6.3 1.2c.4-.2.8-.3 1.2-.4zm-5.9-5.7c-.3 5.9-.5 11.9-1.7 17.7.8 0 1.7-.1 2.5-.2.4-1.8.7-3.1 1.1-4.2.5-1.3 1.6-2.3 3-2.9.9-.4 2.1-.7 3.6-1.1l1.1-.3.3 1.1c.4 1.5.8 2.9 1.4 3.8.6.9.9 1.2 2 1.2h.6c-.4-3.9-2-10-4.1-13-.9-1.3-1.6-2-2.3-2.5-.7-.4-1.3-.6-2.2-.6-1.2 0-3 .4-5.3 1zm8.8 6l.5 1.2-1.2.4c-2.1.7-3.7 1-5.4 1.9l-2.3 1.2.5-2.5c.2-1.2.6-2.5 1.1-3.7v-.6c0-.6.1-1.3.2-2l.3-1.3 1.3.4c2.3.7 4.1 2.6 5 5zm499.6 122.4c-2-.4-1.8 2.3-3.6 3.2-2.6 1.3-6.2-.5-7.4-1.9-1.1-1.3-1.9-4.5-2.1-6.4-.4-4.5.7-9.8 1.7-14.5 1-4.8 1.2-9.8 1.9-14.7 1.3-10.1 2.2-20.9 2.3-30.7 0-1.9.1-4.7-.4-6.8-.2-1-.8-1.8-.9-2.8-.6-4-.4-8.3-.6-12.4-.4-8.9-1.3-16.5-2.6-24.1-1.4-7.9-2.6-15.3-4.3-22.6-.8-3.6-1.9-7.2-2.6-10.7-3-14.2-8.8-27.8-15.6-38.1-1.8-2.7-3.9-4.8-6.2-7.2-4.5-4.7-8.1-9.7-12.8-14.1-2.3-2.1-4.9-4-7.3-6.2-4.7-4.2-10.1-8.5-16.4-10.6-8.5-2.8-20.3-1.1-29.6-1.1-2 0-3.9-.6-5.7-.4-3.8.4-6.9 2-9.8 3.2-1.6.6-3 1.2-4.3 2.1-1.5.9-2.3 2.1-3.6 2.3-1.1 2.3-3 3-5.1 4.3-1.2.8-2.6 1.6-3.8 2.3-8 4.3-15.1 8.2-20.5 15.1-3.6 4.6-7 8.9-10.4 13.4-3.4 4.5-6.2 9.4-9 14.9-3.9 7.5-8.4 15.9-10.9 24.7-.9 3-2 6-2.8 9-.8 3.1-1.2 6.5-1.9 10-1.7 8.6-1 19.4-.4 28.3.1 1.4.5 4.9 0 4.9-1.1-.4-.6-1.8-.6-2.5 0-3.8-.9-6.6-2.8-9-1.4-1.7-4.1-3.9-6.4-4.5-9.2-2.3-16 4.8-19 9.8-8.2-.9-16.3.9-21.7 2.8.3-6.3 7-15 2.8-20.4-5-1.3-7.7 1-9.6 3.8-3 4.4-4.1 11.9-7.2 15.5-6.7-.4-8.3 4.3-12.1 6.8-.8-3-2.2-5.8-3.2-8.9-1-3-2.4-6.6-2.1-10 .2-2.1 1.6-4.8 2.6-7.2 2.1-4.8 3.6-9.3 4.9-14.7 1.1-4.5 3.1-9.2 0-12.3-7.5 0-11.8 6.6-15.3 11.7-1.1 1.7-2.6 3.2-3.2 4.7-.5 1.4.1 3.3-1.7 4 .6-2.6.6-7.2-1.7-7.7-2.5-.6-6.4 3.2-8.1 4.9-1.3 1.3-2.4 3.3-3.6 5.1-2.1 3.1-4.3 4.5-4.5 8.3-4.7 5-8.2 12.7-7.5 22.1.3 4.5 1.5 9.3 2.6 13.6 2.3 8.7 5.2 16.4 7.7 24.7 1.3 4.3 1.8 8.8 3 13.4-1.9 2.9-2.9 9.2-1.1 13-.6.8-.9 1.5-1.3 2.6-2 5.4-4.2 12.4-6 18.3-.6 2-1 4.5-1.9 6.2-.5.9-1.8 1.8-2.4 2.8-.9 1.5-1.3 3.5-2.3 5.3-7.1 13.3-11.3 29.5-13.6 47.7-.8 6.4-1.9 13.8-1.9 21.1 0 10.5-.2 19.8 5.8 24.9 3.2 2.7 8.3 4.7 14.1 4.1 1-1.7 2.5-1.4 4.9-1.5 5.6-.2 9.7-.6 14.3-1.7 3.5-.8 7.1-1.3 10.4-2.1 6.7-1.6 12.7-3.7 18.7-6 5.9-2.3 11.3-5.4 17-7.7 5.9-2.4 11.8-4.5 17.3-7.5.1 12.9 4.3 23.4 5.1 36 .3 5.4-.1 10.7-.9 15.7v.2c-.9 6-2.4 11.8-3.8 17.3s-2.9 10.9-4.6 16c-5 11.8-11.3 23.5-16.6 34.3h2.9c3.4-7 7.3-14.4 11-22h1.3c2.1-5.3 4.2-11 6.1-17 2.8-7.3 4.9-14.7 5.8-21.8.5-2.6 1-5.1 1.4-7.7 1.4-9.1 2.1-18.6.6-27.5-1.5-8.4-3.9-16.9-4.1-25.6.5-1 1.5-1.6 1.5-3 0-1-1.3-.6-1.3-1.5 3.5-7.1 9.8-11.4 13.6-18.3 3.2 5.6 7 10.7 10.2 16.4-1.9 3.6-7.3 7-6.8 12.1.1.6.6 1.2.9 2.1 1.1 3.1 1.6 4.4 3.2 7 8.5 13.8 17 27.7 26.3 40.5-.2.5-.4 1.1-.6 1.6-.1.2-.3.5-.4.9h.1c-7.7 21-14.2 42.7-20.8 64h2.7c6.6-21.4 13.1-43 20.9-63.9 0-.1.1-.1.1-.2 3.1 4.2 6.3 8.2 9.7 12.1 2.1 2.4 4.4 5.9 7.9 5.7-.1-2.1-1-3.8-2.1-5.3-.2-.3-.5-.6-.8-1 12.3 8.8 28.4 14.4 42 14.4h1.9c19.7-.8 32.6-8.3 44.3-18.6-1.8 2.8-3.3 5.3-4.3 6.7-10.7 14.9-16.3 32.4-17 50.1h2.6c.6-17.2 6.1-34.1 16.5-48.6 1.4-1.9 3.5-5.5 5.8-9.1.1 0 .1 0 .2.1 1.6-.4 2.5-2.1 3.8-3.2 2.6-2.2 5.2-3.9 7.4-6.2 15.4-16.4 24.4-39.2 29-66.2 2.6-4.1 1.1-11.1.8-16.6.1-1-1.2.3-.9-.6-4.1-11-10.7-20.3-16.8-28.7 2.6-1.3 4.9-2 8.5-1.1.4 1.1 1.1 1.6 1.5 1.9 2.1 1.5 6.9 2.8 9.2 3.2 5.1.9 9.1-.8 13.2-3.2 2.9-1.7 6-3.8 7.5-5.3 2.9-2.8 6.3-9.6 7-15.1 0-1.7.4-6.5-1.3-6.9zM421 51.7c-1.2 3-.7 7.1-1.5 10.9-2.1 1.9-3.3 4.7-4.9 7.2 1-5.9 4.2-11.1 5.5-17.3.3-.4.8-.4.9-.8zm25.7 76.5c2-1.6 7.5-3.7 10.6-4.5 1.6-.4 3.6-.7 5.5-.9 1.8-.2 4.3-.7 5.7-.6 1.9.2 3.9 2 6 2.8 2.3.9 4.6 1.4 6.2 2.6.6.5.6 1 1.1 1.5 2 2.1 5.4 3.5 7.2 5.8.5 2.8 2.1 5.1 3.4 7.4 1.3 2.3 2.2 4.8 4 6.8 1.3 4.1 3 10.4 4.7 14.9 1 2.8 2.2 5.8-.4 7-3.3.5-4.6-1.1-6-2.4-3.7 2.1-3.5 8.1-5.3 12.3-6.7 12.2-19.2 18.8-30.9 26-.5-.2-.8-.6-1.5-.6-6 2.6-11.9 6.3-21.1 5.7-3.8-.3-9-1.2-12.6-3-2.5-1.2-4.6-4.1-6.8-6-5.8-5.1-11.4-9.5-15.5-16.4-1.1-1.9-1.9-4.5-2.8-6.8-2.2-5.5-4-9.6-5.1-16.4-.5-3.5-2-7-2.1-9.8 0-1 .5-2.1.6-3.2.2-2-.2-4.1 0-5.8.1-1.5.7-3 .9-4.5.5-3.5.6-7 1.3-10.4.7-3.2 1.8-6.2 2.3-9.4 1.7-.4 4.2-1.6 5.7-2.8.6.3.9 1 1.3 1.5 2.9-.5 4.4.8 6.4 1.1.8.1 1.8-.2 2.8 0 1.4.2 3.5 1.7 4.9 2.5 1.8 1 2 1.7 3.6 3 .5.4 1.3.6 1.7.9 3.1 2.9 5.1 9 4.9 14.1-.3 6.5-4.3 10.4-6.2 14.9-3.7 8.5 3.7 10 11.3 10.9 4.6.6 9.1 1.7 13-.2 3-1.4 4.7-7.5 1.5-10.4-2.2 1-.5 3.7 0 5.3-2.8 4.3-10.8 2.8-17 1.9-2.8-.4-7.5-1.4-7.9-3.6-.4-2.3 2.8-6.2 4-8.7 2-4.1 3.5-7.6 3-13.6-.4-4.5-2.9-8.6-5.3-11.7-3.4-4.3-8.7-9.5-15.5-10.4-2.1-.3-3.8.5-5.5-.8-1.7 1-4 2.4-5.7 2.8.2-1.4.4-1.3-.4-1.7.7-6.8.6-15.3 2.3-21.3.5-1.7 1.7-3.3.9-5.3 4-4.1 7.7-8.4 11.5-12.6-.6 11.3 4.2 20.6 10.6 26.2 4.6 4.1 10.5 7.4 16.8 8.5-.3-1.5-2.7-2-4.1-3-1.4-1-2.7-2.2-4.1-3.2-2.8-1.9-6-3.7-8.5-6.2-4.1-4.1-8.5-12-8.5-19.4 0-1.3-.2-3.4.2-4.9.3-1.3 1.7-2.1 2.5-3.2 1.3-1.8 2-3.9 3.2-5.8-.5 10.4 1.7 19.1 5.5 26 .9 1.7 2.6 3.5 4 5.5 2.2 3.3 4.4 6 7.4 8.7 3.1 2.8 6 5.7 10.6 7.2.8-.2 1-1.4 2.3-1.5 1-.1 2.9 1.3 4.3 2.1 3.3 1.7 6.3 4.7 9.4 6-7.3 2.8-17.6 3.5-18.7 11.9 1-.3 1.3-1.9 2.4-2.8zm43.5 167.6c-8.3-1.2-13.7-4.2-22.1-6-3.9-.8-10.5-2.7-10.2 2.8.1 1.3 1.2 3.2 1.9 4.5 2 3.8 5 8.3 7.2 11.5-9.7 6-21 10.3-31.9 15.6-5.4 2.6-10.9 4.8-16 7.7-2.7 1.6-5.6 2.3-8.1 3.8-3.2 1.8-6.5 4.7-9 6.8 0-2.1 1.6-4.4 2.6-6.4 3.2-6 6.4-11.9 10.9-17 17.6-19.3 37.9-36.5 55.4-56-.7-1.2-.6-3.1-1.3-4.1-.2 0-.2.1-.2.2-17.4 18.5-36 35.6-53.7 53.9-5.9 6.2-10.2 13.5-14.3 21.5-3.9-24.4-8.4-54.1-3.8-80.7.8 3.7 1.7 7.2 3.2 10.2-3 4.2 1.5 11.3 5.8 7.5 1 .8 1.6 1.9 2.8 2.5 2.7-.2 5.4 2.2 8.3 1.1-.2 5.4 7.2 6.2 9 2.1 4 .2 6.6-.9 8.7-2.6 2 5.4 10.2 2.5 9.2-3.6 7.6-1.7 12.6-6.7 16.8-12.4 1.1-1.6 3.8-3.7 2.3-5.8-1.5.4-2.2 1.6-3.8 1.9-3.6 5.6-9 9.5-16.2 11.5-1.7-1.4-6-1.3-6.2 1.3-2.1.4-2.9 2.1-2.8 4.7-1.6-1.5-4.4-.1-7-.4-1.1-1.6-1.2-3.5-3.4-3.8-2.2-.3-3.8 1.5-4.7 3.4-2.5-1.8-7.9-2.7-9.8-3.4-.2-1.6.7-3.2.4-5.1-.6-3-4.5-4.8-7-3-1.1-2.3-1.7-5.6-2.3-8.7-.3-1.8-1.6-4.1 0-5.7.9-.1 1.8 1.7 2.8 2.6 1 .9 2.6 2.3 3.8 2.3 2 0 3.1-3 3.4-4.9.6-4.7-1.6-9.4-2.6-12.8.5-1.5-.1-1.8-.2-2.6 2.2-7.3 3.5-15.5 4.9-23.6.9-.1 1.7.8 2.3 1.3 2 1.9 3.8 4.3 6.6 5.8 6 3.4 16.3 4.9 24.9 2.6 6.8-1.8 12.8-6 18.5-8.5-2.4 11.4-3.5 22.7-2.6 34.1.3 4.4 1.7 8.5 3.4 11.5 1.8 3.2 4.5 5.5 6 8.7 1 2 1.2 4.1 2.1 5.8 1.6 3.4 3.7 6.6 6.4 9.2 2.6 2.5 5 5.3 8.5 7.2-.3 3.6.6 7.8 1.1 11.5zM380.3 325c-.4-.4-.5.1-.6.6-3.4-4.2-6.2-8.6-9-13.4-3.2-5.4-5.1-11.8-8.5-16.8-2.6-7.6 1.4-13.8 3.8-20.2 1.8-4.8 3.3-9.4 4.7-14.1 1.5.1 2.7-.5 3.8-.2.6 4.6 3.2 7.3 4.3 11.3-1.6.2-2.8 1.8-4.9 3-3.6 2.1-9.8 2.7-8.7 8.3.3 1.5 1.6 2.3 2.6 3.4 0 .6-.1 1.4.2 1.7 8.7 11 16.5 24.3 21.7 39.8.8 2.5 1.6 5.1 2.5 7.7.7 2.5 1.9 6.4 2.1 7.9-3.9-5.1-8.3-9.8-12.1-15.1.5-1.4-1-2.7-1.9-3.9zm-5.6-92c1-.7 1.4-2.3 3-2.3.6.7-.2 2.4-.2 3.4-.2 8.6 5.6 14.8 14.7 14.7-1.6 3-3.9 5.1-7.4 6.2 0-.6.4-1.1.9-1.7-2.9 1.8-6.3 2.2-9.7 1.6-1.3.4-2.6.4-4.2-.2.1-7.5-3.1-11.6-5.3-16.8 2.2-2.2 5.6-3 8.2-4.9zm-9.8 1.9c-1-1.4-1.9-2.9-2.8-4.3.9-1.9 1.7-3.8 2.3-6 2.3 1.4 4 3.4 6 5.1-1 2.6-3.6 3.6-5.5 5.2zm24.3 3.6c1.1-.1 1.5-1 2.1-1.7 2.1 1.1 4.1 2.3 5.5 4.1-.5.6-.9 1.4-1.1 2.3-8.9 1.1-15.2-3-14.1-11.9 2.6.6 4.4 2 6.6 3-.2 1.8-.4 3.8 1 4.2zm-1.7 73.9c-2.3-5.7-5.1-10.8-8.1-15.8-3-4.9-7-9.1-9.4-14.3 3-.7 5.1-2.9 7.7-4.3 2.5-1.4 5.5-1.1 5.7-4.5.1-2.1-1.4-4.4-2.3-6.4-.9-2.1-1.9-4-2.6-6 2.2-.2 4.1-.5 5.8-.9 2.9-.8 4.8-2.7 7.5-3.6.5-.9 1-1.7 1.5-2.5.2 0 .1.2 0 .2-.9 7.7-1.7 15.5-1.7 23.8 0 25.2 6 46.8 7.5 70.5-3.8-12.6-7-25-11.6-36.2zm16-46.4c.4-2.6 3.5-1 3.2.6-.3 1.9-2.5.4-3.2-.6zm18.5 8.5c0-1.1 1.6-1.2 2.3-.6-.4.7-1.7.8-2.3.6zm16.6-3.2c.6-.6 2.5-.9 3 0-.3 1.5-2.5.9-3 0zm-34.5-30.6c.6-.7.7-1.8 1.5-2.3.5 1.8 1 3.5 1.5 5.3-.9-.3-2-2.1-3-3zm67.5 12.9c-3.2-3.3-4.8-8.3-5.3-14-1-11.9 1.1-23.6 3.2-34.3 11.2-6.9 20.6-15.6 24.5-29.8 3.3 1.4 7.5.5 9-1.9.2 0 .2.1.2.2-.1 4.2 1.3 7.8.9 11.7-.2 1.8-1.1 4.7-1.7 6.8-.6 2.2-1.3 4.4-2.1 6.2-1.5 3.8-3.5 8-6 11.3-7.3 9.6-14.8 19.9-18.8 32.6 0 .9-.7 0-1.1.2-.3 4.3-2.7 6.5-2.8 11zM361.1 146.1c.2-2.6 1-5.4 1.5-8.1 1.4-7.5 3.2-13.9 5.5-20.5 1.3-3.9 3.6-7.3 5.3-10.9 1.8-3.8 3.3-7.6 5.3-11.1 5.7-10 12.6-20.8 20.2-28.7 5.6-5.8 12.9-9.3 20-13.6-1.7 6.4-5.3 12.6-6.8 19.8-6.3 7.9-15.3 13.1-18.7 23.9-.1.7.9-.1 1.3.4-1.9 7.3-1 14.3-1.7 21.5-.6 6.3-3.5 12.2-4 18.7-.1 1 .1 2 0 3-.2 1.8-.9 3.6-.9 5.5-.1 1.5.3 3 .2 4.5-.1 1.2-.5 2.4-.6 3.6-.1 2.4.7 4.9 1.3 7.5.6 2.5.8 5.1 1.3 7.4 1.1 4.9 3.1 9 4.7 12.8 1.8 4.5 3.1 8.4 5.7 11.9 2.4 3.3 5.1 6.3 8.5 8.9-1.1 7.8-1.8 15.9-3.4 23.2-1.1-5.8-3.8-10-6-14.7 2.7-6.2 1.2-13.4-1.9-18.1-1.4-2.1-3.1-4.4-5.1-5.1-1.7-.6-4.9-1-7.2-.4-1.2.3-2.1 1.5-3.6 1.3-1.6-.2-3.4-2.2-4.9-3.2-1.8-1.2-3.2-2.6-4.3-3.6h-.2c-.2.3-.5.4-.9.3-.4-.1-.7-.2-1.1-.4-.3 0-.6 0-.8-.1v-.1c-.4-.1-.9-.3-1.3-.4-.2-.1-.4-.2-.5-.4-2.1-1-2.8-2.8-4.5-4.5-.8-.8-1.4-.7-1.7-1.5-.6-1.9-.1-5.1-.2-7.4-.1-5.8-.9-15.3-.5-21.4zm17 59.4c-1.7-3.4-1.3-9.4 1.5-11.1 2.4 1.9 4.5 4.1 6.4 6.6-.8.6-1.2 2.9-.2 3.6 1.1.1 1.9-.3 2.6-.6 2.2 1.9 3.9 4.3 5.1 7.2-5.7 2.3-13.2-1.2-15.4-5.7zm4.1 10.4c-2.6-.1-5.3-1.7-6-4.3 1.6 1 3.5 3.5 6 4.3zm-20.7-11.2c0 .4 0 .8.1 1.2.3-.8.5-1.6.8-2.4.7-6.3 1.1-12.5 1.7-18.8 0-.5.4-.8.8-.9 0-.2-.1-.3-.1-.5.9.5 1.8 1 2.8 1.5v.4c.2-.1.5-.1.7.1.5.3.9.6 1.3.9.3.2.5.4.7.7 2.2 1.6 4.3 3.2 6.6 4.8-2.5 2.8-4.9 5.7-5.5 10.4-.2-.3-.3-.7-.4-1.1-.1.5-.1.9-.3 1.4-.1.5-.1.9-.2 1.4v2c.4.8.8 1.6 1.3 2.2.6 3.3 1.9 5.7 4 7.5l.1.2c.6.4 1.3.7 2 1 .5.2.7.7.6 1.1.9-.1 2 .2 2.5.3.3.1.5.4.6.6 4.9 1 10.5-1.5 14.2-3.5 2.2 4 4.5 7.9 6 12.6-2-4.5-9.4-10-16.8-7.9-1.7.5-3.6 2.2-3.8 4.5-.2-.4-.4-.9-.5-1.3-.5.7-1.1 1.4-1.7 2 0 .3.1.5.1.8-1.3.1-2.5.4-3.4.9-3.6-3-7.1-6.2-10.7-9.2v-.1c-1.3-1-2.8-2-4.4-2.5-.3-.1-.6-.3-.6-.6-.2-1 0-1.5.4-2.1v-.1c-.5-2.3.9-5.1 1.1-7.5zm12.2 1.7c-.1.3-.2 0-.2-.2-.8-.6-.7-2.1-.8-3.4.4.5.5 2.8 1 3.6zm-31.8-32.2c.1.9.4 1.5.9 1.9 1.6.3 2.1-.5 3-.9 2.4.8 5.2 1.3 7.2 2.6-4.8 6.2-18.4 3.5-19-4.7 2.8.1 5.1.9 7.9 1.1zm4.9 12.4c3.6-.7 6.7-3.2 8.7-6-.5 5-6.9 8.6-13.9 7.7-6-.7-10-6-11.1-11.3 1.8 5.6 8.6 11.2 16.3 9.6zm-17.9-14.1c-2 8.8 4.7 17.3 11.7 18.3 3.9.6 8-.4 10.6-1.7 3.7-1.8 5.1-5.7 6.6-9.4 2.3.5 1.6 2.9 1.7 4.7.2 3.8 1.2 8.1 1.1 11.9-.1 5.8-3.8 10.7-3.8 16.2-1.3-.7-.4-2.7-.6-4.7-.4-5.4-4.4-10.5-9.4-11.5-2.1-.4-5.7-.7-8.5-.2-4.2.8-7 4.8-8.3 9-2.4.1-4.5.6-6.2 1.5-2.9-2.7-5.8-6.2-11.1-6.2-8.4 0-17.2 8.7-16.8 18.9 0 1.2.6 2.3.6 3.2-.1 1.2-1.3 2.5-1.7 3.8-.8 2.3-1.1 4-1.1 7-4.1 1.5-8.8 6.4-9.8 10.7-1 4.7 1.4 9.6 4.1 13 2.7 3.4 6.5 5 10.7 5.8.7 6 4 9.6 6.4 14-3.2 2.1-7 3.7-9.4 6.6-2.3-4.3-11.9-5.3-16-2.3-4.1-9.1-8.3-18-8.5-30.9 6.2-2.9 11.7-10.6 9-20-.2-.8-.9-1.7-.9-2.6-.1-1.4 1.6-6.2 2.5-7.7.6-1 1.5-1.7 2.3-2.6.8-1 1.2-2.3 1.9-3 2-2.3 3.9-3.8 5.5-6s2.8-4.5 4-7.4c4.7-1.1 8.1-5.3 9.4-10.4 1.2-4.7 2.5-10.1-.2-14.1 6.1-3.2 15-5.4 24.2-3.9zm-7.2 94.6c-1.4 1.8-2.8 3.5-4.3 5.1-2.4-4.7-5-9.2-7.4-14 1.3-1.5 1-3.6 1.3-5.7.3-1.8 1.5-3.5 1.7-5.1.7-5.6-1.6-10.7-4.7-13.2-.7-.6-1.8-.9-2.3-1.9 4.3-.4 7.7-.9 10.7-3 5.8-3.9 10.5-9.4 8.1-19.6 1.5-.2 2.8-.6 4.5-.6.9 8.3 4.7 13.5 12.8 14.5.8.1-.5.9-.6 1.3-.7 1.7-1.8 3.1-2.3 5.1-.6.5-1.3.8-1.7 1.5-4.6.6-7.1 3.2-9 6.4-3.8.9-6.8 2.6-7.7 6.4-3.1.5-5.2 4.5-5.7 7.5-.6 5.9 3.9 12.8 6.6 15.3zm-1.1 48.1c0 .6-.3.9-.2 1.7 1.2.8 2.8 1.2 2.6 3.4-.9.8-3.1.7-4.1.6-4.9-.7-8.4-4.1-11.9-7-3.6-3-7.4-5.6-10-8.7 3.2-4.4 3.5-14.1.6-19 3.3-2.3 7.1-4.1 10.2-6.6 1.7 1.4 3.1 3.1 4.5 4.7-3.1 13.4 3.2 23.2 8.3 30.9zm-15.7-56.9c.8-.3.7.3.9.6-2.6 1.6-5.5 1.6-8.9 1.1 3-.3 6.4-.1 8-1.7zm-7.1-43c.2 0 .1.4.4.4.3 3.8 1.6 6.8 3.2 9.2.6 1 2.1 1.7 1.9 3-.5.2-1.9-.9-2.6-1.7-2.4-2.3-3.7-6-2.9-10.9zm7.9 23.6c3.8 1.6 5.7 9.3 2.1 12.4-1.9-3.4-1.5-7.8-2.1-12.4zm10.3-24.2c1.1-1.5 3.1-2.1 4.5-3.2 4.8 8.2-3.5 15.7-12.3 12.4.8-2.4 2.8-3.8 4-5.8.6.2.8.9 1.3 1.1 1.9-.4 3-2.4 2.5-4.5zm21.7 1.9c-2.4-1.9-3.3-4.9-4.5-7.4 3.3.2 5.9 1 8.5 1.9.3.9.5 1.8 1.5 2.1 1 .2 1.1-.7 1.9-.8 1.7 1.4 4.1 1.9 6 3-2.6 3.7-9.9 3.9-13.4 1.2zm16.4.8c1.5.6 2.8 1.3 4.2 2.1v2.7c.3.4.3 1-.1 1.3 0 .7-.1 1.3-.3 1.9-1.5-.6-2.5-1.6-4.7-1.5-.2-1.3-1.1-1.9-2.8-1.7 1.3-1.5 2.9-2.8 3.7-4.8zm-63.5 92.3c-4 3.4-14.5 2.4-18.5-1.1-4.5-4-6.2-12.3-2.1-17.3-3.2 12.1 7.3 20.5 20.6 18.4zm-19.8-76.5c.2-2 .5-3.9.6-6 5 1.7 8.3 9.2 4.7 14-1.2 1.6-3 2.4-5.1 3.4-.5-2.9.2-4.6-.2-6.6 1.3-.9 2.1-4.3 0-4.8zm1.9-11.7c2-8.5 6.1-16.4 10.2-23.4 2.1 1.9 4.3 3.7 8.5 3.6-4.6 7.6-12.3 12.2-14.5 22.2-.5.5-1.2-.8-1.9-1.3-.8-.5-1.8-.6-2.3-1.1zm15.1 70.5c-.5-.2-1-.2-1.5 0-1.3-2.5-2.9-4.5-4.3-6.8 7.4-2.4 14.1 3.1 14.7 10 .3 3.2-1.1 4.5-2.3 6.6-2.6-2.9-5.5-5.4-6.6-9.8zM303 158c1.2-1.6 2.9-2.9 6-2.1-1.5 4.1-3 8.6-4.1 13.4-.4 1.5-.3 3.2-1.7 4.1-1.9-.9-2.5-3-5.1-3.2 1.8-2.9 2.7-9.2 4.9-12.2zm-9.6 28.8c1.2-.8 2.1-1.8 2.1-3.8 1.4-1.5 3.3-2.5 4.7-4 7.9 6.4-3.8 16.5-11.5 11.3 1.4-1.3 2.3-3.6 4.7-3.5zm-8.3 8c4.7 3.4 13.4 3.2 16.6-1.5-.8 2.3-3.3 4.4-6.2 5.1-.5.4-.5-.6-1.1-.6-1.1.1-1.2 1.2-2.1 1.5-3.9.2-6.1-1.3-8.1-3 .2-.6.6-1 .9-1.5zm-2.2-2.3c-.3.5-.5 1.1-1.1 1.3-.7-1.5-2.8-3.5-1.5-5.3.7 1.5 1.4 2.9 2.6 4zm-3.6-6.8c-.1-1 .4-3 .8-4.1.3.5.3 3.8-.8 4.1zM242.1 174c-.5-7.9 2.6-14.2 7.2-17.7 2.4 2.4-.2 5.5-1.3 8.1-1.1 2.6-2.8 5.9-2.6 8.9.1 1.6.7 2.9 1.5 4.7.7 1.5 2.2 5.6 4 2.6 2-3.3-1.9-5.4-1.9-9.4 0-2.4 1.8-5.5 2.8-7.9 1.7-3.9 5.2-10.2-.6-11.9 2.3-4.1 5.1-7.7 9.4-9.8 1.1 9.8-9 20.8-5.8 32 .6 1.9 1.4 3.6 3.2 4.7 1.6-.6 2.2-2.3 1.9-4-.2-1.6-2-2.9-2.3-4.3-.2-1-.1-2.1 0-3 .4-5.5 3.4-10.8 4.5-16 3.2-3 6.8-5.6 10.7-7.9-2.9 6.4-11.4 12.8-9.8 21.7.2 1.3 1.2 5 2.8 5.1 4.1.3.5-6.4.4-7.5-.2-1.7.4-3.4 1.1-4.7 2.2-4.5 7.4-9.6 9.2-14.3.7-1.8 1.1-4.2.2-6.2-2.5-.6-4.5.9-6 1.9 2.2-4.3 5.4-9.2 11.5-10.2-.5 5.7-2 10.7-4 15.8-1.8 4.9-5 9.4-4.9 14.9.2 7.3 4 13.5 6 20-1 2.1-1.9 4.3-1.9 7.4-8.1 9.7-15.8 19.7-18.9 34.5-1.7.7-3.3 2.5-4.3 3.2-1.7-17.9-10.8-32.2-12.1-50.7zm9.5 58.6c1.2-5.1 5.9-9.5 11.5-10-4.4 3.5-9.5 8.9-8.7 17.3.3 2.6 1.9 5.3 2.8 6.2-3.6-2.7-7.2-7-5.6-13.5zm-5.5 31.3c1.9-6.2 4.8-13.6 6.4-19.2 1.5 1.5 2.7 3.2 4.7 4.1-.1 11.5 3.8 20.7 6.6 30-7.8.5-14.6-1.4-17.9-5.3-2.4-2.8-1.1-5.1.2-9.6zm82.8 70.5c-2 2.9-4.9 4.8-5.1 9.4-4.8 2.7-10.6 4.9-16.4 7.4-5.4 2.3-10.7 5.1-16.4 7.4-5.8 2.3-11.6 4.5-17.7 6-6.4 1.6-13.2 3.1-20 3.8-7.2.7-18.2 1.3-23-2.5-3.8-2.9-4.9-8.7-4.9-15.5 0-2.1 1.2-4.8-.9-5.5 1.6-27.2 6-51.6 16.6-69.8 4 7.1 13.8 10.3 25.3 8.7.8 2.1 1.8 4 3 5.7-4.4 4.4-3.8 15.3.6 19.2-2.6 5.1-3.6 11.5-6 16.8-1.4 3-5.1 6.2-2.8 9.4 2.5-1.1 3.5-3.9 4.7-6.2 1.3-2.4 2.4-5.1 3.2-7.7 3 3.9 4.1 9.6 7.4 13.2 3.9-1.6 1.3-6.8-.4-10.4-1.7-3.7-2.7-6.7-4.9-9.1.4-1.1.6-2.5.9-3.6 3.4 2.4 9.7 3.8 15.5 2.6.3.4.2 1.3.6 1.7 4.4 4.3 8.9 8.8 15.6 11.3 1.8.7 3.7.6 5.7.9 1.9.4 4.1 1.3 7.2 1.3 2.8 0 5.6-.5 8.5-1.1.5-1.9 2.5-4.2 1.7-7-.3-.9-1.2-1.2-1.7-2.1-1-1.8-1.5-5-2.5-7-1.2-2.4-2.7-4.7-4-7.2-1.6-3.2-3.6-6.6-4-10.7-.2-2.8.1-4.9.4-7.4.9-6.9 3.9-11.6 8.5-16.4.2 0 .2.1.2.2 0 1.9.8 3.6 1.1 5.5.9 4.7.2 9.8.6 14.7.5 6.4 3.1 11.7 5.8 15.8.5.5-.6.5-.8.9.7 1.1 1.8 2.1 2.8 2.3 2.2 3.3 4.5 6.5 6.6 9.8-3.2 6.1-7.4 10-11 15.2zm14.3-17.1c-2.6-3.9-5.7-8.5-8.5-13-2.8-4.6-5.8-9.5-6.2-15.3-.6-7.3.4-15.5-1.5-22.2-.2-.6-.6-1.4-.9-2.1-2.5-4.3-7.8-8.2-6.8-14.9 5.3-1 7.9 4.7 12.4 5.1 1.3-1.1-.6-2.5-.9-3.6-.2-.8 0-1.5-.4-2.3-1.2-2.6-4.6-2.9-6.2-4.7.7-.5 1.4-1.4 2.3-1.3 5.4.2 10.7 5.3 14.9 7.2 1-.2 2.1-.4 2.8-.9 0 0 .1 0 .1.1.1-.1.2-.3.3-.4.7-.4 1.3-.9 2-1.3-1.6-1.2-3.1-2.4-4.6-3.7-.5-.3-.9-.7-1.4-1 .1.1.1.3.2.4-3.1-1.4-5.4-3.7-8.9-4.7 1-2.2 5.3-2.7 7.7-1.3v.2c.1 0 .2 0 .4.1 1.2.6 2.3 1.2 3.5 1.7 3 1.3 6.3 2.3 9.2 3.7.7.2 1.3-.7 1.5-.4v.4c.4-1.5.8-3 1.2-4.6-.5-.2-1.3-1.1-1.8-1.3-3.1-1.3-9-2.6-11.3-4.7 1.1-1.7 3.1-2.5 5-3.4.2-.4.5-.7 1.1-.6l.9.3c2.1-.2 5.3 1.9 6.9 3.7.1 0 .2-.1.3-.1 4.1 6.2 8.9 11.7 11.2 19.8.1.1.2.3.2.5v.5c.2.7.4 1.3.5 2.1-.1 0-.3-.1-.4-.2 0 1.9-.3 3.7-1.1 5.4.2.1.4.1.6.2-1 4.7-3.1 9.2-4.9 13.9-2.7 7.1-6.6 16-2.3 23.6.5 3.6 2.1 6.8 3.8 10 4.1 7.7 8.2 15.4 13.4 21.7-4.7 6-11.7 9.6-17.9 14.1-5.5-9.1-10.5-17.6-16.4-26.7zm6 31.1c1.3-2.4 3.4-4 4.7-6.4.8 1.2 1.7 2.5 2.3 4-2.2.9-3.8 2.4-7 2.4zm86.9 78.1h-1.8c-19.6.1-45.9-12.7-54.9-29.2l-.6.3c-9.9-14.3-18.9-29.3-27.9-44.6 2.1-1 4.5-1.8 6.4-3 1.1-.7 1.8-1.7 2.8-2.3 2.6-1.4 4.5-2.6 6.8-4.1 4.8-3.2 9.3-6.7 12.6-11.1 8.4 9.6 15 19.6 25.1 27.9 7 5.7 15 11.7 21.7 18.1 3 2.9 6 5.3 7.7 8.5 3.4 2.6 6.3 5.6 9.2 8.9 5.9 6.5 11.7 13.4 17.2 20 .9 1.1 1.9 2.9 3.5 3.3-7.7 4.2-16.6 6.8-27.8 7.3zm73-127.5c3 3.9 5.2 8.3 7.9 12.6 2.8 4.6 5.1 9.2 5.3 15.3.2 5.7-1.7 11.3-3.2 17.5-3.9 15.9-10.3 31.1-18.8 42.8-.5.7-1.1 1.4-1.6 2.2-11.9 11.6-21.5 22.4-34 29.4.6-3.2-2.4-6-4.2-8.2-6.4-7.5-13.3-15.3-19-22.4 2.3.7 4.2 1.7 6.4 2.8 2 1 4.1 2.6 6 3.2 2 .6 4.3 1.1 6.4.9.9-1.5-.8-2.6-1.7-3.4-.9-.9-1.8-2.2-2.6-2.8-2.1-1.6-5.2-2.7-7.9-4-2.9-1.3-5.9-2.4-9.1-2.8 3-1.5 6.6-2.9 11.3-3.2 4.8-.3 10 .5 14.3 0 1.2-.1 2.8-.7 4.1-.9 1.5-.3 3.1-.2 3-2.1-.6-.8-1.8-1.1-2.8-1.3-1.7-.5-3.2-1-4.9-1.1-9.6-.8-21.4.7-26.6 4.9 0-.2.2-.2.2-.4 5.6-5.6 9.7-12.5 15.1-18.3 10.6-11.3 21.1-22.9 34.3-31.3 5-3.2 10.7-5.9 15.5-9.2 1.5-1 3.9-2 4.2-4.1-7.1.9-11.5 4-16.8 7.2-10.3 6.2-19.6 13.7-27.1 21.9-5.2 5.6-10.7 11.2-15.6 17-5.2 6.1-9.4 12.5-13.6 19.2-7.4-8-17.2-16-26.2-23.2-1.3-1-3.4-2.5-3.8-3.4-.2-.5 0-1.5-.2-2.3-.3-1.4-1.1-2.3-.9-3.2.2-1.3 2.5-2.7 4.1-3.8 1.9-1.2 3.3-2.6 4.7-3.4 2.1-1.2 4.4-1.9 6.4-2.8 2.2-1 3.9-2.6 5.7-3.6 3.6-2 8-3.4 12.1-5.5 3.8-1.9 8.1-3.8 12.3-5.5 6.2-2.5 11.6-5.7 17.7-8.7 1.9-.9 5.1-2.1 5.8-3 2.1-2.7-.1-5.1-1.1-7.2-1.8-3.7-4.7-7.2-5.8-10.2 4.8.6 9 1.8 13 3.4 5.1 2 10.9 3 16.2 4.3 3.8-4.1-2.2-10.8-.8-16.2 2.4.4 3.9 1.8 6.8 1.9 3.6 3.6 6.6 7.3 9.5 11zm41.6-28.7c-1.5 5.9-6.2 10.5-11.1 13.4-4.4 2.6-10.1 4.5-15.3 2.1 2.8-2.4 6.4-4.2 6.6-9.2-2.2-2.2-3.6 2.2-6.4 3.8-4.2 2.4-12.1 1.5-17-.6-2.5-1.1-3.7-5.5-5.3-8.1-5 2.1-.3 9 .9 11.1-2.1 0-3-1.3-4.5-1.9-1.1.1-1.7.8-2.5 1.3-9.8-2.9-15-10.4-19.6-18.5.2-1.2.7-2 .6-3-.2-1.5-2-1.5-2.6-3-.6-1.5.3-2.4.2-4.5.1-.6 1.1 1 1.9.9 2.6-1.9 1.3-5.2 1.7-9 .4-4 3-9.7 4.7-13 .9-1.9 2.3-3.7 3.4-5.5 3.3-5.5 6.6-10.4 10.7-15.6 3.1-3.9 5.7-7.7 6.6-13.2.7-1.5 1.4-3.3 1.9-5.1.8-2.9 1.5-5.4 1.3-9.6-.1-1.7.1-3.4 0-4.9-.3-2.6-1.1-5.2-.9-7.4.1-.8.7-1.9.6-2.6-.2-.8-.8-1-1.3-1.5-.8-5-3.4-8.7-4-13.6-.2-1.3.1-3-.4-4.3-.6-1.9-2-3.5-2.8-5.5-1.1-2.5-1.1-5-2.1-7.2-.9-2-2.4-4.1-3.8-5.7-.8-.9-2.1-1.4-2.8-2.3-1.4-1.7-1.9-4-3-5.8-1.8-2.9-4.6-4.8-6.4-7.5.1-.4 1.5.5 1.3-.6-.5-2.2-2.9-1.9-4.3-3-1.5-1.2-1.8-3.4-2.8-5.1-.6-.9-1.7-1.4-2.5-2.3-2.6-2.9-4.3-7.1-7.2-9-.6.7.7 1.2 1.1 1.9.9 1.6 1.7 3.8 2.6 5.8.9 1.9 1.9 3.8 2.8 5.5-9.6-5.8-18.8-11.9-27.3-18.7-1 1.8 1.1 3 2.1 3.8 8 6.8 18.1 12.7 27.3 18.1.9 1.7 2 3.3 4 4-12.5-3.7-22.4-11.7-32.6-18.3-.8 1.7 1 2.8 2.1 3.6 3.4 2.5 7.2 4.9 10.9 7.2 4.8 2.9 10.3 6.7 15.6 8.5 2.3.8 4.5 1.1 6.4 2.6 1.1 2.5 2.7 4.6 3.6 7.4-3-1.4-5.8-3-8.9-4.3-.4-.6.9-.8.8-1.7-.5-.5-1.2-.7-1.3-1.5-1.8-.9-4.4-.1-6.6-.4-2.5-.3-4.7-2.8-7-3.8-1-.4-2.2-.4-3.2-.8-4.3-1.5-9.5-4.7-13.2-7.2-4.2-2.8-7.5-6.3-10.2-10-3.8-.4-5.3-5.6-6.8-9.1-1.4-3.2-3.1-5.9-4-9.2-1.6-6.4-.6-13.6-.8-20.4.2-.9-.9-.5-.6-1.5.4-2 1.3-3.4 1.9-5.3 3.5-2.1 6.2-3.9 10.9-5.3 3.2-.9 5.3-1.1 8.9-.9 5.7.3 10.9-1.1 16.4-.8 2.9.2 8.4.5 11.3 1.1 6.3 1.4 11.6 5.2 16.2 9.2 6 5.3 12.3 10.4 17.5 16.4 1.3 1.5 2.2 3.3 3.6 4.7 3.8 4.1 8.1 8.5 10.9 13.9 3.7 7.2 7.2 14.8 10 23.2 2.8 8.3 3.8 17.8 6.2 27 1.2 4.5 2.3 8.9 2.8 13.8.5 4.8 1.8 9.5 2.3 14.1.3 3.3.6 6.8.8 10.2.2 4.5.6 9.1.6 13 0 5.7.5 11.5.2 17.2-.4 8.3-1.5 16.8-2.1 24.9-.8 10.5-5.2 22-1.7 31.9 1.6 4.6 6.7 8.4 12.4 5.5.6.1.5.2.3.2zm-25-17.7c-.3 0-.3-.3-.6-.4-1.1 2.1 1.1 5.3 2.3 7.4 1.3 2.2 2.2 4.5 3.8 5.1 0-2.3-1.6-4.1-2.6-5.8-1.2-1.9-2.5-3.8-2.9-6.3zM367.5 142.3c.5-3.4 1.2-6.6 1.7-9.2 0-.2-.2-.3-.4-.4 0 .2-.3.2-.4.4-1.8 5-3.4 12.5-2.6 18.7 1.3-2.6 1.2-6.2 1.7-9.5zm89.9 34.5c-3.9.6-8.3-2-12.8-2.5-4.3-.4-7.4.9-11.5 1.5-1.9-1.2-3.9-2.2-7-2.5-3.5-.2-7.1 1.4-10 1.1-.6-.1-1.4-.7-2.1-.8-.4 0-.7.5-1.1.4-1.8-.3-3.5-1.5-4 1.1 7.6 4.9 12.4 13.3 23.6 14.1 4.1.3 7.5.2 11.1-.8 6.3-1.7 9.5-7.2 14.5-9.8 1.3-.7 3.4-.9 2.5-3-1.2-.3-2 1.1-3.2 1.2zm-13.5-.3c-1.6.6-3.9.5-6 .6 1.3-.9 4-1 6-.6zm-15.9-.4c-1.7.4-3.9-.3-5.8-.2 1.5-.8 4.1 0 5.8.2zm-5.6 2.1c9.1 1 17.9.8 27.3.9.6.1-1.1 1-.9 1.9-8.5.1-19.5.6-27.1-1.1-.4-.6.6-1 .7-1.7zM439 187c-8.3.7-14.8-1.3-19.2-6.2 1.6 1.2 6.4 1.1 10.6 1.3 6.7.3 14.2 1.4 20.2.6-2.9 2.3-6.9 3.9-11.6 4.3zm23.9-13.6c0 2.1 3.7 4.3 3.8 6.4.1 1.7-1.6 2.2-1.1 4.1 2.2-.9 2.8-3.3 2.8-6.4-1.2-2.2-3.2-3.6-4.1-6-1.4 0-1.4 1.7-1.4 1.9zm-53.9-8.8c-2.9 2.6-7.4 5.4-5.7 11.3 2.3-1.3 1-4.7 2.3-6.4 1.3-1.8 4.2-2.3 4.3-4.9h-.9zM354.3 449v-5l-1.2-.1c-.3 0-.6-.1-.8-.1-.7 0-1.4.1-2 .6l-.2.2.2-.8c-.4-.1-.7-.2-1.1-.2-1.2-.1-2.4.9-2.7 2l-.2.7.4.6c1.8 2.5 3.1 3.3 6.1 3.5l1.5.2V449zm48.5-312.6c-2.7-1.1-3.7-2.2-4-3.1.4-.5 3.6-4.7 3.9-1.7.8 6 10.6 3.7 9-2.8 2 .8 6 3.4 8.7 4.3 2.2.8 4.4.6 4.3-1.7-.5-.2-1.3-.2-1.9-.4-4.9-2.8-12.3-8-19-5.7-3.6 1.2-6 5.1-7.5 8.7 2.2.8 2.9 2.1 6.1 3 3.3 1.1 3.1.5.4-.6zm4.3-7.6c1-.2-.1 1.8.3 2.8-1.1-.3-.9.8-2 .6-.1-.7-.8-.9-.8-1.7.5-.9 1.3-1.4 2.5-1.7zm57.2 10.5c-.7-.1-1.9.4-2.7.2-1.1-.3-2.6-.9-2.7-1.7-.5.5-.7.9-.5 2.2 4.3 1.8 12 2 13-3-2.3.1-4.1 2.7-7.1 2.3zm-48.3-2.4c1.7-.2 3.9.1 3.6-2.1-2-.1-3.8 0-3.6 2.1zm-52.3 272.2c1.8 0 3.6-1.4 3.6-3.6 0-1.2-.6-2.5-1.8-3.8l-.7-.7-.9.5c-1.1.6-1.8 1.5-2.1 2.4l-1.7-.2c-.1.4-.1.8-.1 1.2 0 1.3.4 2.4 1 3.2.8.6 1.8 1 2.7 1zm.6-4.4c0-.1.1-.2.1-.3.3.5.3.8.3 1 0 .5-.3.9-.7 1 .1-.7.2-1.3.3-1.7zm16-268.6c1.1-.1 1.7-1.6 2.1-2.5 1.4-3.1 2.2-7.3 2.5-11.3.3-3.9-.6-7.8-.6-11.7.1-3.6.6-7.7 1.5-10.7.5-1.8 2.3-3 1.5-4.9h-.2c-.3.1-.5.3-.6.6-1.1 1.7-2.2 4.2-2.8 6.8-.6 2.6-1.6 5.2-1.9 7.7-.4 4.1.8 8.3.6 12.4-.3 5.1-1.8 9.3-2.1 13.6zm-9.7 40.6c.1.1.2.3.3.4 1.5-5.9 3.1-11.9 3.1-18.7-1.8.8-1.6 3.5-1.9 5.3-.6 4.4-1.5 8.6-2.5 12.6.3-.1.7-.1 1 .4zm65.5-102.8h-.6c-.1.2-.2.4-.4.6 1.2 6.9 3.5 12.6 7.4 16.8 1.1-1.7-.6-3-1.3-4.1-2.3-3.9-3.9-8.3-5.1-13.3zm49.2 129.3h-.3c-3.9 4.3-7.1 9-9.8 14.5-1.3 2.6-2.4 5.4-3.6 8.1-1.2 2.8-2.9 5.5-2.8 8.7 1.7-.6 1.6-2.6 2.1-4 3-8.6 7.6-17.3 12.6-23.8.7-.8 2.6-1.9 1.8-3.5zm41.5-56.5c1.1-10.3-3.6-20.7-6.8-27.7-1.5 1 .8 5 1.5 7.2 1.8 5.3 3 11.7 4.1 17.3.3 1 .2 2.5 1.2 3.2zM472.1 79c-.5.1-.3.8-.8.9-2.3-1.7-4.2-3.8-7.2-4.9-1.1 1.8 1.6 3.1 3 4.1 1.5 1.1 2.8 2 3.8 2.5.4-.2.4-.7.8-.9 5.9 6.5 11.5 14.1 16.6 21.1.8 1.1 1.1 2.5 2.4 3 1.1-1.4-.5-2.8-1.1-3.8-5.1-7.9-11-15.7-17.5-22zM386 158.6c-1.1 2.6-2.3 6.8-1.7 9.8 1.2-1 1-3.1 1.3-4.7.3-1.7 1.2-3.5.9-4.9-.2-.1-.2-.3-.5-.2zm137 42.9c-.4.1-.4.5-.8.6-1.1 11.1-6.6 17.8-9.8 26.8 1.3 0 1.8-1.5 2.3-2.5 3.8-7.3 8.8-15 8.5-24.9h-.2zM491.7 76.4h-.6c-1.5 1.5 1.9 4.3 3 5.7 3.9 4.9 7.4 10.5 10.2 15.5 1.2-2.1-.8-4.3-1.7-5.8-3-5.8-7.1-10.9-10.9-15.4zm-32.4 59.5c3.1 3 9.6 1.5 8.9-4.1 2.5 1.5 6.7 5.7 9.2 2.1 0-.9-.1-1.3-.4-2.3-2.7-1.4-6.1-4.1-10-4.5-5.7-.6-14 3.5-14 8.5 2.4-1 3.8-4 6.2-4.3-.4 1.2-.4 3.4.1 4.6zm5.5-3.4c-.2.8-.8 1.2-.9 2.1-.6-.2-1.3-.4-1.9-.6-.4-2.5 1.7-2.8 2.8-1.5zm51.3 35.3c-.6-4.5-1-9.1-1.9-12.6-.4-1.7-1.7-3.7-2.4-5.5-.8-1.8-1.4-3.4-2.3-4.9-.4 0-.6.1-.8.4-.6 1.4 0 4.3.2 6.2.9 8.8 2.5 15.1 3.8 23.4 1.5 9.6 1 20.2-1.7 27.7-.4.2 1 .2.6 1.1-.6 1.7-.8 2.9-1.7 4.1-1.1 1.7-3.8 2.3-3.2 5.1 3 .6 4.3-2.8 5.3-5.1 1.1-2.4 2.4-5.2 3.2-7.7 3.2-10.1 2.4-21.6.9-32.2zm-9.3 73.5c-.3 0-.3-.3-.6-.4-4 7.2-1.2 19.4 4.3 22.8.8-2.6-1.1-5-2.1-7.4-1.5-3.8-3.2-9.9-1.6-15z"/></g><path class="st1" d="M227.2 74.9c-1.5 9.6 2.2 24.1-1.9 32.5 2.1 5.3-.4 9.3-2.9 13.4-4.6-1.2-2.7-9.3-4.7-13.3-3.3 2.7-23.5 16-24.8 3-.5-4.7-5.6-8.6-4.8-17.1 2.4 1.1 1-9.1 3.7-7.7-1.8-4.3 3.3-4.9 3.6-9 2.3-.9 3.4 1 3.1-2 10-.2 11.9 2.2 17.9 4.1 1-.3.5-2 2.5-1.3-1.2-3.1.9-1.7.5-5.1 2.9-.6 5.4 0 7.8 2.5zm-28.5 8.9c-7.8 4.5-7.9 19.3-.8 24.8 2.5 1.9 6.3 1.1 9 2.4.1-.8-.1-1.8.6-1.9 6.9-.4 5.8-5.8 7.4-10.3-.5-.1-1.3 0-1.3-.6 3.4-3.8-2-12.3-1-15.9-3.9-2-7.4-2.9-9.6-3.6 0 2.6-.4.1-1.3 0 .9 3.4-4.4.9-3 5.1zm-27-18c-2.7 13.5-1.7 27.5-4.3 42.7-.8 4.9-2.8 11.8-5.4 15.4-.7 1-2.5 1-3.1 2-.9 1.4-1.7 4.4-4.3 5.8-3.5 2-12.6 4.4-15.2 4.1-3.4-.3-6-3.5-9.6-3.6-6.2-9.4-15.8-22.9-11.5-34.2 2.3-.5 6.4.7 7.6-.8 1.5 7.2 1.3 8.5 2.9 17.1.1.7 1.2.5 1.9.6 1.2 6.2 3.3 7.4 6.6 12 2.6-2.1 10.9 1.3 10.8-3.4 6 .2 9-8.6 9.3-13.6 5.8-6.2 2.2-14.3 3.4-21.7.4-2.5 1.5-6.7.4-12.1.5.1.6.6 1.3.6-3-14.4-1.9-29-2.1-40.1.2-1.5-2.9.4-1.9-1.9-9 .6-8.2-.8-15.3.3-1-6.2 1.6-5.1 2.4-9.6 1.3 3.3 10.6-.7 10.9 1.7 5.1-4.7 12 1.2 17.1-3.5 2.9 2.8 5.3.7 7.7 2.4-.4 3 .8 4.4.8 7-4 .8-4.9.3-8.3-.5-3.9 3.1-1.3 8.6-1.6 15.3-.2 3.6-3.4 8.5-1 14.7-1.2-.8-3 4 .5 3.3zM304.9 58c11.8 2.7 22.2.3 30.6 2.6-1 1-.4 2.6.7 3.2-1.4 2.6-3.3 4.8-4.3 7.7-1.7-1.6-.5 1-2.5.7-3.4 6.4-9.9 6-11.8 13.6-2.1-1.5-1.7 3.5-4.4 3.3.6 5.5 0 6.2-.4 10.8 8.6-.5 12.3 0 15.9-2.2 1.5 1.9.4.2 2.5 0 0 1.6.8 1.1.6 0 4.6 3.3 12.3-2.1 11.6 5.5-.1.7-2.9.5-1.2 2.6-4.3-.1-5.3 2.2-9.5.8-1 3.4-2.7-.4-3.8 2-4.5-2.8-15.1 3.1-20.4-.2-.6 0-.5.8-.6 1.3-6-2.1-1.4-9.3-2.8-12.7 3.2-2.8 5.4-10.1 8-15.4.9 1 5.1-4 2.5-4.5 2.2-1.2 4.2-2.7 5-5.2-2.4-8.4-14.9-1.1-17.9-5.4 1.3-1.8 1.3-3.1.5-5.7.7-.8 2.3-.7 1.7-2.8zm-21.6-14.9c-.6 2.8 1.1 3.1 1.4 5.1-3.6 6.5-9.4 11-12.4 18.1-1.3-1-.8.1-2.5 0-2.5 5.2-8.3 9.9-5.4 15.4 7-2.6 18-.5 25.4-1.1-1.6 3.6.3 5.9-1.1 8.3.8-1.3-3.5-2.4-1.3 0-11-1.2-22.9 2.5-28.6.6-3.5-8.1 1.5-11.8 2.2-19.1 3.3-1.6 5.2-4.6 5.6-9 4.4-1.3 4.4-4.3 5.6-7.8-2.9-6.2-14.1-.2-19.2-3.4.1-2.5-.1-4.7-.8-6.4 4.3-3.1 23 2.2 31.1-.7z" id="Режим_изоляции"/></svg>