<svg version="1.1" id="Слой_1" xmlns="http://www.w3.org/2000/svg" x="0" y="0" viewBox="0 0 566.9 467.7" xml:space="preserve"><style>.st0{fill:#ee7f00}</style><path class="st0" d="M68 503.2c.7-2.6 3-2.6 4.8-3.4-.3-.6-.6-1-.7-1.5-.2-1.5-.2-3-.6-4.4l-.9-4.2-.9-4.2c-.3-1.4-.4-2.9-.7-4.3-.6-2.5-1.3-4.9-1.8-7.4l-1.2-5.4c-.3-1.1 0-2.5-.6-3.3-.8-1.1.2-2.4-.9-3.2.3-2.2-.9-4.1-1.1-6.2-.2-2.3-1-4.5-1.6-6.7-.4-1.7-1-3.4-1.4-5.1-.3-1.2-.4-2.4-1.3-3.3-.6-.6-.3-1.2.4-1.9-3.2-.5-5.5-2.7-8-4.3-1.9-1.3-3.4-3.2-4.9-5.1-1.6-1.9-3.2-3.9-4.4-6.1-.1-.2-.5-.5-.8-.5-1.3-.1-1.9-1.1-2.5-2.1-1.9-3.4-3.7-6.9-5.7-10.2-3.1-5.2-5.6-10.7-8.2-16.1-1.7-3.5-3.4-6.9-4.8-10.5-1.3-3.5-3.1-6.8-3.9-10.4-1.4-2.2-2.2-4.6-2.8-7-.8-3.3-2.6-6.4-2.9-9.8-1.2-2.1-1.4-4.6-2-6.8-.6-2.2-1.1-4.5-1.7-6.8-.3-1.2-.3-2.5-.8-3.7-.5-1.1-.4-2.6-.6-3.8-.2-1-.5-2-.7-3.2.1.1 0 0 0 0-.7.9-1.2-.1-1.2-.3 0-2.2-1.1-4-1.7-6-.5-2-1.1-3.9-1.9-5.9-.6-1.6-.9-3.3-1.5-5-.5-1.6-.1-3.5 0-5.3 0-.4.3-.7.3-1.1.2-2 .2-4 .6-5.9.3-1.5.3-3.1 1-4.4.9-1.9 1-3.9 1.4-5.8.5-2.5 1.1-4.9 2.2-7.1 1-2 1.6-4.1 2.5-6.1.9-1.9 2.1-3.7 2.7-5.8.5-1.8 1.7-3.4 2.4-5.1 1-2.3 1.7-4.7 2.6-7.1-.3-.1-.6-.2-1-.3 0-.1.1-.2.1-.4 1.1-2 2.5-3.7 3.4-5.8.3-.6 1.2-1 1.8-1.4.7-.6 1.7-1 2-1.7.8-1.8 2.4-2.2 3.9-2.9.7-.3 1.5-.6 2.2-.9.1.2.2.5.3.8 2.9-1.7 5.9-3.3 9-4.5 1.3-.5 2.5-1.4 3.8-1.9 1.4-.6 2.9-1.1 3.9-2.4 2.4-.9 4.2-3 7-2.8 1.6-.8 3.4-.6 5-1.4 1.5-.8 2.9-1.7 4.2-2.7 2.1-1.6 4.1-3.3 6.1-5.1 1.4-1.2 3-2.3 4.5-3.4.6-.5 1.3-1 1.9-1.5.6-.4 1.2-.8 1.8-1.3.9-.8 2.1-1.5 2.7-2.4.6-1 .8-2.2 1.2-3.3.3-.9.8-1.9 1.4-2.8.8-1.1 1.8-2.3 1.6-3.9-.1-.9.4-1.8.7-2.8.3-.9.6-1.8.8-2.7.1-.4.1-1-.1-1.2-1.1-1-.9-2.4-1.3-3.6-.4-1.2-.9-2.4-1.4-3.6-.4-1.1-.1-2.2-.7-3.3-.5-.8-.8-1.9-.7-3.1.1-.8-.3-1.7-.4-2.6-.1-.8.2-1.7-.5-2.4-.1-.1 0-.5 0-.7-.2-3-.5-6-.7-9.1h-2.6c-.6-.8-1.2-1.5-1.6-2.2-.3-.6-.7-1.4-.7-2 .2-3.9-1.2-7.5-2.3-11.1-.2-.5-.3-1.1-.3-1.7 0-2-.1-4.1 0-6.1.1-2.4-.5-4.7-.9-7s-1.4-4.4-1.9-6.7c-.3-1.3-.8-2.4-.8-3.8-.1-2.1.8-3.6 2.7-4.5.4-.2.8-.5 1.4-.8-.1-2.1.3-4.2 1-6.3.2-.7 0-1.5.1-2.3.1-.6.5-1.2.5-1.8 0-1-.4-2.1-.5-3.1-.1-2.9 0-5.8 0-8.7 0-.4-.2-1 0-1.3 1.2-1.6 1.6-3.3 1.6-5.2 0-.4.4-.8.4-1.1-.3-3 1.7-5.5 2.1-8.4 1.5-1.6 1.8-4 3.7-5.4.4-.3.7-.9 1-1.4 1.2-2 3.2-3.3 5.3-4.3.5-.2.7-.3.8-.9.2-1.1.7-2 2-2.5 1-.3 1.7-1.2 2.6-1.8l5.1-3.3c.2-.1.4-.3.6-.3.8.1 1.4-.3 2.1-.5.9-.3.4-1.1.7-1.7.6-1.2 1.5-1.7 2.7-2.2 1.2-.4 2.2-.3 3.4.3.3-.4.6-.7.8-1.1.5-.9 1.3-1.3 2.3-1.6 1.1-.4 2-1 3.2-.9.4.1.6.5 1 .8 1.6-.6 3-2.1 5.1-1.9.5-.6.9-.5 1.5-.1.3.3 1 .1 1.5.1h4.4c1.1 0 2.1-.2 3.1.5.3.2 1 0 1.5 0 .1-.5.1-.9.2-1.3.6-.3 1.2-.5 1.8-.7.2-.1.6.1.7.2.4 1.5 1.3 1.1 2.3.8.3-.1.7 0 1 0 .5.8 1.1 1.7 1.7 2.7.9-.6 1.7-1.1 2.8-1.8.6.6 1.2 1.1 1.9 1.8.6-.2 1.4-.3 1.9-.7 1-.8 1.5-.6 2 .5.3.6 1 .7 1.5.5.4-.1.7-.8 1.3-.3.6.6 1.6.2 2.1 1.1.9 1.3 2.3 2.1 3.9 2.4.6.1 1.1.6 1.7 1 1.9-.8 3.9-1.2 5.9-1 1 .1 1.8.5 2.3 1.5.8 1.5 1.7 3 2.7 4.7 1.1 0 2.2-.1 3.3 0 1.2.1 2.3.3 2.8 1.8.5 1.3 1.5 2.4 1.5 4 0 .5.6 1.1 1 1.6.8 1 1.5 2 2.4 2.8.9.7 1.3 1.8 2.2 2.5.6.4.8 1.1 1 1.9.6 1.7 1.8 3.2 2.6 4.8.9 1.9 1.7 3.9 2.4 5.9.4 1.1.5 2.4.9 3.5.4 1.2 0 2.4.6 3.6.4.8.2 2 0 3-.2 1.1.7 2 .1 3.2-.5.9-.2 2.2-.6 3-.5.9-.4 1.8-.4 2.6 0 2.5-.1 5 0 7.4.1 1.7-.4 3.2-.9 4.8 0 .1-.2.3-.2.4.1 2.8-1.3 5.3-1.9 7.9-.3 1.3-1.3 2-1.6 3.2h3.2c.9 1.4 1.5 2.7 1.4 4.4-.1 1.4-.7 2.6-1.3 3.8-.8 1.9-2.1 3.6-2.5 5.6-.3 1.4-.5 2.9-.9 4.3s-.9 2.7-1.3 4.1c-.4 1.4-.7 2.8-1.2 4.1-.3.7 0 1.4-.3 2.2-.6 1.7-1.5 3.3-2.4 4.9-.7 1.2-1 2.7-1.4 4-.7 2.3-1.5 4.5-4 5.4-.6.2-1.4.5-1.1 1.5-1.2 2.2-1.4 4.7-2.3 7-1.1 3.1-2.6 6.1-4 9.1-.9 1.8-1.9 3.7-2.9 5.4-.3.5-.8.9-1.2 1.3l-6.3 6.3c-.9.9-1.5 2.1-3 2.6-1 .3-1.4 1.5-1.1 2.9h4c1.2 0 2.4-.1 3.7.5 1 .4 2.3-.4 3.4.5.2.2.7 0 1 0 1.9 0 3.7.7 5.5.9 3.1.4 5.8 1.6 8.5 3 1 .5 2.1.7 3.1 1.1 2.2.7 3.8 2.5 5.7 3.6.9.6 1.6 1.4 2.5 2 2.6 1.5 4.6 3.5 6.1 6.1.8 1.3 2.2 2.2 3.1 3.6 1 1.5 2.1 2.9 3.2 4.3.8 1 1.1 1.1 2.5.7 1.6-.5 3.1.2 4.5.7 2.5.8 4.8 2 7.1 3.3.5.3 1 .6 1.5 1 2-1.3 4-2.7 6.1-4.1 1.1-.7 2.2-1.4 3.2-2.3 2.4-2.2 5.2-3.5 7.8-5.4 3.9-2.9 8.3-4.8 12.2-7.7 2.9-2.2 6.2-3.9 8.9-6.4.2-.2.6-.3.9-.4.1-1.2.1-2.4-.4-3.6-.4-1.1.2-2.4-.4-3.7-.5-1-.3-2.4-.5-3.6-.2-1.2-.6-2.4-.7-3.6-.1-1.2-.2-2.4-.5-3.6-.5-2.3-.8-4.6-1.7-6.7-.5-1.2.4-2.6-.8-3.5.4-1.4-.8-2.7-.4-4.3h-2.1v-2.3l-1.5-1.5c-.6-2 .4-3.8 1-5.5.4-1.1.4-2.1.4-3.1 0-.7-.3-1.4-.5-2.1-.1-.7.3-1.5-.5-2.1-.1-.1 0-.3-.1-.5-.2-2.1-.3-4.1-.5-6.2-.1-1.3-.4-2.5-.7-3.8-.1-.6-.3-1.3-.5-2.1-.4.1-.9.2-1.4.3-.6.1-1.2.3-1.7.2-3.9-1.3-6.1-2.2-8.9-6.3-.9-1.3-1.8-2.5-2.7-3.7-1.6-1.9-3.2-3.9-3.8-6.4-.4-1.6-.9-3.2-1.2-4.9-.3-1.3-.7-2.5-1-3.7s.1-2.6-.5-3.9c-.2-.5 0-1.1 0-2-.5.2-.9.3-1.2.5-1.9 1.2-3.8 2.5-6.3 2.2-.5-.1-1 0-1.7 0-1.8-3-3.1-6.2-2.6-10.1 1-.7 1.9-1.9 3.2-2.8s2.7-1.4 4.1-1.9c1.5-.6 1.6-.6 1.1-2.1-.3-1.1-.6-2.2-.9-3.2 1.6-1.8 3.4-3.2 6.1-2.9 0 2.3 1.5 4.4 1 7 1.2.2 2.3 0 3.4.6.9.4 1.5.8 1.8 1.8.4 1.3 1 2.7 1.6 4.1-1.2 1.1-2.2 2.6-4.1 3 .2 1.8.2 3.6.6 5.3.5 1.9.8 3.9 1.4 5.8.6 2 .9 4.1 1.7 6 .5 1.1 1.1 2.3 2.1 3.3 1.2 1.2 2.1 2.7 3.1 4.1 1.5 2.2 3.4 4 5.6 5.6.2.1.4.1.7.1-.3-1.3-.7-2.5-.9-3.7-.5-3.7-1.6-7.2-2.6-10.7-.4-1.4-.9-2.7-1.3-4.1-.1-.2-.3-.5-.2-.7.3-1.1-.4-1.9-.6-2.9-.1-.8 1.3-1.6 0-2.4 0-1 .1-1.9-.5-2.9-.4-.7-.6-1.6-.8-2.5-.3-.9-.6-1.8-.7-2.8-.4-2.9-1.3-5.8-1.9-8.7-.5-2.3-1.6-4.4-2-6.6-.5-2.5-1.5-4.8-1.3-7.5.1-.8-.3-1.7-.5-2.6-.2-1.1-.4-2.3-.6-3.4-.2-1-.4-2.1-.4-3.1-.1-.6-.3-1.2-.5-1.8-.8-2.7-1.6-5.5-2.5-8.4.9-.9 1.8-2.1 3.4-2.4.4-.1.8-.4 1.1-.4 1.8.3 3.2-.6 4.7-1.7-.1-.7.4-1.6-.3-2.5-.6-.8.3-1.9-.5-2.6-.3-2.2-1.2-4.4-1.2-6.7 0-1.3-.1-2.7-.7-3.8-.5-.9 0-1.8-.4-2.6-1.2-2.5-2.1-5.1-3.5-7.5-1-1.7-2.6-2.8-5-2.2-.8 1.7-1.9 3.2-2.2 5.4-.3 2-.4 4-.9 6-.3 1-.7 2-.3 3.4h4.9c1.2 0 1.7.4 1.6 1.6-.1 1.6.3 3.1-.4 4.7-1.7 4.4-2.5 4.5-5.2 6.2-.5.3-1 .6-1.4.8-.5 2.7-.1 5.3.4 7.8.5 2.3.7 4.8 1.6 7.1 2.1-.3 4.1-1.4 6.3-1 .1 1.1.2 2.4.5 3.6.3 1.4.5 2.8 1 4.2.4 1.3.2 2.8.3 4.3.1 1.3-.5 2.3-1.5 3-2.8 1.9-5.7 3.6-9.3 3.4h-.5c-1-.2-1.9-.5-2.9-.5-.9.1-1.7.8-2.7.9-1.1.2-2.2 0-3.3 0-1.7-1.3-2.8-3-3.8-4.8-.6-1.1-.8-2.4-1.1-3.6-.1-.3.8-4.1 1-4.4.7-1.2 1.8-1.9 2.9-2.5 1.4-.7 2.8-1.2 4.4-1 .7.1 1.5 0 2.5 0-1.6-5-1.9-10-1.6-15.2-.9-.1-1.7 0-2.5-.2-2.1-.5-3.8-1.7-4.9-3.4-.8-1.2-1.4-2.7-1.8-4.1-.2-.6.4-1.5.8-2.2 1.7-2.4 4.5-3.4 7.1-4.5.4-.2 1 .3 1.7.6-.1-2.7.7-5.1 1.2-7.6.7-3.5 1.7-7.1 5.3-9 1.3-1.8 3.3-2.6 5.2-3.5 3-1.3 6-2.4 8.9-3.9.3-.1.6-.2.9-.2.8-.1 1.6.2 2.4-.4.4-.3 1.4 0 2.2.1.5.1.9.3 1.4.3 1 0 1.9.4 2.6 1.1 3.1 3.1 5.5 6.5 6.8 10.7.3 1 .8 2 1.3 3 .2.5.5 1.1.9 1.4.5.3 1 0 1.6-.3.7-.3 1.6-.4 2.3-.5 1.6-.3 3.2-.1 4.9-.1l1.3 1.3c0 1.3-.1 2.5 0 3.8.3 2-1 3.4-2 4.8-.6.8-1.5 1.3-2.3 1.8-.7.4-1.6.8-2.4.9-2 .1-2.4 1.7-2.4 3 0 1.7-.8 2.7-1.5 4s-1.6 2.2-2.9 2.9c-.7.4-1.2 1.1-1.9 1.7 1 2.7 1.9 5.3 2.9 8 2.4-1 4.7-1.9 7.1-2.7 2-.7 4-1.4 6-2.2 1.8-.8 4-1.1 6.1-.8.9.1 2 1.4 2 2.3 0 1.9.3 3.8-.1 5.6-.3 1.5-1.2 3-2.2 4.2-1.8 2.2-4 3.7-6.9 4.4-.5.1-.9.4-1.4.4-2.1-.1-4.1 0-6 1-.2.1-.5 0-.8 0-.5 1.3.3 2.4.6 3.5.6 2.2 1.4 4.4 2.1 6.8 1.6-.6 3.2-1.4 4.9-1.9 2.2-.7 4.5-1.3 6.9-1.2 2.2.1 3.7 1.9 3.8 3.7.2 3.9.1 4.3-2.9 7-2.8 2.5-6 4.5-10 5.3 1 2.4 1.2 4.9 2 7.3.4 1.2.4 2.6.6 3.9.3 2.4.4 4.8.6 7.2 0 .5.3 1.1.5 1.7l-1.2.9c.3.2.4.4.5.4 1.7.1 3.2-.4 4.8-.8 1.1-.3 2-.1 3.1.3.9.3 1.6.6 2.2 1.4 1.1 1.5 3 2.2 4.5 3.2 1.1.7 2.3 1.1 3.4 1.7.2.1.4.3.6.3.7.2 1.4-.1 2.2.3 2 1.2 4.2 2.2 6.3 3.3 1.3.6 2.2 2 3.8 2 .1 0 .4.1.4.2 1.2 1.7 2.6 3.4 3.6 5.2.5.9 1.1 1.8 1.6 2.7.8 1.2 1.4 2.7 2 4-.8.5-.2 1-.1 1.6.4 1.7.4 3.4.6 5.2.1 1.1-.3 2.1.5 3.1.2.3.1 1.1-.1 1.4-.7 1-.6 2.3-.3 3.2.6 1.6.3 3.1.4 4.7.1 2 0 4.1 0 6.1 0 .6-.2 1.2.3 1.7.1.1.2.6.1.7-1.2 1.1-.9 2.7-1.5 4s-1.1 2.6-1.6 4c-.9 2.5-1.7 4.9-2.6 7.4-.5 1.4-1.3 2.8-1 4.4.4 2.3.7 4.7 1.2 6.9.3 1.4.8 2.8.9 4.2.2 1.8.6 3.6 1.1 5.4.5 2.1.6 2.1 0 4.5-.1.5-.1 1-.1 1.5 0 2.5-.1 5 0 7.4.1 1.7-.4 3.2-.9 4.8-.2.6-.2 1.3-.2 2 .2 2.3-.3 4.4-1.5 6.3-1.3 1.9-2.3 4-3.6 5.9-1.3 1.9-2.4 3.9-4.6 5 .1.4.1.9.3 1.2 2.4 2.8 4.6 5.7 7.2 8.3 2.2 2.2 4.6 4.1 7.5 5.4 3.1 1.4 5.8 3.4 8.7 5.1 1.5.9 3 1.9 4.5 2.8.2.1.5.2.6.3.8.6 1.6 1.2 2.3 1.8 2.8 2.3 5.7 4.6 8.7 6.7 2.3 1.6 4.3 3.7 6.5 5.4 2.3 1.7 4.3 3.8 6.7 5.3 1.5 1 2.8 2.5 4 3.9 1.2 1.3 2.2 2.9 3.3 4.3 1.9 2.4 3.6 4.9 5.1 7.6.7 1.3 1.6 2.4 2.1 3.7 1.5 3.5 2.9 7 4.2 10.6.5 1.4 1.4 2.7 1.5 4.2.1 1.6 1 2.9 1.2 4.4.2 1 .6 2 .8 3 .2 1.1 0 2.5.6 3.3.7 1.1-.1 2.4.9 3.3.1.1.1.5.1.7.2 1.8.1 3.7.6 5.4.5 1.7 0 3.6.5 5.2.7 2.1.3 4.2.8 6.3.5 2-.2 4.3.2 6.4.5 3.1 0 6.2.6 9.3.4 2.4.2 4.8.4 7.2-1.3 1.5-2.5 2.9-4.6 3.1-.5.1-.9.3-1.4.3-.7.1-1.4.1-2 0-2.5-.3-5 .7-7.6.5-1.1 1.1-2.4 2.1-2.9 3.8-.4 1.4-1.3 2.7-1.5 4.2-.2 1.3-1.1 2.5-1 3.9.1 1.3-.9 2.5-.5 3.9-.9 1.4-.4 2.9-.5 4.4s-.2 3.1 0 4.6c.4 2.3 1 4.5 1.6 6.7.7 2.3 1.4 4.6 1.9 6.9.7 3 1 6 2.1 8.9.5 1.3.9 2.7 1.6 4 1 2.1 1.8 4.2 2.5 6.4.6 1.9 1.7 3.6 2.8 5.2 1.5 2.2 3.2 4.3 4.9 6.4 1.1 1.5 2.3 3 3.5 4.5.3.4.8.9 1.1.9 1.3-.2 1.8.6 2.4 1.6.6.8 1.5 1.5 2.5 2 3.3 1.9 6.2 4.4 9.4 6.4 1.6 1 3.2 1.7 4.8 2.6.8.5 1.8.5 2.8-.3.8-.6 1.8-1 2.8-1.3 1.2-.3 2.5-.9 3.8-.8.5.1 1 .5 1.5.7-.2.4-.3.7-.5.8-1.7 1.3-1.8 1.3-1.8 3.3 0 1.5-.1 3.1 0 4.6.1 1.7.4 3.4.6 5.2 1.2.1 1.6 1.2 1.9 2.2.6 2 1.4 3.9 1.9 5.9.5 1.8 1.4 3.4 2.1 5 1.6 3.6 3.1 7.3 4.6 10.9.8 1.8 1.4 3.7 2.1 5.5 1 2.8 2 5.7 2.9 8.5.7 2.3 1.2 4.6 1.9 6.9.8 2.8 1.1 5.7 2 8.4-.4 1.5.5 2.9.5 4.4 0 .9.3 1.7.5 2.6.2.9-.4 1.9.5 2.6.1.1 0 .3 0 .5-.4 2.5.6 5 .5 7.5s0 5 0 7.4c0 1-.4 2.1-.5 3.1-.1 1.1 0 2.3-.5 3.4-.4.9-.2 2.1-.6 3.1-.8 1.8-1 3.8-1.9 5.6-.8 1.7-1.2 3.6-1.9 5.4-.9 2.6-2.1 5.1-2.9 7.8-.2.6-.5 1-1.2 1h-3.6c.5-.9 1-1.5 1.2-2.3.7-2.7 1.8-5.2 2.8-7.8 1.3-3.5 2-7.2 3.4-10.6-.2-1.6.6-3.1.6-4.6v-13.3c0-1-.3-2.1-.5-3.1s0-2-.4-3.2c-.5-1.2-.2-2.7-.6-4.1-.6-2.3-.5-4.8-1.6-7-.1-3.4-1.4-6.6-2.1-9.9-.6-2.7-1.7-5.2-2.7-8-.5.3-.8.5-1.3.7-.5-1.2-1.2-2.3-1.6-3.5-1.2-4.3-2.9-8.6-4.2-12.8-.8-2.3-2-4.5-2.5-6.9-.1-.8-.5-1.6-1-2.1-2.2-1.8-2-4.5-2.6-6.9-.9-4-.3-8.1-.5-12.1v-1.3c-3.1 2.3-6.1 2.8-9.4 1.2-1.6-.8-3.1-1.6-4.6-2.6-1.1-.7-2.2-1.2-3.4-1.7-1.8-.7-3.5-1.6-5-2.7-3-2-6.1-4-8.4-6.9-1.4-1.7-2.8-3.4-4.2-5.2-1.4-1.8-2.6-3.7-3.9-5.5-1.6-2.3-2.6-4.9-3.4-7.5-.6-1.9-1.5-3.7-2.3-5.5-1-2.3-1.5-4.7-2-7.1-.7-3-1.3-6.1-2.2-9.1-1-3.3-2.2-6.6-1.9-10.2.1-1.5.1-3.1 0-4.6-.1-2.6.5-5.2.9-7.8.3-2.1.9-4.1 1.7-6 1.6-3.9 3.8-7.3 7.7-9.4 1.1-.6 2.3-.9 3.7-1.1 1.6-.2 3.2-.3 4.7-.9.8-.3 1.8-.1 2.9-.1-.4-1.8.4-3.5-.6-5.1-.2-.3 0-.8 0-1.3 0-1.7.1-3.4 0-5.1-.3-3.6-.6-7.2-.5-10.8 0-.9-.5-1.8-.5-2.9 0-1 .2-1.9-.4-2.9-.5-.8.2-2.1-.2-3-.4-1.2-.5-2.4-.4-3.7 0-1.2-.9-2.2-.5-3.4-1.1-.9 0-2.5-1-3.4-.5-5.3-2.6-10.2-4.2-15.2-1.2-3.6-2.6-7.3-4.5-10.6-1.8-3-3.5-6.1-5.6-9-2.1-2.8-4.5-5.4-6.9-7.9-1.6-1.6-3.4-2.9-5.2-4.2-1.5-1.1-2.8-2.3-4.1-3.6-2-1.9-4.2-3.4-6.4-5-1-.7-1.9-1.5-2.9-2.3-3.6-2.8-7.1-5.9-11.3-8-1.6-.8-3.1-1.9-4.7-2.9-.9-.5-1.7-1.2-2.7-1.6-1-.3-1.6-1.5-2.8-1.3-1.7-1.1-3.5-2.1-4.9-3.5-1.9-1.7-3.5-3.6-5.3-5.5 0 .5-.3 1.2-.1 1.5.9 1 .2 2.4.9 3.5.6 1 .2 2.5.6 3.6 1 2.4.8 5.1 1.9 7.4.1.1.1.3.1.5.2 2 .3 4 .5 5.9.1.8.4 1.6.5 2.4.1.7.2 1.4.4 2.1.3 1.1.4 2.4.5 3.6.2 2.2.9 4.3 1 6.5.1 1.9.5 3.8.7 5.7.3 2.4.6 4.8 1.3 7.1.2.6.1 1.3.2 2 .1.6.4 1.2.5 1.8.7 2.9 1.1 5.9 1.6 8.8.3 1.5.7 3 .9 4.5.2 1.6.5 3.1.7 4.6.2 1.6.4 3.3 1.2 4.9.5 1 .7 2.3.7 3.5.1 2.7.6 5.3 1.5 7.8.2.6 0 1.3.1 2 .1.6.4 1.2.5 1.8.2 1.6.3 3.3.5 4.9.1.9.6 1.7.5 2.6 0 .8-.2 1.6.3 2.4.4.7-.1 1.9.2 2.7.6 1.4.1 2.9.6 4.1.6 1.3 0 2.7.4 3.9.7 1.9.4 3.8.5 5.7-.8.9-1.6 1.5-1.7 2.9-.1 1-1.3 1.8-2.6 2.3 1.2 1 .5 2.4 1.1 3.7.6 1.2.4 2.7.6 4.1.1.8.4 1.6.5 2.4.1.7-.3 1.5.5 2.1.1.1 0 .3 0 .5.2 2 .1 4 .6 5.9.6 2.7.4 5.5 1.5 8.1-.3 1.4.3 2.6.5 3.9.4 2 .6 4.1 1.4 6.1.4.9.1 1.9.5 2.9.6 1.2.3 2.7.6 4.1.3 1.4.6 2.7.5 4.1 1.1 1.1-.1 2.8 1 3.9 0 2.4.9 4.6 1.5 6.8.2.7 0 1.5.1 2.3.1.6.5 1.2.5 1.8-.2 2.9.9 5.6 1.8 8.2.5 1.3.9 2.6.8 4-.3 2.4.6 4.8.5 7.2.9 1.2.4 2.6.5 3.9 2 .7 4.2.9 6.3.7 1 2 1 2 .7 7.1-.9.5-1.7 1.3-2.7 1.5-.8.2-1.8-.3-3-.5.4 1.9-.4 3.6.6 5.2.2.3.1.8 0 1.3-.4 4.4.6 8.7.5 13.1-.1 4.4 0 8.7 0 13.1 0 1.1 0 2.1-.5 3.1-.4 1 .1 2-.5 3.2-.5.9-.1 2.3-.1 3.8h3.3c.5 0 1 .1 1.4.3.9.4 2 .8 2 1.9 0 1.1-.9 1.7-2 2v10.9c0 3.7-.9 7.3-.5 11.1-.9 2-.1 4.2-.6 6.2-.4 1.8-.3 3.6-.4 5.4-.3 3.4 1 6.3 2.3 9.3.7 1.6 1.2 3.3 1.9 4.8.5 1.2-.2 1-.7 1.3-.1.1-.3 0-.5 0h-5.6c-1 0-1.5-.4-1.5-1.2 0-1.6-.8-3-1-4.4s-.7-2.8-.9-4.2c-.3-1.6-.5-3.3.1-5 .1-.2.2-.5.2-.7-.3-2.6.7-5.1.5-7.7-.2-3.1.6-6.2.5-9.3-.1-1.7-.5-3.4-.9-5-.1-.6-.1-1.2-.1-1.7v-10.3h-3c0 .9-.5 1.8.4 2.7.1.1 0 .3.1.5.2 2.1.1 4.4.6 6.4.6 2.4.1 4.9.5 7.2.8 4.2.2 8.4.4 12.6.1 1.7.1 3.4 0 5.1-.3 3.7.6 7.4.6 11.1 0 .9.2 2 .7 2.8s-.1 1-.4 1.1c-1.2.5-1.9.1-2.4-1.2-.3-.9-.4-1.7-.6-2.6-.8-4.1-.4-8.2-.5-12.3s0-8.2 0-12.3c0-1.4-.4-2.8-.5-4.1-.1-1.4.3-3-.1-4.3-.4-1.4-.2-2.8-.5-4.1-.4-1.4-.2-2.8-.5-4.1-.2-1-.4-1.9-.5-2.9 0-.4-.8-1-1-.9-1.3.6-2.9.5-4.2 1-.5.2-.9.6-.9 1.3 0 1.7-.3 3.5.1 5.1.7 2.6.6 5.3 1.4 7.9.4 1.4.2 3.1 0 4.6-.2 1.9.7 3.6.5 5.4-.2 1.9.6 3.6.6 5.4 0 .7.5 1.3.7 2 .7 2 1.1 4 1.4 6.1.5 3.4 1 6.8 2.7 10.1-.6.1-1.1.2-1.5.2h-5.1c-1.3 0-1.4-.3-1.8-1.5-.6-2.1-.5-4.1-.5-6.2.1-3.5-1.2-6.6-3.1-9.5-1.3-2-2.3-4.2-3.3-6.3-1.6-3.4-3.2-6.9-4.2-10.5-.6-2.1-1.2-4.4-1.2-6.7 0-1.5-.3-3.1-1.5-4.2 1-2.9 2.8-4.8 6.2-5.4-.2-.9 0-1.7-.4-2.8-.5-1.2-.4-2.7-.5-4.1-.2-3.1-1.7-6-1.6-9.1-.9-.5-.3-1.5-.7-2.3-.3-.8-.4-1.7-.6-2.6-.1-.8-.1-1.6-.3-2.4-.6-2.2-.8-4.5-1.1-6.7-.2-1.3-.2-2.6-.4-3.9-.3-1.9-.7-3.8-1.1-5.7 0-.2-.3-.4-.5-.5-1.8.2-3.2 1.6-5.2 1.4-.7-.1-1.4.6-2.1 1-2 .9-2.2.8-2.9-1.2-.1-.3-.5-.5-.5-.8-.2-2.1-.4-4.3-.6-6.2 1.3-1.7 2.8-2.9 4.7-3.3.5-.1 1-.3 1.4-.1 1.2.7 2.2.4 3.2-.1.6-.3 1.2-.5 2-.8-.1-1.1-.1-2.6-.6-3.8-.6-1.4-.3-2.8-.4-4.2-.2-1.7-.4-3.4-.5-5.2-.1-1.7 0-3.4 0-5.1 0-.8-.3-1.6-.5-2.4-.2-.9-.4-1.7-.5-2.6-.1-.8.3-1.7-.5-2.4-.1-.1 0-.3 0-.5-.2-2.1-.3-4.1-.5-6.2-.1-1.3-.5-2.5-.7-3.8-.1-.5-.3-.9-.3-1.4 0-3-.9-6-.5-9-.7-1.4-.2-3-.6-4.4s-.1-2.8-.5-4.2c-.6-2.2-1.1-4.5-1.7-6.7-.1-.3-.3-.6-.3-.9.3-2.7-.4-5.3-.6-8 0-.9-.3-1.7-.5-2.6s.4-1.9-.5-2.6c-.1-.1 0-.3 0-.5 0-1.2-.1-2.4-.5-3.6-.3-1.1 0-2.2-.5-3.4-.3-.8 0-1.9-.1-2.8 0-.9-.2-.9-1.4-.7-.6.1-1.1.2-1.7.2-.1 0-.1.1-.2.2-1.3-.6-1.5-1.6-1.4-2.8.1-.8 0-1.7 0-2.6-.3 0-.5-.1-.8-.1-.7-.1-1.3 1-2.1.4-.6-.4-.9-1.1-1.3-1.7-1.2-1.9-2.2-3.8-2-6.1 0-.8-.2-1.6-.5-2.4-.7-1.9-.7-3.9-1.6-5.7-.2-.4-.3-1-.6-1.3-1.2-1-1.7-2.4-2.4-3.6-.6-1-1.1-2.1-1.8-3.1-.5-.7-1-1.2-2.1-1.2-.6 0-1.3-.6-1.9-.8-.9-.3-1.7-1-3-.5.2 1.3.5 2.6.7 3.9.1.4.3.8.3 1.2 0 1.3-.1 2.5 1 3.4.8 2.6 2.3 5 2 7.9-.1 1.7.8 3.2.6 4.9-.2 1.6-.1 3.2 0 4.9 0 1.5-.5 2.6-2.1 3.2-.9.4-1.7.3-2.5-.4-1.7-1.8-2.9-3.8-3.8-6.1-.5-1.4-.4-3.1-1.8-4.1.7-.7 0-1.4-.1-2.1-.4-1.6-.7-3.3-1.3-4.9-.3-.7-.3-1.3-.2-1.9.3-2.1-1-3.7-1.9-5.4-.4-.8-1.2-1.7-2-1.9-.8-.2-1.7-.5-2.6-.6-2.4-.2-4.5-1.1-6.7-1.8-2.5-.8-4.8-2.1-6.9-3.7-2.2-1.6-4.4-3.3-6.3-5.3h-1.5c-.3 0-.8-.2-.8-.3-.2-1.2-.9-.7-1.5-.5-2.3.9-4.6 1.6-7.1 1.3-.4 1 0 1.8.3 2.6 1.3 3 2.6 5.9 4 9.3.1 0-.3 0-.5.3-1.9 2.3-4.4 3.4-7.4 3.2-.6 0-1.2.4-1.8.5-1.1 0-1.4.6-1.4 1.6v4.9c0 .8.3 1.6.5 2.4.1.7-.3 1.5.4 2.1-.2 1.5.5 2.9.6 4.4.2 2.5.7 5 1.8 7.2 1.2 2.3 1.7 4.8 2.5 7.2.1-.1.2-.2.4-.3 2.3-.5 4.7-1.1 7.1-.7 1.9.3 3.6 1.1 5.5 1.6.3.1.6.4.9.4 2.1.2 3.8 1.3 5.3 2.7 1.6 1.5 3.2 2.9 4.8 4.4 1.5 1.3 2.6 2.9 3.3 4.8.5 1.6 1.6 2.9 2 4.6.5 2.1 1.4 4.1 1.3 6.4-.1 1.2.8 2.1.6 3.4-.2 1.1-.3 2.3 0 3.3.9 2.9.3 5.9.4 8.8.1 3 .1 6 0 9 0 .6-.3 1.2-.5 1.8-.7 1.9-.6 4-.5 5.9.2 2.6-.7 5-1.3 7.4-1.1 4.6-2.9 8.8-4.8 13.1-.9 2-1.5 4.2-2.1 6.3-1.1 3.7-3 7-5.2 10.1-1 1.4-1.8 3.1-3.1 4-1.7 1.2-3 2.8-4.7 4-1.5 1.1-3.1 2.1-4.6 3.3-.7.6-1.7 1-2.6 1.2-1 .2-1.8.7-2.5 1.4-1.2 1.1-2.6 1.9-4.4 1.8-1.1 3.6-2.5 7-3.3 10.7-.6 3-1.9 5.9-2.8 8.8-.8 2.8-1.7 5.6-2.4 8.5-.9 3.9-1.5 7.8-2.9 11.6-.3 1-.3 2.1-.5 3.1-.3 1.5-.9 3-.6 4.6-1.1 1.9.1 4.1-1 6v.3c-.1 5.7-.9 11.3-.5 16.9 0 .5.5.9.4 1.3-.1.4-.8.7-.9 1.1-.1.5 0 1.1.2 1.7.5 2.2 1.4 4.2 2.1 6.3 1.2 3.3 2.5 6.5 4 9.6.2.4.3.9.4 1.5h-6.6l-1.2-2.4v2.4h-16.9c-.7-1.4-1.5-2.8-2-4.3-.8-2.7-2.2-5.1-2.8-7.8-.3-1.4-.6-2.8-1-4.2-.4-1.8-.5-3.6-.4-5.4.1-1.3.4-2.6.7-4.2 1.5-1.1 1.9-3.1 1.9-5.2 0-.9.3-1.7.5-2.6.1-.8 0-1.6.5-2.4.5-.9.1-2 .5-3.1.6-1.5.4-3.2.6-4.9.1-.9.3-1.7.5-2.6.2-.9 0-1.7.4-2.7.5-1 .3-2.4.5-3.6.5-3 1.4-5.9 2.3-8.8 1.6-4.8 3.5-9.5 5-14.3.3-1.1.8-2.3 1.4-3.3 1-1.7 1.3-3.5 1.2-5.4-.1-1.6 0-3.2 0-4.9-.1-1.9-.3-3.8-.5-5.7 0-.4-.4-.7-.7-1.2.3-.2.6-.6.9-.6 1.6 0 3.2-.5 4.9.3 1.3.6 2.7 1 4.2 1.1 1 .1 2.1.3 3.1.5 1 .1 1.9 0 2.9.4.9.4 2.3.5 3.3-.6.4-.5 1.3-.5 2-.8.5-.2 1.1-.2 1.6-.5 1.3-1 2.7-1.9 3.8-3.1.9-.9 1.7-2 2.1-3.2.3-1 0-2.3 0-3.4 0-.3-.3-.6-.2-.9.1-3.2-1.4-6-2.5-9-1.3-3.8-2.8-7.6-4.2-11.3-.8-2.2-1.4-4.6-2.1-6.8-2.8-8.1-5.6-16.2-8.1-24.3-1.3-4.2-2.6-8.5-4.1-12.6-1.2-3.3-2.7-6.6-3.8-9.9-1-3-2.5-5.8-3.4-8.9-.4-1.4-1.3-2.7-1.9-4.1-1.9-4.5-3.9-9-5.2-13.7-.1-.5-.5-1-.8-1.6-1.6 1-3.1 1.9-4.7 2.9-1.2.8-2.4 1.7-3.6 2.4-2.4 1.3-4.8 2.5-7.1 3.8-1.3.7-2.4 1.6-3.6 2.4-2 1.3-4.1 2.5-6.2 3.6-4.9 2.7-9.8 5.5-14.9 7.9-4.3 2-8.5 4.2-12.8 6.2-3 1.3-6.2 2.2-9.4 3.3-1 .4-2.1.7-3.2 1-1.7.5-3.5.7-5.2 1.1-3.5.8-7 .2-10.6.4-2 .1-3.9-.8-5.9-.6-1.9.2-3.9 0-5.9 0-.2 0-.5.1-.5 0-.9-1.7-2.3-.5-3.5-.5-2.1.1-4.2 0-6.6 0 .6 2.8 1.4 5.5 2.1 8.1.7 2.7 1.2 5.5 1.8 8.2.6 2.7 1.3 5.5 1.8 8.2.5 2.8 1.2 5.5 1.8 8.2.6 2.7 1.2 5.5 1.8 8.2.6 2.8 1 5.6 1.6 8.3.6 2.8 1 5.6 1.6 8.5 2.8-1.1 5.7-2.3 8.6-3.3 2.5-.8 4.9-1.7 7.5-2.4 2.7-.7 5.4-1.5 8.1-2.1 1.3-.3 2.6-.6 4-.9s2.7-.8 4.1-.5c.8-1 1.8-.3 2.7-.5.1.4.2.7.3 1 .5-.3 1-.7 1.5-.9.5-.2 1-.4 1.6-.5.2.4 1.3.5.4 1.2.1 2.1-.2 4.1.3 6.2.5 2.4 1.1 4.8 1.7 7.3.6 2.3 1 4.7 1.9 6.9.5 1.4.8 2.9 1.1 4.4.3 1.7 1 3.2 1.3 4.9.4 2 .8 4.1 1.4 6 .5 1.6.7 3.3 1.1 4.9.5 2.1 1.1 4.2 1.4 6.3.3 1.8 1.2 3.5 1.1 5.4.8.7.3 1.6.5 2.4.1.7.4 1.4.5 2.1.2 1.3.2 2.7.8 3.8.6 1.2-.4 2.6.8 3.5.1.1 0 .5 0 .7.1 2 .3 4 1 6v.3c.2 2.4.4 4.8.5 7.2.2 4.3.9 8.5.4 13-1.2 1.2-2.7 2.3-5 2.1v-6.4c-2.2 2-4.1 4-6.2 5.5-1.8 1.3-3.3 2.9-5.1 4.3-1.7 1.3-3.2 2.8-5.1 3.9-3.1 1.8-6.4 3.5-10.2 2.9-.4-.9 0-1.6.7-2 .9-.5 1.8-.9 2.8-1.3.3-.1.7-.2.9-.1 1.6.9 2.8 0 4-.7 1.9-1.1 3.4-2.5 5.1-3.9 2.9-2.5 5.7-5.1 8.6-7.6 1.2-1 2.4-2.5 4.5-2.2 0-1.8.1-3.4 0-5-.1-1-.4-2.1-.5-3.1-.1-1.1.2-2.2-.5-3.1-.2-.2 0-.7 0-1 0-1.1.1-2.1-.5-3.1-.4-.8-.1-1.9-.4-2.9-.4-1.1-.3-2.6-.6-3.8-.3-1.3 0-2.8-.6-3.8-.6-1.2-.2-2.4-.8-3.5-.5-1-.2-2.4-.6-3.6-.3-1-.7-2.1-.7-3.3 0-1-.7-2.1-.9-3.2-.3-1-.2-2.1-.6-3.1s-.2-2.3-1-3.2c0-3.4-1.3-6.6-2.2-9.9-.7-2.8-1.6-5.7-2.3-8.5-.8-2.9-1.5-5.9-2.3-8.8-.6-2.3-.6-4.6-1.4-6.8-.2-.7-.3-1.8.2-2.7.3-.5.2-1.2.3-2.1-1.4.3-2.3 1.1-3.6 1.2-1.2.1-2.5.2-3.6.5-3.1 1-6.5.9-9.5 2.5-3.7.5-7.1 1.9-10.5 3.1l-5.1 1.8c-.5.2-.9.3-1.6.4.2 1.4-.4 2.9.5 4.3.2.2 0 .7 0 1-.4 4 .7 7.9.5 11.8 0 1 .4 2.1.5 3.1.1 1.1-.2 2.2.5 3.1.1.1 0 .3 0 .5.2 2.1.1 4.3.6 6.4.3 1.5.2 3 .5 4.4.4 1.4.2 2.8.5 4.1.4 1.7.1 3.3.5 4.9.6 2.6.3 5.1.5 7.8.6-.4 1.1-.8 1.7-.9.5-.2 1.1-.1 1.7-.1.1.3.2.4.2.6-.1.9-.7 2.1-.3 2.8.5 1 .1 2 .4 2.9.5 1.5.3 3.2.9 4.7.4 1 .1 2.2.5 3.4.5 1.3.4 2.9.6 4.4.1 1.3.8 2.5.5 3.9 1.2 1-.2 2.7 1 3.7.1.1 0 .3.1.5.2 1.9.2 3.8.6 5.7.6 2.8.5 5.8 1.4 8.6.4 1 1.1 1.9 1.2 3.1 0 .8 1.1.9 1.9.9 1.1 6.7 2.2 13.4 3.3 20.3h-9.7c-1-3.3-.5-6.7-.7-10-.1-1.3-.4-2.6-.5-3.9-.1-1.3.3-2.7-.1-3.8-.5-1.4-.2-2.8-.5-4.2s-.7-2.8-1.2-4.1c-1.8-4.2-1.9-4.2-1.8-8.2 0-1.2-.5-2.2-.6-3.4 0-1 .5-2.2-.5-3.1-.1-.1 0-.5 0-.8-.1-1.1.2-2.2-.4-3.4-.5-.8.3-2.2-.6-3.1v-.3c-.2-2.1-.5-4.3-.5-6.4.1-2.5-.9-4.8-1.3-7.2-.1-.5-.3-.9-.3-1.4 0-3.7-1.1-7.1-1.9-10.6-.5-2.3-1-4.5-1.7-6.7-1.1-4-2.2-8-3.1-12-.6-2.5-1.1-5-2-7.4-.8-2-1.6-4-2.3-6-.5-1.3-.9-2.7-1.3-4.1.3-.3-.6-1.4-1.1-1.7zm37.7-262.5h.2c0-.1-.1-.3-.2-.4 0 0-.2.1-.3.1.1.1.2.2.5.3l.5.5c1.8 2 3.6 4.1 5.4 6.1h3.3c1 0 1.9 1.1 3.1.2-4.2-1.7-7.9-4.3-11.9-6.4 0 0-.2-.2-.6-.4zm15.4 127.1c-.1.1-.2.2-.3.2l.2.2c.1-.1.2-.2.2-.3 0 0-.1-.1-.5.5v-.2c-.1 0-.3.1-.4.2 0 0 .1.2.1.3.2-.1.3-.1.7-.9zM161 147.6c-.4-.4-.5-.6-.5-.6-.2 0-.5.1-.7.2.3.1.6.2-1.2-.8.3.4.5.6.5.6.2 0 .5-.1.7-.2-.4-.1-.7-.2 1.2.8zm142.6 423.8c-.1-.1-.2-.2-.2-.3l-.2.2c.1.1.2.2.3.2 0 0 .1-.1-.3.1 0-2.4-.2-4.3 0-6.1.2-1.9-.4-3.6-.7-5.4-.2-1.4-.1-2.9-.6-4.3-.6-1.5-.2-3-.3-4.5-.1-.7 0-1.5 0-2.2-2.7 0-2.8.1-2.2 2.7.3 1.5.6 3.1.6 4.6-.1 2.7.2 5.4 1.6 7.8-.3 1 1.3 2.1.1 3.2-.2.1 0 .8.2 1.1.2.9.6 1.7 1.7 2.9zM247.9 107h.5c-.1-.5-.1-1-.2-1.5h-.3c0 .5 0 1 .6 1.5.1 1.1-.4 2.2.2 3.2.6 1 .1 2.2.6 3.3.6 1.4.4 3.2.6 4.9 1.1.8-.1 2.4 1 3.2-.2 1.2.3 2.2.5 3.4.2 1.1.2 2.3.6 3.3.4 1 .2 2.1.5 3.1 1 3 1.3 6.1 1.9 9.2.5 2.8.4 5.6.6 8.5v1.6c.9-.6 1.7-1 2.3-1.6.9-.9-.1-1.8-.3-2.7v-.3c0-1 .1-2.1 0-3.1s-.4-2.1-.5-3.1c0-1-.4-1.9-.5-2.9-.2-2-.7-3.8-1.3-5.6-.8-2.7-1.4-5.4-1.9-8.2-.2-1-.2-2.1-.5-3.1-.8-2.1-1.2-4.3-1.7-6.4-.6-2.3-1.4-4.5-2.7-6.7zm-90.8 42.5c.1 1.1 1.1.5 1.6.7 2.6 1.3 4.1 3.5 5.4 6 .7-.1 1.4-.2 2.2-.3.5-.1 1-.2 1.8-.4-.9 1.2-1.8 1.4-2.9 1.7-1.2.4-2.5.5-3.7.8-1.3.4-2.8.1-4.4.1 1.5-1.5 3.2-.7 4.8-1.2-1.3-1.9-2.4-3.8-5-4-.7 2.6-2.4 3.8-4.8 4.4-2.8.8-4.5-.8-6.2-2.7v-4.7h-2.1c-.7 0-3.1-.1-3.3.2-1 1.1-2.4.2-3.6.9-.1-.6-.2-1.1-.3-1.7-1.3 1.3-1.6 2.5-1 4.2.4 1.2 1.6 1.9 1.6 3.4-.4.3-.9.6-1.5 1.1 0 .3-.1.7 0 1.1.1.3.3.5.5.8.3.6.6 1.3.9 1.9.6 1 1.9 1.4 2.6 2.4.4.6 1.5.8 2.3 1 .6.2 1.2.1 1.8 0s1 1.1 1.7.3c.2-.2 1 .3 1.5.3 3.6 0 7.2.3 10.7-.7-.6-1.2-2.4-1.6-2.4-3.6 2 1.1 2.8 2.5 3.1 4.3h3.6l-3.6-3.6c2.7.5 3.7 2.5 5.3 3.6h2.5c1.8-1.4 2.5-3.2 2.9-5.3.2-1 .5-2 .9-3 .5-1.1-.4-2.3.6-3.3.2-.2 0-.9-.2-1.1-.7-.7-1.5-1.3-2.3-1.8-.6-.4-1 .4-1.9.9.5.2 1 .3 1.4.5-.8 1.2-1.8.8-2.7.9-.1 0-.3-.1-.3-.1-.2-.6-.4-1.2-.5-1.8.6-.3.8-1.4 2.4-.8-.1-.1-.2-.2-.2-.3l-.2.2c.1.1.2.2.3.2 0 0 .1-.1-.3-.5-.1-.1-.1-.4-.2-.4-.7-.1-1.3 0-2-.1-.5-.1-.8-.8-1.5-.3-.2.1-.9-.5-1.5-.7-.3-.1-.7 0-1 0-.2-.2-.4-.5-.7-.5-1.2 0-2.5.3-3.5-.1-1.3-.6-2.4-.3-3.6-.4-1.3-.1-2.7-.1-4.4.1 1.7.6 3 1 4.4.9.4 0 .9.3 1.3.4.6.2 1.4.6 1.7.3.6-.4 1.3 0 2-.2zm-37.1-1h.2c0-.1-.1-.3-.2-.4 0 0-.2.1-.3.1.1.1.2.2.5.3-.1.3 0 .8-.2.9-.4.3-1 .5-1.6.7-.3-.3-.6-.6-.8-1-.8-2.2-1-2.2-2.7-.7-.1.1-.3.1-.6.1-2.2-2.6-4.9-4-8.9-3.4 2.5.7 4.3 1.6 6 2.9 1.8 1.3 3.5 2.7 4.4 4.8-2.1 1-5 1.1-7.4.5.2-.7.5-1.2 1.3-1.2.9 0 1.9 0 3.3.3-.1-.1-.2-.2-.2-.3l-.2.2c.1.1.2.2.3.2 0 0 .1-.1-.3-.5-1.1-1-2.2-2.1-3.2-3-1.1 1.2-2.1 2.4-3.2 3.4-.5.4-1.5.3-2 .7-.5.5-.7 1.3-1.2 2.5-.5-1.1-.6-2-1.1-2.5s-1.4-.8-2.1-1.1c-.1 0-.1-.1-.2-.2-1.5-1.2-1.6-3.1-2.2-4.9-.8.1-1.5-.2-2.3.6-.5.6-1.4.8-2.1 1.2 1.4 1.9 3.7 2.1 5.5 3.2-1-.1-2 .6-2.8-.4-1.3.3-2.1-1.2-3.4-1-.7-1.4-2.3-.6-3.2-1.5-.3-.3-.8-.5-1.8-1 1.2 0 1.9-.2 2.3 0 .8.5 1.2.3 2 .1.9-.3 1.6-.7 2.3-1.4.4-.3.7-.7 1.2-.8 1.6-.4 3-1.1 4.7-1.1.1 0 .2-.2.3-.3l-.8-.8c-.7.6-1.7 1-2.4.5-.8-.5-1.4-.4-2.1-.4-2.1-.2-4.1.2-6.2.5-.7.1-1 .5-1.2 1.1-.7 1.7-.5 3.4-.5 5.1 1.3.2 2.4-.1 3.8.3-1.5.4-2.6.6-3.8.9 0 .9-.1 1.8 0 2.6.2.8.6 1.6 1 2.4.6 1.3 1.7 1.5 2.8.5l.9-.9c.6-.7 1.4-1 2.2-1.2.2.2.2.2.2.3v.2c-1.2.9-2.4 1.9-3.6 2.8 1.5 1 3.3 1 4.9 1.8.5.2 1.2 0 1.8 0 .3 0 .7 0 .9.2 1.7 1.1 3.8.6 5.6 1.3 3.1-.3 6.2.3 9.2.5 2.7.2 4.8-.8 6.2-3.1.2-.2.5-.4.5-.7.1-.7-.1-1.5 1-1.6.2 0 .3-.7.6-1 .9-.8.2-2 1-2.9.3-.4.1-1.2.5-1.8.2-.3-.1-1.2-.5-1.8-.3-.5-1-.8-2.1-.8zM89.3 303.7h.2c0-.1-.1-.3-.2-.4 0 0-.2.1-.3.1.1.1.2.2.5.2 0 .3-.1.5 0 .6 2 3.5 3.1 7.4 5 11 .9 1.7 1.7 3.6 2.7 5.3 1.1 1.8 1.8 3.7 2.8 5.5 2.7 5.2 5.2 10.5 8 15.6 1.7 3.2 4.2 6 5.1 9.6 2 2.6 3.1 5.7 4.5 8.6.4.8.9 1.6 1.5 2.5l2.3-2.3c2 .1 3-1.6 4.2-2.5 1.3-.8 1.6.3 2.2.9 1.3-.7 2.5-1.4 3.8-2.1 4.9-2.5 9.8-5 14.7-7.4-2-2.2-4.6-3.4-7-4.8-1.6-1-3-2-4.2-3.4.3-1.5-1.1-2-1.8-2.8-1.7-1.8-3.5-3.5-5.2-5.3-.5-.5-1.2-1-1.6-1.6-1.1-1.7-2.2-3.3-3.6-4.6l-11.4-10.8c-.5-.4-1-.8-1.6-1.1-2.5-1.3-5-2.4-7.4-3.7-3.2-1.7-6.7-2.9-9.7-5.1-1.1-.7-2.2-1.3-3.5-2zm107.6-55.3h.2c0-.1-.1-.3-.2-.4 0 0-.2.1-.3.1.1.1.2.2.8.1-.1.1-.3.2-.5.2 1.2 5.4 3 10.4 5.9 15.1-1 .8-1.1 1.6-.7 3 1 3.7 2.4 7.2 3.3 10.9.5 2.1 1.6 4.2 2 6.3.4 2.4 1.2 4.6 1.8 7 .7 3.2 1.6 6.3 2.4 9.5.5 1.8.8 3.6 1.2 5.4s.8 3.6 1.3 5.3c.4 1.3.8 2.7 1.1 4 .9-.6 1.7-1 2.3-1.6.8-.7 1.4-1.6 2.1-2.4 1.3-1.6 3-2.7 4.7-3.9 3.1-2.2 6.2-4.2 9.6-5.9.6-.3 1.2-.8 1.8-1.3 1.2-1 2.2-2.3 3.6-3.1.6-.4 1.1-1.1 1.6-1.9.7-1.3 1.8-2.3 2.8-3.4.3-.4.8-.7 1.1-1.1 2.2-3.4 4.9-6.4 6.9-9.9 1.2-2.1 2.9-4 3.7-6.4.6-1.7 1.8-2.7 3.2-3.4.9-.5 1.2-.9 1.2-1.9 0-.9.1-1.7 0-2.6s-.4-1.7-.5-2.6c-.2-1.6-.1-3.3-.4-4.9-.5-2.2-.3-4.6-.5-6.9-.2-2.1-.5-4.1-.7-6.2-.2-1.2-.1-2.5-.5-3.6-.5-1.2-.3-2.4-.4-3.7 0-.2.1-.4 0-.5-.8-1-.2-2.3-.6-3.4-.5-1.2-.3-2.4-.5-3.7-.6-.3-1.1-.8-1.6-1-.4-.1-1-.1-1.4.1-1.3.8-2.5 1.8-3.8 2.7-1.2.8-2.7 1.2-4 2.1-2.4 1.7-5 3.2-7.5 4.6-3.9 2.2-7.4 4.9-11 7.5-1.6 1.1-2.9 2.5-4.8 3.3-1.5.6-2.2 2-2.9 3.3 2 .9 3.1 2.6 4.4 3.9.5.5.7 1.4.9 2.1-1.9 2.1-4 3.3-6.7 3.6-1-1.3-1.9-2.7-3.1-3.7-2.4-1.9-4.9-3.7-7.6-5.1-1.5-.7-2.8-1.5-4.1-2.5-1.6-1.2-3.4-2.2-5.6-3.1zm-27.7-20h.2c0-.1-.1-.3-.2-.4 0 0-.2.1-.3.1.1.1.2.2.3 0l.7 2.1 1.5 4.5c.6 1.6 1.1 3.2 1.5 4.8.7 2.9 1.8 5.6 2.7 8.4.7 2.4 1.6 4.8 3 7 .6.9 1.1 1.5 2 1.9-.4 1.2-1.4 2-2.4 2.3s-2.2 1.4-3.4.1c-.2-.2-.8 0-1.2 0h-4.9c-.2.2-.5.3-.5.6-.2 1-.3 1.9-.4 2.9-1.6 1.7-3.3 3-5.5 2.7-1.8-1.3-3.4-2.4-5.2-3.7 0 .6-.2 1.1 0 1.4 1.7 2.8 2.3 6 4 8.8.9 1.4 1.4 2.9 2.9 3.9s2.6 2.2 4.6 2.6c2.7.5 5.3 1.4 8.1 1.3h3.2c-.3.9-.6 1.8-.9 2.5-1.2 2.3-1.8 4.9-2.9 7.3-1.5 3.3-2.5 6.7-3.2 10.2-.6 2.8-1.5 5.6-2.2 8.3-.2.8-.8 1.6-1 2.4-.5 3.2-2.1 6.1-2.1 9.4-1.4 2.8-1 6.2-2.6 8.9-.5 3.8-1.8 7.4-3.1 11-.3.9-.7 1.9-1.2 3.1 1.6-.6 2.8-.6 4-1.1 1.7-.7 3.5-1.1 5.2-1.6 1.8-.6 3.4-1.6 5.2-2.3 3.5-1.3 7-2.5 10.6-3.4 1.6-.4 3.2-.7 4.6-1.9 1-.9 2.6-1.8 4.1-1 .2 1.5.1 3 .8 4.1s.5 2.8 1.8 3.4c2.4-.8 3.6-2.7 4.5-4.7 1.7-4.2 4.7-7.6 7-11.5.4-.7.5-1.2.1-2-2.5-5.2-5.2-10.3-7.5-15.6-1.3-2.9-2.7-5.8-4.4-8.4-.5-.7-.6-1.4-.4-2.1.1-.4.8-.6 1.3-1 .7-.5 1.4-1 2-1.5 1.4 1.3 2.8 1 4.4 1-1.8-6.3-3.3-12.5-5.5-18.5h-1.2c-.1-.7 0-1.3-.2-1.8-.9-1.8-.8-3.7-1.3-5.6-.4-1.3-.6-2.6-1-4s-.7-2.8-1-4.2c-.6-2.6-2-4.8-2.8-7.3-.7-2.1-1.7-4.1-2.4-6.2-.6-1.8-1.1-2.9-2.1-4-.9-1-2-2-2.8-3.2-.9-1.4-2.2-2.6-3.6-3.6-2.4-1.8-4.9-3.3-7.4-4.9-.8-.4-2-1-3.5-1.5zm-8.4-122.7c-2.7 1.3-5.2 2.5-7.6 3.7-.1-.3-.2-.6-.4-1.1-1.5 1.3-3.2 1.8-4.7 2.6-1.8.9-3.5.7-5.3.7V110c-.3.3-.5.5-.6.5-2.8.3-5.2 1.8-7.8 2.8s-3.8 1.4-6.3 1.2c-.2-1 0-1.7.8-2.5 1.8-1.6 3.6-3 5.8-4 .7-.3 1.6-.5 2.1-1.3-.2-.1-.3-.2-.3-.2-2.9 1.2-5.8 2.5-8.8 3.6-3.9 1.4-7.7 3-12 2.6-.1 0-.3-.2-.5-.3v-1.1c-.2 0-.5-.2-.6-.1-2.5 1.5-5.3 2.4-8.1 3.3-1.2.4-2.6.7-3.5-.5.1-2.4 2.4-2.7 3.5-4.2-2.3-.7-4.2.6-6.2 1.1-.8.2-1.5.5-2.2.8-.8.3-1.7.5-2.5.9-.7.4-1.5.1-2.3.6-1.3.7-2 0-2.2-1.7.8-1.1 2.1-1.7 2.7-3.1-.9-.2-1.9-.8-2.5-.6-.8.3-1.9.1-2.3 1.2-.1.1-.4.1-.7.2-1.3.2-2.5.4-3.7.6-.3 1.5.5.4.8.5 0 .1.1.1.1.2-.2.7-.7 1.5-.4 2.1.4.9-1.3 1.4-.3 2.2.7.6-.8 1.3.2 1.8.1 2.7-.1 5.3-1.1 7.7-.2.5-.1.6 0 .9.3.8 0 1.4-.9 1.5-.1.9.1 2-.3 2.7-.8 1.5-1.9 2.8-2.8 4.2 0 .5 1.1.9.1 1.7s-.8 1.9-.4 2.9c.1.4.4 1 .2 1.1-1.1.8-.1 1.6.1 2.2.6 1.5 1.5 2.9 2.2 4.3 1.2.2 2.2-.5 3.4 0-.4-.8-.7-1.3-.9-1.8 1.2-2.1 1.2-2.1 1-2.5l1.9-1.9c-.1-.4-.5-.9-.4-1.1 1.1-2.2 2-2.6 4.3-2.3.3 0 .6.3.9.4.6 0 1.4.2 1.9-.1 1.7-1.1 3.6-1.3 5.6-1.3.7 0 1.3-.4 2-.7.4-.1.8-.4 1.1-.3 1.1.3 2.1.6 3.2 1 .5.2 1 .6 1.6.5.9-.2 1.1.7 1.6 1 .5-1 .9 0 1.4 0 1.3.2 2.3 1.6 3.9.9.5 1 1 1.8 1.5 2.8.3-.2.5-.4.8-.5.4-.1.8-.1 1.4-.2v2.6c1.2-.6 1.8-.4 2 .4.1.5.1 1.1.1 1.9.8-1.2 1-.2 1.4 0-.4.2-.8.4-1.2.7.3.4.4.6.6.7 1.2 1.3 2.9 2 3.5 3.9.2.6 1 .6 2.1.6.9 0 1.8.1 2.7.2.9.1 1.9.2 2.6.3 1-.7 1.8-1.2 2.5-1.8.4-.3 1-.9.9-1-.6-1 .6-1.8.1-2.5.7-.7 1.2-1.3 1.8-1.7.8-.6 1.5-1.2 2.4-1.6 2.9-1.2 6.1-1.6 9.1-2 2.8-.4 4 0 7.3 1.4.8.3 1.7.6 2.6.6 1.3 0 2.4.3 3.4 1.2.3.2.7.3 1.1.4.6.1 1.2 0 1.8 0 .2.2.4.4.5.6.2.3.3.6.4.9.2-.1.5-.3.7-.3.7.3.9 1 .5 1.4-.4-.2-.7-.4-1.3-.7 0 .7-.1 1.3.1 1.6.8 1 1.6 2.2 2.7 2.6 1.8.8 3.1 1.8 3.6 3.9 1.1-.8 1.6-1.7 1.7-2.8.1-.7 0-1.3.2-2s.7-1.3.8-2 0-1.5 0-2.3c0-.3.1-.6.2-.9.5-1.7.6-3.1-.8-4.6-1-1-1.5-2.4-1.5-4 0-2.3.5-4.5 1.2-6.7 1.1-3.6 1.2-3.6-.2-6.4-.4-.7-.4-1.4-.5-2.1 0-1.3.2-2.6-.1-3.8-.4-1.5-.9-2.9-.9-4.5 0-.7-.4-1.5-.9-1.9-1-.8-1.8-1.7-1.7-3.2-.4.2-.7.2-.9.3-1.6.7-3.1 1.6-4.8 2.1-1.3.4-2.7 1.2-4.1-.1.2-1 .4-2.1.9-3.7 0 .2-.1.3-.1.3 0 .1.1.2.2.3.1-.1.2-.2.2-.3 0 0-.1-.1-.4 0zm-32.7 255.5h2.4c.4 1.9.8 3.7 1.3 5.4.5 2.1 1.2 4.1 1.5 6.3.1 1.2.1 2.6.5 3.6.6 1.2 0 2.4.6 3.4.7 1.1.2 2.3.3 3.4 0 .2-.1.6 0 .8 1 2.2.3 4.4.5 6.5-3.5 2.3-3.5 2.3-5.6 2-.2-1.1-.5-2.3-.6-3.4-.2-2.3-.4-4.6-.5-7 0-.2 0-.4-.1-.5-.8-.6-.3-1.4-.5-2.1-.2-.8-.5-1.6-.5-2.4 0-1.1-.1-2.1-.9-2.9-.2.3-.6.7-.6 1-.5 2.3-1 4.7-1.6 7-.5 2.2-1.1 4.5-1.7 6.7-.6 2.4-2 4.5-2.4 7-1.1 1.2-.9 3.2-2.5 4.1-1.4.8-2.9 1.5-4.7 1.9.1-.7 0-1.1.1-1.4.4-1.2 1-2.3 1.4-3.5 1.5-4.2 2.9-8.4 4-12.7.7-2.9 1.2-5.8 1.6-8.8.2-1.4 0-2.9 0-4.3 0-.7-.2-1.2-.7-1.4-.7.8-1.4 1.3-1.8 2.1-1.5 2.9-4.1 4.9-6 7.5-1 1.3-2.3 2.3-3.4 3.5-2 2.2-4.1 4-6.8 5.2-.1.1-.3 0-.5 0 .1-.1.1-.2.2-.2l-1-.5c.4-1.6 1.6-2.2 2.5-3.1 2.6-2.6 5-5.3 7.5-7.9.1-.1.3-.2.3-.4 1.1-2.1 2.8-3.7 3.9-5.5-.3-.6-.6-1-.9-1.5-1.5-3-3.1-6-4.6-9.1-1.2-2.6-2.7-5-3.9-7.6-1.2-2.7-3.1-5-4.4-7.6-3.5-6.7-6.9-13.6-10.5-20.2a71 71 0 01-5-11.7c-1.2-3.6-2.5-7.2-3.4-10.9-.6-2.6-1.8-5.1-2.7-7.6-.8-2-1.5-4-2.4-5.9-.5-1-1-2-1.4-3-.1-.2-.3-.5-.2-.5 1-1.1-.2-1.7-.6-2.3-1.7-2.5-3.5-4.9-5.2-7.3-.6-.8-1.1-1.6-1.5-2.4-1.8-3.4-4.4-5.9-7.5-8-1.6-1.1-3.6-1.8-5.2-2.8-4.2-2.7-8.7-4.6-13.8-4.3-1.2.1-2.1-.7-3.5-.7.5-.6.8-.9 1-1.2.6-1.1 1.8-1.1 2.7-1.6.6-.3 1.4-.3 2.1.4.2.2.8 0 1.2 0 .9 0 1.7-.1 2.6 0 .9.1 1.8.3 2.6.5 1.7.5 3.4.7 5 1.5 3.5 1.7 7 3.5 10.2 5.7 1.8 1.2 3.6 2.3 4.9 4.3 1 1.6 2.1 3.2 3.2 4.8 2.6 3.9 5.6 7.5 7.9 11.6 1.8 3.1 3.5 6.2 4.1 9.8.1.4.4.8.8 1.4.2-.5.2-.8.4-1.1 1.5-2.9 3.5-5.4 4.9-8.2 2.2-4.4 4.7-8.6 7-13 .5-.9.8-1.9 1.2-2.8-.4-.2-.8-.7-1.2-.7-2.2.1-4.3-.7-6.5-1.1-1.4-.2-2.8-.7-4.2-.9-2-.3-3.9-.8-5.9-1.1-.8-.1-1.7 0-2.6 0-.8-.1-1.6-.4-2.4-.5-.5 0-.9-.7-1.7-.1-.3.3-1.3-.2-2-.5l-2.1-.6c-1.2-.4-2.5-.5-3.5-1.5-.6-.7-.8-1.1-.4-2.1.8-2.1 1.5-4.3 1.2-6.7-.4-2.9.6-5.8.5-8.8 0-.3.2-.6.3-.9.3-1.4 1-2.7 1.2-4.1.3-2.3.1-4.7.1-7.1-1 .2-1.8.2-2.5.6-.8.4-1.8.4-2.5 1.5-.7 1.2-1.9 2-3.2 2.6s-2.6.8-3.9 1.1c-2.5.7-5 1.4-7.5 2.3-4.5 1.6-8.8 3.5-13.1 5.4-4 1.8-7.8 3.9-11.6 5.9-1.5.8-2.7 2-3.3 3.7-.7 2-1.7 3.9-2.6 5.8-.3.6-.9 1.1-.9 1.7 0 1.6-1.4 2.7-1.7 4.2-.3 1.5-1.4 2.8-1.9 4.3-.3 1-.9 1.8-1.2 2.9-.3 1.7-1.3 3.2-1.7 4.9-.3 1.4-1.3 2.7-1.8 4.1-.7 1.9-1.7 3.7-1.6 5.8.1 1.1-.8 2-.5 3.1.1.2-.4.5-.5.8-.5 2.3-1.2 4.5-1.5 6.8-.3 2.1-.4 4.3-.5 6.4 0 .2.1.4 0 .5-1 1.2-.3 2.5-.5 3.8.9-.4 1.6-.6 2.4-.9.2.6.5 1.3.6 2 .2 1.4 0 2.9.6 4.1.6 1.1-.1 2.4.8 3.3.4 2.5 1.3 4.8 1.6 7.3.3 2.2 1.2 4.3 1.1 6.5 1 .9 0 2.3.9 3.2 1.1 4.1 3.3 7.9 4.8 11.9.8 2.3 1.8 4.6 2.4 6.9.7 2.6 1.7 5.1 2.7 7.6 1.3 3.3 2.9 6.5 4.3 9.7 1.4 3.3 3.1 6.6 4.7 9.8 1.2 2.5 2.5 5 3.2 7.6.7 2.9 1.7 5.6 3 8.3 2 4.3 4.2 8.5 6.1 12.8 1 2.2 2.1 4.3 3.2 6.4 1 1.9 2.4 3.4 3.4 5.2 1 1.7 2.2 3.4 3.6 4.6 2 1.7 3.6 3.9 6.2 4.8 2.8 2.4 6.2 3 9.8 3h14.6c.6 0 1.2-.1 1.8.1 1.8.7 3.7.6 5.5.9 1.2.2 2.5.2 3.6-.5 2.8.4 5.5-.6 8.2-.5.9 0 1.7-.1 2.6-.4 1-.3 2.2-.7 3.3-.6 2.8.2 5.3-.9 7.7-2 4.3-1.9 8.6-4 12.8-6.1 3.3-1.6 6.4-3.4 9.7-5 3.1-1.5 6-3.3 8.9-5.2 2.4-1.7 4.9-3.1 7.7-4.3 1.9-.8 3.6-2 5.3-3.2l10.2-6.9c5.2-3.5 10.4-6.8 15.8-9.9 1.2-.7 2.3-1.5 3.4-2.3 2.1-1.6 4.1-3.2 6.3-4.7 1.4-1 3-1.7 4.6-2.6.4-.2.9-.4 1.3-.6-.2-.4-.4-.6-.5-.8-1.1-3.2-2.4-6.3-3.7-9.5-1.7-4.2-3.1-8.4-4.6-12.7-1.7-4.8-3.3-9.7-5.4-14.4-.8-1.7-1.1-3.6-2.2-5.2-.2-.3 0-.8 0-1.4-1.2.3-2.1.4-3 .7-1.8.5-3.6.9-5.3 1.4-4.4 1.2-8.3 3.5-12.6 4.9-1.1.4-2.2 1-3.5.9-.7 0-1.4.2-2.1.4-2 .6-3.8 1.6-5.7 2.3-2 .8-3.9 1.8-5.8 2.7-.3.1-.6.1-.9.2-.5.2-1.1.2-1.6.5-2.6 1.9-5.6 2.9-8.4 4.5-1.4.8-3 1.1-4.3 1.9-2.1 1.2-4.1 2.5-6.2 4.1v-.2c-.3-.3-.4-.2-.5-.2 0 .1.1.3.1.4 0-.1.1-.2-.1-.4zm4.4-207.4c-2.3-.2-4.3-.5-6.4-.7-1.4-.1-1.3 0-1.8 1.4-1 2.5-1.5 5-2 7.6-.2.8-1.8 3.3-2.5 3.7-.1.1-.3-.1-.5-.1-.2-1.5 1.1-2.5 1.7-4.4-2.2 2-4.5 1.9-6.5 2.8-.2.1-.6.2-.7.1-1-1-2.3-.2-3.4-.5s-2.2-.5-3.4-.5c-2.2 0-4.5-.3-6.7-.5-.2 0-.4-.2-.6-.3-1.2-.3-2.4-.5-3.5-.7-1.6-.3-3.1-.6-4.7-1-.5-.1-1-.7-1.5-.7-.6-.1-1.2.2-1.7.2-.1 0-.1-.2-.2-.3.1-.2.3-.3.4-.5-.6-.6-1.1-1-1.5-1.5-.4-.6-.8-1.2-1-1.9-.3-1.4-.4-2.9-.7-4.4-.5-.1-.9-.2-1.4-.2v-.2c.5-.1 1-.2 1.4-.3v-2.4c-.4 0-.5.4-1 .2-1.1-.4-2.1-1.2-3.4-.6-.9.4-1.3.2-1.6-.7l-1.3-3.9c-.5 1.4-1 2.5-1.3 3.7-.3 1.3-1.1 2-2.6 2.4.4-1.1-1.2-2 0-3.1.1-.1 0-.7-.1-.9-.6-.7-.4-1.3.1-2 .3-.4.4-1 .6-1.6-.3-.1-.6-.1-.8-.2-.2 0-.5-.1-.8-.1v-1c0-.3-.1-.5 0-.8.1-.4.4-.7.5-1.1.2-.8-.9-.4-.9-.8 0-1.8-1.9-2.4-2.3-4.1-.8 1.3.1 2.3.4 3.2 1.4 4 2.4 8.1 2.4 12.3v6.1c0 .6.2 1.2.4 1.9 1.2 3.5 2 7.2 2.2 10.9 0 .7.4 1.4.6 2.2.4-1 .7-2.1.3-2.7-.7-1-.1-2.1-.5-2.9-.6-1.1-.4-2.1-.5-3.1 0-.1.1-.3.1-.3.6-.2 1.2-.4 1.7-.6.5 1.2.9 2.5.7 3.9 0 .3-.1.6 0 .8.9.9.3 2.1.5 3.1.2 1.1.4 2.2.5 3.4.1 1.4-.3 2.8.5 4.1-.1 2.7.7 5.4 1 8 .2 2 .8 3.8 1.3 5.6.2 1.1.6 2.1.8 3.2.3 2.1 1 4 1.7 5.9.4 1 .6 2 1 2.9.4 1 1.6 1.7 2.4 2.6v.2c1 2.7 3.1 4.6 4.9 6.6 1.9 2.2 4 4.3 6.4 6.1 2.5 1.9 4.6 4.2 6.9 6.3 1.2 1.1 2.3 2.2 3.6 3 .7.4 1.1 1.1 2.1 1.2 1.8.2 3.6 1 5.5.9.5 0 1.2-.2 1.5 0 .7.8 1.6.3 2.4.5.9.2 1.7.4 2.6.5 3.3.3 6.2-.8 9.2-1.8 1.1-.4 2.1-.6 3-1.5 2.6-2.7 5.3-5.3 8.4-7.5 2.2-1.6 3.9-3.9 6.2-5.6 1.2-.9 2-2.2 3.5-2.6.3-.1.6-.5.9-.8 1.5-1.9 3-3.9 4.4-5.9.3-.4.5-1 .9-1.4s1.1-.5 1.3-1c1.2-2.3 2.3-4.7 3.1-7.2 1-3.2 2-6.5 3.1-9.7.6-2 1.6-3.8 2-5.8.5-2.5 1.1-5 1.6-7.5.3-1.6 1.4-2.3 3.2-2.7-.4 1.8-.7 3.4-1.1 5.1.5-.2.8-.5 1-.9.4-.9.8-1.7 1-2.6.7-2.5 1.2-5.1 2.1-7.6.6-1.8 1.2-3.7 1.4-5.5.3-2.3 1-4.3 2.4-6.2 1.3-1.8 1.5-4 1.8-6.2 0-.4-.3-.7-.3-1.1-.2-1-.7-1.1-1.4-.9-1.3 1.5-1.1 3.9-3.2 4.7-.1 0-.1.3-.1.4-.2 1-.8 2-.5 3.1.1.5.5 1.1.5 1.6 0 .6-.4 1.2-.5 1.8s.1 1.2-.1 1.8c-.1.5-.8.8-.2 1.5.2.2-.3 1-.3 1.5-.1 1.5-1 2.2-2.4 2.6-.8-2 1-3.8.1-5.7h-1.7c-1.3 0-1.6.4-1.7 1.6-.1 1.2-.2 2.5-.5 3.6-.4 1.3-.8 2.6-1.5 3.7-1 1.6-2.6 2.4-4.6 2.4.8 1.1 1.5 2 2.1 2.9.1.1 0 .4-.1.4-.2.1-.6.2-.7.1-.5-.6-1.1-1.1-1.2-1.8-.3-1.4-1.4-1.6-2.3-1.7-2.3-.4-4.7.5-7-.6-1.5 1.2-3.4-.2-5 1-.4.3-1.5.2-1.9-.1-.7-.5-1.3-.3-1.9-.4-1.8-.2-3.6-.3-5.4-.5-.2 0-.4-.2-.6-.3-1.1-.6-2.2-1.2-3.4-1.7-.8-.3-1.4-.8-1.7-1.7-.1-.4-.5-.6-.9-1.2-.1 1.7-.3 3.1.7 4.3.8.9-.1 1.1-.4 1.6-1.3-.6-1.8-2-1.7-3 0-2.1-.7-4.1-.6-6.2-.2-1.4-.3-3-.3-4.7zm142 203.5c.6.9 1.3 1.8 1.7 2.7 1.2 2.5 3 4.7 3.8 7.4.2.8.7.9 1.1 1 2.2.8 4.1 2 6.1 3.3 1.5 1 2 2.4 2.1 3.8.3 3.5 0 4.6-1.5 9.3-.1.4 0 .8 0 1.5 1-1 2-1.7 2.5-2.6 1.6-2.8 3.5-5.5 5-8.4.9-1.8.6-3.6.7-5.3-1.3-1.7-1.2-4.5-3.7-5.3-1.9-2-4.4-2.9-6.9-3.8-2.3-.9-4.6-1.7-6.7-2.9-1.3-.8-2.6-1.5-4-2.2-3.2-1.6-6.7-2.5-9.7-4.5h-.2c-3.4-.7-6.4-2.3-9.5-3.7-1.3-.6-2.5-1-4-1-.5 0-1.1.2-1.5 0-2.4-.9-5-1.1-7.5-1-.4 0-1.1.2-1.2 0-.9-1.1-2.4.2-3.2-1h-10.5c-1.6 0-3.2-.5-4.7-.9-1.3-.3-2.7-.5-4.1-.6-.5 0-1.1.5-1.6.4-.6 0-1.2-.4-1.8-.4-1.3 0-2.5-.6-3.7-.9-1.8-.4-3.7-1.1-5.6-.6-1.2.3-2.5.2-3.6.5-1 .3-2.1.9-2.8 1.7-.7.8.4 1.6.7 2.4.1.1.1.3.2.4 1.7 5.4 3.3 10.9 5.5 16.1.3.8.5 1.6 1.1 2.4.3-.2.5-.4.8-.6 1.3-.6 2.4-1.2 4-.8 2.1.5 4.4.7 6.5-.5.1-.8-1.1-1.4-.3-2.3 1.1-.1 2.1-.2 2.5 1.3.2.7.8 1.6 1.4 1.9 1.9 1 2.9 3.2 5.1 3.7 3.9 2.9 8.5 3.9 13.1 4.8 1 .2 1.9.4 2.6 1.2 1.4 1.4 3 2.7 3.3 4.8 1.1.8 1.2 2.1 1.5 3.2.3 1.2.5 2.4.6 3.6.1 1.1.6 2.1.8 3.2.2 1.5.9 2.9 1.2 4.4.6 3 1.7 5.9 4.4 7.8 1.1-1.6 2.1-3.4 1.6-5.2-.4-1.5-.9-3.2-1.8-4.6-1.3-2-1.8-4.3-2.1-6.5-.2-1.4-.7-2.8-.9-4.2-.5-2.6-1.7-5.1-1.1-7.9.5-.5.9-1 1.5-1.4 1.1-.8 2.3-1.1 3.6-.2 1.9 1.4 4.1 2.5 5.6 4.4 1.5 1.8 2.6 3.9 4.1 5.7.8.9 1.1 2.3 1.6 3.4s1.2 2.1 1.5 3.2c.4 1.2.4 2.6.6 3.9s.4 2.6.4 3.9v3.3c.6.8 1.3 1.6 1.9 2.4.7-1.8 1.4-3.7 2.2-5.6.9-2.2 1.8-4.3 1.5-6.8-.1-1-.1-2.1 0-3.1.2-1.5-.6-2.7-1.3-3.8-.9-1.5-2.2-2.7-3.4-4-.6-.6-1.5-1-2.1-1.7-1.7-1.6-3.4-3.4-4.9-4.9v-5.8c.5.4.9.5 1.2.8 1.3 1.3 2.5 2.9 4 3.9 2.2 1.5 3.6 3.6 5.3 5.5 1 1.1 1.8 2.3 2.2 3.7.4 1.5.9 2.9 1.1 4.4.3 1.7.4 3.3.4 4.9 0 1.2-.2 2.4.2 3.8.3-.6.5-.9.7-1.3.4-1 1-1.8 1.6-2.7.6-.8.7-1.9 1-2.9s.3-2.1.8-3c.3-.7.4-1.4.5-2.1.1-2.2-1.1-4-1.7-6-1.1-.5-.6-1.8-1.4-2.5.1-2-1.6-3.3-2-5-2.9-2.5-3.2-5.8-2.4-9.5zm6-115.9c1.1-1.6 2.7-3 3.1-4.6.7-2.6 2.7-4.5 3.3-7.1.1-.5.5-1 .9-1.4 1.6-1.7 2.4-3.8 3.1-5.9.8-2.3 1.5-4.7 2.2-7 .7-2.5 1.1-5.1 2.6-7.4.1-.2.3-.4.3-.6.2-2.5 1.4-4.5 2.8-6.5.3-.5.8-1.1.8-1.7 0-2.2.8-4.2.6-6.4-.3-2.6.4-5.4-.5-8-.1-.3-.2-.8 0-1 .9-1 .3-2.1.5-3.1.2-1.2-.2-2.3-.5-3.4-.2-.9-.5-1.9-1-2.7-.3-.5-.5-1-.6-1.6-.5-2.6-1.5-4.8-4-6.3-1.8-1.1-3.7-2.2-5.5-3.4-1.7-1.2-3.5-2.3-5.3-3.2-3.1-1.5-6.1-3.1-8.9-5.2-1.4-1.1-3.1-1.7-4.5-2.8-1.5-1.2-3.7-.6-5.1-2-.2-.2-1 0-1.4.1-.3.1-.6.3-.9.3-2.1.1-3.7 1.5-5.4 2.4-.9.5-1.5 1.5-1.5 2.7 0 .7-.3 1.1-.7 1.5-.5.5-.9 1.1-1.3 1.8-.9 1.5-1.4 3.2-2.1 4.8-.5 1-1.3 2.4-.3 3.8.1-.3.1-.5.2-.7 2.3-2.6 4.6-5.1 7.5-7 .8-.5 1.9-.8 2.9-1s1.8.6 2.7.9c2.4.7 4.4 2 6.1 3.6 1.9-1.1 4.1-1 6.1-1.4 1.6-.3 3.3.1 4.9-.6.3-.1.6 0 1.3 0-.3.7-.3 1.5-.6 1.7-1.2.7-2.1 1.6-3.5 2-1.2.3-2.3.5-3.4.4-1.2 0-2.2.8-3.4.5-1.3-.3-2.6.2-3.9.6-.5.2-1 .4-1.6.4-1.7 0-3.2.4-4.7 1-1.4.5-3.1 1.3-3.4 2.1-.6 1.2-1.6 1.9-2.4 2.8-1.7 1.9-2.9 4.1-3.5 6.9 2.1-1.4 3.8-2.8 5.7-3.9 2.2-1.3 4.5-2.3 7-2.8 2.8-.5 5.8-.1 8.5.6 3 .8 6.1 1.3 9.2 2.2-1.1 1.9-2.8 3-4.8 3.3-1.7.3-3.4-.4-5.1-.7-2.2-.5-4.3-1.5-6.6-1.3-.4 0-.7-.3-1.1-.3-1.3-.1-2.7-.5-3.7 0-2.6 1.3-5.3 2.7-7.1 5-1.6 2-2.8 4.4-4.7 6.2-.4.4-.5 1.1-1 2.2 1.3-.5 2.4.2 3.4-.5.8-.5 1.6-1 2.5-1.4 2.5-1.2 4.9-2.6 7.5-3.5 1.1-.4 2.2.1 3.1-.5.7-.5 1.3-.2 1.9-.4.6-.1 1.2-.5 1.8-.5 1.5-.1 3.1-.1 4.6 0 1.6.1 3.1.3 4.7.5.2 0 .4.3.6.4 2.2.4 4 1.5 6 2.4v4.3c-1.8 1.3-3.6 2.5-5.7 3-2.3.6-4.2 1.7-6.3 2.7-2 .9-4.1 1.9-6.5 1.6-1-.1-3.9 1.2-4.9 1.7-1.8.7-2.3 2.3-3.1 3.8.2.2.5.7.7.7 2.5 0 5.1.3 7.5-1 1.5-.8 3.1-1.3 4.7-1.6 1.1-.2 2.2-.5 3.1-1.1 1-.6 1.9-1.1 3-1.5s2.3-.7 3.4-1c1.3-.4 2.4-.3 3.7-.4 2.1-.2 4.1.4 5.5 1.8.8.8 1.5 2 2.4 2.2 1 .2.9 1 1.1 1.4.5.8-.3 1.7-.8 2.4s-1.1.4-1.7.1c-.9-.4-1.9-.5-2.8-.8-1.1-.4-2.4-.5-3.2-1.6-.5-.8-1.4-1.1-2.2-1.4-1.7-.8-2.5-.5-3.6 1.1-.2.3-.4.5-.6.8-.5.7-1.1 1.4-1.6 2.1-.5.7-1.4 1.4-1.6 2.2-.4 1.5-1.5 2.3-2.5 3.5.2 1.7.1 3.7.7 5.3 1 2.8 1.3 5.8 1.9 8.7.4 2.1.7 4.3 1.1 6.5s.6 4.5 1.1 6.7c.2.8.5 1.7 1.1 2.4.1 0 .8-.1 1.7.1zm-20.7 43.3c-3 3.2-5.9 6.3-8.9 9.5-.2.2-.4.3-.5.5-1.1 1.8-2.3 3.4-3.8 4.8-.4.4-1 .8-1.2 1.3-1.3 2.3-3.4 4-5.3 5.7-2.2 1.9-4.5 3.6-6.6 5.7-.5.5-1 1-1.7 1.4-1.1.5-2.2 1.3-2.8 2.3-.9 1.4-2 2.7-3.2 3.4-2.2 1.3-3.2 3.5-5 5.1-.4 1.7-2.4 2.5-2.1 4.5 0 .1-.1.3-.3.4-1.8 1.4-2.3 3.7-3.3 5.6-.9 1.6-.7 2.2 1 3.1.7.4 1.4 1 2.1 1 1.7.1 3.3.2 4.9.5 1.4.3 3 .1 4.4.6 2.5.8 5 1 7.5 1h6.7c.5 0 1.1-.1 1.4.2.6.5 1.3.3 1.9.3.6 0 1.2.6 1.9.1.3-.3 1-.2 1.5 0 2.2.8 4.3.8 6.5 0 .5-.2 1.2 0 1.9.4 3.3 1.8 7 2.6 10.4 4.2.3-1.5-.3-2.9.6-4.1.2-.3.2-1 0-1.2-.8-.8-.3-1.8-.5-2.6-.2-.9-.5-1.7-.5-2.6 0-2.5-.5-4.9-1-7.3-.5-2.8-.7-5.7-1.1-8.5-.3-2-.4-4.1-.5-6.2 0-.2.1-.4 0-.5-.8-.7-.3-1.6-.5-2.4-.2-.9-.4-1.7-.5-2.6-.2-2.6-.4-5.1-.5-7.7 0-.2 0-.6-.1-.7-.7-.6-.2-1.4-.4-2.2-.2-.8-.4-1.6-.5-2.4-.2-2.1-.2-4.2-.6-6.2-.3-1.1-.4-2.2-.5-3.4-.1-.3-.5-.6-.8-1zm-48 217.1c.3-1.1.5-1.8.7-2.5.6-1.7 1-3.5 1.4-5.3.6-2.3 1.5-4.6 1.6-7 .1-1.1.3-2.2.6-3.3.6-2.1.9-4.2 1.4-6.3.3-1.2.6-2.5.9-3.7.6-2.1 1.2-4.2 1.2-6.4v-12.5c0-1.1-.1-2.2-.4-3.4-.4-1.7-1.2-3.3-1.6-5-.5-1.7-1-3.3-1.9-4.8s-1.7-3-2.5-4.6c-.7-1.3-1.4-2.6-2.6-3.5-1.2-1.1-2.5-2.2-3.8-3.2-1.9-1.4-3.8-2.9-6.3-3.4-.7-1.1-1.7-.2-2.1.1-.7.6-1.5.9-2.4 1.2-.7.3-1.6.6-2.1 1.1-.8.8-1.6.8-2.5.6-.2-.9-.4-1.8-.6-2.6-.2-.6-.4-1.2-.5-1.8-.1-.6-.3-1.3-.4-1.9-.6-2.6-1.2-5.2-1.6-7.8-.2-1.8 0-3.8-.1-5.6-.1-1.8-.4-3.6-.5-5.4-.1-3.3 0-6.6 0-10-4 2.5-7.9 5-11.9 7.5.1.6.2 1.2.4 1.7.4 1 1 2 1.3 3.1 1 3.9 2.7 7.6 4.3 11.3.6 1.4 1.3 2.7 1.8 4.1 1 3 2.3 5.9 3.5 8.8 1.3 3.2 2.5 6.5 3.7 9.7 1.4 4 2.7 7.9 3.8 12 1.3 4.8 3.2 9.4 4.8 14.1 1.1 3.2 2.1 6.5 3.2 9.7 1.2 3.5 2.3 7.1 3.5 10.6.9 2.6 2 5.2 2.9 7.8.9 1.8 1.8 4 2.8 6.6zM90.3 296.3c4.5 1.5 7.9 4.5 11.6 6.9.9.6 1.9.7 2.9 1.2 2.9 1.6 5.9 3 8.9 4.5 2.5 1.2 4.7 2.8 6.8 4.6.6.5.9 1.4 1.5 1.9.6.6 1.4.9 1.9 1.5 2.5 2.4 5 4.9 7.4 7.4.6.6.8 1.6 1.5 1.9 1.5.8 2.5 2.1 3.9 3s2.5 2.1 3.8 3.2c.3.3.6.7.9.9 2.8 1.9 5.1 4.3 8.1 6.3 0-.4.1-.7 0-1-.4-1.3-.6-2.7-1.1-3.9-1.6-4-3-8.1-5-12-1.6-3.1-2.8-6.4-3.9-9.6-1.3-3.5-2.7-6.9-4.3-10.3-1.9-4.1-4-8.1-6.2-12-.7-1.3-1.3-2.8-2.2-3.9-2.4-3-3.8-6.5-5.9-9.6-1.2-1.7-2.1-3.6-3.2-5.5-1.1 1.3-1.9 2.8-3.2 3.6-1.2.8-2.6 1.8-4.4.9-1.2-2.1-2.1-4.5-3.8-6.5-.5.7-.8 1.4-1.3 1.9-1.1 1.1-1.7 2.7-2.8 3.7-1.2 1.1-1.5 2.5-2.2 3.7-1.1 1.7-1.8 3.6-2.9 5.2-2.9 3.7-4.4 8-6.8 12zm195.4 109.9c0 1.5.1 2.8 0 4-.1 1.3.8 2.5.6 3.9-.3 1.8.9 3.6.5 5.4.9 1.2.1 2.7.6 3.9.5 1.3.4 2.6.5 3.9.1 1.6 0 3.2.6 4.6.5 1.1.1 2.2.5 3.1.5 1.1.5 2.2.5 3.4-.1 3.3.2 6.6 1 9.8.2.8.5 1.6.5 2.3-.1.9.5 1.6.5 2.4.1 1.6 0 3.3.5 4.9.4 1.3 0 2.7.5 4.2.5 1.3.2 2.9.5 4.4.4 1.9 0 3.9.5 5.9.3 1.3.2 2.7.5 4.1.5 2.5.6 5.1.5 7.7-.1 2.4.7 4.6.6 7 0 .6.6 1.1.5 1.8 0 .2.6.7.9.7 1.2.1 2.4.1 3.5-.1 1.9-.4 3.8-1 5.8-1.6 0-.5.2-1.3 0-1.5-1-.7-.2-1.9-.9-2.8-.5-.7-.2-2-.1-3 .2-2.3-.9-4.4-.5-6.7v-.5c-.9-.8-.2-1.8-.5-2.6-.3-.9-.6-1.7-.5-2.6.3-3.1-.6-6-1.5-8.8-.5-1.4-.8-2.9-1-4.4-.2-1 0-2 0-3.1-.1-1-.3-2.1-.5-3.1-.2-1.3-.3-2.7-.6-3.9-.7-2.4-.7-4.9-1.4-7.3-.3-1.1-.5-2.2-.6-3.4-.1-1.2 0-2.4-.5-3.6-.3-1 .2-2.3-.2-3.2-.5-1-.2-2-.4-2.9-.2-1-.4-2.1-.5-3.1-.2-1.5-.1-3.1-.6-4.4-.5-1.1-.2-2.1-.6-3.1-1-2.9-1.2-6-1.9-8.9-.2-.9-.3-1.9-.5-2.8h-6.8zM77.3 244.5c-.6.6-1.2 1.1-1.7 1.7-.2.2-.4.6-.4.8.1.7-.4 1.2-.5 1.8-.2.7-.4 1.4-.5 2.1-.4 2.6-1.3 4.9-2.4 7.2-.2.4-.2.9-.3 1.4 1.2.2 2.2.4 3.3.6 1.9.4 3.7 1.1 5.7 1 .7.9 1.9.1 2.6.6.8.6 1.7.1 2.4.5.9.5 1.8.3 2.6.5 1.1.2 2.3.3 3.3.7 1.7.7 3.4.5 5 .2 1.8-.4 3.5-1 5.7-.9-2.2-4.6-4.3-8.9-7.3-12.6 1.6-2.3 3.9-3.3 6.9-3.5-1.6-2.4-2.7-4.7-4.4-6.6-2.5-2.9-5-5.8-7.6-8.6-2.2-2.5-4-5.3-5.8-8.1-.8-1.2-1-2.6-1.9-3.8-.3.3-.6.4-.7.5-.8.8-1.6 1.5-2.3 2.4-.7.8-1.3 1.6-2.1 2.1-1 .7-.8 2-.4 2.5.5.9.3 1.6.4 2.4.1.6-.2 1.2.4 1.6-.2 1.3 1.4 2.5.1 3.9-.1 1.6.3 3.3-.5 4.9 1 1.5 0 3.2.4 4.7zm55.5 17.6c-.3.7-.4 1.2-.6 1.8-1.3 3.8-2.3 7.7-3.7 11.5-.2.7 0 1.4-.5 2.1-.2.3 0 1.2.2 1.6 1.2 2 2.2 4.1 3.5 6 2.3 3.5 4 7.3 6.1 10.8 1.2 2.1 1.8 4.4 3 6.4 1.8 3 2.7 6.4 4 9.6 1.4 3.6 2.8 7.2 4.4 10.7.7 1.5 1.3 3 2 4.5.3-5.3.3-10.5.2-15.7 0-1.5-.2-3-.6-4.4-.3-1.2 0-2.4-.4-3.4-.5-1.2-.4-2.4-.4-3.7 0-3.2.1-6.5 0-9.7-.1-3.3 0-6.5-.4-9.8-.4-3.4-1-6.8-.7-10.3v-.2c-2.7-1.4-5.1-3.3-7.9-4.3-2.8-.9-5.3-2.6-8.2-3.5zm24.6 79.2c.5-1.2 1.1-2 1.3-2.9.4-3 1.4-5.9 2.2-8.8 1-3.3 1.5-6.7 2.4-10 .5-1.8.8-3.7 1.5-5.5.8-2.1 1.6-4.2 2-6.3.6-2.6 1.4-5.1 1.7-7.8.2-1.7.9-3.5 1.5-5.2.6-1.8 1.5-3.5 2.1-5.3.8-2.2 1.6-4.4 2.5-6.8-2 0-3.9 0-5.8-.5-2.2-.5-4.4-1.1-6-2.8-.8-.9-1.5-1.9-2.4-2.8-1.6-1.8-2.9-3.7-3.8-5.8-.3-.6-.7-1.1-1-1.6-.3-.6-.6-1.3-.9-1.9-.3-.5-.6-.9-1.1-1.5v6c1.3 1.6 0 3.7.9 5.5.5 1 .1 2.5.1 3.8 0 1.2.6 2.3.6 3.6-.1 5.2-.1 10.4 0 15.6 0 1.9 0 3.9.6 5.6.5 1.4.1 2.8.5 4.2.4 1.4.5 2.8.5 4.2 0 3.5 0 7-.5 10.5-.5 3.8.2 7.5.5 11.3 0 .9-.1 1.7 0 2.6 0 .7.3 1.5.6 2.6zm136.4 18.1c-1-1.5 0-3.3-1-4.7.1-2.1-.7-4-.9-6-.2-2.4-1.2-4.6-1.1-7-.9-.9-.3-2.1-.6-3.1-.4-1.4-.8-2.8-.9-4.2-.1-1.3-.1-2.7-.6-3.8-.3-.8-.3-1.4-.4-2.1-.2-.8-.4-1.6-.5-2.3-.2-2-.4-4-.5-5.9 0-.2 0-.4-.1-.5-.7-.6-.2-1.4-.4-2.2-.2-.8-.4-1.6-.5-2.3-.2-1.6-.1-3.4-.6-4.9-.4-1.2-.1-2.3-.5-3.4-.5-1.2-.4-2.4-.5-3.6 0-.3.1-.5 0-.8-.9-2.2-.8-4.6-1.6-6.8-.4-1.1-.3-2.2-.7-3.3-.3-1.1-.4-2.2-.9-3.2-.5-1.1.1-2.1 0-3.2-.1-2.3-.3-4.6-.5-7 0-.1-.1-.3-.2-.4-.7-2.4-1.4-4.8-1.4-7.4 0-.5-.2-.9-.3-1.4-.2-1.7-1-3.2-1.3-4.8-.3-1.8-.6-3.7-1.1-5.4-.7-2.7-1.3-5.4-1.8-8.2-.5-2.7-1.1-5.4-1.2-8.3 0-1.3-.1-2.7-.5-3.9-.5-1.2 0-2.5-.6-3.6-.4-.7-.2-1.3-.3-1.9-.1-.6-.4-1.2-.5-1.8-.1-1 .2-2.2-.3-2.9-.6-1 .2-2-.6-2.9-.6-.7.2-2-.7-2.8-.4-3.7-1.2-7.3-2.1-10.9-.1-.5-.4-1-.5-1.6-.1-.4-.1-.9-.2-1.3-.3 1.5-.5 3-.2 4.3.2.7.2 1.4.3 2.2.2.8.5 1.6.5 2.3-.1 2.3.9 4.4.5 6.7 0 .2-.1.4 0 .5 1 .7.1 1.9.7 2.8.7 1 .2 2.1.3 3.2 0 .3-.1.7 0 1 .9 2.3.5 5 1.5 7.3-.4 2.8.7 5.5.5 8.2-.1 2 .9 3.9.5 5.9v.2c.9.8.3 1.9.5 2.9s.4 2.1.5 3.1c.2 2.8-.4 5.7.5 8.5.3.9-.2 2.1.1 3 .4 1 .6 1.9.4 2.9-.2 1.1.4 1.9.6 2.9.3 2.3.7 4.6 1.5 6.8.4 1.2.8 2.4 1 3.7.3 2 .4 4.1.5 6.2 0 .3-.1.8 0 1 .9.9.3 1.9.5 2.9s.6 1.9.5 2.9c-.2 2.8 1.1 5.3 1.1 8 1.2 2.6 1.4 5.4 1.9 8.1.5 2.6.7 5.3 1.2 8 .2 1.3.3 2.7.6 3.9.4 1.2.4 2.5.8 3.7.5 1.2.4 2.6.6 3.9.1.7.4 1.4.5 2.1.1.8-.2 1.7.5 2.3-.2 1.6.8 2.9 1.1 4.4.4 2.4 1.1 4.7 1.5 7 .1.6.4 1.2.5 1.8.1.9.2 1.8.5 2.6.2.4.8 1.1 1.1 1.1 1.8-.1 2.3.9 3.3 1.5zM87.5 209.3v1.6c-.1 1.6 0 3.3-.4 4.9-.4 1.5-.5 3.4 1.2 4.6.5.3.4 1.4 1.2 1.4.9 0 1.3.6 1.9 1.1 1.3 1.3 2.6 2.5 4.1 3.7 2.5 2 5.1 3.8 7.6 5.9 2.6 2.2 5.6 4.1 8.5 6 2.6 1.7 5.3 3.3 8 4.9 1.2.7 2.5 1.1 3.5 2 .8.6 1.8.9 2.8 1.1.7.2 1.5.2 2-.6.7-1 1.6-1.9 2.3-2.9 1.3-1.8 2.8-3.6 4-5.5.9-1.5 2-3 3.3-4.3 1.7-1.9 3.6-3.6 5.4-5.4.3-.3.6-.5 1-.7 1.5-.7 1.4-.6 1.5-2 .1-.7-.9-1.2-.1-1.9l-.1-.1h-1.7c-.2.4-.3 1-.6 1.1-1.8.9-2.8 2.6-4.3 3.8-.6.5-1.2 1.1-2 1.4-1.4.7-2.9 1.3-4.4 1.8-1.3.4-2.6.8-3.9 1-1.4.3-2.8.4-4.1.5-.8.1-1.5-.5-2.3-.6-1.9 0-3.9 0-5.6-.6-1.2-.3-2.3-.1-3.4-.5-2.3-.8-4.9-.9-6.7-3-3.3-1.2-5.2-3.9-7.2-6.4-1.2-1.5-2.4-2.8-4-4-1.4-1-2.7-2.4-3.8-3.8-1.2-1.5-2.1-3-3.7-4.5zm207.9 196.4c0 1.6.2 3 .4 4.4.4 2.2.7 4.4 1.2 6.4.8 3.3 1 6.7 1.9 9.9.4 1.4 0 2.9.5 4.4.4 1.3.2 2.9.5 4.4.4 1.7.4 3.6.6 5.4 0 .2 0 .6.1.7.7.6.3 1.4.4 2.1.2.8.5 1.6.5 2.3 0 1 .4 1.7.5 2.6.2.9.1 1.7.4 2.6.6 1.4.6 3.1.6 4.6 0 2.6.8 4.9 1.3 7.4.5 2.4 1.4 4.8 1.3 7.4-.1 1.6 0 3.4.6 4.9.5 1.3.2 2.6.4 3.9.2 1.4.7 2.7.5 4.1-.4 2.6.8 5 1.1 7.5.1.8.9 1.4 1.7 1.3 1.5-.1 2.9-.3 4.5-.5 0-.7.2-1.5 0-2.1-.8-2.5-1.1-5-1-7.5.1-2.4-.5-4.6-1.4-6.9-.5-1.3-.9-2.5-1.2-3.9-.2-1.3.2-2.7-.6-3.9.3-2.3-.6-4.3-1-6.5-.4-2.1-1.2-4.1-1-6.2-1.1-1.4-.2-3.2-.9-4.7-.6-1.2-.3-2.7-.6-4.1-.3-1.1-.3-2.3-.6-3.3-.9-2.8-1.2-5.6-1.8-8.4-.4-1.5-.8-3-.5-4.6-.7-.7-.4-1.5-.5-2.3-.1-.9-.4-1.7-.5-2.6-.1-1.2.1-2.4-.4-3.7-.4-1.1.2-2.5-.6-3.6.2-2.6-1.1-4.9-1.1-7.5 0-1.4-.7-2.8-1-4.2-1.6.2-2.8.2-4.3.2zM279 351.4c.2-2.6-.9-4.9-.5-7.3-1.1-.8-.4-2-.7-3-.7-1.8-1.2-3.7-1.2-5.6-.1-2.4-.9-4.8-.6-7.2-.7-1.3-.2-2.8-.6-4.1-.5-1.9-.8-3.8-.9-5.7-.1-2.4-.3-4.7-1.1-7-.3-.8-.5-1.7-.5-2.6 0-2.6-.5-5.2-1-7.8-.3-1.2-.4-2.4-.5-3.6s-.1-2.4-.5-3.6c-.3-1-.3-2.1-.5-3.1-.2-1.1-.3-2.2-.5-3.4-.5-2.3-.4-4.8-.6-7.2-.2-3.5.4-7-.5-10.6-.4-1.4 0-2.9-.5-4.4-.2-.8-.6-1.7-.6-2.6.1-2.3-.8-4.4-.6-6.7.1-1.3-.3-2.8-.6-4.1-.4-1.9-.6-3.8-.9-5.8-.3-2.2-.2-4.5-.6-6.7-.2-1.1 0-2.5-.5-3.3-.7-1 0-2.1-.7-3.1-.6-.8-.1-2-.6-3.1-.4-.9-.3-2-.5-3.1-.4-1.9-.4-3.9-.6-5.9 0-.3.1-.6 0-.8-.9-1-.3-2.3-.5-3.4s-.4-2.2-.5-3.4c-.1-.9.1-1.7-.5-2.6-.4-.7-.2-1.7-.3-2.6H258c-.2 1.7.8 3.2.5 4.8 1 .8.1 2 .6 2.8.6 1 .4 2.1.5 3.1 0 .3-.1.8 0 1 1.1 1.2.2 2.7.9 4 .6 1.2.2 2.9.7 4.3.4 1.2.1 2.6.6 3.6s.2 2 .4 2.9c.2 1 .4 2.1.5 3.1.2 1.7 0 3.6.6 5.1.5 1.3-.1 2.6.5 3.6.7 1.3.5 2.5.4 3.7-.1 1.4.6 2.6.6 3.9-.1 1.4 0 2.9 0 4.4 0 .2-.1.4 0 .5 1 .9.3 2.1.5 3.1s.4 2.1.5 3.1c.2 3.3-.2 6.7.4 10 .4 2.1.1 4.4.1 6.6 0 .5-.2 1.2 0 1.5.9 1 0 2.4.6 3.3.7 1.1.2 2.3.4 3.4.1.3-.1.8 0 1 .8.7.4 1.6.5 2.4.1.9.4 1.7.5 2.6.2 2.2.4 4.5.5 6.7 0 .2-.1.4 0 .5.7.8.6 1.7.5 2.6-.1 1 .4 1.9.5 2.9.2 2.1.4 4.3.5 6.4 0 .2-.1.4 0 .5 1 .9.3 2.1.5 3.1s.4 2.1.5 3.1c.2 1.6.1 3.4.6 4.9.4 1.3 0 2.6.5 3.6.7 1.3.3 2.6.4 3.9.1.4-.2 1 0 1.2.7.7.4 1.6.5 2.4.1.9.4 1.7.5 2.6.1 1 0 2.1 0 3.1.1 1 .4 1.9.5 2.9.1 1.5.8 2.5 1.9 3.3.9.9 1.7 1.3 2.8 1.9zM237.8 86.6c.1 1.3-.1 2.6.4 3.7.4.9.2 1.8.5 2.6.3 1 .4 1.9.5 2.9.1 1.1.7 2.2.5 3.4 1.1.8.2 2.2.9 3.2.6.9.4 2.4.6 3.6.3 1.3.6 2.5.5 3.9.8.5.4 1.4.5 2.1.1.8.4 1.6.5 2.3.2 2.6.4 5.1.5 7.7 0 .2-.1.6.1.7.8.7.3 1.6.4 2.4.2.9.4 1.7.5 2.6.2 1.8 0 3.7.6 5.4.5 1.4.2 2.9.8 4.3.7 1.5.8 3.3 1.1 4.9.3 2.1.7 4.2.9 6.2.3 2.6 1.3 5.1 1.4 7.8 1.3-1 2.1-2.5 3.3-3.4 0-2 .3-4-.1-5.9-.2-1.1-.5-2.3-.4-3.4.1-1.2-.4-2.2-.5-3.4-.2-1.5 0-3.3-.6-4.6-.6-1.1.2-2.4-.9-3.2.1-1.2-.3-2.2-.5-3.4-.2-1.1-.2-2.3-.6-3.3-.4-1-.1-2.3-.6-3.1-.7-1.1-.2-2.4-.8-3.5s-.3-2.6-.6-3.8c-.3-1.3-.6-2.5-.5-3.9-.9-.6-.4-1.6-.5-2.3-.1-.8-.4-1.6-.5-2.3-.2-1.6-.1-3.4-.6-4.9-.8-2.4-1-4.9-1.4-7.3-.5-2.9-1.2-5.7-1.8-8.5-1.1 1-2.6 0-3.6.5zm71.5 457.1c0-1.2-.3-2.4-.4-3.6-.4-3.2-.5-6.5-.6-9.7-.1-6.1 0-12.3 0-18.4 0-1.2 0-2.7-.6-3.5-.7-.9-.9-1.9-1-3.2-1.4 1.3-2.9.8-4.3.9s-2.8 0-4.4 0c.3 1 .5 1.8.6 2.5.2 1.5.1 3.2.6 4.6.8 2.2.9 4.6 1.4 6.8s.7 4.5 1.1 6.7c.4 2.5.4 5.1.6 7.7.1 1.6.3 3.1.5 4.6 1 .5.1 1.6.7 2.3s.2 1.6.3 2.4c.1 1 .9 1.4 2 1 .9-.4 2.1-.7 3.5-1.1zM230.9 48.4c1.8.8 1.7.9 2.7 2.2 3.5 4.7 4.7 10.2 5.5 15.9.2 1.5.6 3 .9 4.5.3 1.4.9 2.8.7 4.4-.2.9-.3 1.9 0 2.8.4 1.4-.1 2.2-1 3-.5.4-.8 1-1.4 1.6 2.1.2 6.4-3.2 10.5-7.8-.2-.7-.4-1.3-.4-1.9-.1-1.3-.1-2.6 0-3.8.1-1.3-.8-2.5-.6-3.9.1-.3-.3-.6-.3-.9-.5-2.8-2-5.1-2.8-7.8-.5-1.6-1.5-3.2-2.5-4.6-1.4-1.9-3.1-3.7-4.6-5.3-2.7-.5-4.9-.2-6.7 1.6zm-58.1 207.5c-.6-1.6-1.3-3.2-1.9-4.8-1.4-4.1-2.5-8.2-3.8-12.2-1.5-5-3.3-9.9-5.7-14.5-2.1-.3-4.2-.9-6.2-1-2.1-.1-4.2-1.2-6.4-.3.2 1 .5 1.9.6 2.9.2 1 .1 1.9.4 2.9.3 1.1.8 2.1 1.1 3.1.4 1.5.4 3.1.6 4.6.1 1.2 0 2.3 0 3.6 1.6-.7 3.1-1.4 4.6-2 1.7-.8 3.6-1.4 5.1-2.4.8-.5 1.5-.6 2.3-.7.8 0 1.3.5 1.3 1.2-.1 2.2 1.3 4 1.1 6.2.9.6.4 1.6.5 2.3.2.9.3 1.7.5 2.6.2.8.4 1.6.5 2.3.2 2.2.4 4.4.6 6.7 1.7.4 3.4.1 4.8-.5zm143.1 286.5c0-1-.2-2.2.1-3.1.3-.8.3-1.6.4-2.4.1-.9.5-1.7.5-2.6.1-3.3.1-6.7 0-10s.4-6.5-.4-9.8c-.4-1.9-.1-4.1-.1-6.1s-.9-3.9-.5-5.9c.1-.6 0-1.3 0-2-2 1.2-3.4 2.8-5.3 3.7-.7.3-1.1 1-.7 1.9.6 1.5.8 3.2.9 4.7.1 4.2 0 8.4.1 12.5.1 4.2-.2 8.4.4 12.6.3 2.3.9 4.7.6 7.3 1.4-.4 2.6-.6 4-.8zm-23.1-48.1c0-.4.1-.5.1-.7-.5-1.3-.2-2.7-.6-3.9-.4-1.3-.3-2.6-.4-3.9-.2-2.6-.3-5.1-.5-7.7v-.3c-.9-1.2-.4-2.6-.5-3.9-.2-1.3-.4-2.6-.5-3.9-.2-2.3-.4-4.6-.5-7v-.3c-1-1.1-.4-2.4-.5-3.6s-.7-2.3-.6-3.6c.1-1.5 0-3.2-.6-4.6-.4-.9 0-1.9-.5-2.6-.7-1 0-2.1-.5-2.9-.6-1-.4-1.9-.4-2.9v-5.4c-1.2-1.1-.2-2.7-.8-4-.6-1.2-.4-2.7-.7-4-.3-1.6 0-3.3-.5-4.9-.4-1.1.1-2.4-.5-3.7-.5-1.1-.3-2.5-.5-3.9-.5-2.5-.4-5.1-.6-7.7v-2.2h-3.1c0 1.5-.4 3 .1 4.2.4.9.2 1.8.4 2.6.2.9.4 1.7.5 2.6.2 1.6 0 3.4.6 4.9.5 1.3.3 2.5.4 3.7.1 1.3.8 2.5.6 3.9-.2 1-.4 2.3.1 3 .6 1 .1 2.1.9 3 .5.7.4 1.9.6 2.8s.5 1.7.5 2.6c-.1 1 .5 1.9.5 2.9.1 1.5.1 2.9.4 4.4.4 1.9 0 3.9.5 5.9.3 1.3-.3 2.9.2 4 .5 1.2.5 2.5.8 3.7.6 1.9.5 4.1.6 6.2 0 .3-.1.7 0 1 1 2.3.8 4.9 1.5 7.3.3 1.2 0 2.6.1 3.8.1 1.3-.2 2.6.4 3.9.5 1.1.1 2.5.1 3.8 0 1-.1 1.9.4 2.9s.4 2.4.6 3.6c0 .2.1.4.2.6.5.3 1 .3 1.7.3zm-20.7-215.1c-.1.8-.2 1-.2 1.2-.2 1.2.3 2.3.5 3.4s-.4 2.4.5 3.4c-.1 2.6.6 5 1 7.5.2 1-.2 2.1.4 3.2.5.9-.2 2.3.6 3.3-.2 2 .8 3.9.5 5.9-.1.6.1 1.2.3 1.9.6 1.9.9 3.9 1.2 5.9.2 1.6-.2 3.3.5 4.9.4.9-.2 2 .4 3.2.5.9.1 2.2.5 3.3.4.9 0 2.2.1 3.3.1 1.1.5 2.3.4 3.4-.1 1.5.3 3 .7 4.4.7 2.7 1.5 5.3 1.4 8.1 0 .3-.1.8 0 1 .9 1 .1 2.4.5 3.4.5 1.1.4 2.3.5 3.3 1.3 1.4 2.8 2.4 4.8 3.7-.4-1.3 0-2.2-.5-3.1-.5-.8-.5-1.8-.7-2.8s-.1-2.3-.6-3.1c-.6-1 0-2.2-1-2.9-.1-1.7-1-3.2-1.1-4.9 0-.8-.4-1.6-.5-2.3-.1-.9-.3-1.8-.4-2.6-.3-1.6-.7-3.2-.9-4.8-.2-1.6-.6-3.2-.8-4.8-.2-1.3-.1-2.7-.5-3.9-.8-2.4-.8-4.9-1.4-7.3-.5-2-1-4.1-1.3-6.2-.2-1.8-.9-3.6-.9-5.5 0-.3.1-.8 0-1-.9-1.1-.3-2.3-.5-3.4s-.5-2.2-.5-3.4c0-2-.9-3.9-.6-5.9 0-.2-.3-.4-.3-.6-.4-1.6-.8-3.3-1.2-4.9.1-1.4-.4-2.6-.9-4.3zm23.3-27.8c-.4.3-.7.6-.9.5-1.2-.1-2.1.5-3.1 1.2-1.1.8-2.5 1.7-3.8 1.8-2.1.3-4.1.5-6 1.9-.1 5.2.8 10.1 5 14 2.3-2.2 3.6-5.2 5.1-7.9 1.3-2.4 1.7-5.2 3.1-7.7.4-.7.4-1.7.6-2.5.1-.3 0-.7 0-1.3zm.1 254.2h-4.1c1 1.3.4 2.9.9 4.3.5 1.2.1 2.7.5 4.1.4 1.3.1 2.7.5 4.1.4 1.3.1 2.8.6 4.1.5 1.2.2 2.5.5 3.6.5 1.4.8 2.8 1 4.2.2 1.5.7 2.9 1.1 4.4.3 1.2 0 2.6.5 3.6.5.9.2 1.8.4 2.6.2.9.6 1.7.5 2.6-.2 1.2 0 2.3.9 3.4.8-.2 1.8-.5 2.5-.7-.1-.6-.3-1-.4-1.5-.2-.7-.1-1.4-.3-2.2-.5-2.4-1.5-4.8-1.3-7.4.2-2.4-.8-4.8-.5-7.2-.7-1-.4-2.2-.5-3.4-.1-.6-.4-1.2-.5-1.8-.1-.7.1-1.5-.2-1.9-.4-.7-.2-1.3-.3-1.9-.1-.6-.4-1.2-.5-1.8-.2-1.5-.2-3.1-.6-4.6-.4-2.2-.9-4.3-.7-6.6zm-5.5-4.3c2.7.3 4.9.5 7.2.7h1c2.4.6 2.4.6 4 0 .2-.1.5 0 .7.1 2.3.7 5.6.6 7.3-.7 2.1-1.6 4.5-2.8 6.2-4.9.2-.3.3-.6.7-1.3-1.8.2-3.2 0-4.7-.4-1-.2-2 .6-2.9.8-.9.2-2.1-.8-3-.3s-1.8.3-2.6.4c-1.5.2-3.2.1-4.6.6-2.5.9-5.1 1.3-7.9 1.6-.1 1.2.4 2.6-1.4 3.4zM145.8 243.2c-.2-.5-.4-.8-.4-1.2-.2-3.9-.4-7.7-.5-11.6 0-.4-.1-.7-.3-1.5-1.8 1.8-3.1 3.5-4.3 5.1-1.6 2.1-3.1 4.2-4.6 6.3-1.2 1.6-2.4 3.1-3.7 4.9h3.2c.6 1 1.2 2 1.8 2.9 2.5-2 5.8-3.1 8.8-4.9zM251.4 92.9c.7 2.4 1.5 4.7 2.2 7.2.8-.3 1.7-.9 1.9-.7.9.9 1.8.2 2.4-.1 2-1 4.1-1 6.2-1 .1 0 .3-.1.2-.1 2.5-2.9 2.1-5.9 1.1-9.2-1.3.4-2.8-.3-4.3.5-1.1.7-2.2 1.4-3.6 1.1-.2 0-.4.2-.6.3-1.8.7-3.7 1.3-5.5 2zm40.5 309.5c-.1-1.5 0-3-.3-4.3-.3-1.6-1-3.1-.8-4.8v-1.8c-1.1.7-2 1.3-2.8 1.8-1-1.8-2.2-3.3-2.9-5.2-.3-.9-.7-2-.3-2.6.5-.8.3-1.6.4-2.4.4-1.8.9-3.7 1.4-5.6-1-.7-2.1-1.4-3.3-2.1.2 1.5.3 2.9.4 4.3.1 1.5-.1 3.1 0 4.6.1 1.4-.3 2.6-.7 3.8-.5 1.4-.5 2.5.4 3.9 1.2 1.7 1.9 3.7 1.7 5.9-.1 1.8.4 3.5.7 5.1 2.1-.2 4-.4 6.1-.6zm6.6-.6c0-.9.3-1.9-.1-2.5-.8-1.1 0-2.3-.5-3.1-.8-1.1-.3-2.1-.4-3.1-.1-1.5-.1-3.1 0-4.6.1-1.2-.4-2.2-.9-3.5-.1.5-.1.8-.1 1s-.1.4-.2.6c-.1 0-.2-.1-.2-.1 0-.8-.1-1.6-.1-2.7-.4.4-.5.6-.7.8-1.5 1.8-2.7 3.7-2.3 6.2.1.8.5 1.6.5 2.3-.3 2.8 1.2 5.4 1.1 8.2 0 .7.5 1.1 1.3 1.2.9.2 1.7-.2 2.6-.7zM266 114.2c-1.3 0-2.7-.2-4 .1-1 .2-2.3.2-2.7 1.2-.3.7-.7 1.4-1.1 2.1-.3.5.2 1.5.4 2.3.1.4.4.7.5 1.1.4 2.7.8 2.1 2.5 2 1.1-.1 2.3-.5 3.4-1 1.6-.9 2.8-3.3 2.3-4.8-.3-1.1-.9-2-1.3-3zM120.7 266.8c1.4 2.2 2.6 4.2 4.1 6.5 1.4-4.3 2.8-8.3 4.1-12.2-.9-.7-1.8-1.3-2.6-2-2.7 2-3.8 5-5.6 7.7zm15.4-8.4c4.1 1.9 8.3 3.9 12.9 6.1-1.1-1.8-.4-3.4-.7-5.1-.7-.9-1.7-1.4-3-1.8-2.2-.8-4.6-.8-6.6-2-.3-.1-1.1.1-1.1.2.1 1.2-1.4 1.4-1.5 2.6zm125-60.2c1.3-.8 2.2-1.6 3.3-1.9 1.2-.4 1.4-1 1.3-2-.1-1.6-.6-3.2-.6-4.9 0-.8-.7-1.7-1.1-2.4-.8.2-1.5.3-2.1.5-.7.3-1.5.5-2.1 1-.9.7.1 1.5.2 2.2v.3c.4 2.3.7 4.7 1.1 7.2zm10-3.5c2.8-1.3 5.4-2.5 7.8-3.7-.2-1.1-.9-1.8-1.7-2-1.3-.3-2.2-1.3-3-2h-4.4c.1 1.1.4 2 .4 3 .1 1.6.1 3.1.9 4.7zm-47.3-86.5c-.2-3.7-2-6.6-1.6-10.1-1.4 1.4-2.5 2.9-4.4 2.8.2 2.2.3 4.4.5 6.7 1.7.2 3.4.4 5.5.6zm43.7 129.4c.1-1.7.5-3.4-.1-5.1-.5-1.4-.1-3.1-.5-4.6-.5-2-.4-4.1-.6-6.2 0-.3.1-.8 0-1-.8-.9-.4-1.9-.5-2.9s-.4-1.9-.5-2.9c-.1-1.1.3-2.3-.5-3.4.3-1.7-.5-3.2-1.3-4.6 0 .4-.9.2-.5 1.1.5 1.1.6 2.3.8 3.5.2 1.8-.2 3.6.5 5.4.4 1 .4 2.1.5 3.1.1 1.1.3 2.3.4 3.4.3 2.3.6 4.5 1.1 6.7l1.2 7.5zm-27.9-123.5c0-1.3.3-2.2-.1-2.7-.4-.7-.3-1.3-.4-1.9-.1-.6-.5-1.2-.5-1.8 0-2.4-.7-4.7-1.2-6.9-.5-2.3-.7-4.6-1.3-6.8-.4-1.5-.2-3.1-.6-4.6-.3-1 0-2.6-1.9-2.8 0 .6 0 1 .1 1.5.2.7.7 1.4.8 2.2.4 2.8 1 5.5 1.5 8.3.4 2.6 1.2 5.1 1.1 7.7 0 .3.2.6.3.9.6 2 1.3 4.2 2.2 6.9zm17.7 75.4c-2.4 1-2.4 1-2.3 3.4 0 .5.2.9.3 1.4.2.9.7 1.9.6 2.8-.1 1.4.5 2.5.7 3.8.9-.6 1.6-1.2 2.2-1.6-.5-3.4-1-6.5-1.5-9.8zm26 213.4c-1.1-1.8-.2-3.7-.8-5.2-.6-1.6-.1-3.3-.7-5.1-.2.6-.4.8-.5 1.1-.4 1.3-.6 2.5-1.8 3.4-.6.5-.9 1.7-.5 2.5.7 1.4.3 2.9.5 4.3 1.4-.2 2.5-.6 3.8-1zm-24.4-239.8c-.7.9-1.2 1.8-1.9 2.5-2.1 2.2-4 4.6-7.1 5.2l.6 3.3c.5-.5 1.1-.9 1.5-1.5 1-1.8 2.6-2.9 4.1-4.2 1-.9 2.3-1.2 3.2-2.1 1.2-.9 1.1-1.7-.4-3.2zm-42.2-38.7c.2 0 .5.1.7.1 3.1 0 3.6.5 3.8 3.6 0 .1.1.3.3.6 1.3-.6 2.6-1.3 3.9-1.9-.7-1.2-.6-2.6-1.8-3.3-1.1-.6-2.4-.5-3.6-.6-1.4-.1-2.2 1-3.3 1.5zm-111.8 17.9c-.3-.4-.4-.7-.6-1-.6-1-2.1-2-2.7-1.5-.9.7-1.8.3-2.6.5-1 .2-1.9.3-2.8.5-1.1.2-2.3.2-3.2 1.5h11.9zm152-74.2v-5.7c-1.2.1-2.4-.1-3.5.2 1 1.2.3 2.6.6 3.7.5 1.4 1.9 1.1 2.9 1.8zm15 140.3c2.2-2.2 3.2-4.6 4.8-6.7l-4.8 2.7v4zm-115.1-63c-2.6.3-5.3-.5-8.2 1.1h6.8c.7 0 1.5-.2 2.1.5.1.1.4-.1.7-.2l-1.4-1.4zm62.4-68.7c1.8-2 .2-4.2 1.4-6-.5-.2-.9-.4-1.4-.7v6.7zm-83.9 78.5c-.1.1-.2.1-.2.2 0 .2-.1.5 0 .7.1.1.4.1.6.2-.1-.2-.1-.5-.2-.7.1-.2 0-.3-.2-.4zm-30.7-8.5c-.1 1.2-.1 1.2.7 1.1-.2-.3-.4-.6-.7-1.1zm-31.3-9.5h.3v-1h-.3v1zm166.7-22c0-.3.1-.5.1-.7 0-.1-.2-.1-.3-.2-.1.2-.1.4-.2.7l.4.2zm-162.3 28c-.1-.1-.1-.2-.2-.3-.1.1-.2.1-.2.2s.1.2.2.3c0-.1.1-.1.2-.2zm87.1 3c-.1-.1-.1-.2-.2-.2s-.2.1-.3.2c.1.1.1.2.2.2.1-.1.2-.1.3-.2zm-18.7 1.8c-.1.1-.2.1-.2.2s.1.2.2.3c.1-.1.2-.1.2-.2s-.1-.2-.2-.3zm121 60.9l.2-.2c-.1-.1-.2-.1-.3-.2l-.2.2c.1.1.2.1.3.2zm-148.6 53.8l.2-.2c-.1-.1-.2-.1-.3-.2l-.2.2c.1 0 .2.1.3.2zm200.1 236l.2.2c.1-.1.1-.2.2-.3l-.2-.2c-.1.1-.2.2-.2.3zM151.3 152.5l.2-.2c-.1-.1-.2-.1-.3-.2l-.2.2c.1.1.2.2.3.2zm-6.6-55.3l.2-.2c-.1-.1-.2-.1-.3-.2l-.2.2c0 .1.2.2.3.2zM89.5 137c-.1-.1-.1-.2-.2-.2s-.2.1-.3.2c.1.1.1.2.2.2.1-.1.2-.2.3-.2z"/><path class="st0" d="M319.2 452.4c.6-.2 1.2-.4 1.7-.6h.6v3.9c-1.6 2.1-4.1 3-6.9 3.8-.5-.7-1-1.4-1.4-2.1-.2-.3-.4-.9-.2-1.1 1-1.3.2-2.8.6-4.4 2-1.7 4.3-3.6 7-4.8 1.1-.5 2.2-.9 3.5-.9 2 .1 4-.2 5.9.5.7.2 1.5.4 2 .8 2.8 2.6 5.6 5.2 6.9 8.9.7 1.9 1.4 3.9 1.8 5.9.5 2.5.8 5 1.2 7.5.4 2.4.1 5 1.3 7.4.4.8.4 2.1.5 3.1.2 2 .8 3.8 1.3 5.7.7 2.7 1.3 5.4 2.4 8 .9 2 1.7 4.1 2.4 6.2 1.1 3.3 2.7 6.4 4.3 9.5 1 2 2.4 3.6 4.3 4.5 2.4 1.1 4.9 2.1 7.7 1.8.8-.1 1.9-.9 1.9-1.7 0-2.8.8-5.6.6-8.5-.1-.8-.4-1.2-.9-1.7-.7-.6-1.3-.7-1.9 0-.9 1.1-2.1 1.4-3.4 1.8-.9.3-1.4 0-1.6-.8-.4-2.7.5-4.2 2.9-5.6 3.3-1.9 6.2-.8 9.1.6 1.1.5 1.7 1.7 1.8 3.1.1 3.2-.5 6.4-1.1 9.5-.2.9-.9 2-1.7 2.6-1.6 1.2-3.3 2.2-5.1 3.1-1.4.7-3 1.3-4.7 1.1-.7-.1-1.4-.1-2 0-2.5.3-4.6-.7-6.7-1.7-2.4-1.1-4-3.3-5.3-5.6-2.1-3.8-3.6-7.9-5.1-12-.9-2.5-1.8-5.1-2.6-7.6-.6-1.7-.9-3.5-1.4-5.3-.9-2.8-1-5.8-2-8.6-.6-1.6-.3-3.4-.6-5.1-.4-1.8-.5-3.7-.9-5.5-.4-1.7-.7-3.5-1.2-5.2-1.2-5-3.7-9.4-8.2-12.1-1.5-.9-3.5-1.2-5.2-.8-1.2 0-2.1.8-1.6 2.4zm-85.7 69.9v4.6c0 1.7 1.1 2.7 2.3 3.7.3.3 1.2.3 1.4.1 1-.8 2.1-.3 3.1-.5.5-.6.9-1.5 1.5-1.8 1.2-.5 1.7-1.5 2.3-2.4s1.2-1.8 2-2.5c1.6-1.5 2.2-3.4 2.7-5.3.9-3.2 1.2-6.5 1.1-9.8-.1-3.6.1-7.2-.1-10.7-.1-3.4.8-6.6.6-10-.1-1.1.6-2.2.5-3.4-.1-1.1.8-2.2.5-3.4 1.1-.8.2-2.2.9-3.2.6-.8.2-2.2.5-3.3.5-1.8.4-3.8.6-5.6.2-2.1.6-4.2 2.4-5.7.7-.6 1.2-1.3 1.6-2.1 1.7-3.3 4.8-4.9 8-5.8 2.3-.6 4.8-.5 6.6 1.8.9 1.2 2.3 2.1 2.4 3.9 0 .5.7 1.1.3 1.8-.5.8-.8 1.8-1.9 2.1-.1 0-.3.1-.4.2-1.3.6-2.6 2-4 1.2-1.2-.7-2.4-1.8-3-3.3-.1-.2-.3-.4-.3-.4.6-.6 1.1-1.1 1.7-1.6-1.5-1.6-1.8-1.8-3.4-2.1-.8 1.1-1.5 2.3-2.4 3.3-1.1 1.2-1.6 2.5-1.5 4 .1 1-.4 1.9-.5 2.9-.2 1 .2 1.9-.4 2.9-.5.9.2 2.3-.6 3.3.1 2.4-1.2 4.6-1 7-.9 1.7-.2 3.5-.5 5.2-1 5.4-.3 10.8-.5 16.2-.1 1.7-.8 3.2-.6 4.9.2 1.6.3 3.3 0 4.8-.5 2.6-1.3 5.2-2.5 7.7 0 .1 0 .2-.1.2-2 1.7-3.3 3.9-4.9 5.9-.9 1.2-2.3 1.9-2.9 3.4-2.3 1.7-4.6 3.6-7.7 3.7-.9 0-1.7.4-2.6.5-.8.1-1.7 0-2.6 0-2.6.2-3.3-1.3-4.4-3.4-.5-.9-.5-1.9-.5-2.9v-3.6c1.8-2.4 4.2-4.2 6.9-5.4 1-.5 2.1-.5 3.4-.7.1 2.5-2.5 2.3-4 3.6zm-43-38.6c-1.3 1.5-2.7 2.8-4.8 2.3-2.3-1.9-4.1-4.1-5-7 .9-2.1 2.9-2.4 4.8-3.2 2.2 2.2 4.9 4.2 5 7.9zm-25.1-53v-3.9c1.6-1.8 3.6-3.1 6.4-2.7 3.2 2.9 1.7 5.1-1.6 6.1-.8.3-1.6 1-2.7.1-.3-.3-1.3.2-2.1.4zm-17.8-237.6c.7 1.2 1.3 2.2 1.9 3.3l-.3.3-1.7-1.7c-.9.7-1.7 1.3-2.2 2.4-.4.7-1.1 1.3-1.7 1.9-1.8 1.9-4 3.3-6.3 4.7-1.7 1-3.3 1.8-5.2 2.2-.2 0-.4.3-.6.3-2.1.2-4.3.6-6.4.5-1.8-.1-3.7-.6-5.5-.8-3.4-.3-6.1-2-8.8-3.4-1.9-1-3.7-2.2-4.9-4.2-1.4-2.3-3.4-4.3-5.2-6.3-.8-.9-1.3-2.3-3.2-2.1.7-.5 1.2-.9 1.2-.9.6.7 1.5.2 2.2.4s1.4.4 2.1.5c1.6.4 3.3.8 5 1s3.4-.2 5.1.1c3.3.5 6.8.3 10 1.8 2 .9 4 .5 6.1 0 1.3-.3 2.7-.7 4-.8 1.3 0 2.7-.5 3.9.4 3 .1 5.8 1.5 8.8 1 .4-.2 1-.4 1.7-.6zm-7.5 2.5c-1.9.3-3.7-.3-5.6.5-.9.4-2.2 0-3.3.1s-2.3.5-3.4.5c-2.8-.1-5.7-.3-8.5-.5-.3 0-.5-.3-.8-.4-.8-.2-1.6 0-2.3-.5-.6-.4-1.8-.1-2.3-.6-.7-.8-1.7-.1-2.3-.6-.6-.5-1.3.5-2.1-.3-.5-.5-1.4.1-1.6 1.3 2.4 1.6 4.8 3.5 7.8 4.3.9.3 1.7.9 2.7 1 2.2.3 4.5.4 6.7.5 1 .1 2.1-.1 3.1 0 1.3.2 2.4-.4 3.6-.6.5-.1 1.1-.3 1.6-.5 2-.6 3.9-1.4 5.8-2 1-.4 1.2-1.1.9-2.2zM112.9 170c.4.4.6.6.9 1-.4.5-.7.9-1.2 1.3-2.2 1.7-2.1 5.7.2 7.4.9.7 2 1.1 3.1 1.1 1.6-.1 2.7.6 3.7 1.6.9.9 1.8 1.7 2.9 2.3.6.4 1.3.9 2.3.7.9-.1 1.8-.2 2.6.4.3.2 1 0 1.5-.1.2 0 .4-.4.6-.4 1.9.4 3.3-.9 4.6-1.8 1.2-.9 2.4-1.3 3.8-1.3 1.8.1 2.8-.8 2.9-2.7.1-2.6.4-5.3-1.3-7.9.7-.1 1.2-.2 1.6-.1.2 0 .6.3.6.5.3 1.7 1.4 3.3 1 5.2-.3 1.6-.6 3.1-1.1 4.7-.1.4-.7.7-1.1.9-1.2.5-2.4 1.3-3.7 1.5-1.5.2-2.7 1-3.9 1.7-2.6 1.3-6.8 2.4-9.1 2-1.4-.3-2.7-.9-4.1-1.2s-2.6-1.2-3.8-1.9c-2.1-1.2-3.9-2.9-5.9-4.4-.6-.4-1-1.4-1-2.1-.2-2.6.6-4.9 2-7.1.4-.5 1.2-.8 1.9-1.3zm42.2 24.4v-1.7c.2-2.1-.7-3.8-2.2-5.2-1.8-1.8-3.7-3.7-5.3-5.8l1.2.6c2.4 1.1 4.6 2.4 6.4 4.4 1 1.2 1.8 2.4 2.3 3.9.4 1.2.2 2.3-.4 3.3-.4.6-1 1-2 .5zm-51.8-16.5c-1.5 1.7-3.1 2.5-4.7 3.4-1.2.6-2.5 1.1-3.4 2.2-1.1 1.4-1.5 2.8-.5 4.6-.5.3-1.1.6-1.6.9-.8-.2-1-.7-1.1-1.5-.2-1.7.3-3.3 1.3-4.6s2.1-2.4 4-2.8c1.9-.3 3.7-1.3 6-2.2zm-17 12.2c2.1-.5 2.4 1.2 3.1 2.2.5.7 0 1.4-.9 1.9-1.3-1-1.7-2.4-2.2-4.1zm71.6 6.9c0 1.9-1 3-2.6 3.6-.1-.1-.4-.3-.6-.5 0-.1-.1-.2-.1-.2.4-.6.7-1.3 1.3-1.7.5-.5 1.3-.8 2-1.2z"/><path class="st0" d="M103.9 177.7c0 .8-.6.4-1 .5 0-.7.6-.4 1-.5zm.3-.5c.1.1.2.1.2.2-.1.1-.1.2-.2.3l-.2-.2c0-.1.1-.2.2-.3zm36.5 96.3c.2 1.5-.1 2.9.5 4.2.3.7 0 1.4-.8 1.9-1.1.6-2.2 1.2-3.5 1.5-1.2-1.8-2.1-3.8-.8-5.8 1-1.3 2.7-2 4.6-1.8zM96.8 157c-.6 1.1-1.3 1.9-2.4 2.4-.1-1.5 1-2.6 2.4-2.4zm-5.1-3.7c.3.5.4.7.4.7-.6.7-1.2 1.5-1.9 2.1-.2.2-.6 0-1.4 0 1-1 1.8-1.8 2.9-2.8zm15 .8c-.8.2-1-.1-.6-1.2.3.5.5.8.6 1.2zm-2-.4l.2.2c-.1.1-.2.1-.3.2l-.2-.2c.1-.1.2-.1.3-.2zm34.7-.2c1.6.2 3.2.5 4.8.7.6 1.3-1 .8-1.2 1.6-.7-1.4-2-1.1-3.1-1.1-.3 0-.5-.4-.8-.6l.3-.6zm22.6 6.2c1 1.4 3.2 1.5 3.3 3.9-1.7-.8-2.5-2.1-3.5-3.2-.1-.1.1-.4.2-.7zm3.1-1.5c.8.6 1.5 1.2 2.3 1.8-1.2-.1-2.3-.1-2.3-1.8zm-8-8.7c.2-.2.4-.5.6-.5.6-.1 1.3 0 1.9 0-.2.2-.4.5-.6.5-.6.1-1.2 0-1.9 0z"/><circle class="st0" cx="128.8" cy="154.1" r=".9"/><circle class="st0" cx="174.2" cy="158.7" r=".9"/><g id="Режим_изоляции"><path class="st0" d="M339.5 258.3c.2.2 33.8 35.4 36 42.4 1.7 5.5.8 12.1-2.9 17.1-6.8 9.2-21.3.9-16.5-9.4 3.6-7.5 13.7-7.1 13.7-7.1s2.8-.3-3.7-8.3c-6.5-7.9-31.1-38.3-31.3-38.6.1.1 4.8 3.8 10.1.4 5.4-3.4 10.8-6.9 15.5-3 4.7 3.8 9.7 10.5 9.7 10.5-.1 0-7.6-3.5-14.5-1.4-6.9 2.2-16-2.5-16.1-2.6zm75.6-170.5c.2.1 37.8 31.2 40.7 37.8 2.3 5.3 2.3 11.9-.8 17.4-5.6 9.9-21.1 3.4-17.5-7.4 2.6-7.9 12.7-8.7 12.7-8.7s2.8-.6-4.7-7.8c-7.4-7.1-35.4-34.4-35.6-34.6.1.1 5.2 3.2 10.1-.8 5-4 9.9-8.1 15.1-4.8 5.1 3.2 10.8 9.3 10.9 9.3-.1 0-7.9-2.6-14.6.3-6.6 3-16.2-.6-16.3-.7zm36.7 6.9c.1.1 31 18.3 33.9 22.8 2.3 3.5 3 8.4 1.4 12.7-3 7.8-14.9 4.9-13.5-3.4 1-6 8.2-7.8 8.2-7.8s2-.8-4.3-5.1c-6.2-4.3-29.6-20.9-29.8-21 .1 0 4.1 1.7 7.2-1.7 3.1-3.5 6.3-7 10.4-5.2s8.9 5.5 9 5.5c0 0-6.1-1-10.5 1.9-4.5 2.8-11.9 1.3-12 1.3zm-19 148.2c-3.6-9.4-7.6-18.6-12-27.5-.5-1-1.1-2-2.2-2.3-.8-.2-1.6.2-2.3.6-14.5 7.5-31.5 10.1-47.7 7.3 2.7 6.2 5 12.6 6.9 19.1.4.3.8.6 1.2 1 .7.4 1.5.8 2.2 1.3 1.7 1 3.3 2 5 3 2.1 1.2 4.2 2.2 6.3 3.3-1.7-5.3-2.8-10.7-3.4-16.2-.1-.9-.1-1.9.5-2.5.7-.7 1.8-.6 2.8-.5 7.8 1 15.6 2.1 23.5 3.1.7.1 1.5.2 2.1.6.7.5 1.1 1.4 1.5 2.2 5.6 13.2 10 28.2 4.7 41.6l-.3.6c0 .1-.1.1-.1.2s-.1.2-.1.3l-1.2 1.8c-1.3 1.9-2.7 3.7-4.2 5.5-.4.5-.9 1.1-1.3 1.6 4.9 1.5 10.8.4 14.9-2.9 5.7-4.6 8.2-12.4 8.1-19.7.1-7.5-2.3-14.6-4.9-21.5zm55.7-36.5c-6.3-16.1-13.2-32-20.8-47.6-7.1 9.2-14.2 18.4-21.2 27.6v.7c1.2 2.2 2.4 4.5 3.6 6.7.3.6.7 1.3 1.4 1.5.9.3 1.9-.3 2.7-1 3.7-3 7.3-6.1 11-9.1 7.8 14.3 15 28.9 21.7 43.8 6.9-8.7 13.9-17.4 20.8-26.1-3.3-3.1-6.1-6.6-8.3-10.6-4.6 4-8.3 8.8-10.9 14.1zm40.6-40.9c-.5-.6-.8-1.3-1-2l-.3-.6c-4.2 3.6-8.4 7.3-12.6 10.9-5.5-12.5-9.9-25.5-13.3-38.8-6.3 5.4-12.5 10.9-18.8 16.3l-1.1 1.5c.5 6 1.4 12 2.8 17.8l10-9.4c5.8 11 11.7 22 17.5 33 6.1-6.9 12.3-13.8 18.4-20.7.6-.7 1.3-1.5 1.5-2.4.1-.2.1-.5.1-.7-1.2-1.5-2.2-3.2-3.2-4.9zm-72 42.4c-3.9.9-7.6 2.4-11.1 4.3l-.7 1c-3.2 18.3-2.7 37.2 1.6 55.3 2.9-3.6 6.1-7.1 9.1-10.7-.2-.5-.5-1.1-.7-1.6-2.2-4.6-3.1-9.7-2.8-14.8 3-2 6-4.1 9-6.1.9-.6 1.9-1.2 2.9-1.1 1.5.1 2.5 1.5 3.3 2.7l6.3 9.6c2.5-2.8 4.9-5.5 7.4-8.3-8.8-9.6-16.9-19.7-24.3-30.3zm1.4 20.2c-.7 3.4-4.4 5.8-7.8 5-.6-.1-1.2-.4-1.6-.9-.8-1-.4-2.4.1-3.5 1.1-2.9 2.2-5.8 3.4-8.7l.8.4c3.3.6 5.8 4.3 5.1 7.7zm30.3-158.3c3.2.5 6.6-1.1 8.3-4.4 1.3-2.6 2.3-5.9 1.7-8.9-.6-3.3-2.8-6.8-5.9-8.3-1.1-.5-2.4-.3-3.6-.6-.7-.2-1.7-.7-2.3-1.1-1.6-.7-3-1.4-4.6-2.1-3-1.4-6.1-2.8-9.1-4.2-6.1-2.8-12.2-5.6-18.2-8.4-3.9-1.8-7.8-3.5-11.7-5.3-.3-.1-.7.2-.7.5-.1.4-.2.7-.3 1.1 3.2 1.6 6.2 3.4 9.1 5.4.5.3.9.5 1.4.9.1.1.2.2.3.1.7.4 1.2.7 1.6.9l10.8 5.7c5 2.6 10 5.2 15.2 7.4 1.2.6 2.5 1.2 3.7 1.8-.4.6-.7 1.1-1.1 1.7-.2.3-.4.7-.6 1-2.2 4.4-2.4 10.8 1.6 14.4 1.5 1.6 2.9 2.2 4.4 2.4zm-4.2-9.5c-.2-.8-.4-1.6-.4-2.3.1-3.4 3.7-5.2 6.7-4.2 1.8.6 4.7 2.6 5.2 4.6.7 2.8-.2 5.7-3.7 6.6-.9.3-1.8.2-2.7 0-2.3-.5-4.3-2.5-5.1-4.7zm22.5 50.5c-.9-.5-1.8-1-2.6-1.5-.6-.9-.2-1.6 1.1-1.9 1.1-1.3 2.9-2.3 4.1-3.4 3.3-3 6.3-6.3 9-9.9-1.2.2-2.5.4-3.7.6 1.6 12 3.6 23.9 6 35.8.2 1.2 3.3-.2 3.7-.6 3-3 6.1-6 9.1-9 1.9-1.9 4.5-3.4 4.5-6.1-.1-.2-.2-.3-.4-.3-1.6-.8-3.8.1-4.7 1.6-.1.2 0 .3.1.4l.3.3c.8.8 4.4-.6 3.6-1.4-.1 0-.1.1-.2.1-.9.2-1.8.3-2.7.5.9.5-5.6 6.7-6.2 7.3-2.3 2.3-4.7 4.6-7 6.9 1.2-.2 2.5-.4 3.7-.6-2.4-11.9-4.4-23.8-6-35.8-.1-1.1-3.3.1-3.7.6-4.3 5.8-9.4 10.7-15.3 14.8-.2.1-.7.6-.3.8 1.3.8 2.6 1.5 3.9 2.3 1.1.5 4.4-1 3.7-1.5zm9-34.6c3.1-7 7.1-13.4 12-19.2-.5.1-1.1.2-1.6.3-2.6 8.8-1.1 17.9 4.3 25.4.4.5 1.7-.4 1.8-.9.2-6.5 3-12.3 8.1-16.4 1.1-.8-.2-1-.9-.4-5.5 4.4-8.8 10.5-9 17.6l1.8-.9c-5.2-7.3-6.8-16.2-4.3-24.8.3-.9-1.4.1-1.6.3-4.9 6-9 12.5-12.1 19.6-.6.6 1.2-.1 1.5-.6zm-87.9 379.1c2 4.2 4.1 8.7 6.3 13.3h2c-2.4-4.4-4.8-9.6-8.3-13.3zm121.2-28.8c0-.2.1-.3.1-.5-.1 0-.2.2-.1.5zm-88.4 42h2.6c-5.5-8.4-11.4-16.1-17.1-22.3 5.2 7.6 11.4 15.7 14.5 22.3zm79.4-24.1c.1 1.3 6.5 22.8 6.9 24.1h.9c-.5-1.1-7.2-23-7.8-24.1zm-24.3-3c.9 6.1 5.6 21 6.7 27.2h1.1c-.6-4.4-4.2-17.9-5.6-21.1.6-.3.9.1 1.4 0-.4-1.2-1.3-.7-2-1.2 1.5-1.1-.2-1.2 1.4-2.9-1.8 2.1-1.4-2.9-3-2zm19.8-10.5c-.9-1-1.2-4.1-2.6-3.7 2.8 5.2 2.7 10.7 7.1 14.4-2.1-5.3-4-7.2-3.6-10.3 1.6-1.9 1.3 1.8 2.6.9-2.9-4.8-2.8-10.7-6.8-13.8 2 5.4 5.2 8.3 3.3 12.5zM400.5 441c.4.5 1.3 2.6 2 4 1.5 3 2.9 3.6 4.2 5.7 3.3 5.4 6.9 11.4 10.7 17.7h3.5c-.9-1.1-1.9-2.2-2.8-3.3-7.9-8.9-11.9-20.5-18.4-27.3-2.1-2.2-8-3.7-9.1-6.9-1.7-5 5.5-10.5 5.2-14-1.4 3.3-7.3 9-6.1 13.7 1.4 5.5 7.7 6.5 10.8 10.4zm21.2-6.1c5.3 8.5 11.1 22.4 16.4 33.6h3.7c-5.5-11.8-10.2-23.6-13.5-34.7 9.3 10.4 18.6 22 27.4 34.7h5.2c-9.1-14.3-24.4-32.9-34.2-49.6-4.2-7.1-8-16.6-16.7-16.7 2.5 4.9 11.9 8.3 8.2 13.8-6.2 2.3-7.3-9.5-10.5-12.7-.6 10.8 8.3 19.7 10.4 28.4 1-.6 2.7 1.7 3.6 3.2zm-30.8 25.8c-1.1 1-2.6-.7-1.4 1.4 1.9 2.1 3.8 4.3 5.7 6.4h4.6c-9.1-10.7-19.4-22-29.6-29.7 1.1-5.2-.4-4.6-.6.3 7.7 5.5 14.3 14.2 21.3 21.6zm-14.4 7.8h2.1c-5.5-4.7-11.2-9.4-16.2-15.2-.6-2.9.5-5.3.3-8-5.5 9.3 7.6 17.3 13.8 23.2z"/><path class="st0" d="M507.8 367.8c-.3-.6.6-1.2 1.1-.6-4.3 9.6.2 22.4 3.5 28.9-.6 9.4 1.2 19.5 3.2 29.8 2.1-.3 1.8 3.2 2.5 5.2-2 .4-1.2 1.8-3.2 2.3.8 2.5-.3 4.4 1.4 7.2.9 1.6 5.3.1 4.6 2-1.9 0-.9 3.2.5 2.8.2-.2.4-.3.6-.5-.2.2-.4.4-.6.5-1.4 1.3.1 2 .9 1.5-1.2 2.6 3.5 17.3 4.2 21.7h.8c-4.4-20.7-9.5-52.6-9.5-71.5 1.9.5.6-.4 1.4-1.4 3.8 11.9 7.1 20.2 13.2 28.4-2.7-8-5.7-13-8.4-20.1-4.2-10.8 1.5-18.8-5.8-23.5 4.5-3.7-2.5-13.8-4.7-16.9-.2 6 8.8 15.1 1.3 18.6-9.1-1.3-3.1-12.8-6.4-17.5.2.8-2.4 3.2-.6 3.1zm12.9 71.3c.3 1.9-1.5-.9-2.6.6-1.1-2.6-2.8-5.4.3-6.6.4 1.6.1 5.4 2.3 6zm-13.1 2.2c-8.9-15.7-10.8-36.5-19.4-48.2-2.7 1.6-.2 5-1.5 7.2-1.6-.6-2.3-3.6-3.4-5.5-1.1.6-2.3 1.1-3.4 1.7 6 19.7 7.8 36 13 57-2.2 1-4.7 1.9-3.8 4 1.9-.1 2.8-2.8 3.5-1.7.9 4.5 1.7 8.7 2.7 12.7h1.3c-4.6-19.2-6.5-37.6-5.3-54.8 4.6 6.8 7.2 16.3 13.5 23.3-.7.4-1.3.8-.6 1.7 1.7.8 1.5 1.7 2.8 4.3 3.1 6.4 7 18.8 9.2 25.5h5.6c-2.9-8.9-9.5-26.2-14.7-34.1-1-2.8-1.7-.9-.3.9-.4 1.8 2.5 4.7.8 6zm-43.1 9.7c2.1 5.6 4.5 11.5 7.1 17.5h12.6c-4.4-9.2-8.5-17.9-11.3-25.2-14-8.3-16-35.1-27.4-50-.2 15.2 16.6 29.8 19.1 46.2.6 3.7-1.5 7.7-.1 11.5zm18-58c-2.1-5.5-3-10.6-2.5-15.2 3.7 2.7 4.2 10.6 7.1 12.9-1.2-2.6 1-1.4 1.4-2.8-3-4.7-5.6-10.6-9.6-12.4-1.2 5.9-1.8 9.1-1 15.4 1.9-.5 2.9 1.8 4.6 2.1zm85.5 11.6c-1.7-3.6-3.3-7.1-3.8-10.4-.4-3.5 1.6-6.6.3-9.4-3.9-8.7-17.5-7.9-25.4-3.9 3.9 3.1 9.4-3.1 12.3.4 1 3.2-2.1 5-.9 8.3-2.8-2.2-7.3-1.5-11.7-2.1 3.8 4.3 9.2 3.9 14.6 3.6-2.1 11.4-1.8 26-3.9 35 .2-.1.6.1.8.8-1.5 4.4.3 34.7.6 41.8h5.3c-.5-9.8-2.8-45.6-1-52 .3-1.1-1.8-1.1-.8-3.1 1.1-.4.1 1.1 1.1.9.1-3 1-5.7.6-8.9-.4-1.2-.4 5.5-1.5 7.1-1.4-4.8 3.5-10.2.7-10.3.7-.7 3.2-2.1 1.5-2.9.2.7-.2 1.2-.6 1.7-.1-5.3 1.2-1.5 2.6-6.3 3.3 6.1 6.4 12.1 9.2 18.1v-8.4zM351.7 122.8c.5-.7 1.1-1.4 1.6-2.2 3.2-3.3 7.1-.2 10.3-1.5 1.5-.6 2.6-1.9 3.8-2.7 1.4-.8 3.2-1.7 4.9-1.6 3.6.2 9.4 4.5 11.5 8 1 1.6 1 3.5 1.9 5.3 2 4.3 6.1 8.7 10 13.2 4.1 4.7 8.7 9.3 13.1 12.7 1.3 1 3 1.6 3.7 3.2-1.7 3-4.7.8-6.8 0-4.9-1.8-9.2-3.5-14.5-5.1-2-.6-5.6-2-6.9-.3-1.4 1.9 1.6 5.3 3.6 7 2.5 2.2 5.8 4.2 8.8 6.6 1.8 1.5 7.1 5.1 5.5 7.1-1 1.2-4.2-.3-6.2-1.1-6.5-2.5-12.9-5.9-19.4-8.2-4.1-1.5-8.5-2.1-12.7-3.6-4.3-1.5-8.5-2.7-12.7-4.2-.8-.6-1.5-1.1-2.3-1.7-.6-.8-1.5-1.9-1.9-2.8-1.8-4.4-2.1-9.5 1.4-14.1.6-.8 1.6-1.5 2-2.4.7-1.4-.4-4.3-.3-6.1.2-2.3 1-4 1.6-5.5zm37 19.9c-1.1-.6.1-3.1.1-3.8 0-3.9-3.4-5.6-6-9.2-.7-.9-.4-2.4-.9-3.8-1.1-2.9-4.8-8.2-8.5-9.1-3.4-.8-5.5 3.7-8.9 4.8-2.6.8-5.2-1.1-7.9-.4-2.4.6-4.8 3.5-5.1 6.2-.2 2.3 1.9 5 1.1 7.1-.9 2.6-3 3.4-4.2 5.1-2.5 3.5-2 8.7.6 11.3 2.8 2.8 5.8 3.5 8.7 4.4 2.1.6 4.2 1.4 6.2 1.9 4.1 1.1 8-.2 12 1.3.2.5.2 1-.4 1.6 5.8.9 12.7 4.6 18.9 8.3 2.1 1.2 4.1 2.9 6.4 3-2.7-5.6-12.6-9.9-17.9-15.2-2.8-2.8.6-7.9 4-8.4 4.3-.7 12 4.6 16.8 7 1.6.8 3.4 2.2 4.9 1.3-.3-1.9-2.4-2.9-4-4.2-4.9-4-9.9-8.4-13.8-12.3-.4 1-.6 3.9-2.1 3.1z"/><path class="st0" d="M353 136.3c2-1.6 4-2.6 6.1-3.1-.2-2.7.2-5.4 2.8-8.5-.4 2.6-1.7 5.3-.2 7.7 3-.1 5.8-1.5 9.2.4-.3.6-1.3.4-1.9.5-2.3.4-6.4.7-8.1 3.8-1.1 2-1.1 4.7-.9 6.8 0 .5.4 1.3-.1 1.7-2.6-2.9-3.6-6.1-.7-9.8-2.4-1.4-4.2.1-6.2.5zm179.4 186c.2-.8.6-1.7.8-2.6 1.9-4.2 6.6-2.6 9.2-4.9 1.2-1.1 1.8-2.7 2.7-3.8 1-1.2 2.4-2.7 4.1-3.2 3.5-1 10.4 1.1 13.5 3.6 1.5 1.2 2.1 3 3.6 4.3 3.3 3.4 8.7 6.1 13.9 9 5.4 3 11.3 5.8 16.6 7.5 1.6.5 3.4.5 4.6 1.8-.6 3.4-4.2 2.3-6.4 2.3-5.2 0-9.8-.2-15.4.1-2.1.1-5.9 0-6.6 2.1-.7 2.3 3.3 4.4 5.8 5.4 3.1 1.2 6.9 2 10.5 3.2 2.2.8 8.4 2.4 7.6 4.8-.5 1.5-4.1 1.1-6.2 1.1-7-.2-14.1-1.2-21-1.1-4.4 0-8.7.9-13.2.9-4.6 0-8.9.3-13.4.3-1-.3-1.8-.5-2.7-.8-.8-.5-2.1-1.3-2.7-2-3.2-3.5-5.2-8.2-3.5-13.7.3-1 1-2 1.1-2.9.2-1.6-1.8-3.9-2.3-5.6-.8-2.3-.6-4.2-.6-5.8zm41.6 6.2c-1.2-.2-1-3-1.2-3.6-1.3-3.7-5.1-4.1-8.8-6.6-1-.6-1.2-2.1-2.1-3.3-2-2.4-7.3-6.1-11.1-5.7-3.5.4-3.9 5.3-6.7 7.5-2.2 1.6-5.3.7-7.6 2.3-2.1 1.4-3.3 4.9-2.7 7.6.6 2.2 3.5 4.1 3.4 6.3 0 2.8-1.7 4.2-2.2 6.2-1.2 4.1 1.1 8.9 4.4 10.4 3.6 1.7 6.6 1.3 9.7 1.2 2.2-.1 4.4-.1 6.5-.3 4.2-.4 7.5-2.9 11.7-2.8.4.4.5.9.2 1.6 5.8-1.1 13.5 0 20.6 1.4 2.4.4 4.8 1.3 7 .7-4.4-4.4-15.2-5-22-8.2-3.6-1.7-2.1-7.6.9-9.3 3.8-2.1 12.8.3 18.2.9 1.8.2 3.9.9 5.1-.4-.9-1.7-3.2-1.9-5.2-2.6-6-2.1-12.2-4.6-17.1-6.9-.1 1 .7 3.8-1 3.6z"/><path class="st0" d="M538.2 334.5c1.3-2.2 2.9-3.8 4.7-5-1.1-2.5-1.6-5.1-.2-8.9.5 2.6.2 5.6 2.4 7.3 2.8-1.1 4.9-3.4 8.8-2.7-.1.7-1.1.8-1.6 1.1-2 1.2-5.8 2.8-6.3 6.3-.4 2.3.6 4.8 1.5 6.7.2.5.8 1.1.5 1.6-3.4-1.8-5.5-4.5-4-9-2.8-.4-4 1.6-5.8 2.6zm-146.3-6.6c-4.3 4.3-4.3 13.6-2.7 18.7 2.5 8.1 11 16.9 20.2 14 17.3-5.6 3.6-40.4-11.7-35.7-.9.3-3.9 1.1-5.8 3zm13.8 32.3c-7.4-.5-13-7.4-15.1-14-1.4-4.7-2.3-15.1 3.7-18.9 1.1-.8 1.2-.6 2.2-1 8.2-4.2 15.5 7.2 17.8 13.7 2.5 7.1 2.3 20.9-8.6 20.2z"/><path class="st0" d="M399.9 332c-6.2 1.8-9.3 8.3-7 14.4 2.1 5.4 8.5 11.4 14.7 9.2 11.7-4.1 1.5-31-7.7-23.6zm3.8 23.1c-9.4-1.8-15-18.8-4.3-22.4.3.1 1.1-.1 1.3-.2.1-.1.2-.2.3-.2.1 0 .1-.1.2-.1 4.4-3.4 8.7 6.3 9.5 9.3 1 4.6 1.3 15.1-7 13.6zm25.9-35.1c-6.1-.3-9.8 4.6-9.6 10.4.2 4.5 1.8 9.6 3.6 13.7 2.1 4.5 6 7.8 7.9 12.3.2.5 2.7-1.3 3.6-1.5.2-.1.8-.3.6-.6-3.9-4.7-6.6-10-8.2-15.8 4 2.1 10 2.2 11.6-2.7 2.3-6.7-2.1-15.4-9.5-15.8zm8.5 13.9c-.1.9-.2 1.4-.4 1.8-.2 1-.7 1.8-1.6 2.4-2.4 1.1-5.4 1-6.4.5-1-.4-1.9-1-2.7-1.8-.3-.2-1.5 0-1.4.5 1.4 6.3 4.3 12.1 8.3 17.2-.5.1-1 .6-1.6.6-2.1-3.8-5.4-7.2-7.2-11.3-2-4.3-3.8-10-3.6-14.8.1-1.1.2-2.1.5-3.2.3-1 .8-1.9 1.4-2.7 2.9-2.2 4-2.2 6.2-2.2 3.1.2 5.7 2.8 7 5.4 1.3 2.3 1.7 5 1.5 7.6z"/><path class="st0" d="M431.5 326.5c.2-.2.2-.3-.2-.3h-.2c-.2-.2-.4-.2-1.9 0-1.8.2-3.4 1.1-4.4 2.7-1.7 2.7-.2 6 2.7 7.1 2.2.8 4.7-.2 6-2.1 2.1-3.1.2-5.4-2-7.4zm-2.1 8.8c-5.1-.5-4.6-8.9.6-8.5 1.2 1.1 2.6 2.4 2.9 4 .4 2.1-1.2 4.7-3.5 4.5zm19-24.2c1.9-1.6 4.7-2.1 6-4.3 1.1-1.9.8-6-1-7.6-1.1-.9-1.8-.5-3 0-4.1 1.9-7.8 4.6-12.1 6.3-4.7 1.9-9.5 2.5-14.3 4-.8.2-1.6.5-2.1 1-.8.8-.8 1.4-.8 1.7 1.1 2.5 3.4 3.8 6 3.9 2.1.1 3.8-.9 5.7-1.3 3.7-.8 5 3.3 6.6 6 2.7 4.6 4.7 9.8 7.6 14.2 2.4 3.6 4.1.8 7.6 1.4.5.1 1.1-.2 1-.8-.5-4-2.4-7.2-4.7-10.5-2.5-3.8-7.6-9.8-2.5-14zm4 24.4c-3.1.5-3.6-.9-4.7-3.3-2.1-4.1-4.2-8.2-6.6-12.1-1.1-1.9-2.7-6.2-4.9-7-.8-.3-1.4.1-2.2.2-3.7.8-8.8 3.4-11-1.3.1-.2.2-.7.5-.8 1.7-1.1 9.1-2.4 9.9-2.7 3-.9 6-2.1 8.8-3.4 2.4-1.1 4.7-2.8 7.1-3.8 1.1-1.1 2.3-1 3.6.2.5 1.1.8 2.2.8 3.4-.3 2.7-2.6 3.4-4.5 4.6-3.4 2-5.1 4.8-4 8.8 1.8 6.4 7.9 10.2 9.1 17-.7-.1-1.3.1-1.9.2z"/><path class="st0" d="M461.1 305.9c-3.5 2.8-5.1 7.2-5.6 11.2-.9 9.4 7.6 16.9 16.9 14.3 8.5-2.4 13.1-11.7 8.8-19.6-3.2-5.7-14.4-11.1-20.1-5.9zm14.8 23.3c-6.9 4.8-16.3.7-18.5-7-1.1-3.8-1.2-10.5 4.1-15 1.2-1 2.5-2.1 4.6-2.4 3.3-.5 6.9 1 9.1 2.4 2.3 1.5 4.1 3.8 5.1 6.4 2.3 5.7.5 12.1-4.4 15.6z"/><path class="st0" d="M474 311.5c-1.6-.8-3.2-1.4-5.5-1.4-3.7.4-5.4 1.4-6.8 4.8-2 4.5.8 9.5 5.6 10.4 4.1.8 8.2-1.7 9.4-5.7.8-3.1-.5-6.4-2.7-8.1zm-6.6 12.7c-3.1-.9-5.1-4-4.8-7.2.2-1.5.8-3.5 2.1-4.5 1.4-1.1 3.9-1.3 5.6-.9l1.5.3c2 1.1 3.4 3.2 3.5 5.6.3 4.3-3.6 8-7.9 6.7zm31.4-30.4c-1.1-2.5-2.3-6.5-5.5-7.1-5.3-.9-7.8 5.9-8.4 10.8-1.8-2.8-4.4-4.9-8-3.1-.2.1-.5.3-.5.5 4 7.3 8.2 14.6 12.4 21.8.2.2.1.7 1.7 0 3.2-1.4 4.2-1.4 3-4.8-1.4-4.3-2.1-8.7-1.8-13.2 2.6 4.7 5.1 9.2 7.7 13.9.2.5 1.1.2 1.3-.1 1.4-1.1 2.9-2 4.7-2.7.2-.1.5-.3.5-.5-2.4-5.1-4.7-10.3-7.1-15.5zm3.8 16.4c-.5.5-1.3.9-2 1.4-2.9-5.2-5.7-10.3-8.6-15.5-.2-.5-1.4-.2-1.4.3-.4 3.1-.5 6.3-.1 9.5.2 1.8.6 3.5 1.1 5.2.6 2.1 1.1 3.4-.5 4.5-1.2.5-1.1.2-1.4-.3-2.5-4.3-5-8.7-7.5-13-.9-1.6-2.5-3.9-3.2-5.8-1-1.4.2-1.9 1.9-1.6.2.3 1.4 1.4 1.7 1.7 1.1.9 1.6 2.7 2.2 3.9.2.5 1.5.2 1.4-.4-.2-3.7.6-9 3.7-11.4 4.8-3.7 7.2 5.2 8.5 8.2 1.5 3.4 3.6 6.9 4.7 10.4.8 2.1 1 1.5-.5 2.9zm19.6-17c-1.2.5-1.9 1.4-2.7 2.4-1.6 2.1-4.6 3-6.9 1.1-1.6-1.4-.8-2.4-.4-4 1.2-4 5.5-10.3 2.3-14.2-.5-.5-2-1.6-2.7-1.8-6.2-1.8-11.2 8.5-10.8 13.7.7 8.5 9.2 17.5 18.1 14.3 3.2-1.1 7-4.2 7.4-7.9.2-2.5-1.7-4.4-4.3-3.6zm2.7 4c-.1 1.6-.9 2.9-1.9 4.1-2.6 3-7.4 4.1-11.1 2.7-2-.8-3.5-2.4-4.9-4-2.3-2.8-4.3-6.1-4.5-9.8-.2-1.9.2-4 .8-5.8 1.1-3.1 4.4-8.5 8.9-5.3.2.2 1.6.7 2.1 2.9.6 2.6-1.5 5.6-2.4 8-.6 1.8-2.7 5-1.4 6.9 1.8 2.7 6.8 2.6 8.9.5 1.3-1.2 1.4-2.4 3.3-2.6 2.1-.5 2.4.4 2.2 2.4z"/><path class="st0" d="M509.1 282.4c-1.7 1.1-2.8 2.8-3.4 4.7-.4 1.3-1.1 4 .6 4.8 3.6 1.7 5-7.7 5.1-9.6.1-.7-1.2-.7-2.3.1zm-1.9 8c-1.1-.2-.2-3.1.2-3.8.5-1.4 1.4-2.4 2.5-3.4-.2 1.1-.3 2.3-.6 3.4-.3.8-1.2 4-2.1 3.8zm44.9-11.3c-3.4-2.4-5.3-6-5.3-10.2 0-.5-1.1 0-1.3.2-1.4 1-2.9 2.1-4.4 2.9-.7.4-1.6 1.2-2.4 1.1-.7-.2-1.8-2-2.1-2.5-2.4-2.8-4.6-5.9-6.7-8.9-.2-.3-1.1.1-1.3.2-1.6 1.3-5.6 3.2-6.4 5.2s1 5.7 1.6 7.6c.6 1.7 1.6 3.1 2.2 4.8.6 1.7.8 1.8-.2 3.3-.8 1.2-1.8 2.2-2.5 3.3-.5.6-.5.6.5 1.3 1.5.7 2.9 1.7 4.1 2.9 1.1 1.1 2.7 3.4 4.3 3.6 1.4.2 2-1.1 2.9-2.2.1-.1.1-.2 0-.2-1.4-1-3.9-2.5-3.1-4.8.3-.8 2.7-2.1 3.4-2.6 2.4-1.8 4.8-3.6 7.2-5.3 1.3 1.6 2.6 3.2 3.9 4.9.2.3 1.1 0 1.4-.3 1.1-1.5 2.3-2.6 3.9-3.4.1-.5.5-.8.3-.9zm-2.2.7c-.1.2-1.4 1.4-2.4 2.3-1.2-1.6-2.5-3.1-3.7-4.7-.2-.3-1.1 0-1.3.2-4.3 3.1-8.5 6.3-12.7 9.5-.1 0-.2.2-.2.3.5.9 1.5 1.6 2.7 3.1 1.4.8-.1 1.5-.8 1.5-.5-.5-1.6-1.5-2-2-1.7-1.7-3.3-2.9-5.4-3.7 1.1-1.9 2.5-3.4 4.4-4.8.1 0 .2-.2.2-.3-1.9-3-3.4-6.1-4.4-9.5-.8-2.7-1.4-4 .8-6.3 1-1 2.3-1.9 3.5-2.7 1.6 2.4 3.3 4.7 5.1 6.9.9 1.1 2.7 4.3 4.3 4.6.6.1 1.3-.2 1.8-.5 1.9-.8 3.7-2.3 5.6-3.6.2 2.7 1.1 5.3 2.9 7.4.6.7 1.8 1.3 1.6 2.3z"/><path class="st0" d="M533.3 271.7c-.9-1.4-2.1-3.2-3.9-3.5-1.1-.2-2.5.4-2.8 1.5-.1.5 0 .9.2 1.2.5 1.3 1 2.6 1.6 3.9.5 1.1 1 2.6 1.9 3.4 1.7 1.6 4 .7 5.8-.2.2-.1.5-.4.4-.7-.8-1.9-1.9-3.8-3.2-5.6zm-2 5.4c-.5-.6-1.1-1.3-1.4-2-1.1-2.4-1.6-4-1.1-4.6.5-1.1 1.1-1.2 1.7-.2.3.3.5.7.8 1 .5.6.9 1.2 1.3 1.8.9 1.4 1.7 2.8 2.4 4.3-1.3.7-2.5 1.1-3.7-.3z"/></g></svg>