<svg version="1.1" id="Слой_1" xmlns="http://www.w3.org/2000/svg" x="0" y="0" viewBox="0 0 566.9 467.7" xml:space="preserve"><style>.st0{fill:#ee7f00}</style><g id="Слой_1_1_"><path class="st0" d="M460.6 571.9c.9-7.3 1.6-14.7 2.7-22.2.2-1.3 1.3-2.5 2.1-3.8 1.3-2.3 3.2-4.5 3.9-7 2.2-7.9 6.2-15 10-22.2 5-9.2 8.1-19 11.8-28.7 1.3-3.3 2.6-6.7 3.9-10 1.1-2.6.9-4.7-1.6-6.7-4.6-3.7-8.9-7.7-13.3-11.6-1.3-1.1-1.8-1.3-2.3.6-2.2 7.8-4.7 15.5-7 23.3-.6 2.2-.7 4.5-1.3 6.7-.4 1.4-1.5 2.6-1.9 3.9-.7 2.6-1.1 5.3-1.7 7.9-3.6 14.4-8 28.6-15.7 41.5-.6 1-.7 2.7-1.5 3.1-1.5.8-.7 4-3.5 3.2-1.7-.5-3.5-.9-5-1.6-2.8-1.4-5.5-3.1-8.1-4.7-10.9-6.6-22.9-7.7-35.2-7.1-1.4.1-1.9.5-2 1.8-.3 3.6-.5 7.2-1 10.7-.7 4.7-1.5 9.4-2.5 14-1.7 7.9-1.9 15.8-1.9 23.8 0 3.2-.4 6.5-.5 9.7-.1 1.5-.7 2-2.2 2s-2.5-.3-2.5-2c.1-7.4-.4-14.9.3-22.2 1.1-11.3 2.9-22.5 4.4-33.8.5-3.7.3-3.8-3.3-4.2-1.7-.2-3.5-.2-5-.8-1.6-.7-3.3-1.8-4.4-3.2-1.7-2 .7-2.9 1.5-4.4 2.3-4.4 4.7-8.9 6.3-13.6 2.2-6.1 3.9-12.4 5.4-18.8 1.6-6.8 2.5-13.7 3.9-20.5 1-5 2.4-9.9 3.5-14.9.5-2.4.7-4.9.9-7.3 0-.3-1.1-.9-1.7-1-7.4-1.3-14.3-4-20.8-7.6-6.9-3.7-11.1-9.6-13.6-16.9-.7-2.1 0-3.4 2-3.9 2.5-.6 5-1.1 7.6-1.4 8.9-1 17.8-1.1 26.5-3.4 5.7-1.5 8.2-3.9 8.6-9.8.3-3.7 0-7.5-.9-11.1-.4-1.7-2.4-3.8-4.1-4.4-3.9-1.4-8.1-2.2-12.2-3-2.1-.4-2.9.8-2.9 2.8 0 1-.4 2.3-1.1 3-2.9 2.8-5.7 5.7-9 8-4.1 2.9-8.6 5.3-13 7.9-3.6 2.1-7.2 3.9-10.8 6-1.9 1.1-3.8 2.4-5.6 3.6-6.5 4.2-12.9 8.6-19.6 12.6-5.2 3.1-7.3 3.7-12-.1-4.1-3.3-7.9-7.1-11.3-11.1-5.6-6.7-10.8-13.8-16.2-20.7-.5-.6-1.7-.9-2.5-.8-6.1 1.1-12.3 2.3-18.4 3.7-13.2 3.1-24.9.9-35.7-7.9-5.9-4.8-9.4-10.6-11.3-17.7-.8-3.1-2.9-5.4-4.6-8-2.9-4.4-5-9.4-7-14.4-1.7-4.2-2.8-8.7-4-13.1-.4-1.3-1.1-1.8-2.5-2.2-3.9-1.1-7.7-2.9-11.7-3.9-6-1.6-12.1-2.8-18.2-4.3-2.6-.6-5.2-1.2-7.8-2-8.8-2.8-16.6-.3-23.6 5-1.8 1.4-3.4 3.1-5 4.8-2.2 2.4-3.8 2.6-6.3.4-1.3-1.1-2.4-2.5-3.7-3.5-3.8-2.7-7.7-5.2-11.6-7.7-2.5-1.7-5.1-3.3-7.7-4.9-1.5-.9-3-1.9-4.7-2.6-3.2-1.2-3.9-.8-4.9 2.4-1.4 4.4-3.8 7.4-8.8 8.2-7.2 1.2-13.5-.1-18.8-5.3-4.7-4.7-9.4-9.4-9.3-16.6.1-4 .8-8 1.5-11.9.2-1 1.4-2.1 2.3-2.8 2.4-1.8 4.9-3.5 7.4-5.3 4.2-2.9 9-3.2 13.8-3.6 1.4-.1 2.8-.4 4.2-.6-.9-2-1.5-4.1-2.7-5.9-1.1-1.7-3-2.8-4-4.5-.4-.6.2-2.6.9-3 4.1-2.5 10.4-.6 12.6 3.6 1.1 2 .9 3.5-1.3 4.6-.6.3-1.5 1.4-1.4 1.6.8 1.4-.1 4.1 2.4 4.2 3.6.2 7.1.1 10.7 0 .5 0 1.4-.6 1.4-.8-.4-2.6-.6-5.3-1.5-7.7-.8-2.1-2.6-3.9-1.4-6.2.6-1 2.3-1.9 3.5-1.8 2.8.2 5.3 1.5 6.3 4.3.7 2.1 1.9 4.5-1.3 6.3-.7.4-.5 2.9-.3 4.4.1.5 1.4 1.2 2.2 1.2 3.5.2 7 .2 10.5.1.5 0 1.4-.9 1.4-1.5 0-2.4-.1-4.5-2.3-6.4-3-2.5-2-5.5 1.7-6.6 3.4-1 6.4-.2 9.1 1.8 3 2.3 2.4 6.5-1.3 7.5-2.6.7-1.8 2.4-1.8 3.9.1 2.2 1.8 1.2 2.8 1.2 2.8 0 5.5-.4 8.3-.4 1.4 0 1.9-.5 2-1.9s.4-2.8.9-4.2c.6-1.8.6-3.3-.7-4.9-1.6-2-1-3.5 1.4-4.3 3.6-1.2 7.3-1 10.7.7 1.2.6 2.7 2.4 2.5 3.3-.4 1.5-1.8 2.9-3.1 4-.7.6-2.1.4-3.1.8-.7.3-1.6.9-1.9 1.6-1.2 3.5-1.1 3.2 2.4 3.9 2.2.5 4.2 1.9 6 3.2.6.4.7 1.9.7 2.9 0 1.6-.5 3.2-.4 4.8.3 5.3.8 5.4 5.9 6.3 8.4 1.6 16.7 3.6 25.1 5.4 3.4.7 6.8 1.3 10.2 2 3.7.7 7.3 1.6 11 2.1 1.5.2 3.2 0 4.6-.5 4.2-1.5 5.8-1.2 8.6 2.2.2.3.4.7.7.7 4.4.8 8.9 2.1 13.4 2.3 3.8.1 7.1.3 10.2 2.9 1.3 1.1 3.4 1.2 5.2 1.6 7.9 1.8 15.9 3.5 23.8 5.3 2.3.5 4.5 1 6.8 1.5 8.4 1.8 16.7 3.7 25.1 5.5 3.7.8 7.3 1.7 11 2.4.5.1 1.5-.7 1.6-1.1 1.1-6.7.9-13.5 1.1-20.3.2-8.1-2-15.7-3-23.6-1.1-8-2.4-15.9-1.4-24.1.2-1.7.1-3.6-.2-5.3-.8-4.7.6-9.1 1.3-13.7.9-5.8 4.3-9.8 7.6-14.1.7-.9 1.1-2.1 1.7-3 1.5-2.4 2.9-4.9 4.6-7.1 1.2-1.5 1.7-2.6.4-4.2-.6-.7-1.1-1.6-1.6-2.5-1.2-1.9-1.9-3.8-4.9-4.1-1.8-.2-3.6-2.2-5-3.8-4.6-5-10-8.9-16.1-11.8-1.2-.6-2.3-1.3-3.5-1.9-4.7-2.4-6.9-6.3-8.7-11.2-2.7-7.7-6.6-15-9.9-22.6-1.9-4.3-3.9-8.3-8-11.2-2.4-1.7-4.3-4.3-3.8-7.8.1-.5 0-1.3.3-1.5 2.5-1.8.5-3.1-.4-4.5-1.4-2.3-2.8-4.6-4.2-7-.2-.4-.2-1.1 0-1.5 1.2-3.2.7-6.6-2-8.7-5.5-4.3-11.2-8.3-16.7-12.6-3.5-2.8-6.8-5.8-10-8.9-.9-.9-1.8-3.2-1.3-3.8.9-1.1 2.8-2.1 4.2-2 4.2.3 8.3 1.1 12.4 1.9 3.8.7 7.5 1.8 11.2 2.7 1.2.3 1.9.2 1.9-1.3s.3-3 .2-4.5c-.1-2.8-.3-5.4 1.4-8.2 1.4-2.3 1.2-5.5 1.6-8.3 1.2-7 2.4-14.1 3.6-21.1.4-2.1 1.9-3.1 3.8-3.1 4.3 0 8.6.3 12.9.4 3.1 0 6.2-.2 9.4-.3 8.6-.2 17.1-.6 25.7-.7 4-.1 8 .4 12 .5 8.4.1 16.8-.1 25.2.2 8.6.3 8.1.4 8.9 8.4.6 6.5 1.1 13 1.9 19.5.2 2 .7 4.5 2 5.6 5.4 4.7 1.4 10.3 1.7 15.3.2 2.5.1 3.4 2.6 3.2 9.8-.8 19.6-1.8 29.4-2.5 1.3-.1 2.7.4 4 .6-.6 1.4-.7 3.3-1.8 4.1-2.9 2.2-5.9 4.3-9.2 5.8-4.2 1.9-8.8 3.1-13.1 4.8-.8.3-1.5 1.3-1.8 2.1-1 2.4-2 4.9-2.7 7.5-.4 1.6-.7 3.4-.5 4.9.7 4.7 1.7 9.3 2.7 13.9.5 2.1.4 3.7-1.7 4.8-.6.3-1.4.8-1.6 1.4-.4 1.4-.4 2.9-.6 4.4 1-.2 1.9-.5 2.9-.7 1.8-.4 3.6-.9 5.5-1.3 1.9-.5 4-.6 5.6-1.5 3.9-2.3 7.7-1.7 11.6-.2.3.1.5.2.7.3 6.3 3.9 12.6 2.9 19 .4 7.9-3.1 15.8-3.3 23.9-1.1 1.2.3 2.7.2 4 0 5.6-.7 11.2-1.6 16.8-2.1 3-.3 6.1-.1 9.1.5 6.3 1.4 12.6 3.1 18.8 5.1 3.9 1.2 7.6 1.9 11.6 1 9.4-2 18.7-.5 28 1.1 10.7 1.8 21.3 3.7 31.9 5.9 8.1 1.6 16.3 3.3 24.3 5.6 8.1 2.3 16 5.3 22.8 10.4 4.6 3.4 6.6 8.1 6.8 13.7.3 8.8-1.6 16.9-7.3 23.8-6.9 8.5-10.5 18.7-14.6 28.6-2.5 5.9-5.5 11.1-11.4 14.4-3.2 1.8-5.2 4.9-6.8 8.4-1.4 3.1-3.5 6-5.6 8.8-3.3 4.3-6.9 8.4-10.5 12.6-5.6 6.5-5.6 9.3 0 15.7 3.3 3.8 6.9 7.3 10.1 11.2 4.3 5.3 8.2 10.8 12.4 16.2 1.4 1.8 2.7 3.6 4.1 5.3 6.3 7.2 9.9 15.3 10.9 25 .8 7.5 3.1 14.8 6.3 21.8 2.6 5.8 4.4 12 6.5 18.1 6.3 18.9 11.7 38 14.2 57.8 1.4 10.8 2 21.8 3 32.6.5 5.5 1.4 11 2 16.5.6 5.8 1.2 11.7 1.7 17.5.2 2.3 1 4.2 3.4 4.9 1.8.5 1.8 1.5.3 2.2-1.4.7-3.1.8-4.7 1.2-.8.2-1.7.3-2.5.5-1.4.4-2.8 1.1-4.3 1.3-2.2.3-2.7 1-2.1 3.3 4.8 18.4 9.5 36.9 14.2 55.3.2.9 1.3 2.6-.6 2.6-1.7 0-4.1 1.6-5-1.8-3.5-14.2-7.1-28.3-10.7-42.4-1.5-5.7-3-11.4-4.6-17.1-.2-.6-1-1.4-1.5-1.4-2.4.1-4.9 0-7 .9-14.3 5.8-29 10.3-44.2 12.8-3.6.6-7.3.8-10.9 1.4-1.1.2-3.5.4-.9 2.4.4.3.4 1 .6 1.5 4.7 13.6 9.4 27.2 14 40.9.3.9.5 2.7.1 2.9-1.7 1-5.1 0-5.7-1.5-3.2-9.3-6.4-18.6-9.7-27.9-1.9-5.3-4-10.4-6.1-15.6-.2-.4-1-.7-1.6-.7-8.5.2-17 .6-25.5.5-3.1-.1-6.2-1.4-9.2-2.4-5.6-1.9-11-4.4-16.7-5.7-4.6-1.1-9.5-.8-14.2-1.2-.7 0-1.8 0-1.9-.3-.3-.8-.5-1.9-.2-2.6 2.4-5.9 5.1-11.6 7.4-17.5 1.2-3 1.9-6.1 2.6-9.3 2-10.4 3.9-20.8 5.7-31.2.2-.9.4-2.1 0-2.7-.7-1-1.9-1.5-2.9-2.2-.4.9-1 1.7-1.3 2.6-1 2.8-2.1 5.5-2.7 8.4-2.3 9.7-6.6 18.4-11.1 27.2-5.3 10.3-10 21-15.3 31.3-1.4 2.7-3.2 5-3.1 8.2.4 11 .9 21.9 1.4 32.9.1 2.7.6 5.3.9 8 .1 1 .4 2.3-1.2 1.9-1.4-.3-3.8 1.4-4.2-1.4-1-8.2-1.7-16.5-2.6-25zm-90.5-471.8c.2-.2.4-.3.6-.5.1-.1.2-.2.4-.2-.1-.1-.2-.1-.3-.2 0 .2-.1.3-.1.5-.2.1-.4.3-.6.4 0 .2-.1.3-.1.4 0-.2 0-.3.1-.4zm210.1 218.4c-.2-.2-.3-.4-.5-.6 0-.2 0-.4-.1-.5-4.5-5.2-9.1-10.4-13.6-15.5-.3-.3-.7-.5-1.1-.6-5.2-2-10.4-4-15.6-6.1-1.1-.5-2.1-1.3-2.9-2.2-1.5-1.5-7.5-1.8-9.1-.5-3.6 2.9-7.2 5.8-11.1 8.3-2.4 1.5-4.1 3.5-5.1 6-.3.8 0 1.8 0 2.8.7-.1 1.5 0 2.2-.2 4.8-1.5 9.5-3.1 14.7-2.5 3 .3 6.1.8 9.1.3 8.7-1.4 16.2 1.3 23.5 5.6 3 1.8 6.2 3.5 9.3 5.2 0 0 .2.2.3.5h.3-.3zm-199.4-75.4c-.1 0-.1-.1-.2-.1.1 0 .2.1.2.1.1.2.1.4.2.6l.3-.3c-.1-.1-.3-.2-.5-.3zm-38.6-142.3c.1-.2.2-.4.2-.6h-.2c.1.2 0 .4 0 .6zm14.2-7.4c.3-.2.6-.4.9-.7.8-1.4 1.6-2.7 2.4-4.1l-.6-.3c-.7 1.4-1.3 2.8-1.9 4.2-.3.3-.5.6-.8.9 0 .1 0 .2.1.3 0 .1.1.3.1.4-.1-.3-.1-.5-.2-.7zm-12.8-2.6c.2-.1.5-.3.7-.4l-.1-.2-.6.6c0 .2-.1.4-.1.5l.1.1v-.6zm180.6 222c-.4.1-.7.3-1.1.4l.2.2c.3-.2.5-.4.9-.6.3 0 .6-.1.9-.1-.1 0-.1-.1-.2-.1-.2.1-.5.2-.7.2zM316.3 100.5c-.1.4-.3.9-.4 1.3 0 0 .1.1.2.1.1-.5.1-.9.2-1.4-.1.1 0 .1 0 0zm68.8 14.6c.5 0 1-.1 1.4-.2v-.5c-.4.3-.8.6-1.4.7 0 .1-.1.1-.1.1v.1s.1-.1.1-.2zM267.6 328.9c-.8-.1-1.7-.2-2.5-.2-1.4-.5-2.9-1-4.3-1.5-.8 0-1.6-.1-2.4-.1.8 0 1.6.1 2.4.1 1.4.5 2.9.9 4.4 1.4.8.1 1.7.2 2.4.3.6.3 1.2.6 1.7.9.9.1 1.7.1 2.6.2 3.1.9 6.3 1.9 9.4 2.8.1 0 .3-.1.5-.1-.3-.1-.6-.3-.9-.4-3-.7-6-1.5-9.1-2.2-.9-.1-1.7-.1-2.6-.2-.5-.3-1-.7-1.6-1zm59.3-237.7c.4-.3.7-.6 1-.9 0 0-.1-.2-.2-.3-.2.4-.5.8-.8 1.2zm34.5 7.7c-.2.4-.5.7-.7 1.1-.2.3-.3.7-.4 1.1.4-.3.9-.5 1-.9.2-.3 0-.8.1-1.3h.1-.1zm-30-6.9c.3-.6.6-1.2 1-1.8-.2 0-.4-.1-.4 0-.3.6-.4 1.2-.6 1.8-.1.2-.2.3-.3.4.1 0 .2.1.3.1-.1-.2 0-.3 0-.5zM301 98.8c-.5.9-.9 1.7-1.4 2.6.1.1.3.1.4.2.3-.8.6-1.7.9-2.5 0-.1.1-.2.1-.3 0-.3 0-.6.1-.9-.1.3-.1.6-.1.9zm16.4-6.8c.5-.9.9-1.8 1.4-2.7-.2-.1-.4-.2-.7-.3-.2 1.1-.4 2.1-.7 3-.1.2-.2.3-.4.5.1.1.2.1.3.2 0-.2.1-.4.1-.7zm49.8 6.2c-.7.7-1.5 1.4-2.2 2.2-.3.3-.4.8-.6 1.2.5.1 1.1.2 1.5.1.2 0 .4-.6.5-1 .3-.8.5-1.7.8-2.5-.1-.3-.2-.5-.2-.7 0 .3.1.5.2.7zm-34.5-.5c-.7 1-1.5 1.9-2.2 2.9-.2.4-.1 1-.2 1.5.6-.3 1.5-.4 1.6-.8.4-1.2.5-2.5.8-3.6-.1-.1 0-.2 0-.3 0 0 0-.1-.1-.1 0 .1.1.2.1.4zm-22.3-1.4l3.3-6.3c.2-.4 0-1.1-.1-1.7-.7.4-1.8.7-1.9 1.3-.7 2.2-1 4.5-1.3 6.7l-.1.1s.1 0 .1-.1zm25.9 1.3c.9-1.8 1.9-3.6 2.8-5.5.2-.5 0-1.2 0-1.8-.7.4-1.8.7-1.9 1.2-.5 1.9-.6 4-.9 6.1zm-90.5 1c.1 0 .1-.1 0 0 .1-.1 0-.1 0 0 2.4 2.4 4.6 4.9 8.5 5.3 1.8.2 3.5 1.1 5.2 1.6.4.1 1-.3 1.5-.5-.4-.3-.7-.7-1.2-.9-3.2-1.2-6.4-2.3-9.5-3.5-1.5-.6-3-1.3-4.5-2zm166.1 123.2h.1-.1c-1.2-4.3-2.4-8.6-3.6-12.8-.1-.3-.9-.7-1.1-.5-.9.6-1.8 1.4-2.7 2.1.4.3.7.6 1.1.9 1.1 1 2.7 1.8 3 3 .8 2.7 1.2 5.3 3.3 7.3zm178.5 111.3c.1-.1 0-.1 0 0-.6-1-1.1-2.1-1.8-2.9-7.1-8-16-13.7-25.7-18.1-2.7-1.2-6-1.3-9.1-1.4-3.6-.2-7.2.5-10.7.1-4.4-.5-8.5-.3-12.7 1.2l-1.2.3h1.3c8.8.3 17.9-.5 26.4 1.2 13.1 2.7 24.5 9.4 33.5 19.6zm-359.5 6.7c2.7-1.5 6-2.6 8-4.8 4.7-5.2 12.5-5.1 17.5-1.4 1.2.9 2.6 1.5 4.1 1.8 10 2.3 20 4.5 30.1 6.7 14.5 3.2 29 6.4 43.4 9.7 9.6 2.2 19.1 4.5 28.7 6.6 10.5 2.3 21 4.4 31.5 6.5s21 4.1 31.5 6.1c.6.1 1.3-.5 2-.8-.4-.4-.8-1-1.3-1.1-4.8-1.3-9.5-2.7-14.3-3.6-10.7-2-21.5-3.5-32.3-5.4-7-1.3-13.9-3.2-20.9-4.6-6.9-1.4-14-2.1-20.8-3.9-13-3.3-25.8-7.4-38.8-10.7-17.2-4.5-34.5-8.5-51.8-12.7-.5-.1-1.2.1-1.7.4-3.6 2.3-7.3 4.5-10.8 7-1.4 1.2-2.6 2.9-4.1 4.2l-.3.3c.1 0 .2-.1.3-.3zm127.6-33.7c4.8-4.2 10.4-6.9 16.5-8.7 9.1-2.7 18.4-2.2 27.7-2.2 9.9.1 18.1 4.1 25.8 9.8.5.4.8.9 1.3 1.3 2.9 2.6 5.5 6 8.9 7.5 7.1 3.2 14.6 5.8 22.1 8.1 4.4 1.3 9.1 2 13.7 2.4 4.5.4 4.4.1 5.3-4.3.3-1.8-.1-2.4-2-2.8-3.3-.7-6.6-1.5-9.7-2.9-7.3-3.3-14.6-6.8-21.8-10.3-3.1-1.5-6.3-3-9.3-4.9-7.4-4.8-15.8-5.8-24.2-6.7-3.8-.4-7.7-.2-11.5-.3-12.6-.3-25 1-36.4 7-3 1.5-6 3.3-6.4 7h-.3.3zm-75.9-160.7s-.1 0 0 0c.9 2.6 1.8 5.3 2.8 8 1.6 4 3.2 7.9 4.9 11.8 2.5 5.7 5.9 11.2 7.5 17.1 2 7.3 5.8 12.3 12.7 15.1 6.8 2.7 12.1 7.5 17 12.8.9.9 2.1 2.1 3.2 2.2 7 .8 14.2 1.2 21-1.1 4.6-1.6 8.8-3.8 11.2-8.6 4.1-8.3 8.8-16.4 15.6-23 .8-.8 1.4-1.9 1.6-3 .7-4.7 1.5-9.3 1.9-14 .5-6.1.5-12.3 1-18.4.1-.8 1.1-1.5 1.7-2.3.3.7.6 1.5.8 2.2.1.4-.1.9.1 1.3.1.3.6.5.9.7.1-.3.5-.7.4-1-.4-1.4-.8-2.7-1.3-4.1-1.7-4.8-3-9.7-1.8-14.9.4-1.7 1.1-3.3 1.6-5 .3-.9.3-1.9.5-2.8-1.3 0-2.7 0-4 .2-.3.1-.6 1-.7 1.6-.3 1.5-.3 3-.6 4.5-.2.9-1 1.6-1.5 2.4-.6-.9-1.4-1.7-1.9-2.6-.2-.4.1-1.1-.1-1.6-1.1-4.6-2.1-9.2-3.4-13.7-.2-.6-1.5-1.3-2.2-1.2-7.2.5-14.4 1.3-21.7 1.6-14.9.5-29.9 1-44.8.9-8.7-.1-17.5-1.4-26.2-2.1-4.3-.4-5 .2-5.1 4.7 0 .6 0 1.3.1 1.9 1.5 7.3 2.9 14.7 4.7 22 .9 2.8 2.8 5.5 4.1 8.4zm263.5 74.3c4.8-7.6 12.6-11.1 20.2-15 .9-.5 3.4.8 4.2 1.9 1.2 1.7-1 2.1-2 2.7-1.6 1-3.4 1.7-5 2.6-5.2 3.1-10.3 6.4-13.2 11.9-3.3 6.4-8.4 10.7-14.3 14.5-2.2 1.4-4.4 3.6-5.5 6-4.2 8.5-7.9 17.2-11.8 25.8-.6 1.3-.3 2 1 2.4 2.6.8 5.1 1.6 7.7 2.3 3 .8 6.2 1.2 9 2.5 9 4.2 17.9 8.8 26.9 13.1.5.2 1.5.1 1.9-.3 4.6-5.5 9.1-11 13.5-16.7 2-2.6 4-5.4 5.3-8.3 1.7-3.8 4-7.2 7.5-9.2 5.3-3.1 8.2-7.8 10.4-13.2 4.4-10.6 8.4-21.5 15.9-30.6 3.7-4.5 5.1-9.8 5.9-15.3 1.6-11.1-1.6-16.1-11.8-20.6-12-5.3-25-6.8-37.5-10-8.5-2.1-17.2-3.3-25.8-4.8-10-1.7-19.9-3.6-30.1-1.6-4.2.8-8.3.4-12.4-.9-4.3-1.4-8.6-3-13-3.9-5-1-10.1-1.7-15.1-1.7-4.9 0-9.7 1.3-14.6 1.8-2.1.2-4.4.6-6.4 0-7.2-1.9-14.3-1.9-21.3.9-7.8 3.1-15.6 3.8-23.2-.7-.7-.4-1.5-.7-2.3-.8-1.5-.2-3-.5-4.5-.4-2.9.3-3.5 1.8-2 4.2.8 1.4 1.6 2.8 2.2 4.3 2 5.8 3.9 11.7 5.8 17.6 1.9 5.8 4.7 10.7 10.7 13.4 3.7 1.7 7.2 4 10.7 6.2 1.6 1 3.2 2.4 4.4 3.9.5.6.3 2.3-.2 2.9-5.5 6.6-11.1 13.1-16.6 19.7-2.4 2.8-1.3 6.4 2 8.1 6.1 3.1 12.2 6.4 18.3 9.6.4.2.8.5 1.1.8 1.2 1.1 1.4 2-.3 2.9-1.5.8-3.1 1.6-4.2 2.8-10.1 10.1-17 21.9-18.6 36.3-.2 1.8.1 2.6 2 2.8 6.1.6 11.5 3.2 16.7 6.2 3.9 2.2 7.9 4.2 11.9 6.2 5.9 2.9 12 5.6 17.9 8.6 4 2.1 8.2 2.9 12.6 3.2.5 0 1.3-.5 1.5-.9 2.8-7.4 8.1-12.9 13.3-18.6 5.1-5.6 10-11.4 14.7-17.4 1.5-1.8 3.9-3.6 2.7-6.7-.1-.3.5-.9.7-1.4l9.6-20.4c.7-1.5.4-2.3-1-3.3-3.6-2.5-7.2-5-10.4-8-2.1-2-3.9-2.5-6.2-.7-5.5 4.1-11.3 3.8-17.2.9-.2-.1-.5-.2-.8-.3-10-4-18.7-10-24.5-19.3-4-6.4-7.3-13.3-10.9-20-.4-.8-.4-1.9-.6-2.9 1.1.2 2.2.2 3.2.5.7.3 1.3 1 1.6 1.7 3 5.4 6.2 10.7 8.8 16.3 5.1 11 13.8 17.5 24.9 21.5 3.1 1.1 5.7.8 8.6-.7 8.3-4.5 16.9-7.7 26.6-6.7 2.1.2 4.3-.1 6.4 0 1.4.1 1.8-.1 1.6-1.7-1.2-8.5-2.4-17-3.3-25.6-.4-3.5-.3-7-.2-10.5.1-2.4 1.3-2.9 3.5-1.9 1.6.8 2.5 1.7 2 3.8-.4 1.6-.3 3.4-.2 5.1.8 8.3 1.8 16.5 2.7 24.8.1 1.2.5 2.4.8 3.6.3-1.1.6-2.3.9-3.4 2.2-8.9 5.7-17.1 11.1-24.5 1.5-2 3-1.4 4.6-.4 1.8 1.1 1.2 2.2.3 3.8-3 5.5-5.8 11.1-8.6 16.6-.3.8-.1 1.7-.2 2.6-.1 0-.2-.1-.4-.1.2 0 .3 0 .4.1zm-7.1 95.7v.4c-2.4.1-4.8.2-7.2.4-6.1.5-9.2 3-9.9 8.5-.6 4.4-1.9 8.4-4.8 11.7-2 2.3-1.5 4.6-1.1 7 .1.5.5.8.7 1.3.2-.4.4-.8.7-1.1 1-.8 2.1-2.2 3.2-2.2s2.8 1.1 3.3 2.2c1.8 4.1 2.4 8.4.9 12.8-1.2 3.5-2.7 4.5-6.3 3.7-2.7-.6-5.3-1.9-7.9-2.8-.5-.2-1-.3-1.5-.4.2.4.5.9.7 1.3 1.1 2.2 2.4 4.3 3.2 6.7.7 2.2-1.4 4.8-3.6 4.6-1.8-.2-3.7-.5-5.5-1-1-.3-1.6-.5-1.1.9.2.6.4 1.2.5 1.8 1 3.3 1.3 6.3-2.4 8.4-.3.2-.1 2 .3 2.4.7.6 2 .8 3 1 7.8 1.7 15.5 3.4 23.3 5 .5.1 1.4-.4 1.6-.9.8-2 1.4-4.1 2.1-6.1.2-.5 1.1-1.3 1.4-1.2 1.1.3 2.2.9 3.2 1.6.2.1.1.9 0 1.3-.7 1.8-1.6 3.5-2.3 5.2-.1.4.5 1.1.7 1.7.6-.3 1.6-.5 1.8-1 .6-1.3.5-2.9 1.3-4 .5-.6 2.1-.7 3.1-.6.4.1.7 1.6.7 2.4s-.5 1.7-.8 2.5c-.5 1.4 0 2 1.5 2.3 5.4 1 10.7 2.2 16 3.4 1.6.4 2.3.2 2.9-1.6.6-2.1 1.7-4.1 2.8-6.1 1-1.8 2.9-2.2 4.3-.7 2.5 2.6 6.2 4.8 4.2 9.5-.3.6.1 2.2.4 2.3 3 .5 5.7 3.6 9.1 1.5.4-.3 1.2 0 1.8.2 2.7 1 3.7 3.2 2.4 6.6-3.9 10.6-8 21.2-12 31.8-.7 1.8-2 1.6-3.3 1-1.4-.7-3.2-1.6-2.1-3.6 1.5-2.6.4-3.4-2.1-3.6-.7-.1-1.5-.5-2.1-.4-.7.2-1.7.7-2 1.3-1 2.1-1.6 4.3-2.7 6.3-1.4 2.7-3.9 2.6-5-.2-.9-2.5-1.2-5.3-1.2-8 0-1.7-.2-2.6-2-3-6.5-1.4-12.9-3-19.3-4.3-.5-.1-1.6.8-1.9 1.5-1.5 3.6-2.8 7.2-4.1 10.8-.6 1.7-1.7 2.4-3.3 1.3-.8-.6-1.8-1.5-1.9-2.4-.5-3.9-1-7.9-1-11.9 0-2-.5-2.8-2.4-3.3-8.4-2-16.8-4.2-25.2-6.3-.5-.1-1.7.5-1.9 1-1.2 3.1-2.3 6.2-3.3 9.3-.4 1.3-.8 2.1-2.4 1.8-8.4-1.8-16.6-4.4-25.3-4.4-1.1 0-2.9-1.6-3-2.6-.3-4.2-.2-8.4.1-12.6.1-1.7-.4-2.3-1.9-2.8-7.8-2.5-15.6-5.1-23.5-7.6-4-1.3-4-1.3-4 3 0 1-.4 2.8-.9 2.9-1 .2-2.3-.3-3.4-.7-1.4-.6-2.7-1.8-4.2-2.2-2.4-.7-4.9-1-7.3-1.7-1.9-.5-1.6.3-1.2 1.5 1.6 4.4 1.9 8.9 1.1 13.5-.8 4.2-2.2 8.5-6.9 9.8-5.2 1.5-10.6 2.6-16 3.3-5.5.7-11 .8-16.6 1.2-1.4.1-2.8.5-4.1 1.1-.6.3-1.2 1.5-1 2.1 1.4 4.6 3.9 8.8 7.9 11.5 3.8 2.4 8.1 4.4 12.4 5.7 15.3 4.7 30.9 4 46.6 2.5 7.9-.8 15.8-2 23.7-2.2 8.9-.2 17.3 2.1 24.3 8 2.8 2.3 5.8 4.2 8.4 6.6 4.9 4.4 9.6 9.1 14.5 13.6 4.1 3.8 8.8 6.6 14.3 7.4 4.2.6 8.7 1.8 12.7.9 15-3.3 28.7-9.6 39-21.6 6.5-7.5 12.8-15.2 19.2-22.8 5-5.8 8.3-12.5 10.2-19.9.7-2.6 1.5-5.3 2.3-7.9 2.5-7.8 5.3-15.6 5-24-.2-7.2-.4-14.4-1.1-21.6-1.2-12-6.6-21.8-16.2-29.1-2.6-1.9-5.2-3.8-7.6-6-6.9-6.6-15.2-10.9-24.3-13-5.5-1.6-12.2-1.4-18.7-1.9zM627.6 532v.6c3.2-.3 6.3-.6 9.5-.9 1.5-.1 2-.5 1.5-2.2-.7-2.6-1.3-5.2-1.5-7.9-.5-5.8-.6-11.7-1-17.5-.2-3.4-.8-6.8-1-10.1-1.4-21.1-3.2-42.1-9.2-62.5-3.7-12.5-7.8-24.9-11.8-37.3-.2-.5-.6-1-.9-1.5-.1.5-.1 1.1-.2 1.6-1.5 5.9-2.9 11.8-4.4 17.7-.4 1.6-1.6 3.1-1.9 4.7-1.5 8.4-4.6 16.2-10 22.8-5.7 7.1-11.5 13.9-17.3 20.9-8.2 9.9-17.7 17.9-30.1 22.2-6.9 2.4-13.7 5.7-21.3 4.9-6.2-.7-12.3-2.1-18.4-3.5-1.9-.4-2.2 0-2.6 1.6-1.7 7.6-3.4 15.2-3.3 23 0 1.3-.3 2.7-.7 4-2.5 8-5 16-7.7 24-.5 1.4-.5 1.9 1.2 2.3 6.7 1.6 13.3 3.5 19.9 5.2 4.7 1.1 9.2 3.8 14.2 1.3.2-.1.5 0 .8 0 11.4 0 22.9 0 34.3-.1 3.4 0 6.8-1 10.1-1 13.1.3 25.4-3.5 37.6-7.8.9-.3 2.3-.9 2.4-1.5.6-3.2 3.1-2.7 5.2-2.8 2.3-.3 4.4-.2 6.6-.2zm-209-78.5h-6.3c-6.3-.1-6.5-.1-8.1 5.9-2.2 8.3-6.4 16.2-5.7 25.2 0 .6-.3 1.2-.5 1.8-2 6.3-3.9 12.6-5.9 18.9-2.4 7.6-3.8 15.6-7.8 22.6l-1.2 2.1c-.7 1.1-.5 1.7.8 1.6 1.5 0 3-.2 4.5-.1 2.7.1 5.5.8 8.2.6 9.8-.9 19.2.3 28.3 4.3 5.1 2.2 9.6 5.9 16 5 2.8-.4 4.3-.9 5.6-3.1 8.4-14.9 13-31.1 16.5-47.7 1.1-5.3 2.6-10.5 4.1-15.6 1.8-6.1 4-12 5.7-18.1 1.3-4.4 1-4.5-3.4-5.6-.5-.1-1.1-.3-1.6-.3-6.5 0-13.1-.6-19.5 0-9.5.9-19 3.1-29.7 2.5zM392.4 297c0 .2-.1.4-.1.6-4.1.3-8.2.3-12.3.9-8.1 1.1-15.4 3.8-21 10.1-1.4 1.6-1.8 3.4-1.3 5.7 1.2 5.3 4.8 8.3 9.5 10 6.5 2.3 13.3 4.1 19.8 6.5 6.2 2.3 12.3 5.1 13.6 12.6.4 2.5 0 5.2.2 7.7.1 1 .6 2.4 1.3 2.9 1.5 1 2.3-.4 3.1-1.5 3.1-4.4 7.5-6.5 12.7-5.3 3.8.9 7.3 2.8 11 4 14.8 4.9 29.7 9.8 44.5 14.7.6.2 1.1.2 1.7.3-.1-.6-.1-1.2-.2-1.8-.5-4.7-1.6-9.4-1.2-14.1.6-6.8 2.2-13.6 3.4-20.3.2-1.1.3-1.6-1-1.6-2.2-.1-4.5-.1-6.7-.7-6.4-1.7-12.7-3.7-19.1-5.4-9.5-2.6-17.4-7.8-25-13.9-4.1-3.3-8.5-6.6-13.4-8.1-6.1-2-13-2.3-19.5-3.3zm-91.5 69.8c-1.3.4-2.5.7-3.8 1.1-4 1-7.9 1.9-11.9 2.9-2.4.6-3 1.6-.7 3.3.8.6 1.3 1.7 1.8 2.7 2.7 5.5 5.2 11.2 8.1 16.6 4.2 7.7 9.4 14.7 15.8 20.9 3.9 3.8 7.8 7.7 10.9 12.2 1.8 2.6 3.1 2.4 5.1 1.2 7.1-4.2 14-8.6 21.1-12.8 3.9-2.3 7.8-4.7 12-6.5 6-2.6 11.1-6.2 15.6-10.7 2.2-2.1 4.9-3.7 5.4-7.3.2-1.6.2-1.9-1.3-2.2-4.9-1-9.8-2-14.6-3.3-11.6-3-23.1-6-34.6-9.3-7.3-2.1-14.4-4.6-21.7-6.9-2.4-.8-4.8-1.3-7.2-1.9zm-94.3-28.4c.2 1.8.3 3.1.6 4.4 1.9 6.2 3.7 12.5 5.9 18.7 1.1 3.3 2.4 6.8 4.5 9.3 2.7 3.2 4.8 6.3 5.8 10.4 1.9 8.1 7.1 13.9 14 18.2 7.9 4.9 16.5 5.1 25.4 3.2 5.9-1.3 11.9-2.7 17.8-3.8 3.2-.6 6.6-.6 9.9-.8 1.6-.1 1.4-.6.8-1.8-3.3-6.2-6.4-12.5-9.7-18.8-.3-.5-1.1-1.1-1.6-1-5.3 1.1-10.6 2.4-15.9 3.6-2.1.5-3.8 1.1-2.7 3.9.3.8-.4 1.9-.6 2.9-1-.2-2.2-.2-3-.8-.8-.6-1.3-1.8-1.7-2.8-1-2.6-1.5-5.6-2.9-8-2.3-3.8-5-7.3-8-10.6-1.9-2.1-2.2-3.6 0-5.5.9-.7 1.5-1.8 2.1-2.8 2.9-4.4 6.2-8.3 11.9-9.2 1-.2 2.3-.4 3-1.1 1.1-1 1.7-2.4 2.5-3.6-1.3-.6-2.7-1.9-3.9-1.7-6.3 1.1-11.5 4.4-15.9 9.2-1.1 1.3-2.4 2.5-3.7 3.4-1.5 1.1-4.6.3-5-1.5-.2-.7 1-2.1 1.9-2.8 2.6-2 5.3-4 8-5.8 3-2 6.1-4 9.2-5.8 1.1-.6 1-.8.1-1.5-3.5-3-8.4-2.7-11.9.5-1.5 1.4-3.1 2.7-4.9 3.6-4.6 2.3-8.6 5.1-10.8 10-.9 2-2.6 2.1-3.8.4-.7-1-1.3-2.4-1.1-3.5.6-3.5 1.1-7.2 4.1-9.7 3.8-3.1 7.8-5.9 11.8-8.8 1.9-1.4 3.9-2.6 5.5-4.2.7-.6.6-2 .9-3.1-.8-.1-1.7-.4-2.5-.3-1.4.3-2.7.8-4 1.4-2.7 1.3-5.3 2.7-7.9 4-4.9 2.4-9.1 5.5-10.9 10.9-.8 2.3-.6 4.8-1 7.2-.1.8-.5 1.6-.7 2.4-.9-.3-1.9-.5-2.6-1-.5-.3-.7-1.2-.7-1.9.1-3.7-.2-7.4.7-10.9 1-4.2 3-8.1 4.6-12.2.3-.8.4-1.7.5-2.5-1.2.3-2.4.5-3.5 1.1-.7.4-1.1 1.3-1.7 1.9-1.3 1.4-2.9 2.6-3.8 4.3-1.6 3-2.9 6.2-4.2 9.3-.5 1.4-.7 2.7-.9 3.6zm79-283.5v-.2c-1.1 0-2.2.2-3.2 0-1.9-.4-2.3.6-2.6 2.1-1.4 8.5-2.9 16.9-4.5 25.3-.4 2.2.1 2.4 2.1 2.4 12.2.1 24.5.3 36.7.6 1.9 0 3.7.6 5.6.7 8.9.3 17.8.7 26.7.7 4.3 0 8.5-.8 12.8-1.4 1.3-.2 2.4-.9 3.7-1.1 2.2-.3 4.5.4 6.4-1.1.1 0 .3.1.5.2.7.3 1.3.6 2 1 .3-.8.8-1.7.8-2.5-.6-6.9-1.3-13.9-1.9-20.8-.5-5.2-1.1-5.9-6.4-5.9l-25.7-.3c-4.3-.1-8.6-.3-12.8-.2-5.9.1-11.8.4-17.7.5-7.5.1-15 0-22.5 0zm56.5 228c-3.9 1.1-3.4-.6-2.8-2 1.2-2.8 2.6-5.5 3.9-8.2 2.2-4.9 2.2-4.9-2.2-7.8-.9-.6-2.4-1.9-2.3-2.3 1-2.3-.8-3.3-1.8-4.6-2.2-2.8-4.7-5.4-6.9-8.2-1.2-1.5-1.5-.8-2 .4-2 4.6-3 9.3-2.3 14.4.3 2.3.5 4.7.2 6.9-.9 8.8.5 17.3 2.1 25.8.9 4.6 1.9 9.1 2.2 13.7.4 4.9.3 9.8.2 14.7-.1 3.5-.8 6.9-1 10.4-.1 1.5-1.2 3.5 1.6 4 10.1 1.8 20.2 3.6 30.3 5.6 9 1.7 18 3.6 27 5.4 1.8.4 3.6 1 5.5 1.3.4.1 1.4-.6 1.4-1 .2-2.7.3-5.4.1-8-.1-3.3-1.1-6.3-4.5-7.6-4-1.7-8-3.5-12.2-4.5-7.4-1.8-14.4-4.4-20.5-8.9-5.2-3.8-7.1-11.2-4.1-16.2 2.5-4.3 5.9-7.9 10.8-9.7 2.4-.9 4.8-2 7.1-3.1.5-.2.9-.6 1.4-.9-.4-.3-.8-.7-1.3-.9-5-2-10-4.4-15.2-5.9-5.1-1.4-10.5-2-14.7-2.8zm-222 9.7c-1.8 0-3.6-.1-5.4-.2-1.4-.1-1.8.4-1.4 1.7.5 1.8 1 3.6 1.2 5.5.1.5-.9 1.7-1.4 1.7-2.4.1-4.5-2.6-4.6-5.1-.1-1.2.5-3.2-2-3.2-3.3 0-6.6-.1-9.9-.3-1.5-.1-2 .4-1.7 1.8.6 2.6 1.3 5.2 1.8 7.8.2 1 0 2 0 3-1.1-.2-2.3-.3-3.2-.8-.7-.4-1.3-1.2-1.6-2-.7-2-1.2-4.1-1.7-6.2-.9-4.2-.9-4.2-5.2-3.7-.3 0-.5.1-.8.1-5.2.4-9.1 3.5-13.4 6.1s-5.7 5.7-6 10.1c-.1 1.1-.4 2.2-.3 3.2.3 2.5.1 5.5 1.4 7.5 2.2 3.5 5.1 6.6 8.1 9.5 2.4 2.3 10.9 1.8 13.5-.4 5.8-4.8 3.8-16.4-3.4-19-1.1-.4-3.5-.3-3.6.2-.5 1.5-3 2.6-1.2 4.7.3.3.4 1.2.2 1.4-.4.3-1.1.6-1.7.5-2.3-.2-4.2-2.2-4.6-4.6-.4-2.8.6-5.1 3.1-5.8 1.8-.5 3.9-.7 5.7-.3 6.3 1.6 10.5 5.8 13.2 11.6.4.7 1.2 1.4 2 1.8 2.8 1.2 6 1.9 8.6 3.5 7.7 4.7 15.1 9.8 22.6 14.8 1 .6 1.5 1 2.4-.1 4.9-5.7 11.4-8.8 18.6-10.5.6-.1 1.3-1 1.4-1.6.4-3.4.3-6.9 1-10.3.7-3.2 2-6.2 3.1-9.2.1-.2.3-.2.4-.4.2-1 .7-2 .6-2.9-.3-2.8-1.2-5.6-1.3-8.4-.1-3.1.2-3-2.9-2.7-2.4.2-1.8 1.8-1.7 3.1.2 2.3-.3 2.8-2.4 1.9-.9-.4-2.1-1-2.3-1.7-.6-3.4-2.9-2.6-5.1-2.3-1.1.1-2.1.1-3.2.2-5.5.2-5.4.2-4.7 5.7.1 1-.2 2.2-.3 3.2-1.3-.4-2.9-.5-3.8-1.3-.9-.8-1.3-2.3-1.6-3.5-.3-1.3.1-3.5-.5-3.8-1.2-.7-2.9-.2-4.5-.2-.2-.1-.8-.1-1.5-.1zm358.6 63.7c.8 5.5 1.3 10.6 2.3 15.7.9 4.8 3.4 9 6.8 12.6.7.7 2 .9 3 1.4-.2-1-.2-2.1-.7-2.9-2.6-4.2-4.1-8.6-4.4-13.6-.3-4.9-1-9.7-1.5-14.6-.3-3-.6-6.1-.5-9.1 0-.8 1.4-1.5 2.1-2.2.3.4.8.9.8 1.3.1 6 .7 11.9 3.1 17.5 1.8 4 3.1 8.2 4.9 12.3.4.9 2.4 2 2.9 1.8 1.1-.7 2.5-2.3 2.4-3.3-.5-3.9-1.1-7.9-2.6-11.5-1.4-3.4-4-6.3-5.9-9.5-.9-1.6-1.8-3.3-2.3-5.1-.3-1.1 0-2.3 0-3.5 1 .8 2.2 1.5 3 2.4.6.6.7 1.6 1 2.4.5 1.1.9 2.4 1.5 3.4 3 4.5 6 9 9.3 13.3.6.8 2.3 1 3.5.9.6 0 1.6-1.5 1.5-2.1-.4-1.8-1.2-3.5-2.1-5.1-2-3.7-4.2-7.2-6.3-10.9-.2-.4-.1-1-.1-1.4.5 0 1.2-.3 1.5 0 1.5 1 3 2.2 4.4 3.4 2.6 2.2 4.9 4.7 7.6 6.6 2.9 1.9 5.6 1.2 6.5-1.6.7-2 .6-4.3.7-6.5.1-1.2-.3-1-1.4-.6-1.4.5-3.4.9-4.7.3-3.5-1.7-4.7-9.4-2.8-12.7 1.9-3.3 3.3-7 4.9-10.5.2-.5.3-1.1.6-1.5 1.8-2.2 1.8-4.6 1.2-7.1-.7-2.8-1.6-5.5-2.4-8.2-.2-.7-.5-1.7-.2-2.3 1.4-2.8 2.5-5.7 5.7-7.2 5.4-2.5 9.7-6.4 13.6-10.7 1.4-1.5 2.7-3.2 4.1-4.8l-6.6-3.3c-.5-.2-1-.3-1.6-.4-3.5-.9-7.2-1.5-10.6-2.9-2.9-1.2-4.2-.4-5.8 2-4.7 7.2-10.2 13.7-16.4 19.8-5.8 5.6-11.2 11.7-13.1 19.9-1.5 6.2-3 12.3-4.3 18.5-.9 4.4-1.4 8.8-2 13.3 0 2-.3 4.3-.6 6.3zM342.5 215.2h-4.3c-.4 0-.8.2-1.2.2.2.4.3.9.6 1.3 1.5 2 3.4 3.7 4.6 5.9 1.8 3.5 4.7 4.8 8.3 5.4 7.2 1.4 14.4 2.9 21.5 4.3.5.1 1.3-.2 1.6-.7 1.6-2.2 3-4.4 4.4-6.7l15.3-25.2c.3-.5.5-1.3.4-2-1.2-9-3.7-17.6-7.2-26-.5-1.2-1.6-2.2-2.4-3.4-.2 1.2-.5 2.4-.7 3.6-.1.5 0 1.1-.2 1.6-.7 2.3.4 5.1-2 7-6.5 5.2-9.7 12.7-13.8 19.6-2 3.4-4.5 6.8-7.6 9.1-4.8 4-10.6 6.7-17.3 6zm-74.1 125.9c-.1.1-.6.7-.5.9.4.9.8 1.8 1.5 2.4 4 3.2 9.1 3.1 13.8 4.3 12.2 3 24.5 5.9 36.7 8.8 13.2 3.1 25.9 7.9 39.4 10.3 11.6 2.1 23 5.2 34.5 7.9 9.2 2.2 18.4 4.3 27.7 6.4.8.2 2.2 0 2.4-.5.8-1.7 1.4-3.5 1.8-5.3.1-.4-.4-1.4-.7-1.5-3-1-6.1-2.1-9.2-2.6-11-2-22.1-3.5-33-5.8-14.8-3.1-29.4-6.7-44.2-10-12.7-2.9-25.5-5.6-38.2-8.4-10.4-2.4-20.9-4.6-32-6.9zm125.9-184.2c0-.1 0-.2-.1-.3-2.3.5-4.7.8-7 1.6-2 .7-2.1 2.1-.8 3.9 2.9 4 5.5 8.1 6.9 13 1.7 6.1 3.8 12.1 5.8 18 1.2 3.5 2.6 6.8 4 10.2.2.4.8.9 1.3.9 5.7-.2 7.6 1 9.5 6.4.9 2.6 1.6 5.3 2.5 7.9.2.6.6 1.2.9 1.8.5-.4 1-.8 1.4-1.2 4.3-4.9 8.5-9.9 12.9-14.8 1.3-1.5-.1-1.6-.8-2-4.2-2.5-8.5-5-12.8-7.4-4.5-2.5-7.9-6-9.7-10.7-3-8.1-5.9-16.3-8.4-24.6-.7-2.5-1.8-2.9-3.9-2.7h-1.7zm-15.4 134v-.9c6.8-.4 13.7-.8 20.5-1.3.2 0 .5-1.1.4-1.2-2.2-1.8-4.3-4-6.9-5.3-6.9-3.4-13.6-7.1-16.9-14.5-1.9-4.4-5.6-7-8.6-10.3-.3-.3-1.2-.3-1.5-.1-3.2 3.4-6.3 7-9.6 10.3-1.4 1.4-3.4 3.4-5.1 3.4-3 0-3.8 1.6-4.6 3.7-.3.8-.9 1.6-1.2 2.4-.3.5-.4 1.1-.6 1.7.6 0 1.2 0 1.7.1 4 .7 8.2.8 11.9 2.3 6.1 2.4 11.9 5.8 17.8 8.7.9.3 1.8.6 2.7 1zm43.7-53c-.4.4-1 .7-1.3 1.2-1.3 2.3-3.4 3.1-5.7 3.5-4.3.8-8.6 1.9-12.9 2.5-2.5.4-2.8 1.6-2.4 3.6.8 3.8 1.3 7.8 2.4 11.5 2.6 8.8 5.4 17.6 8.1 26.3.2.7.9 1.3 1.4 2 .3-.8.8-1.6.8-2.4 1.5-16.3 9.1-29.5 21.1-40.3 1-.9 1-1.1-.2-1.8-3.1-1.7-6-3.5-9.1-5.2-.6-.2-1.3-.5-2.2-.9zM266.5 351.2v-.3c3.3.5 6.7 1 10 1.7 2.5.5 5 1.3 7.5 1.9 5.5 1.3 11.1 2.2 16.5 3.8 11.2 3.3 22.4 6.9 33.6 10.4 5 1.5 9.9 3 14.9 4.3 8.6 2.3 17.3 4.5 25.9 6.8 4 1 7.9 2.2 11.9 3.1 4 1 8 1.8 12 2.7 7.2 1.6 14.5 3.1 21.7 4.8 1.8.4 2.4-.4 2.7-2 .3-1.5.4-2.5-1.6-2.9-3.4-.7-6.7-1.9-10.1-2.6-24.5-5.3-49.1-10.4-73.3-17.1-19.9-5.5-40-10.1-60-15.1-3.7-.9-7.5-2-11.3-2.4-1.6-.2-3.4 1.2-5.1 1.9 1.4.4 2.9.7 4.3 1.1.2-.1.3-.1.4-.1zM381.2 250c-1.1.7-1.8 1-2.1 1.4-1.4 2.7-3.4 5.3-3.8 8.2-.2 1.6 2.3 3.6 3.5 5.4.5.7 1 1.3 1.3 2 2.8 6.1 7.7 9.7 13.7 12.1 4 1.7 7.6 4 10.1 7.7.3.4.7.8 1.1 1.2.2.2.6.3.9.4 0-.3.1-.7.1-1-.1-.4-.3-.9-.4-1.3-2.9-9.6-5.8-19.3-8.7-28.9-.2-.5-.6-1.1-1.1-1.3-4.8-2-9.8-4-14.6-5.9zm-127 105.5c-1 .6-1.7.7-1.9 1.1-1.1 1.6-2.2 3.3-3 5.1-.3.7-.1 1.9.3 2.5 2.7 3.8 5.5 7.4 8.3 11.1.4.6 1.5 1.1 2.1 1 3.4-.6 6.8-1.3 10.2-2.1.9-.2 1.7-.8 2.4-1.4 1.6-1.2 2.8-3 4.6-3.8 3.4-1.4 7-2.1 10.4-3.2.7-.2 1.4-.7 2.1-1-.7-.3-1.3-.5-2-.7-3.2-1-6.5-2.1-9.8-2.9-7.9-2-15.9-3.9-23.7-5.7zm32.9-22.6c-.1.2-.1.3-.2.5-.4.1-.7.2-1.1.3l1.5.6c15.6 4.4 31 9.2 46.7 13.1 14.6 3.6 29.5 6.2 44.3 9.2 16 3.2 32.4 4.4 48.2 9.2.7.2 1.7-.2 2.5-.3-.7-.6-1.2-1.6-2-1.8-9.5-2.3-18.9-4.5-28.4-6.7-10.3-2.3-20.6-4.6-30.9-6.7-11.9-2.3-23.9-4.2-35.9-6.6-8.1-1.6-16.1-3.9-24.2-5.8-6.8-1.6-13.6-3.3-20.5-5zm131.4 17.7c-.1-.2-.2-.3-.3-.5-2.3 1.3-4.7 2.3-6.9 3.8-1.5 1-.8 1.9.9 2.3 6.6 1.5 13.2 3.1 19.8 4.6 2.5.6 4.4 2.7 3.4 4.1-1.7 2.3-.2 2.4 1.5 2.7 6.9 1.5 13.7 3.2 20.6 4.7 2.3.5 4.5 1.1 6.8 1.5.6.1 1.6 0 1.9-.4 1.8-2.2.8-6.1-1.9-7.1-6.9-2.5-13.8-4.8-20.7-7.3-7.2-2.6-14.4-5.2-21.7-7.8-1.1-.1-2.3-.3-3.4-.6zm-160.9 1.3c-.4.2-.9.4-1.4.6.3.1.6.3.9.4l12 2.4c2 .4 4 .8 6 1.3 6 1.7 12 3.5 18 5.2 9.8 2.7 19.6 5.3 29.4 8 6.3 1.7 12.5 3.8 18.7 5.4 5.4 1.4 10.9 2.1 16.2 3.8 11.1 3.6 22.5 5.8 33.8 8.1 4 .8 7.9 1.9 11.9 3.1 2 .6 3.9 1.7 5.9 2.3 3.5 1 7.1 1.8 10.7 2.6.7.1 2 0 2.2-.4.7-1.5-.6-1.7-1.7-1.9-5.2-1.1-10.4-2-15.5-3.4-12.6-3.3-25.3-6.1-37.9-9.6-16.9-4.7-34-9.1-50.8-14.3-8.1-2.5-16.3-4.9-24.4-7.1-4-1.1-8.2-1.8-12.3-2.5-7.1-1.3-14.3-2.6-21.7-4zm203 58.2c0 .5.1 1.4.2 2.2.2 1.8-.3 4.3.7 5.4s3.5.6 5.3.9c5 .9 10 2 15 2.9.5.1 1.5-.5 1.8-1.1 1.1-2.5 1.8-5 2.9-7.5.5-1.2.4-1.8-.9-2.2-6.8-1.8-13.6-3.8-20.4-5.3-4.4-.8-4.7-.3-4.6 4.7zm40.1-17.9c-2.3-.7-2.7.9-3.1 2.4-.4 1.3-.8 2.6-1.5 3.7-1 1.6-.6 2.3 1.1 2.8l18.3 5.1c2.2.6 5.1 2.2 6.5 1.4 1.5-.9 1.5-4.1 2.3-6.3.6-1.6.2-2.1-1.4-2.6-2.3-.6-4.5-1.7-6.8-2.4-5.1-1.4-10.2-2.7-15.4-4.1zm-67.9-15.3c-.3.3-.7.7-.9 1.2-.5 1.3-.8 2.7-1.4 4.1-.7 1.7.1 2.3 1.6 2.8 8 2.2 16 4.4 24 6.7 3.2.9 3.6.5 5-4.2.9-3-1.8-2.3-3.1-2.8-5-1.9-10.1-3.5-15.2-5.1-3-1.1-6.4-1.8-10-2.7zm88.8 34.1c-.5-.3-1.2-.8-1.9-1-6.8-1.9-13.6-3.6-20.4-5.7-5.8-1.7-5.7-1.9-7.2 4.1-.4 1.4-.1 2.1 1.4 2.5 8.7 2.1 17.3 4.3 25.9 6.4.3.1 1-.3 1-.5.6-1.8.9-3.5 1.2-5.8zm-52.3-25.4c-2.8.5-3.7 2.6-4.5 4.8-.6 1.6-.6 2.3 1.4 2.7 6.7 1.4 13.5 2.9 20.2 4.4 5.4 1.3 5.3 1.3 7.1-3.9.6-1.8.1-2.3-1.6-2.7-5.7-1.2-11.3-2.5-16.9-3.9-2-.4-3.9-.9-5.7-1.4zm-7.2 15.8c.4.3.9.9 1.5 1.1 6.1 1.6 12.2 3.1 18.3 4.8 5.9 1.6 5.8 1.7 7.5-4.4.4-1.6.2-2.2-1.5-2.5-6.5-1.4-13-3-19.6-4.4-5.2-1.1-5.2-1-6 4.3-.1.2-.1.4-.2 1.1zM326.7 107.7c8.2-.4 15.6-.7 23-1.2 6.7-.4 13.4-.9 20-1.5.6 0 1.1-.8 1.7-1.2-.8-.2-1.6-.6-2.3-.5-2.4.4-4.8 1.2-7.3 1.4-1.9.2-3.9-.5-5.9-.4-6.8.4-13.6-.9-20.5.1s-14 .2-21 .5c-5.6.3-11.2.3-16.7-.2-2.3-.2-4.6 0-6.9-.3-4.2-.5-8.4-1.2-12.7-1.7-.6-.1-1.3.5-2 .7.6.3 1.1.8 1.7.9 7.4.8 14.7 1.8 22.1 2.2 9.2.8 18.4.9 26.8 1.2zm211.5 295c-.4.4-1.1.8-1.3 1.4-.7 2-1.2 4.1-1.9 6.2-.4 1.1-.2 1.6 1 1.9 6.1 1.5 12.1 3.1 18.2 4.6.5.1 1.6-.1 1.8-.4.7-2.1 1.7-4.3 1.7-6.4 0-.6-2.8-1.3-4.3-1.9-2.1-.8-4.2-1.5-6.3-2.3-2.9-1-5.7-2-8.9-3.1zm21.4-4.6c-.2-.2-.6-.9-1.1-1-4.6-1.1-9.2-2.2-13.8-3-5.2-.9-5.3-.7-6.2 4.5-.1.6.6 1.8 1.1 2 4.9 1.8 9.9 3.6 14.9 5.2 3.9 1.3 3.9 1.2 4.4-2.7.1-1.4.4-2.9.7-5zm-403-74.5h.2c0 .3-.1.6 0 .8.3.8.7 1.7 1.1 2.5.7-.7 1.6-1.3 2-2.2.5-.8.5-1.9.8-2.8.9-3.6 2-7.1 2.5-10.8.4-2.5 1-3.2 3.4-2.1 1 .4 1.9 1.1 2.9 1.4l37.5 7.8c1.2.3 2.5.4 3.7.4.6 0 1.2-.5 1.9-.7-.5-.4-.9-.9-1.5-1-1.1-.4-2.2-.6-3.4-.8-4.6-.8-9.2-1.3-13.7-2.3-6.3-1.4-12.4-3.3-18.7-4.5-3.8-.8-7.8-.9-11.7-1.1-2.7-.1-4.6 1.7-5.2 4.1-.9 3.7-1.2 7.5-1.8 11.3zm344 60.9c.1 0-.3 0-.4.1-.5 1.5-.9 3-1.3 4.6.8.2 1.6.4 2.4.7.5.1 1 .3 1.5.4 6.2 1.9 12.4 3.7 18.7 5.6 4.3 1.3 4.1 1.3 5.8-2.9.8-2.1.3-2.7-1.8-3.1-4.5-.8-8.9-1.7-13.4-2.7-3.7-.8-7.4-1.8-11.5-2.7zm-102-176.4c-.2-2-.3-3.4-.5-4.8-.1-.8-.6-1.6-.9-2.4-.6.6-1.4 1.1-1.8 1.8-5.3 9-10.7 18-15.9 27-.3.4-.4 1.3-.2 1.6 2.1 2.7 4 2.5 5.7-.5.5-.9.8-1.8 1.3-2.7 3.5-6.3 5.6-13.4 11.5-18.1.5-.6.6-1.6.8-1.9zm59.8 188.5c-.3-.3-.9-1.1-1.7-1.3-8.6-2.5-17.2-4.9-25.8-7.3-.5-.1-1.6.5-1.8 1-.8 1.7-.6 3 1.7 3.7 7.9 2.4 15.8 4.9 23.7 7.5 3.3 1 4 .6 3.9-3.6zm96.4 23.6c-.3-.2-.9-.9-1.6-1.1-5-1.4-10-2.7-15-3.9-4.4-1.1-4.4-1.1-5.7 3.4-.4 1.5-.4 2.1 1.4 2.5 5.2 1 10.3 2 15.4 3.4 4.9 1.3 4.9 1.5 5.5-4.3zm-28.4-188.9c0-.1 0-.3-.1-.4-3.6.5-7.2.9-10.8 1.4-.8.1-2.3 1-2.2 1.3.2 1 .7 2.3 1.5 2.9 2.7 2.2 5.5 4.3 8.3 6.3.3.2 1.3 0 1.4-.2 1.7-4.2 5-6.9 8.8-9.1.5-.3.7-1 1.1-1.5-.6-.2-1.2-.7-1.9-.7-2-.1-4.1 0-6.1 0zm-357.9 89.5c-.9.7-1.5 1-1.7 1.5-.9 1.6-.6 2.4 1.5 2.9 10.7 2.7 21.4 5.6 32.1 8.4 1 .3 2.4 2 3.1-.4.7-2.4-1.5-1.8-2.4-2.2-4.7-1.9-9.4-3.8-14.3-5.3-6.1-1.8-12.2-3.3-18.3-4.9zm267 49.4c-.8 1.1-1.7 1.7-1.7 2.3 0 .5.8 1.4 1.4 1.6 3.4 1.1 7 1.6 10.1 3.2 5.3 2.6 10.9 3.3 16.5 4.2.7.1 1.7-1.7 2.5-2.7.1-.1-.6-1-1-1.1-9.1-2.5-18.3-4.9-27.8-7.5zm-141.9 30.3c-.3.1-.7.1-1 .2-.1.7-.4 1.5-.2 2 .6 1.3 1.5 2.4 2.4 3.5 4.2 5.4 8.4 10.9 12.8 16.1 2.8 3.3 5.9 6.2 8.9 9.2.3.3.9.4 1.3.6 0-.4.2-.9.1-1.3-.9-2.2-1.5-4.7-2.9-6.5-6.2-7.9-14.6-14-19.9-22.7-.3-.3-1-.7-1.5-1.1zm283.2 11.1c.3-.3 1-.5 1.2-1 .9-1.9 1.7-3.9 2.4-6 .2-.5-.4-1.6-.9-1.8-2.2-.9-4.4-1.6-6.6-2.1-.5-.1-1.6.4-1.8.9-.7 2.1-1.3 4.3-1.7 6.5-.1.5.2 1.5.6 1.6 2.1.6 4.3 1.2 6.8 1.9zm-402.5-93.1c0 .1-.1.2-.1.3-.7.1-1.3.2-2 .3.6.1 1.2.2 1.8.4 4.2 1.2 8.4 2.3 12.6 3.7 5.7 1.9 11.3 4 16.8 6.2 1.6.6 2-.4 2.2-1.4.1-.6-.3-1.7-.7-1.9-2.7-1-5.4-1.9-8.1-2.6-7.5-1.7-15-3.3-22.5-5zm-4.5-5.9c-.3.4-.7.8-1.2 1.3.5.4.9 1.1 1.5 1.2 1.7.3 3.4.2 5.1.5 10.6 2 21.3 3.7 31.4 8 .4.2 1.5-1.4 2.3-2.1-.4-.3-.8-.8-1.3-.9-5.9-1.2-11.8-2.2-17.6-3.4-6.6-1.6-13.1-3.1-20.2-4.6zm312.2 74c.5-.1.9-.2 1.3-.2-.1-.2-.2-.5-.3-.7-2.5-3.7-4.4-7.5-10.1-7.4-2.8.1-3.9.7-4.8 3-.5 1.2-.3 1.4 1 1.6 2.9.5 5.7 1.3 8.5 2.1 1.4.5 2.9 1.1 4.4 1.6zm-315.5-59.4c-.5.2-1.1.5-1.6.8.5.5 1 1.1 1.6 1.4 1 .4 2.1.5 3.2.6 7.1.3 13.8 2.6 20.5 4.9 3.5 1.2 7.1 2.4 10.6 3.5.6.2 1.3-.1 2-.2-.5-.6-1-1.5-1.6-1.7-6.4-2-12.8-3.9-19.2-5.6-5.2-1.4-10.2-2.4-15.5-3.7zm407.2 94.3c.2-.4.6-.8.8-1.3 2.7-6.3 2.7-6.3-4-7.8-.6-.1-1.7-.3-1.7-.2-.8 2.3-1.5 4.7-2.1 7.1 0 .1.4.4.6.4 1.9.5 4 1.1 6.4 1.8zM365.6 237.7h3.8c.4 0 .7-.4 1-.6-.3-.2-.6-.5-.9-.6-6-1.4-12-2.7-18-4.1-.3-.1-.6.3-.9.5 1.6 1.4 3 3.6 4.8 4.1 3.3.8 6.8.5 10.2.7zm-30.1 2.8c3 0 4.7-1.2 4.9-4.1.1-2-.7-4.1-1.3-6.1-.4-1.5-1.3-1.3-1.9-.1-1.3 2.4-2.5 4.9-3.6 7.4-1.2 2.5-.9 2.9 1.9 2.9zm234.7 189.4c.2-.1.7-.3.8-.6.7-1.6 1.3-3.1 1.8-4.7.1-.2-.1-.8-.3-.8-2.2-.6-4.5-1.5-6.7-1.5-.6 0-1.2 2.6-1.8 4-.1.3-.4.7-.3 1 .2.5.4 1.2.8 1.3 1.8.5 3.7.9 5.7 1.3zm-40.5-19.6c.2-.1.9-.5 1.1-1 .7-1.8 1.1-3.6 1.7-5.4.3-1.1 1-2.2-.9-2.6-1.6-.4-2.7-.5-3.1 1.5-.3 1.6-.8 3.1-1.4 4.6-.8 2 .1 2.7 2.6 2.9zm-58.1-40.6c-.1.1-.3.3-.4.5-1.4 3.2-.6 4.8 2.7 5.5.9.2 1.8.4 2.6.4.3 0 .8-.5.8-.8.1-2.8-2.8-5.7-5.7-5.6zm90.9 37.4c.2.2.7 1 1 1 .6-.1 1.4-.6 1.6-1.1.7-2.1 1.3-4.3 1.7-6.5.1-.5-.7-1.8-1-1.7-.7.1-1.9.5-2 1.1-.6 2.1-.8 4.5-1.3 7.2zM376.3 247.9c-.2-.3-.4-.8-.6-.8-.3 0-.7.2-.9.4-1.8 1.9-3.6 3.7-5.2 5.8-.3.4.6 1.8 1.1 2.6.3.4 1.5.6 1.5.6 1.5-2.9 2.8-5.7 4.1-8.6zM534.2 391c-1.3 1.2-2 1.6-2.3 2.2-.5.9-.8 2-1.1 3-.4 1-1.2 2.1.7 2.6 1.5.4 2.6.4 2.9-1.5.2-1.1.7-2.2.8-3.3 0-.8-.5-1.5-1-3zm-9.4 26.8c.3.3.9 1.4 1.5 1.4s1.5-.7 1.9-1.3c.5-.8.6-1.9.9-2.8.7-1.6.1-2.3-1.5-2.7-2-.6-1.9.7-2.2 1.9-.2.9-.3 1.9-.6 3.5zM270.2 109.1c.5-2.2-.7-2.8-2.6-3l-2.1-.3c-.4 0-.9 0-1.3-.1.2.4.3.8.6 1.1 1 1 1.9 2.1 3 3 .6.6 1.3 1 2 1.5.2-.7.3-1.4.4-2.2zm293.9 302.7c-.2-.3-.5-.9-.8-1-.4 0-1.1.4-1.2.8-.6 1.6-1.1 3.2-1.5 4.9-.1.5.3 1.1.5 1.7.5-.4 1.3-.7 1.4-1.2.6-1.5 1-3.2 1.6-5.2zm5.1-18.4c-1.1-1.1-1.8-1.9-2.4-2.7-.6 1.3-1.3 2.6-1.7 4-.1.3 1.3 1.4 1.4 1.3.9-.5 1.6-1.4 2.7-2.6zM391.7 246.9c-.8 0-1.4-.1-2.1-.1-.4 0-.8.1-1.2.2.3.3.5.7.8.8 1.5.7 3.2 1.2 4.7 1.9s1.4-.1 1.3-1.2c-.2-2.6-2.3-1.2-3.5-1.6zm3.5-141.3c-2.2.3-4.1.5-6.1.8-.6.1-1.5.3-1.5.6-.1.5.2 1.3.6 1.6.4.3 1.2.1 1.7-.1 1.7-.7 3.4-1.5 5.1-2.3.3-.1.5-.4.8-.6h-.6zm95.6 268.9c-.2.3-.4.4-.3.5.3 1.4.3 3.1 1.2 4 .9.9 2.7 1 4.1 1.4.1 0 .3-.3.5-.4-.2-.2-.3-.4-.5-.5-1.4-1.4-2.9-2.8-4.3-4.2-.3-.2-.4-.5-.7-.8zM305.2 94.2v.4c.3-.3.7-.5.8-.8.7-1.3 1.3-2.6 1.9-3.8.3-.5.6-1 .9-1.6-.6-.1-1.3-.3-1.8-.1-.5.2-1.1.8-1.3 1.3-.3 1.3-.3 2.7-.5 4.6zm19.1-4.2c-.2 0-.6-.2-.9-.1-.4.1-1.1.4-1.2.7-.6 2-1.1 3.9-1.5 5.9-.1.2.1.5.1.8.2-.2.5-.3.6-.5.9-2 1.8-4.1 2.9-6.8zm199.6 337c0 .2.2.7.3 1.3.3-.4.6-.9.8-1.4.5-1.2 1.1-2.3 1.3-3.5.1-.5-.5-1.2-.8-1.8-.4.4-1 .8-1.1 1.3-.3 1.2-.3 2.5-.5 4.1zm34.3-1.1c.1.3.3.9.4 1.4.3-.4.8-.8 1-1.3.4-1.3.8-2.7 1.1-4.1.1-.3-.4-.8-.7-1.1-.3.2-.9.4-.9.7-.4 1.3-.6 2.7-.9 4.4zm-64.6-37.1c.3-.1.7-.1.8-.2.5-1.7.9-3.4 1.3-5.1 0-.1-.7-.4-1-.6-.2.4-.4.7-.5 1.1-.4 1.2-.7 2.4-1 3.5-.1.3-.3.6-.4.8.2.2.5.3.8.5zM280.9 148.6c-.7-1.3-1.4-2.7-2.2-4.1-.2-.3-.8-.2-1.2-.3 0 .5-.3 1.1 0 1.4.9 1.2 1.9 2.3 2.9 3.5.1.1.4.1.6.2 0-.2-.1-.3-.1-.7zm-54.2 171.1c-.2.1-.6.3-1.1.5.1.3.2.7.4.7 1.6.4 3.3.8 4.9 1 .3.1.7-.4 1.1-.6-.3-.2-.6-.5-1-.6-1.3-.3-2.6-.6-4.3-1zm42.4-216.6c.5-.1.9-.2 1.3-.3-.3-.2-.6-.6-.9-.7-2-.5-4-.9-6-1.3-.3-.1-.7 0-1 .1.3.2.5.6.8.6 2 .6 3.9 1.1 5.8 1.6zM226.8 324c-.1-.2-.1-.3-.2-.4-.6-.2-1.4-.7-1.7-.5-.8.6-1.5 1.5-2.2 2.3-.2.2-.1.6-.2.9l.2.1c1.4-.8 2.8-1.6 4.1-2.4zM351.4 93.2c.5-.8 1.1-1.6 1.6-2.4.4-.7.7-1.4 1.1-2.1-.2-.1-.4-.2-.5-.2-.6.3-1.4.5-1.6 1-.4 1.1-.6 2.4-.8 3.6-.1 0 0 0 .2.1zm-56.8-2.9c.3 1 .4 1.4.5 1.7.7-1.1 1.4-2.1 2.1-3.2 0 0-.5-.5-.6-.4-.7.7-1.4 1.4-2 1.9zm55.6 10.9c.2 0 .4 0 .6.1.2-.8.5-1.5.7-2.3.1-.2 0-.4-.1-.6-.5.7-1.1 1.4-1.5 2.1 0 .2.2.5.3.7zm-63.4-11.1c.2.5.3.8.4 1.2.3-.7.7-1.4 1-2.2.1-.2-.1-.5-.2-.8-.5.6-.8 1.2-1.2 1.8zm70.5 9.7c-.2-.3-.3-.4-.5-.5-.4.5-.8 1.1-1.2 1.6l.5.5c.4-.5.8-1 1.2-1.6zm-55.9-11.1c-.2-.1-.6-.2-.6-.2-.3.5-.7 1.1-.9 1.7-.1.2.2.4.2.6.4-.6.7-1.2 1.3-2.1zM558.6 431c-.1-.3-.2-.6-.4-1-.2.3-.5.7-.5 1 0 .6.1 1.2.1 1.8.3-.5.6-1.1.8-1.8zM359.8 241.6c.5-.1.9-.2 1.4-.3-.5-.1-.9-.3-1.4-.3-.3 0-.6.1-1 .2.4.1.8.3 1 .4zm9.8-153.5c-.1-.3-.1-.4-.2-.6-.2.3-.5.7-.7 1-.1.1 0 .3.1.5.3-.3.6-.6.8-.9zm20.5 154.1c-.4-.1-.7-.3-1-.4-.1.2-.1.3-.2.5l.9.3c.1-.1.2-.3.3-.4zm-84-140.7c-.1-.1-.1-.3-.2-.4-.1.1-.3.2-.3.3 0 .2.1.3.2.5.2-.1.2-.3.3-.4zm-22.4 231.8c.1 0 .3-.1.4-.1l-.2-.2h-.4c.1.1.2.2.2.3zm8.4-244.9l-.3.6c.1 0 .3.2.3.1.1-.1.3-.2.3-.4l-.3-.3zm19.3 13.3c-.1 0-.2-.1-.3-.1 0 0-.1.1-.1.2s.1.2.2.3c0-.2.1-.3.2-.4zm-32.8-2.6c0-.1-.1-.1-.1-.2-.1.1-.2.3-.2.4l.2.2c0-.1.1-.3.1-.4zm-19.3.7l.2.1v-.1h-.2zm-90.9 218.8l.2.1v-.2l-.2.1zM282.8 87.9c-.1.1-.2.1-.2.2s.1.1.1.2c.1-.1.2-.1.2-.2s-.1-.2-.1-.2zM394.1 232l-.1.1h.2l-.1-.1zM337 101.4l.2.1v-.2l-.2.1zm-54.6-1.6l-.2-.2c-.1.1-.2.1-.2.2s.1.1.1.2c.2-.1.2-.1.3-.2zm367 100.7c-.5 1.7-3.3 4.1-4.8 3.7-.4-.1-.8-1-.9-1.6-1.2-5.9-2.3-11.9-3.4-17.9-.4-2.4 1.7-2.6 3.1-3.3 1.5-.8 2.1.4 2.4 1.6 1.2 5.8 2.4 11.7 3.6 17.5z"/><path class="st0" d="M244 426.2c-1.8.5-3.8 1.9-5.2 1.5-5.6-1.9-10.7-4.9-14.8-9.4-.7-.8-1.2-2.9-.7-3.5.9-1.1 2.6-1.7 4-2.4.1-.1.7.4.7.6.2 3.3 3 4.6 5.2 6.1 2.8 2 6 3.4 9.1 5.1.6.3 1.1.7 1.6 1.1.1.3.1.6.1.9zm419.7-223.1c-.7-2.5-.1-4 2.1-5 2.3-1 3.1-.7 2.9 1.8-.4 5.2-1 10.5-1.9 15.6-.2 1-1.6 2-2.7 2.7-1.6 1-2.6.9-2.2-1.6.7-4.6 1.3-9.2 1.8-13.5zM266.1 449.7c-5.8 1.1-10.8 2.2-15.9 3.1-1.1.2-2.3-.4-3.4-.6.7-1 1.4-2 2.2-2.8.5-.4 1.2-.6 1.9-.8 5.4-1 10.9-1.9 16.3-2.8.9-.1 1.8 0 2.7 0-.5.8-.8 1.8-1.5 2.4-.7.7-1.8 1.2-2.3 1.5zm280-230c-.1 0-.3-.1-.4-.1.2 0 .3.1.4.1zm-161-104.6c0 .1-.1.2-.1.2v-.1c.1 0 .1 0 .1-.1.1.1 0 0 0 0zM590.4 333h.2c-.1 0-.1.1-.2 0 0 .1 0 0 0 0zm-231.9-26.9h-.3.3c0 .1 0 0 0 0zm53.4-84.3h.2-.2zm168.3 96.7h.3c-.1-.1-.2-.1-.3 0 .1-.1 0 0 0 0zm-92.5 126.7c-2.8 0-5.8-2.9-6-5.9-.2-2.4 2-4.6 4.8-4.9s6.4 2.2 6.7 4.7c0 .1.1.2 0 .3 0 .3-.1.7-.2.7-3 .3-1.5 5.1-4.8 5-.1 0-.3.1-.5.1zm-.4-4.5c-.4-.3-.8-.5-1.1-.7-.1.3-.4.6-.3.8.1.3.5.6.7.9.1-.3.3-.6.7-1zm15.6 16c0 2.4-1.4 3.7-3.9 3.7-3.1 0-6.1-3.2-6-6.4.1-2.4 2.4-5.1 4.4-5 2.7.1 5.5 4.1 5.5 7.7zm-4.1-.6c-.6-.6-1-1-1.4-1.5-.1.4-.4.8-.4 1.1.1.5.5 1 .7 1.6.4-.4.7-.7 1.1-1.2zM321.5 188.7c4.3.8 7.8-.5 10.8-3.6.3-.3 1.3-.3 1.8-.1 3.8 1.1 4.6.8 7.2-2.1.5-.6 1.5-1.1 2.2-1 4.9.6 8.7-.9 11.2-5.5 1.3-2.3 3.5-2.2 5.3-.3.4.4.8 1.2.6 1.6-.2.4-1.1.9-1.5.8-2-.7-1.8.5-2.2 1.9-1.1 3.5-2.6 6.9-4 10.4-.1.2-.3.5-.6.6-5.9 3-11.6 7.4-18.7 6.1-4-.8-7.6-3.2-11.5-4.8-1-.4-2-.7-3-1-.7-.1-1.4 0-2.1.1.6-1 1.1-2.1 1.9-2.8.7-.6 1.8-.3 2.6-.3zm12.2 4.5c6.6-.6 12.3-2.4 16.3-7.7.3-.4.5-1 .8-1.5-.5.2-1 .3-1.4.6-4.9 3.4-10.2 5.9-16.3 6.7-1 .1-1.9.6-2.8.9 1 .3 2.1.6 3.1.8.2.2.5.2.3.2zm-51.1-47.8c-.4-1.5-1.2-3.1-1.3-4.6-.3-4.2 3.8-8.2 8.2-8.8 2.5-.3 4.9-1.6 7.4-2 2.2-.3 4.6-.4 6.8 0s4.4 2.6 6.4 2.3c2.9-.4 4.1 1.8 6.1 2.5.5.2 1.2 1.8 1.1 1.9-1.7 1.3 0 1.9.4 2.9 1.8 4 3.4 8.1 5 12.3.2.4-.7 1.2-1.1 1.9-.5-.5-1.2-1-1.3-1.6-.7-2.3-.9-4.7-1.7-7-1.4-3.9-4-6.7-8.3-7-3.7-.3-7.5 0-11.2-.1-4.1-.2-8 .7-11.8 2.4-1.3.6-2.6.8-2.7 2.7-.1.7-1.4 1.4-2 2.2-.1 0 0 0 0 0zm17.8-14.3v-.1l-.2.1h.2zm29.5-.4c.6-.9 1.3-2.4 2.5-3.5 4.1-3.8 9.2-6.6 14.5-5.9 4.8.6 8.8-1.2 13.3-1.2 1.5 0 3 .6 4.5 1 .8.2 1.7.2 2.5.6.7.3 1.3.9 1.9 1.4-.8.4-1.6 1.1-2.5 1.3-1.2.2-2.5 0-3.7.2-3.1.6-6.1 1.2-9.1 2-7.3 1.9-14.7 3.9-21.9 6.1-1.9.5-1.8-.1-2-2z"/><path class="st0" d="M306.7 148.5c1 .1 2 .1 3 .2-1 .6-2 1.7-3.1 1.7-3.3.2-6.7.2-10 0-1.9-.1-3.7-.5-5.5-.9-.5-.1-1.2-.2-1.5-.5-.4-.4-.6-1.1-.8-1.6.6-.2 1.2-.6 1.7-.5 1.3.4 2.2.8 1.4-1.2-.1-.2.8-1 1.3-1.3.7-.4 1.6-.3 2.2-.7 6-4.3 12.2-3.1 18.4-.7.5.2.7 1.2 1 1.8-.7.1-1.4.2-2.1.2-.3 0-.6-.3-1-.4-3.2-1.3-3.2-1.2-4.1 2-.3.7-.6 1.3-.9 1.9 0 .1-.1.1-.2.1v.2c0-.2.1-.3.2-.3zm-7.1.2c-.1 0-.3.1-.4.1l-.9-4.2c0-.1-.3-.3-.4-.2-1.1.7-2.2 1.4-3.2 2.3-.2.1.1 1.2.4 1.3 1.4.5 2.9.8 4.3 1.2.1 0 .2-.3.2-.5zm5-4.3c-.4.4-.6.6-.6.8s.2.4.3.5c.2-.2.5-.3.6-.6.1-.1-.1-.3-.3-.7zm48.7-14.6c1.8.5 3.6.9 5.3 1.6 2.5 1 4.8 1.1 7.2-.2.4-.3 1-.4 1.5-.4.4 0 .8.1 1.2.2-.2.4-.4 1.2-.7 1.3-3.5 1-6.9 3.6-10.9 1-1-.6-2.7-2.2-3.5.6-.4 1.4-.5 1.9 1.1 1.3.6-.2 1.4 0 2.1 0-.6.5-1.1 1.1-1.8 1.4-3.9 1.5-7.7 3.3-12.1 2.7-.7-.1-1.4-.7-2-1.1.8-.2 1.5-.6 2.3-.7.7-.1 1.5 0 2.2 0-.6-.9-1.1-1.8-1.8-2.5-.2-.2-1.2.3-1.7.7-1 .9-1.9 1.9-2.9 2.8-.3.2-.9.1-1.4.1.1-.5.1-1.1.4-1.4 4.1-4.7 9.2-7.1 15.5-7.4zm-1.3 3.6c-.6-.2-.8-.4-1.1-.3-.2 0-.5.5-.5.5.2.3.4.6.7.6.3 0 .5-.4.9-.8zm-21 41.3c-2.5.3-4.9.7-7.4.9-2.3.2-5.3-2.3-5.6-4.6-.6-4.6.9-8.8 2.7-12.9.1-.3.6-.5 1-.7.1.4.4.8.3 1.2-.6 2.5-1.1 5-2 7.4-.8 2.2-.4 4 .9 5.7.4.5 1.3.8 2 1 .3.1.7-.2 1.1-.3-.2-.3-.5-.6-.7-1-.4-.5-.7-1.1-1-1.7.7 0 1.5-.3 2.2 0 1.2.5 2.4 1.2 3.5 1.9 3.7 2.3 6.9 1.8 9.8-1.4.8-.9 1.7-1.9 2.5-2.8 1.2-1.3 2.5-2.2 3.6.2.1.1 1.5-.1 1.5-.2.2-.9 0-1.9.1-2.8.1-.8.4-1.5.6-2.3.5.7 1.2 1.3 1.4 2 .6 3.1-1.4 6-4.4 6.1-2.6.1-4.2 1.4-6.1 2.8-1.6 1.2-3.7 1.8-5.6 2.6-.2-.3-.3-.7-.4-1.1zm36.6-2.9c-.3.5-.6 1.1-1 1.7-.5-.4-1-.8-1.4-1.3-.2-.3-.5-.6-.5-.9-1.1-4.4-4.6-5.7-8.5-6.2-.4-.1-.8-.2-1.2-.4.3-.3.7-1 1-1 2.8.4 6 .2 8.2 1.5 1.8 1.1 2.3 4.2 3.4 6.6zm3.8-10.5c.2-.9.2-1.6.5-2.1.3-.6.9-.9 1.4-1.4-.1.6-.3 1.1-.3 1.7.2 2.2.4 4.4.7 6.6.1.7.3 1.4.4 2.1 0 .4-.4.7-.6 1.1-.3-.3-.7-.5-.8-.9-.6-2.4-1-4.9-1.3-7.1zm-58 24.7c-.9 2.3-1.6 4.4-2.5 6.5-.1.2-.7.3-.8.2-.4-.5-1.2-1.3-1-1.6.9-2.1 2.1-4.1 3.2-6.1.1-.2.5-.2.7-.3.1.5.2 1 .4 1.3zm53.8-49.9c-1.2-.3-2-.4-2.7-.6-.6-.1-1.1-.1-1.7-.1.5-.4 1-1 1.6-1.2.8-.2 1.8-.3 2.6-.2.7.1 1.3.6 1.9.9-.7.4-1.3.9-1.7 1.2zm15.5-8.1c-.3.6-.8 1.4-1.2 2.1-.3-.8-1-1.7-.9-2.5.1-.8 1-1.4 1.6-2.2.1.8.3 1.5.5 2.6zm-22.2 98.8c-.4-.2-.8-.3-1.2-.5.3-.4.5-1 .8-1.1 2.6-.9 5.2-1.7 7.9-2.3.6-.1 1.4.7 2.2 1.1-.6.4-1.1 1.1-1.8 1.3-2.7.5-5.3 1-7.9 1.5z"/><path class="st0" d="M306.7 148.5c-.1.1-.1.2-.2.3v-.2c.1-.1.1-.1.2-.1z"/></g><g id="Layer_1"><path class="st0" d="M204.1 241.8c.7-.1 1.5-.1 2.2-.2 3.7.2 3.9 4.4 6.5 5.6 1.2.6 2.6.6 3.7.9 1.3.4 2.8 1.1 3.7 2.2 1.8 2.4 2.2 8.3 1.2 11.5-.4 1.4-1.6 2.5-2.3 4.1-1.6 3.5-2.2 8.5-2.8 13.3-.7 5.1-1.2 10.4-.9 15 .1 1.3.6 2.7 0 4-2.8.5-3-2.5-3.7-4.3-1.5-4-2.7-7.6-4.6-11.7-.7-1.6-1.7-4.6-3.5-4.4-1.9.1-2.4 3.9-2.4 6 0 2.8.5 5.9.6 9 .1 1.9.6 7.2-1.4 7.2-1.3 0-2-2.8-2.6-4.5-1.9-5.4-3.3-11.2-5.3-16.5-1.3-3.4-3.3-6.4-4.6-9.8-1.4-3.5-2.9-6.7-4.2-10.2-.1-.8-.1-1.5-.2-2.3.2-.8.4-1.9.7-2.6 1.7-3.5 4.8-6.4 9.5-6.8.8-.1 1.7.2 2.6-.1 1.2-.4 2.5-2.6 3.7-3.5 1.3-1.1 2.8-1.5 4.1-1.9zm7.4 33.7c-.2-1 2-1.6 2.5-2 2.5-2.1 1.7-5.1 2.5-8.7.2-1 1.3-1.5 1.9-2.6 1.2-2.3 2.6-7.4 1.1-10.2-1.3-2.6-5.3-1.4-7.7-3-1.9-1.2-2.1-3.8-4-5.2-1.7-1.2-4.7-1.1-6.6.2-1.6 1.1-2.1 3.9-3.8 4.5-2.1.8-3.7 0-5.4.1-3.5.3-6.5 3.4-6.7 6.4-.2 3.3.9 5.5 2 7.8.8 1.6 1.4 3.4 2.2 4.9 1.5 3.1 4.5 4.9 5.6 8.2-.2.4-.6.7-1.3.6 2.6 4.1 4 10.4 5 16.3.4 2 .4 4.1 1.6 5.6 2-4.7-.6-13.1-.2-19.3.2-3.3 5.2-3.9 7.4-2.1 2.7 2.3 3.6 10 4.6 14.2.4 1.4.5 3.3 1.8 3.8 1-1.2.5-3 .5-4.7-.1-5.2-.1-10.7.2-15.2-.9.3-2.9 1.8-3.2.4z"/><path class="st0" d="M196.4 249.8c2 .4 3.8 1.1 5.2 2.1 1.6-1.5 3.5-2.8 6.8-2.8-1.8 1.2-4.3 1.8-4.9 4 1.7 1.8 4.1 2.8 4.7 5.9-.6.2-.9-.6-1.4-.9-1.5-1.2-3.9-3.6-6.7-3-1.9.4-3.5 1.9-4.7 3-.3.3-.6.9-1.1.9.4-3.2 1.9-5.5 5.7-5.7-.4-2.1-2.3-2.5-3.6-3.5zm81.8-43.2l1.2-1.2c2.3-1.7 4.4.7 6.6.2 1-.2 1.8-.9 2.6-1.3.9-.4 2.2-.7 3.2-.5 2.2.5 5.3 3.8 6.3 6.2.4 1.1.3 2.3.6 3.5.8 2.9 2.8 6.1 4.8 9.3 2 3.3 4.4 6.7 6.8 9.3.7.8 1.7 1.3 2 2.4-1.4 1.7-3 0-4.3-.7-2.8-1.6-5.3-3.2-8.4-4.7-1.2-.6-3.3-1.9-4.3-.9-1.1 1 .5 3.5 1.5 4.7 1.3 1.6 3.2 3.2 4.8 5 1 1.1 3.9 3.9 2.7 5-.7.7-2.6-.7-3.8-1.4-3.8-2.3-7.4-5-11.2-7.2-2.4-1.4-5.1-2.2-7.5-3.6-2.5-1.4-5-2.6-7.5-4-.4-.4-.8-.9-1.2-1.3-.3-.6-.7-1.3-.9-1.9-.7-2.9-.3-6.1 2.3-8.6.4-.4 1.1-.7 1.5-1.3.6-.8.2-2.7.5-3.9.5-1.2 1.1-2.1 1.7-3.1zm20.9 16.4c-.6-.5.4-1.9.5-2.4.4-2.4-1.5-3.9-2.8-6.4-.3-.7 0-1.6-.1-2.5-.4-1.9-2.1-5.6-4.3-6.6-2.1-.9-3.8 1.7-6 2-1.7.2-3.1-1.3-4.9-1.1-1.5.1-3.4 1.6-3.8 3.3-.4 1.4.6 3.3-.1 4.6-.8 1.5-2.2 1.8-3.2 2.7-1.9 1.9-2.2 5.2-.8 7.1 1.5 2.1 3.2 2.8 5 3.6 1.2.6 2.5 1.3 3.7 1.9 2.4 1.1 5 .7 7.3 2.1.1.3 0 .7-.4 1 3.5 1.2 7.4 4.2 10.9 7.2 1.2 1 2.2 2.2 3.7 2.6-1.1-3.8-6.8-7.5-9.5-11.3-1.5-2 1.2-4.9 3.4-4.8 2.7 0 7 4.1 9.7 6.2.9.7 1.9 1.7 2.9 1.3 0-1.2-1.2-2-2-3-2.6-3-5.3-6.3-7.3-9.1-.6.5-1.1 2.3-1.9 1.6z"/><path class="st0" d="M277.6 215.2c1.4-.8 2.7-1.2 4.1-1.3.2-1.7.7-3.4 2.7-5-.5 1.6-1.7 3.1-1 4.8 1.9.3 3.8-.3 5.7 1.2-.3.4-.8.1-1.3.1-1.5 0-4-.2-5.4 1.5-.9 1.1-1.2 2.8-1.3 4.1 0 .3.1.9-.2 1-1.3-2.1-1.6-4.2.6-6.2-1.4-1-2.6-.3-3.9-.2z"/></g><g id="Режим_изоляции"><path class="st0" d="M48.9 80.7c-6.8.3-9.9 4.5-17.9 6.9 0 .6 0 1.4-.1 2.4.6 3.4.3 6.6.4 10v1.8c0 .4.1.8.1 1.3 6.1-.4 11-4.9 17.7-6.2 3.8 10 11.6 21.9 15.7 33.2 6.8 11.7 11.2 25.9 9 38.7-.3 2-.7 3.7-2 5.4-9.5 3.8-18.8-5.9-20.1-14.1-.1-.7 1.4-.3.6-1.7-2.7-4.7-4.7-5.5-6.6-4.8 0 .1 0 .6-.3.6-.4.4-1 1-1.4 1.3-.1.3-.3.3-.4.6-.1.1-.1.3-.3.1l-.4.4c-4 5.4-8.2 10.6-12.6 15.5l.1.1c1.8 2 3.7 4.2 5.5 6.2.1-.1.1 0 .4-.3.4.6.7 1 .7 1.4 3.5 3.7 7.2 7.5 10.6 11.2.3.1.7.1 1.1.1-.1.3-.1.4-.3.6 2.1 1.8 4.4 3.2 6.8 4.7 5.1 2 12.6 3.4 16.2 2.7 2.7-2.5 5.4-.7 11.3-4.7-.4-.7-.8-1.6-.1-2.1.3.4.6 1.1 1.1 1 6.4-8.5 12.3-12.7 10.6-24.7.1-.1.1 0 .3-.1-.1-1-.3-2-.4-2.8-1-4.4-2.3-8.6-3.8-12.9-1.3-4-2.7-7.9-3.5-12.2-1.3-4-2.5-7.6-3.7-11.4-3.8-9.3-8.2-19.9-11.6-30-1.6.4-.8-3.7-3-4.9 3.4-1.4 5.8-3.1 7.6-5.1.3.1.4.4.4.7.4-.4 1-.6 1.4-.7-.8-4.5-6.6-14.7-8.3-18.2-6.4.7-15.3 3.9-20.8 10zm58.9 27c.1.3.3.6.1.8.7 2-.8 1.8 1 3.7-2 .3-1 1.4-1.6 2-4.7.6-7.3-.3-12.9 1.7-2.5 2.4-4.4 5.7-5.1 9.9-.1 1.1-.3 2.1-.3 3.2l.1.1H89c0 1.8 0 3.7.3 5.5.1.6.1 1 .3 1.4 0 .6.3 1.1.4 1.7.3.8.6 1.7.8 2.4 3 4.1 6.5 7.5 10.5 9 1.1.3 2.1.6 3.4.8 0 0 .1.1.1 0h.7c1.1 0 2.3 0 3.5-.3.3-.1.6-.1.8-.3 4.1-3.8 7.8-9.7 8.6-11.6 1.8 1.6 3.2 4.8 4.8 7.1.7-.1 1.6-.4 2.3-.7.3-.1.6-.1.7-.4-.3-1.3-.7-2.7-1-4-2.4-7.2-5.5-14.1-5.9-21.6-.1-.3-.1-.7-.4-1.1-1.7-3.5-3.4-6.8-4.4-9.9-2.6-1.1-4.7-.8-6.7.6zm-.4 24.4c-1.6-.8.4 4.8.8 5.9-4.4 4.4-6.4-1-9.3-2.1-.8-5.1 0-9.3 1.4-13.4 1.4-2 3 1.6 2.1-1.1 2.7 2.4 4 7.8 5 10.7zM208.3 64c-6.9.8-8.3 3.4-14.6 5.1l-1.1-2.4c1.1-2 2-4.1 2.8-5.9.3-.7.4-1.6.6-2.4 1.4-6.5 3.2-13.1 5.7-19.4.1-.3.3-.3.4-.4-1.6-2.5-2.5-4-4-6.5-9.5 4.2-18.8 8.6-28.7 11.6-.6.3-1.3.6-1.8.6.4.8.7 2 1 2.7.6 1.3 1 2.4 1.4 3.4.8 1.6 1.4 3.4 2.1 5.1.6-.1.8.1 1.4 1.1 1.7-2.1 3.8-1.3 6.6-3.5.6 2.5.8.1 1.7 1-.7 4.1 1.1 11.2.3 14.3.1-.3-1-1-.8-.7 1 2.3.3 4.2.3 6.4 2.8 4.5 5.1 9.2 7.1 14.1 10.2-4.7 19.1-10.7 32.6-18.8-2.5-6.2-2.5-6.5-5.4-10.2-4.2 2.9-5.9 2.3-7.6 4.8zm-67.8 13.7c-7.8 2.4-15.5 4.7-23.6 6.2-2.1.6-4.4 1.1-6.6 1.7 4.2 10 6.5 15.3 12.7 20.9 10.5-4.1 10.9-5.7 19.2-7.9.6 11.2.4 22-2.1 32.2.6 2.1 1.7 3.1 2.8 3.7l-2.5 1.1c3.2 4.7 6.8 11 11 15.8 4.2-2.8 9-4.8 13.8-6.8 5.7-2.3 11.2-4.8 16.5-7.5 5.8-2.8 11.9-5.5 17.2-8.9 1.1-.6 2.1-1.4 3.2-2-4.1-4.1-4.7-10.5-6.5-15.3-.8.3-1.6.4-2.4.7-8.9 3.5-18.1 6.4-27.6 9-.3.1-.6 0-.7-.1-.8.1-1.8 0-2.4-.1l-.1-.1c-.4-.1-.8-.4-.7-1 .1-.1.1-.3.1-.4-.3-.8-.6-1.7-.1-2.1.1.1.3.4.4.6.6-5.8 1.8-11.3 3.4-16.7.6-3.8 1.3-7.3 2.8-10.7.8-3.7 2.1-7.2 3.4-10.9-1.1-3.5-3.1-7.2-4.5-10.3-8.6 3.6-17.8 6-26.7 8.9zM250.3 251c.1-1.3-2.1-.3-1.5-2.7 1.2-.9.4 1 1.4.3-.4-3 0-6.1-1-9.1-.6-1 .6 5.6-.2 7.8-2.5-4.1 1.9-11.8-1.3-10.5.6-1 3.1-3.6 1-3.5.3.6 0 1.3-.3 2-1.1-5.2 1-2.1 1.7-7.5 24.9 23.3 42.5 47.5 49 72.9.6-17.4-16-43.1-32.6-62.7-3.8-4.5-8.8-8.5-10.6-13.3-1.2-3.2.5-7.3-1.4-9.5-6-6.8-20.6.4-28.5 8.1 4.9 1.2 9.7-7.5 13.5-5.4 1.7 2.7-1.3 6 .6 8.6-3.4-.9-8.2 1.9-13.2 3.4 5 2.5 10.8-.5 16.6-3.3-.1 12.3 3 26.6 2.5 36.5.2-.2.6-.1 1 .4-2.4 14.6 6.8 41.2 22.5 55.6-9.6-20.5-21.1-49.8-19.2-68.1zM82 221.4c-1.7-1.1-4.7 0-6.4.2-4 .4-7.9-.8-11.7-.6-2.5.1-3.2 1.4-3.2 3.8.2 2.3.3 4.7.5 7 .1 1 .9 1.1 1.8 1 1.8-.3 3.5-.5 5.3-.7.5 3.2 1 6.5 1.5 9.7.3 1.7.1 6.7 1.5 7.9 1.6 1.3 6.7.9 8.2-.5 1.8-1.7.4-6.1.1-8.1-.3-2.6-.7-5.3-1-7.9 2.1 0 4.4-.2 5.6-1.9 1.4-2.3-.1-8.5-2.2-9.9zm-1.1 7.5c-.8 2.5-.4 1.4-2.3 1.9-.5.1-1.2.1-1.7.1-.8 0-1.7.6-1.6 1.5.5 3.9 1 7.8 1.5 11.8.2 1.6.8 2.9-1.4 3.6-2.8.9-2.2-2.3-2.4-4-.7-4.5-1.3-9-2-13.5-.1-.6-.9-.8-1.3-.7-1.9.2-3.8.4-5.7.7-.1-1.9-.3-3.8-.4-5.7 0-2.3 2.2-.9 3.9-.7 2.6.2 5.3.2 7.9 0 .8-.1 3-.8 3.7-.5 2 .8 2.3 3.9 1.8 5.5zm24.6 9.5c-1.7.1-3.3.1-5 .1-.7 0-1.4.1-2.1 0h-.5c-.6-1.3-.5-3.5-.6-5.1 1.9-.2 4.2.1 5.9.1.6 0 2.1-.3 2-1.2-.1-1.8-.2-3.7-.5-5.5 0-.3-.6-.4-.9-.4-2.2.1-5 .5-7.2 0-.3-.1-.5-.1-.7-.1-.3-.6-.3-1.7-.3-2.5 2.6-.5 5.1-1 7.7-1.5.5-.1 1.5-.3 1.7-.9.7-3.7-2.4-3.7-4.9-3.7H87.9c-.5 0-2.2.3-2 1.2 1.5 9.3 3 18.5 4.4 27.8.1.4.8.5 1.5.3 4.5-.5 10-.3 14.1-2.1.3-.1.9-.4.9-.7.1-1.7-.3-3.6-.6-5.3.1-.4-.5-.5-.7-.5zm-1.6 5.6c-1 .9-5.7.8-7.2.9-1.2.1-2.3.3-3.5.4-1.4-8.7-2.8-17.4-4.2-26.2h6.3c1.6 0 3.5-.2 5.1 0 .4.1 1-.2 1.3 0-.6-.3.2 1 .4 1.9-2.5.5-5.1 1-7.6 1.5-.5.1-1.7.4-1.7 1.1.1 1.3.3 2.5.5 3.8.1.3.6.4.9.4 1.9 0 5-.6 6.8.1 1.5.5 1.1.4 1.3 2.4 0 .5.1 1 .1 1.5-2.3-.1-4.7-.2-6.7.4-.4.1-1.3.4-1.3 1.1.3 2.1.5 4.2.8 6.4 0 .3.6.4.9.4 1.7 0 4.7-.6 6.2-.1 1.9.6.7-.5 1.4 1.5.4 1 .5 2.3.2 2.5zm28-30.9c-5.9-4.5-16-.3-22.2 1.6-.6.2-1.3.7-1.2 1.4 1.8 9 3.7 18.1 4.8 27.2.1.4.6.6 1 .7.3.1.7.1 1 .2.3.1.6 0 .9-.1.1 0 .2 0 .3-.1 2.9-1.1 5.7-1.6 8.7-1.6.7 0 1.8-.7 1.6-1.5-.8-2.6-3.6-10.4-1.5-12.8.8-.9 3.1-1.3 4.2-2 1-.7 2.1-1.5 2.9-2.4 2.7-3.2 3-7.9-.5-10.6zm-7.9 13.2c-.7.4-1.4.6-1.9 1.4-1.8 2.6.2 9 1.3 12.6-2.5.2-4.8.7-7.2 1.5-.7-1.6-2.2-13.4-2.6-15.4-.6-3.4-1.3-6.7-2-10.1 5.8-1.9 18.1-6.1 19.9 1.3 1.2 4.9-4.2 7-7.5 8.7z"/><path class="st0" d="M122.6 217c-2.5.6-4.6 2.4-5.2 4.9v.2c0 .1 0 .1.1.2.9.8 2.3 1.1 3.5 1 1.1-.1 2.2-.5 3.2-1.1s2.3-1.7 2.7-2.8c.8-2.5-2.9-2.7-4.3-2.4zm.7 3.4c-.9 1.1-1.9 1.8-3.1.9.3-1.1 1-2.4 2.1-2.8.5-.2.9-.1 1.3.2.7.6.2 1.2-.3 1.7zm25-17.5c-.4-.7-1.8-.2-2.3.1-1.6.9-5.2 2-6.3 3.6-.8 1.3-.4 4.4-.5 5.8-.7 8.8-1.3 17.5-1.9 26.3 0 .5.5.5.8.5 3 0 7-.1 9.3-2.4.2-.1.3-.2.3-.3v-.1c.8-2.7-.1-5.4.3-8.1v-.4c.1-.1.2-.1.3-.3 1.9-1.7 3.2-.8 4.9.4 1.5 1.1 2.6 3.8 4.7 4 2.5.3 5.4-2.5 7.3-3.6.3-.2.8-.5.5-.9-6.7-7.8-12.8-15.4-17.4-24.6zm12.1 26.7c-.8 1-1.4.9-2-.5l-1.1-1.1c-1.1-1.1-2.6-3.2-4.4-3.5-2.4-.4-5.2 1.9-7.1 2.8-.3.1-.6.4-.6.7.1 2.8.5 5.8-.2 8.6-.8.7-3.3 1.3-4.5 1.1-.2 0-.3-.1-.4-.1.1 0 .1-.1.1-.2-.4-1.7.3-4.3.4-6 .4-5 .7-9.9 1.1-14.9.2-3-.1-6.7.7-9.6v-.3c.3-.2.8-.6 1.1-.7.8-.4 1.6-.8 2.3-1.3 1.1 2.2 2.2 4.5 3.5 6.6 1.4 2.4 3.2 4.6 4.9 6.8 2.1 2.7 5.5 5.5 7 8.4 1 1.6 1.1 2.5-.8 3.2z"/><path class="st0" d="M150.5 215.7l-.1-.1c-.1-.1-.3-.2-.5-.2-1.5-.4-3.8-1.4-5-.2s-.9 4.1-.8 5.6c0 .7 0 1.6.6 2.2.6.6 1.8.4 2.6.4 1.5-.1 5.1-.1 5.8-1.8.4-.9-.4-2.2-.8-3-.5-1.1-1-2.2-1.8-2.9zm-3.3 5.7zm.5-.3h-.6c-.1-.5-.2-1.3-.2-1.4 0-.7 0-1.5.1-2.2 0-.2 0-.3.1-.5.4.1.7.2 1.1.3.7.7 1.5 2.5 1.8 3.5v.1c-.8.1-1.5.1-2.3.2zm61.4-34.7c-.5-.4-1.3-.3-1.8-.1-3 1.2-5.9 3.8-8.6 5.9-.8-.8-1.5-1.7-2.2-2.5 2.1-.8 4.1-1.9 6-3.3.6-.4.6-1.1.1-1.6-1.4-1.3-.6-3.7-2.9-4.3-2-.5-5 1.5-7.1 2.8-.5-.6-1.1-1.2-1.6-1.7 1.9-1.6 3.7-3.2 5.5-4.8.5-.5.7-1.1.1-1.6-2.9-2.5-4.2-4.2-7.6-2.1-2.6 1.6-5.5 4.4-7.5 6.7-1.2 1.4-1.7 2.2-1.4 4.1 0 .2.1.4.3.5 1.8 3.1 3.9 6 6 8.9 2.2 3 5.1 8.6 8.4 10.4 1.7 1 2.8.3 4.5-.7 4.5-2.6 8.7-6.1 12.7-9.3.3-.2.6-.7.5-1.1-.9-2.1-1.8-4.8-3.4-6.2zm-5 10.3c-1.4 1-2.9 2.6-4.5 3.2-2.9 1.2-3.7.9-5.7-1.6-3.9-4.9-7.8-9.9-10.9-15.3-.2-1.9 5-6.2 6.5-7.2 2.3-1.5 2.5-1.1 4.1.4-1.8 1.6-3.7 3.2-5.5 4.8-.5.5-.7 1.1-.1 1.6 1 1 2 1.9 2.8 3.1.4.6 1.4.6 2 .3 1.9-1 4.6-3.1 6.3-1.7.3.2.5.7.7 1.3-1.8 1.2-3.4 2-5.7 2.7-.7.2-1.6 1-1 1.7 1.3 1.8 2.7 3.4 4.2 4.9.5.5 1.6.2 2.1-.1 2.5-1.8 5.2-4.5 8.1-5.9 3.4 3.4-.3 5.5-3.4 7.8zm28.1-30.2c-4.2-3-9.5-4.7-13.9-2.5.1-5.4-2.2-10.7-8.9-8.8-4.7 1.4-8.5 5.9-11.9 9.2-.3.3-.4.7-.1 1 3.8 5.4 7.9 10.6 11.8 15.9 2.2 3 4.4 6.9 7.3 9.3.6.5 1.9.1 2.3-.4 1.3-1.3 3.9-2.1 5.4-3 2-1.1 3.9-2.3 5.7-3.7 5.8-4.8 9.7-11.7 2.3-17zm-4 15.7c-3 2.3-7.1 3.7-10.2 5.9-1.5-1.6-2.8-3.8-4.1-5.5-2.7-3.5-5.1-7.2-7.7-10.8-1.5-2.1-3.2-4-4.8-6-.7-.8-1.1-.5-1-1.1.1-.5 1.2-1.2 1.5-1.5 1.6-1.5 3.2-3.1 5-4.4 1.8-1.3 5.7-1.8 7.6-.1 1.8 1.7 1 5.8.7 7.9-.2 1.4 2.2.8 2.7.3 3.8-3.9 9.9-.7 13.1 2.2 4.7 4.4 1.4 9.6-2.8 13.1z"/><path class="st0" d="M223.2 170.9c-3.4.5-6.5 2.5-7.7 5.7v.3c1.2 1.7 2.8 3.8 5 3.9 3.2.2 6.9-2.2 8-5.2 1.4-3.7-2.2-5.1-5.3-4.7zm1.8 6.5c-.7 1-2.1 2.3-3.4 1.9-.6-.1-1.1-.8-1.5-1.2-.6-.6-1.2-1.3-1.7-2 .8-2 2.5-4.1 4.9-3.9 3 .3 3.2 3.1 1.7 5.2zm-13.4-16.3c-1.2-.2-2.3.2-3.1 1.1-.6.6-1.2 1.1-1.7 1.8-.7.9-.7 2.6-.5 3.7.4 2.9 3.6 4.4 6.1 2.8 2.1-1.4 2.1-4.3 1.6-6.5-.3-1.3-.9-2.6-2.4-2.9zm-1.9 7.4c-.6-.9-.8-3.1-.4-3.8.3-.6 1.1-1.1 1.5-1.6l.1-.1c-.4.7-.3.5 0 1.3.1.3.2.7.2 1 .1.7.2 1.3.1 2 .1 1-.3 2.9-1.5 1.2zm43-14.7c-2.5-2.3-6-3.5-9.1-4.9-1.3-.6-3.6-1.3-4.6-2.3-1.2-1.2-.7-1 .3-2.6 1.1-1.8 3.4-3.9 2.6-6.1-.5-1.4-3.8-5.4-5.4-5.8-1-.3-1.9 0-2.8.6-2.5 1.7-4.6 5.7-6.6 8-2.7 3.1-5.7 6.1-8.7 8.9-.2.1-.4.3-.6.4-.5.4-.8 1.1-.2 1.5 2.9 1.9 6.7 6.1 10.3 3.6.6-.4 1-1.4 1.6-1.6 2.4-1.1 4 .8 5.7 2 3.6 2.6 7.2 5.2 10.8 7.7.8.6 2 .1 2.5-.7 1.6-2.6 3.6-5 4.5-8 .2-.3-.1-.5-.3-.7zm-3 2.3c-.5 1.5-1.6 3-2.7 4.5-2.9-2.1-5.8-4.1-8.7-6.2-2-1.4-4.4-4-7.1-4-1.2 0-2.1.6-3.1 1.3-.4.3-1.1 1.6-1.6 1.7-1.5.4-4.1-1.6-5.7-2.9 4.7-4.4 9.1-9.1 13.1-14.2.5-.7 1-1.4 1.5-2 .2.4.3.7.5 1.1.4.3 3 3 3.1 3.5.4 1.9-3.1 6.1-4.2 7.8-.3.5.1.9.5 1.1 2.6 1.3 5.2 2.5 7.8 3.8 1.7.8 4.4 1.6 5.8 2.9 1.2.8 1.3.1.8 1.6zM181.8 198c-2.1-2.1-5.8-6.7-8.9-7.1-2.1-.3-4.5 2.1-6 3.1-4.1 2.9-8.3 5.7-12.4 8.6-.2.2-.3.3-.3.4-.3.2-.4.5-.2.7 5.3 7.2 10.6 14.5 16.3 21.5.5.6 2 0 2.5-.4 2-1.5 3.9-3.1 5.9-4.6.2-.2.4-.4.2-.7-2-2.6-3.9-5.2-5.9-7.8-.5-.6-2.7-2.7-2.7-3.6 0-.4 0 .4.4-.4.3-.6 1.2-1.4 2-2.1 2.1 1.8 3.9 4.5 5.6 6.5 1.3 1.5 2.6 3.8 4.7 4 3.1.3 6.4-4.3 8.2-6 .2-.2.1-.3 0-.5-2.7-4.2-5.8-8.1-9.4-11.6zm2.4 16.4c-4-2-6.1-8.2-9.7-10.6-.6-.4-1.6-.1-2.2.2-1.9 1.1-3.3 2.8-4.8 4.3-.2.2-.1.3 0 .5 2.5 3.3 5 6.6 7.4 9.9 1.4 1.8 1.8 1.1.4 2.1-1 .7-2 1.5-3 2.3-5.3-6.6-10.3-13.4-15.3-20.2 3-2.1 6-4.2 9-6.2 1.1-.8 3.8-3.5 5.2-3.6 1.8-.2 3.7 2.2 4.9 3.2 2.9 2.6 5.6 5.4 8.1 8.4.9 1.1 3.2 3.2 3.5 4.6.4 1.9-1.7 3.8-3.5 5.1zm-23 208.8c-3.2-7-4.6-14.8-6.5-22.1-1.6-6-3.2-12-4.6-17.8-.1-.9-.2-1.6-.4-2.4 5.4 3.4 10.6 7 15.6 10.9.2.4.4.7.6 1 1.1 1.2 2 2.4 2.6 3.9.4 0 .9 0 1.2-.2-.7-2.7-1.7-5.4-2.7-8.1-1.5-3.1-3.3-5.7-6-7.7-4.3-1.8-9.4-1.8-12.6-5.6-.1-.1-.4-.2-.6-.2-.1-.2-.1-.5-.2-.7-.2-1-2.6-.4-2.3.6.5 2.6 1.1 5.1 1.6 7.7 1.3 11.1 3.4 22 6.1 32.8.6 2.6 1.3 5.1 2.1 7.7-.5.1-1.1.4-1.6.5-2.3.7-4.6 2.1-6 3.5-.4.4-.7.7-1.1 1.2-.6.5-1.1 1.1-1.5 1.6-.7 1-1.5 2.1-2 3.3-1 2-1.6 3.9-1.2 5.6.9 3.5 4.9 4.3 7.9 3.7 1.6-.4 3.4-1.1 5.2-2.1 5.1-2.2 9.9-7.2 8.9-12.2.1-2.2-.6-3.9-2.5-4.9zm-16.4 12.3c0 .1 0 .4-.1.5v-.4c0-.6 0-1.3.1-2 .4-.7.9-1.6 1.3-2.3-.9 1.4-1.3 2.9-1.3 4.2zm2.6-5.8c-.4.4-.6.7-.9 1.1 0-.1.1-.1.1-.2.5-.7 1.1-1.6 1.8-2.4-.4.5-.7 1-1 1.5zm6-4.3c.4-.1.6-.1 1-.2-.4.1-.9.2-1.2.5.1-.2.2-.2.2-.3zm-2.7 5.7c.1-.1.2-.2.4-.2-.1.2-.1.4-.2.6l-.2.2c-.1-.1 0-.3 0-.6zm4.9 4.5c-1.1 1-3.2 2-5 2.3h-.1c.4-.1.6-.2 1-.5 1.7-.6 3.3-1.6 4.4-2.3.5-.4 1.1-.7 1.6-1.2-.5.6-1.3 1.3-1.9 1.7zm-58.3-30.1c-2-4.2-21.8-20.1-29.2-26.1-.4-.2-.8-.4-1.3-.7-1.5-1.3-3.3-2.7-5.1-3.6-4-2.4-7.7.8-11.4 4-3.8 3.2-7.7.8-7.7.8s22.1 20.5 28 25.9 3.7 5.8 3.7 5.8-7.7.8-9.7 7c-1.8 6.1 6.7 13.1 11.2 8.5 4.5-4.5 5-11.5 2.6-16.5-1.5-3.1-13.6-13.3-22.5-20.6l15.9-3.4c1.3-.3.4-1.1-.6-1-.6.2-1.1.2-1.7.4.5-.2 1-.3 1.5-.5.4-.1.8-.1 1.2-.2 6.4 5.9 13.7 12.6 16.8 15.5 5.9 5.4 3.7 5.8 3.7 5.8s-7.7.8-9.7 7c-1.8 6.1 6.7 13.1 11.2 8.5 4.9-4.6 5.5-11.5 3.1-16.6zM54 388c.5-.1 1-.2 1.5-.2-.4.1-.9.3-1.2.4-.2 0-.2-.1-.3-.2zm7.2-3c-3.1.4-6.1.9-9.1 1.6-3.2-2.5-5.3-4.2-5.3-4.2s7.5 2.7 12.5.3c3.3-1.6 7.1-1.3 9.4-.9.6.6 1.3 1.1 1.9 1.8-3.2.2-6.4.8-9.4 1.4zm131 11.6c-1.4-5.2-1.5-10.7-1.9-16-.4-4.3-.8-8.6-1.1-12.8v-1.7c3.3 3 6.5 6 9.5 9.3.1.3.2.5.3.7.6 1 1.1 1.9 1.3 3 .3 0 .6.1.9 0-.2-1.9-.5-3.9-.9-5.9-.7-2.3-1.6-4.3-3.2-6-2.7-1.8-6.3-2.4-8-5.3-.1-.1-.2-.2-.4-.2-.1-.2 0-.4-.1-.5-.1-.7-1.7-.6-1.7.1 0 1.8.2 3.7.2 5.5-.4 7.8-.2 15.5.4 23.3.1 1.8.3 3.7.5 5.5-.4 0-.8.1-1.2.2-1.7.2-3.4.9-4.5 1.7-.3.2-.6.4-.9.7-.5.3-.9.6-1.2.9-.6.6-1.3 1.3-1.7 2-.9 1.2-1.6 2.5-1.5 3.7.2 2.5 2.9 3.5 5 3.5 1.1-.1 2.5-.4 3.9-.8 3.8-.9 7.7-3.8 7.6-7.4.1-1.3-.2-2.6-1.3-3.5zm-12.8 6.6c0 .1 0 .3-.1.3s-.1-.1.1-.3c0-.4.1-.9.2-1.3.3-.5.8-1 1.2-1.4-.8.8-1.3 1.8-1.4 2.7zm2.5-3.7c-.3.2-.5.4-.7.7 0-.1.1-.1.1-.2.4-.4.9-1 1.5-1.5-.4.4-.7.7-.9 1zm4.6-2.3c.3 0 .4 0 .7-.1-.3 0-.6.1-.9.2.1 0 .2 0 .2-.1zm-2.5 3.7c.1-.1.2-.1.3-.1l-.2.4c-.1.1-.1.1-.2.1 0-.1.1-.2.1-.4zm2.8 3.7c-.9.5-2.4 1-3.7 1h-.1c.3 0 .4-.1.7-.2 1.2-.2 2.5-.7 3.3-1.1.4-.2.8-.4 1.2-.7-.3.4-.9.7-1.4 1z"/></g></svg>