<svg version="1.1" id="Слой_1" xmlns="http://www.w3.org/2000/svg" x="0" y="0" viewBox="0 0 566.9 467.7" xml:space="preserve"><style>.st0,.st1{fill:#ee7f00}.st1{fill-rule:evenodd;clip-rule:evenodd}</style><path class="st0" d="M148.1 277.3c2.1-6.3 4.1-12.5 6.4-18.7 4.3-11.6 8.8-23.1 13-34.7 2.4-6.5 4.3-13.1 6.6-19.6 1.2-3.4 2.9-6.6 4-9.9 3-8.6 5.9-17.3 8.8-25.9h-4.2c-4.7 13.1-9.3 26.2-14 39.3-1.2 3.3-2.4 6.6-3.5 9.9-2.2 6.7-4.1 13.5-6.5 20.2-5.2 14.5-12.1 28.3-16 43.3-1.6 6.1-4.2 11.9-6.1 17.8-4.1 12.7-8.2 25.5-12.1 38.2-6.5 21.3-13.5 42.5-19.2 64.1-7.6 28.7-15.6 57.3-25.5 85.3-2.1 5.8-.7 11.6-1 17.4.4-.4.6-.9.7-1.4 1.2-4.6 2.2-9.2 3.6-13.7 6.9-22.1 14.7-44 20.5-66.4 8.5-32.9 18.5-65.4 28.8-97.7 5.1-15.9 10.5-31.7 15.7-47.5zm469.7 288.6c-2.9-16.5-5.8-32.9-8.8-49.4-3-16.8-6.7-33.4-12.2-49.6-6.2-18-14.1-35.2-22.1-52.4-.5-1.1-1.3-2.1-1.9-3.2-.5-.9-1.1-1.7-1.2-2.7-1.7-11-3.3-22-4.8-33-1.8-13.5-5.2-26.7-8.9-39.8-4.1-14.4-7.7-29-11.6-43.5-.3-1.3-.9-2.4.5-3.6.4-.3.2-1.8-.2-2.4-12.8-18.1-28.1-33.8-46.4-46.5-4.6-3.2-8.9-6.9-13.7-9.8-5.3-3.2-8.3-7.6-10-13.4-1-3.6-2.4-7-3.7-10.7.8-.1 1.2-.2 1.6-.2 5.9-.6 8-2.7 8.9-8.5.2-1.3.6-2.6 1-3.8 1.3-4.3 2.7-8.5.4-12.9-.4-.7-.3-1.9-.1-2.7 1.2-5.3-.3-10-2.7-14.5-2-3.8-4.7-4.2-8-1.5-.4.3-.9.6-1.3.9l-.1.1v-.1c0-1.5-.4-3.1.1-4.4 1.1-2.6.8-4.6-1.4-6.2 2.1-3.7 2-4-1.1-6.9-.3-.3-.6-.7-.8-1.1-.7-1.6-1.2-3.3-1.9-4.9-.4-.9-1.3-1.8-1.3-2.7 0-3.1-.8-5.9-2.4-8.5-.2-.3-.2-.7-.1-1.1.8-3.4.1-4.7-3.2-6.1-.7-.3-1.7-.4-2.1-1-2-2.6-4.9-5.2-5.6-8.2-.8-3.1-2.7-3.1-4.7-3.7-4.6-1.5-9.5-2.6-13-6.4-.5-.5-1.4-.9-2.1-1-4.6-.1-9.3-.1-13.9-.1-2.3 0-4.6.1-6.9.1-1.9 0-4-.7-5.7-.3-5.1 1.2-10.1 2.4-15 4.3-5.1 2-10 4.6-13.7 8.9 0-.7.1-1.4.1-2.3-6.9 3.6-10.9 8.9-11.4 16.6.1-1.7.3-3.5.4-5.3-2.5 1.9-2.5 7.7-.2 12.8v-.1c-.5-.6-1.2-1-1.5-1.7-1.5-3.2-1.4-6.6-.6-10.6-3.1 2.8-2.1 5.9-2.4 8.9-1-1.9-2-3.9-3-5.8-.2 0-.5.1-.7.1 0 .8-.2 1.7 0 2.5.6 1.7 1.5 3.3 2.3 5l.1.1h-.1c-1.2-1-2.4-2.2-3.7-3.1-.4-.3-1.3 0-1.9 0-.1.3-.1.5-.2.8 1.1 1 2.2 2.1 3.3 3.1-.8-.4-1.5-.7-2.2-1.2-1.2-.9-2.1-.7-2.7.8 1.6 1.1 3.2 2.3 5.2 3.7-3.1.9-4.5-1-6.4-2.2-.4.5-.9 1.1-1.4 1.6.8.7 1.4 1.2 1.7 1.5-1 .3-1.9.7-2.9 1 .1.3.1.6.2.9h5.4c-1.6 1.1-3.3 2.2-4.9 3.4.1.2.2.4.4.6.7.1 1.4.2 2.4.3-.6 1.9-1.1 3.6-1.6 5.4 1.3-.1 3.8-1.5 2.4 2 .7-.1 1.2-.2 1.8-.4-.5 1.1-2.7 1.5-.8 3.1-2.1 2.6-1.7 3.8 1.3 4.6 1.3.8-1.9 2.5.9 2.9-.3.8-.6 1.7-1 2.5l.7.3c.9-.6 1.8-1.3 2.4-1.7-.3 1.7-.6 3.7-1 5.8.8-.1 1.2-.1 1.5-.2.1 1.7.2 3.3.3 4.9 0 .1.7.1 1.1.2l.1.1h-.1c.7 2.1 1.4 4.1 2.1 6.2.1.7 0 1.6.3 2.2.8 1.9 2 3.6 2.4 5.6 2.6 12.3 5.8 24.3 12 35.4.2.4.4 1 .5 1.4-6.4 1.4-10.9 5.4-14.8 10.2-2 2.4-3.2 5.1-3.3 8.3 0 2.1-.5 4.2-.2 6.3 1.2 9.9 2.6 19.7 4 29.5.6 4.1 1.6 8.1 2.4 12.2-7.7.5-9.4 2.3-8.4 9-1 .3-2.1.5-3.1.9-1 .5-2.2 1-2.9 1.9-6.4 8-15.4 12.4-24 18.1.6-13.3 1.2-26.2 1.8-39.1.4-8.5.9-16.9 1.3-25.4.5-11.2 1.1-22.4 1.4-33.6.1-3.8-.9-7.5-3.1-10.8-4.6-6.9-11.8-9.1-19.3-10.6-7.7-1.5-15.4-.2-23 .1-4.1.1-8.2.5-12.2.8-1-4.7-3.2-8.4-7.6-10.4-.6-.3-1.3-.6-1.8-1.1-3.4-4.3-8.2-4.7-13.1-4.8-5-.1-10 .1-14.9 0-2.3 0-4.7-.4-7-.2-4.3.4-8.5 1.1-12.7 1.5-2.3.2-4.6 0-7 0-.1-1.4.1-2.6-.2-3.6-1.5-5.4-2.4-10.9-3.1-16.4h-4.8c.5 3.9.9 7.7 1.8 11.5 1 4.4.9 8.5.4 12.9-1.4 11.9-6.1 23-9.3 34.4 0 .2-.3.3-.6.5-3.8-5.9-7.5-11.7-11.4-17.4-.7-1.1-1.9-1.9-2.9-2.8-.7 1.2-1.4 2.3-2.1 3.5-.1.3-.1.6-.2.9-1.1 6.1-1.7 12.3-3.2 18.3-3.3 13.1-7 26.1-10.7 39.1-3.6 12.9-8.1 25.4-14.5 37.3-4 7.4-7.5 15.1-10.3 22.9-3.1 8.8-5 18.1-7.8 27.1-4 12.6-8.5 25-12.6 37.6-2.3 6.9-4.2 14-6.3 21-1 3.4-1.8 6.7-2.7 10.1-.2.7-.4 1.6-.9 2.1-3 3.1-3.4 4.6-1.3 8.4 5.6 10.1 11.3 20.1 16.9 30.1.9 1.6 1.8 3.1 2.6 4.6h-.7c-.3 1.2-.7 2.5-.9 3.7-.3 1.7-.3 3.4-.7 5.1l-13.5 50.7c-1 3.6-1.9 7.2-3 11.1 1.9-.6 3.9 1.1 4.6-1.6 2.8-10.8 5.6-21.7 8.5-32.5 2.7-10.4 5.6-20.7 8.5-31.5 1.6 2.5 2.8 4.6 4.2 6.7 1.8 2.7 4.2 4.3 7.6 4.1 1.9-.1 3.9 0 5.7-.6 1.4-.5 2.9-1.6 3.7-2.8.8-1.3.9-3.1 1.1-4.7.9-9.4 2.7-18.5 5.7-27.5 2.3-7.1 4.5-14.2 6.2-21.5 3.1-13.3 6.2-26.5 8.3-39.9 1.4-9 2-18.1 4.4-26.9 4.6-17.4 9.4-34.8 13.7-52.3 3.5-14.3 8.5-28.2 12.7-42.4.8-2.6 1.2-5.3 1.9-7.9.8-3.3 1.4-6.7 2.5-9.9.5-1.6.7-2.8-.4-4.3-3-3.9-6-8-8.9-12-.4-.6-.8-1.6-.6-2.3 1.2-4.2 2.6-8.3 3.9-12.4 2.1-6.9 4.1-13.8 6.1-20.8.6-2.1.8-4.2 1.2-6.2 4.6-.5 9-.9 13.4-1.3 3-.3 6-.7 9-.7 5.3 0 10.5.4 15.8.3 3.8-.1 7.5.1 10.8 2 .9.5 1.7 1.9 1.7 2.9-.2 4.2-.8 8.3-1.3 12.5-.9 8.1-1.3 16.3-2.6 24.4-1.6 9.7-3.9 19.3-5.7 29.1-1.7 9.6-3.1 19.3-4.6 29-1.7 10.9-4 21.7-5.1 32.7-1.4 14-4.1 27.7-8.9 40.9-3.3 8.9-5.5 18-5.3 27.6.2 12.7-1.2 25.3-3.6 37.8-2.1 10.7-4.4 21.3-6 32.1-1.5 9.8-3.4 19.4-6.5 28.8-3.6 11-7.2 22-10.6 33.1-1.8 5.8-3 11.9-4.4 17.8 4.1.7 4.1.7 4.9-2.9 3.3-14.7 7.3-29.2 12.5-43.4 3.7-9.9 6.6-20 8-30.6 1.4-10.2 3.4-20.2 5.4-30.3 2.3-11.6 4.8-23.2 4.7-35.1-.2-14.3 2.2-27.9 7.1-41.4 2.7-7.3 4.2-15.1 5.7-22.8 1.2-6.4 1.4-13 2.4-19.5 1.4-9.2 3.1-18.4 4.6-27.6 1.2-7.7 1.7-15.5 3.4-23.1 4-17.3 7.4-34.7 8.6-52.4.3-4.9 1.3-9.8 2-15 4.2 2.6 5.2 6.5 6 10.6 2.4-.4 4.6-1 6.9-1.2 5-.4 10.1-.3 15.1-.8 7.2-.8 14.3-.3 21.2 2.2 8.5 3 14.4 9.4 14.1 19.2-.3 9.3-.5 18.5-1 27.7-.8 16.4-1.9 32.8-2.7 49.2-.3 6.1-.3 12.3-.5 18.4-.1 2.7-.5 5.1-3.5 6.4-1.5.6-2.6 2.1-3.9 3.2-1.5 1.2-2.3 2.6-.9 4.7-2 .2-3.7.6-5.4.6-12.3-.2-24.4 2-36.7 3.1-.7.1-1.5-.5-2.3-.8.7-.5 1.3-1.3 2.1-1.4 3.4-.5 6.8-.8 10.2-1.1 7.7-.8 15.4-1.6 23.2-2.4 1.6-.2 2.2-1.2 1.4-2.6-.6-1.1-1.5-2.1-2.2-3.1.9-1 3.6 0 2.7-2.6-.5-1.3-1.5-2.4-2.3-3.6 3.5-.6 3.9-1.7 1.8-4.4-1.3-1.7-2.9-2.4-5.1-2.2-8.8 1.1-17.6 2.1-26.4 3-.7.1-1.6-.4-2.3-.7.6-.4 1.3-1.1 2-1.2 10.5-1.3 21-2.5 31.5-3.7 2.2-.3 2.8-1.1 1.7-3.1-.5-.8-1.2-1.5-1.8-2.3 3.4-1.3 3.5-2.2 1.1-5-1.2-1.4-2.5-1.6-4.1-1.5-7 .8-14 1.6-21.1 2.3-2.3.3-4.7.4-7 .6-.1-.2-.2-.5-.3-.7.5-.4 1-1 1.6-1.1 1.4-.3 2.8-.4 4.2-.5 8.3-1 16.7-1.9 25-3 5-.7 4.9-.9 2.4-4.7.7-.9 1.7-1.8 1.7-2.6 0-1-1-2-1.4-2.8.8-.7 1.9-1.3 2-2 .1-2.4-3.2-4.8-5.7-4.5-5.7.7-11.4 1.5-17.1 2.2-3.3.4-6.5.7-9.8 1.1l-.3-.9c1-.5 1.9-1.2 3-1.4 2.5-.5 5.1-.7 7.6-1 6.7-.9 13.4-1.8 20.1-2.8 2.1-.3 2.5-1.3 1.4-3.2-.4-.7-1-1.3-1.2-1.5.9-1 2.1-1.8 2.1-2.6 0-2.4-2.8-4.6-5.2-4.3-7.1.9-14.2 1.8-21.3 2.6-1.1.1-2.4.6-3.2.1-2.1-1-2 .2-2.4 1.6-1.7 5.9-.6 12.2-3.1 18-.2.5 0 1.2-.1 1.9 0 1.4.1 2.8-.1 4.2-1.3 7.9-2.3 15.8-4 23.7-3.1 14.5-5.3 29-6.9 43.7-1.7 15.4-4.2 30.6-6.4 46-1.1 7.8-1.8 15.6-3.4 23.3-1.6 7.7-1.3 15.5-3.2 23.2s-1.8 15.9-2.6 23.9c-.3 3-.7 6-1.1 8.9 15.1-1.2 30.1-2.3 45-3.5.3-3.4.3-3.4-2.3-6.8 0-.1.1-.3.1-.4 4.4-4.6 8.7-9.3 13.3-13.8 1.2-1.2 3.1-2.2 4.8-2.4 3.3-.4 6.8-.1 10.7-.1 0 4.2-.1 8.4 0 12.5.3 6.9.8 13.8 1 20.7.3 11.8.2 23.7.6 35.5.4 12.5 1.2 25 1.9 37.5.1 2 .5 3.9.8 5.9 2.7-.1 4.3-.9 4.2-2.3-.5-9.1 1.5-18.1-.2-27.3-1-5.4-.5-11-.6-16.5 0-.6.3-1.5.7-1.9 2.1-2 4.1-4.4 6.6-5.8 5.6-3.3 11.3-6.5 17.3-9.1 6.4-2.8 13.2-4.6 19.7-7.2 9.7-3.9 19.3-8.1 29-12 8.2-3.3 16.4-6.2 24.7-9.2 1.1-.4 2.3-.6 4.3-1 .4 14.9-.7 29.3-1.8 43.7-1.1 14.4-3 28.8-4.6 43.3 1.3.4 2.4.2 2.5-1.9 0-1.2.4-2.5.5-3.7 1.1-6.8 2.3-13.6 3.2-20.4.8-6.6 1.3-13.2 1.7-19.8.8-12.6 1.3-25.2 2-37.8 0-.7.4-1.3.6-1.9.3-1.1 1-2.1 1-3.2.1-6.9 0-13.8 0-20.9-.1 0 .5-.1 1-.1 10.5-1.1 21.1-1.6 31.5-3.4 11.8-2.1 23.8-3.6 35-8.6 7-3.1 13.7-6.9 19.4-12 4.7-4.3 8.5-9.6 12.6-14.6.4-.5.6-1.1.8-1.7.4-1.1.5-2.3 1.1-3.3 2.5-4.2 5.3-8.3 7.5-12.6 1.8-3.5 2.6-7.5 4.2-11.1 2.8-6.4 4.7-13 5.2-19.9.3-4.5-.3-9.2-.6-13.7-.3-4.3-.6-8.7-1.3-13-1.9-12.2-3.9-24.4-5.9-36.6-1.1-6.9-2.4-13.8-5.4-20.2-.3-.7-1-1.2-1.5-1.8-.4-.4-1.2-.6-1.4-1-3.5-6.1-9.3-9.3-15.4-12-1.5-.6-3.5-.7-5-.2-3.5 1.2-7 2.6-10.1 4.4-3.2 2-4.6 5.5-5.1 9.1-1.8 12.9-3.4 25.9-5.1 38.8-1.3 9.5-2.5 19.1-3.8 28.6-.4 2.8-.5 5.6-1.2 8.2-2.7 10-5.5 20-8.4 30.2-3.3-.1-6.6-.1-7.8 3.9-3.3-2.9-5-2.6-7.1 1.2-1.7 2.9-2 6-1.3 9.7-15.1 1.7-30.1 3.4-45.1 5-.5-2.2-1-4.7-1.7-7.1-4.5-17.4-8.9-34.8-13.5-52.2-.4-1.7-.1-2.4 1.5-2.9 1.9-.7 3.7-1.6 5.6-2.3 8.5-3.1 17.1-5.7 25.4-9.2 13.4-5.6 26.5-11.8 39.8-17.7.8-.4 1.5-1.1 2.5-1.8-7.4-4.9-14.2-9.9-16-19.1 6.3 0 7.7-1.2 6.8-6 4.2-.4 8.3-1.1 12.5-1.2 5.3-.1 6.2-.8 6.1-5.9-.1-10.4 1.8-20.6 3.6-30.8.8-4.5 1.8-8.9 2.7-13.4 4.9 2.7 9.6 5.4 13.2 9.6 1 1.2 2.2 2.2 3.3 3.3 9.4 8.8 18.8 17.5 26.3 28.1.4.6 1 1.1 1.1 1.8 1.5 5.4 3 10.9 4.4 16.4 3.5 13.3 6.6 26.7 10.4 39.9 4.1 14.4 7 29 8.8 43.9 1.2 10 3 19.8 4.7 29.7.1.6.9 1.7 1.1 1.7 1.6-.6 1.6.8 2 1.6.8 1.5 1.5 3.1 2.2 4.6 7.2 15.9 14.4 31.9 19.9 48.5 6.6 19.9 10.2 40.4 13.9 60.9 2.1 11.5 4 23 6 34.5.2 1.1.4 2.3 1.7 1.7.7-.3 1.1-1.4 1.6-2.2-.3-.1-.4-.4-.5-.6zM359.7 135.8c-.2-.1-.4-.3-.6-.4.2.1.4.1.7.2 0 0-.1.1-.1.2zM138.9 479c-5.4-9-10.9-17.9-16.2-27-3.6-6.3-6.9-12.9-10.3-19.4-.3-.6-.3-1.4-.3-2.1 10.7 17.3 21.5 34.7 32.2 52-2.9.1-4.3-1.6-5.4-3.5zm60.5-236.1c1.2 1.9 2.9 3.5 4.1 5.4.4.7.4 1.9.3 2.7-.8 3.8-1.8 7.5-2.6 11.3-.4 1.8-.6 3.7-1.2 5.5-3.5 10.8-7.4 21.4-10.5 32.3-3.1 11-5.2 22.2-8 33.3-1.9 7.6-4.4 15.1-6.5 22.6-3.3 11.9-4.8 24-6.6 36.2-3 20.4-7.8 40.4-14.2 60.1-1.7 5.2-3.2 10.6-4.4 15.9-.7 3.1-.7 6.5-1.1 9.7-.1.5-.3 1-.5 1.9-4.9-8.2-9.5-16-14.2-23.8-2.9-4.7-6-9.3-8.9-14l-7.2-11.7c-.4-.7-.7-1.7-1.4-2.2-2-1.6-1.9-3.5-1.3-5.6.7-2.6 1.3-5.3 2.1-7.9 4.2-13 8.5-26 12.6-39 3-9.4 6.3-18.7 8.7-28.3 3.9-15.4 9.1-30.2 16.9-44 7.5-13.2 11.5-27.7 15.7-42.1 3.2-11.1 6.1-22.3 9.1-33.5.9-3.4 1.3-6.8 2-10.7.6.7.9 1 1.2 1.4 5.2 8.3 10.5 16.4 15.9 24.5zm275.5-11.2c.1.7-.1 1.6-.5 2.2-3.7 6.9-7.5 13.8-11.4 20.6-.4.7-1.3 1.3-2.1 1.5-3 .8-5.5 2.4-7.8 4.5-3.6 3.5-7.5 6.8-11.1 10.3-2.9 2.8-5.6 5.8-8.4 8.7-1.4 1.4-3 1.5-4.6.5-2.6-1.6-5.1-3.2-7.8-4.7-1.8-1-2.2-2-1.5-3.9 1.1-3.6 1.1-3.7 4.8-3.4 5.8.5 10.9-.6 15.4-4.9 3.6-3.4 6.8-7 9.6-11 1.5-2.1 3.3-3.9 5.1-5.7 5.5-5.3 9.4-11.8 13.5-18.1 2.2-3.3 2.4-7.9 3.5-11.8 1.1 4.9 2.3 10.1 3.3 15.2zm-15.8 64.7c-1.2-.4-2.3-.8-3.6-1.2 3.2-1.9 3.5-1.8 3.6 1.2zm-11.4-3.7c-.6-.2-1.3-.3-1.9-.5.1-.3.2-.5.3-.8.6.5 1.1.9 1.6 1.3zM328.5 382c-.1-3.7 1.4-6.2 3.7-8.6 1.9-1.9 3.9-3.5 5.8-5.4 1-1 1.8-.9 2.9-.3 4.6 2.2 9.3 1 11.8-3.5 1.9-3.6 4.9-6.1 7.5-8.9 2.4-2.5 5.3-4.5 8.2-6.6 6.5-4.9 13.1-9.7 19.7-14.5.7-.5 1.4-.9 2.6-1.5 1.4 5.6 2.7 11 4.1 16.4 3.1 11.9 6.4 23.7 9.2 35.7 1.5 6.2 2.3 12.6.9 18.6-13 1.9-25.9 3.4-38.6 5.6-12.8 2.2-25.4 5.1-38 7.7v-14.2c0-6.8.5-13.7.2-20.5zm13.7-18.5c.6-3 1.3-5.5 1.7-8.1.4-2.2 1.3-3.5 3.6-3.8.8-.1 1.6-.6 2.8-1 .1 1.5.5 3 .3 4.3-.4 3.1-.9 6.1-1.6 9.1-.4 1.7-1.3 2.5-3.2 1.3-1.2-.7-2.7-1.3-3.6-1.8zm43.6-70.4c4.7-1.9 9.1-3.7 13.9-5.6.2.9.6 1.8.6 2.7.4 4.4.6 8.8 1 13.3.2 2.4 1.1 2.9 3.4 2.3 1.7-.5 3.4-.6 4.9-.9 1.3 13.7-4.1 25.6-7.3 38.1-3.3-3.4-5.6-7.3-6.8-11.6-3.5-13-6.6-25.9-9.7-38.3zm18.6-27.7c-2-.8-2.6.6-2.7 2.3-.3 3.5-.7 7-1 10.5-.1.6-.2 1.2-.4 1.7-.2 0-.4 0-.6.1-2.3-4.3-4.7-8.5-6.9-12.5 4.9-2.5 9.7-5 14.5-7.5 2.9 2.1 6.1 4.4 9.7 7-.3.9-.9 2.4-1.2 3.5-4.1-1.9-7.7-3.6-11.4-5.1zm1.4 30.9v5.9h-.3v-5.9h.3zm1.7 42.8c1.4-4.8 3.2-9.4 4.2-14.3 1.2-6.1 2.2-12.4 2.5-18.7.2-4.6 2.9-6.9 5.9-9.4 1.4-1.2 3.1-2 5.1-3.1-.5 2.8.8 3.3 2.9 2.9s4.3-.6 6.4-1.1c.7-.2 1.1-1.1 2-2 1 .3 2.5.7 4.1 1.2-1.2 2.9-2.3 5.8-3.5 8.5-1.5 3.3-3.2 6.6-4.8 9.8-4.3 8.5-11.3 14.7-17.6 21.5-2.1 2.3-4.5 4.4-7.4 7 .1-1.1.1-1.7.2-2.3zm63.1-178.6v1.7c-.3-1-.4-1.3-.5-1.6.2 0 .3 0 .5-.1zm-6 2.3v.1c2.9.1 3.5 2.6 4.7 4.4-1.6-1.5-3.2-3-4.7-4.5-.1 0 0 0 0 0zm3.6 6.8c-.1.1-.2.1-.3.2l-.3-.8.6.6zm-7.9-10c-.2.3-.5.6-.7.8-.2-.4-.3-.9-.5-1.3.4.2.8.3 1.2.5zm-6.9-42.7c.7 1.1 1.3 2 2.3 3.5-1.7-.3-2.8-.5-4.2-.8.8-1 1.3-1.7 1.9-2.7zm-8.5 3.8c0 .1.1.2.1.3-.2 0-.5 0-.7.1.1-.1.3-.2.6-.4zm-1.2.6c-1.4.5-2.8.9-4.2 1.4-.1-.2-.1-.4-.2-.6 1.5-.3 2.9-.6 4.4-.8zm-16.2-5.2c0-.2-.1-.4-.1-.6 2.5-1.8 5.4-1.1 8.2-.8-2.7.5-5.4.9-8.1 1.4zm6.7 7.9c-.8.1-1.7.3-2.5.4l2.4-.9c0 .2 0 .3.1.5zm1.2-19.3c-1.5.2-2.6.5-2-1.2l2 1.2zm-2.1-1.2h-6.7c.9-1.7 4.7-1.7 6.7 0zm-7 21.1c-3.9 2.2-7.8 4.3-11.2 6.2.6-2.1 7-6.1 11.2-6.2zm-13.7 7.5c-.1-2.2 1-3.3 2.9-3.8-.9 1.3-1.9 2.5-2.9 3.8zm8.4-28v.2c-.9 0-1.7.1-2.6.1v-.3h2.6zm-2.8 15.3c.1.4.1.7.2 1.1-2.9.2-5.8.5-8.8.7 2.8-.6 5.7-1.2 8.6-1.8zm-6.9 4.3c-1.9.8-3.3 1.4-4.7 2.1.3-1.9 1-2.2 4.7-2.1zm-4.6 3.8c2.4-1 4.9-1.6 8.1-2.6-.3 3.7-3.9 4.2-4.3 7-1.4-.5-2.7-.9-3.8-1.4-1.8-.9-1.9-2.2 0-3zm-3.3 3.1c0 .2-.1.3-.1.5-.1-.2-.1-.3-.1-.5h.2zm-6.5-13.2c.1-.2.3-.4.4-.5l.5-.5c1.4-1.1 2.7-2.2 4.1-3.3-1.3 1.2-2.6 2.3-3.9 3.5-.2.1-.3.3-.5.4l-.5.4c-.1.1-.3.2-.4.3.1 0 .2-.1.3-.3zm5.6 2.6c-.2.2-.5.3-.7.5 0-.1-.1-.3-.1-.4.2-.1.5-.1.8-.1zm-8.2 11.5c.6.8 1.1 1.6 1.7 2.4l-.3.3c-.6-.8-1.2-1.5-1.7-2.3.1-.1.2-.2.3-.4zm-4-16.7l-2.1 4.5c-.6 1.5-1 3-1.6 4.7-1.4-3.2.5-7.6 3.7-9.2zm-17.9 24.7c.2.1.3.3.5.5-.2.1-.3.2-.4.2s-.2-.2-.3-.3c0-.1.1-.3.2-.4zm-2-18.5c-.6 2.7-1.1 5.5-1.7 8.2-.1-2.8-.8-5.8 1.7-8.2zm-1.2 70.7c-.6-3.7-1.6-7.4-2.7-11.1-.6-2.2-2-4.1-1.3-6.5-.1.1-.2.2-.4.3.1-.1.2-.3.2-.4-.4-.1-.9-.3-1.3-.4.3-.8.5-1.5.9-2.5-.6.3-1.1.5-1.5.7-.5-2 2.8-3.6.6-6.2-.8 1.4-1.4 2.5-2.1 3.7-.2-.1-.4-.2-.5-.3 1.2-2.1 2.4-4.3 3.7-6.4-.7.3-1.5.7-2.4 1.1 2.2-3.3 3.6-6.9 3.9-11 .1-1.3 1.7-2.4 2.6-3.6 1.2-1.8 2.4-3.7 3.6-5.6.5-.8 1-1.5 1.6-2.3.9.5 1.6.9 2.3 1.4 1.5 1 3 1 4.6 0 1.3-.8 2.8-1.3 4.2-2 .8-.4 1.3-1.1 2.1-1.7.2.1.8.2 1.4.4.1-.7.3-1.5.4-2.4 1.5 2 2.8 1.7 4-.4.1-.2.5-.5.8-.5 1.6 0 3.1.2 4.7.1.5 0 1-.6 1.5-.9-.9-1.4-1.6-2.5-2.3-3.6.6.5 1.3 1.1 1.9 1.6.4.3 1 1 1.3.9 2.8-1 5.2 1.1 7.9.9 1.2-.1 2.3-.6 3.5-.8 1.1-.3 2.5-.1 3.3-.7 6.2-4.2 13.2-6.3 20.3-8.1 1.4-.4 2.8-.7 4.7-1.1-.7.8-1.4 1.2-1.5 1.7-.2.9-.3 1.9 0 2.6.2.4 1.3.5 2 .6 1.8.2 3.6.2 5.5.7-.9.4-1.7.8-2.3 1.1.2.9.3 1.7.6 2.3.3.7.8 1.4 1.5 1.7 1.6.8 3.3 1.4 5 2.2 0 .2-.1.4-.1.5-1.5-.3-3-.5-4.5-.8-.1.3-.1.5-.2.8 1.1.5 2.3.9 3.4 1.4.1.2.1.4.2.6-.9.4-1.9.8-3.4 1.4 2.9 1.1 5.3 2 7.8 3 0 .1 0 .2-.1.3-2.1-.3-4.2-.7-6.3-1-.1.3-.1.6-.2.9 2 .6 4 1.1 6 1.7 0 .2-.1.5-.1.7-1.8-.1-3.6-.3-5.5-.4 0 .3-.1.6-.1.9 1.5.3 2.9.7 4.2 1-1.2 4.7 3.9 3.6 5.2 5.9-2.2-.8-4.3-1.5-6.5-2.3-.1.2-.3.4-.4.5 2.2 1.9 4.5 3.8 6.7 5.7-1.2.3-1.3.8-.3 1.6 1.3 1.1 2.6 2.2 4 3.5l-1 1c.5 2.6.9 4.9 1.5 8.4 1.9 2.3 4.5 5.7 7.6 9.6.1-7.4 4.1-12.5 7.6-17.9v.7c0 .2 0 .4-.1 1.2.9-.9 1.5-1.4 2.2-2.1.3.5.7.8.8 1.3.6 2.7 1.2 5.4 1.7 8.1.3 1.7.4 3.5.6 5.2.2 2 .1 4.2.7 6.1 1.2 3.5 0 6.6-.9 9.8-.5 1.9-.8 3.8-1.4 5.6-.3.9-.9 2.3-1.6 2.5-1 .2-2.3-.2-3.3-.8-3.5-1.9-3.3-5.8-4.3-9-.1-.4-.2-.7-.3-1.4-2.7 2.7-2.1 5.8-2 8.8v-.1c.2 1.2.5 2.4.5 3.7-.1 4.9-.3 9.7-.5 14.6-.3 5.7-3.3 10.3-6.2 14.9-4.5 7.3-10.7 13.1-16.3 19.5-2 2.5-3.9 5.1-5.9 7.6v.1c-3.8 5.5-13 8.1-19.1 4.8-4.1-2.2-7.7-5.2-11.7-7.4-3.5-1.9-7-3.7-9.7-6.7-.5-.6-.9-1.2-1.4-1.8-1.1-1.3-2.2-2.7-3.4-4-1-1.1-2.1-2.1-2.9-3.3-1.4-2-2.6-4.1-4-6-1.1-1.6-2.9-2.9-3.6-4.6-6-13.5-13.3-25.7-15.7-39.8zm-45 136.3c9.1-6.6 18.1-13.1 27.1-19.7.9-.7 1.8-1.5 2.6-2.4 2.9-2.9 6.1-3.4 9.6-1.4 1.6.9 3.1 1.7 4.7 2.6 2.6 1.3 4.1.9 6-1.6-.4-.3-.9-.6-1.3-.9-2.9-1.8-6-3.4-8.8-5.4-.9-.7-1.2-2.2-2-3.7 3.5-.7 5.5.9 7.5 2.2 2.5 1.6 3.8 1.4 5.9-1.2 0-.1-.1-.4-.1-.4-5-2.1-4-7.1-4.9-10.9-1.8-7.6-2.4-15.5-4-23.2-1.5-6.8-1.9-13.5-1.2-20.4.5-6.1 4.6-9.7 9.3-12.6 1.4-.8 3.4-.6 5.1-.8 6.6 11.7 14.1 22.7 26.3 30.6-3.8 1.8-7.3 3.6-11 5.2-2 .9-4.3 1.4-6.3 2.3-1.4.6-1.9 1.5-.7 3.1 1.2 1.5 2 3.3 3 5 2.2 3.8 4.5 7.5 6.8 11.5-3.4 1.5-6.7 3.8-11.2 3.5-4.3-.3-6.1 1.9-5.1 6 2.5 10.8 5.1 21.5 7.8 32.2.5 2.1-.1 3.1-1.7 4.3-5 3.5-9.8 7.1-14.8 10.6-5.7 4-11.5 7.9-17.3 11.8-.2-8.5-3.5-15.4-11.1-19.7-7-4-14.4-6.6-22.8-4 0-.3-.1-.5-.1-.8.9-.5 1.8-1.1 2.7-1.8zm-51 26.1l-2.9 2.9c-1-3.2.7-3.2 2.9-2.9zm5.7-1.2c2.3-1.1 5.2-.7 7.7-1.3 3.8-.8 7.6-1.8 11.4-2.9.8-.2 1.5-1.1 2.1-2.1-4.9 1.6-9.8 2.2-14.8 1.7 1.2-.7 2.3-1.7 3.6-2 3.4-.9 6.8-1.4 10.2-2.4 1.7-.5 3.2-1.5 4.7-2.2-.1-.3-.2-.6-.4-.9l-5.5 1.1c-.1-.2-.1-.5-.2-.7 1.3-.4 2.5-1 3.8-1.1 3.7-.4 7.5-.3 11.1-.9 2.1-.4 4.4-1.4 6.1-2.7 4.5-3.5 9-4.6 14.5-2.2 4.1 1.9 8.5 3.2 11.6 6.7 1.9 2.2 3.3 4.8 5.1 7.3-2 .7-3.4 1.3-5.1 1.9-.1-1.2-.1-2.3-.2-3.5-2.9-.3-4.3 1.1-4.5 3.8-.3 4.9-.3 9.9-2.9 14.2-1.4 2.3-3.6 4.2-5.4 6.3-3.5 3.8-6.9 7.5-10.5 11.2-1 1-2.4 1.6-3.7 2.1-3.7 1.4-7.5 2.7-11.2 4-.8-3.2.4-5.8 3.8-7.3 6.8-2.9 10.3-8.4 12.2-15.6-2.4-.1-3.8 1.2-5 2.8-.2-.1-.4-.1-.5-.2-4.5-4.7-9.3-2.9-14.3-.9-3.4 1.3-6.8 2.6-10.3 3.5-4 1.1-5.4 2.7-5.4 6.9v5.1l-.6.3c-.5-.6-1.3-1.2-1.6-1.9-1.6-3.8-2-7.7-1-11.6.3-1.4 2-2.7 3.3-3.7 4.2-3.1 8.6-6.1 12.9-9.1.6-.4 1.4-.6 1.7-1.4-2.9-1.1-5-.3-6.6 1.5-1.7 1.9-3.3 2.7-5.8 1.7-1.7-.7-3.6-.9-5.5-1-2.2-.2-3.9.9-5 2.8-.7 1.1-1.5 2.2-1.9 3.5-1.1 3.4-3.4 4.3-6.9 3.6 1.8-5.5 3-11.6 9-14.4zm25.9 17.2c-.2-.3-.6-.4-1.1-.7 2.6-1.6 4.6-1.6 6.7 0 1.6 1.2 3.4 2.1 5.2 3.1-1.2 5.5-6.6 6.6-10.9 9.3-1.8-4-5.1-4.5-9.1-3.7-1.3.3-2.8 0-4.2 0-.5-2.4 1.2-2.8 2.8-3 2.9-.4 5.9-.6 8.8-.9 2.9-.4 3.5-1.8 1.8-4.1zm-35.9 7.6c3.1-.1 6.3-.6 9.6-.9.4 1.8.1 2.8-1.6 2.9-3.4.3-6.7.7-10.1 1.1-.6-2.1-.3-3.1 2.1-3.1zm-5.4 45.4c5.3-.4 10.7-.9 16-1.4 7-.8 13.9-1.7 21.5-2.7-.8-2.1-1.5-3.9-2.1-5.8-.9-2.7-3.3-1.2-4.9-2 2.4-.3 4.8-.6 7.8-.9-1.4-2.2-2.5-4-3.7-5.9.5-.2 1.2-.4 2-.6-.3-3.1-1.5-4.1-4.5-3.9-5 .4-9.9.9-14.9 1.1-3.4.1-6.9-.2-10.4-.2-2.2 0-4.3.3-6.7.4.2-1.6.5-3 .7-4.7 4.4-.5 8.9-.9 13.3-1.4 1.6-.2 3.2-.3 4.9-.5 6.9-.6 13.9-1.1 20.8-2 1.6-.2 3.2-1.4 4.7-2.2 2.1-1 4-2.5 6.2-2.9 3.6-.7 6.7-1.7 8.9-4.8.1-.2.5-.2 1.3-.4-.5 12.1-1 23.9-1.5 35.9-3.5.3-6.9.9-10.4.9-7.2 0-14.2 1.4-20.7 4-3.7 1.5-7.1 1.8-10.8 2-6.6.4-13.3 1.4-19.9 2.1-.2 0-.5 0-.7-.1-.6-3.3-.2-3.7 3.1-4zm-5.4 20.9c2.2-.3 4.4-.4 7-.5-1.1 1.7-1.7 3.5-2.9 4.2-1.4.9-3.3.8-5 1.2-.2-1.1-.5-2.2-.4-3.3.1-.6.8-1.5 1.3-1.6zm-1.7 12.8c0 .1.1.2.1.3-.3.2-.5.3-.8.5-.1-.2-.1-.3-.2-.5l.9-.3zm4.2 8.5c0 .3.1.5.1.8l-6.3.6c0-.3-.1-.6-.1-.8 2.1-.3 4.2-.5 6.3-.6zm14.8 13.2c-7.1.6-14.2 1-21.3 1.5-.3 0-.6-.1-.9-.1-.1-.2-.2-.4-.2-.5.1-4.4.1-4.2 4.5-4.5 7-.4 13.9-1.1 20.9-1.7.8-.1 1.7-.1 2.8-.2-1 1.7-1.6 3.3-2.7 4.4-.7.8-2.1 1.1-3.1 1.1zm-1.8-13.5v-.7c5.4-.5 10.8-1 16.4-1.5-1.2 1.3-10.5 2.5-16.4 2.2zm44.9-5.7c-2 .5-4.3-.2-6.7-.3 0-.8.1-1.5.1-2.7-1.3.4-2.6.4-3.3 1-4.7 4.2-10 8-13.7 12.9-3.6 4.7-8.1 8-12.3 11.8-.5.5-1.4.7-2.1 1-.2-.1-.4-.3-.6-.4.3-1.1.4-2.4 1-3.4 2.9-5.2 6.5-9.9 10.7-14 1.9-1.9 4.1-3.6 6-5.4.6-.5 1-1.3 1.4-1.9-4.3-3.9-10.6-4.6-15.2-1.8-4.7 2.9-9.3 5.9-14.1 8.7-1.8 1-3.9 1.5-5.8 2.2-.2-.3-.3-.6-.5-.9.7-.6 1.5-1.1 2.2-1.8 2.1-2 4.2-3.9 6.1-6 2.1-2.3 4-4.7 5.8-7.2 2.4-3.2 6.4-2.6 9.5-4.1 2-1 4-1.9 6-2.9l-.3-.9c-.7 0-1.5-.2-2.1 0-3.9 1.3-7.8 2.6-11.7 4-1.3.5-2.7 1.2-3.5 2.2-2.6 3.2-6.1 5.1-9.5 7.2-2 1.3-4.1 2.6-6.9 1.4.9-1.1 1.7-2 2.3-3 1.5-2.4 2.7-5.1 4.4-7.3 2.6-3.5 5.5-6.9 8.4-10.3.6-.7 1.5-1.1 2.4-1.3 3.6-.8 7.2-1.3 10.7-2.1 2.1-.5 4.1-1.2 6.1-2.1.9-.4 1.5-1.3 2.3-2-.1-.2-.2-.4-.4-.6-4.1 1-8.1 2-12.2 3.1 3.6-4.6 7.7-7.8 13.6-9.2 5.3-1.2 10.6-.8 15.8-1.5 3.8-.5 7.8-.2 11.5.5 8 1.4 16 3.3 23.9 5 .9.2 1.8.6 2.6.9 2.2.8 2.9 2 2.8 4.6-.2 4.8.3 9.6.6 14.4 0 .8.1 1.5.1 2.1-2.8 0-5.5-.5-8 .1-4.2 1.1-8.4 2.5-12.1 4.6-4.5 3-9.9 4.1-15.3 5.4zm8.7 60.6v-23h46.9c0 .2.1.4.1.6-15.6 7.5-31.3 14.9-47 22.4zm101.4-45.1c-1.8 1.1-3.7 2.4-5.6 3.2-9.5 4-19.1 7.9-28.6 11.7-4.5 1.8-9.1 3.5-13.7 5.2-.5.2-1.2.3-1.6.1-3.6-1.9-7.5-1-11.2-1.1-13-.3-26-.4-39-.7-.5 0-1.1-.1-2.4-.2 0-4.6.1-9 0-13.4-.2-5.9-.7-11.8-1.1-17.7-.1-1.3.4-1.9 1.7-2.5 4.4-1.9 8.6-4.4 13.1-6.1 2.4-.9 5.3-.8 8-.9 2.1-.1 4.3.2 6.8.4 1.1 4.8 2.4 10.1 3.8 16.1 1.6-1.4 2.9-2.5 4.2-3.6.4-.3.9-.5 1.4-.6 11.4-4.1 23.4-5 35.3-5.5 9.5-.4 19-.1 29-.1.1 4.6.3 9.5.4 14.4.1.5-.2 1.1-.5 1.3zm-2.7-59.2c2.7.2 5-.6 7.5-1.7 2.2-1 5-.7 7.5-1 8.9-1 18-1 26.7-3.8 1.1-.3 2.1-1 2.9-1.7.3-.3.4-1.4.1-1.8-2.2-2.6-1.1-5 0-8 1.7 2.1 3 3.9 4.5 5.5.6.7 2.1 1.5 2.2 1.4.8-.9 1.9-2 1.9-3.1.1-1.6-.5-3.3-1-5.8 2.7.6 5.1.8 7.3 1.6 1.6.6 2.5.2 3.3-1 .9-1.6-.6-2-1.4-2.3-1.8-.6-1.6-1.8-1.2-3.1 2.1-7.3 4.7-14.5 6.3-21.9 2.3-10.5 4.1-21.2 5.6-31.9 2-13.9 3.4-27.9 5.1-41.9.4-3.5.9-6.9 1.6-10.4.4-1.8.4-4.1 3.5-4.1 1.1 0 2.4-1.4 3.4-2.3 3.2-2.7 6.6-2.5 10.2-.7 8.9 4.2 13.9 11.2 15.8 20.7.2 1.1.3 2.8 2.6 1.8.9 5.2 1.8 10.3 2.6 15.4 1.7 10 3.4 20.1 4.9 30.2.8 5.6 1.4 11.3 1.5 16.9.1 4.1-.8 8.1-1.1 12.2-.7 11.5-6.1 21.2-11.1 31.1-1.8 3.5-3.3 7.2-5.4 10.6-4.7 7.7-10 15-18.2 19.5-2.7 1.5-5 3.9-7.8 5.1-4.7 2.1-9.6 4.6-14.6 5.1-10.5 1.1-20.1 5.9-30.5 7.1-8.7.9-17.4 2.1-26.2 2.5-12.9.6-25.9.2-38.8.8-10.8.5-21.5 2-31.8 5.7-.5.2-1 .2-2 .4-.9-4.8-1.9-9.4-2.5-14-.7-5.1-1-10.3-1.4-15.5-.1-1.8-.5-4.1.4-5.5.7-1.1 3.1-1 4.8-1.6 9.3-3.2 18.9-4.4 28.7-5.1 7-.5 14-.8 20.9-1.4 2.1-.2 4.3-1 6.1-2.1 2.5-1.5 4.7-2.1 7.1-1.9zm-8.3-5.9c.2.7.3 1.4.5 2 .6 2.7-.4 4.2-3.2 4.2-3.7.1-7.5-.2-11.2 0-8.9.5-17.8.5-26.6 2.8-4.3 1.1-8.8 1.5-13.3 2.3-3.3.6-6.6 1-9.1 3.6-.3.3-1.3.1-1.9-.1-6.1-1.5-12.1-3.2-18.2-4.7-1.3-.3-2.8-.2-4.4-.3 11.2-4.6 67.3-13.8 74.6-12.3-.2 1.3-.4 2.7-.6 4 2 .8 3.2.3 3.4-1.7.3-2.7.2-5.4.6-8 1.3-8.4-.2-16.6-2.3-24.7-2.5-10-5.4-19.9-8.1-29.9-.2-.8-.5-1.6-.8-2.4 1-1.3 1.6-.8 2.8.1 3 2.3 2.6 5.8 3.4 8.8 4.8 18.9 9.6 37.6 14.4 56.3zm55.2-90.8c.6.4 1.2.8 2.3 1.5-11.4 5.8-22.6 11-34.1 15.5-11.6 4.5-23.3 8.5-35.2 12.8-.9-1.7 0-2.9 1.4-4.2 6.2-6.1 12.3-12.3 18.4-18.5 4.2-4.2 8.3-8.4 10.7-14 1.9-4.3 4.1-8.6 6.1-12.8.5-1 .9-2.1 1.5-3.4 3.5 1.1 6.9 2.1 10.3 3.2 1 .3 2.1 1.1 3.1 1 2.7-.1 3.4 1.6 3.9 3.8 1.8 6.7 6.4 11.1 11.6 15.1zm-8.2-59c0-.8-.2-1.7.2-2.3 1.7-2.7 3.5-5.4 5.3-8.1-1.5 3.6-3 7.1-4.4 10.7-.3-.1-.7-.2-1.1-.3zm27.6-19.1c-.7 5.5-1.4 11.1-2.3 16.6-1.8 10.6-3.7 21.1-3.8 32.3-4.5.6-8.9 1.2-13.3 1.7-2.1.2-1.5-2.1-2.5-3-.3-.3-.3-1.1-.3-1.6.8-6.9-1.4-13.4-2.7-20-.4-1.8.1-4.3 1.2-5.9 4.9-7.6 7.9-16 11.1-24.3.6-1.7 1.3-3.3 2.1-5.3 3.3 2.5 6.5 4.8 9.5 7.2.6.3 1.1 1.5 1 2.3zM112 430.5l-.1.1.1-.1zm358.8-182.2h-.1.1z"/><path class="st0" d="M426.5 124.5c0-.1.1-.2.1-.3 0 0 .1.1 0 .1.1.1 0 .1-.1.2zm-29 6.9h-.1c0-.1.1-.1.1 0 0-.1 0 0 0 0zm-1.1-13.4v.3c-.1 0-.2-.1-.3-.1.1-.1.2-.1.3-.2zm-2.8-5.2s0-.1 0 0c-.1-.1 0-.1 0 0 0-.1 0-.1 0 0zm-18.1 3.8l.1-.1s-.1 0-.1.1c-.1 0 0-.1 0 0zm.5-2.4c0-.1 0 0 0 0zm-4.7 4.2c0 .1-.1.2-.1.2v-.1l.1-.1zM358 163.1zm6.5 11.5l.1-.1c0 .1-.1.1-.1.1zm54.3 118.6s.1 0 0 0c.1 0 0 0 0 0l-.1.1.1-.1zm49.7-130.9c-.1 0-.3 0-.4-.1.1 0 .2 0 .4.1zm-105.7-2.2v-.1.1h-.1c0-.1.1 0 .1 0zm19.1-48.7c.1 0 .1 0 0 0 .1.1 0 0 0 0-.1 0-.1 0-.1.1l.1-.1zm95 111.2c0 .1 0 0 0 0s-.1-.1-.1-.2h.2c-.1.1-.1.1-.1.2zm-41.1-99.2l-.1-.1v.1zm9.5 158.9c-.1.1-.1.2-.1.4l.1.1c0-.1.1-.2.1-.4l-.1-.1zm17.3-151.4l.1-.1-.1-.1zm-4.2 21.3l-.1.1h.1zM285.1 524.8c2.2-.4 4.5-.8 6.7-1.1 2.6-.4 2.9.1 3.3 2.8.7 4-2.4 6.1-6 5.8-2.5-.2-5 .4-7.5.6-8.7.7-17.5 1.3-26.2 2-3.1.2-6.2.5-9.2.9-.6.1-1.4.8-1.5 1.3-.4 1.6-.5 3.2-.7 5.1h2.9c7.4-.5 14.9-.9 22.3-1.4 5.3-.3 10.5-.6 15.8-.9 4.1-.2 7.5 3.2 7.2 7.2-.1.7-.8 1.9-1.4 2-5.6.5-11.2.8-16.9 1.1-9.4.6-18.9 1.4-28.3 1.9-2.1.1-2.2 1.3-2.4 2.9-.3 3.3-1.4 6.3-4.7 7.9-.7.3-1.6.4-2.7.6.1-1.3 0-2.2.2-3.1 1.2-5.1 2.5-10.2 3.5-15.3.9-4.9 1.6-9.8 2.2-14.8.2-1.8.8-2.4 2.7-2.5 13-.9 26.1-2.1 39.1-3.1.5 0 1.1.1 1.6.1 0 .1.1.2.1.2l-.1-.2zm9-13.2c-16.5.9-32.8 1.8-49.4 2.7.7-5 1.3-9.7 2-14.4.3-2.4.7-4.8 1.2-7.1.1-.5.9-1.2 1.4-1.3 7-.7 13.9-1.3 20.9-1.9 6.5-.6 13-1 19.5-1.6 1.7-.1 2.6.1 2.8 2.2.2 1.7 1.3 3.4 2.2 5.4-1.8.2-3.4.4-4.9.5-10.8 1-21.6 2-32.5 3-1.8.2-3.7.4-5.6.4-1.7 0-2.2.7-2.1 2.3 0 1.1-.2 2.1-.4 3.5 3-.2 5.8-.5 8.6-.6 7.4-.3 14.7-.6 22.1-.8 3.6-.1 7.3-.1 10.9.1.8.1 1.9 1.2 2.3 2.1.6 1.6.6 3.3 1 5.5zm269.7-39c-7.4 3.1-15 5.5-22.9 6.9-12.7 2.3-25.4 3.3-38.3 3.4h-18.9c0 5.4-.2 10.6 0 15.8.5 10.4 1 20.8 2.2 31.2.9 8.3 2.4 16.6 4.2 24.8.8 3.5 2.8 6.8 4.6 10.1.8 1.5.8 2.4-.5 3.4-1.5 1.1-2-.3-2.7-1.2-4-5.8-5.5-12.5-6.6-19.2-3.3-20-4.4-40.2-4.4-60.4v-7.1c14.3-.4 28.7-.4 43-1.3s28.5-3.4 41.8-9.5c.1.2.3.4.4.7-.3.5-.6 1.1-.9 1.6l-.2.2c0 .1-.1.2-.2.2l-.2.2c-.2 0-.3.1-.4.2zm-270.3 41.9c.3 1.8.6 4.1 1.1 7.1-17.4 1.5-34.5 3.1-52.1 4.6.8-3.5 1.3-6.2 2.1-8.8.2-.5 1.3-1 2.1-1.1 2.2-.3 4.3-.3 6.5-.4 8.4-.4 16.7-1 25.1-1.3 4.9-.3 9.8-.1 15.2-.1z"/><path class="st0" d="M564.8 471.7c1.9-.3 2.6.7 2.8 2.5 1.1 15.1.6 30.2-.7 45.2-1 10.8-1.4 21.6-2.1 32.4-.2 3.5-.4 7-1 10.5-.2 1.1-1.3 2.1-1.9 3.2-.3-.1-.6-.2-.9-.4v-2.4c1.2-17.5 2.8-35.1 3.6-52.6.5-10.8.1-21.6 0-32.4 0-1.7-.4-3.3-.7-5h-.1l.4-.4.2-.2v-.2h.2c0-.1.1-.2.2-.2zm-91.7-109.1c-.1 2.5-1.2 3.1-3.3 2.9-6.7-.3-13.3-1.3-19.7-3.2-1-.3-2.1-.5-3.2-.7-.6 3.5-1.3 6.9-1.9 10.3 8.1.7 16 4.3 24.5 1.7.3 1.8 0 2.5-1.6 2.9-6.3 1.2-12.5 1.3-18.7-.3-2.2-.6-4.6-.8-6.9-.8-1.5 0-2.1-.3-1.9-2 .5-4 .9-8 1.3-11.9 0-.4.3-.9.7-1.1 2.1-1.3 4.2-2.5 6.9-1.9 5.8 1.4 11.7 2.5 17.5 3.7 1.9.2 4 .2 6.3.4zm-56.8-6.6c.2 2.1.6 4 .5 6 0 .8-1 1.7-1.8 2.1-.3.2-1.5-.6-1.8-1.2-2.3-4.2-1.7-5.3 3.1-6.9zm8.7 35.7c.5 1 1 1.9 1.2 2.8.2.8.1 1.9-.3 2.6-.3.6-1.2 1.2-1.8 1.2-.4 0-1-1-1.3-1.6-1-2.8-.5-4 2.2-5zm-52.3 113.8v.1h-.2v-.2c.1.1.2.1.2.1zm-11.8-371.6l.1.1-.1-.1zm57.9 159.3h.1-.1zm29-.4h.1v-.1zm-29 .4s0 .1-.1.1l.1-.1zm-133.6 55.1zm-173.1 82.2l-.2.1c0-.1.1-.1.2-.1-.1-.1 0 0 0 0zm173 94.3l.1.2s-.1-.1-.1-.2c0 .1 0 0 0 0z"/><path class="st0" d="M564.6 471.8h-.2v.2c.1 0 .2 0 .2-.2zm-.4.5l-.4.4c.1-.2.2-.3.4-.4zm-190.4-276l-2.1 1.5c-1.2-2.7-.9-4.8.9-6v-.1c1.1-.1 2.4.3 3.1-.3 1.4-1.1 2.7-1.6 4.6-1.2.8.2 1.7-.5 2.6-.7 1.2-.2 2.4-.4 3.6-.4 2.4-.1 4.8-.1 7.2-.1 2.3 0 4.4.2 6.7 1.4 5.4 2.8 5.3 7.4 5.5 12.3.1 2.5.3 4.9.4 7.4 0 1.8-.1 3.7-.2 5.6-.1 2.1-.4 4.2-.3 6.3.4 5.3 5.9 9 10.8 7.2 1.3-.5 2.3-1.8 3.5-2.5 1.8-1.1 3.8-2.1 6.5-3.6 1-2 .1-6-5.5-8.4.9-.1 1.8-.6 2.6-.3 4.7 1.4 6.5 8.7 2.3 11.2-3.2 1.9-7 2.9-9.7 5.7-.3.3-.9.2-1.4.1-3.4-.4-6.7-.6-10.1-1.2-2.3-.4-3.1-1.8-2.7-4.4.5-3.5 1.3-7 1.8-10.5.2-1.4 0-2.9 0-4.4-.1-2.3-.2-4.6-.4-6.9-.1-1.8.1-3.8-.5-5.5-1.6-4.4-4.9-5.8-9.7-5.2-5.5.6-11 .7-16.4 1.3-.9.3-2 1.1-3.1 1.7h-.2.2zm31.2 32.4c.3-.1.5-.3.8-.4-.5-.9-1.1-1.9-1.6-2.8l-.6.3c.5.9.9 1.9 1.4 2.9zm-3.6 14.3c1.1-3.7 2.2-4 5.2-2.5 1.4.7 3.2.5 4.9.7.3 0 .7-.4 1.1-.4 5.1.5 9.5-2.3 14.3-3.3 2.8-.6 5.5-2.4 7.9-4.2 2.1-1.5 3.7-1.5 6.4.3-1.4.5-2.3 1.2-3.1 1.1-1.7-.3-2.7.4-3.6 1.8-1.7 2.4-3.5 4.9-5.6 7-1.1 1.1-2.9 1.4-4.4 1.9-1.7.6-3.5 1.3-5.3 1.6-1.3.2-2.8.3-4.1-.1-2.8-.9-5.5-2.1-8.2-3.3-1.8-.9-3.4-2.6-5.5-.6zm20.2-1.2c0 .2.1.3.1.5 1.1-.3 2.1-.6 3.2-1 0-.1-.1-.3-.1-.4-1 .3-2.1.6-3.2.9zm-3.3 1.3c0-.2-.1-.3-.1-.5-.8.1-1.6.1-2.4.2v.3h2.5zm7.1-63.9c1.6-.7 3.1-1.6 4.7-1.9 2.3-.5 4.8-.8 7.2-1 1.9-.1 3.9-.1 5.8.1.5 0 1 .6 1.5 1h-.1.2c1.7-.2 3.4-.3 5.2-.5v.5c-.3.2-.7.3-1 .5l.1-.1c-1.2.5-2.5 1-3.9 1.7-.1-.1-.6-.6-1-.5-3.7.8-7.4 1.5-10.9 2.6-2 .6-3.8 1.8-5.8 2.6s-4.2 1.2-6.2 2.1c-3.3 1.3-6.5 2.8-10.3 4.5l-2.2-2.2c.2-.2.3-.4.5-.6.6.3 1.1.5 1.9.9-.7-3.3 1.8-4 3.7-5.2.2-.1.7.4.8.5 2.5-1.3 4.8-2.6 7.2-3.9 0 .2.1.3.1.5l-.1.1.1-.1.5-.5c.6-.3 1.2-.6 1.9-1-.2-.1 0-.1.1-.1zm8.9 14c-2.4-.6-4-1.8-4-5.1-2.8 2.3-5.2 4.3-7.6 6.3-.1-.1-.2-.2-.4-.2.9-1.3 1.7-2.7 2.8-3.8 3-2.8 6.2-5.2 10.4-5.9 1.5-.2 3.1-.2 4.6.2 2.6.7 5.1 1.7 8 2.7-.7.5-1.3.9-1.9 1.3 1 1.2 1 2-.9 1.7.1.6.2 1.1.3 1.6-.6 0-1.2-.1-2.1-.1.4-.9.6-1.5.9-2.2-.9-.5-1.9-1.1-2.4-1.4-.6 1.1-1.2 2-1.7 3.1-.3.5-.4 1.1-.5 1.3-1.3.4-2.3.8-3.5 1l-10.2 1.8c-.1-.4-.1-.8-.2-1.2 2.8-.4 5.6-.8 8.4-1.1zm3.4-1.8c2-.4 1.9-2 1.9-3.7-.6.2-1.2.5-1.4 1-.3.8-.4 1.7-.5 2.7-.2 0-.2.2-.3.3l.3-.3zm-1.2-3.1v-.4c-.2-.1-.5-.3-.6-.2-.2.2-.4.5-.5.8.4-.1.7-.2 1.1-.2z"/><path class="st0" d="M385.5 205.2c-.5-1.5-.5-1.5-2.6.5.1-.7.2-1.2.3-1.9-.4.2-.7.3-1 .5s-.6.4-1.4 1c.3-1 .5-1.4.8-2.6-1.8.2-3.3.4-5.1.6 2.9-3.5 5.6-6.3 10.2-7.1 4.2-.7 8.1-.9 11.9 1.1.7.4 1.1 1.5 1.7 2.2-.9.2-1.9.4-2.8.7l-.3-.9c-1.6 4.7-5.6 4.4-9.2 4.9-.8.3-1.6.7-2.5 1zm3.2-1.6c-1.5-1.4-2.3-2.4-1.7-4.7-2.6.4-3.8 1-5.6 2.2.1.3.1.6.2.9 2.4.6 4.8 1.1 7.1 1.6zm5.6-4.4c0-.2.1-.3.1-.5-.2-.1-.4-.4-.5-.4-.3.2-.5.4-.7.6.4.2.8.3 1.1.3zm50.9 31.5c-1.5-1.4-2.9-2.9-4.4-4.3-1-1-2.2-1.8-3.7-3.1 4 .1 6.4 2.1 8.3 4.4.5.6-.1 2-.2 3zm-46.7 1.9l-2.1 9c-1.7-2.8-1-6.2 2.1-9zm51.2-55.3h2c.1.3.1.6.2.8-1.5.4-3 .9-4.5 1.3-.1-.1-.1-.2-.2-.4.5-.5 1.1-.9 1.6-1.4l-.1.1c.4-.1.7-.2 1-.4.1 0 0 0 0 0zm-60.4 31.2c.5.4 1 .8 1.5 1.1-.1.2-.3.4-.4.6-.5-.4-1-.7-1.5-1.1.1-.2.3-.4.4-.6zm4 .6c-.5-.2-1-.3-1.5-.5 0-.2.1-.4.1-.6l1.5.3c0 .4 0 .6-.1.8zm-15.1-2.8c-.3 0-.5-.1-.8-.1.3-.4.6-.8.8-1.1.1.1.2.1.4.2-.2.4-.3.7-.4 1-.1.1 0 0 0 0zm-.1.1c.4-.1.9-.3 1.3-.4-.1.2-.1.5-.2.7-.3-.2-.7-.3-1.1-.3.1-.1 0 0 0 0zm-5.5-14.6c.3-.2.5-.4.8-.6.1.1.1.2.2.4-.4 0-.7.1-1 .2zm77.2-14.9c0-.1 0-.1.1-.2-.1 0-.2.1-.1.2-.1-.1 0 0 0 0zm-24.8 2.3c.1-.1.1-.2.2-.3.1.1.2.2.2.4-.1-.1-.3-.1-.4-.1zm-2.4.9h.5-.5zm-8.2 61c-.1 0-.1.1-.2.1 0-.1-.1-.2-.1-.2h.2c.1-.1.1 0 .1.1zm30.2-63.8h-.2.2zm23.9 7.6c1.1-2 2.4-4.2 3.5-6.3 3 .6 3.9 1.5 4 4.3.1 3 0 6.1-.1 9.1 0 .6-.8 1.2-1.3 1.8-.4-.5-.8-.9-1.1-1.4-.4-.6-.7-1.3-1-1.9-.6-1.2-1.2-2.4-2-3.5-.5-.9-1.2-1.4-2-2.1zm-.3 2.5c-.1 0-.3 0-.4-.1 0-.1.1-.2.1-.2h.3c.1.2 0 .2 0 .3zm-.5-4.4v-.2l.1.2zm-1 2.7l.1-.1v.2zm0 8.5h.2s0 .1.1.2h-.3v-.2zm1.7 5.5l-.1.1.1-.1c.1 0 0 0 0 0zm-1.1 7.4c-.1 0-.1 0-.2.1v-.3h.2v.2zm-1.3-27.2l-.1.1-.1-.1.1-.1s0 .1.1.1zm.3 25.8v-.2h.1zm.2-11.6c.1 0 .1.1.2.1-.1 0-.2.1-.3.1 0-.1-.1-.1-.1-.2.1.1.2.1.2 0zm.4-4.3l.1.1-.1.1-.1-.1.1-.1zm-.5 10.9c0-.1 0-.1.1-.2h.2c0 .1-.1.2-.1.3-.1 0-.1 0-.2-.1zm1.9-7.7h.2v.1zm2.3-1.5h-.1v-.1zm-4.5 1.6l-.1-.1h.1zm-2-1.3l.1.2-.1-.1zm6.6 6.6v.2h-.1zm-5.3-2.4c.1 0 .1.1.2.1-.1 0-.2.1-.3.1 0-.1-.1-.1-.1-.2 0 .1.1.1.2 0zm4.1 4.3l.1.2h-.2zm.1-4.6h.1v.1zm.1 2c-.1-.1-.1-.2-.2-.3.1 0 .1 0 .2-.1 0 .1.1.2.1.3 0 0-.1 0-.1.1zm-1.8-.4l.1.1-.1.1-.1-.1s0-.1.1-.1zm1.1-.7c0 .1-.1.2-.1.2-.1 0-.2-.1-.3-.1.1-.1.2-.1.3-.2 0-.1.1 0 .1.1zm-52.7 53.2c.4 0 .5.1.7.1l-.3.3-.4-.4zm10.5.6c.3-.2.5-.4.8-.6.1.1.1.2.2.3-.3.2-.5.4-.8.6-.1-.1-.1-.2-.2-.3zm13.2-22.2c.4.4.6.6.7.9-.2 0-.5 0-.7-.1v-.8zm-22.6 6.9c-.2 0-.4.1-.6.1v-.2c.2 0 .4-.1.6-.1v.2zm3.6 24c.2-.5.3-.7.3-1 .1.2.2.3.2.5.1.1-.1.2-.5.5zm-4.3-26.7c.1-.1.1-.3.2-.3s.3.1.4.1c-.1.1-.1.3-.2.3-.1.1-.3 0-.4-.1zm-1 3.3c-.1 0-.2 0-.4.1v-.4h.2c.1 0 .2.1.2.3zm-12.7-3.5c-.1 0-.1.1-.2.1 0-.1-.1-.2-.1-.3 0 0 .1-.1.2-.1 0 .1 0 .2.1.3zm9.5 23.7c-.1 0-.2-.1-.2-.1 0-.1.1-.2.1-.3.1.1.1.2.2.3.1 0 0 .1-.1.1zm5.7-18.5h-.4v-.3h.2c.1.1.1.2.2.3zm-12.5 13.2c-.1 0-.3.1-.4.1s-.2-.2-.2-.3c.1 0 .3-.1.4-.1s.1.2.2.3zm18.3-20.1c-.1-.1-.3-.1-.4-.2 0-.1.1-.3.1-.4.1.1.3.1.4.3 0 0-.1.2-.1.3zM399.8 242c.1 0 .1.1.2.1l-.1.1c-.1 0-.2-.1-.2-.1 0-.1 0-.1.1-.1zm41.7 2.7c0 .1-.1.1-.1.2 0-.1-.1-.2-.1-.3.1 0 .1-.1.2-.1v.2zm15.1-9.3c-.1.1-.2.1-.3.2-.1-.1-.1-.2-.2-.3 0 0 .1-.1.2-.1.1.1.2.1.3.2zm-37.8 24.3c.1 0 .2-.1.3-.1 0 .1 0 .1.1.2-.1 0-.2.1-.3.1-.1-.1-.1-.2-.1-.2zm8.4-11.2c.1.2.2.3.3.5-.1 0-.1.1-.2.1 0-.2-.1-.4-.1-.6zm-8.2-15.1c0 .1 0 .1-.1.2-.1-.1-.2-.1-.3-.2 0 0 0-.1.1-.2.1.1.2.2.3.2zm43.3-4.8c-.2.3-.3.6-.5.9-.1-.2-.3-.3-.4-.5.3-.2.5-.4.8-.6-.1.1.1.2.1.2zm-50 21.8c-.1.1-.2.2-.3.2-.1-.1-.2-.3-.3-.4.1-.1.3-.2.4-.2.1.1.2.3.2.4zm-1.3 5.4c-.1 0-.2 0-.3.1v-.2c.1 0 .2 0 .4-.1-.1.1-.1.2-.1.2zm53.9-44.3l-.1-.1c.1 0 .1-.1.2-.1v.2c.1-.1 0 0-.1 0zm-31.3 18.4c-.1 0-.1.1-.2.1s-.1-.1-.1-.1c.1-.1.2-.1.3 0zm-29.1 2.5l.1-.2.1.2zm6.8 1.2h-.1s0-.1-.1-.2h.2v.2zm20.6-.3c-.1 0-.1 0-.2-.1l.2-.2.1.1c0 .1-.1.1-.1.2zm18.5.1v-.2l.1.1zm-20.5.2c-.1 0-.1.1-.2.1 0-.1-.1-.2-.1-.2h.2c.1 0 .1.1.1.1zm-28.3.4v.1s-.1 0-.2.1v-.3c.1.1.1.1.2.1zm2.6.3c0 .1.1.1.1.2-.1 0-.2 0-.3.1v-.2c.1-.1.2-.1.2-.1zm1.5 1.1c0 .1 0 .1-.1.2l-.2-.2c.1 0 .1-.1.2-.1s.1 0 .1.1zm17.2-.2v.2l-.1-.1zm2.6-.3c.1 0 .1 0 .2.1l-.2.2-.1-.1c0-.2.1-.2.1-.2zm-25.2 1v.1l-.2-.1zm12 .5c.1 0 .1-.1.2-.1 0 .1 0 .2.1.3h-.2c-.1-.1-.1-.1-.1-.2zm25.5 19c0-.1-.1-.1-.1-.2.1 0 .2-.1.2-.1v.2c0 .1 0 .1-.1.1zm-22.9-18.3c.1 0 .2.1.2.1 0 .1-.1.2-.1.3-.1-.1-.1-.2-.2-.3l.1-.1zm-6 .3l.1-.1v.1zM402 239c0 .1 0 .1-.1.2l-.2-.2.1-.1c.1 0 .1 0 .2.1zm-3.7.7l.2-.1v.1zm9.8 0l.2-.1v.2zm43.2 1.1h.1v.2h-.2c.1-.1.1-.1.1-.2zm-6.1-10.1c-.1 0-.3.1-.4.1.1 0 .3 0 .4-.1zM402 243.6c.2-.1.3-.1.5-.2v.2c-.2 0-.4-.1-.5 0zm-.1-.1c0 .2-.1.4-.1.5-.1 0-.1 0-.2-.1.2 0 .3-.2.3-.4.1.1 0 0 0 0zm-4.3 1.3c.1 0 .1-.1.2-.1s.2.1.4.2c-.1 0-.2.1-.4.1l-.2-.2zm5.1 0v.1l-.2-.1z"/><path class="st0" d="M427.2 248.5c0-.1.1-.1.1-.2 0 0 0-.1-.1-.1v.3zm-6.6.5h-.2s0-.1-.1-.2h.2c.1.1.1.2.1.2zm11 1c-.1.1-.3.1-.4.2 0 0-.1-.1-.1-.2.1-.1.2-.1.4-.1 0-.1 0 0 .1.1zm14.2 2.3l.1-.1-.1-.1s.1.1 0 .2c.1 0 0 0 0 0zm-38-.4c.1 0 .1 0 .1.1s0 .1-.1.2c-.1 0-.1 0-.1-.1.1-.1.1-.2.1-.2zm2.5.4c.1-.1.1-.2.1-.2.1 0 .2.1.3.2 0 .1-.1.2-.1.2-.1-.1-.2-.1-.3-.2zm18.5 6.5c-.1.1-.1.2-.2.2s-.2-.1-.3-.2c0-.1.1-.2.1-.2.2.1.3.2.4.2zm2.1 1.1c-.1 0-.1 0-.2-.1l.2-.2c0 .1.1.1.1.2.1 0 0 0-.1.1zm-2.5 4.3l.1-.1v.1zm7.6-33.8c-.1 0-.1 0-.2.1v-.3h.2c0 .1-.1.2 0 .2zm-5.1-.1c0 .1 0 .1-.1.2-.1-.1-.2-.1-.2-.2l.1-.1c.1 0 .2.1.2.1zm12-.4s.1 0 .1.1c-.1 0-.1.1-.2.1.1-.1.1-.1.1-.2zm-11.5-1.5c.1 0 .1 0 .2.1v.2c-.1 0-.2-.1-.3-.1-.1-.2 0-.2.1-.2zm-4.3.1v.2h-.1zm9.8-.4v.2l-.1-.2zm-4.4-.6c0 .1 0 .2-.1.2s-.1 0-.2-.1c0-.1 0-.1.1-.2 0 .1.1.1.2.1zm.7-1.9c-.1.1-.2.2-.3.2-.1 0-.2-.1-.3-.2.1 0 .1-.1.2-.1.2 0 .3.1.4.1zm32.4-5.1h.2v.1zm-37.1 10.4l-.1-.1h.2zm-15.5 3.3v-.1h.1zm10 16.7l-.1.1-.1-.1.1-.1s0 .1.1.1zm1.8.1l-.1-.2h.1zm-20.7.8h.1s0 .1.1.1h-.3l.1-.1zm-3.6-13.6v.1h-.1zm-4.3 4.7l.1.1h-.1zm36.8 11.5v-.1h.1zm-11.1-20.9l.1.2-.1-.1zm31.2-.4h.2l-.1.1zm-27-.5l.1.1h-.1zm-6.8 25.3l-.1.1-.1-.1.1-.1s0 .1.1.1zm-4.9-25.3l.1.1h-.1zm47.5-2v-.2.2zm-22 29.4l-.1-.1c.1 0 .1 0 .1.1 0-.1 0 0 0 0zm-4.9 2.5l.1.1h-.1zm12.1-17.6v-.1h.1zm-1.2.4l-.1.1-.1-.1.1-.1s0 .1.1.1zm1.2 1.9l.1-.1v.2zm-24.7.5v-.1h.1zm39.5-17.1c0 .1 0 .1-.1.2 0-.1.1-.2.1-.2zm1.8-1.9c.1-.1.2-.2.2-.3 0 .1-.1.3-.1.4l-.1-.1zm-26.4 2.7v-.1h.1zm12.3 8.3l-.1.1v-.2zm-51.7 9.2l.1-.1s0 .1-.1.1c.1 0 0 0 0 0zm58.6-21.9l.1.1h-.2zm-3.2.1h-.1v-.1zm-24.8 5.3l-.1-.1.1-.1.1.1s-.1 0-.1.1zM416.7 258c-.1 0-.1.1-.2.1 0-.1-.1-.2-.1-.2h.2l.1.1zm4.7-4.5c0 .1 0 .1-.1.2-.1-.1-.2-.1-.2-.2l.1-.1c.2-.1.2 0 .2.1zm.5-2c.1 0 .1 0 .2.1v.2c-.1 0-.2-.1-.3-.1 0-.2 0-.2.1-.2zm-4.3.2l.1.1h-.2zm-1.1 6.2l-.1-.1h.2zm2.5-2.4l-.1-.1.1-.1.1.1s-.1 0-.1.1zm22.5.7c-.1 0-.1.1-.2.1 0-.1-.1-.2-.1-.2h.2c0-.1.1 0 .1.1zm1-3.3c0 .1 0 .1-.1.2-.1-.1-.2-.1-.2-.2l.1-.1c.1 0 .1 0 .2.1zm.4-2c.1 0 .1 0 .2.1v.2c-.1 0-.2-.1-.3-.1 0-.1 0-.2.1-.2zm-4.3.2l.1.1h-.2zm1.4 2.3v-.1h.1zm0 1.5l-.1-.1.1-.1.1.1s-.1 0-.1.1zm-12.8 9.3c-.1 0-.1.1-.2.1 0-.1-.1-.2-.1-.2h.2c.1 0 .1.1.1.1zm1-3.2c0 .1 0 .1-.1.2-.1-.1-.2-.1-.2-.2l.1-.1c.1-.1.2 0 .2.1zm3.8-3.5c.1 0 .1 0 .2.1v.2c-.1 0-.2-.1-.3-.1 0-.1.1-.1.1-.2zm-7.6 1.7v.1h-.1zm1.4 2.3l-.1-.1h.2zm0 1.5l-.1-.1.1-.1.1.1s-.1 0-.1.1zm7.7-13.5c-.1 0-.1.1-.2.1 0-.1-.1-.2-.1-.2h.2c.1 0 .1.1.1.1zm1-3.3c0 .1 0 .1-.1.2-.1-.1-.2-.1-.2-.2l.1-.1c.1 0 .2.1.2.1zm.4-1.9c.1 0 .1 0 .2.1v.2c-.1 0-.2-.1-.3-.1 0-.2.1-.2.1-.2zm-4.2.2v.1h-.1zm1.4 2.3l-.1-.1h.2zm-.1 1.5l-.1-.1.1-.1.1.1c.1 0 0 0-.1.1zm13.4 3.3c-.1 0-.1.1-.2.1 0-.1-.1-.2-.1-.2h.2c.1 0 .1.1.1.1zm1-3.3c0 .1 0 .1-.1.2-.1-.1-.2-.1-.2-.2l.1-.1c.1 0 .1.1.2.1zm.4-2c.1 0 .1 0 .2.1v.2c-.1 0-.2-.1-.3-.1 0-.1.1-.1.1-.2zm-4.3.2l.1.2h-.2zm1.4 2.4v-.1h.1zm0 1.4l-.1-.1.1-.1.1.1c0 .1 0 .1-.1.1zm-22.1-1.8h.2l-.1.1zm22.5-1.7l-.1.1-.1-.1.1-.1c.1 0 .1.1.1.1zm19.7-24.4h-.1v-.1zm-53.7 13.1h-.1v-.1zm4.4 21.8h-.1s0-.1-.1-.2h.2c.1.1 0 .2 0 .2zm1.1 2.9c.1 0 .1-.1.2-.1 0 .1 0 .2.1.3h-.2c-.1-.1-.1-.2-.1-.2zm-3.4.9h.1v.1z"/><path class="st0" d="M416.5 258v-.2h.1zm-2.7 1.3h-.1v-.1zm-.3-8.8h-.1s0-.1-.1-.2h.2v.2zm1.1 2.9c.1 0 .1-.1.2-.1 0 .1 0 .2.1.3h-.2c-.1-.1-.1-.2-.1-.2zm-3.5.9h.2v.1zm4.2-3.1l-.1-.2h.1zm-2.7 1.3h-.2v-.1zm26 6.8c.1 0 .1-.1.2-.1 0 .1 0 .2.1.3h-.2c-.1-.1-.1-.2-.1-.2zm-14.4.5h.2v.1zm1.8.4h-.1v-.1zm7.3-8.9h-.1s0-.1-.1-.2h.2v.2zm1 2.8c.1 0 .1-.1.2-.1 0 .1 0 .2.1.3h-.2c-.1-.1-.1-.1-.1-.2zm5.4 2.7h.1v.1zm-4.7-4.9v-.1h.1zm-2.7 1.3h-.1v-.1zm-8.1-2.3h-.1s0-.1-.1-.2h.2v.2zm13.9 2.1h.1v.1zm-14.9-.1h-.1v-.1zm15.3-3.6h-.1s0-.1-.1-.2h.2c.1 0 .1.1 0 .2zm1.1 2.8c.1 0 .1-.1.2-.1 0 .1 0 .2.1.3h-.2c-.1-.1-.1-.2-.1-.2zm-3.4 1l.1-.1v.1zm4.1-3.2v-.1h.1zm-2.7 1.3h-.1v-.1zm-8.2-2.2h-.1s0-.1-.1-.2h.2v.2zm1.1 2.8c.1 0 .1-.1.2-.1 0 .1 0 .2.1.3h-.2c-.1-.1-.1-.1-.1-.2zm.7-2.2v-.1h.1zm-2.7 1.3l-.1.1v-.2zm-1.3-5.5h-.1s0-.1-.1-.2h.2v.2zm1.1 2.8c.1 0 .1-.1.2-.1 0 .1 0 .2.1.3h-.2c-.1 0-.1-.1-.1-.2zm-3.5 1l.2-.1v.2zm4.2-3.2l-.1-.1h.2zm-2.7 1.3l-.2.1.1-.2zm18.6-6.8h-.1s0-.1-.1-.2h.2v.2zm1.1 2.8c.1 0 .1-.1.2-.1 0 .1 0 .2.1.3h-.2c-.1-.1-.1-.1-.1-.2zm-3.5 1l.2-.1v.2zm4.2-3.2l-.1-.1h.1zm-2.7 1.3l-.2.1v-.2zm-7 6.2h-.1v-.1zm4.6.3v.2l-.1-.1zm-1.9-5.5c0 .1-.1.1-.1.2 0-.1-.1-.2-.1-.3.1 0 .1-.1.2-.1-.1.1 0 .2 0 .2zm-3.7 10.8c0-.1-.1-.1-.1-.2.1 0 .2-.1.2-.1v.2l-.1.1zm-18.8 1.2v-.1h.1zm-6-15.8l-.1.1-.1-.1.1-.1c0-.1 0 0 .1.1zm1.2-1.2c-.1 0-.1.1-.2.1 0-.1-.1-.2-.1-.2h.2c0-.1 0 0 .1.1zm.9-3.3c0 .1 0 .1-.1.2-.1-.1-.2-.1-.2-.2l.1-.1c.1 0 .2 0 .2.1zm-2.4.5v-.1h.1zm0 1.5l-.1-.1.1-.1.1.1s-.1 0-.1.1zm2.8-.7l.1-.1v.1zm-4.6.6v-.1h.1zm-2 3.2l-.1.1-.1-.1.1-.1c.1 0 .1.1.1.1zm1.2-1.2c-.1 0-.1.1-.2.1 0-.1-.1-.2-.1-.2h.2c.1 0 .1.1.1.1zm1-3.2c0 .1 0 .1-.1.2-.1-.1-.2-.1-.2-.2l.1-.1c.1-.1.2 0 .2.1zm-2.4.5l-.1-.1h.2zm-.1 1.5l-.1-.1.1-.1.1.1c.1 0 0 0-.1.1zm2.9-.7l.1-.1v.1zm8.7 1.3c.1 0 .1-.1.2-.1 0 .1 0 .2.1.3h-.2c-.1-.1-.1-.1-.1-.2zm-3.4 1l.1-.1v.1zm-.8 2.3h.2l-.1.1zm2.2-4.2l-.1.1v-.2zm.8 4.1l-.1.1-.1-.1.1-.1c0-.1.1 0 .1.1zm1.2-1.2c-.1 0-.1.1-.2.1 0-.1-.1-.2-.1-.2h.2c.1-.1.1 0 .1.1zm-1.4-2.8l-.1-.1h.1zm-.1 1.5l-.1-.1.1-.1.1.1c.1 0 0 .1-.1.1zm-1.7-.1l-.1-.1h.1zm.2-1.2c0 .1 0 .1-.1.2-.1-.1-.2-.1-.2-.2l.1-.1c.1 0 .1 0 .2.1zm.3 1.3l.2-.1v.1zm-10.2-2.7c.1 0 .1-.1.2-.1 0 .1 0 .2.1.3h-.2c-.1-.1-.1-.1-.1-.2zm-3.4 1l.1-.1v.2zm-.8 2.3h.2l-.1.1zm2.2-4.2l-.1.1v-.2zm.8 4.1l-.1.1-.1-.1.1-.1c0-.1.1 0 .1.1zm1.2-1.2c-.1 0-.1.1-.2.1 0-.1-.1-.2-.1-.2h.2c.1-.1.1 0 .1.1zm-1.4-2.8l-.1-.1h.2zm-.1 1.5l-.1-.1.1-.1.1.1c.1 0 0 .1-.1.1zm-1.7-.1l-.1-.1h.2zm-.8 2.1c-.1 0-.1.1-.2.1 0-.1-.1-.2-.1-.2h.2c.1-.1.1 0 .1.1zm1-3.3c0 .1 0 .1-.1.2-.1-.1-.2-.1-.2-.2l.1-.1c.1 0 .1 0 .2.1zm.3 1.3l.2-.1v.1zm32.9-7.8c.1 0 .1-.1.2-.1 0 .1 0 .2.1.3h-.2c-.1 0-.1-.1-.1-.2zm-3.4 1h.1v.1zm-.8 2.3h.2l-.1.1zm2.2-4.2l-.1.1v-.1zm2 2.9c-.1 0-.1.1-.2.1 0-.1-.1-.2-.1-.2h.2c.1 0 .1 0 .1.1zm-1.4-2.7l-.1-.1h.2zm-.1 1.4l-.1-.1.1-.1.1.1c.1.1 0 .1-.1.1zm-1.7-.1l-.1-.1h.2zm-.8 2.1c-.1 0-.1.1-.2.1 0-.1-.1-.2-.1-.2h.2c.1 0 .1 0 .1.1zm1-3.3c0 .1 0 .1-.1.2-.1-.1-.2-.1-.2-.2l.1-.1c.1 0 .1.1.2.1zm.3 1.3h.2v.1zm9.4.7c.1 0 .1-.1.2-.1 0 .1 0 .2.1.3h-.2c-.1 0-.1-.1-.1-.2zm-3.5 1l.2-.1v.2zm-.7 2.3h.1v.1zm2.2-4.2l-.2.1.1-.1zm.8 4.1l-.1.1-.1-.1.1-.1s.1 0 .1.1zm1.2-1.2c-.1 0-.1.1-.2.1 0-.1-.1-.2-.1-.2h.2c.1-.1.1 0 .1.1zM441 230l-.1-.2h.1zm-.1 1.4l-.1-.1.1-.1.1.1s0 .1-.1.1zm-1.8-.1v-.1h.1zm-.7 2.1c-.1 0-.1.1-.2.1 0-.1-.1-.2-.1-.2h.2c0-.1.1 0 .1.1zm1-3.3c0 .1 0 .1-.1.2-.1-.1-.2-.1-.2-.2l.1-.1c.1 0 .1.1.2.1zm.3 1.3l.2-.1-.1.2zm4.7 4.8v.2h-.3c0-.1 0-.1.1-.2h.2zm.1-3.6v.2l-.2-.1zm-2-1.4l-.1.2-.1-.1zm3.3 3.3v-.1h.1zm-4.1-.3c0-.1-.1-.1-.1-.2 0 0 .1-.1.2-.1 0 .1.1.1.1.2 0 0-.1 0-.2.1zm.8 1.5c0-.1 0-.1-.1-.2h.3v.2h-.2zm3-.6l.2-.1-.1.1zm-1.3-.5c.1 0 .1-.1.2-.1 0 0 .1.1.1.2-.1 0-.1.1-.2.1-.1-.1-.1-.1-.1-.2zm.5-1.7h.2l-.1.1zm-1.7-1.3c0-.1 0-.1-.1-.2h.3v.2h-.2zm2.9 1.9c-.1 0-.1-.1-.2-.1.1-.1.2-.1.2-.2 0 .1.1.1.1.2 0 0-.1 0-.1.1zm-1.4 0v.1h-.1z"/><path class="st0" d="M436.6 248.4c.1 0 .1-.1.2-.1 0 0 .1.1.1.2-.1 0-.1.1-.2.1 0 0-.1-.1-.1-.2zm1.2-18.2v.2h-.3c0-.1 0-.1.1-.2h.2zm.1-3.5v.1h-.1zm-2-1.4l-.1.1h-.1zm3.3 3.3v-.2l.1.1zm-4.1-.4c0-.1-.1-.1-.1-.2 0 0 .1-.1.2-.1 0 .1.1.1.1.2s-.1.1-.2.1zm.8 1.5c0-.1 0-.1-.1-.2h.3v.2h-.2zm3-.6h.2l-.1.1zm-1.3-.5c.1 0 .1-.1.2-.1 0 0 .1.1.1.2-.1 0-.1.1-.2.1s-.1-.1-.1-.2zm.5-1.6h.2l-.1.1zm-1.7-1.4c0-.1 0-.1-.1-.2h.3v.2h-.2zm2.9 1.9c-.1 0-.1-.1-.2-.1.1-.1.2-.1.2-.2 0 .1.1.1.1.2s-.1.1-.1.1zm-1.4 0v.1h-.1zm-32.8 10.2v-.1h.1zm15.7.6l-.1.1-.1-.1.1-.1c0-.1.1 0 .1.1zm1.2-1.2c-.1 0-.1.1-.2.1 0-.1-.1-.2-.1-.2h.2c.1-.1.1 0 .1.1zm1-3.3c0 .1 0 .1-.1.2-.1-.1-.2-.1-.2-.2l.1-.1c.1 0 .1.1.2.1zm-2.4.5l-.1-.1h.1zm-.1 1.5l-.1-.1.1-.1.1.1s0 .1-.1.1zm2.9-.7l.1-.1v.2zm-4.6.6l-.1-.1h.1zm5.9.3l-.1.1-.1-.1.1-.1s0 .1.1.1zm1.2-1.2c-.1 0-.1.1-.2.1 0-.1-.1-.2-.1-.2h.2s0 .1.1.1zm.9-3.2c0 .1 0 .1-.1.2-.1-.1-.2-.1-.2-.2l.1-.1c.1-.1.2 0 .2.1zm-2.4.5v-.1h.1zm0 1.5l-.1-.1.1-.1.1.1s-.1 0-.1.1zm2.8-.7l.1-.1v.1zm-4.6.6v-.1h.1zm6 3.1l-.1.1-.1-.1.1-.1s0 .1.1.1zm1.2-1.2c-.1 0-.1.1-.2.1 0-.1-.1-.2-.1-.2h.2s0 .1.1.1zm1-3.3c0 .1 0 .1-.1.2-.1-.1-.2-.1-.2-.2l.1-.1c.1 0 .1.1.2.1zm-2.5.6v-.1h.1zm0 1.5l-.1-.1.1-.1.1.1s-.1 0-.1.1zm2.8-.8h.2l-.1.1zm-4.6.7v-.2l.1.1zm8.7 13.2l-.2.1v-.1zm4.6.4v.1h-.1zm-2-.1c.1 0 .2-.1.3-.1 0 .1 0 .1.1.2-.1 0-.2.1-.3.1 0 0-.1-.1-.1-.2zm.5-1.7l-.1.1-.1-.1.1-.1s.1 0 .1.1zm.7 1.2c-.1 0-.2-.1-.2-.1 0-.1.1-.2.1-.3.1.1.1.2.2.3 0-.1-.1 0-.1.1zm14.8-6.1c0 .1-.1.1-.1.2 0-.1-.1-.2-.1-.3.1 0 .1-.1.2-.1v.2zm4.3.7l-.1.1-.1-.1.1-.1c.1 0 .1 0 .1.1zm-10.9-1.1c.1 0 .1 0 .2.1v.2c-.1 0-.2-.1-.3-.1 0-.1.1-.2.1-.2zm7.6 2.3l.1.2-.2-.1zm1.4 2.3v-.1h.1zm-1.4-4.6h.2v.1zm1.5-1.8h-.2v-.1zm-7 6.1l-.2.1.1-.1zm2.7-5.1c0 .1-.1.1-.1.2 0-.1-.1-.2-.1-.3.1 0 .1-.1.2-.1-.1.1 0 .1 0 .2zm-4.5 3.9h-.2v-.1zm4.6.3v.2l-.1-.1zm-2 0c.1 0 .2-.1.3-.1 0 .1 0 .1.1.2-.1 0-.2.1-.3.1 0-.1-.1-.2-.1-.2zm.5-1.8l-.1.1-.1-.1.1-.1s0 .1.1.1zm.7 1.2c-.1 0-.2-.1-.2-.1 0-.1.1-.2.1-.3.1.1.1.2.2.3l-.1.1zm9.3-12.7v.2c-.1 0-.2-.1-.3-.1 0-.1.1-.1.1-.2 0 .1.1.1.2.1zm3.5-2.6v.2h-.2v-.2h.2zm-8.5 7c.1 0 .1-.1.2-.1l.1.1c-.1 0-.2.1-.3.1v-.1zm7-3.8l.1.1-.1.1zm2.6.7l-.1-.1h.1zm-4.2-2.3l.1-.1v.1zm-.3-2.3l-.1.1v-.1zm-.6 9.3l-.1.1v-.1zm-1.7-5.6v.2c-.1 0-.2-.1-.3-.1 0-.1.1-.1.1-.2.1.1.1.1.2.1zm-.5 6v.1l-.1-.1zm3.5-3l.2.1h-.1zm-1.4 1.3c0-.1.1-.2.1-.3.1 0 .1.1.2.1 0 .1-.1.2-.1.3 0 0-.1 0-.2-.1zm-.9-1.5v.2h-.2v-.2c.1-.1.2 0 .2 0zm1.3.3c-.1 0-.2.1-.2.1-.1-.1-.1-.2-.1-.3.1 0 .2 0 .3.2 0-.1 0 0 0 0zm6.1-12.3v.2c-.1 0-.2-.1-.3-.1 0-.1.1-.1.1-.2 0 .1.1.1.2.1zm3.5-2.6v.2h-.2v-.2h.2zm-8.5 7c.1 0 .1-.1.2-.1l.1.1c-.1 0-.2.1-.3.1v-.1zm7-3.8l.1.1-.1.1zm2.6.7l-.1-.1h.1zm-4.2-2.3l.1-.1v.1zm-.3-2.3l-.1.1v-.1zm-.6 9.3v.1l-.1-.1zm-1.7-5.6v.2c-.1 0-.2-.1-.3-.1 0-.1.1-.1.1-.2.1.1.1.1.2.1zm-.5 6v.1l-.1-.1zm3.5-3l.2.1h-.1zm-1.4 1.3c0-.1.1-.2.1-.3.1 0 .1.1.2.1 0 .1-.1.2-.1.3 0 0-.1 0-.2-.1zm-.9-1.5v.2h-.2v-.2c.1-.1.2 0 .2 0zm1.3.3c-.1 0-.2.1-.2.1-.1-.1-.1-.2-.1-.3.1 0 .2 0 .3.2 0-.1 0 0 0 0zm-50.8 29.5c-.1 0-.2 0-.3.1v-.2c.1 0 .2 0 .4-.1-.1.1-.1.2-.1.2zm21.6 5.3l.1-.1v.1zm-1.2.1c-.1 0-.1.1-.2.1 0-.1-.1-.2-.1-.2h.2c.1-.1.1 0 .1.1zm1-3.3c0 .1 0 .1-.1.2-.1-.1-.2-.1-.2-.2l.1-.1c.1 0 .1 0 .2.1zm-2.4.5l-.1-.1h.1zm-.1 1.5l-.1-.1.1-.1.1.1s0 .1-.1.1zm1.5-13.5c-.1 0-.1 0-.2-.1l.2-.2c0 .1.1.1.1.2 0 0 0 .1-.1.1zm4.1-8v-.1h.1zm1.2 1.2h.1v.1zm1.4-1.9l-.1.1v-.1zm-.5 9v-.1l.1.2zm-1.2.1c-.1 0-.1.1-.2.1 0-.1-.1-.2-.1-.2h.2s.1 0 .1.1zm1-3.3c0 .1 0 .1-.1.2-.1-.1-.2-.1-.2-.2l.1-.1c.1 0 .1.1.2.1zm-2.5.6v-.1h.1zm0 1.4l-.1-.1.1-.1.1.1c0 .1-.1.1-.1.1zm4.6-1.9c-.1 0-.1 0-.2-.1l.2-.2c0 .1.1.1.1.2 0 0-.1 0-.1.1zm2.1-5.5l-.1-.1h.1zm-2.6 1.6l-.1.1-.1-.1.1-.1s.1 0 .1.1zm1.8 0l-.1-.1h.2zm1-4.8h-.1s0-.1-.1-.2h.2v.2zm1.1 2.9c.1 0 .1-.1.2-.1 0 .1 0 .2.1.3h-.2c-.1-.1-.1-.2-.1-.2zm-3.5.9h.2v.1zm4.2-3.1l-.1-.2.1.1zm-2.7 1.3h-.2v-.1zm3.8-.2h.2l-.1.1zm1.4-1.8h-.1v-.1zm-7.1.6c.1 0 .1-.1.2-.1 0 .1 0 .2.1.3h-.2c-.1-.1-.1-.1-.1-.2zm5.5 2.4c0-.1-.1-.1-.1-.2.1 0 .2-.1.2-.1v.2l-.1.1zm1.1 6l.1-.1v.1zm-1.2 0c-.1 0-.1.1-.2.1 0-.1-.1-.2-.1-.2h.2c.1 0 .1.1.1.1zm1-3.2c0 .1 0 .1-.1.2-.1-.1-.2-.1-.2-.2l.1-.1c.1-.1.2 0 .2.1zm-2.4.5l-.1-.1h.2zm-.1 1.5l-.1-.1.1-.1.1.1c.1 0 0 0-.1.1zm-23.9 22.3l.1-.1v.1zm-1.2.1c-.1 0-.1.1-.2.1 0-.1-.1-.2-.1-.2h.2c.1-.1.1 0 .1.1zm1-3.3c0 .1 0 .1-.1.2-.1-.1-.2-.1-.2-.2l.1-.1c.1 0 .1 0 .2.1zm-2.4.5l-.1-.1h.1zm-.1 1.5l-.1-.1.1-.1.1.1s0 .1-.1.1zm10.6-1.5c.1-.5.2-.7.3-1 .1.2.2.3.3.5-.1 0-.3.1-.6.5zm1.8-.6v.2h-.1zm1.4 2.4v-.2l.1.1zm0 1.4l-.1-.1.1-.1.1.1-.1.1zm-1.5-3.1l.1-.1v.1zm-.8 4.3l.1-.2v.2zm-1.2 0c-.1 0-.1.1-.2.1 0-.1-.1-.2-.1-.2h.2c.1 0 .1.1.1.1zm1-3.3c0 .1 0 .1-.1.2-.1-.1-.2-.1-.2-.2l.1-.1c.1 0 .1.1.2.1zm-2.4.6l-.1-.1h.1zm-.1 1.5l-.1-.1.1-.1.1.1-.1.1zm23.7-26.7c.1-.5.2-.7.3-1 .1.2.2.3.3.5 0 0-.2.1-.6.5zm1.8-.6l.1.2h-.2zm1.4 2.4v-.2l.1.1zm0 1.4l-.1-.1.1-.1.1.1-.1.1zM455 238l.1-.1v.1zm-.8 4.3l.1-.2v.2zm-1.2 0c-.1 0-.1.1-.2.1 0-.1-.1-.2-.1-.2h.2c.1 0 .1.1.1.1zm1-3.3c0 .1 0 .1-.1.2-.1-.1-.2-.1-.2-.2l.1-.1c.1 0 .2.1.2.1zm-2.4.6l-.1-.1h.2zm-.1 1.5l-.1-.1.1-.1.1.1c.1 0 0 0-.1.1zm13.5-17.3c.1-.5.2-.7.3-1 .1.2.2.3.3.5 0 0-.2.2-.6.5zm1.8-.6l.1.2h-.2zm1.4 2.4v-.1h.1zm0 1.4l-.1-.1.1-.1.1.1c0 .1-.1.1-.1.1zm-1.5-3.1l.1-.1v.2zm-.8 4.3l.1-.1v.1zm-1.2 0c-.1 0-.1.1-.2.1 0-.1-.1-.2-.1-.2h.2c.1 0 .1.1.1.1zm1-3.2c0 .1 0 .1-.1.2-.1-.1-.2-.1-.2-.2l.1-.1c.1-.1.2 0 .2.1zm-2.4.5l-.1-.1h.2zm0 1.5l-.1-.1.1-.1.1.1s-.1 0-.1.1z"/><g id="Layer_1"><path class="st1" d="M81.1 376.7c.9.3 1.8.7 2.7 1 4.3 2.3 2.3 7.3 4.7 10.2 1.1 1.4 2.8 2.1 3.9 3.1 1.3 1.2 2.8 2.8 3.2 4.6.9 3.8-1.8 11.1-4.8 14.3-1.3 1.5-3.3 2.2-4.9 3.6-3.8 3.3-7.1 8.9-10.5 14.4-3.6 5.7-7 11.8-9.2 17.4-.6 1.6-.8 3.6-2.1 4.8-3.6-.9-2.2-4.6-2.1-7.1.4-5.6.9-10.6.9-16.5 0-2.3.4-6.4-1.9-7.2-2.4-.9-5 3.3-6.1 5.9-1.5 3.3-2.5 7.3-4.1 11.1-1 2.3-3.1 8.9-5.6 7.9-1.6-.7-.9-4.4-.7-6.8.6-7.5 2.1-15.2 2.6-22.6.3-4.7-.4-9.5-.2-14.2.3-4.9.2-9.6.5-14.5.4-1 .7-1.9 1.1-2.9.7-.8 1.5-2.1 2.3-2.8 3.9-3.2 9.2-5.1 15-2.9 1 .4 2 1.2 3.1 1.3 1.7.2 4.3-1.7 6.2-2.2 2.2-.4 4.2-.1 6 .1zM71.8 421c.3-1.3 3.2-.8 4-1.1 4.1-1.2 4.7-5.2 7.7-9.1.8-1 2.4-1.1 3.7-2.1 2.7-2 7-7.4 6.8-11.6-.2-3.8-5.5-4.5-7.6-7.7-1.7-2.5-.4-5.7-2-8.3-1.3-2.3-5.1-3.9-8-3.3-2.4.5-4.6 3.5-7 3.4-3-.1-4.4-2-6.6-2.8-4.4-1.5-9.6.6-11.5 4.1-2.1 3.8-1.9 7.1-1.8 10.4 0 2.4-.1 4.8-.1 7 .1 4.6 2.7 8.2 2.3 12.8-.4.4-1 .5-1.8.1.8 6.3-.8 14.5-2.8 22.1-.6 2.5-1.7 5.1-1.2 7.5 5-4.5 6.4-16 10.2-23.2 2-3.8 8.3-1.8 9.9 1.5 2 4.2-1.1 13.8-2.1 19.5-.4 1.9-1.2 4.2.1 5.5 1.8-.9 2.2-3.4 3.1-5.4 2.7-6.3 5.6-12.8 8.5-18-1-.2-4.2.5-3.8-1.3z"/><path class="st1" d="M67.6 382.2c2.2 1.5 3.9 3.3 5.1 5.3 2.7-1 5.7-1.5 9.6.3-2.8.4-6.1-.2-8 2.1 1 3.1 3.4 5.6 2.4 9.6-.8-.1-.8-1.2-1.1-1.9-1.1-2.3-2.7-6.3-6.4-7.2-2.4-.6-5.2.3-7.3 1.1-.6.2-1.3.8-1.8.4 2.2-3.6 5.2-5.6 9.9-3.8.6-2.6-1.4-4-2.4-5.9zm475.9-236l1.8.9c2.8 2 1 5.3 2.4 7.5.7 1.1 1.8 1.7 2.5 2.5.8.9 1.7 2.2 1.8 3.5.3 2.7-2.2 7.6-4.6 9.6-1 .9-2.5 1.2-3.8 2.1-2.9 2-5.8 5.6-8.6 9.1-3 3.6-5.9 7.6-7.9 11.4-.6 1.1-.8 2.4-1.9 3.2-2.5-.9-1.2-3.4-.8-5.1.7-3.9 1.5-7.3 2-11.4.2-1.6.8-4.4-.7-5.2-1.6-.8-3.8 1.9-4.8 3.6-1.3 2.2-2.4 4.9-3.8 7.4-.9 1.6-3 5.9-4.6 5-1-.6-.3-3.2.1-4.8 1.1-5.2 2.8-10.4 3.7-15.5.6-3.3.5-6.6 1.1-9.9.6-3.4.9-6.7 1.6-10.1.3-.6.7-1.3 1-1.9.5-.5 1.2-1.3 1.8-1.7 3-1.9 6.8-2.8 10.7-.8.6.3 1.3 1 2.1 1.2 1.2.3 3.2-.8 4.5-1 1.8-.3 3.1 0 4.4.4zm-10.3 30c.3-.9 2.3-.3 2.9-.4 2.9-.5 3.8-3.2 6.2-5.7.6-.6 1.8-.6 2.7-1.1 2-1.2 5.6-4.6 5.8-7.5.2-2.7-3.4-3.6-4.7-6-1-1.9.2-4-.7-6-.7-1.7-3.2-3.2-5.3-3-1.7.1-3.5 2-5.2 1.7-2.1-.3-2.9-1.8-4.3-2.5-2.9-1.4-6.7-.4-8.3 1.9-1.8 2.5-1.9 4.8-2.2 7.1-.2 1.6-.5 3.3-.7 4.9-.3 3.2 1.2 6 .5 9.1-.3.2-.7.2-1.3-.1 0 4.5-1.8 10.1-3.8 15.2-.7 1.7-1.7 3.4-1.5 5.1 3.9-2.7 5.8-10.6 9.1-15.3 1.7-2.5 6-.6 6.8 1.9 1 3.1-1.9 9.6-3.2 13.4-.4 1.3-1.2 2.8-.4 3.8 1.4-.5 1.8-2.2 2.6-3.5 2.4-4.2 5-8.4 7.5-11.8-.7-.1-3 .1-2.5-1.2z"/><path class="st1" d="M533.6 148.8c1.4 1.3 2.5 2.6 3.1 4.2 2-.4 4.1-.5 6.7 1.1-2 .1-4.2-.6-5.8.8.5 2.2 1.9 4.2.9 6.9-.5-.1-.4-.9-.6-1.4-.6-1.7-1.3-4.7-3.8-5.6-1.7-.6-3.7-.2-5.2.1-.4.1-1 .4-1.3.1 1.9-2.3 4.1-3.4 7.2-1.8.6-1.8-.7-3-1.2-4.4zM417.8 70.2c1.8 2.3 3.5-.8 5.9-.4 2.1.4 3.4 2.7 2.4 5.5-1.4 3.7-7.2 5.2-11.9 3.7-3.1-2.1-5.1-6.3-3.6-11.7 1.1-3.8 4.9-5.6 5-9.3-2.7-.5-3 4.3-5.5 5-7-.2-5.4-9-1.9-12.2 4.9-4.5 16.2-1.6 17.6 5.4 1.7 7.3-5.2 9.4-8 14zm.4 3.6c-1.6-.3-3.3-2.1-3.1-4 .5-3.6 6.1-5.3 7.7-8.7 3.3-7-5.8-11.8-11.1-9.4-1.8.8-5.8 6.8-2.2 8.6 2.1-1.9 2.9-6.1 6.8-4.9 1 .3 2 1.6 2.1 2.9.2 4.4-6 7.5-5.8 13.1.1 2.3 1.1 3.6 2.6 5.3 4.4 1.1 8.8-.1 8.5-4.1-1.6-.6-3.3 1.6-5.5 1.2zm-27.6-10.3c0 4.3.1 9.8 0 14.8.9 0 2.8-.2 2.8 1.1 0 1.7-5.9 1.4-9.2 1.5-2 .1-4.6 1.2-4.8-.5-.2-1.4 2.1-1.7 3.7-2-.4-9.7.7-20.6-.1-29.9-1.4 0-3.6.7-3.4-1 .1-1.2 3.2-1.3 4.8-1.3 2.4 0 5.1.1 7 .5 5.6 1.3 10.2 6.3 9 11.7-.8 3.4-3.3 4.1-6.2 5.8-.8-.3-2.3-.3-3.6-.7zm-.1-2.1c.8.1 1.7.2 2.5.3.6-4.6-.1-8.3-.4-12.3-1-.2-1.4-.8-2.7-.8.3 4.3 0 8.9.6 12.8zm-5.2 17.4c1.3.3 1.9-.2 3.1 0-.2-5.6.7-12-.6-16.6.7-3.9-.1-9 .1-13.5l-2.7-.3c.9 9.4-.5 20.7.1 30.4zm10-17.7c4.8-1.3 3.4-9.2-.4-10.5.3 3.4.6 6.7.4 10.5zm-22.9-11.4c-4.1 10.4-7.8 21.3-11.9 31.7 2.5.5 5.9-.6 5.8 2.3-1.5.9-5.5-.7-7.4.1-2.8-.9-6.2-.7-9.4-.5-1.5.1-4.2 1-4.3-.6-.1-2.2 6.4-1.5 8.2-2.1 1-3.2 2-6.4 3.1-9.7.3-1 .9-2.5.9-3.3-.1-1.1-1.6-2.5-2.5-3.5-2.8-3.3-4.6-7.5-6.1-11.5-1.6-.2-4.7 1.7-4.8-.3-.1-2 3.9-1 5-2.5 1.4 1.9 6.5-.5 6.8 1.4.3 2.1-3 1.2-4.8 1.4 1.6 4.9 4.3 8.8 7.3 12.6 2.5-3.6 3.8-8.7 5.6-13.1.2-.4-.3-1.4.3-1.9-1.2-.5-4.8 1.2-5.3-.5-.5-1.8 4.2-1.7 6.9-1.9 1.6-.1 8.9-.6 9.2.8.4 1.3-1.2 1.3-2.6 1.1zm-5.8.2c-1.4 6.6-4.6 11.1-6.1 17.5-.2.6-1 .5-1.2 1-1.4 4.2-2.6 8.5-4 12.7 1.1.2 1.8-.2 2.9 0 4-10.2 8.1-21.2 11.5-31.4-1.1 0-2.2 0-3.1.2zm-40.1 18.6c.6 5.2.9 10.6 1.4 16 1.6-.7 3.2-.6 3.2.6 0 1.7-4.1 1.5-6.2 1.9-3.5.7-8.6 2.4-9.1.9-.8-2.1 3.4-1.7 4.8-2.3-1.9-8.6-2.2-19-3.3-28.4-.6 0-1.6.9-2.2-.1-.2-1.7 1.7-2.4 3.2-2.9 2.2-.7 4.6-.8 7-1.2 1.7-.3 3.3-1.3 5.1-1.4 5.1-.2 11.6 7.3 7.4 12.4-1 1.2-4.7 3.6-6.5 4.1-1.6.3-3.2.5-4.8.4zm6.3-3.9c2.2-1.3 4.3-2.3 3.8-5.5-.4-2.6-3.1-4.8-5.2-5.2 1.8 2.1 2.7 7.5 1.4 10.7zm-8.3-9.5c.8 3.5 1 7.6 1.8 11.2 1.4.7 2.3-.4 3.8-.4-.2-1.1.9-1.7 1.1-2.9.5-2.8-.5-6.2-1.4-8-1.5-1.3-3.3-.3-5.3.1zm-2.2.2c-.9.4-2.2.4-3.2.7 1.4 9.5 1.5 20.5 3.5 29.4 1-.3 2-.6 3.2-.7-.9-10.1-1.5-20.5-3.5-29.4zm-17.8 5c1.7 6.6 4.1 14.2 4.5 21.3-1.9.9-4.6 1.9-6.8 2.2-1.6-1.5-1.5-5.3-2.9-7.1-3.1 3.3-5.7 8.1-9.4 11.8-.6.6-1.8 2.5-2.8 2.5-1-.1-1.9-2.9-2.4-4.1-1.8-4.8-3.7-10-5.3-14.8-4.2-1.7 3.3-5.1 5.3-6 2.3 2.4 2.9 7.2 4.6 10.4 1.7-1.1 3.1-3.6 4.7-5.2-.1-3.4.2-6.5.7-9.4 2.7-1.2 7.2-1.2 9.8-1.6zm-7.7 3c-.2 1.7-.5 4.2-.7 6.3 0 .7.2 1.6.1 2.1-.3 1.2-2.6 3.5-3.3 4.3-.8.9-2.9 4-4 4-1.2 0-1.1-1.6-1.5-3-.8-2.7-2.7-5.7-3.3-8.5-1.1.6-2 1.2-2.9 1.8 2.1 5.7 4 11.8 6.2 17.4 3.5-2.5 6.1-7.4 9.1-11.1.9-1.1 2.2-3.6 3.4-3.5 1.3 0 1 1.5 1.5 3s1.8 3.2 1.8 5.2c1.5-.2 2.6-.8 3.9-1.2-1-6.4-2.7-11.6-3.8-17.7-2.5.7-4.4.5-6.5.9zM267 75c.4 3 .6 5.8.6 8.9 0 1.1-.2 2.3.1 2.9.5.9 3.7 2.6 4.6 3 1.3.6 2.7.6 3.7 1.6 1.4-.6 3.3-2.8 4.1-1.3.8 1.5-2 2.2-3.8 3.5-1.4 1-3 2.7-4 3.3-1.6.9-3 1.5-4.2 2.4-.2-.2-.4-.3-.6-.3-.6-1.3-.1-2.1.8-2.7-1.5-1.6-3.5-1.8-5.1-3-1.3 2-.9 4.6-.2 7.5.9-.3 1.6-1.3 2.6-1.2 2.6 1.9-2.7 3.4-4.8 4.5-1.1.6-2.4 2.2-3.9 3.2-.4.3-1.1.4-1.4.7-1.1.9-3.1 4.1-4.1 2.1-.6-1.1 2.7-3.6 3.9-4.5 0-3.9-.6-8.1-.4-11.9-3-2.1-7.1-1.5-9.8-4.2-.9.8-3.1 2.7-3.8 1.2-.9-1.9 6.6-4.4 6.8-6.8 2 .6 6.1-5.4 7.4-3.4 1.3 1.9-3.3 2.9-4 4.3 2.5 1.5 5.6 1.6 8.1 3.2.5-2.3.3-4.9.8-7.2-.6.2-1.4.2-1.7-.4-.5-1 1-1.9.8-2.9 2.1-.6 7.1-6.2 8.3-4.8 1 1.2-.2 1.6-.8 2.3zm1.1 14.6c-.9-.5-1.8-.5-2.2-1.2-.4-.6-.6-2-.6-2.9-.1-2.6.4-6-.2-8.9-.1-.1-.2-.1-.4 0-.4.5-1.1.9-1.7 1.4-.1 1.8-.5 3.8-.7 6.6-.2 2.4-.4 8.8-3.4 5.3-3.1-1.4-6.5-2.1-9.6-3.4-4.3 3.1 1.2 3.2 4.6 4.4 2.5.9 5.9 2.4 3.3 4-.4 2.9-.1 6 .3 9.2 1.1-.7 2-2.1 3.6-2.1-.4-1.4-1-3-1-4.4-.1-1.8.2-5.9 2.2-6.6.8-.2 3.8 1.3 5.3 2.2 1.1.6 2.4 2.1 3.5 1.9s1.8-1.5 2.8-2.1c-1.6-.8-3.8-2.3-5.8-3.4z"/></g><path class="st0" d="M60 86.9c-7.1.6-10.2 5.2-18.5 8.2 0 .6.1 1.5 0 2.5.8 3.5.6 7 .9 10.5 0 .6.1 1.2.1 1.9 0 .4.2.9.2 1.3 6.4-.7 11.4-5.7 18.3-7.4 4.5 10.4 13.3 22.5 18.1 34.2 7.7 12 13 26.7 11.4 40.3-.2 2.1-.6 3.9-1.8 5.7-9.8 4.5-20.1-5.3-21.8-13.9-.2-.7 1.5-.4.5-1.8-3.1-4.8-5.2-5.6-7.2-4.7 0 .1 0 .6-.3.6-.4.5-1 1.1-1.4 1.4-.1.3-.3.3-.4.6-.1.2-.1.3-.3.2-.1.2-.3.3-.4.5-3.9 5.8-8.1 11.6-12.5 17l.2.1c2 2 4.1 4.3 6.1 6.3.1-.2.1 0 .4-.3.5.6.8 1 .8 1.5 3.9 3.7 7.9 7.5 11.7 11.2.3.1.8.1 1.2.1-.1.3-.1.5-.3.6 2.3 1.8 4.8 3.2 7.4 4.6 5.4 1.8 13.4 3 17.2 2 2.7-2.8 5.6-1 11.7-5.5-.5-.7-1-1.6-.3-2.2.3.4.6 1.2 1.2 1 6.3-9.2 12.3-14 9.9-26.5.1-.2.1 0 .3-.2-.2-1-.4-2.1-.6-3-1.3-4.6-2.8-9-4.6-13.3-1.5-4.1-3.2-8.2-4.3-12.6-1.5-4.1-3-7.9-4.4-11.9-4.5-9.6-9.6-20.6-13.7-31-1.6.5-1.1-3.8-3.4-5.1 3.5-1.7 5.9-3.6 7.8-5.7.3.1.5.4.5.7.4-.5 1-.6 1.5-.8-1.1-4.7-7.7-15.1-9.7-18.8-6.8 1.2-16 5.1-21.5 11.7zm63.3 25.6c.2.3.3.6.2.9.8 2-.8 2 1.2 3.8-2.1.4-1 1.5-1.5 2.2-4.9.8-7.7.1-13.4 2.4-2.6 2.7-4.3 6.2-4.9 10.7-.1 1.2-.2 2.2-.1 3.4l.2.1h-.1c.1 1.9.2 3.9.6 5.8.2.6.2 1 .4 1.5 0 .6.4 1.2.5 1.8.3.9.7 1.8 1 2.5 3.3 4.2 7.2 7.6 11.4 9 1.2.2 2.3.5 3.6.7 0 0 .2.1.1 0h.7c1.2-.1 2.4-.1 3.7-.5.3-.2.6-.2.9-.3 4.1-4.2 7.7-10.6 8.5-12.6 2 1.5 3.7 4.9 5.4 7.2.7-.2 1.6-.5 2.3-.9.3-.2.6-.2.7-.5-.4-1.3-.9-2.8-1.2-4.1-2.9-7.5-6.5-14.6-7.3-22.5-.2-.3-.2-.7-.5-1.2-2-3.6-3.9-7-5.1-10.2-3.1-1.2-5.3-.8-7.3.8zm.8 25.7c-1.7-.8.7 5 1.2 6.2-4.4 4.8-6.7-.7-9.9-1.8-1.1-5.3-.5-9.8.8-14.2 1.4-2.2 3.2 1.5 2.2-1.3 2.9 2.4 4.5 8 5.7 11.1zm102.8-76.6c-7.2 1.2-8.6 4-15.1 6.1l-1.3-2.5c1.1-2.1 1.9-4.4 2.7-6.4.3-.8.4-1.7.5-2.6 1.2-6.9 2.8-14 5-20.6.1-.3.3-.3.4-.5-1.8-2.6-2.9-4-4.5-6.6-9.8 4.9-19.4 10-29.6 13.6-.6.3-1.3.7-1.9.7.5.9.8 2 1.2 2.8.7 1.3 1.2 2.5 1.7 3.5 1 1.6 1.7 3.5 2.5 5.2.6-.2.9.1 1.5 1.1 1.7-2.3 4-1.5 6.8-4 .7 2.6.9.1 1.8 1-.5 4.3 1.7 11.7 1 15 .1-.3-1.1-1-.9-.7 1.2 2.3.5 4.4.6 6.7 3.2 4.6 5.8 9.4 8.1 14.5 10.5-5.4 19.5-12.2 33.4-21.4-3-6.4-3-6.7-6.1-10.4-4.3 3.3-6.1 2.8-7.8 5.5zm-70.7 17.8c-8.1 2.9-16.1 5.7-24.5 7.7-2.2.7-4.6 1.4-6.9 2.1 5 10.4 7.6 15.7 14.4 21.4 10.8-4.8 11.2-6.5 19.8-9.3 1.1 11.7 1.5 23.2-.7 34 .7 2.2 1.9 3.2 3.2 3.7l-2.6 1.3c3.6 4.7 7.7 11.3 12.4 16.1 4.3-3.2 9.3-5.5 14.2-7.8 5.8-2.7 11.5-5.6 17-8.7 6-3.3 12.2-6.4 17.7-10.2 1.2-.6 2.2-1.6 3.3-2.2-4.5-4.1-5.4-10.8-7.6-15.7-.9.3-1.6.5-2.5.9-9.2 4.2-18.7 7.6-28.6 10.9-.3.2-.6 0-.8-.1-.9.2-1.9.1-2.5 0l-.2-.1c-.5-.1-.9-.4-.8-1 .1-.2.1-.3.1-.5-.3-.9-.7-1.8-.3-2.2.2.1.3.4.5.6.3-6.1 1.4-12 2.8-17.7.4-4 1-7.8 2.4-11.4.7-3.9 1.9-7.7 3-11.6-1.4-3.7-3.6-7.4-5.3-10.6-8.7 3.8-18.3 6.8-27.5 10.4zM329 136.5c-2.2-4.9-3.2-10.3-4.5-15.4-1.1-4.2-2.2-8.4-3.2-12.5-.1-.6-.2-1.1-.3-1.7 3.8 2.4 7.4 4.9 10.9 7.6.2.3.3.5.4.7.8.9 1.4 1.7 1.8 2.7.3 0 .6 0 .9-.2-.5-1.9-1.2-3.8-1.9-5.6-1-2.1-2.3-4-4.2-5.4-3-1.3-6.6-1.3-8.8-3.9-.1-.1-.3-.2-.4-.2-.1-.2-.1-.3-.2-.5-.2-.7-1.8-.3-1.6.4.3 1.8.8 3.6 1.1 5.4.9 7.8 2.4 15.4 4.3 23 .4 1.8.9 3.6 1.5 5.4-.3.1-.8.3-1.1.3-1.6.5-3.2 1.5-4.2 2.5-.3.3-.5.5-.8.9-.4.3-.8.8-1 1.1-.5.7-1 1.5-1.4 2.3-.7 1.4-1.1 2.7-.9 3.9.6 2.5 3.4 3 5.5 2.6 1.1-.3 2.4-.8 3.7-1.5 3.6-1.5 6.9-5 6.2-8.5 0-1.5-.5-2.7-1.8-3.4zm-11.5 8.6c0 .1 0 .3-.1.3 0 0 0-.1.1-.3-.1-.3-.1-.9 0-1.3.3-.5.6-1.1.9-1.6-.6 1-.9 2-.9 2.9zm1.8-4.1c-.3.3-.4.5-.6.8 0-.1.1-.1.1-.2.3-.5.8-1.1 1.3-1.7-.3.4-.6.8-.8 1.1zm4.2-3c.3-.1.4-.1.7-.2l-.9.3c.1 0 .2 0 .2-.1zm-1.9 4.1c.1-.1.2-.2.3-.2-.1.2-.1.3-.2.4l-.2.2c.1-.1.1-.3.1-.4zm3.5 3.1c-.8.7-2.2 1.4-3.5 1.6h-.1c.3-.1.4-.2.7-.3 1.2-.4 2.3-1.1 3.1-1.6.3-.3.8-.5 1.1-.9-.4.4-.9.9-1.3 1.2zm-192-85.5c-2.2-4.9-3.2-10.3-4.5-15.4-1.1-4.2-2.2-8.4-3.2-12.5-.1-.6-.2-1.1-.3-1.7 3.8 2.4 7.4 4.9 10.9 7.6.2.3.3.5.4.7.8.9 1.4 1.7 1.8 2.7.3 0 .6 0 .9-.2-.5-1.9-1.2-3.8-1.9-5.6-1-2.1-2.3-4-4.2-5.4-3-1.3-6.6-1.3-8.8-3.9-.1-.1-.3-.2-.4-.2-.1-.2-.1-.3-.2-.5-.2-.7-1.8-.3-1.6.4.3 1.8.8 3.6 1.1 5.4.9 7.8 2.4 15.4 4.3 23 .4 1.8.9 3.6 1.5 5.4-.3.1-.8.3-1.1.3-1.6.5-3.2 1.5-4.2 2.5-.3.3-.5.5-.8.9-.4.3-.8.8-1 1.1-.5.7-1 1.5-1.4 2.3-.7 1.4-1.1 2.7-.9 3.9.6 2.5 3.4 3 5.5 2.6 1.1-.3 2.4-.8 3.7-1.5 3.6-1.5 6.9-5 6.2-8.5 0-1.5-.5-2.7-1.8-3.4zm-11.5 8.6c0 .1 0 .3-.1.3 0 0 0-.1.1-.3-.1-.3-.1-.9 0-1.3.3-.5.6-1.1.9-1.6-.6 1-.9 2-.9 2.9zm1.9-4.1c-.3.3-.4.5-.6.8 0-.1.1-.1.1-.2.3-.5.8-1.1 1.3-1.7-.4.5-.7.8-.8 1.1zm4.1-2.9c.3-.1.4-.1.7-.2l-.9.3.2-.1zm-1.8 4c.1-.1.2-.2.3-.2-.1.2-.1.3-.2.4l-.2.2c0-.1.1-.3.1-.4zm3.4 3.1c-.8.7-2.2 1.4-3.5 1.6h-.1c.3-.1.4-.2.7-.3 1.2-.4 2.3-1.1 3.1-1.6.3-.3.8-.5 1.1-.9-.4.5-.9.9-1.3 1.2zm187 89.5c-3.3-4.1-29.7-16.3-39.5-20.9-.5-.1-1-.2-1.6-.5-2.1-1-4.3-2.1-6.6-2.6-5.1-1.6-8.3 3-11.5 7.5-3.3 4.6-8.3 3-8.3 3s30.2 16.7 38.2 21 5.7 5.4 5.7 5.4-8.3 3-8.8 10.4c-.3 7.3 11 12.7 14.7 6.4 3.8-6.3 2.4-14.2-1.6-19.1-2.5-3.1-18.7-11.1-30.6-16.7l16.7-8.1c1.4-.7.1-1.4-.9-.9-.6.3-1.1.6-1.8.9l1.5-.9c.5-.2.8-.3 1.3-.6 8.7 4.8 18.6 10.3 22.9 12.6 8 4.3 5.7 5.4 5.7 5.4s-8.3 3-8.8 10.4c-.3 7.3 11 12.7 14.7 6.4 3.8-6.3 2.6-14.2-1.4-19.1zm-52.9-7.6c.6-.2 1-.5 1.6-.7-.5.2-.9.6-1.3.8-.1 0-.2-.1-.3-.1zm7.2-5.3c-3.3 1.3-6.5 2.6-9.7 4.2-4.2-1.9-7.1-3.2-7.1-3.2s9 .9 13.9-3.1c3.2-2.6 7.5-3.4 10.2-3.5.8.5 1.7.9 2.6 1.5-3.4 1.1-6.7 2.6-9.9 4.1zm220.3-97.6c24 17.7 41.8 36.8 50 58.1-1.3-15.1-18.3-35.7-34.7-51-3.7-3.5-8.5-6.4-10.5-10.5-1.3-2.7-.3-6.4-2.2-8.1-5.9-5.2-17.8 2.5-23.9 9.9 4.3.6 7.6-7.5 11.2-6.1 1.8 2.2-.5 5.3 1.4 7.4-3.1-.4-6.9 2.5-11.1 4.3 4.6 1.6 9.3-1.5 14-4.6 1.2 10.7 5.4 22.8 6 31.4.2-.2.5-.2.9.3-.5 12.9 10.2 35 25.2 45.9-10.3-16.8-23.3-41-23.6-57 0-1.1-1.9 0-1.6-2.2.9-.9.4.9 1.3.1-.7-2.6-.7-5.3-1.8-7.8-.6-.8 1.1 4.8.6 6.8-2.6-3.3.4-10.4-2.2-9 .4-.9 2.3-3.4.5-3.1.4.5.2 1.1-.1 1.7-1.6-4.2.6-1.7.6-6.5zM88.5 264c-.9 6.9 2.8 3.7-.2 9.8-.2-1-.4-1.9.2-2.6-2.5-.7-.2 3.3.2 4.7-3.5-2.6-.5 8.4-4.8 12.7-.4-3 3.2-10.9 2.1-9.8-2.1 3.4-2.6 7.4-4.1 11 1.1 1.2.7-1.5 1.9 0 0 3.3-2.5 1.3-2.7 2.9-3.3 23.5-26.7 56.5-44.8 79.2 24-13.2 43.6-43.5 45.2-62.5.6-.6 1.1-.5 1.3-.2 2.4-12.5 10.8-29.4 14.4-44.8 6.4 5.3 12.7 10.8 19.7 9.3-5.8-3.4-10.9-8.4-15.4-8.3 3.2-2.8.5-7.8 3.4-10.6 5.4-1.4 8.8 11 15.2 10.9-7.5-12-23.6-25.5-33.2-18.9-3.1 2.1-2.3 7.8-4.7 11.5-3.7 5.6-11.3 9-17.3 13.4C38.1 291 9.5 318.1 4.9 340c15.8-29.8 45.4-54.5 83.6-76z" id="Режим_изоляции"/></svg>