<svg version="1.1" id="Слой_1" xmlns="http://www.w3.org/2000/svg" x="0" y="0" viewBox="0 0 566.9 467.7" xml:space="preserve"><style>.st0{fill-rule:evenodd;clip-rule:evenodd}.st0,.st1{fill:#ee7f00}</style><path class="st0" d="M108.7 129.5c-.2.7-.3 1.4-.4 2.2-1.2 3.5-5.1 2.7-7.1 4.7-.9 1-1.2 2.4-1.9 3.3-.7 1.1-1.8 2.4-3.1 2.9-2.7 1.1-8.5 0-11.3-1.8-1.3-.8-2-2.3-3.3-3.2-3-2.4-7.6-4.2-12.1-6.1-4.7-2-9.7-3.8-14.2-4.7-1.4-.2-2.8-.1-3.8-1 .2-2.9 3.2-2.2 5.1-2.4 4.2-.4 8-.6 12.5-1.4 1.7-.2 4.8-.5 5.1-2.2.4-1.9-3.1-3.3-5.2-3.9-2.6-.7-5.8-1-8.8-1.7-1.8-.5-7-1.3-6.6-3.2.3-1.3 3.2-1.3 5-1.4 5.7-.5 11.6-.3 17.2-.8 3.6-.3 7-1.5 10.6-1.9 3.7-.4 7.2-1.1 10.9-1.4.7.2 1.5.3 2.3.5.7.4 1.8.8 2.4 1.3 2.9 2.5 5 6.3 4.1 10.9-.1.8-.7 1.6-.6 2.5 0 1.3 1.9 3 2.4 4.4.7 1.5.7 3 .8 4.4zM74.4 128c1 0 1.1 2.3 1.3 2.8 1.4 2.9 4.5 2.8 7.7 4.6.8.5 1.2 1.7 2 2.4 1.8 1.8 6.5 4.3 9.5 3.7 2.8-.6 2.7-4.6 4.8-6.7 1.6-1.5 4.2-1 6-2.5 1.5-1.3 2.3-4.3 1.5-6.4-.7-1.7-3.1-3-3.4-4.9-.3-2.2 1-3.5 1.3-5.3.6-3.5-1.7-7-4.4-8-3.1-1.1-5.6-.6-8-.1-1.8.3-3.6.5-5.2.8-3.4.7-5.8 3-9.2 3.3-.3-.3-.5-.7-.3-1.4-4.6 1.5-11 1.2-16.9.7-2-.2-4.1-.6-5.8.1 4 3.2 12.8 2.8 18.6 4.8 3 1 2.4 6.1.1 7.6-2.9 2.1-10.5.9-14.8.8-1.4 0-3.3-.4-4 .8.9 1.2 2.8 1.3 4.4 1.7 5 1.2 10.3 2.6 14.5 4.1-.2-.8-1.1-2.9.3-2.9z"/><path class="st0" d="M100.3 119.5c-.5 2-1.3 3.7-2.5 5 1.4 1.7 2.5 3.6 2.3 7-1-1.9-1.4-4.4-3.6-5.2-1.9 1.5-3.1 3.8-6.2 4.3-.1-.6.6-.9 1-1.3 1.3-1.4 3.8-3.6 3.5-6.4-.2-1.9-1.6-3.6-2.7-4.9-.3-.3-.9-.6-.8-1.2 3.1.6 5.4 2.2 5.2 6 2.2-.2 2.7-2.1 3.8-3.3zM254 29l1.8 1.2c2.8 2.5.5 5.9 1.8 8.6.6 1.3 1.7 2.1 2.3 3 .7 1.1 1.6 2.6 1.6 4 .1 3-3.1 8.1-5.8 10.1-1.2.9-2.8 1-4.2 1.9-3.3 1.9-6.6 5.6-10 9.1-3.6 3.7-7 7.8-9.4 11.7-.7 1.1-1.1 2.6-2.3 3.3-2.5-1.3-.9-3.9-.4-5.7 1.2-4.2 2.3-7.9 3.3-12.4.4-1.8 1.3-4.8-.1-5.8-1.6-1-4.2 1.7-5.4 3.4-1.6 2.2-3.1 5.1-4.8 7.7-1.1 1.6-3.7 6.2-5.4 5-1.1-.7.1-3.6.6-5.3 1.7-5.7 4-11.2 5.5-16.7.9-3.6 1.2-7.3 2.2-10.8 1-3.6 1.7-7.3 2.7-10.9.4-.7.9-1.3 1.2-2 .6-.5 1.4-1.3 2.1-1.7 3.4-1.8 7.5-2.3 11.4.4.6.4 1.3 1.2 2.1 1.6 1.2.4 3.4-.6 4.9-.6 1.6-.1 3 .5 4.3.9zm-14 32.1c.4-.9 2.5-.1 3.1-.1 3.1-.2 4.3-3.2 7.1-5.6.7-.7 1.9-.4 3-1 2.3-1.1 6.3-4.5 6.8-7.7.4-2.9-3.3-4.4-4.3-7.1-.8-2.2.6-4.4-.1-6.7-.6-1.9-3.1-3.9-5.3-3.9-1.8-.1-3.9 1.9-5.7 1.3-2.1-.6-2.8-2.3-4.3-3.3-2.9-1.9-7-1.2-9 1.2-2.1 2.5-2.5 5.1-3.1 7.6-.4 1.8-.9 3.6-1.2 5.4-.6 3.5.6 6.7-.4 10.1-.4.2-.9.2-1.3-.2-.4 4.9-3 10.9-5.6 16.4-.9 1.8-2.1 3.6-2.1 5.5 4.3-2.6 7.2-11.1 11.2-15.9 2.1-2.5 6.4 0 7 2.8.8 3.6-3.1 10.3-4.7 14.4-.6 1.4-1.6 3-.8 4.2 1.5-.4 2.2-2.2 3.1-3.6 3-4.3 6.2-8.8 9.1-12.3-.7-.2-3-.2-2.5-1.5z"/><path class="st0" d="M243.2 30.9c1.3 1.6 2.3 3.2 2.8 4.9 2.1-.3 4.3-.1 7 1.9-2.1-.1-4.4-1.2-6.2.2.3 2.5 1.6 4.8.2 7.7-.5-.2-.4-1-.5-1.6-.4-1.9-.9-5.3-3.5-6.6-1.7-.8-3.8-.6-5.5-.4-.4.1-1.1.4-1.3 0 2.2-2.3 4.7-3.3 7.8-1.2.9-1.9-.3-3.4-.8-4.9z"/><path class="st1" d="M42 255.9l.4-2.7c-.1.6-.3 1.5-.4 2.3v.4zm11.6-75.4c-1.8 0-4.9-.4-6.5.5 2.4-.2 3.2.5 5 .5.1-.6 1.6-.3 1.5-1zm-11.7 75c0-.3-.1-.7-.2-1h.2c.2-.7.4-1.4.5-2.1v.9c.1-.4.1-.7.2-1.1 2.3-10.1.7-19 7.2-25.8 6-6.2 18.3-6.7 27.5-10.4 6.2-2.4 9-8.6 11.9-13.9 1.6-2.9 3.8-6.4 4.1-9 .6-5.6-4.1-10.7-5.8-11 .7.9 1.9 1.2 2.3 2.6-2.1-.9-4.2-2.6-5.4-3.6-1.8-1.5-4.4-2.4-4.8-5.4 2.6 1.2 4.8 5.4 7.2 5.6-3-1.2-10.8-12.2-12-5.4.9-1.5 1.6 2 2.8 2.8-.2-.8-.5-1.5.3-1.8 4.3 4.4 9.1 5.2 12.6 10.8-3.8-3-8.4-7.2-13.1-7.2 4 3.5 15.5 5.7 12.1 13.3-1.5 3.6-5 8.9-7.9 12.9-4.6 6.2-15.2 6.1-23.7 8.8-5.2 1.7-9.2 5-12.8 6.9 1.4-14.2 5-27 7.1-40.8-2.3 10.5-5.2 21.8-7.1 32.4-.7 3.7 0 8.5-3 10.7 1-6.3 2.4-12.1 3.6-17.8.1-.4 1.4-5.9.5-3.6-1.2 3.4-1.8 8-2.8 11.7-1 4.4-1.2 12.3-7.1 13.4 1.3-2.7 3.5-7.9 3.6-9.5-1.8 3.4-2.7 8.4-6 10.7-.8.6-2.2.5-3.2 1.1-3.4 2-6.8 5.7-9.1 8.1-7.3 7.3-15 13.6-21.6 20.5v23.3c2.9-2.5 10-8.9 11.3-10.1 4.4-3.9 8-8.8 11.5-13.5l1.2-.3c-2 6.8-2.2 21 1.9 26.4 7.7.5 14-19.7 16-29.6zM26 239.6c-.7-.2-.2.1-.8-.5.8-3.1 6-3.5 5.9-7.3 1.1.1.4 1.2 1 1.2.2-.2.4-.4.9-.6-.2-.8-.8-1.1-1.6-1 1.3-.5 3.9-1.1 3.8-.2 2-1.8 8.2-4.5 9.6-7.5l.5 2c.3-2.3 2.3-3.6 4.4-4.9-.5-.9-.6.5-1.3.3 1.1-2.4 6.5-1.6 7-3.8.7-.3.4 1.1.7 1.6 1-2.1 3.3-3.1 5.5-1.7-.1-.5-.1-1.3-.6-1.2 7.3-.1 15.5-3.8 20.2-6.6 2.8-5.4 7.5-12.1 10.3-17.6-.9.6-.4-1.6-1.1-3.2.6 1.1.9 2.1 1.1 3.2.8 5.5-3.6 10.9-6.7 16.5-4.9 8.6-14.2 8.1-26.1 12.1-3.9 1.3-10.6 4.5-11.4 7.2-.1.3.6.2.7.2-3.5 2.4-7.6 5.4-8.8 9.4-1.2 3.9-4.7 6.3-7.3 9.7-2.8-1.1-6.4-4.3-5.9-7.3zm73.8-16.2c.1-.1.4-.3.5-.5-.1 0-.1.1-.2.1-.1.2-.1.3-.3.4zm-8.8-28c-1-.1-1.4 1.8-2.1 2.9-2.3 3.9-5 8.1-6.8 11.6 3.5-3.3 6-9.8 8.9-14.5zm-37.9-15.5c3.2-.3 7.6-.3 10.1-1-3.1.3-7.4 0-10.1 1zM48.2 168c-.2-1-1-.8-1.1-1.8 4.3-.3 4.9-7.4 2.9-8.8 0 .2-.2.5-.5.5-2.2-1.4-3.6 3.2-4.8 3.2-.1-.2-.2-.7-.5-.6.9 3.6 1.7 6.7 4 7.5zm-4.3-9.3c-1.9 1.1-.3 4.7 1 5.7-.3-2-1.4-4.3-1-5.7zm-.1-3.1c1.3-2.6 4.2-4.3 6.4-6.4-2.8 1.5-6.9 3.8-6.4 6.4zm-3 60.8c-.6 2-.4 1.4 0 0 .1-.1.1-.1 0 0zm1.4-4.4c-.2.8-.8 3-1.3 4.4 1.1-.9 1.5-3.7 1.3-4.4zm11.5-53c0-1.3 1.1-3.2 0-4.2.1 1.4-.6 3.7 0 4.2zm2.8 21.6c-.5.1-.9.2-1.4.3.4-.2.9-.3 1.4-.3zm-9.9-.5c2.2.3 5.2-1 6-2.5 6 .7 16-2.8 16.2 5.7-1.1-5.6-7.7-3.9-12.3-2.9 6.5-1.3 13.3-.5 12.4 7.4-.2-.4-.1-.9-.6-.9.2 1.3 1.3 2.4 0 1.4.2 2.1.7 2.1.7 4.3 0-.5-.8.4-.7 1.2 0 1 .1 3.1.9 3.9-1 .3-3.9 4.8-1.9 5.3-.6-.9-.7-1.8.1-2.5.2.4.4.1.7-.2.1.8.5 1.4 1 1.5.7-.6-.8-.8 0-1.4 0 1.1 1.2.2 1.3 1.1-.6 2-2.2.5-2.9 2.4 1.6.4 3.2-.6 3.4-1.9-.1-1.7-1.2-1.7-1.4-3.1-.3-6.2 3.2-12.6 1.3-17.9-2.5-6.5-10.6-3.9-17.6-4.4.3-.9 1.3-2.9.5-3.6-.5 1.2 0 3.1-1.1 4.1-1.2-.1-.3-1.2-1-1.5.3.8-.3 1.1-.7 1.5-6-1-8.4-2.8-14-6.6-4.6-3.1-11.9-6-13.7-11.2-1.6-4.6-6.5-7.5-9.5-9.4-5.4-3.6-8.8-5.3-13.5-8L0 162.3c9.9 6.9-5.9-2.6 5.3 2.2 2.9 2.2 9.2 4.6 12.8 4.5 6.2 0 9.2 3.1 13.6 5.1.6.2 1.7-.1 2.1.2-.1-.1.3 1 .6 1.2 3.5 2.4 8.3 4.3 12.2 5.1-8.1-3.4-15.3-8.2-23-12.4 0 .5.8 1.6.1 1.7-1.3-2.5-7.1-4.9-10.3-2.7 1-.3 2.7-.7 1.9.6 2.5-1.2 5.4.3 7.3 1.4-3.7-2.5-10.8.6-12.8-4.5-.9-.4-1.9-.6-2.4-1.5-.9-4.3-.1-5.6 1.7-7.4 1.4 1.7 1.9 2.3 2.6 4.9l3-.7c.7-1-.1-2.8 1.3-3.4.9 2.1-.1 2.8 1.7 4.1-.5.1-.8 0-1.1-.1 1.8 2.6 5.7 3.5 8.1 5 7.7 4.7 15.4 12 26.5 12.6-.9 1-4.6.3-4.6 1.9zm-30.1-23.5c.9-.7 2.2 1 2.2 1.9-1.2.1-1.3-1.6-2.2-1.9zm46.2 14.2c15.6-6.1 4.8-29.1-11.2-23.5-1 .3-2.2 1.2-3.6 2.3 1.9.2 2.2-1.1 3.8-1.6 5.2-1.5 10.1 1.8 13.1 3.1-.7-.5-2.8-1.2-2-2.6.9.7.6 1.2 1.1 1.8 10.1 3.9 5.6 21.1-5.4 20.6.4-.2.9-.1.9-.6-1.1.2-3.2 1.7-2 .1-1.9 1.4-5-1.3-7.2-1.4 1.4 1 3.3 1.3 5 1.9-1.1.4-2.6-1.2-3.4.1 2.5-.7 1.9 3.2 2.9.7 2.5.2 5.1.2 8-.9zm-5.3-23.3c-.8-1.4 2.9.4 3.9.4-.9 1.1-2.2-1.2-3.9-.4zm-42 17.7c-1.4-.7-1.9-2.2-3.8-2.9.1 1.2.6 2.3 1.5 3.5.1-1.2 3.3.2 2.3-.6zm34.4-7.9c.1.1.2.1.3.2 0-.2-.1-.2-.3-.2z"/><g id="Режим_изоляции"><path class="st1" d="M535.6 572.7c-.5-1.5-1.1-2.9-1.4-4.5-.7-3.2-1.9-6.3-3-9.3-.6-1.4-1.1-2.9-1.7-4.4-.6-1.7-1.3-3.3-2.1-4.9-4-9.2-8.8-18-13.2-27-2.6-5.3-5.2-10.5-8-15.7-1.7-3.2-3.4-6.5-5.2-9.7-1.7-3.1-3.3-6.2-5-9.2-1.5-2.8-2.8-5.8-4.7-8.4-.8-1.1-1.1-2.4-1.7-3.6-2-3.8-3.9-7.6-6.1-11.2-2.3-3.7-4.5-7.5-7.3-11-2.6-3.3-5.4-6.5-8.2-9.6-1.9-2.2-4.2-4.1-6-6.4-2-2.5-4.5-4.5-6.5-6.9-2.7-3.4-6.1-6.1-8.8-9.3-1.8-2.2-4-4.1-5.8-6.3-1.6-2-3.4-3.7-4.7-6-.7-1.2-2-2-2.6-3.3-.9-1.9-2.1-3.7-2.7-5.9-.3-1.4-.8-2.8-.9-4.2-.1-3.9-.1-7.9 0-11.8.1-2.2.4-4.5 1-6.6.6-2.2 1.1-4.5 1.9-6.7.7-2.1 1.5-4.2 2.3-6.3.2-.5.7-1.4.5-1.6-.7-.7.1-1.1.1-1.6.3-2.9 1.5-5.7 2-8.6.2-1.2.9-2.3 1.4-3.5.4-1 1-1.9 1.1-2.9.2-1.1 1.2-1.6 1.6-2.5s.8-1.8 1.2-2.6c2-3.9 3.5-7.9 4.8-12l.9-3.3c-.6-.5-1.5-.6-2.4-.8-2.1-.4-4.3-.6-6.3-1.6.2-1.4 1.4-1.7 2.3-2.2s1.8-.8 3-.1c1 .5 2.4.4 3.6.6.2 0 .4.3.6.5.1-.3.2-.5.3-.8 1.5-.1 3.1.5 4.4 1.7 1.1.4 2.3-.3 3.5.5.9.6 2.3-.4 3.4.6.1.1.3 0 .5 0 2.3.2 4.6.1 6.8.5 1.9.4 3.8.1 5.6.5 3.2.7 6.5.2 9.7.4 1.4.1 2.7.1 4.1 0 2.2-.1 4.4-.1 6.5-.5 1.9-.4 3.7-.5 5.6-1.1 1.7-.5 3.4-1.1 5-1.9 1.3-.6 2.7-1.4 3.9-2.2 1.9-1.3 4-2.4 6-3.7.6-1.6 1.5-2.9 3.2-3.7.4-.2.8-.6 1-1 .7-1.5 2-2.4 3.1-3.5 4-4 7.1-8.6 9.7-13.6.7-1.4 1.2-2.9 2-4.2.9-1.5 1.2-3.2 1.9-4.8.7-1.5 1-3.1 1.5-4.7.8-2.5 1.3-5.1 2-7.6.3-1.1.4-2.2.7-3.3.5-2.1.8-4.4 1.1-6.6.2-1.5 0-3.2.5-4.6.5-1.6 0-3.2.5-4.6.8-2.7.2-5.3.4-8 .1-1.7.4-3.4.5-5.1.1-1.7 0-3.4 0-5.1 0-1.8-.3-3.6.1-5.3.5-2.4 0-4.7.5-7 .6-3.2 0-6.5.5-9.7.5-3.1 0-6.2.5-9.2.4-2.4 0-4.9.5-7.3.5-2.5 0-5.1.5-7.5.5-2.1.2-4.2.4-6.4-.3-.1-.6-.2-1-.3v-22.8c0-1.8-.2-3.6.4-5.3.2-.4 0-.9 0-1.6-1.2 0-2.4.1-3.6 0-1.1-.1-2.2.3-3.2-.3-.9-.6-2.1.2-3.1-.6-.4-.3-1.3.1-2 .2-.6.1-1.2.2-2.2.4.6-.7.9-1.1 1.2-1.4-2-.2-2-.2-3.9.8-7.7-1.8-14.4 1.3-21.2 3.9v15.1c0 6.2-.1 12.4 0 18.5.1 3.3-.4 6.6-.6 9.9-.1 1.2-.1 2.5-.5 3.6-.4 1.2 0 2.5-.5 3.4-.7 1.2-.1 2.5-.8 3.8-.6 1.1-.2 2.6-.6 3.8-.3.9-.1 2.1-.5 2.6-.6.8-.1 1.7-.7 2.4s-.2 1.7-.6 2.6c-.6 1.3-.4 2.9-.6 4.3-.1 1.1-.3 2.3-.5 3.4-.1 1.1.3 2.4-.5 3.4-.1.2 0 .5 0 .7 0 2.3.3 4.7-.1 7-.4 2.4-.3 4.7-.4 7 0 2.3.1 4.7-.1 7-.1 1.4.6 2.6.5 3.9 0 1.4-.3 2.8.1 4.1.3 1.2.1 2.5.5 3.7.3 1.2.2 2.5.5 3.7.6 2.4.8 4.9 1.4 7.4.4 1.5 1 3 1.6 4.5-1 .8-1.8 1.5-2.6 2.2h-2.1c-.1-.1-.1-.3-.2-.5l-1.8-6.3c0-.1-.1-.3-.2-.4-.2-1.5-.3-3.1-.5-4.6-.1-.9-.3-1.8-.5-2.7-.1-.9.3-1.9-.5-2.7-.1-.1 0-.3 0-.5.1-3.5-.8-6.9-.5-10.4.1-1.7 0-3.3 0-5.2-.7.4-.8.9-1 1.5-1.1 2.3-1.7 4.7-2.5 7.2-.7 2.2-1.6 4.4-1.8 6.7-.8.7-.3 1.9-.9 2.8-.5.8.4 2-.6 2.9-.1.1 0 .3 0 .5-.2 1.6-.4 3.2-.5 4.9-.1 1.7 0 3.4 0 5.2-1 1.3-2.5 2-4.3 2.6-.1-.3-.5-.8-.5-1.2-.1-1.5-.2-3.1 0-4.6.4-2.4.4-4.8 1-7.1.8-2.8 1.2-5.7 2.2-8.5.8-2.2 1.4-4.4 2.1-6.6.3-1 .6-2 1-3 .7-1.7 1.6-3.3 2.5-5.3-.6.3-1 .3-1.2.5-2.3 2.2-3.9 4.8-4.7 7.9-.1.5-.4 1-.8 1.9-1 .9-2 2.8-4.5 2.2.6-2.6 1.4-5.1 2.9-7.3 2.5-3.6 5.6-6.6 9.9-8 .6-.9 1.1-1.8 1.7-2.6v-4.1c-.5.2-.9.3-1.4.5-1.2-1.2-2.7-1.6-4.4-1.6-.8 0-1.6-.3-2.5-.4-.8-.1-1.6.2-2.2-.5-.1-.1-.3 0-.5 0-3.5.2-6.9-.7-10.4-.5-3.4.2-6.9-.2-10.3.1-2.4.3-4.7.3-7.3.4-.4.7-1 1.5-1.5 2.4-1.7 3.4-4.2 6-7.6 7.8-1.1.6-2.1 1.3-3.3 1.9-1.5.8-3.1 1.2-4.8 1.3-.7.1-1.5.3-2.2.5-.7.1-1.5-.2-2.2.5-.3.2-.9 0-1.4 0-1.8 1.8-3.4 3.7-4.8 5.7-.6.8-1.5 1.3-2.3 2-.2.2-.5.4-.7.6-1.7 2.2-4.2 2.7-6.6 3.2-.9.2-1.7.4-2.6.7 0 .2 0 .4.1.9.6-.2 1-.4 1.5-.6.1.2.2.3.3.4-.1.2-.1.4-.2.5-1.6.7-3.2 1.6-4.9 2.1-.4.1-.9.5-1.3.4-2.8-.7-5.8-.7-8.4-2.3-.9-.6-2.1-.7-3-1.5-.8-.7-1.9-.8-2.6-.4-.9.6-1.9.2-2.8.8-.7.5-1.7.4-2.6.6-2.2.6-4.5 1.2-6.7 1.8-2.1.6-4.3.6-6.4 1.4-1.7-.4-3.1.9-5.1.3.7 1.5 1.2 2.6 1.7 3.8 1.4 3.3 2.5 6.7 3.7 10 .3.9.2 1.8.4 2.7.4 1.8.8 3.5 1.2 5.3.1.4 0 .8 0 1.4-.8.5-1.8 1-2.8 1.6-.8-.1-2 .1-2.8-.3-.9-.5-2.1.3-2.8-.7-2.1.1-4-.9-6.1-1-.9-.1-1.7-.5-2.7-.5s-1.9-.3-2.9-.4-2 .2-2.9-.1c-2.5-.7-5-.4-7.5-.4-2.5-.1-5-.1-7.5 0-1.3 0-2.6.4-3.9.4-1.4.1-2.8-.3-4.1.1-1.3.4-2.6.3-3.9.4-2.8.4-5.5 1-8.3.9-1 .7-2.2.2-3.2.5-1.1.3-2.1.2-3.2.5-1.6.3-3.3.5-4.8 1.2-.3.2-.7.2-1.3.4-1.6 1.6-3.5 3.4-5.3 5.3-1.5 1.7-2.9 3.5-4.3 5.2-.2.3-.4.6-.5 1-.9 2.3-2.2 4.4-3.7 6.4-1 1.4-1.4 2.9-1.8 4.3-.5 1.9-.7 3.9-1.1 5.8-.6 2.7-.3 5.3-.4 8s-.3 5.5.1 8.2c.3 2.1.5 4.3 1.3 6.4.3.9.3 1.9.5 2.9.5 2.1 1 4.3 1.4 6.4.4 2.2.8 4.4 1.2 6.5.4 2.5.7 5.1 1.3 7.6.3 1.5.3 3.1.6 4.6.3 1.6.3 3.2.9 4.7.2.6 0 1.3.1 1.9s.5 1.2.4 1.7c-.1.9.6 1.6.6 2.5.6-.2 1.1-.3 1.8-.5 0 .1.3.3.4.5.4 1.1.8 2.3 1 3.4.2.9.3 1.8.4 2.7.4 2.1.5 4.2.5 6.3 0 3.9.9 7.7.5 11.6 1 3.1.5 6.3.4 9.4 0 3.3.9 6.6.5 9.9.7 1.6.2 3.3.6 4.8.4 1.6 0 3.2.5 4.6.5 1.5 0 3 .4 4.4.6 1.9.1 4 .5 5.8.5 2 .1 3.9.5 5.8.5 2.4.1 4.9.5 7.3.5 2.4-.1 4.8.5 7 .6 2.8.2 5.7.5 8.7 2.7 1.5 5.9 1.5 9.1 2.1v.8l-.5.5c-.3.1-.7 0-.9.2-1 1-2.2 1.2-3.6 1.3-1.4.1-2.7-1.1-4.1-.2-1.4-.7-3-.2-4.4-.3-.2 0-.5.3-.8.5-.2-.9-.2-2.2-1.7-1.9-1.9-.9-4-1.1-5.9-1.3-2.7-.4-5.1-1.2-7.5-2.3-2.1-1-4.1-2.1-6.1-3.2-2.7-1.5-5.3-3.1-7.4-5.4-1.8-2-3.7-3.9-5.5-5.9-2-2.1-3.3-4.6-4.5-7.1-.7-1.4-1.2-3-1.8-4.6-.6-1.6-1.3-3.2-1.9-4.8-.6-1.8-1.3-3.7-1.8-5.5-.3-1.2-.1-2.4-.5-3.4-.4-.9-.2-1.7-.4-2.5s-.5-1.6-.5-2.5c0-1.2-.3-2.5-.5-3.6-.3-1.3-.7-2.6-.8-4-.1-1.4-.9-2.7-.6-4.1.1-.3-.3-.7-.3-1.1-.1-2.9-.1-5.7-.1-8.6 0-.7.1-1.3.3-2 .3-1.4.8-2.7 1.2-4.1.6-2.4 1.9-4.6 3.1-6.7 1.3-2.3 3.4-3.9 5.2-5.8.2-.2.5-.2.6-.2.7-1.2 1.2-2.3 1.9-3.5.4.6.8 1.1 1.1 1.6 2.5-1.7 4.9-3.5 7.9-4 0-1.9.4-3.8-.1-5.4-.6-1.8.1-3.5-.7-5.2-.4-.9 0-2.2-.1-3.3-.1-1-.5-2-.4-2.9 0-1.1-.5-2.1-.5-3.2.1-1.5-.3-2.8-.7-4.1-.4-1.4-.4-2.8-.8-4.2-.8-2.7-1.5-5.5-2.4-8.2-.7-2.1-1.5-4.2-2-6.4-.7-2.7-1.5-5.5-2.8-8-1.1-2.3-2.6-4.6-3.5-7-1.2-3.4-2.8-6.6-4.6-9.6-2.6-4.4-5.7-8.5-9.4-12s-7.1-7.4-11-10.6c-1.2-1-2.4-1.9-3.8-2.6-1.4-.8-2.9-1.1-4.2-2-4.2-2.8-8.7-4.9-13.1-7.3-2.4-1.3-4.8-2.6-6.9-4.4-.8-.7-1.8-1-2.5-1.4-.5-.5-.9-.9-1.4-1.3-1.6-1.2-3.3-2.3-4.8-3.6-3.6-3.1-5.7-7.3-8.1-11.4-.1.3-.2.5-.1.7 0 1.6.1 3.1.4 4.6.4 1.7-.1 3.6.3 5.2.5 1.7-.3 3.6.7 5.2-.1 2.2.4 4.4.9 6.6.2 1 .2 2 .4 2.9s.7 1.8.6 2.7c-.2 1.1.5 1.9.5 2.9 0 .6.4 1.1.4 1.7.1.6-.2 1.4.1 1.9.7.9 0 2 .4 2.7.6.9.4 1.8.4 2.7 0 .6-.2 1.4.1 1.9.5 1 .4 2 .5 3 .1 1.1.3 2.1.5 3.2.2.9.4 1.7.7 2.6.6 2.2 1.9 4.2 1.7 6.5.9.8.1 1.9.5 2.7.5 1 .4 2 .4 3 .1 1.5.8 2.9.5 4.4.7.9.2 2.1.5 2.9 1 2.2.8 4.6 1.3 6.9.4 1.7-.3 3.6.5 5.3-.3 2.9.7 5.7 1 8.5.1 1.2.2 2.5.5 3.6.2.9.1 2 .5 2.7.6 1 .2 1.8.4 2.7 0 .2.3.4.3.6.5 2.3 1.1 4.5 1.6 6.8.2.9.1 1.8.4 2.7.3.9-.1 2 .6 2.9-.1 2.6 1.1 5.1 1 7.8 0 .2 0 .5.1.7.8 1.2.5 2.7.3 3.9-.2 1.2-.5 2.2 0 3.5.4 1 .1 2.2.5 3.4.3 1.1.5 2.5.5 3.6 0 3.1 1.5 5.9 1.5 9 1 .9.2 2.2.9 3.3.6.9.4 2.2.6 3.4.1.6.4 1.1.5 1.7s-.1 1.3.1 1.9c.5 1.5.9 3.1.9 4.7 0 .3-.1.8 0 .9.7.7.3 1.5.5 2.2.1.8.4 1.6.5 2.5.2 1.9.3 3.7.5 5.6 0 .2 0 .3.1.5 1 2.3.8 4.8 1.4 7.1.3 1.3.1 2.8.6 4.1.3.9.1 1.9.5 2.7.5.8.3 1.5.4 2.3.1.8.3 1.6.5 2.5.2.7.4 1.5.5 2.2.2 1.5.1 3.1.6 4.6.3 1.2.1 2.4.5 3.4 1 2.5.7 5.1 1.3 7.6.3 1.4-.2 3 .5 4.4-.3 2.1.8 4 .4 6.1h4.7c.5 0 1.1.2 1.6.2 1.9.3 3.2 1.5 4.3 2.9v2.1c-1.2 2.8-3.1 4.5-5.8 5.5 0 .5-.2 1.2 0 1.6.7 1.4.4 2.8.4 4.2v9.2c0 2.6-.1 5.1 0 7.7.1 2.5.3 5 .5 7.5 0 .2-.1.4 0 .5 1 1.3.1 2.9.7 4.3s.1 3 .3 4.5c0 .1.1.3.2.4.9 0 1.8-.1 2.6 0 .9.1 1.8.4 2.7.6-.1.1-.2.2-.3.2.6.3 1.1.6 1.9 1-2.1 2.3-4.6 2.9-7 3.7v6.1c1.6.2 3.1.4 4.7.6l.6.9c-1.4 1.8-3.4 2.2-5.4 2.4v7.1c-.5.4-.9.8-1.4 1.3l.3.3h8.2c.3.4.5.7.8 1-2 2.2-4.3 3.3-7.2 3.3h-6.3c.4 2 1.4 3.6 1.3 5.6 0 1.1.6 2.2.8 3.3.4 2.1 1.5 4 1.5 6.1h-3.9c-.1-.5-.1-1-.3-1.6-.8-2.4-1.7-4.9-1.7-7.5 0-.4-.3-.8-.4-1.3-.4-1.5-.8-3-1.2-4.6-1.2 0-2.4-.1-3.6.1.3 1.7.7 3.1.9 4.6.2 1.4.6 2.8.8 4.2.4 2.1 1.1 4 1.6 6.1h-3.9c-.3-1.2-.6-2.5-1-3.7-.4-1.3-.7-2.7-.9-4-.3-2.3-.7-4.5-1.2-6.8-1.4.2-2.8.3-4.2.5-1.3.3-2.4 1.3-3.8.8-.1-.4-.2-.6-.3-.9h-2.6c-.2-.4-.5-.7-.8-1.2 1.4-1 2.7-2 3.8-2.9-.4-2.2-1.5-4.3-1.2-6.7-1.4-.9-2.8-1.6-4.7-1.8 1.1-1.5 2.6-1.7 3.8-2.5-.2-1.3-.5-2.7-.7-4l-.5-.5c-1.7-.1-3.4.1-5.5-.2.8-.9 1.2-1.6 2.1-1.8.6-.2 1.1-.6 1.5-1 .6-.6 1-1.4 1.4-2-.1-.5-.2-.9-.2-1.3-.2-1.8-.1-3.6-.6-5.3-.3-1-.3-2-.4-3-.1-1-.4-1.9-.5-2.9-.1-1.5.1-2.9-.4-4.4-.4-1.2 0-2.5-.1-3.8-.1-1.2-.4-2.4-.5-3.7-.2-3-.3-6-.5-8.9 0-.2.1-.4 0-.5-.9-.9-.1-2-.5-2.9-.4-1-.4-1.9-.4-2.6-.5-.6-.9-1-1.3-1.5h-7c-.4-.2-.7-.3-.9-.5-1.1-.7-2.4-1-3.2-2.1-.8-1-1.8-2.1-.6-3.5-.1-1.2.8-2.1 1.2-3.1.5-1.3 1.4-2.2 2.7-2.7 1-.4 1.9-.8 2.9-1.2.7.3 1.5.6 1.7 1.4 1.5-.4 3-.7 4.7-1.1-.3-1.3-.4-2.8-.8-4.1-.6-1.9-1.3-3.7-1.6-5.6-.3-2.2.2-4.4-.5-6.5-.3-.9.2-2-.4-3-.5-.9.3-2.2-.6-3.1.3-1.1-.4-1.9-.5-2.9-.1-.9-.3-1.8-.5-2.7-.2-1-.1-2-.5-2.9-.5-1-.2-2-.5-2.9-.7-1.9-.7-3.8-1.3-5.7-.4-1.4 0-3.1-.6-4.3-.7-1.4.2-3-.9-4.2-.2-2.7-.4-5.4-.9-8-.2-1.4 0-2.8-.5-4.1-.3-.9-.2-2.1 0-3.1.2-1.2-.5-2.1-.5-3.2-.1-1.9.1-3.9-.4-5.8-.4-1.6 0-3.4-.1-5s-.3-3.2-.5-4.9c-.3-3.6.2-7.2-.4-10.9-.4-2.3-.8-4.6-.6-7 .1-1.2-.1-2.4-.3-3.7-.3-1.2-.6-2.5-.6-3.9-.1-1.4-.3-2.8-.5-4.1 0-.3.1-.8-.1-.9-.8-.8 0-1.9-.5-2.7-.6-1-.3-2-.4-3-.1-1.6 0-3.3-.6-4.8-.4-1 0-2.1-.5-2.9-.4-.7-.3-1.3-.4-2-.1-.7-.4-1.5-.5-2.2-.2-1.5-.1-3-.5-4.4-.9-2.6-.7-5.4-1.4-8.1-.4-1.4-.1-3-.6-4.3-.4-1.1 0-2.3-.5-3.1-.5-.9-.1-1.8-.4-2.5-.5-.9-.4-1.8-.4-2.7-.1-1.5-.1-3-.6-4.4-.2-.8-.3-1.5-.4-2.2-.1-.7-.4-1.5-.5-2.2-.2-1.5 0-3.2-.6-4.6-.6-1.3-.1-2.5-.8-3.8-.6-1.2-.3-2.7-.6-4.1-.3-1.1-.1-2.4-.5-3.4s0-1.9-.4-2.7c-.5-.9-.4-1.8-.4-2.7 0-.3.1-.7-.1-.9-.6-1.5-.6-3.1-.9-4.7-.2-1.3-.3-2.7-.6-3.9-.3-1.2-.3-2.3-.3-3.5-.1-1.2-.6-2.2-.6-3.4.1-1.5.5-3.1-.4-4.6.1-2.4-.3-4.7-.4-7-.1-1.9-.6-3.6-.7-5.5-1.9.4-2.6 1.9-3.7 3.1-2.9 3.1-5.9 6.2-9 9-1.4 1.3-2.8 2.6-4.1 4.1-1.8 2.1-3.8 4-5.6 6.1-2.5 2.9-5.4 5.5-8.6 7.7-2 1.4-4 2.8-5.9 4.3-1.8 1.3-3.6 2.6-5.3 4.1-1.9 1.6-3.5 3.6-5.6 5.1-2.6 2-4.9 4.4-7.3 6.8-1.1 1.1-2.1 2.3-3.1 3.5-1.1 1.2-2.2 2.4-3.2 3.7-.8 1-1.4 2.2-2.1 3.2-1.6 2.4-2.7 5.2-4.1 7.7-1.1 2-1.5 4.2-2.1 6.3-.5 1.7-.4 3.5-.5 5.3 0 .4.1.9-.1 1.2-.8.9-.2 1.8-.4 2.7-.2.9-.5 1.8-.5 2.7.3 6.4-.8 12.8.9 19.1.4 1.5.3 3.1.5 4.6.1.6.4 1.1.5 1.7s-.2 1.4.1 1.9c.9 1.7.8 3.7 1.3 5.5.8 2.5 1.2 5.1 2.3 7.5.7 1.5 1.1 3.2 1.5 4.9.7 2.8 1.3 5.7 2.6 8.4h10.1c.7 0 1.3.1 2 .3 2.5.7 4.5 2.2 6.9 3.2.7.3 1.3.8 1.8 1.3 4.1 3.5 7.2 7.9 9.8 12.5 1.8 3.3 4 7.5 4.4 11.7.7 1 .6 2.1.9 3.2.3 1.1.4 2.3.5 3.4.1 1.2 0 2.4 0 3.6 0 3.3-.2 6.6 0 9.9.2 3.9-.7 7.5-1.6 11.2-.5 1.8-1.2 3.7-1.8 5.5-.7 1.8-1.2 3.7-2 5.5-.7 1.8-1.7 3.5-2.5 5.2-1.6 3.3-3.6 6.3-6.3 8.7-1.5 1.3-2.8 2.9-4.3 4.2-1.6 1.5-3.3 2.7-5.2 3.7-2.7 1.5-5.5 2.8-7.9 4.9-2.5 2.1-5.3 3.8-7.9 5.6-.1.6 0 1.2-.2 1.7-1.3 2.8-1.5 5.9-2.7 8.8-.4.8-.3 1.8-.5 2.7s-.7 1.8-.9 2.7c-.2.9-.3 1.8-.6 2.6-1.5 3.5-1.8 7.3-2.7 10.9-.6 2.4-.5 5-1 7.5-.3 1.4 0 2.9-.1 4.3s.2 2.7-.3 4.2c-.5 1.2-.1 2.8-.1 4.3v17.6h-4.3c0-4.7-.1-9.5 0-14.2s-.5-9.4.4-14c.3-1.5-.4-3.1.5-4.6-.4-1.6.5-3.1.5-4.6 0-1.1.3-2.3.6-3.4.3-1.2.7-2.3.9-3.5.2-1.2.7-2.3 1-3.4.2-1.2.5-2.4 1-3.4 1.4-3.6 1.8-7.4 3.3-10.9.1-.3-.1-.7-.2-1.1-.7.4-1.2.7-1.8.9-2.9 1.3-5.5 3.2-8.8 3.1-.7.8-1.8.1-2.4.5-1 .8-2.1.1-3 .5-1 .4-2 .5-2.9.4-1.1 0-2.2 0-3 .8v10.4c0 .5.1 1 0 1.4-.9 2.2-.7 4.6-1.4 6.9-.4 1.2-.1 2.6-.5 3.9-.4 1.2-.3 2.6-.5 3.9-.4 2.9-.4 5.8-.6 8.7v2.4c-.1 2.1.5 4.1 1 6.1.3 1.2.6 2.3.9 3.5.5 1.7.8 3.5 1.6 5.1.7 1.5 1.2 3.2 1.7 4.8h-5.3c-1.1-2.2-1.9-4.5-2.4-7-.5-2-1.2-3.9-1.6-5.9-.3-1.6-.6-3.1-.8-4.7-.4-3.1.7-6.1.5-9.2.7-1.4.2-3 .6-4.4.4-1.5 0-3.1.5-4.4.5-1.4.2-2.8.8-4.3.6-1.5.2-3.3.6-4.8.8-2.7.3-5.3.4-8 0-1.5-.4-3.1-.6-4.6 1.7-1.4 3.3-2.3 5.3-2.7 1.9-.4 3.8-1 5.9-1 .8 0 1.6-.3 2.4-.5s1.7.3 2.5-.3c.7-.5 1.7.3 2.4-.5 2.3 0 4.3-1.1 6.4-2.2.3-.7.8-1.3 1.7-1.8 2.9-1.7 5.9-3.4 8.1-6 3.2-3.7 6.2-7.6 8.5-11.9 1-1.9 2.1-3.8 3.3-5.6 1.8-2.8 3.1-5.8 4.1-8.9.9-2.7 1.9-5.3 2.9-8 .5-1.3.8-2.7 1.5-4s.6-2.8 1.4-4c.2-.3 0-.8 0-1.2v-7.7c0-1.1-.4-2.3-.4-3.4-.1-1.2.2-2.5-.1-3.6-.6-2.3-.6-4.6-1.4-6.9-.8-2.2-1.3-4.4-2.3-6.5-.7-1.6-1.2-3.3-2-4.9-1.2-2.5-2.7-4.8-4.6-6.7-1.8-1.8-3.8-3.5-6.3-4.5-1.2-.5-2.4-.9-3.7-1-2.3-.1-4.5-.7-6.8-.6-2.3.2-4.7-.1-7 .1-3 .3-6.1.2-9.1 1.3-.7.3-1.6 0-2.6 0-.5-1.9-1.1-3.8-1.5-5.8-.3-1.8-.9-3.5-1.5-5.2-.5-1.6-1.1-3.3-1.4-4.9-.6-2.6-1.1-5.2-1.5-7.8-.2-1-.4-2.2-.9-3.2-.7-1.7-1-3.5-1-5.4v-21.2c0-2.4.5-4.7.9-7.1.4-2.5 1-4.9 1.7-7.3.9-3.2 1.9-6.4 4-9.2.5-.6.8-1.4 1.2-2.1 1.2-2.3 3.1-4.1 4.9-5.9 2.9-2.9 5.6-5.9 8.8-8.3 2.8-2.2 5.8-4.2 8.7-6.3l6.3-4.5c2.5-1.8 5-3.8 7.6-5.6 1-.7 2-1.3 3-2.1 1.2-.9 2.3-1.9 3.3-2.7.7-1.8-.1-3.3-.4-4.7l-.3-1.8c-.1-.6-.4-1.1-.5-1.7-.1-2-.7-3.9-1.5-5.6-.7-1.5-.9-3-1.3-4.5-.3-1-.4-2.1-.6-3.2-.1-1-.2-2-.4-2.9-.4-2.1-.5-4.3-1-6.3-.4-1.8-.8-3.7-1.3-5.5-.2-.8-1-1.2-1.1-1.9 3.2-2.9 6.4-5.8 9.7-8.7-.1-1.4 0-2.6-.4-4-.4-1.3-.1-2.7-.1-4.1 0-1.1.1-2.3 0-3.4-.3-3 5.4-25.3 6.3-27.3.2-.5.3-1 .5-1.5 1.4-3.1 1.3-6.4.8-9.5-.6-3.9 0-7.8-.4-11.4 1.7-7.3 7.3-15.6 7.8-17.2.5-1.7 1.7-3.3 1.7-5 .8-1.4 1-2.1 2.5-2.9h1.8c1.7 1.5 2.2 3.9 3.4 5.8 1-.3 1.4-1.2 2-1.6.7-2.8-.4-5.2-.9-7.7-.3-1.6-.6-3.1-.9-4.7-.5-2-.1-4.1-.5-6.1-.5-2-.2-3.9-.4-5.8-.9-.9-1.9-1.7-3.1-2.3-2-1-3.9-2.3-5.7-3.7-1-.8-1.6-1.9-2.2-2.9-1.3-2.2-2.8-4.4-4.6-6.3l-1.8-2.1c-.9-1.1-2.2-2-3.5-2.5-.9-.3-1.8-.8-2.7-1.1-1-.4-2-.8-3-.1-.3.2-.9 0-1.8 0 1.5-1.2 1.7-2.7 3.2-3.4 1.2-.6 1.3-2.2 1.6-3.4.4-1.8.7-3.7.6-5.6-.1-1.9 0-3.8 0-5.9-1.8-1-3.6-.2-5.6-.6-1.3-.9-2.2-2.5-3.1-4.1 0-.8.1-1.8 0-2.8-.1-.8-.4-1.6-.6-2.3 1.3-1.6 2.9-2.6 5-2.9-.3-1.8-.6-3.5-.9-5.5 0 0 .2-.2.3-.4-1.8-.9-3.8-.8-5.8-.8-1.9 1.2-3 1.3-7.2.9-1.4-.8-1.8-2.3-2.1-3.5-.3-1.2-.5-2.6.2-3.9.3-.5.2-1.3.1-1.9-.2-1.1.4-2.1.7-3.1.3-1.1 2.3-2.5 3.7-3 2.2-.8 4.5-.4 6.8-.5.4 0 .8.2 1.2.3l.1-.1v-18c-.9 0-1.9.3-2.5-.1-.9-.5-1.7-.3-2.5-.4-.8-.1-1.6-.3-2.5-.5l-2.1-2.1c.1-2.3-.3-4.7.9-7.6.8-.6 1.9-1.9 3.3-2.7 1-.6 2.2-1.1 3.4-1h2.1v-8.2c0-1.8.5-3.6 1.1-5.1.8-1.8 2.3-3.4 4-4.5s3.4-2.3 5.4-2.6c1.6-.3 3.1-1.4 4.8-.3 1.1-.2 2.2-.4 3.4-.6.4-.1.9-.3 1.3-.3.8-.1 1.8.3 2.5-.5h.2c.7.2 1.3.4 2 .5.8.1 1.6-.1 2.4 0 .6.1 1.2.5 1.9.7 1.9.7 2.7 2.5 3.8 3.9.4 2.4 2 4.5 2.4 7 1 1 .1 2.4.9 3.5.4.5.4 1.4.6 2.2 3-.2 5.8-.4 8.7-.6 1.5 1.1 2.9 2.1 4.4 3.2-.2 1.7-.4 3.3-.5 4.8-1.6 1.6-3 3.3-5 4.2-2 .8-4.1 1.2-6.3 1-.7-.1-1.5.3-2-.5-1.2 1.8-2.3 3.5-3.6 5.4 1.2 4.1 3.1 8 5 12 .9-.2 1.9.3 2.7-.3.7-.6 1.7.2 2.5-.5.3-.3.9-.2 1.4-.2h4.6c1.6 0 3.2 0 4.7-.9.4-.2 1.1-.1 1.5-.1.9.8 1.2 1.7 1.2 2.8.1 1.1.5 2.2.5 3.4 0 1.3-.5 2.2-1.3 3.1-1.5 1.5-3.3 2.5-5 3.6-2.1 1.3-4.5 2-7.1 2.2 1 2.6 2 5.3 3.1 8.1h6.7c.7-1.1 1.9-.2 2.8-.7.8-.5 2-.2 2.9-.3 1.3 1.1 1.9 2.3 1.8 4-.1 1.5 0 3 0 4.5-1.5 3-6.3 5.7-10.5 5.7.4 2.6.7 5.3 1.1 7.9.4.2.8.5 1.5.9-1.2.9-2.3 1.7-3.6 2.5.2.8-.3 1.8.4 2.8.5.8-.1 1.9.5 2.9.5.9.3 2.2.5 3.4.2 1.3.9 2.7.6 4.1 1 1-.1 2.7 1 3.7-.4 1.4.4 2.7.5 4.1.1 1.3.3 2.5.7 3.8.2.6.1 1.2.2 1.9.1.6.4 1.1.5 1.7.2 1.1 0 2.5.6 3.4.6 1.1.2 2.2.8 3.3s.4 2.5.6 3.8c.1.8.3 1.6.5 2.5.1.8-.2 1.7.5 2.5.1.1 0 .5 0 .7-.2 1.3.3 2.5.7 3.8 8.4-4.1 9.9-.6 9.9.1v2c-1.8 4.1-4.4 6.9-7.9 9.2 2.2.8 9.8-2.9 12.2-3.2.9-.1 3.3-.1 3.8.7v1.5c-.5 3.8-1.5 5.6-15 13.1.2 1.5.6 4.6.6 4.5h-4.8c-.2-.4-.2-.7-.4-1.1-1.9.8-3.4 2.4-5.4 3l10.5-1.8c1-.3 9.5-1.1 11.3-1.1 1.2 1 .6 4.1.4 5.6-4.1 4.6-9.8 5.6-9.8 6.5 0 1 .2 2 .5 2.9.5 1.5.8 3.1 1 4.7.1.7.3 1.5.6 2.3 2.2.6 4.7.5 6.6 2.3.1 1.1-.4 2-1.2 2.6-1.1.8-2.2 1.6-3.5 2-1.5.5-2.9 1.2-4.4 1.6-.9.2-1.7.6-2.6.8-1 .2-2.1.4-3.3.6.2 1.6-.1 3.2.5 4.8.5 1.6.4 3.4.6 5.1.1.8.3 1.6.5 2.5.1.7-.3 1.6.4 2.2.2.2 0 .6.1.9 0 .9 0 1.8.4 2.7.4.8 0 1.7.4 2.7s.4 2.2.5 3.4c.4 2.3.8 4.5 1.1 6.8.2 1.2.1 2.5.4 3.7.4 1.2.2 2.5.5 3.7.7 2.5.3 5.2 1.3 7.6.4.9.1 2.1.5 3.2.4 1 .5 2.3.5 3.4 0 1.2.5 2.3.6 3.4.2 1.1.1 2.4.4 3.4.4 1.2.2 2.3.5 3.4.5 2.3.4 4.6 1 6.8.5 2 .7 4 1.3 5.9.4 1.6.6 3.3 1 4.9.2.9.2 1.9.5 2.7.4.9.1 2.1.5 2.6.6.8-.1 2 .9 2.6-.1 2.1.8 4 1 6.1.2 1.8.8 3.7 1.5 5.4.3.7.1 1.5.5 2 .5.6.3 1.2.4 1.8.1.6.4 1.1.5 1.7.4 2.2.8 4.4 1.1 6.6.1 1.1.1 2.3.5 3.4.4 1.2.1 2.4.5 3.4.4 1.3.2 2.6.4 3.9.4 2.7.5 5.5 1 8.3.4 2.1.5 4.3.9 6.4.2.8.4 1.6.5 2.5.1.8.2 1.5.4 2.2.4 1.1-.1 2.5.6 3.6-.1 2.5.8 4.9 1.1 7.3s.4 5 1.3 7.4c-.3 1.5.3 2.9.5 4.4.1.8.3 1.6.5 2.7.9-.3 1.7-.6 2.4-.8-.6-1.8-1.1-3.5-1-5.3 0-1 .3-2-.3-3-.5-.8.1-1.9-.5-2.9-.5-.9-.1-2.2-.5-3.4-.4-1-.1-2.3-.6-3.1-.6-1-.1-2.1-.8-3.1-.5-.7-.1-1.7-.5-2.7-.5-1.2-.4-2.6-.6-3.9-.1-.8-.3-1.6-.5-2.5s-.3-1.8-.5-2.7c-.1-.8-.1-1.6-.4-2.5-.4-1.2.1-2.6-.6-3.9.4-2.5-.6-5-.5-7.5 0-.9-.2-1.8-.5-2.7-.4-1.2-.5-2.4-.5-3.7-1.2-.9.2-2.5-.9-3.5-.2-.1 0-.6 0-.9 0-2.7-.7-5.3-1.1-8-.1-1-.5-2.2-.9-3.2-.4-1.1-.5-2.3-1.1-3.1-.7-1 .1-2.2-.8-3-.2-1.8-.5-3.6-.4-5.3 0-1.1-.5-2.1-.6-3.2 0-1 .1-1.9-.3-3-.4-1-.3-2.2-.6-3.4-.3-1.1 0-2.5-.6-3.4-.7-1.1-.1-2.2-.8-3.3-.5-.8-.2-2-.5-3.1-.5-1.6-.4-3.4-.6-5.1-.1-1-.3-2-.5-2.9-.1-1 .3-2-.5-2.9-.1-.1 0-.3 0-.5-.2-3.1-.3-6.1-.5-9.2-.1-1.1-.3-2.3-.5-3.4s.4-2.2-.5-3.2c-.2-.2 0-.6 0-.9 0-1.1 0-2.1-.4-3.2-.4-1 .3-2.2-.5-3.2.3-1.4-.5-2.7-.5-4.1 0-.9-.3-1.8-.4-2.7-.2-1 .3-2.1-.3-3-.5-.8 0-1.7-.6-2.7-.6-1.1-.3-2.6-.6-3.8-.6-2.4-.4-4.8-1.3-7.1-.4-1-.1-2.1-.5-3.2-.4-1 0-2.2-.1-3.3s-.4-2.1-.6-3.4c1.8.2 3.3-.2 4.9-1.3 0 1.6-.1 2.8 0 4.1.2 1.2.6 2.4.4 3.7 1.1 1-.1 2.7 1 3.7-.4 1.3.4 2.4.5 3.7.1 1.2.3 2.4.5 3.8.3.2.7.5.9.7-.3 3.1.4 6 .5 8.9l.8.8c.2 1.7.7 3.4 1.5 4.9 1.1 2.3 2.1 4.7 3.5 6.7 1.5 2.3 2.7 4.7 4.2 6.9s2.9 4.4 4.9 6.1c1.3 1.1 2.7 2 4.1 3.1 1.1-1.5 2.3-3.2 3.5-4.7.9-1.2 1.8-2.3 2.7-3.5 2.7-3.5 5.9-6.5 9.1-9.5 1.9-1.8 3.9-3.6 6-5.2 1.3-1 2.4-2.2 3.7-3.2 2.7-2.1 5.5-4.2 8.2-6.3 2-1.5 4-3 6.2-4.2.5-.3.8-.8 1.2-1.1-.2-.3-.4-.5-.7-.9.7-.2 1.2-.4 1.7-.6 1.1-.4 2.3-.8 3.3-1.4 1-.6 1.8-1.5 2.7-2.2 1.4-1 3-1.6 4.7-1.4.4 0 .8.3 1.2.4 2.4-.9 4.8-1.9 7.3-2.8.6-.2 1.3-.4 1.9-.7 3.2-1.7 6.5-2.9 9.9-4 1.5-.5 3.3-.6 4.9-1.1 1.4-.5 2.8-.4 4.2-.9 1.3-.5 2.8-.8 4.2-.9 2.2-.2 4.3-.9 6.6-1.1 1.2-.1 2.5 0 3.6-.5 1.2-.5 2.3-.1 3.4-.4 3.3-.9 6.6-.3 9.9-.4 2.4-.1 4.8-.2 7.2 0 2.7.2 5.4.8 7.9 1.9 2.4-1.2 5-2.3 6.7-4.7-1.2-.6-4.6-6.4-5-7.2-1.2-2.2-1.7-4.6-2.3-7-.2-1.1-1.3-8.7-1.4-9.4-10.1-36.2 5-54.3 5.9-55.8 1.5-2.5 2.2-5.3 3.3-8 1.1-2.9 2.3-5.8 4-8.4.9-1.3 1.5-2.8 2.2-4.1.2-.5.5-.9.8-1.5-.6-1.7-.4-4.7.7-7.7-1.3-.8-2.5-1.8-3.9-1.7-8.3-6.2-14-14.4-18.5-23.5.5-.5.9-1 1.3-1.4-.2-.3-.3-.5-.5-.7.9-1.5 2.4-2.1 4.1-2.6.4.4.8 1 1.5 1.8 1.9-.3 3.8 1.1 6 1.5 1.1 1.4 2.8 1 4.2 1.4 2.2.6 4.4 1.4 6.8 1.1 2.8.9 5.7 1.2 8.1 3.2.3.2.6.3 1 .5-.2.3-.3.6-.5.9 0 0 .1.2.2.3 1.6 1.3 3.7 1.6 5.5 2.4.4.2.9 0 1.4-.2.8-.4 1.6-.8 2.4-1.3v-1.6c2.4-2.4 4.8-4.5 7.6-6.3 1.4-.8 2.5-2.1 3.7-3.2 1.5-1.3 3-2.6 4.4-3.9 1.9-1.8 3.6-3.9 5.1-6 .3-.4.9-.5 1.3-.9.8-.8 1.6-1.5 2.4-2.4 2.9-3.3 6.6-5.5 10.4-7.4 2.6-1.3 5.3-2.3 8.3-2 1.9.2 3.9 0 5.8 0 1.3 0 2.7-.3 3.8.2 2.2.9 4.5 1.6 6.3 3.3.2.2.5.3 1 .6.6 1.5 1.4 3.2 2.1 5 .4.9.5 1.9.9 2.8 1.3 2.5 3.5 3.6 6.2 4.1 3.4.6 6.8.3 10.2.4 3.5.1 6.9 0 10.4 0 2.5 0 4.9.9 7.3 1.6.6.2 1.1.6 1.5 1 .8.8 1.6 1.6 2.3 2.2.9 2 .6 4 .6 5.9 0 .5-.2 4.6.1 5.4 2.1 0 7.4 1.1 7.7 1.4 2.3.7 4.3 1.1 6.2 2 .6.2 7.7 2.3 11.5 4.7.5.3 13.3 7.7 14.7 8.8 1.4 1.1 2.2 2.6 2.6 4.2.5 2.2 1.2 4.3 2 6.4.4 1.2 1.1 2.3 1.7 3.4 1.4 2.9 2.7 5.8 3.2 9.1.1.9.7 1.8.9 2.7 1 3.5 2.1 7 3.2 10.5.8 2.6 1.6 5.3 2.6 7.9.5 1.3.4 2.9.6 4.5h3.1c.2.4.3.7.4 1.1.3-.1.5-.1.7-.2 1.5-1 3.2-1 4.9-.6.4.1.9.2 1.3.3h2.6c1.2 0 2.4-.1 3.6 0 1.1.1 2.2.4 3.5.7-.2.4-.4.7-.5 1.1-.2 1.1-.5 2.2-.5 3.4 0 1.9-.3 3.9-.4 5.8-.1 1.9 0 3.9 0 5.8v1.4c.5.1.9.1 1.4.2v13.6c0 1.5-.4 3.1-.4 4.6-.1 1.5.3 3.1-.1 4.6-.6 2.1-.1 4.3-.4 6.3-.6 3.1-.1 6.3-.5 9.4-.5 2.9-.2 5.8-.4 8.7-.1 1.5-.4 2.9-.5 4.4-.1 1.4.3 3-.1 4.3-.7 2.8-.4 5.5-.4 8.2 0 2.5-.7 5-.6 7.5.2 2.6.3 5.2-.1 7.7-.3 2 .1 4.2-.5 6-.6 1.9.2 3.9-.9 5.7.3 1.7-.3 3.4-.5 5.1-.4 2.6-1 5.2-1.6 7.7-.5 2.3-1.2 4.5-1.8 6.7-.5 2.2-1.4 4.2-2.2 6.3-1.2 3.4-3 6.6-4.6 9.9-1 2.1-2.5 4-3.9 5.9-2.1 2.9-4.4 5.7-7.2 8.1.2.3.3.6.5 1-2.9 2.9-5.9 5.8-9.7 7.9-3.5 2-6.9 4.3-10.5 6-2.5 1.2-5.1 2.1-7.8 2.6-2 .4-4.1.7-6.1 1-3 .6-6 .3-9 .4s-5.9 0-8.9 0c-1.2 0-2.4-.7-3.7-.5-1.1.1-2.4.4-3.4-.4-.2-.1-.5 0-.7 0-2.3-.2-4.6-.1-6.8-.6-1.3-.3-2.6-.4-3.9-.4-.2 0-.3-.3-.5-.4-1.4 1.2-1.5 3-2 4.5-.8 2.4-1.8 4.7-2.8 7.1-1.2 3.1-3 6-4.3 9.1l-.3.3c.1 1.5-.3 2.8-.8 4.3-.6 2-1.2 4-1.7 6.1-.5 2.2-1.5 4.2-2.1 6.3-1.3 4.1-2.9 8.2-3.6 12.5-.9 1-.4 2.3-.9 3.5-.4 1-.1 2.4-.1 3.6V394c0 2.1 1.2 5.3 2.2 7.3 1.6 3.1 3.9 5.7 6 8.4 3.2 4.1 6.9 7.6 10.4 11.4 2.7 3 5.7 5.8 8.3 8.8 1.9 2.3 4.2 4.1 6 6.4 1.9 2.3 4.2 4.4 6.1 6.6.9 1.1 1.8 2.1 2.8 3.2.9 1 1.8 2 2.5 3 2.3 3.3 4.7 6.5 6.8 9.9 2.2 3.7 4.2 7.4 6.3 11.1 1.1 2 2 4.2 3.3 6.1 1.8 2.7 2.8 5.8 4.7 8.4.6.8.8 1.8 1.2 2.6 2.7 4.8 5.2 9.7 7.9 14.6 5 9.2 9.4 18.6 14.1 27.9 2 4 4 8 5.9 12s3.7 8.1 5.3 12.3c1.2 3.1 2.5 6.2 3.4 9.4.8 2.7 1.8 5.4 2.3 8.2.1.4.3.7.5 1-1.4.1-3.1.1-4.9.1zM406.4 214.9c1.4-.4 2.6-1.3 3.5-2.7-1.4 1-2.7 1.5-3 2.6-1.8.5-2.2.9-2 2 .5-.6 1-1.2 1.5-1.9zm45.9 21.2c-1.5 2.5-2.1 5.2-4.4 7h1.5c.2-.2.7-.6.9-1.1.7-1.5 1.4-3.1 2-4.6.1-.3 0-.6-.1-1 .6-.7 1.4-1.3.8-2.6-.4 1.1-.6 1.9-.7 2.3zm-20.4-38c-.7-.2-1.4-.5-2.1-.6-.8-.1-1.6 0-2.4 0l-.7.7v3.6c.8.8 1.3 1.4 1.9 2h2.5c1.1-.6 1.3-1.7 1.6-2.5-.3-1.2-.6-2.2-.8-3.2h.9c.2-.6.5-1.1.7-1.8-.4 0-.6-.1-.8-.1-.2.5-.4 1.2-.8 1.9zm-19.1-40.7c-.6.4-.2.6-.7 1 .8.1 1.2.2 1.5.2-.2.5-.3.9-.4 1.4.7-.1 1.1-.1 1.7-.2-.5-.9-.9-1.6-1.5-2.3-1.7-3.5-2.6-7.2-5.1-10-2.2-.2-4.3-.2-6.3-.6-.7-.2-1.5-.3-2.2-.4-.8-.1-1.6-.4-2.5-.5-.7-.1-1.4 0-2.2 0-.7-.1-1.3-.4-2-.4-.8-.1-1.1-.5-1.3-1.2 2.9-2.4 6.2-2.6 9.6-2 1.5.3 2.9 0 4.9.4-2-3.2-3.8-6-5.5-8.7-.2-.1-.4-.1-.6-.2-2.6-1.4-5.2-3-8-4-2.3-.8-4.4-2-6.4-3.2-2.5-1.5-4.6-3.6-6.9-5.4-.8-.6-1.6-1.2-2.4-1.7-4.7-2.3-9.1-5.3-13.4-8.4-2-1.4-4.1-2.8-6.1-4.2-.4.5-1 .9-1.2 1.3-.7 1.6-1.7 3-2.4 4.5-1.6 3.3-3.8 6.4-5 10-.5 1.5-1.3 3-1.7 4.6-.6 2.3-1.6 4.5-2.7 6.6-.3.7-.8 1.3-1.2 1.9-7.2 16.4-8.9 28.6-8.7 31.8-.4 9 3.5 19 4.4 20.1.3 3 2.2 12.3 2.7 14.1.8 2.9 2.3 5.4 4.6 7.5.8.7 1.7 1.3 2.5 2.1 3.5 3.1 7.5 4.5 12.1 4.4 2.1 0 16.7-2.4 19.3-3.2.6.2 1 .4 1.5.6-1.1.6-1.9 1.1-2.7 1.5 3.5.6 14.2-1.1 15.1-1.3.7-.2 8.3-1.5 11.2-2.5 1.4-.5 3-.8 4.3-1.7 1.4-.9 2.5-2 3.8-3 1.9-1.5 3.5-3.3 5.1-5.1.6-.7 1.2-1.4 1.7-2.2.5-.6.3-1.2-.3-1.6.5-.9.5-.9.5-1.7 4.3-4.9 6.9-10.7 10.3-16-1.5-.7-2.9-1.2-3.4-2.7-.1-.2-.3-.3-.5-.5-1.5-1.9-3.2-3.7-4.9-5.4-.8-.8-1.4-1.8-2-2.8-1-1.6-1.8-3.2-2.8-4.8-1.9.9-3 1.2-3.2 1.1l-1.2-1.2c-.4.2-.6.4-.8.5-.4-.3-.9-.7-1.3-1-.2.5-.4.8-.6 1.2-.2-.4-.3-.7-.5-1h-.9c-.4.4-.7.7-1.1 1.2-.2-.8-.3-1.3-.4-1.9-.6.5-1 .9-1.5 1.3-.2-.7-.3-1.2-.4-1.5-1-.3-.5 1.6-1.6.7.1-.4.3-.7.5-1.4-.5.1-1.2.7-1.6.8-.3.1-.5-.3-.7-.2v-1.5c-.4.1-.8.8-1.1 1-.3.1-.3-.5-.6-.4.2-.4.2-.5.3-.6.1-.1.1-.2.2-.4-.9-.6-1.9-1.2-2.8-1.8 1-.7 1.8.3 2.8.3-.8-1.8-1.1-3.7.5-5.3-2.9-.4-5.8.7-7.8 1.9.5-1.9 2.2-2.5 3.5-2.8 2.8-.6 6-1.2 7.9-.7s4.4.5 5.4 2.6h1.2c-.2.3-.4.4-.5.6.1.2-.1.5.1.6.3.1 1-.6 1-.3 0 .4-.7 1.1-.6 1.4.1.3.9-.3 1.1-.2s-.8.9-.7 1.1c.5.2 1.2-.2 1.6-.2zM308.5 289.5c.6-2.2.2-4-.4-5.6-1.4-3.5-3.4-6.8-6.1-9.5l-7.5-7.5c-.7-.7-1.4-1.3-2.5-1.5-.7-.1-1.4-.7-2.1-1 1.5-2 3.5-3 5.4-4.1 2.2-1.4 4.5-2.7 6.8-4 2.2-1.2 4.3-2.5 6.4-3.9 2.2-1.4 4.5-2.8 6.6-4.3 2.3-1.6 4.5-3.2 6.6-5 1.1-.9 2.3-1.7 3.4-2.6-1.1-2.4-1.8-4.9-2.8-7.3-1-2.5-2.8-4.6-4-6.9 1.3-1.4 2.7-2.4 4.5-2.8 1.9-.4 3.7-1.2 5.5-1.9 1.2-.5 2.4-1 4-1.7-3.1-.8-5.9-1.3-8.7-1.2-3.5.1-7.1 0-10.6 0-.5 0-1.1-.2-1.4 0-.8.5-1.6.5-2.5.4-1-.1-1.8.5-2.7.5-2.5 0-4.8 1-7.3 1-.8.7-1.9.2-2.7.5-1.3.5-2.7.5-4 .9s-2.6.7-3.9 1c-1.6.4-3.2.7-4.8 1.2-2.4.7-4.8 1.6-7.1 2.7-.3.1-.5.3-.8.4-2.6 1-5.3 1.9-7.9 3-1.7.7-3.4 1.5-5.1 2.2-1.3.5-2.6 1-3.8 1.9-2.6 1.9-5.3 3.5-7.9 5.4-2 1.5-4.1 2.9-6.1 4.4-2.9 2.1-5.6 4.5-8.3 6.8-2 1.7-4 3.6-5.9 5.4-2 2-4 4-5.8 6.2-1.6 1.9-3.2 3.7-4.5 5.9-.5.9-1.2 1.6-1.8 2.4-.9 1.2-1.7 2.3-2.5 3.5.8.7 1.5 1.6 2.3 2.1 2.3 1.4 4.6 2.8 7 3.9s4.7 2.2 6.9 3.6c2.7 1.7 5.4 3.5 8.3 4.9 2.2 1 4.2 2.4 6.1 4.1 0-.3 0-.6.1-.7 2.5-3 4.9-6 7.5-8.9 2.4-2.7 5-5.1 7.4-7.8 2.9-3.3 6.1-6.4 9.3-9.4 3.2-3 5.7-6.7 8.8-9.8.3-.3.5-.6.7-.9 1.3-1.6 2.5-3.2 3.9-4.6.8-.8 1.9-1.7 3-2 1-.3 2-1.3 3.3-.3-.5.7-.9 1.4-1.8 1.6-.6.1-1.2.5-1.5 1-.6 1.4-1.9 2.1-2.8 3.2-1.2 1.4-2.5 2.6-3.5 4.1-1.2 1.7-2.5 3.3-3.9 4.9-4.7 5-9.8 9.6-14.4 14.7-3.1 3.5-6.5 6.8-9.5 10.5-1.7 2.1-3.4 4.2-4.5 6.5 1.1 1 2.3 1.7 3 2.8.7 1.1 1.6 1.9 2.5 2.8 2.6 2.9 5.7 5.3 8 8.5 1.8 2.4 3.3 4.8 4.7 7.5 1.5 2.9 2.9 5.9 4.3 8.8 2.3 4.7 4.6 9.5 5.9 14.7.9 3.7 2.2 7.3 3.3 10.9.7 2.3 1.2 4.7 1.5 7.1.2 1.1.1 2.4.5 3.4.3.9.3 1.7.4 2.5s.4 1.6.5 2.5c.2 1.2-.1 2.4.4 3.7.4.9 0 2.1.1 3.1.1 1.1.4 2.1.4 3.2.1 2.8 0 5.6 0 8.5-1.4.8-2.6 1.9-4.4 2.2-2.7.3-4.9 1.8-6.7 3.6 1.6 1.8 2.8 4 3.8 6.3l-.8.8c.8 1.5 1.5 3.1 2.5 4.5 2.4 3.4 4.3 7.1 6.3 10.7 1.8 3.3 3.5 6.7 5.1 10.1.6 1.3 1 2.7 1 4.2 0 1.7-.4 3.4.4 5.1.3.6 0 1.5-.2 2.3-.2.7-.2 1.3 0 2 .2.6.1 1.4.3 2.1.1.7.4 1.3.4 2 0 .6-.4 1.1-.4 1.7-.1 2.3 0 4.5-.4 6.8s-.1 4.8-.1 7.2c.1 2.4-.7 4.6-.5 7 .1 1.9.3 3.9-.4 5.8-.1.3 0 .6 0 1 1.8.9 3.6 1.8 5.4 2.8 1.9 1 3.9 1.7 5.9 2 2 .2 4 .9 6.2 1-.3-.9-.6-1.5-.6-2.2-.1-1.5 0-3.1 0-4.6-.1-1.5-.3-3.1-.5-4.6s.2-3.1-.4-4.6c-.4-1.1 0-2.5-.1-3.8-.1-1.2-.3-2.4-.5-3.7-.2-1.7.2-3.4-.4-5.1-.3-.9 0-2.1-.1-3.1s-.4-1.9-.5-2.9c-.2-2.3-.3-4.7-.5-7v-.2c-.7-1-.5-2.1-.4-3.2s-.4-2.1-.5-3.2c-.2-3.1.1-6.1-.4-9.2-.4-2.4-.2-5-.1-7.4s-.8-4.8-.5-7.3c.2-1.7.2-3.4-.5-5.1 0-.1-.2-.2-.3-.3l-.4.4c-.2-.4-.6-.7-.7-1.1-.5-1.8-1.1-3.6-1.4-5.4-.3-1.7-1.2-3.3-1-5.1-.8-.8-.2-1.8-.6-2.7-.8-2.1-.8-4.3-1.3-6.4-.3-1-.1-2.1-.5-3.2-.3-1 .2-2.2-.5-3.2 0-2.4-.7-4.7-.9-7.1-.2-2.2-1.2-4.3-1-6.6-.9-.7-.4-1.9-.9-2.8s-.4-2.1-.6-3.1-.1-2.1-.5-2.9c-.5-1-.2-2-.5-2.9-.8-2.2-1-4.4-1.3-6.7-.3-2.1-.1-4.3 0-6.5s0-4.3.4-6.6.6-4.7 1.1-7c.5-2.2 1.3-4.2 2.6-6.2 1.4-2 2.8-4.1 3.7-6.4.2-.5.5-.9.8-1.3 2.3-2.7 4.5-5.4 7-7.9 1.4-1.4 2.2-3.1 3.2-4.7.2-.3 0-.7 0-1.1-.8.3-1.5.5-2.2.8l.3-.3c-.3-.1-.6-.2-1.1-.3 1.3-1.4 2.3-2.2 3.3-3zm92.2-46.6c-.8 1.5-2.3 2.1-3.7 2.7-.6.3-1.4.4-2.1.8-4.9 2.5-9.8 4.9-14.9 7.2-1.3.6-2.5 1.3-3.9 1.7-4.2 1.3-8.1 3.4-12.1 5.1-2.7 1.2-5.2 3-8 4-3 1.1-5.9 2.5-8.6 4.1-3.4 2-7.1 3.6-10.5 5.6-3.3 1.9-6.8 3.5-10 5.4-2 1.1-4 2.4-5.5 4.2-1.7 2-2.5 2.4-4.8 2.5-.7.5-1.2.8-1.7 1.2.1.2.3.4.5.6-.9 1.4-1.7 2.7-2.6 4.1.4.1.5 0 .7-.1 3.4-1.1 6.9-1.6 10.5-2.1 1-.1 2 0 3-.4.7-.3 2 .3 2.6-.1 1-.6 1.8-.2 2.7-.4.8-.2 1.6-.4 2.5-.5 1.5-.1 3.1-.2 4.6-.4 2.4-.3 4.8-.2 7.3-.5s5.1-.1 7.7-.1c2.6.1 5.2-.4 7.7.5 3.4-.4 6.6.7 10 1 1 .8 2.4.1 3.5.9.2.2.7 0 1-.1-.2-.5-.4-.8-.4-1.2 0-1.9-.5-3.6-1-5.4-1-3.4-2.5-6.7-3.9-9.9-.6-1.3-1-2.5-.8-3.8 1-1.6 2.6-2.5 4.2-2.6 2.3-.2 4.6-.6 6.8-1 1.3-.2 2.7-.1 3.9-.6 1.3-.5 2.7-.5 4-.9 1.4-.4 2.7-.8 4.2-1 1.3-.2 2.6-.8 4.3-1.3-1.5-1.3-2.9-2.2-3.4-3.9 0-.1-.1-.1-.2-.1-.6-.4-1.1-.8-1.7-1.2-.6-.5-1.2-.9-1.8-1.3v-2.7c2.6.1 5-.6 7.5-.6 1.8 0 3.4-.8 5.1-1.7 1.6-.8 3-1.8 3.6-3.3.3-3.3 0-6.2-2.4-8.6-.4.4-.8.7-1.1 1.1-.9 1-2 1.6-3.2 2.2-.5.2-1 .3-1.5-.4 1.5-1.7 3.1-3.2 5-4.5-1.5-2.7-2.9-5.2-4.3-7.9-.2-1.1 0-2.3-.4-3.6-.3-1-.3-2.2.2-3.5 1.3-3.7 3.3-6.8 6.8-8.7.1-.1.1-.4.2-.8-1.7.6-3.4 1.3-5 1.7s-3.2.9-4.8 1.2c-1.1.2-2.5 0-3.4.5-1.1.6-2 .2-3 .4s-2 .4-2.9.5c-2 .1-4 0-6 0-.5 0-1-.1-1.4 0-2.2.9-4.6.6-6.9 1.4-1 .3-2.1.4-3.2.5-1.3.2-2.7-.3-3.9.5-2.7 0-5.5.1-8.2-.1-.7-.1-1.4-.5-2.3-.3-.2.6-.5 1.2-.5 1.9 0 1.2-.4 2.2-.7 3.3-.3 1-.6 1.9-1 3-.4-.9-.7-1.8-1-2.6-.9.2-1 1-1.4 1.5-2.5 3.2-5.1 6.4-7.7 9.6-1.2 1.5-2.6 2.9-3.5 4.6-2.1 3.5-4.6 6.7-6.6 10.3-1.2 2.1-2.5 4.1-3.6 6.2-1.2 2.1-2.2 4.2-3.2 6.4-1.7 3.7-3.4 7.4-5 11.2-1.3 2.9-2.6 5.8-3.8 8.8 0 .1.1.3.3.5.3-.2.7-.4.9-.6 1.9-2.1 3.3-4.6 5.1-6.8 1.1-1.5 2.3-2.9 3.7-4.3.9-.9 2.2-1.3 3.8-1.3-1.3 2.8-3.5 4.6-5.1 7.1.4-.1.7 0 .9-.1 1.9-1.1 3.7-2.2 5.7-3.2 1.1-.6 2.4-.9 3.4-1.6 2.3-1.7 4.9-2.9 7.4-4.2 7.5-3.8 14.9-7.7 22.6-11.1 2-.9 4-2.1 6.1-2.8 3.6-1.1 6.9-2.8 10.3-4.2 3.2-1.2 6.2-2.9 9.3-4.4 2.5-1.2 4.8-2.6 7.6-3.3.1 0 .7 0 1.4.1zm56.4-103.8c1 1.3 2 2.7 3.1 4 1.3 1.6 2.8 3 4 4.6.9 1.3 2.2 2.3 3.1 3.5 1.7 2.3 3.5 4.4 5.5 6.4 1 1 2.1 2 2.1 3.7 0 .2.3.5.5.8 1.1 2 2.2 4 3.4 6.1-1.4 1.5-2.1 1.8-4.6 2.3-.4-.6-.8-1.2-1.3-1.9-.5 0-1.1-.1-1.6-.1-1.3-1.1-6.9-3.8-8.9-4.2 0 3.1.1 6.1 0 9.1-.1 2.4-.6 4.8-2.2 6.8-.7.9-1.3 1.9-1.5 3-.3 1.3-1 2.3-1.5 3.5-.3.8-.8 1.2-1.5 1.6-1.8 1.1-3.6 2.2-5.4 3.2l-1.8 1.2c.6.7 1.1 1.2 1.5 1.8s.6 1.4 1 2c.4.5.9.9 1.4 1.4.2 2.2 1.6 4.3 1.5 6.6.4.1.7.2.9.3v5.6c-.4.8-.7 1.5-1.1 2.2.7 1.1 1.3 2.1 1.9 3.1.6 1.1 1.2 2.3 1.9 3.3 1.4 2 2.1 4.2 2.1 6.6 0 1.5-.2 2.9-.4 4.4-.2 1.9-.7 3.6-1.5 5.4.8 0 1.4.1 2 0 .7-.1 1.3-.4 2-.4 1.2-.1 2.4 0 3.6 0 1.2-.1 2.4-.4 3.7-.4 2.7-.1 5.5-.1 8.2 0s5.3-.2 8 .4c1.6.4 3.4.1 5.1.4 2.1.4 4.3.1 6.4.1.1-1.5 0-2.8.5-4.1.4-1.3 0-2.7.5-4.1.5-1.3.1-3 .6-4.3.8-2.5 1.1-5.1 1.8-7.7.8-2.9 1-6 1.5-9 .4-2.3.4-4.7 1-7.1.2-1.1 0-2.2.1-3.4.1-1.1.4-2.1.4-3.2v-31.8c0-.9-.3-1.8-.5-2.7-.2-.8-.5-1.7-.8-2.5l.8-.8c.3-.2.7-.4 1.3-.7 0-8.3-18.8-10.2-22.3-13.3-.7-.6-1.1-1.5-1.7-2.2s-7.2-5-8.1-5.2c-2-.4-4-.8-6.1-1-1.5-.1-2.8-.8-4.2-1-.5.5-2.8 2.6-3.1 3.5-.7 1-1.1 3.7-1.3 4.2zm2.5-56c1.4.4 8.5 1.1 10.6 2.2-.3-1.4-2.1-9.9-1.9-10.2-.9-1.4-2.1-2.3-3.4-2.8-2.2-.9-4.5-1.4-6.8-1.5-2.5 0-5-.3-7.5.4-1.6.4-3.4.1-5 .1-1.6-.1-3.3.2-4.9-.4-1-.4-2.1-.4-3.2-.5-2.9-.3-6.4-2-7.3-5.7-.5-2-1.1-4-2.4-5.8-.3-.4-.5-.8-.8-1.1-.8-.6-1.7-1.3-2.7-1.7-1.5-.6-2.9-1.6-4.6-1.7h-10.2c-.9.4-1.6.7-2.2 1-4 2-3.9 2-7.2 5.2-.8.8-1.5 1.8-2.7 2.3-.5.2-1 .8-1.4 1.3-1.1 1.8-2.5 3.4-4 4.8-2 2-4 3.8-6.1 5.6-.1.1-.2.3-.3.3-2 1.1-3.5 2.7-5.3 4-.9.6-1.9 1.4-2.3 2.7.3.1.5.2.7.2 1.9 0 3.6.4 5.3 1.3.7.4 1.6.4 2.4.7 1 .3 2 .5 3 .9 2.2.8 4.4 1.4 6.6 2 2.4.6 4.8 1 7 2.4 1 .6 2.2 1 3.2 1.5 2.6 1.3 5.3 2.4 7.8 3.9 1.3.8 2.4 1.2 3.8.4h.2c.2.1.4.1.7.2-.2.5-.4 1-.7 1.5 2.3 1.2 4.6 2.4 6.8 3.6 2 1.1 3.9 2.3 5.7 3.6 2.5 1.6 5 3.4 7.6 5 2.6 1.7 5.2 3.5 7.7 5.3 1.2.9 2 2.1 3.4 2.7.4.2.7.8 1.1 1.2 1.6 2.1 3.3 4.3 4.9 6.4h1.7c.3.7.6 1.2.9 1.8.4-.8 1-1.5 1.2-2.2.4-2.4 1.8-4.4 2.8-6.6 2.1-4.5 4.7-8.8 5.8-13.9-.8.2-1.6.4-2.3.6-1.7.5-2.8.8-5.2 1.4-.9.2-1.9.3-2.9.5-1.2.3-1.9.3-3.6.6-1.1.2-2 .2-3 .4-1.1.2-2.1.4-3.2.5-2.2.1-4 .1-5.9.1-1.3-.3-1.8-.9-2.4-1.9-.9-1.5-.2-2.4.6-3.1 1.5-1 2.8-1.6 4.2-2 1.3-.4 2.6-.9 4.2-1.5 1-2.9 3.7-4.5 6.3-6.4-2.5-.3-4.9-.4-6.8-1.6-2-1.2-4-2.4-4.9-4.6-.1-2.6-.5-5.3 3-6.4 1.7-.5 10.2 2 13.9 3zM162.8 218.6c3.4-5.2 13.7-4.3 14.9-4.3 1.5 0 3.1-.1 4.6 0 2.5.2 8 1.1 8.9-2.1.3-1.2-2.4-1.2-2.9-1.4-1.4-.5-13-2.3-13.7-2.4-5.5-.6-12.8.6-14 0 .8-.8 5.4-6 7.9-7 1.2-.5 2.3-1 3.5-1.5 3.5-1.6 6.6-3.7 10.1-5.3 3.2-1.5 6.9-2.1 10.4-3.2 1.6-.5 2.5-2.7 0-3.3-2.2-.2-10.8 1.3-11.7 1.4-1.4.2-2.8.4-4.1.6-3.6.7-7.5 2.6-9.5 3.9-1.1.7-2.2 1.7-4 1.1.5-.6 9.9-9.4 13.6-11.4 4.7-2.6 17.1-9.2 18.1-10.2 4.8-3.7.8-5 .6-5-2.5.7-6.1 1.9-8.5 2.8-1.3.5-15.3 4.6-16.3 6.6-4.5 3.8-9.3 10.4-10.8 9.9.3-3.1 10.5-15.5 13.6-16.3s12.7-6.8 13.7-9.6c0-.1.1-.1.1-.1V159c-.9-2-5.5 1.2-7.1 1.8-3.7 1.3-14.4 5.6-16.1 6.6-5.6 3.2-12.3 20.5-12.4 22.4-1.3 1.3-1.2 2.2-3.4 2.1.9-3.2 1.3-7.9 3.4-13.2.6-1.5 1.6-3.5 1.2-5.3-.7-3.4-2.7-2.2-4 .7-.2.2-3.8 7.9-5.4 14.2 0 2.6.2 13.3 1 14.7 0 .4-.4 2.6-.5 3.4-.1.7-6.5 20.5-7.1 21.9-.3.7-.8 5.2-1 6.8-.4 2.6 2.1 19.1 2.4 20.1 1.1-.2 2.1-.2 3-.6 2.8-1.2 5.8-1.8 8.5-3.2 2.8-1.4 5.6-2.7 8.7-3.7-.3-.7-.6-1.3-.6-1.8-.2-2.3-.4-4.5-.5-6.8-.1-1.4.1-2.7 0-4.1-.1-1.6-.4-3.3-.6-4.7-.6.5-1.3 1-1.5 1.2-.4.8-.4 1.4-.7 1.6-1.1.8-2.3 1.4-3.5 2.1-.6.3-1.3.3-2.1-.1.3-.4.4-.6.6-.8 2-2.2 4.3-4 6-6.4.5-.5 2.6-2.3 7.2-9.3zm197.5-113.2c.4.1.7.2.8.3l7.5 5.1c3.2 2.2 6.5 4.4 10 6.1.4.2.8.4 1.2.7 2.6 1.9 5.1 3.9 7.7 5.8 1.2.9 2.5 1.7 3.7 2.5.4-.3.6-.5.7-.5 2.6.8 4.6 2.5 6.8 3.7 2.1 1.1 4.3 1.9 6.5 3 1.6.8 3.2 1.5 4.3 2.9.6.1 1.2-.1 1.6.2 1.6 1.2 3.5 1.6 5.3 2.3 1.2.5 2.4 1.2 3.6 1.8 1 .5 2.2.8 2.9 1.6.8 1 1.8 1.4 2.8 1.9 2.3 1.1 4.6 2.1 6.8 3.3 2.7 1.4 5.3 3 8 4.4 3 1.5 6 2.9 9 4.4 3.1 1.5 6 3.2 9.2 4.5 3.8 1.5 7.4 3.4 11.1 5.1 0-.4.1-.7-.1-.8l-3-3.6c-.4-.5-.8-1.1-1.2-1.7-.5-.6-1-1.2-1.4-1.8-1.3-1.6-2.5-3.4-3.8-4.9-1.6-1.8-3.4-3.4-5-5.1.2 3.4 2.6 5.5 4.9 8-1.4.2-2 1.8-3.1 1.3-2.9-2-4.2-4.6-5.4-7.4 0-.6-.1-1.5 0-2.2.2-.8.7-1.5.3-2.5-.5 0-1 0-1.3-.1-1.4-1.5-2.7-2.9-3.9-4.3-1.6-.3-3-.6-4.3-1.5-1.8-1.2-3.4-2.7-5.5-3.5-.7-.3-1.1-1.2-1.6-1.9-1-1.3-1.9-2.7-3.2-3.7-1.3-1-2.6-1.9-3.9-2.9-1-.7-1.9-1.5-3-2.1-3.4-1.7-6.4-4-9.4-6.5l-4.5-3.6c-1.3-1-2.7-2-4.2-2.7-1.1-.5-2.2-.9-3.3-1.4-1.4-.8-2.8-1.7-4.3-2.4s-3.1-1.2-4.6-1.6c-2.9-.8-5.6-2-8.3-3.5h-1.8c-1.3-.8-2.2-1.3-3.1-1.9-.9-.5-1.8-1-2.7-1.6-1.8-1.1-3.6-2.2-5.4-3.2-1.2-.7-1.2-.6-2.7.1-1.1-1.9-3.8-1.9-5-4.1-3.2 2.3-6.8 2.2-10.5 2-.7-.5-1.4-1.1-2.1-1.5v-1.7c1.3-.8 2.5-1.8 4.2-1.6.1 1.6 1.5 1.8 2.6 2.2 1.5.6 2.9-.1 4.7-.7-2.1-1.2-4.4-1.5-5.5-3.6-1.1.6-2.1 1.1-3.1 1.6-1.4-.6-2.7-1.2-4.1-1.9-3.7-1.7-7.4-3.5-11.1-5.3-.2-.1-.5 0-1 0 1.6 3.1 3.9 5.3 6.3 7.7-.9.7-1.5 1.2-2.4 1.9 1.6 1.6 3.1 3.2 4.7 4.7.5.5 1.1.9 1.7 1.2.8.3.9 1.1 1.5 1.5.5.4.9.9 1.4 1.2 2.6 1.2 4.8 3 6.8 5.1.2.5.2.8.2 1.2zm166.6 44.3c-.2-.4-5.6-19.4-6.3-21.3-.3-1-.7-2-.9-3-.7-2.6-1.3-5.2-2.7-7.6-.8-1.5-4.4-11.1-5.5-14.3-1.6-2.9-19.2-10.8-21.3-11.9-.5-.2-5.3-1.7-7.1-2.5-.5-.2-1-.4-1.5-.5-1.8-.5-6.1-2.8-9.2-2.1-3.4 1.2-6.9 2.3-10.2 3.9-1.5.7-3 1.4-4.5 2-1.6.7-2.9 1.6-4.2 2.8-.8.7-1.2 1.5-1.8 2.2 1.9 1.7 4.3 1.7 6.3 1.3 2.8-.6 5.5-1.7 8.3-2.7 1.3-.5 2.6-1.2 4-1.5 1.9-.5 3.8-.8 5.8-.5.9.1 1.9.2 2.6.7 1.7 1.3 3.7 1.9 5.5 3 .9.6 2 1.1 3.2.2.2-.1.6 0 1 0v2.9c-.1 1.1.2 2.1.5 3.2.7 2.5 4.9 23.4 6 25.4.8 1.5 3.8 6.4 5 7.7.7.7 1.2 1.6 1.8 2.3-.8.5-1.4 1-2 1.3h-1.5c-1.2-1.4-2.5-2.7-3.4-4.2-1.3-2.2-4.3-11.4-5.1-13.8-5.6-1-10.1 4.1-12.2 4-1.2-.5-7.5-2.6-9.7-3.1-2.1-.4-4.1-.5-6 .3-.5 1.2-.9 2.3-1.3 3.4 2.1 2.4 5 2.9 7.7 3.2 2.8.4 5.6.9 8.3 1.6 1.5.4 5.7 4.3 6.5 5.2.4.5 1.9 2.3 2.5 2.6 2.2 1 4.3 2.4 6.6 3.1 2.3.8 10.6 3.3 11.9 4.4 1.3 1.1 2.2 2.7 2.9 4.3.3.8.5 1.6.8 2.5l-.3.3.3.3c1.5-.5 3-.9 4.5-1.5s3-1.4 4.5-1.8c1.7-.5 3.4-.8 5.1-1 1.5-.5 3.2-.6 5.1-.8zM92.6 410.1c.5-.3.8-.6 1.1-.7 2.6-.4 5.2-.8 7.8-.9 3.9-.2 7.9 0 11.8 0 1.6 0 3.2.8 4.9.5.5 1 1.6.4 2.3.7 2.6 1.3 5 2.9 7.1 4.8 1.5 1.4 2.5 3.2 3.6 5 1.7 2.7 3 5.7 4.1 8.7.7 2 1.4 4.1 1.9 6.2.3 1.2.8 2.4.9 3.7.2 1.1 0 2.2.1 3.4.1 1.1.4 2.3.4 3.4.1 3.9 0 7.7 0 11.6 0 .5.2 1 0 1.4-1.2 2.3-1.8 4.7-2.7 7.1-1.1 2.8-2.1 5.6-3 8.4-.8 2.2-1.6 4.5-2.8 6.6l-3.6 6c-1.3 2.2-2.5 4.5-4.1 6.5-.8 1-1.3 2.1-2 3.2 1.9-.7 3.5-1.6 5.1-2.5 1.2-.6 1.9-1.6 2.9-2.4.9-.8 1.9-1.6 2.9-2.4 2.4-2.2 4.1-4.9 5.5-7.8 1.5-2.9 3.1-5.8 4.2-8.9 1.1-3.3 2.3-6.6 3.2-10 .6-2.2.6-4.5 1.2-6.7-.3-4.7.5-9.4-.4-14-.4-1.8 0-3.7-.5-5.6-.5-1.7-.8-3.5-1.3-5.2-.5-1.6-1-3.3-1.6-4.9-.3-.8-.7-1.5-1.1-2.2-.7-1.2-1.6-2.2-2.2-3.4-1.8-3.2-3.8-6.3-6.7-8.8-1.7-1.5-3.3-3.1-5.6-3.8-.8-.2-1.4-.8-2.2-1.2-1.5-.8-3.1-1.3-4.8-1.2-3.3.1-6.7 0-10 0-.6-1.3-1.4-2.4-1.6-3.6-.6-2.9-1.5-5.6-2.4-8.4-1.5-4.2-2.8-8.5-3.5-13-.2-1.3-.6-2.6-.9-4s-.4-2.9-.5-4.4c0-.2 0-.5-.1-.7-.6-1.4-.7-3-.8-4.5-.2-3.4-.1-6.9 0-10.4s-.4-6.9.4-10.4c.4-1.8.1-3.8.6-5.5.4-1.3-.1-2.8.9-4 .5-2.7 1.7-5.1 2.9-7.5 1.6-3.2 3.4-6.2 5.6-9 1.5-2 3.3-3.8 5-5.7 0-.1-.1-.3-.3-.8-.6.4-1 .9-1.5 1.2-4.6 2.5-8.5 6-12.5 9.3-2.9 2.4-5.5 5.1-7.5 8.4-.8 1.3-1.7 2.6-2.3 4.1-.6 1.5-1.5 2.9-2 4.5-.7 2.3-1.4 4.6-1.9 6.9-.4 1.8-1 3.7-1.2 5.5-.3 2.2-.7 4.5-.6 6.8.1 5.8 0 11.6.1 17.3 0 1.6.3 3.2.5 4.9.9.5.3 1.4.6 2.2 1.3 3.1 1.6 6.4 2.3 9.7.2 1 .6 2 .8 3 .5 2.5 2 4.7 2.1 7.3 1.1.7.1 2 .9 3 .3.7.2 2 .5 3.2zm37-337.8c1.7-.2 3.2.3 4.7-.5.3-.2.9-.2 1.2 0 .9.7 1.9 1.4 2.7 2.2.6.7 1 1.7 1.5 2.5v2.9c.1 1.2-.3 2.1-1.1 2.9-1.9 1.9-3.8 3.9-6.5 4.6-.3.1-.4.4-.6.6.5 1.7.9 3.2 1.5 5.3l-1 1c.4.3.9.6 1.6 1.1h6.5l1.6 1.6c0 .2-.1.5 0 .7 1 1.7.2 2.9-.9 4.1-1.2 1.3-2.7 2.2-4.4 2.9v9.3c0 1.9-.7 3.5-1.5 5.2-.4.8-1.2 1.3-2.1 2.2 1.4-.1 2.3.2 3.1.7.4.2.8.6 1.2.7 2.1.3 3.5 1.7 5 3.1 2.5 2.2 4.1 4.9 5.9 7.7 1.5 2.3 3.1 4.3 5.8 5.8-.2-2.1-.2-4.1-.6-5.9-.2-.7-.3-1.5-.4-2.2-.1-.8-.5-1.6-.4-2.4.2-3.7-.9-7.4-.5-11.1.1-.6 0-1.2 0-2-.7-.2-1.2-.4-1.8-.6-.1-.4-.2-.8-.3-1.3-.6-1.8-1.3-3.5-1.8-5.2-.5-1.8-1.1-3.5-1.8-5.3-.3-.8-.8-1.6-.9-2.5-.4-2.6-1-5.2-1.4-7.8-.4-2.3-.7-4.5-1-6.8-.3-2.1-.7-4.2-1-6.3-.3-2.3-.8-4.5-1.1-6.8-.1-1.2-.1-2.5-.5-3.6-.4-.9-.1-1.9-.4-2.7-.4-1-.4-2-.4-3 0-.2.1-.6 0-.7-.9-.9 0-2.2-.5-2.9-.7-1-.1-2-.6-2.9-.5-.8-1-1.5-1.3-2.4-.1-.3.2-.8.3-1-.2-.4-.3-.7-.4-.9 1.3-1.2 2.3-2.7 4.3-2.1.8.8 1 1.9 2.2 2.4 1 .4 1.8 1 3.1.8.8-1 1.6-2.1 2.4-3.1 0-2 .1-4 0-5.9-.1-1.8-.4-3.6-.9-5.4-.8-2.9-1.5-5.9-2.7-8.8-.9-2.2-2.2-4.1-3.6-6-1.1-1.4-2.8-1.7-4.1-2.6-1.1.8-2.2 1.2-3.5.8.1-.2.2-.5.4-.8h-1.3c-.6.6-1.3 1.2-1.9 1.9-.4.5-1 1.1-1.2 1.7-.4 1.5-.9 3.1-1 4.6-.1 2.7-.3 5.5.7 8.1 1.6-.8 3.2-.3 4.4-.5 1.8.7 3.1 1.4 4 2.8 0 .2-.1.3 0 .5.9 1.7.4 3.6.4 5.3 0 .5-.3 1.1-.6 1.4-1.3 1.2-2.4 2.5-3.8 3.5-1.6 1.2-3.5 1.7-5.3 2.5.4 6.1-.5 12.3.6 18.6zM286.5 466c.4-3.6 0-7.2.4-10.8.6-4.5 0-9.1.5-13.7.4-4.3.1-8.6.1-13-.1-.1-.3-.2-.3-.4-2.8-5.6-5.4-11.3-8.5-16.7-1.8-3.2-3.7-6.3-5.6-9.6v-2.6c-1.2-2-2.4-3.9-3.6-5.8-.4.5-.8.9-1.2 1.4-1.6 2.3-2.5 4.9-3.4 7.5-.6 2-1.2 4.1-1.4 6.1-.1 2.1-.3 4.2.3 6.3.5 2 .6 4.2 1 6.3.3 1.3 0 2.9.6 4.1.6 1.3-.1 2.8.9 4 0 2 .6 3.9.9 5.9.5 3.2 1.5 6.1 2.7 9 .7 1.8 1.5 3.5 2.2 5.4.9 2.5 2.2 4.7 3.4 7 .7 1.3 1.8 2.2 2.7 3.2.9 1 1.8 2.2 2.7 3.2 1.5 1.6 3.2 3 4.8 4.6.4-.6.6-1 .8-1.4zM165.3 246.1c-.8.6-1.5 1.4-2.3 1.9-.9.6-1.9 1.2-3 1.5-1.4.3-2.7.8-4 1.3-2.9 1.2-5.8 2.6-8.7 3.9-2.1.9-4.3 1.7-6.6 2.1-1.2.2-2.5.7-3.5 1.3-.9.6-1.9.9-2.9 1-2.2.3-4.1 1.1-6.2 1.7.1.3.1.4.2.8h2.3c-.1 3.9.2 7.6.9 11.3.6 3 1.6 5.9 1.5 9 .8.7.2 1.9.6 2.6 1.4 2.4 2.1 5.5 5 6.8 1.5-1.2 3.1-2.3 4.5-3.6 1.5-1.3 2.9-2.8 4.3-4.2.9-.9 1.6-1.9 2.6-2.5 1.3-.8 2.3-1.9 3.2-3 .2-.2.4-.4.6-.5 2.5-2 5.1-3.8 7.3-6.2 2.1-2.2 4.3-4.4 6.5-6.5 1-1 1.8-2.1 2.5-3.3.3-.5.6-.9 1.1-1.4-1.3-4.5-3.6-8.7-5-13.3-.2-.2-.5-.3-.9-.7zm148.1 37.7c.1-.9 0-1.4.1-1.7 1.4-2.4 2.3-5 3.3-7.5 1-2.4 2-4.8 3.1-7.1 2.2-4.7 4.6-9.3 7.1-13.9.5-.9 1-1.8 1.7-2.7 3.3-4.5 6-9.3 9.6-13.6 1.7-2 3.3-4.3 5-6.3.7-.9 1.3-1.9 2-2.8 1.4-1.8 2.9-3.6 4.2-5.4.5-2 1.6-3.8.9-6-1.3-.3-2.7-.8-3.5-2h-1.2c-.8.5-1.6 1-2.2 1.5-1.6 1.3-3.6 1.9-5.3 2.9-1.8 1.1-3.7 2-5.6 2.7-.8.3-1.5.6-2.3.8-2.2.8-4.5 1.6-6.7 2.4.3.5.7 1 1.1 1.6.6 1 1.4 1.9 1.7 2.9.5 1.7 1.4 3.3 2 4.9.6 1.5 1.1 3 .8 4.9-1.9 1.5-3.9 3.1-5.9 4.7-1.1.9-2.1 2.2-3.4 2.8-1.4.7-2.5 1.7-3.7 2.5-1.9 1.1-3.6 2.4-5.5 3.5-3.3 2-6.5 4-9.8 5.9-1.7 1-3.5 2.1-5.3 3.2 1.9 1 3.5 2 5 3.5 2.9 2.9 5.7 5.9 8.2 9.1 1.5 1.9 2.9 3.9 3.4 6.3.1 1 .6 1.7 1.2 2.9zm110.4-180.5c-2.1-1.3-4.1-2.6-6.1-3.7-1.8-1-3.3-2.5-5.4-2.6-.1 0-.2-.1-.3-.2-1 .6-1.8 1.5-2.9 1.8-1.2.3-2.5.1-3.8.1l-.7-.7v-2l2.1-2.1c-2.4-1-2.4-1-4-.9v3.5c-3.1 3.1-4.6 3.3-9.5 1.1-1.3-2.3-1.4-4.9-2.7-7 .5-.7.9-1.2 1.2-1.6-3.4-1.5-6.7-3-10.3-3.7-1.7 1.3-3.6 2.6-6 3-.4-.5-.8-1-1.3-1.7-.8 1.1-1.5 2-2.3 3 1.8 1 3.6 1.9 5.4 3l3.6-1.8h3.7c1.9 1.9 3.7 3.7 5.5 5.4.3 1.1.5 2.1.8 3.2 3.7 2.4 7.9 3.7 12.1 4.7 1.3-2.4 3.4-3.6 6-3.8 1.1-.1 2.1.2 3.2.4 2.1.3 3.7 1.2 4.8 2.9.4.6.9 1.2 1.2 1.7v2.8c-1.2.7-2.5 1.4-3.6 2.1 1.9 1.5 3.9 3 5.8 4.5.6-.3 1-.6 1.6-.9h2.4c.7.5 1.3 1.3 2.1 1.7.9.5 1.1 1.5 2.1 2-.2 1-.4 1.9-.6 2.8.8.4 1.6.8 2.5 1.3 1.4-1.2 3-1.7 4.7-2.2 1.8-.6 3.2.2 3.9 2.1.4 1.2.9 2.4 1.4 3.6-.3 1.2-1.4 1.7-2.4 2.4.3.4.8.7.9 1.1.9 2.2 2.5 3.7 4.6 4.5 1.7.7 2.7 2.2 4.2 2.8.6-.9 1.2-2 2-2.7.9-.7 2.1-1.1 3.1-1.6l1.4.7c.3.7.6 1.2.9 1.9.4-1.3.8-2.3 1.2-3.4-.4-.1-.6-.1-.9-.2-.3-.6.1-1.8-1.2-1.9-1.2 1-2.4 1.8-4.2 2-.2-.3-.4-.7-.5-.8-.8.1-1.3.2-1.7.3-.1-.4-.2-.7-.3-1-1.3 0-2.6.2-3.6-.7-1.3-3.1-2.3-6.2-1-9.5-1.6-2-3.3-3.9-5-6-.8 1.2-1.3 2.4-2.2 3.1-.9.7-2.1 1-3.2 1.5-3.7-.9-7.5-4.7-7.7-6.7-.5-.3-1.1-.7-1.7-1.1v-5.5c.1-.4.4-.6.7-1zM210.3 479.2c-.1-1-.1-2-.4-2.8-1-2.6-.7-5.4-1.4-8.1-.3-1-.1-2.1-.5-3.2-.3-1 .2-2.2-.5-3.2 0-2.6-.7-5-.9-7.6-.2-2.5-.9-5-.6-7.5 0-.3.1-.8 0-.9-.7-.8-.5-1.7-.4-2.5.2-1-.5-1.8-.5-2.7-.1-2.4-.3-4.8-.5-7.3 0-.2.1-.4 0-.5-.7-.9-.4-2-.5-2.9-.1-1-.4-2-.5-2.9-.2-2.2.1-4.4-.4-6.6-.4-1.7 0-3.5-.1-5.3s-.5-3.6-.4-5.3c.2-3-.8-5.9-.5-9 0-.2.1-.4 0-.5-1-.9-.3-2.1-.5-3.2s-.4-2.1-.5-3.2c-.1-1.7.1-3.4-.7-4.9h-4.6v.8c.2 3.4-.3 6.8.4 10.2.5 2.4-.2 5 .5 7.5.4 1.3.1 2.9.1 4.3-.1 1.4.7 2.7.5 4.1-.3 2.3.8 4.6.4 7v.2c.7.8.4 1.8.5 2.7.1 1 .4 2 .5 2.9.2 1.8.1 3.6.6 5.3.3 1.1.1 2.2.5 3.2.8 1.9.9 4 1.3 5.9.4 2 1.2 4 1 6.1 1 .7.1 1.9.7 2.6.7.8 0 1.9.7 2.9.4.6.3 1.7.5 2.6.5 2.2.5 4.6 1 6.8.3 1.2 0 2.6.1 3.8.1 1.3.4 2.6.6 3.9 1.4 2.2 1.5 4.8 2 7.5.8.2 1.8 0 2.5-.2zm8.3-.5c-.2-1.1-.4-2.1-.5-3.1-.2-1.5.3-3.1-.5-4.6.3-2.5-.3-5-.5-7.5-.1-1.5-.1-3.1-.6-4.6-.2-.7-.3-1.3-.4-2-.1-.7-.4-1.5-.5-2.2-.2-1.7-.1-3.5-.6-5.1-.3-1.2-.1-2.6-.5-3.6-.5-1.1 0-2.2-.4-3.2-.5-1.2-.5-2.3-.4-3.4.1-.8-.5-1.5-.5-2.2v-2.8c-.9-.7-.3-1.6-.5-2.5-.1-.8-.4-1.6-.5-2.4 0-1.4-.9-2.7-.5-4.1-.9-2-.7-4.3-1.4-6.4-.4-1.3-.2-2.8-.6-4.1-.7-2.3-.8-4.8-1.3-7.1-.2-1-.6-2.1-.6-3.2s.3-2.2-.5-3.2c.2-2.7-1-5.3-1-8 0-.4-.3-.8-.4-1.3l-.6-3.9c0-.1-.2-.2-.2-.2-.5.2-.8.4-1.3.7l.6 3.9c.2 2.3.3 4.5.5 6.8v.2c.8 1 .5 2.1.4 3.2-.1 1.2.5 2.1.5 3.2.1 2.3 0 4.7.4 7 .5 2.9-.1 6 .5 8.9.4 2-.1 4.2.5 6.3.4 1.5.1 3.2.5 4.9.4 1.4.1 2.9.5 4.4.3 1.4.3 2.9.5 4.4.2 2.5.9 5 .6 7.5 0 .2-.1.5 0 .7 1 1.6.2 3.5.9 5.2.6 1.7.2 3.7.6 5.5.3 1.3.1 2.7.5 3.9.3.8.3 1.6.4 2.5.1.8.4 1.6.5 2.5.2 1.7.3 3.4.5 5.1.2 1 .6 2 1 3.1l-1.8 1.5c2.3-.4 4.4-.6 6.7-.7zm252.3-375.8c-1.1 3-2.1 5.7-3.3 8.5-.6 1.3-1.4 2.4-2.1 3.7-.4.7-.4 1.8-.9 2.2-.8.6-.7 1.5-1.1 2.2s-.7 1.5-1.1 2.4c6-2 15 1.4 16.3 1.8 2.5-2.5 6.6-2.9 10-2.9l.4-.4c.1-3.4-1.6-6.3-1.7-9.7-.7-.4-1.5-.9-2.4-1.4-1.6-.9-3.2-1.7-4.7-2.6-1-.6-2-1.5-2.9-2.2-1-.7-1.7-1.8-2.8-2.4-1.4 0-2.8-.1-3.7.8zM226.4 478.7c-.2-1.1-.4-2.1-.5-3-.1-1-.2-2-.5-2.9-.3-1.5 0-3-.4-4.6-.4-1.4-.3-3.1-.6-4.6-.2-1.2-.8-2.4-.5-3.6-1-2.4-.8-5.1-1.4-7.6-.4-1.4-.1-3-.6-4.3-.8-2.1-.8-4.3-1.3-6.4-.5-2-.6-4.2-1-6.3-.1-.9-.6-1.7-.6-2.7s-.3-2-.4-2.9c-.2-2.5-.6-5-1-7.5-.3-1.4-.1-3-.6-4.3-.3-1.1 0-2.3-.5-3.1-.7-1.1-.1-2.2-.8-3.3-.6-.9-.4-2.2-.6-3.4-.1-.6-.3-1.1-.5-1.7-.1-.6-.2-1.2-.4-1.8-.6-1.9-.9-3.9-1.1-5.8-.1-1.5-.9-3-.5-4.6-.7-.7-.4-1.6-.5-2.4-.1-.9-.3-1.8-.5-2.7 0-.2-.1-.4-.1-.5h-2.2c-.3 1.3.1 2.5.4 3.7.3 1.6.1 3.3.6 4.8.4 1.2 0 2.4.5 3.4.5 1.2.3 2.3.4 3.4v.5c.9 2.2.9 4.6 1.3 6.9.4 2.2 1.2 4.3 1.1 6.6.7 1 .2 2.2.6 3.1.8 2.1.8 4.3 1.3 6.4.4 1.6 0 3.4.6 4.8.7 1.9 0 3.8.8 5.7.5 1.2-.3 2.8.6 4.1 0 2.4.6 4.7.9 7.1.3 1.7.3 3.4.5 5.1 0 .2.1.5.1.7.4 1.5.9 2.9.8 4.5 0 .4-.2 1 0 1.2.9.8.3 1.8.4 2.7.2.9.4 1.8.5 2.7.1 1.9.1 3.9.4 5.8.4 2.4.1 4.8.8 7.3 1.5-.5 2.9-.5 4.5-.5zm-54.6-261.4c.2.7.4 1.2.6 1.7.1.5.1 1.1.2 1.6.8 2.8 1.1 5.6 1.7 8.4.2 1.3.1 2.7.6 3.9 1.3 3.2 1.1 6.6 1.8 9.8.3 1.5.1 3.1.6 4.6.4 1.2.1 2.4.5 3.4.3.7.2 1.3.4 2 .1.7.5 1.5.4 2.2 0 1.9.9 3.7.5 5.6.7 1 .5 2.1.5 3.2-.1 1.1.4 2.1.5 3.2.2 1.7 0 3.4.4 5.1.4 1.8-.1 3.7.6 5.6-.4 3.4.7 6.6 1.1 9.9.1 1 0 2.3.5 3.1.8 1.2-.2 2.7.9 3.7-.1 1.3.1 2.6.4 3.9.3 1.4.1 3 .6 4.3 1 3 1.2 6.2 1.8 9.3.4 2 .6 4.1 1 6.1.4 2.3.4 4.6 1 6.8.2.9.1 1.8.4 2.7.3.9-.1 2 .6 2.9-.1 2.6.9 5.2 1.1 7.8.1 1.3.2 2.6.5 3.9.2.7.3 1.3.4 2 .1.7.4 1.5.5 2.2.2 1.5.1 3 .6 4.3.4 1.1 0 2.3.5 3.1.6 1 0 2 .4 2.7.6 1 .3 2 .4 3 .2 1.6 0 3.3.6 4.8.4 1 0 2.2.5 2.9.7 1 .2 2 .4 3 .1.3-.1.8 0 .9.7.6.3 1.3.5 2 .1.7.5 1.5.4 2.2-.3 3.5.9 6.9.5 10.3 1.4 1 2.9.7 4.5.7-.3-.3-.6-.5-.6-.7V383c-.1-.8-.3-1.6-.5-2.5-.2-1.3-.2-2.7-.6-3.9-.8-2.3-.7-4.6-1.3-6.9-.3-1 .2-2.1-.4-3.2-.5-.8.1-2.1-.6-3.1.1-2.6-1-5.1-1-7.8 0-1-.4-2.1-.6-3.1-.3-1.3-.8-2.6-.8-4 0-1.3-.8-2.4-.5-3.6-1-1.6-.9-3.5-1.3-5.2-.2-.8-.2-2-.6-2.6-.6-.9-.4-1.9-.8-2.8-.8-1.7-1.3-3.7-1.5-5.6-.2-2.2-1.2-4.3-1-6.6-.8-1.1-.5-2.5-.9-3.7s-.2-2.6-.6-3.9c-.4-1.2-.2-2.5-.5-3.6-.2-.8-.3-1.5-.4-2.2-.1-.8-.4-1.6-.5-2.5-.2-1.9-.3-3.7-.5-5.6 0-.2.1-.4 0-.5-.8-.7-.3-1.6-.5-2.5-.1-.8-.4-1.6-.5-2.5-.2-1.9-.1-3.9-.6-5.8-.3-1.2-.1-2.4-.5-3.4-.3-1-.5-2-.4-2.9.2-1.2-.5-2.1-.5-3.2-.1-2.1-.3-4.2-.5-6.3v-.5c-.9-.8-.3-1.8-.4-2.7-.2-1-.4-1.9-.5-2.9-.2-2-.3-4-.5-6.1v-.2c-.8-.8-.3-1.8-.5-2.7-.2-1-.4-1.9-.5-2.9-.2-2.2-.3-4.4-.5-6.5v-.5c-.6-1.3-.7-2.8-.9-4.2-.3-1.5-.6-3-.9-4.4-.3-1.3-.1-2.6-.5-3.9-.3-1.2-.3-2.6-.5-3.9-.2-2.2-.8-4.4-1.2-6.6-.3-2-.9-4-.9-6.1 0-.8-.3-1.6-.5-2.4-.8.3-1.3.3-2.1.3zm45.9 314.2c2.3-.3 4.5-.5 6.7-.7-.2-1.9 0-3.6-.4-5.4-.4-1.8-.1-3.7-.5-5.6-.4-1.8-.1-3.7-.4-5.6-.4-2.4.1-4.9-.6-7.3-.1-.2 0-.5 0-.7 0-2.5.3-5-.1-7.5-.4-2.4-.3-4.8-.4-7.3h-6.2c0 2.1-.1 4.1 0 6.1s-.2 4 .4 6.1c.4 1.2.2 2.6 0 3.8-.2 1.3.5 2.4.5 3.7.2 3.9-.5 7.8.5 11.6-.3 2.8.4 5.6.5 8.8zm18.2-46.8c-1.6-2.6-4.1-3.5-7.3-2.6-.4.1-.9.2-1.2 0-1.4-.8-2.9-.3-4.4-.5-.6-.1-1.2-.3-1.7-.4-.6.3-1.2.7-1.9 1-.4-.4-.8-.7-1.2-1.1-1.8.2-3.6.5-5.4.5-2.8-.1-5.4.5-7.9 2.1-.5-.4-.8-.8-1.2-1.1-1.4.5-2.7 1-4.1 1.3-1.4.4-3.1.2-4.2 1.3v1.9c1.2 1.4 2.5 2.6 4.9 3.3 3.5-.1 7.7-.3 12-.5-.1-1.4-.1-2.5.7-3.5 1.1 0 1.8-1.5 3.2-.8-.8 1-.3 2.1-.5 3.2 1.1 0 2 .3 2.8-.1 1.5-.6 2.9-.4 4.4-.4h5.5c1.2 0 2.4 0 3.5-.9.8-.7 1.9-.8 2.9.1.4-.9.7-1.8 1.1-2.8zm-69.2-319.8c-.2-.7-.5-1.5-.6-2.3-.2-2.5-.4-5-.5-7.5-.1-1.8 0-3.5 0-5.3 0-.4.2-1 0-1.2-.9-.8-.1-1.9-.5-2.7-.5-1-.5-2-.4-3 .1-1.5-.5-2.9-.8-4.3-.4-2.2-1.3-4.2-1.2-6.5 0-1-.2-2.2-.7-3.1-1.2-2.2-1.3-4.7-1.6-7-.2-1.4-.5-2.7-1.1-3.9-.9-1.7-1.4-3.6-2-5.5H156v5.3c0 1.3.6 2.5.5 3.9-.1 2.3.3 4.7.4 7v.2c.9 2.4.7 4.9 1.4 7.4.5 1.7.5 3.7.7 5.4.7.3 1.3.6 2 1-.6.7-1.1 1.3-1.7 2 .2.7.5 1.4.5 2.3.1 1.2 0 2.4 0 3.6.1 1.1.3 2.3.5 3.4.1.8 0 1.5.4 2.2.4.6.1 1.4.4 2.2.6 1.5.9 3.2 1.1 4.8.1 1 .3 1.8.7 2.5 1.1-.1 2.3-.4 3.8-.9zm38.4 221.8c0-1.1.2-1.9 0-2.4-.5-.9-.2-1.9-.5-2.7-.4-1-.3-2-.5-2.9-.3-1.4-.6-2.7-.5-4.1-.7-.6-.4-1.5-.5-2.2-.1-.8-.3-1.6-.5-2.5-.1-.7.2-1.6-.5-2.2-.1-2.1-.6-4.1-.9-6.1-.2-1.7-.1-3.5-.6-5.1-.3-1.1-.2-2.2-.5-3.2-.4-1.2-.4-2.3-.4-3.4 0-.2.1-.4 0-.5-.9-.8-.3-1.8-.5-2.7-.2-1-.4-1.9-.5-2.9-.2-2-.3-4-.5-6.1v-.2c-.7-.6-.4-1.5-.5-2.2-.1-.8-.4-1.6-.4-2.5-.1-1.1-.1-2.1-.4-3.2-.3-1-.3-2.1-.5-3.2-.3-2.7-1.4-5.1-1.5-7.8-1.5-3.8-2.3-7.8-2.9-11.8-1-.8-.3-2-.7-3.1-.6-1.5-.9-3.2-1.2-4.8-.3-1.9-.8-3.7-1.2-5.5-.5-2.1-.7-4.3-1.2-6.5-.4-1.7-.2-3.6-.6-5.3-.3-1.3-.2-2.7-.5-3.9-.2-.8-.3-1.5-.4-2.2-.1-.8-.3-1.6-.5-2.5-.2-1.5-.3-2.9-.5-4.4 0-.4-.4-.7-.4-1-.1-.3 0-.6 0-1 0-.3-.1-.6-.2-.8-.1 0-.2 0-.4.1.2 2.2.4 4.5.6 6.7.8.9.3 1.9.5 2.9.1 1.1.5 2.1.4 3.2-.1 2 .9 3.8.5 5.8v.2c.9.9.3 2 .5 2.9.2 1 .5 2 .5 2.9 0 1.7.9 3.4.5 5.1.7.6.4 1.4.5 2.2.1.8.3 1.6.5 2.5.1.8-.1 1.7.2 2.3.5.8.2 1.5.3 2.3 0 .8.4 1.5.4 2.2.2 2.4.8 4.7 1 7.1.2 2.2 1.2 4.3 1 6.6 1 1.8.9 4 1.4 5.9s.9 3.8 1.5 5.7c.8 2.5 1.5 5 1.9 7.6.5 2.9 1.4 5.6 1.5 8.5.7.8.2 1.9.5 2.7.6 1.4.5 3 .9 4.5.3 1.5 0 3.2.6 4.6 1 2.4.9 4.9 1.3 7.4.4 2.4.8 4.9 1.2 7.3.2 1.1 0 2.3.5 3.1.6 1.1 0 2.2.5 3.2.7 1.1.1 2.3.3 3.5v.8c.4.4.7.6 1.4 1.1zm28 143c-.3-1.3.2-2.5-.4-3.9-.6-1.2.3-2.8-.6-4.1.3-2.1-.5-4-.5-6.1v-14.9c0-1.8.1-3.5 0-5.3-.1-1.7-.4-3.3-.6-5.2-1.8.7-3.9.4-5.6 1.7 0 2.2.1 4.4.4 6.5.5 3.2-.2 6.4.5 9.7.5 2.2-.1 4.5.5 6.8.4 1.8-.3 3.8.5 5.6-.4 3.1.7 6.1.5 9.1l.8.8c1.3-.2 2.8-.5 4.5-.7zm-76-419.7c-.2-.5-.5-1-.6-1.5-.1-2.8-.8-5.6-1.5-8.3-.5-2.1-1.1-4.2-1.7-6.3l-2.1-7.8c-.5-1.7-.7-3.4-1.2-5.1s-.8-3.5-1.2-5.3c-.4-2-.7-4.1-1.1-6.1-.4-2.1-.7-4.3-1.3-6.4-.4-1.5-.7-3.1-1.1-4.5h-2.7c1.5 1.4.6 3 1.3 4.5.5 1 .1 2.2.5 3.4.3 1.1.3 2.3.5 3.4.3 2.3.8 4.5 1.1 6.8.2 1.1.1 2.2.4 3.2.8 2.4.9 4.9 1.3 7.4.4 2.6 1.1 5.1 1.1 7.8.9 1 0 2.5 1 3.4.8 3.1 2.1 6 2.9 9.1.3 1.2 1 2.3 1.4 3.4 1-.3 1.9-.7 3-1.1zm319.5-13.6c-.1 0-.1 0 0 0-.3-.3-1.8-.7-2.1-.9-.3-.2-.7-.2-1-.2-4.8.7-9.1 2.7-13.6 4.3-1.5.5-3.1 1.4-4.6 1.5-1.7.1-3.6.5-5.3-.3-.6-.3-1.6-.1-2.3.1-1.4.4-2.9.8-4.3 1.3-.5.2-.9.5-1.2.7.4 1.3 1.1 2.2 2.6 2.6 1.7 0 3.1.2 4.8-.2 2.4-.6 5-.7 7.5-1 1.7-.2 3.3-.4 4.9-.8 1.9-.4 3.7-1 5.6-1.6 1.8-.6 3.7-1 5.5-1.5 1.2-.4 1.9-.5 3.1-.4.2 0 1.9 1.1 2.1 1.2 1.3 1.1 2 1.4 3.5 2.2 1.3.7 2.5 1.7 3.9 2.6-.2-1.5-.4-2.8-.6-4.2-1.9-1.1-2.4-2.1-4.3-3.2-1-.5-1.9-1.1-2.9-1.6-.6-.2-1-.3-1.3-.6zM173.3 251.3c0-.3.1-.7 0-.9-.8-1.1-.6-2.5-.9-3.7-.4-1.8-.2-3.7-.6-5.5-.3-1.2-.1-2.4-.5-3.4-.8-1.7-.9-3.5-1.3-5.2-.4-1.8-.7-3.6-1-5.4-.1-.9-.5-1.7-.6-2.7s-.4-1.9-.5-2.8c-2.3 1.9-4.5 3.7-6.8 5.5 1 4.4.2 9 1.7 13.6 1 .9 1.9 2.4 3.5 2.5 1.3-.6 2.3-1.1 3.5-1.6.2 3.7 2.3 6.5 3.5 9.6zm34.3 241.6v1c.1.8.3 1.6.5 2.4.1.8-.4 1.8.5 2.4.1 1.8 0 3.5.4 5.3.4 2.2.1 4.5.5 6.8.4 1.9-.1 3.9.5 5.8.5 1.5-.1 3.2.4 4.9.5 1.5.4 3.2.5 4.8.1 1.9.9 3.8.6 5.7 1.2.5 2-.1 2.9-.6 0-1.3.2-2.7-.5-3.9.4-3.2-.5-6.4-.5-9.7 0-2.6.5-5.2-.4-7.7.4-3.4-.6-6.7-.5-10.1.1-2 0-4 0-6v-2c-1.8.4-3.3.7-4.9.9zM144.7 20.8c.6.3 1.1.4 1.3.7 1 1.4 2 2.9 2.8 4.4 1.1 1.9 1.7 3.9 2.3 6 .3 1.2.6 2.5 1 3.7.4 1.1.2 2.5.6 3.6.4 1.3.4 2.6.4 3.9v5.3c-.9 2.9-3.7 4.2-5.5 6.7.4.2.8.3 1.3.5 1.4-1 3.4-1.9 5-3.5 1.7-1.6 1.9-3.9 3.1-5.7v-1.7c0-1.9-.1-3.9 0-5.8.1-2-1.2-3.7-1-5.6-1.3-3.1-2.1-6.3-3.7-9.3-.4-.8-.9-1.3-1.6-1.8-1.7-1.4-3.6-1.7-6-1.4zm22.2 96.8c.1.9-.1 1.8.3 2.5 1.3 2.8 1.4 5.9 1.8 8.9.3 2.2.6 4.4 1.1 6.6.2 1 .3 2 .5 2.9.3 1.2 0 2.5.5 3.4.6 1.1.2 2 .4 3s.4 1.9.5 2.9c.2 1.7-.2 3.4.4 5.1.4 1.2 0 2.5.1 3.8s.3 2.6.5 3.9c.1.4.1.9.1 1.3.8-.2 1.4-.3 1.9-.5.6-.3 1.2-.7 1.7-1 .1-.2.1-.4.1-.5-.1-1.1.1-2.1-.4-3.2-.5-1 .3-2.3-.6-3.4.3-2.4-.8-4.5-1-6.8-.1-1.1-.3-2.2-.6-3.1-.7-2.2-.7-4.5-1.3-6.7-.3-1.3-.7-2.5-.5-3.9-.9-.7-.3-1.6-.5-2.4-.2-.8-.4-1.6-.5-2.4-.2-2.1-.6-4.2-1.1-6.3l-.3-1.5c-.2-1.2-.4-2.3-.7-3.5-1 .2-1.8.6-2.4.9zm3.6-11.1c0-1 .3-2.4-.1-3.5-.7-1.9-.5-3.9-1.4-5.7 0-2.9-1.1-5.5-2.1-8-1.4-3.4-2.1-7-4.1-10.1.3-1.2-.7-2-1-2.9-.7-2-1.4-4.1-2.8-6.1 0 .7-.1 1.1 0 1.5l1.5 6.6c.6 2.6 1.1 5.3 1.8 7.9.4 1.6.6 3.3 1.1 4.8.7 2 .7 4 1.2 6 .4 1.4 0 3 .6 4.3.5 1.1.1 2.3.6 3.4.4 1 .5 2.2.8 3.3.1.4.6.8.9 1.2 1-1.1 1.9-1.8 3-2.7zm-37.3-64.1h-4.6c-.5 0-1 0-1.4.2-1.2.7-2.5.1-3.7.3-1.1-1-2.4-.3-3.5-.5-.3 1 .3 2-.6 2.6-.8 3.2 1 5.6 4.3 5.6 1.5 0 3 .4 4.4-.4.3-.2 1-.2 1.2 0 .9.9 2 .2 2.9.5 2.8-2.3 2.7-5.4 1-8.3zm299.1 139.1c-.3.3-.6.6-.8.9-.9 1.5-1.6 3.1-2.7 4.4-1.7 2.1-2.8 4.5-4.2 6.7-.3.5-.7 1-.8 1.6-.1 1.4 0 2.8 0 4.2.4 0 .5 0 .7.1.4-.7.7-1.4 1.1-2.1.9-.5 1.7-.9 2.6-1.4h2.2c.1-.3.3-.6.4-.9.4-1.9 1.8-3.1 3.4-3.8 1.9-.9 3.2-2.3 4.7-3.7-.8-.5-1.4-.9-2-1.3-.2-1.2 1.1-2.1.2-3.3-.8.4-1.6.7-2.5 1.2-.3-.8-.5-1.4-.7-2-.6-.1-1.1-.3-1.6-.6zM163.1 66.6c.8 2.9 2.4 5.3 3.2 8.1 1.6 0 3.2-.1 4.8 0 1 .1 1.8-.2 2.6-.7.9-.6 1.7-1.3 2.5-1.8v-4.8c-.3-.5-.5-.9-.7-1.3-4 .9-8.1.1-12.4.5zm-38.2 8.6h-2.3c2.9 2.4 3.1 5.3 2 8.7 2.3-.4 4.4 1.4 6.1.1 1.2.2 2.1.3 3 .4.6-.8 1.1-1.5 1.6-2.2.1-3-.1-3-.9-4.9-.5-1.2-1.4-1.6-2.2-1.6-1 0-1.7-.6-2.6-.6-1.2.6-2.4 1.1-3.6 1.7-.4-.6-.7-1-1.1-1.6zM459.1 90c1.5-.3 2.9-1.1 4.3-1.7.8-.4 1.6-.8 2.5-1.3-1.8-.5-3.4-.6-4.8-1.3-1.7-.8-5.8-.9-6.1-.9-3.1-.3-8.1-2.3-9-2.3s-1.8 1.5-.4 3.7 5 3.2 7 3.3c1 .6 4.8.8 6.5.5zm-287.2-1.7c.6 2.4 1.2 4.7 1.8 7.1.8-.2 1.6-.4 2.5-.6.3.4.5.8.6 1h2.2c.7-.5 1.2-.8 1.5-1.1-.1-2.5.4-4.9-1.1-7-2.4.2-4.9.4-7.5.6zm-3.2-43.5c1.1-1.5.7-3.1.8-4.7-1.1-.9-2.1-1.7-3.1-2.4h-4.5c-.3 2.4.4 4.7-.6 7.2 1-.7 2.1-.8 2.9-.5 1.5.7 3.1.2 4.5.4zm52.7 501c.2 1.3.4 2.4.6 3.6l.6 3.6c.9.2 1.8.5 2.8.7.2.4.5.8.7 1.2h.6c.6-2.9-.5-5.7-.5-8.5 0-.2-.3-.3-.5-.6h-4.3zM179 198c.4 2.9.8 5.5 1.2 8.2 1.5-.3 2.8 1 4.1.4-.5-3.4-1.8-6.6-1.8-10-1.2.4-2.2.8-3.5 1.4zM148.8 57.4c0 .5-.2 1 0 1.4.9 1.9.8 4 1.4 5.9.6 2.5.9 5.1 1.4 7.6.6 3.1 1.1 6.2 2 9.3.9 3.3 1.7 6.7 2.5 10 .4-.6.6-1.2.4-1.6-1.2-2.8-1.1-6.1-2.4-8.9.2-1.4-.5-2.7-.8-4s-.3-2.8-.7-4 0-2.5-.5-3.4c-.8-1.2.3-2.6-.8-3.5.3-1.3-.3-2.4-.5-3.7l-.6-5.1h-1.4zM220 537.9c.4 1.8.4 3.7 1 5.2 1-.1 1.7-.1 2.5-.3s1.6-.4 2.5-.6c-.2-.8-.4-1.6-.5-2.4-.1-.9 0-1.7 0-2.7-1.9-.1-3.6-.1-5.5.8zm13 15.4v-8.5c-1.3.2-2.5.4-3.6.6.4 2.8 1 5.5.8 8.5h2.3c.1-.2.2-.3.5-.6zm-13.8 0c-.4-2.2-.9-4.4-1.3-6.5h-3.7c.2 2.6 1 4.9 1.7 7.1 1.1-.2 2.1-.4 3.3-.6zm9.6-17v5.7c1.4-.2 2.8-.5 4.2-.7v-5.7c-1.4.2-2.8.4-4.2.7zm-16.1 1.8c.3 1.9.5 3.5.8 5.1l.6.6h3c.7-2-.6-3.8-.3-5.7h-4.1zm-92.4-458c-1-1.2-2-2.4-3.2-3.8-1.1 2.4-.3 4.7-.6 6.7 1.2 1.9 2.6-.3 3.8.5v-3.4zm304.1 83.1c-.3 1.5.3 2.5.7 3.7.4 1.2.7 2.4 1.3 3.6.6 1.2 1 2.5 2 3.5.9.8 1.2 2.3 2.5 2.7 0-.2.1-.4 0-.4-1.7-2.1-2.5-4.7-3.4-7.2-.5-2.2-1.5-4.2-3.1-5.9zm22 61.4v-4.4h-1.2c-1.6 1.7-2.3 4-4 6.4 2.1-.8 3.6-1.4 5.2-2zM133.8 97.8c0 .9.1 1.7 0 2.4-.1.6-.3 1.2-.5 2 .8-.2 1.4-.5 1.9-.5.6 0 1.2.3 1.9.5v-2.8c-.5-.8-.8-1.3-1.1-1.6h-2.2zM173 206.1c-.3-1.6-.5-2.9-.7-4.2-1.1.5-2.2.9-3.2 1.3-.1 1.9-.1 1.9.6 2.8 1 .1 2 .1 3.3.1zm265-.4c1.6-1.4 2.2-3.2 2.2-5.6-1.4 1.7-2.6 3.1-3.8 4.5 0 .3.1.7.1 1 .5.1.9.1 1.5.1zm-34.3-45c1.4.3 2.3.7 3.3.9 1.2.3 2.5.7 3.6-.2-.2-1.1-.9-3.1-2.2-3.8-.2 1-1 2-1.7 2.4-.7.3-1.5.8-3 .7zm-242.8-50.4c.7-1.4.2-2.1 0-2.9-.2-.7-.1-1.6-.2-2.3-.2-.8-.5-1.5-.8-2.3-.2-.7-.5-1.4-.7-2-.2 1.1 0 2.2.2 3.2.2 1.4.3 2.9.5 4.3.1.6.5 1.1 1 2zm248.6 27.8c.5 1.7.9 3.1 1.4 4.5.2.6.5 1.2 1.5.8-.2-1.4-.5-2.8-.7-4.2-.7-.4-1.4-.7-2.2-1.1zM219.6 535.2c1.8-.2 3.5-.5 5.2-.7v-1.1c-1.8-.6-3.4.7-5.2.3v1.5zm200.7-372c-.3-1.2-.6-2.3-1.4-3.2-1-1.1-1.9-2.2-2.9-3.3 0 0-.2.1-.4.1 1 2.6 3.2 4.2 4.7 6.4zm-1.8 78.3c-.8.4-1.2.7-1.7.8s-1.1 0-1.7 0c.7.9 1.3 1.7 2 2.5 1-.7 1.5-1.6 1.4-3.3zm14.4-16.9l-.6-.3c-.6 1.3-1.2 2.5-1.9 4h1.5c.3-.5.6-1.1 1-1.6v-2.1zM228.3 533.7c1.6.2 3.2.1 4.7-.6v-.6c-1.7-.7-3.1.5-4.7.4v.8zm184.2-294.4c1-.3.6-1.1.7-1.8.2-.6.6-1.2.9-2-1.5.7-1.9 1-2.9 2.7.5.3.9.7 1.3 1.1zm17.2-6.4c1.5-.9 1.2-2.3 1.8-3.2 0-.1-.1-.3-.2-.6-.6.2-1.2.5-1.6.6v3.2zM409.2 254c-.2-1-.3-1.7-.5-2.5-.9.5-1.8 1.1-3 1.7 1.4.3 2.4.5 3.5.8zM212 535.7c1.4-.1 2.8.1 4.2-.5h-1.7c-.1-.4-.2-.7-.3-1-.3 0-.5-.1-.7 0-.5.2-1 .5-1.5.7-.1.3-.1.4 0 .8zM163.9 121c-.1 2 .2 3.9 1.1 5.7.3-2.1-.9-3.8-1.1-5.7zm-1.3-3.8c.6-1.9-1-3.3-.8-5.1-.5.1-.7.2-1 .3.6 1.6 1.1 3.1 1.8 4.8zM442 245.4c2.2.3 3.4 0 4.4-1.2-1.6-.2-2.9.6-4.4 1.2zm-34.1-105.5c-.5-1.1-1-2.1-1.5-3.3-.3.4-.5.7-.7.9.5.9.9 2.1 2.2 2.4zm2.4 88.3v-2.7c-.4.1-.6.1-.9.1v3c0 .1.2.2.3.2.1-.2.3-.4.6-.6zm34.1-55.6c-.1-.1-.1-.2-.2-.2-.7.4-1.4.7-2.2 1.1.1.5.1.9.1 1.3.9-.8 1.6-1.5 2.3-2.2zM127.2 97.9c.6.7 1 1.1 1.4 1.5.4-.4.7-.7.9-1 .1-.1 0-.3 0-.6-.6.1-1.2.1-2.3.1zm276.4 58c.5 0 .6.4 1.1-.1 0-.5.2-.3.2-.8-.6-.6-1-.6-1.4-.3-.4.2-.7.9.1 1.2zm16.3-.5v-2.3c-.5 0-.9.1-1.4.1.4.8.8 1.3 1.4 2.2zm-2.3-4.4c.6.4.8 1.3 2 1.2-.4-.7-.8-1.3-1.2-2-.3.3-.6.5-.8.8zM131 255l.4.4c.5-.5 1-.9 1.8-1.7-1.4.2-1.7.9-2.2 1.3zm313.2-46.4v1.5c.3-.1.6-.1.9-.2 0-.5-.1-.9-.1-1.3h-.8z"/><path class="st1" d="M348.7 572.7c-.2-.3-.5-.7-.5-1 .3-1.8-.2-3.6-.6-5.3-.5-2.5-.7-5.1-1.3-7.6-.4-2-.7-4.1-1.2-6.1-.5-2.6-.9-5.2-1.7-7.7-.5-1.6-.7-3.2-1.1-4.8-.5-2.3-1-4.6-1.5-6.8-.4-1.5-1.1-3-1.3-4.5-.3-2-1.1-3.9-1.6-5.9-.7-3-1.8-5.8-2.8-8.7-.7-2.1-1.5-4.2-2.4-6.2-2-4.3-4.2-8.5-6.2-12.8-2-4.5-4.4-8.7-6.4-13.2-.1-.3-.3-.5-.5-.8.3-.5.7-1 1-1.5l.5-.5c.8-.2 1.6-.4 2.6-.6.5.7 1.2 1.4 1.6 2.2 1.5 3 3.2 5.9 4.4 9 1.7 4.1 4 8 5.8 12 2 4.5 3.8 9 5.3 13.7 1 2.9 1.9 5.8 2.7 8.7.6 2.1 1 4.2 1.6 6.3l1.8 7.2c.4 1.7.9 3.5 1.2 5.3.3 1.7.7 3.5 1.2 5.2.3 1 .5 2.1.6 3.1.2 2.1.8 4.2 1.1 6.3.2 1.9.7 3.7.9 5.6.3 2.2.8 4.3 1 6.6 0 .9.5 1.8.4 2.7-1.4.1-3 .1-4.6.1zm116-50.1c0 .5.1.8.1 1.3-1.3 1-2.6 2.2-4.1 3-1.4.7-2.6 1.7-4.1 2.3-3 1.2-5.9 2.5-9.1 3.1-1.3.3-2.6.8-3.9 1.1-1.8.4-3.5.9-5.3 1.2-1.1.2-2.5 0-3.4.6-1.1.7-2.2.2-3.3.8-1.1.6-2.7.4-4.1.6-1 .1-2 .3-2.9.5-.9.1-1.8-.2-2.7.5-.3.2-.9 0-1.4 0-2.2 0-4.3.1-6.5 0s-4.4-.1-6.5-.5c-1.9-.4-3.8-.6-5.9-1 .1-.5.1-1 .3-1.8-1-1.8-2.3-3.8-3.4-5.8-2.6-4.9-5.2-9.9-7.6-14.9-1.4-2.9-2.7-5.8-3.8-8.8-1.2-3.3-2.6-6.5-3.5-9.9-.4-1.4-.9-2.8-1.4-4.2-.6-1.6-.8-3.3-1.3-5-.7-2.3-1-4.7-1.8-6.9-.3-.9-.1-1.9-.5-2.9-.5-1 0-2.5-.6-3.3-.7-1 .2-2.3-.9-3 .3-2.1-.7-3.9-1.1-5.8s-.6-3.8-1.3-5.7c-.4-1.1-.1-2.5-.1-3.8 1-1.2 2.4-1.8 4.1-2.3.2.4.3.9.4 1.1 1.3-.1 2.2-.1 3-.2.4 0 .7-.3 1-.4 1.9-.2 3.8-.1 5.6-.5 3.1-.8 6.3-.7 9.3-1.9 2.4.2 4.5-1.5 6.9-1.4 1.8-1 3.8-1.3 5.6-2.1 3.5-1.4 6.9-3.1 10.4-4.7.3-.2.6-.4 1.2-.7.7-1.7 2.4-2.4 4.3-3.2.8.4 1.6.7 2.5 1.2 1.1 1.9 2.3 3.8 3.5 5.8.4.7.8 1.4 1.2 2.2 3.1 5.5 5.7 11.3 8.7 16.8 2 3.7 3.8 7.6 5.9 11.3 4.3 7.5 8.1 15.2 11.9 23 1.7 3.5 3.5 7 4.7 10.8.4 1.4 1.3 2.6 2 4 .2.5.3 1 .5 1.5-.9 1.5-2.4 1.9-3.9 2.6-.4-.3-1-.6-1-.9 0-1.1-.7-1.8-1-2.7-.8-1.9-1.9-3.7-2.6-5.7-.6-1.9-1.6-3.7-2.4-5.5-1.3-3.4-3.2-6.5-4.8-9.8-1.3-2.5-2.4-5.1-3.8-7.6-1.4-2.6-2.9-5.1-4.3-7.6-1.7-3.1-3.2-6.2-4.8-9.3-2.6-5-5.1-9.9-7.7-14.9-1.7-3.2-3.5-6.3-5.3-9.4-.3-.5-.8-1-1.2-1.5-2.7 1.3-5.4 2.7-8.1 3.8-4.1 1.7-8.1 3.7-12.4 4.9-2.7.8-5.3 1.6-8.1 2-1.3.2-2.7.4-4 .8s-2.8.2-4.1.6c-1.2.4-2.4.1-3.4.5-1.1.3-2.1.3-3.2.4-.6.1-1.1.4-1.7.6.3 1.7.4 3.3.9 4.9.5 1.7.5 3.6 1.3 5.3.4.9.3 1.9.5 2.9.6 2.1 1 4.3 1.4 6.4.4 2.3 1 4.6 1.6 6.8.5 2.2 1.1 4.3 1.7 6.5.9 3.2 2 6.4 3.1 9.6.8 2.2 1.7 4.4 2.5 6.7 2.2 5.4 4.8 10.7 7.6 15.9 1.3 2.5 2.5 5.1 4.1 7.4.8 1.1 1 2.5 2.1 3.5.1 1.6 1.7 1.8 2.7 2.1 1.4.5 2.9.4 4.4.5 2.3.2 4.5.5 6.8.4 2.4-.1 4.8-.6 7.3-.4 1-.7 2.1-.3 3.2-.5 1-.2 2-.3 2.9-.5 1.9-.5 3.8-.7 5.7-1.2 1.6-.4 3.2-.7 4.8-1.1 2.2-.6 4.5-1.1 6.7-1.8 2-.6 3.8-1.2 5.6-2.1 1-.5 2-1.1 2.9-1.7 1.7-1.4 3.3-2.4 5.4-2.9zm-155.4-209c-.5-2 .8-3.2 2.1-4.3.3-.2.5-.4.7-.7 1.3-1.7 2.9-2.8 5.4-2.7-.3.5-.4.9-.6 1.2.3.3.6.6.9 1-.2.7-.2 1.6-.6 2.2-.7 1-1.6 2.1-2.6 2.7s-2.2 1.1-3.4.1c-.3-.2-1.2.3-1.9.5zm3.8 54.7v-4.2c.9-1.6 2.5-2.2 4.2-2.6.2.1.5.3 1.1.6.2.5.4 1.3.7 2.1.2.1.5.2.8.3 0 .2.1.4 0 .5-.3.6-1.1.9-1 1.8 0 .2-.3.5-.5.7-.8.9-1.9 1.2-2.9 1.6-.9.2-1.7-.4-2.4-.8zm24.6 76.4h2.5c-.2.7-.5 1.2-.5 1.7 0 .6.3 1.2.5 1.8-1 .8-1.9 1.5-2.7 2.2-1-.1-2.1.4-2.7-.7v-3.1c.9-.6 1.9-1.3 2.9-1.9zm-156.4-1.5l-.2.2c-3.1 1.3-4.1 4.1-4.9 7-.8 2.6-1 5.3-1.8 7.9-.1.4-.1.8-.1 1.2v1.9c-.2 5.8-.3 11.6-.5 17.4-.1 1.2-.2 2.5-.5 3.6s0 2.5-.9 3.5c.1 2.7-1.5 5.1-1.4 7.8-1.1 1.2.2 3-1 4.2v4.3c.1 3.6-1.3 6.5-3.8 9-.8.8-1.5 1.8-2.3 2.6-1.3 1.3-2.7 2.7-4.5 3.7-1.3.7-2.5 1.5-4 2.1-1.7.6-3.3 1.2-5.1 1.1h-3.4c-4-.2-7.4-1.6-9.6-5.2-.2-.3-.4-.5-.8-.8v-3c-.1-2.8 1.3-4.6 3.6-5.9.2-.1.5-.1.6-.2 1.4-1.3 2.9-.7 4.3-.2 1.5.5 2.3 1.6 2.6 3.4-1.1.7-.9 2.3-1.8 3.2-.9.9-2 1.6-3.2 2.4.9 1.2 2.2 1.8 3.6 2.4 2.5 1.2 5.2.9 7.8.9.7 0 3.6-1.2 4.4-2 2.2-2.1 4.4-4.2 5.6-7 .5-1 .8-2.1.8-3.3.1-2.6 0-5.2.5-7.7.5-2.6.7-5.2 1.9-7.6-.2-2.2 1.3-4.1 1-6.3.9-1.6.5-3.4.4-5.1-.2-2.7.6-5.3.5-8s-.1-5.5 0-8.2c.1-1.1.1-2.4.5-3.4.5-1.1-.1-2.4.9-3.3-.1-1.6.6-3 .9-4.4.6-3.2 2.5-5.4 4.8-7.4 1.7-1.6 3.9-2.5 6.1-3.3 1.9-.7 3.9-.3 5.8-.5l2.6 2.6c0 .2 0 .5.1.6 1.2 2.2.9 4.5 1 6.8 0 .9-.4 1.7-1 2.2-1.3 1.2-2.9 2.1-4.7 2.6-1.5.4-3.6-1.1-3.9-2.8-.3-1.5-.4-3.1-.7-4.7 1.2-.1.8-1.4 1.8-1.7.7-.2 1.4-1 1.9-1.3l-1.2-1.2.3-.3c-.8.2-1.9.2-3 .2zm60.5-7.7h-2.1c-1.2.6-2.3 1.1-3.7 1.9h2.9l.7.7v2.3c-.4.8-.7 1.6-1.1 2.4-.9 1.7-2.5 2.2-4.2 2.8-1.1-.4-1.5-1.5-2.5-2-1.1-.5-1.2-3.5-.2-4.6 1.3-1.3 2.5-2.7 4.3-3.6s3.7-1.7 5.6-2.8c.4 0 1 .1 1.6 0 2.6-.4 4.6 1.1 6.4 2.5 1.2.9 2.3 2.1 2.8 3.6.3.8.8 1.6 1.3 2.3 1.5 1.9 2.3 4.1 2.9 6.5.6 2.4 1.9 4.5 2.4 6.9.9.9 0 2.3.9 3.2-.2 2.4 1 4.4 1.7 6.5.6 2.1 1.3 4.2 2.1 6.3.6 1.5 1.4 3 1.9 4.5 1 2.7 2 5.3 3 7.9.2.5.4 1 .6 1.4.7 1.4 1.5 2.7 1.9 4.3.3 1.2 1.1 2.3 1.8 3.3.9 1.2 1.9 2.3 2.9 3.4.7.8 1.3 1.7 2.1 2.5 1.7 1.8 3.8 3.2 6.2 3.7 1.8.4 3.7.2 5.6.1.5 0 1-.6 1.5-1 .4-.3.8-.6 1.6-1.3.9-2 .4-4.6.3-7 0-1.4-.9-2.9-2-4-1.7 1.5-3.5 2.8-6 2.9v-4.2c2.1-2.3 4.7-3.3 8-3 .1.2.1.5.2.9h.8c2 1.3 2.9 3.3 3.9 5.4 0 1.6-.1 3.5 0 5.5.1.9-.3 1.6-.7 2.1-1.8 2-3.7 4.2-6.2 5.3-2.1.9-4.2 1.8-6.6 1.6-1.5-.1-3 0-4.6 0-1.7-1-3.3-1.9-5-2.9-.3-.2-.6-.3-.8-.5-1.9-2.6-4.3-4.9-6-7.6-.9-1.3-1.4-2.8-2-4.2-.6-1.4-1.4-2.6-1.9-4-.6-1.8-1.5-3.6-2.2-5.4l-2.1-5.4c-.7-1.8-1.5-3.6-2-5.4-.4-1.5-.7-3.1-1.4-4.5-.6-1.4-.6-2.9-1.4-4.2.2-2.3-.6-4.5-1.5-6.6-1.3-2.9-1.6-6.2-3.3-9-1.3-2-2.3-4.2-3.6-6.2-1-1.4-2.6-2.2-4-3-.1 0-.4-.1-.8-.3zm144.7-243.3c-2.2-.5-4.3-1.6-6.1-2.8-3.1-1.9-6.3-3.5-9.8-4.6-1-.3-2-.6-3.1-.9-2.5-.6-4.8-1.4-6.6-3.3-.8-.9-1.7-1.7-2.6-2.4-2.3-1.8-5-3-7.6-4.3-1-.5-2.2-.8-3.5-1.2-1 0-.3 1.9.1 2.3.6.8.4 1.7.4 2.5 0 2 .4 4 1 5.8 1.6 4.9 2 5.9 5.6 9.4.6.6 3.3 2.4 4.1 2.8 4.4 2 6.7 2.5 10.6 2.7 1.1.1 2.8-.1 3.8-.2 1.5-.2 2.2-.2 4.1-.7 2.6-.7 3.7-1.3 5.8-1.9 1.7-.5 3.4-1.2 5.2-2.4-.5-.3-.9-.7-1.4-.8zm-7 1.1c-1.2.1-1.6.1-2.3 0h-.4c-2.7.1-5.8-.3-8.4-1.3-1.6-.3-3.3-.8-4.8-1.5-1.9-1-3.9-1.8-5.7-3.1-2.4-1.7-4.5-3.8-5.8-6.3-.3-.5-.6-1-.5-1.7.1-.8 0-1.6 0-2.6 2.1 1.2 3.7 2.7 5.5 4 1.3.8 2.3 2 3.7 2.8 2.7 1.6 5.4 3 8.5 4 2.8.9 5.4 2.1 8.2 2.8 1.2.3 2.3.7 3.5 1.1 1.2.6.1 1.4-1.5 1.8zM361.7 170c.4 2.7 2.2 3.6 4.4 4.2 1.3.2 2.4.5 3.5.6s2 .5 3.2.4c.9-.1 2-.7 3.4.1.6.4 1.2.7 1.7 1s1 .6 1.7 1c.8-.5 1.1 0 2.3-1.6.9-2 .5-3 0-4.5-1-1.4-2.5-1.6-4.2-1.8v-2.2c1.6-1.1 3.2-.5 4.8-.1 1.8.5 2.8 1.7 3.2 3.7 0 .9 0 1.9-.4 3-.5 1.7-1.4 2.8-3 3.6-1.7.8-2.5 2.9-5.1 2.4-.7-.5-1.5-.7-2-1.3-.7-.9-1.8-1-2.6-1.2-1.4-.3-2.8-.8-4.4-.6-1.2.2-4.3-.9-5.1-1.5-2.7-1.9-3.1-2.4-4.8-5.8-.6-.3-1.4-.7-2.1-1.1-1.2-1.1-1-2.6-.9-4 0-1.1.9-1.8 1.6-2.5.6-.6 1.2-1.3 1.9-1.9.5-.4 1-.8 1.5-1s1.1 0 1.9 0c-.3.5-.4 1.1-.7 1.2-1.6.8-2.6.6-3.2 2.6-.1.2-.7.9-.2 2 .3.3.5.6.7.8.1 0 .3 0 .3-.1.9-1.5 1.7-3 2.9-4.4 2.1-2.6 4.3-5.2 6.7-7.6 1.2-1.2 1.9-3 3.1-4.2 2-2.1 2.3-4.9 3.3-7.3.4-1 .8-2.1 1.2-3.4.3.5.6.9.7 1.4.1.7.3 1.4.4 2 .3 1.7-.4 3.4-1.2 5-.2.3-.4.6-.7.9-1.2 1.7-2.3 3.5-3.8 4.9-2.7 2.7-5 5.7-7.4 8.5-1 1.2-2.2 2.5-2.5 4.2-.1.4-.3.9-.3 1.3.2 1.3.2 2.5.2 3.3zm9.2-28.6c0 .3 0 .5-.1.6.1.2-.1.2.1.4-.2.2-.5.4-.8.6-.3-.1-.7-.3-1.1-.5-.3-1.2-.7-2.4-1-3.8-.6 1.5-2 1.9-2.8 1.7.1.1 1.1.9 1.4 1.1-1.5-.4-1.9 0-3 .7.2-.5.3-.9.5-1.3-.2-.1-.5-.2-.8-.3l-.3-.3c-.3.2-.7.4-1 .6-.1-.4-.2-.7-.4-1.1-.5.1-1.1.2-1.8.4.1-.4.3-.8.5-1.3-.6.1-1.1.2-1.8.3 0-.2.1-.6.3-1.1l-.5-.5c-.4.2-.8.3-1.3.5.2-.6.4-1 .6-1.4-.7.1-1.3.2-2.1.4.5-.7.8-1.2 1.3-1.8-.8.1-1.4.3-2.3.4.3-.4.5-.6.7-.9-.5-.1-1-.2-1.6-.3.5-.2.8-.4 1.1-.5-.3-.5.1-.5-.3-.7-.3-.1-1.2.5-1.5.4.4-.3.8-.8.8-1.3-.1-.4-.7-.6-.6-.8.2-.4-.3-1.2-.3-1.5.3-.6.5-.9.8-1.4.5.7.9 1.3 1.3 1.8.1 0 .2-.1.2-.1l-.3-1.2c.4-.3.1-.3.6-.5.1 0 1.3 1.6 1.5 1.6.1 0 .1-2 .2-2 .4-.1.5-.1 1.1-.2.4.7.7 1.3 1.4 2.5.2-.9.4-1.4.5-1.9h1.2c.1.4.1.8.2 1.4.5-.4.8-.7 1.3-1.2.2.1.7.3.6.5-1.5 2.3 1.1 1.1 1.9.5 2.5 1.9 3.5 4.4 4.3 7.1.3 1.1.8 2.7 1.3 4.4zm-14.5-9c.7 2.5 2.6 3.8 4.2 5.3-.4-.7-.8-1.7-.5-2.9s.8-2.3 2.3-2.8c-2.1.1-4-.4-6 .4zm9.7 3.1c-.3-.5-.6-.7-1.1-.8 0 .1-1 .1-.8.8.3.6.3.8 1.1.8.3-.2 1 .1.8-.8zm-12.4-12.7c.7-.6 1.1-1 1.5-1.4 1.4-.2 3.1 0 4.3-.6 1.5-.7 3-.1 4.2-.4 1.9 1 3.4 2.2 4.8 3.6 1.3 1.4 2.7 2.8 4.1 4.1 1.9 1.7 3 3.7 2.7 6.4v1.1l-.2.2s-.1-.1-.2-.1l-2.7-2.7c-2.3-2.2-4.6-4.3-6.9-6.5-.6-.6-1.1-1.3-1.6-1.9-.8-1.1-2.1-1.7-3.6-1.7-2.1-.1-4-.1-6.4-.1zm35.8 65.2c.5-.1.8-.1 1.2-.1 2 1.4 2.4 4.9.7 7.3-.2-.2-.4-.4-.7-.6 1.3-2.5-.2-4.4-1.2-6.6zm-41-18.9c.4.9-.2 1.2-.8 1.5-.9.4-1.6.9-1.5 2.2-.5.5-1.1 1-1.8 1.6-.5-1.3.2-2.3 1.1-3.3.9-.9 1.7-1.9 3-2zm85.9 15.7c-.2 1.1-.4 1.9-.6 2.7l-3.2 3.2h-.8c-.1-.1-.2-.2-.2-.4-.2-.8.1-1.6.5-2.2 1.1-1.2 2.3-2.6 4.3-3.3zm-199.8-25.3c-.8-1.4-2.7-.9-3.4.2-3.9 6.5-12.6 7.3-17.9 2.1-1.3-1.3-3.3 0-3.3 1.6.3 6.1.4 12.3.5 18.4 0 2.5 4 2.3 3.9-.3 0-4.7-.2-9.5-.3-14.2 4.3 2.4 9.4 2.4 13.7.4.1.1.2.3.3.4 4 3.9 5.5 10.2 7 15.5 1.7 6.1 2.6 12.6.2 18.6v.1c-1.6 1.6-3.6 2.7-5.9 3-4 .5-8.6-1.8-9.6-5.9l.3-.3c1.6-2-1.4-4.6-3-2.6-.8 1-1.4 1.7-1.3 3 .1 1.2.6 2.3 1.2 3.4 1 1.9 2.6 3.4 4.4 4.5 4.1 2.5 9 2.5 13.2.2 10.3-5.5 10.7-18.5 8.2-28.5-1.8-6.9-4.6-13.5-8.2-19.6zM240 193c-.1-3.1-.6-6.3-1.5-9.4-1.6-6.1-3.4-13-7.9-17.6.7-.5 1.4-1.1 2-1.8 2.5 4.6 4.4 9.5 5.9 14.5 1.4 4.5 2.3 9.6 1.5 14.3zm25.5-16.7c.6-3.2.9-6.4.9-9.7 0-2.3-3.2-2.2-3.9-.3-.3-.3-.6-.6-1.2-.6-6.3-.8-9.1 5.8-10.5 10.8-.9 3.4-1.5 6.8-1.6 10.3-.1 2.8-.6 6.6 1.5 8.8 2 2.2 5 1.4 7-.4 2.3-2.1 3.6-5.4 4.7-8.3l.9-2.4c1.7 4.4 4.4 8.3 8 11.4.7.6 2.2.7 2.8-.2.2-.4.4-.7.5-1.1-1.5-1.4-8.7-9.9-9.1-18.3zm-11.7 16.5c-1.2-.5-.6-5-.6-6.1.1-2.5.5-5.1 1.1-7.6 0-.2.1-.4.1-.6-.3 4.4.1 8.8 1.4 12.9 0 .1 0 .1.1.2-.8 1-1.5 1.5-2.1 1.2zm7.7-16.6c-.3 1.7-.8 3.4-1.3 5.1-.2.8-1.1 3.5-2.2 6.1-1.1-5.8-.5-11.9 1-17.5v-.2c.5-.2.9-.2 1.5-.2.5.1.9 0 1.3-.2-.4 2.3-.5 4.6-.3 6.9z"/><path class="st1" d="M286.5 167.5c-.9 3.3-6.3 2-8.6 1.7-.5-.1-1.2-.1-2-.2 1.6-8.5 3.8-16.8 6.4-25.1.6-1.8-1.7-2.7-3-2-5.5 3-11.5 5-17.7 6.2-2.5.4-2.2 4.4.3 3.9 3.4-.6 6.7-1.5 9.9-2.6-1.5 6.3-3.3 12.7-4.2 19-.5 3.9 1.4 5.9 4.8 5.3.4-.2.8-.3 1.2-.4.5-.2 1-.3 1.5-.3l.1-.1h.2c.5.1 1 0 1.5.1.9.1 1.8.3 2.7.4 1.6.2 3.3.3 4.9 0 2.9-.6 5.1-2.3 5.9-5.1.6-2.4-3.2-3.2-3.9-.8zm-14.8 2.6c-.2.2-.3.3-.4.6-.6 0-.7-.4-.6-1.5.1-.7.3-1.5.5-2.2.5-2.1 1-4.3 1.4-6.4.9-4.1 1.8-8.1 2.7-12.2v-.3c.6-.2 1.2-.5 1.8-.8-2.1 7.5-4 15.1-5.4 22.8zm44.6-5.4c-.9-2.4-4.6-1.1-3.7 1.3 1.7 4.5-6.6 5.7-9.2 6.8-.5.2-.9.4-1.4.7.6-4.3 1.1-8.6 1.8-12.8.5-3.3 1-6.6 1.6-9.8.5-3 1.2-6 2.8-8.7 1.1-1.9-1.9-4-3.3-2.2-3 4.1-7.5 6.8-12.6 7.3-1.1.1-1.9 1-1.8 2.1.1 1.7.2 3.3.3 5 .1 2.5 4.1 2.3 3.9-.3-.1-1-.1-2.1-.2-3.1.7-.1 1.3-.3 1.9-.5-1.5 7-2.8 14.2-3.8 21.3-.4 2.8-1.2 7 0 9.6 1.1 2.3 3.6 1.7 5.7 1.7.2 0 .3 0 .5-.1 1 .1 2-.3 2.1-1.5.1-.6.1-1.2.2-1.9 1.1-3.6 7.4-4.2 10.2-5.5 3.7-1.6 6.6-5.3 5-9.4zm-16.2-5.5c-1 6.7-1.9 13.4-2.7 20.1 0 .2-.1.4-.1.6-1.3-.1-1.5-.5-1.8-2.3-.2-1.4.1-3.1.3-4.5.3-2.7.9-5.4 1.3-8.1.9-5.3 1.9-10.6 3.1-15.9.6-.3 1.1-.6 1.7-.9-.9 3.6-1.3 7.5-1.8 11zM228.6 94c-5.6-2.7-5.9 15.6-5.6 24.3-2.6-4.9-5.5-9.6-8.7-14.1-.4-.5-1.3.5-1.5.8-1.6 5.9-2.2 11.9-1.7 18-3.6-4.7-6.8-9.7-9.5-15-.1-.2-.3-.3-.6-.2-4.2 1.5-9.4 3.8-13.2 6-.2 0 .3 1.1.3 1.1s2.5 7.3 5.4 7.9c1.7.3 3.2-.8 4.4-1.9 3.4 6.2 6.7 12.4 9.8 18.7 1.7 3.3 3.3 6.5 4.7 9.8.6 1.2 3.5 6 3.9 7.9-.2.2 11.1-5 10.7-5.5-4.8-6.7-7.4-14.3-7.9-22.5 5 3.9 9 8.7 11.9 14.3.2.3.9-.3.9-.4 1.1-.6 2.2-1.3 3.2-1.9.4-.1 1.2-.8 1-1.2-2.4-7.9-4.8-15.9-4.5-24.1 5.2 9.1 10.3 18.4 15 27.8.2.3 5.1-3 5-3.3-3.3-8.3-7.8-18.1-11.9-26.1-2.2-4.3-4.3-8.5-6.6-12.7-.9-2-2.3-6.6-4.5-7.7z"/><path class="st0" d="M243.2 104.5l-.4.4c1.4 9.4 4.8 18.5 9.9 26.4.4.7 2.2 2.4 2.2 2.4 4.4-2.5 8.6-5.4 12.2-8.8-1.9-2.1-3.7-4.3-5.7-6.6-.9 1.3-4.3 4.7-4.3 4.7l-2.6-2.5 5.8-4.9s-1.2-2.4-2.2-3.7c-1.5.9-5.1 4.4-5.7 6-1.9-1.4-2.3-3.4-3-5.6 2.3-1.1 4.5-2.2 6.7-3.4.4-.2.9-.4 1.1-.9s0-1.1-.2-1.6c-1.2-3.4-2.5-6.8-3.7-10.2-2.9 3.1-6.4 5.8-10.1 8.3zm39.6-22.4c-2.6 3-5.6 5.6-8.9 7.9 2.5 8.1 4.8 16.2 7.2 24.3l4.1-3.5s-.3-1.6-.5-2.7c-.3-1.8-.8-5.4-.8-5.4s.7-1 1.2-1.3c1.4-1.3 2.7-2.9 3.8-4.5.2-.2.3-.5.6-.5.3-.1.6.2.9.4 1.8 1.6 3.7 3.3 5.4 5.1 1.5-2.3 2.9-4.5 4.4-6.8-6.2-3.9-12-8.3-17.4-13zm.2 15.5l-.4.4c-1.2-2-2-4.2-2.6-6.4.9-.6 1.8-1.4 2.6-2 .7 2 1.8 3.7 3.2 5.2-.8 1-1.8 1.9-2.8 2.8zm19.7-32.1c-.9-.4-2-.9-3-.5-1.4.5-1.9 2.4-1.8 4 .1 3.3.8 6.7 2.3 9.6-2.9-1.5-5.6-3.3-7.9-5.6-1.7 2-3.3 4-4.7 6.1l4.9 2.8c4.2 3.2 8.5 6.1 13.1 8.6-.1-.2 2.8-4.3 3.8-6.1-2.8-3.1-5.8-6.6-6.1-10.8 4.4 2.2 8.8 4.4 13.3 6.7.6-2 1.6-3.8 3.1-5.1-5.3-3.9-11.1-7.1-17-9.7zm23.6-3.8c-1 1.4-3.6 4.7-4.6 6.3 0 .1-2.8-2.5-2.8-2.5s3.8-2.8 3.7-3.7c-1.3-.9-2.4-1.9-3.4-3.1-.9 1.3-1.8 2.5-2.7 3.9 0 .1-.2.2-.4.3-.2 0-.3-.1-.4-.2-1.2-1.1-2.2-2.1-3.3-3.1 1.4-.9 2.7-2.2 3.8-3.5.2-.2.3-.5.4-.8 0-.4-.3-.8-.6-1.1-1-.9-2-1.8-3-2.8-2.5 1.9-5.6 5.6-7.1 8.3L322 73.4c2.7-2.1 6.5-5.5 8.9-7.9-1.7-1.3-3.1-2.5-4.6-3.8zM339.2 50c-2.1-1.6-5.5-1.7-7.1.5 1.8-2.9 1.7-6.8-.4-9.5s-6.1-3.7-9-2.3c-1.7.8-3.7 3.8-3.7 3.8 4 8.2 9.4 15.8 15.7 22.4.3.4.8.7 1.2.8.5.1.9-.1 1.2-.3 2.2-1 4.7-2.2 5.5-4.5.5-1.2.3-2.7 0-4-.3-2.6-1.3-5.3-3.4-6.9zm-11.3-1.2c-.4-.2-.7-.7-1-1-.6-.9-1.2-2.1-1.3-3.2 0-.4.3-2.5 2.3-2.2 1.1.1 1.5 1.5 1.9 2.5.3.9.5 1.9.3 2.8-.3.8-1.3 1.5-2.2 1.1zm11.1 7.9c.1 1.5-.9 3-2.4 3.1-1.1.1-2.3-.7-2.8-1.8s-2.4-4-.2-5.3c.9-.5 2.1 0 2.9.5 1.3.8 2.3 2.1 2.5 3.5z"/><path class="st0" d="M325.6 43.4c0 .1 0 .2.1.4l-.1-.4zm9.5-5.6c-.1 1.3.4 2.7 1.2 3.9.4-.8 1.6-.8 2.4-.3.7.5 1.2 1.3 1.6 2.1 1.6 3.1 3.1 6.1 4.8 9.1.9-1 2.5-1.5 3.9-1.4-1-2.9-2.1-5.8-3.1-8.7.5-1 1.6-1.2 2.6-.6 1 .5 1.7 1.4 2.3 2.4.6 1 1.2 2.1 1.8 3.1.3.6.7 1.1 1.3 1.5.5.3 1.8.1 2.2-.4.5-.6.1-1.6-.3-2.3-1.1-2.2-1.7-4.6-1.8-7.1-.1-.3 0-.6.2-.8.4-.4 1 .1 1.4.5 1.8 2.2 3.3 4.7 4.3 7.4.1.2.2.5.5.7.3.1.5.1.7-.1.8-.3 1.6-.5 2.5-.8-1.1-5.3-4.1-10.3-8.2-13.7-1.7-1.4-4.2-2.6-6.1-1.3-1.8 1.3-1.7 4-1.2 6.2-.7-1-1.4-2-2.4-2.6s-2.5-.7-3.4 0c-1.2 1-1 2.7-.8 4.2 0-1.1-1.2-1.9-2.3-1.8-1.1 0-2.1.6-3 1.2-.4.2-1 .5-1.2 0m-65.6 56.7c-2.9-2.4-5.9-1.6-6.9-.9-1.8 1.2-3.4 2.7-3.5 3.8-.5 5.4 2 10.8 4.3 15.6 2.4 4.8 6.1 9.6 9.5 13.7l1.2-1.1c1.3-1.1 2.1-1.6 3.4-2.4-4.1-3.5-7-8.4-8.2-13.7 3.3.1 5.7-3.6 5.2-6.8-.6-3.2-2.5-6.1-5-8.2zm.2 8.8c.2 1.2 0 2.8-1.2 3.2-.5.2-1.1 0-1.6-.3-.7-.4-1-1-1.2-1.7-.5-.8-1-3.5.7-4.2.8-.3 1.8.1 2.4.7.4.6.7 1.5.9 2.3z"/><path class="st1" d="M43.9 98.2c1.8-1.7 3.4-3.8 4.4-6 9.4-7.3 21.5-12.4 26.9-22.4-2.4 2.3-4.7 7-8.2 8.7 4.9-5 5.6-10.3 11.3-15.2-.6 1.4-1.9 2.8-2.4 4.3 6.2-11.2 17.2-.8 25.2.6-.5-.3-1.1-.7-1.7-1.2-4.4-1.2-10.3-5.2-15.4-6.4 4.3 0 10.2 4.2 15.2 6.2-3.4-2.2-8.5-5.3-13.1-6.7-3-.9-6.3-.6-9 1.7-5.3 4.3-5.1 9.7-12 14.5-2.7 1.8-6.3 3.4-9.9 5.3-3.4 1.8-7 4.3-9.8 5.3-2.2.7-4.4.5-6.4 1.1-6.2 2-12.4 6.1-19.1 9.7-8.3 4.5-11.4 5.2-19.9 10.5v7.6c11.8-7.2 23.5-13.8 36.6-21-12 9-24.3 14.4-36.6 21.8v12.2c11.6-8.8 32.9-20.6 43.9-30.6z"/><path class="st1" d="M1.6 109c-.6.6-.7.1-.2-.2 10.5-5.9 21.1-11.4 31.6-16.9-9.6 6.3-21.2 11.7-31.4 17.1zm66.6-33.2c-9.9 7.4-19.6 12.7-29.4 18 8.9-5.8 19.8-11.4 29.4-18zM44.3 93c-1.1 0-2.3 1.9-3.5 2.5-.5-1.5 2.6-2.6 3.6-3.9.4.6.9.9 1.3 1.1.4-.4.9-1 1.2-.6 2.4-2 6-4.5 7.4-5.1-4.1 2.9-7.6 5.5-10.5 8.1-.3.4.6.2.2.7-2.8 1.4-4.4 3.1-7 5.5 1.1-2.8 4.1-5.5 7.3-8.3z"/></g></svg>