<svg xmlns="http://www.w3.org/2000/svg" viewBox="0 0 566.9 467.7"><style>.st0{fill-rule:evenodd;clip-rule:evenodd;fill:#ee7f00}</style><g id="Layer_1"><path class="st0" d="M437 147.2c1-.6 2.3-.7 3.5-.5-.5 1.8-4.3 2.9-2.9-.1m-50.1 8.4c1-.6 2.3-.7 3.5-.5-.5 1.8-4.3 2.9-2.9-.1"/><path class="st0" d="M495.2 206.5c1.7-.1 2.1-1.9 1-2.9-2.2-.5-2.4 2.4-1 2.9zM351 316.6c0 .1.1.1.1.2.1-.1.1-.2-.1-.2zm113.8 120.6c-3 .1-6.8 1-7.3 4.4 2.7-.5 6.3-.2 8-1.7.5.9.3 1.4 1 2.4 5.8.8 9.4-6 7.1-10.5-3.9-1.2-7.5 1.6-8.8 5.4zm5.9 1.2c-1.4-.3-1.7-1.7-1.9-3.2 1.4.4 2.6 1.2 2.4 3.2-.3-.1-.5-.3-.5 0zm95.8-31.3c-4.6-.9-7.5-4.6-11.7-7.5 1 .1 2.3 1.1 3.2.5-6.2-2.5-7.9-9.3-11.4-14.3-1.8-2.6-4.3-4.7-6.1-7.1-.6-.8-.8-2.1-1.5-2.9-1.4-1.8-3.4-3-4.9-4.9-2.5-3-4-6.6-6.1-10 2.6-.5 2.9-3.8 1.7-5.1-1.8-2.1-5.6-4.7-7.3-7.1-1.2-1.6-1.2-3.2-1.7-5.6-1-4.8-4.9-9.2-6.1-14.3-.8-3.7-1.1-6.5-2.4-9.2-.7-1.3-1.9-2.2-1.9-3.9.7.7 1.8-.4 2.4.2 7.4-3.7 15.1-7.2 20.7-12.6 1.1 3.5 2.4 6.8 4.4 9.5 3.8 9.3 9.4 16.7 13.1 26 6.8 9.8 10.2 22.9 15.8 33.3-.5-3.3.6-6.4 0-9.7-.3-1.8-1.9-3.7-2.7-5.6-3.4-8.3-6.5-16.6-10.9-23.6-5.9-12.4-13-23.5-18.5-36.2-1.6 2.1-4 3.3-6.3 4.6.3-1 .6-1.8.5-3.2-1.6-4.4-3.8-8.3-6.1-12.4-1.8-3.2-3.3-7-5.3-10.2-2-3.2-5-6-6.6-9.2-1.3-2.5-2.2-7.9-3.2-11.2-3.2-10.8-8.1-20.4-18.5-25.5 1.7-6.4 2.5-13.5 5.1-19 8.5.2 13.1-5.3 16-11.4.8.6 1.2-.6 2.4-.2 5.6-3.5 9.8-8.1 14.1-12.9 2.8-3.1 4.9-6.8 7.5-9.5 1.3-1.4 3.6-2.1 3.4-4.6 2.7-3.3 4.2-8.5 4.4-13.6-1-3.7-4.1-5.3-5.8-8.3-1.2.1-2.2-2.5-3.9-1.9-3.2-3.2-7.5-3.7-11.2-5.8-3.7-.2-7.3-2.4-11.2-1.5-7.2 1.8-11.8 9.6-16.3 14.3.9.5-1.7 3-2.9 4.6-4 5.3-8.3 11.4-8.8 19-.4 7.6 4.9 11.5 10.2 15.8-4.5 2.8-8.7 7.2-7.3 13.9.4.7.8-.7 1 0-1.7 7.1-4.3 13.4-6.3 20.7-2 1.3-4.6 3.1-4.4 5.8 1.1 0 2.3 0 2.7.7-.8 2.2-1.4 4.6-2.2 6.8-7.6-6.2-15.9-10.7-25.8-14.8v-1c-.6.1-.9 0-1.2-.2-1.7-3-4.3-5.5-5.6-8.3-6.8 1.2-5.7-6.9-3.6-10.2-.4-.1-1.2.2-1-.5 8.8-13.1 21.5-27.6 25.3-45.2 1.8-8.4 4.6-18 3.9-27.2-.3-3.5-1.2-7-1-10.7 1.3 2.1 3.6 3.5 5.8 3.9 3.3-1.9 5.7-4.6 6.8-8.8-2.1.6-2.8 2.8-3.6 4.6-4.5-.3-8.7-6.6-9-11.9-.3-5.1 3-11 2.4-16-.2-1.3-.5-3.5-1-4.9-.7-2.3-3.6-3.4-2.7-5.4-1.6-3-2.3-6.7-2.4-10.2-.1-1.9.7-3.8.5-5.6-.2-1.8-1.4-2.9-1.9-4.4-.8-2.3-.3-4.8-.5-6.6-.4-5.1-5-6.9-6.6-10.5-1.1-2.6-2.3-4.5-3.4-6.8-1.7-.6-2.7-1.9-4.1-2.7-1.1-1.9-1.8-4.2-3.9-5.1-2.9.2-4.9-1-6.8-2.4-3.2-.1-4.3-.6-8-1.2 0-.8-.9-.7-1-1.5-6.8-2.8-13.5-5.5-22.1-5.1-2 .1-3.9.9-6.1.7-2.6-.2-4.6-1.4-6.6-1.7-7.5-1.1-16.2 2.1-23.6 6.6-1.4 1.3-1.9 3.1-3.2 4.6-1.4 1.7-3.7 2.3-5.4 3.4-3.6 2.4-5.1 6.3-8 9.5-5.9.2-8 5-11.2 8.3-4 4-8.7 8.8-10 13.9-.8 3.1 0 6.5-1.2 9.2-.5 1.2-1.6 2.2-2.2 3.4-.6 1.1-1.5 2.3-1.9 3.6-2.1 6.2.1 10.3 1.5 15.1.4.5.8.2 1 .5 2.8 7.1 1.8 14.1 7.1 19.4 1 2.3 3.7 3 5.3 4.6.8 1.3 1.7 2.5 2.9 3.4-5.7 4.2-5.7 12.4-3.4 19.5 3.2 4.8 6.2 10 10.2 13.4 2.9.6 6.6 2.1 9.7.5 3 6.5 6.8 13.5 10.9 19.2 2.1 2.9 3.4 3.5 3.9 6.8.8 5.2 2.8 11.6 1 17.7-10.2 3.7-12.7 15.2-16.5 25.3-1.7 1-3.8 1.6-4.9 3.2-16.6 2.1-32.3 6.2-43.3 19.7-.5 0-.1.9-.2 1.2-6.9 9.1-13 18.9-19.2 28.5-6.3 9.6-13.2 18.7-19 28.7-2.3-.6-5.4-1.7-7.8-2.4-.7.4-1.3.8-1.9 1.2-.8-2.1-2.3-3.1-1.9-5.6-.3-.5-.6.3-.7-.2-1.1-2.9-1.7-6.2-3.2-8.8.1-1.5-1.3-2.8-1.2-3.4.1.2.2.3.5.2-.6-1.1-2.2-2.8-1.2-3.9-1.4-1.7-2.1-3.5-2.4-5.8-.8-.2-.5-.8-1-.7 0-.3.3-.3.2-.7-2.8-3.9-4.7-9.7-7.1-13.4-.2-.5.7-.8 0-1-.5 1-.3-.8-1-1.2.4-.1.6.4.7 0-3.5-4.9-4-7.8-5.8-11.9-2.7.6-3.9 4-5.8 4.6.5-.4-.2-.6 0-1.5-5.3-4.7-6.8-11.3-8-18.2-.6-3.4-.5-6.3-1.7-9-1.7-4-5-7.5-8-11.2-3.4-4.2-9.6-7.3-11.4-13.9-1.2-.9-1.2-3-2.4-3.9-4.9.4-7.3 9.2-6.1 14.6.4 1.6 1.5 3.4 1.5 4.9-4.8-2-9-.3-13.4 1-7 2-12.9 0-19.9-2.4-2.8 1-4.7 3.1-5.1 6.6 4.6 5.1 10.3 9.9 17 11.9-1.1 1.5-1.9 4.6-1.2 6.3 3.1 1.8 5.5 4.3 8.3 5.8.9 3.8 4.7 4.7 7.1 7 0 .6-.4.7-.2 1.5 2 3.4 6.2 3.7 8.8 6.1 2.9 1 8.5 1.1 12.9 1.2 2.9.1 4.5 1.2 4.6 4.1-4.6 1.2-7.2 4.7-9.5 8.8.7.4 2.7-1 3.2-.7-.7.6-1 1.6-1.5 2.4 1 3.9 2.2 5.6 2.7 10.2.4.1.6-.4.7 0 .1 3.3 1.6 4.1 1.9 7.5.4.1.6-.4.7 0-.3 1.7.9 3.3 1.5 4.4 1.3 4.4 2.7 8.8 4.6 12.6.6 4.2 2.5 7.6 3.6 12.9.1.5.7-.4.7.5-.4 1.7 1.8 2.9 1.5 5.3 1 1.1 2.1 2.8 2.4 4.1.2.9.7 1.3 1.2 2.4.3.7.1 1.7.5 2.4.3.6 1.2 1.1 1.5 1.7.8 1.6.4 3.7 1.7 3.9-.5.5.1.4 0 1.2.6.2.9.7 1.5 1 1 3.2 3.7 4.5 4.9 7.8 1.8.7 2.4 1.6 3.4 3.4 1.9.4 3.2 3.5 4.9 3.6 2.9 3.5 6.8 2.4 9.5 4.6.6-.1.9-.4 1.7-.2 3 1.2 7.1.5 10 .2 2 .7 4.9-1.3 7.3-1 .5-.5 1.2-.8 2.7-1 2.7-2.1 5.6-2.4 8-4.4 1.7-1.3 2.8-3.4 4.4-4.9 6.7-6.4 12.5-13.3 18.7-19.9 3.6-3.2 7.8-5.4 10.9-9 .9-1 1.3-2.3 2.2-3.4 4-4.9 9.8-8.1 14.1-12.6 1.6 1.7 3.1 3.4 3.4 5.4.5.1.5-.3.7-.5.7 1.9 1.9 3.5 3.2 4.9-.5 1.4.9 2.2 1.7 3.7.2.3-.1.9 0 1.2.3.7 1.5 1.7 1.9 2.7.4.9.4 2.1 1 2.4-.1-.1.2-.6.2-.5.3.6-.5.4-.2 1 0 .1 1.1 1.5 1.7 2.4 1.4 2.2 2.4 2.6 2.2 3.9 1.1-.6.8 1.3 1.2 1.9.7 1.3 2.1 2.5 2.7 3.9.6 1.3 3.7 6 4.9 8.7.1.2-.1.8 0 1 .3.4 1 .3 1.2.7.1.2-.1 1 0 1.2.3.6 1.1 1.1 1.5 1.7.2.3-.3.6-.2.7.2.5 1.3 1.1 1.7 1.7 1.3 1.9 1.7 4.3 2.9 6.1.1-.3.3-.5.5-.7.3 1.3.5 1.2.5 2.7 1.5.4 1 2.5 2.2 2.7.2 1.8 1.9 3.1 1.5 4.9 3.1 2.5 3.3 5.8 4.9 10 4 10.5 11.1 22.2 14.6 32.6 1.3 3.8 1.2 7.3 1.2 10.5 0 .5.4-.1.5.2.3 2.1.2 4.8.2 6.8.2 10.3-3.6 19.9-5.8 29.7h5.3c2.1-13.7 6.9-24.3 6.9-40.2-.9-2.7-.5-7.2-1.7-9.7.3-2.6-2.6-6.5-2.2-9.2-.6 0-.6-.5-1-.7.1-.3.3-.5.2-1-.3 0-.7 0-.7-.2-1.2-4.5-3-8.2-5.3-12.4.3-.6.7.4 1-.2-.5-.1-.4-.7-1.2-.5-.7-4.1-4.3-7.7-4.6-11.2-.4-.1-.6.4-.7 0-2.5-6.5-4.6-12.3-7.5-18 0 0 .6-.1.5-.2-1.6-3.1-4.8-6.2-5.6-10 0 .2-.4.3-.5 0-1.1-2.9-3.2-4.5-3.4-7.1-.6-.3-.8.1-1-.2-2.5-5.3-5-9.7-7.8-14.3.1.3.3.4.5.5-1.9-3.3-4.7-6.2-5.1-8.8-.4-.1-.6.4-.7 0-.7-2-2.6-5.5-3.3-7.3-.1 0-.2.1-.3.1-1.2-5-7.2-8.9-8.8-15.1-4.3 0-8.1 5.7-5.3 10.2-11.7 10.1-24.1 22.1-34.8 33.6-2.5 2.7-4.8 5.5-7.1 8-2.1 2.4-4.3 3.9-6.8 5.1-3.4 1.7-7.2 4.2-11.4 3.6-.1.3-.3.6-.5.7-3.1-.6-9.2.9-11.4-1-.7-.2-.7.4-1.5.2-.3-1.3-2.6-.4-3.4-1.7-.9 1.1-1.4-1-2.7-.2 0-1.1-1.8-2.2-1.7-1.2-.3-.7-.9-.6-.5-1.5-1.5.5-2.2-1.4-2.9-2.4-.6-.1-.5.4-1.2.2-.2-1.6-2.8-3.6-3.9-4.4 0-.3.4-.2.5-.5-2-.7-3.7-3.9-4.9-5.3-1.9-.8-1.7-3.7-3.9-5.1 0-2.7-2.8-5.4-2.9-8.5-.8-.5-1.3-1.3-1.5-2.4 0 .2-.4.3-.5 0-.6-.3.1-1.7-.5-1.9 0 .3-.1.6-.2.2-.4-1.2-.9-4-2.4-5.4-.1-1.2-.2-2.3-.5-2.9-1.3-3.5-2.4-7.5-4.1-11.2.4-.1.6.4.7 0-2.2-2.8-1.9-5.7-3.6-9 0-.9-.4-.8.2-1.2-1.3-1-1.4-2-1.9-4.4-.8.1-1.2-2.5-1.2-3.2 0 .2-.4.3-.5 0-.1-3.1-2.3-5.3-2.2-8.8-1.3-.9-1.1-3.4-1.9-5.3 6.9-2.6 11.7-9.2 17.5-13.6 1.6 4.7 3.5 8.9 5.3 11.9.2.5-.7.8 0 1 1.4 2.3 3.8 6.2 3.9 8.8.4.4.8-.2 1.2.5-.8 1.3 1.7 2.8 1.7 4.9 1.9 3.1 3.7 8 5.1 12.6 0-.3.1-.6.5-.5-.4.5-.3 1.8.2.7.6 5.4 2.8 6.5 2.9 11.2.6.7.4-.7 1 0-.1 1.2.9 1.6.2 2.7 3.4 5.4 4.5 10.7 7.1 16-1.2-.1 1.3 2.3.2 3.6 3.4-.4 5.9-4.8 6.8-7.8-.6-2-1.5-5.4-2.2-7.8 2.9 1 6.1 3.4 9 5.1-.3 0-.6.1-.5.5 1.1.1 3 2 3.2 2.4 3.7-.4 6.1-4.3 7.3-8-.6-.4-1 .1-1.2-.2-.1-1.7-2.6-1.8-3.4-3.6-.6 1.2-1.5-1.4-2.2-1 .3 0 .6-.1.5-.5-2.1.5-3-1.4-5.1-2.2 5.7-9.3 12.4-18.5 18.7-28 4.7-7.1 8.9-14.7 13.9-21.2 4-5.2 6.7-11.9 13.4-12.6 1.6-1.4 3.1-2.7 4.6-4.1 8.2-2.5 19.1-5.3 28.4-5.6 1.3-.9 2.6-2.9 3.6-3.2-.2 1.9-.3 3.9.7 5.6-.4 6.6-3.5 11-5.1 15.6-1.2 3.6-1.9 8.6-3.9 11.9 4.8-1.6 8.9-5.2 14.1-3.4 1.6-.9 3.8-.2 6.1-.2 3.3-.1 6.7-1.4 9.7-1.7-3.6 5.7-5.4 12.6-9 18.2-1.4 2.2-3.2 4.3-4.1 6.8 1-.1.9 1.2 1.5 1.7 1.4 1.3 3.9 1.5 4.9 3.6 3.2 1.9 5.8 2.9 9 4.6.8.2.4-.9 1-1 8.6 2.3 21.5 3.5 30.4 4.1 13.1.9 23.6 6.6 31.4 16 3.3.3 4.6 3.7 6.1 7.3 2 4.9 1.8 6.4 1 11.2-1.2 6.6-4.4 13.3-5.3 20.9-.1 1 .2 2.3 0 3.4-.2 1.3-1 2.6-1.2 3.9-.5 3.5-1.1 5.9-2.7 8.5-.1.8.4 1 .2 1.9-2.3 11.1-6.9 21.2-9.5 32.1-2.3 9.6-2.8 19.6-4.9 29.9.5.2.8-.7 1 0-1.2 10.4-3.9 18.7-5.9 28.3h2.4c.7-4.2 1.8-8.2 3.1-11.3 2.3-13.3 4.2-23.4 7.1-36.5-.5-.4-1.6-.2-1.9-.7 1.5-15.3 7.3-26.3 10.5-39.9.2-.4.5-.8 1-1 1.4-6.9 3.9-13.4 4.9-20.4.5-3.6.9-7.1 1.7-10.5.7-3.2 2.5-6 3.4-9.2 2.2-7.7 2-15.6 4.6-23.1 1.1-11.5 5.1-22.5 7.8-34 2.2-.9 4-2.3 6.1-3.4-3.6 10.2-5.7 21.1-8.5 31.6-2.7 9.9-4.6 20.4-6.8 31.4-2.5 12.3-5.8 27.6-8.5 39.6-.1.9.7.7.7 1.5-2.1 6.5-2.8 14.4-5.8 19.9-1.9 8.6-1.4 14.3-3.9 22.4.9.8 2-2.6 2.4-1.5-3 8.9-4 18.3-6.3 27.7-1.4 5.9-3.1 11.6-4.4 17.3h2.4c1.8-8.8 4.8-17.3 6.6-26.1 1.5-7.2 2.2-14.6 4.6-21.6-.2-.5-1.4-.1-1.9-.2 2-8.2 2.5-17.3 5.1-24.8 1.4-4 2.5-8 3.2-12.4.4-.7 1.4-.8 1.7-1.7-.3-11.3 3.6-17.7 4.9-28.2 1.5 4.3 2.4 8.1 3.6 11.9 5.8 18.1 11 35.9 15.6 53.5 3.9 15.3 9.3 32.5 13.1 49.7h4.1c-4.3-20.5-11-40.1-15.2-59.4-.8-1.3-1.5-3-1-4.1-2.9-5.6-3.2-13.8-6.3-19.7.8-1.4-1.2-1.8-.5-3.4-1.5-1.8-1.5-5-2.2-7.3-1.5-5.4-4-10.2-4.9-15.8-1.3-1.9-1.2-4.4-1.9-6.8-.7-2.3-2.3-4.7-2.4-6.8-.2-2.9 1.4-7 1.9-10.5.6-4 1.8-9 2.7-13.1 2.4-11.3 6-21.7 8-32.6.9-4.8 2.1-9.4 3.9-13.6 2.7-1.4 5.1-3.1 8-4.4-4.5 5.7-9.2 15.8-7.1 24.3 4.3-.5 5.9-5.5 7.3-9.2 1.5-3.9 3.4-6.4 5.8-8.5 1.6 2.2 3.2 4.4 4.9 6.6 1.2-.8 1.8-2.1 3.2-2.7-1-3.4-3.1-5.7-5.1-8-2.7 2.3-5.3 4.9-7.5 7.8-2.4 3.1-3.5 6.8-5.6 10-1.6-9.7 3.4-17.6 8-24.3-5 1.8-7.7 4-11.9 7.1-2.4 1.8-5.7 4.2-7.8 4.6-.8.2-2 .8-2.7-.7 1.5-1 2.7-2.3 3.4-4.1-.4 0-.8 0-.7-.5 3.5-5.5 9.5-8.5 12.9-14.1-4.9 3.1-8.2 7.8-12.4 11.7.3-.4.6-.8.5-1.7-.7-.2-1.2-.7-1.5-1.5-.1-2.1.8-5.3 1.5-7.5 3.3-2.7 6.7-5.3 11.9-6.1.8-1.3 2.4-1.8 2.7-3.6-5.7.4-10.5 5-14.1 7.5-.2-2.8 1-8.3 4.1-7.5 3.3-3.8 13.3-2.3 14.1-7.8-1.2.1-2.3.5-3.2.2.9-2.2 1-5.4 2.2-7.3 4.7 3.6 9.9 8.8 12.9 14.1 1.5 2.6 3 6.4 3.6 9.2.7 3.4 2.2 6 1.2 9 1.5.9 1.9 2.9 2.2 5.1.8 0 .8-.8 1.7-.7 7 9.3 12.9 19.6 17.5 31.1-2.2 2.4-6.7 3.7-9.2 5.1-1.5.8-2.8 1.4-4.4 1.7-2.5-5.3-5.2-11.6-7.8-17.3-1.9-4.2-2.2-9.4-4.4-14.1-.7 1.2-.9 2.9-1.7 3.9 1.2 1.7 1.8 3.4 2.2 5.6 1.5 8.4 5.4 15 8.3 22.4-1.5-.1-2.5.6-3.4.5-.7 1.9-1.3 3.9-1.5 6.3.3.6 1.7-.2 1.7.2-.3 1.4.2 2.5.2 4.1 3.3 3.3 5.1 8 5.8 13.9-1.8-2-2.4-4.7-4.1-7.3-1.4-2.1-4-3.9-3.9-7.1h-1.2c-2.3-4.6-4.1-9.7-7.8-12.9-1.8.5-2.6 2.1-3.4 3.6 3.6 3.4 6 8.9 8 13.1-4.2 4.4-.7 14.8-6.1 19.7 3.2 10.3 5.2 21.1 10.9 30.6.1.5-.3.5-.5.7 2.3 2.5 2.6 6.4 4.4 8.5-.1.1-.6.9 0 1 .3-.9 1.4 2 1.2 2.4 2.1 3.5 5.2 10.1 7.5 14.3.1-.2.2-.3.5-.2-.1 1.6 1 3 1.9 3.9 1 2.2 1.5 3.5 3.2 5.1.3.9.4 2.5 1.5 1.9.1 3.2 3.2 5 3.2 8.3.6 0 .9.4 1.2.7.4 3.7 3.3 7.2 3.9 10.9 0-.4.2-.6.7-.5-.3 3.1 2.7 6.4 3.4 9.7.3 1.5.8 1.8 1 2.7.1.3-.3.7-.2 1 .1.2.6-.1.7.2.3.9.5 4.7 1.2 3.6.5 2.1.3 3.5 1.5 4.6.7 4.2 2.2 8.9 3 13.9h7.7c-.2-1.4-.4-2.8-.5-4.5-.4-.1-.6.4-.7 0 .6-1.1-.4-2.3 0-2.9-1.1-.6-.3-2.3-.5-3.4 0 0-.7-.2-.7-.5 0 .1.3-.6.2-1-.2-1.1-1.1-2.8-1.2-3.9-.1-.4.4-1.2.2-1.7-.1-.4-.9-.7-1-1.5-.8-5.1-2.7-8.8-4.1-12.6.2-.9 0-1.1.2-1.7-.4-.1-.6.4-.7 0-1.2-4.8-4.1-10.2-5.6-14.6-.1.2-.2.3-.5.2-1-4.6-3.5-9.7-6.1-13.6-.1-.5.3-.5.2-1-1.1-.5-1.8-1.7-1.7-2.7-.6-.3-.8.1-1-.2-1.5-4.4-5-8.1-6.8-13.6-1-1-1.8-2.1-2.4-3.4-.8-1.5-1.6-3.1-2.2-4.1-.4-.7-.4-2-.7-2.7-.4-.9-1.6-1.5-1.7-2.4 0-.4.6 0 .5-.2-.4-.9-1.9-2.8-2.2-3.4-.3-.5 0-1.3-.2-1.9-.8-2.4-3-5.1-3.4-7.5-.1.2-.2.3-.5.2-1.2-5.1-4.1-9.3-5.1-14.8 0 .2-.4.3-.5 0 .7-2.4-1-4.3-1.5-6.8.9-4.1.6-8.4 1.9-11.2 1.3.8 1.5 2.5 2.7 3.4 4.8 10.8 14.7 18.1 17.7 31.4 4 5.6 7.1 12.2 12.2 16.8-.2 1.1 1.1 1.8 1.5 2.7.9 2 1 4.4 2.2 6.3 2.2 3.6 6.7 7.3 9.5 10.9 1.1 1.4 1.7 2.9 3.6 3.2 1.2 2.3 3.9 2.2 4.9 4.4 2.3 1.2 5.7 2.4 8.3 2.4-.9-1-.4-3.1-.9-4.1zM177.4 239.6c.4-1.3 2.6-2.7 3.4-4.4 0-.6-.9-.4-1.2-.7 1.3-5 8.8-5.6 8 1.2-.2 1.9-2.1 3.6-1.7 5.3.4 1.5 2.6 1.8 3.2 2.7-.6 1.1-1.4 2-2.2 2.9-3.4-1.7-6.5-4.2-9.5-7zm19.2 18.2c-.9 0-1.3-.5-1.7-1 .2-.7.8-1.2 1-1.9-3.3-1.8-6.4-3.8-8.8-6.6.6-1.6 1.6-2.8 2.7-3.9 1.4.5 2.5 1.3 3.2 2.4.2-.2.7-.1.7-.5.5-.5-.2 1.5-.5 1.7.7 2.6 3.3 3.2 5.3 4.4-1.1 1.5-2.7 3.3-1.9 5.4zm24.1 11.2c-1.7-1.3-1.9-3.7-2.4-5.6-2.4-1.9-5.9-.6-8.8-1.2.1-.9.8-1.2 1-1.9-4.3-1.1-8.2-1.5-10.5-5.6 1.4-1.5 3-2.6 3.9-4.6-1.7-2.8-6.9-2.3-7.3-5.3-.2-1.9 2.5-3.2 1-5.3-1.6.1-2.5.3-3.9 1-2.1-.9-3-1.7-4.6-3.2 2.1-3.4 3-11.8-2.9-10.7-2.9 2.1-5.5 4.6-7.5 7.5-6-1.9-10.4-5.3-14.1-9.5 5.4 2.6 11 2.9 16.8 1.2 5.9-1.7 9.5-2.5 15.1 0 .5.6 1.3 1 2.2 1.2 1.7-.8 2.6-2.4 3.6-3.9-1.3-6.3-4.5-10.6-3.4-16.8 1.9 1.5 1.7 3.9 2.7 5.8 1.5 3.2 5.4 4.6 6.8 7.8 4.1 2.5 5.7 6.7 9.5 10v1c0 .4.8.1 1 .5 4.6 7.9 2.6 17.6 7.1 25.3.9 1.6 3 3.3 4.1 5.4-2.4 3.1-5.8 5.6-9.4 6.9zM463.4 92.7c0 .6-.4.8-.5 1.2-.4-.6-.7-1.4-.7-2.4.5.2.2 1.3 1.2 1.2zM331.8 77.4c0 1.1-1.4 3-1.9 4.4-.4-1.6 1.4-3 1.9-4.4zm7.8 29.4c-3.7-6.4-1.5-16 2.4-21.2-.5 6.9-2.4 12.9-2.4 21.2zm14.8 50.8c-6.6-6.3-14.2-14.5-11.7-26.5 1.1-.2 1.7-.9 2.9-1 .3 1.1 1 1.8 1.5 2.7-.7 5.9-.6 11.6 1.7 17.7 1.4 1.2 2.6 2.6 3.4 4.4 1.9 1.2 5.6 2 6.1 3.9-1-.3-2.1-.9-3.9-1.2zm14.9 2.7c3.9-.5 8.7-2.2 9.7-6.3-1.7-1.4-3 1.8-5.8 2.4-3.1.7-4.9-1.1-8-2.4-5.1-7.9-9-16.3-9.2-27.5 1.8 5.9 1.4 12.4 4.9 17 1.6-.7 2.5-2 3.2-3.6-4.3-8.2-5.2-17.7-4.4-28.7-2.9.4-2.9 3.6-3.9 5.8.3-7.3.7-13.7 2.2-19.9-.8-.8-1.6 1.8-2.2 1.2.8-3 2.5-5.1 3.9-7.5-5.1 3.2-7.9 12-8.8 19.5.5-.1.6.2 1 .2.8-.2.9-1.2 1.2-1.9 0 5.8-.6 11-.5 17.3-1-5.3-2.3-9.6-1.7-15.3-2.1.1-3.5 3-3.4 6.1-.9-2.1-1.4-6.8-1.9-10.7-.6-.9-1.2.9-1.5.2-1.2-7.8-1.6-16.5 2.7-21.6-.6 0-.8.4-1 .7.9-3.8 3.3-8.1 5.1-11.8-.2.1-.9.1-.9 0-1.5.5-2.4 3.2-3.5 4.5-2.3 3-5.6 6.8-7.5 10.7-1.4 2.9-2.3 5.5-3.2 8-1.5-9.5 1.9-23.7 6.8-29.9-5.2 4.7-9.2 12.7-10.9 21.6-.1-5 1.9-9.9 4.4-13.1-.2-.4-1.4.2-1.5.7-.5.1 0-.7.2-.7-.8-.5-1.8 1-2.2 1.7 1.9-2.8 1.1-9.3 2.7-12.9 1.3-3.1 4.4-5.7 6.8-8.3 2-2.1 3.3-4.6 7.3-4.6 3.9-2.2 6.1-6.1 8.5-9.7 2.9-1.1 4.4-2.3 6.3-4.1 1.7-1.6 2.7-4 4.6-5.6 1.9-1.5 6.3-2.5 9.5-3.4 4-1.2 7.5-2.2 12.2-1.2 3.2.7 6.3 1.9 9.7 1.7 3.5-.3 5.8-.8 9 0 3.9 1 7.4 1 11.2 2.7 2.1.9 3.4 1.9 5.1 3.4 3.5.5 8.2.3 10 2.9 1.9.4 3.4-.1 5.1.7 2.9 1.4 2.9 6.6 6.3 6.8 2.5 2.4 3.8 5.9 5.3 9.2 2.1 2.6 4.7 3.9 5.6 7.1.6 2.1-.2 5 .7 8 .3 1 1.4 2 1.7 3.2 1.2 4.4-1.3 10.1 1.2 14.3-2-2.9-4.2-7.8-5.1-12.6 1.3-4.3-3.2-8.3-3.6-13.1-.7-.8-.9.6-1.5 0-.5-2.6-1.5-4.6-2.9-6.3-.7 1.1-.9-.4-1.2-.5.1 0-1.3.1-1.3 0-.9.3-1.3 1-2.1 2.1 2.2 9.4-7.2 11.3-14.3 12.9-.9 0-.1-.2-.2-.7-2.1.5-4.3.9-5.8 1.9-7.9.8-13.2 6.5-19.9 9.2-1.4 1-2.4 2.5-3.4 3.9.4.3 1.6-.7 2.4-.7-.5.4-2.4 1.5-2.7 2.9 6.5-2.4 14.6-5.2 21.4-8 .8-.3.2.8 1 .5 12.7-1.3 21-6.9 24.8-17 1 1.1 1.4 3 1.9 4.4 2 4.8-6.4 4.5-8 8.8 3.6.5 7-3.4 9-6.1.5.5.7 1.3 1 1.9.7.1 1.2-1.4 1.5-1 .8 1.7-.1 3 0 4.6.1 1.4 1.2 3.9 1.7 6.1.4 1.8.3 3 1 5.1.3.8 1.1 1.8 1.2 2.7.2 2.3-.8 4.3-.2 6.3.8 3 .7 5.6 1.5 8 .5 1.6 1.7 3.2 2.2 4.9.4 1.2 0 2.6 1 3.6-.9 2.9 1.7 3.9 1 6.8 1 2.9 2.2 9.5 1.7 13.1 3.4 10 .6 21.7-1.9 32.6-.8 3.4-1.2 6.9-2.7 10.2-.3.8-1.1 1.4-1.5 2.2-.5 1.1-.5 2.4-1 3.4-1.2 2.5-2.9 5-4.4 7.5-1.4 2.5-3.1 5-4.6 7.3-5.4 8-9 15.3-19.7 17-3.7.6-6.9-.9-10.5-1-2.3-1.1-5.7-2.4-8.3-2.9-17.8-11.1-32-26.6-39.6-46.9zm-13.4-42.6c.2 2.3 0 4.9.2 7.3-.9-1.6-.4-5.2-.2-7.3zm84.4-47.1c0-.9 1.8-2.1 2.4-3.2.3 1.2-1.7 2.2-2.4 3.2zm-18.5 230.5c-7.5-.7-14.5-1.2-22.1-1.9-3.9-.4-7.6-2.4-11.9-1.9-.4-.7-1.4-.7-1.7-1.5-5.7-1.2-7.7-4.8-13.4-7.3-.9-1.4-1.2-1.4-1.9-2.2 4.8-7.8 8.4-16.7 12.6-25-1.4-.8-3.1.3-4.1.7-8.6 1.5-17.4-1.2-25.5 4.1 2.1-3.6 2.2-7.8 3.6-11.7.8-2.1 2.5-3.9 3.2-6.1 1-3.1.9-6.1 1.9-9.2-2.9-9.5 4.6-17.9 6.6-26.5 1.6-1 3.2-1.9 5.1-2.7.6 1.6-2.4 3.8-3.2 5.6 1.7 6.6 6.6 10.1 8.8 16.3 4.2 3.6 6.3 11.3 10.2 16.8 2.5 3.5 5.3 7.8 7.8 11.9 10 11.5 18.3 23.2 28.2 34.8 4 3.2 7 7.4 10.5 11.2-3.6-2.6-9.9-4-14.7-5.4zm16.3-.8c-4.3-4.5-8.7-9-12.6-13.9-.3-.1-.7-.3-1.2-.7-8.4-12.3-19.4-23-27.5-36 1.7-1.1 2.8-2.7 2.9-5.3-2.3-1.3-3.5 1.4-4.6 2.7-1-1.2-1.8-2.6-2.7-3.9 1.3-1.3 3.9-4.4 1.2-6.1-1.4.4-2.3 1.4-2.9 2.7-3.6-5.6-6.7-11.8-10.2-17.5 1.2-2.4-1.3-3.4-1.9-5.3 2.3-6.2 4.5-14 4.4-21.2 4.4 4.1 9.2 6.8 13.6 10.5 5.2 2.8 10.8 5.4 16 7.5 3.5 0 6.9 1.8 11.4 1.2 4.4-.5 8.5-2.6 11.2-4.9.5.9-.3 2-.5 2.7-1.9 9.6-2.5 18.6-5.6 27.7-.1.6.9.2.7 1-1.2.8-1.9 4.3-.2 5.1 1.6-.7 2.5-2 3.4-3.4 2.4 8.2 3.5 16.6 4.6 25.5 1.3 10.2.1 21.8.5 31.6zm26.7-18.7c-5.4 12.6-8.4 28.9-11.2 43.3-1-2.2-2.3-4-2.4-7.1-2.1-.4-3.1-3.8-4.6-5.6 3.8-13.3 10.8-25.3 18.2-35.7 0 1-1.6 3.7-1.5 4.9.1.5 1.1.1 1.5.2zm-.5-5.6c-8.1 9.7-13.9 21.6-19.5 33.8-1.1-1.7-2.3-3.4-3.6-4.9.2-.6.4-1.2.7-1.7.2-.8-.6-.5-.7-1 1-22.5-.7-43.6-4.6-63.2-.4-2.2-1.4-4.7-1-7.1-.2-.8-1.1.9-1.2.2 1-4.5 2.1-9 2.9-13.6 2.8 3.6 4.9 7.9 8 11.2.1.7-.6.7-.5 1.5.6.3 1.5.4 2.2.7 3.8 6.9 8.2 13.6 12.6 18.7-2.6 3-7.7 3.5-9 7.8 4.4 3.7 9.2 9 14.6 12.4 0 2.2-2.4 3.6-.9 5.2zm5.6-23.8c-.9 0-.8-.8-1.5-1-.3 2.3-.8 4.4-1.2 6.6 1.1.5-.4 5.7-1 7.5-3.4-2.8-7.2-5.7-10.5-9.7 3.2-2 6.8-3.6 8.3-7.3-3.4-4-6.4-8.4-9.5-12.6 1.1 0 2.4.6 3.4 1.2 2.8 1.7 5.9 3.3 8.5 5.1.4.3.4.9.7 1.2.6.5 1.7.5 2.4 1 .6.4.9 1.4 1.5 1.7.6.4 1.9.6 2.4 1.5-.8 1.8-2.5 3-3.5 4.8zm36.7-48.4c-2.6 3.1-13.1 5.5-16.3 1.2 2.4-3.3 8.3-2.9 10.5-6.8 1.8.3 4.4.8 6.6 1.2.3 1.5-.4 3-.8 4.4zm-14.8-26.5c-2.1 1.4-3.7 3.3-3.9 6.6-2.5-3.3-3.3-7.6-1.9-12.2 1.7.1 3.5.4 4.6 1.7 1.6-.7 2.4-2.3 3.4-3.6-1.6-2.5-3.8-1.1-5.8-2.4-.4.2-.8.5-1 1-.3-1.3 1.4-2.6 1.7-4.1 2.6.4 4.2 2 6.3 2.9 1.3-1.1 2.7-2.2 3.2-4.1-2.2-1.2-4.4-2.1-6.3-2.9.1-.6.8-.5.7-1.2 3.4.3 5.2 2.3 7.3 3.9 1.6-.8 2.4-2.4 3.4-3.9-2.1-2-4.1-3.5-7.3-3.9.3-1.4 1.4-2 1.9-3.2 2.8 2.1 5.6 3.3 8 5.4 1.6-.8 2.4-2.4 3.4-3.9-2.2-1.7-4.6-3.5-7.8-4.9.6-1.1 1.5-1.7 2.7-2.2 0 .6-.4.8-.5 1.2 3.1.7 4.5 2.9 6.1 5.1 1.6-.8 2.7-2 3.4-3.6-.5-1.8-2.2-2.4-2.9-3.9 10.9 1.6 22.1 6.9 28.2 16.5 0 3.5-.3 6.1-1.2 9-.6-1.7-1.3-3.3-1.9-4.9-2.7-.1-2.9 2.3-4.1 3.6 1.9 1.2 2.4 3.7 3.2 6.1-.8.9-1.6 1.8-2.2 2.9-.5-2.7-1.5-5-2.7-7.1-1.8.5-2.4 2.1-3.4 3.4 1.4 3.5 4.3 6.4 1.2 9.5-.7-2.7-1.7-5.1-2.9-7.3-1.4.3-3 2.1-3.6 3.9 1.5 2 4.7 6.6 1.7 8.8-1.6-2.8-2.4-6.8-4.1-8.8-1.9.6-2.9 2.3-3.9 3.9 1.1 0 4.6 6 4.1 8-.5 2.5-5 3.7-8 2.7v-1.2c-.7-.2-.5.7-1.2.5-1.9-2.4-2.5-5.4-1.7-8.5-3.1.7-3.7 5-3.6 8.3-1.1-.4-1.3-.6-2.2-.7-.6-2.8-.7-7.6.2-10.5-3 1.3-3.9 5.2-3.9 8.8-2.5-2.8-2.5-8.3-1.5-12.4-2.6 1.4-4.3 4.8-3.6 8.7-3.5-1.6-2.7-7.1-1.6-11zm-3.6 22.1c1.8-2 5.3-2.1 7.5-3.6 1.3.8 2.3 1.2 3.4 1.7-2.9 1.6-6.3 3.1-8.5 5.4-.7.7-1 2.1-2.2 1.9-.2-1.3-.7-3.4-.2-5.4zm-4.9 43.6c-1.8.4-3.7 2-5.3 1.7-.1-1.9.7-4.7 1.5-7.3.5-1.8 1.5-3.7 2.2-5.1.4-.7-1.1-.5-.2-.7.3-1.5 1.7-2 2.2-3.4.1-.3-1-.4-1.2-.1 1.3-5.9 3.6-11.3 5.3-17.6 1.1.1 2.7.6 4.4.5-3.8 9.8-6 21.3-8.9 32zm32.1-64c-2.4 2-5.4 3.3-6.6 6.6 9.6-7.1 17.3-16.1 25.5-24.6 0-.3-.1-.6-.5-.5-6.6 5.7-11.8 12.9-18.4 18.5zm9.2-16.3c1.4-1 2.6-2.1 3.2-3.9-2.1-.6-4.1-5.1-6.8-5.3-2.2-.2-3.4 1.5-4.4 3.6 3.6 1 4.8 4.3 8 5.6zm-4.8 5.6c1.3-1.2 2.6-2.2 3.2-4.1-2.5-2.7-4.7-4.3-8-5.8-1.1 1.2-2.4 2.1-2.9 3.9 2.5 2 5.6 3.4 7.7 6zm-7.1 7.3c-2.7-1.8-4.4-3.1-6.8-5.1-2.8-.2-3.5 1.7-4.4 3.4 2.9 2 4.7 3.8 8 5.6 1.5-.9 2.6-2.2 3.2-3.9zm-13.6-4.1c4.5-8.1 13-12.1 18.2-19.5.2 0 .3-.4 0-.5-5.7 5.1-12.6 10.7-17.3 17-1.3 1.8-4.6 4.8-2.7 6.8 1.4-.5 1.6-2.1 1.8-3.8zm7.1-3.2c1.8 2 4.9 2.8 6.1 5.4.4 0 .8.1 1 .2 1.3-1.1 2.6-2.2 3.2-4.1-2.9-1.7-4-4-7.1-5.1-1.7.6-2.7 1.8-3.2 3.6zM367.1 50.6c7.5-1.9 17.3-3.2 24.3-4.1-6.1-5.7-20.2-.2-24.3 4.1zm40.8 73.7c.6-.6 2.1-1.4 1.7-2.2-4.9-2.3-9.5-3-15.8-3.4-2.9-.2-5.6-1.4-7.8-1.2-1.7.1-3.5 1.3-5.6 1.2-3.6 2.4-7.1 4.9-9.2 8.8 2-.7 2.5-2.2 4.1-3.4 7.9-5.7 23.6-2.1 32.6.2zm-29.1-68.1c-9.5 1.3-20.7 5.5-25 13.1 6.6-7.6 20.5-7.8 30.1-12.4-1.5-1.2-3.3-.9-5.1-.7zm62 63c-3-.1-5.8 1.2-6.8 3.6 1 .1 1.2-.6 2.2-.5-1.4 2.1-3.6 3.3-4.4 6.1 1.3-.2 5.1-1.5 6.8 0 6.2-.1 10.2-2.3 13.1-5.6 2.5 1.5 6.7.2 7.5-2.2-1.1 0-1.7.6-2.7.7-3.7-2.6-11.3-1.9-15.7-2.1zm-7.6 8c.9-1.5 2.2-2.5 3.2-3.9.4.9-.3 2.4.2 3.6-1.2.1-2.5 0-3.4.3zm10.7-.2c1.1-1.2 2.5-3.1 1.7-5.4 1.9.5 3.1.2 4.9.7-1.2 2.6-3.8 3.7-6.6 4.7zm-56.4 9.5c.8.1.5-.7 1.5-.5.3.4.8.6 1.5.7 3.4.3 6.7-.4 8.8-1 .7-.2 2.3.2 2.2-1-1.7-.2-3.9 1.1-6.3 1 1.4-1.6 2.4-3.5 2.4-6.3 4.2.9 5.2 5 9.5 5.8-.1-3.6-4.2-7.5-6.1-8.3-6.8-2.8-15.2 4.1-19.2 6.6-1.1.3-2.8.4-3.9 0-.9.6-1.7 1.4-1.9 2.7 2.8 1.1 5-1.2 7.3-1.5 1-.1 3.5.3 4.2 1.8zm-.2-4.4c-.4 1-.3 1.6-.2 2.7-.6-.3-1.7-.3-2.4-.5.4-1.1 1.4-1.7 2.6-2.2zm5.1 8c-3.2-.3-6-1.1-8.8-2.4-.3.6-1 .9-1.2 1.7 2.2.9 8.1 4 10 .7zm12.1 17.5c-2.3.1-2.2 5.9-3.6 6.8-1.3.8-3.1 2.1-5.1 3.4-1.5 1-3.8 1.7-4.9 2.7-1.9 1.6-2.2 4.8-2.4 7.5 1.6-1 2.2-3 2.4-5.4 5.9-3.6 12.5-6.5 13.6-15zm-53.2-77.8c2.7-4.3 8.1-7.2 11.7-9.7-5.1 1.9-9.4 5.9-11.7 9.7zm20.9 12.9c8-1.5 17.5-3.8 23.1-8.5-.3 0-.5-.1-.7-.2-1.2.6-1.8.4-2.9.2-6.4 3.3-14.9 3.4-20.4 6.6-.1 1 .7 1.1.9 1.9zM409.4 66c-4.1-1-8.7.4-13.4.5-.1.6-1.2.1-1 1 5.5 1 10.5.9 14.4-1.5zm1.4 96.5c5.7.1 13.6.5 20.4 1.2 5.2-.7 9.5-7.4 3.4-10-1.8-3.4-4.3-5.3-6.3-8.5-3.1-5.1-4.5-13-2.7-19 .3-.9 1.1-1.4 1.7-2.4 2-3.1 3.4-4 6.6-6.1 5.9-4 16.3-10.3 23.8-6.1-2-1.4-3.3-3.5-5.8-3.9-2-.3-4.4 1.1-6.3 1.7-5.8 1.7-13.2 4.8-16.8 9-1.3 1.5-1.5 3.1-2.4 4.9-.6 1.2-1.5 2.1-1.9 3.2-4.1 8.9.1 19.2 4.1 24.8 2.4 3.3 5.4 5 7.3 8.5-3.4 2.8-8.5.3-13.4.2-3.1 0-6.4.5-9.5-.2-1.6-1.4-3.2-2.8-3.4-5.6-3.6.8-1.7 7.2 1.2 8.3zm-20.1-83.9c-3.1-1.7-5.8 1.4-9.5 1.2-2.7 1.7-7.8.6-9.2 4.1.6-.1.6.5.7 1 7.2-1.4 13-2.9 18-6.3zm26 180.9c3.3-.5 5.5-3.4 4.9-7.1-2.7.4-5.9 3.9-4.9 7.1zm21.4-79.5c-2.7 6.4-14.9 9.4-22.4 5.8-3 .8-5.6-2-8-1.7 7.3 7.1 28.5 5.9 30.9-3.9-.1-.2-.2-.3-.5-.2zM424 255.1c1.7.6 5.8-3.8 4.4-6.3-3.9-.7-7.2 5.4-4.4 6.3zm-30.4-82.7c-.1 1.2-.8 3.5.5 3.9.4-.9-.3-2.6.2-3.9h-.7zm-43.7-99.1c.1 0 .1-.1.2-.1l-.2.1zm98.9 58.1c2.8-1.1 5.6-3.6 6.1-6.3-.9 3.1-5.2 4.1-6.1 6.3zm18 122.3c.1.5-.3 1.6.2 1.7.1-.5.5-.6.5-1.2-.5 0-.5-.4-.7-.5zm-25.6-101.4c-.2 0-.3.2-.5.2 0 .3-.3.3-.2.7 4.4 4.8 9.6 8.7 12.2 15.3 1.4-8.6-7.5-11.3-11.5-16.2zm-39.6 101.4c2.9-.1 6.8-3.9 4.9-7.3-4.1-.2-6.4 4.1-4.9 7.3zm28.7-84.9c-1.1.3-1.8 1.2-2.7 1.5-5.1 1.6-7.1.5-12.2.5-4.9 0-9.6 2.8-14.6 3.2-1.2.1-1.6-1-2.4 0-.1 1.5 1.9 2.4 3.2 3.4 1.2 1 2.6 2.6 3.9 3.2.9.4 2.3.3 3.4.7 1.1.4 1.8 1.3 2.7 1.5.8.1 1.9-.1 2.9 0 2.2.3 5 .7 8.3.5 6.3-.4 10.2-1.9 14.8-5.3 4.7-3.5 6.8-8.1 8.8-13.1-3.8 4.1-11 2.3-16.1 3.9zm-16.1 3.9c2.1-.1 4.1.6 5.8.5 4.8-.2 9.3-3 15.1-3.2-7.5 3.8-18 5-29.2 4.4 2.8-.1 5.7-1.5 8.3-1.7zm25.6-.3c-9.1 5.3-22.7 8.1-33.1 4.1 13.2-.1 25.4-1.7 34.3-7.5.9.6-1.3 2.1-1.2 3.4zm-29.7 84.9c3.4-.4 5.7-4.3 5.1-7-3.1.8-6.2 3.5-5.1 7zM66 160.1l-1.3.3-.1 1.3c-.5 9.4-.7 18.8-2.8 27.5l.9.2-.2 1.9c.9.2 1.8.3 2.7.3 2 0 4-.3 5.5-.3H72l.3-1.3c1-4.4 1.4-6.6 2.2-7.5.6-.8 1.8-1.4 4.8-2.3.5 1.6 1 3.1 1.8 4.5 1 1.9 3.1 3.5 5.8 3.4 1 0 2-.2 3.2-.5l1.3-.4-.1-1.3c-.3-6.1-2.7-15.9-6.5-21.6-2.7-4.1-5.8-5.9-9.3-5.8-2.8-.1-5.7.8-9.5 1.6zm15.9 6.1c3 4.3 5.3 12.8 5.8 18.3-.3 0-.6.1-.9.1-1.5-.1-2-.5-2.8-1.7-.7-1.2-1.3-3.2-1.9-5.3l-.5-1.6-1.6.4c-4.1 1.1-6.5 1.8-8.2 3.9-1.4 1.9-1.8 4.1-2.6 7.6l-3.6.3c1.7-8.2 1.9-16.6 2.4-24.9 3.2-.7 5.7-1.3 7.5-1.3 2.4-.1 3.9.5 6.4 4.2zm42.8-72.3c.3 13.1 2.6 21.7 11.9 25.4 4.1-1.7 5.1 1 7.4-1.3 3.2 2.3 9.6-4.8 11.4-7.5.8.8 1.6 1.5 2.5 2.1.1 6.7 3.8 7.3 9.9 6.5 2.9-13.5 1.8-27.4.5-45.8-2.5.3-2.3-2.8-3.9-3.7-5.4 1.8-7.9.6-11.7 4.7-6.3-.4-12.1-.5-14.7-2l.2 1.7c-5.4-.2-6.1 3.4-9.3 5 .1 1 .2 1.9.3 2.9-3 .7-2.1 9-4.5 12zm21.2-8.5c1.8-1.3 2.4 2.6 2.3-.2 1.7 2.8 1.2 8.3 1.2 11.5-1.2-1.2-1.2 4.7-1.1 5.9-5.6 2.6-5.5-3-8-5 .7-5 2.9-8.8 5.6-12.2zm-74.5 78.7l-.4 1.8c-.2.9-.3 1.9-.3 2.8v.9c-.7 1.7-1.2 3.5-1.6 5.2l-.7 3.5 3.2-1.7c2.3-1.3 4.7-1.8 7.6-2.7l1.7-.6-.6-1.7c-1.3-3.3-3.9-6.1-7.2-7.1l-1.7-.4zm3.3 5.2c.6.5 1.2 1.2 1.6 1.9-.6.2-1.1.3-1.7.5-.2-.5-.3-1.1-.4-1.6.2-.3.3-.5.5-.8zm247.6 15.6l-2.1.9c-1 .4-2 .6-3.1.6-3.2 0-6.8-1.5-10.6-1.5-2.3 0-4.9.8-6.7 3.2-1.2 1.7-1.7 4.1-2.1 6.9-.2-2.7-.9-5.1-2.4-7-2.1-2.5-4.9-3.7-7.6-3.7-.8 0-1.6.1-2.4.3l-.4-.6c-.7.5-1.4 1-2 1.5-2.5 1.4-4.3 3.9-5 7-1.3 3-1.9 6.2-1.9 9.1 0 2.8.6 5.5 2 7.6 1.3 2.1 3.6 3.6 6.4 3.6h.1c2.3 0 4.9-.9 7.7-2.6 2.6-1.7 4.1-4.8 4.9-8.3-.2 3.9-.2 7.6-.4 9.5l2.9.2-1 2.4c2.1.8 4.6.5 5.4.8l1.5.5.6-1.5c2.2-5.5 1.3-11.8 2-16.7 3.8-.1 7.9 0 11.9-.2l1.2-.1.4-1.1c.6-2 1-4.3 1-6.5 0-.7 0-1.4-.1-2.1l-.2-2.2zm-41.9 11.3l.7-.1c-.3.5-.7.9-.9 1.4-.2.4-.3.8-.5 1.2.2-.8.4-1.6.7-2.5zm10 11.1c-2.5 1.6-4.4 2.1-5.9 2.1-1.7 0-2.7-.7-3.6-2-.3-.4-.5-.9-.7-1.4 1.8 1 3.3 1.5 4.7 1.5h.1c1.5 0 3-.8 3.7-2 .7-1.2.9-2.5.9-3.8 0-2-.5-4-1.2-5.6-.4-.8-.8-1.6-1.4-2.2v-.2h-.2c-.5-.5-1.3-.9-2.3-1.1-1.5 0-2.5 1.2-2.9 2.3l-.3.9c0-.3-.1-.6-.1-.9 0-.4 0-.9.1-1.3.9-2 2.1-3.8 3.7-5.2.9-.4 1.8-.7 2.7-.7 1.7 0 3.4.7 5 2.5 1 1.1 1.7 3.6 1.7 6.3.1 4.6-1.9 9.7-4 10.8zm-8-4c.1-1.1.3-2.3.6-3.3l1 .1c.1-1 .2-1.8.4-2.5.2-.2.5-.3.7-.4.1.2.2.5.3.8.4 1.1.7 2.6.7 3.7 0 .9-.2 1.6-.4 1.9-.2.3-.2.4-.8.4-.4.1-1.3-.1-2.5-.7zm36.3-9.7c-3.9.1-8 0-12 .2l-1.3.1-.3 1.3c-1.1 5.6-.2 11.7-1.6 16.2-1.3-.1-2.6-.1-3.2-.3.1-2.6.2-6.9.4-11 .2-4.5 1-9 1.8-9.8 1.2-1.5 2.2-1.8 3.9-1.9 2.7 0 6.5 1.5 10.6 1.5.7 0 1.4-.1 2.2-.2 0 1.3-.2 2.7-.5 3.9zM145.8 308.9c-.6.7-1.2 1.3-.8 2.1.5-.1 2-1.3.8-2.1zm86.9 100.4c-10.9 19-28.1 44.1-45.4 59.9 8.7-21.5 21.6-44.6 39.4-66.2-15.7 11.1-30.5 33.8-37.1 50.7 3.3-5.8 6.6-12.4 9.9-16.5-6.3 10.2-13.4 25.9-21.1 37.5h10.8c.2-.6.6-1.1.8-1.6 4.5-7.3 14-17.5 19.6-25.2-.6 4.2-6.5 9-8.5 14.7 12.2-15.2 28.9-35 31.6-53.3zm-19.2 6.9c1.3-.3-1.8 2.8-2.4 3.9-1.4.3 1.7-2.8 2.4-3.9zm-13.6 18.9c2.1-2.2 2.2-4.2 4.4-6.4 1.3-.8-.3 1.3-.7 1.7-.7 1.8-2.2 3.7-3.2 5.6-.5-.2-.6-.5-.5-.9zm12.8 8.8c-.6.5-.2.9.2 1.3-1-.3-1.9.7-2.7 2-1.2-.4 7.5-9.7 2.5-3.3zm26.8-27c-8.2 13.4-22.5 33.4-28.9 49-1.3 3.1-3 6-4.8 8.7h1.1c11-16.9 26-40.2 34.3-57-.5.5-1.1-.3-1.7-.7zm-107.8-85c.7-.7 1.3-.9 1.9-1.2-.3-1-2 .8-1.9 1.2zm-12.8 7.7c.6-.7.4-2.9 1.3-3.7.8-.6 2.2.2 3.2-.1 2.7-.9 5.2-3.5 7.1-4.1-2.4 1.1-4.7 1.5-7 2.9-2.9-2.2-5.3 3.7-4.6 5zm-80.3-99.2c4.5 1.6 8.3 5.1 12.7 6.9 2.5 1 4.8 2.9 7.8 3.4-1.2-1.5-2.2-3.7-3.4-3.2 0-.8-3.8-4.8-6-6-.6-.3-1.3.3-2.2.1-1.6-.5-3.3-2.8-5.2-3.8-3.5-1.9-6.7-2.6-11.8-2.2-12.8 1.1-28.4 3.6-42.3 4 .1 3.2.2 6.3.3 9.5 11.5-2.5 23.4-4.9 34.9-7 5.2-1 10.9-3.2 15.2-1.7zm12-47.5c1 .3 2.3.4 3.6.4 1.2 0 2.4-.1 3.4-.4l1.5-.4-.3-1.5c-.4-2.1-.5-8-1-13.6-.2-2.8-.6-5.6-1.1-7.9-.6-2.3-1.1-4.3-2.6-5.6-1.3-.9-2.4-.8-3.9-.9-2.9 0-6.9.6-10.6 1.4-3.7.8-6.8 1.6-8.3 2.4l-1.2.7.4 1.3c1 2.9 2 10.3 1.9 16.3 0 3.7-.4 7-1.1 8.3l2.1 1 .2.2s.1.1.2.1c.2.1.4.2.7.2h.7l.6-.3c.5-.3 3.4-1.6 4.3-1.6l1.8-.1-.1-1.8c-.3-4.9-1.3-9.6-1.5-14.3 2.2-.3 4.3-.5 6.4-.6.9 5.3 2.7 9.9 2.7 14.9v1.5l1.2.3zM48 172.7c-3.4.1-6.5.5-9.8.9l-1.5.2v1.6c.1 5.1 1 9.9 1.4 14.5-.8.2-1.5.5-2.2.8-.1.1-.3.1-.4.2.2-1.7.3-3.7.3-5.8 0-5.6-.7-11.9-1.7-15.8 1.4-.4 3.7-1.1 6.1-1.5 3.5-.7 7.5-1.3 9.9-1.3.6 0 1.1 0 1.4.1.1 0 .3.1.3.1.3.3 1 1.7 1.4 3.7 1.2 5.6 1.4 14.8 1.8 19.6h-1c-.5 0-1 0-1.4-.1-.3-5.8-2.3-10.6-3-15.6l-.2-1.5-1.4-.1zm91.8 149.6c-.5 0-1.1 1.1-.8 1.7.4-.3.7-.6 1.1-.9-.2-.3-.3-.6-.3-.8zm22.4-5.2c-.9.8-.9-.3-1.6-.1.6.9-1.1.7-.4 1.8-.7 0-.3-.9-1.1-.5.2.2-.6 1.2.3.8-.1-.3-.1-.8.2-.6-.2.2-.1.5-.1.8 1.2-.6 2.2.3 3.4.1-.1-.4-.1-.8.1-1.2-1.2-.8-.6 0-.8-1.1zm104.5-131.8l-.4-1.6-1.6.3c-2 .4-4 .6-6 .6-2.2 0-4.4-.2-6.6-.6l-1.5-.2-.4 1.4c-2.2 7.4-5.1 16.4-6.2 24.5-.8 1.2-1.2 2.6-1.2 4.2 0 .5 0 1.1.1 1.6l.3 1.5h1.6c1.7 0 3.3-.5 4.7-1.1l.9-.4.2-.9c.5-3 1.3-7.5 2.7-11.2 1.2-3.1 2.7-5.2 4.4-5.8 1.2 3.6 1.9 7.8 4.4 11.5 1.3 1.9 2 3.1 2.9 4 .9 1 2.3 1.5 3.6 1.5 1.4 0 3-.2 5.8-.4l2-.1-.5-2c-2.3-9.2-7.1-18-9.2-26.8zM247.3 213c-.4.1-.7.2-1.1.3 0-.2.1-.4.1-.6l.7.1c0-.6.1-1.1.2-1.7.1-.2.3-.3.5-.5-.2.8-.3 1.6-.4 2.4zm21.1-1.9c-.9-.1-.6 0-1.1-.4-.4-.4-1.2-1.6-2.5-3.6-2.3-3.3-2.8-7.7-4.5-12.2l-.4-1.1h-1.2c-4.6.2-7.1 4.2-8.6 8.3-.8 2-1.3 4.1-1.8 6.2l-.4-.7c1.2-6.5 3.3-13.7 5.2-20 1.9.2 3.8.4 5.7.4 1.7 0 3.4-.1 5.1-.3 2.2 8.2 6.1 15.8 8.2 23.2-1.9.1-3 .2-3.7.2zM39 253.2c4.7-1.2 7.7-2.4 11.6-1.8 5.4 4 10.7 8.2 18.3 10-1.5-3.4-6.7-2.9-7.6-7.1-1.2-.4-.9.6-1.4.8-1.8-2.7-3.9-1.9-5.4-3.9-.1-.1-.2-.2-.2-.3.1.1.2.2.2.3.4.3 1 .6.9 0-1.4-1-3.1-1.7-5.2-2-.1.6.6.9 0 1.1 0-.2-.1-.4-.4-.4-3.9-3.4-9.7-1.6-17.2-.9-14.4 1.4-29.6 3.7-44.1 4.4.1 3.5.2 7.1.4 10.6 15.9-3.7 34.4-6.8 50.1-10.8zm266.2-123.1c-6.5 1.3-9.6 7-9.5 12.5 0 6.8 4.5 14.3 12.6 14.3 1.8 0 3.7-.4 5.7-1.2 6.2-2.4 9-7.2 9-11.8-.1-7.3-6.1-14.4-13.8-14.5-1.3 0-2.7.2-4 .7zm14.3 13.8c-.1 3.3-1.7 6.5-6.8 8.6-1.7.7-3.1.9-4.5.9-2.9 0-5-1.3-6.7-3.3-1.6-2-2.5-4.8-2.5-7.5.1-2.6.8-5 2.4-6.7l.5.5c1.4-1.4 2.7-2.4 4-2.9.4-.1.8-.1 1.2-.2v-.2c.7-.2 1.3-.2 2-.3 2.6 0 5.2 1.3 7.2 3.5 2 2.1 3.3 5 3.2 7.6zm-12-9.4c-.7.2-1.2.5-1.8.9-1.7.6-3.2 2.3-3.9 4.7l.9.3c-.2.8-.2 1.5-.2 2.3 0 1.8.4 3.5 1.2 4.9.8 1.4 2.3 2.7 4.2 2.7 1.2 0 2.3-.4 3.4-1.1 2.2-1.4 3.3-3.7 3.3-5.8-.1-4.1-3.1-7.9-7.1-8.2v-.7zm3.8 8.8c0 1.1-.4 2-1.7 2.9-.7.5-1.3.6-1.6.6-.5 0-.8-.2-1.3-1-.4-.7-.7-1.9-.7-3.2 0-1.7.5-3.2 1.3-4.1h.1c.6 0 1.7.5 2.5 1.4.9 1 1.4 2.3 1.4 3.4zM199 157.9c0 1.5.4 3 1.2 4.2.8 1.2 2.3 2.1 3.9 2.1h.1c1.2 0 2.5-.4 3.8-1.1 2.7-1.5 4.2-3.8 4.2-6.1-.1-3.5-2.7-6.2-5.9-7l-.6-1.6c-1.4.5-2.5 1.2-3.4 2-2 1-3.5 3.3-4 6.5l.8.1c0 .3-.1.6-.1.9zm5.3-4.6c.2-.1.4-.1.6-.1.8 0 1.8.4 2.6 1.2.8.7 1.2 1.7 1.2 2.5 0 .9-.4 1.9-2.4 3.1-.9.5-1.6.7-2.1.7-1 0-1.7-.8-1.8-2.8.1-1.5.7-3.3 1.9-4.6zm2.1 18.8c2.3 0 4.7-.6 7-1.9 5.5-3.1 7.8-8.3 7.8-13.3-.1-8.2-5.7-16.6-13.6-16.8-.4 0-.8 0-1.2.1l-1.1-1.6c-6.3 4.2-12.6 10.4-12.7 19 0 .8.1 1.6.2 2.5 1.1 7 6.9 12 13.6 12zm-5.3-25.6l.1.1c2.3-2.3 4.4-3.1 6.4-3.1 2.6 0 5.1 1.5 7 4 1.9 2.5 3.2 6 3.2 9.3 0 4-1.7 7.8-6 10.3-1.8 1-3.6 1.4-5.3 1.4-5 0-9.4-3.7-10.1-9-.1-.7-.1-1.3-.1-2-.2-4.1 1.8-7.8 4.8-11zm86.1 6.3h1l2.3.2-.5-2.3c-.6-2.6-.9-5.5-.9-8.4v-1.6l-1.6-.1c-4.4-.2-10.6-1.9-16.1-1.9-2 0-4 .2-5.8 1l-2.4 1 1.6 1.7-.6.1c0 .6.1 1.2.1 1.7 0 2.5-.4 5.2-.8 7.7l-.5 3.1 2.9-1.3c1.8-.8 4.1-1.3 6.4-1.4.1 1.7.1 3.3.1 5 0 5-.3 9.9-.7 14.5l-.2 1.9h2c1.2 0 4.2-.5 5.3-.8l1.7-.5-.5-1.7c-.4-1.3-.6-3.2-.6-5.3 0-4.1.7-8.9 1.6-12.2 2.1 0 4.3-.4 6.2-.4zm-7.5-3.1l-1.4-.1-.4 1.3c-1.1 3.7-2.1 9.4-2.1 14.5 0 1.6.1 3.1.3 4.4-.3 0-.6.1-.9.1.4-4.1.6-8.4.6-12.7 0-2.3 0-4.5-.2-6.8l-.1-1.5-1.5-.1h-1c-1.9 0-3.9.3-5.7.7.2-1.7.4-3.5.4-5.4v-1l1.6-.8c.7-.1 1.4-.1 2.2-.1 4.3 0 9.7 1.3 14.3 1.8.1 1.8.2 3.7.5 5.4-2 .1-3.9.3-5.5.3h-1.1zm-33.6 263.1c-6.8 14.8-15.7 29.9-19.4 44.3-2.2.8-1.5 4.1-3.5 6-.2 1.3.5.8.5 1.6-1.4 3.1-2.9 6.5-4.5 10h2.6c8.6-20.7 17.7-41.4 24.9-61.9 2.5-2.8 1-2.6-.6 0zm181-39.3c2.9-1.2 4.8-3.5 6.1-6.3-.3-4.1-2.3-6.9-3.4-10.2-.3-.9-.7-1.8-1-2.7-.5-1.4-.4-2.3-.7-3.6-.3-1.2-1.2-2.4-1.5-3.6-1.6-8.3-3.1-17.6-6.3-24.8h-.7c-2.3 3.6-7.7 5.1-12.4 6.3-7.6 2-16.3 3.8-23.1 5.3-.7.3-1 1.1-1.7 1.5-.4-.4-.9-.5-1.7-.5-1.3 1.1-2.6 2.3-3.2 4.1 5.2 16.8 15.2 30.4 22.1 46.2 1.8-.5 2.6-2.1 3.4-3.6-6.8-16-16.3-27.6-21.4-44 11.3-2.7 26.4-4.9 36-10.9 3.2 10.4 5.3 18.6 6.6 28 1.8 2.1 1.8 5.3 2.9 8.5.8 2.1 2.9 4.4 2.7 6.8-3.8 2.2-7.6 4.6-11.9 6.3-4.9 1.9-13.4 3.4-15.6 8.8 3.5-1.3 6.9-3.1 10.7-4.4 5.1-1.7 9.7-5.1 13.9-5.8.4-.8-.6-.7.2-1.4zm-173.7 47.8c-.4-2.4 1.7-5.1.4-4.3-2.8 1.9-.8 5.3-1 7.3-.4 2.9-2.4 4.7-3.6 7.6-3.8 9.1-5.6 21.5-8.4 33.8-.7 3-1.5 6-2.4 8.9h2.6c.9-3.5 1.9-7.1 2.8-10.6 2.9-10.5 7-21 8.8-30.6.8-4 1.2-9 .8-12.1zm4.2-9.9c-5.8.9-6.2 6.1-8.3 11.4-1.3 3.3-3.4 6.2-4.7 9-5.4 11.4-7.6 26.8-12.9 36.7 0 1.4.6.8.6 2.2-.8 1.3-1.5 2.6-2.2 4h3.2c1.7-4.5 3.4-9.1 4.9-13.8 3.2-10 8.2-19.9 10.3-28.9 1.9-7.7 2.3-18 9.1-20.6zm2.6 4.8c-.2-1.1-1.3 3-2.7 4.2.5 4.3 0 9.9-3.1 13.7-.8 12.9-4.7 26.7-7.7 40.5h3.3c.4-2.6.9-5.1 1.4-7.6 2.2-11.1 5.3-22.1 6.6-32.3.6-4.8-1.1-10.3.4-14.6.6-1.8 3.5-3.7 1.8-3.9zm-82.7-263l-1.8.8c-1.1.5-2.1 1.1-2.9 1.5-.4.2-.7.4-.9.5-.1.1-.2.1-.2.1l.1.3h-2.3v6.8c0 2.5 0 5.1.2 7.6l.1 1.5 1.5.1h.2c1.4 0 5-.6 6.5-1l1.1-.4.1-1.2c.1-1.7.2-3.5.2-5.3 0-3.1-.2-6.3-1.2-9.5l-.7-1.8zm-1.8 15.2c-.8.2-1.8.3-2.7.4-.1-1.9-.1-3.7-.1-5.6v-3.9c.2-.1.3-.2.6-.3.5-.3 1.1-.6 1.8-1 .4 2.1.5 4.2.5 6.5 0 1.3 0 2.6-.1 3.9zm8.8-20.9v-1.9l-1.9.2c-3 .3-5.7 1.1-8.3 1.5l.2-.6c-1-.4-2.1-.6-3.2-.6-2.4 0-4.8.7-7.1 1.7l-1.4.6.5 1.5c.7 1.9.9 3.9.9 6.1 0 4.5-1.1 9.5-1.2 14.5h-.2c-2.3-.1-4.3 1.1-5.2 2.7-.9 1.6-1.1 3.5-1.1 5.3 0 2.3.3 4.7.4 6.6l.1 1.6h1.7c2.2-.1 5.1-1 7-2.2l1.4-.9-.9-1.4c-.2-.2-.3-.5-.4-1 7.7-.6 15.4-1.8 23-2.3v1.2c0 1.1 0 2.2-.2 2.4l-.6 1.7 1.8.5c.9.3 1.9.3 2.9.3 1.1 0 2.1-.1 3.1-.3l1-.2.3-1c.8-3.4 1.1-6.9 1.6-9.9l.3-1.8-1.8-.2c-3.1-.4-6.2-.9-9.7-1v-.2c0-8.2-3-15.4-3-22.9zm10.5 27.4c-.4 2.3-.6 4.7-1 6.9-.4 0-.8.1-1.3.1h-.5v-1.6c0-1.1.1-2.1.2-2.3l1.1-2.5-2.8.1c-9.3.3-18.6 2-27.5 2.5l-2.9.2 1.5 2.5c.2.3.4.9.6 1.8-.7.3-1.5.5-2.3.7-.1-1.5-.3-3.1-.3-4.5 0-1.6.2-2.9.6-3.6.4-.6.7-1 2.2-1 .4 0 .9 0 1.6.2l2.2.4-.1-2.2v-1.1c0-4.7 1.2-10 1.2-15.2 0-1.9-.2-3.8-.6-5.6 1.5-.5 3-.9 4.3-.9h.8v1.3c3.4-.1 6.2-1 9-1.4.5 7.5 3 14.2 3 21 0 .6 0 1.2-.1 1.9l-.1 1.9 1.9-.1h1.1c2.8-.2 5.5.2 8.2.5zm46-106.2c2.3.6 2.7-.3 3.1 2 2.5-1.6 4.4.1 8-1.4-.2 2.7 1 .5 1.3 1.6-2.2 4-2.7 11.9-4.8 15 .1-.2-.4-1.3-.7-1.1.4 3.7-2.7 5.9-2.5 9.5.3 4.4 1.6 7.5 1.2 12 1.7-.8 1.1 1.2 1.4 2.2 12.2-1.1 23.6-4.2 40.4-7.6-.3-7.5-.2-7.6-1.9-12.6-5.5 1.3-7 .1-9.6 2.1-7.2-1.6-9.7.5-16.8 0l-.3-2.9c6.4-6.4 11.3-11.4 15.4-19 1.5 1.4 2.3-2.5 4-1-.3-2.6-.9-6.2.9-3-.3-5.2-1.1-6.9-1.7-10.8-4.6-1.7-11.9.4-13.8.8-1.7.4-3-1.7-4.2-1.9 0 0 .1 1.3-.5 1.2-1.8-.2-5.3-1.3-7.4 1.3-3-1.1-7.6 1.7-12.7.1.5 3.5 1.9 4.8-.4 7 3-.6 1.6 5.2 1.6 6.5zM234.1 172l1.8-.4-.5-1.7c-.3-1.2-.4-2.3-.4-3.4 0-1.6.2-3.2.5-5.1 1.7-.1 3.4-.1 5.1-.1 1.5 0 3.1 0 4.6.1-.2 1.6-.4 3.2-.4 4.8 0 .8 0 1.6.1 2.4l.1 1.3 1.3.3c.8.2 1.6.3 2.5.3.8 0 1.7-.1 2.5-.2l1.3-.3.1-1.3c.5-9.1 2-18.3 2-27.6v-1.6l-1.6-.1h-.3c-1.4 0-4.3.3-5.8.8l-.9.3-.2.9c-1.3 5.6-2 7.7-2.9 8.5-.7.7-2.4 1.2-5.9 2 .3-1.8.5-3.7.5-5.7 0-1.3-.1-2.6-.3-3.8l-.2-1.4-1.4-.1h-1.1c-1.8 0-3.9.2-5.6 1l-2.3 1.1 1.5 1.4c.5 1.9.7 4.2.7 6.6 0 6.8-1.8 14.9-3.7 19.7l-.9 2.4h2.6c1.8-.2 5.2-.7 7.2-1.1zm-2.2-26.6l.8-1.1c.4 0 .9-.1 1.3-.1.1.6.1 1.2.1 1.9 0 2.6-.4 5.3-.9 7.6l-.5 2.7 2.6-.7c5.1-1.4 7.7-1.5 10-3.5 2-1.9 2.5-4.4 3.6-9.1.6-.1 1.4-.2 2.2-.3-.2 7.9-1.3 15.9-1.9 24.1h-.9v-.8c0-2.1.2-4.2.7-6.1l.4-2-2-.1c-2.2-.1-4.5-.2-6.8-.2-2.2 0-4.5.1-6.7.2l-1.4.1-.2 1.4c-.3 2.4-.7 4.6-.7 6.9 0 .8 0 1.6.2 2.5-.8.1-1.6.2-2.5.3 1.7-5.2 3-12.1 3-18.4 0-1.7-.1-3.5-.4-5.3zM127.8 281.9c1.7-1.5 4-2.4 5.9-3.4.1-.1.8-1.3 1.3-1.5.9-.4.6.6 1.2.1.4-.4-.4-1.7.5-1.1.1.6-.7 1.1 0 1.8 2.5-1.3 6.6.3 8.1-3.4-1.4-.6-1.9.9-3.2 1.9-2.6-2.5-5.5-.6-8.3-.4-.3.8-.7 1.5-1 2.3-.5.1-.8-1.1-1.4-.3-3.1 2.5-6.6 2.1-7.7 6.1 1.9 1 3.2-.8 4.6-2.1zm11-132.3c-1.6-.1-3.2.7-4.3 2-1.2.9-2.2 2.1-2.9 3.4-1.6 2.8-2.3 6.3-2.3 9.8 0 3.7.8 7.4 2.3 10.3 1.5 2.9 4 5.2 7.4 5.3 2.9 0 5.9-1.7 9-5.1 3.1-3.4 4.4-7 4.4-10.4 0-4.3-2-8.1-4.6-10.8-2.7-2.7-5.9-4.4-9-4.5zm6.6 23.3c-2.8 3-5 4-6.4 4-1.6 0-3.1-1.1-4.4-3.4-.3-.5-.5-1-.7-1.6l1 .2c.6.1 1.2.2 1.8.2 4.8 0 7.4-4.3 7.4-7.9 0-1.6-.4-3.2-1.5-4.4-1.1-1.3-2.8-2.1-4.7-2.1-.7 0-1.4.1-2.1.3l-1 .2-.2 1c-.2.9-.8 2.1-1.1 3.5l.6.1c-.5 1.5-.6 3.1-.6 4.6 0 1 .1 2 .2 2.9v.3c-.6-1.9-.9-4-.9-6.1 0-3 .6-6 1.9-8.1.5-.9 1.1-1.6 1.8-2.1l.5.1c.1-.2.2-.5.2-.6.8-.4 1.6-.7 2.7-.8v-.1c1.6.3 3.8 1.5 5.5 3.3 2.1 2.2 3.7 5.2 3.7 8.4-.2 2.6-1.1 5.3-3.7 8.1zm-8.5-5.2c0-2.9.7-5.2 2.1-6.2 1.2.4 1.6 1.4 1.7 2.9 0 2.2-1.4 4.3-3.8 4.4v-1.1zM154 276.2c2.4.8 4.7 3.2 7.1 4.6-2-2.3-6.1-5.8-7.1-4.6zm22 22.5c1.3 5.6 1.9 11.3.6 15.2.5-4.7-.2-12.1-2.7-16.4-.3-.6-.9-1.1-1-1.7 0 .2.6.3.6.3-2.6-5.3-6.8-10.6-11.8-14.2 2.3 2.5 4.5 4.9 6.3 6.8-1.4 1.9 3.5 4.6 3.3 5.7-.4.3-.6-.5-1-.3.7 1.7 1.7 4.4-.5 5.1-.6-1 .1-.3-.3-1.2-1.1-1.1-1.9.2-3.4-.1 1.7 4.1 4.1 9.3 3 12.4-.9-.9-1.2-1.4-2.4-1.6.6-.5 1.4-.9.9-1.5-1.3.9-.9 1.9-1.7 2.8-1.9.4-2.5-.9-5-.3.4 3.4 3.8 7 1.9 10.1-2.2-.2-4.3-.5-6.5-.4.9 1.6.6 3.1 1 4.7-.9-1-.3.8-.5 1.1-.4-.3-.1-1.4-.9-1.1.7.6-1.3 1.3.3 1.2-1.7.2-.6 1.8-2 2 1.2.6-.3 1.9-.9 2.9.2 1.1 1.6.5 1.3 1.1-2 .1-4.3-3.2-6.9-3.4.1 2.3 2.6 4.9.3 7-2.5.3-4.6-1.8-7.3-3.1-1.8 3.9 3.9 7.1-.9 9.9-2.3-1.2-4.6-2.1-6.8-4.2-.6 3.1-.2 5.2-.4 8.3-1.4.7-1.9-.4-2.7.8-.2-.3 0-.5-.3-.8-2.9.7-5.8.6-8.4-2.2-1.2.9-.2 1.6 0 2.2-1 1-.2.7-.9 1.5 2.3 1-1.1 4.3-2.7 2.9-1.5 3.1-3.6.1-5.4.5-1.6-2.9-4-3.5-3.6-6.1-.2 1.1 2.3-2.2 1.7-3.6 1.3 0 1.1-.5 1.3-1.5 1.5-.1 2.9-.3 4.5-1.2.4-.3.3-.7-.2-.2-1.2.6-2.3.9-3.4.7.1-1.1 3.4-.9 2.7-1.5-1.1.6-2.2.5-3.1-.7-1.3.8-2.6.6-3.9 1 .7 1.4-1 3.6.6 3.8-1.3 0-.7.4-1.5 1.3.3.7.8.1 1.1.5-.5 1.3-1.7 4-3.7 3.4-1.3-.7-.5-.8-1-2.1-.6.4-1.1.3-1.7 1 .3.9.8.2 1.1.5-.5 1.2-.9 2.4-.9 3.7.9-.8.7-.8 1-1.9.5 1.9-.3 2.7.8 4.5 2.5-.9 2.5 3.8 5.6 4.1-.5.4-.5.7-.1 1.2 1.2-.7 2.2-.2 2.3 1 1.6-.3 4.3-.5 5.1.9.4.3 1-.9 1.4-.5-.5.1-.6 1.2-.1.8.4-.9 2.3-.4 3.3-.9-2.7 1.7-6.3 1.9-8.2 2.4 13.3-.9 30.6-8.4 44.7-18.6 17.5-12.1 25.6-27.8 18-44zm-32.7 39.6c-.9.2-.5-1.1.3-1.4 1.1.6-.8.9-.3 1.4zm-24.4 76.5c.8-3.5-4.9-5-3.6-8 1.7-1.6 3.9-.2 5.6-2-.5 2.5 1.3 5.1 2.3 8.1 1.6-3.8-.4-7.1-2.3-10.4 8-2.2 17.2-7 23.6-8.4-.1-.1-.1-.4.2-.7 9.5-1.1 26.6-12.2 35.8-25.2-13.2 10.1-32 23.2-43.9 25.3-.8.1-.1 1.5-1.7 1.5-.6-.6.7-.4.2-1-1.9.9-4 1.2-5.9 2.4-.7.6 3.6-1.5 5-1.3-2.6 2.4-7.6 1-6.8 2.8-.6-.2-2.3-1.4-2.3 0 .4-.3.8-.3 1.3-.2-3.4 1.7-1.3-.3-4.8.3 14.9-20.9 30.4-37.1 46.8-46.1-11.2 2.8-27.7 18.6-40.3 33.3-2.9 3.3-5.4 7.4-8.5 9.5-2.1 1.4-4.7 1-6.1 2.7-4.4 5.1.4 13.6 5.4 17.4zm25.9-20.8c-.1 0-.2.1-.3.1.1.1.2.1.3-.1zm38.7 28.9c-.6-1.2-2.6-1-2.2-1.7 7.1-5.3 12.4-9.6 19.3-16.7 1.3.6 1 1.4 1.9 2 1.7-1.2-2.1-1.7-1.3-2.7 2.3-.8 2.8-3.6 4.6-4.5 2.2 3.1.5 1.1.8-1.1.5.4 1 3 1.8 1.4-.5-.4-1-.7-1.4-1.1 1-2.9 3.2-2.4 3.3-4.9.3 1.8 2.6.9 2.2-.6-.4.4-.7 1.1-1.2.8 1.5-1.8 7.1-10.4 3.2-5.6-18.6 22.5-38.8 38.5-59.6 47 2.9-5 8.2-9.7 10.6-15.9.5.3.9.6 1.3-.2-.1-1.4.6-1.5 1.9-3.2 11.9-15.4 29-26.5 40.9-35.6-2.5 1.2-4.9 3.8-7.5 4.5 1-1 3.6-2 3.5-3-5.7 2.6-11.3 6.3-16.9 9.9 4.3-4.2 10.4-10.6 12.6-16.2-.6.6-1 2.1-1.8.9.4-.4 2.2-1.5.8-1.1-19.9 19-42.4 37.2-64.4 48-.3-1.4-.5-.2-1.4-.5 6.4-6.2 10.7-10.9 14-17.3-4.3 4.2-6.5 7.7-10.2 11.7-5.6 6-12.5 4.9-13.2 11.1-3.7-1.7-8 5.9-9.3 8.3 3.9-1.8 6.9-10.4 11.5-6.6 2 6.2-7.2 6-9.2 9.6.5-.4 2.8.6 2.2-.6-.3.4-1 0-.7-.6 7.5-.3 14.3-7.1 17.4-11.3 6.2-2.6 12.1-6.8 18-11.3-.9-1.3 1.5-2.1 2.5-3.2.9 1.1 1.5.2 2.4 1.3 1.3-1.3 2.9-1.2 4.2-3.1.7-1.1-1.6-3.5-.1-3.6.6 1.2 2.3-.5 1.6-1.2 1.3.5 1.3-.7.7-1 3 0 5.1-5.8 10.6-6.2-.5-.6-1.3-.2-1.1-.8 3-2.4 5.6-4.6 8.2-5.8 0-.1.1-.3.1-.4v.4c.4-.2.9-.4 1.3-.5-.2.7-.2 1.3-.4 2-.4-1-.9-.6-.9-1.5h-.1c-1.4 6.9-12 10.4-16.1 15.2-.4-.3-.2-.6-.4-.9-.7.6-.1 1.1-.1 1.6-1.2-.6-.7.5-2.3 0 1.9.6-1.4 1.9-.3 2.6 5.3-3.7 10.4-8.4 15.8-11.4-5.7 5.6-12.9 11.9-17.4 19.4-1.5 1.6 0 1.4.6-.1 1.3-.3 2.2-3.1 3.6-2.4-7.3 10.6-20 18.3-24.8 27.4 1.9 1.2 3.3-1.5 5-1.3.1 1.2-1.6 2.6-2.4 3.9.7.6 1.4 1.1 2.2 1.7 10.7-10 20.6-16.2 32.4-26.1 1.3 1.1 2.7 2.4 3.7 1.1zm-24.8-11.1c.9-.7 3.4-1.7 3.1-3.3 1.1-.8-.1 1.3 1.2 1.5-1.3 1.4-2.5 3.4-4.3 1.8zm29.8-23.6c.1.4.3.8.8 1.2-.1-.8.3-1 .9-.4-.2.9-2 .4-1.1 1.4-1 .7-1.3-1.5-.6-2.2zm-40.9-111.8c1.4-.3 3.9-.1 4.6-.6-1.3-.9-3.7-1.7-4.6.6zm-29 9.9c-.8 1.6-3.8 1.5-3.1 3.7.2-.1.4-.3.6-.1-1 1.8.2.4.6 2.4.6.1 1.2 0 1.8.4-.2.2-.4.4-.6.5.5.6 1.2.1 1.8.4-.5.8-.8.1-1.2.3.4.3.8 1.5 1.3 1.1.2-1.2 2.3-.5 2.3.6.4-.5.8-.6 1.2-.3 2.5 1.9 5.8 1.9 8.9 2.4.4.3.1.8.5.7-.2-.7 1.1-.6 1.4-.1.7-.5.3-1 .9-1.5.3.4-.4 1.8.6 1.7-.3-.3 1.1-.9 1.4-.5-.1.2-.7 1.3.1 1 .5-1.5 2.4-.4 3.4-.3-.8-1 1.1-.5 1.4-.5.2 1.5 1.6.8 1.8 2.2 2.3-1.9 4.4.3 3.4 2.3-.1.2-1.7.4-1.5 1.3.6 1 1.4-.2 1.9.6-.5 2-2 4.2.1 5.4.7-.3.1-.8.5-1.1 1.5.1 2.6 2.1.3 3-.3-.5-.7-.8-1.1-.5.6.6-1.1 0-.5.7.4-.1.8-.1 1.2.1-1.8 1.9-2.9 2.3-3.1 5.1-.5.3-.9 0-1.4.1.9.4 2.7.8 2.6-.4.8.5.4.5 1.1 1.3 1.1-.4 2.1 0 3.2.3-1.3-.2-2.2.1-3 .7 1.5-1.4-1.6-.4-.8-1.9-.6.7 0 1.6-.2 2.4-.6.1-1.2.3-1.8 0 .4.4.1.7.5 1 .4.3 1-.9 1.4-.5.2.5-.1 1.1-.5 1.5 0-.7-.2-.3-.7-.9-.1 1.5-1.6 3.9-3.1 3.7 0-.7 1-1.2.6-1.9-.4.7-1.4 1.3-1.2 2.1-.3-1.1-.4-.4-1.1-.5 1.3-.7 3-2.8 3-4.7-1.5.8-.8 2.8-2.3 3-.3-.5 0-.9-.1-1.4-.3.4-.8.9-.7 1.3.4-.4.5.7.3.8-.7-.1-.4.6-1.3 1.1-.3-.4-.6-.4-1-.3.1.5-.4 1-.5 1.5-.7-.2-.4-.7-1.3-1.1-.6.7-.2 1.4 0 2.2 1.5-.1 2.5-2.1 3.1-.7-.1-.9.5-1.8 1.5-1.3-.7 1.6-2.1 1.3-3.1 2.9.3-.7-1.1-.8-.8-.1 1.1-.3-.8.7-.3 1 1.2-.2 2.2-.3 3.5-1.1 2.6-1.5 3.1-2.7 5.7-1.9 1.1-3.1 4.5-7 8-9.2 2.2-6.9 7.6-13.5 7.7-20.6.3-.3.9-.6.7-.9-1-1.8.2-5-1.1-7.5-.2.1-.4.4-.6.1-1.8-3.3-4.5-6-8.1-7.5-1 2.1-.7 4.3-3.6 6.2-1.4.1-3.5-1.6-3.1-3.3-2.1 2.9-4.8 2.7-6.8.2-1.1 1.5-2.8 2.8-3.7 3.8-.3-.3-.3-.6-.3-.8-1.3 1.2-3.6-.4-5.1-2.7-1.9 2.3-5.1 4.6-7.1 1.9-.7 1.1-.9 3.2-2.5 3.6 1.4-1.8-2.2-2.3-2-2.5zM98.2 140.1c0-.7-.3-1.6.4-1.8.2.4.1 1.1.7 1.1 7.8-5.3 14.2-7 16.1-17.9 2.2.1.4-6.4 2.9-6.1-.1-8 .4-9.5-.7-18.5.6-.1.7.4 1.2.5-.9-11.3-1.9-27.4-1.9-41.5-1.5 0 .3-3.4-1.1-5.1 3.2-.2 5.8-.9 7.9-2 .2.9.1 2 1.3 1.6 1.2-2.8-.9-15.2-1.4-19-5.7-.7-14-.6-20.6 2.7-5.8-1.9-9.7 1-17.3.6-.4 1.4-2.2 4.7-3.5 5 .7 3.6.3 6.2-.9 8.2 5.5 1.4 10.8-.9 16.8 0 .2 11.5 4.8 27.1 3.4 39.1-.3 2.4 1.7 7.3 1.1 10.3-.1.3-.1.4-.1.5.1-.1.2-.3.2.6.2 2.1-3 4.9-.9 7.6-.2.1-1.2-.5-1.2-.5-1 5.4-.8 11.3-5.5 14.5-8.9.4-14.2-10.6-12.8-17.8.1-.6 1.3.1 1-1.3-2.4-13.5-9.5.2-17.6-1.7-.8 4.2-4.5 3.6-6.2 7.6l.1 1.1c2.7.1 1.9 5.9 4 4.8.7 1.8-.3 2.2-.9 3 4.2 1.8 3.3 9.7 7.6 11.4-1.4 1.1.3 2.3 1.6 3.9 2.9 3.7 11.1 8.7 15.5 9.4 2.8-1.1 4.7 1.3 10.8-.3zm-59.7 131c3.8-1.1 8.8-2.1 11.2-2.6 1.4.4 4.5 2.4 4.4.9 10.8 6.2 35.3 2.5 34.3-11.8-2.6 10.1-12.7 13.1-26.3 13-6.4-3.1-11.9-6.5-20.3-4.8 1-1-.6-.3-.8-1.1-1 .4-2.2.5-3.6.5-15.1-3.3-32.6.3-48.5 3.1.1 4.1.3 8.3.4 12.4 16.7-1.2 35.2-2.7 49.2-9.6zm406.1 55.3c.4-2.4-1.6-3.9-2.9-5.8-4.4-.9-6 3.7-8.8 5.6-2.4 1.7-6 2.1-6.8 5.4 2.6-.7 4.5-2.1 7.3-2.7 2.1 6.5 10.5 2.2 11.2-2.5zm-6.3-1.3c1 0 2.6 1.6 2.7 3.4-1.6 0-2.1-1.1-3.2-1.7-.1-.7 1.4-1 .5-1.7zM196.4 80.8c-2 6.8-4.4 13.3-7.9 18.8 0 1.3.3 2.2.9 2.8l-1.7.2c1.2 4.3 2.1 10 4.3 14 3.3.1 5.8-3 8.6-.9-.2-2.7.8 1.2 2.9-.3 0-.7-.3-1.6.4-1.8.4 2.8 4.7-.6 5.3.6 0-.7-.3-1.6.4-1.8.8 1.7 1 .6 1.7-.2 1.3 2.4 6.9-2.2 9.9.1.1-.5-.1-1.1.5-1.2.4 2.1 2.4-.4 3.6.8-.5-1.5 0-2.1 1.5-1.9-3.2-5.6 1.8-13.3-3.9-15.8-.3 5.2-10.1 2.5-12.3 4.7-.4-1.9-1.2 1.1-2.5-1.5.1 1.7-2.7 1.2-4 .4 0-.9-.4-2.1.3-2.4-.1.2.5 1.4.7 1.1 3.9-5.6 5.7-14.9 12.6-18.1 1.4-4.4-.7-10.5-.2-13.3-3.5-.5-6.8-.4-11.5 1.2l-.2-1.7c-3.7 1.6-5.2-.7-7.4 1.3-2.5-1.7-7.1 1-9.2.9.2 0-1.1-1.5-1.3-1.6-.9-.2-2 1-2.8.9-1.3-.2-2.9-3-5.2 0 .5 6.9.8 10.5 3.3 15.3 7.1 0 7.7-1 13.2-.6zm-81.9 81.7l-.8-.4c-1.8-.9-3.9-1.4-6.1-1.4-1 0-2 .1-3 .4l-1.2.3-.1 1.2c-.1 1.1-.4 2.8-.4 4.4 0 .8.1 1.6.3 2.4l2-.5-.4.6c1.2.8 2.6 1.3 4 1.3 1.5 0 3-.6 4.1-1.7 1.1-1.1 1.7-2.7 1.7-4.5 0-.4 0-.7-.1-1.1v-1zm-5.6 4.7c-.6 0-1.3-.2-2.1-.7l-.4.5v-.1c0-.9.1-1.9.2-2.8.3 0 .6-.1 1-.1 1.2 0 2.5.2 3.6.6-.1 2-1 2.5-2.3 2.6zm16.8 1.9c.1-.4.1-.8.1-1.2 0-4-2.7-6.9-5.7-8.9s-6.6-3.2-9.4-3.6c-1.5-.2-2.8-.3-4-.3-3.4 0-6.1.9-7.6 3.2-1.5 2.2-1.8 5-2.1 8.7-.2 3.8-1.1 9.3-1.1 14.4 0 2.9.3 5.7 1.2 8l3.2-1.3c-.1-.2-.2-.4-.2-.6 2.2-.3 5.6-.7 7.6-.7h1.6v-1.6c.1-2.6.1-5.3.2-8h2c2.7 0 5.8-.1 8.5-1.1 2.7-1.1 5.2-3.4 5.7-7zm-3.5-.4c-.4 2.3-1.5 3.3-3.4 4.1-1.9.7-4.7.9-7.3.9h-3.7l-1.6.1v1.6c-.1 2.6-.2 5.4-.2 8.1-2.1.2-4.7.5-6.5.7-.1-.8-.1-1.7-.1-2.7 0-4.7.8-10.2 1.1-14.2.2-3.5.7-5.8 1.5-6.9.8-1.1 1.8-1.7 4.8-1.7 1 0 2.2.1 3.6.3 2.2.3 5.4 1.4 7.9 3 2.5 1.7 4.2 3.8 4.1 6.1-.1 0-.1.3-.2.6zM88.1 344.1c.5-.6 1.3-.9 1-2.2-3.8-2.2-3.6-7.9-7.6-9.2-5.6-1.8-24.4 8.3-28.8 2.4-1.1.3-3.2-.4-3.6.5.8.2 2.4-.5 2.6.3-11.7-.1-20.4-3.4-30.5-5.2-.5 1.4 2.3 1.2 1.5 1.8-1.7.9-1.9-2.6-3.4-3.2-10.1-.9-20.4-1.4-28.2-2 .2 4.5.3 9 .5 13.5 9.5-.7 18.1 1.8 26.7.9 3.7-.4 8.6-.3 12.4-1.1 1.1-.2 1.8-1.1 2.9-1.2 10.1-1.2 20.7.6 31.1-.7 5.6-.7 10.6-3.5 16.3-3.8 3.3 2 3.6 7.3 7.1 9.2zm-64.7-11.4c2.2-1.4 6.9.9 9.9 1.1-2.9.6-8.1-.3-9.9-1.1zm-18-25c11.6.3 27.4-.3 36.9-2 .8 2.8 2.5 4.6 3.9 6.8-1.3-.4-2.1-3.3-3-2.8 3 4.9 6.6 5.9 11.3 9.9 18 4.3 32.5-8.3 30.6-24.1-.7-5.4-4-12.1-8.9-15.4-10.1-6.9-27.1-2.6-32.7 6.9-.3 2-.2 1.6-1.4 2.6-.8 2.6-1.1 7.3-1.4 12.1-.1-.6 0-1.3-.8-1.1-9.7 2.5-23.2 1.4-34.7 2.3-3-1.3-10.6-2.7-14.3-1.7 1.7-.3-.2 1.3 1.3 1.7.1 0 .3 0 .6.1-.3 0-.5 0-.6-.1-.6.1-.2 1.1-.8 1.2-.3-1.8-.4-2.2-1.2-2.9.3 3.3-.2 7.5.7 10.2 4.8-1.1 11.9-.3 14.5-3.7zm139 139.6c-2.9 3.1-5.8 5.2-8.9 6.3.5-3.2 5.5-6 6.1-8.6-1.3 1.6-1.2-.2-2.3 0-2.1 3.4-5 6.9-4.9 10 4.2-1.1 6.4-1.7 10.2-4.2-1.1-1 .1-2.4-.2-3.5zm5.9-43.3c2.5-3.4 6-5.1 7-9-2.8 3-3.3 4.8-5.5 5.5-1.7-.4.7-1.4-.2-1.9-2.2 3.4-5.9 5.1-6.7 8.6 2.8-3 3.7-5.9 7-6.1-.4 1.1-2.3 2.2-1.6 2.9zm8.8-9.8c2-1.1 3.7-3.3 5.8-5.3 3.1-2.9 8.1-5.3 7.4-8.1-.9 1.5-3 2.1-.8 1.7-4.7 2.9-9.1 7-12.4 11.7zm27.9 46.4c10.9-11.5 23.4-27 32.9-40.1-1-.9-3-3.4-4.4-4-11.7 9.3-25.7 30.1-36 41.2-1 11.5-17.4 21.2-23.4 33.1 9.8-4.6 13.8-19.9 23.6-26.6 2.2-1.6 5.3-1.5 7.3-3.6z"/></g></svg>