<svg xmlns="http://www.w3.org/2000/svg" viewBox="0 0 566.9 467.7"><style>.st0{fill-rule:evenodd;clip-rule:evenodd;fill:#ed7d00}</style><g id="Layer_1"><path class="st0" d="M49.8 101.6c-.1-.9-.6-1.6-1.4-1.8.2-.2.1-.6.4-.6-3-3.3-.2-10.9 1.6-14.7 0-.5-.4.3-.8 0 .7-5.9 4.5-8.8 7.8-12 .9.2 2.2-.4 2.7-1.2 5.1-.6 7.5-1.2 11.2.6.1 1.1.7 1.7 1.4 2.2.2 2.4 1.3 6 .8 9.4-1.3 9.2-9.7 16.2-16.5 19.4-1.6-.2-3-.2-4.5-.2-.4-.1-.4-.3-.2-.6-1.1.5-1.3-1.1-2.5-.5zm5.9-7.6c.9 1.9 3.4 2.6 5.5 2.4 4.3-.3 7.1-4.4 7.1-8.2-.2 0-.5-.1-.4-.4 1.1-.3-.6-1.9.4-2.2-.3-.2-.3-.7-.6-.8.4-3.5-1.5-6.3-3.7-6.7v-.6c-1.9-.2-4.1-1-5.3-.2-1.2-.2-2.5.1-2.9.8-2 3.4-3.8 10.5-2.7 13.9.8.5 1.1 1.5 1.6 2.2.6.1.7-.2 1-.2zm199-5.3c-.3 2.7-3.7 6.9-6.3 5.9-2.2.2-6.4.5-9.2 1.2.1-2.3 2.5-4 3.9-5.7.1-2.8-.3-5-.2-7.6-.3-.3-1 .7-1.6.8-3.7-.7-9.2 0-13.7.4.7 1.7-.4 4.2.4 6.1.1.2.3.2.6.2 0 .4-.6.3-.4.8 0 .2.2.2.2.4 1.8-.5 3.9.3 6.1-.4-.7.1 0 .6 0 .8-.4 2-3.9 5.8-5.7 6.1-.2 0-1-.4-1.4-.4-.7.1-2 .3-2 .2-2.4-.2-6 .1-7.8.8 1-2.7 3.1-4.7 4.5-6.5.1-.1.2.3.2.4.6-1.5.3-6.7.4-8.6.1-2-.5-4 0-5.9-.5-1.7-.7-4.9.6-6.3-2.1 0-3.2.8-4.9.6 1.4-3.5 4.2-6.3 7.3-6.9 2.3.2 5.7-1.4 8 .8-1.5 2.6-3 5.1-5.7 6.5.2 1.9-.5 4 0 5.9.6-.5.8-.3 1.6-.6 1.5.5 4.3-1.1 5.7-.4 2.6-.8 4.9-1 6.9-.6.6-1.5-.5-4.2.4-5.7-.4-.1-1.9-.5-2.2.2-1.2-1-2.6-.2-3.9-.8 1-2.9 2.9-5 5.3-6.5 2 .4 2.9.7 4.1.4 1.2.8 2.4-.1 3.5 0 .3 0 .5.6.8.6.2 0 .4-.6.6-.6.4.1.5.7.8.8.7.2 1.9-1 2 .4.3-.7 1.1-.4 1 .4.4-.7 1.5.3 1.6.8.4 2.1-4.1 5.1-5.1 6.5-.5.1-.7-1.4-.8-.4-.6-1.3-2-.8-2.2-1.4 0 5.9.2 11.1.4 16.7.2 0 .4 0 .4.2 2.5 0 4.5-.1 5.8.4zM83.5 111.6c3.5.1 6.8.7 10.4.2-1.5 3.6-3.6 6.6-6.5 6.7-.6 0-1.1-.4-1.8-.4-.8-.1-1.5.4-2.2.2-.5-.1-1.3-.5-2-.4-.4 0-.4.6-.6.6-.2 0-.5-.4-.6-.4-1.1-.1-2.2.8-3.3.8-.6 0-1.7-.9-2 0-.1-.8-1.5-.4-2.7-.2.6-2.8 3.4-6.9 6.5-6.5 0-1.3-.5-3.5 0-5.1-.8 0-.1-1.7 0-3.3 0-.6-.1-.8 0-1.8.2-2.5.3-7.5.6-9.4-.1-.2-1-.6-1-.2.2-1.7 1.8-4.3.8-6.3.2 0 .2.2.4.2-.3-2.4.4-4.8-.2-6.7.2 0 .2.2.4.2.2-2.7-.2-5.5.4-7.8-2-.8-4.2-.5-5.7-.8.3-1.8 4.4-8.2 6.5-6.1.4 0 .7-.1.8-.4.5-.1.2.6.6.6 3.8-.4 6.8-.1 9.8.2.2 0 2.3-.6 3.1.4.7-.7.4.1 1.2.4.4.2 1.1-.2 1.6 0 .4.2.8 1 1.2 1.2.6.3 1.5 0 2 .2.1 0 .2.7.4.8.8.5 2.5.7 2.7 1.8.3-.5.6.4.8-.2 1 .8 1.3 2.4 2.2 3.3 0 .2-.3.2-.4.2 2 5.4-4.4 11.9-9.4 14.7-2 1.1-5.6 3.1-8.2 2.9-1 .9-3.1.9-4.7.8-1.3 2.7-1 5.6-.6 9 0 .2-.2.1-.2 0-.5 3.4 1.1 7.4-.3 10.6zm1.2-25.5c.2-.3.7-.3.8-.6 5.9 1 10.5-.5 16.3-3.1.9-1.5-.5-2.3-.6-3.9-.3 0-.5.1-.6.2-.4-1.1-.7-1.7-1.6-1.6 0-1.1-.7-.8-1-.8 0-.2 0-.6-.2-.6-.8.3-2.4-2.2-4.1-1.6.1-.7-.8-1.1-1.2-.6.2-.6-.4-.4-.4-.8-2.4-.4-4.4-.9-6.9-1.2-.4 4.2-.9 11.4-.5 14.6z"/><path class="st0" d="M270 67.5c.2-.5.2.4 0 .2.6.5 2.8-.1 2.7.6 2.6.1 3 1.2 5.1.6 0 .9.7 1.2 0 1.8 0 .2.4.2.6.2.1 3 .4 4.2 1 5.9-1.1 2.8-2.6 5.3-5.5 6.3-.2-1.8-1.1-4.6-1.2-6.9-.3-.6-.4.6-1 .4-.5-.6-1.2-1.1-1.8-1.6-.6 3.5-.4 7.8-.2 11.6.1 1.3 0 6.7 2.4 5.1 2.4.4 4.6-.6 6.5.4-1.2 2.6-3 4.6-5.1 6.3-2.4-.6-5.7-.7-7.8 1.2-1.4-1.7-3.5 0-5.5-.4.6-3 2.9-4.2 4.3-6.3-.1-5.6-1.5-13.2.2-19-.8-.2-.6.5-1.2.4-.1-.3.2-.3.2-.6-.8.3-1.6.2-2 0-1.4 2.4-2.4 5.3-5.5 5.9-1.1-5.9 2.1-10.4 6.3-13.1 1.1.8 2-.1 2.7.8.6.2.4-.6 1-.4 1.3 1 2.1.6 3.8.6zm-86.9 0c0-.5.6.1.4.4 1.8-.5 4.8-.1 6.5-.2-.5 4.4-4.6 7.7-9 6.3.4 3 1.4 6.4 2.7 9.8.5 1.5.6 7.8 1.6 8.8 2.1-.6 4.8.5 7.6-.2-1.4 4.8-5.9 6.3-8.8 9-1.4 1.3-2.1 3.1-4.1 3.9.8-2.6 2.8-4 4.1-6.1-2.2-.1-5.4-.6-8.4-.2-3.3-.7-6.6-.7-10.4-.4 2.2 4.3-1.4 7.3-3.9 9.4-2-1.5-1.1-4.9-2-7.3.4-.3.5-.9.8-1.2-.1-.4-.4-.5-.6-.8 1.3-2.9 3.1-5.2 5.7-6.7-.4.6.5.2.8.8.4 0 .4-.3.8-.2 3-5.6 5.7-11.6 8.4-17.6-1.2 0-2.9-.7-4.1-.2-.3 0-.3-1.2-.6-.4.4-2.7 3.1-4.9 5.1-6.7 2.4 1 5.9.5 7.4-.2zm-8.8 24.1c.2 0 .3.6.6.6.2 0 1.7-.7 1 0 1-.4 1.3-.3 2.2 0 .8-1.5-1-2.3-.2-3.7-.5-.2-.7-.8-1-1.2.3-.1.4-.3.4-.6-1.4-1.8-.7-4.4-2-6.1-1.6 3.7-3.8 7.2-4.3 11.4 1.2.4 2.2-.4 3.3-.4zm-51.8-22.7c.2 0 .1.2 0 .2.6.7 2.1-.8 2.4.2.5-.9 2.1.4 2.2-.8 4.3.6 6.6.8 11.4 0-1.7 5.8-1.9 13.3-7.3 14.9.6-2.7.7-4.9 1.4-7.1.2-.6-.6-.4-.4-1-2 .5-4.3-.1-5.9.2-1 6.2-.1 11.4-.8 18.4 2.5.5 5.9 0 8-.2.1 3.2-2.7 5-4.7 6.7-1.6-.2-3-.6-4.3.4-1.8-.4-3.9-.8-5.7-.4-2.2-.2-4.2-1.2-6.7-.2 1.3-3.2 4.4-7.5 7.8-6.5 1.4-2.4.5-6.4.6-9.2.1-3.2.6-6.2 1-8.8-1.5-1-3.5 1-4.3-.4-.3.7-.3.5-1.2.4-1.3 2.5-2.4 5-5.3 5.9-1-4.9.1-11.4 4.7-14.1 1.4 2.6 4.3 1.7 7.1 1.4zm92 .9c.2 1.3.9 2.4 1.6 2.7.4 1 .3 2.8 1.2 2.7-.3 2 .1 3.7.2 5.7-1.2 4.6-6.3 11.5-10.8 13.7-1.2.6-4 1.1-5.9.6-.1 0 0-.6 0-.6-.7.9-1.7-.6-2.2-.6 1.1.2-1.5-1.4-.8-2-.3 0-.6 0-.6.2-.4-.9-.4-2.8-1.6-3.5-.9-3 .8-5.5 1.8-8.2.4-.9.3-2 .6-2.9 1.2-2.8 4.7-7.2 7.5-8.6 2-1 4.3-.9 6.5-.6 1.4.7 1.2 1.6 2.5 1.4zm-14 10.6c.7.1.3 1.2.2 1.6.4 0 .7.1.8.4.6 1.9 2.2 4.7 3.9 5.5.2.1.5-.2.6-.2.5.3.4 1.3 1 .4.8 1.4 3.3 0 4.1.2.3-.6.9-1 1.2-1.6-.5-3.5 0-6.5-2.7-8.6 0-.3.3-.3.2-.6-.8-.5-2.4-1.1-2.4-2.2-4.3-2.4-6.4 1.5-6.9 5.1zm-48.8-8c1.2.8 3.3.1 5.3.8.1 0 0 1.2.4.2.7.9 2.1 2.1 1.8 3.3h.8c-.5 1.3.7 3.1.8 4.3.6 7.3-5.3 11.6-9.8 15.9-2.1.4-3.9.5-6.5.2-3.8-3.1-4.6-8.4-2.6-14.1-.2-.6-.3.5-.8.2 2.4-4.3 5.4-9.1 10.4-10.2-.1-.3.2-.3.2-.6zm3.4 13.7c0 .1 0 .2.2.2-1.1-4.4-4.4-7.8-8.8-7.1-.8 3.7-.3 9.8 3.3 10.6v.6c1.8.4 3 .6 5.1.4.5-1.5.6-3.9.2-4.7zm-87.7 218c.1.8-.2 1.2-1 1-.1-.7.2-1.1 1-1zm8.5 42.1c1.7.2 1.4 0 3.1.3-.4.3-3 .6-3.1-.3z"/><path class="st0" d="M-3.3 247.1c.3-.6.3-.6 1.3-1 2.4-1 10.3-4.4 13.4-3.9 1.4.2 2.7 2.6 4.1 2.6.9 0 2.1-1.4 3.1-1.8 3.1-1.1 7.7 0 11.1.3 3.1.3 6.1 1.3 9 1.8.8 2.5 3.2 4.6 6.4 3.1 3.9 3.2 8.6 6.1 10.6 11.1.5 1.2.3 2.4 1 3.4 1.6 2.1 4.9 2.1 7.2 3.4 5.1 3.3 4.9 8.7 5.4 14.2.2 1.9 3.9 3.6 5.2 5.2 1 1.3 2.8 3.8 3.1 6.2.3 2.7-1.2 5.2-1 7 .2 1.8 2.5 2.6 2.3 3.6.5-1.2 1.2.2 2.1 0 1.2 2.6 2.2 5.4 3.1 8.3-1.3 1.7-1.9 5.3-.8 6.7.7.9 2.1.8 2.8 1.5 2 1.9 2.6 10.1.5 12.6.3.6 1-.5 1.3.3-.5 2.7 0 7.3-.3 10.1-1.6 2.2-4.9 4.1-7 4.9-.7-1.1 1.4-1.3 1.5-2.3-.3-4.3 1.6-5.8 2.6-9.5.5-1.9.3-3.7 1.3-4.4-.7-2.9.3-7.8-3.4-8.8-1-.3-1.6.3-2.6.3-.6 0-1-.7-1.5-.8-1.3-.2-3 .7-4.1-.5.7-.8 1.4-1.5 2.8-1.5.8-3.7 4.8-7.2 4.1-12.4-1.4-2.7-4.4-3.6-5.7-5.4-1.5.3-4.3-1.3-7-.3-1.7 2.2-5.1 3-6.2 5.2.1-.5 1.5-1.1 1.8-.5-1.3.5-2.1 1.5-2.8 2.6-.2 4 1.9 5.7 2.8 8.5.8-.4 3.7 2.8 5.4 1 .3.8.1.7-.3 1.3 1.8-1 3.5.4 5.4-.3-3 1.2-5.9 3.9-8.5 4.6.8-.8.5-2.2-.3-2.8-2.1-.2-4.2.6-6.5.5-1.2 2 .2 4.6 0 7.2 2.7-.8 4.3-5.2 7.5-3.1-.1 1-.9-.3-.8.8.6 1.9-1 4-1 5.9-.1 2.8.7 4 1.5 4.9.5.5 1.1 1 1.3 1.3-.9 1.4-1.9-.5-1.3 1.5-.8.1-2-1.8-2.1-.8-.2.6 1.1 2 1.3 3.1 1.7-.4 1.4-2.9 2.6-3.9 1.1 1.3 2.3 0 4.1.8-1.1-.1-1.7.2-2.3.5-.3.7 1.4.6.5 1-1 .9-1.9.4-3.4.8-.6.8-1 1.9-1.3 3.1 1.6 1.5 2.4 1.7 3.6 2.6H59.5c-2.2-2.3-1.6-5.8-4.1-7.5-.7-3.3 1.2-4 1.8-5.9.2-.7-.1-2.1.3-3.1.2-.8.7-1.2.8-1.8.2-2-.9-5.2-1-7.5-.1-1.5-2.1-2.8-2.6-4.1-.9-2.4-.5-5.3.5-8-1.5-3.1-2.3-6.8-5.4-8.3-.2-3.6-5-10.8-.3-11.6-.2 1.7-2.8 1.9-1.3 3.9 1.2-.2 1.6-1.9 1.5-2.6 1.2.2 2.8-.1 3.4-1.8-1.4-.9-2.1 1.1-3.1.5.4-1-1.2-.1-.8-1 1.1-1.5 3.2-1.7 3.4-3.6.3-3.4-4-4.1-6.2-1.5.1-1.6-1.3-1.6-1.3-3.1 4.2-3 .6-11.6-4.6-7.2-.7-.9-2.5-.8-3.1-1.8 1.9-7.5-5.1-9.4-11.4-7.2-1-.5-1.4-1.6-2.1-2.3-4.1-1-9.2-3.1-14.2-2.1-3.1.6-5.2 3.8-7.7 4.4-1.3-1.7-4.2-1.3-5.9-.3v-7.2c.6-1.1.2-3.2 1.3-3.9.8.2-.2.6 0 1 2.5-3.1 7.7-3.5 12.4-4.4-.1-.3-.6-.2-1-.3.4-.4 1.2-.6 2.1-.5-1.1.9.5 0 1.6.3 0-.6-.9-.1-1.3-.3.3-.6 1.6-.1 2.3-.3.9 1.1.5 3.2-.3 4.1 1.3-.1 3-2.9 3.9-1-.3-.1-.2-.5-.5-.5.3 1 1.2.7 1.5 2.6-1-5 2-5.8 7.7-5.2-.9.8-.1.3.8.3.1-.6-1.2.1-.8-.8 1.1.2 2.7 1 3.9.3-.1-.4-1.9-.5-2.6-1-.5 1-2.8 1-4.6.5-.7-.9 0-.9-1-1-.8-.3-.5.6-.5 1-2.3-2.3-2.5 1.9-5.7 1.6.2-1.2-.6-1.2-.5-2.3-.4-.4-1.2-.3-1.5-.8-4.4 2.3-13.6.1-15 5.2-1 .1-.6.2-1.5.5-.4-.2 0-1-.5-1 .4-1.3.4-2.3.4-3.2zm59.6 40.8c-.1.9-.6 1.3-1 1.8.2 2.3.4 4.4 1.8 5.4 0-.3 0-.7.3-.8.6 1.2 1.4 2.7 2.8 3.3-.4 0-.7.2-.8.5.8.4 1.1-1 1.3-.3-.8 1 1.6.5 1.8 1.3-.3 0-.7 0-.8.3.5.6 1.3.6 2.1.3.2-.5-.8-.9 0-1 2.3 1.8 5 1.8 8 1.3 1.5-1.4.7-3.2.8-5.2.1-2.1 1.2-3.9 1-6.2-.2-2.3-2.7-5.4-4.6-5.9-3.5-1-4.1 1.3-7.2 2.1-3.6.8-5 2.8-5.9 4.9-.2-.8 1.2-1.3.4-1.8zm-25-40c-.4 0-2.1-.1-1.3.3 1.5 0-.2.2 0 .5.3.3 1.1 0 1.3.5.7-.5 2.3-.4 3.1-.3-.6 0-.8.2-.8.8 3.1-.1 3.6 3.6 3.6 5.2 0-.3.7-.3.8 0-.4.3-1.3 1-.3 1.3 0-.8.3-1.4 1-1.5 0 1.2.4 2 1.3 2.3 0-1.4.4-2.4 1.6-2.6 2.4 1.2 4.9 2.2 7.2 2.3-.3-.1-.6-.3-.8-.5 1.1 0 1.3.9 1.8-.3-.8-.5-2-.6-2.3-1.6-.1.3-.3.6-.5.8-1-2.7-5.9 0-6.2-3.9-1.5-.7-2.3-2.1-3.6-3.1-1.7.1-5.4 1-5.7-.8.2.5-1.3-.4-.5.3.2 0 .4.1.3.3zm15.7 9.5c0-.5.7-.3.5-1-.8-.3-.2.8-1 .5 0-.3-.1-.6-.5-.5 0 .7.7.6 1 1zm-44.6-1.5c1.4-.8 1.7.2 2.6 0 .1-.5-.4-.5-.5-.8.5.1 1.5-1 1 0 1.7-.4 0-1.5-1-.8-.1 1.3-2.1.5-2.1 1.6zm10.6.5c1.3.1 2.1-.4 1.8-1.8-1.3-1.1-2.9.5-1.8 1.8zm-5.2.5c-.2.7.5.5.5 1 1.8-.2 3.1-.8 3.4-2.6-1.5-.6-3.2.6-3.9 1.6zm14-.3c-.2 1 .2 1.5.5 2.1 1.2-.2 1.7.4 2.8.3.1-.3.3-.4.5-.5.3-2-1.9-1.5-2.6-2.6.8 1.4-.6 0-1.2.7zm-19.1 1.3c.4.8 5.1-.9 3.9-1.8-.5 1.5-3.1.8-3.9 1.8zm23.4-1c.6 0 .8.4 1.5.3.1-.8-1.5-1-1.5-.3zm4.2.3c-.5-.8-1.8.3-2.1-.3 0-.2 0-.3-.3-.3-.2 1.2 2.3 1.4 2.4.6zm-.5 3.1c1.7.8 4.2-.6 3.6-2.1-1.6-.7-3.8.1-3.6 2.1zm8.7 1.5c-.4 1.1.2 3.6 1.8 3.6 1.9-1.2-.3-3-.5-4.4-1.6-.2-2.3-1.1-3.4-.8.7.6 1.7.9 2.1 1.6zm12.7.8c-.1-.6 0-1 .3-1.3-.7.2-.8-1.6-1.3-.8.8.2.4 1.6 1 2.1zm-9.3 2c0 .7-.2 1.8.5 1.8.2-.8-.4-.8-.3-1.5.5.1.5-.3.8-.5.5 0 .9 1.3 1.3.5-.5-.1-.6-.4-.5-1-.9-.1-1 .7-1.8.7zm22.2 11.9c-.7.8.6.9 0 1.8.7 0 1.7.1 2.1-.3-1.6-2.2-1.7-6.1-2.8-7.7-1.4-2-5.5-2.1-6.2-4.9-1.2.6-1.8 1.4-3.1.5.7 2.2 2 4.4 4.1 5.7-.9.7 2.1 1.8 2.1 3.4 1 .4 1.6-.8 1.8-.3-.3 1 1.5.6 2 1.8zm-16.3-6.7c-1.1-1-1-3.3-3.4-3.1-1.1 2.2 2.3 4.1 3.4 3.1zm2.6 3.6c-.3 1.1-1.1 1.6-.8 3.4.2.5 1.4-.1 1.5.5-.1 2.2 1.6 2.7 2.8 3.6-.2-.6-.5-1.6 0-2.1-.9-.5-2-2-1-2.8-2.7-.3-1-1.7-2.5-2.6zm4.1 3.9c-.1-1.1-.8-2.1-1.8-1.8 1 .2 1 1.5 1.8 1.8zm1.1 4.1c.6 1.4-.3-2.3-1-1 .4.2.5.8 1 1zm-2.1 13.7v-1c-.3-.3-1-.2-1.3-.5.1.8.6 1.2 1.3 1.5zm-1.6 2.6v1.3c1.7.2 4 1.1 5.7.5-.5-2.4-3.4-2.4-5.7-1.8zm2.6 5.4c-.4 2 2.1 3.3 2.1 4.9 2.2-.8 4.5-1.6 4.4-4.6-2-1.5-5.9-3.3-6.5-.3zm2.6 8c1.7 1.7 2 2.8 2.1 6.5.5.5 2.1.8 2.8.3-.8-3-3-6.6-1.8-9.3-2.7-1.6-2.1 2.8-3.1 2.5zm7.5 22.4c-1.1-2 1.5-4.2 1.3-5.9-.6.6-.4 2-1.5 2.1-.3-.6.8-1.1 0-1.3-1.8 1-5 2.1-4.4 4.6 2.1.3 1.9-1.5 3.6-1.5-.1.9.5 2.5 1 2zm-1.3 2.1c.1-1.1-.9-1-1-1.8-1.1 1-1.4-1-2.1-.3.8-.1.2 1.2.8 1.3.1-.7.4.4.8.3.1-.4-.4-.7 0-.8h.5c-.1.9 0 1.5 1 1.3zm-.8.8c.3.4 1.1 1.2 1.3.3-.2-.1-.5 0-.5-.3.3 0 .6-.1.5-.5-.4.1-1.1.1-1.3.5z"/><path class="st0" d="M56.9 294.3c-1.7-2.3-.6-2.8 0 0zm61.7-72.6c-8.3-.2-4 3.7-11.7.9 1.1-.3 2.2-.7 3.1 0 .6-3.1-3.9.1-5.5.8 2.6-4.5-10 .5-15.7-4.2 3.5-.8 13.3 2.4 11.8 1.3-4.3-2.1-9.1-2.1-13.6-3.5-1.3 1.4 1.8.6.2 2.2-3.9.4-1.8-2.8-3.8-2.9-28.2-1-70.1-24.7-99.1-43.4 18.5 26.8 56.8 46.4 79.4 45.9 1.3 1.1.3 2.2-.4 1.5 15.1 1.1 36.6 9.2 55.6 11.7-5.5 8.2-11.3 16.4-8.6 24.4 3.3-7.3 8.6-13.9 8-19.3 3.7 3.5 9.2-.4 13 2.7 2.4 6.3-11.9 11.7-11.1 19.3 13.3-10.4 27.3-31 18.3-41.5-2.9-3.4-9.5-1.7-14.1-4.2-7-3.7-12-12.2-18-18.9-26.1-29.3-61.6-59.9-88-62.7 37.3 15.3 70.1 47.3 100.2 89.9zm250.8-117c-1.7-1.7-1.3-4.8-1-7.3.2-.2.6-.3 1-.3.4-4.9 3.2-7.6 6.1-10.9 2.5-2.9 4.3-5.2 7.1-6.1 1.3-.4 2-2.1 3.5-2 .3 0 .4.1.5.3.7 1.1 0 2.8 0 4-6.2 3.9-11.7 9.1-16.4 15.2.8 2.5.3 5.3-.8 7.1zm33.9-15.4c.3 0 .4.1.5.3-.9 3.3-2.9 5.2-7.1 4.6-.1 5.1-16.1 12.7-13.1 1.5-3.1.9-4.6 3.5-6.8 5.3 3.1-9 13.9-10.5 24.5-10.1.7-.5 1.3-1.1 2-1.6zm-11.2 5.3c.2.8.7 1.3 1 2 .5-1 1.6-1.2 2-2.3-.9.1-2.4-.2-3 .3zm-6.8 1.5c1.3 0 2.3.6 2.3-1-1.1 0-2.3 0-2.3 1zm.5 2.6c-.1-.6.5-.5.3-1.3h-1.3c-.2.9.7.8 1 1.3z"/><path class="st0" d="M406.5 90.8c0 2.9-3.1 3.9-4.8 4.3.2-2.7 3-4.1 4.8-4.3zm.3 4.3c.8.5 2 .6 3.3.5.4 2.2-3 1.1-3.8.8-.2-.8.4-.8.5-1.3zm-5.8 2c.3.1.5.3.5.8-4.2 5.8-9.4 11.8-20 10.4-.1-1.1.2-1.8.5-2.5 8.8 1.9 14.9-3.6 19-8.7zm7.6 2.6c-1.4.2-3.1-1.2-5.1-1.3.7-2 5.2-.8 5.1 1.3zm-57.4 15.6c-2.9 3.3-8.5 5.3-13.9 5.3 2.3-2.5 6.5-3.1 9.4-5.1 0 .5-.3.5-.3 1 1.8-.3 3-2.2 4.8-1.2zm.7 3.1c-.3 5.2-7 6.3-12.1 7.6-.6-.4-.1-1.8 0-2.3 4.7-1.1 9.7-2 12.1-5.3zm-19.4.2c0 1 .9 1.1 1.3 1.8-.7 2.3-3 2.9-4.3 4.5-.1-1.7 2.3-3 3.8-4-1-.6-2.8.2-4 .2.8-1 1.1-2.6 3.2-2.5z"/><path class="st0" d="M333.7 122.2c-.4 1.3-1.4 2.1-2.8 2.5.4-1.5 1.7-1.9 2.8-2.5zm2.1 1.2c.9.9-1.3 2.8-2.3 3.5.4-1.5 1.7-2.1 2.3-3.5zm4.8 4.3c.5 2.5-5 3.2-7.3 2 .7-3.7 3.6-1.1 7.3-2zm63.4 2.5c3.7 1.2 7.8 3.3 8.3 8.3-2 .2-2.5-2.7-3.8-4-1.7-1-3.4-2-4.8-3.3 0-.4.4-.5.3-1zm-48.8 10.2c.8 1.9-1.5 2.8-2.5 4.8-1.2 2.5-.3 6.2-2.8 7.6-3.1-5.9 2.7-9.2 5.3-12.4zm22 25.2c.5-1.5 2-.2 3-.3 1.6-.1 3.3-1.5 5.6-2 1.5-.4 3.2 0 4.3-.5 2.3-1 3.8-3.7 5.3-4.8.4-.1.5.2.5.5-1.4 1.4-2.8 4.6-5.6 5.6-1.3.5-3.3.1-5.1.5-2.3.6-5.8 3.5-8 1zm108 146.6c1.2 0 1.8.8 2.8 1-.7.6-1.9-.4-3-.3 0-.1.2-.3.2-.7zm-191.6 87.3c1 .5-1.1 2-1.8 2.5 0-1.5 1.4-1.5 1.8-2.5zm47 1.7c-1.3.1-3.3 1.1-5.3.8-1.1-.2.2-.1.5-.3 1-.4 2.8-.8 4.8-.5zm-17 3.6c-2.1 1.1-4.9.4-7.6.5 1.7-1.4 5.8-1.4 7.6-.5zm-26.5 2.2c1.5.8 3.3 1.3 4.8 2-1.5 1.1-5.5.8-4.8-2zm15.4 45.3c-.7 1.6 1.8-.1 1.8 1.3 1-.4 3-.1 4.8 0-1 3.7-3.9 5.5-6.1 8.1-5-.1-7.7-.9-12.4-2.5.3-4.7 3.5-6.7 6.6-8.6 1.3.6 2.6 1.3 3.8 2 .5-1 .6.2 1.5-.3z"/><path class="st0" d="M129 467.7c-.8-4.8-.1-8.7.8-12.9-1.2.9-4.7-.3-6.3-1.3.7-5.9-2.4-18.1 7.1-17.2.9-2.1.4-4.2 1-6.6-1.9-.5-3.8.8-5.6-.8.7-3.3-1.1-11.1 4.3-9.4.6-2.5.4-6.9 3.3-7.8.2 0 4.1.4 6.1.3 11.6-.6 23.5 1 31.6.8 5.7-5.9 10.9-12.3 19-15.9 2.2.2 3.7-1.6 5.6-2.3 2.4-.8 4.7-.3 6.8-1 .2-.4 1.2.1 1-.8 1.3.2 4.1.2 4.8-.8 4 .5 9.4-3.1 14.7-3 .6-5.9.1-11.3.3-17.4-1.7-.1-3.8.3-6.1.8-.4-5.5.6-9.5 3.8-11.4 1.1 1 2.2 1.4 3.8.8.8-16.2.5-34.8 1.3-49.5-2 .3-3.6 1-5.6 1.3-.5.1-.5-.4-.5-.8-13.4 3.3-25.3 7.6-38.2 11.9 2 5.8 6 11 7.1 17.2 1 6-2.9 10.8-6.1 15.4 4.8.2 8.8 1.1 12.4 3 2.6 4.7-1.3 8.1-3.8 10.6-6.8 3.1-13.2-1.3-19 3.3-1 .2-1 .2-2 0-.3.5-.5 2.4 0 2.8-1.3 5.5-7.3 6.3-10.4 10.1-2.8-2-6.6-2.3-9.1-4.3-2.3-1.8-3.2-4.7-5.6-6.3-.1-1 .5-1.3.8-2-9.2-.6-20.9.6-33.1.5-.2 0-.7-.5-1-.5-.2 0-.7.5-.8.5-1.4-.1-4.3-1.3-6.6.3-2.3-1.2-5.7-1.4-8.6-2-2 1.5-2.8 4.2-5.3 4.8-3.8.9-8.2-3.6-8.6-7.1-.6-5.5 6.2-12.4 10.6-14.4 1.8-.8 3.9-.4 5.6.8 0 1.3-.2 2.9.3 3.8.6.7 5.4-.5 4.8 1.8 2.2.5 5.3.4 7.6-.3 10.1.1 19.6 1.7 30.1-1-.9-10.7 5.2-17.6 7.8-26.8-.7-.4-1.2 1.5-2.3 1.5-.1-.9.2-2.1-.3-2.5-8.4 1.3-22.6 2.7-29.3-1-.3-.8.5-1.6-.5-2.3 7.3-8.4 20-11.5 30.1-17.2 1.4-7.6 5.5-16.1 1.3-22.5.1-6.6-.8-11.4-.5-17.7.5-8.8 4.2-16.8 5.8-24.5.8-4.2.9-8.5 1.5-12.6 1.1-6.6 2.1-13.6 6.3-15.9 0 .4 0 .7-.2.8 2.3-1.2 3.4-4.2 5.6-6.1 1.8-1.6 4.7-3.1 7.1-4.8 2.4-1.8 4.4-4.1 6.6-5.1 2.5-1 4.7-1.3 7.1-2.8 2.1-1.3 4-2.6 6.3-3.5 4.7-2 9.4-3.3 14.4-5.1 2.9-1 5.5-2.7 8.3-3.5 5.9-1.8 11.4-3.5 16.4-6.8 2.2-1.5 3.8-3.8 6.3-5.6 2.7-2 6.1-3.4 9.1-4.8 3.4-1.5 7-2 10.6-3.3 2.1-.8 4.1-2 6.3-2.8 4.6-1.5 9.3-2.7 13.6-4.6 2-.9 3.6-2.4 5.6-3.3 1.6-.7 3.4-1.1 5.1-2 1.4-.8 2.6-2.2 4-2.8 2.6-1 5.8-.3 8.3-1.5 11.5 3.3 25.6-.2 36.4 2.3-1.6-3.4-4.7-7.5-6.3-11.6-3.7 1.9-9.5.4-11.6-3.3-1.9-7.1-4.3-14.8-5.1-22.2-3.9-4.9-7.2-11.1-10.6-17.4-3.3-6-6.5-13.3-7.6-20.5-1.5-9.3 2.4-17.2 6.1-23.5.5 3.4-2.4 5.5-3.3 8.3.9-.1 1.9-2.1 2.5-3.3.6.7-.2 2.3-.5 3 .4.8.8-.7 1 0 0 1.3-.5 2-.8 3 .9-.3.4-2.1 1.5-2.3.1.8-.5.9-.2 1.8.5-.1.2-1 1-.8-.2.8-.4 1.6-.5 2.5.6-.1.2-1.2 1-1-.5.4 0 1.7-.5 2 .7.1.2-1 1-.8-.2 1.3-.6 2.4-.8 3.8.6-1 .9-2.3 1.3-3.5.6 1.1.1 3.3-.3 4.3 1.1.1.2-1.7 1.3-1.5-.3 2.3-.4 6.3-.8 9.9 1.3-1.4.7-4.5 1.8-6.1.6-.4.6-.9 1.5-1.5.9 1.1.8 4.5.5 5.8 1.5 2.4 2.1 7.6 3 11.9.5 2 1.6 4.2 1.5 6.1 0 1-.7 2-.8 3-.2 5.7 3.6 11.1 5.8 14.9 3.9 6.8 8.3 14.2 12.4 20 2.8 7.4 6.8 13.4 11.1 19.2.1.3.6.2 1 .2.6 3.7 4.7 6 6.6 9.4.7.2.7-.4 1.3-.3-.2.9.2 1.3.5 1.8 7.6 6.8 14.9 14 26.3 16.9.4.4.8.2.8-.5 2.6 1.6 5.1 2.3 8.3 2.5 8.6.5 15.2-3 20.7-6.8 2.9-2 6.1-5.4 8.3-8.6 4.3-6.2 6.9-15.4 7.8-24.8.2-2.1-.1-4.3.3-6.3.2-1.2 1.1-2.2 1.3-3.3.8-4.3-.3-9.4-.5-13.9-.3-6.6-1.5-13.6 1.3-17.9.8.9 1.3 1.2 1.8 2 1.2.6 3.8-.2 4 1.3 3.8-7.1-1.5-16.1-1.8-23-2.3-1.1-3.1-5.4-6.6-6.1-.5 1.3-.7 2.9-1.5 3.8 2.8 1.5 6.1 2.3 6.8 5.3 1.1 4.4-3.2 8.9-5.3 11.9 1.9-4.7-3.3-10.3-7.3-6.1-.5-1.2-.5-3.3-1.5-2.5.1-4.9-1.7-12.5-4-17.2-1.9-3.7-2.7-4.5-6.8-6.3-1.6-.7-3-1.8-4.3-2.3-5.9-2.1-14.1 1.3-20 1.5-3 .1-7-.5-9.9-1.3-7.4-2-14.8-7.2-23-9.1-1.4-.3-2.7.1-4 0-1.9-.1-3.7-.7-5.6-.5-5.8.5-10.1 3.7-14.2 5.3-.5.3-.6 1.1-.8 1.8-1.6.1-2.6.7-2.8 2.3-2.9.8-5.8 1.8-8.8 1.3v-1.5c-.7.9-1.9 1.3-3.3 1.5-.4-2.1.9-2.9.3-4.6-.5-.6-1.2.7-2.3.3 0-2.3 1.3-3.7.5-6.1-.8-.7-1.1 1.2-2 1.3.6-4.8 4-6.7 7.1-9.1 1.1-4.7 3.1-8.5 5.3-12.1 3.3-1.1 3.7-5.1 7.3-5.8.2 1.7-.2 2.8-.8 3.8.5.6 1.8.4 2.3 1-.2 2.7-1 4.8-2.5 6.1 3.6.8 8.8.1 13.6-.8-.1 1.8 0 3.7-1.8 3.8 3.4 2.8 6.6 4.5 11.9 5.1.7-.9-.8-1.7-.3-3.3-2.6-.1-3.6.2-5.6.3-.2-2.1 1.3-2.4 1.8-3.8-1 .2-1.8.5-3 .5-.6-1.6.9-3.2 2.5-3.5-.4-.4-1.8.3-2.8.3-.1-1.3.5-1.8 1-2.5-3.6-.4-4.9 1.4-7.8 2.3-.2-.8.3-.9.3-1.5-.9.1-1.8 1.3-2.3 1-.1-2.4 2-2.7 3-4-.3-.5-1 .6-1.8.5-.9-1.2.3-3.1 1.3-4.6-.9-.5-1.4.4-2.3.3.8-5.3 6.1-9.2 10.9-10.6.8-.2.9.3 1.5.2 2-2.9 8.7-2.7 13.1-2.8 6.3-.1 12.2 2.2 17.9 3 2.9.4 6 0 8.6.8 6.6 2 12.8 5.4 18 9.4 1.8 1.4 3.8 2.5 5.3 3.8 4.1 3.6 7.2 11 10.1 16.7 3 5.9 6.2 13.5 7.6 21.2 1.4-.1 1.6-1.5 3-1.5 4 8.8 10.8 20.8 7.1 34.4 1.4 2.5-2.1 3.8-3 5.6-1.7.4-3.1-.2-4.3-1-.2.8.8 2.5 1 3.8.1 1-.5 1.3-.8 2-.4 9.8 1.4 17.8 1 26.8-.3 6.5-1.2 12.7-1.3 19 2 2.7 3.3 6.2 5.1 9.1 3.9 2 7.8 3.8 11.9 5.6 1.2 0 1 .2 2 0 3.7 1.6 6.8 5.9 10.6 8.8 7.8 1.4 11.7 7.5 19.2 10.6 2.9 3.3 6.8 6.4 9.6 9.9 1.3 1.6 2.1 3.4 3.5 4.6.6 0 .7.4 1.5.3 4.4 5.4 11.2 7.7 16.2 12.1 2.3.9 4.5 1.7 6.1 3.3 7-10.8 16.5-17.7 24-28.1-.4-1.6.5-4.5-.3-6.3-5.1-4.7-12.4-7.1-15.4-13.9-1.4-5.5-3.8-9.5-3.3-14.7.1-1.4 1-2.4 1.5-4 .2-.7 0-1.6.3-2.3 1.8-4.7 7.2-8.2 7.3-13.1-4.1-6.3-6.5-13-9.9-20.2-1.9-4.1-3.3-8.6-5.6-12.1-.9-1.5-1.7-3.5-2.8-5.8-2.7-5.8-6.8-11.1-9.6-16.9-1.4-2.8-2.2-5.7-4.6-7.8-2.1-7-7.2-12.4-10.6-18.7-3.8-7-6.3-14.9-11.6-20.5-.5-2.6-1.8-4.4-2.8-6.6-1.4-.2-1.2 1.1-2.5 1-2.2-.7-3.8-2-4.8-3.8-.7-5.7 3.5-14.6 8.6-15.7 4.3-.9 7.1 2.1 9.9 4 .3 2.3.9 4.7-.8 5.8 1.8 2.7 2.9 5.8 4.6 8.6 3 5 4.5 10.6 7.1 15.7 5 9.9 12.2 18.4 17.9 27.8 4.3 7.1 8.1 15.1 12.9 22 2 6.7 6.9 11.1 8.8 17.2 2-2.2 6.4-7.4 10.9-7.1 2.1.2 3.4 1.9 3 5.3 1 .3 2.2-1.8 3.8-1 2.7 1.4 3.8 7.6 2.8 11.9-.9 4-3.7 5.9-5.6 9.4-1 2-.8 4.3-1.3 5.8-.5 1.6-1.6 2.1-1.8 3-.9 6.3 9.7 4.3 11.4.5 1.6-3.7.1-12.9-4.3-12.9.6-2 1.9-3.4 3.5-4.3 5.9 2.9 5.2 13.1 1.5 17.9 2.1-.3 3.2-2.2 5.1-2 3.5 1.3 2.4 9 .8 12.1 1 5.2.2 12-.8 17.2 2.4 6.5 4.5 15.6 6.1 22.8-1.5 3.8-5 5.7-7.1 8.8-4.5 1.4-8 5.7-12.6 5.6-.6 0-1.8-.3-2-.5-2.1-1.6-5.4-2.8-7.8-4.6-.9 2 1.7 4 2.5 5.8 3.5 1.6 5.9 5.8 11.6 4.3 2.7-.7 7-3.5 7.8-4.8.8-1.4.5-3.2 1-4.6 1.2-3.2 3.5-5.2 5.6-7.1 1.4 2.6 1.8 6.2 3 9.4 1.5 3.8 1 10.6 1 16.9-1.7-7-4.2-13.3-6.8-20.5-1.5 5.5-7.3 12.4-13.1 14.4-7 2.3-10.8-2.2-14.7-5.3-.5-1.3-.6-3.1-2-3.5.4-.9-.4-2.2.3-3.3-2 .9-3.5 2.2-5.3 3.3-1.9 3.6-5.6 6.2-7.8 9.9-1.5 2.5-1.9 5.5-4 7.8 1.3 1.7 2.8 3.3 4.3 4.8.1 2.2-.5 3.7-.5 5.8-1.9-.9-3.4-2.1-4.8-3.5-.5 3.6-.4 10.1-3.8 11.1.1-4.5.8-8.8 1.3-13.7-6.7-6.9-18.2-10.1-24.3-17.4-.8-.2-.5-.2-1.3 0-3.2-3.4-6.2-6.9-9.6-10.4-2.6-2.6-4.7-4.7-7.8-6.6-2.6-1.6-5-2.7-6.6-5.1-2.5-1-4.5-2.4-7.1-3.3-.3 5.7 1.1 11.6 1.5 17.4.2 2.7-.2 5.2.3 7.8.2 1.2.4 2.5.5 4 .2 3.6 1.2 6.7 1.5 10.4.3 4.5 1.1 8.2 1.3 13.7-.9 1.3-1.8 2.6-3 3.5-8.1-4.9-18.2-5.4-27.6-7.1 3.1 6.5 6.2 12.6 9.4 18.5-1 1.3-2 2.6-3.3 3.5-8.7 1.3-16.3 4.8-24.5 7.6-8 2.7-14.9 6.4-21.5 10.4-6.5 3.9-12.9 8.4-18.5 13.4 1.2.2 2.4.3 4.8.2 2.6 0 6.6 1.8 10.1 2.8 3.5 1 6.9 1.5 9.3 3.3 1 .7 1.4 2.1 2.5 2.5.2 2.4 2.3 6.4.5 8.8 1.7 3.1 1.2 8.1-1.8 9.4 0 1.3.4 1.5 1.3 2.3.3 2.5.8 4.7 1.3 7.1 4.8-2.9 9.5-6.1 14.9-8.6 5.4-2.6 11.1-4.4 17.2-6.3 5.9-1.9 11.6-4.1 17.9-5.6 7-1.6 14.2-2.7 22.5-3.3 4.2-5.2 5.5-14 7.3-21.5.8-3.4 1.1-6 3.8-7.8 8.7 2.5 14.2 4.5 22.8 7.6.8-.5-.3-1.3 0-2.3.9.9 2.5 1.1 3.3 2 6.8.9 9.1 6.6 16.4 7.6 1.2-4.2.4-10.9 5.6-10.6.6 2.4-.5 7.2-.5 11.1 2.2 1.6 5.6 1.4 7.3 1.3 1.1-.1 2.7.8 3.8.8 1.4 0 3-.6 4.8-.8 1.5-.1 2.9.2 4-.3 1.6-.6 3.1-2.2 4.8-3 4.9-2.6 8.9-6.7 12.6-10.4-.2 2.2-2.4 3.7-4 5.3-3.2 3.2-5.8 6.1-10.1 8.6-2.7 1.6-4.7 3.6-7.8 4-1.3.2-2.5-.2-3.8 0-3 .5-7.4.4-11.6-.3-1.3 12.7.1 28.3 0 40.9.8.7 1.6-.3 2.8 0-.8 2.1-.4 4.6-.5 6.6 4.6 1.7 9 2.1 11.9 5.3 9.5-.6 15.5 1 24.3 1.3v2.8c-8.4-.4-17.7-1.5-28.8-1-11.1.5-22.7-.7-32.1.2.1.9.7 1.4.5 2.5 20-.1 40.9-.7 60.4-1.3v2.8c-9.9-.2-21.8.4-32.9 1-9 .5-17.9-.6-26.8 0 .8 4.2 2.7 3.7 6.8 4 5 .5 14.1 1.9 18.4 1.3 1-.2 1.9-1 2.5-1.3 0 .4-.1 1 .3 1 10.3-.7 22-2.4 31.6-3v2.3c-10.4 1.4-21.6 2.2-32.4 3.5-1.7 2.7-3.1 5.7-6.6 6.6.3 16.7.6 30.6 1.5 48.8.5 10.6 1.5 21.5 1.5 33.6 0 4.9.3 9.3-.2 13.4h-2.3c.7-2.6.4-6.4.3-10.4-.3-8.8-.6-17.9-1-26.8-.4-10.2-1.3-20.4-1.3-30.1.1-8.8-.7-16.9-.8-25.5 0-.6.8-2-.5-2.3-1.8.9-1 3.2-1 4.5-.2 9.8-1.1 21.5-1.3 32.4-.1 12.7-1.1 24.9-.5 38.9.3 6.3.6 13.6 1.3 19.2h-2.5c-2.6-32.4.4-63.4 1-94.8-3.5-1.2-5.7-3.4-6.1-8.1-1.9-.2-4.5-.2-6.6-.8.1 3.1 3.2 6.6 1.5 9.6 3.9 7.1.9 16.7-5.8 20.2 1-2.1 3-3.3 4-5.3-3.4 3.9-8.9 7.9-14.7 10.4 1.6 1.8.9 3.9 1.5 5.8.5 1.5 1.1 2.2 1.5 3.8.4 1.9 1.3 3.7 2.5 5.1.1 3.1 1.4 5 2 7.6.4 2.4.3 3.1.8 6.3 1.2 8.8 4.6 17.8 4 26.5.1 1.1-.7 1.3-1 2-.5 1.9.9 4.1 0 6.1 1.6 2.1 2.8 3.2 3.8 5.6h-10.4c-.9-6.4-7-7.7-9.9-12.1-1.7.2-1.2-1.6-3-1.3-.2-1.4-2.5-1.7-2-2.3-.8-.5-2.9-.7-2.3-1.8-.7.6-1.6-.3-1.8-1-1.8-1.3-5.5-3.1-8.8-4.5-.9-.4-1.7-1.2-2.5-1.5-1.6-.6-3.4-1-5.1-1.5-.7-.2-1.5-.1-2-.3-.7-.2-2-1.5-3.5-1.3-1.1.2-1.8 1.4-2.8 1.5-1.2-.2-.9-.8-1.5-1.3-7.1-.7-17.9 0-26.5 2.3-4.8 1.3-9.3 4-13.9 6.3-9.3 4.7-17.6 10-22.5 18.7h-1.8c3.2-5 7.4-8.9 11.4-13.1-.8.3-1.3-.2-2-.5-4.5 5-10 7.7-13.7 13.6h-1.5c.8-1 1.8-2 2.5-3-1.1.8-1.8 2.1-2.8 3h-8.3c2.3-3 5-7 6.3-10.1-1.6.7-2.2-.9-3.8-.5-1.7 4.1-4.3 7.1-6.6 10.6h-1.5c1.8-2.9 4.5-6.1 4.8-9.6-3.4 1-5.7 5.2-6.6 9.6h-6.3c1.3-2.4 2.9-4.3 4.5-6.3-3.6.5-6.6 3.7-8.8 6.3h-2.8c.9-1.2 1.6-2.6 2.8-3.5-1.2.2-2.4 2.5-3.5 3.5h-2.3c2.8-2.4 5.6-4.9 7.6-8.1-4.2.9-6.1 4.9-8.6 8.1h-6.8c1.8-3.1 4.4-6.9 6.8-10.1 1.1-1.4-1.6 1.5-2 2-2.2 2.7-4.4 5.8-6.6 8.1h-2.3c3.3-5.4 7.5-10 11.9-14.4-2.1-.3-2.9 2.1-3.8 3.3-3 3.9-6.6 7.4-10.1 11.1h-2.5c3.4-5.3 7.5-9.9 11.9-14.2-4.7 3.9-9.4 10-14.7 14.2h-4.3c4.6-6 9.1-12 14.4-17.2-4.1 1.5-7.7 4.3-10.6 7.3-2.8 2.9-7 5.5-7.6 9.9h-2.5c5.3-7.8 12-14.3 19.5-20-2.2-1.6-4.5-.4-7.3-.8 0-1.4 1-1.9 1.5-2.8-6.7 4.3-14.4 9.3-19.2 16.2-1.7 2.4-3.1 4.4-3.3 7.3h-2.8c7.8-14.5 20.2-24.5 35.1-31.8-.3-2.9 0-4 0-7.3-5.1 0-7.3 2.2-12.4 1.3 1.7-4.7 6.2-7.1 11.4-7.6-.1-1.2.3-3.2 1.3-4-5.4 1.8-11.9 2.1-19.2 2.5-17.2 1.1-35.1 2.2-42.7-11.1-1 .7-2.1-.2-2.8-.5-2.3-8-3.9-16.2-5.6-24.8-.2-.8-.5.2-1 0 .4-1.1 1.7-2.4 1-3.8-.8-.1-1.8 1.7-2.8 2.3-4.8.4-10.8 2.9-16.4 3.8-2.9-1.2-7.8 1.2-11.9 2-1.5.3-3.1-.5-4 1-.3-.1-.4-.4-.8-.5-2 1.1-4.7 1.6-6.1 3.3.6 7.9.8 17.5.8 25.8 4.8-3.3 12-.3 18 0 2.2.1 4.6-.2 6.3.3 1.1.3 2.2 1.2 3.3 1.5 1.2.3 2.5 0 3.8.2 2.7.4 6.9 1.2 11.6 1.5 1.4 1.3 1.4 4 1.3 6.8 2.1.2 3.7 2.6 4 5.3-1.2 1-1.4 3-4 2.5-1.8 7.5-1.2 16-2 22.8 2.1-1.3 3.5-3.5 6.1-4.8 1.9-1 4.4-1.3 6.6-2 2.8-.9 5.1-2.4 7.6-2.8 1.7-.3 2.8-1.9 4.8-1 1.3-.5 1.5-.8 3.5-.8-1.7 3.6-4.2 6.4-7.6 8.3-3.5 0-6.6.6-9.6 2-.9.4-1.2 1-2 1.3-3 .8-6.1 1.3-8.8 2.8.1 2.1.2 3.8-.5 5.6h-4.8c-.1-.4.3-1.3-.2-1.3-.5.4-.9.8-1.3 1.3h-34.1c-.5-2.4-.3-6 .3-8.1-1.7.7-3.8-.4-5.1.5-2.2-1.9-4.2-2.7-8.6-2.5.3 1.9-1.6 2.7-2 4.3-.5 1.8.5 4.1-1 5.8h-10.1v-.2c-.9-.1.6-.9-.3-1-.2.5-.5.8-.8 1.3h-43c.5-2.2.6-3.3 1-5.6-1.1 1.7-.3 3.8-1.5 5.6h-3.8c-.5-1.7 1.1-3.6 0-4.3-.2 1.6-.6 2.9-1 4.3h-5.6c-.1-1.3.5-1.7 0-2.5-.2 1.1-1.4 1.3-1.5 2.5h-9.9c-.1-.8.6-1-.3-1.3-.2.5-.5.8-.8 1.3h-1.5c-.6-.5.5-1.8-.3-2.5-1.3.5-1.9 1.6-2.8 2.5H129zM473 20.5c-2.6-.6-4.7-1.6-6.8-.3-2.5 3.9-1.1 9.6 3.5 10.4 1.1-.1 1.4-1.1 2.5-1.3.2 1.3 1.4 1.8 1.3 3.5.3.3.8.4 1 .8.1 3.1 2.8 4.9 4.3 7.3 2.4 3.8 4 8 6.1 12.1 2.9 5.8 6.8 10.7 9.6 16.2 1.5 2.9 3 5.7 4.5 8.6.1.9.7 0 .8.5 7 13.4 13.8 26.7 20.5 40.4 2.9 6.1 5.1 13 8.8 18.7.1-2.7 1.1-4.5 2.5-5.8-1.2.5-2.3 1.1-4 1-2.1-3.4.8-7.6 1-11.1-2.7-5.6-6.5-10.6-9.1-15.9-.9-1.8-1.5-4-2.5-5.8-.6-1-1.6-1.8-2.3-2.8-4.7-7.6-7.8-15.5-13.1-22.5-2.7-3.5-4.8-7.3-7.3-10.9-6.1-8.8-9.6-19.4-14.9-28.1.6-.6-.6-.9-.3-2-1.2-1.2-1.7-3-2.5-4.5 2.9-3.9-1.2-6.7-3.6-8.5zm-131.4 7.4c.2.2.7 0 1.5.3.1-.4 1-1.2.3-1.5-.1.8-1.9.1-1.8 1.2zm-5.3 2.8c.6 0 .9.5 1.3.8 1.1-.4 1.8-1.1 2.5-1.8-.5-.1-.1-1.1-.5-1.3-1.4.4-2.6 1.1-3.3 2.3zm-16 8c.7-.8 2-.2 2.3-1-.9.1-.9-.6-1.3-1 .1.9-1.6 1.4-1 2zm38.5 8.6c.1-.9-1.9-.9-2-.8.7.2 1 .9 2 .8zm-53.9 33.9c-.1-1.6.7-3.7 0-5.1.1 1.7-1.1 3.9 0 5.1zm232.6 43.7c1.7-1.3 3.4-2.7 4.5-4.5-.2-3.1-.6-6-3-6.8-2.2.4-3.7 1.6-5.6 2.3.8 4.2-4.2 4.9-4.3 8.1-.1 1.6 1.3 2.1 1.3 4.6.7-.2.7.4 1.3.2-.2-1.2-.8-1.7-.8-2.3 2.9 2.3 5.4-1.6 6.6-2.5-.4-.3-.4 1.1 0 .9zm-.8 3.1c.3 3.2 1.7 8.2.5 11.9.3 1.3.9-1 1.8-.8-.3.8.6.4 1 .5 2.1-.7 3.6-3.7 4.8-5.6 1.6-2.6 3.1-3.5 3.5-6.1.6-3.8-.2-9.1-3.5-10.1-2 4.1-5.2 7-8.1 10.2zm-208.3 11.6c.6-2.9-1.8-5-3-7.1-1.4-2.2-2.7-4.5-4-6.8-1.4-1.1-2-3-3.5-4 2.2 7.2 1.7 17.2 10.5 17.9zm202.5 2.3c-.9 1.3-1.8 3.6-3.5 3.3-4.5 5.8-8.7 13-5.1 22.2 1.9 4.7 3 8.9 6.3 11.4 2.2 1.6 5 3.5 7.1 4.8.6.4 3.2 2.1 3.5 2.8 2 3.8-1.7 10.7.3 13.6 1.3 1.9 4.3 2.1 6.6 3.5.9.6 1.4 1.8 2.8 2 3.2.5 8.3-3.4 10.4-4.8-3-.5-4.6-3.3-4.3-6.3-2-3.7-4.2-8-6.1-11.4-1.5-2.7-3.8-6-5.6-8.6-3.8-5.5-6.8-11-10.1-16.9-.3-.6-.9.3-1-.2-.5-2.2-1.6-3.7-2.5-5.3.2-2 2.3-2.9 3.3-4.6 2.1-3.7 2.1-8.4.8-13.1-3 .7-5 5-2.9 7.6zm3.5 6.8c.4-1.5 2.6-3.8 1.5-5.1-.6 1.5-1.6 3.8-1.5 5.1zm3.6-4.3c-.9 2.4-2.6 4-3.3 6.6 4 5.9 6.8 12.9 11.4 18.2.2.5.4.9.5 1.5 5.6 6.3 8.6 15.2 13.1 22.5-.2.5-.7.9-.5 1.8 1.3.7 1.5 1 2.8 1.8-3.1-17.7-9.6-30.8-17.2-44.7-.9 0-1.6-.3-2.3-.5-1-2.9-.7-9.5-4.5-7.2zm16.4 12.6c1 .3 1.4-.2 2 .3-.2 1.5-1.7 1.7-2 3 3.2-1.8 4.8-5.1 4.5-10.4-1.2-2.1-3.1-2.6-4.8-3.8-1.5 3.1-1.8 8.8.3 10.9zm-4.3-5.3c.1-1.1 1.4-2.1 1-2.8-.6.6-2.3 1.8-1 2.8zm-251.7 5.1c-1.7.5-5.1.2-7.3 1s-4.5 3-6.8 4c-3.6 1.7-7.4 3.7-11.4 5.1-4 1.4-8.3 2.7-12.4 4.3-7.9 3-17.3 5.2-23.8 9.9-2.1 1.5-3.5 3.7-5.3 5.1-6.3 4.6-13.8 6.1-21.7 9.4-7.2 3-15.6 4.5-22.2 8.3-3.3 1.9-6 4.8-10.6 5.1-3.2 3.6-8.1 5.5-11.6 8.6-2.3 2-3.6 4.7-4.8 7.6-2.2 5.4-2.6 11.7-3.5 18.7-.5 3.5-1.8 6.5-2 10.1-2.2 2.5-2.1 5.3-2.8 8.8-.4 1.8-1.1 3.8-1.3 5.6-.5 4.6.3 9.5.8 14.2.1 1.4-.3 3.1 0 4.6.3 1.6 2.1 3.3 1.8 5.3 10-3.2 18.1-1.9 25.8 3 1.6-2.3 2.3-4.6 3.8-7.1 1.4-2.3 4-4.1 5.1-6.1.5-1 .4-2.4.8-3.3 2.9-7.6 7.8-14.2 16.9-15.7 1.6-1.5 3-3.9 4.8-5.6 1.1-1 3.2-2.7 4.5-2.8 2.6-.1 2.8 2.5 4.6 3.8.8.6 2.5.8 3.5 1.3 1.4.6 2.8 1.7 4.3 1.3 1.5-4.1 10.4-9.8 11.4-1.5 2.5-.6 5-.7 7.8-.5 4.8.3 5.6.8 9.1 3 1.1.7 2.2 1.9 3.3 2.3 4 1.5 8.2-.7 12.4-1.3 4.5-.6 8.8.5 13.1-.3-.5 3.5-1.2 7.3-1 12.1 4.3-.3 8.3.5 11.4-.5 14.8 1.6 31.2-.5 47.5-2.5-1-3.4-4.1-6.8-6.3-9.9.5-.7 1-1.4 1-2.5-4.3-8.7-9.2-17.4-14.2-26-.9-1.6-2.2-2.8-3-4.3-.9-1.7-1.1-3.7-2-5.6-.9-1.8-2.4-3.3-3.5-5.1-.8-1.2-1.1-2.6-1.8-3.8-1.9-3.2-4.9-5.9-5.8-9.6.8-1.6 2-2.7 3.3-3.8 5.9.7 15.1-2.3 21.2-4.6-2.5-2.6-5.4-4.2-8.3-5.6-5.2-4.2-10-8.9-13.6-14.7.9-1.4 2-3.2 3.8-4 .6-.3 1.4-.1 2-.2 3.8-1.2 7.6-4.1 10.9-6.3 2.7-1.8 5.4-3.4 7.6-5.3.5-.4 1.5-1.2 1.3-2-12.2-2.3-25.2.6-36.8-2zm48.5 5.5c-.6-3-4.5-1.7-5.8-3.5-1 .7-2.9.1-4 0-6.4 6.6-14 11.9-22.5 16.4 5 8.4 13.9 12.4 21 18.2-3.2 8.7-14.3 9.5-23.5 12.1 9 12.6 14.6 27.2 23 38.9.6-7 .3-15-.8-22.5.4-.5.7-1.1 1-1.8-.4-.9-.3-2.3-1-3 .9-1.8 2-3.4 3.8-4.3 2.8 1.8 6.5 2.6 10.1 3.5-.3-3.3.6-7.2-1.5-9.6-.1-1.2 1.1-1 1-2.3-.3-10.1-.2-24.5.8-36.9-.6-.9-1.7-1.1-2-2.3.3-.9.6-1.9.4-2.9zm35.6 27.1c-3.3-1.8-6.9-1.8-10.1-3-6.9-2.7-14.4-9.3-19-13.6-.5-.5-1.4-1.4-2-1.3-.9 11.4-.9 23-.3 32.6 2.7 2.6 5.7 5 7.8 8.1 2.9.7 4.6 3.6 7.1 5.1 1.3.8 3.3 1.3 4.8 2.3 2.3 1.5 3.7 3.1 7.6 2 11.2-8.1 23.9-17.1 34.4-26.3 5.7-5 8-12.4 12.4-18.7-3.3-4.5-1.8-12-1.3-17.7-1.8 2.4-3.6 5.1-4.8 7.3-1.6 2.9-2 5.9-3.8 8.3-7 9.2-19 17-32.6 14.4-.1.4.4.6 0 .8.1-.2 0-.3-.2-.3zm175.2-21.7c.4-2.9.5-6.6-.5-7.8-3.5 1.5-.6 4.8.5 7.8zm-144.3 60.1c6.1-8.4 14.8-14.1 15.7-27.6.1-.8-.7.6-.8-.3 2-6.9 1.6-15.1 1.5-22 0-1 .7-2.4-.8-3-3 3.3-6.7 7.3-8.1 11.4.6-.5 1.3-2.1 2-1.8-.7 2.1-2.6 3.7-4 5.3-4.9 5.3-9.9 10-15.4 14.7-3.6 3-7.2 6.3-11.1 8.8-3.1 2-6.2 4.2-8.8 6.3-.7.6-2.2 1.3-2 2.5 9.5-3.8 20.5-8.3 30.8-12.1-1.3 6.9.5 12.4 1 17.8zm20.2-39.9c-.1 16.7-7.8 27.9-16.4 37.7-1.2 1.4-3.6 3.2-3.8 4.3-.3 1.4.9 4.8 1 7.8.2 5.1.7 11.9-3.5 13.9-1.9-2.3-5.2-4.6-8.3-5.8-.8-.3-2.7-.8-2.8-.8-1 .4-3.1 4.2-4 5.3-1.6 1.9-3.3 3.5-4.5 5.1-6.2 7.4-10.2 15.7-14.9 23.5-2.5 4.2-5.3 8-6.8 12.4 12.6-9.2 25.1-18.8 40.7-25.3 7.4-3.1 15.5-5.1 23.5-8.1-3.4-8.1-7.4-15.5-12.1-22.2.6-1.8 1.9-3 3.3-4 4.2 2.8 8.5 3.1 12.9 3.8 6.3 1 12.5 2.9 18.7 4 .4-4.9-1.3-9.5-1.8-13.9-.8-7.1-1.5-15.2-2-22.2-.5-6.2-1.5-10.2-.5-13.6-1.5-.3-.4-1.5-.8-2.3-3.4-3.3-8.3-10.1-14.4-7.8-1.2-1-2.2-2.2-3.8-2.8.1 4.6-.6 8 .3 11zm-69.5 33.9c-4.3-2.2-9-5.9-12.6-10.1.3 2.6.3 3.3.5 6.3 5.2.3 8.4 4 12.1 3.8zm151.6.7c.6-.7 1.2-3.3 2.3-2 .8-1.9 3.1-3.8 3.5-5.3-1.6 2.6-5.2 4.5-5.8 7.3zm-133.9 2.3c.5.6-.1 2.1.5 2.5 1.9-2.3 6.8-2.9 7.3-5.8-2.5 1.2-5.1 2.3-7.8 3.3zm-6.1.7c.1 1.1.6 2.5.5 4.5 1-.4 1.7-1.2 2.3-2-.9-1 .1-2.2-.8-3-.2.6-1.1.6-2 .5zm-10.4.3c.2 1.7-.2 2.5.5 3.5.3-1.5 1.2-2.5 2-3.5-1.2.2-1.6-.4-2.5 0zm6.4.2c-.1.4-.8 1.6-.3 1.8.2-.7 1.7-1.3 1.3-1.8-.1.7-.9.1-1 0zm11.3 9.1c.4-.4 1.5.7 2.3.8.5-.8 1.3-1.4 1.8-2.3-1.2.1-3 .6-4 0-.3.2-.6 1.4-.1 1.5zm-17.7 4.6c-.4 1.1-1.8 2.6-2.5 2.5.2-1-.3-1.2-.3-2-2.9-.7-4.3 1.6-6.8 2.5.1 5.9.4 11.3 1 15.7 4.6-6.3 9-12.8 14.2-18.5-2.3-.1-3.6.2-5.6-.2zm15.7.3c-.1 1.1-1.4 1-1.5 2 3.3 3.9 4.6 11 7.8 15.7 3.2-4.5 6.9-8.5 9.9-13.1-6.7-1.3-10-3-16.2-4.6zm-98.6 76c0-.2 0-.3.3-.3 5-3.2 10.7-4.8 15.9-7.1 9.7-4.2 19.8-9 29.6-10.4 2.8-.4 4.7-.8 6.8-1.3 9.9-2 20.8-3.5 31.3-4.6 1.9-5.7 5.4-10.4 9.1-16.4 1.3-2.1 2.3-4.6 3.8-7.3 1-1.9 4.2-5.2 4.3-6.8.1-1.4-1.6-4.2-2.3-5.8-2.6-6.3-5.2-10.9-8.3-15.9-7.3 5.3-10.4 14.8-16.7 21 .3 2.4.2 5 .3 8.1 3.6 0 7.2-.9 11.9-.8-3.3 4.1-6.1 8.8-12.1 10.1-.6 4.6 1.7 13.9-3.5 14.9.3-3.1.1-5.1.3-8.1-3 .2-2.4-3-4.3-4.3-14.1 4.2-27.8 10.1-42.5 13.6-8.1 2-16.9 1.9-25 5.1.8 4.5 1.9 11 1.1 16.3zm127.2-72.3c1-.6.8.5 1.5.8-.5-.6.5-1.6-.2-2.3-.3.7-1.1.9-1.3 1.5zm-71.6 6.9c.1 4.7 6.1 6.1 3.8 10.9 2.3 3 4.3 6.3 6.3 9.6 1.2-.5 2.8-.8 4.8-1 .8-8.6-1-17.1-.3-26-4.3 2.6-10 4-14.6 6.5zm-122.3 11.8c-.8-1.7-2-3-4-3.5 0-.2 0-.3-.3-.3-4.7 4.3-8.1 9.9-16.2 10.9-2.3 2.3-2.9 6.5-4 9.4-1.2 2.8-3.8 4.3-5.8 7.1-3 4.3-4.6 10.2-6.1 15.9 12.2-4.8 23.7-8.9 35.4-14.4 1.3-4 2.9-7.9 6.3-10.6 1.6-1.3 5.4-2.4 6.1-4.3.8-2.1-.4-4.5 0-6.8-4.2.3-7.1-2-11.4-3.4zm15.4-3.2c-1.5 3.7.7 8.3-.3 12.4 1.1.5 1.8.8 3.5.5.2-2.7.8-5.1.8-8.1.1-.7-.9.6-1-.3-.2-1.1.6-1.3.8-2-1-1.1-1.4-2.8-3.8-2.5zm44.5 8.6c-4.8-2.8-13.2 2.2-19.2 1-3.2-.6-5.3-3.7-8.3-5.3-3.5.2-6.6-.8-9.6-.3-.4 1.7-1.1 6.9-.8 8.6 3.2-.9 5.8-1 7.8 1 .1 1.3 1.1 3.2 2.5 4 8.9 1.8 21.7-.9 31.8-1.5.6-2.2.6-5.7 1.3-8.6-2.1.6-3.8-.1-5.5 1.1zm73.1 8.6c-1.9.3-3.9 1.3-5.8 1.8-6.9 1.7-12.4 4-18.7 5.6-8.5 2.1-16.8 4.5-25.5 6.1-17.7 3.1-35 6.4-52.1 9.9-.8 0-.7-.8-1.8-.5-11.5 1.3-22.8 5.7-32.4 8.1-3.6.9-6.9 2-10.4 3.3-13.9 5.2-28.2 9.4-42.5 12.9-3.4.8-6.8 2.7-10.4 3.5-6.9 1.6-13.7 3.1-20.5 4 6.4.5 9.4 0 16.7-.5.5-.9 1.6-1.6 3.5-1.8 1-.2.2 1.3 1.3 1 8.2-4.1 21.5-3.5 28.8-7.8 1-.2.2 1.3 1.3 1 5.9-2.7 12.9-5.2 20-7.6 9.6-3.3 21.1-6.6 29.3-6.3 12.4-4.6 26.4-6.2 38.2-8.8 5.7-1.3 11.4-3.1 17.4-4.5 5.7-1.4 11.3-2.6 16.9-3.5 12.4-2.2 23.1-6.2 34.4-9.4 5.6-3.3 13.7-4.8 20.7-7.3.3 0 .3-.4 0-.5-2.4.7-5.3.7-8.4 1.3zm-121.9 1.2c-.2-.8 1.8-1.7.5-2-3.3.8-5 3.1-7.8 4.3-1.4 1.8-1 3.8-1.8 6.1-1.9 5.7-9.5 6.9-14.9 9.1-11.3 4.5-23.8 10.2-34.4 13.9-.4-.4-1.1-.6-2-.5-9 2.4-16.8 6.1-25.5 8.8-.6.6-1.1 1.2-1.5 2-6 2.3-11.3 5.4-16.7 8.3 4.3 1 7.3-.8 10.9-1.3 2.1-.3 4.4-.1 6.6-.5 4.2-.7 8.5-2.2 12.6-3.3 17.2-4.4 33.5-10 49.3-14.9 4-1.2 7.8-3.3 11.9-4.3 5.7-1.4 11.1-2.2 15.2-5.1 6.9.7 15.6-4.5 22.5-3 15.5-3.5 31.5-6.1 46.3-8.6 6.7-1.1 13-3.1 19.7-4.8 6.6-1.7 13.6-2.8 20.2-5.8-11 1.3-22.1 3.2-33.9 3-10.2-.1-20-.5-30.3.3-8.8.7-23.9 4.2-30.6.5-.3-1.7-.5-2-.8-3-4.6-3.3-10.3-.4-15.5.8zm275 9.1c-1.3-.4-2.8-.3-4-.8-2.4-.8-4.5-2.4-6.8-3-3.1-.8-5.9-1.6-8.6-2.5-1.2 9.5-4.6 17-7.8 24.5 3.8-.1 6.5.9 10.1 1 .3-.1-.2-1.4.5-1.8 4.8 2.7 8.6 4.8 12.9 8.1.3-.7-1.2-.9-.5-1.3.8.8 3.1 1.6 2.8 2.8-.4 0-.8-1.1-.8 0 5.3 3.9 5.4 12.2.8 16.9 1.8 5.9 4.8 12.4 6.8 19 4.1-.1 5.7 0 8.8-.3 1.9-2.4 4.7-3.9 7.6-5.3-.6-2.4.4-5.7 3-6.3-.4-15.6-1.3-28.2-1-42.7-5.6-.8-10.5-2.3-14.4-6.1-3.6 1.2-5.9-1-9.4-2.2zm26.6 4.1c.4-2.1.9-6.7.5-7.8-.5 2.5-1.2 5.8-.5 7.8zm-352.1 9.3c-6.5-5-14.8-6.9-22.7-4.8-1.9 5.4-2.3 10.9-3.8 16.7 9.1-3.3 17.6-5.4 26.5-8.8.2-1.5 1.5-3.2 1.3-4.3-.4.5-.8.9-1.3 1.2zm351.8 1.8c-.3-3 .7-4.9-.2-6.3.1 1.8-.6 4.9.2 6.3zm-135.5 4c.3 0 .6-.1.3-.3-1.9-1.8-4.8-2.8-7.1-4.3-1.5.2-2.6-1-4.6-.8-4.7-2.4-9.6-3-14.7-2.8.2 1.3.5 2.6.8 3.8 9.3.2 17.8 2 25.3 4.4zm-73.8 2.8c13.4-3.2 27.2-6 42.7-7.1.5-.9-.1-2.9.5-3.8-4.3 1.2-8.5.3-12.9 1.8-13.5 1.5-33.1 4-45.8 10.9v1.5c4.7-1.8 10.5-3.9 15.7-4.3.1.3-.8.9-.2 1zm46-7.1c0-1.3-.2-2.9.3-3.8h-1.5c0 1.7-.3 3.6 1.2 3.8zm-87.7-1c-13 4.7-28.6 6-40.7 9.4.4 16.7 0 33.6-.3 51.6 2.2 0 4.3-.3 5.3.3.5 5.1-1.9 10.7-6.8 10.4.5 5.9-.1 9.7.3 15.9 5.4-4.8 14.5-7.8 23.3-8.8 2.3-1.7 5.1-.4 7.6-.8 2.9-.4 5.4-1.6 8.1-2.5.4.6 1.4-.4 2.3-.2.4-1.5-.6-2.5-.8-3.8 0 0 .5-.3.5-.5-.6-5.5-3.3-10.4-4.3-14.9-.2-1.1-.7-3.6-.5-4.6.2-1 1.5-1.4 1.8-2.5.6-2-.4-3.9-1-6.1-.2.1-.9 1-1 .5 0-1.3 1-2.3 1.5-3.8-.9-.8-1.2.7-2.3.5.3-.5.3-1.4.8-1.8-.6 0-.7.4-1.5.2-.1-2.6-1.3-4.2-1.3-6.6 0-5.5 7.4-11.9 11.4-14.9.3-6.7-1.6-11.4-1.8-16.9-.1.2-.4.1-.6-.1zm62.2 6.1c-8.9 1.5-17.2 2.8-25 4.8-3.8 1-8.6 2.1-10.6 4.8 1.7.3 2.6.8 4.3 1.5.5-.3.9.1 1.3-.8 2.7.1 4.8-.9 7.3-1.8 12.4-.8 24.1-6.9 40.4-7.6 1-1.6 2.6-2.4 3.8-3.8-7.1 0-13.8 1.6-21.5 2.9zm31.1-2.3c-.2.1-.3.2-.3.5 4.5 4.9 13.9 4.8 20 8.1 1.2-1.4 2.8.1 4.8 0 .4 1 .6 2.2 2.5 1.8-.1-1.9-1.2-2.7-1.3-4.5-7.2-3.1-17.9-5.8-25.7-5.9zm60.2 12.9c-.6 3.1 1.3 6.5 4 6.8 1.9.2 6.3-1.7 9.1-2.5 8-2.4 19.3-4.5 27-5.1-.2-3.3 3.1-6.5 6.3-7.3 1 3.1 1.9 4.8 3.5 7.3 3.5-.4 7.3 2.5 9.6 1.3.1.6-.5.5-.3 1.3 1 .3.9-.9 1.5-.3-.1.8-.3 1.4-.5 2 2 .7 3.5 1.9 6.1 2 .8 1.6 2.3 3 2.5 5.8 2.7-1.3 0-4.3 0-6.3 0-.8.8-1.7.8-2.5-.2-1.8-2.1-2.7-3-3.8-1.5 1.5-1.8-.5-2.8-1.5-1.5-1.7-4.6-3.5-6.1-4.3-.6.3.1 2-.5 2.3-.8-.6-2.2-.7-2.8-1.5v-2.3c-3.4-1.7-6.8-.8-10.9-.5-13.8 1.1-31.8 2.3-42.7 7.6 5-1.1 10.2-3.3 14.9-3.8-5.2 1.7-10.6 3.4-15.7 5.3zm-62.2 12.6c2.4-.7 3.6-.7 5.8-1-.8-8.1-2.2-11.6-3.5-19-1.4.2-1.8 1.5-3 2-.4-.4-1.6-1.3-1.8-1 2.8 4.9 1.7 12.5 2.5 19zm-69.3-18.2c.4.5 0 1.9.5 2.3.6-.3.9-.8 1.8-.8-.2-.9.3-2.4 0-2.5-.7.4-1.3.9-2.3 1zm-66.5-.5c0-.2 0-.3-.3-.3-1 .4-2.2.5-3.3.8.3 12-.7 27.1-.8 43 0 2.3-.7 4.6.3 6.3 1.2.4 3.3.4 3.8.3 1.6-18.1 1.2-34.3.3-50.1zm132.5 19.2c1.8-.9 1.1-4.1 1-6.3-.2-4.7-.8-9.9-3-12.1.4.1.5-1.4-.3-1h-.5c1.3 7.3 1.6 14.2 2.8 19.4zm-85.5-8.8c-.6 0-.7-.4-1.5-.2-1.4 2.2-4.9 2.4-5.6 5.1-.3 1.1.6 1.8.5 2.8-.1.9-1.7 1.1-1 2.3 2.2-.7 3.9-2.5 5.8-4 5.9-4.7 12.4-8.8 19.5-12.1-.3-.8-.3-1.9-.8-2.5-4.8 2.9-12.9 3.8-16.9 8.6zm140.8-1.8c-1.1.1-2.6 1.3-3.3.2-5.6 3.2-11.7 6-17.4 9.1.1 2.6.7 4.9 1.3 7.1 1.1-1.1 2.2-2.2 3.5-3 0 1.2.6 1.9 1 2.8 5.3-2.7 9.7-6.3 15.7-8.3.8-2.9 1.6-5.8 4-7.1-.4 1.8.8.8 1 1 .1 1.5-1 2.2 0 3.3 2-1.1.2-5.8 2.3-6.8-6.7 2.1-12.7 6.1-19.2 7.6 3.6-2.2 7.7-3.7 11.1-5.9zm-145.6 12.4c1.5.4 2.5.7 4.3 1.3 4-2.8 8.3-5.2 12.4-7.8.9-2.5 3-5.1 3.8-6.8-7.9 3.3-14.9 7.6-20.5 13.3zm205.3-7.6c1.8 3.5 1.5 9.1 1.5 14.4 1.6-.8 3.9-.8 6.8-1.3-1.4-4.2-1.2-7.2-3.5-11.4-.2-.9 1-1.8.5-2.3-.9.2-4.4-.2-5.3.6zm-4 0c-.2.1-.3.2-.2.5.7 3.2 2 6.7 2.8 10.1.3 1.1 0 3.8 1.3 4 .8-4-.5-13.3-3.9-14.6zm-172.4.5c-.3 5.8 1.9 13.6 3.3 18.7.9-.1 1.3 0 2-.8-.8-6.3-1.7-12.7-4-17.9-1.1.8-.7.3-1.3 0zm-4.1 23.8c0 2.4.7 5.8 1.8 7.1-.5 1.1.2 1.8 0 2.3 1.2 3.1 2.9 10.1 2.3 13.1 1.7-1.5 4.1-2.3 6.1-3.5-1.3-5.4-3.8-9.9-2.5-15.4-1.3 0-1.9.7-3 .8-.6-2.4-1.1-5-1.5-7.6.8-.2 1.6-.5 1.8-1.3-1.3-5.8-3-12.5-3.3-18.5-2.1.5-4 1-5.3 2.3-.1 3.5 1 7 1 9.9.4.1.6-.4.8 0-.5 2.6.7 7.9 1.8 10.8zM177 361.5c1.2-1.6 2.1-3.6 4.6-4 8.2-8.7 1.4-20.5-3.5-28.6-1.3-.1-2.7-.6-4.5-1-6.4 3-13.9 4-21.7 4.8-2.4 8.7-9.6 16.9-6.6 27.8 2.3-.1 4.5-.1 6.8-.8-.9-2.7-1.3-7.5 2.5-8.3 0 3.6 1.9 5.2 2 8.6 1 .2 1.5.3 2.3 0-.3-3.1.3-7.9 3.5-8.8-1.1 4.1 1.1 6.8 1 9.6 1.5.1 1.9.6 3.3.3 1-4.8 3-9.8 6.6-11.1-4.1 4.8-5.2 16.2.3 20.2 1.4-3.1 4.3-6 5.1-8.8-.4.1-1.5.7-1.7.1zm256.1-19.7c.5 1.6.4 4.2 2.3 4-.6-2.9-1-4.5-2-6.6-.9-2.9-.4-7-2-8.6h-.5c.2 4.6 1.2 7.9 2.2 11.2zm-3.8-9.8c-.1-.2-.2-.3-.5-.3-.9 1-2.2 1.7-3.3 2.5 1.2 5.5 2.6 9.7 3 14.7 1.8-.4 2.8-1.6 4.6-2-1.4-4.9-3.3-9.2-3.8-14.9zm-54.9 24.5c1.4-.3 3.2-.3 4.8-.5-1.2-5-2.7-9.5-3.3-15.7-1.8.1-4.6-.2-5.6 0 3.8 3.7 4.6 10.1 4.1 16.2zm151.5-16.2c-.6 1.3 1 2.4 0 3.5h4.8c-.5-.8.6-2.7 0-3.5-.7.6-.9 1.8-2 2 0-.9.1-2-.5-2.3-.3.6-1.7.1-2.3.3zm-158.5.3c-.4-.3-.6-.3-1 0 1 5.2 3.3 11.2 3.5 16.2.8.7 1.3.2 2.5.3 1.1-6.1-2-12.4-5-16.5zm122.8 5c-2.8.6-4.4.8-7.1.8 2.6 4.5 3.5 10.9 4.8 16.7 1.5-.3 4.7-.2 6.8-.5-1.3-6.6-2.1-12.5-4.5-17zm27.1 3.8c6.5.2 14.8-.3 21.2-.3-4.3-2-16.7-4.7-21.2.3zm-33.9 14.7c.9-.1 1.2-.6 2.3-.5.4-4.9-.6-8.1-1.8-11.1-.7-1.7-1.2-4.2-2.8-4.3.8 3.7 2.4 9.5 2.3 15.9zm-174.7-12.4c0 6.1 2.1 10 3.3 14.9.9.1.8-1.2 1.5-.5-1.4-5-1.8-9-3-14.7-.8-.1-.9.5-1.8.3zm132.5 18.9c.4-.7 1.7-.6 1.8-1.8-1.8-5.5-3.9-10.8-5.6-16.4-.1-.2-.2-.3-.5-.2-.1 7.6 2 13.1 4.3 18.4zM430 356.5c-.2 1.6 1 3.5 1.5 5.6.5 1.9.6 4.1 1.3 5.8.4 1 1.3 1.9 1.5 2.8.5 2.1-.4 3.8.8 5.3 1-1.8 2.7-2.9 4.3-4-1.9-5.6-4-11.2-3.5-19.2-3 .4-5.6 1.1-5.9 3.7zM85.5 366.8c.3 3.8 4.9 6.7 8.3 7.3.1-3 2-4.3 3.8-5.6 3.1.6 7.9 1.9 11.6 2 9.4.2 18.7-.1 28.3 0 8.8.1 17.4-1 25.8-1.5 1.2-.1 2.5.7 3.5-.5-1.1-.6.1-3.5-1-4-.9-.8-1.3 1-2.3 1-5.8-1.5-11.5-2.2-19-1.3-.7.2-.6 1.1-1.5 1-.7-.1-1.1-.6-1.8-.8-8.2 2.9-17.3 2.7-25 2-4.9-.4-9.8.9-14.7.3v-1.3c-1.7.8-4.1-.6-6.6-.5.3-1.4-.4-2.2 0-4-3.9-2.2-9.8 1-9.4 5.9zm107.4.3c-1.5-4.7-7-5.3-12.6-5.8-1.5 2.7-3.6 4.7-4.6 7.8 6.5-2.4 12 .5 17.2-2zm172.7-4.8c1 0 1.7 0 2.8-.5-1.1.1-2.5-.3-2.8.5zm155.7 2.8c1.2 1.8 2.2 3.9 4.3 4.8.2-.6.8-.8 1.3-1 .3.7-.8 1.1.3 1 2.5.5 7.9-.2 7.8-4.5-4.3.3-9.9-.3-13.7-.3zm-300.5 1c-.3 1-.1 1-.3 2.3 5.4-1.4 12.2-.7 17.7-.5v-2c-5.4-.6-11.2-.9-17.4.2zm268.9 5c.5-.5.6-1.4 1-2-3.5 1.2-7.7.2-11.1 1.8-1.8.8-2.9 3.3-4.3 4.3-1 .7-2.2 1.4-3.5 1.8-2.8.8-5.2 1.5-8.1 2 0 0 0-.5-.3-.5-1.6.2-2.9.9-4 1.3-11.3 1.8-21.6 2.2-31.1 9.4-.9-.1.4-1.4-.3-1.3-3.9 3-7.7 6.1-8.8 11.9 1.8 2.2 1 5 2.8 6.8 1.3-5.3 4.8-8.5 8.1-11.9-.4 1.8 1.6 1.6 1.5 2.8-.1 1.2-4.1 1.8-2.3 4.8 1.3 1.1 4.8 1.9 6.3 2.3 4 1.1 9.9.2 13.7-.3 13-1.5 32.4-5.5 43.5-11.1 4.5-2.3 9.2-3.9 12.1-6.3 2-1.7 3.4-5.1 5.1-6.6.5.9 1 1.4 1.5 1.3-1.1-3.6-2.8-7.4-1.8-10.6-.3-1-1-1.5-1.5-2.3-1.2 1.5-2.6 2.8-4.5 3.5-2-1.9-6.3.7-6.8-1.3-3.3.7-5.3-.3-7.2.2zm-161.3 14.4c-9.1 2-14.8 3.4-24 6.3-2.2-.2-3.9 1.2-6.6 2-1.2.4-3.1.3-3.8.8-.7.5-1.6 2.2-2.5 3.3-1.7 2.1-3.3 3.8-5.1 4.5 0 1.8.7 3 .8 4.8 9.1 14.8 29 11.3 45.8 10.6 5.4-.2 13.2 0 17.7-3 .5.2.2.8.8.3 6.6-1.7 13.2-4.8 21-5.6 4.8-.5 7.5-1.7 11.6-2.8 5-1.3 9.2-1.9 11.9-4.8 9-3.7 21.4-20.1 10.1-28.8-.8 0-.9.8-1.8.8-.5-.4.2-.6 0-1.5-1.1-.6-2.1-1.3-3.8-1.3-2.7 3.1-3.8 4.3-7.8 3.8-.3-.4-1.2-.2-1.3-.8-.9 1-2.4-.6-3.5.5-2.1-1.2-4.1.8-6.8-.2-5.2.9-9 1.4-14.4 2-.3.4-1.1.4-1.5.8-3.4.2-7.3.2-10.1 1.8-5.4.7-12.5 3.1-17.9 4.6-1.1.3-2.3.6-3.3.3-.1 1.2-1.4.1-1.3 1 0-.6-.9-.1-1.3-.3-.6-.1-.3.7-.8.8-.1-.6-1.2-.1-1.8-.2 0 .5.5.7-.3.3zm-101.8-13.9c-.1 17.1-.1 33.5-.8 50.3-.1 3.6-.2 7.3-.5 10.9-.2 1.6-.9 3.2-1 4.8-.4 5.2.1 10.7-.3 15.9 3-.1 5.8-.1 8.8.5.4-21.8-.2-38.4-1-59.1.3-.9-.9-.5-1-1 .5-.9.7-1.2.8-2.3.7-6.9-.7-12.4-.3-20-1.2-.3-2.5-.1-4.7 0zm215.3 1.6c.8.1 3.2-.3 3.5-1.5-1.5.3-2.3.4-3.5 1.5zm-278-.5c-.9.8-2.6.5-3.8.5.9 2.8 2.9 4.5 4 7.1.8-1.2 1.7.6 2.8-.2 0-3.6-1.9-5.1-3-7.4zm-5.3 8c-1.2-2.3-3.5-4.1-2-7.1-2.2-.2-4.6.3-6.1 0 1.8 3 5.7 6.5 8.1 7.1zm352.6 3.6c.1-.2.2-.3.5-.2-.4-.9.3-1.4-.5-1.8.1.6-.8 1.5 0 2zm-117 20c-3.1 2.1-5.8 3.6-9.9 4.6-3.9.9-7.8 2.5-11.6 3-5.1.7-10.3.9-14.7 3 .1 2.1-.1 3.2.2 4.8 3.5-.4 9.4-2 12.9-1-.2.8-.7 1.3-1 2 1.2-.2 2.7-.2 3.8-.5.5.5 1.1.9 1.3 1.8-3.4 4.3-11.2 4.7-16.7 4.3-.2 1.9.4 3 0 4.5 1.1-.1 3.4-2.5 5.1-.8 7.7-1.7 17.2-1.7 24.8-2 2.9-.1 6-.6 8.9-.5 1.5.1 3 .7 4.6.8 1.3 0 2.7-.5 4-.5 1.1 0 2.4.1 3.5.3 7.4.8 15.4 1.3 23 2 1.5.1 3 .4 4 .5 6.6.4 13.1 1.6 19.5 2-.4-3.5.2-7.3.3-10.6-5.8.4-8.7-1.2-14.7 0 2.8-6.4 8.6-6.5 14.7-6.6-.1-.7-.2-1.9.5-3-10.6 4.1-22.2 4.3-33.6 3-.8-.7-1.8-1.1-2.8-1.5-1.4-2.5-2.7-5.1-3.3-8.3-.6-.2-.9 1.2-1.3.5-1.4-7.4-2.5-12.9-4.5-20-3.6 9-9.6 13.2-17 18.2zm-179.5-6.6c-.5.1-1-.6-1.5-.5-.9.2-2 1.2-3.3 1.5-1.9.4-3.8 1.1-5.6 1.5-2.6.6-5.6.5-8.3 1-8.6 1.6-16.7 5-22 11.6 16.7 2.6 32.3 2.6 48.8 3.5-.1-9 .4-15.3.5-22.8-.1-.2-.2-.3-.5-.3-1.4 2.5-5.4 4-8.1 4.5zm254.8 11.6c.4 2.6-.2 5.7.2 7.8 3.2-.6 8.2-2 10.9-.8-2 4.8-5.8 6.6-11.1 5.8-.1 4.1.7 9.4-.5 13.7 6.2 2 14.8 4.7 20.2 9.9.4-1.4.9 1.6 2 .5 2.5 3.1 8 5.7 9.4 8.3.2.4 1.2 0 1.3.5.6.4-.5.8.5.8.1-5.7-3-11.4-3-16.7-1.4-4.6-.7-12-4-16.4 1.1.3-1.3-3.4-2-5.8-.2-.5.1-1.1 0-1.5-.1-.2-.7-.2-.8-.5-.5-1.7-.6-3.4-1-5.1-1.9-.5-2.1-2.9-2.8-4 .6-1.9 2.6-3.6 3-4.8-6.7 2.8-14.1 6.7-22.3 8.3zm-4.6 25.3c.2-3.2.3-6.6.3-10.1 0-5.4-1.3-10.9 1.8-14.7-2.1.2-4.1.6-6.3.8 0 7.2-.8 13.6-.5 21.7 0 .4.7.1.8.5-.3.1-.9 1.1-.2 1.3 0-.3 3.4.6 4.1.5zm-258.6-15.7c-1-.1-2-.7-3-.8-8.1-.5-16.6-.3-25-1.3-2.3-.3-4.6-1.3-6.8-1.5-.5 0-.8.5-1.3.5-.6 0-1.5-.5-2-.5-9.7-.4-21.4-.4-35.1-.5 0 1.8-.4 3.1-.5 4.8 3.8.7 7.7.3 11.6.5 2.4.1 5.3-.1 7.3.3 1.2.2 2 .9 3 1 4.7.6 10.1-.6 15.7-.5 5 .1 10.3 1.8 15.7 2.3 13 1.3 24.8.5 36.4 1 .1-1.1.6-3.7 0-5.3-5.3-.3-10.7.5-16 0zm144.6-1.8c.9 5.2.8 10.9.8 16.2 1.1-.5 1.7 0 2.5-.8.4-4.2-1.6-9.4-.8-13.1.3-1.4 2.4-2.8 2-3.8-1 .9-3.2.8-4.5 1.5zm-84.4 6.6c-3.1-.7-5.6-1.4-8.6-2.3-2.4-.7-4.8-.3-7.3-.5-4.7-.4-9.4-2.1-13.9-1.5-.3 0-.3.2-.5.3 0 2.3-.1 4.6.5 6.3 15.1 2 23.6 2 40.9 2.8.1-1.4-.1-2.4-.3-3.5-2.9-2.7-6.9-.7-10.8-1.6zm-138.3 2.5c2.1 2 4.2 0 5.8-1.3.2.9-.4 1-.3 1.8 2.9 1.6 3.9-3 6.6-3.8-3.7.5-8.5-.8-11.6-.8-.3 1.3 0 3.1-.5 4.1zm23.3 2.1c7.4-1.1 16.9-.3 24.3.5.9-1.6 3.1-1.9 4-3.5-11.3-2.6-23.6.1-32.6-2 1.7 1.3 2.2 3.9 4.3 5zm-11.4-3.6c1.1.2 2.1-1 1.8-1.3-.3.8-1.4.7-1.8 1.3zm54.9 6.9c1.2.4 2.8-.4 4.3-.3 2.4.2 4.4.9 6.8.8 4.4-.2 11.2-1.3 15.9-1.8.5-.6.2-2 .3-3-2.5-.5-5.7-.6-8.8-.5-8.8.3-18.5-.5-26.8-.5 3.5-.1 5.5 4.4 8.3 5.3zm-15.4-3.6c.8.2.5-.7 1.3-.5.1-.6-.1-.9-.5-1-.3.5-.6 1-.8 1.5zm63.1 1.8c0 .8 1.4 2.3 1.8 3.5 9.8.2 15.1.3 25.3 1 1.1-.8 1.9-2 3-2.8-11.5-.9-19-.5-30.1-1.7zm-77.6 1.5c.5-.1 1.5.3 1.3-.5h-1.3v.5zm8.1.3c-2.4-.3-4.2-.9-6.6-.3 2.1.3 5 1 6.6.3zm102.7.5c-.2.8.3.9.3 1.5 2.3 0 2.9.2 4.8.2-.1-2.1-3.3-2.3-5.1-1.7zm-6.1 4c0-.7 1.5-1.2.8-1.8-.2.6-1.5 1.3-.8 1.8zm82.1 6.8c.4.1 1.2-.1 1.5 0 2.1.6 4 2.2 5.6 2.3 3.1.1 6.3-1.4 7.1-5.1-.3-.6-.7-1.1-.8-2-2.1-.6-3.4-2.6-5.8-2.8-1.4-.1-3.2 1.1-4.8 1.5-4 1.1-9.4 1.7-10.9 4.3 1.8 0 5.7 1.1 8.1 1.8zm83.5-5.5c.6-.6 2.2-.2 2.5-1-1.1-.1-.8-.1-1.8-.2.1.7-.7.6-.7 1.2zm-157.5.2c.6.2 1.2-1.5.3-1.3 0 .7-.5.6-.3 1.3zm-151.7 1.5c-.3 3.8-.5 6.8-.8 11.4 1.2.9 2.5 1.1 4.3 1.8.5-5.3.5-9.7.8-14.9-.3 1.6-2.1 1.9-4.3 1.7zm242.4 1c.1-.8 2-1 1.3-1.8-.5.5-1.8 1.3-1.3 1.8zm-229-1.2c0 1.6.5 3.6.5 5.6.1 3-.6 7 1.8 8.1-.6-3.3-1.8-10 .5-13.4-1-.1-2.2-.7-2.8-.3zm11.6 5.3c.3-1.8.4-3.7.8-5.3h-.8c.2 1.8-.7 3.8 0 5.3zm-6.5 7.3c.4.8-1.3 1.4 0 1.5 1.6-.9.6-3.6.8-5.3.3-2.6.1-5.2.3-8.1-.9.1-1.4-.1-2-.3-.8 3.9-.2 8.6.9 12.2zm52.3-11.4c.7-.2-.2 1.2.5 1 .2-.8 1.2-.8 1.3-1.8-.7.3-1.3.5-1.8.8zm-19 .6c-.6 2.5.5 5.2.8 7.6.2 2-.5 5.9 2.5 6.3-.5-4.4-.5-9.4 0-13.9-.3.1-2.2-.2-3.3 0zm231.1 5c-3.2-1.6-6.7-3.6-10.1-3.8-1.4-.1-4-1.5-5.6-1.3-2 .3-3.4 2.3-5.8 3.5 2.4 1.2 6.3 2.4 8.3 1.3 3.8 1.5 8.8 3 13.1 4 .5-1 .3-2.1.1-3.7zm-225.8-4c0 4.2-1 10.2 2.5 12.9.1-3.6-.6-9.1 0-13.7-1.2-.2-1.8.3-2.5 0v.8zm-21.9 7.8c1-1.3.3-5.2 0-6.6-.1 2.3.1 5 0 6.6zm108.9 8.3c1 .1 1.2-.4 2.3-.3.4-2.7.7-7.2.8-10.9 0-1.4.9-3.4-1-3.8-.2.1-.5 0-.5.3 1.1 4.8-.3 10.2-1.6 14.7zm-4.3-13.4c.1 4.5.3 9.1.2 13.7.9-.1 1.7-.3 2.5-.5.8-4.3 2.3-10.1 0-13.1-.8-.1-1.8-.1-2.7-.1zm-100.9 4.8c-.6-1.5-.9 3.2-.3 3.5 0-1.2.1-2.4.3-3.5zm11.9 8.1h.5c.4-.7-1-2.8-1-3 .3.9-.6 2.9.5 3zm-37.9-.7c.1-.4.4-.6.5-1-.3 0-.4-.3-.8-.2.2.3-.2 1.2.3 1.2zm233.3 2.8c1.2-1.3 2.4-2.6 3.8-3.8-1.9.2-3.7 3.3-3.8 3.8zm-31.3 5c2-2.6 5.6-5 6.6-7.8-2.4 2.3-5.4 5.2-6.6 7.8zm8.1.5c1.9-2.6 4.8-5.5 5.6-8.3-1.8 2.7-4.6 5.7-5.6 8.3zm7.3-4c.9-1.1 1.7-2.4 3-3-.1-.4.4-.6 0-.8-1.2.9-2.7 2.8-3 3.8zm-23 5c2.6-2.5 5.8-5.8 7.8-8.1-2.5 2.6-7.3 4.4-7.8 8.1zm48.5 1c2.2-2.4 5.7-4.9 6.1-8.3-3.2 1.4-4.9 5.8-6.1 8.3zm-21.2-2.7c1.5-1.7 3.4-3 4.8-4.8-2.7.4-3.9 3.5-4.8 4.8z"/><path class="st0" d="M355 103.7c2.5 3 5.3 7 5.8 13.1.3 3.8-.4 8.1-.3 12.1.2 4.6-.3 14.2 4.3 13.7 1.5-.2 1.2-1.6 2.5-2.3 6.3 2.2 9.9-3.4 13.9-4.6 3-.8 6 0 7.8-2.8-.5-3.5-2.4-6-.3-9.1 2.8 4.5 2.3 12.3-2.3 14.9-1.8 1-4.1.6-6.8 1.5-4.5 1.5-8 6.4-13.4 4.6-1.2.6-1.3 2.2-2.8 2.3-4.5.4-4-8.2-4.3-12.9-.2-3 .2-6.3.3-9.6.1-6.4-1.9-11.3-4.3-15.2-6.8-5.5-20 2.5-23.5 7.1-1.1-2.4 2.1-4.1 4-6.1 1.6-1.7 2.4-3.6 3.3-4.3 4.4-2.8 11.1-1.5 16.1-2.4zM502.6 377c.6-.6 2.3-.1 2.8.2-.2.1-2.3.1-2.8-.2zm13.4 7c.4-.3.3 2.1.5 2.8-.3.2-.6-1.8-.5-2.8zm-126.6 2.8c-1.7 1.5-4 2.6-6.3 3.5 2.1-1.1 4.1-2.4 6.3-3.5zm51 2c-.9 1.4-3.5 2.6-5.1 4.3-.6.7-.6 2.2-1.8 1.8.6-2.8 4.5-4.3 6.9-6.1zm-130.2 3.8c.6.5-1.1.7-.8 1.8-4.6.9-7.7 3.4-11.1 5.6.2-2.2 3.3-3.1 5.3-4 2.4-1.2 4.7-2.3 6.6-3.4zm95.1-252.2c.6 2.9-2 5.6-3.8 8.1-4.3 6-9.9 13.2-18.7 14.4-6.3.8-10.9-.4-15.7-2.8-4-2-7.2-3.4-9.6-6.3 1.4-3.9 8.6-1.2 11.9-1.8 1 0 .1.2.3.8 5.4-1.3 12.8-2.5 16.7-6.1.5.5 1.3.7 2 1 2.7-1.7 6-2.7 9.1-3.8 1-.4 2.2-.4 3-.8 1.8-.9 2.4-3.7 4.8-2.7zm-15.7 10.1c.1 1.4 1.1 1.9 1 3.5 2.2.2 2.2-1.8 3.5-2.5-.3-2.8-2.7-2.2-4.5-1zm-6.8 2c.2 1.9.6 3.4 1.3 4.8 2.5-.2 4-1.4 5.8-2.3-.1-1.6-1-2.4-1.3-3.8-2.1 0-3.6.8-5.8 1.3zm-6.1 1.8c-.8 1.7.3 2.3.3 4.3 2 .6 4.9.3 6.1-.8 0-4.3-3.4-5.3-6.4-3.5zm-4 4.3c1.5 0 2.3.5 3.3-.3.5-4.3-5.6-3.8-3.3.3z"/><path class="st0" d="M394.9 376.7c7.2-1 13.7 2.2 12.1 9.6-.7 3.5-6.6 8.9-9.9 10.4-.9.4-2 .4-3 .8-2.2.8-4.6 2.2-6.8 3.3-6.1 3-14.5 4.9-22.2 7.3-5.1 1.6-10.8 2.7-16.4 3.8-5.5 1-11.1 2.7-16.2 3.3-11.7 1.3-24 2.2-33.9-.3-4.1-1-7.2-5.2-9.6-7.3.7-.3.6-1.5.8-1.8.3-.8 3 0 4 0-.4 3.9 1.3 6.6 4.8 7.1 2 .3 4.1-.7 6.1-.8 1.4 0 2.9.5 4.3.5 22.8.4 50.2-4.6 69-11.6 3.3-1.2 6.5-2.4 9.3-4.3 4.5-2.9 12.8-7.6 12.1-14.7-.2-2.7-2.1-4.2-4.5-5.3z"/></g><path d="M150.8 173.2c.3-.6 1.3-.8 1.6-1.4 1.2-2.3 1.6-6.4 1.7-9.3 0-8.9-1.8-16.8-1.5-24.7-1.9.7-1.3-2.2-.7-1.7-2-3.3-.6-6.4-.8-8.4-.5-3.9-2.5-6.7-.5-8.9 2 .1 2.6.4 4.8-.5-.2-1.5-1-2.1-1.1-3.9-1.5-.7-2.7.7-4.6-.6-2.5 3.2-7 .5-9.4 3.6-.4-1.4-5.3 1.8-6.3 0 0 2.6-1.6 2.3-.5 5.7 3.9-1.3 3.6-.4 8.7-1.6-.3 1.4 1.3 0 1.3.9 1.1 6.3 1.8 14.7 4.9 22.6-.4.1-.5-.2-.8-.2 1.1 3 .9 5.5.9 6.9 0 4.3 2.8 8.6.1 12.7.3 2.9-.6 8.2-4 8.6.5 2.7-4.5 1.5-5.8 2.9-2.3-2.3-3.6-2.8-4.9-6.2-.4 0-1 .2-1.1-.2-1.7-4.8-1.7-5.6-3.2-9.5-.6 1-3 .7-4.3 1.2-1.4 6.8 5.3 13.6 9.7 18.4 2.1-.3 3.8 1.3 5.8 1.2 1.5-.1 6.5-2.3 8.3-3.8 1.1-1.1 1.3-2.9 1.7-3.8zm31.4-4.6c1.5 2.1 1.2 6.8 3.9 7.1 1.1-2.6 2.1-5.1.4-7.9 1.5-5.2-1.9-13.1-1.9-18.7-1.6-1.2-3.1-1.3-4.6-.7.5 1.9-.8 1.3.2 3-1.2-.2-.8.7-1.3 1-3.6-.5-4.9-1.7-10.6-.7.4 1.7-.4.7-1.6 1.4.2 2.3-2.6 3.2-1.2 5.5-1.7-.6.1 5.2-1.4 4.7.3 4.9 3.6 6.6 4.3 9.3 1.9 7.3 12.2-2.1 13.8-4zm-13-11.8c-1.2-2.2 2-1.3 1.3-3.2.5 0 .9 1.4.7-.1 1.3.2 3.4.4 5.8 1.2-.3 2.2 3.6 6.5 2 9 .1.3.5.2.8.2-.5 2.8.6 5.7-3.3 6.6-.4.1-.2.7-.2 1.2-1.6-.5-3.7.3-5.3-.5-4.5-2.7-5.8-11.1-1.8-14.4zm22.8-33.5c3.2 1.4 9-3.1 11.2.2-.3 2-.1 3.8-2.5 4.9.2 2.5-.6 4.4-2.3 5.7.3 4.2-2.2 6.8.5 11.1 3.5.6 9.9-2.6 16.3-3-1.5-1.2 1-.9.7-.1.6-1.5-.7-2.7-.1-4.8-4.2 1.1-10.6.9-14.4 3-2.2-2.8.7-6 1.7-9.3 1-.1.6-.7 1.4-.3 1-4.3 3.9-7.4 5.4-11.4-.3-1.1-1.4-1.1-1.3-2.8-4.3 2.5-15.5 1.1-17.7 3.2.6.9.9 2.2 1.1 3.6zm51.8 8.4c-.2 1.5-1.2 2.5-2.4 3.4 1.5 0-.4 3.3-1 2.8-1 3.3-1.5 7.6-3.1 9.5 1.1 1.8-.8 6.3 2.8 7 0-.3-.1-.7.2-.8 3.3 1.4 8.8-2.9 11.6-1.8.4-1.5 1.7.5 2-1.5 2.5.4 2.9-1 5.4-1.4-1.1-1 .5-1.2.5-1.6-.3-4.4-4.2-.6-7.1-2.1.2.6-.2 1-.4.1-1.2.4-.4 1.2-1.4.3-1.8 1.6-4 1.7-8.8 2.7-.2-2.7.1-3.1-.8-6.2 1.6-.1.9-2.9 2.2-2.3.4-4.5 4.1-4.9 5.5-8.8 1.2 0 .3-1.4 1.4-.6.3-1.8 1.2-3.2 1.7-4.8-.7-.2-1.2-1.1-.7-1.7-5-.5-10.7 1.8-17.7 1.4.5 1.1-.3 1.2-.8 1.6.7 1.4.8 2.2.2 3.3 2 2.3 8.5-3.1 10.7 1.5z" fill="#ed7d00" id="Режим_изоляции"/></svg>