<svg xmlns="http://www.w3.org/2000/svg" viewBox="0 0 566.9 467.7"><path d="M229.5 61.6c5.8.1 11.2-2.5 9.1-7.6-1.6-3.9-8.3-3.9-11.4-.3 1.2 2 1 6.1 2.3 7.9zm1.3-6.7c3.7-3.5 8.3 3.7.9 3.3l-.9-3.3zM400.1 186c-.6-1.1-.6-2.5-1.1-3.7-2.3-5-7.4-8.8-11.5-11.7-1.2-.9-2.7-1.2-4-2.1-1.2-.8-2.1-2.3-3.4-3.2-2.2-1.5-5-2.7-8.3-2.1-.7-.4-.7-1.7-1.9-1.6-1.4 1.4.1 2.2.6 3.5.8 2 .4 4.4 1 6.6.9 3.5 4.5 5.3 7.2 7.2 3.7 2.6 7.9 4.6 12.7 5.9 2.4.7 5.2 1 7.2 2.1 1.6.9 2.6 3.3 4.6 3.4.5-2.1-2.3-2.7-3.1-4.3zm-22.9-11c-2.3-1.7-4-2.9-3.8-6.7 7.2 4.3 13.5 10.3 19.7 15.1-6.7-1-11.2-5-15.9-8.4zm20.2 8.8c-3.8-3.4-8.2-6.2-12.2-9.6-2-1.7-4.1-3.2-6.2-4.6-2.1-1.4-4.6-2.5-5.9-4.6 4.2.3 5.9 3.3 9 5.3 2 1.3 4.3 2.3 5.9 3.7 1.7 1.4 3.3 3.1 5 4.6 1.7 1.6 3.3 3.3 4.5 5.1.2 0 .2.4-.1.1zM240 70.2c-1.5-4-9.1-5.3-11.2-.4 1.2 1.3.8 4.4 2 6.6 4.5.6 11-1.6 9.2-6.2zm-6.9 3.2c-.4-1.3-.2-2.3-.4-3.4 2.4-.9 3.7.3 4.7 1.8-.7 1-2.8 1.1-4.3 1.6zM370.7 158c-4.5-.2-6.1 2.1-5.3 6.6.9 0 0-2.4.8-4 1.1-2.3 4.1-1.3 5.1-2.2-.3-.2-.6 0-.6-.4zm86.4 44.9c1.9-1.1 4-2 4-4.6-1.6-1.3-3.8.5-4.3 1.8-1.5 1.5-4.8 1.3-5 4.2 1.7 1.1 3.7-.5 5.3-1.4zM142.8 99c.7 2.2.3 3.7 1.5 4.8 3.4 3.4 11.7-1.9 9.5-6.9-1.7-3.8-10.2-1.6-11 2.1zm3.5.4c1.6-.5 3.1-1.6 4.7-1 .1 2.2-2.3 3.5-4.5 3.3-.2-.9-.3-1.7-.2-2.3zm273.3 49.8c1 3.7 3.7 5 6.3 7.5 3.4 3.3 6.2 6 11 7.2 0 1.6-.1 3.9.6 5.8.5 1.3 1.5 2.8 2.4 2.9-.9-1.8-3.2-5.6-2.5-8.8 0 .1.4 0 .4.1.5 2.4 2.2 6.5 4.6 6.3-1-2.4-2.5-1-3.7-6.6 1.5 2.1 3.9 4.1 7 4-1.3-1.2-5.8-1.9-6.5-5-.2-.1-.3-.1-.2-.5-.1-3.9-1-6.3-2.4-9-.9-1.8-1.8-3.7-2.6-4.8-2-3-6.5-2.2-9.8-1.4-1.9.5-4.2.7-4.6 2.3zm8.7 7.7c-1.8-2.4-4.9-3.6-6.4-6.2 4-.7 6.9.3 9.6 1.4-1.8.9-2.9 2.4-3.2 4.8zm8 2.1c.7.7.7 2.7.6 3.7-1.6-.3-2.7-1.1-4-1.6 1.5-.4 2.7-1.1 3.4-2.1zm-2.8-1.5c-.3.1-.5.3-.6.6l.9-.7h.1c.9-.3 2-.1 1.7 1.2-.4 1.6-2.5 1.1-3.1 0 .1-.6.5-.9 1-1.1zm-1.7-7.8c-2.6-.4-5.3-1.1-8.8-1 2.7-1.9 7.1-1.3 8.8 1zm-294.9-45.8c.7 2.1 2.8 4.9 4.2 6 5.7 4.2 14.7-2.4 18.2-6 2.9 5.7 14.2 1.8 11.4-5.1-.2-1.2-2.8.2-4.4 0-3-.4-6-7.9-7-12.9-1-4.9-.9-10.9-3.1-14.3-2.2-3.4-8.4-5.3-13.1-2.4-.8.4-.9 1.3-1.7 2.1-.8.8-1.8 1.3-2.2 1.8-2.5 2.9-3.8 9-2.5 14.1 1.9 1 4.1.8 5.5-.4 2.9-2.6 0-9.8 4.9-9.4 3 .3 2.7 7.1 3.5 10.1-9.3-1.5-16 9.5-13.7 16.4zm17.2-15.1c-1.2-5.9-1.4-15.9-8.4-14.6-4.7.9-4.5 6.9-6.2 10.3-1.7-5.3 3-9.4 5.5-12.9 3.6-1.3 7.2-.8 8.9 1.8 2.2 3.4 1.5 8.8 2.8 13.9 1.7 6.7 4.4 15 11.2 14.3-.7 1.1-1.8 2.2-2.8 2.3-2.4.2-3.4-3-5.1-4-3.1 1.4-5 4.6-8 6.4-1.9 1.2-6.3 2.5-8.6 1.4-2.4-1.1-4.4-5.7-3.8-8.6.4-2.1 2.6-6.2 4.5-7.5 3.2-2 7.4.1 10-2.8zm254.8 38.9c-.9-.2-1.2.7-1.9 1.1.2 4.6-1.8 7.4-4.3 9.5-2.5 2-6.5 4-9.9 5.6-2.8 1.4-8.2 3.5-9.9 5.6-1.8 2.3-2 7.1-.2 9.6.6.9 2 1.4 3.2 2.2 1.1.8 2.1 1.8 3.2 2.4 1.4.8 3.2 1.3 4.8 2.1 1.7.9 3.5 2 4.8 2.2 5.3 1 7.7-2.5 6.9-7.2-2.7 0-1.4 3.1-2.6 4.5-4.3-.2-6.7-2-10.3-3.7-2.7-1.3-7.2-3.2-8.5-5.6-2.5-4.5 1.4-6.5 4.2-7.8 1.9-.9 3.6-1.7 5-2.4 5.8-3.1 11.2-5.3 14.4-10.7.5-.8 3.5-7 1.1-7.4zM226.7 82.2c5.2-1.3 10.1-.8 15-2.3 8.4-2.6 7.7-12.4 1.4-17.1 5.1-2.8 3.5-10.7-.3-14.5-2.6-2.6-7.2-2.4-12.3-1.7-4.5.6-6.6 1.8-8.4 3.9 0 1.2-.7 1.9-1.1 2.9 2.9 9.1 2.2 19.8 5.7 28.8zm-1.3-22.6c-.6-3.9-2.2-7.8 1.5-9.4 2.7-1.1 11.5-1.6 13.1-.4 3.1 2.4 4.2 8.2 1.6 10.4-1.4 1.2-6.4 1.8-6 3.9.5 2.7 5.2-.2 6.6 1.8 1.5 2.5 3.8 5.3 2.5 7.8-2.1 4.4-11.7 4-16.4 4.8-1-7-1.7-11.8-2.9-18.9zM87.6 129.8c4-.7 9.2-3.6 10.5-6.4.4-.8 1.9-6.3-1.1-6.5-1.4-.1-3.3 2.6-4.1 3.2-4.3 3.1-10.7 3.9-11.2-3.2 5.3-.3 11-1.9 14.9-3.9.2-6.4-3.1-12.6-7.7-14.2-3.2.4-5.9.8-8.4 2.3-3.7 2.2-8 7.4-9.1 12.2-2.4 10.5 7.3 18.1 16.2 16.5zm-5.9-25.9c1.5-1 5.7-2.2 7.1-1.9 3 .7 3.7 5.5 5 9.1-1.4.2-2.3.7-3.5 1.1 3.9-1.4-.6-7.7-3.6-7.7-3.7 0-7 4.5-5.8 8.1 1.9 1 5.1.3 8.1-.2-4 2.5-10.4-.5-10.3 4.7.1 8.1 10.3 10.9 16.1 5.2-4.6 6.5-17.8 6.1-20.1-2.9-1.7-6.1 2.9-12.8 7-15.5zm6.7 5.4c-.9.6-3.2.8-4.3.7.3-2.3 3.3-2.8 4.3-.7zm319.2 83.1c-1.3 2.1-4.2 1.6-3.5 3.3 5-1.7 6.6-4.5 4.7-11.1-1.7.9 1.4 3.4-1.2 7.8zm72.2-169.1c3.3.6 7.4 1.2 11.6 1.2 2.7 9.4 10.4 18.8 14.6 23.6 12.6 13.8 27.2 27.5 34.8 44.3 10.3 23 17.1 54.4 17.1 80.2 0 1.8 0 3.6-.1 5.3l4.6.2c.1-1.8.1-3.6.1-5.5 0-26.6-6.8-58.4-17.5-82-8.1-18-23.2-31.8-35.6-45.5-3.9-4.2-10.6-13.1-13.3-20.8 4.4-.4 8.7-1.7 12.2-4.5 2.9-2.4 4.5-5.2 4.5-7.9 0-2.1-1-4-2.6-5.3-1.6-1.2-3.6-1.8-5.8-1.8-1.8 0-3.8.4-5.8 1.3-5.6 2.4-8.2 7.3-8.1 12.2 0 .6 0 1.1.1 1.7-3.5-.1-7-.6-9.9-1.1-12.8-2.4-24.8-8.5-34-17.4h-6.3c10.1 11.3 24.2 18.9 39.4 21.8zm20.6-13c1.5-.7 2.8-.9 3.9-.9 2.8.1 3.9 1.3 3.9 2.5 0 .9-.6 2.5-2.9 4.4-2.5 2.1-6.2 3.2-10.3 3.5-.1-.5-.1-1.1-.1-1.6.2-3.5 1.3-6 5.5-7.9zM169 94.4c1.6 1.5 6.2.9 7.3-.7 2.7-3.9-4.9-12.1-2.5-16.5 3.3-1.1 6.1-2.6 9.8-3.5 1.9 6 1.7 15.1 5 19.1 2.4-.9 4.7-1.8 6.9-2.8-.4-5.4-2.4-14.1-3.1-20.1-.4-3.2-.9-9.8-3.3-8.7-1.5.7-3.2 1-5.1 1.5-1.8.6-3.4 1.8-5 2-1.2.2-2.4-.3-3.7-.1-4 .6-7.4 1.5-10.6 2.9-.6 1.3.4 2.6-.3 3.8 3.3 5.4 3.3 16.4 4.6 23.1zm19.4-29.6c1.1 7.4 3.4 16.1 3.7 23.5-1.1 0-1.4.6-2.4.6-1.3-6.3-1.7-13.7-4.2-18.3-5.7.4-10.9 2.8-14.9 5-.7 5.8 1.7 10.5 3.1 16.1-1 0-1.1.5-2 .6-.9-6.1-1.2-17.4-4.5-22.6 7.1-2 14.7-2 21.2-4.9zm11.8 22.8c4.3-.5 12-2.7 17.7-3.2 1.1-.1 2.1.5 3-.3.9-.8-.1-1.7-.3-3-.3-2.3.7-5.4-1.3-6.5-3.2.2-7.2 1.1-11 1.8.2-.8-.3-2.1 0-2.8 3.3-1.4 7.7-.5 10.3-2.2.4-2-.3-5.6-.8-7.5-2.5-1.9-7.4 1.2-10.6.4l-.4-2.7c3.4-.1 8-1 10.2-2.6-.4-2.7-1.3-7-2.7-9.3-2.7-.7-5.3 1.5-8.2 2.1-3.4.7-7.3.3-10 2.4-.4 5.5 1.1 11.7 1.6 18.2 2.6 4 .9 11.4 2.5 15.2zm-1.5-31.3c4.2-1.5 9.6-1.3 13.3-3.4 1.1.6.8 3.2 1.6 4.1-2.4 2-7.9.8-9.7 3-.4 2.2.5 5.3.3 7.6 2.4 1.3 6.7-.9 10.9-1.1l.4 2.7c-3.7.8-8.4.9-10.7 2.7.4 2.3-.5 6.7 1.3 8.1 3.5-.9 7.9-1.6 11.2-2.1.1 1.2.2 2.4.1 3.5-5.1.9-10.5 1.1-15 2.7-.1-8.8-2-18.3-3.7-27.8zm51.9-.7c1.9-.1 4.2-2.3 6.8-2 1.1 5.4 1.5 10.3 2.7 15.8-1.8.9-6.5 2.7-4.4 4.7 1.6 1.5 9.6-4.2 12.4-3.3 1.7-2.9 9.5-.4 8.2-4.8-1.4-1.4-4.7.6-6.7.4-.3-5.8.1-11.2-1.1-17.4 2.9-1.8 6.1.8 7.7-.1 1.5-.9.3-4 .1-5.9-.2-2.3.4-4.4-.2-6.3-1.2-1.1-2.4-.2-3.7.3-4.6 1.5-10 3.1-14.5 4.3-4.2 1.1-8.9 1.8-9.7 5.4 1.4 1.8.4 6.6 2.4 8.9zm1.1-9c5.3-3.2 14.8-4.1 21.1-6.7.9.8.1 3.6.7 5.5-3 .4-8.4.2-9.1 3.1 2.9 6.3 1.3 12.9 2 19.1-1.2.4-2.2.9-3.4 1.4-1-3.3-1-7.2-1.6-10.7-.6-3.3-.9-6.5-2.3-8.8-2.4.8-3.8 1.5-6.7 2.2-.4-1.9-.4-3.4-.7-5.1zm-141.6 249c-.2.1-.3.3-.5.4.3 0 .5-.1.5-.4zm80 62.7c5.7 3.3 12.5 5.7 16.2 10.2 2.4 3 2.2 8 5.1 9.5 8.9 4.9 21.7-8.2 27.2-19.2-5.6.5-7.5 11.6-12.3 10.8-2.8-2.2-.8-6.8-3.9-8.9 4-.4 8-5.1 12.7-8.6-6.2-.8-11.3 4.6-16.3 9.7-4.4-13.1-13.2-27.1-16.3-37.7-.2.3-.6.4-1.2-.1-3-16.4-22.6-41.1-44.6-50.5 17.7 18.2 40.8 44.9 45.6 65 .3 1.4 2.4-.5 2.6 2.3-.9 1.4-.8-1-1.6.2 1.6 3 2.3 6.5 4.5 9.3 1 .9-2.8-5.7-2.6-8.3 4.2 3.4 2.4 13.2 5.3 10.7-.3 1.2-1.9 5 .2 4.1-.6-.5-.5-1.4-.4-2.2 3.1 5.1-.3 2.6 1 8.5-35.1-15.4-62.8-34.4-79.1-59 5.8 18.6 33 39.7 57.9 54.2zM53.4 111.1c1.5 5.5.5 11.1 2.4 15.6 2.4.5 6.4.2 9-.3.3-6.7-2.2-15.3-1-21.3 2.3-1.5 5.6-1.2 8-1.8.8-2.2-1.4-5.7-1.8-8-7.4.2-17.3 3.6-25.4 4.7-2.2.3-4.5 0-6 1.7.3 3.2 2 6.6 3.2 9.4 3.2.8 8.3-.9 11.6 0zm14.3-12.8c0 1 .5 1.3.6 2.2-2.7.8-5.1.7-6.6 2-3.2 2.7-.3 14.4.3 21-1.6.4-2.5 0-4.1.4.2-3.8-.9-8.2-1.3-11.8-.1-.7.1-1.8-.2-2.5-1.7-3.6-8.2-1.1-12.5-1.4-.6-1.9-1.4-3.4-2-5.2 9.2-.3 15.9-3.4 25.8-4.7zM292.2 399c-.6-.1-.9-.1-1.5-.1H289c-.1 0-.2 0-.4.1-.1 0-.3.1-.6.3-.2.2-.8.7-.9 1.7 0 .3-.1.6-.1.9 0 .9.1 1.6.1 2v.3l-.3 1.8 1.7.7h.1c.5.5 1 .8 1.5 1.1l2.4 1.1.8-2.5c.4-1.3.9-2.9.9-5.1v-.2c0-.8-.4-1.4-.7-1.6-1.1-.7-1.1-.4-1.3-.5zm-231-32.1c-1.8-28.9 3.2-62.3 16.8-96 .1-.7-.4-1.1-.9-1.5-6.2 8.7-7.2 26.5-13.1 35.7-2.3-5.2 1.4-13.2 3.1-20.4 1.4-5.9 3.3-11.9 1.9-16.2-7 33.1-16.2 71.4-34.7 93-2.7-1-4.8-2.3-8.2-2.9-12.9.1-13.9 26.9.5 21.4 5.7-2.2 6.8-16.5 12.7-17.8 2.3-1.8 6.5 3.5 7.5.8-1.3-2.3-6.3-2.5-6.2-5.6 6.2-12.8 12.4-25.7 19.7-36.5-1.3 14.2-.1 27-2.5 41.9-1.8 1.9-6.2-.8-8 1 2.1 2.6 6.9 1.1 8.8 3.1 2.1 5.8-2.2 17 2.3 21.9.7.7 1.3 1.3 2 1.8l2-.9c-6.2-3.6-7.5-18.5 2.2-18.6 7.4-.1 8.8 9.1 6.3 14.9l2.4-1.1c2-5.4 1.6-12.2-2.7-14.7-3.9-1.1-7.9-2.2-11.9-3.3zm-38.7 11.9c-8.2-1.4-5.3-17.4 1.8-18.2 11.2-1.4 6.2 19.5-1.8 18.2zm272.6-27.6c-2.1.3-5.4 3.4-4.2 6.4.3.7 2.5 2.1 3.4 2.1 2.8-.1 6-9.2.8-8.5zm93.9-8.9c-.4-.8-2.8-1.2-4.5-1.8-4.9-1.6-9.3-3.8-13.6-5.6-3.2-1.4-6.4-1.9-9.8-2.9-3-.9-6.9-2.9-10.4-2.4-.4.1-.8.5-1.4.6-.7.2-1.5 0-1.9.2-1.5.5-3.3 3.1-4.3 4.5-1.4 2-2.3 3.9-3.2 5.8-2.4 5.1-4.8 9.5-5.8 15.4-.4.4-.7.8-1.1 1.2h-.1v.2c-.5.7-.8 1.4-.9 2.5h.3c-.3 1.5-.5 2.9-.5 4.3 0 6.7 3.7 11.8 8.7 14.9 5 3.2 11.3 4.8 17.4 5.1h1.6c9.2 0 14.8-5.4 18.1-11.8 2.8-5.3 4.4-11.4 6.2-16.7 1.5-2.7 2.9-5.4 4.1-8.5.5-1.4 1.7-3.9 1.1-5zm-6.8 9l-1.4-.6c-.9 2.3-1.7 4.8-2.5 7.3-.5.6-1 1.1-.9 1.8h.3c-1.2 3.7-2.4 7.4-4.1 10.4-3.1 5.7-6.7 9.2-14.3 9.3h-1.2c-5.4-.3-11.1-1.7-15.2-4.4s-6.6-6.1-6.6-11.1c0-1.6.3-3.5 1-5.5l-.7-.2c-.1-.6-.1-1.2 0-1.8.3-1 1.6-1.8 1.9-2.7.2-.6.1-1.4.3-2.1.9-3 2.9-5.9 4.2-8.8 1.4-3.2 2.7-6.3 4.8-8.3 13.8 2.3 24.5 7.8 36.4 12-.6 1.6-1.3 3.1-2 4.7zm181.6-20.7c-.4-11.1-4.4-20.7-6.7-30.1-1.3-5.1-2.5-9.9-4.2-14.3-2.5-6.6-6-12.6-8.3-19.4-1.6-4.6-3.3-8.6-5.4-13-1.1-2.3-1.5-4.9-1.6-7.5-1.6-.8-4-.1-5.9-.2-1.7-2.3-3.7-6-2.7-10.4 1-4.7 5.4-8.3 5.6-13.3.1-3.1-2.1-6.5-1-10.7.3-1.1 1.4-2.1 1.8-3.4.5-1.7.8-4.7-.3-5.4-1.7-1.2-5.1 1.1-6.2 2.9-1.5 2.3-2.9 6.2-3.2 9.6-.2 1.6.4 3.7-.6 4.5-.3-1.7-1.4-3.2-1.8-5.1-.7-3.8.5-8.1-3.2-9-6.8-1.6-5.6 8.1-4.6 12.7-1.2-2.6-2.5-5.8-3.5-8 1.7-5.1 3.3-10.5 4.8-16.3 1.5-5.6 1.7-11.7 3-17.9 1.7-8.3 3-18.2 2.2-28.7-.3-4.1-.4-8.9-3-10.6-.7-4.8-1.6-9.3-3.5-12.8-.6-4.8-3.8-10.4-7.9-12.7-3.9-2.2-13.2-1-12.2 4.2 2.3.6 5-.6 7.2.2 4.3 1.4 6.9 7.7 8.5 12.8.6 1.8 1.5 3.1 1.9 4.6.9 2.9 1.3 7.1 1.4 9.5.6 7.6-.6 14.7-1.8 21.6-.6 3.6-.8 7.1-1.4 10.4-.6 3-1.8 6.1-2.7 9-1.9 6.1-3.7 12.4-5.8 17.9-1.6 4.4-3.3 8.3-5.8 12-1.3 2-3 2.9-2.7 6.3-2.6 3.5-5.8 6.5-9.6 9.1-3.7 2.5-7.3 5.2-12 6.7-6.6 2.1-14.5 4-22.1 6.1-2.6.7-5.6 1.4-8 1.3-1.8-.1-3.5-1-5.4-1.1-6.2-.5-12.5.5-18.4.2-.1-2.6-1.8-4.4-2.4-5.9 11.8-1.6 24.9 2.6 37 1.3 8.4-.9 15.8-2.9 22.1-6.6 2.7-1.6 4.7-4.2 7.1-6.4 1.1-1 2.4-2.1 3.5-3.2 1.1-1 2.8-2.1 2.4-4-1.6-.8-2.8.8-3.7 1.6-1 .9-2.2 1.8-3.2 2.7-2.2 2-4 4.8-6.6 6.2-3.2 1.9-7.3 3.1-11.5 4.2-13.6 3.6-28.4-.6-43.4 0 4.5-1.9 10.2-2.3 15.5-1.3 5.3 1 11 1.3 16.2.8 5-.5 9.4-2.5 13.6-4 2-.7 4.4-1.5 6.3-2.6 1.8-1 4-2.2 4.3-4.5-1.9-.9-3.7.8-5.3 1.4-4.9 2-10.2 4.6-16.2 5.6-9.2 1.5-17.3-2.2-26.6-.8 3.9-2.5 8.6-3.3 13.9-4 5.3-.7 11-.2 16.3-1.1 2.2-.4 4.6-1.4 6.9-2.1 4.3-1.3 8.2-3.7 11.5-6.3 1.6-1.2 3.9-2.5 4-4.8-2.5-.7-4.2 1.5-5.9 2.7-1.8 1.3-3.8 2.2-6.1 3.2-4.2 1.9-8.8 3.8-14.4 4-1.7.1-3.2-.4-4.8-.3-11 .4-20.4 3.6-27.1 8.8 2.5-4.9 6.1-7 11.1-9.6 1.2-.6 2.5-1.4 3.8-1.9 1.3-.5 2.9-1.4 4-1.6 1.8-.4 3.7 0 5.6-.6 1.2-.5 1.6-1.7 2.9-2.1 2.3-.7 5.4-.2 7.9-.5 7.7-.7 14.5-1.4 20-4.6 6.7-3.9 10.5-10.5 14.1-18.1 2.7-5.7 4.7-12.7 5.3-19.7.1-1-.1-2.7 0-4 .7-10.3 6.5-23.9 3.2-35.3-.2-.8-.7-1.8-1.1-2.6-.7-1.2-2.8-4-4.3-4.2-1.2-.1-3.3.8-3.4 2.1 0 1.4 3.1 3.3 3.7 4.3 1 1.7 1.5 5 1.8 7.7.6 7-1 13.7-2.4 20.3-1.4 6.6-1.1 14.1-2.4 20.2-2.8 12.9-7.5 23-17.9 27.4-.5-.1.4-.6.5-.6 1.6-1.7 3.6-3.7 3.8-7.1.1-1.5 0-3.1-.6-4.5 1.3-2.2 2.6-3.6 2.9-6.2.7-6.9-5.9-12.5-4.5-21 .4-2.3 2.2-4.6 3.4-7.2 1.1-2.4 2.1-4.8 2.6-7.8.5-2.9.9-6 1.6-9 .3-1.4.8-2.8 1.3-4.2 2.6-3 8.9-10.3.9-4.4 0-.6 0-1.2-.2-1.8-1 0-1.6 1-2.1 1.6-.7.8-1.3 1.8-1.8 3-7.2 4.2-15.2 5-19.7 5.2 0-.1 0-.2.1-.3 1.1-4.3 3.6-8.9 6.3-13 3.3-5.1 6.8-9.8 12.5-11.4 1-.3 2.4-1 2.9-1 1.6.1 2.3 2.5 4 2.6 1.3 0 1.7-.8 2.2-1.8 2.1.1 3.1-.8 3.5-2.4.4-.3.8.3 1.6.2 2.2-3.1 7.2-3.5 9.1-6.9-1.7-2.2-5.3-.2-6.9 1-1.3-5.5-4.8-8.8-8.7-12.3-2.4-2.2-5.1-4.3-7.7-6.3-5.5-4.1-13-6-20.2-7.7-3.9-.9-8.1-1.3-12.5-1.6-4.4-.3-8.7-1-13-1-8.4.2-16.8 1.5-24.2 3.7-.7 0-.9-.5-2.1-.5-1.6.1-3.8 1.6-5.3 2.2-7.3 3.1-13.1 6-17.6 12.2-1 1.4-1.8 3-2.9 4.5-1 1.4-2.1 2.8-3 4.5-.8 1.4-2.1 3.5-3 4.3-1.4 1.1-3.5 1.7-5 2.6-1.6.9-2.7 2-4.3 2.7-.2-3.1-1.4-5.3-2.9-7.2.4-.7.5-2.1.5-2.7 1.6.4 2.9.5 4.5.8 1.4.2 3.2 1 4.6.8 2.7-.3 4.5-4.2 3.5-7.4-1.2-3.8-8.8-7.1-13-7 0-.8 0-1.4-.3-1.9 3.5-.3 7.7 5.1 10.9 1.4.4-.5.9-1.6 1-2.1 1.5-6.9-6.5-12.3-12.5-11.5.1-.8-.2-1.1-.2-1.8 4.1-1.4 9.4 2.3 13.3 0 1.7-1 2.6-3.9 1.8-6.6-1.6-5.1-9.7-5.3-15.7-5.9.2-4.9-.4-10.4-1.1-14.9-.3-1.6-.4-3.4-.8-4.6-.8-2.1-3-3.6-5.4-3.8-.1-1.5-1.2-2-1-3.8-2.1-2.2-2.6-5.2-4.2-7.5-.4-.6-1.2-1.2-1.8-1.9-.6-.7-.9-1.7-1.4-2.2-.7-.7-1.8-1-2.6-1.6-1.4-1.1-2.4-2.7-3.8-3.8-1.4-1.1-3.1-1.8-4.2-3.4-2 0-3.1-2-4.5-2.7-.7-.4-1.6-.3-2.4-.6-.8-.3-1.5-1.1-2.4-1.4-1-.4-2.2-.3-3.2-1 3-2.7 5.8-5.6 8.6-8.4h-4.7c-1.6 1.5-3.1 3.1-4.5 4.7-1.3.5-2.7 2.1-4.2 2.4-1.5.3-3-.7-4.8-1-3.5-.4-11-.4-13.9.2-4.3.9-6.7 3.3-10.1 5-.4 1-1.9 1.7-2.6 2.9-.3.5-.4 1.5-.8 2.2-.7 1.4-1.6 2.3-1.1 4.3.3 1.4 3.6 3.7 4.8 4 1.4.4 3.3.3 4.8.2 1-.1 1.5-.7 2.4-1 .8-.2 1.6 0 2.2-.2.6-.2 1-.5 1.6-.8 1.3-.6 2.4-1 3.5-1.4.6-.3 1.4-.4 1.9-.6.6-.3.6-.7 1.1-1.1.4-.3 1-.5 1.4-.8 1-.6 1.9-1.3 2.7-1.9.9-.6 1.8-1.3 2.6-1.9.5-.4.6-.9 1-1.3.5-.4 1.2-.3 1.8-.6.9-.6 1.3-2 2.2-2.4 2.2.4 3.7 1.5 6.3 1.6 1.4 1.7 4.5 1.5 5.6 3.5 5.3 2 8.3 6.3 12.7 9.3.4 1.6 2 2.1 2.9 3.4.9 1.3 1.6 3.5 2.4 5.3.7 1.6 1.7 2.8 2.2 4.6-4.4 1.3-6 6.4-5.9 11.7-1.8 1.5-3.5 2.9-5.3 4.2-1.8 1.3-3.6 2.8-5.4 4-4.5 2.8-9.6 4.9-14.6 6.9-2.6 1.1-5.3 1.7-8.2 2.6-2.7.8-5.7 1.4-8.3 2.6-3.3 1.4-5.9 3.9-8.8 5.9-2.3 1.6-4.2 3.3-6.9 4.5-5.4 2.4-11 3.6-16.5 6.2-.5.4-.3-.8-.6-1.1-.4-.8-.7-.9-1.1-1.1-2.7-1.1-4.6 1.1-6.2 1.8-.7.3-1.5.2-2.1.5-2.1.9-3.6 3-5.6 4.3-2 1.3-4.6 2.3-6.9 3.2-4.6 1.9-9.6 3.7-14.7 5.3-2.6.8-5.1 1.4-7.5 2.4-3.4 1.4-7 3-10.7 4.5-3.3.6-6.6 2-9.9 3.9l-.9.3v.2c-2.4 1.5-4.8 3.2-7.2 5-5.8 4.6-11.2 9.8-15.1 13.4-8.3 7.7-14 17.1-13.9 28.3 0 2.3.2 4.7.7 7.1 4.1 20.4 19.6 34.5 35.5 46v.2c12.3 13.2 29.7 20.9 45.5 30.4 3.2 2 6.7 3.4 10.1 5.1 1.8.9 3.4 1.8 5.1 2.6 5.4 2.3 11.1 3.3 15.4 7.2-8.9 10.2-22 16.2-23.6 33.8-.3 3.7-.1 6.3-.2 10.3 0 3-.7 5.8-.5 9.1.2 3.9 1.5 7.3 2.6 11.1 1.8 6.7 2.4 14.2 2.3 22.1l-.5-.2c-2.8 7.8-1.6 18.2-2.9 25.2-1.9 10.6-3.1 21.2-4.6 31.7-1.9 13.3-3.3 27.9-3.3 42.5 0 7.6.4 15.2 1.4 22.7h4.6c-1-7.4-1.4-15-1.4-22.7 0-14.3 1.4-28.6 3.3-41.8 1.5-10.6 2.7-21.2 4.5-31.5.6-3.2.7-6.9.9-10.4h.8c.4-4.4.6-8.7.8-13.1l.3-.9-.2-.1c.3-9.3-.1-18.3-2-26.3-.9-4-2.4-7.9-2.4-12 0-3.2.6-6.5.8-9.6.2-2.3-.1-4.7.2-6.9 1.6-14.1 10.7-19 18.4-26.8 4.3-4.3 9-9.6 12.2-15.4.6-1.1 1.1-2.4 1.6-3.7.4-1.1 1.1-2.7.3-4-4-.4-4.3 3.8-5.6 6.6-1.2 2.5-3.2 4.4-4.3 6.4-1-2.9-3.7-4-6.7-5.5-1.8-.9-3.9-1.7-5.6-2.2-4-1.2-7.5-3.2-11.1-4.6-3.4-1.4-6.8-3.7-10.1-5.8-10.5-6.6-22.1-11.7-31.8-18.9l.8-1.1c-3-2-6-4-9-6.1-2.1-2.2-4.1-4.5-6-6.9v2.5c-14.2-10.7-26.7-23.4-29.9-40.1-.4-2.1-.6-4.1-.6-6 0-9.3 4.5-17.1 12.1-24.2 3.9-3.7 9.2-8.8 14.7-13.1 5.5-4.3 11.3-7.8 15.7-8.4l-.2-1.3c2.6-1 5.2-2.1 7.6-3.2 2.3-1 4.4-1.5 6.9-2.2 4.5-1.3 9-3 13.3-4.6 4.3-1.6 8.5-3.6 12.2-5.9-2.8 8.2 1.1 19.4 6.1 24.8 1.7 1.8 4.3 3.3 7 3.7-8.8 4.6-17.4 8.2-25.2 13.3-2.6 1.7-5.5 3.1-8 5-10 7.4-19.8 15.6-31.7 20.3v1.8c2.1 3.5 6.2 0 8.5-1.3 1.3 2.3 5.4 1.4 8.8 2.4 2.4.7 5.3 2.5 7.8 4s5 3.2 7.1 4.8c4.6 3.6 9.5 6.7 13.9 9.8 9.7 6.7 18.6 13.1 28.7 18.6 5.4 2.9 10.9 5.1 16.5 7.2 5.7 2.1 10.9 4.7 16 7.5 5.2 2.9 10.1 5.6 14.3 9.5 3.1 2.9 5.8 6 8.8 9 .1.1.2.2.3.2-2.8 1.1-5.4 2.9-7.3 5.7l-.6.8c-2.2.3-4.4.3-6.7.6-1.8.2-4 2.3-4 4.3 0 1.5 1.5 3.3 2.4 4.6 2.9 4.2 5.8 8.1 8.5 12.3-4.3 3.3-10.2 5.8-15.9 8.2-3 1.2-7.9 2.3-7.5 6.6.2 3 3.2 5.9 4.8 8.5 5.4 8.3 10.7 15.7 11.9 28-7.8 11.5-14 24.5-16.7 41.2l-2.2-.5c-2.2 8.7-3.1 18.5-3.1 28.9 0 27.3 6.6 58 15.4 80.1h4.9c-8.9-21.6-15.8-52.9-15.7-80.1 0-9.5.8-18.5 2.7-26.4h1.3c2.1-15.3 7.7-27.1 14.6-37.7.6 0 .8.8 1.6.8.9 0 1.7-1.2 2.6-1.4 2.5-.7 5.7-1.4 8.5-1.3 2.7.1 5.3 0 8 0 2.6 0 5.1.4 7.7.2 5.2-.4 10.5.4 15.2 1.4 2.2.5 4.2 1.8 6.2 2.1 3.1.4 2.8-5.8 3-8.3.4-4.3 2.3-8 3.4-11.4 6 .2 11.4-.5 17 .2 1.6.2 3.7.7 5.1.3 2.1-.6 2.4-3.9 2.9-6.6 1.5-7.8 4.4-14.6 7.2-21 8 2.8 14.6 7.9 21.5 12.2 2.3 1.4 3.8 3.5 5.9 5.1 3.3 2.5 8.4 3.6 12.8 5.3 4.2 1.6 8.2 3.2 11.9 5.4 3.7 2.4 7.2 4.8 10.7 6.7 3.9 2.2 8.1 3.4 12 5.3 4.5 2.2 8.7 5.1 13.1 7.4 1.6 4.2 2.9 8.8 5.1 12.7.6 1.1 2 2.1 2.7 3.2.7 1 1 2.6 1.9 2.7 1.8.3 3.4-2.2 3.4-4-.1-2.9-2.6-4.1-4-6.4-1.6-2.5-1.9-5.2-3.2-7.4 1.5-2 2.2-5.9-1.6-5.8 0-4.7.5-9.5.6-14.4.2-4.8-.1-9.8.2-14.7.3-6.9 1.1-13.7 1.1-21.3 0-2.4-.6-5.3-.2-7.2.4-1.7 3.2-3.3 5-4.5 5.7-3.9 12.5-6.5 21.8-6.6.5 4.4 2 8.2 3.7 11.7.6 1.2 1.5 2.1 1.9 3.2.8 1.9 1 4 1.8 5.9 2.1 5.2 4.7 10.4 7.1 15.9 3.1 7.3 4.4 15.4 6.9 23.6 1.1 3.7 2.9 7.6 3.7 11.7.9 4.4 1.6 8.8 1.6 13.6 0 2.1-.2 4-.5 5.8-6.9 9.2-17.9 23.6-28.6 25.4-1.2.2-2.6.3-3.9.3-6.7 0-14.3-2.6-21.6-3-8.7-.4-17.9 0-26.1-1.3-3.8-.6-7.3-2.3-10.9-4 1.6-.1 3.2-.1 4.9 0-8.3-2.8-16.9-5.8-25.8-8.3-4.2-1.2-8.8-2.3-13-4-2-.8-4-1.7-6.1-2.4-2.2-.8-4.7-1.1-6.6-2.1-1.7-.9-3.1-2.6-5.1-3-.2-.9-1-1.3-1.4-1.9.9-1.2 2.8-2.3 2.1-4.6-3.1-.9-6.3 4-8.3 6.1-2.1 2.1-4.4 3.8-6.2 5.9-1.9 2.2-3.7 4.5-5.2 6.8l-.2-.2c-7.4 8.7-10.9 21.7-10.9 33.7 0 4 .4 7.9 1.2 11.4 2.1 9.2 7 18.5 11.2 26.5 7.1 13.4 13.9 28.1 19.6 42.9h4.9c-5.9-15.5-13-30.9-20.5-45-4.2-7.9-8.9-17-10.8-25.4-.7-3.2-1.1-6.7-1.1-10.4 0-11.1 3.5-23.3 9.8-30.7l-.6-.5c3-4.5 6.4-8.6 10.7-11.8 1.3 1.9 2.8 2.6 4.8 3.8 3.4 2.2 7.3 3.1 11.7 4.8 6 2.3 11.7 4.1 18.3 5.9 3.3.9 6.7 2.4 9.5 2.7.7.1 1.5.1 2.2.2v.1c6.4 1.4 12.7 6.6 21.3 8.1 8.9 1.4 18.2 1 26.6 1.4 6.3.2 14 2.9 21.8 3 1.6 0 3.1-.1 4.7-.4 9.3-1.8 17.2-9.5 23.5-17.1-.7 1.6-1.5 3.2-2.3 4.8h3.8c2.4-4.6 4.6-9.2 6-14.4.2-.3.4-.6.6-.8l-.4-.3c.5-4.6 1-9.1.8-14.3zm-189.2-229c-2.9-.8-6.3-1.1-9.1-1.9.1-1.3-.2-2.2-.2-3.4 3.6.5 7.9 2.6 9.3 5.3zm-69.9-82.4c-1.2.7-2.2 1.7-3.8 1.9-.6.1-.8.6-1.3.8-1.7-.1-2.9.3-3.8 1-3.1.4-5.1-.4-6.4-1.8.7-1 1-2.3 1.4-3.5 2.6-3 6.4-4.9 10.3-6.7 5 .3 11.3-.7 15.2.6-4.2 2.3-6.7 6.2-11.6 7.7zm216.7 201.6c-.7 1-2 1.3-2.9 2.1.3-3.8.1-8.9-.5-12.8 2.5 1.4 1.3 8.2 3.4 10.7zm-40.2 13.8c2.8-1.8 5.8-3.4 8.2-5.4 1.4-1.2 2.8-3 4.2-4.5 4-4.4 7.8-9.9 10.3-15.7 3.1-7.3 5.1-15.5 7.7-23.6 2.6-8.1 4.8-16.4 5.8-25.5-1.4 16.5-3.6 33.7-8.2 47.6-4.6-2-7.2 3.7-6.7 8.3.2 2.3 2.5 4.3 1 5.9-.7-1.1-.5-2.9-1.8-3-2.3-.3-2.1 3.1-1.6 5 .6 1.9 1 3.1-.3 4.5 0-1.8 0-4.9-1.3-5.9-3.1.5-1.8 3.3-1.8 6.1 0 1.4 0 3.5-.3 4.6-.4 1.8-3.9 5.2-5.3 6.6-2.1 2.1-4.1 4.2-6.2 5.4-2.4 1.4-5.6 2.3-8.7 3.2-8.9 2.6-18.6.3-25.2-2.9 11.4-2.5 21.6-5.3 30.2-10.7zm25.4-5.3c-2.9-.3-1.5-3.3-.6-4.8 1 1.1.2 3.1.6 4.8zm-.4-13.9c-.6-1.1-.8-2.6-.3-4 .6.2.9.7 1.4 1-.4.9-.9 1.8-1.1 3zm-80.8 2.8c-3.6 3-5.6 7.5-8.3 11.4-1.1.7-3 1-4.3 2.1-.6.5-1 1.5-1.6 2.2-1 1.2-2.8 2.5-1.8 5 .8 1.8 4 1.5 4.8 3.7-2.8 1.9-3.8 6.2-5.4 9.5-.3.7-.7 1.3-1 2l-2.3-2.1c-3.1 2.5-6.4 3.5-9.9 3.5-4.4 0-9.1-1.8-13.2-4.7-1.1-.7-2.2-1.7-3.3-2.7.7-.5 1.3-1.1 1.8-1.8l.7-.9-.3-1.1c-1.1-3.8-3.7-6.4-6.9-7.7 1.3-.7 2.6-1.5 3.6-2.4 1.4-1.2 2.7-2.7 2.8-5 0-1.5-.7-2.9-1.8-3.9-1.1-1.1-2.5-1.8-4-1.9.3-1.3.4-2.8.8-4.2.4-1.2 2.1-2.3 1-4.3 1.4.7 3.2.6 5 1.3.7.3 1.2.9 1.9 1.3 4.5 2.2 12.7 3.9 19.5 3.4 2.6-.2 5.5-1.3 8.3-2.1 2.7-.8 5.5-1.4 8-2.2 3.1-1.1 6-2.8 9-4 3.3-1.3 6.5-2.7 9.3-4.2 0 .7 0 2.3.5 3-4.4 2.4-9.3 3.8-12.9 6.8zm-67.9 20.3c-.2 0-.3.1-.5.1-.4-.2-.8-.4-1.3-.6-1.9-1.1-4.1-2.4-6.2-3.9-4-2.8-7.1-6.5-6.9-7.9 0-.5.1-.8.7-1.4.7-.7 1.1-.8 1.7-.8 1.4-.2 4.9 2.6 7.5 6.5 2 2.8 3.8 5.9 5 8zm-.2-14.7c.1-1.7.3-1.9.8-2.1.3-.1.6-.1.7-.1.3 0 .5 0 1.1 1.4.5 1.3.7 3.6.7 5.8 0 1.8-.1 3.6-.3 5.3-1.5-3.3-3.1-7.7-3-10.3zm-.1 34c0 1.8-.2 3.5-.6 4.5-.4 1.1-.8 1.4-1.1 1.5-.5.2-1 .2-1.2.2-.5-.1-.3 0-.6-.4s-.5-1.5-.5-3c0-3.3 1-8 2.2-12.1.3 1.7.6 3.4 1.1 5.1.2.5.3 1.1.5 1.6.1.9.2 1.8.2 2.6zm-10-13.5c-2.4.8-4.8 1.3-6.9 1.2-1 0-2-.1-2.9-.3 1.8-1.1 3.4-2.3 4.8-3.7 2 .6 2.9 2.3 5 2.8zm2.5 4c.4-.1.8-.2 1.1-.4-1.2 4.2-2.2 9-2.2 12.8 0 1.9.2 3.6 1 5.1.7 1.5 2.5 2.8 4.5 2.8h.2c.9 0 1.8-.2 2.7-.5 2.1-.7 3.3-2.5 3.9-4.3.3-.8.5-1.6.6-2.5 1.3.9 2.9 1.4 4.6 1.4l2.1.1.3-2c.1-.7.2-1.4.2-2.1 3.4 2.9 7.3 5.2 11.6 6.8 3.7 1.4 9.4 3.3 14.8 3.4 1.7 0 3.4-.2 5-.7 2.2-.7 3.8-1.6 4.9-2.8.1-.1.2-.3.3-.4 0 .6 0 1.2-.1 1.7-.3 1.2-1.9 2.8-2.7 3.8-2.2 2.8-3.6 4.5-6.3 6.7-1.2 1-2.2 2.2-3.4 3.2-2.3 2-5.1 3.6-7.5 5.4-2.6 1.9-4.9 4.1-7.7 5.5-5.7 2.8-12.5 4.8-19.4 6.7-3.3.9-6.5 2.3-9.8 3.2-6.6 1.9-12.9 4.4-19.1 6.9.1-3.8 2.1-6.9 3.4-10.4.9-2.4 2-4.9 3-7.2 2.1-4.7 5.1-8.9 6.7-13.9 1.7-5.2 3-10.8 4.3-16.3 1.2-4 1.6-8.3 3-12zm23.4 1.8c.4 0 .9 0 1.3-.1 1.7 1.7 3.5 3.2 5.3 4.5 4.7 3.3 10.2 5.5 15.8 5.5 2.4 0 4.8-.4 7.1-1.3-.1.8-.2 1.5-.3 2-.2.8-.3 1.1-.6 1.5-.4.4-1.2 1-3 1.6-1 .3-2.2.5-3.6.5-4.3 0-9.7-1.7-13.2-3.1-5.3-2-10-5.2-13.5-9.3-.2-1-.4-2-.7-3 1.7.7 3.5 1.1 5.4 1.2zm-2.4-16.8c1.2-1.5 2-3.4 2.7-5.2.4-.2.8-.3 1.1-.3h.1c.5 0 .8.1 1.2.5.5.5.5.7.5.7s-.2.7-1.1 1.5c-1.1 1-2.8 2-4.5 2.8zm1.5 7.3c1.8.7 3.3 1.9 4.2 3.7-.2.2-.5.4-.7.5-1-1.1-1.9-2.2-2.7-3.2-.2-.3-.5-.7-.8-1zm-9.4.1c.5-.3 1.1-.6 1.6-.8l.4.9c.5-.2 1-.3 1.5-.4 1.1 1.5 2.3 3 3.1 4 .1.2.3.3.4.5-2.5-1-5-2.6-7-4.2zm1.2 13.1c.1.9.2 1.8.2 2.8v1.1c-.4-.2-.8-.6-1.1-1-.6-.6-1.1-1.5-1.5-2.5-.2-1.8-.4-3.6-.7-5.3.8 1.7 1.9 3.4 3.1 4.9zm103.7-107.7c.2-.8.9-2.7.9-4l3.9-.2 7.7-2.9c-.7 3-1.2 6.2-1.7 9.1-.3 1.7-.1 3.5-.5 5.1-1.1 4.8-5.1 8.7-5.8 13-.7 4.6.9 8.9 2.2 12.3 1.3 3.4 3.5 7.1 1.6 11.1-1.7-.2-3-2.1-5.4-2.1 1.9-7-1.8-13-3.7-18.3.4-.4 1 .6 1.9.6.9.1 1.7-.4 2.4-.6.7-4.5-4-5.1-5.6-7.9-.2-5.4.7-10.5 2.1-15.2zm-3.1-3.8c-.5.8-.9 1.6-1.1 2-1.1 2.9-.9 6-1.9 8.5-.7-3-.9-6.7-.4-10.3l3.4-.2zm14.5-31.4c-10.3-1.3-19.5 1-26.4 5.1-3.6 2.2-6.3 5.8-8.8 10.1-2.7 4.5-5 8.4-4 15.4v.1c-1.5-.5-6.4-4-9-3.8-1.3.1-3 1.6-2.7 2.9.2.9 3 1.8 4 2.2 4.3 1.9 7 3.9 8.8 8 1.9-.6 1.9.9 3.4.6 1.2-.2 1.5-2.2 1.4-3.4-.1-1.7-1-3.5-1.4-5.1-.7-2.9-1.7-7.6-.5-10.9.3-1 .9-1.8 1.4-2.7 2-3.6 4.4-8.5 8-10.7 1.6-1 3.9-1.8 6.1-2.6 2.1-.8 4.5-1.5 6.7-1.8 3-.3 6 .5 9.3-.2.1.4-.4.6-.6.8-2.4 1.9-4.5 4.3-6.6 6.9-3.7 4.6-7.5 10.9-9.3 18h-.7v1.2l.3.3c-1 4.9-1.2 10.1.3 15.5.2.9.4 1.9.8 2.9.3.8 1 1.5 1.3 2.4.7 2.3.2 4.7.8 6.9 1.7 5.9 4.6 11.3 5.4 17.6-1.9.3-4.2 1.1-4 3 .6 1 2.2 0 3.2.5-.8 1.4-2.3 5.4-.2 5.8 2.1.4 2.8-3.5 3.7-5 3.5.5 5.1 5.5 3.5 9.1-1.1 2.5-4.6 3.8-5.6 5.4-8.1 1.2-18 .6-24 3.8-1.2-.4-2.1-1.2-2.4-2.6 1.1-.9 3.9-2.6 5.4-3.7.7-.5 1.5-.9 1.8-1.3.7-1 .7-3.5-.3-3.8-1.1-.4-3.5 2-4.8 2.9-4.7 2.9-10.7 5.2-15.5 7.2-1.8.8-3.7 1.8-5.6 2.6-1.9.8-3.9 1.3-6.1 1.9-4.2 1.3-8.4 3.1-12.7 3.4-9.6.7-18.5-2.7-25.8-6.3-10.7-5.2-19.4-11.1-20-26.1-.2-4.2-.4-7 .3-10.7 1-5.5 3.1-10.2 4.8-15.7 4.1-.7 7.9-1.7 11.1-3.8 1.1-.8 3.8-3.8 4.5-5.1 1.3-2.4 1.6-6.7.5-9.5-.8-2-2.5-3-3.5-5.1 2.9-4.4 7.5-7.1 10.9-11.1.6 1.2 1.3 2.3 2.9 2.6 0 7.6 5.9 9.3 11.2 11.5.6-.4 1-.4 1.6-.5 3.2-2.8 1.5-10-1-12.3-2.1-2.1-8.4-3.6-11.5-1.3-.4-.7-.2-1.8-.8-2.2-1.2.2-.9 1.5-.5 2.4-.6-.1-.4-1.1-1.1-1.1 2.4-2.8 4.5-5.9 7.1-8.5 3.3 2 6 4.6 8.8 7.7.7.8 1.8 2.6 2.6 2.7 1.3.3 3.3-1.2 3.2-2.7-.1-2.1-4.9-5.2-5.8-6.7 11 .7 17.9-2.8 26.4-5.4 5-1.5 10-2.8 15.9-3.8 3.5-.6 7.4-1.4 11.7-1.1 7.6.5 16.8 2.5 21.3 6.1.2.4 1.1.5.8 1.1zm-130.2 38.9l.5-.3c.2-.1.4-.3.7-.4l-.7.4c-.3.2-.4.5-.4.8-2-1.4-3.7-3.9-4-5.8-.6-4.5 1.5-8.2 3-12 .1 0 .2.1.2.2 2.4 4.9 9.4 7.2 16.8 5.6 1.8-1.2 3.8-2.2 4.6-4.3.8.8 1.6 1.9 2.5 3.1-1.6.9-1.4 5 1.5 3.6.4-.2.7-.5.9-.7 1.4 1.7 2.7 3.8 1.8 6.3-.4 1.1-2.1 2.8-2.9 3.4-2.2 1.6-5.9 2.9-9.1 3.4-1.9.3-4.2-.1-6.2-.3-1.3-.2-2.4-.7-3.5-.8-.9-.1-1.8-.2-2.7-.4.1-.1.1-.1.2-.1 1.7-2.3-1.8-3.5-3.2-1.7zm23.3-12.8c.2.2.3.4.5.6-.5 0-.9.1-1.1.5l.6-1.1zm19.4-13.6c6.2-1.3 12.7 4.7 9.9 11.2-.1-1.3-.5-2.9-.3-4-2.1-3.6-3.8-7.4-9.6-7.2zm7.3 9.4c-2.2 1.1-2.7-2-1.2-3.1l-.5 1.4c1.3-2 3.4.9 1.7 1.7zm.9.7c.5.2.2 1.3.5 1.8-.4-.4-.7-.9-1.4-1 0-.5.8-.3.9-.8zm-5.2-7.5c-1.1 1.1-3 2.3-2.6 4.5-1.1-1.1-1.3-3.1-1.8-4.8 1.5-.6 3.1.2 4.4.3zm-26.6-6.8c.5-2.1 7.1-4.2 8.8-5.3 3.6-2.3 5.5-7.1 8.2-10.7 2.6-3.4 4.2-6.8 7.2-9.1.6 2.7 3.9-.4 5.1-1.3 6.5-4.7 16.2-7 26.4-8.3 4.3-.5 9-.9 13.6-.6 11.3.5 21.3 1.8 30.1 5 8 2.8 13.2 7.2 18.6 12.7 2.9 2.9 5.9 4.8 6.2 10.1-1.8-.7-4.6-.4-6.2-1.3-.7-.7.2-1.2 0-2.2-.2-.8-2.1-3.6-2.6-4.2-2.4-3-6.8-5.8-10.7-7.5-9.6-4.2-23.9-4.5-36.2-2.6-5.8.9-11.8 1.7-17.3 3.2-7.9 2.1-16.6 5.4-24.5 2.2-1.2.5-2.8 1.7-2.6 3.2.3 2 6.9 2.5 9.9 2.2 9.2-.7 18.1-5.1 28.4-6.4 5.2-.7 10.5-1.3 16-1.4 11.4-.2 21 .9 28 5.8-7.4-1.7-14.5-3.2-23.4-2.6-5.4.4-10.5 2-15.4 3.2-3.6.9-7.1 2.1-10.6 3.4-4.1 1.5-9.7 3.4-15.4 3.8-5.7.4-10.5-.8-15.4-1.4-2.2-.3-4.8-1-7.1-.3-2.6.8-5.9 3-5.8 5.9 3.2.3 4.4-3.8 8.6-1.9-.9 2.1-2.5 3.9-4 5.8-1.5 1.8-2.8 3.8-4.6 5.3-2.9 2.4-6 4.3-7.9 7.9-2.1-2.3-4.3-4.5-5.1-8.5.2-1.2-.5-3.2-.3-4.1zm-.9 11.6c.7.3 1 1.2 1.6 1.6-1 1.8-2.6 3.2-4.5 4.2-3.1.3-7.6.9-10.6-.8-1.6-.9-4.2-3.5-4.2-5 0-.9.6-1.2 1-1.9 1.3 1.9 2.8 3.7 5.1 4.6 5 .2 9.6 0 11.6-2.7zm-3.5-1.3c-4.1 1.8-9.9.9-10.6-3 2.6 1.7 10.1 1.7 12.5-.2.4 1.7-1.3 2.1-1.9 3.2zm1.4-6c-.3 2.6-6.9 3.3-10.1 1.8-1.1-.5-1.6-1.7-2.2-2.7V117c2.9.2 8.8 1.1 10.6 2.9.2.2-.1.5.2 1 .3.6 1.7 1.4 1.5 2.6zm8-35.8c-2.8-.5-5.2-2.8-8.8-3 0-1 .1-2.1-.2-2.9 3.9 1.1 7.8 2 9 5.9zm2.6-15.3c-3.9-1-7.5-1.4-12-1.3.1-1.3-.3-2.1-.2-3.4 4.7.8 10.3.8 12.2 4.7zm-20.9-28.2c5.3 1 5 10.3 5.3 16.5.4 8 1.1 16.8 1.4 25.6.1 3.1.7 5.4.8 8.2.1 2.3 1 5.6.8 6.9-.1 1.1-1.5 2.1-1.1 3.2-3.1-1.8-6.5-3.3-10.9-3.7 1.1-3.6-.7-10.2-.5-15.1.2-5-.5-11.2-.6-16.3-.1-3.5.8-6.8-.3-9.5 2-1.8 7.3-6 6.4-10.4-.6-2.9-4.7-1-6.6-.2.1-3.6.6-6.1 5.3-5.2zm-84.4 74.1c-5.9-4.1-9.6-13.3-7.8-22.9 5.1-1.4 10.1-3 14.7-5 5.4-2.3 11.1-4 15.9-7 1.5-1 3.1-1.9 4.6-3 2-1.5 4-3.6 6.6-4.6 1.8-.7 3.9-.9 5.8-1.4 8.5-2.2 16.8-6.1 24-9.9 1.3-.7 2.6-1.6 3.8-2.6 1.3-.9 2.6-1.6 3.8-2.6 3.4-2.6 6.5-6.2 10.4-7.1.8 2.5-2.3 4-4.3 5.6-1.9 1.5-3.6 3.6-5.6 5-2 1.4-4.1 2.5-5.6 3.8-1.1 1-2.4 2.6-2.6 4-.6 5.9 7.6.8 10.1.3 1-.2 1.7.1 2.7-.3-.1 1.4.3 2.3.2 3.7-2.4.7-6.5 2.7-5.4 6.3 1.6-.3 3.1-1.3 4.2-2.2.6-.5.8-1.5 1.4-1.6-.1 1.4 0 2.6.2 3.8-1.6 1.1-4.2 3-2.7 5.3 1.5.2 1.9-1.5 2.9-1.3 1 3.2-2.8 5.9.5 7.2.5 2.6.4 5.9 1 8.5-4.4.1-9.5.7-14.3 1-1.4-3.9-4.8-6.4-10.9-6.4-3.6 0-9 .1-10.9 1.4-1.2.9-2.2 2.7-1.1 4.2 4.2-1.6 15.3-2.2 18.4 1.3 1.1 1.2 1.2 2.6 2.2 3.8 4.9.3 9.7-1.5 14.3-1 8.2 1 14.9 3.8 17.6 10.4-.9.2-1.7-.7-2.6-1-4.5-1.7-10.8-1.6-16.2-2.4-2.8-.4-5.5-1.2-8-1.3-6.7-.1-13 3.2-19.4 3.2-2.9 0-5.9-1.5-8.7-2.2-4.6-1.2-10.1-2.5-15.5-1.3-2.8.6-4.9 2.4-8 3.2-1.1.3-2.3.3-3.4.6-3.9 1.3-8.2 2.9-12.3 4.5zm76.4-52c-2.6.3-4.6 1.2-6.9 1.9 1.9-1.8 4.8-3.8 7.1-5.8-.4 1.1-.1 2.7-.2 3.9zM336 227.4c-4.3-4.2-8.9-8.3-13.9-11.4-5.1-3.1-10.8-6.1-16.8-8.5-6.1-2.4-12.4-4.5-17.9-7.4-5.5-2.8-11.2-5.9-16-9.5-9.8-7.2-20.1-13.3-29.8-20.8-3.7-2.9-7.4-5-11.9-7.2-1.4-.7-2.7-1.7-4.3-1.9-.3-.9-1-1.6-1.3-2.6 4.4-2.7 8.5-5.7 12.5-9.1 3.9-3.3 8.6-5.2 13.1-8.3 4.3-2.9 9.3-5.1 14.1-7.4 2.4-1.2 5-2.2 7.5-3.2 2.4-1 5.4-1.9 7.4-3.4.9-.7 2.5-2.7 2.1-4.3-.4-1.8-3.2-1.6-5-2.4 3.9-1.6 8.4-2.3 12.5-4.2 3.3-1.5 6.1-2.4 10.6-2.2 3.1.1 6.2 1.1 9.1 1.9 2.9.8 5.9 2.1 8.8 2.2 2.1.1 4.7-.4 6.7-.8 4.2-.9 8.5-2.6 12.8-2.4 4.4.2 7.9 1.6 12.5 2.1-.1 3.2 1.1 6.4.2 9.6-.5 1.8-2.4 3.2-3.4 4.8-2.9 4.8-5.4 13.8-2.1 19.4-.5 1.2-1.5 2-2.7 2.6-.9 2.2-1.6 4.2-2.1 7.2-.6 3.5-.1 5.6 1.1 9.3 1.8 5.8 3.2 10.7 7.4 14.3 1.1.9 6.7 5.1 6.7 1.3 0-1.4-3.4-2.8-4.5-3.7-3-2.7-4.8-6.7-6.1-11.4-.5-1.6-1.2-3.5-1.3-4.8-.1-.7.3-1.3.3-2.1s-.3-1.6-.2-2.2c.1-.5.5-.9.6-1.4.3-1.3.2-2.8.6-4.2.3-1 1.3-1.6 1.3-2.7 3.1 3.5 9.5 4.3 15.1 4.8-1.8 4-2.9 9-4.2 13.9-.3 1.2-.8 2.4-.8 3.7-1.4-.8-3.1-4.3-3.7-6.9-.5-2.2.1-4.4-2.1-4.3-.8 0-1.1.5-1.6 1.1.7 6.4 2.7 11.6 7.2 14.3.1 2.8 0 5.7.2 8.3 1 12.7 8.6 20.1 17.6 25-.1.4-.9 0-.8.6 0 4-.5 8.4-1.9 11.7-1.7 1-3.2 2.4-4.7 3.9 0-2.5-.2-5.1-1-7.3-.7-2.1-2.5-4.5-5.4-4.5-.8 0-1.5.2-2.2.4-2.9 1-3.9 3.9-3.9 6.3-2.2-2.3-4.7-4-7.8-4.2-1.7 0-3.5.8-4.8 2.1-1.3 1.3-2.1 3-2 4.6.1 1.9.8 3.6 1.8 5.1-1.1-1.2-2.4-2.6-3.6-3.8zm-10.7 80.7c-.4-5.1-3.1-9.3-5-13.3-2.5-5.5-5.3-10.5-8.8-15.1 6.5-3.3 13.9-5.5 19.4-10.4 1.5-1.4 4-3.8 3.7-6.3-.1-1.2-1.5-2.3-2.2-3.5-2.3-3.5-4.8-7-6.7-10.1 2.3-.4 4.4-1 6.5-1.7 2.5 1.7 5.4 2.4 8.3 2.4 1.5 0 3.1-.2 4.7-.5-1.2 3.5-1.7 7.4-2.6 11.3-.6 2.7-1.6 5.6-2.2 8.5-.7 3-1.2 6-2.1 8.6-.8 2.5-2.2 4.8-3.5 7.2-4 6.9-6.8 14.8-9.5 22.9zm75.6-9.1c-5.7-1.1-12.2 0-18.1-.5-.7-.1-1.8-.4-2.4-.3-2.7.4-4.5 5.6-5.3 7.9-1.3 3.6-1.9 6.8-2.4 10.7-6-1.7-13.6-2.6-21.3-2.2-2.7.1-5.3-.3-7.9-.2-5.5.3-11-.4-15.9 1.4.1-.8.5-1.3.6-2.1 13.4-6.4 28.4-8.7 41.3-13.8 3.3-1.3 6.7-2.4 9.6-4.2 5.3-3.3 10.8-7.7 15.5-12 2.5-2.2 5.2-4.2 7.2-6.6 1.6-1.8 2.7-4.1 4.3-5.9.9 1.4 1.9 2.7 2.9 4-3.7 6.9-6.3 14.9-8.1 23.8zm103-42.8c-1.3 0-3.8 2.1-3.8 3.5-.1 1.6.6 3 1 4.6.4 2.4.3 5 .2 7.7-.6 14.3-1.5 32.2-1.3 45.3-2.9-1.6-6.2-3.7-9.3-5.3-2.2-1.2-4.7-1.9-7-3s-4.7-1.8-6.9-3.2c-5.9-3.7-11.9-8.4-19.2-10.7-2.3-.7-4.9-1.7-7.5-2.6-2.4-.8-5.3-1.9-6.9-3-1.1-.8-1.8-2.1-2.7-2.9-1-.8-2-1.5-3.2-2.2-6.5-3.9-12.7-9.4-20.7-12 .8-.8 3.9-4.3 1.6-5.1-1.8-.6-3.5 2.1-4.6 3-2.9-2.3-3.8-6.6-3.2-11.5.5-4.5 4.4-8 5.1-12 .7 1.7 2.9 1.9 5.4 1.8.6-.1.3.8.2 1 3.5.2 6.8.6 10.4.8.2-.6-1.2-1.8-1-2.4 13.3-.4 22.7 7 34.8 7.7 6.4.4 12.5-1.7 17.5-3.7-1.4 1.8-2 9.5 1.9 9.3 1.6-.1 1.4-1.8 2.2-3 .5-.8 2.2-1.7 3.4-2.1.8-.2 1.7 0 2.6-.3 1.6-.5 3.2-2.6 4.3-3.4 1.7-1.2 3.5-2.8 5.1-2.6 2.1.4 3.2 5.2 3.5 7.2-.8-.3-1.1-.9-1.9-.9zm5-2.1c-1.6-3.2-1.7-9.3-6.6-8.7-2.4.3-5.4 2.7-7.2 4.3-1.4 1.2-1.8 1.5-3.8 2.1-1 .3-2.1.7-2.9 1.1-1.7.9-2.6 2.7-4 3 .5-2.8 2.4-4.9 4-7.2.5-.7 1.2-1.6 1.8-2.1 1.6-1.4 4.5-2.1 6.2-3.8.5-.5 2.2-2.6 2.4-3.5.2-.7-.2-1.4-.2-2.1.3-2.5 2.6-3.5 3.5-5.9.6 1 .9 2 1.9 2.2 6.9 1.8 6.2-9.9 4-13.8.5-1.5 1.2-2.7 1.6-4.2 1.9 2.8 3 6.4 4.5 9.6-1.5 2.7-5.5 4.6-4.3 9 2 0 2.5-1.5 2.9-3 1.6-2.2 3.6-3.4 6.2-5 1.1-.7 2.7-2 3.7-2.1.5-.1 1.2.3 1.6.2 2-.4 4.1-3.9 4.6-6.7.8-4.3.3-8.3 2.7-11.1.3 0 .3.2.5.2-.5 3.7-2.4 5.7-2.1 10.7.2 2.3 1.3 4.5 1.1 6.9-.4 4.9-5.4 8.5-5.6 14.1-.1 2.9.9 5.7 1.8 8.3-7.2 1.4-13.4 4.5-18.3 7.5zm-407 90.1c-1.8 1.1-4.3 2.5-6.7 2.4-3.7-.2-5.9-3.8-7.4-5.7-.4-.6-.7-1.6-1.4-1.6-.2 4 2.5 5.9 4.1 8.7-1.4 2.5-4.7 2.5-7.3 3.5 4.1 1 6.8 0 9.3-1.4 1.5 1.7 3.4 3.1 5.8 4.1-1.3-1.6-3.5-2.6-3.5-5.2 4.8.9 7.3-1.6 8.7-5.4-.6-.4-1.1.3-1.6.6zm45.8 80c2.8-2.3 5.3-4.7 8.1-7 2.7-2.2 4.9-5 7.6-7.2 4.2-3.5 9.1-6.5 13.6-10 1.4-1.1 3.8-2.6 3.3-3.8-.7-1.9-5.3.2-7.1.9-2.9 1.1-5.6 2.5-8.1 3.4-1.9.6-5.6 1.3-6.3-.4-.7-1.6 1.7-3.5 3-4.6 3.2-3 6.2-5.2 9.4-7.9 1.4-1.1 4.2-2.3 2.8-4.7-1.4-.1-2.5.8-3.7 1.3-4.1 1.7-9.2 2.9-14.1 3.8-4.7.9-9.4 1.9-13.1 1.5-1.6-.2-3-.9-4.5-.9-3.2.1-8.6 2.2-10.2 4.6-.8 1.1-.9 2.8-.9 4 0 1.1.5 2.4.3 3.7-.4 2.8-4.1 4.2-3.2 7.7l.8 2c.8 1.1 1.6 2.3 3.2 3.3 1.2.8 3.6 1.3 4.3 2.3.5.7.6 1.7.8 2.4 1.8 4.3 5.4 6.2 9.2 6.7.8.1 1.9-.1 2.7-.2l2.1-.9zm-12.1-4.6c-.7-1.6-.4-3.3-1.8-5-1.2-1.4-3.9-1-5.4-2.1-1.8-1.3-2.8-4.1-2.2-6 .6-2.2 3-3.1 3.5-5.3.6-2.8-1.6-6 .3-8 2.1-2.2 7.3-2.6 9.7-2.1 1.2.2 2 1 3 .9 3.6-.3 6.1-2 8.8-.4.5.3 1.7 2.1 2.6 1.6 1.2-.7-.8-2-1.3-2.7 4.3-1.1 9.3-2.8 14.1-4.5 1.5-.5 3-1.6 4.5-1 0 1.4-1.7 2.1-2.9 2.8-3.6 2.3-10.4 5.4-11.7 8.7-1 2.5 1.1 7 4.2 6.2 5.8-1.5 12.8-6.5 17.8-6.1-1 1.5-3 2.2-4.7 3.2-5.1 2.8-10.4 6-13.4 9.7-.2-.7-.5-.9-.9-1-2.7 2.1-3.4 5.3-5.8 7.7-1.2 1.2-2.6 2.3-3.9 3.5-1.7 1.7-3.5 3.4-6.6 4.2-2.8.6-6.5-1.1-7.9-4.3zm211.5-278.3l.7-1.2c-1.7.9-1.5 5.1 1.4 3.6 3.2-1.5-1.2-4-2.1-2.4zm6.8 4.4c-.1-.8.3-1.5 1.4-1.4l-1.4 1.4c.2 1.3 1.6 2.6 3.3.7 3.2-3.6-5.1-4.4-4.1 0l.8-.7zm-251.4-5.5c7.1 1.9 7.3-6.6 7.9-12.4.4-4.1.8-8.7.7-12.6-.1-2.9-.9-6-.7-8.7.1-1.2.8-2.5 1-3.9.7-5.7-1.1-14.2 3.8-16.1 2 7.4-1.7 14.4 1.8 21.9.4.8 1.4 1.8 2.1 2.7 2.2 2.9 4.6 4 8.7 3.4 5.2-.7 9.8-6.5 6.8-10.8-3-1.3-3.3 2.9-6 2.8-.6 0-1.9-1.2-2.4-2.1-4.1-7.5 1.5-21.1-4.2-28.2-4.1-5.1-12.4-.3-14.3 4.2-.1-3.1-2.3-4.9-4.2-4.4-6.4 1.7-2.4 16.1-1.4 25 .5 4 .4 8.4.6 12.2.2 4.1 1.1 8 1 11.6-.4 6-2.8 10.9-1.2 15.4zm1.6-44.4c-.7-5.8-2.6-11.9-.2-16.4 1.6 2.4.2 9.9 3.2 9.6 1.8-.2 1.2-2.4 1.7-4 .9-3.5 3.3-7.7 8.6-8.1 8.2 4.1-.7 28.2 9.3 32.5 1.1.5 2.7.4 4.5-.5-1.1 2.9-5.7 3-8.6 2.4-.9-2-2.7-2.9-3.3-4.8-2.8-7.7 1.9-16.6-2.6-22.7-9.4-.5-8 10-8.2 17.3-.2.7-1.2.8-1.4 1.6.3 6.3 1.1 12.7.8 18.6-.3 5.8-.7 11.5-2.9 16 2-11.8.9-27.1-.9-41.5zm267.2 48.8c-2.3-1.7-4.5 2.2-1.9 2.9l-1.7-.2c1.7 2.8 6.2-.7 3.6-2.7zm-10.6 2.1l-.2.2c-1.5 2.2.2 5 2.1 2.8 1.2-1.3-.1-3.4-1.9-3zm2.5-2.9v-1.4c-.1-1.1 0-2.9-1.2-3.3-1.1-.4-2.7.9-2.9 1.9-.4 2.1 2.7 2.2 4.1 2.8zM104.4 299.4c-.8 3.9-1.1 7.9-1.9 11.4-.6 2.6-2.4 7.1-4.8 6.7-2.3-.4-2.7-4.3-3.1-6.5-1.1-5.6-1.5-10.5-2.2-15.9-.3-2.4.4-6.2-3.3-6.4-1.1 1.4-.9 3.3-1.2 5-1 5.7-3.2 12.2-5.6 18.3-2.3 5.8-4.4 11.7-7.4 15.6-1.3 1.7-3.1 2.7-4.1 4.3-2.2 3.6-3.5 11.1-1.9 14.5.7 1.6 2.4 2.9 3.9 3.8 1.3.8 3 1.1 4.3 2.2 2.8 2.4 1.8 7.5 6.3 8.9l2.8.5c1.8-.1 3.7-.2 5.9-1.2 1.8-.8 3.9-3.1 5.5-3.2 1.1-.1 2.2.5 3.2.7 6 1 10.6-1.7 13.8-5.5.6-.8 1.2-2.1 1.7-3l.5-2.9c-.6-4.7-1.5-9.2-2.2-13.9-.6-4.5-2.1-8.9-2.7-13.5-.9-7.1-.9-14.7-1.7-22-.2-2.3-.3-6-1.9-6.3-2.6-.7-3.4 6-3.9 8.4zm3.7.8c-.5 7.6-.6 15.7 1.4 21.6-.9-.3-1.4-.1-1.7.4.5 4.4 3.6 7.4 4.5 11.8.5 2.1.8 4.5 1.2 6.7.6 3.1 1.4 6.2.1 10.2-1.2 3.6-5.8 6.6-10.2 6-2.2-.3-3.9-1.9-6.8-1.5-2.3.3-3.8 3.6-6.1 4.5-2.7 1.1-6.5.2-8.2-1.7-2-2.2-1.4-5.5-3.4-7.6-2.6-2.6-7.8-2.4-8.7-6-1-3.9 2.2-9.8 4.4-12.3 1-1.1 2.6-1.5 3.1-2.7 2.1-4.2 2-8.2 5.7-10.1.7-.4 3.6-.4 3.6-1.7 0-1.8-2.8-.6-3.9-.5 1.7-5.5 3.4-12.2 4.8-18.7.4-2.1.4-4.5 2-5.7 1.5 1 1.1 3.3 1.1 5.2 0 5.6-1.2 15.3 1.5 18.9 2.1 2.9 8.5 3.6 9.7-.4 2.4-7.5 1.6-18.7 5.5-23.9 1.1 2.3.5 5 .4 7.5zm35 113.3c-1.5-.7-3.4-1.8-4.3-3.4-1.4-2.5.1-5.4.7-7.1.2-.5.8-1.1.4-1.6-2.6 1.5-2.8 4-4 6.2-2.2.1-3.5-2-5.2-3.3 1 3.1 2.8 4.4 4.7 5.4-.5 1.7-.6 3.5-.3 5.5.5-1.5.3-3.4 2-4.4 1.4 3.5 4 4.1 7 3.5.1-.5-.6-.6-1-.8zm164.4-95.1c.8.7 2 2 3.4 1.9 2.6-.2 4.9-5.9 1.9-7.5-.7 0-1.1.3-1.6.5-1.6-.8-2.1-3.2-4.2-3.2-1.7 0-3.7 2.6-3.2 4.6.2.9 3 3.1 3.7 3.7z" fill="#ed7d00"/><path d="M20.3 224.7c.7 1.6-.1 2-.6 2.7 3.9 1.3 3.6 8.6 7.5 9.8-1.2 1.1.5 2.1 1.7 3.4 2.8 3.2 10.6 7.2 14.5 7.5 2.6-1.4 4.5.6 9.9-1.2 0-.6-.3-1.4.2-1.6.2.4.2 1 .7.9 6.7-5.2 12.3-7.2 13.4-17.2 2-.1 0-5.8 2.2-5.7-.6-7.2-.2-8.6-1.8-16.6.5-.1.7.3 1.1.3-1.5-10.1-3.4-24.6-4.4-37.4-1.3.1.1-3.1-1.3-4.5 2.9-.4 5.2-1.2 7-2.3.2.8.2 1.8 1.3 1.4.9-2.6-1.8-13.6-2.4-17-5.2-.3-12.7.3-18.4 3.7-5.3-1.3-8.7 1.5-15.6 1.7-.3 1.3-1.7 4.4-2.9 4.7.9 3.2.7 5.6-.3 7.5 5 1 9.7-1.5 15.2-1 .9 10.4 6.1 24.2 5.6 35-.1 2.2 2 6.5 1.6 9.2 0 .3-.1.4-.1.5 0-.1.1-.2.2.6.3 1.9-2.4 4.6-.4 6.9-.2.1-1.1-.4-1.1-.3-.6 4.9 0 10.3-4 13.4-8.1.9-13.5-8.6-12.7-15.3.1-.5 1.2 0 .8-1.2-3-12.1-8.6.8-15.9-.4-.4 3.9-3.8 3.6-5.1 7.2l.2 1c2.4.1 2.1 5.4 3.9 4.3zm162.9 33.6c1.5.3 1.8-.3 2.1 1.2 1.6-1.1 2.9-.2 5.2-1.3 0 1.8.7.3.9 1-1.3 2.7-1.3 8-2.5 10.1.1-.1-.3-.8-.5-.7.4 2.4-1.5 4-1.2 6.4.4 2.9 1.4 4.9 1.4 7.9 1.1-.6.8.7 1 1.4 8-1.3 15.4-3.9 26.2-6.9-.6-4.9-.5-5-1.8-8.2-3.5 1.1-4.6.4-6.2 1.9-4.8-.7-6.3.8-11.1.8l-.3-1.9c3.9-4.5 6.9-8 9.3-13.2 1.1.9 1.4-1.8 2.6-.8-.3-1.7-.8-4.1.4-2-.4-3.4-1.1-4.5-1.6-7.1-3.1-.9-7.8.8-9.1 1.2-1.1.3-2-1-2.9-1 0 0 .1.8-.2.8-1.2 0-3.5-.6-4.8 1.2-2-.6-4.9 1.4-8.4.7.5 2.3 1.4 3 0 4.6 2.1-.9 1.5 3 1.5 3.9zm-44.1-49c-1.9 8.9-4.4 17.3-8.4 24.7.1 1.7.6 2.8 1.4 3.5l-2.2.4c2 5.4 3.6 12.5 6.8 17.6 4.2-.1 7.1-4.3 10.9-1.9-.5-3.5 1.2 1.4 3.6-.6 0-.9-.5-2 .3-2.3.7 3.6 6-1.2 6.8.3 0-.9-.5-2 .3-2.3 1.1 2.1 1.4.7 2.2-.4 1.9 2.9 8.7-3.4 12.6-.7.1-.6-.2-1.4.5-1.6.7 2.6 3.1-.7 4.6.7-.8-1.8-.2-2.7 1.8-2.6-4.5-6.9 1.1-17.2-6.5-19.9.1 6.7-12.6 4.1-15.2 7.2-.7-2.4-1.5 1.6-3.3-1.7.2 2.1-3.4 1.8-5.1.9-.1-1.1-.7-2.6.2-3-.1.3.7 1.7 1 1.3 4.5-7.5 5.9-19.5 14.5-24.3 1.5-5.7-1.8-13.4-1.5-17-4.5-.4-8.7.1-14.5 2.5l-.4-2.2c-4.5 2.4-6.7-.4-9.3 2.4-3.4-1.9-9 1.9-11.6 2 .2 0-1.5-1.9-1.8-1.9-1.1-.2-2.5 1.4-3.5 1.4-1.7-.1-4-3.6-6.7.4 1.3 8.8 1.9 13.4 5.6 19.3 9.1-.9 9.7-2.2 16.9-2.2zm-32.7-39.2c-4.7 2-7.1 1.1-10.3 5-5.7 0-10.9.4-13.4-.8l.3 1.5c-4.8.2-5.3 3.5-8.1 5.1.1.9.3 1.7.4 2.6-2.8.8-1.4 8.3-3.4 11.2 1.1 11.8 3.7 19.4 12.3 22.2 3.6-1.8 4.7.6 6.6-1.7 3 1.9 8.3-4.9 9.8-7.5.7.7 1.5 1.2 2.4 1.7.5 6 3.9 6.3 9.4 5.2 1.8-12.4-.1-24.8-2.4-41.4-2.1.4-2.1-2.4-3.6-3.1zm-12 25.4c-1.2-1-.8 4.3-.7 5.4-4.9 2.7-5.2-2.4-7.6-4 .4-4.5 2.2-8.1 4.4-11.3 1.6-1.3 2.3 2.2 2.1-.4 1.7 2.4 1.6 7.4 1.8 10.3z" fill-rule="evenodd" clip-rule="evenodd" fill="#ed7d00"/></svg>