<svg xmlns="http://www.w3.org/2000/svg" viewBox="0 0 566.9 467.7"><style>.st0{fill-rule:evenodd;clip-rule:evenodd;fill:#ee7f00}</style><g id="Layer_1"><path class="st0" d="M194.5 28.7l1.8-1.8c3.4-2.6 6.6.8 9.8 0 1.5-.4 2.7-1.4 3.9-2 1.4-.6 3.2-1.1 4.8-.8 3.3.7 8.1 5.5 9.6 9 .7 1.6.5 3.4 1 5.2 1.2 4.2 4.4 8.9 7.5 13.6 3.2 4.9 6.7 9.9 10.4 13.6 1.1 1.1 2.5 1.9 3 3.5-2 2.5-4.5.1-6.4-1-4.3-2.3-8-4.6-12.7-6.7-1.8-.8-4.9-2.6-6.4-1.2-1.6 1.6.8 5.2 2.4 7 2.1 2.4 4.8 4.7 7.3 7.3 1.5 1.6 5.9 5.7 4.1 7.3-1.1 1-3.8-.9-5.6-1.9-5.7-3.3-11.2-7.3-16.9-10.3-3.6-2-7.6-3.1-11.2-5.1-3.8-2-7.5-3.7-11.2-5.7-.6-.6-1.2-1.3-1.9-1.9-.4-.8-1.1-2-1.3-2.8-1.1-4.3-.7-9.1 3.2-12.9.6-.6 1.7-1.1 2.2-2 .8-1.2.2-4 .5-5.7.3-1.9 1.3-3.4 2.1-4.7zM226 52.3c-.9-.7.5-2.9.6-3.5.6-3.7-2.4-5.7-4.3-9.4-.5-1 0-2.3-.3-3.7-.6-2.9-3.3-8.3-6.6-9.6-3.1-1.2-5.6 2.7-8.9 3.2-2.6.4-4.7-1.8-7.3-1.5-2.3.2-4.9 2.6-5.6 5.1-.5 2.1 1 4.9.1 6.8-1.2 2.3-3.2 2.7-4.6 4.2-2.8 2.9-3 7.8-1 10.5 2.2 3 4.9 4.1 7.5 5.3 1.9.8 3.7 1.9 5.5 2.6 3.7 1.6 7.5.9 10.9 2.9.1.5 0 1-.6 1.5 5.3 1.7 11.2 6 16.4 10.3 1.8 1.4 3.4 3.3 5.5 3.7-1.8-5.6-10.3-10.9-14.5-16.6-2.2-3 1.6-7.3 4.8-7.3 4.1 0 10.5 5.9 14.6 8.8 1.4 1 2.9 2.5 4.4 1.9-.1-1.8-1.8-3-3.1-4.4-4-4.4-8-9.2-11.1-13.3-.5.7-1.1 3.5-2.4 2.5z"/><path class="st0" d="M193.8 41.4c2-1.2 4-1.9 6.1-2.1.2-2.5.9-5 3.8-7.5-.7 2.4-2.4 4.7-1.3 7.1 2.8.3 5.6-.6 8.4 1.6-.4.6-1.2.2-1.9.2-2.2.1-6-.2-8.1 2.4-1.4 1.7-1.7 4.3-1.8 6.1 0 .5.1 1.3-.3 1.6-2-3.1-2.5-6.1.7-9.2-1.8-1.4-3.7-.3-5.6-.2zM356 29.7c1.1 1.3-1.3 3.2-2.2 3.7-2.5 1.3-5.8 1.8-8.7 3-7.9 3.3-16.1 7.3-21.9 12.7 0-1.3.9-2.4 1.7-3.2 7.2-7.2 20.4-11.8 30.8-16.1.2-.1.3-.1.3-.1zm25.1 3.7c1 1-1.5 2.7-2.2 3.7-5.9 2.2-11.7 2.6-17.9 3.5-6.1.9-11.7 2.4-17.6 2 .3-4.5 5.7-3.7 9.9-4.2 2.2-.3 4.3-.6 6.5-1 7-1.2 15.1-1.1 21.1-4h.2zM370.9 51c-.1-2.3 1.5-2.9 2.7-4 10 1 18.2-3.9 25.3-7.5.3 0 .4.1.5.2-2.2 4.5-8.5 6.3-14.2 8.4-4.5 1.9-9.7 3.7-14.3 2.9zm40-9.9c-4.1 9.6-19.1 12.1-30.1 12.9.9-4.2 5-3.6 9.7-4.5 6.9-1.2 16.2-2.9 20.4-8.4zm6.3 8.2c.4-.1.5.2.5.5-2.8 3.4-5.2 7.2-9.4 9.2 2.1-4.1 6.5-5.8 8.9-9.7zm3.4 3.2c.4-.1.5.2.5.5-2.4 3.5-3.4 8.4-7 10.7 2.2-3.7 3.4-8.4 6.5-11.2zm-74 23.9c.9.3 1.6.7 2.2 1.2 1 .1 1.1-.7 1.7-1 1 .6 2.4.9 3.2 1.7.9.1.6-.9 1.5-.7.8.2 1.4.6 1.7 1.2.8-.1 1-.7 1.5-1 3 3.2 6.9 10.5 1.7 13.7-.9-.5-.2-1.2-.5-2.2-.8-.2-.5.7-1.2.5-.7-.9-1.2-1.9-1.5-3.2-1.7.8-2.1-.9-3-1.7-1.1 0-.9 1.2-2 1.2-1-1.7-3.1-3.6-5-3-2.8-2.3-6.7-2.1-11.4-2.2-1.1.5-2.2 2.2-4 1.2-1 4-6 1.2-8.2 0 2.3-3.6 7.9-4.9 11.9-6 3.5.5 6.5-1 9.9 1 1 .1.9-.6 1.5-.7z"/><path class="st0" d="M354.8 99.5c-1.2-3.7-3.6-6.1-7.2-7.5-.1 1.7-1.9 3.4-3 5 .4.7 2.3-.1 2.7.5-.4 1.7-2.8 1.2-4 1-3.2-.4-6.8-2.5-9-3.5.2-.4.6-.7.8-1.2 1.4.3 2.1 1.2 3.5 1.5-.1-1.5.7-3.2 1.7-4.2-2.6.3-6.6.3-8.9 1.5.1-1.1 1-1.3 1.2-2.2 2.2-1 5.7-1.3 9.2-1.5 3.2-.1 7.1-.1 9.4 1 2.8 1.2 8.3 7.4 3.6 9.6zM342.4 94c.1-1.5.1-1.7.2-3h-1.7c-.3 1.8.6 2.4 1.5 3zm55.1-3.7c3.6-.5 6.2-.4 9.7.2.6.5-.2 1.1.2 1.5 1.3-.3 1.8-.1 3 .2.5.5-.1 1-.2 1.5 3.6.3 2.9 4.1 4 6.5-.9 1.2-1.7 2.6-3 3.5-1-1.3-3.2-2.7-3-4.5-1.3-.7-3.3-.9-3.7-2.5-2.5 0-2.4-.2-5-.3-.4-.5 0-.3 0-1-4.7.9-10.9-.6-14.7 2-.3-.1-.2-.5-.5-.5-2.8.6-4.3 2.5-6.5 3.7-3.7 7.6-.5 17.1 3.7 22.1.3 2.8 1.4 3.5 1 7.2-2.5 6.9-12.4 8.1-17.6 4.7-5.1 1.1-8.1-3.3-11.9-2.2-6.6-2.4-4.2-12 .7-14.4-.5 1.3-1.2 2.4-2 3.5.3 2.2.6 4.2 2 5.7 1.4 1.4 3.2.7 5.7 1.5 1.6.5 3 2 4.2 2.2 1.3.3 2.8-.3 4.2 0 1.5.4 2.8 1.5 4.5 1.7 2.7.3 5.1-.1 7.2-.7.2-1.9-.7-3-1-5-3-4.6-5.6-9.5-5.5-15.4.2-9.1 6.3-15.7 14.4-18.4 2.4-2.1 6.2-3.8 9.7-4 .4.4.4.8.4 1.2zm-69.5 1c0 .9-.8.8-1 1.5.8-.2 1.8-.3 2.7-.5-.5 2.3-4.1 1.6-6.2 2.2.1-1.4 1.6-1.5 3.2-1.5-1-.8-2.8-.9-4.2-1.2.3-2.8 3.6-.6 5.5-.5zm81.9 18.9c-.3.6-.6 1.2-1.2 1.5-1.1-.1-1.9-.4-3.2-.2.4-2.5 2.3-1 4.4-1.3zm-3.2 2.4c0 1.1-.8 1.7-1.7 1.2.2-.8.8-1.6 1.7-1.2zm-64.8 12.2c.2 0 .2.3.2.5-2.5 4.2-7.6 5.8-12.7 7.5-1.7 2-2.8 4.7-3.5 7.7-1.3-3.6 2.5-10.2 6-11.4.6-.2 1.4-.1 2-.3 2.9-.8 5.8-3.2 8-4zm-22.9 10c.4-.1.5.2.5.5-1.8 2.4 0 6.2-.2 8.7-3-1.5-1.6-6.8-.3-9.2zm65.6 15.1c.3 2-5.6 2.5-7.7 2.5-8.9 0-15-2.7-22.4-4.5-8-1.9-16.8-2.9-20.4-7.7-.2-.7.5-.5.5-1 1.7 0 2.9 1.8 4.5 2.7 4.4 2.6 10.6 3.3 16.9 4.7 9.5 2.3 17.8 6.6 28.6 3.3zm4-9.7c6.3 3 3.3 13.7-1 16.4.9-2.7 1.2-5.9 2.5-8.2-.8-2.2-3.3-5.7-1.5-8.2zm-14.2 14.4c-3.4 4-11.2 1.6-16.9.5-5.5-1.1-11-3.1-12.9-6.2.3-.2.5-.7.7-1 1.7.7 2.7 1.9 4 3 7.9 2.8 17 6.3 25.1 3.7zM356 171c-.5 2.5-1.1 4.9-2.5 6.5-1.6-1.9-.9-8.1 2.5-6.5zm-72.3 134.2c4.7.6 7 1 11.9 1.2-1.8 7-.8 17.3-8.4 20.6 0-4.5 1.7-9 1-12.9-2.6-.3-3.8.8-5.2-.7-8.5-.9-16 2.8-23.8 1.5-.4.1-.6.4-.7.7-.4-.1-.6-.4-.5-1-5.5 1.5-20.1-.7-26.6-.2.8-3.8 3.5-5.6 6-7.7 4.7.3 15.3-1.1 18.6 1 8.6-.9 18.8.3 27.7-2.5zm30.4 9.4c.9-.2.3.6 0 .7 2.8 1 4.1-.6 6 .5 5.2 3.2.7 11.5-3 12.9-3.9 1.5-8.4-1.9-7.7-6.7-2-1.2-5.2-.7-8.7 0 1.1-4.4 6.7-5.1 10.2-4.5 1.2-.7 1.9-2.1 3.2-2.9zm-1.5 5c.7 3.8 3.1 5.6 6.7 5.5-.3-4.2-3.3-6.4-6.7-5.5z"/><path class="st0" d="M187.9 466.2c1.3-7.2 4.5-12.2 8.2-17.1 8-10.7 19.3-18.4 29.8-25.8 1.8-1.3 3.6-2.5 5.5-3.7 1.9-1.2 4.1-2 6-3.2 3.8-2.5 7.4-5.2 11.2-7.5 7.9-4.7 15.7-9.1 22.6-14.4-6.8 2-13.9 1.9-20.1 3.7-6.7 1.9-13.3 4.2-19.9 6.2-6.4 2-13 2.9-20.1 3.2-7 .3-13.7 2.2-20.1 2.5-6 .2-10.5-.6-16.1-1.5-.2-1.1-1.1-.3-1.2-.5-2.8-2.1-4.9-3.5-7.2-5.7-1.8-1.7-4.4-3.1-6.7-5-2.6-3.3-4.2-4.6-5.5-9.4-.3-1.2-.4-2.3-.5-3.5-.5-6.9.5-16.1 1.5-22.9 1.4-9.8 4.8-20.2 8.2-29.6 5-13.6 12.2-28.1 17.6-41.5 1.9-4.7 3.5-9.3 5.5-13.9 4.1-9.5 7.8-19.1 11.4-28.3 7.6-18.9 18.2-34.8 33-46.5 7.5-5.9 14.8-12.2 24.1-15.2.6-6 7-7.6 11.4-10.7 8.7-6 16.5-14.7 25.1-19.9.5-4.4 1.3-8.8 2.2-13.2.9-4.4 1.4-9.5 3-13.2.6-1.4 2.9-2.7 3.2-4.2.2-1.2-.6-3.1-.7-4.5-.2-2-.2-3.6-.7-5.2-1.7 1.5-4.9 2.1-7-.5-1.6-2-1.7-5.1-2-7.5-1.9-5.3-6.7-12.9-5-19.4.7-2.5 3-5.9 5.5-7.2 1.6-.9 4.2-.9 5.7-1-.7-11.1-2.4-23.6 2.7-33.5 1.6-3.1 4.3-6.7 7-9.7 2.6-3 5.7-6.2 8.7-8.2 10.6-6.9 23.2-12.4 37-15.9 7-1.8 14.7-1 22.1-.7 3.3.1 6.6.9 10.2 1.7 3.3.8 7.2 1.5 9.7 2.7 1.9 1 3.6 2.5 5.5 3.5 1 .6 2 1.2 3 1.7.9.5 1.6 1.1 2.2 1.5 1 .5 1.5.7 2.2 1.2 3.4 2.4 6.2 5 9.4 7.5 2.5 3.2 5.1 6.3 8 9.2 1.2 3.4 2.9 5.8 3.5 9.2.5 3.1-.4 6.2-.5 9.7 0 1.5.4 3.1.5 4.7.1 2-.4 4-.2 6 .2 2.5 1 5 .7 7.5-.2 2.2-1 4.7-1.5 7-1.6 8.3-3.4 14.3-7 20.4.6 0 2-1.2 2.2 0-1.9 4.3-2.9 9.2-5 13.7-.9 1.9-2.5 3.5-3.2 5.5-2 5.2-2.7 10.6-4.5 15.4-1.6 4.4-4.6 8.5-7.2 12.7-6.8 10.9-13.9 23.7-26.6 27.8-.9.3-2.6.2-2.7 1.7.3.7 1.1-1.5 1.5-.7-.1 1.9-.5 1.6-1.2 3.5 3.3 1.4 4.7 4.2 7.2 6.7 1 1 2.2 1.8 3.2 2.7 1.8 1.8 4.1 5.2 6 5.7.7.2 1.7-.4 2.5-.2.3.1 1.3.9 2 1.5 2.1 1.8 4.2 2.9 6 4.2 3.6 3.5 8 5.9 11.9 8.9 2.8 2.2 5.4 5.8 8 8.2 1 .9 2.2 1.6 3 2.5.7.8 1.3 2.2 2 3.2 2.3 3.6 4 7.4 6.5 11.2 2.4 3.7 5.1 6.7 7.2 10.2.7 1.2.8 2.7 1.5 4 2.5 4.9 7.5 8.6 9.9 12.9 3.1 5.5 4.1 10.9 7.2 16.4 2.4-4 9.9-5.7 14.2-3.2 1.3-7.8 8.2-14.5 15.9-12.7 2.1-2.4 5.4-3.7 7.2-6.5-2.3-6.5 3.5-11 8.4-12.7 2 1 3.7-.2 6 .2 1-.1 2.3-2.2 3.5-3 4.1-8.6-1.1-14.3-6-17.6-7.8-3.1-15.4-6.8-23.1-10.2-5.6-2.5-11.9-4.7-16.9-7.7-1.9-1.2-3.7-2.5-6-3-4.5-2.9-7.3-7.3-10.9-11.2-1.6 1.2-2.8-.1-5-.7-4.1-3.3-6.9-7.9-11.7-10.4.2-1.8-2.2-3-3-4.7-.4-1.7-3-2.6-3-4.7 0-3.5 6.9-5.7 8.2-8.7-1.4-2.5-1.3-5.5-2.5-8.4-1.6-4.2-5-9.2.5-11.7 3.9 1.9 6.9 1.9 9.9 4.7 4.1 3.9 4.5 9.4 7.2 14.2 3.4 6 9.4 8.3 11.7 14.2 3.6 1.8 4.2 6.2 7 8.4 1 .8 3.8 1 4.7 1.5.8.4 1.4 1.5 2.2 2 .9.6 2 1 3 1.5 2 1.1 4.7 2.6 6.2 3.5 2.6 1.5 4.9 2.7 6.7 3.5 2.8 1.3 5.9 2.1 9.2 2.7 1.2-.5 2.4-3.2 4.5-3 .8.1 1.9.3 2 1.7 1.5-1.1 3.6-.8 5.2-.5 3.9.7 6.9 3.3 10.2 5.2 3.6 2.1 6.9 4.4 10.2 7 6.4 7.6 16 21.4 14.4 33.8-.1 1-.6 2.3-1 3.2-2.3 5.5-7 9.3-13.9 10.7-3.8 8.8-10.5 14.6-18.1 19.6 3.4 5.5 2.8 11.3-1.7 15.2-.6.5-1.7.6-1.7 1.5 1.2 4.4 2.8 8.8 3.5 13.2.7 4.4 1.8 9.8 1.2 14.9-.5 4.7-2.9 9.2-4.2 13.9-1.4 4.9-2.5 9.7-4 14.2-.6.9 1.1-1.5 1 0-1 2.4-.4 4.7-1.2 7.2-.5 1.7-2.1 3-2.7 4.7-1 2.4-1.6 5.5-2.5 8.4-2.1 7-4.2 14.4-7 20.4-.6 1.4-1.8 2.7-2 3.7-.2 1 .5 2.7.5 4 .1 3.5-.5 9.3-1 13.9-.6 6.3-2.9 12.6-5 18.4-4.5 12.5-11.5 21.2-17.1 32.3H451c-.7-1.9-1.8-3.5-2.5-5.5-2.1-.9-2.1-2.3-3.5-3.7-2.4-1.1-4.5-2.5-6.2-4.2-1.1 0-1.4-.2-2.5-1.2-.8 1.1-.7-.1-1.5-.2-2.6-.1-5.2-.4-6.7-1.2-2.3.5-4.9 1.3-6.5 0-1.3 1.2-2.9.5-4.7.5-3.3 0-6.7 1.4-10.2 2.2-7 1.6-12.9 3.8-19.6 6.7-3.4 1.5-7.2 2.1-10.2 3.5-.6.3-1.7 1.3-2.7 1.7-1.2.5-2.4.8-3.5 1.5h-14.9c3.5-3.5 9.6-6 15.2-8.4 6.6-2.9 12.6-5 20.1-7.9 7.6-2.1 15.9-5.9 22.1-6.2.9-.8 2.5-.4 3.5-.7.6-.1.3.7.7.7 6.3-1.4 12.2-.3 18.4-1.5v.7c2.9-.3 4.4 1.3 6.7.7-.2 1.4.7.2 1.5.5 1.8 2.1 4.4 1.3 5.7 4 1.3-1.2.4 1.3 2 .5.6 1.9 1.8 3.3 3.2 3.7 1.5 4.3 4.2 9 6.5 13.4 11.5-13.5 17.2-33.3 23.4-51.4.7-.2.7-1.1 1.2-1.5.5-3.9-.3-8.2-.7-10.9-.7-6.6-2.2-13.9-2-20.6-1.2.4-1.6 1.6-2.7 2 .4 3.8-2.8 7.2-1.2 11.2-2 5.8-.5 11-1.2 17.6-.2 1.8-1.1 3.2-1.5 5.2-.4 2.3-.2 4.7-.7 7-.2.8-1 1.5-1.2 2.2-1.5 4.4-2.6 8.3-5 12.2-2.2 3.6-4.6 7-8.4 9.4.8-6.9 3.1-13.3 3.2-21.4-1.1-1.9-2.7-2-4.5-3.2-2.2 3.8-4.7 8.6-8.2 10.2-.4-3.3 1.3-7.2 0-10.4-.9-2.3-7-.2-9.4.2-5.5 1.1-12.8 2.4-17.9 3.2-2.7.4-4.3.7-7.5 1.5-2.7.7-4.7.8-6.7 1.7-.3-.1-.2-.5-.5-.5-6.8 1.4-16.4 5-25.3 7.7-23.9 8.9-46.3 17.6-68.6 29.1h-26.8c4.4-4.8 12.7-7.9 18.9-11.2 7.6-4.1 20.1-8 28.6-12.2 4-2 7.2-3.8 10.9-5.5 13.2-6 28.7-12.9 44-15.2 3.3-3.8 7.9-3.3 12.9-5 .5-.1.8-.6 1.2-.7 2.1-.8 4.5-.8 6.5-1.5 3.2-1.2 7.5-2.4 11.2-3.7 3.7-1.4 7.5-2.5 10.2-4.7 7.7-.4 13.9-3.5 20.9-6.5 6.5-1.5 12.4-4.3 18.4-6.7.8-3.6 2.8-6.1 4.7-8.7-5.9 2.2-11 4.9-17.1 6.7-1.6.5-3.4 0-4.7 1.5-.5-.9-1.3.1-2-.5-5.8 2.5-10.5.8-14.7 3.2-15.1 2.1-28 7.5-44.5 11.2-.3 0-.2.5-.2.7-3.9.7-10.8 2.1-15.2 4-.4.2-.6.2-.7.7-.3-.1-.4-.4-.7-.5-.9.8-2 1.3-3.7 1.2-3.7 2.1-6.5 1.5-9.2 3.5-7.1 1.5-13.8 6.3-20.6 9.2-8.7 3.7-17.2 6.3-25.3 11.2-5.4 2-10.1 4.6-14.9 7.2-3.9 1.3-7.7 2.7-10.7 5-.4.1-.4-.2-.7-.3-10.3 6.2-23.1 9.9-32 17.4h-24.8c4.2-9.2 14.2-13.7 21.9-18.6 1.4-3.3 3.8-6.9 7-8.9 1-.6 2.6-.8 4.2-1.5 3.1-1.4 6.4-4 10.2-4.7 1.4-.3 2.7-.2 4 .2 4-2.1 7.4-4.7 11.7-6.5 3.2-5.8 7.5-9.6 13.7-12.2 2.4-1 5.1-.9 7.7-1.7 2.8-.9 6.1-2.8 9.2-4.2 3-1.4 6-2.9 8.7-4.5 5.8-3.3 11.9-6.1 16.9-8.7.8-.5 2.5-.4 2.7-1.7-3-.4-6-3.5-8.4-4.5-1.5 1.5-2.7 3.2-4.5 4.5-6.1 3.2-12.9 8-19.9 11.7-4.8 2.6-9.9 4.9-14.9 8-1 .6-2 1-3 1.5-4.2 2.2-8.6 4.2-12.7 6.7-2.1.3-4.3 1.4-6 2.5-5.8 3.9-11.9 7.9-18.1 11.9-4.5 3-8.9 6.1-13.4 9.2-1.6 1.1-3.3 1.5-5 2.5-1.7 1-3.1 2.6-4.7 3.7-1.4.9-2.9 1.2-4.2 2-1.4.8-2.5 2.1-4 3-4.2 2.5-8.5 5.2-12.7 7.9.3.7.3 1.8 0 2.5h-8.9c.5-2.3-2.6-4.2-2.5-6.5.1-2 3.8-5.3 5.7-7.2 4.9-4.9 9.5-6.8 14.7-10.9 7.1-5.7 15.1-9.9 23.1-15.2 11.8-7.7 24-16.2 37-21.6 3.9-2.9 8.5-5.3 13.4-7.2 7.7-5 16.3-8.1 23.6-12.9-6.2-1.5-10.3-5.6-18.4-4.5-1.1 1.3-2.2 2.6-3.7 3.5-.5.2-.8.3-1.5 0-4.9 3.7-10.7 4.6-16.2 7.2 0-.4.1-.9-.2-1-16.3 8.4-30.5 18.9-46.7 27.3-4.1 3.7-9.2 6.5-14.4 9.7-4.8 3-9.3 6.7-13.9 9.9-9.4 6.6-18.8 13.3-18.6 26.8-.7.5-.6 1.8-1 2.5-2.6.1-4.3.1-5.9.1zM312.1 53.8c-.7-.7.5-1.8 1-2.5 3.8-5.8 8.6-11.6 14.4-15.2-3.1 4.7-8.5 7.3-11.4 12.7-2.9 5.4-4.4 11.7-6.5 17.6 3.4-3.4 6.7-8.3 10.2-10.7C315 63 308 68 303.6 75.6c-.1 3.2-.6 5.9-1.5 8.2.6 1.6-.3 3.8-.3 5.7 0 3 .4 6 .3 9.2-.4 7.2-.7 14.7.7 23.3 1.7 10.5 1.7 19.1 4.7 26.8 3.9 5.8 7.6 13.1 13.7 15.9 0 1 1.3.5 1.2 1.5 7.6 3.7 13.8 8.9 21.4 12.7 4 1.9 9.9 2.7 14.2 3 9.7-2.7 19.7-3.5 27.3-8.9 4.8-3.4 8.2-10.6 11.9-16.2 4.1-6.1 7.4-11.8 9.7-18.6 2.4-7 4.2-14.8 5.7-22.4 1.6-7.8 5-15.1 6.2-22.1 1.1-6.4-.2-13.1-.7-20.4-.4-5.1-1.5-11.1 2.7-11.9.2 8.3 1.6 17.9 1.7 26.8.5-2.8 1.8-5.5 1.7-8.7 0-1.9-.9-4-1-6-.1-2 .3-4 .2-6 0-1.6-.6-3.3-.5-5 .1-2.6 1-5 .7-7.4-.4-3.8-2.1-6.2-3.5-9.7-6.5-8-13.3-14.7-21.9-19.9-3-1.8-6.5-2.9-9.2-5.5-10.6-3.7-21.1-4.6-31.6-4.7-5.9-.1-11.9 1.7-17.9 3.5-4.9 1.4-10.1 4.2-14.4 6-5 2.1-9.3 5.1-13.7 7.2-5.9 5.4-11.1 10.5-12.9 19.9-1 5-1.3 10-.7 16.1-.3-3.1.7-6.8 3.2-7.5-.3 4.1 0 7.6-.5 11.7 2.1-4.2.8-12 5.5-13.7-.9 4.1-2.1 9.2-2 13.4 3.6-5.3 5.2-12.5 7.9-18.6 1.1-.1 0 0 .2.5zm-24.1 31c-1.4 4.9.1 8.1 1.2 12.2 4.4 4.5 2 15.6 9.4 16.4-.2-3.4.3-9.6.5-13.7-.4-.1-1 .7-1.2 0 1.2-1.3-.5-5.2 1.2-5-.8-2.4.4-6 0-7.9-.5 1.1-1.2 1.9-2.5 2.2-1.8-2.3-4.5-6.4-8.6-4.2zM419.1 102c1.8-3.5 2.7-8 3.5-12.7-.1-.2-.2-.3-.5-.3-.6 4.5-2.7 8.9-3 13zm-4.7 16.6c.7-3.8 3.2-5.8 3.5-9.9-.9.8-.7 1.2-1.7 1-.3 3.1-1.8 6.3-1.8 8.9zm-117.7 22.6c-.8 1.7-1.3 5.5-1.7 8.5-.7 4.8-1.9 8.2-.5 11.7 2.1 5.3 6.4 12.6 9.7 16.6 1.1 2.3 2.4 4.4 4 6.2 1.6 1.8 3 4 4.7 5.5 1.6 1.4 2.9 1.9 4.2 3.5 3.5 4.2 6.8 8.6 10.7 12.2 3.1.4 2.9.5 5.7.7 10.9-6.5 23.5-11.3 34.5-17.6 1-2.7.7-4 2.2-6.5-5 .9-10 3.3-15.2 3.5-14.4.5-24.9-9.9-36.5-15.7-.7-1.7-2.4-1.9-3.7-3-6.5-5.2-12.6-17.4-13.7-27.6-.2-2.3.7-4.6-.7-6.7.4 4.2-2.7 6.2-3.7 8.7zm-7.5 18.6c-8.6 4.4-14.1 12.1-21.9 17.4-3.1 2.1-6.3 3.7-9.2 6.2.4.9-.2 1.8.7 2.5-1.5 2.2-1.3 5.3-1.7 8.4-.5 3.9-1.7 7.9-2.5 11.9-1.6 8.5-2.7 17.6-4.2 25.1 11.3 0 19.8 4.1 32 5-4.4 6.7-9.2 13.1-14.2 19.4 4.2 1.8 7.7 6.1 12.4 8.2 3.7 4.1 8.3 6 11.9 10.4 11.3 6.6 22 15.2 31.6 24.8-3.7-18.8-9.8-33.6-14.2-52.2-2.2-5.6-3.8-13.3-5.5-19.1-2.3 2-6 2.7-8.7 4.5-1.9 1.2-3.2 3.8-5.2 3.5 1.8-12.2 2.7-23.2 4-35.8.1-.8-.7.6-.7-.2-1-3.9-2.1-7.5-3.7-11.4-1.3-3.1-3.1-6.2-3.7-9.2-.3-1.6.2-2.8.5-4.5.8-4.8.5-11 2.7-14.9h-.4zm31.1 45.3c-3.9-3.8-6.4-9-11.4-11.7-6.1-8.2-13-16.7-16.6-26.6.2 2.4-1.4 3-2.2 4.5-1.4 5.5 2.3 9.1 4.2 14.4 1.1 3.1 1.4 6.5 3 9.2.2-.6.7-.7 1.2-1 6.4 4.3 15.2 7.7 21.8 11.2zM434 178.7c.9 0 .6 1.3 1.5 1.5 3.5-3.2 7.2-6.2 12.4-7.7-.4-1.5-1.5-2.4-2.2-3.5-2.9 4.3-7.3 7-11.7 9.7zm-.5-7.7c.9.2 1.4-2 1-1.5-.1.7-1 .7-1 1.5zm-3.7 2c1.3-.3 2.2-2.3 2.2-3-.4 1.3-2.3 1.1-2.2 3zm7.2 8.5c1.1.6 1.6 1.9 3 2.7 1-3 4.3-5.2 5.2-7.5-2.3 2.1-5.7 3-8.2 4.8zm15.2 7.9c-.4.3-1.4 2-1 1.5 2.5-2 4.3-4.7 7.2-6.2-.6-1.9-1.7-3.3-3-4.5-2.7 2.7-3.6 4.7-3.2 9.2zm-11.7-5.2c.5 1.4 1.6 2 2.5 3 .4-.9 1.2-2.7.7-3.7-.3.6-1.7 1.4-2 1.2-.1-.8 1.3-1.4.7-1.7-.4.6-1 1-1.9 1.2zm25.1 19.6c8.4 6.9 20.6 8.3 29.8 14.9 6 1.9 9.8 3.4 14.4 6 .4.2.6 1 .7 1.2.4.4 1.7.7 2 1 6.2 6.2 2.5 16.8-2.5 22.6 7.8 2.7 12.7 7.2 21.4 7.2 3.5-8.4 1.5-18-2.2-24.8-.8-1.4-2.4-2.9-3-3.7-.2-.3.2-.8 0-1-1.8-2.3-4.8-5-6.7-7.2-2.9-3.4-7.2-6.6-11.2-8.4-.1-1-1.4-.8-1.5-1.7-2.2-.7-4.6-1.2-6.2-2.5-2.9.1-5-1.2-7-1.7 0 0 0 .6-.2.5-4.9-1.2-10.6-4-14.2-6.5-.4-.3-.8.1-1 0-.3-.2-.2-.8-.5-1-.6-.4-1.6-.8-2.5-1.2-3.7-2.2-7-4.2-10.9-5.5-1.5-2.5-3.2-4.8-5-7-2 2.9-5.7 4.1-7.5 7.2 4.2 3.8 7 9.6 13.8 11.6zm-104.1-.5c2.5-.6 4-.8 6.5-1.5-3.8 8.7-7.6 19.4-10.7 28.8-1.1 3.4-3.1 6.4-5.5 8.2-2-3.2-5.6-4.7-7.9-7.5-.6 2.9-4.8 5.3-3 8.2-.7 1.3-2.6 4.7-3.7 3.2-5 10.7-10.1 21.3-15.2 32 1.9 4.5 3.5 12 5.2 16.6 9.4-6.9 22-10.6 34.3-14.7-2.2-11.6-9-17.4-12.9-28.6.9-1.6 1.8-3.2 3.5-4 9.8 4.4 20.3 6.4 29.6 9.7.5-16.1 4.4-32 6.7-47-5.5-4.6-10.2-8-14.4-14.4-1.5 0-2.5-2-4.2-3-2.3 5.2-6.2 9.8-8.3 14zm-24.6 3.3c.2 1.8-.6 2.4 0 3.7 6.7-3.6 14.1-5.3 22.1-7.2.2.5-.7.8 0 1 3.2-3.7 6.6-8.6 8.2-13.2-9.1 6-20.3 9.9-30.3 15.7zm-92.9-9.7c-.5-.1-.7.1-1 .2-6 3.1-11.3 7.2-16.4 11.2-10.8 8.4-16.9 20.6-22.4 34-.2.6-.5 1.3-.7 1.7-.9 2.1-1.4 4.1-2.2 6.2-2.3 5.9-5.8 11.8-7.9 17.4-.6 1.6-.6 3.5-2 4.7-3.1 12.5-10 23.3-14.7 35.3-2.4 6.3-4.9 12.6-7.2 19.1-1.5 2.2-1.8 5.5-3.2 7.7-.9 5.8-3.4 11.7-4.5 17.6-1 5.4-1.4 12.3-1.7 18.1-.5 8.8 1.2 13.4 5.5 18.1.5.5 1.2.3 2 1 .9.8 1.7 3.2 2.5 2 .4 1.9 2.3.9 2.2 3 1.9-.6 1.5 1.9 3 1 .4 1.6 2.2 1.9 3 3.2.1-.2 0-.5.2-.5 2.4 3.4 6.4 2.6 9.7 4 0-.3 0-.7.2-.7 2.3 1.7 6.3-.1 8.7 1 2.5-1.3 5.7-.1 8.4-1.7 7.4-.3 14.4-1.3 21.1-1.2.1-.3.3-.6.5-.7 6.8-.5 15.1-3.4 21.4-6 8.1-2.5 14.5-3 21.6-5 2.1.5 3.9-.8 5.7-.5-.8-3.7 1-7 1.2-10.7.6-7.9-1.7-16.6-.7-25.3-4 1.4-6.6.6-9.4 1-.4-.3-.5-.8-1.2-.7-6.2-.1-11.1-.6-16.6.7-15.2-.5-25.8 2.9-40.2 3.2-5.1 5.6-6.1 13.7-12.7 17.6-.4-2.6 2.5-5.3 4.2-8.2 1.6-2.7 3-5.1 4.5-7-4.2 1.3-9.5 2.4-13.2 5.2-1.1.8-1.6 2.6-3.2 2.5 2.7-5.8 7.7-9.4 12.9-12.7-.5-.9-.9-1.1-1.5-.3-.6-2.1-2.5-1.4-4-2.5 1.6-3.4 3.7-6.2 7-8 2.2.9 6.1 2.9 8.4 4.2 1.3-6.8 3.8-13.6 6.2-20.4 1.5-4.1 3.6-8.3 4.5-12.4.9-4.6 3.9-9.5 7.5-10.4-.9 3.6-1.1 9.8-.7 13.9-1.7 10-2 18.9-2.5 29.8 7.5-1 18.1-2.9 25.6-2.5.1-.5.7-.5 1-.7 7.4.6 15.8-1.5 22.6.7 1.6-.6 3.2-.4 4.7-.3.7-.7 1.8-1.3 3.2-1-.9 1.9-.3 4.7-.5 7.7 3.9-.2 5.7.6 8.4.2-.3.3-.5 1.8 0 2 11.5 1.6 24.7-4 34.5-9.7 1-11.4 2.7-22.7.7-34.5-.5-.8-.9 1-1.2.2-4.5-7.7-12.2-12.2-17.9-18.6-1.3-.1-1.5-.9-2.2-1.5-.5-.4-1.2-.6-1.7-1-2.9-2.1-5.2-4.1-8.7-6.5-1-.7-4.2-1.6-4.5-3.2-.9 0-1.2-.6-2-.8-7.1-7.5-15.9-12-23.6-18.6 4.9-6.1 9.7-12.3 14.2-18.9-11-.5-21.7-4.8-31.8-5 2.4-13.3 5.3-28.3 7.5-43 .1 0 .3-.2 0-.2-2.8 2.8-7.8 2.9-10.6 5.5zm58.1 8.4c1.3-.3 1.5-1.7 2.7-2 0 .7 1.2 1.5 1.5.5-1.6-.9-3.7-1.3-5.2-2.2.3 1.1 1 1.8 1 3.7zm205.2-.2c.8 0 1.1.5 1.7 0-.5 0-.3-.7-1-.5.1.4-.6.1-.7.5zm2.8 1c5.1 3 8.8 5.8 12.9 9.7 1.1 2.3 3.8 2.9 4.5 5.7 5.2 4.8 9.1 13.7 9.2 23.1.1 4.7-2.1 8.3-3.5 12.4 4.1-.2 6.8-1.8 9.2-3.7 2.6-13.2-3.7-22.3-8.9-30.3-3.4-3-5.2-7.5-9.9-9.2 0-.9-.9-.9-1-1.7-5.4-1.8-7.9-5.8-13.2-6.2.2-.1.6-.1.7.2zM363.2 209c.1-1.4.9-2.1 1.2-3.2-1.3.4-1.3 2.2-1.2 3.2zm20.9 47c-1 .4-1.8 3.6-3.5 3.7.1 0-1.9-1.1-2.2-1.2-2.1-1.1-2.8-1.3-5.5-2-3.3-.8-7-2.5-10.4-3.5-2.6-.7-5.2-1.1-7.5-2.2 1 3.2 3.2 6.3 5 9.2 2.3 3.9 3.4 8.8 5 14.2 1.7 5.6-7.4 6.8-11.9 8.2-2.9.9-5.9 2.4-8.9 3.5-3.8 1.4-17.5 5.4-16.6 9.4.7 3.6 2.6 9.7 3 15.2.5 6.8.4 11.2 0 16.1-.2 1.8-.9 3.5-1 5.2-.2 3.7.3 6.7-1.2 10.2 4.7-2.4 9.9-5 15.7-5.5 2.6-5.5 6.6-6.4 12.4-8.2 1.1.8 1 2.8 2 3.7.9.5 1.3-1.2 2.7-1 1.8-.2 4.7.4 6.5.5.4 0 .8-.5 1-.5 1.2.1 3.2.6 4.7.7.4.1 1.2.2 1.5.2 4 1.1 9.5 1.4 13.2 3 .6.9.5 2 .7 2.7 4.3-2.9 10.4-6 15.7-8.7 5-4.8 11.6-8 16.6-12.7.7.2.6-.4 1.2-.3 8.8-7.5 20-12.8 30.1-19.1-1.8-.2-2.7-1.3-4.2-1.7 1-1.4 2.1-2.9 3.7-3.7 0-1.9.7-3 1.2-4.2-2.6-4-3.3-10-6.2-13.7-.3-.5.1-.7-.2-1.5-4.8-6.1-9.7-12.1-13.2-18.9-1.8-4.3-5.3-7.5-7.7-11.7-3-5.3-5-11.5-10.4-14.7-.4-1.7-2.1-2.1-3.5-3.5-.8-.8-1.1-2.1-1.7-2.7-.1-.1-.8-.3-1-.5-1.6-1.3-3-2.2-4.5-3.2-1.5-1.1-3.2-3.1-4.5-4-.6-.4-1.4-.3-2-.7-.4-.3-.4-1.1-.7-1.5-1.3-1.2-4.7-2.8-6.2-3.5-3.5 15.8-5.8 32-7.2 48.9zm-51.4-44.2c.8 0 .9-.6 1-1.2h-.7c.1.6-.4.6-.3 1.2zm-38 17.9c1.2-3.4 1.5-7.6 3.5-10.2-1.1-2.5-.6-5.6-1.7-7.7-.8 6-1.5 12-1.8 17.9zm41.5-15.7c.7-.9 2.3-.8 2.7-2-1.4.1-3.3.9-2.7 2zm-20.4 4.2c1.6-1.5 5.3-2.4 5.5-4.5-2 1.3-4.6 3.1-5.5 4.5zm27.8-3.2c2.1-.1 4 .4 5.5-1-2.1.2-4-.1-5.5 1zm-34.8 3.2c2-.5 3.9-1 5-2.5-1.4.8-4.1 1.5-5 2.5zm39 1.8c2.6-1.5 5.8-2.5 8.2-4.2-4.3-.4-7 2.2-8.2 4.2zm-27.5 6.9c-.9-2.2 1.5-6.6.5-9.7-1.9 5.1-8.6 5.5-12.7 8.4 1.8 4.1 2.1 8.5 3.7 12.4 2.3-4 6.8-7.2 8.5-11.1zm3.2-5.9c0 1-.4 1.4 0 2 .5-.6 1.7-.4 2.5-.7 0-.9.6-2.5.2-3-.7.8-1.7 1.7-2.7 1.7zm-12.4-.8c-1.6.6-5.3 3.8-4.2 3 2-.9 4-1.8 5.5-3.2-.4.2-1 .1-1.3.2zm21.8 4.5c-.2.4-.6.8-1 1 2.1 4.1 5.8 6.4 7.2 11.2 1.6-1.6 2.8-4.9 3.7-6.2-2.6-1.7-6.1-4.2-9.9-6zm-10.6 1.5c-3.1 4.8-7.2 8.5-10.4 13.2 3.8 10.7 5.9 22.1 9.9 32.3 5.2-9.7 9.3-20.6 14.7-30.1-2.2-5.7-6.8-9.1-9.4-14.4-.1-.8.4-1 .5-1.5-2.4-.2-4.2.3-5.3.5zm173.6 27.3c-.4 2.4 1.1 3.6 1 5 1.5-2 4-3.1 5.5-5.2-1.8-.5-4.6-1.5-6.5.2zm8.9-.2c-1.2.3-3.3 2.8-4.7 4-3.8 3.2-6.2 5.3-9.7 8.2-1.7 1.4-3.8 2.7-5 4-2.4 2.6-4.2 6.3-7.7 7 1.5.2 7.1-.8 9.7.3 7.9-7.3 16.9-13.6 25.1-20.6-2.5-1-4.9-3.7-7.7-2.9zm12.2 4.9c1.1 2.6-.4 5.5-3.2 6.7-1.6-1.3-2.3-3.5-3-5.7-7.3 6.1-15.3 11.5-22.1 18.1 3.8 1 7.5 2.2 10.4 4.2 3.6-3.5 6.7-6.5 10.9-9.9 3.8-3 7.8-6.6 12.7-5.5.7 1.2 1.8 2 2.5 3.2 1.4-2.7 3.7-5.9 4.2-8.7-4.7 0-9.3-1.1-12.4-2.4zm-.5 11.5c-5.2 2.2-12.6 8.3-16.4 12.7 2.2.9 3.4 2.7 5 4.2 4.5-5.6 10.9-9.3 16.2-14.2-1-1.2-3.2-3.4-4.8-2.7zm-42 6.9c-.2.1-2 2.5-.2 1.2s5.2-5.7 7.7-6.9c-2.7-.6-5 1.1-7.5 2-.3 1.4-.5 2.6 0 3.7zm21.9 7.2c-7.8-3.8-17.2-7.7-25.3-2.7 7.8-.4 16.9 4.8 24.3 7.9-1.2 3.5-2.9 2.1-5.5 1-1.2-.6-2.5-.6-3.5-1-4.1-1.7-10.2-5.4-15.4-5.5-1.5 0-2.8.7-4.2 1-1.8.4-3.8.2-5.2 2 1.4.3 2-.1 2.7 0 5.5 2.8 12.1 3.4 17.9 5.7 1.5 1.3 3.2 2.5 5 3.5-.6 1.1-1.5 2-2.5 2.7-3.8-3.4-10.9-6-17.6-7.7-1.2-.3-2.7 0-4-.2-.8-.2-1.5-.9-2.2-1-3.2-.6-7.4 1.3-9.2 4 4.9 1.2 9.9 4.1 15.2 4.7 2.7.3 5.1-.1 7.2.5 5.1 1.5 9.5 6.8 11.2 11.9-.4 1.3-.9 1.3 0 2.2-1.2 3.1-4 1.9-6.7.7-1.9-.8-4.6-2.3-7-3.7-2.3-1.4-4.3-3.7-6.5-4.5-3-1.1-6.2-.9-9.9-1.2 3.4 3.7 8.9 7.1 13.4 10.4.7-.5 1.1-1.2 2.2-1.2.1 1.1-.6 1.4-.7 2.2 2.7 1.6 6 2.7 8.2 4.2.7 2.7 2 4.7 3 7-3.5 5.5-2.3 16.8-2.5 23.6 4.1 7.3 16.8 9.3 24.6 6.7 1.4-4 3.1-8.5 4.2-13.2 2.1-8.4 6.3-16.4 4.5-25.8-2.3-11.6-4.9-27-14.4-33.5-.8-.2-.5.7-1.2.5.2-.3.2-.9-.1-1.2zm-39.8.3c.1 1.7-2.5 3.1-1 5 3.4-1.5 6-3.7 8.7-6-2.5-.6-5.9 0-7.7 1zm48.7 2.9c1.2 2.7 2.5 5.3 3.7 7.9.9-1.4 1.9-1.9 3.5-2.2-.1-3.3-2.2-7.3-3-9.2-1.3 1.3-2.5 2.6-4.2 3.5zM473 301.7c-6.8-1-13.3-1.4-19.4-4-5 8-14.5 10.9-22.6 15.9-10.5 6.4-20.9 14.5-30.8 21.6-7.5 5.4-17.4 8.9-24.3 14.4 3.2 1 6.1 2.4 9.7 3 5.5-5.8 13.1-9.7 20.1-13.9 5.4-3.3 10.5-7.1 15.6-10.7 10.4-7.2 20.9-14.2 31.6-20.9.4-2.2 1.8-5.2 4.2-5.7 2.7-.6 8 .6 10.4 1.5 2.5.9 4.1 2.5 6 3.7 2.4 1.5 5.6 3.6 8.7 4.7-1.6-4.5-5.7-6.8-9.2-9.6zm-18.8 7c-2.6 4.2-7 6.3-11.4 8.9-11.5 7-22.9 15.3-33.5 22.9-3 2.2-6.1 4-8.9 6.2-2.3.6-3.8 2-5.5 3.2-2 1.1-4.4 1.9-5.7 3.7 2.1.6 5 .9 5.5 2.5.6 2-2 4.7-3.7 5.5-4.3 1.9-10.6.6-13.7 0-2.1 3.5-6.1 5-9.7 7 3.3 4.2 9.7 5.2 12.4 9.9 25.7-23.5 59.5-38.9 85.5-62.1-4.3-2.2-7.3-5.4-11.3-7.7zm13.6 9.9c0-.2 0-.3-.2-.3-.5.6-1 1.3-1.5 1.7-3.3 2.9-7.5 5.1-11.2 7.9-10.8 8.4-22.3 17.4-33.8 24.3-2.7 6.4-8.3 8.3-13.4 11.9-2.2 1.6-5.4 3.4-6.2 4.7-.6 1.1-.3 2.6-.5 4-.4 2-1.4 3.4-1.5 5.2 25.1-17.1 46.8-37.7 72.8-53.9.5-1.2 2-1.4 2.5-2.5-2.2-1-4.4-2.2-7-3zm-10.9 50.9c1.9 1.3 1.6 4.4 2 7 2.2-.3 3.2-.1 5-.5 5.1-7.1 8.6-15.9 10.9-25.8 2.7-1.9 1.4-6.1 1.7-10.7.5-7 3-12.8-.5-16.1-7.8 9.5-20.4 14.2-29.1 22.9 1.3 3.4 2.5 6.9 4.2 9.9.4 2.9 1.3 5 3 7.5-.8 1 1.1 2.6 1.7 4.2.5 1.2-.2 2.2 1 2.7.2-.7-.9-1.7.1-1.1zm-241.2-22.1c1.3-.2 2.7-.1 4.2-.3-.2-7.7 1.3-13.1 1.5-20.9-2.6 6.8-3.8 15.9-5.7 21.2zM350.1 334c1.8 4.5 5.6 7 7.2 11.7.4-.9 1.4-1.2 2-2-2.4-1.2-2.2-4.3-5-5-.8-1.9-1.4-3.9-2.7-5.2-.6.7-1.1.1-1.5.5zm12.9 3.5c.7 1.6 1.5 3.2 3 4 1.4-.3 4.9-.3 6.7.3 3.4-1 7 0 10.4-1.7-5.5-1.5-14.4-2.9-21.4-3.7 0 .7 1 .5 1.3 1.1zm-12.4 9.9c-.5-.8-.5-2-1-2.7-.2-.3-1.1-.4-1.2-.5-1.4-1.3-1.3-3.2-3-4.5-3.2 2.8-7.8 1.8-11.7 3-.8.2-2 .7-2.7 1-3.5 1.6-7.3 3.7-10.9 5.7-3.6 2-7.2 4.6-11.2 5.7-2 .5-3 1.2-4.5 1.5-5.1.9-8.4 2-13.4 2.2.8 5.2-1 13.5-.5 18.9.3-.6.8-.9 1.5-1 6.4 2 17.6-1.4 24.8-2.2 3.3 1.3 7.1 1.1 10.2 2.7.3.2.4.8.7 1 .5.2 1-.2 1.5 0 .6.2 1.1 1 1.7 1.2 3.8 1.4 8.8.9 12.7.5 4.7 6.2 13.1 10.7 21.1 11.4-.9-2-4.4-3.6-7-4.7-3.6-2.7-8.1-4.5-9.4-9.4 1.7-1.7 2.5-5 5-5.2 1.1-.1 4.3 1.4 6 2.2 2 .9 3.6 2.6 5.2 3 2.5 1.9 4.5 4.5 7.7 5.7.8.2.3-.9 1.2-.5.1.8-.5 1 0 1.5 2.9.4 3.5 1.5 6.5 1.2.3-1.5-.8-1.5-.7-2.7-.8.1-1.1.7-2 .7.1-.8.7-1.1.7-2-3.1-4.8-9.8-6.1-13.4-10.4-.8-.1-.9.4-1.7.3.5-.5.1-.9 0-1.5-3.2-1.5-5.9-3.1-8.7-5.5 1.7-2.4.9-6.1 3.7-7.2 1.7-.6 4.9.3 7.2.5 4.5.3 9.2.2 12.2 1.2.9-.2 1.3-.8 2.2-1 .1.6 0 1-.2 1.2 4.4 1 8.7 1.9 13.2.3-1.3-2.4-6.7-4-8.7-2.7v-1c-4.2-.3-8.5-3.8-12.7-3.2-.6-.3.6-1-.5-1-4.7-1.7-13.2-2.2-17.9-.2-.2-1.5-1.2-2-2-3.5zm10.7-.2c4.3-.4 7.4.3 11.4 1.2.8-.4 1.2-1.2 1.7-2-4.2.8-8.8-.8-13.1.8zm84.4 19.3c-1.1.3-.7-.8-.7-1.5-.3 0-.7 0-.7-.2.4-2.5-2.6-5.8-2.5-8.7-1.3-.2-.6-2.2-1.7-3.5.2-1.3 1.8-2.3 1.5-3.2-7.3 5.9-14.1 12.4-22.4 17.4-.7 1.8-4 2.3-3.7 4.2-.2.6.5 2.9.7 4.2.3 1.5 1.2 3.6 1.2 5 0-.8-.2.6-.2.7-.4 2-3.2 3.4-4.2 5.7 7.3-2.2 13-4.1 19.4-5.7 5.3-1.3 12.3-2.4 17.4-3.2-.2-.7.4-.6.2-1.2-1.1-1.5-2.7-3.8-2.5-5.7-.8.1-2.4-3.1-1.8-4.3zm-162-2.7c0 1.6-.5 3.7-.5 5.7 0 3.3-1.2 6.1-1.2 8.7 0 .9.9 1.8 0 2.5 1.2.3-.1 1.4 1 2.5 1.3-.4 3-.3 4-1-.1-8.8 2.2-17.8 0-24.6.3-.8.9-1.2.7-2.5-2-.1-3.2 0-4.7-.2-.4 1.8.5 2.1-.2 3.7.4.1.6-.4.7 0-.9 1.6.2 3.1.2 5.2zm193.6-2.2c3.4.9 6 4.2 10.2 4.7 5.2.6 10.2-.4 14.4-2.5.3-1.5 1.5-3.3 1.2-4.5-6.7 4.6-17.6 3-24.6-1 0 1.5-.8 2.2-1.2 3.3zm-120-2.3c-.5.7-.6 1.7-1 2.5 2.9 1.6 5.6 3.5 8.4 5.2 2.4-2.4 6.1-4.8 8.4-6.5-6-.2-10.2-.5-15.8-1.2zm118 7c-.8 3.5-3.5 6.2-3.7 9.4 4.1-2.1 8.2-2.7 11.9-6-2.6.3-5.5-2.3-8.2-3.4zm14.6 10.4c.2 3.2-.4 11.7 1 12.9-.1-.1.1-.4.2-.3-.4 1.9.8 2.9.2 5.2 3.9-8.2 6.8-18.7 8.9-27.8-3 2.2-8 3.2-11.9 3.7.7.3.5 1.5 1.2 1.7-1.3 1.9.5 3.1-.5 4.2.5.2.9.1.9.4zm-94.1 7.7c-3.3 6-7.4 11.3-15.2 12.9 0-.9-2.7-.4-4-.7-1-.2-1.8-1.4-2.5-.5 0-1.1-.8-.5-1.7-1-.2-1-1-1.3-1.7-1.7.6 1.4-1.7 3.4-3 4.5-2.3-.8-5-1.7-8.4-3 .1 8.8-7.7 16.8-16.1 20.1-2.1-.3-4.3-.1-6.5.5-.1-1-1.4-.2-2-.5-.2-.1.1-.6-.3-.7-.9-.3-1.5.1-2.2-.5-.2-.2-.1-1-.2-1.2-.3-.3-1-.2-1.2-.5-.6-.7-.1-1.8-1.2-2-2.9 1.8-5.8 3.5-8.9 5 .1.8-.2 1.8.2 2.2-3.3 5.5-9.3 12.3-15.7 15.4-2.9 1.4-6.3 2.6-8.9 2-.5 0-.3.7-1 .5-.5-.6-2.1 0-2.2-1-.6 1.1-1.6-.7-2-2-2.4 1.8-4.7 2.3-7 4-3.7 9.4-12.4 15.1-20.9 18.4-.7-1-2.7-.4-3.7-.5-.5-.5-1.5-2.2-2.2-2-3.2 1-10.2 6-13.2 7.9.8 1.3 2.6 1.5 2.7 3.5.5.1.5-.3.7-.5-.6 1.1.5 1.7 1 2.5 2-2.3 5.6-3.1 7.7-5.2 8.2-2.7 14.6-8.6 23.4-11.9 1.4-1.1 4.7-3 7-3.2 14.6-7.7 32-17.1 47-24.8 1.2.1 1.7-.5 2.2-1 5.6-1.8 9.7-5 15.2-7 5.1-3.8 10.4-4.7 15.6-7.7 12.8-5.4 24.8-9.7 37.3-15.2 1.9-.2 5.2-1.1 7-2.2-1.3-3-2.6-9.3-1.2-12.7-4.7 3.3-9.2 6.7-13.9 9.8zm-28.8 3.5c.6-.9 1.5-1.5 2-2.5-5.5-4.3-10.7-8.8-18.1-10.7 1.9 6.8 10.6 9.1 16.1 13.2zm15.1-6c1.1 2.8-1.5 3.5-2 5.5 2.3 1.2 4.3 1.1 6.7 2 1.3-1.9 3.2-3.3 4.7-5 0-3.5-.2-5.1-.5-8.7-3.3 1.7-5.6 4.5-8.9 6.2zm-94.6 3.5c.7-.8 1.6-1.4 3-1.5.1-.4.4-.6.7-.7.7-.2 1.8-.2 2-1-1.1.1-2.7.8-3.7.2-.4 1.2-2.1 2.3-2 3zM239 448.8c5.9-4.8 13.2-8.3 19.4-12.9 20.2-12.7 39.8-26.1 60.4-38.5 6.1-3.3 15.1-7.2 20.4-11.4-2.8-.4-5.7 0-8.9-.7-5.1 6.2-12.6 9.8-19.6 13.4-6.9 3.6-13.6 6.8-20.1 10.2-4 2.1-7.6 4.9-11.4 6.7-18.7 8.8-34.3 21.7-51.7 31.3-2.8 2.7-5.9 5.1-9.7 7 .4 2.8 2 4.8 2.2 7.5 5.9-4.8 11.9-9.2 19-12.6zm42-59.4c1.4-1.2 3.2-2 4.5-3.2-2.3-.8-4.3 2-4.5 3.2zm87.7 0c.5.4 1.2.6 1.5 1.2 1.3-.9 2-2.3 3-3.5-2.2-1.2-3.6.8-4.5 2.3zm-1.7 2.7c-.7-.1-.8-.9-1.7-.7-.3.8 1.5 1.1 1.7.7zm-14.9 7.7c-4.2.4-8.7 3.5-12.7 6 4.1 2.4 10.2 2 13.4-1-.4-.6 0-2.4.2-3.7-.4-1-1.5-.1-.9-1.3zm-41.8 21.1c-.2-.3-.7-.5-1-.7-3.4 1.8-7 4.5-10.4 5.5 0 .3-.8.9-.2 1 .8-.8 1.3.1 2.2.5.1-.2 0-.5.2-.5.1.3.3.6.5.7 3-.7 9.2-1.3 11.9-4.7-1-.9-2.6-2.2-3.2-1.8zm-43.4 25.4c.7.2.5-.5 1-.5.2.8.8.2 1.5.7 2.7-1.5 7.5-2.1 8-5-.1.1-1.1-.9-1.7-1-2.5 2.5-7 2.8-8.8 5.8z"/><path class="st0" d="M381.4 106.2c2.9-5.4 15.7-6.9 19.6-1.7 1.3 1.7 4.2 6.4.2 7.2-1.1-2.5-2.3-5-4.5-6.5-1.7.9-2.3 3-4 4 .8.4 2.2.3 3 .7 0 1.2-1.4 1-1.7 1.7-3.9-1.3-8-2.3-10.4-5h-2c.4-.6.8-.7-.2-.4zm8.4-2c.4.5.6 1.1.7 1.7.9-.2 2.3-1.7 1.2-2.2 0 .7-1.8-.2-1.9.5zm-6.9 1.2c2.2-.5 3.2 1.4 4.7 2.2-.1-.7 1-3.3.2-3.7-1.6.6-3.7.6-4.9 1.5zm-190.8 83.2c1.6 1.8 2.9-.9 4.9-.7 1.8.2 3 2.1 2.3 4.4-.9 3.2-5.6 4.7-9.7 3.8-2.7-1.5-4.6-5-3.6-9.5.7-3.2 3.8-4.9 3.6-8-2.3-.3-2.3 3.8-4.3 4.4-5.8.3-5-7.2-2.3-10 3.8-4 13.3-2.3 15 3.5 1.8 6-3.8 8.1-5.9 12.1zm.6 3c-1.4-.2-2.9-1.6-2.8-3.1.2-3 4.7-4.8 5.9-7.7 2.3-6-5.5-9.5-9.8-7.2-1.4.8-4.4 6-1.3 7.3 1.6-1.7 2.1-5.3 5.4-4.5.9.2 1.8 1.2 1.9 2.3.4 3.6-4.6 6.6-4.1 11.2.2 1.9 1.2 2.9 2.5 4.2 3.7.6 7.3-.6 6.8-3.9-1.4-.3-2.7 1.6-4.5 1.4zm-25.1 3.3c0 4.3.2 9.8.1 14.8.9 0 2.8-.3 2.8 1.1 0 1.7-5.9 1.4-9.1 1.6-2 .1-4.6 1.2-4.8-.4-.2-1.4 2.1-1.7 3.7-2.1-.5-9.7.6-20.6-.3-29.9-1.4 0-3.6.8-3.4-1 .1-1.2 3.2-1.3 4.8-1.3 2.4 0 5.1.1 7 .5 5.7 1.2 10.2 6.2 9.1 11.6-.7 3.4-3.3 4.1-6.2 5.9-.8-.4-2.3-.5-3.7-.8zm-.1-2.1c.8.1 1.7.2 2.5.2.5-4.7-.1-8.3-.5-12.3-1-.2-1.4-.8-2.7-.7.4 4.2.1 8.9.7 12.8zm-5 17.4c1.3.3 1.9-.2 3.1 0-.2-5.6.6-12-.7-16.6.7-3.9-.2-9 0-13.5-.9-.1-1.8-.2-2.7-.2.9 9.3-.4 20.6.3 30.3zm9.8-17.8c4.8-1.3 3.3-9.2-.5-10.5.4 3.4.7 6.8.5 10.5zm-19.7-8.5c-4.3 10.4-8.2 21.2-12.5 31.5 2.5.6 5.9-.4 5.7 2.5-1.5.9-5.4-.9-7.4 0-2.8-.9-6.2-.8-9.4-.7-1.5 0-4.2.9-4.3-.7-.1-2.2 6.4-1.3 8.2-2 1-3.1 2.2-6.4 3.3-9.7.4-1 1-2.5.9-3.3-.1-1.1-1.5-2.5-2.4-3.6-2.8-3.3-4.4-7.6-5.8-11.6-1.5-.3-4.8 1.6-4.8-.4s3.9-.9 5-2.4c1.3 1.9 6.5-.3 6.8 1.6.3 2.1-3 1.2-4.8 1.3 1.5 4.9 4.1 8.9 7 12.7 2.6-3.5 4-8.6 5.9-13 .2-.4-.3-1.4.3-1.9-1.2-.5-4.8 1.1-5.2-.6-.4-1.8 4.3-1.7 6.9-1.8 1.6-.1 8.9-.4 9.2 1 .4 1.3-1.2 1.4-2.6 1.1zm-5.8.1c-1.5 6.5-4.8 11-6.4 17.4-.2.5-1 .5-1.2 1-1.4 4.2-2.8 8.5-4.2 12.6 1.1.2 1.8-.1 2.9.1 4.2-10.2 8.6-21 12.2-31.2-1.3-.1-2.4-.1-3.3.1z"/><path class="st0" d="M111.9 203.3c0 5.2-.2 10.7-.4 16 1.6-.5 3.3-.3 3.1.9-.2 1.7-4.3 1-6.4 1.2-3.5.3-8.8 1.5-9.2 0-.5-2.1 3.6-1.4 5-1.8-1-8.8-.1-19.1-.3-28.6-.6 0-1.7.7-2.2-.4 0-1.8 2-2.2 3.5-2.6 2.2-.5 4.7-.3 7.1-.5 1.8-.1 3.5-.9 5.2-.8 5.1.3 10.7 8.5 6 13.1-1.1 1.1-5 3.1-6.9 3.4-1.4.3-3 .3-4.5.1zm6.7-3.3c2.3-1 4.5-1.8 4.3-5.1-.2-2.6-2.6-5.1-4.6-5.7 1.5 2.3 1.9 7.8.3 10.8zm-7.3-10.3c.4 3.6.2 7.7.6 11.3 1.3.8 2.3-.1 3.9 0-.1-1.1 1.1-1.6 1.4-2.8.8-2.7.2-6.2-.5-8.1-1.5-1.3-3.4-.5-5.4-.4zm-2.2 0c-.9.3-2.2.1-3.2.3.4 9.6-.7 20.5.3 29.6 1.1-.1 2.1-.3 3.3-.3.1-10.1.6-20.5-.4-29.6zm-10 1.5c-.1 6.8.1 14.8-1.4 21.7-2.1.3-5 .6-7.1.3-1.1-1.9-.1-5.5-.9-7.6-3.9 2.3-7.7 6.3-12.2 8.8-.7.4-2.4 1.9-3.4 1.6-1-.3-1.1-3.3-1.2-4.6-.5-5.1-.8-10.6-1.1-15.7-3.6-2.8 4.6-4.1 6.7-4.4 1.6 2.9.9 7.7 1.7 11.3 2-.6 4-2.6 6-3.8.8-3.3 1.9-6.2 3.2-8.9 2.7-.2 7.1 1 9.7 1.3zm-8.2.8c-.6 1.6-1.6 3.9-2.3 5.9-.2.7-.2 1.5-.5 2-.6 1.1-3.4 2.7-4.3 3.3-1 .7-3.8 3.1-4.9 2.8-1.1-.3-.6-1.9-.7-3.3 0-2.8-1.1-6.2-.9-9.1-1.2.3-2.2.7-3.3 1 .5 6.1.7 12.5 1.4 18.5 4-1.4 7.9-5.5 11.7-8.2 1.1-.8 3.1-2.9 4.3-2.5 1.2.4.6 1.7.7 3.3.1 1.6.9 3.6.3 5.5 1.5.2 2.7-.1 4-.1.8-6.4.5-11.9 1-18.1-2.6-.1-4.3-.8-6.5-1zM64 197.9c-1 2.8-2.1 5.5-3.5 8.2-.5.9-1.2 1.9-1.2 2.6 0 1 2.1 3.9 2.8 4.8.9 1.1 2.1 1.8 2.6 3.1 1.5.1 4.2-1 4.3.7 0 1.7-2.8 1.1-5 1.5-1.7.3-3.9 1.1-5.1 1.1-1.9.1-3.4-.1-4.8.2-.1-.2-.2-.4-.4-.5.1-1.4.8-2 2-2.1-.6-2.1-2.3-3.2-3.2-5-2 1.2-2.9 3.8-3.5 6.6 1 .1 2-.4 2.9.1 1.5 2.8-3.9 1.8-6.3 1.8-1.2 0-3.1.9-4.9 1.2-.5.1-1.1-.1-1.6 0-1.4.3-4.6 2.3-4.7 0 0-1.3 4-2 5.5-2.2 1.8-3.5 3.1-7.5 5-10.8-1.7-3.2-5.7-4.5-6.8-8.2-1.2.3-4 1-4-.7.1-2.1 7.9-1 9.1-3 1.5 1.4 7.9-2.1 8.2.3.3 2.3-4.2 1.1-5.5 2.1 1.6 2.5 4.3 4 5.8 6.5 1.5-1.8 2.5-4.2 3.9-6.1-.6-.1-1.3-.5-1.3-1.1 0-1.1 1.8-1.3 2-2.2 2.1.5 9.1-2.3 9.5-.6.2 1.4-1 1.3-1.8 1.7zm-5.6 13.5c-.6-.9-1.4-1.3-1.4-2.1-.1-.7.4-2 .7-2.8 1.1-2.4 3.1-5.2 3.8-8 0-.1-.1-.2-.3-.2-.6.3-1.4.3-2.1.4-.9 1.5-2.1 3.2-3.6 5.6-1.2 2-4.4 7.7-5.4 3.2-2.1-2.7-4.9-4.8-7-7.4-5.2.8-.3 3.4 2.2 6 1.9 1.9 4.1 4.8 1.1 5.1-1.6 2.4-2.7 5.3-3.8 8.3 1.3-.1 2.7-1 4.2-.3.3-1.4.4-3.1 1-4.4.8-1.6 2.8-5.2 4.9-4.8.8.1 2.8 2.9 3.8 4.4.7 1.1 1.2 3 2.3 3.3 1.1.3 2.3-.5 3.4-.6-1.3-1.6-2.5-3.8-3.8-5.7zm69.8 167.8c-2.6 2.2-7.6 2-12 2.4-.9-.9.8-2-1.5-2 2.6-1.2 8.3 1.2 11.5-.4-3-2-6.9-3.1-11.4-3.6.8-1 2.7-.9 3-2.5 4.7 1.6 6.8 3.2 10.4 6.1zm-113.7 5.5c8 3.2 15 7.4 24.4 9.2-8.3.9-18.5-4.6-24.4-9.2zm113.9-77.8c-2.5-1-3.8-8-7.9-8.5-2.7-.4-5.8 3.2-8 3.9-7 2.1-16.5.8-25.5 3.3-17.9 4.8-44.8 5.7-61.9 7.4 0-.8.3-1.9-.5-2 21.4-4.2 54.1-6.6 76.4-8.3 2-.1 2.9-1 5.5-1 1.2 0 3 .1 3.5 0 3.8-.8 6.7-4.9 11-3.9 3.7.9 5.6 7 7.4 9.1z"/><path class="st0" d="M16.6 374.7c.5-1.5-1.1-.9-2-1 6.3-1.9 15.9-.7 22.4.2-6.8-2.5-13.8-4.9-19.9-8.2.8-.8 3.4.9 5 1-2.3-1.8-6.2-2.2-8.9-3.6 15.9 4.4 36.9 11.8 58.2 12 2.3 0 2.9.5 4-.5.8-.2.9.4 1 1 7.1-2 14.6-.5 21-1.3-21.2-12.4-48.7-19.4-80.6-20.7-6.8-.2 4.4-1 7-.9-.1-.6-.9-.4-1.5-.5 1.1-1.3 3.3 0 2 1.5 2.3-1.6 3.3.6 6.5-.4v-2c2-.3 0 1.7 0 2.5 2.1-1.1 2.8-4 1.5 0 2 1 4.7-.4 7 1.1 1.5 0-.7-3.7 1.5-3 0 1.2-.9 1.5-.5 3 10.7 1.3 18 3.1 27.4 5.7 1 0-.6-1.7 0-3 1.8.1 1.6 2.1 1.5 4 16.5 3.7 28.5 8.2 44.3 10.9v3c-1.7.1-4-.4-5 .5 1 1.6 4.2 1.1 4.5 3.5-11.2 1.9-26.3-4.1-40.4-3.3.3 1.7 3.3.7 4.5 1.5 1.7-.4 2.8.8.5.5-9.4 1.1-19.7-1-28.4-2.2 6.1 2.7 13.7 4 20.4 6.2.1 1.4-3.3-.6-2.5 1.5-.5-1.7-1.2-.5-1.5-2-.5.3-.5 1.1-1.5 1 .1-.4.5-.5.5-1-7.1-.4-17.5-7.6-24.4-3.7 1.3-.9.4-.8 1-2-.7.2-1.3.7-2 1 2.9 1.9 7.2 2.9 11.9 4.1.7-.2-.2-.6 0-1.5 3.9 4.5 10.4 2.5 12.4 5.1-.1-.8 1.3-1.7 1.5.5-.8-1.8 2.8-1.5 2 0 1.1 1.2 1.6-2.4 3-2.5 2.6-.2 3.5 1.2 5.5 1.5-.4 1.5.8 1.5.5 3 1.7.2 4 1.6 4.5 0 7.9 2.2 15.5 4.5 21.9 8.2 5.7 0 16.2 1.3 21.4 7.7.6-.1.5-1 0-1 .6-1.3 1.3 1.3 2 1.5-4.4.7-10.4-7.5-14.4-1.6-.2 6.5 9.3 3.4 13.4 5.6-3 .5-12.5 1.8-13.4-2.6-5.8 3.4-9.4-3.3-18.4-4.2-5.9-.6-10.4-.2-16.9-1.1 7.8-1.4 14.8-.8 24.4.7-.4-.9-1.5-.4-.5-1.5-24-12-54.9-19.5-84.6-24.2-1.6-.9.5 0 1.2 0zm52.7 11.5c1.2-1.3 3.8.2 5 .5.3-2.6-2.3-2.4-4.5-2.5.7 1.2-1.9 1.5-.5 2zm-33.8-11.8c-.3 1.5-1.1-.5-2 0 0 .9.4 1.1 1 .5 0 .7-.2 1.1-.5 1.5 1.1.2 2.8-1.5 1.5-2zm86.6-93c-13.1 6.4-31.7 10.4-45 13.6-.7.5.2.8-1 1.5-2.9-.5-5.3 2.3-7.5.9-15 6.3-34 8.6-51.5 12.5-3.3.4-4.4-.8-.5-.5 26.5-8.6 55-15.1 82.5-22.7 1.9-.1.2.4.5 1.5 7.6-2.3 16-3.9 22.5-7.3 3.3 1.8 3.2 3.1 0 .5zm-1.9-7.5c-2-.9-3.2-2.4-5.5-3-13.7 3.5-24.8 11.6-38 12.6-1.3.9-.2 1.1-1.5 2-12.1 1.9-27 10.2-40.5 13.1-3.3.7-7.2.8-11 1.9-6 1.7-10.8 4.8-15.5.4 6.8 4.2 16.1-2.3 24-5.8 9.2-4.1 21.2-6.4 32-10.2 11.2-3.9 22.5-6.8 32-10.2 1.6-.6.4 1.6 2 1 6.1-1.8 17.2-9.3 22-1.8zm-6.9-12c-1.3 1.3-2.8-1.5-4.5-1.5 1.2-1.2 3.1 1.2 4.5 1.5z"/><path class="st0" d="M95.8 265.2c-.3.5-1.1.5-1 1.5 5.6-1.4 8.9-5 13.5-7.4-9.2 10.6-26 12.9-41.6 20.1-12.6 5.8-24.6 12.4-35 15.2-3.4.9-6.2.3-9 1.9-1.9 1.1-3.4 5.1-7 3.9-1.6-.5 2.2-.5 4-2.5 2.4-2.5 7-5.4 11-7.4 9.6-4.8 21.4-8.2 32.5-12.7 11.1-4.3 21.9-9.2 32.6-12.6zm12.1-16.4c-5-2.2-6.2 1.4-9.5 3.9-19.6 14.8-48 22.4-68.1 35.8-5.4-.2-10.6 3.1-14 6.4-2-.5-6.3 1.3-5.5.4-1-1.6 2.6-.3 4.5-1 4.8-1.6 8.4-6.7 13-9.4 9.7-5.6 21.4-10.2 32.6-15.7 11-5.4 21.7-12 32.6-15.7-.6 1.1-2.5.9-3 2 5.4-1 9.9-9.7 17.4-6.7zm-21 179.4c-2.8-2.6.3-2.2-3.5-4 .2.4.4.9 1 1-1.1 1-1.2-1.3-1.5-2-1 2-3.1-3.4-6.9-4.1.8 1.3 5.4 3.7 4.5 3.5-2.3-.9-3.9-2.4-6-3.5.2-.8.9.4 1-.5-1.1-1.4-1.8.1-2.5-.5-9.7-8.9-33.7-16.6-51.2-21.4 17.5-.7 38.5 6.9 45.8 14.4.9.1 1-.5.5-.5 5.4 4.6 16 9.6 23.3 15.2 1.7-3.8 3.2-7.8 7.6-8.9-2 2.9-3.1 6.3-5.6 7.4 2.7.3 2.9 3.1 5.5 3.5 3.4-.8 1-6.8 4.6-8.4 0 6.9-4.2 16.7-11.6 16.4-2.4-.1-3.9-2.6-6.4-3.5-3.9-1.4-9.2-.9-14-1.1-21.1-1.2-45.8-5-55.7-13 18.6 8.2 43 10.9 71.1 10zm-13.7-29c-.2 1.1-2.5.2-3.5.5 2.3 2.8 5.4 1.6 10 2.1-3.5 1.7-7.6-.5-12-.1-.2-1.2 2.3.3 1.5-1.5-2.1-1.4-4-.6-8.5-1.1 4.1-1.8 7.9.2 12.5.1zm-34.9-3.8c2-2.4 7.3.4 12 1.1 3.1.5 6.1.6 8.5 1.6-6.3.3-12.8-.9-18.4-3.2 1.8 1.7-.2.3-2.1.5zm-14.5-54.5c17.8-.4 39.6.1 56.8 2 3.1.3 5.2 3.2 7.9 4.1 12.3 4 28.3-2.6 38.9 2.8-14.3 2.7-33.7-5.2-44.4 1.6-16.5-1.7-43.9 0-59.8-4-.3-1.6.4-5.1.6-6.5zm109.9-21c-3.3 1.1-11.9-2.3-12.5 2.9 2.6 4.5 8.2-.9 12.5-.9-3.1 6-11.1 5.4-17.5 5.8-15.3 1-33.8 5.3-46.9 6.6 5.7.2 13.8-1.3 21-2.3-19.2 5.5-48.7 7.7-68.8 1.4 30.6 1.2 59.4-3.1 83.9-9.7-25.2-4.6-58.5-2.9-82.3.3 17.8-9.9 46.1-8.4 67.4-7.9-6.3 2-14.4.1-18.5 2.3 10.3-.3 25.5 1.2 34.9.3 1.3-.1 3.6-.5 3.5-1.5 6.7 1.6 16-1.5 23.3 2.7zm-66.3-2.6c-.1.6-.2 1.2-1 1-8.8-.1 5 1.4 4.5 0-1.6.2-3.1.1-3.5-1zm-6.6 17.9c-.7-.1-3.6-.1-2 .5 3.4.4 5.2-.8 8.5-.4.4-.1.6-.4.5-1-2.3.3-4.9.3-7 .9zm-19 .8c1.3-.2 6.1.5 5-.5-1.3.3-6-.4-5 .5zm83.6-225.4c-5.7 1.3-8.2-.2-12.6 3.6-6.5-1.1-12.5-1.7-15-3.6v1.8c-5.5-.7-6.7 2.9-10.2 4.2v3c-3.3.4-3.2 9.1-6 12-1.1 13.6.3 22.8 9.6 27.6 4.4-1.3 5.2 1.6 7.8-.6 3 2.7 10.4-3.9 12.6-6.6.7.9 1.5 1.7 2.4 2.4-.6 6.9 3.2 7.9 9.6 7.8 4.4-13.7 4.8-28.1 5.4-47.4-2.6 0-2-3.2-3.6-4.2zm-21 14.4c2-1.1 2.2 2.9 2.4 0 1.4 3 .3 8.7 0 12-1.1-1.4-1.7 4.7-1.8 6-6 2.1-5.4-3.7-7.8-6 1.4-5 4.1-8.7 7.2-12zM85.2 84.8c.1.9-.1 2.1 1.2 1.8 1.6-2.7.7-15.8.6-19.8-5.8-1.3-14.4-2.2-21.6.6-5.8-2.6-10.1 0-18-1.2-.6 1.4-2.8 4.6-4.2 4.8.4 3.8-.3 6.4-1.8 8.4 5.5 2.1 11.3.2 17.4 1.8-1 11.9 2.1 28.6-.6 40.8-.5 2.5 1 7.7 0 10.8-.1.3-.1.4-.2.5.1-.1.2-.3.2.7-.1 2.2-3.7 4.7-1.8 7.8-.2.1-1.2-.6-1.2-.6-1.6 5.4-2 11.6-7.2 14.4-9.3-.5-13.6-12.5-11.4-19.8.2-.6 1.3.3 1.2-1.2-1-14.3-9.9-.8-18-3.6-1.2 4.3-5 3.3-7.2 7.2v1.2c2.8.4 1.4 6.3 3.6 5.4.5 1.9-.5 2.3-1.2 3 4.1 2.3 2.4 10.4 6.6 12.6-1.6 1 .1 2.5 1.2 4.2 2.6 4.1 10.6 10.2 15 11.4 3.2-1.1 4.9 1.6 11.4.6.1-.7-.1-1.7.6-1.8.1.5 0 1.2.6 1.2 8.7-4.6 15.4-5.8 18.6-16.8 2.3.3 1.1-6.6 3.6-6 .8-8.3 1.5-9.7 1.2-19.2.6 0 .7.5 1.2.6.3-11.7 1-28.5 2.4-43.2-1.5-.2.7-3.5-.6-5.4 3.4.2 6.1-.3 8.4-1.2zM249.6 143c-5.8.7-7.3-.7-10.2 1.2-7.3-2.4-10.1-.6-17.4-1.8v-3c7.3-6 12.9-10.6 18-18 1.4 1.6 2.6-2.4 4.2-.6 0-2.7-.2-6.5 1.2-3 .3-5.4-.4-7.3-.6-11.4-4.5-2.3-12.3-.8-14.4-.6-1.8.2-2.9-2.1-4.2-2.4 0 0-.1 1.3-.6 1.2-1.9-.4-5.3-1.9-7.8.6-3-1.5-8 .9-13.2-1.2.1 3.6 1.4 5.1-1.2 7.2 3.4-.6 1.4 5.2 1.2 6.6 2.3.9 2.8 0 3 2.4 2.7-1.3 4.5.5 8.4-.6-.5 2.8.9.6 1.2 1.8-2.7 3.9-4.1 12.1-6.6 15 .2-.2-.3-1.4-.6-1.2 0 3.9-3.4 5.8-3.6 9.6-.2 4.6.8 7.9 0 12.6 1.8-.6 1.1 1.3 1.2 2.4 12.7.2 24.9-1.9 42.6-3.6.5-7.8.6-7.9-.6-13.2zm-66.6-.6c-.8 5.4-10.7 1.5-13.2 3.6-.2-2-1.4 1-2.4-1.8-.1 1.7-3 1-4.2 0 .1-.9-.2-2.2.6-2.4-.1.2.4 1.5.6 1.2 4.7-5.4 7.4-14.8 15-17.4 2-4.4.4-11 1.2-13.8-3.6-.9-7-1.1-12 0V110c-4 1.3-5.3-1.3-7.8.6-2.4-2-7.5.3-9.6 0 .2 0-1-1.7-1.2-1.8-.9-.3-2.2.8-3 .6-1.4-.3-2.7-3.4-5.4-.6-.2 7.2-.3 11 1.8 16.2 7.4.5 8.1-.4 13.8.6-2.8 6.8-5.9 13.3-10.2 18.6-.2 1.4.1 2.3.6 3h-1.8c.8 4.6 1.2 10.5 3 15 3.4.5 6.3-2.5 9 0 .1-2.8.7 1.3 3 0 .1-.7-.1-1.7.6-1.8.1 3 5-.1 5.4 1.2.1-.7-.1-1.7.6-1.8.6 1.8 1 .8 1.8 0 1.1 2.6 7.4-1.5 10.2 1.2.1-.5 0-1.2.6-1.2.2 2.2 2.6-.1 3.6 1.2-.4-1.6.2-2.2 1.8-1.8-2.6-6.2 3.3-13.6-2.4-16.8z"/></g></svg>