<svg version="1.1" id="Слой_1" xmlns="http://www.w3.org/2000/svg" x="0" y="0" viewBox="0 0 566.9 467.7" xml:space="preserve"><style>.st0{fill-rule:evenodd;clip-rule:evenodd}.st0,.st1{fill:#ee7f00}</style><g id="Режим_изоляции"><path class="st0" d="M348.4 0c2.9-.1 5.7.1 8.6 0 1.9 10.4 4.4 22.4 2.1 32.2 0 .9.1 1.7.3 2.4-.5.1 0 1.1-.7.5 1.1 5.5-1.2 9-3.3 13.2-.1 8.8 2 15.4 9 17.1-9.9.6-12.4-15.4-8.1-22.4-1 .1.4-1.9.7-2.9-.3-1.6-1-4.8-1.8-7.3-4.8-9.1-5.8-22-6.8-32.8z"/><path class="st0" d="M344.1 36c-1.4-.2-1.1-.1-1.8-.9-1.8-.5-5-.7-8.4-.9.4 0 .9 0 .7-.5-1.7-6.3-1-15.1-1.6-22.6.9-2 1.2-11.1 1.2-11.1s0 .9 0 0h-7.1c.9 3.2.3 9.5 2.6 11.2-.2 7.5.2 17.8 1.4 24-2 .5-3.2 1.6-4.7 2.5.3-.9 2.3-1.4 2-2-3.4 2-4.1 4.3-6.8 7.4-3 11.7 5.8 21.2 16.7 19.9 3.8-.4 8.4-2.6 10.7-5.8 4.7-6.5 1.7-17.5-4.9-21.2zm25.5 4.5c.1.4.3-.1.8 0-.2 1.4-.7 2.4-1.4 3.4-.5.1 0-.7.2-.7-1.7 1-.9 2.4-2.9 3.7.1.4.8.2.5.9-2.9.5-2.5 3.9-4.9 4.9 1.3-4.9 4.1-8.4 6.9-11.9.4-2.5-.5-4.5-1.3-7.6-2.7-10.2-4.9-22.8-7.5-33.1 2.4-.1 4.9.1 7.3 0 .5 9.4 2.1 19.6 3.1 29 .5 4.9 1.7 8.7-.6 11.2.1.1-.1.1-.2.2z"/><path class="st0" d="M369.3 46.2c.4-1.9 1.6-3.4 2.4-5.1 1.2-2.8 3.7-5.3 4.8-8.2 1-2.8-.4-6.5-1.1-9.9-1.5-7.5-3.1-15.4-4.9-22.9 2.2-.1 4.4.1 6.6 0 .3 9 2 19.2 2.8 27.5.3 3.3-.2 5.4-1.5 7.7-.7 1.3-2.3 2.4-2.7 3.4-.2.6.3 1 .1 1.4-.8 1.5-3.6 3.9-4.2 3.9.3.7-1.3 1.4-2.3 2.2zm-64.6 18.9c1.3-2.3 5-2.5 6.4-4.7-.2-3.7-2.2-6.9-2.7-10.6-.9-6.7.3-13.6-.5-20.2-.1-.7-.7-1.2-.8-1.9-.6-2.4-.5-5.7-.8-8.1-.6-5.6 1.1-13.4.7-19.6 3.1-.1 6.2.1 9.4 0-.4 5.1-.7 13.7-1.4 20.3-.4.9-2.8 1.1-2.2 2.2.4.5.2-1.3 1.2-1-1.2 6.6-3.5 12.2-3.6 19.8.6-.1.1-1.2.2-1.7.6.3.2 1.7.3 2.4-4 2.8 2.9 15.1 1.7 18.7-.9 2.6-4.9 2.5-6.4 5-.9.2-1.1-.3-1.5-.6zm7.8-42.1c-.6 1.1-1.2 4.6-.8 6.4.2-1.9 1.8-5 .8-6.4zM262.8 0c2.9-.1 5.7.1 8.6 0 2 10.4 4.5 22.4 2.1 32.2 0 .9.1 1.7.3 2.4-.5.1 0 1.1-.7.5 1.1 5.5-1.2 9-3.3 13.2-.1 8.8 2 15.4 9 17.1-9.9.6-12.5-15.4-8.2-22.4-1 .1.4-1.9.7-2.9-.3-1.6-1-4.8-1.8-7.3-4.8-9.1-5.8-22-6.7-32.8z"/><path class="st0" d="M283.9 40.5c.1.4.3-.1.8 0-.2 1.4-.7 2.4-1.4 3.4-.5.1 0-.7.2-.7-1.7 1-.9 2.4-2.9 3.7.1.4.8.2.5.9-2.9.5-2.5 3.9-4.9 4.9 1.2-4.9 4.1-8.4 6.9-11.9.4-2.5-.5-4.5-1.3-7.6-2.7-10.2-4.9-22.8-7.5-33.1 2.5-.1 4.9.1 7.3 0 .5 9.4 2.1 19.6 3.1 29 .5 4.9 1.7 8.7-.6 11.2.1.1 0 .1-.2.2z"/><path class="st0" d="M283.6 46.2c.4-1.9 1.6-3.4 2.4-5.1 1.2-2.8 3.7-5.3 4.8-8.2 1-2.8-.4-6.5-1.1-9.9-1.5-7.5-3.1-15.4-4.9-22.9 2.2-.1 4.4.1 6.6 0 .3 9 2 19.2 2.8 27.5.3 3.3-.2 5.4-1.5 7.7-.7 1.3-2.3 2.4-2.7 3.4-.2.6.3 1 .1 1.4-.8 1.5-3.6 3.9-4.2 3.9.3.7-1.2 1.4-2.3 2.2zm165.2-10c.6-.4 1.2-.8 1.8-1.3 3.2-1.7 5.5 1.6 8.3 1.4 1.3-.1 2.5-.9 3.6-1.1 1.3-.3 2.9-.5 4.2 0 2.7 1 6.1 5.8 6.9 9 .4 1.5-.1 3 .2 4.6.5 3.8 2.6 8.2 4.5 12.6 2 4.6 4.4 9.3 7 13 .8 1.1 1.9 2 2.1 3.3-2.1 1.9-3.8-.6-5.3-1.7-3.3-2.6-6.2-5-9.9-7.5-1.4-1-3.8-2.9-5.2-1.9-1.6 1.1 0 4.5 1.1 6.3 1.4 2.3 3.5 4.7 5.2 7.2 1 1.6 4.2 5.7 2.5 6.8-1.1.7-3.2-1.3-4.5-2.4-4.4-3.5-8.5-7.7-12.9-11.1-2.8-2.2-6.1-3.7-8.9-5.8-2.9-2.2-5.9-4.1-8.8-6.4-.4-.6-.9-1.2-1.3-1.9-.2-.8-.7-1.8-.8-2.6-.4-3.8.7-7.9 4.5-10.6.6-.5 1.6-.7 2.1-1.4.9-.9.7-3.4 1.3-4.8.4-1.6 1.4-2.7 2.3-3.7zm23.6 24.4c-.7-.7.8-2.4 1-2.9 1-3-1.3-5.1-2.4-8.6-.3-.9.3-2 .2-3.1-.1-2.5-1.7-7.5-4.3-9.1-2.4-1.5-5.1 1.5-8 1.5-2.2 0-3.7-2.1-6-2.3-2-.1-4.6 1.5-5.4 3.6-.7 1.7.2 4.3-.9 5.8-1.3 1.8-3.1 1.9-4.5 2.9-2.8 2.1-3.6 6.2-2.3 8.8 1.5 2.9 3.6 4.2 5.7 5.5 1.5 1 2.9 2.1 4.3 3 2.9 1.8 6.2 1.8 8.9 3.9 0 .4-.1.8-.7 1.2 4.3 2.1 8.7 6.6 12.6 11 1.3 1.5 2.5 3.2 4.2 3.9-.7-5-7.3-10.7-10.1-16.1-1.5-2.8 2.4-6 5.1-5.5 3.5.5 8.1 6.5 11.2 9.5 1 1 2.1 2.5 3.4 2.2.2-1.5-1.1-2.8-2-4.2-2.8-4.3-5.6-8.9-7.6-12.8-.6.5-1.4 2.8-2.4 1.8z"/><path class="st0" d="M446.5 46.9c1.9-.7 3.7-1.1 5.4-.9.5-2.1 1.4-4.1 4.3-5.9-.9 1.9-2.7 3.7-2.1 5.9 2.3.6 4.9.3 7 2.5-.4.4-1.1 0-1.6-.1-1.9-.2-5.1-1-7.2.9-1.4 1.3-2 3.4-2.4 5-.1.4 0 1.1-.5 1.3-1.3-2.9-1.3-5.6 1.8-7.7-1.3-1.5-3.1-.9-4.7-1z"/><path class="st1" d="M238 525.2c-1.5.2-2.9.5-4.5.7l-2.1-5.1c-4.7-11.9-9.5-23.8-14.1-35.7-1.5-3.8-2.3-7.8-3.5-11.7-2.7-8.4-3.6-17.2-5-25.9-1.7-10.2.3-19.6 5.5-28.4.7-1.1 1.2-2.4 1.8-3.6l.8-2c-1.8.9-3.2 1.7-4.6 2.5-4.6 2.6-9.2 5.4-13.9 7.8-3.3 1.7-6.9 2.8-10.5 4.3-.1 3-2.1 5.4-3.5 7.9-6.7 12.3-10.9 25.5-14.7 38.8-2 7-4.1 14-5.6 21.1-1.5 7.3-2.5 14.6-3.3 22-.8 6.5-1.1 13-1.6 19.8-1.1.2-2.3.4-3.8.6V535c.6-9.5 1.3-19 3-28.4 2.5-14.6 6.9-28.7 11.3-42.9 3.2-10.5 7.8-20.3 13-29.9.5-.9.7-1.9 1.1-2.8.2-.6.4-1.3.7-2-1 .2-2.1.3-3.1.5-2.7.4-5.4.9-8.1 1.3-.6.1-1.3.1-1.9.2-7.2 1.1-14.5 1.3-21.8.9l-5.1-.3c-4-.3-7.4-2.3-11-4-3.1-1.5-5.5-3.9-8-6.2-9.3-8.4-16.5-18.6-24-28.6-3.6-4.7-6.5-10-9.6-15-.3-.5-.6-.9-1.1-1.8-.4 1.6-.7 2.8-.9 4.1-1.3 8.9-5 16.8-9.5 24.3-2.8 4.6-5.9 9.1-8.7 13.7-2.2 3.5-4.2 7.2-6.2 10.8-3.2 5.7-6.5 11.4-9.7 17.2-7.6 14-14.7 28.2-20.3 43.1-2.9 7.8-6.6 15.4-9.9 23.1-4.6 11-9 22-12.4 33.5-1.2 4.2-2.6 8.4-2.4 12.8 0 .8-.2 1.7-.3 2.6-1.2.2-2.3.4-3.6.6-.2-2.9-.2-5.7.6-8.4 4.4-14.6 9.6-28.8 15.8-42.7 3.2-7.2 6.3-14.5 9.2-21.9 4.1-10.5 8.8-20.8 14.1-30.7 3-5.7 6-11.3 9.1-17 3.7-6.8 7.5-13.5 11.4-20.3 1.4-2.4 3-4.6 4.5-6.9 4.5-6.6 8.5-13.5 11.5-21 .8-2 1.3-4 1.8-6.1 1.1-4.5 2.2-9 3.3-13.4.3-1.1.4-2.1-.2-3.2-4-7.2-6.4-15.1-9.5-22.7-1.7-4.1-3.6-8.1-5.2-12.3-1.8-4.7-3.4-9.4-5.1-14.1-1.9-5.1-3.8-10.1-6.3-14.9-.6-1.2-.9-2.7-1.1-4.1-.5-4-1.5-7.8-2.6-11.7-1.4-5-1.9-10.2-2.8-15.3-.2-1.3-.4-2.6-.5-4-.8-7.4-1.1-14.8.3-22.2 1.8-9.2 6-17.1 11.9-24.2 1.1-1.4 2.8-2.4 4.3-3.5 1.4-1 3-1.7 4.5-2.5.3-.1.5-.4.8-.7-1.8-1.3-3.5-2.5-5.2-3.6-1.1-.7-1.7-1.7-2.2-2.9-.7-1.8-1.8-3.4-2.9-5-1.5-2.2-3.5-4-4.3-6.6-.3-.9-.6-1.8-.7-2.7-.6-3.6-.9-7.4-1.8-10.9-.7-2.8-1.2-5.5-1.2-8.3 0-3.2.8-6.1 3.3-8.6.7 1.2 1.2 2.2 1.8 3.1 2.7 4.3 6.6 7 11.3 8.7.8.3 1.9.4 2.8.3 2.7-.4 5.4-1 8.1-1.4 1.3-.2 1.7-1.1 1.6-2.2-.1-1.4-.1-2.8-.4-4.2-1-4.7-.6-9.4.2-14 1-5.2 3.1-9.9 6.8-13.9 4.1-4.5 8.8-8.2 14.3-10.9 3.2-1.6 4.8-4.3 6.2-7.3.5-1 1.2-1.8 1.4-2.8.8-3.7 1.4-7.5 2.1-11.3.3-1.4.5-2.9 1.1-4.2 1.2-2.8 2.5-5.5 3.9-8.3 1.6-3.2 3.7-6 7-7.8 0-.7-.1-1.3-.1-1.9.1-2.4.9-4.5 2.4-6.5 2.6-3.5 6.2-5.3 10.1-6.8 4.8-1.9 9.5-4 14.3-5.9 3.2-1.3 6.4-1.9 9.9-.9.2-.5.4-.8.4-1.2.2-4.2 2.2-7.6 5.4-10.3.4-.3.7-.6 1.1-.9 4.4-4.6 9.9-5.2 15.8-4.1 8.1 1.4 15.7 4.2 23.1 7.5.4.2.8.4 1.3.6 3.4 1 6 3 8.4 5.8 1.1 1.4 3.1 2 4.7 3 2.7 1.7 5.4 3.2 7.2 5.9.6 1 1.2 2 1.6 3.1.7 2.1 1.8 3.7 3.4 5.1 1.4 1.2 2.6 2.7 3.7 4.2 1.3 1.7 2.5 3.6 3.8 5.4 3 4.1 5 8.7 6.8 13.3 2.5 6.1 4.8 12.2 7.2 18.3.8 2 1.9 3.9 2.8 5.9 1.1 2.5 2.3 4.9 2.2 7.8 0 1.5.4 3.2.9 4.6 1.1 2.9 1.1 5.8.8 8.8-.6 5.5-1.2 11-2 16.5-1 6.4-4.8 11.1-9.5 15.2-1.7 1.5-3.4 3-5.3 4.3-1.3.9-2 2.1-2.2 3.7-.2 1.6-.3 3.3-.4 4.9-.4 5.9-3.4 10.4-7.5 14.5-1.8 1.7-3.7 3.1-5.9 4.1l-2 1c2.4 1.5 4.7 2.2 7.2 2.1 2.4 0 3.7-1.7 5.1-3.3 1.3-1.5 2.8-2.7 5.1-3.1-.7 3.9-1.2 7.7-1.9 11.4-.8 3.8-3.6 6.6-5.8 9.8.3.2.5.4.7.4 3.8 1.1 7.7 1.8 11.3 3.5 2.4 1.1 4.8 2.2 7.2 3.1 12.3 4.6 23.8 11.1 35.8 16.6 4.8 2.2 9.5 4.7 14.3 7 .6.3 1.1.5 1.6.6 1.9-1.8 3.6-3.5 5.4-5.1 3.2-2.8 6.9-3.8 11.1-2.4 2.9 1 5.9 1.6 8.8 2.4.5.2 1 .6 1.4 1 1.5 1.5 3 2.5 5.3 2 1.7-.4 3.6-.4 5.4-.3 2.9.3 4.9 2.3 6.9 4.1 2.1 1.9 3.1 4.4 3.5 7.2.5 3.4.9 3.8 4.4 4.4 2.7.4 5.4.6 8.1 1.1 1.3.2 2.8.1 3.4 1.6.7 1.7-.8 2.5-1.6 3.7-.1.2-.3.3-.5.5 3.2 3.1 7.8 4.1 11 7.2 1.6-.8 3.4-1.5 5.6-1.2.5.1 1.3-.4 1.8-.9 3-2.9 6.6-4.9 10.1-7.2 2.6-1.7 5-1.2 7.2 1l4.5 4.5c2.7-.6 5.5-1.2 8.2-1.9 2.2-.5 3.8.2 5.1 2l9 12.6c.3.4.5.8.9 1 4.4 2.8 4.6 3.1 5.9 7.5.5.1 1.2.1 1.7.3 2 .9 2.7 3.1 1 4.8-.6.6-1.4 1-2.1 1.5-.4.3-.7.8-1.1 1.2l.3.6c.6-.1 1.3-.2 1.8-.5.9-.5 1.6-.3 2.4.2 4.5 3.3 9.7 5.1 14.6 7.4 8.1 3.9 16.6 7 24.9 10.5 4.7 1.9 9.2 4.2 13.9 6.3 2.7 1.2 5.4 2.4 8.2 3.5 1 .4 2.1.3 3.2.3 3.5.1 7 .5 10.2 2.2.3 1.2-.4 2-1.1 2.7-2.6 2.6-5 5.4-7 8.5-1.4 2.2-3.5 4-5.1 6.1-2.5 3.1-4.9 6.3-7.4 9.5-.8 1-1.7 1.9-2.6 2.6-.6.5-1.4.6-2.4 1-1.2-1.9-2.3-3.7-3.4-5.5-.9-1.5-1.9-3-2.8-4.5-.2-.3-.5-.5-.6-.7-1.3-3-4.1-4.1-6.7-5.5-6.1-3.5-12.9-5.4-19.1-8.5-4.1-2.1-8.4-3.7-12.2-6.5-3.1-2.2-6.6-4-9.9-5.8-4.1-2.2-8.2-4.3-12.3-6.4-5.4-2.8-10.9-5.5-16.6-8.3-.1.1-.6.3-1 .7-4 4.4-8 8.8-12.1 13.1-2.6 2.7-5.6 5-8.3 7.6-3.4 3.2-7.1 6.1-11.7 8.2 2 3.3 4 6.4 6.7 8.9 1.1 1 2.3 1.9 3.4 2.9s1.9 2.2 2.3 3.7c.8 3.2 2 6.3 2.8 9.4.4 1.7.4 3.6.4 5.3 0 1.5-.3 3-.7 4.4-1.1 4.5-.3 8.8 1 13.2 1 3.2 1.7 6.5 2.6 9.7.7 2.5 1.7 4.9 2.6 7.2.6 1.5 1.4 3 .6 4.4-1.2 2-3 3.4-5.3 3.9-.6.1-1.5-.3-2.1-.8-4.5-3.5-9-7-13.5-10.6-2.4-1.9-4.6-4.1-6.8-6.1-.1-.1-.3-.2-.3-.3-4.8-6.5-10.2-12.7-13.2-20.3-.9-2.3-1.6-4.6-2.5-7.2-3.2.7-6.5 1.5-9.2 2.1-.8 2.2-1.4 3.8-2 5.6.3.1.8.3 1.2.6 1.5 1 2.1 3.6 1 5-2.1 2.6-4.5 4.7-8.3 4.3-1.2-.1-2.1-.4-3-1.1-3.2-2.5-6.5-5-9.7-7.5-1.2-.9-2.2-1.1-3.8-.6-5.2 1.6-10.6 2.7-15.9 4.1-5 1.4-10.1 1.7-15.1 2.3-4.3.5-8.6.6-12.9.6-1.5 0-3-.7-4.5-1.1-2.2-.7-4.3-1.5-6.5-2-.6-.2-1.6.1-2.1.5-1.4 1-2.8 1-4.2.2-1.5-.8-3-1.6-4.5-2.6-1-.7-1.9-1.6-2.7-2.4-3.4 1.6-6.4 2.9-9.3 4.4-6.5 3.3-12.9 6.7-19.3 10.1-2 1-4.4 1.8-5.9 3.3s-2.2 3.9-3.3 5.9c-2.8 5-5.2 10.2-5.7 16-.2 2.4-.3 4.9-.1 7.3.9 8 1.8 15.9 3.7 23.7 2.3 9.5 5.5 18.7 9.3 27.8 4.5 10.6 8.4 21.4 12.5 32.1-.2.4-.2.7-.2 1.2zm-6-441c.2.1.4.3.6.4l.1.1h-.2l-.5-.5-.6-.3c0-.7-.4-.9-1.1-.8-.2-.1-.4-.3-.5-.4-.2-.1-.4-.3-.5-.4-.2-.1-.4-.3-.5-.4-.3-.1-.7-.2-1-.3l-.1-.1h.1c.3.1.7.2 1 .3.2.1.4.3.5.4.2.1.4.3.5.4.2.1.4.3.5.4.4.3.7.5 1.1.8.2.1.4.2.6.4zm-120.6 62c-.1.2-.3.3-.4.5-1.1 1.1-2.2 2.3-3.5 3.6 1 .6 1.6 1 2.4 1.5.4-1.8.8-3.4 1.1-5 .2-.2.3-.4.4-.6zm107.3-73.3c-.1 0-.2-.1-.3-.1.1 0 .2.1.3.1.2.1.4.2.6.4 0 .1 0 .1.1.2h.2c-.1-.1-.2-.1-.3-.2-.2-.1-.4-.2-.6-.4zM106 190.5c-.1.2-.3.3-.4.5-1.1 1.2-2.1 2.4-3.1 3.6 0 .1.1.3.1.4 1.5-.6 2.6-2.1 3-4.1.2 0 .3-.2.4-.4v-.2c.1.1.1.1 0 .2zm152.3-12.1c-.1.2-.3.4-.4.5-.1.2-.3.4-.4.5-.1 0-.1 0-.2.1v.1c0-.1.1-.2.1-.2.1-.2.3-.4.4-.5l.5-.5v-.2c.1.1 0 .1 0 .2zm153.3 129.9c.1-.2.3-.4.4-.6s.3-.4.4-.5c.9-1.1.9-1.1.5-2.2-.2 1-.3 1.6-.4 2.3-.1.2-.3.4-.4.5l-.5.5c-.1.2-.2.4-.4.6-.6.3-1.2.7-1.8 1-3 1.7-5.9 1.3-8.7-.3-3.4-2-3.5-4.5-.5-7.1 1-.9 2.1-1.6 3.1-2.4-.8-1.4-1.6-2.8-2.3-4 .9-1.8 2.1-2.8 3.7-3.3 2.9 6.1 7.8 9.2 14.9 10-.9-1.4-1.4-2.5-2.2-3.3-3.9-4-7.8-7.9-11.7-11.8-1.4-1.4-3-1.4-4.7-.2-1.1.8-2.1 1.8-3.2 2.3-1.6.7-2.6 1.9-3.6 3.4.8.7 1.6 1.3 2.4 2 1.1 1 1.6 2.2 1.3 3.6-.6 2.2-3.6 4.1-5.9 3.5-1.7-.4-3.5-.9-5.1-1.7-2.1-1-4-2.2-4-5l.1-.1-.1.2c-1 .2-2 0-2.9-.5-1.7-1-3.5-2-5.1-2.9-2.4 2.9-4.8 5.7-7.2 8.6 1.7.9 3.1 1.6 4.5 2.2 1.9.9 3.8 1.8 5.7 2.8 1.8.9 3.6 1.5 5.3 2.8 3.8 2.9 8.2 4.9 12.8 6.5.5-.3 1.2-.8 1.8-1.2 1.4-1 2.9-1.4 4.6-1.5 3.1 0 5.3 2.5 4.7 5.6l-.3 1.5c5.8 2.3 11.1 5.2 16.4 8.3 3.3 1.9 6.8 3.5 10.1 5.2 4-2.5 6.2-5.7 7.2-10.7-3.4 1.9-6.4 1.6-9.4.3s-5.1-3.5-5.9-6.7c-3.8.6-7.4.2-10.8-1.4-3.1-1.4-3.6-2.4-3.2-5.9.1 0 .2-.2.4-.4zM84 208.3c-.2-.1-.4-.3-.5-.4-.3-.1-.7-.2-1-.3-.5-.2-1-.5-1.5-.7-.1-.2-.3-.4-.4-.5-3.1-2.3-6.1-4.6-9.2-6.9-.1.1-.2.3-.4.4 1 .9 1.9 2 3.1 2.7 2 1.4 4.2 2.6 6.3 3.9l.6.3c.5.2 1 .5 1.5.7.3.1.7.2 1 .3l.5.5.1.1-.1-.1zm144.9-13.8c-.1.2-.3.4-.4.5-.1 0-.1 0-.2.1v.1c.1-.1.1-.2.2-.3.1-.1.2-.3.4-.4.1-.2.2-.4.4-.6.2-.1.3-.2.5-.2l-.1-.1c-.1.1-.2.3-.3.4-.2.1-.4.3-.5.5zm24.2-66.9c-.2-.3-.4-.5-.6-.8-.2-.1-.4-.3-.5-.4-.2-.3-.4-.6-.6-.8l-.1-.1c.1 0 .1 0 .2.1l.6.9c.2.1.4.3.6.4.1.1.2.4.4.7zM70.3 224.3c.2-.1.4-.1.6-.2-.1-.1-.1-.2-.2-.2-.2.1-.3.3-.4.4-.1.2-.2.4-.4.6-.7.6-1.4 1.2-1.9 1.9-.5.6-.8 1.4-1.2 2-5 7.1-7.5 15.1-8.3 23.6-.5 5.8-.3 11.6.5 17.3.7 5.1 1.2 10.4 2.5 15.3 1.7 6.3 4.3 12.4 6.2 18.7 1.4 4.4 3.8 8.5 4 13.3 0 .3.2.6.4.9.4 1 .8 2 1.2 3.1 2 5.3 3.9 10.7 6 16 2 5.1 4.1 10.1 6.2 15.2 1.7 4 3.4 8.1 5.2 12 .4.9 1.3 1.5 2.2 2.6.2.8.1 2.4.8 3.5 4 6.7 7.7 13.7 12.3 19.9 7.2 9.8 14.5 19.7 23.5 28 6 5.6 12.7 9.6 21.2 10 7.7.4 15.3.3 22.9-.7 5.3-.7 10.6-1.3 15.7-2.8 5.2-1.6 10.3-3.3 14.9-6.1 7.2-4.3 14.5-8.3 22-12 8-4 15.7-8.8 23.9-12.4 8-3.6 15.7-7.7 23.4-11.8 4.5-2.4 8.8-5.1 13.1-7.7 1.7-1 3.4-2.1 5.2-3.1-.3-1.6-.2-3.2-.8-4.5-1.8-4.3-3.7-8.5-5.7-12.6-1.8-3.5-3.8-6.9-5.9-10.1-2.2-3.3-4-6.8-6.7-9.7-1.5-1.6-2.7-3.6-4.2-5.6-1 .2-2.1.4-3.1.8-4.1 1.6-8.2 3.4-12.4 5-4.8 1.8-9.7 3.4-14.6 5.2-8.9 3.2-17.7 6.5-26.6 9.7-3.2 1.2-6.5 2.1-9.8 3.2l-2.4.9c-11.9 5.6-23.4 11.9-34.6 18.7-1.8 1.1-3.4 2.5-5.1 3.7-.8.5-1.4 1.4-2.7 1 .9-2.1 2.6-3.3 4.3-4.4 4.2-2.7 8.5-5.2 12.8-7.8 2.2-1.3 4.3-2.6 6.5-4 .5-.2 1-.3 1.5-.6 7.2-3.6 14.3-7.3 21.6-10.8 1.6-.8 2.6-1.8 2.8-3.7.5-4.4.9-8.8 1.5-13.2.6-4.6.5-9.2-.6-13.8-.2-.7-.4-1.7-.9-2.1-2.5-1.8-4.7-4.2-7.9-4.9-2-.4-3.5-1.6-5.2-2.6-4.9-3.2-9.9-6.4-14.9-9.4-5.6-3.3-11.4-6.3-17.1-9.4-6.3-3.5-12.5-7.1-18.9-10.5-2.7-1.4-5.5-2.4-8.5-3.6 5.5-9.1 6.9-19.9 10.8-30-.8 0-1.2.1-1.6 0-6.8-.6-13.4.4-19.8 2.7-1.1.4-2.1 1.2-3.3.7.1-.9.3-1.7.1-2.5-.2-1.3 0-2.4.3-3.7 1.7-7.4 2.1-14.8.9-22.4-.2-1.2-.3-2.3-.5-3.5-.2-1-.4-1.9-.6-2.9-1.6.4-2.8.8-4.1 1-1.4.2-2.7.7-3.9 1.4-2.6 1.5-5.3 2.6-8.3 3-3.4.4-6.9.7-10.3 1.2-4.2.6-8.2.2-12.3-1-.6-.2-1.5-.2-2 .1-2.4 1.2-4.8 2.6-7.1 4-.8.4-1.5.8-2.4 1.3v-1c-.1-.2.1-.4.2-.6zm134.2-8.8c.2.1.4.2 0 0 .4 0 .2 0 0 0-.4-.1-.7-.2-1-.3.2-.4.2-1 .5-1.3 2.3-2 4.6-4 7-5.9 2.1-1.7 4.6-3 4.9-6.2 0-.6.5-1.1.9-1.6.8-1.2 1.7-2.4 2.6-3.7 2.3-3.2 5.7-5.1 8.9-7.1 1.6-1 3-1.9 3.7-3.7 1.7-4.2 3.3-8.4 4.9-12.7 1.3-3.5 1.2-7 .6-10.6-.3-1.8-.8-3.5-1.1-5.2s-.6-2-2.2-1.9c-1.2.1-2.3-.1-3.3-.8-1.3-.8-1.9-.6-3.2.6-.7-.3-1.4-.6-2.2-.9-.2.5-.3.9-.6 1.5-.3-.3-.3-1.1-.6-1.3s-.9.1-1.2 0c-.3.5-.9 1.4-1.1 1.7-.8-.6.8-2.2-1.6-2.1-1.9.3-1.1 1.2-2 2.1 0-1.1 0-1.6.1-2.2-.8-.3-1.5-.6-2.4-1 .6-.2 1.4.4 1.8.2-.2-.7-1.1-2.2-.4-3.1-1.3 0-2.9 1.8-4.4.9 1.4-1.6 3.2-2.6 5-3 1.9-.4 3.5-1.1 5.1-2.2.1-.1.4 0 .7 0-.3.6-.5 1.1-.9 2 1.9-.7 3.5-1.3 5-1.9.2 1.4-1.2 1.4-1.9 2 1.7 1.2 1.7 1.2 3.7-.4-.7-.5-1.3-1-1.9-1.5-.8-1-1.5-1.9-2.3-2.9-2.2.1-4.3.3-6.4.4-1.9.1-3.7 0-5.6-.1-1.3-.1-1.7-.9-1.1-2.1.6-1.2 1.6-1.7 2.8-1.8 2.5-.4 4.9-.8 7.6-1.2-.2-.7-.4-1.6-.7-2.4-1-2.4-2.1-4.7-3.3-7-1.9-3.5-3.7-7-4.6-11-.5-2-.7-4-1.2-5.9-.8-3.5-1.7-7-2.6-10.5-.7-2.6-1.5-5.3-2.2-7.9-.1-.4-.5-.7-.5-.8-1.7.1-3 .2-4.4.2-2.1 0-4.2.1-6.3 0-2-.1-4.2.4-5.4-1.8 0-.1-.3-.1-.5-.1-.2.5-.4 1-.6 1.6-.9.1-1.9.4-2.8.4-1.2 0-2.6.1-3.6-.4-2.2-1.2-4.2-1.8-6.6-.8-.5.2-1.1.1-1.6.1s-1.1-.1-1.6.1c-3 .9-5.9 1.9-9.1 3 .4.2.7.3.9.4l.9.6c-4.6.3-8 2.8-11.4 5.7 1.6.6 2.6-.2 3.6-.8 1.3-.7 1.9-.7 3.1 0-1 .7-1.9 1.3-2.9 2 .4.4.7.7 1 .9-.2 1.3-1 1.7-2.2 2.2-1.5.6-3.2 1.2-4.2 2.6.7 1.1 1.5 1.2 2.4.5 1-.8 2.1-.9 3.4-.1-1.7 1.1-3.3 2.2-4.9 3.3 0 .9 0 1.7-.1 2.5.8.4 1.6.7 2.3 1.1v.5c-1 .3-1.9.6-2.9 1 .5.9 1 1.8 1.3 2.4-1.4 1.5-2.6 2.9-3.9 4.2.7.5 1.1.7 1.5 1-.6 2.3-2.7 3-4.2 4.1.3.8.6 1.5.9 2.3-1.6.3-1 1.5-1.2 2.3.4.2.8.4 1.5.7-1.6.6-1.7 1.8-1.4 3-2 1.2-3.9 2.2-5.8 3.3.1.2.1.4.2.6l2.1-.3c.9-.2 1.8-.5 2.5.6-2 .8-3.6 1.2-4.8.7-3.3-1.4-6.8-.7-10.2-.8-1.2 0-1.8.5-1.9 1.9-.1 2 .1 3.8.8 5.7 1.2 3.5 2.7 6.9 2.8 10.6.1 1.2.4 2.3.5 3.5 1.2-2.2.9-5.4 4.6-5.4 1.1 2.4.2 4.9.7 7.2 1.8-.1 2.1-1.3 2.3-2.6.5-3.4-.5-6.7-1.3-9.9-.3-1.2-1.1-2.1-2.2-2.9-1.6-1.1-2.5-2.8-2.6-4.8-.1-1.2.4-1.8 1.6-1.8.8 0 1.6.4 2.3.5.1 1 0 1.6.1 2.2.1.7.4 1.3.6 2 .5 1.9 1.1 2.3 3.2 2.2.6 3.8 1.2 7.7 1.8 11.6.7 4.4 1.1 8.9 2 13.3.7 3.7 1.4 7.3 2.7 10.9 1.3 3.8 3.7 6.9 5.4 10.2 1-.2 2-.8 2.7-.6 1.9.6 3.8 1.4 5.6 2.3 3.1 1.6 6.1 3.2 9.1 4.9 5.4 2.9 10.8 5.7 16.7 7.4 1.6.5 3.1 1.4 4.7 2 2.7 1.1 5.5 2.2 8.3 3.3.5.1.9.2 1.2.3zM88.7 187l.9-.3c-.1-.1-.2-.2-.2-.3-.2.2-.4.4-.7.6zM205.9 64.4c-.3-.2-.6-.4-1-.7-.1.1-.1.2-.2.3.5.2.9.3 1.2.4.5.2 1 .5 1.5.8 2.4 1.7 4.3 2.5 6.4 2.3-2.4-1-4.3-1.7-6.2-2.5-.6-.2-1.1-.4-1.7-.6zm18 13.9c.1.1.2.1.4.2-.2-.1-.3-.1-.4-.2-.7-.3-1.4-.7-2.1-1.1-2.3-1.8-4.9-2.5-7.6-3.1-.1-.1-.2-.1-.4-.2.1 0 .2.1.4.1 2.2 2 4.9 2.6 7.7 3.1.4.8.9 1.5 2 1.2zm-109 63c.5-.4 1.1-.9 1.6-1.3-1.4-.3-1.6.4-1.6 1.3 0 .1-.1.2-.2.3h.2v-.3zM392.3 298c.1 0 .1.1.2.1-.1 0-.2-.1-.2-.1-.6-.8-1.2-1.4-2.4-1.1.8.5 1.2 1.4 2.4 1.1zM123.8 179.5c1.6-1.2 2.1-3 2.6-4.8l-.6-.3c-.6 1.8-1.2 3.5-2 5.1v.2-.2zm5.8 24c-2.1.5-2.6.9-3 2.8 1.8-.1 2.3-1.5 3-2.8v-.1.1zm110.6-46.1c0-.1-.1-.1-.1-.2h-.1c0 .1.1.1.2.2.8 2.4 2.4 5.1 4 5.8-1.2-2.3-2-4.5-4-5.8zm13.2 23.2c-.6.5-1.2 1.1-1.8 1.5-1.9 1.1-3 2.9-3.7 5.2.6-.2 1.1-.3 1.3-.6 1.1-1.2 2.2-2.5 3.2-3.8.5-.7.7-1.6 1-2.3 0-.1 0-.3.1-.4 0 .1 0 .3-.1.4zm9.4-31.1c-1.2-2.7-1.6-5.8-3.5-8.2.6 2.5 1.2 5 2 7.4.1.4 1 .5 1.5.8-.4.3-.8.6-1.3 1 .5 2.1.4 4.4 1.5 6.3 1-2.1 1-4.2.9-6.4 0-.3-.7-.6-1.1-.9zm61.8 128.2c1.8-1.6 3.6-3.1 5.4-4.7.5-.4.8-1.1 1.2-1.8-1.3 0-2.2-.1-3.5-.1-1 2.1-2 4.4-3.1 6.6 0 .1-.1.2-.1.2 0-.1.1-.2.1-.2zm-45.5-22.4c-2.3 1.9-4.7 3.9-7 5.8 1.3 1.5 2.3.2 3.5 0 2.2-.3 3.2-1.7 3.3-3.8 0-.6.1-1.3.2-2-.1 0 0 0 0 0zM222 72.4c-.1-.1-.2-.1-.4-.2.1.1.3.1.4.2.6 1.4 2.8 1.8 2.4 3.9 0 .2.8.7 1.3.9 1.2.6 2.4 1.2 3.5 1.8.8.4 1.6.9 2.3 1.3-1.8-4.4-5-7-9.5-7.9zM104.6 178.3c.2-.1.4-.2.5-.4 2.8-5.2 2.8-10.6 1-16.1 0-.1-.3-.1-.5-.3-1.3 1.6-1.5 3.4-1.4 5.4.1 2.9.3 5.8.4 8.6v2.8l-.1.1.1-.1zm137.1-75.1c.1.2.2.4.3.5 0-.1.1-.1.1-.2-.2-.1-.3-.2-.4-.3-.1-.2-.2-.6-.3-.8-4.4-6-9.7-11.2-15.5-15.8-.2-.2-.6-.2-1.3-.5 1.2 1.9 2.1 3.5 3.1 5 .3.5.7 1 1.1 1.4 3.2 2.8 6.4 5.5 9.6 8.2 1 .8 2.2 1.6 3.3 2.5zm-71.5-35.5l3.6-4.8c.6-.8 1.2-1.8 2.1-2.2 2.3-1 4.7-2.2 7.2-2.6 3.1-.5 6.4-.5 9.5.5 6.3 1.9 12.7 3.4 18.7 6.3 2.1 1 4.3 2.1 6.4 3.2-.8-1.5-1.8-2.8-3.3-3.4-4.4-1.8-8.8-3.6-13.3-5.3-2.6-1-5.3-2-8-2.7s-5.5-1.2-8.3-1.3c-3.5-.1-6.6 1.2-9 3.8-.6.6-1.3 1.1-2 1.7-1.8 1.9-3.3 4-3.6 6.8-.2.3-.2.7-.3 1-.2 1-.4 2.1-.6 3 1.9 1.5 3.6 2.8 5.4 4.3.1-1.1.1-2 .2-2.9.2-2.5.6-5.1 3.2-6.4 4.4-2.3 9-4.2 14.2-4 2.2.1 4.5.3 6.7.5.2.1.3.2.5.2 0 0 .1-.2.2-.3-.2 0-.4-.1-.6-.1-.5-.4-1-.8-1.5-1.1-3.1-1.7-6.5-2.1-10-2.3-1.4-.1-2.8-.1-4.2.3-3.7.9-6.6 3.2-8.9 6-1 1.2-1.8 2.7-1.6 4.5.1.4-.1.9-.3 1.5-.9-.1-1.6-.2-2.4-.3-.2-1.1-.3-2-.5-2.9.2-.3.4-.7.5-1zm41.3 210.2c.2-.2.4-.5.5-.7 1-2.5 1.9-4.9 2.9-7.4.1-.4.4-.7.4-1.1 0-2.1 1.2-3.6 2.5-5.1.8-.9 1.5-1.8 2.4-2.8-4.9-2.7-7.8-7-11.1-11.6.1 2.3.1 4.1.2 5.9 0 1 0 2 .1 3 .3 2.6.8 5.2 1 7.9.2 3.9.2 7.9 1.1 11.9zm102.8 63c.6-.1 1.2-.2 1.7-.4 5.3-2 9.2-6 12.8-10 3.1-3.5 5.9-7.3 7.9-11.6 1.7-3.7 4.6-6.1 8.7-7.3 4.4-1.3 8.7-2.8 12.6-5.4 4.4-2.9 8.1-6.2 11.4-10.3.9-1.1 1-2 .1-3.3-1 .2-2.1.3-3.1.7-1.8.9-3.7 1.7-5.3 3-6.3 4.9-13.7 7.4-21.1 9.9-.7.2-1.4.2-2.1.3l-.3-.6c1-.7 1.8-1.6 2.9-2.2 2.5-1.3 4.8-2.9 6.9-4.9 2.6-2.5 5.7-4.4 8.9-6 1.9-1 3.9-2 5.7-3.2 1.2-.7 2.4-1.3 3.8-1.7 2-.5 3.8-1.3 5.7-2 .4-.1.6-.5 1.2-1.1-1.4-.4-2.4-.8-3.5-.9-2.2-.3-4.3-.5-6.5-.8-2.4-.3-4.6-.9-6.5-2.4-2.1-1.6-4.3-1.7-6.7-1-3.1 1-5.8 2.6-8.3 4.7-1.9 1.7-3.9 3.4-5.9 5-.8.7-1.8 1.1-2.8 1.7-.4-1.3.3-1.7.9-2.2 1.9-1.7 3.9-3.4 5.9-5.1 3.6-3.1 7.6-5.8 12.3-7.1 1.3-.4 2.7-.8 4.1-1.3-1.2-4.3-4.7-6.3-8.2-8.2-.1-.1-.3-.1-.5-.1-4.7-.2-9.2.1-12.7 3.8-.3.3-.5.6-.8.9-4.3 4.5-8.8 8.7-14.4 11.5-.7.4-1.5.6-2.4 1 .1-.5 0-.7.1-.8.2-.3.3-.6.6-.7 3.2-2.6 4.7-6.4 6.3-10 1.4-3 4.7-5.3 8-5.1 1 .1 2 .2 3 0 .7-.1 1.3-.6 2.4-1.1-2.5-1.2-4.4-2.3-6.4-3-2-.8-4.2-1.3-6.3-1.9-4.4-1.2-8.6 1.7-9.2 6.4-.1.4-.3.9-.6 1.2-1.7 1.4-2.4 3.4-3.1 5.4-2.2 5.8-4.1 11.7-6.9 17.2-2.9 5.8-5.4 11.8-8.1 17.7-.3.6-.4 1.3-.6 1.9 1.6-.9 2.5 0 3.2.9.9 1.1 1.7 2.4 2.2 3.8.7 2.1 1.2 4.4 1.5 6.6.3 1.7 1.1 2.5 2.7 2.8 2.3.4 4.5 1.3 6.5 2.6 3.1 1.9 4.2 5.8 2.3 8.9-.6 1.2-.7 2.3 0 3.8zm-36.5-7.4c2.1-2.3 4.6-3.8 5.8-6.5.5-1.1 1.3-2.2 2.2-3 1.4-1.2 1.8-2.6 2-4.3.4-2.9 1.2-5.6 3.8-7.5.9-.6 1.4-1.9 1.9-2.9 2.7-5.7 5.2-11.4 7.9-17 1.5-3.2 3.1-6.3 3.9-9.7-2.3-2.4-5.3-3.5-8.1-4.9-6.7-3.3-13.2-7.1-20.3-9.8-5.7-2.1-11.2-4.5-16.5-7.4-.6-.3-1.3-.5-2.3-.9.2 1.2.3 1.9.4 2.7.9 5.2 1.8 10.4 2.6 15.6.7 4.7 1.4 9.4 1.2 14.3-.2 4.6-.2 9.2.7 13.8 1.1 5.8 1.5 11.6 1.5 17.5 0 1.3.2 2.6.3 3.9 2.6-.7 5-1.3 7.3-1.9 1.9 3 3.6 5.5 5.7 8zM140.4 203.8c-1.2.9-1.2 1.8-.4 3 .7 1.1 1.2 2.3 1.9 3.5 3.8 6.6 7.8 13.2 11.5 19.9 2 3.5 3.6 7.2 5.5 10.8.4.8 1 1.6 1.7 2.2 3.1 2.8 6.5 5.4 9.5 8.3 2.8 2.7 6.2 4.6 9.8 5.9 5.6 2 11.2 4 17.3 1.8 1.7-.6 3-1.4 3.8-3.2.8-1.9 2-3.7 2.9-5.6.3-.7.6-1.6.5-2.4-.6-4.3-1.2-8.6-2-12.8-.4-2.2-1.4-4-3.7-5-3.2-1.4-6.2-3-9.2-4.7-3.2-1.8-6.4-3.7-9.9-4.7-.5-.1-1-.5-1.4-.8-2.6-1.5-5.2-3.1-7.9-4.6-4.4-2.4-8.8-4.7-13.2-7.1-.5-.3-1.2-.3-1.8-.3-1.3-.1-2.6-.2-4-.3-.1-1.1-.3-1.9-.2-2.6.4-2.4 2.1-4.1 3.7-5.8-2.9-4.3-4.5-9-6.5-13.5-1.6 5.9-4.8 10.9-8.8 15.1.2 1 .5 1.8.9 2.9zm69.5 143.1c4.4-1.6 8.4-3.1 12.4-4.5 4.3-1.6 8.6-3.2 13-4.7 3.2-1.1 6.6-2 9.9-3 1.2-.3 2.1-1 2.7-2.1 2.9-5 3.3-10.4 1-15.6-2.2-5.1-5-9.9-7.9-14.6-5-8.4-11-16.2-17.1-23.8-2.1-2.6-4.3-5.1-6.7-8.1-.5 1.7-1.1 3.1-1.3 4.5-1.2 8.3-3.3 16.5-3.8 24.9-.5 8.1-1.2 16.2.5 24.2.1.4.1.8.1 1.2-1 7.1-.7 14.3-2.8 21.6zm-16.7-43.3l.5-.5c-.8-1.3-1.5-2.7-2.5-3.8-2.1-2.6-4.5-5-6.6-7.6-2.7-3.4-5.3-6.8-7.8-10.3-2.5-3.4-5.1-6.8-7.2-10.4-3.1-5.2-5.8-10.7-8.6-16-.6-1.1-.8-2.3-1.4-3.4-6.1-10.9-12.3-21.8-18.3-32.7-2.2-3.9-4.8-7.5-6-11.9-.1-.2-.4-.4-.5-.4-2.1 1.3-3.9 2.5-5.9 3.6-1.6.9-2.8 2.1-2.4 4.1 0 .2.1.5 0 .7-.9 2.8-1 5.7-.4 8.6.1.6.2 1.2.2 1.9.1 5.5-.3 10.9-1.6 16.2-.4 1.5-.2 2.9.4 4.6 7.9-2.7 15.9-3.9 24.3-2.7-4.3 10-5.4 20.8-10.8 30.1 1.8.7 3.4 1.2 4.9 1.9 5.6 2.9 11.2 5.9 16.8 9 4.5 2.5 8.9 5.2 13.4 7.7 4.5 2.6 9 5.1 13.5 7.6 2 1.2 4 2.5 6 3.7zm60-46.1c-14.2-7-28.2-13.8-42.3-20.8-.3.8-.9 1.4-.8 2 .1 2.1.3 4.2 1.6 6 1.3 1.7 2.6 3.4 3.8 5.1 2.1 2.8 4.4 5.5 7.5 7.4.4.3.8.6 1.5 1.1-.5.7-1 1.3-1.5 1.9-1 1.4-1.9 2.8-2.8 4.3-.5.7-.3 1.4.3 2.1 1.6 1.9 3 4 4.6 5.9 10.7 12.2 19.8 25.5 27.1 39.9 3 5.9 2.8 11.7-.2 17.6-.3.6-.6 1.3-.8 2 1.8-.4 3.4-.6 4.8-1 1.5-.5 3-1.1 4.5-1.7.1-6 0-11.7-1.1-17.3-.3-1.7-.6-3.4-.8-5.1-.2-2.3-.4-4.7-.4-7 .1-5.7.2-11.4-.7-17.1-1.2-8.4-2.8-16.9-4.3-25.3zm205.9 72.4v1.3c-.5 4.2-5.3 7.7-9.4 6.8-2.6-.5-4.5-2-5.1-4.6-.6-2.4.4-4.5 2.4-5.9.8-.6 1.6-1.1 2.7-1.8-1.9-1.2-3.7-2.3-5.6-3.5-1.5 4.9-5 8.3-8 12.3 2.4 1.2 4.7 2.6 7.1 3.6 4.2 1.9 8.4 3.9 12.1 6.6 4.4 3.1 9.3 5.1 14.1 7.4 6.5 3.1 13.4 5.3 19.6 8.9 1.7 1 3.3 2.1 4.7 3.4.7.6.8 1.8 1.4 2.4 1.3 1.5 2.3 3.1 3 5 .5 1.1.9 2.3 2 2.9 2.2-2.6 4.3-5.2 6.4-7.7 1.8-2.2 3.6-4.3 5.4-6.5 1.9-2.3 3.7-4.6 5.6-7 .3-.4.6-.8 1-1.2-1.2-.5-2.1-1-3.1-1.1-2.1-.3-4.3-.9-6.2-.4-2 .5-3.3-.5-4.9-.9-1-.3-1.8-1.1-2.7-1.6-1.3-.7-2.7-1.2-4.1-1.8-5.4-2.4-10.9-4.9-16.3-7.2-4.9-2.1-9.9-4-14.8-6-2.4-.9-4.8-2.1-7.3-3.4zm-84.8 24.4c1.5-.1 2.9-.7 4 .5.2.2.9.1 1.3.1 3.2-.1 5.8-1.6 8.1-3.8.8-.8 1.6-1.5 2.4-2.2 2.6-2.4 5.3-4.6 7.8-7.1 2.8-2.9 5.4-6.1 8.2-9 1.8-1.9 3.8-3.7 5.9-5.7-2.8-1.4-5.3-2.6-7.4-3.6-2.8 1.7-5.1 3.3-7.5 4.6-1.2.7-2.7.8-4 1.3-4.2 1.6-4.3 1.7-3.5 6 .6 2.9-.5 5.1-2.3 7.1-1 1.1-2.2 2-3.5 2.7-2.6 1.3-5.2 2.5-7.9 3.6-.4.2-1 .2-1.7.3.7-1.6 2-2.4 3.3-3.1 1.2-.7 2.5-1.2 3.8-1.8 4.2-1.9 4.7-2.1 3.8-7.1-.4-2.3.2-4.3 1.9-6 2.9-2.9 6.6-4.5 10.4-5.5 1.8-.4 3.2-1.3 4.4-2.5 1.3-1.3 1.5-4.6.4-5.9-1.1-1.4-3.5-1.5-5.5-.3-3.2 1.9-6.5 4-10.4 4.1-2.7.1-5.4-.3-8.3-.5.4-.5.6-1.1 1.1-1.5 1.7-1.5 3.7-2 5.9-1.7 1.3.2 2.7.3 4 .5v-.2c-3.1-1.7-6.3-3.3-9.5-5-.2.1-.4.2-.5.4-4.4 5.7-9.3 11-14.4 16.1-1.3 1.3-1.4 1.9-.6 3.5 1.3 2.8 2.7 5.6 4.1 8.4 1.2 2.5 2.6 5 3.3 7.7.7 2 1.6 3.8 2.9 5.6zm-16.5 28.9c.8-1.6 1.4-2.8 2.1-3.9.8-1.4 1.3-2.7.4-4.2-1.1-2.1-2-4.2-3.4-6.1-2.9-4.1-5.7-8.2-7.6-12.9-1-2.5-1.8-5-1.6-7.7.1-1.6.1-3.3-.2-4.9-.6-3.4-1.5-6.7-2.2-9.8-2.4.7-5 1.5-7.6 2.1-3.8.8-7.6 1.2-11.4 2-2.6.5-5.2 1.2-7.1 3.5.6.6 1.1 1.2 1.7 1.7 1.5 1.5 2.8 3.2 3.3 5.3.7 2.8 1.4 5.6 1.8 8.5.3 2.3 1.4 4.1 3 5.6 1.2.1 2.3 0 3.4.2.7.1 1.5.5 2 1.1 1.6 1.6 2.5 3.5 3.3 5.6.8 2.3 1.6 4.5 2.5 6.8.5 1.4 1.5 2.4 2.9 2.9 2.2.9 3.5 2.6 4.1 4.8.1.5.4 1 .6 1.7 3.4-.8 6.8-1.6 10-2.3zm-97.5 7.7c1.9 2.1 3.3 3 6 3 4.5 0 8.7.9 12.8 2.6 2.2.9 4.3 1.4 6.6 1.4 1.2 0 2.3-.3 3.5-.4 4-.3 8.1-.6 12.1-1 2-.2 4-.6 6.1-.9 4.2-.8 8.3-1.6 12.4-2.5 1.2-.3 2.4-.8 3.8-1.3-3-2.7-6.4-3.8-10.1-3.8-3.2 0-5.3-1.5-7.5-3.4-.6-.6-1.2-1.2-1.8-1.9-2.9-3.2-6.4-5.2-10.3-6.7-2.9-1.1-5.2-.7-7.8 1-6.2 4.1-12.4 8.1-19.4 10.9-2.1.8-4.1 1.9-6.4 3zm90.6-61.2c.5.2 1.3.5 2.1.9.4.2.8.5 1.2.8 1.7 1.3 2.1 1.3 3.8 0 1.2-.9 2.4-1.7 3.6-2.6s2.5-1.6 3.5-2.7c2.6-2.7 5.2-5.4 7.6-8.3 1.8-2.1 3.7-4.2 4.1-7.4-4.4-2.1-8.5-4.9-13.5-5.9-.6.4-1.2.9-1.9 1.3-2.7 1.8-5.2 3.8-8 5.2-2.5 1.3-5.4 2.1-8.1 2.9-2.6.7-4.2 2.3-5.5 4.7-3 5.5-6.5 10.7-11.4 14.8-.4.3-.8.8-1.1 1.2 7.9-.9 15.6-2.5 23.6-4.9zM160 204.9c1 .6 1.7 1.1 2.3 1.4l18.3 9.6c3.3 1.7 6.6 3.2 9.8 5 6.6 3.5 13.2 7.3 19.8 10.7 6.7 3.4 13.5 6.6 20.2 9.9 4.4 2.1 8.7 4.2 13.1 6.3 1.9.9 3.7-.2 5.6-.3.3 0 .7-.8.8-1.3.3-1.2.4-2.4.6-3.6-4.1-2-8-4-12-5.8l-17.7-8.1c-4.7-2.2-9.5-4.4-14.1-6.8-6.8-3.5-13.8-6.6-21.1-9.2-4.7-1.6-9.2-3.5-13.5-5.9-3.1-1.8-6.4-3.2-9.7-4.9-.7 1-1.4 1.8-2.4 3zm150.5 65.3c-9.4-4.6-18.5-9-27.7-13.5-1 1.4-1.8 2.6-2.7 3.6-1 1-2.2 1.8-3.1 2.6 10.1 4.9 20.1 9.7 30.2 14.6 1.1-2.4 2.1-4.8 3.3-7.3zm-40.3-9.9c1.6-1.2 3.3-2.3 4.7-3.6 1.9-1.7 1.7-3-.6-4.1-3.6-1.8-7.3-3.5-11-5.2-.8-.4-1.6-.5-2.3-.8-2.3 2.2-4.4 4.2-6.6 6.3 5.2 2.5 10.4 4.9 15.8 7.4zm-12.4-130.9c.1 0 .2-.1.3-.1-1.2-2.5-2.4-5-3.7-7.5-.6-1.3-1.1-2.5-2.7-3-.5-.2-.9-1-1.2-1.6-1.4-2-2.6-4.3-4.3-6.1-4.3-4.4-8.9-8.6-13.3-12.9-1-.9-2-1.7-3-2.6-.1.1-.3.2-.4.3.7 1.7 1.3 3.5 2 5.2.3.6.9 1.4 1.4 1.4 1.6.2 2.3 1.4 3.3 2.5 7.2 8.2 14.4 16.3 21.6 24.4zm-83.3-49.5c.1-.1.2-.2.3-.4-1.5-1.6-3-3.2-4.4-4.8-2.7-2.8-6.9-3.8-10.5-2.3-5.6 2.3-11.2 4.8-16.8 6.9-3 1.1-5.4 2.6-7.4 5-1.7 2.1-3.3 4.2-2.7 7.2 1.1-.2 2-.3 3.4-.5-1.1-.6-1.7-.9-2.3-1.3 1.2-1.8 2.4-3.6 3.7-5.3.5-.6 1.1-1.1 1.8-1.5 2.6-1.4 5.2-2.9 7.9-4 4.2-1.6 8.6-2.2 13-3.1 3.9-.8 7.3 0 10.5 2 1.1.8 2.3 1.5 3.5 2.1zM417 292.1c.7.7 1.3 1.4 1.9 2.1 1.8 1.9 3.9 3.6 4.3 6.5 0 .3.4.7.6.9 2.5 2 4.9 4.1 7.4 6.1.7.6 1.6 1 2.7.1-.3-.8-.5-1.7-1-2.3-2.9-4.2-5.8-8.3-8.8-12.4-1.9-2.6-3.6-2.7-7.1-1zM221.9 126c.1 3.1 1.2 5.5 2.7 7.9.5.8 1 1.6 1.4 2.4.8 1.5 1.7 2.8 3.5 3.2.5.1.9.8 1.3 1.2-.3.7-.5 1.1-.7 1.7 1.7 2.3 4.2 3.5 6.6 5-.9-1.8-1.8-3.5-2.9-5-1.5-2.1-3-4.1-4.5-6.3-1.2-1.8-2.5-3.6-3.5-5.5-2.2-4.4-4.1-8.9-6.2-13.4-.2-.5-.6-.9-1-1.6-.4 2.9-.1 5.2.8 7.7.4 1.2.8 2.3 2.5 2.7zm136.7 239c.2 0 .3 0 .5-.1 2.5-.4 4.3-2.7 3.8-4.9-.5-2.3-2.9-3.4-5.5-2.7-.4.1-.9.3-1.1.2-1-.6-1.6-.2-2.1.6s-1.1 1.6-1.2 2.4c-.2 3.6 2.4 5.4 5.6 4.5zM203 293.1c-.4-2.2-2.7-3.9-4.8-3.5-2 .3-3.8 2.8-3.6 4.9.3 2.2 2.7 3.9 5 3.5 2.1-.4 3.7-2.8 3.4-4.9zm168.9 93.1c-2.2.4-3.9 2.6-3.6 4.8.3 2.1 3 4 5.1 3.6 2.2-.4 3.7-2.8 3.4-5-.4-2.2-2.7-3.8-4.9-3.4zM196.1 265.4c-.3.9-.6 1.6-.9 2.3-1 2.4.1 4.9 2.4 5.7 2.3.8 4.7-.5 5.4-2.8.6-2.4-.9-4.9-3.3-5.2-1.2-.2-2.5 0-3.6 0zm92.8 73.7c-2.2.4-3.8 2.6-3.5 4.8.3 2.2 2.6 3.9 4.8 3.5 2.1-.3 4-3 3.6-5-.4-2.1-2.7-3.6-4.9-3.3zm27.6 10.1c-.3-2.4-2.2-4-4.5-3.7-2.2.3-3.9 2.4-3.6 4.6.3 2.4 2.5 4.2 4.7 3.9 2.1-.3 3.7-2.5 3.4-4.8zm-9.2 21c-.3-2.2-2.6-4-4.7-3.6-2.1.3-3.7 2.7-3.4 4.9.4 2.4 2.4 3.9 4.7 3.6 2.3-.4 3.8-2.6 3.4-4.9zm21.4-3.5c-2.3.3-4 2.4-3.7 4.6s2.4 3.7 4.7 3.5c2.4-.2 3.9-2.7 3.7-4.6-.1-2.1-2.5-3.8-4.7-3.5zm-143.9-87.4c2.5-.4 3.8-2.2 3.4-4.7-.4-2.5-2.1-3.8-4.7-3.4-2.5.4-3.8 2.1-3.4 4.6.4 2.7 2.1 3.9 4.7 3.5zm204.6 94.1c-.3-2.2-2.6-3.9-4.7-3.6-1.9.3-3.7 2.8-3.4 4.7.3 2.1 2.4 3.9 4.7 3.7 2.1-.2 3.8-2.6 3.4-4.8zm3.3 32.9c-.3-2.2-2.6-3.9-4.7-3.5s-3.5 2.4-3.3 4.7c.1 2.1 2.3 3.9 4.6 3.7 2.2-.3 3.8-2.7 3.4-4.9zm-99.9-81.8c.4 2.5 2.3 3.8 4.7 3.3 2.2-.4 3.6-2.5 3.3-4.6-.4-2.4-2.2-3.8-4.7-3.4-2.5.5-3.7 2.2-3.3 4.7zm69 20.5c2.3-.2 3.7-2.3 3.5-4.4-.2-2.3-2.3-4-4.6-3.7-2.1.3-3.9 2.5-3.7 4.7.4 2.2 2.5 3.7 4.8 3.4zm33.5 73.7c-2.4.4-3.7 2.2-3.4 4.5.3 2 2.5 3.8 4.5 3.5 2.1-.3 3.8-2.7 3.4-4.8-.2-2.3-2.1-3.5-4.5-3.2zm-60-27.3c-1.3-1.5-1.3-1.6-.1-3.3-1.2-1.9-2.9-2.8-4.6-2.4-1.8.5-3.2 2.3-3.2 4.1 0 1.8 1.1 3.4 2.8 3.9 2.1.7 3.4.2 5.1-2.3zm-114-311.1c.8.9 1.4 2.1 2.4 2.7 7.3 4.5 13.5 10.4 18.9 17 .4.5.9 1.1 1.7 2-1.9-6.7-13.3-17.5-23-21.7zM191 71.5c.9-.3 1.5-.6 2.2-.7.7 0 1.6 0 1.9.4 1.2 1.4 2.6 1.1 4.1 1 3.2-.2 6.4-.5 9.6-.5 1.4 0 2.8.4 4.8.6-.7-.5-1-.7-1.2-.8-3.9-1.7-8.1-2.4-12.3-2.3-2.6 0-5.1.4-7.7.7-.8.1-1.6.2-1.4 1.6zm179.3 217.7c-5.5.5-18.6 7.4-22.1 11.4h1c3.4-1.2 6.7-2.6 9.6-4.7 3.1-2.3 6.4-4.2 9.9-5.6.6-.3 1.1-.8 1.6-1.1zM154.8 99.5c-.1-.2-.1-.3-.2-.5-1.4.6-2.8 1.2-4.3 1.7-.9.4-1.9.8-2.8 1.1-2.7.8-5.4 1.5-8.1 2.3-1.6.5-2.8 1.4-4.1 2.8 6.6-.6 13.7-2.3 19.5-7.4zm-28.4.6c.8-.5 1-.6 1.3-.8 3.4-2.3 7-4.1 11.1-4.7 1.6-.3 2.8-1.5 4-2.7-4.6-1.8-13.2 2.4-16.4 8.2zM140.7 85c.1 0 .2.1.2.1 3.4-1.2 6.8-2.3 10.5-2.1.3 0 .8-.2 1-.5 1.6-1.5 3.1-2.9 4.8-4.5-5.1.2-14.5 4.3-16.5 7zm29.8 177.4c2.2-.6 3.1-1.7 3.3-3.6.2-1.5-.8-3.3-2.3-3.9-1.6-.7-3.2-.7-4.5.9 1.2 2.2 2.3 4.3 3.5 6.6zm-96.3-57.1c.5.6.9 1.1 1.4 1.7 2.8 3 6.5 4.6 9.9 6.7 2.2 1.4 4.1.7 6.2-.7-6.4-1.6-11.7-5-17.5-7.7zM254.1 244c-.5 3.1-3.1 4.5-5.3 6.4 1 .6 2 1.1 2.9 1.7 1.9-.9 3.6-1.9 4.9-3.5 1.1-1.4.8-3.2-.7-3.9-.5-.3-1-.5-1.8-.7zM210.2 69.3c-3.6-2.4-7.7-2.8-11.8-2.7-2.1 0-4.1.6-6.2.9-.8.1-1.4.5-1.8 1.7 6.8-1.1 13.3-1.3 19.8.1zm219.1 244.9c1.9 4.4 6.5 7.2 10 6.2-.9-1.7-1.9-3.5-3.8-3.8s-3.2-1.3-4.2-2.7c-.8.1-1.3.2-2 .3zM246 139.3c-.8.5-1.7 1.1-2.8 1.9 1.5 1.8 2.8 3.4 4.1 5.1 1.1 1.5 2.6 1.7 4.6 2-2.1-3.2-3.9-5.9-5.9-9zM132.9 102c-6.1 1.9-10.5 5.2-10.7 7.9 3.3-1.8 6.6-3.7 9.9-5.5 1.1-.6 1.4-1.2.8-2.4zm315.7 227.8c.1 3.3 3.1 5.6 6.1 4.9.1-4-2.2-5.9-6.1-4.9zM93 196c1.6-2.4 3.2-4.7 4.8-7-.1-.1-.2-.3-.3-.4-1.8.4-3.5.8-5.2 1.4-.3.1-.7.9-.7 1.3 0 1.5.1 3.2 1.4 4.7zm114.8 89.1c-.2-2.6-.4-5.2-.6-7.9-2.6.9-3.5 2.3-3.2 4.5.2 2.2 1.3 3.2 3.8 3.4zM178 76.6c.5-.4 1.2-.7 1.4-1.2.5-1.3.9-2.6 1.1-4 .3-1.7 1.2-3.1 2.3-4.3.4-.4.8-.8 1.4-1.5-5.5 1.9-7.6 5.7-6.2 11zm-72.9 138.9c0-.2 0-.3.1-.5-.9-.2-1.7-.5-2.6-.6-2-.2-4-.2-6-.5-1.9-.3-3.1.4-4.2 2 4.4.5 8.6.1 12.7-.4zM190 66.3c3.9-.3 7.5-.6 10.9-.9-3.6-1.9-8.4-2.3-11.6-1 .3.7.5 1.4.7 1.9zm61.5 47.4c.2-.1.3-.2.5-.2-1.5-3.7-3.1-7.3-4.6-10.9-1.2-.1-2-.2-3-.2 2.5 3.8 4.8 7.5 7.1 11.3zm172.1 199.5c-2.7-2.6-5.1-4.8-8.4-5.5-.2 2.2-.2 2.2 1 3 2 1.5 4.3 2.2 7.4 2.5zm-266.8-114c-1.1 1.7-2.3 3.2-1.6 5.3 3.3-.3 4.3-1.2 4.7-4-1-.4-2-.8-3.1-1.3zM117 135.9c2.1.5 3.8 1 5.4 1.4l3.3.9c.8.2 1.7.3 2.5.4.3 0 .7-.4.7-.7s-.3-.7-.5-.9c-.3-.2-.8-.1-1.1-.1-2.2-.3-4.5-.5-7.1-.8.8-.4 1.2-.6 2-1.1-1.4-.4-2.4-.8-3.6-1.1-.4.6-.8 1.1-1.6 2zm22-46.8c3.7-1.7 7.6-2.6 11.5-3.5.4-.1.6-.7 1.3-1.4-5.4-.1-9.5 1.6-12.8 4.9zm263.4 214c-.1 3 2.7 4.9 6.1 4.1-1.3-2.5-3.4-3.7-6.1-4.1zM127.1 102.6c2.2-.8 4.4-1.4 6.4-2.4 1.4-.7 2.6-2 3.3-3.7-3.3 1-8.2 4.1-9.7 6.1zm115.2 102.3c-.8.8-1.8 1.5-2.3 2.5-1.3 2.5-3.4 4.3-5.4 6.1-1 .9-1.9 1.7-3.3 2.8 4.2-1.4 8.3-5.5 11-11.4zM141.5 90.4c1.2.1 2.6.6 3.5.2 1.9-.8 3.6-2.1 5.4-3.2-3.3-.1-6.2 1.1-8.9 3zm-2.9 68.6c-2.1 2-2.2 5.4-.4 7.6.9-2 1.1-5.3.4-7.6zm13-65.2c-5.7-.8-6.1-.8-7.4 1.1 2.6 1.6 4.9.5 7.4-1.1zm288.3 218.9c-1-1.6-1.8-2.9-2.7-4.3-.5.3-.9.5-1.2.7-.3.3-.6.7-.9.9.7 2.8.7 2.8 4.8 2.7zm-216.4-159c1.7.7 3.2 0 5.1-.3-1.3-1.5-2.5-3.2-4.4-3.5.8 1.8.4 3.2-.7 3.8zm-78-57.1c-.9-.3-1.5-.7-2.2-.6-.9.1-1.7.5-2.5 1-.3.2-.4 1.1-.2 1.4s1 .6 1.4.4c1.3-.5 2.6-1 3.5-2.2zM97 180.4c1.8-2.4 1.2-4.6 1.3-7.3-1.6 2.4-1.8 4.5-1.3 7.3zm137.5-94.2c2 1.9 3.6 3.4 5.6 5.2-1.8-3.9-3.1-5.2-5.6-5.2zm-128.4 99.6c.7.2 1.3.4 1.8.5 1.2-2.4 1.3-2.9.9-4.7-.3.2-.5.4-.7.7-.7 1.1-1.3 2.2-2 3.5zm43-93.8c1.8.9 3.7.8 7.5-.3-2.6-1-4.8 0-7.5.3zm107.2 58.6c.9 2.2.9 2.2 2.5 2.1-.1-.8-.3-1.6-.4-2.5-.7.2-1.3.3-2.1.4zM131.1 119c2.7.2 4.2-1.3 5.8-2.3-1.7.7-3.9.3-5.8 2.3zm80.5-45.5c-2.3-1.1-4.7-1.5-7.5-.5 2.7.2 5.1.3 7.5.5zm-68.2 42.9c.9.5 1.4.7 1.9 1 .7-.8 2-.9 2.2-2.7-1.4.6-2.5 1.1-4.1 1.7zm-62.9 70.4c-.7-2-2.1-2.8-4.7-2.8 1.6 1.1 3.1 1.9 4.7 2.8zm148.9-37c1.7 1.4 1.7 1.4 3 .6-.6-.5-1.1-1-1.7-1.5-.3.2-.5.3-.7.4-.1.1-.3.3-.6.5zm12.6 46.1c2.6 0 2.6 0 2.6-2.5-.9.9-1.7 1.6-2.6 2.5zm-32.6 40c-.9-.4-1.5-.6-2.3-1 .2 1.2.3 2 .5 3 .6-.7 1.1-1.2 1.8-2zm-127.3-53c2.4 1.2 2.4 1.2 3.5-.5-1.2.2-2.2.3-3.5.5zm29.7 24.3c-1.2.3-2.6.1-3.8 1.3 1.8.3 2.9-.1 3.8-1.3zM240 224.7c1.9 1 2.3.6 2.3-1.6-.7.5-1.4.9-2.3 1.6zM161.9 93.8c1.8.6 3.2-.5 4.8-.8 0-.2-.1-.4-.1-.6-1.6.5-3.1.9-4.7 1.4zm-59 66.3c.9.1 1.5.2 2.7.4-.9-1.2-1.4-1.8-2.2-2.8-.1 1-.3 1.7-.5 2.4zM151 90.7c1.2-.2 2.1-.3 3.4-.5-1.4-.8-2.3-.9-3.4.5zm85.5 18.1c-.9-1-1.4-1.7-2-2.4-.1.1-.2.2-.4.3.5.9.3 2.2 2.4 2.1zM94.1 180.7c-.1.1-.2.3-.3.4.3.6.3 1.6 1.6 1 .3-.1.5-.3 1-.5-1.2-.5-1.8-.7-2.3-.9zm13.3 18.2c.7-.7 1.4-1.3 2.1-2-1.6-.2-1.9.8-2.1 2zm.6 4.2c.2.1.3.3.5.4.7-.6 1.7-1 1.6-2.5l-2.1 2.1zm51.7-113.6c-1.1.2-1.9.3-2.7.4.9.4 1.8 1.1 2.7-.4zm58.8 128.8c1.6-.3 1.6-.3 1.4-2.2-.5.8-.9 1.4-1.4 2.2zm4.1-67.9c-.5-.3-.8-.5-1.1-.5-.2 0-.6.4-.5.5.1.3.4.7.6.7.3 0 .6-.4 1-.7zm-101.5-11.7c1.1.2 1.7.3 2.3.4-.5-.7-.9-1.7-2.3-.4zm-3.8 63c.6-.3.9-.5 1.2-.7.2-.2.3-.4.7-.8-1.3-.2-1.5.4-1.9 1.5zm311.1 109.4c-.1.2-.2.3-.4.5.3.2.6.5.9.7l.4-.4c-.3-.3-.6-.6-.9-.8zM132 138.1c-1.1-.6-1.1-.6-1.6.3.5-.2 1-.3 1.6-.3zm101.4 14.1l-.6.3c.3.5.7 1 1 1.5.2-.1.3-.2.5-.3-.4-.4-.7-1-.9-1.5zm12.1 3.9c-.2.2-.4.4-.5.6.5.3 1.1.6 1.6.9.1-.1.2-.3.3-.4-.5-.3-.9-.7-1.4-1.1zm-129.9-10.7c-.2-.1-.4-.2-.6-.2-.2.4-.3.8-.5 1.3.2.1.3.1.5.2.2-.5.4-.9.6-1.3zm200.5 223.1c.1-.1.2-.3.3-.4-.3-.2-.5-.4-.8-.7l-.2.2c.3.4.5.6.7.9zm-80-242.8h-.3c.1.4.1.9.2 1.3h.2c0-.5-.1-.9-.1-1.3zm-15.3-51.2c-.2-.1-.3-.2-.5-.2l-.2.3c.1.1.3.2.5.3 0-.1.1-.2.2-.4zm11.7 114.8c.1.1.2.2.2.3.2-.2.4-.4.7-.6l-.2-.2c-.3.1-.5.3-.7.5zm-35-114.4c0 .1.1.3.1.4l.9-.3c0-.1-.1-.2-.1-.3-.2.1-.6.2-.9.2zM224 219.5c-.1 0-.2-.1-.4-.1 0 0-.1.1-.1.2.1.1.2.2.2.3.2-.2.3-.3.3-.4zm12.5-68.5c-.1-.1-.3-.2-.4-.3 0 .1-.1.2-.1.2.1.1.2.2.3.2.1 0 .2-.1.2-.1zm-76.9-54.8v.2c.2 0 .5-.1.7-.1v-.2c-.2.1-.5.1-.7.1zm-19.4 17.2v-.2c-.3 0-.5.1-.8.1v.2c.3-.1.5-.1.8-.1zm69.2 103.4c0-.1-.1-.1-.1-.2 0 .1-.1.1-.1.2.1.1.2.1.2.2-.1-.1 0-.2 0-.2zm50-60.3c0-.1.1-.3.1-.4l-.1-.1c-.1.1-.2.2-.2.3 0 .1.1.1.2.2zm-43.7-47.7v-.2c-.1 0-.1.1-.2.1 0 .1.1.1.2.1-.2.1-.1.1 0 0zm135 226.1l-.1-.1c-.1 0-.2.1-.3.2l.1.1c.1-.1.2-.1.3-.2zM200 82.9l.1-.1-.1.1z"/><path class="st1" d="M47.8 523.7c1.8-2.7 3-3.2 5.8-2 3.6 1.5 7.4 2.7 11.3 2.9 4.3.2 8.5-.2 12.7-1.4 4.3-1.3 8.4-2.8 12.3-5.1 5.8-3.3 10.7-7.7 14.7-13 6.2-8 11.9-16.4 15.7-25.9 1.8-4.4 2.9-9.1 4.3-13.6.7-2.2 1.3-4.5 1.9-6.8-14.9-4.1-28.5-10.9-41.8-18.5-1.7-1-3.2-2.3-5-3.6 1.1-.9 1.9-1.5 2.7-2.2.9-.7 1.6-.6 2.5.1 4.7 3.6 9.9 6.3 15.2 8.9 7.3 3.6 14.6 7.3 22.4 9.8 3.1 1 6.2 1.7 9.3 2.6.6.2 1.3.4 2.1.6-.6 2.1-2.3 2.5-4.1 3.3-.8 3-1.8 6.1-2.6 9.3-1.8 7.5-5.1 14.3-9.2 20.7-2.7 4.2-5.4 8.5-8.3 12.5-6.9 9.4-15.5 16.7-26.2 21.5-5.4 2.4-11.1 3.9-17 4.4-6.4.5-12.4-1.1-18.2-3.8-.3-.3-.4-.6-.5-.7zm114.6-78.5c1.3-2.3 2.7-3.9 5-4.6.2.4.5.8.6 1.2.1 1.8-1.8 4.1-3.6 4.3-.6.1-1.2-.5-2-.9zm18.3-84.1c-3.9-.7-7.8-.5-11.7.4-.6.1-1.2.7-1.7 1.1-1.9 1.8-2.7 1.9-5.2.9-.7-.3-1.6-.3-2.2-.1-4.8 1.4-9.6 2.8-14.4 4.3-1 .3-1.8 1.2-2.6 1.8-1.3.9-2.4 2.3-4.4 1.5.4-1.5 1.4-2.4 2.5-3.1 3.1-2 6.4-3.7 10-4.6 1.4-.4 2.8-.9 4.5-1.4-6.1-2.7-12.9-1.8-18.8-4.6.3-1.6 1.2-2.3 2.3-2.8.6-.3 1.4-.4 2-.2 2.3.5 4.5 1.3 6.8 1.8 3.1.7 6.3 1.3 9.4 1.9.3.1.6 0 1.1 0-1.9-3.7-3.7-7.2-5.5-10.7-1-1.9-1.9-3.7-1.9-6.1 0-1.6-1-3.3-1.6-4.8-3.9-9.3-7.4-18.8-12.5-27.5-6.6-11.5-13.4-22.8-22.3-32.7-3.1-3.5-6.7-6.5-10.2-9.7-1.3-1.2-2.7-2.3-3.5-4.1.9-1.6 2-2.6 3.5-2.8 2.8 2.6 5.4 5.1 8.1 7.4 4 3.5 7.6 7.5 10.7 11.8 7.8 10.6 15.2 21.5 20.9 33.4 4.6 9.6 8.7 19.4 12.3 29.4 2 5.6 4.1 11.1 7.6 16 .3.4.6.9.9 1.3.1.2.4.3.4.3 6.1-.7 12-2.8 18.6-1.6-.5.7-.7 1.2-1.1 1.6-.6.8-1.3 1.3-2 1.9zm20.8-38.7c2.4 3.3-.4 9-4.6 9.6-.8-1.8-1.1-3.5.5-5.1.2-.2.5-.5.5-.8.2-2.1 2-2.7 3.6-3.7zm13.8-133.9c-.8.7-1.9 1.4-2.6 2.3-2 2.6-3.8 5.4-5.8 7.9-2.2 2.8-5.1 4.6-8.4 5.6-.5.2-1.1.3-1.6.3-5.8-.4-11.6-.9-16.3-4.8-2.8-2.3-4.8-5.3-6.8-8.3-1.8-2.8-3.3-5.8-5-9 1-.1 1.8-.4 2.5-.2 6.8 1.2 13.7 1.3 20.3 3.4.9.3 1.8.5 2.7.9 1.5.7 2.9.9 4.5.6.8-.2 1.8-.3 2.6-.2 4.5.9 8.9 1.4 13.5 1.2.1.1.4.3.4.3zm-6.2 1.5c-.9.1-1.5.1-2.1.3-6.2 2.2-12.3 1.4-18.4-.6-3.2-1.1-6.2-2.5-9.4-3.7-1.3-.5-2.5-1.1-4.1-1.8-.1 1.4-.2 2.5-.3 3.5 1 1.2 1.8 2.4 2.9 3.3 1.4 1.3 2.8 2.8 4.4 3.8 3.3 2.1 7 3.3 10.9 3.8 5.2.7 9.8-.2 13.5-4 .2-.2.3-.4.5-.5 1.4-.9 1.9-2.2 2.1-4.1zm1.2-45.9c-3.5 4.1-3.4 8.6-3.7 13.1-.3 5.5.3 10.9 1.2 16.3.2 1.6-.2 3.2-.4 5.2.5.1 1.2.6 1.7.4.9-.4 1.9-1 1.8-2.2-.1-1.1-.4-2.3-.9-3.4-.3-.7-.7-1.3 0-1.8.6-.4 1.3-.3 1.9.3 2.4 2.6 1 7.9-2.5 8.6-2 .4-3.9 1-5.7 2-3.4 1.9-6.3.5-9.3-1.2-1.7-1-3.4-1.9-5.2-2.6-.8-.3-1.8-.3-2.7-.2-1.8.1-3.9-1.3-4.4-3.1-.8-3.1.6-5.6 4.5-6.7-.7.8-1 1.2-1.4 1.6-1.7 1.6-1.4 3-.8 4.5.6 1.5 2.2 2.2 4.1 2.1 1.4-.1 2.8 0 4.4.1.6-.7-.1-2.6 2-2.6.2.6.5 1.2.7 1.8.5 2.1 1.9 3.6 3.5 4.9 1.9 1.6 5.1.7 6-1.7.8-2 1-4 .7-6.2-.7-4.3-1.3-8.7-1.6-13-.2-4.2 0-8.4 1.6-12.5.7-2 1.9-3.2 4.5-3.7zm-42.1 2.4c.7-.7 1.1-1.2 1.8-1.9-1.8 0-3.3.2-4.7-.2s-2.6-1.5-4.1-2.5c.8-.7 1.2-1 1.7-1.4.8.4 1.4.7 2.4 1.3-.4-1.4-.8-2.6.9-3.2l1.7 1.7c1.4-.5.3-3.3 2.8-2.8-.1 1.1.5 1.7 1.9 1.6.2-.9-.2-2.2 1.4-2.7.1.3.4.6.5.9.4 1.2 1.1 1.7 2.3 2 1.9.5 3.7 1.2 5.4 2.1 1 .5 1.7 1.5 2.6 2.3 1 .9 1.9 1.8 3 2.8 1.4 2.3.6 2.3-1.1 1.8-1.8-1.4-3.4-2.7-5.1-4.1.1.7-.3 2.1-2.2 2.6.8.3 3.9 1.2 4.5 1.4-4.2-.6-4.3-.5-4 1.3-.8-.4-.2-1.9-1.1-2.6-.4.7-.8 1.3-1.3 2.2-.4-1 .4-1.9-1.2-2.5-1 0-.9 1.6-1.4 2.4-1.3-.9 0-1.8-.5-2.9-.7.5-1.5.9-2.5 1.6.2-.8.3-1.3.4-1.7-1.3-1.4-2.3.7-4.1.5zm2.1-3v.6c1.1.5 2.3 1 3.6 1.5-.9-2-.7-2.9-.2-3.9-1.3.7-2.4 1.2-3.4 1.8zm9.2-.3c-.5-.3-.7-.5-1-.6-.2 0-.6.4-.5.6.1.3.4.5.6.8.2-.2.4-.4.9-.8z"/><path class="st1" d="M160.8 135.8c2.1-1.8 4-3.9 6.7-5.1 3.7-1.6 7.5-1.2 11.3-.3 3.3.8 6.6 1.8 9.9 2.9.8.2 1.5.8 2.2 1.3.8.5 1.2 1.4.9 2.2-.3.7-1.1 1.4-1.8 1.6-2 .8-3.9-.1-5.5-1.2-4.1-2.7-8.5-4.1-13.4-4.4-2.9-.2-5.4.5-7.7 2.2-.7.5-1.4.9-2.1 1.4-.1-.3-.3-.4-.5-.6zm3.4 52.3c-.9-5.8-1.1-10.1 4.5-12.8 2.6-1.3 5-3.1 7.6-4.6.4-.2 1-.2 1.7-.4-.3 1.3-1.2 1.6-2 2.1-2.7 1.6-5.3 3.4-8 4.9-1.7 1-2.3 2.5-2.3 4.3-.1 1.3 0 2.7.1 4 .2 1.1-.3 1.8-1.6 2.5zm52.4 4.1c1.4-1.5 3.6-2.9 5-4.3.6-.6.6-1.5.1-2.1-1.9-2.5-4.6-4.9-6.3-7.2 2-2 1.6-1.3 4.2 1.7.9 1.1 1.7 2.3 2.5 3.4.6.9 2 1.2 2.1 2.7 0 1.6-3.4 3.4-4.5 4.6-.8.7-1.5 1.7-3.1 1.2zm254.1 78.7c-2.6-5.7-3.8-12.1-5.3-18.1-1.3-4.9-2.6-9.8-3.8-14.6-.1-.7-.2-1.3-.3-2 4.4 2.8 8.7 5.7 12.8 8.9.2.3.3.6.5.8.9 1 1.6 2 2.1 3.2.3 0 .7 0 1-.2-.6-2.2-1.4-4.4-2.2-6.6-1.2-2.5-2.7-4.7-4.9-6.3-3.5-1.5-7.7-1.5-10.3-4.6-.1-.1-.3-.2-.5-.2-.1-.2-.1-.4-.2-.6-.2-.8-2.1-.3-1.9.5.4 2.1.9 4.2 1.3 6.3 1.1 9.1 2.8 18 5 26.9.5 2.1 1.1 4.2 1.7 6.3-.4.1-.9.3-1.3.4-1.9.6-3.8 1.7-4.9 2.9-.3.3-.6.6-.9 1-.5.4-.9.9-1.2 1.3-.6.8-1.2 1.7-1.6 2.7-.8 1.6-1.3 3.2-1 4.6.7 2.9 4 3.5 6.5 3 1.3-.3 2.8-.9 4.3-1.7 4.2-1.8 8.1-5.9 7.3-10-.1-1.7-.7-3.1-2.2-3.9zM457.2 281c0 .1 0 .3-.1.4v-.3c0-.5 0-1.1.1-1.6.3-.6.7-1.3 1.1-1.9-.7 1.1-1.1 2.3-1.1 3.4zm2.2-4.8c-.3.3-.5.6-.7.9 0-.1.1-.1.1-.2.4-.6.9-1.3 1.5-2-.4.5-.7.9-.9 1.3zm4.9-3.5c.3-.1.5-.1.8-.2-.3.1-.7.2-1 .4.1-.1.2-.1.2-.2zm-2.2 4.7c.1-.1.2-.2.3-.2-.1.2-.1.3-.2.5l-.2.2c0-.1.1-.3.1-.5zm4 3.7c-.9.8-2.6 1.6-4.1 1.9h-.1c.3-.1.5-.2.8-.4 1.4-.5 2.7-1.3 3.6-1.9.4-.3.9-.6 1.3-1-.4.5-1 1-1.5 1.4zm50.6-213c-2.6-5.7-3.8-12.1-5.3-18.1-1.3-4.9-2.6-9.8-3.8-14.6-.1-.7-.2-1.3-.3-2 4.4 2.8 8.7 5.7 12.8 8.9.2.3.3.6.5.8.9 1 1.6 2 2.1 3.2.3 0 .7 0 1-.2-.6-2.2-1.4-4.4-2.2-6.6-1.2-2.5-2.7-4.7-4.9-6.3-3.5-1.5-7.7-1.5-10.3-4.6-.1-.1-.3-.2-.5-.2-.1-.2-.1-.4-.2-.6-.2-.8-2.1-.3-1.9.5.4 2.1.9 4.2 1.3 6.3 1.1 9.1 2.8 18 5 26.9.5 2.1 1.1 4.2 1.7 6.3-.4.1-.9.3-1.3.4-1.9.6-3.8 1.7-4.9 2.9-.3.3-.6.6-.9 1-.5.4-.9.9-1.2 1.3-.6.8-1.2 1.7-1.6 2.7-.8 1.6-1.3 3.2-1 4.6.7 2.9 4 3.5 6.5 3 1.3-.3 2.8-.9 4.3-1.7 4.2-1.8 8.1-5.9 7.3-10-.1-1.7-.7-3.1-2.2-3.9zm-13.5 10.1c0 .1 0 .3-.1.4v-.3c0-.5 0-1.1.1-1.6.3-.6.7-1.3 1.1-1.9-.7 1.1-1.1 2.3-1.1 3.4zm2.2-4.8c-.3.3-.5.6-.7.9 0-.1.1-.1.1-.2.4-.6.9-1.3 1.5-2-.4.5-.7.9-.9 1.3zm4.9-3.5c.3-.1.5-.1.8-.2-.3.1-.7.2-1 .4.1-.1.2-.1.2-.2zm-2.2 4.7c.1-.1.2-.2.3-.2-.1.2-.1.3-.2.5l-.2.2c0-.1.1-.3.1-.5zm4 3.7c-.9.8-2.6 1.6-4.1 1.9h-.1c.3-.1.5-.2.8-.4 1.4-.5 2.7-1.3 3.6-1.9.4-.3.9-.6 1.3-1-.4.5-1 1-1.5 1.4zm-1.3 75.7c-2.4-1.1-5.5-.5-7.6 1.7-1.7 1.7-3 4.2-3.1 6.6-.2 2.8.8 6 3.1 7.8.9.6 1.8.7 2.7 1.1.6.3 1.1.9 1.6 1.4 1.1.9 2.1 1.7 3.2 2.6 2.1 1.7 4.3 3.4 6.4 5.3 4.3 3.4 8.5 7 12.9 10.4 2.7 2.2 5.4 4.5 8.3 6.7.3.2.5-.1.7-.3.2-.4.3-.6.5-.8-2.2-2-4.3-4.1-6.2-6.2-.4-.3-.6-.6-1-1-.1 0-.1-.1-.3-.2-.5-.5-.8-.9-1.1-1.1-2.4-2.3-5-4.6-7.5-6.7-3.4-3.1-7-6.1-10.6-9.1-.9-.8-1.7-1.4-2.6-2.2.4-.4.9-.7 1.2-1.2.3-.2.5-.5.6-.7 2.7-3.1 4.1-8.2 1.7-11.8-.8-1-1.7-1.9-2.9-2.3zm1.4 8.4c.1.7 0 1.3-.2 1.9-.8 2.6-4 3.5-6.3 2-1.4-.8-3.2-3-3.2-4.8 0-2.4 1.3-4.6 4.2-4.5.7-.1 1.5.2 2.2.6 2 .8 3.1 2.9 3.3 4.8z"/><path class="st1" d="M500.2 176.1c5.2-7.4 10.8-14.4 16.9-21.1 1.5-1.7-.4-7.8-1.9-6.2-6.3 7-12.1 14.3-17.5 21.9-1.1 1.8.8 7.9 2.5 5.4zm29.8 45.3c-2.9-3.6-26-14.3-34.6-18.3-.4-.1-.9-.2-1.4-.4-1.8-.9-3.8-1.8-5.8-2.3-4.5-1.4-7.3 2.6-10.1 6.6-2.9 4-7.3 2.6-7.3 2.6s26.4 14.6 33.4 18.4c7 3.8 5 4.7 5 4.7s-7.3 2.6-7.7 9.1c-.3 6.4 9.6 11.1 12.9 5.6 3.3-5.5 2.1-12.4-1.4-16.7-2.2-2.7-16.4-9.7-26.8-14.6l14.6-7.1c1.2-.6.1-1.2-.8-.8-.5.3-1 .5-1.6.8.4-.3.9-.5 1.3-.8.4-.2.7-.3 1.1-.5 7.6 4.2 16.3 9 20 11 7 3.8 5 4.7 5 4.7s-7.3 2.6-7.7 9.1c-.3 6.4 9.6 11.1 12.9 5.6 3.6-5.5 2.5-12.4-1-16.7zm-46.3-6.6c.5-.2.9-.4 1.4-.6-.4.2-.8.5-1.1.7-.1 0-.2-.1-.3-.1zm6.3-4.7c-2.9 1.1-5.7 2.3-8.5 3.7-3.7-1.7-6.2-2.8-6.2-2.8s7.9.8 12.2-2.7c2.8-2.3 6.6-3 8.9-3.1.7.4 1.5.8 2.3 1.3-3 1-5.9 2.3-8.7 3.6zm-55.9 54.6c2.1-2.8 5.7-21.8 7.1-28.9v-1.1c.3-1.5.6-3.1.6-4.7.2-3.6-3.3-4.9-6.7-6.2-3.5-1.4-3.3-4.9-3.3-4.9s-5.9 22.2-7.4 28c-1.5 5.9-2.5 4.6-2.5 4.6s-3.3-4.9-8.1-4c-4.8 1-6.4 9.1-1.7 10.5 4.7 1.4 9.5-.8 12-4.1 1.6-2.1 4.1-13.9 5.8-22.5l7.9 9.4c.7.8.9-.1.4-.7-.3-.3-.6-.6-.9-1 .3.2.5.6.8.8.2.3.4.5.6.7-1.7 6.4-3.6 13.7-4.4 16.8-1.5 5.9-2.5 4.6-2.5 4.6s-3.3-4.9-8.1-4c-4.8 1-6.4 9.1-1.7 10.5 4.7 1.6 9.6-.5 12.1-3.8zm-3.8-35.4c.2.3.5.6.7.9-.2-.3-.5-.5-.7-.7 0 0 .1-.1 0-.2zm4.7 3.8c-1.3-1.9-2.8-3.8-4.3-5.6.6-3 .9-5.1.9-5.1s.9 6 4.3 8.5c2.2 1.6 3.4 4.3 3.9 6-.2.6-.3 1.3-.5 1.9-1.3-2-2.8-3.9-4.3-5.7zm-130.2-18.6c.3-.1.7-.1 1-.2 4-.6 7.8-1.9 11.5-3.3-.4-1.8-.7-3.6-1.1-5.3-.1-.2-.1-.4-.2-.6-.2-.9-.5-1.8-.7-2.6-.3-1.2-.6-2.3-.8-3.5-9.7 2.4-19.5 4.5-29.4 6.4-1.1.2-1.6.9-1.8 1.7-.3.5-.5 1.1-.3 1.8.6 3.3 1.7 6.1 3.3 9 .5.9 1.8 1.5 2.8 1.1 2.9-1.1 5.8-2.1 8.8-2.9 1.7 7.3 3.5 14.7 5.3 22 .4 1.4 1.8 2 3.1 1.7 1.3-.2 2.6-.5 3.9-.7s2.1-1.9 1.7-3.1c-2.3-7.2-4.7-14.4-7.1-21.5zm-16.1-3.9s0 .1 0 0l-.3-.9c.7-.1 1.4-.3 2.1-.4-.6.5-1.2.9-1.8 1.3zm55.7 17.6v-1.3c-.2-.1-.4-.2-.7-.3-2.7-.5-5.2-1.5-7.3-2.8 4.5-6.9 3.5-16.1 2.1-24.1-.2-1-1.4-2-2.4-1.8-2.3.3-4.7.5-7 .6-.5-.1-1 0-1.6 0H322c-1.2 0-1.9.6-2.2 1.4-.8.5-1.4 1.5-1.1 2.6 1.7 9.6 3.8 20 11.2 26.9 2.1 2 11.1 8 14.5 5.1-.1-2.1 0-4.2 0-6.3zm-13.9-10.6c-2.4-4.1-3.1-9-1.8-14.1 4.3-.4 3.3 7.6 1.8 14.1zm28.8 22.9c2.4-1.3 5-2.2 7.7-3 .6-3.4-2.5-7.9-3.6-10.7-1-2.6-2-5.3-2.8-8 5.9-3.7 10.1-9.2 8.1-16.8-2.1-8-10.7-11.9-18.3-9.4-.5.2-.8.4-1.1.7-.3.1-.5.2-.8.3-1.6-.6-3.9.8-3.5 3 2.3 15 6.9 29.4 13.6 43.1.1.3.4.6.7.8zm3.9-4.6c-.4-.2-.7-.3-1.1-.3-.1-.3-.3-.6-.4-.9.5.5 1 1 1.5 1.2zm-8.6-19.5c-1.2-3.8-2.2-7.6-3-11.5.9 3.9 1.9 7.7 3 11.5zm7.3-11.2c.4 3.1-.8 6.1-2.9 8.2-1.5-5.2-2.8-10.5-4-15.7 3.4.7 6.3 3.6 6.9 7.5zm39.6 1.8c-10.7-2.7-5.3-17.5-12-23.5-1.1-1-2.9-.7-3.8.2-.5-.2-1-.3-1.7-.1-10.4 2.7-12.5 19-10.5 27.7.8 3.6 3.2 8.4 7.8 7 4.1-1.2 6.3-8 7.7-12.3 1.6 3.2 3.9 6 6.8 8.3 1.1.8 2.5 1.1 3.5 0s2.1-2.1 3.2-3c1.6-1.4.8-3.8-1-4.3zm-21.7 1.8c-.1-.8-.2-1.7-.3-2.5-.1-2.2 0-4.4.4-6.6.3-1.4 3-12.3 6.2-8.7.1.1.2.3.3.5.2 2.6-.2 5.2-.9 7.8-.8 2.8-2.2 7.9-4.5 10-.8 1.6-1.2 1.4-1.2-.5zm44.5-23c-2-3.5-3.1-7.6-5.2-11.1-1.5-2.5-4.5-3-5.9-1.2h-.2c-4.7 1.2-9.4 4.7-13.6 7-1.5.8-1.5 2.3-.8 3.4-.4 2.4 1 4.9 1.9 7.2 1.6 4 3.3 7.9 5.6 11.5 2.2 3.4 8.9 11.1 11.6 3.7.2-.6.2-1.1 0-1.5.1-.7 0-1.4-.5-2.1-4.8-6.1-8.7-12.7-12-19.7 2.5-1.5 5.1-3.1 7.6-4.1 1 1.6 1.7 3.7 2.6 5.2 1.2 2.1 2.4 4.1 3.7 6.1 2.4 3.7 5 7.2 7.7 10.6.9 1.1 2.6.8 3.5 0l1.5-1.2c1.1-.9.8-2.6 0-3.5-2.9-3.2-5.4-6.6-7.5-10.3zm53-36.7c-3.2-3.5-7.4-3.1-11.5-1.1.3-2.5-.5-4.9-3.4-6.8-4.1-2.6-8.5-1.2-12.2 1.6-.5.3-1 .6-1.3 1.1-2.2 2-4 4.4-5.1 6.6-.1.1-.1.3-.2.4-.7.7-1.1 1.8-.5 3 5 9.8 12 18 20.8 24.5v.1l2.7 2.4h.3l.9-.3c.4-.3.8-.5 1.2-.8l.3-.3c.1-.2.3-.3.4-.5.2-.1.3-.1.5-.2l.9-.6c1.4-.8 2.7-2 3.8-3.4 7-7.5 10.6-18.7 2.4-25.7zm-21.5 5.1c-.2.4-.3.8-.5 1.2-1.5-2.3-3.2-4.6-5-5.9 0-.1.1-.1.1-.2-.1-.1-.3-.2-.4-.4-.2-.2-.2-.5-.1-.7 1.2-1.9 3.6-3.5 5.6-1.7.7.6 1 1.3 1.1 2.1.7 1.8-.2 4.1-.8 5.6zm12.1 17.5c-.7-.6-1.4-1.1-2-1.7-2.4-2.3-4.4-4.9-6.3-7.6-.2-.3-.4-.6-.6-1 3.4-4.5 11.8-9.2 15.3-2.8.2.3.3.7.4 1-1.1 4.2-4.1 8.4-6.8 12.1zm29.3-31.5c-5.2-4.7-11-8.9-16.9-12.7 1-1.2 1.9-2.4 3-3.5.6-.7.8-1.5.7-2.2l-.2-.2c-1.6-1.5-3.2-3-4.8-4.4-.5.1-1 .3-1.3.7-4.3 5-8.9 9.7-13.8 14.2-.6.4-1 1.2-1 1.9 1.2.9 2.4 1.8 3.5 2.8 1 .9 2 1.7 3.1 2.5h.3c1.6.1 2.6-.8 3.5-2.1.7-1 1.4-1.9 2.1-2.9 2.3 2.4 4.8 4.6 7.5 6.7 2.6 2 5.5 3.8 7.9 6.1.1.4.3.7.5 1 .2 1.5 1.4 2.5 3.1 2.2.2 0 .3-.1.5-.2h.1l.6-.3c1.2-2.2 2.5-4.4 4.1-6.4-.5-1.2-1.4-2.3-2.5-3.2zm-27.7-6.4s-.1-.1-.2-.1c.2-.2.4-.3.5-.5 0 .2-.2.4-.3.6zm-22.9 51.6c-.1-.1-.1-.1 0 0-.5-.2-.9-.4-1.2-.5v-.5c.2-.3.3-.7.4-1.1.2-1.8.2-3.6 0-5.3 0-2.9-.2-5.8-.7-8.8-.3-1.9-.4-5.6-2.1-7-1.8-1.4-4.5-.7-6.6-.6-.8 0-1.4.4-1.8.8-9.4 2.3-9.6 13.2-5.4 20.1 5.2 8.6 13.3 15.4 23.9 14.3.7-.1 1.2-.4 1.6-.8.2 0 .3-.1.5-.1.5-2.6 1.4-5.2 2.3-7.8-.1-.1-.3-.2-.4-.2-3.7-.2-7.7-.4-10.5-2.5zm-6.9 2c-.4-.3-.7-.7-1.1-1 .3.3.6.5.9.8.1 0 .2.1.2.2 0-.1 0 0 0 0zm1-6c-3.5-3.8-5.4-8.8-5.7-13.9.3-.1.6-.2 1-.3.3-.1.6-.2.8-.3 2.4 3.7 3.8 7.7 4.1 12-.1.8-.1 1.6-.2 2.5zM320.2 107c-1.1-2.2-4-1.7-5.2 0-6.6 9.5-19.9 9.7-27.4 1.3-1.8-2-5.1-.3-5.1 2.1-.2 9.3-.6 18.7-1.2 28-.2 3.9 5.8 3.8 6 0 .4-7.2.7-14.4 1-21.6 6.3 4 14.1 4.6 20.8 2 .1.2.2.4.4.6 5.6 6.4 7.3 16.1 9 24.2 2 9.4 2.6 19.3-1.6 28.3 0 .1 0 .1-.1.2-2.6 2.2-5.8 3.7-9.2 3.9-6.1.4-12.9-3.7-14-9.9.1-.2.3-.3.4-.5 2.6-2.8-1.6-7.1-4.2-4.2-1.3 1.5-2.4 2.4-2.3 4.5.1 1.8.7 3.6 1.4 5.2 1.4 2.9 3.6 5.4 6.3 7.2 5.9 4.2 13.5 4.7 20 1.7 16.3-7.3 18.2-27 15.3-42.4-1.9-10.7-5.6-20.9-10.3-30.6zm4.7 51.5c.2-4.8-.3-9.6-1.2-14.5-1.8-9.4-3.9-20.1-10.1-27.6 1.1-.7 2.2-1.6 3.3-2.5 3.2 7.3 5.7 14.8 7.4 22.6 1.5 7.1 2.4 14.8.6 22zm40.5-22.8c1.2-4.8 2-9.7 2.4-14.6.3-3.5-4.6-3.7-5.8-.9-.3-.5-.9-.9-1.7-1.1-9.5-1.9-14.4 7.8-17.1 15.3-1.8 5-2.9 10.2-3.6 15.5-.5 4.2-1.5 10 1.4 13.6 2.9 3.5 7.4 2.7 10.6.2 3.8-3 6-7.9 8-12.1.6-1.2 1.1-2.4 1.6-3.5 2.1 6.8 5.8 13.1 10.9 18.2 1.1 1 3.2 1.3 4.2 0 .4-.5.7-1 .9-1.6-2-2.6-12.1-16.2-11.8-29zm-19.6 23.9c-1.8-.9-.5-7.7-.3-9.3.4-3.8 1.3-7.7 2.4-11.4.1-.3.2-.5.3-.8-.8 6.6-.7 13.3.8 19.8 0 .1.1.2.1.3-1.2 1.2-2.3 1.9-3.3 1.4zm13.5-24.4c-.7 2.6-1.5 5.1-2.4 7.6-.4 1.1-2 5.2-3.9 9-1-8.9.5-18.2 3.3-26.5 0-.1.1-.2.1-.4.7-.2 1.5-.3 2.2-.1.7.1 1.4 0 1.9-.2-.8 3.5-1.2 7.1-1.2 10.6z"/><path class="st1" d="M398.1 124.6c-1.8 4.9-9.7 2.4-13.2 1.7-.8-.2-1.8-.3-3-.5 3.3-12.7 7.5-25.2 12.3-37.4 1.1-2.7-2.3-4.3-4.4-3.4-8.7 3.9-18 6.4-27.5 7.5-3.8.4-3.8 6.4 0 6 5.2-.6 10.3-1.6 15.3-2.9-2.9 9.4-6.3 18.9-8.4 28.5-1.2 5.8 1.6 9.1 6.8 8.5.6-.2 1.2-.4 1.9-.5.8-.3 1.5-.4 2.3-.3 0-.1.1-.1.1-.2.1 0 .1 0 .2.1.7.2 1.5.2 2.3.3 1.4.2 2.7.6 4.1.9 2.5.5 4.9.8 7.4.5 4.4-.6 8-2.9 9.6-7.2 1.3-3.6-4.5-5.2-5.8-1.6zm-22.6 2.3c-.3.2-.5.5-.6.8-.8-.1-1.1-.7-.8-2.3.2-1.1.6-2.2.9-3.3.9-3.2 1.9-6.4 2.8-9.6 1.8-6.1 3.6-12.1 5.4-18.2 0-.1.1-.3.1-.4.9-.3 1.9-.6 2.8-1-4.2 11.2-7.7 22.5-10.6 34zm68.2-3.4c-1.1-3.7-6.9-2.1-5.8 1.6 2.1 7-10.6 7.9-14.7 9.4-.7.3-1.5.6-2.2.9 1.3-6.4 2.6-12.9 4.1-19.3 1.1-4.9 2.2-9.9 3.5-14.8 1.1-4.6 2.4-9 5.1-12.9 1.9-2.8-2.5-6.3-4.7-3.6-5 6-12.1 9.6-19.9 9.8-1.6.1-3 1.3-3 3 0 2.5-.1 5-.1 7.6-.1 3.9 5.9 3.9 6 0 0-1.6 0-3.2.1-4.8 1-.1 2-.3 3-.5-3.1 10.5-5.8 21.2-8 31.9-.9 4.2-2.5 10.5-.9 14.6 1.4 3.6 5.3 3 8.5 3.2.3 0 .5 0 .7-.1 1.5.3 3.1-.3 3.4-2.1.2-.9.4-1.9.5-2.8 2.1-5.3 11.6-5.6 16.1-7.4 5.5-2.1 10.2-7.4 8.3-13.7zm-24.1-10.1c-2.3 10-4.3 20.1-6.2 30.2-.1.3-.1.6-.2.9-1.9-.3-2.2-.9-2.5-3.6-.2-2.2.5-4.7.9-6.8.8-4.1 1.9-8.1 2.8-12.2 1.9-8 4-15.9 6.3-23.8.9-.4 1.8-.8 2.6-1.2-1.5 5.4-2.5 11.2-3.7 16.5zm-84.7-58c6.4.6 14.7-8.7 7.9-13.7-.7-.5-3.3.6-2.7 1 1.7 1.3 2.5 3.4 2.1 5.5-.4 2.2-2.9 6-5.5 5.8-.6 0-3.3 1.3-1.8 1.4z"/></g></svg>