<svg xmlns="http://www.w3.org/2000/svg" viewBox="0 0 566.9 467.7"><style>.st0{fill-rule:evenodd;clip-rule:evenodd}.st0,.st1{fill:#ee7f00}</style><g id="Слой_1"><path class="st0" d="M101.4 283.8c.7 0 1.4.1 2.2.1 3.6.6 3.3 4.6 5.6 6.1 1.2.7 2.5.8 3.5 1.4 1.2.5 2.6 1.3 3.2 2.6 1.5 2.4 1.2 8.2-.1 11.2-.5 1.4-1.8 2.2-2.6 3.7-1.9 3.3-2.9 7.9-4.1 12.5-1.2 4.8-2.1 9.9-2.3 14.3-.1 1.3.3 2.7-.4 3.9-2.7.2-2.7-2.8-3.1-4.5-1-3.9-1.8-7.7-3.2-11.8-.4-1.6-1.2-4.5-2.8-4.6-1.9-.1-2.7 3.5-2.9 5.6-.3 2.7-.1 5.7-.3 8.7-.1 1.8-.1 6.9-2.2 6.8-1.3-.2-1.7-2.9-2-4.6-1.2-5.4-2-11.1-3.3-16.4-.9-3.4-2.5-6.5-3.4-9.8-.9-3.5-2-6.8-3-10.2 0-.7 0-1.5.1-2.2.4-.7.6-1.8 1-2.4 2-3.2 5.3-5.7 9.9-5.4.7 0 1.7.4 2.5.3 1.3-.1 2.6-2.2 3.9-2.9 1.1-2 2.5-2.3 3.8-2.4zm3.5 33c-.2-1 2.1-1.4 2.5-1.7 2.5-1.7 2.1-4.8 3.4-8.2.3-.9 1.4-1.4 1.9-2.2 1.4-1.9 3.2-6.9 2.2-9.6-.9-2.7-4.9-1.9-7.2-3.7-1.7-1.3-1.6-3.8-3.2-5.3-1.6-1.3-4.5-1.6-6.4-.4-1.5.9-2.5 3.4-4.2 4-2.1.7-3.5-.4-5.2-.5-3.5-.1-6.5 2.6-7.1 5.5-.6 3.1.2 5.4 1.1 7.6.5 1.7 1 3.4 1.5 5 1.2 3.2 3.8 5.2 4.6 8.4-.2.4-.5.6-1.2.5 2.1 4.3 2.8 10.4 3.2 16.1.2 2 0 4 .9 5.6 2.5-4.3.7-12.8 1.8-18.6.5-3.1 5.4-3.2 7.3-1.2 2.5 2.5 2.4 9.9 2.9 14.2.2 1.4.1 3.2 1.3 3.8 1.1-1.1.8-2.8.9-4.4.4-5 1-10.3 1.8-14.5-.7-.2-2.6 1-2.8-.4z"/><path class="st0" d="M93.2 290.7c1.9.6 3.6 1.4 4.8 2.5 1.6-1.4 3.6-2.4 6.9-1.9-1.9 1-4.3 1.2-5.2 3.3 1.4 1.9 3.6 3.2 3.8 6.2-.5.1-.9-.7-1.2-1.1-1.3-1.3-3.3-3.8-6.1-3.6-1.9.1-3.6 1.4-4.9 2.5-.3.2-.7.9-1.2.7.8-3 2.4-5.1 6-4.9 0-2.1-1.8-2.6-2.9-3.7z"/><path class="st1" d="M45.4 311.5c-2.4-1.1-5.5-.5-7.6 1.7-1.7 1.7-3 4.2-3.1 6.6-.2 2.8.8 6 3.1 7.8.9.6 1.8.7 2.7 1.1.6.3 1.1.9 1.6 1.4 1.1.9 2.1 1.7 3.2 2.6 2.1 1.7 4.3 3.4 6.4 5.3 4.3 3.4 8.5 7 12.9 10.4 2.7 2.2 5.4 4.5 8.3 6.7.3.2.5-.1.7-.3.2-.4.3-.6.5-.8-2.2-2-4.3-4.1-6.2-6.2-.4-.3-.6-.6-1-1-.1 0-.1-.1-.3-.2-.5-.5-.8-.9-1.1-1.1-2.4-2.3-5-4.6-7.5-6.7-3.4-3.1-7-6.1-10.6-9.1-.9-.8-1.7-1.4-2.6-2.2.4-.4.9-.7 1.2-1.2.3-.2.5-.5.6-.7 2.7-3.1 4.1-8.2 1.7-11.8-.8-1-1.7-1.9-2.9-2.3zm1.4 8.4c.1.7 0 1.3-.2 1.9-.8 2.6-4 3.5-6.3 2-1.4-.8-3.2-3-3.2-4.8 0-2.4 1.3-4.6 4.2-4.5.7-.1 1.5.2 2.2.6 2 .8 3.1 2.9 3.3 4.8z"/><path class="st1" d="M34.8 333.6c5.2-7.4 10.8-14.4 16.9-21.1 1.5-1.7-.4-7.8-1.9-6.2-6.3 7-12.1 14.3-17.5 21.9-1.1 1.8.8 7.9 2.5 5.4zm41 36.6c-2.9-3.6-26-14.3-34.6-18.3-.4-.1-.9-.2-1.4-.4-1.8-.9-3.8-1.8-5.8-2.3-4.5-1.4-7.3 2.6-10.1 6.6-2.9 4-7.3 2.6-7.3 2.6S43 373 50 376.8c7 3.8 5 4.7 5 4.7s-7.3 2.6-7.7 9.1c-.3 6.4 9.6 11.1 12.9 5.6s2.1-12.4-1.4-16.7c-2.2-2.7-16.4-9.7-26.8-14.6l14.6-7.1c1.2-.6.1-1.2-.8-.8-.5.3-1 .5-1.6.8.4-.3.9-.5 1.3-.8.4-.2.7-.3 1.1-.5 7.6 4.2 16.3 9 20 11 7 3.8 5 4.7 5 4.7s-7.3 2.6-7.7 9.1c-.3 6.4 9.6 11.1 12.9 5.6 3.6-5.5 2.5-12.4-1-16.7zm-46.3-6.6c.5-.2.9-.4 1.4-.6-.4.2-.8.5-1.1.7-.1 0-.2-.1-.3-.1zm6.3-4.7c-2.9 1.1-5.7 2.3-8.5 3.7-3.7-1.7-6.2-2.8-6.2-2.8s7.9.8 12.2-2.7c2.8-2.3 6.6-3 8.9-3.1.7.4 1.5.8 2.3 1.3-3 1-5.9 2.3-8.7 3.6zM70.3 47.2c-4.5-.1-6.8 2.6-12.3 4 0 .4 0 .9-.2 1.6.2 2.3-.1 4.5-.1 6.7v2c4.1 0 7.6-2.9 12.1-3.5 2.2 6.9 6.9 15.2 9.2 23 4 8.1 6.5 17.8 4.5 26.4-.2 1.3-.6 2.4-1.5 3.5-6.5 2.1-12.4-4.7-13-10.3-.1-.5.9-.1.5-1.1-1.6-3.3-2.9-3.9-4.2-3.5 0 .1-.1.4-.2.4-.3.2-.7.6-1 .8-.1.1-.2.2-.3.4-.1.1-.1.1-.2.1-.1.1-.2.2-.3.2-2.8 3.5-5.9 6.8-9.1 9.9l.1.1c1.1 1.4 2.3 3 3.4 4.4.1-.1.1 0 .3-.2.3.4.4.7.5 1 2.2 2.6 4.5 5.3 6.7 7.9.2.1.4.1.7.1-.1.1-.1.3-.2.4 1.4 1.3 2.8 2.4 4.4 3.4 3.4 1.5 8.3 2.8 10.8 2.5 1.9-1.6 3.7-.3 7.8-2.7-.2-.5-.5-1.1 0-1.4.2.3.4.8.7.7 4.6-5.4 8.8-8.1 8.1-16.2.1-.1.1 0 .2-.1-.1-.6-.1-1.3-.1-1.9-.5-3-1.2-5.9-2-8.8-.7-2.7-1.5-5.5-1.8-8.3-.7-2.7-1.4-5.3-2-7.9-2.2-6.4-4.7-13.8-6.6-20.6-1.1.2-.4-2.5-1.8-3.5 2.4-.8 4-1.8 5.3-3.1.1.1.2.3.2.5.3-.2.7-.3 1-.5C89.5 50.5 86 43.4 85 41c-4.6.5-10.6 2.4-14.7 6.2zm38.6 20.6c.1.2.2.4 0 .6.4 1.3-.7 1.2.5 2.5-1.3.1-.7.9-1.1 1.3-3.2.2-4.9-.5-8.8.6-1.9 1.6-3.2 3.6-3.8 6.4-.1.7-.2 1.4-.4 2.1l.1.1h-.1c-.1 1.3-.1 2.5 0 3.7.1.4.1.6.1.9 0 .4.1.8.2 1.1.2.6.3 1.1.5 1.7 1.9 2.8 4.1 5.3 6.7 6.5.7.3 1.4.5 2.2.7 0 0 .1.1.1 0 .1 0 .4.1.5.1.8 0 1.6.1 2.4-.1.2-.1.4-.1.6-.2 2.9-2.4 5.7-6.2 6.2-7.4 1.2 1.1 2 3.3 2.9 4.9.5-.1 1.1-.2 1.5-.3.2-.1.4-.1.5-.2-.2-.8-.3-1.8-.5-2.7-1.3-4.9-3.1-9.7-3.1-14.8-.1-.2-.1-.5-.2-.8-1-2.4-2-4.7-2.5-6.8-1.7-1-3.2-.8-4.5.1zm-1.3 16.5c-1-.7.1 3.3.4 4-3.2 2.8-4.2-.9-6.1-1.8-.3-3.5.4-6.3 1.5-9 1-1.2 1.9 1.1 1.5-.7 1.6 1.7 2.2 5.5 2.7 7.5zm70.5-41.7c-4.7.3-5.7 1.9-10 2.8l-.6-1.7c.8-1.3 1.5-2.7 2.1-3.9.2-.5.4-1 .5-1.6 1.2-4.4 2.7-8.7 4.6-12.8.1-.2.2-.2.3-.3-.9-1.8-1.5-2.8-2.4-4.5-6.5 2.4-13 5-19.7 6.6-.4.2-.8.3-1.3.3.2.6.4 1.3.6 1.9.3.8.6 1.6.8 2.4.5 1.1.9 2.3 1.3 3.5.4-.1.6.1.9.8 1.2-1.3 2.6-.7 4.6-2.1.3 1.8.6.1 1.1.7-.6 2.7.3 7.6-.4 9.6.1-.1-.6-.7-.6-.5.6 1.5 0 2.9-.1 4.3 1.7 3.2 3.1 6.4 4.2 9.8 7.1-2.7 13.2-6.4 22.7-11.3-1.5-4.3-1.4-4.5-3.2-7.1-2.9 1.9-4.1 1.4-5.4 3.1zM132 48.9c-5.3 1.3-10.7 2.5-16.2 3.3l-4.5.9c2.4 6.9 3.8 10.5 7.7 14.6 7.2-2.3 7.5-3.4 13.3-4.6-.1 7.6-.6 14.9-2.7 21.5.3 1.4 1 2.2 1.7 2.6l-1.7.7c2 3.3 4.1 7.6 6.8 11.1 3-1.7 6.3-2.9 9.6-4 3.9-1.3 7.7-2.8 11.5-4.4 4-1.6 8.2-3.2 12-5.2.8-.4 1.5-.8 2.2-1.2-2.6-3-2.7-7.3-3.8-10.5-.6.2-1.1.2-1.7.3-6.2 2.1-12.5 3.5-18.9 5-.2.1-.4-.1-.4-.1-.6 0-1.2 0-1.6-.2l-.1-.1c-.3-.1-.5-.3-.4-.7.1-.1.1-.2.1-.3-.2-.6-.3-1.1 0-1.4.1.1.2.3.3.4.6-3.8 1.6-7.5 2.9-11.1.5-2.5 1.2-4.9 2.4-7.1.8-2.4 1.7-4.8 2.7-7.2-.6-2.5-1.8-5-2.7-7.1-6 2-12.4 3.3-18.5 4.8zm-7.7 76.7c-2.8 1.6-5.7 3-8.7 4.3-.9.3-1.9 1.4-1.6 2.4 1.1 6.1 2.3 12 3.4 18.1-5.5-3-11.1-5.9-16.6-8.9-.1-.7-.7-1.1-1.8-.3-4.4 2.5-8 5.5-11.2 9.3-.5.5-.8 1.5 0 1.9 6.7 3.4 14.3 5.8 20.7 9.5 3.8 2.2 3.3 5.6 3.3 9.7 0 3.7-.3 7.4-.9 11.1-.1.9 1 1 1.5.6 3.2-1.3 8.1-2.1 10.3-4.9 2.4-3 1.2-8.3 1.4-11.9 0-.8.2-1.4.3-1.8 0-.6.1-1.1 0-1.7 0-.4.6-.8 1-.6 1.4.8 2.7 1.4 4.2 2.2.7.3 1.3.7 1.8.9 1.3.7 2.6 1.3 4.1 1.9.3.1.4.4.4.6.4.2.9.5 1.3.7 4.9 1.8 7.2-3.6 11.9-4.9.8-.2 3.2-2.4 1.6-3-3.7-1.5-7.3-2.7-11-4.1-3.2-1.1-9.4-2-11-5.4-1.4-3.1-1.1-8-1.5-11.3-.6-4.6-1.1-9.2-1.8-13.6.3-1-.4-1.3-1.1-.8zm1.9 29.5c.1.3.1.7.4.8 6.4 2.1 12.9 4.3 19.1 6.6-.7.3-1.3.7-2 1.3-2.8 2.2-3.2 2.2-6.7.3-2.9-1.5-9.6-6.1-13-4.7-2.2.9-2.4 3.6-2.7 5.6-.5 3.2.2 7-.3 10.1-.6 3.1-3.8 4-6.6 4.8.8-5.6 2.6-15.2-.7-19.6-1.7-2.1-8.2-3.8-10.7-4.9-4-1.8-7.8-3.6-11.8-5.6 2.1-2.3 4.5-4.2 7-5.6 6.8 3.7 13.6 7.2 20.4 10.9 1.3.7 2.9-1.4 2.7-2.5-1.2-7-2.7-13.9-3.9-20.9 1.8-.9 3.5-1.7 5.4-2.7 1.1 8.6 2.2 17.4 3.4 26.1zm27.9-42.3c-1.1.7-2.2 1.6-3.3 2.3-1.4 1-2.8 2.2-4.3 3.2-.8 2.7-.7 6.1-.2 9.5-1.6-1.8-3.4-3.6-5.5-5.1-1-.8-2.4.3-2.9 1.2-1 1.9-2.2 4-3.2 5.9-.8.6-1.3 1.6-.8 2.5 5.1 6.9 10.6 13.5 16.4 19.9.5.5 1.3.3 1.8-.1 2-1.3 4-2 6.2-2.7.8-.2 1.7-1.2 1.6-2.2-.1-3.4-.4-6.8-.6-10.2 1.6 2.2 3.5 4.3 5.9 5.3 3.8 1.8 4.7-.9 8-2.2.7-.3 2-1.6 1.5-2.5-3.4-6.3-7.5-12-12.1-17.5-1.9-2.7-4.8-6.8-8.5-7.3zm3.6 7.2c5 5.6 9.6 11.7 13.3 18.2-.3.1-.5.3-.8.4-.7.7-1.6 1.1-2.4 1.6-.3.1-.6 0-.8-.2-.8-1-1.5-1.9-2.2-3-2.5-2.1-4.6-5.6-6-8.3-.9-1.6-3.3.4-3.1 1.7.3 5.5.6 11 1 16.4-1.5.6-2.7 1.2-4 1.8-5.3-5.9-10.3-12.1-15.2-18.5.7-1.3 1.4-2.5 2.1-3.9 3.8 3.2 6.7 6.9 9.2 11.3 1 1.7 3.7-.6 3.1-2.1-1.2-3.7-2.2-7.2-2.4-11.1-.1-.9-.2-1.9-.1-2.8-.3-1.1-.6-2.1 0-2.9.7-1.3 2.6-1.8 3.7-2.7.5-.3 1 0 1.1.3 1.2.9 3 3.2 3.5 3.8zm40-17.2c-8.4-7.1-26.4-5.5-31.8 4.9-.1.1-.1.3 0 .4.1.3.3.5.4.6 0 0-.1.1 0 .2-.4 3.5 1.3 5.9 3 9 2.1 3.9 4.3 7.9 6.4 11.6 4.3 7.9 8.5 15.5 12.8 23.4.1.3.9.1 1.1.1 2.8-1.1 9.9-2.3 10.2-6.4.1-2.4-3.8-7.6-4.9-9.4-2.1-3.5-4.4-6.8-6.9-10.3 9.9-4 21-14.5 9.7-24.1zm-11.4 22.7c-.5.1-3.1 1.4-2.5 2.1 3.7 5 6.9 10 10 15.4 1 1.9 4.2 7.6-1.1 7.1-3-.3-4.6-5.4-5.7-7.6-3.1-5.6-6.3-11.3-9.3-17-2.7-4.8-8.6-12.1-8.1-17.8.5-.5.7-.9.3-.9 1.3-1.4 2.7-2.7 4.1-4.1 1.4-.4 2.9-1 4.3-1.4 2.3-.6 4.4-.6 6.6-.2 3 .3 5.8 1.2 8.4 3 3.1 2.1 5.7 5.3 5.8 9.1.1 6.7-6.7 10.9-12.8 12.3z"/><path class="st1" d="M176.7 109c-.4.2-.6.4-.7.7-1 .4-1.9 1.4-1.4 2.2 1.7 2.7 3.3 5.4 5 8.1.2.4.8.4 1.3.3 3.6-1.1 17.7-3.6 13.6-10.5-3.6-5.8-13.3-4-17.8-.8zm14.9 4c0 1.9-1.8 2.2-3.2 2.6-2 .7-4 1.3-6 1.9-1.4-2.3-2.8-4.7-4.1-7 3.5-2.1 8.7-2.7 11.9.3.5.4 1.4 1.4 1.4 2.2zm39.5-32.6c-.2-.8-1.1-1.1-1.9-.8-4.3 1.4-8.5 2.9-12.8 4.1-.8.2-1.9 1-1.7 1.9.6 4.3 1 8.5 1.1 12.7-3.2-3-6.3-5.9-9.5-8.9-.2-.2-.5-.3-.8-.4-.2-.2-.5-.3-1.2-.2-2.6.5-5.3.9-8 1.5-.7.1-2.9 1.2-2 2.4 4.9 6.3 10.5 11.7 15.9 17.5 5.9 6.5 3.9 18.4 4.1 26.9 0 1.2 1.8.9 2.3.6 2.2-1.6 4.6-1.9 7.1-1.1.8.2 2.4-.7 2.5-1.7 1-9.7 2.1-19.5 3.1-29.2 1.1-7.8 3.8-17.6 1.8-25.3zm-8 53.1c-1.8-.1-3.5.2-5.1.9 0-4.1-.2-8.1-.3-12.3 0-3.7.5-7.8-1.5-11.1-1.8-2.8-5.7-5.5-8-7.8-3.2-3.4-6.2-6.8-9.1-10.4 1.4-.2 2.8-.5 4.3-.8 4.2 4 8.4 7.8 12.6 11.8 1.1 1.1 3.3-.4 3.3-1.7.1-5.5-.2-10.8-1-16.2 3.1-1 6.1-2 9.3-3.1 1.5 8-1.1 17.9-2 25.8-.7 8.2-1.7 16.5-2.5 24.9zm36.6-51.3c-6.8-.6-16.9-.1-18.4 8.1-1 5.8 0 12.9.6 18.7.5 6.7 1.7 13.3 3 20-.9.7-.9 2 .9 1.8.2 0 .3-.1.4 0 .3.1.8 0 1.1-.1 3.2-.3 6.3-.5 9.5-.8.8 0 2.3-.6 2.1-1.7-1.2-6.4-2.9-12.4-4.8-18.4 6.9-.1 14.7-1.4 17.3-8.6 3.4-9.2-2-18.3-11.7-19zm-8 25.2c-.6 0-2.5.6-2.1 1.7 2.2 6.1 3.8 12.3 5.2 18.7-2.1.2-4.2.3-6.3.5-1.2-5.8-2.2-11.7-2.8-17.7-.3-3.2-.5-6.3-.7-9.4-.1-3.2-1.2-8.3 0-11 2.4-5.9 11.9-6.9 16.9-4.9 4.3 1.7 5.8 4.6 6.1 8.8 1.4 11-7 13.4-16.3 13.3z"/><path class="st1" d="M250.7 91.9l-.3.3c-.3.3-.5.5-.4.8.2 3.1-1.5 8.5 3 9.2 1.8.3 3.4-.7 5.2-1 1.7-.4 3.7-.6 4.7-2.2 2.2-2.8.5-6.9-2.3-8.5-3-1.6-7.3-.8-9.9 1.4zm7.1 7.5c-.9.1-1.7.6-2.5.6-.6 0-.4.2-.9-.1-.4-.2-.6-1-.7-1.3-.6-1.9.1-4 0-6 4.5-3.6 9.2 5.9 4.1 6.8zm40.4-15.6c-5.8-.6-11.6-.2-17.4.4-.5.1-1.8.3-1.8.9-.8 10.8-1.1 21.7-1 32.5-.2.2-.3.3 0 .4v.2c1.2.2 2.4.3 3.6.5 3.5.6 8.4 1.3 10.1-.7 1.5-1.9.6-6.6.4-8.5-.4-4.4-1.3-8.6-2.5-12.6 3.4.1 6.5.9 10 1.1.9.1 1.9 0 2.8-.3 3.1-1.2 2.5-5 2.7-7.7.6-5.9-1.2-5.7-6.9-6.2zm2.8 9.6s0 3.3.2 3.1c-.2.2-4.5-.7-5.1-.9-2.8-.3-5.5-.3-8.2-.1-.2 0-2.6.3-2.3 1 1.6 4.7 2.6 9.6 2.9 14.7.1 1.8.9 5.1-.6 6-1.1.7-4.1.2-6.1-.3-.2-10.6.1-21.2.9-31.8 4.8-.6 10.8-1.2 15.2.1 4.8 1.7 3.4 4 3.1 8.2zM98.8 418.3c5.1-1 8.3-12.9 13.3-13.2 2.2-1.1 5 3.9 6.2 1.8-.8-2.1-4.9-3-4.4-5.6 7.1-9.9 14.2-19.9 22-27.9-3.2 11.9-4 22.8-8.3 35-1.8 1.3-5.1-1.6-6.9-.3 1.4 2.5 5.7 1.9 7 3.9.9 5.2-4.3 14-1.3 18.9 8.2 13 20.2-7.6 13-13.9l-9.6-4.5c2.8-24.7 11.8-52.2 28.3-78.6.2-.6-.1-1-.5-1.4-6.5 6.5-10 21.3-16.3 28.3-1.2-4.7 3.1-11 5.6-16.8 2-4.8 4.6-9.6 4-13.5-10.8 27-24.3 57.9-43.1 73.4-2.2-1.3-3.8-2.6-6.6-3.7-10.6-1.9-15.4 20.7-2.4 18.1zm32 13.7c-6-3-3.3-18.5 5.2-15.7 9.2 2.9 1.8 19.2-5.2 15.7zm-29.5-30.6c9.5 1.9-.1 17.6-6.3 14.4-6.4-3.3.2-15.5 6.3-14.4zM240.9 63.9c.2-.1.2-.3.1-.3 12.1-6.9 22-18.5 32.9-27.7 3.2-1.2 6.6-.2 8.8-2.1 7.3-6.1 2.8-19-3.1-25.5-1.9 4.7 5.5 8.2 3 12-2.8 1.8-5.4-.7-8.3 1.3 1.3-3.2-.5-7.4-1.2-11.8-3.1 4.9-1.1 9.9.5 14.9-11.6 1.1-25.5 5.4-34.7 5.8.1.2 0 .6-.5 1-4.6-.3-10.8.9-17.5 3.1l.4.4c-6.4 2.3-12 6.7-16.6 11.9-2 2.3-7.9 9.9-1.5 10.7.1.1.1 0 .2 0 5.2-9.4 14.5-14.5 23.8-19.3.1-.1 0-.1-.1-.3 8.4-2.8 16.2-4.5 22.4-4.5 1.2 0 .5-2.1 2.8-1.7.7 1-1 .4-.5 1.3 2.9-.7 5.8-.7 8.7-1.8 1.1-.7-5.4 1.1-7.2.5 4.2-2.7 10.8.6 10.1-2.2.8.4 2.9 2.5 3.2.6-.6.4-1.2.1-1.8-.1 5.1-1.5 1.8.7 6.8.7-8.8 8.6-17.6 16.5-26.4 23.3-9.8 7.1-24.8 16.3-36 8.3-.3-.2-.9-.3-1.1.1-.2 1.2.1 2.2.4 3.1-.1.3.3 1 .6 1.1.2.1.3.1.4.3 3 2.8 9.3 3.5 12.8 3.2 2-.1 3.8-.5 5.5-.9 4.8-1.1 9.1-3.1 13.1-5.4zm-17.5-26.6c.1-.1.2-.2.3-.2l.1.1c-.1 0-.1.1-.4.1zm-20.6 16.6c.1.1.2.1.3.2-.3.2-.4 0-.3-.2zm38.8 7.1c1-.9 2-1.7 3-2.6 3.9-2.8 7.7-5.6 11.3-8.6-4.6 4.2-9.2 8-14.3 11.2zm-29.7 4.4c5.8.9 10.2 1.8 16.3.1 4.3-1.2 8.2-3.2 12-5.5-1.2 1.1-2.5 2.2-3.8 3.2-3.5 1.8-7 3.6-10.8 4.2-.7.1-1.2.1-1.9.2-3.7.2-7.7-.6-11.5-1.4-.6-.5-1.2-1-1.7-1.5.3.2.9.5 1.4.7z"/></g><g id="man_x5F_1_xA0_Image"><path class="st0" d="M408.2 91.5c-2 1.2-5.1 1.5-7.4 2.4 1.7-1.5 3.9-2.6 7.4-2.4zm21.3 4.6c-4.6 1-8.7-2.6-13.9-2.6 4.5-.9 10 1.3 13.9 2.6zm27.9 1.4c-2.8 0-6.2.1-7.9-.2 1.4-1.2 6.7-1.2 7.9.2zm-66.7 19.4c-.4.5-1.7.2-1.4 1.4h-1.4c-.8-1.3 1.2-1.5 2.8-1.4zm1.4 1.2c-.3.6-1.3.5-2.2.5.1-.8 1.4-.4 2.2-.5zm23 10.8c-.1.3-.9 0-1 .5-1.4-1.3-1.9-3.4-3.6-4.3-.2 2.4-.9 4.4-2.6 5.3-3.2-.2-6.7-.1-7.2-3.1-.2-1.1.1-3.1 1.4-3.8-2.2-1-3.6 1-5.5 1.7.7 2.3 2.7 3.4 4.8 4.3-3.2 1.5-4.9-1.9-6.5-3.6-1.8 1.1-3.5 3.7-6.5 2.9 1.2-1 3.5-2.6 2.6-4.1 1.2-.3 1.7-.6 1.7-1.7.7 0 1.4-.6 1.9 0 .4-.2.2-1.1.7-1.2.9-.1.9-.3 1.4.2 7.9-3 16.4.6 18.4 6.9zm-10.5-1.6c.9-.1 1.5-.4 1.9-1-.2-3-3.7-1.5-1.9 1zm9.1 34.3h2.2c.9 0 .5-1.3 1-1.7.7 3.9 7.7 6.3 11 2.2-.6 2.2 4.1 3.5 6 2.9 2.3-.7 3.2-4.5 2.6-7.2-.4-1.7-1.8-2.5-1.4-3.8 2.4.2 3 3.1 3.1 4.6.3 4.1-2.3 8-7.9 7.4-1.7-.2-3.1-1.2-4.8-1.2-1 0-2 .7-3.1.7-2.2 0-4-1.4-5.5-1.9-4.4.7-6.9-3.5-5.3-7.2 1.5-3.6 5.6-6 7.4-10.1.8-1.8 1.3-4.4 1.9-6.7.9-3.1 2.3-5.5 1.9-9.1-.4-3.6-2.6-5.2-3.8-8.9.2-.2.7-.1.7-.5h.7c1.3 3.8 3.9 5.7 4.1 9.6.1 2.3-1 5.1-1.7 7.7-.6 2.5-1.4 5.1-2.2 7-1.9 4.5-6.1 7.2-7.7 10.8-.9 2 0 3.7.8 5.4zm58.8-35.3c-1.3.3-3.9-.3-5-.2.6-1 5.3-1.5 5 .2zm-84.2-.7c-.2 1.3-1.7 1.3-3.1 1.4.2-1.2 1.5-1.4 3.1-1.4zm76.3 4.8c-.1.5-.6.5-.7 1 .6.5 1.7.4 2.4.7-.8.8-.5 2.1 1 1.9-.8 1.6 1.3 1.9 2.6 2.2-.4 1.1-2.1 1-3.6 1-1.4-2.5-3.9-3.9-6-5.8-.9 5.5-11 3.6-15.1 2.2 1-1.5 3.4.2 4.8.5.1-1.1-1-3.8 0-5.3-2.3-.4-4.8 2.3-7 2.2 3.8-4.7 14.9-5.8 19-.7 1.1-.6 1.4-.1 2.6.1zm-11.3 1.9c.9 0 1.5-.4 2.2-.7v-1.7c-1.8-1-3.6 1-2.2 2.4zm-41.5-1.7c-.3.7-1.2.8-1.9.5 0-.7 1.1-.4 1.9-.5zm91.7 4.3c.3.4.3 1.1.7 1.4-.3.5-.7.9-1.4 1-1 .1-.7-1.1-1.2-1.4-3.9.8-5.8 3.4-8.6 5.3-.4.9-1.2 2.4-2.4 1.7 3-3.9 6.4-7.4 12.9-8z"/><path class="st0" d="M460 135.2c.6-.1.5.4 1.2.2.1.6-.5.6-1 .7-.1-.2-.2-.5-.2-.9zm12.7 2.4c-.4 1.1-1.7 1.3-2.9 1 .4-.9 1.9-1.6 2.9-1zm10.8 8.4c-.5 2-1.6 4-2.4 6-.7 1.8-.9 4.8-3.4 5 1.3-4 2.8-7.9 5-11h.8zm-78.7 14.9c-1.9 2.3-4 4.3-7.2 5.3 2.2-1.9 4.4-4.9 7.2-5.3zm-193.4 6.2c1.3-.9 3.4-1.1 5.8-1-.1 1.4-1.6 1.1-3.1 1.2-1.7.1-3.2 1.3-3.8 1.2-1.8-.2-2.7-2-3.4-3.6 2.2-2 3 1.3 4.5 2.2zm266.6-2.6c.7 2.8-.9 7.4-1.2 10.8-.6-3 .4-6.8-.2-10.1.5-.2.7-.7 1.4-.7zm-235.4 3.8c1.3.7 1 3 1.7 4.3-1.9.7-4.7 1.1-6.7 1.2.3-2.1 2.8-1.8 4.8-2.2.2-1.5-1.1-2.6.2-3.3zm155.3 6.5c-.2.7-1 .8-1.7 1-1-1.2-.3-3.5.2-4.6 3.2-1.5-.1 2.1 1.5 3.6zm9.1-3.1c1.1.9-1.6 1.6-1.9 2.6.8 0 1.5-.1 1.9-.5 1.9 2.8 6.5-1.2 11.3-.7 1.1.1 1.9.7 2.9 1.2 7.1-.9 10.6 2.5 15.6 4.3h6c0-1.1.4-2.3 1.9-2.4.5 1.7 2.3 2.1 3.1 3.6-1.5 2.3-3.6 0-4.8-.2-3.3 2.5-6.6 5.1-10.1 7.4-.7.2-.5-.7-1.2-.5-.9.1-1.4.7-2.2 1-6.8 0-15.4 0-18.7-4.3-.4 0-.5.3-1 .2-2.1-2.6-3.5-5.7-5.5-8.4-1 .3-1.5 1.2-2.9 1.2-.4-2.9 3.5-3.4 5.6-4.5zm18.5 3.3c-1.2-.2-2.6.3-3.8.2-1.4-.1-2.5-1-3.8-1.2-2.3-.4-4.6.5-6.5 1.2 6 .1 13.6 1.9 19.4 2.2-1.7-.2-3.3-2-5.3-2.4zm-9.2 5.8c8.2 1.8 18.2 2.4 22.8-1-10.3-.4-20.5-1.8-31-3.6 1.3 1.8 6 4.1 8.2 4.6zm-7.2-.7c1.9 1.3 3.2 3.2 5 4.6 7.9 3.3 21.3 2.7 24.5-3.6-7.4 4.7-22.7 1.3-29.5-1zm42.3-8.2c.7 3.3 2.2 6.2.5 9.4-1.3-2.3-1.2-6.1-2.4-8.6.5-.4 1-.8 1.9-.8zm-249.4 6c2.1-.8 4.1-1.6 7.2-1.4-.6 1.7-3.4 1-5 1.7-.8.3-1.4 1.3-2.2 1.4-2.6.3-3-2.2-4.6-3.8 1.7-3.5 3.6.8 4.6 2.1zm1.7 35.3c-.1 2.7-.9 4.7-3.1 5.3-1.1-1.1.4-1.6.7-2.6-.8-2.3.8-4.4 2.4-2.7zm.5 16.3c-.2 1-1.2 1.4-2.4 1.4-.1-1.2 1.3-2 2.4-1.4zm126.5 34.1c-.3 1.4-1.8 1.6-2.6 2.6-3.7 4.5-5.2 11.5-7 17-.4 1.4-3.6 3-5.5 2.9.5-3.9 1.8-7.8 3.6-11.5 2.4-5.1 4.8-11.2 11.5-11zm-41.3 29.7c.5.6.1 2.1.2 3.1-1.3 1.3-2.8 2.5-5.3 2.6-2.1-3.4 1.9-5.3 5.1-5.7zm109.2 206.9c-4.4-19.2-15-32.2-27.4-43.4.8-1 2.6-3.4 5.3-2.9 2.5.5 7.3 6.9 8.9 8.9 6.6 7.9 13.3 16.3 16.8 27.6.8 2.4 2 5.7 1.7 7-.4 1.7-3.4 2.7-5.3 2.8zm44.9 20.7h-5.8c-1.2-7.8-3.2-14.9-6.2-20.9 1.3-1.1 2.9-3.1 4.8-2.6 2.1.5 3.6 6.9 4.6 10.3 1.5 5.2 2.1 9.4 2.6 13.2zm-36-409.2c.6-.1 1.1-.3 1.9-.2 1.3 1.1 2.2 2.6 4.6 2.6.4 1 .2 2.5.2 3.8-.5.1-.6.5-1.2.5-.5 0-.8-.2-.7-.7-3.1 1-4.8-1.5-7.4-2.2-2-.5-4-.9-5.5-.5-1.1-.7-1.7-1.1-3.1-.5-.1-.4.2-.4.2-.7-1.5.1-2 0-2.9.5.1.3.6.2 1 .2-.9 1.4-3.1-.7-3.8.5.8.7 2.5.5 3.8.7-.1.1-.6.9 0 1-1.2 0-1.3.6-2.9.7.8-1.4-1.3-1.2-2.6-1.2 0-.8 1.1-.5.7-1.7 1.9-.4 3.9-1.5 4.1-2.9 2.6-.7 5.7-2.6 8.2-.7 1.6-.8 4.7-1.6 5.4.8zm50.4 5c.3.4.3.6 0 1 5-.1 7.8 2 11.3 3.4.5.5 0 .6 0 1.2.9.5 2.1.6 2.4 1.7-1 1.4-4.3.5-6 1.2.4-1.5 3.8 0 4.6-1.2-1.9-.6-2.9.2-5.3 0 0-.6.9-.3 1-1-1.4 0-3.2.7-5.3 0 1.2-1.6 4-1.2 5.5-1.9-2.5-1.2-4.1 1.1-6.2 1.2-2.5.2-5.1-2.5-7.9-1-.8 0-.8-.8-1.4-1-3.6 1-9 4.6-12.7 1.7 1.3-2.1 6.7-5.2 9.6-5.8 2.3-.5 5.1-.4 6.5.5 1.3-.4 2.2.1 3.9 0zm.9 4.6c1.3.2 1.9-.3 3.1-.2-.3-1.1-2.7-.4-3.1.2z"/><path class="st0" d="M497.9 520.9h-5.5c-.1-1 .2-1.4.2-2.2.6-6.8.5-14.4.7-22.1.5-15-.1-30.3-.7-44.6-.3-7.5-1.6-14.6-1.9-21.1-.1-1.7.3-3.4 0-4.6-.4-1.9-2.5-2.5-2.9-4.6 1.4-3.4 6.5-3.8 7.9-6.7 2.6-5.3-2.9-9.9-1.9-15.6.4-2.6 3.7-6.6 5.5-9.6 5.8-9.6 12.2-18.6 17-28.3 7-14 12.5-27.8 18-42-22.3 29.7-48 56.2-80.4 75.8 5-1.4 10.3-2.3 15.6-3.4 5.2-1 10.5-2.8 15.8-2.6-.8 1.6-2.5 2.4-4.1 2.9-9.3 2.6-21.4 3.7-31 6.5 8.5 3.9 16.5 8.3 23.3 13.9-3.6 5-7.2 1.2-10.8-1.2-6-4-13.1-7.7-19.4-10.1-10.7 5.1-22.9 8.8-35 12.5 9.9.7 17.2 5.6 25.2 8.9 8.1 3.3 16.1 6.3 22.1 12.2-1.2 1.3-2.8 3-4.8 2.9-1.5-.1-3.9-2.7-5.5-3.8-5.6-4.1-12.7-6.3-19.2-9.1-8.7-3.7-17.1-9.2-29.5-8.2-16.9 1.4-34.6 1.2-46.3-6.5-5.9-3.8-11.9-6.4-17.8-9.6-6-3.3-10.7-7.4-15.6-11.8-1.5.7-3.7.8-6 .7-2.9 2.7-8.7 2.1-13.2 2.9-2.1.3-4.1 1.6-6.2 2.4-5.4 2.2-9.1 4.7-12.5 8.4 13.2 6 26.3 12.1 38.9 18.5 12.5 6.4 23 15.9 34.6 22.3-.8-1.4-2.3-2-2.6-3.8 1.1-1.8 2.9-3.1 5.5-3.4.8.4-.5 1.4.2 1.9 5.2 6 9.5 12.9 13.2 20.4-.3 1-2.3 1.5-1.9 2.4 9 17.7 16.1 37.2 20.6 59.3h-6c-5.3-25.5-14.9-46.6-25-67.2-6.4-4.3-12.7-8.7-19.2-13-6.4-4.1-12.6-8.8-19.2-12.7-13.4-8-28.3-13.8-42.7-21.1-11.7 10.3-11.7 34-10.1 54.5 1.6 20.8 1.5 43.1 6.5 59.5h-6.2c-4.7-19.3-4.4-43.8-6.5-65.8-19.5 17.4-36.6 39.3-47.8 65.8H207c5.9-15 14.2-26.7 23.3-38.9 4.1-5.6 8.9-11.7 14.4-16.8 2.4-2.2 5.6-4.7 8.2-7.4 1.9-2.1 5.6-6.8 6.2-9.4 1-4 .3-8.4.7-12.2.4-3.9.8-7.6 1.7-11.5-2.5-5.7-1.1-15.2-3.1-21.4 1.7-1.8 4.6-4.5 7.2-5 7.7-1.7 16.1-5 24.5-6.2 2.3-8.9 3.9-18.5 7.4-26.2-4.1-4.9-6.9-11.1-10.8-16.1-7.2 5.5-16.1 9.5-26.6 11.5-10.9 2-20.2 1.3-29.8-1-9.6-2.2-16.9-9.2-21.8-16.1-5.7-8-8.6-17.9-11-28.8-1.2-5.3-3.1-10.9-3.1-16.8 1.4-2 4.4-2.3 6-4.1-.7-6.9.1-14.3 0-21.4-3.9-2-8.8-3.5-13.2-6.2-2.3-1.4-5.3-5.7-8.4-6-1.5-.2-3.9.6-5.8 1-2.2.4-4.4.4-6.5.5-4.4.2-8.8.9-12.7 1.2-8 .6-18.8-.6-24.7-2.9-1.6-.6-3.4-1.9-5.3-2.9s-4.1-1.6-5.5-2.9c-1.2-1.1-2-2.9-3.1-4.6-2.8-4.3-3.9-9-4.8-15.4-15.2 2.7-26.4 10.4-32.6 22.1-1 1.8-2.6 3.2-3.1 4.8-.7 1.8-.6 4-1.4 5.8-1.3 2.7-4.8 5.5-8.2 5.3-1.8-.1-5.5-3.3-6.7-5.3-1.2-2-1.9-4.8-2.9-7.4-.9-2.3-2.3-4.5-3.1-6.7-1.1-3-1.2-6.5-1.9-9.8-.5-2.6-1.5-5.1-2.4-7.7-1.9-5.5-2.6-10.8-4.1-16.1-2.8-9.7-5-26.4 0-34.1 2.8-4.4 10.8-6.6 16.1-3.4 1.9 1.2 2.9 4.7 4.1 6.7 1.1 1.9 2.3 3.6 3.6 5.3 4.4 5.8 8.3 10.7 15.8 13.2 6.9 2.3 15.2 1.9 23 2.2 8.1.3 15.7-1.4 22.8-2.6 7.3-1.3 14.4-2.8 21.8-3.6 7.3-.8 14.6-2 21.8-3.6-3.9-10.9 9.7-14.1 17-9.4-2.1-4.8-6.9-11.6-5.8-18.2.8-4.5 8.1-6.8 13.2-7.2-.3-2.8.9-4.5 2.4-6 2.7-2.7 8.8-5.3 13.2-4.1 1 .3 1.9 1.2 3.1 1.9 3.3 1.9 7.4 4.5 7 8.9-.3 3.4-3.3 3.4-4.8 6 .7 2.5 3 5.4 3.6 7.7.3 1.2-.4 1.5-.2 2.6 1.4-.5 2.3-.3 4.1-.2 2-6-1.1-10.5-.2-15.8.9-5 6.3-9.4 10.8-9.8 8.4-.8 14 9.8 11.3 18.5-.8 2.4-2.8 3.4-3.8 5 1.1 0 2.4-.1 2.6.7-.3 1-1.2 1.9-2.2 2.6-.8.6-2.8 1.1-2.2 1.7.4-.6 1.1-1 2.2-1 1.2 1.8 3.6 3.7 3.8 5.8-.5 1-1.5.5-.2 1 3.1 1 10.3-.9 14.2-1.2 5-.4 10.1-.7 14.9-.7 10 0 19.3-1.2 30-1.2 15.6 0 30.6-.2 45.4-1 4.8-.3 11.5-.1 13.9-1.7 3.2-2 1.9-6.5 6.5-6.5 3.6 0 7.4 4.7 7 8.9 2.1-.1 3.9-.4 6.2-.2-5.1-8.7-7.1-23.8-6.7-38.9.1-4.5 1.2-11 .5-14.9-.3-1.9-2.9-3.5-3.6-5.5-1.2-3.5-2.2-9-.7-11.8 1-1.9 3.6-2 5-2.2 1.3-6.2-1.2-13 0-19 .5-2.6 2-4.4 2.2-7-4-5.5-8-11.9-11.3-19.2-2.9-6.4-6.6-15.8-4.8-26.4.8-4.5 6.4-10.7 9.8-12.2 6.2-2.9 13.2-3.6 21.1-3.6 7.7 0 14.3 2.9 20.6 4.1.7-.1 1-.8 1.4-1.2 5.2-5.3 13.2-12.3 23-12.2 3.6 0 8.5.9 13 .5 2.8-2.4 10.4-4.4 15.8-2.9 4.5 1.3 8.7 3.8 13.2 5.8 4.1 1.8 8.8 3.6 13 6 4.2 2.4 7.2 4.9 11.5 7.4 4.3 2.4 9.9 4.9 11.5 7.7.8 1.4 1.1 3.9 1.9 6 .8 2.1 2.2 4.3 2.2 6 0 1.1-.7 2.4-.7 3.8 0 3.5.9 7.4.2 10.6-.6 2.9-3.1 5.4-3.6 8.2-.5 3 .3 5.9 0 8.6-.8 7.6-3.3 13.6-7.4 18.5 2.6 2.6 5.1 7.1 7.7 11.8 2.4 4.4 5.5 8.9 6.7 13 4.1 14.1-9.9 24.4-21.8 18.5-.1 5.3-5.4 10-7.2 14.4-.8 2-.7 4-1.7 5.5-1.7 2.7-5.3 3.7-8.9 3.6 3.2 7.8 6.3 16 10.6 22.6 1.5 2.3 2.8 4.7 3.4 7.2 4.3 2 7.7 4.9 11.5 7.4 3.8 2.6 8.4 4.3 12.2 6.7 15.6 9.8 26 25 27.8 48 .9 11.5-2 22.8-5.5 32.6-1.6 4.3-4 8.8-5.3 13.7-1.3 5-2.7 9.8-4.6 14.4-7.4 18.5-15.1 35.4-24.7 51.4-2.1 3.6-4.7 7.3-7.2 11.8-2 3.6-6.6 8.8-7 12.2-.3 3.4 2.3 5.8 2.6 8.9.9 7-3.6 9.9-8.4 12.7 3.6 3.1 2.9 9.7 3.6 15.8 3.1 26.3 1.9 58.6 1 85.5zm21.4-467.8c-1.5-1.9-1.8-5.1-2.9-7.4-4.2-4.1-9.3-5.5-14.6-9.6-5.8-4.5-12.5-6.9-19-9.8-4.2-1.9-7.2-3.4-11.3-5-2.8-1.1-7.6-2.5-12-1.7-2.4.5-3.7 2.6-6.2 3.1-5.6 1.1-10.3-1.1-15.6-.5-7.5.9-11.5 5.6-16.8 9.6 16.5 6.5 28.9 17.2 42.2 26.9 5 .8 6 5.7 12 5.5 5.2 3.7 10.9 6.2 15.8 10.6 2.4 2.2 5 4 7.4 5.8 2.8 1.9 5.8 2.6 8.9 4.3 2 1.1 4.2 3.3 5.8 4.8.7.7 1.3 2.1 2.4 1.7 1.2-3.3 1.4-9.2 1-13.7-.3-3-1.6-5.6-2.2-7.7-.2-.7.1-1.4 0-2.2-.3-1.5-1.3-2.6-1.4-4.1-.4-3.9 1.1-6.4 4.1-7.2-.3 5.3 2 9.8 3.1 14.4.3-5 .5-11.8-1.9-14.9.2-1.2.8-2 1.2-2.9zm4.3 86.6c.7-1.8.4-5.9 0-7.7-1.1-4.6-5.6-10.9-7.9-14.9-2.6-4.5-5-7.5-7.9-11.3-1.8-2.3-2.9-4.9-4.6-7.2-5-6.9-14.6-10.7-19-17-5.7-2.8-9.5-7.8-14.9-10.6-1.2-.6-2.7-.7-3.8-1.4-3.7-2.2-6.8-5.9-9.8-8.9-3.6-3.6-7.9-6.4-12-9.4s-8.6-5.7-13.2-8.2c-4.5-3.1-9.8-6-16.8-7.9-8.1-2.2-16.5-5-27.4-3.8-5.7.6-14.7 3.2-15.8 8.2-.7 3.1-.2 6.9 0 9.6.9 13.2 9 23.6 14.6 32.2 2.5-3.5 5-11 9.6-12 1.5-.3 4.1.2 6.2 0 4.2-.4 6.7.8 11 1.7 6.2 1.3 10.9 3.1 16.1 4.6 5 1.4 9.2 2.1 13.2 4.1 3.7 1.8 6 4 9.1 5.5 2.9 1.4 5.9 2.8 8.9 4.6 5.9 3.6 12 5.9 17.8 9.6 3.1 1.9 6.5 2.8 9.1 4.6 3.2 2.1 6 4.8 8.9 7 3.2 2.4 5.8 5.2 7.7 8.2-1 2.5-2.2 6-2.4 8.4 1.6-.9 4.3-1.6 6.7-1 2.3 3.3.7 9.5-.2 13.7 3.3 3 14.9 4.3 16.8-.7zM472 195.2c-.1.3-.3.6 0 .2 2-2.1 4.9-3.5 6.5-6.2.8-1.5 1-3.8 1.7-6 1.7-5.9 3.2-13 3.8-19.4 1.7-1.9 1.8-5.4 2.2-8.6 1-.8 2.4-1.1 3.6-1.7.6-1 0-3.4.2-4.1 1.8-.3 1.5-2.7 3.4-2.9 2.3 4.2-1.5 8.1-4.3 10.1.4 2.6-1.2 7.1-.5 9.6.5 1.6 2 1.3 3.1 1.9 1.7-3.9 3.6-6.6 5.8-10.3 1.3-2.1 3.4-4.2 4.3-6.5.9-2.3.7-5.6 1.2-8.6.4-2.3 4.2-13.3.5-14.4-2.2-.6-5.9 2.5-7.7 4.6-1.4 1.7-1.6 3.4-3.8 3.8 0 1.2-.5 1.9-1.4 2.2 0 1.6.4 3.6-1.4 3.4-.7-3.6-.7-9.6-.5-14.2.1-2.7-.2-6.3 2.2-7 .6 1 .1 3.1 1 3.8-.2-2.7-.9-6.1-.2-8.9 1.1 4.2.6 9 .5 13.9 1.5-4.2.4-10.4-.2-14.6-4-2.1-7.3-5.6-11.5-7.7-2.2-1.1-4.5-1.9-6.5-3.1-1.9-1.2-3.7-2.8-5.8-3.8-4.3-2.1-8.8-3.7-13-6.2-2-1.2-3.9-2.6-6-3.6-2.6-1.2-3.9-2.3-6-3.6-5-3.2-10.8-4.5-17-6.2-2.3-.6-4.4-1.6-6.7-2.4-4.9-1.7-10.1-2.1-14.9-3.4-4-1-9.8-2.4-12.2 1.4-.4 1.5-1.7 2.1-1.7 4.1-5.5 5.2-5.9 14-5.5 23.3.3 7.9-1.8 16.9-2.2 25.9-.5 10.3-.8 20.8-.2 30.5 1 16.8 8.8 26.5 15.8 36.7 2.1 1.4 3.3 3.4 5 5 1.4 1.3 3.3 1.8 4.8 2.9.4.3.5 1.1 1 1.4 1.4 1 3 2.2 4.3 2.9 3.6 1.7 10.1 2.4 13.7 2.9 12.7 1.9 22.6-4.7 31-9.1 2.4-1.3 5.2-2.3 6.5-3.4 2-1.6 3.5-4.8 5-7.2 2.4-3.6 4-7.3 7.7-8.2-1.5 4.1-3.4 7.6-5.6 10.8zm22.1-66c1.8-2.8.6-8.3 0-11.5-.2 4.4.7 7.3 0 11.5zm-114-7.5c.1-1.7 0-3.2-1.2-3.6.3 1.3.4 2.8 1.2 3.6zm117.1 2.4c0-.8.9-1.8.2-2.4-.2.6-.8 1.9-.2 2.4zm.3 4.4c1.1-.9 2.4-4.1 1.7-5.3-.7 1.7-1 3.6-1.7 5.3zm-290.4 39.6c2 .9 3.9 3.3 5.8 3.6 3.4.6 7.1-2.1 7.2-4.8.1-1.5-1.3-4.3-2.9-5.8-1.1-1.1-5.9-3.9-7-4.1-6.2-1.4-11.1 3.2-8.9 8.6 1.4 1.5 3.5 1.4 5.8 2.5zm37.2 8.8c2.7-5.5-1.1-14.6-4.3-17-4.7-3.6-10.6-.4-11.3 5.8-.5 4.7 2.4 11.2-.2 16.6 2.8 1.1 2.8-.3 5-1.2-1.1-2.6-1.8-5.6-2.2-8.9.8-.9 1.6-1.7 3.4-1.7-.3 2.6 1.1 5.4 1.4 8.2 2.3 2.1 7.2.2 8.2-1.8zm-46.1 4.4c4.2 1.1 10 1.9 13.2-.7.1-.2 0-.5.2-.5.3-7.1-4.7-8.2-9.6-10.6-5.3-2.5-11.5-3.4-14.4 1.2-.8 12.7 7.5 16.4 8.6 27.1 2.3-.3 4.9-.2 7-.7-.2-2.8-.1-5.8-.7-8.2-4.5.9-7-3.2-3.4-5-3.9.3-3.5-3.7-5-5.8.5-.2.4-1.1 1.2-1 1.5.9 1.9 2.8 2.9 4.2zm15.6-7.7c2.3 3.4.2 7.9-2.6 8.9.7.1 1.2.5 1.2 1.4-.8 1.9-2.7 2.8-4.1 4.1.3 2.6.4 5.4.5 8.2 4.2 0 7.6-.7 11-1.4-.2-2.5-.4-5-1-7.2-2.9.6-5.9.4-6-1.7-.2-2.6 4.1-3.7 5.8-5-1.6-2.3-2.2-5.4-3.6-7.9-.2.3-1.1 0-1.2.6zm271.7 7.9c-2.2 6.1-3.2 11.8-5.8 16.8-3.4 6.5-10 10.4-15.8 14.6-4.4 3.2-8.2 6.9-12 10.1 1.3 1.7 2.6 3.5 4.1 5 6.3-1.4 12.5 2.2 18.7 2.9 1.4.2 2.7-.2 4.1 0 3.2.4 6.3 2.1 9.6 2.2 2.1-11.6 2.5-24.8 6.7-34.3-3.8-5.3-6.3-12-9.4-18 0 .3-.3.3-.2.7zM46 199.7c.1 2 .9 4.4 1.2 6.7.3 2.3.5 4.7 1 7 1.8 8.4 4.6 16.7 7 24.7 1.3 4.4 1.2 9.8 2.6 13.4.8 1.9 2.2 3.9 3.1 6.5 2 5.5 3 8.7 7.2 10.8 1.5-5.5 1.7-12.3 1.9-19-3.9 2.6-6.9-.7-8.6-4.1-3.1-5.9-6.2-19.4-6.7-27.8-.2-3-.2-6.7 0-8.6.5-4.8 3.6-6.9 6.5-8.4-2.6-6.5-2.6-15.5-10.3-16.8-3.4 3.2-5.2 9.8-4.9 15.6zM224.8 187c0 2.2.5 5 .2 6.7 3.9-.6 8.5-.5 11.8-1.7-.7-1.4-.3-3.8-.7-5.5-3.1.3-5.1-.5-6-2.4-1.2 1.5-3.2 2.3-5.3 2.9zm136.8 2.2c-13.7 1.2-28.3 1.7-43 1.7s-29.4.7-43.7 1.2c-14 .5-27.7 1.1-41 3.6-6.5 1.2-13.1 1.6-19.4 2.9-3.3.7-6.8.8-10.1 1.2-3 .4-7.3.4-10.1 1.2-2.2.6-2.8 1.7-4.3 1.9-2.3.3-3.9-.8-6-1-1.3-.1-2.8.4-4.3.5-7.2.3-11.6 1.6-18 2.4-4.4.6-8.9 1.7-13.4 2.2-18.7 2-35.3 7.3-56.2 6-4.4-.3-10.6-.6-14.4-2.2-2.1-.8-4.1-3-7-3.6-.3-.4-1.6-1.9-1.7-1 3.6 14.2 7.6 28.9 6.2 47.3 7.1-8.4 16.3-14.9 27.6-19 7.6-2.7 16.3-4.6 25.4-6 4.5-.7 9-1.7 13.4-2.4 11.3-1.8 24.1-2.2 33.6-4.6-4.8-.7-10.3-2.3-9.6-7.9 1.1-8.2 18.4-4.9 26.4-6.5 1.9-.4 3.3-1.3 5.3-1.4 3.3-.3 7 .5 10.6 1 5.9.7 12.6-.5 16.8 1.2 11.8-2.8 28.3-2.8 36.2 3.4 6.1-5.3 17.8-3 28.1-5 4.3-.8 9.1-2.6 13.2-2.9 5-.3 9.6-.8 14.2-1.4 2.6-.4 5 0 7.4-.5 7.2-1.4 14.2-4.3 21.8-5.5 8.2-1.3 16.4-.9 24.2-3.1.5 3.2 1.1 6.4 5 6.2 2.6-4.2 1.8-13.8-3.1-14.9-1.4 2.7-6.1 4.6-10.1 5zm-119.5 2.1c.8-.3 2-.3 2.9-.5-.9-1.5-1.7-3.1-3.1-4.1-.1 1.7.4 2.9.2 4.6zm-66.2 0c-1.3 1.8.2 5 .2 7.9 1.5.1 2.5-.2 3.8-.2.5-.4-1-.6-.2-1.4.7.2.5-.5 1-.5 2 2.4 11.7 6.7 11 0-2 1.4-6 2-7.7-.2.4-.6.8-1.1 1.7-1.2 1.7 1.5 4.7 1.8 6.2 0-1.2-3.6-12.8-8.7-16-4.4zm204.2-.7c2.5 7.4-4.6 12.5-9.6 11.8-2.9-.5-3.9-3-5-5.8-11 1.8-23.5 2.1-33.6 4.8 5.3 6.3 14.3 11.6 12.2 23.8-.4 2.4-2.4 6.5-4.3 8.4-2.9 2.9-8.6 6.1-14.2 8.2-2.6 1-5.9 1.3-8.9 2.2-6.7 2-12.9 2-18.5 4.3 7.7 12.8 12.6 28.5 19 42.7 4.5-8 9-16 18.7-18.7-1 2.5-2.7 2.7-4.3 4.1-2.1 1.8-3.7 4.1-5.3 6.5-2.6 3.8-4 8.4-8.6 9.4 2.3 4.5 4.6 9 7 13.4 2.5-1.3 3.9-5.1 7.2-4.6 2.3.4 4.1 5.6 5.8 7.4 3.1 3.6 6.8 6.9 9.4 9.1-1.7-27.9 6.3-49.1 5.8-75.8 5.2-4.8 16.3-3.7 22.8-7.2-6.4-3.4-12.1-7.4-18.7-10.6 3.9-3.5 8.7-6 12.2-9.8 6.8-7.3 13.8-14.8 20.6-21.6-.9-.6-1.2-1.9-2.2-2.4-2 2-5.4-1.2-7.5.4zm-2.9 38.7c1.4.7 3.3 1.7 3.8 3.4-.3.1-.6.4-.2.5 2.7-1.1 5.5-2.2 8.2-3.4 1.6-3.8 3.5-7.5 5.3-11.5 2.1-4.6 3.7-11.1 6.5-14.4-3.6-2.7-6.5-6.2-9.8-9.1-8.7 9.5-17.2 19.1-27.4 27.1 4.7 2.1 9.1 5.1 13.6 7.4zm86.2-24.8c-4.1 2.8-7.6 6.3-11.8 8.6-8.7 4.9-18.8 8.5-30.7 10.1 3.3 5.5 6.3 11.3 9.6 16.8 9.1-9.2 19.5-19.5 30.2-27.4 6.3-4.6 12.9-8.7 15.1-16.8 0-.1 0-.3-.2-.2-3.5 3.5-7.9 6-12.2 8.9zm29.5 33.2c-2.4-.2-5.1.3-7.4-.2-1.1-.3-2-1.1-3.1-1.4-8.2-2.2-17.4-2.4-24.5-4.3 3.8 5 7.5 10.1 10.6 15.8-13.8 2.2-22.7 8.6-33.1 14.2-3.7 2-7.2 4.1-10.6 6.5-3.5 2.5-7.3 4.5-10.3 7-2.1 1.7-4 4-6 6-6.1 6.1-12.5 11.9-19.7 16.6-7.1 11.4-12.9 24.1-19 36.5 7.1 4.3 12.2 10.5 19.4 14.6.6-2 2.9-2.4 4.3-3.6 3.1-2.6 5.4-6.9 8.6-10.1 6.5-6.4 12.4-12.9 19-18.7 3.3-2.9 7-5.4 9.4-9.1-6.8-1.3-17-4.6-24-1.2-.3-1-.7-1.2-2.2-1.4.5-.9 1.8-1.1 2.9-1.4.7-2.5 2.8-3.8 2.9-6.2 1.2-.5 2.1-1.5 3.4-1.7 10-1.8 21.9 2.3 29.3 3.1.8-.4 1.4-1.2 2.4-1.4-.4-.8-.2-1.6 0-2.4.8-3.5 2.6-8 4.1-12 2.3-6.2 5.1-12 11.3-12.2-.8 1.8-2.3 3-3.4 4.8-3.1 5.2-4.7 12.3-6.5 18 4.6-3.3 10.1-5.9 14.9-8.9 1.7-1.1 3.8-2.5 6-1.2-3.1 3.4-7.6 4.5-11.3 6.5-7.6 4.2-15.2 9.2-21.6 14.4-6.4 5.2-12.8 11.5-18.7 17-3.1 2.9-5.6 6.4-8.6 9.4-6 6-12.5 11.6-17 19 6.5-2.4 25-3.3 29.3 1.4-1.4 2.2-3.6 3.6-7.2 3.6-1-.8 1.8-1.6.5-1.9-5.5-2.2-17.4-2-23.5-.5 3.4 3 10 6.7 13.4 10.6.8.9 2.3 2.3 2.4 2.9.4 2.3-2.6 3.3-5 3.8-3.7-6.2-9.9-9.8-15.8-13.7-6.8-6.9-14.9-12.6-23.3-18-4-2.6-7.8-5.6-11.8-8.9-4-3.2-8.9-5.3-12.5-8.4-4.5-4-8.6-9.2-11.8-14.2-13.7 10.1-27.6 22-41 32.9 2.2 5.4 5.9 10.3 8.9 14.9 1.1 1.7 1.8 3.6 2.9 5.3.8 1.2 2.1 1.9 3.1 3.1.9 1.1 1.6 2.6 2.4 3.8 5 7.6 9.7 15.4 17.8 19.7 6.6 9.6 18.4 12.4 28.1 18.5 3.2 2 6.2 4.6 9.6 6 4.7 1.9 10.8 2.7 16.6 3.4 6.1.7 12.9 1.4 19.2.5 5.3-.8 9.2-2.3 14.2-3.6 11.9-3 23.8-7.1 33.1-11.8 19.8-9.9 36.9-23.9 51.6-38.6 12-12 23.6-24.2 33.6-38.4 3.5-4.9 7.5-10.1 9.4-14.9.8-2.1 1.3-4.3 2.2-6.2.9-2.1 2.1-3.8 2.9-5.5 2.2-5 4.2-13.6 4.6-19.7 1.3-19.7-4.1-34.2-12-45.1-2.2-3.1-5.8-5.9-8.9-8.6-5.6-5-12.8-7.5-19-11.8-3.3-2.2-7-4.5-10.1-6.2-2.3 10.6-3.8 22.2-5.4 33.6zm-174.5 3.1c2.5-.8 5.2-.8 7.4-1.4 6.2-1.9 11.7-5.7 12.7-11.8 1.5-8.9-2.9-13-6.5-17.5-2.9-3.7-6.4-7.6-10.6-5.5 1.2 3.6 5.8 5.9 7.4 9.8 1 2.4 2.1 7 1.2 9.6-4.2 12-21.9 13.2-38.4 13.4 2 2.5 3.2 5.9 5.3 8.4 6.8-2.5 14.9-2.9 21.5-5zm114-26.4c-6.5.5-14.8-1.2-19.9-2.6 1.5 4.2 5.3 6 7.9 9.1 16.1-2.2 30.8-7.7 39.6-16.8-8.2 3-16.9 9.5-27.6 10.3zm-119.3-9.1c-4.7 1.4-10.1 1-15.1 1.4-5.7.4-11.2 2.8-17 3.4-6.3.6-12.5.1-18.2 2.4 4.2 2.5 7.7 4.3 12 6.7 1.7 1 3.2 2.8 4.8 3.1 2.2.4 5.1-.9 7.4-1.2 8.1-1.1 17.7-3.1 21.6 1.7 3.8-3.4 7.3-7.2 10.8-11-2-2.3-3.5-5.1-6.3-6.5zM69.5 238.6C68 226.8 66 215.5 62.3 206c.7 12.6 2.4 24.2 7.2 32.6zm229.2 17.1c-2.7-5.5-6.6-10.8-9.8-16.1-3.4-5.5-6.9-10.8-11.5-14.6-4.8-4-11-6.7-16.3-9.8-3.9-2.3-8.3-5.5-13.4-6.2-5.2-.7-11.9.1-16.8 1-1.6.3-3.2 1.1-4.8 1.2-3.8.3-8.2-1-12.2-1.4-11.6-1.3-21.9-.9-33.4.7-1.2-.6-4.1-.7-5.5-.2 1.9 1.6 5.6 1.5 6 4.1.4 2.5-4.1 6.5-6.2 4.3.4-1.7 3.3-.8 3.8-2.4 0-2.5-5.2-5.3-7.9-4.8-2.6.5-2.9 3.5-1.4 5.5 2.2 3 14 4.1 19.2 4.1 2.9 0 5.6-1.1 7.7-1 2.5.1 6.2 1.3 8.9 1.2 5.1-.2 10.9-.5 15.6 0 2.5.2 6.6.6 6.7 3.4-9.7-.5-20.2-1.6-30.2-2.2-.1 4.4.7 7.9 2.9 10.1 5.7 1.2 12.5 3.5 19 4.3 2.3.3 4.2.4 6.2 1.2 1.6.6 4 .9 4.6 2.9-2.8 1.2-4.7-1.4-7.2-1.9-1.2-.3-2.7 0-4.3-.2-3.4-.5-7.9-1.7-12-2.6-4.1-.9-9.1-2-10.6-4.3-1.8-3-1.5-7.4-4.6-8.6-1.8-.8-4.9 0-7.2-.7-.2 1.5 2.8 1.6 3.1 3.4-.4 2.1-.5 4.9-3.1 5.3 4.1 2.6 3.9 7 7.2 10.3 4.3 4.3 12.4 4.6 18 7.9 4.4 2.6 8.4 4.6 12.2 7.2 1.1.8 3.4 1.7 1.7 3.6-2.4-.4-3.4-2.2-5.3-3.1-4.5 1.2-7.4 3.4-11 4.6-10.8 3.5-14.7-8-23.5-6.5.1 1.6 3 1.3 3.4 3.6.2 1.4-.3 2.3-1.2 3.6 2 2.4 4.3 2.9 7.4 4.3 1.6.7 3.1 2.2 4.6 2.9 3.3 1.6 6.3 1.9 10.6 1.4 4.9-.5 11-1.7 17-2.4s12.4-2.4 17.8-1.7c2.6.3 4.8 1.3 7.2 1.4 3.7.2 7.3-.9 11-1 6.6 6.7 12.7 13.8 16.6 23.3 9.3-6.3 17.6-13.5 28.6-18-3.5-5.8-4.9-11.8-7.6-17.1zm93.9-24c3.7-1.9 7.2-4 11.3-5.5 1.8-2.7 4.5-4.5 7.4-6-3.7-2.9-5.1-8-8.9-10.8-2.7 7.8-7.2 15.2-9.8 22.3zm-67.5-7c.4-3.7-1.6-8.7-4.3-10.6-3.5 3.3-6.2 7.4-10.1 10.3 1 1.2 2.2 3.4 2.4 5.8.1.9-.3 2.6 0 2.9 5.8-.6 11.4-2.7 12-8.4zM179 223.3c-1.1 3.3 2 4.2 3.1 6 .8-.3 1.8-.5 2.4-1 .1-1.6-1.4-2-.2-3.4-1.9-1.3-2.7-1.8-5.3-1.6zm120.5-.3c-6.3 0-11.8.8-17 1.9 1 .7 2.7 4.5 4.6 4.8 1 .2 2.7-1.1 4.3-1.2 5.7-.5 11.7 0 10.6 5h5.8c0-6.3-4.8-7.7-8.3-10.5zm-173.6 8.9c2.3 7.9 5.2 15.1 13.9 16.6-.3-3.4 1.1-5.8 3.1-7.4 7.8-6.4 24-8.6 37-9.6-1-1.8-3.9-3.8-5-6.2-16.8 1.7-33.7 3.3-49 6.6zm306 10.6c-.5.4 0 1.8-.5 2.2-3.6 2.3-6.2 4.3-9.1 7.4-1.6 1.8-3.4 3.5-4.8 5.3-9.2 11.2-18.5 23.3-25.2 35.3 12.6-12.7 25.9-24.1 42.2-32.9 8.4-4.5 16.7-10 26.4-12.7-3.9-7-8.9-12.9-13.2-19.4-5.6 3.5-10.9 9.5-15.8 14.8zm-41-8c-9.6 25.1-24.3 46.3-30.7 73.7 3.6-4.6 5.1-10.5 8.4-15.6 3.1-4.8 6.9-9.3 9.4-14.6 5.1-11 13.9-19.4 18.5-29.8.9-2.1 1.1-4.8 2.6-6.5.9-1 2.6-1.2 3.6-2.2 1.3-1.3 1.4-2.9 2.6-4.1-2.3-.7-1.1-5-2.2-7-4.1 2-8 4.3-12.2 6.1zm-102.5-2.6c.6 1 1.1 2.1 2.2 2.6 2-1 5.3-.7 8.2-.7-.3-.8-.5-1.8-1-2.4-3-.6-6.9-.2-9.4.5zm-172.5 1.2c1 4.1 1.2 8.1 2.6 11.3 2.3 4.9 4.9 7.7 9.6 10.1 1.8.9 3.6 2.2 5 2.9 2.9 1.3 7.4 1.6 11.5 2.2 11.6 1.6 21.9-.3 32.4-1-.3-3.3 2.4-5 4.6-5.8 4.7-1.6 8.9 1.8 12.2 1.9 1 0 2.3-.7 3.4-1 4.1-.8 7.6-.8 11-1.9-3.2-.4-8.7-5.1-12-5-1 0-2.4 1-3.4 1.2-1.1.2-2.3.1-3.6.2-8.4 1.3-18.1 4.7-26.9 5.3-11.4.8-22.3 1.2-31-2.9-1.6-.7-4.1-2-5.5-3.4-3.5-3.5-3.7-10.2-6.2-14.6-1.4-.1-2.3.5-3.7.5zm242.6 8.4c-.7 26.4-7.8 48.7-6 76.1 4.1-16.1 9.4-30.3 15.8-43.9 6.4-13.5 13.1-26.7 19-40.8 0-.1 0-.3-.2-.2-8.5 4-18.3 6.6-28.6 8.8zm51.6-4.1c-5.7 16.5-12.7 33.1-18.2 49 10.1-15 21.2-29 33.8-41.5-1.9-4.4-4.1-8.6-6.7-12.2-1.7 2.8-4.4 4.6-8.9 4.7zm-227.5-3.3c-2.4 1.2-5.8.5-9.1.7-5.6.4-13.1 1.4-18.5 2.9-6.9 1.9-12 4.8-11.8 12 3.5 1.1 8.9 1.2 13.2.7-.1-1.9.6-2.9 1-4.3 6.4-5.6 19.6-4.2 29-6.7-1.6-1.5-1.8-4.3-3.8-5.3zm1.4 8.6c-3.8.3-9.4 1.2-14.2 1.7-5.4.5-9.5 1.3-9.8 5.8 12.8.1 22.2-3.1 32.6-5.3-2-1.9-4.4-2.5-8.6-2.2zm13.2 14.4c1.9.5 2.9 2.2 4.3 2.6 5.1 1.7 9.3-4.1 13.7-4.6-3.8-1.1-12.6.5-18 2zm-18.2.5c1.2 1.8 2.7 2.6 5 2.9 1.6-2.7-4-7-5-2.9zm78.9 11.7c-7.2 1.2-14.5.5-21.6.5.8 3.5.9 7.6 1.7 11 4.1 2.3 6 6.9 10.3 9.1 1.3-2.6 3.3-4.9 5.3-7.2 2.8-3.2 5-7.2 8.9-8.9-1.4-1.5-2.9-3-4.6-4.5zm-52.3 3.9c.6 6.7-1.2 16.9 1.2 22.6 11.7.6 19-5.3 25.9-10.3-.7-5.1-1.2-10.5-2.4-15.1-8.6.5-16.9 1.4-24.7 2.8zm100.6.5c-9.5 6.2-19.6 11.8-27.6 19.4 2.1 4.1 3.1 9.2 5 13.4 5.5-3.9 11.2-7.7 17-11 4.2-2.4 7.4-5.3 11.5-7-2.1-4.8-3.6-10.2-5.9-14.8zm-14.4 58.5c-3.5-3.6-5.3-8.9-7.2-13.9-2-5.1-4.3-10.1-6-15.4-3.5-10.6-8.2-20.4-15.1-27.6-3.9 6.1-9.8 10-12.2 17.5 3.9 2.4 8.1 4.5 10.6 8.4-1.3 1.3-2.7 2.4-5 2.6-6.6-6.4-15.4-10.5-21.1-17.8-9.7 6.5-19.1 14.2-35.8 13 2.3 10.6 4.3 21.2 7.9 30.5 1.7 4.3 3.6 9.1 6.5 12.7 2.3 2.9 6.7 7.7 9.6 9.6 5.6 3.7 15 6.8 23.3 7.4 7.3.5 15.7-1.4 21.6-2.9 2.2-.6 4.4-.9 5.8-1.4 4.5-1.9 6.8-5.4 11.5-6.7-1.6-2.5-3-5.2-4.3-7.9 3.2-3 8.3-5.3 10.6-8.4-.3.3-.4.4-.7.3zm20.6-42.2c-8.4 7.2-19.9 11.3-27.8 19 3.1 7.2 5.3 15.3 9.8 21.1 10-6.5 18.2-14.9 27.8-21.8-3.6-5.8-6.3-12.5-9.8-18.3zm101.5 7.9c-1.4 1.3-2.4 3.1-2.9 5.3 8.5-.4 14.9 1.2 21.4 2.9l6-4.8c-7.2-2.1-15.3-3.3-24.5-3.4zm-118.3 92.2c6.4-.9 11.5-3.1 18-3.8-4.7-4.1-9.4-10.3-13.2-16.1-1.7 6.5-3.5 12.9-4.8 19.9zm-25.7 9.8c2.5.5 4.9 1.1 6.7 2.2 2.4-2.3 5-4.4 7.9-6.2-5.6.5-9.9 2.4-14.6 4zm-4.5 13.9c2.3-2.8 4.6-5.6 7.2-8.2-2.3-1.5-5.5-2-8.4-2.9.7 3.4 1.3 6.9 1.2 11.1z"/></g></svg>