<svg xmlns="http://www.w3.org/2000/svg" viewBox="0 0 566.9 467.7"><style>.st0,.st1{fill:#ee7f00}.st1{fill-rule:evenodd;clip-rule:evenodd}</style><g id="Слой_1"><path class="st0" d="M363.9 127.9c-7-3.3-7.8 19.5-7.5 30.4-3.2-6.1-6.8-12-10.7-17.6-.5-.6-1.7.7-1.9 1.1-2.2 7.4-3 14.9-2.5 22.5-4.5-5.9-8.4-12.1-11.7-18.6-.2-.3-.3-.3-.7-.3-5.4 1.9-11.9 4.9-16.8 7.6-.3 0 .4 1.4.4 1.4s3.1 9.1 6.6 9.9c2.1.4 4.1-1 5.6-2.4 4.1 7.7 8.2 15.4 12 23.3 2.1 4.1 4 8.2 5.8 12.2.7 1.5 4.3 7.5 4.7 9.9-.3.3 14.1-6.4 13.6-6.9-5.9-8.4-9.1-17.9-9.6-28.1 6.2 4.9 11.2 10.8 14.8 17.8.2.4 1.1-.4 1.2-.6 1.3-.8 2.8-1.6 4.1-2.4.5-.1 1.5-1 1.3-1.6-2.9-9.9-5.8-19.8-5.3-30.1 6.4 11.4 12.7 22.9 18.4 34.6.2.4 6.5-3.7 6.4-4.2-4.1-10.4-9.6-22.6-14.5-32.6-2.7-5.3-5.3-10.6-8.2-15.8-1-2.4-2.6-8.2-5.5-9.5z"/><path class="st1" d="M382.3 140.9l-.6.5c1.6 11.7 5.7 23 12 33 .5.9 2.7 3 2.7 3 5.6-3.1 10.9-6.8 15.7-11-2.4-2.7-4.6-5.4-7-8.2-1.1 1.6-5.6 5.9-5.6 5.9l-3.3-3.1 7.5-6.2s-1.5-3-2.7-4.6c-2 1.1-6.6 5.5-7.3 7.6-2.4-1.7-2.9-4.3-3.6-7 2.9-1.4 5.7-2.8 8.6-4.3.5-.3 1.1-.5 1.4-1.1.3-.6 0-1.4-.2-2-1.5-4.2-3-8.5-4.5-12.7-3.9 3.6-8.4 7.1-13.1 10.2zm50.5-28.2c-3.3 3.8-7.2 7.1-11.5 10 2.9 10.1 5.7 20.2 8.7 30.3l5.3-4.4s-.3-2-.6-3.4c-.3-2.2-.9-6.8-.9-6.8s.9-1.2 1.5-1.7c1.8-1.7 3.4-3.6 4.9-5.6.3-.3.4-.7.7-.7.4-.1.8.2 1.1.4 2.3 2 4.6 4.1 6.7 6.4 1.9-2.9 3.8-5.7 5.7-8.5-7.6-4.8-14.8-10.2-21.6-16zm0 19.3l-.5.6c-1.5-2.5-2.4-5.2-3.2-8 1.2-.8 2.3-1.7 3.4-2.5.9 2.5 2.2 4.6 4 6.4-1.2 1.2-2.5 2.4-3.7 3.5zm22.6-38.7c-1.1-.6-2.5-1.1-3.8-.6-1.8.6-2.4 3-2.4 5 0 4.1.9 8.3 2.8 12-3.6-1.8-7-4-9.9-6.9-2.2 2.5-4.3 5-6.1 7.6l6.1 3.5c5.2 4 10.7 7.5 16.4 10.7-.2-.3 3.7-5.3 4.9-7.7-3.5-3.9-7.2-8.2-7.5-13.4 5.6 2.7 11.1 5.4 16.7 8.2.8-2.5 2.1-4.7 4-6.5-6.6-4.6-13.8-8.6-21.2-11.9zm29.9-4.8c-1.3 1.8-4.7 5.9-5.9 7.9 0 .2-3.6-3.1-3.6-3.1s4.8-3.6 4.8-4.6c-1.6-1.1-3-2.4-4.3-3.8-1.1 1.6-2.3 3.2-3.5 5 0 .2-.3.3-.5.4-.3 0-.4-.2-.5-.2-1.4-1.3-2.7-2.6-4.2-3.9 1.8-1.2 3.5-2.8 4.9-4.4.3-.3.4-.7.5-1 0-.5-.4-1-.8-1.3-1.2-1.2-2.6-2.3-3.8-3.5-3.2 2.4-7.3 7-9.1 10.5l20.1 17c3.4-2.6 8.4-7 11.5-10-2-1.9-3.7-3.4-5.6-5zm16.6-14.7c-2.6-2-7-2-9 .6 2.3-3.6 2.2-8.5-.4-11.9-2.6-3.3-7.6-4.6-11.4-2.8-2.2 1-4.7 4.7-4.7 4.7 4.9 10.2 11.6 19.6 19.5 27.8.4.4.9.9 1.5 1 .6.1 1.2-.1 1.6-.4 2.9-1.2 6-2.8 7.1-5.7.6-1.6.4-3.3.1-5-.5-3-1.7-6.3-4.3-8.3zm-14.3-1.4c-.5-.2-.9-.8-1.3-1.3-.8-1.2-1.5-2.6-1.6-4 0-.5.4-3.2 2.9-2.8 1.3.2 1.9 1.9 2.3 3.1.4 1.1.6 2.3.3 3.4s-1.5 2-2.6 1.6zm13.8 9.7c.1 1.8-1.2 3.8-3.1 3.9-1.4.2-2.9-.9-3.5-2.3-.7-1.4-2.9-5-.1-6.6 1.1-.7 2.6 0 3.6.6 1.7 1.1 2.9 2.6 3.1 4.4z"/><path class="st1" d="M484.8 65.6c0 .2 0 .3.1.5l-.1-.5zm12.1-7.1c-.1 1.7.4 3.4 1.4 4.8.5-1 2-1 3.1-.4.9.6 1.5 1.6 2 2.6 1.9 3.8 3.8 7.6 5.9 11.4 1.2-1.2 3.1-1.9 4.9-1.8-1.2-3.6-2.5-7.3-3.8-10.9.7-1.2 2.1-1.5 3.3-.8 1.2.7 2.1 1.7 2.8 3 .7 1.2 1.5 2.6 2.2 3.8.4.7.9 1.4 1.6 1.9.7.4 2.3.2 2.7-.5.7-.8.1-1.9-.3-2.9-1.3-2.7-2.1-5.8-2.2-8.8-.1-.4 0-.8.3-1 .6-.5 1.3.1 1.7.6 2.3 2.7 4.1 5.9 5.3 9.3.2.3.2.7.6.8.3.1.6.1.9-.1 1-.3 2.1-.7 3.2-1.1-1.2-6.7-4.9-12.9-10.1-17.1-2.1-1.7-5.3-3.3-7.7-1.6-2.4 1.6-2.2 5-1.7 7.8-.9-1.3-1.7-2.5-3-3.3-1.3-.8-3.1-.9-4.2 0-1.5 1.3-1.4 3.3-1.1 5.2 0-1.4-1.5-2.4-2.8-2.3-1.4 0-2.6.7-3.8 1.5-.5.3-1.3.6-1.5 0m-81 70.1c-3.7-3-7.4-1.9-8.7-1-2.3 1.6-4.4 3.3-4.5 4.8-.7 6.7 2.3 13.5 5.2 19.5 2.9 6 7.5 11.9 11.8 17.1l1.5-1.4c1.7-1.4 2.7-2 4.3-3-5.1-4.3-8.7-10.4-10.1-17 4.2.1 7.3-4.6 6.7-8.6-.7-4.1-3.1-7.7-6.2-10.4zm0 11c.2 1.5 0 3.5-1.6 4-.7.3-1.4 0-2-.3-.8-.5-1.3-1.3-1.5-2.1-.6-1-1.2-4.4 1-5.3 1-.4 2.2.1 3 .8.6.8 1 2 1.1 2.9z"/><path class="st0" d="M416.4 207.4c-2.9-5.5-5.8-10.9-8.7-16.4-.6.7-1.2 1.5-1.8 2.2 4.2-.5 7.7-2.5 10.3-5.8-1 .2-1.9.4-2.8.7 3.1 4.9 8.2 10.7 14.5 7.1 6.6-3.6 5.4-11.5 3.5-17.4-.3.6-.7 1.1-1 1.6l7.2-3.9c-.7 0-1.4 0-2 .1 8.1 12.6 15.3 26.9 18.6 41.5 1.5 6.8 1.7 15.2-4.7 19.7-6.8 4.7-15.5 1.2-19.3-5.4-.4.7-.9 1.4-1.3 2.1 3-1 5.5-2.4 7.9-4.3l-2.4.3c4.5 5.4 13.1 2.6 16.2-2.9 5.4-9.4-1.2-22.3-7.3-29.6-1-1.1-3.2.4-3.2 1.6.2 4.9-3 9.8-8.3 10-2 0-3.9-.5-5.6-1.5-1.4-.8-2.1-2.4-3.4-3.2-3.3-2.1-6 2-8.5 4-1.9 1.5.4 2.4 1.9 1.3.7-.6 1.7-1.8 2.5-2.2 1.5-.7 1.2-.4 2.4.4 1.4 1.1 2.4 2.2 4.1 2.9 2.7 1.2 5.8 1.4 8.6.5 6-1.7 9.8-7.4 9.6-13.4-1.1.5-2.1 1.1-3.2 1.6 4.4 5.2 7.7 11.3 8.7 18.1.4 3.3.4 7.6-1.8 10.4-2.4 3.1-7.2 3.2-9.7.2-.7-.8-1.8-.2-2.4.3-2 1.5-3.9 2.5-6.3 3.4-.7.2-1.9 1.2-1.3 2.1 7.6 13.4 27.6 9.3 30.8-5.4 1.7-8-1.4-16.5-4.2-23.9-3.9-10.6-9-20.7-15.1-30.2-.5-.7-1.6-.3-2 .1l-7.2 3.9c-.4.2-1.2 1-1 1.6 1.1 3.4 2.9 8.4.9 11.8-4.3 7.2-10.6-1.8-12.5-4.8-.7-1-2.3 0-2.8.7-2 2.4-4.3 3.5-7.3 3.9-.8.1-2.3 1.3-1.8 2.2 2.9 5.5 5.8 10.9 8.7 16.4.2.7 3.2-1 2.5-2.4zm37.9-20.6c-.5-3.1-1.3-8.3.3-11.2 3.1-5.9 9.7.4 12.6 2.7 5.4 4.4 10 9.6 15.6 13.8 3.5 2.6 9.1 6.9 13.6 5.2 4.9-2 4.7-6.8 2.6-10.8-.9.7-1.7 1.4-2.7 2 1.4 0 3-.4 4.3-.3 1.9.1 2.2.2 2.7 1.8.6 2.2.4 5.3-.2 7.5-2.5 9.8-14.7 3.1-19.6.1-.7-.4-3.1 1.1-2.9 2 1.1 3.8 2.1 7.8 1.6 11.8-.8 6.5-6.7 9.9-12.8 7.7-9-3.3-10.5-15-6.1-22.3 1.1-1.8 4.8-4.5 4.9-6.9 0-2.7-3.6-6.3-6.1-6.7-5.1-.6-7.2 4.3-7 8.5 1-.6 2.1-1.2 3.1-1.7-1.5-1.1-3-2.3-4.5-3.4-.9-.7-3.5 1.6-3.1 1.9 1.5 1.1 3 2.3 4.5 3.4.7.5 3.1-.8 3.1-1.7-.1-.8-.4-2.1 0-2.9.9-1.9 2.9-1.7 4.4-.1 2 2.1 2.4 4.1.8 6.7-1.6 2.9-4 5.1-5 8.5-2.1 7.2.8 16.2 8.2 18.9 5.1 1.9 11.2.2 15-3.6 5.3-5.4 3.9-13.3 2-19.8-.9.7-1.9 1.3-2.9 2 6 3.8 12.9 7 19.7 3.2 6.8-3.8 5.8-10.1 5.9-16.9 0-.2-.2-.3-.4-.3-2.4.3-4.9.7-7.4.6-.6 0-3.1 1.2-2.7 2 .7 1.4 2.5 4.3 1.6 5.8-1.5 2.3-4 .7-5.7-.2-3.5-1.7-6.7-4.1-9.6-6.7-4.8-4.2-9.1-8.9-14.2-12.7-4-2.9-9-5.9-13.6-2.5s-4.1 11.1-3.3 16.2c.4.9 3.5-.7 3.3-1.6z"/><path class="st0" d="M475.9 198.3c-2.2-3.7-7.2-.1-8.8 2.5-2.5 3.8-2.5 10.2 1.4 13.2 7.5 5.5 16.1-12.1 6.3-16.3-1-.5-3.6 1.7-2.7 2.1 2.2.9 3.8 2.9 4.1 5.3.4 2.6-1 8.9-4.7 6.8-2-1.2-2.8-4.1-2.9-6.2 0-1.7 1.9-9.4 4.3-5.4.4.8 3.5-1.1 3-2zm-10.2-34.9c6-8 12-16 17-24.6-1 .3-2 .6-3 .8 2.5 9.6 5.2 19.1 8.2 28.5.3 1 2.7-.5 3-1.1 2.8-5.8 5.7-11.6 8.4-17.4-1 .4-2 .7-3 1.1 3.6 3.4 7.4 6.4 11.5 9 .1-.4.1-.9.2-1.3-6.9 7.5-12.6 16.3-18.1 24.8l2.7-1.2c-1.9-1.7-4.9-3.4-6.3-5.5-1.6-2.3-1.9-6.1-2.5-8.7-.9-3.9-1.8-7.7-2.6-11.6-.3-1.4-2.6.2-3 .8-2.4 4.5-4.8 8.9-7.3 13.4l2.7-1.2c-2.7-2.3-5.4-4.5-8-6.8-.9-.8-3.8 1.3-2.7 2.2 2.7 2.3 5.4 4.5 8 6.8.7.6 2.4-.6 2.7-1.2 2.4-4.5 4.8-8.9 7.3-13.4-1 .3-2 .6-3 .8 1 4.4 2 8.8 3 13.3.5 2.3.9 5.6 2.4 7.6 1.6 2.1 4.6 4 6.6 5.7.7.6 2.4-.6 2.7-1.2 5.3-8.4 11-16.8 17.6-24.2.3-.3.7-.9.2-1.3-4-2.5-7.7-5.4-11.1-8.6-.8-.8-2.5.3-3 1.1-2.8 5.8-5.7 11.6-8.4 17.4 1-.4 2-.7 3-1.1-3-9.2-5.6-18.6-8.1-28-.3-1.4-2.6.2-3 .8-5 8.6-11 16.6-17 24.6-1.2 1.6 2.2.7 2.9-.3z"/><path class="st0" d="M493.7 141.7c3.8-7.5 7.3-15.1 10.4-23-1 .3-2.1.5-3.1.8 6.8 11.4 13.7 22.8 20.5 34.1.8 1.4 3-.1 3.2-1.2 1-7.2 2.1-14.3 3.2-21.5-1 .5-2 1-2.9 1.4 3.2 1.8 6.4 2.9 10 3.2-.4-.4-.7-.8-1.1-1.2-2.8 10.4-5.3 20.8-7.4 31.3.9-.5 1.7-1.1 2.6-1.6-2.8-.7-6.1-1.3-8.7-2.7-1.8-1-2.5-3.2-3.5-5.4-3.6-7.5-7.1-14.9-10.7-22.4-.6-1.3-2.7 0-3.1.8-1 2.3-1.8 5.3-3.2 7.4-1 1.4-1.2 2-3.4 1.3-1.6-.4-3-1.7-4.1-2.9 0 .6.1 1.1 0 1.7-.1 0-.1.1-.2.2 1.8-.3 2.7-3.3.4-2.8-1.4.2-2 .6-2.9 1.7-.4.5-.4 1.2 0 1.7 2.3 2.4 6.9 5.2 10.3 3.4 3.4-1.8 4.6-8.3 6-11.5-1 .3-2.1.5-3.1.8 4 8.3 7.7 16.6 11.9 24.7 2.5 4.8 7.1 5.3 12.2 6.6 1.1.3 2.4-.4 2.6-1.6 2.2-10.5 4.7-20.9 7.4-31.3.2-.7-.5-1.2-1.1-1.2-3.1-.3-5.8-1.2-8.6-2.7-1.1-.6-2.8.2-2.9 1.4-1 7.2-2.1 14.3-3.2 21.5 1.1-.4 2.1-.8 3.2-1.2-6.8-11.4-13.7-22.8-20.5-34.1-.7-1.2-2.7-.1-3.1.8-3.1 7.8-6.6 15.5-10.4 23-.9 2.2 2.5 1.9 3.3.5z"/><path class="st0" d="M358.3 36.7l2.4 1c-.6-.2-1.3-.6-2-.9-.2-.1-.3-.1-.4-.1zm66.9 27.4c.4-1.7 1.4-4.5 1-6.1-.3 2.2-1.2 2.8-1.6 4.5.6.2 0 1.5.6 1.6zm-66.5-27.4c.3.1.6.1 1 .1v.2c.6.3 1.2.6 1.8 1l-.8-.2c.3.2.6.2 1 .4 8.8 4.4 17.4 4.8 22.2 12.3 4.4 6.9 2.2 18.3 3.5 27.7.9 6.2 5.9 10.2 10.2 14 2.3 2.1 5 4.9 7.4 5.8 5 1.8 10.8-1.4 11.4-2.9-1 .5-1.5 1.4-2.9 1.6 1.3-1.8 3.4-3.3 4.5-4.2 1.8-1.4 3.2-3.5 6.1-3.2-1.7 2.2-6.1 3.2-6.7 5.4 1.8-2.5 13.7-7.3 7.6-9.8 1.2 1.2-2.2 1-3.2 1.9.8 0 1.5-.1 1.6.6-5 3-6.8 7.3-12.7 9.2 3.6-2.9 8.5-6.2 9.5-10.5-4.1 3-8.6 13-15 8.2-3-2.2-7.1-6.6-10.2-10.2-4.7-5.6-2.2-15.4-2.9-23.8-.4-5.1-2.6-9.6-3.5-13.4 12.8 4.4 23.8 10.6 36 15.6-9.2-4.5-19-9.6-28.3-13.7-3.3-1.4-7.8-1.9-9.2-5.1 5.6 2.3 10.6 4.9 15.6 7.3.4.2 5.1 2.6 3.2 1.3-2.9-1.8-7-3.4-10.2-5.1-3.8-1.9-11.1-3.8-10.8-9.5 2.2 1.8 6.5 5 7.9 5.4-2.7-2.4-7.1-4.3-8.6-7.9-.4-.9 0-2.2-.3-3.2-1-3.6-3.8-7.5-5.4-10.2-5.1-8.3-9.2-16.8-14.2-24.5h-18.8c1.7 3.2 3.4 6 4.2 7.5 2.6 5 6.3 9.3 9.9 13.6v1.2c-5.8-3.4-18.9-6.7-24.8-4.1-2 6.9 15.2 17.2 23.9 21.2zm18.1-11.2c.3-.6 0-.2.6-.6 2.7 1.4 1.9 6.3 5.4 7-.3 1-1.2.1-1.3.6.2.2.3.5.3 1 .8 0 1.2-.5 1.3-1.3.2 1.3.2 3.8-.6 3.5 1.2 2.2 2.3 8.6 4.8 10.5h-1.9c2.1.8 2.8 3 3.5 5.1 1-.2-.3-.6 0-1.3 2 1.5 0 6.3 1.9 7.3.1.7-1.1.2-1.6.3 1.8 1.4 2.2 3.8.3 5.4.5 0 1.2.2 1.3-.3-1.5 6.7.1 15.1 1.6 20.1 4.3 3.8 9.5 9.6 14 13.4-.3-1 1.5 0 3.2-.3-1.1.3-2.2.4-3.2.3-5.2-.5-9.3-5.8-13.7-9.8-6.9-6.4-4.3-14.9-5.4-26.7-.3-3.8-1.8-10.8-4.2-12.1-.2-.2-.3.5-.3.6-1.4-3.8-3.3-8.2-6.7-10.2-3.3-2-4.8-5.8-7.3-8.9 1.6-2 5.4-4.7 8-3.6zm-1.3 71.7l.3.6c0-.1-.1-.2-.1-.2l-.2-.4zm27.7-1.9c.3-.9-1.4-1.7-2.2-2.6-3.1-3-6.3-6.4-9.2-8.9 2.3 4 7.8 7.7 11.4 11.5zm22.7-31.5c-.4 3-1.4 7-1.3 9.5.4-3 1.6-6.8 1.3-9.5zm12.1-1.9c1 .1 1-.7 1.9-.6-.6 4 5.8 6.2 7.4 4.6-.2-.1-.4-.3-.4-.6 1.8-1.7-2.2-4-1.9-5.1.2-.1.6 0 .6-.3-3.3 0-6.4 0-7.6 2zm9.5-2c-.6-2-4.3-1.3-5.4-.3 1.8.2 4.2-.3 5.4.3zm2.9.7c2.2 1.8 3 4.8 4.5 7.4-.9-3-2-7.3-4.5-7.4zM395 44.3c-1.8-1-1.2-.6 0 0 0 .1 0 .1 0 0zm3.8 2.3c-.7-.3-2.6-1.4-3.8-2.2.6 1.3 3 2.3 3.8 2.2zM445 68.9c1.2.2 2.7 1.8 3.8 1-1.2-.3-3.2-1.4-3.8-1zm-20.5-2.2v-1.4c.1.5.1 1 0 1.4zm2.7-9c-.8 2-.2 5 1 6.1-2 5.4-1 15.4-8.9 13.7 5.4.2 5.3-6.2 5.4-10.7-.2 6.3-2.5 12.4-9.5 9.8.4-.1.9.1 1-.3-1.2-.1-2.5.7-1.3-.3-2-.2-2.1.2-4.2-.3.5.2-.2-.8-1-1-1-.2-2.9-.6-3.8 0-.1-1-3.6-4.6-4.5-2.9 1-.4 1.8-.2 2.2.6-.4.1-.2.3 0 .6-.8-.1-1.4.2-1.6.6.4.8 1-.6 1.3.3-1-.2-.5 1-1.3 1-1.7-1 0-2.2-1.6-3.2-.7 1.4-.2 3 1 3.5 1.6.3 1.8-.7 3.2-.6 5.8 1 10.9 5.8 16.2 5.1 6.6-.9 5.9-8.9 7.9-15.3.8.5 2.4 1.8 3.2 1.3-1-.7-2.9-.7-3.5-1.9.3-1.1 1.2 0 1.6-.6-.8.1-1-.5-1.3-1 2.2-5.4 4.5-7.1 9.2-11.4 3.8-3.6 8.2-9.7 13.4-10.2 4.6-.5 8.3-4.3 10.8-6.6 4.5-4.2 30.3-32 33.8-35.8h-21.6c-8.6 7.6-16.7 15.6-23.6 24.9-2.6 2.2-6.2 7.4-7 10.8-1.4 5.7-4.9 7.8-7.7 11.4-.3.5-.3 1.6-.6 1.9.1-.1-1 .1-1.3.3-3 2.7-5.8 6.7-7.4 10.2 5-6.7 11-12.3 16.6-18.5-.5-.2-1.7.4-1.6-.3 2.6-.6 6.1-5.4 4.8-8.9.1 1 .1 2.6-1 1.6.6 2.6-1.4 4.9-2.9 6.4 3.1-2.9 1.8-10.1 7-10.8.6-.7 1-1.6 1.9-1.9 4.2.2 5.2 1.1 6.4 3.2-1.8 1-2.6 1.3-5.1 1.3v2.9c.7.9 2.6.6 2.9 1.9-2.2.3-2.6-.7-4.2.6 0-.5.2-.7.3-1-2.8 1.1-4.5 4.5-6.4 6.3-6.1 6.1-14.5 11.5-17.5 21.7-.7-.9.7-4.1-.7-4.5zm28.3-22.6c.5 1-1.4 1.8-2.2 1.6.1-1.1 1.7-.8 2.2-1.6zm-23.3 39.5c2.2 15.7 25.8 10.9 24.2-5.1-.1-1-.6-2.3-1.3-3.8-.6 1.7.6 2.3.6 3.8.2 5.1-3.9 8.9-5.8 11.4.6-.6 1.7-2.3 2.9-1.3-.9.6-1.2.3-1.9.6-5.8 8.4-20.6.5-17.8-9.5.1.4-.1.9.3 1 .1-1-.9-3.4.3-1.9-.9-2.1 2.3-4.3 2.9-6.3-1.2 1.1-1.9 2.7-2.9 4.2-.1-1.1 1.7-2.2.6-3.2.1 2.5-3.4 1-1.3 2.6-.6 2.2-1.2 4.6-.8 7.5zm22.6.3c1.4-.4-1 2.6-1.3 3.5-.7-1.1 1.7-1.8 1.3-3.5zm-7-42.6c1-1.1 2.5-1.3 3.5-2.9-1.1-.2-2.2.1-3.5.6 1 .3-1 3 0 2.3zm-.3 33.4l-.2.2c.1 0 .2 0 .2-.2z" id="Режим_изоляции"/></g><g id="woman_x5F_01_xA0_Image"><path class="st1" d="M44.3 54.7c1 .5-.3 2 .9 2.3-.3 1.5-1.3 2.3-2.6 2.8-2.2 2.1-1.8 7.8-5.6 7.7 1.6-5.2 3.9-9.5 7.3-12.8zM242.7 82c-2.2 0-3.7-1.8-5.6-2.8-6.2-3.4-15.3-4.3-23.7-6 .3-.7-.7-1.3 0-1.6 1.9-1.5 5.4-1.2 8.6-.9 3.6.3 7.5 1.1 10.7 2.6 4.6 1.9 8 4.8 10 8.7zM31.3 84.4c-.7 5-.1 11.3-4.2 13 .7-4.8 0-12.4 4.2-13zM236 89.5c-.3.4-1.3.3-1.2-.5.4-.4 1.4-.3 1.2.5zm-31.3 11.8c.2-.5 1.3-.1 1.9-.2 2.5 7.4-6.5 7.6-9.7 4.4-1.3.2-2.9.5-3-.9 3.7-.4 6.2.5 7.7 2.3 3.5.9 4-3.4 3.1-5.6zm-23.7 4.2c-.9.5-1.1 1.7-2.6 1.6-.1-1.5 1.1-1.7 2.6-1.6zm-.3 1.9c2.1 2.7 8.4 0 10.2 3 10.1-.1 14.1 8.9 25.1 5.8-2.9 6.1-11 11.6-19.3 12.5-5.8.6-11.7-2.4-13.9-6.5-2.1-3.9-1.3-9.8-2.1-14.8zm9.6 4.1c-1.4-1.6-4.5-2.4-7.2-1.4 1 1.4 2.7 2.9 4.9 1.9 1.8 2.5 4.7 2.1 7.9 3 1.3.4 2.3 1.7 3.7 2.1 3.7 1.2 7.6 1.4 11.6.7-8.8-.3-11.9-6.3-20.9-6.3zm-7.7 1.7c.4 8.5 4.5 13.8 12.1 14.6 8 .9 14.9-4.6 18.1-8.8-8.5 6.8-27.1 4.1-30.2-5.8zm13 7.6c3.6.9 9.4.8 11.1-1.2-2.8-.9-5.8-.9-8.6-1.9-1.1-.4-1.9-1.4-3-1.6-1.9-.5-3.9 0-5.6-.7-1.4-.5-2.3-2.3-4.4-1.6 1.5 3.2 6.3 6 10.5 7zm23.2-5.1c.3.3.3.8.2 1.4-.4.1-.6.5-1.2.5-.4-.7-.1-2.2 1-1.9zM71.9 168.2c-.2 2.7 1.1 7.5-2.1 7.9-2.1-2-1.3-7.9 2.1-7.9zm128.3 72.4c-2.1 2.4-2.3 6.7-5.1 8.4-4.6-4.6-12.4-5.9-18.6-9.3-3.6-2-6.5-3.5-12.1-3.2 1.7-2.5 4.9-3.4 6.7-5.8.6-.6-.5-.2-.2-1.2 1.2-.8 2-1.8 3.5-1.9 1.5-.1 2.4 1 3.5 1.2 3.9.7 7-.3 10.2 1.2 1.7.8 3.8 2.8 5.6 4.4 2.7 2.3 4.7 3.6 6.5 6.2zm-6.7-.5c-5.8-4.4-9-10.1-20-8.8-.6.8-3.2 2-2.6 2.6 6.1.1 8.7 3.4 13.2 5.3 3.7 1.5 7.4 2.1 10.9 3.9 1.3-1.4-.4-2.2-1.5-3zM334 294.7c.8-.1 3.7-.8 3.7 1.4 0 1.8-4.1 1.9-5.6 2.6-1.2.5-2.3 1.4-3.5 2.1-1.6.9-4.7 3.3-5.1.5-.2-1.5 1.8-2.2 3.3-3 2.7-1.7 3.6-3 7.2-3.6zm-64.6 94.7c-.1 4.4-1.6 8.4-2.6 12.5-2 9-3.2 18.1-6.3 26-2.7 6.8-5 14.2-10.7 18.6-7.2 5.5-15.7 10.8-29.7 8.4-4.3-.8-8.5-2.9-11.6-5.3-2.1-1.7-2.9-3.9-5.1-6.7-1.6-2-4.7-3.8-5.1-6.5-.4-3 1.1-7.8 2.3-11.1 2.5-6.7 5.6-11.8 8.8-18.1 1.7-3.4 3.7-6.2 4.9-8.6.6-1.3 1-3 1.6-4.4.7-1.4 1.9-2.5 2.3-3.5.4-1.1.5-2.6.9-3.2.6-.9 2.3-2.2 3.7-2.3 1.4-.1 2.8.9 4.2 1.2 4.4.8 10.1.2 15.6.7 5.1.4 10.2 1.6 14.4 1.9 4.6 0 8.4-.8 12.4.4zm-46.2 0c-2.2 2.6-3.9 7.5-6 11.1-2.1 3.6-3.8 7.2-5.6 10.9-3.5 7.4-8.1 14.9-8.4 24.4.3.4 1.3-.5 2.3-.2 4.3 7.5 8.2 12.9 17.4 15.8 3.2 1 10.7 1.2 14.6.2 1.5-.4 3.3-1.6 4.9-2.6 6.7-4.2 9.1-9.7 12.3-17.4 4.8-11.7 6.4-27.7 9.5-39.2-14.1-.5-26.4-2.9-41-3z"/><path class="st1" d="M242.5 402.6c-1.4 5.6-18.3 2.9-25.1 2.6.2-1.1 2.7-3.1 4.2-3 5.5.4 14.5.6 20.9.4zm-6 9.3c-4.4 6-13.9-.6-20.9-.5 4.1-6.1 14.8-.5 20.9.5zm-43 46c-.9 2.6-4 2.5-6.3 3.2-3 1-5.9 3.2-9.3 3.3.8-2.9 4.5-3.3 7-4.4 2.5-1.2 5.5-2.9 8.6-2.1z"/><path class="st1" d="M-18.4 422.3c18.8 10 43.2 15 71.7 16.2 10.5.5 21.9 0 32.7-.9 1.9-8.1 4.6-17 9.7-24.1 4.8-6.6 11.3-12.6 20.4-13.2 6.4-.5 10.6 1.4 12.1 6 2.9 9-2.1 16.2-5.8 21.1-6.6 8.8-20.1 12-33.4 13.7.6 25.6 11.7 40.8 23.9 54.8 16.1-19 34.3-35.9 53.9-51.5.4-.4.3-1.3.7-1.6 7.3-6.9 13.8-14.6 21.1-21.4-4.7-15.4-8.8-30.6-14.6-44.6-5.8-14-12.6-26.8-19.7-39.2-2.6-8.9-6.9-18.2-9.3-28.1-4.5 2.5-8.2 6.6-13 9.5-2.2 1.4-4.6 2.7-7 4.2-2.2 1.4-4.1 3.4-6.5 4.6-1.8 1-4.1 1.6-6 2.6-1.9 1-3.6 2.3-5.3 3-2.9 1.2-6.8 2-10.4 3.3-5.2 1.8-10.9 3.7-16.9 3-3.2-.3-8.6-2.7-10.9-4.4-1.6-1.2-3.7-3.6-4.9-5.3-6.3-9.2-6.9-24.4-8.6-37.8.4-1.1-.9-.3-.7-1.2.3-4.5-1.1-9.9-1.6-14.9-.2-2 .1-4.7-.2-6.7-.5-3.3-1.2-5.4 2.1-6.5.5-2.6-.2-5.4-.5-8.4-.7-7.6.9-16.3-.7-23.2.4-.8.6-1.2.7-2.1 1.2-8.6-.6-18.3.7-27.4-4.5-3.6-13.4 3.3-19.3-.2-.7-4.4 3-6.5 4.6-9.3-1.6-2.6-3.3-6.5-2.1-9.5.6-1.6 3-3.5 5.1-4.9 3-1.8 7.1-2.4 10.2-2.1-6.5-11.3-.6-29 6.3-37.1-2.5 1.5-5.9-.3-8.8-.5-3.5 4.2-10.5 9.9-17.6 7.9-6.1-1.7-8.1-10.7-4.2-16.9-1.2-1.5-2.6-2.8-4.4-3.7-4.2-5.4-8.7-13.7-10-21.8-.1-.7-.2-1.4-.2-2.1.2-8.8 2.4-19.2 6.3-26.9 2.8-5.5 5.3-11.2 8.4-16.7 1.9-3.5 3.7-5.6 6.3-8.4 6.8-7.4 14.6-13.8 26-17.2 1.5-.4 3.3-.5 4.9-.9 1.3-.4 2.6-1.2 3.7-1.4 1.5-.2 3.4.1 5.3 0 4-.2 6.1-.5 10.9.5 1.6.3 3.2 1.2 4.2.9 1.7-.5 3.5-4.5 5.3-6.5 2.6-2.7 9.7-7.3 15.1-4.2.9.5 3.1 4 3.5 5.3.6 2 0 4.4 0 6.7 14.9 2.5 24.9 10 31.1 21.4 7.6-.4 9.1 6.2 6.7 12.8-1 2.7-3.2 4.9-3.9 6.7.6 9-.3 19.7-3.2 27.6-.4 1.2-1.5 2.1-1.6 3.2-.1.8.4 1.6.5 2.6.1 3.5-.9 5.5-2.3 7.9-2 3.3-4.7 6.9-9.5 6.5-7.7 8.6-17.3 15.3-30.4 18.6-2.5 4.2-1.4 9.6-3 13.9-1.2 3.1-5.6 6.6-7.4 9.7-2.3 3.9-4.3 7.3-7 10.2 0 1.4-.2 2.6-.5 3.7 2.2.9 5.4 2.3 3.3 5.3-.2.3-1.6 1.5-1.6 1.6 0 .5 4.1 4.1 4.6 4.9.9 1.3 2 3.5 2.1 4.6.3 3.3-2.6 4.5-3 8.1-2.6.3-4.4.7-6.7 1.6-1.5 12.6 2.3 23.4 3.2 34.6.5 6.4.8 12.5 3.3 17.9.1 1 1.7.4 2.3.9 2.5 5.3 4.4 11.1 7.2 16 .6-2.8 2.6-4.6 3.9-7 1.4-2.4 2.2-5.4 3.7-7.9 1.5-2.4 3.1-4.5 4.4-7 6.5-12.5 12.5-25.1 20.2-36.9 1.5-2.4 2.9-5.1 4.4-7 1-1.2 2.6-2.1 3.7-3.2s1.9-2.6 3-3.7c4.2-4.4 10.1-8.2 16.2-10.7 5.4-2.2 11-4.4 16.2-7 1.2-3.6.3-9.2 3.7-10.7 9 .9 14-2.2 21.4-3 .6-8.4-.7-16.9-2.1-24.1-13 .2-17-10.1-20.9-20.2-1.8-4.8-4.9-10.1-6.3-14.9-.6-2.2-.7-4.9-1.2-7.4-.5-2.4-1.1-4.9-1.4-7-1-8.1 4-13.6 5.8-20 1-3.4 1-7.4 1.4-10.9.4-3.7.7-7.3 1.6-10.7 1.8-6.7 6.2-10.9 7.2-16.7 2.5-4.3 4.3-8.5 7.4-12.1 2.8-3.3 5.9-7.2 9.5-10 4.4-3.4 14.2-8.4 21.1-9.5 4.1-.7 9.1-.5 13.5-.2 4.2.3 7.2 1.2 10.9 2.6 2.2.8 4.6 1.2 6.5 2.1 1.1.5 2 1.7 3.2 2.3.7.4 1.5.6 2.1.9 7.7 4.6 16.3 13.8 20.2 22.7.8 1.9 1.8 4 2.3 5.8 1.1 4 1.4 8 2.3 13 2 10.8 1.8 23.9.5 35.7-.4 3.6-1.7 7.7-1.9 11.6-.9 25.3 1.1 46.1 7.9 66.9 4.5 2.7 7.9 8.6 10.9 13.7 2.6 4.4 5.3 8.8 7.2 13.2 3.3 7.6 5.7 14 7.7 23 .6 2.8.8 5.6 1.4 8.6 1.1 5.3 5.3 10.8 7.9 15.8 2.8 5.3 5.5 10.7 8.1 15.3 6 10.5 11.3 20.4 17.6 29.5 3.3 4.6 6.5 9.4 10 13.7 3.6 4.3 7.8 8 10.9 12.5 6.4 9.4 12.9 18.5 18.1 28.8-.3 1.7-2.8 1.1-3.2 2.6 9.1 9.6 16.5 23.1 25.3 33.4 1.5 1.8 3.6 3 5.1 4.6 2.3 2.5 4.1 4.8 7 7.4 2.7 2.4 6.6 6.9 12.1 5.3 1.6-.5 2.7-1.8 4.4-2.6 2-.9 4.1-1.1 6-2.1 2.9-2.8 4.7-6.7 8.8-8.4 1.2-2.1 2.1-6.6.9-9.5.7-.7 1.6-1.2 2.3-1.9-.7-3.7-2.2-8.8-.9-13-2.8-1.5-5.8-1.9-8.6-3s-5-2.9-7.4-4.2c-1.3-.7-3-.9-4.2-1.9-2.4-2-4.8-8.2-5.3-12.5-.4-3.8.5-8.1.9-12.1.6-6 3.6-11.5 3.2-16.7 2.3-3.9 2.5-10.1 5.6-13.2 4.3-11 11.8-18.7 25.1-20.7 1-.4 0 1.2.7 1.2 6.1 1.7 13.4 2.9 18.8 5.8 3.9 2.1 7.3 4.3 11.4 6.3 1.5 3.8 5.7 5.8 6.3 10.2.3 2.3-.2 5.9-.7 8.6-1.2 6.9-4 15-5.6 21.1-3.1 12-9.5 21.3-16.7 27.4 1.5 0-.6 1.7-.5 2.8.1.8 1.9 2.2 2.8 3.3 2.6 3.1 5.5 6.7 8.1 9.3 4.2 4.2 8.8 7.1 13.2 10.2 11.1 7.9 18.6 21 16.9 42-.5 6.7-3.1 13.3-5.3 19.3-4.6 11.9-11.4 20.9-18.8 29.9-3.8 4.6-7.3 9.7-11.1 13.2-2.5 2.3-6.1 4.3-9.5 6.7-3.2 2.4-6.2 5.4-9.3 6.7-3.3 1.4-8 1.6-11.8 3-1 .4-1.8 1.1-2.8 1.6-9.2 4.3-21.3 3.7-35.1 3.3-1 1-1.4 2.6-2.3 3.7h-2.8c-.7-.7 1.2-2.6 1.6-3.7-2.4-.3-5-.6-7.2-1.2-1 1.4-1.5 3.3-2.3 4.9h-3.5c.7-1.9 1.6-3.5 2.3-5.3-22.9-4-36.2-17.6-47.4-33.4-9.6 4.8-17.5 11.3-30.2 13 .1 1.5-.8 3.1-.7 4.6 0 .9.6 1.9.7 2.8.5 5.8-1.9 12-1.4 18.3H319c.3-8.4 1.6-15.9 1.6-24.6-12.6 1.5-27.2 1.8-40.9 2.3-22.3.8-41.5 5-53.6 16.2l-3.5 3.5c-1.1 1.2-2.3 3.1-4.4 2.6-.3-1.2 1.5-2.3 2.6-3.5 3.1-3.6 6.5-7.1 10.7-9.7 10.7-6.8 25.8-12 42-12.8 15.2-.7 32.3-.5 47.1-2.6-.2-1.7-1.1-3.7-2.8-3.2.3-1 2-.5 2.8-.9-.4-27.6-6.8-48.3-17.2-66.4-3.4-6-6.2-12.3-9.7-18.1-6.7-11.1-14.5-22.3-22.3-33.4-3.7-5.3-7.6-10.3-10.2-17.6-2.5-7.1-6.8-13.2-7.4-20.4-1.1-14.1 3.8-24.4 7.4-34.8 3-8.5 6.7-16.4 9.7-24.4-.8-1.9-2.6-3.7-4.2-5.8-2.2-3-5-8-9.3-8.6-3.7-.5-6.3 2.5-10.4 2.6.6-2.7 3.8-3.1 6.5-3.9 2.8-.9 5.5-2.3 8.4-1.9 5.4.8 9.5 8.3 12.5 12.1.7.9 1.1 2.3 2.3 2.3-.4 1 0 1.5.2 2.1 1.7 4.9 6.1 9.8 9.1 14.9 7.5 12.9 14.6 24.6 24.8 34.8 2 2 3.6 4.7 5.6 6.3.8.6 1.8.8 2.6 1.4 3.2 2.8 6.1 6.4 9.1 9.5 3 3.3 6 6.5 8.8 9.7 5.7 6.7 10.3 14.3 16.9 20.2 2.5-3.6 6.5-5.6 9.1-9.1 6.2-2.4 10.3-6.9 18.6-7.2-6.9-14.2-17.1-27.1-27.4-38.8-2.2 2.1-7.4.8-11.4 2.3-.6.2-1.5.8-2.3 1.4-1.4 1.1-2.3 3.5-3.5 3.5-2.5 0-1.5-3.3-.2-4.6 3.3-3.3 8.4-5 15.1-4.6-4.3-7.8-10.5-15.3-15.3-23.4-2.9-4.8-5.3-10-8.4-14.9-6.1-9.8-11.1-20.3-16.2-30.6-3.1-6.3-5.2-12.6-9.3-17.9-2.7-3.4-7.2-7.2-11.4-9.5-2.2-1.2-5-1.9-7.4-3-2.4-1.1-4.8-2.6-7-3.2-2.4-.7-4.5-.8-6.5-1.4-5.9-1.8-10.5-4.7-17.2-6.3-1.7-1.6-3.8-1.7-5.3-3.2-1.5-1.6-1.4-4-3.2-5.3-2.1 2.1-3.5 5.5-4.9 8.6-1.4 3-2.8 6.5-3.7 9.5-.7 2.4-.5 5.3-3.3 6.3-5.6-1.7-12.8.2-18.8.2-.7 5.8 6 13.3.2 16.7-10.4-.2-22.2-2.5-32.3-.5-2 .4-3.9 1.3-5.8 1.9-6.8 1.8-13.7 2.8-20 5.1-6.3 2.3-11.4 5.5-16.2 8.6-1 1.7-1.7 3.5-3.7 4.2.3 3.8-.8 6.3-2.3 8.4.1 12.8 5.2 24.3 8.8 35.1.8 2.4 2.6 4.1 3.5 6.3.4 1 .2 2.3.7 3.3.5 1.1 2 1.9 2.6 3 .6 1.2.6 2.7 1.2 3.7 1 1.8 4.2 3.6 5.3 5.8 1.7 3.4.5 5.6-3 6.5 2 6.4 4.1 13.5 7 19.7 5 10.7 11.7 21 16.5 32.3 6.5 15.2 11.5 30.8 16.5 48.3 5.2-1 5.2-10.4 12.8-9.1-.2 1.6-2.2 2-3 3-.8 1-1.1 2.2-1.9 3-1.1 1.3-2.9 1.8-3.9 3-.8.9-.9 2.2-1.6 3.2-1.5 2.1-4.1 3.8-6 5.8-5.8 5.8-11.7 11.7-16.9 18.1-3.4 21.5-5.4 44.3-6.3 68.2H161c-.2-2.4.2-4.2.2-6.5-.4 2-.9 3.9-.7 6.5h-10.7c.2-1.8.7-3.4.5-5.6-1.2 1.8-1.9 4-3.2 5.6h-9.7c-1 .1-.2-.8-.2-1.2-.6-.6-.7 1.3-1.6 1.2h-22.7c-1 .1 0-1 0-1.4-1.4 2.2-8.1 1.2-12.3 1.4-.3-1.1 1-1.9 1.9-2.8 1.8-2 3.2-3.5 5.3-5.8.5-.5 2.5-2.4 2.6-2.8 0-.5-3.2-3.9-4.2-5.1-10.5-13.2-20.3-29-19.7-52.7-25.1 1.9-51.7 1.1-73.1-3.5-11.7-2.5-21.9-6.6-31.3-10.7-.5-1.2-.5-2.9-.5-4.7zm319.9-233c-.6 2.7 2.1 4.7 3.5 6.7 1.5 2.2 3 4.7 4.2 7.2 2.5 5.3 3.5 11.2 5.1 17.6-.2-13.7-6.9-22.8-12.8-31.5zm-92-177.6c6-3.7 13.6-5.5 22.7-4.9 3.1 1 7.2 1 10.9 1.4 0 .2.2.3.2.5.6.2-.5.5-.5.9 3.4 1.4 6.9 1.2 9.7 2.8.9.5 1.6 1.5 2.6 2.1 2.4 1.5 4.6 2.4 6.7 4.2 2 1.7 3.8 3.5 6 4.6-4.1-3.8-8.9-7.9-13.7-10.7-2.5-1.5-3.9-2-7.4-3-1.6-.5-3-1.6-4.4-2.1-3.6-1.3-7.5-1-12.1-1.2-11.4-.5-19.4 3.6-26 7.9 2.5-.4 3.9-1.6 5.3-2.5zm7.2.2c-2.7.6-6.2.6-6 2.3 1.6-.5 3.6-1 5.6-1.4 1.9-.4 4.5-.1 5.6-1.6-1.6 0-3.4.3-5.2.7zm11.2 1.2c-.7.3-1.9.2-2.3.7 1.1.1 1.8-.2 2.3-.7zm-12.1 3c1.4-.2 2.3-.8 3.2-1.4-1.2.3-2.3.8-3.2 1.4zm-7 14.4c-4.2 2.5-10.4 2.9-15.6 4.4-8.5 4.5-12.7 13.3-14.2 24.8 9.9 1.5 17.7 7.1 19.3 15.8 1 5.4-3.2 9.2-5.6 13.2-2.1 3.4-5.2 6.6-6 9.3-1.5 4.9 3.2 6.6 5.3 8.1-3.9.3-8.8-4-7-8.4 2.9-7.2 16.2-16.9 9.7-26.9-.7-.1-1.2-.3-1.9-.5-3.6-3.6-8.3-6.3-14.6-7.2-.1 1.6-.5 2.9-.7 4.4h1.9c.4.8.4 2.1 1.6 2.1.7-.4-.9-1.7 0-2.3 2-.6 1 1.8 2.3 1.9.7-.2.4-1.4 1.9-.9.3.2.3.7.5 1.2 4.3 1.5 8.5 3.1 9.7 7.7-1.6.5-1.4-.9-2.3-1.2-.4 1.5-1.6 2.2-2.8 2.8 1 .3 2.7-.1 3 .9-4.6.3-8.8-2.3-12.5-2.8-.3-.8.8-.2.5-.9-.9-.1-1.1.4-2.1.2-.3-.6 1-.8.2-1.2-.2.5-1.3 0-1.6-.2 0-.7 1.4.2 1.4-.5-.5-.3-1.5-1.3-.9-1.9 2.2 1.1 3.7 4.2 6.5 3.9-1-1.8.3-4.3 1.6-5.1-2-.7-5.1-.1-6.5 1.2-1.2 0-2.6-2.1-3-1.4-1.1 7.9-6.8 12.9-6.7 21.8 0 3.9 1 8.7 1.9 12.3 1.7 7 5.2 15.4 7.7 21.6 1.7 4.3 3 8.3 5.6 10.9 5.9 6 15.2 6.1 23.7 3 2.8-1 5.8-1.5 7.7-2.3 1.4-.6 2.7-1.8 4.2-2.6s3.1-1.4 4.6-2.1c9.5-4.3 17.7-10.3 21.8-19.3.5-.1.8-.5 1.2-.7.9-2.2 2.3-3.9 3.7-5.6.5.9.9 1.9 1.2 3 .8.3 1.7.5 2.8.5 1.7-1.5 4.3-5.3 5.1-7.7.2-.5-.1-1.2 0-1.9.5-2.6 2.5-5.4 2.6-7.4 0-1.8-1.1-3.7-1.9-5.1-1 4.1-2 8.2-4.2 11.1-.9-4.3-.6-7.9-1.4-11.6 1.2.2 1.1 1.7 2.8 1.4-1.5-3.1-3.5-7-3.9-10.4.3 1.3 1.3 2.4 1.9 3.7.5 1.1.3 3.3 1.9 3.2-.4-4.4-3.6-8-5.3-11.8 1.2.7 1.1 0 2.6 0 .8.3.5 1.7 1.4 1.9-1.1-3.9-4.4-6.1-6.3-9.1-3.2-4.9-7.9-10-12.3-13.5-9.5-7.5-23-10.3-25.3-23.9.2-.4.7-.5 1.2-.7 0-.5-.4-.7-.2-1.4 3.2-4.9 7.5-8.8 12.5-11.8-.1-.9 1.3-1.7.9-2.1-7.4 4.8-14.4 10.5-19.6 16.1zm2.6-13c-3.9 1.3-7.5 3.5-11.1 4.9-1.2.5-2.8.6-3.5 1.9 4-.6 7.9-3.1 11.6-4.6 1.2-.5 3.2-.6 3.7-2.1-.2-.1-.5-.1-.7-.1zm41.1 3.5c.8-.1 1.3.1 1.9.2 3.4 3.4 6 7.6 8.8 11.6-.4-2.1-2.5-3.9-2.8-5.3 2 2.9 4.2 6.6 6.3 10.4 1.9 3.6 4.5 7.8 5.1 11.8.7 4.9.1 11.5-.9 16-.4-2.3-.5-5-1.2-7 .2 5.7.9 13.3-1.4 17.2.5.1.7-.7.7.2-.3 2-1.4 3.3-1.4 5.6 3.7-2.8 4.6-8.4 5.3-14.2-1.2-.1-.3 2-1.4 2.1.5-5.4 1.2-10.6 1.4-16.2.6 3.7 1.2 7.3 1.4 11.4 1.3-1.1.7-2.1.7-3.2-.6-11.7-6.7-24-12.1-32.3-2.6-4-5-8.2-9.3-9.3-.3-.4-1.1-1.5-1.4-1.2.8.8.7 1.3.3 2.2zm-55.7.2c.3-.7 1.3-.7 1.4-1.6-.8.1-1.8 1.2-1.4 1.6zm-85.9 5.4c-.3-.6-.3-1.4-.7-1.9-2.3-3-10-1.9-12.8.7-1.8 1.8-2.7 4.1-4.2 5.8.8-.1 1.3.1 1.9.2 2.3-3.7 5.6-6.5 11.6-5.3 3 1.7 3 6.6 1.6 10.2 1.3 0 1.4 1.2 2.8 1.2 2.4-3.2 1.4-7.8-.2-10.9zm148.8 26.7c-3.8-11.9-11-20.2-18.1-28.3 0-.3-.3-.1-.5 0 0 .3-.3.3-.2.7 9.6 10.7 18.4 22.1 21.1 39.7.6-4.4-1.2-8.4-2.3-12.1zm1.8 16.9c.6-10.8-7.1-18.6-12.8-24.6-5-5.4-10.3-10.2-14.9-15.3-.4-.5-1.2-1.8-2.1-1.4 1.7 3.3 4.8 6 7.7 8.8 2.8 2.8 5.6 5.8 8.4 8.8 4.7 5.2 10.1 10.3 12.3 17.6.3.9 1.3 2.8.2 2.8 0-.1-.2-.3-.2 0 1.3.3.5 2.7 1.4 3.3zM104.4 28.9c-4.1-.4-6.4.3-7.4 3.3.6.3 1.4.3 1.9.7 1.1-1.4 2.3-2.6 5.1-2.3 1.3 1.9.2 3.4 1.2 5.3 1 .1.9-.3 1.6 0 .6-2.3-.5-5.9-2.4-7zm84 2.5c.3-.8 1.9-1.5 1.2-2.6-.2 1-1.5 2-1.2 2.6zm71 11.2c-.4-1.1-1.2-1.9-1.6-3 0-.4.6-.1.7-.5-2.5-2.7-4.4-6-7.2-8.4 2.5 4.1 5.6 8.7 8.1 11.9zM27.5 65.8C36.8 51.8 49.5 40 66 34c-18.9 3.5-32.2 15.6-38.5 31.8zm55.1-31.6c6.4 1.2 13.7 2.2 19 3.3-5.9-1.9-12.8-3.6-19-3.3zm194.2 3.3c-.3-1.1-1.1-3.1-1.9-3 .9.8 1 2.3 1.9 3zm-162.9-1.4c-.6.5-1 1.3-1.2 2.3 6.9 2.6 10.8 8.3 14.6 13.9 1.2 2.3.9 5.2 1.2 7.9.2 2.2 1.2 4.3 1.4 6.5.6 6.1-1.7 12.2-2.1 19.3-1.9 4.6-2.8 9.7-4.6 14.9-3.6 10.4-11 17.9-17.2 25.3-1.2.2-1.5 1.3-2.6 1.6-.6 3.2-.2 6.7-.7 9.5 11.3-3.1 21-7.8 27.2-16-2.6-.6-4.6-1.9-7-2.8 1.2-3.6 3.6-6.7 5.6-9.7 2-3.1 3.2-6.9 6.3-9.1 2.2.7 5.8 1.9 7.4 3.9 3.6-7.4 4.3-19.3 4.2-28.3-2.9 1.2-5.2 4.4-9.5 3.5 1.7-6.9 1.2-13.7-.5-20.7-.2-.6-1.3.8-1.4-.2.7-2.9 3.7-3.5 6.7-3.9-6.2-9.1-15.1-16.1-27.8-17.9zm2.3 71.3c.4-.7.3-1.6.7-2.3 1.1-2.1 2.6-3.8 3.5-6 .7-1.9 1.2-3.9 2.1-5.8.9-1.9 1.7-3.8 2.1-5.8 1.8-9.8 2.8-21.4-.5-29.5-2.2-5.5-10.8-11.8-17.2-15.1-2.8-1.4-5.6-1.7-8.8-2.6-6.5-1.7-18.4-3.8-25.3-3.5-1.5.1-4.7-.1-6.7.5-2.4.7-2.7 3.5-5.1 4.6-5 7.3-9.8 16.4-14.2 25.3-2.1 4.2-4.3 7.9-6 12.5-2.1 5.5-4 10.9-4.9 16.9-.8 6-1.6 12.4-.7 17.2.9 3.7 2.6 6.7 4.4 9.5 3.5 1.7 5.3 6.1 9.3 7.4 4 1.4 8.4.5 13.7.9-.5-5.7 1.8-13.1 6-13.9.9-.2 3.4 0 3.7 1.4 2.6-2.2 6.5.2 7.9 2.1.9-2.9 5.7-3.7 7-.5 1-2.4 3.9-2.8 7-2.1 1.7 1.5 2.4 3.9 2.1 7.4 2.2-1.5 5-6.4 9.5-4.9 2.9-4.1 7.6-8.3 10.4-13.7zm-84 4.4c-.1-8.5 1.8-17.1 3.9-24.8 1.5-5.4 4.2-10.8 6.7-15.8 6.1-12 11.9-24.2 20-33.2h-.7c-3.5 1-6 3-8.6 4.9-.6.7-.7-.7-1.4 0-10 7.5-21.1 16.6-26.4 29.6-2.9 7.2-6.3 17.3-5.8 26.5.4 6.9 2.8 11.6 5.8 16.9 4 3.2 7.1 7.1 11.6 9.7-2.7-3.4-5.1-8.8-5.1-13.8zm233.7-30.2c.7-13 .6-28.8-2.8-39.2-.5-1.5-1.5-4.5-3.5-3.3 1.9 1.3 2.6 3.7 3.3 6.3-.7-.2-1-2.1-1.6-1.6 4.9 9.2 3.9 24.4 4.6 37.8zM113.7 42.8c0-.7-.6-.8-1.2-.9 0 .7.8.6 1.2.9zm37.6 19.3c-1.4-2.7-5.1-7.9-8.8-5.3-1.6-.4-1.7.2-3.2.2-.4.9.1 2 .5 2.8 3.9-3.8 10.4.9 8.8 6.3-.9 3-4.8 5.7-7.9 6-.7 1-1.4 3.1-1.2 4.2 7-1.6 11.2-6.2 11.8-14.2zm95.1-1.6c-.2-1-1.6-1.9-2.1-1.9.9.5 1.3 1.4 2.1 1.9zm-100.2 6c.4-2.8-2.9-6.2-6-4.9-.2.9.3 1.1.2 1.9.6-.2 2-.4 2.6 0 .8 3.7-2.3 3.6-2.6 6.3 2.2-.9 5.4-.6 5.8-3.3zm130.4.2c0-1.2-.1-3.4-.5-3.5 0 1.4 0 2.7.5 3.5zm-99.1 2.6c.4.5.6 1.2 1.6 1.2-.4-.9-.8-1.8-1.4-2.6 0 .5-.4.7-.2 1.4zm10 5.6c.4.2.9.4 1.4.5.3-.7 1-.9 1.2-1.6-1.2-.5-2.5-.2-2.6 1.1zm-164.1-.7c-.2.1-.5 0-.5.2-2.2 3.6-2.8 8.6-4.2 13 2-4.5 2.5-9 4.7-13.2zm247.2 5.1c-.9 2.8-2.5 5.9-2.1 9.3 1.6-1.9 1.8-7.6 2.1-9.3zM260.4 86c-.2-1.8-1-4.4-2.3-4.9 1 1.4 1 3.7 2.3 4.9zm6 1.9c-.1-.9-.4-2.9-1.2-2.3.7.5.4 1.9 1.2 2.3zm12.8-1.9c-1.6 20.4-6.4 47 .7 65.5-.2-4.9-2-9.8-2.6-15.1-1.9-17.7 1.8-34.7 2.6-50.8-.1-.2-.2-.3-.5-.2 0 .2-.1.4-.2.6zM17.6 100.4c-.2-3.7 1-7.2.7-10.2-.2 3.2-1.7 8.1-.7 10.2zm254.1-6.5c.1 19.8-4.4 42.1-1.6 61.3 2.3 15.6 7.7 30.6 16.5 39.5 1.2 1.2 2.6 3.5 4.2 3-.8-1.7-2.5-2.4-3.7-3.7-7.7-7.8-11.7-19.7-14.6-32.3-.5-2-.7-4.3-1.9-6 .8-1.7-.1-4.2-.2-6.3-1-19.4 1.9-37.1 2.1-55.9 0-.1 0-.3-.2-.2-.4 0-.4.4-.6.6zm-155.9 16.7c1.6-1.4 3.5-4.4 4.4-6.5.3-.6.9-2.1.5-1.9-1.9 2.6-3.1 5.8-4.9 8.4zm22-2.8c2.1 7-5.6 9.4-11.1 8.8 3.7 1.3 8.3 3.5 11.8.7 1.5-2.4 3.4-4.5 3.3-8.6-2.1-2.5-4.1-5.2-8.1-5.8 1 1.8 3.5 2.7 4.1 4.9zm119.3 36c-.1-2.6-.4-5.8 0-8.4.9-6.6 5-13.1 6-19-2.7 4.5-3.9 10.5-5.8 15.8-.1-6.5 2.3-13 .7-19.5-1 1.4-.3 2.8-.2 4.2.2 4.9-1.2 9.9-1.4 15.1-.3 5.8-1.7 9-3 13.7-3.3 11.4-3.4 29.4 2.8 37.1.9 1.2 2.3 2.6 3.9 3-.6-1.9-1.9-2.3-3-3.7-7.9-10.1-5.8-32.6-.7-43.9-.4 13.8 2.2 24.6 5.1 35.1.1.8.9-.6.9.2 1.1 3.8 2.6 6.8 4.4 9.7 1.2 2 3.1 3.8 3.5 6 1.8.8 3 3.3 3.7 4.4-5.4-1.3-10.8-3.9-16-4.6 9.6 4.8 22.1 6.7 31.3 11.8.7-.5-.6-1-.9-1.4-3.1-3-5.7-5.2-11.8-4.9-1.4-1.4-3.3-3.4-3.7-4.9 1.6.4 3.6 1.7 5.1 1.4-1.4-1.3-4-1.4-6-2.1-4-6.1-9.5-13.1-10.2-23-.9-12.1 1.2-23.6 2.8-34.1-1.4 13.7.9 26.2 4.2 35.5.7 2 1 4.5 2.8 5.6-2.1-7.1-5.7-15.2-6.3-24.1-1.1-15.7 2.1-29.4 3.9-42.7-1.3 1.4-.9 3.6-1.2 5.3-.7 5.6-2.5 11.2-3.3 16.7-.2-5.1 1.9-10.4.7-15.1-1.3 18.1-5.5 38.3-4.4 55.7v-.7c-1.7-6.5-3.5-15.5-3.9-24.2zm-129.3-31.6c0 .6-.4.7-.5 1.2 3.3.6 5.5.4 8.1-.7.5-2.4-1.4-5.1-3-5.3 2.1 2.8-1.4 7-4.6 4.8zm-23 12.3c0 .1 0 .3.2.2 3.5-4.4 8.7-8.4 10.4-13.7-3 5-7 9-10.6 13.5zm-39.2-2.1c-1.3 2.8 0 7.6-.7 11.6-.3 1.5-1.3 4-1.6 5.3.6.8 1.1 1.7 2.6 1.6 4.1-3.9 1.9-13.2 4.6-18.8-.9-2.3-4.1-1.4-4.9.3zm3 17.9c1.7.8 3.3 3 5.8 2.3-1.6-6.5 1.8-14.7 4.6-19.7-2.5 1.4-3.4-2.1-6.3-1.9-2.5 5.8-.9 14.3-4.1 19.3zM93 128.9c.2-1.1.9-2 .9-3 0-3.2-2.5-5.8-5.6-4.2-.9 8.5-1.5 14.9-3 23.2 1.8-.4 3.7-1.3 5.1-1.4 1-3.3 1.6-9.8 2.6-14.6zm-7.7.3c.1-3.3-.4-7.7-3.2-7.7-4.5 4.1-10.6 24.8 1.2 23 .4-3.9 1.9-10.3 2-15.3zm-56.8-5.8c-.1-.6-.6-.8-1.2-.9.1.6.6.7 1.2.9zm72.6 5.8c.4-2 .8-4 1.9-5.3-1.7.4-3.8 4.2-1.9 5.3zm-6.5 3.9c-1.2 6-.2 12.9-6.3 13.5-.6.9-1.4 2.4-2.8 2.6-1 .1-1.9-1-2.8-.9-.6 0-2.3.9-2.8 1.2-2.1 1.3-3.3 4.3-6 4.9.7-3.5 4-4.3 5.8-6.7-2.3.1-3.4-.9-4.4-2.1-2.4 2.2-5.2-1.1-8.1-1.6-2.6-.5-6.8.9-6.5-3-5.5 6.4-8.9 18.1-6.7 28.1 0 .4.9-.4.9.5.6 2.8 2.4 4.6 3 7.4.3.4 1.4 0 1.4.7-1.3 4.6-.5 11.3-.9 16.7 2 1.5 4.4 1.7 7.2.7 4.9-1.7 11.6-6.1 15.3-8.1-.1-5.6.9-10.7.7-14.9 0-1.2 1.9-2.1 2.6-3 1.5-2.1 2.7-5.2 4.9-7.7 2.7-3.1 5.1-6.1 7.9-7.7.5-3.1.6-6.1 1.2-8.8.2-1.2 1-2.2 1.2-3.2.1-.5-.2-1.3 0-1.9.3-.9 1.2-1.4 1.4-2.3.4-1.9-.4-4.2.2-6.3-.2-1-1.7-.8-1.9-1.9.2-1.8 1.8-3.5 1.6-4.9-2.8 2.2-5.2 4.4-6.1 8.7zM201.2 145c.2 4 1 7.5 1.4 11.4 5.5-1.1 10.8.5 16-.2 7.2-1 13.5-4.9 19.3-7 1.1-7.6 3.9-15.9 3.2-23.2-10.4 9.2-23.9 15.4-39.9 19zm-161.4-1.4c3.8-.5 6.8-2.6 9.1-5.1-.6-.8-1.5-1.3-2.6-1.6-1.9 1.4-3.6 4.8-6.7 5.3-2.8.5-7.2-1.2-7.7-3.2-.6-2.5 1.4-4.9 1.4-7.4-.7-.6-1.5-1.2-2.6-1.4-3.3 6.8 1.6 14.3 9.1 13.4zm-5.3-6.8c2.2 2.8 9 3.7 9.7-.9-1.5-.1-1.6 1.3-2.8 1.6-1-.1-3.8.1-4.4-1.2-.1-1.4.3-2.3.7-3.2-.9-.2-1.5-.8-2.6-.9-.2 1.5-.8 2.7-.6 4.6zm27.4-.9c-.3-.6-.8-1.1-1.4-1.4-3.2.4-6.6-.3-10-.2 3.5.5 7.2 2 11.4 1.6zm178 15.8c-.2.7.8.3.9.7v-.9c-.4-.1-.4.2-.9.2zm-.9 11.1c.5 6.2 3.5 13.1 7.4 16.2.5.4 1.4.4 1.9.7 1.1.8 1.4 2.4 2.8 2.3-1.7-1.8-3.4-3.7-4.2-6.5-1.1-1-2.1-2.1-3-3.2-1.3-2.3-1.3-4.5-1.6-7.2-.2-1.7-1.1-3.4-1.2-5.1-.1-2.7 1-5.5-.5-7-1.5 2-1.8 6.4-1.6 9.8zm-10-5.5c.1 1.6.2 3.2.7 4.4-.5-2 2.4-5.4-.7-4.4zM219 171c.8-.8 4.2-2.3 3.2-4.9-.2 2.4-2.1 3.2-3.2 4.9zm-6.9 23.2c.4 2.8 1.1 5.4 1.2 8.6 6.2-.9 12.7-1.4 19.7-1.4 2.4-7.6 5.7-14.3 9.3-20.7-2.8-2.3-3-5.9-4.9-9.1-7.7 8.3-17.3 14.6-25.3 22.6zm-21.1-3.5c1.4-.3 5.2-2.5 5.8-3.3.3-.4.2-1.3.7-2.1.6-1 1.4-1.4 1.6-2.1.7-2.2.7-9.5-.2-8.4.2-.1.3-.2.2-.5-6.1-1-12.2 3.6-20.2 2.8-.7 4.4-1.2 9-1.6 13.7.6 0 1.5-.1.9.5 3.6-1.9 8.8.1 12.8-.6zm-151.9-6.5c.8-.5 1.5-.9 1.4-2.3-.3 0-.3-.3-.7-.2-.3.5-1.4 1.6-.7 2.5zm44.8-.5c.1-.8 1.2-.5 1.2-1.4-.4-.1-.6-.5-1.2-.5.3.8-.3 1.9 0 1.9zM45 182.6c.3 2 1.3 3.2 2.3 4.4 1.7-1.7 5-1.8 6.7-3.5-2.7-1-5.7-1.7-9-.9zm252.3 4.8c-.3 0-.7 0-.7.2 2.5 2.7 4.2 6.3 7 8.8-2.1-5.1-5.6-9.9-9.1-14.4.8 2 2 3.5 2.8 5.4zm-92.4 7.9c-.4.9.7-.2.7-.2 3.2-2.1 7-4.4 9.1-7.2 1.7-.7 2.6-2.2 3.9-3.3-5 3.2-9.4 6.9-13.7 10.7zm-156-6.7c2.5 1 3.8 3.1 6.7 3.7V186c-2.8.3-4.7 1.5-6.7 2.6zm111.4 4.4c4.8-.2 10.6.7 13.2-1.6-.1-1.1.8-3.4 0-3.7-4.1 2-9.5 2.8-13.2 5.3zm-118.6-2.8c1.2.6 2.8-.3 2.8-1.6-1.2-.6-3 0-2.8 1.6zm24.1 7c4.8.2 9.8 2.3 14.4 1.2-.2-3.1.6-6.5.2-9.1-4.1 3.4-10 5-14.6 7.9zm132.6-5.6c0-.6-.1-1-.5-1.2-.3.4-.2 1.3.5 1.2zm-150.9 3.7c.9 1.1 2.5 0 3-.7-.3-1.8-3-1-3 .7zm-5.8-1.6c-1.1 1.9-2.8 3.1-3.3 5.6 3.3 1.1 8.1 0 10.9-.9-2.9-1.1-4.8-3.4-7.6-4.7zm102.8 8.4c-1.1 1.1-1.9 2.6-3 3.7-1.2 1.2-2.6 2.1-3.5 3.2-1.8 2.3-3.3 5.3-4.9 7.9-6.5 10.5-12.3 22-17.9 33.2-1.4 2.8-3.2 5.2-4.9 7.9-1.5 2.4-2.4 5.8-4.2 8.6-2.6 4.3-5.6 6.6-5.6 11.6 2.6 4 9.7 8.8 11.6 14.2 1.3 3.7-.2 6.8-3.7 7.2-1.1-3.3-1.1-7.8-2.8-10.4.3 4-.3 7.7-4.2 8.1-.8-1.9-1-4.4-2.3-5.8-1.5 4.1-.9 11.5-6 11.1-.1-6.3 2.6-11.6 4.9-16.2-3.5-8.3-5.4-18.1-9.5-25.8-3.7 1-6.8 1.5-10 2.8-2 .8-3.8 1.9-5.8 2.3-4.3.8-9.2-.1-13.2 1.9.7 3.9-1.1 8.3-.9 13 .1 1.5.7 3.2.9 4.9 1.7 13.7 2.6 31.1 8.6 40.2 1.2 1.8 3.5 4.3 4.6 5.1 3.9 2.9 10.3 5 16.7 3.7 4.9-1 9.7-2.7 14.4-4.2 9.1-2.9 17-8.3 24.4-12.8 1.9-1.2 4.1-2.2 5.8-3.5 1.9-1.4 3.3-3.1 5.1-4.4 1.3-.9 4.4-2.3 4.6-3.7.2-.9-1.2-4.3-1.9-6-2.3-5.9-4.8-11.5-6.7-16.9-2.7-7.4-6.2-16.4-6.7-24.8-.2-2.4-.2-4.8 0-7 .7-6 4.9-10.3 7.2-14.6 1-1.8 1.6-3.8 2.6-5.6 1-1.8 2-3.4 3-5.1 1.9-3.4 4.1-7.4 6.3-10.2 1.9-2.4 5.3-4.6 6.5-7.4 1.8-4.4 1-10.8 3.3-13.9-3.7 1.4-9.3 4.3-12.8 7.7zm-61.2-3.8c.4-.4 1.4-.3 1.9-.7-.4-1.2-.8-2.4-1.9-3-.4.8-.5 3 0 3.7zm75.2 5.2c-1 5.2-4.9 8.3-7.7 11.8-2.8 3.6-4.9 8.8-7.7 12.3 4-5.6 9.7-10.8 15.6-15.6 7.5-6.2 16.3-11.2 23.9-16.7-8.4.2-14.7 2.6-23.2 2.6-.7 2-.6 3.8-.9 5.6zm29 4.8c-2.5.9-4.7 2.4-7.2 3.3-3.5 1.2-7 1.9-10.4 3-4.2 1.4-8 3.6-12.3 4.9-5.4 5.3-11.7 9.8-16.9 15.3 5.7-3.8 12.1-7.4 19.7-10 3.7-1.2 7.8-2 11.8-3 4-1 7.9-2.4 11.8-3.3 7.8-1.6 19.5-.1 27.4 0-1.6-6.5-2.4-14.9-3-21.6-6.2 4.2-13.7 8.8-20.9 11.4zm-130.9-9c.1.8.8 1.1 1.4 1.4.8-.5 1.9-.7 2.1-1.9-.7-1.4-3.2-.9-3.5.5zm31.1 2.8c.2-.4.8-.4 1.2-.7 0-.7 0-1.4-.5-1.6-.5.6-1.6.6-1.6 1.6.1.3.9 0 .9.5-.2-.1-.3.1 0 .2zm-19.5.4c.7 1.2 3.3.6 3.2-.9-.7-1.3-3.2-.6-3.2.9zm9.7.7c1 .6 2.6 0 2.8-.9-.5-1.1-2.8-.5-2.8.9zM58 226c7 .9 13.5-2.1 21.1-2.1.3-6.7.3-12.8.7-19-7.5.9-15.4-.3-21.6-2.1-.5 7.7-.1 16.8-.2 23.2zm116.7-17c4.1-1.5 8.8-2.3 12.1-4.6-4.6.9-8 3.1-12.1 4.6zm94.5 69.2c-1.4 3.3-2.7 6.7-3.9 10.2-3.2 9.2-7 18.6-6 31.3.5 6.9 3.9 11 6.3 16.7 1.4 3.4 1.9 6.6 3.3 9.3 1.3 2.7 3.3 4.9 5.1 7.4 7 9.8 13.4 20 20.2 30.2 3.4 5 6.7 10.2 9.5 15.8 2.8 5.5 6 10.7 8.8 16.2 8.6 17.1 13.4 36.7 13.7 62-.4 1.1 1.1.3.7 1.4.1 1-.8 2.3-.5 2.8 11.2-2.2 20-6.8 27.9-12.3-4.1-8.9-7.2-24.8-4.2-36.7 1.5-6.1 6-11.9 11.8-13.2 9.1-2 16.2 1.6 18.6 7.2.6 1.4.7 3.6 1.2 5.6.8 3.6 2.1 7.4 1.2 11.6-1.7 7.8-7.6 12.7-12.8 17.4-3.5 3.2-7.4 6.1-10.7 8.4 10.9 14.9 23.5 28.2 45.7 31.8 4.3-10.1 10.5-18.3 14.6-28.6 1.2-1 1.5-2.9 2.6-4.2-1.3-.6-3.4-.5-4.2-1.6 4.4-8.1 8.8-16.3 13.5-24.1-1-1-2.6-2.8-1.4-4.6-3.1-3.5-4.6-7.7-7.4-11.1-8.3-10.2-19.9-17.4-28.8-26.9-1 0-1.2.4-2.3.7-4.7-7.1-11.8-12-18.3-17.2-5.7-4.6-9.7-11.4-14.9-16.2-.7-.7-2.1-1.3-2.1-2.6-1.4.1-1.5 1.4-2.6 1.9-3.1-4.5-7.9-7.5-11.4-11.6-2.4-2.8-4.2-6.1-6.5-9.1-4.7-5.9-9.7-11-14.6-16.5-2.4-2.7-4.9-5.7-7.7-7.9-.9-.7-2-.9-2.8-1.6-1.9-1.7-3.3-4.2-5.1-6-13.2-13.2-21.6-30-32-46 0-.1 0-.3-.2-.2-1.6 3.5-2.9 6.8-4.3 10.3zm192.4 2.3c-7.5 1.4-13.6 6.2-16.7 12.8-.2.9.8.5.9.9-1.1 1-1.6 2.4-2.3 3.7.7 2.4 3.6 3.9 5.6 5.8 1.7 1.6 2.4 3.8 3.9 4.9 1.8 1.3 5.5 1.2 5.1 4.2-.3 2-4.6 3.6-7.9 3.5-5.2-.1-8.7-1.8-11.1-3.5-.1 2-.8 3.3-1.2 5.1 2.5.6 3.1 2.8 5.6 3.9 1.4.7 3.4.5 4.9 1.2 1.4.6 2.2 1.9 3.3 2.6 1.2.7 2 0 2.3 1.2.8 2.7-4.7 4.9-7 5.1-4.7.4-7-2-10.9-1.9-.3 2.1-.3 4.4-.2 6.7 2-.8 4 .2 5.6.5 3.2.5 6.8-.1 7.2 2.3.5 3.6-5.4 5.1-9.7 5.1.8 3.2 3.2 3.8 6 5.3 4 2.2 5.9 3.3 11.1 5.1 4.6 1.6 8.8 3.6 14.9 2.6-2.7-1.6-8.4-3.6-11.8-5.8-1.3-.8-4-3.3-3.9-4.4.3-3.4 7.3-2.4 11.1-2.1 4.8 4.1 11.2 3.6 18.3 2.8.9-1.2 1.8-2.3 2.3-3.9-6.5 0-12.2-.3-17.4-1.2-2.4-.4-5.2-.2-6.7-.7-3.9-1.3-4.8-10.5 1.4-10.4 2.3 0 4 2.3 5.8 3 1.8.7 4.6 1.2 6.7 1.6 4.9.9 9.6.3 13.9-.7.8-1.7 1.6-3.5 1.9-5.8-8.3-.2-20.8 1.3-26-2.6-3.5-2.6-3.2-7.8 1.6-8.6 3.8-.6 8.3 1.8 12.8 2.1 5.5.4 10.1-1.8 15.1-2.3 1.3-5.8 3.5-12 2.8-19-.8 0-1.4-.3-2.1-.9-4.2 5.9-5.7 14.5-14.4 15.8-.5-9.1 4.9-14.3 7.4-21.1-1.1-.8-2.5-1.3-3.9-1.9-1.3 3.4-4 6.5-6.5 9.7-3.4 4.4-5.8 10.3-11.8 10.4.7-10.1 7.2-16.4 11.4-23.9-1-.4-1.9-1.1-3-1.4-3.7 3.8-7.5 8.6-11.1 13-2 2.4-3.2 6.2-7.2 6.3-3-2.7-1-5.6.7-8.6 2.9-5.1 5.3-11.9 8.8-14.9-1.8-.7-4.3-.5-5.6-1.6zm7.4 2.8c-3.7 5.1-6.5 11.2-9.1 17.4 3.6-2.5 5.3-6.2 8.1-9.5 1.8-2 4.3-3.7 4.9-6.5-1.4-.3-2.7-.8-3.9-1.4zm12.1 6c-3.2 5-7.6 10.2-8.6 16.7 3.5-5.3 8.3-9.2 10.2-16-.5-.2-.9-.6-1.6-.7zm11.2 5.6c-1.8 4.9-5.5 9.2-5.6 15.1 2.6-4.5 5.8-8.4 7.2-14.2-.6-.2-.8-.9-1.6-.9zm-52 12.5c3.2 2.9 6.9 6.5 13 5.8-1.1-1.6-3.1-1.3-4.4-2.3-1.4-1.1-2.1-3.1-3.5-4.4-1.2-1.2-3.2-2.4-4.4-3.3-.4 1.3-.5 2.9-.7 4.2zm54.7 13.5c.2 0 .2-.3-.2-.2-5.4 1.1-11.9 3.5-18.6 2.8-2.7-.3-5.2-1.9-7.9-1.4 3.5 6.5 15.2 4.9 24.8 5.3.7-2.2 1.6-4 1.9-6.5zm-56.6 6c4.1.3 6.7 2.2 11.1 2.1-.2-.8-1.3-.6-1.9-.9-2.2-3.3-8-2.9-10.9-5.6-.3 2.4.8 3.4 1.7 4.4zm27.6 12.6c7.5.5 13.7 2.4 22.3 1.9.6-1.1 1.1-2.3 1.6-3.5-7.4 2.9-19.4 1.7-25.5-1.4.2 1.3.9 2.1 1.6 3zm-28.8 1.8c1.8.8 4.8.4 7.2.5-.5-2.8-5.4-1.2-7.7-2.3-.1.9.5 1.1.5 1.8zm38.8 14.2c2.2-.5 3.9-1.1 5.1-3.5-3.4-.3-6.1-.2-9.3-.5-4.3-.3-6.8-2.9-10.2-3.5 4.6 2.7 9.1 5.5 14.4 7.5zm1.6 22.3c1.2.4 3 .2 3.5 1.4-3.2 5.3-5.5 11-8.4 16.7-.7 1.4-1.5 2.6-2.1 3.9-.7 1.6-.7 3.2-1.4 4.9-.9 2.3-2.8 4.2-3.9 6.5-1.2 2.5-2.4 4.8-3.5 7.2 1.2 4.6 6.7 16.1-.5 16.9 3 4-1.4 8-5.3 7.2 3.1 2.8 3.2 10.6-4.9 8.4.8 4.4 7.3 15.7-1.4 15.3-1.7-1.9-3.3-3.8-4.9-5.8-1.2 4-4.5 6.6-6.3 10.2-.8 1.7-.6 3.7-2.1 5.1-.9.5-1.5-1.2-1.6 0-6.1 8.2-10.6 18-15.6 27.4 12.5.4 24.8 1.1 33.9-3 1.9-.8 3.5-2.6 6-2.3 1.8-3.2 5.4-2.6 8.8-4.2 2.3-1.1 5-3.1 7.9-4.6 9.7-5.2 15.7-13.2 22.1-21.6 3.2-4.2 5.9-8.3 8.4-12.8 4.4-8 10.4-20.3 10.4-31.8 0-17.6-4.5-29-13.7-36.7-6.9-5.8-15.8-9.7-21.4-18.1-.3-.6-1.5-.2-1.6-.9-1.5-2.7-3.5-4.8-5.1-7.4-.5 7.3 3.3 12.3 2.7 18.1zm-15.7-17.4c-.9 4.3-.2 8.8 1.2 12.1 4 .5 6 4.2 10.4 3.5-2.9-3.4-2.3-8.8-2.8-14.6.1-.8.9-.8 1.2-1.4-3.3 0-6.6 1.2-10 .4zm-5.4 26.4c-.1 1 .6 2.1.7 2.8.9 8.2-4.3 11.9-7 16.7-.6 1.1-1.6 2.4-1.9 3.3-.2.7 0 1.6-.2 2.3-.8 2.1-2.4 4.2-3.5 6.5-1 2.3-2.7 4.4-3.3 7 3.7-1.3 8.7-1.2 13.5-1.4.8-3 3-5.3 4.6-7.9.9-1.5 1.4-3.5 2.3-5.1 1-1.6 2.4-2.9 3-4.4 1.3-3 2-6.1 3.5-9.1 2.8-5.9 5.4-11.3 8.4-16.5-5.4-1.9-12-2.7-16.2-5.8 1.3 4.8-3.7 8-3.9 11.6zm-8.3 7.7c-1.9.8-4.8.6-7.2 2.1-4.1 2.6-7 6.2-13.5 3.7-2-2.6-5.4-3.6-7.9-5.6-3.5-2.8-5.7-6.7-8.8-9.7 0-.1 0-.3-.2-.2-2 1-2.8 3.1-4.6 4.4-3.3 2.3-7.1 4-9.3 7.4 3.2 2.8 5.9 6.2 9.3 8.8-.1.5 0 .9.2 1.2 4.2 4.6 9.2 8.2 13.9 12.3 4.4 3.8 7 8.9 10.2 13.9.5-2.3 2-3.7 5.1-3.5 1.4-2.5 2.8-4.9 4.2-7.4-.7-2.7 1.2-4.5 1.6-6.7-1.2 1.5-7.1 4.5-10.2 1.9-.1-1 .7-1.2 1.2-1.6 4.4 1.3 10.1.1 9.5-5.1 1.2-1 1.3-2.5 2.3-3.7 1.3-1.6 3.5-2.4 5.1-3.7 3.1-2.6 7.8-9.8 3.9-15.3-.9 2.3-2 5.6-4.8 6.8zm2-2.3c.4-.7 1.4-2 1.2-2.6-.3.8-1.6 1.8-1.2 2.6zm-324.7 26.9c1.1-10.5-1.4-15.6-10.9-14.9-16.1 1.2-23.4 18.5-25.5 33.2 16.3-1.9 31-5.4 36.4-18.3zm242.3 40.6c5.3-4.6 13.5-9.4 11.8-20.7-.3-2.4-1.6-7.2-2.3-9.3-.7-2-4.8-5.9-7.2-6.5-5.4-1.4-13-.1-15.6 3.5-3 4.3-3.1 17.1-2.3 24.1.7 6.3 4.2 11 5.3 16.5 3.8-1.8 7-4.7 10.3-7.6zm71.8-30.6c1.4 1 3.7 2.3 6 1.6.1-1.6-2.3-1.7-1.6-3 1.4.6 2.2 1.8 2.3 3.7 4.5.3 10.6 2 14.9.2-1.6-2-1.2-5.9-2.8-7.9-1.4 6.5-14.7 1.2-18.8 5.4zm-5.6 3.5c1.2 1 2.8 1.5 4.4 2.1.3-.6.6-1.1.7-1.9-.9-.7-4.1-1.2-5.1-.2zm4.9 2.3c6.5 2 12.5 4.4 20.9 4.4-.7-1.5-1.6-2.9-2.8-3.9-6.6 0-12.5-.7-17.4-2.3-.2.7-.4 1.2-.7 1.8zm11.6 6.5c-4.9-.7-9.1-2-13.2-3.5-.4.7-2 .2-2.3.9 2.1 1 5 1.3 4.9 4.6 4.6 1.9 9.1 5.1 15.8 4.2-1.5-2.3-3.8-3.9-5.2-6.2zm-17.2-1.9c1.8 1.3 3.7 2.5 5.8 3.5-.4-2.4-4.2-3.8-5.8-3.5zm-8.6 24.9c3.6 2.2 7.1 3.2 10.9 5.1 3.4-6.6 6.8-13.2 10.4-19.5-4.4-1.4-7.8-3.8-11.8-5.6-1.5 8.3-6.8 12.9-9.5 20zm-258.8-12.6c-.3-1 .6-1.9 0-2.3-.4.2-1 2.3 0 2.3zm280.6 4.2c2.6 1.6 2.9 5.4 5.3 7.2-1-3.5-1.8-7.3-3.5-10.2-.2 1.3-1.3 1.8-1.8 3zm-289.2 4.9c1.5-1.7 4.8-2.7 3.9-6-.9 2.1-3.2 5.2-3.9 6zm268.8 10c-2.9 1.8-3.3 6-5.3 8.6-.4.5-1.2.7-1.6 1.2-1.1 1.3-1.9 3.5-2.8 5.1-3 5.3-5.7 10.7-7.9 16.2 2.5.3 4.6 1 7.4.9 5.5-9.6 10.1-20.2 16.9-28.6-2.4-.9-3.5-3.2-6.7-3.4zm-311.3 26.9c8.7-7.8 17.5-16.7 24.4-25.5-8.9 7.7-16.8 16.4-24.4 25.5zm26.7-2.6c.3-.5 1.3-1.4.9-1.9 0 .8-1.4 1.4-.9 1.9zm-.4 11.6c1.2-3.5 4.7-5.9 5.6-9.1-1.5 2.7-6.3 5.7-5.6 9.1z"/><path class="st1" d="M214.4 85.8c1.1-.2 2.8 1 4.4 1.2.1-1.7.3-4.2 1.6-5.3-2.8-1.4-5.6.9-8.1.5 2.7-2.4 8.1-3.3 12.5-2.1 1-.2 1.5-1 2.6-1.2.1 1.2-.8 1.4-1.2 2.1 1.4 1.2 2.7-1 4.6-.7-.1 1.1-1 1.5-2.1 1.6.6 2.1 3.5.5 5.1.2.6 1.3-1.6 1.5-2.1 2.3.6 1.3 1.6-.2 3.3.2-.3 1.2-1.6 1.3-2.8 1.6.8 1.3 3-.7 3.9 0-.7 1.9-2.9 1.1-4.2 2.1.5.2.6.9 1.2 1.2-.1.7-1.9 0-1.9-.9-.7-.2-.7.4-1.4.2-.6.3.9.5.5 1.4-1.1-.6-1.9-1.6-3.9-1.2-.4.4 1 .8 0 1.4-1.5-.2-1.5-1.9-3.3-1.9-.8.5.7.7.5 1.4-1.7.3-1.2-1.5-2.6-1.6-.6.2-.6.9-.7 1.6h-1.2c-.1-.8.3-1.1.5-1.6-1.5-1-3.7-1.4-5.2-2.5zm7.9-.7c1.6.3 1.9-.7 2.3-1.6-1.5-.3-2.1.5-2.3 1.6zm3.9 2.8c1.5.4 4.2.2 5.6-1.2-2.1-.4-2.7-2.3-4.6-2.8.2 1.9-.4 2.9-1 4zm-1.6-2.6c.3.6 1.5-.6.9-.9-.2.4-.8.4-.9.9z"/></g><path class="st0" d="M529.9 207c0 .2-17.1 44.8-22.3 49.5-4.1 3.7-10.1 5.5-15.9 4-10.6-2.7-9.2-19.2 1.6-18.8 7.9.3 11.6 9.8 11.6 9.8s1.4 2.5 5.7-6.6 20.7-43.4 20.9-43.6c-.1.1-1.4 5.8 3.7 9.4s10.2 7.3 8.8 13.1-5.2 12.9-5.2 12.9c0-.1.1-8.3-4.6-13.9-4.9-5.6-4.4-15.7-4.3-15.8z" id="Режим_изоляции_1_"/></svg>