<svg xmlns="http://www.w3.org/2000/svg" viewBox="0 0 566.9 467.7"><style>.st0,.st1{fill:#ee7f00}.st1{fill-rule:evenodd;clip-rule:evenodd}</style><g id="Слой_1"><path class="st0" d="M59.5 108.5c-.6-.8-2.8.2-3.4.5-7.9 4-16.2 6.2-25 6.5-.6 0-3.1.3-3.2 1.3v.1c.7 1.7 1.5 3.4 2.2 5l.2.2c.3.9.6 1.8 1 2.6.2.3.2.6.4.9v.2c.6 1.8 1.4 3.8 2.1 5.6.3.9 3.2-.3 3.7-.7 1.1-1 2.3-1.8 3.8-2.4.2-.1.9-.4.8-.7-.2-1-.4-1.9-.6-2.9 1.3-.2 2.6-.6 3.9-.8 3.1 5.2 5.4 10.8 6.7 16.8.6 2.7 1.3 5.8 1.1 8.7-.1 2.1-.9 4.6-3.6 3.9-1.7-.4-2.7-2.5-3.4-3.9-.4-.8-2.9.2-3.4.5-1.9 1.1-4.1 1.8-6.2 2.2-.3.1-2.8.7-2.2 1.3 5 5.1 11.1 10.3 18.8 9.9 5.6-.2 11.1-3 14.5-7.5 10.8-14.2.7-35-8.2-47.3zm-6 53.3c-5.8-.4-11-5-15-9.1 1.4-.4 2.8-.9 4.2-1.4 1.5 2.7 4 4.2 7.3 3.9 2.5-.3 5.4-1.4 6.5-3.8 1.7-3.8-.1-9.9-1-13.7-1.4-5.4-3.6-10.4-6.5-15.2-.2-.4-1.2-.2-1.5-.1-2.6.6-5.1 1-7.7 1.6-.3.1-2.4.5-2.3 1.1l.6 3.3c-.3.2-.7.3-1 .6l-1.8-4.8c-.3-.6-.6-1.3-1-1.9-.5-.7-.9-1.5-1.2-2.3H33c-.7-.9-1-1.9-1.2-3.1 8.5-.6 16.7-2.8 24.4-6.4 6.9 9.9 12.7 21.6 11.8 34.1-.5 7.5-5.2 17.8-14.5 17.2zm65.4-23c-6.7-2.2-10.8-7.9-15.1-13.1-3.7-4.5-7.5-10.9-13.1-13.1-3.4-1.3-7.6-.8-10.7 1.3-4.4 3-4.8 8.5-4.8 13.5 2.2 1 4.4 1.7 6.4 2.8 1.1 0 2.6-.4 2.8-1.1.4-1.2 1.1-4.2 2.8-3.4 2 .9.8 4.2.1 5.4-2 3-5.4 4.7-7.5 7.5-3.2 4.2-4.6 9.9-1 14.3 3.2 3.9 8.7 3.1 12.7 1 5-2.6 8.6-7.5 10.6-12.7 2.9 1.3 5.7 2.5 8.6 3.8 1 .4 2.9 0 3.6-.8 1.5-1.8 3-3.3 4.8-4.7.3-.3.1-.6-.2-.7zm-5.4 2.6c-.4.5-.8.9-1.2 1.3-3.2-1.4-6.3-2.8-9.5-4.2-.8-.3-3.4-.1-3.8 1-1 3.5-2.6 6.8-5 9.6-3.4 4.1-9.7 6.6-12.6.9-3.4-6.7 2.2-12.6 6.9-16.7 1.8-1.5 3.8-3.3 3.8-5.8.1-2.2-1.1-3.7-3.3-4-3.2-.5-5.7 1.4-7.2 3.8l-2.3-1.1c-.1-.1-.2-.1-.3-.1 0-2.6 0-5.4 1-7.9 1.4-3.5 4.5-5.7 8.3-3.7 4.6 2.3 7.7 7.4 10.8 11.2 3 3.8 6.1 7.9 9.9 10.9 1.4 1.1 3 1.7 4.3 2.7 1.5 1.2 1.6.6.2 2.1z"/><path class="st0" d="M95.3 138.2c-.1-.3-.3-.6-.6-.9-1-.1-1.9 0-2.7.3-.5.2-.9.4-1.3.7-1.6 1.5-2.8 3.7-3.8 5.7-.3.6-.6 1.3-.6 1.9.1 1.4 1.6 2.2 3 2.1 1.4-.2 2.5-1 3.4-2.1 1.9-2 3.4-5 2.6-7.7zm-1.6 3.4c-.4.6-2.6 4.2-4.1 4.6-.2.1-.4.2-.6.1-.5-.1-.7-.5-.7-.9-.2-.2-.2-.6-.1-.9.3-1.4 1.5-2.4 2.6-3.4.4-.6.9-1.1 1.4-1.5.4-.4.9-.6 1.3-.6h.3c1.1.3.3 1.9-.1 2.6zm27.5-40.2c-.6-1-2.7-.4-3.4.2-1.2 1-2.6 2.2-3.9 3.1-.9-1.4-.6-4.2-.8-5.5-.3-2.6-.7-5.3-1.2-7.9-.5-2.5-.2-6.4-3.3-6.6-1.7-.1-3.4.9-5 1.4-2.5.9-4.9 1.8-7.4 2.6-5.4 1.9-10.7 3.8-16.1 5.8-.2.1-.8.4-1 .7.1.2.2.3.3.5.2.5.6 1 .8 1.4l.2.2c1.3 2 2.6 4.1 3.8 6.1.4.6 2.1.2 2.6 0l13.7-6.6c.6 7.5 1.9 14.7 3.8 22 .2 1.1 2.6.3 3.1 0 4.9-2.8 10.7-5.4 15.1-8.8 3.3-2.5.4-5.7-1.3-8.6zm-4.9 9.9c-2.9 1.7-5.7 3.4-8.6 5-1.8-7.2-3-14.4-3.5-21.9-.1-1-2.3-.4-2.6-.2-4.8 2.2-9.5 4.6-14.3 6.8-.6-1-1.3-2.1-1.9-3.1h.1c-.5-.8-1.1-1.5-1.4-2.4v-.2c-.1-.1-.2-.1-.2-.2 3.7-1.4 7.5-2.6 11.1-4 3.7-1.3 8-3.6 11.9-4.3.8 1.3.8 3.4 1 4.7.4 1.9.6 3.8 1 5.8.3 2.2-.2 7.5 1.5 9.2 2.1 2.1 5.6-.2 8.2-2.3.6 1 1.4 2.2 1.5 3.3.3 2.2-1.9 2.7-3.8 3.8z"/><path class="st0" d="M150.3 97.7c-.2-1.4-2.5-1-3.2-.4-1.4 1-3 2-4.4 3 .2-8.3.2-16.5 0-24.8-.1-1.4-1.8-1.6-2.8-1-7.6 4.2-14.9 8.9-21.9 14-.1 0-.1.1-.2.1.2.6.5 1.2.7 1.8.3.6.6 1.4 1 2 .4.9.9 1.8 1.3 2.7.4.8 2 .7 2.6.3 2.6-1.5 5.4-3 8-4.6.2 9.7-.6 19.2-2.8 28.7-.5 2 2.9 1.2 3.6.5 4.6-4.8 11-6.8 16.6-10.1 4.9-2.8 2.4-7.5 1.5-12.2zm-3.7 10.2c-1.8 1.5-4.6 2.3-6.7 3.4-2.2 1.1-4.4 2.3-6.4 3.8 1.7-9 2.2-17.9 1.8-27.1-.1-1.4-1.8-1.7-2.8-1-3 1.7-5.8 3.4-8.8 5-.5-1-.9-1.9-1.4-2.8 5.4-3.8 10.9-7.5 16.6-10.7.2 8.4.2 16.8-.2 25.2-.1 1.8 2.3 1.4 3.3.8 1.7-1.1 3.4-2.3 5-3.4.6 2.3 1.3 5.3-.4 6.8zm232.8-61.3c2.6 7.2 4.5 19.5 6.7 27.5-2.5-2.7-2.7-9.5-5.5-14.1 2 8.6 4.1 18.8 7.2 28.2.5 2 1.8 6.6 2.7 8.5 0 .1.1.2.2.2.8 2.5 1.8 5.1 3 7.5 1.1 2.1 2.5 4.6 4.3 6.3 1.4 1.4 2.2 1.1 2.8.5.5-.5.7-1 .6-1.1-1.9-3.4-3.7-6.5-5.4-10.1-1.8-3.8-2.6-7.4-3.9-11.8-4.2-13.8-7.5-28.6-8.4-41.4 6.4 11.3 12.3 24.1 17.1 38.1 1.5 5.2 2.4 9.9 3.2 15.3.1 1.2.3 2.5.4 3.8.1 2.1.1 4.2-.2 6.4 0 .1.8.3 1 .3 2 .4 1.9-.8 1.9-1.1.3-1.5.4-3 .4-4.5.3-2.3.2-4.6-.1-6.8-.5-4.6-1.1-9.2-2.7-13.6 0 0-.2-.4-.3-.8-2.8-10-6.8-19.6-11.1-26.8 2.2 5.4 5 11.5 6 16.1-3.7-10-10.7-23.8-14.6-35.5-1.6-4.9-2.7-11.4-8.1-12.6.9 3.3 6.2 6.8 3.2 9.6-4.2.6-3.2-6.9-4.7-9.3-1.8 6.6 2.5 13.3 2.5 19 .8-.5 1.5 1.1 1.8 2.2zm14.7 52.5c0-.1-.1-.1-.1-.2.1.1.1.1.1.2zm-2.8-8.7c-.3-.6-.5-1.1-.9-1.8l.2-.1c.2.7.5 1.3.7 1.9zm-4.1-12c0-.7-.5-.7-1-.6.8-.5.5-1.7.1-3 1-.6 2.6 10.6.9 3.6zm15.5 6.8l.2-.1v.4c-.2-.1-.2-.2-.2-.3zm.3 3.7zm-2.6-14.5c.4 2.6 1.7 3.9 2 6.6-.2 1.4-.7-1-.8-1.5-.9-1.5-1.4-3.6-2.1-5.4.4-.1.8 0 .9.3zm-69.2.5c.4.4 1.2 2.2 1.9 3.4 1.4 2.5 2.7 3 4 4.8 8.5 12.4 19.3 28.2 30.1 42.8.7.9 1.9 1.1 2.8.5 1.1-.6 1.3-2 .6-3.1-7.5-10.4-15.3-20.9-22.9-28.3-7.3-7.3-11.4-17.3-17.5-22.9-1.9-1.8-7.2-2.8-8.3-5.6-1.8-4.3 4.3-9.5 3.9-12.5-1.1 2.9-5.9 8.2-4.6 12.3 1.5 4.8 7 5.3 10 8.6zm107.2-4.8c0-.2-.1-.3-.2-.3 1-12.2-2.6-25.1-4-37.5.7-2.9 3.1-4.9 2.8-7.5-.9-8.3-12.5-11.3-20.1-10.3 2.5 3.7 8.7 0 10.2 3.7-.1 2.9-3.2 3.6-3.1 6.7-1.7-2.5-5.6-3.2-9.2-4.9 2 4.6 6.7 5.7 11.1 6.9-4.9 8.9-8.6 21.2-12.8 28.1.2 0 .4.3.4.9-2.5 3.2-4.6 8.2-6.3 14.2l.5-.1c-1.5 5.8-1.1 12 .5 17.9.7 2.5 3.3 10.6 7 6.3.1 0 .1-.1.1-.2-4.3-8.4-3.4-17.6-2.4-26.8 0-.1-.1-.1-.3-.1 2.1-7.5 4.6-14 7.7-18.5.6-.9-1.2-1.4.2-2.9 1.1 0-.2 1 .7 1.1.9-2.5 2.4-4.6 3-7.2 0-1.1-1.8 4.5-3.2 5.5.1-4.4 5.7-7.5 3.3-8.4.7-.4 3.2-.9 2-2 0 .6-.5 1-1 1.2 1.4-4.5 1.4-1 3.9-4.6 1.9 10.6 3.3 20.9 4 30.6.4 10.6-.3 26.1-11.6 30.3-.3.1-.7.5-.4.9.8.7 1.7 1.1 2.5 1.2.2.3.9.3 1.1.1.2-.1.3-.2.4-.2 3.5-.8 7.1-5.1 8.6-7.7.9-1.5 1.5-3 2-4.5 1.8-3.7 2.4-7.9 2.6-11.9zm-27.9-.4v-.4h.1c0 .2 0 .3-.1.4zm2 23.2c.1 0 .2-.1.3-.1 0 .3-.1.3-.3.1zm24.2-24.7c-.2-1.1-.3-2.3-.4-3.4-.2-4.2-.4-8.3-.7-12.5.7 5.3 1.3 10.6 1.1 15.9zm-11.3 23.7c3.5-3.8 6.3-6.6 8.1-11.8 1.2-3.7 1.7-7.5 1.8-11.4.2 1.4.4 2.9.4 4.3-.4 3.4-.8 6.8-2.3 9.9-.3.5-.5 1-.8 1.5-1.7 2.8-4.2 5.4-6.7 7.7-.6.2-1.3.4-1.9.5.4-.1.9-.4 1.4-.7zm-46.7-1.5c-5.3-9.5-10.5-18.9-15.8-28.4-.2-.4-.9-.2-1.1-.1-.2.1-.3.1-.4.2.4-.7.4-1.2-.3-2.5-.8-1.7-1.8-3.2-2.7-4.9-.7-1.2-2.7-4.2-3-6.1.7-3.7 4.7-7.9 6.6-10.6.5-.8-1.2-.8-1.6-.2-1.4 2.1-2.7 4.1-4.1 6.2-.7 1.1-3.2 3.7-3.2 5.1-.1 1.8 2 4.9 2.6 6.5 1.1 2.7 2.2 5.4 3.2 8.1v.1c-.4.3-.7.5-1.1.9-.4.4 0 .6.5.7v.1c4.4 11 8.9 22 14.1 32.6 2.2 4.4 4.6 8.7 7.5 12.5 2.1 2.8 4.3 6.1 8.1 5.8.3 0 1-.3 1-.6 0-9.2-6.1-18-10.3-25.4zM358 56.7c.9 1.4 1.7 2.8 1.7 4.1-.6-1.3-1.1-2.7-1.7-4.1zm27.9 55.8c-.5.3-1.6-.5-1.8-.7-.4-.3-.6-.6-.9-.8-.5-.5-1.1-1.1-1.5-1.7-1.1-1.3-1.8-2.6-2.6-4-1.6-2.7-3-5.4-4.4-8.2l-.1-.1c1.4-.1 1.8 1.1 2.3 1.7l1.5 2.1c1 1.3 1.9 2.6 2.8 3.9 1 1.4 2 2.7 2.9 4.1.4.7.9 1.3 1.2 2 .2.2 1 1.5.6 1.7zm61.9-15c-5 0-3-5.1-2.2-7.9.7-2.3 1.4-4.6 2.2-6.8.1-.2 0-.4 0-.4.4-.1.7-.3.7-.6-.4-14.8 1.6-29.6 5.9-43.8.2-.5-.3-.7-.7-.7h-.4c-1-5.8 8.8-8.2 5.4-15.3-.7-1.5-1.9-2.7-3.3-3.8-1.4-.8-2.9-1.6-4.4-2.3-1.5-.7-3.1-1.2-4.6-1.8-.5-.2-1.3-.5-2-.8-.2.3-.2.5.3.7 5.2 2.5 15.8 6.4 12.3 13.8-1.6 3.3-5.5 5.4-5.3 9.1-.3 0-.6 0-1.4.1-.8.1-1.1.8-.6 1.1-1.8 14.9-3.7 29.7-5.5 44.6 0 .3.2.4.4.4.5.1 1 .3 1.5.4-.9 2.6-1.8 5.4-2.5 8.1-.4 1.5-1.2 3.4-.6 4.9 1.2 3.1 4.9 1.8 7.8 1.7.3 0 .6-.1.9-.1 1.1-.2 2.3-.3 3.4-.1-1.9-1.4-5.3-.5-7.3-.5zm51.8-89c-5.4.2-9.6 5-8.9 10.3-.2 2.3.6 4.5 2.1 6.2-1.8 2.8-3.7 5.6-5.6 8.4-.5-.3-1.1-.5-1.6-.9-.4-.2-1.4.1-1.7.4-6.1 8.3-11.6 17-16.3 26.2-4.1 8-10.3 18-9.6 27.3 0 .2.6.1.7.1 3.3-.5 4.8-3.5 6.8-6.1 4.2-5.4 8.3-11.1 12.3-16.7 3.8-5.4 7.5-10.9 10.9-16.6 2.2-3.7 3.9-7.8 2.1-11.6.9-1.1 1.5-2.6 2.3-3.9 1-1.5 1.9-2.9 3-4.2.6.4 1.3.6 2 .9 5.6 1.8 11.1-1.9 12.8-7.4 1.8-6.1-5.3-12.6-11.3-12.4zm-1.1 14.4c-4.7-.9-6.4-4.8-4-8.9.4-.5.8-1.2 1.4-1.8 2.1-.1 4.1-.1 6.2-.2.6.4 1.1.9 1.8 1.3l.2.2c.2.4.3.6.4 1 .9 2.1 1 4.8.3 6.8-1.7 1.4-3.8 2-6.3 1.6zm8.8-.9zm-11.8 3.7s0 .1 0 0c-.1 0-.2-.1-.3-.1.2 0 .3.1.3.1zm9.8-1.5c.4-.2.6-.4.9-.7-.3.3-.6.5-.9.7.1 0 .1 0 0 0zm-35.8 40.5c-1.1 2.1-2.3 4-3.4 6.1-1.1 1.8-2.2 3.7-3.3 5.5-.4.7-3.2 5.5-3.4 4.9-.2-.4 1.1-3.3 1.2-3.9.4-1.1.9-2 1.3-3 .9-2 1.8-3.9 2.7-5.8 1.9-3.9 3.9-7.5 6.1-11 .1.2.2.4.3.4 0 .1-.1.2-.1.2-.1.1.1.2.2.1-.4.5 0 1.1.4.9-.2 2-1.1 4-2 5.6zM492 30.4c-.4.7-.9 1.4-1.3 2.1-.4.6-.7 1.1-1.1 1.6-.1-.2-.3-.4-.4-.4-.1-.1-.4-.1-.7 0 1.7-2.5 3.3-5.1 5.1-7.6.4.4.7.6 1.1.9-.9 1-1.8 2.2-2.7 3.4zm4.8-3.9c.1-.1.1-.2.2-.3 2.3.8 4.9.7 7.3-.3.4-.1.7-.3 1.1-.5 1.1-.6 2.1-1.4 2.8-2.3-.4.7-1 1.4-1.6 2.1-2.7 2.9-6.8 3-9.8 1.3z"/><path class="st1" d="M119.7 60.1c-.3.5-.6 1.1-.8 1.7-1.7 2.6-4.8 1.1-6.8 2.4-.9.6-1.5 1.7-2.2 2.3-.8.8-2 1.6-3.1 1.8-2.4.4-7-1.8-8.9-3.8-.9-1-1.2-2.3-2.1-3.3-2-2.6-5.4-5-8.6-7.5-3.4-2.6-7.2-5.1-10.7-6.8-1.1-.5-2.3-.7-2.9-1.6.8-2.3 3.1-1.1 4.7-.9 3.5.6 6.7 1.1 10.5 1.5 1.5.2 4 .6 4.7-.8.7-1.5-1.9-3.4-3.5-4.2-2-1.1-4.6-2-6.9-3.2-1.4-.8-5.5-2.5-4.7-4 .5-1 2.9-.4 4.4-.1 4.7.8 9.6 2.2 14.3 2.9 3 .5 6.1.2 9.1.6 3.1.4 6.1.6 9.2 1.1.5.3 1.2.5 1.8.9.5.5 1.3 1.1 1.7 1.6 1.9 2.7 2.8 6.2 1.1 9.8-.2.6-.9 1.2-1 1.9-.3 1 .9 2.8 1 4.1.2 1.2-.1 2.5-.3 3.6zm-27.8-8.3c.8.2.4 2.1.5 2.6.5 2.7 3.1 3.3 5.4 5.4.6.5.6 1.6 1.1 2.4 1.1 1.8 4.4 4.9 7 5 2.4.1 3.2-3.2 5.3-4.5 1.6-.9 3.6 0 5.4-.8 1.5-.8 2.8-3 2.5-4.9-.2-1.6-1.9-3.1-1.8-4.7.2-1.9 1.5-2.7 2.1-4 1.2-2.7.1-6.1-2-7.5-2.3-1.5-4.4-1.6-6.5-1.7-1.5-.1-3-.4-4.5-.4-2.9-.1-5.4 1.2-8.3.8-.2-.3-.3-.6 0-1.2-4.1.2-9.2-1.3-14-2.9-1.6-.6-3.2-1.3-4.8-1.2 2.6 3.4 9.9 4.9 14.3 7.8 2.3 1.5.7 5.5-1.5 6.2-2.8 1.1-8.8-1.5-12.3-2.4-1.2-.3-2.6-1-3.5-.2.5 1.2 2 1.6 3.2 2.3 3.9 2 7.9 4.3 11 6.4.6-.9.2-2.9 1.4-2.5z"/><path class="st1" d="M116.9 51.2c-1.1 1.3-2.3 2.4-3.7 2.9.5 1.8.7 3.6-.7 6.2-.1-1.8.5-3.9-.9-5.3-2 .5-3.8 1.8-6.3 1.1.1-.5.8-.5 1.2-.6 1.5-.6 4.2-1.4 5-3.7.5-1.6.1-3.4-.3-4.7-.1-.3-.5-.8-.2-1.2 2.2 1.6 3.3 3.6 1.9 6.5 1.7.6 2.8-.7 4-1.2z"/><path class="st0" d="M376.9 189.5c-4.1-8.2-5.8-17.1-7.5-27.1 0-.2-.2-.8-1-1-.6-.2-3.3-.2-4.5.4h-.3l-.2.5c-2.1 2.6-3.7 5.3-5 8.3l-1.3-4.3c-.1-.3-.4-.8-1.2-.9-.9-.2-4 0-4.7.9-1.2 1.6-2.2 3.4-3 5.4-.7-1.7-1.6-3.5-2.9-4.6-2.4-2.2-7.4-2.3-10-.1l.7.8.7.8c-.2.2-.5.2-.5.2.2 0 .4 0 .6.1 1.2.2 2.3.3 3.1 0 1 1.4 3.1 6.2 3.7 7.8 1.3 3.4 2.3 7.1 3 11.1.1.5.3 1.4 3.9.9.9-.1 2.3-.3 2.2-1.5-.3-3.6-.4-8 .6-12.3l2.6 8.6c.1.4.4 1.4 4 .8.8-.1 2-.3 2-1.4 0-4.4.8-8.5 2.5-12.3 1.3 6.7 3.1 13.6 6.4 20.1.3.6.9.8 1.8.8.8 0 1.9-.2 3-.5.2 0 .3-.1.4-.1l-.1-1 1-.4zm27.5-22.7c-.9-.5-2.2-.8-3.1-.2-.5.3-.8.9-.8 1.6.1 4.6-1.4 8.8-4.3 11.7-1 1-2.7 2.4-4.8 3-2.7.7-4.9-.7-6.5-4.3-1.2-2.6-2-5.5-2.5-8.7.8-1.4 1.8-2.5 3-3.3.6-.4 1.3-.7 2.1-1 1.4-.6 3-1.2 4.1-2.8 1.2-1.9 1.7-5.5.4-7.6-.8-1.2-2-1.9-3.6-1.7-.6 0-1.1.4-1.3.9-.4 1 .3 2.3.8 3.1-.4 1.3-1.7 2-3.7 2.9-.8.3-1.6.7-2.2 1.1.3-5.3 1.3-9.2 2.9-10.5.6-.5 1.2-.6 2-.4 2.1.4 2.5-1 2.6-1.2.3-1.4-1.2-3.4-2.9-3.8-2.2-.5-4.1-.1-5.7 1.1-2.7 2.1-4.3 6.5-4.7 13.5-.3 4.2-.3 14.9 5.1 22.7 2.4 3.4 6.1 5.3 9.9 5.3 1.7 0 3.4-.4 5-1.1 6.2-2.8 10.3-9.9 10.1-17.6 0-1-.7-2-1.9-2.7z"/><path class="st0" d="M411.8 158.9c-.2-.4-.5-.8-.7-1.2 5.3-3.8 7-11.1 3.8-16.6-1.9-3.4-5.9-5.3-9.3-4.5-2.8.6-4.7 2.8-5 6.1-.8 7.4 3.1 14.1 6.6 20.1.7 1.2 1.4 2.5 2.1 3.7 5.1 9.4 6.4 19.5 3.6 29.4-.4 1.5.4 2.8 1.9 3.2.3.1.6.1 1 .1 1.3 0 2.7-.7 3.1-2.2 3.3-11.7 1.5-23.4-5.6-35.6-.5-.9-1-1.7-1.5-2.5zm-1.5-12.2c.2 2.2-.6 4.2-2.1 5.7-1.3-2.8-1.8-5.2-1.7-7.3.1-1.6.6-2.7 1-2.9h.1c.2 0 .5.1.8.4 1.1.7 1.8 2.3 1.9 4.1z"/><path class="st0" d="M435.2 136.4c-.5-1.2-1-2.4-1.4-3.6-1.9-4.9-3.9-9.9-6.9-14.2-2.4-3.5-6.7-6.6-11.5-4.8-4.6 1.7-9.6 7-9.8 12.5-.1 1.8 2.2 3.1 3.7 3.2 1.3.1 2.1-.7 2.2-1.8.1-2.6 2.7-6.8 5.9-8.3 1.6-.8 3-.6 4.3.3 1 .8 1.9 2.9 2.6 4.4.2.5.4 1 .6 1.4.9 2 1.8 4 2.6 5.9-.2 0-.4 0-.6.1-4.2.8-7.7 8.7-7.7 8.8-2.1 4.8-2.4 9.7-1 13.7 1.1 3.3 2.6 5.3 4.4 5.9.5.2.9.3 1.4.3.7 0 1.5-.2 2.3-.6 3.9-2.1 6.5-7.6 8.2-12.3.9 1.9 1.9 3.6 2.8 5.2-.1.3 0 .7.1 1.1.9 2.2 2.2 3.6 4.2 4.6.9.5 2.9.5 3.7-.4.2-.2.8-1.1-.1-2.3-4.4-6-7.3-12.7-10-19.1zm-7 1.3c1.1-.7 1.6-.4 1.8-.1.5 1.1.9 2.2 1.4 3.3-2.9 6.7-7.2 13.8-9.3 13.8-.3 0-.6-.3-.9-.9-1.5-3 3.2-13.6 7-16.1zm72.7-6.2c-.6-.5-1.2-.4-1.4-.3-.3.1-.7.4-.8 1.1-.8 4.7-4 8.8-8.4 10.6-4.2 1.7-8.8 1.2-12.5-1.4-3.2-2.3-5-6.3-6-9.6h.2c.5-.2 1-.6 1.2-1.2 1-2.7 2.9-5 4.7-7.2 2.9-3.5 5.9-7 5.8-12.4 0-1.7-1.9-3.2-3.4-3.2-1 0-2 .7-2 2.3.1 3.8-2.5 6.8-5.2 9.9-.9 1-1.8 2.1-2.6 3.2-.1-2.7.1-5.2.7-7.4.4-1.5.9-3.2 1.7-4.5 0-.1.1-.1.1-.2.3.9.9 1.7 1.3 2.1.7.7 1.2.7 1.6.6.3-.1.8-.3 1-1.1.7-2.5.5-5.8-1.6-7.6-1.2-1.1-2.4-1.1-3.1-.9-2.1.5-3.4 3.2-4.2 5.2-3.5 9-1.4 18.5 1 25 1.1 3 2.4 5.5 4 7.7-1.2.4-2.9 1.4-3.2 1.7-.4.4-.9.6-1.5.5-1.3-.1-3-1.2-3.8-2.2-1.5-1.8-2-4.2-2.4-6.5-.8-4.9-1.6-9.9-3-14.9l-.2-.6-.6-.1c-1.1-.3-4.2 2-4.3 2.1-3.5 3.7-5.9 8.1-7.3 12.7-1.6-3.4-3.2-6.7-4.5-9.6-.5-1-1.7-.5-2.3-.2-3.7 1.7-3.3 2.7-3.1 3.1 2.8 6.3 5.7 12.4 9 18.4.2.3.6.7 1.6.4 0 0 4-1.5 3.9-3.1-.6-5.8.6-11.4 3.3-16.3.6 2.8 1.2 5.6 1.6 8.4l.1.7c.6 3.7 1.2 8.4 5 10.8 1.2.8 2.5 1.1 3.7 1.1 4 0 7.8-3.2 9.2-4.6 3.1 3.6 7 5.6 11.4 6h1.2c7.9 0 14.6-5.9 15.9-14.2.3-1.4-1-3.6-1.8-4.3zm-.3 1.2z"/><path class="st0" d="M499.8 105.6c-1.6-.5-3.1-.3-4.4.4-1.4.8-2.6 2.3-3.6 4.4-.3-2.8-.3-6-.2-9.6 0-1 .1-2 .2-3.1 3-1.9 5.1-3.9 6.6-6.3s2-5 1.3-7.2c-.5-1.8-1.8-3.2-3.7-4.1h-.1c-1.1-1.7-1.4-1.8-1.7-1.8l-.5-.1-.3.3c-3.8 3.4-4.6 8.9-5.2 12.9-.1.9-.3 1.9-.4 3-1.7 1.1-3.6 2.1-5.5 3-.8.4-1.2.9-1.2 1.5 0 .3.1.9.8 1.5 1 .7 3.1 1 4.2.5.5-.2.9-.4 1.4-.7 0 2.8.2 5.5.7 8.2 1.1 6.8 3.2 16.2 8.9 19 .9.4 1.8.6 2.7.6.9 0 1.8-.2 2.6-.6 2.2-1 3.9-3.2 4.5-5.6 1-4-.3-7.7-1.6-10.2-1.2-2.7-2.9-5.2-5.5-6zm-6.2 12.7l.7.2v-.1c.6-2.4 1.4-5.1 3.3-6.5 1-.7 2.4-1 3.4-.7.8.2 1.4.7 1.8 1.4 1.5 3.1-.5 7.8-3.3 9.4-1.8 1.1-3.5.6-4.9-1.4-.2-.7-.6-1.4-1-2.3zm51.4 19.6l.5-.9c-4.5-2.3-6.8-8-7-17.4-.1-4 .3-8.4 1.2-13.9.2-1 .4-2.1.6-3.1.6-3 1.2-6.1 1.1-9.3-.1-2.2-.8-3.6-2-4-2.3-.9-5 1.8-5.8 2.7-1.5 1.7-2.9 3.6-4 5.7l-.2-3-.1-.7-.6-.2c-1.1-.5-3.8 1.5-3.8 1.5-3.5 2.8-6 6.5-8 11.2l-1.8-7.7c-.1-.3-.1-.8-.2-1.3-.3-2.3-.7-4.1-1.6-5-.7-.6-1.7-.9-2.7-.7-2.4.3-5.1 3-6.1 4.6-.3.5-.2 1-.1 1.1.2.3.5.6.9.6.6 0 2.2-.6 3.2-1.3.2.5.4 1.4.8 2.9l4.5 18.8c.1.4.5.8 1.1.8.9 0 4.1-1.6 4.4-2.9 1.1-5.5 2.4-10.9 5.1-15.2l.9 12.3.1.9h.9c.5 0 4.4-1.3 4.5-2.9.5-6.2 2.7-10.7 5.4-16.2 0 .9-.1 1.8-.3 2.6-.1.4-.1.7-.1 1-.2 1.9-.6 3.8-.9 5.7-.2 1.3-.5 2.7-.7 4.1-1.7 11.4-2.9 27 7.2 32.2.2.1.5.2.8.2 1 0 2.2-.8 3.9-2.5l-1.1-.7z"/></g><g id="woman_x5F_01_xA0_Image"><path class="st1" d="M286.1 93.9c-1.3 2.5-3.6-.3-5-.9-2.8-1.1-7-1.2-10.5 0-1.2.4-2.2 1.6-3.4 2.1-2.2.9-4.8.7-6.4 2.3-3.2.3-5 2.4-7.8 2.5.5-2.8 2-6.1 4.8-7.3 2.4-1.1 5.5-.9 8-1.8 3.5-1.3 4.6-3.2 9.9-2.5 3.1.4 5 2.8 7.6 4.1.9.5 2.3.2 2.8 1.5zm-45.3 21.6c-.5-6.4-3.2-10.6-6.9-13.8-1.3.5-2.4-1.1-3.9-1.4-.8-.1-2.1.4-3.4.2-2.7-.3-10.6-1.3-14.2-.9-3.6.4-6.3 2.9-9.2 3.7.3-1.2.9-2 1.4-3 2-1 4-2 5.3-3.7 4.2-1.4 10.5-1.2 15.8-.7 1.2.1 2.6-.3 3.7 0 1.4.3 2.2 1.8 3.4 1.6 3.4 3.8 8 7 8.9 14.2.1 1.2.7 3.5-.9 3.8z"/><path class="st1" d="M277 96c.2 1.5-1.2 1.4-1.4 2.5 1.3.5 2.1-1.5 3.7-1.6.3 1.5-1.3 1.2-1.4 2.3 1.5-.1 2-1.2 3-1.8.6.9-.6 2-1.1 2.5.7 1 2-.8 2.8-1.1.8 1-.7 1.7-1.1 2.3 1.4.1 1.7-1.1 2.8-1.4 1.3 2.2-2.5 2.5-3.4 3.9-5.7 1.1-9.6 4-16 4.4.3-1.7-2.3-2.8-1.1-5.3-2.1.5-4.6 2.6-6.6 3.9.2-2.6 2.9-2.8 3.9-4.6 2.4-1.2 4.5-3 8-3.4 1.2-.1 2.5.3 3.7 0 1.6-.6 2.3-3 4.2-2.6zm-5.8 9.8c1.8-1.1 4.6-1.4 6.4-2.5-1.8-.3-3.5-.8-5-1.4.5 2.1-1.7 2.7-1.4 3.9zm-4.8-1.3c1.2-.2 1.7.5 2.3-.2-.1-.9-.9-1.2-2.1-1.1.2.6-.2.7-.2 1.3z"/><path class="st1" d="M283.4 104.2c.1.9 0 1.6-.7 1.6-.7-.5-1.4-1-2.3-1.4.4-1.4 1.8 0 3-.2zm-1.8 2.8c-1.3.5-2.1-1-3.4-1.1.6-1.5 3.4-.4 3.4 1.1zm-3.3.9c-.8.3-1.5-.2-1.8-.9.3-1.3 2.1-.3 1.8.9zm-67.6 5.5c.2.1.4.2.5.5-.2 1.1-.8 1.8-1.8 2.1-.1-1.4.6-2 1.3-2.6zm2.8.5c.2 1.3-.9 1.4-1.4 2.1-.6-1 .2-2.3 1.4-2.1zm1.8.4c.5.4.1 1.8-.2 2.1-1-.1-.2-1.9.2-2.1zm22.5 14.5c-.1 1.2-1.2 1.4-2.3 1.6-1.5 6.2 1.6 9.8 6.4 6.2 1.6.6 2.5 1.8 3.9 2.5 5.8 1 7.5-2.3 10.3-4.4.1.5 0 .9-.2 1.1 2 0 3.4-.8 5-1.1.6-4.9-1.6-8.1-5.5-7.8-.1-.7.5-.7.5-1.4 5-.1 6.8 2.9 6.4 8.3-.9 3.7-4.8 1.9-8.5 4.1-2.5 1.5-4.3 3.4-8.9 2.5-1.9-2.6-5.5-1.4-9.2-1.1-2.4-1.8-3-11 2.1-10.5zm38.5 19.9c.2-1.8-.1-3.1-.9-3.9 1.8-3.2 3.7 3.7.9 3.9zm-46.8.9c-1.2 1.5-.4 4.9-2.3 5.7.5-2.2.1-5.3 2.3-5.7zm-2 213.4c1.3.4 1 2.3.9 3.2-.3 3.4-2.9 7.8-5.7 8.5-.5-.5-.5-1.5-.5-2.5-1.8 1.2-7.1.1-10.8.5-.1-2 .6-4.2 2.5-4.8 1.9-.6 4.7.7 6.9 0 2.6-.9 3.8-5 6.7-4.9zm-10.4 77.5c2.4 5.6-2.9 14.3-7.3 8.9-4 1.2-7.3 3.2-11.7 4.1-.2-6.2 8.1-5.9 12.4-8.5 1.7-2 2.4-5 6.6-4.5zM193.5 531h-2.8c3.9-7.1.9-18.2-1.4-25.2-1.8-5.8-4.2-11.3-6.6-16-5.2-10.4-12.5-18.6-16.3-28.9-10.4 3.7-21.5 6-31.2 10.1-3.2 1.4-7 3.4-10.8 2.1.2-2.5 1.6-3.9 3.4-4.8 4.3 1.2 6.8-1.2 10.8-3 9.7-4.2 22.8-5.5 30.5-9.9 1.5 2.4 2.4 5 3.7 7.6 1.3 2.6 2.6 5 4.4 7.6 6.3 9.1 12.4 19.8 16 31.4 2.9 8.8 5.5 22 .3 29zm60.1-497.1c1.1-.4.9-2.1 2.1-2.5 9.2 5.6 16.3 13.4 22.9 21.5-8.1-6.2-16.5-14-26.1-19.5-.5-.6.7.4 1.1.5zm21.1 111.8c-.5.4-.7 1-1.4 1.1-2.1 7.4-6.3 12.6-11.5 17-4.7 1.3-9.4 4.1-15.6 2.5-1.6-.4-3.7-2.3-5.7-3.2-1.2-.5-2.9-1.1-3.9-1.8-2.9-2.2-4.3-6.3-7.8-7.1 1-1.4.7-3.1 1.8-4.1 1.1.1-.1 1 .2 1.8 5.2.1 9.8-2.2 14.7-2.8 1.6-.2 3.2.6 4.8.5 1.6-.2 3.1-1.9 4.8-2.1 2-.2 3.9.6 6 .7 4.6.2 7.9-2 11.7-3.2.2-1.4 1.9-.1 1.9.7zm-7.1 2.8c-3.2 2-7.7 2.7-11.9 3.7-4.2 2.6-13.4 1.6-19.3 1.1.1.8.3 1.5.2 2.5 2.5 3.5 9.3 2.6 14.4 3.4 7.2-.9 12.1-4.1 17-7.3-.2-1 .6-3.1-.4-3.4zm-32.3 6.4c-.1-.6.4-1.9-.7-1.6 0 .7-.1 1.6.7 1.6zm236.1 245.9c-.4-.3 1.4.8 1.1 1.8-.5-.4-.8-1.1-1.1-1.8z"/><path class="st1" d="M357.7 531h-8v-.2c-10.4-11.3-20.5-22.9-31.4-33.7-3 2.3-7.1.6-11.7.2-3.3-.3-6.7.3-8.7-.7-1.6-.8-3.2-3.3-4.8-4.4-2.1-1.4-4.6-2-6.6-3.4-7.6-5.4-12.6-13.7-18.8-20.9-2.2-2.6-4.4-5.6-6.4-8.5-3.3-4.7-6.6-8.2-9.4-13.3-.9-.4-2.5-.1-2.8-1.1.4-2.1 1.3-3.7 3.2-4.4 1.3.9 4.3.4 5.7 0-3.8-8.8-7.4-22.7-3.7-35.5 1-3.4 2.9-7.2 4.4-11 1.4-3.7 3.3-7.4 4.4-11 .4-1.3.3-2.5.7-3.7 1.2-3.6 3.5-7.1 5.3-11.2 1.6-3.9 2.9-13.3 7.3-10.5 9.3-13.7 20.8-25.1 32.6-36.2 1-3.5 3.8-5.4 3.2-10.5-4.5-3.3-8.7-.5-13.3 1.6-2.8 1.3-5.4 2.3-7.8 3.2-7 2.8-14 7.3-21.8 10.3-7.9 3-15.3 7.1-22.5 9.6-3.7 11.9-7.7 23.9-10.8 36-1.1 4.2-1.4 8.6-2.5 12.8-4.4 16.6-7.6 35.1-6.2 55.9 1.4 20.5 7.9 36.2 16 50.2 4 7 9.1 13.2 13.3 19.9 4.3 6.8 8.9 13.3 12.6 20.4h-5.7v-.2c-.3 0-.4-.1-.5-.2-3.3-5.5-6.8-10.8-10.3-16.3-8.6-13.4-18.5-25.9-23.8-42.6-1-3.3-2.2-6.8-3-10.3-4.7-21-2.7-47 1.6-66.5 1.1-4.9 2.9-9.7 3.7-14.7 2.4-14.6 8.2-29 11.7-42.4-11.9 5.5-23.4 11.8-35.3 17.4-3.9 1.9-7.6 4.2-11.5 6-8.1 3.7-16.6 6.4-25 10.1-4.1 1.8-8.6 3.3-13.1 4.6-7.6 2.1-14.3 6.8-23.4 7.8-9.7 14.8-19.5 30.4-29.8 47.2-7.1 11.6-14.2 24.7-18.3 39.4-3.5 12.5-.4 26.1 3.4 36.2 1.1 2.9 1.9 5.9 3 8.7 2.5 6.2 5.6 10.7 9.4 15.8h-6.6c-.7-1.6-2-2.6-2.8-3.9-.8-1.4-1.4-3-2.1-4.6-4-9-8-19-9.4-30-2.1-16.8 4.4-29.7 9.9-42.2 2.5-5.7 5.8-11.5 9.2-17 10.2-16.2 20.6-32.9 30-48.6-6.9 2.3-13.8 4.4-20.6 7.3-3.6 1.6-7.5 1.6-11.2 2.8-7.6 2.3-14.6 7.2-22.7 8.9-.6.3-.4 1.6-1.1 1.8-.2 1.2.4-.3.2 1.1-.1.7-.6 1.5-.9 2.5.1.9-1.6.1-1.6.9-.8 1.9-2 3.6-3.2 5.3-1.3 1.8-2.1 3.6-3.2 5.5-.8 1.2-2.2 2-3.2 3.2-1 1.2-1.6 3.1-3.4 3-1.1-.3-.3-2.4-.9-3.2-1.6 3.4-4.1 5.8-8 6.9-1.4-4.7 1.8-9.6 2.1-13.3-1.8 5.3-4.2 10.1-9.4 11.9-1.5-.8-.1-3.7-.9-5.5-2 2.4-2.3 6.4-6.6 6.4-.6-19.4 10.9-35.3 10.1-57.3-.1-1.4-.6-2.7-.7-4.1-.3-6.8-.7-14.3 0-21.1.5-4.8 2-9.5 1.1-14-.9-4.6-2.9-9.3-3.4-14.2-.2-2 .1-3.9-.2-5.7-.2-.8-1-1.5-1.4-2.5-1.3-3.2-2-6.1-3.2-8.9-4-5.6-8.4-11.2-11.2-18.1-1.4-3.5-3-6.8-4.4-10.3-1.4-3.8-1.5-7.8-2.3-12.4-.4-2.5-1.3-4.8-1.6-7.3-.9-8.4-1-16.8-2.3-24.8-1.7-10.3-4-19.9-8.5-27.5 2.1-4 6.1-6.7 8.9-10.1 1-1.2 2.3-2.5 3.4-3 5.9-2.4 18.3-.9 25.4-.9 8.5 0 18.2-.7 25.9.2 3.8.4 7.7 1.1 11.7 1.4 7.8.6 15.4 2.3 22.9 3.2 3.8.5 7.2 1.8 10.5 2.5 5.1 1.1 11 .6 16.5 1.1 2.1.2 4.4.8 6.6 1.1 7 1.2 14.8 1.7 22 1.6 1.2-14.3 2.7-28.9 4.4-42.6 1.7-13.9 3.5-28.2 4.8-41.9.5-5.2.6-10 1.4-14.7.8-4.6 2-9 3-13.5 2.9-12.8 6.6-25.6 12.4-36.2 1.9-3.4 4-6.7 5.7-10.3 6.3-13.3 17.8-21.5 32.3-23.2 1.8-2.3 4.1-3.9 6.9-4.8 3.8-1.3 6.8-1.2 10.8-1.4 4.1-.2 10-1 15.4-.7 4.3.2 7 .8 10.3 1.8 4.2 1.3 7.5 1.9 11.2 3.9 6.9 3.7 12.3 9.4 17 16.7 2.2 3.4 4.1 7.1 6.2 10.8 6 10.7 7.1 23.8 10.5 36.9 1 4 2.1 8.3 3 12.4.9 4.2 2 8.5 2.5 12.6.6 4.2 1.4 8.6 2.1 13.1 2.6 18.1 1.4 38.3 1.8 58.7 13.6 6.3 20.4 19.3 29.8 29.8 4 2.3 7.9 4.6 11.7 7.1-.1 3.7-3.5 4.8-5.7 7.6-.9 1.1-1.7 2.4-3 3.7-1.2 1.2-2.4 2.4-3 3.7-3.8 9 1.9 19.5 8.7 21.1 4 .9 6.8-3.1 9.9-3.9 1.3-2 3.2-3.7 4.8-5.7 1.6-1.9 2.2-5.3 5-5.3-.2 3.2-2.2 6.5-.9 10.3.5 1.6 2.4 2.9 3.2 4.6 1.8 3.8 2.6 8.5 4.8 11.5 9.9-4 18.9-8.7 28.7-13.3 2.5-1.2 4.6-2.6 7.1-3.4 8-2.8 16.2-4.1 24.5-7.1 1.4-.5 2.2-1.9 3.9-1.6 0 2.9-1 4.7-3.4 6.4-2.4 1.6-6.4 1.7-4.8 5.3 3.5.7 5.8-3.1 8.5-3.2-1 4.5-6.2 4.8-8.9 7.6h-2.1c-2.2 2-5.1 2.9-7.8 4.6-2.5 1.5-4.9 3.7-7.6 4.8-9.8 4-20.6 6.4-30.5 10.8 2.4 4 4.5 8.4 6 13.8.8 3 2.2 6.2 2.5 8.7 1 7.9 0 15.3-3.2 20.6 3.8 5.1 8.5 9.2 11.9 14.7 2.5-2.2 4.6-4.7 9.4-4.6 3.7 1.5 2.2 6.8 0 8.9 1.5 0 2.7.4 3.7.9-.9 1.9-3 2.6-3.4 5 .7 1 1.6 1.9 2.3 3 1.1-.2 1.7 1.8 2.8 1.6 1.9-.3 2.1-4.5 2.3-6.6.3-3-.2-6.4.2-8.9.4-2.2 1.6-4.9 2.8-6.9 2.1-3.8 5-6.7 9.6-7.1-.5 4.6-2.6 9.2-2.5 14.9 0 4.3.9 9 .5 14 2.5-.4 5.5-.2 7.1.9 4-5.6 6.9-14.6 16.3-13.3-1 6.2-5.1 11.8-7.6 17.9-2.7 6.6-5.6 13.8-10.5 17.2-1.2.8-1.3 1.9-3.4 2.5 2.7 6 6.3 11.2 8.9 17.2 4-1.5 7.7-5.3 10.8-8.5-2.1-1.9-.7-4.2-.5-6.4.1-1.2-.3-2.5 0-3.4.5-1.6 2.6-3.9 5-3.2 1.4.4 4.3 6.1 4.8 10.1s-.9 9-4.1 8.5c-1.7-.3-1.8-2.3-3.2-3.7-1.5.6-2.8 2.8-5.3 5-1.1 1-5.4 3.9-5.3 5 .1 1.3 1.6 1.5 2.3 2.5 3.3-1.9 7-3.4 12.6-3 5.7 2.3 8.5 7.9 9.6 14.4.5 2.7-.4 6.5 1.6 7.6-.5 1.1-1.6 1.7-1.4 3-1.2 2.1-3.5 3.6-5.7 5.3-2.1 1.6-3.8 3.9-6 5-1.1.6-2.9 1.2-4.6 1.8-1.6.6-3.6 1.8-4.8 1.6-.8-.1-1.9-1.6-2.8-2.1-3.5-2-8.7-3.6-11-7.6-3.3-5.8-3.8-14.1-3.9-22.2-2.4.8-6.1 2.3-8 4.4 1 4 .7 10.9-3.4 10.8-2.3-.1-7.1-7.8-7.1-10.1 0-2.5 2.7-7.8 5-7.6 1.9.2 2.3 2.9 3.7 4.1 1.9-1.3 4.9-3.4 7.6-4.6-2.9-3.8-5.8-7.4-8.7-11.2-3-4-6.9-6.6-10.3-9.9-1.9-1.8-2.8-4.3-5.5-5-3.4-.9-8 .1-11.7 0-2.8 0-5-.4-8 0-.7.1-1.5.6-2.3.7-.8.1-1.7-.3-2.5-.2-1.9.2-4.1 1.3-6.4 1.8-6.8 1.7-14.4 2.9-19.9 5-3.3 1.2-8.8 3.9-11.2 5.7-1.1.8-1.8 2.7-3 3.2-1.2.6-1.6-.1-2.5 0-3.3 3.6-6.7 7.2-11 10.3-4 2.8-7.1 7.3-10.8 10.8-5.5 5.2-10.9 11.3-17.4 14.9-2.3 1.3-4.4 3-6.6 4.1-1.7.9-4 2-5.7 2.3-4.3.8-10.1.1-13.3-1.4-2.1-1-4.1-3.1-6.4-4.6-6.8-4.4-11.1-12-15.8-17.9-2.6 7.8-2.1 17 0 24.3 1.6 5.6 1.9 10.3 5.7 12.6 3.6 7.6 11.1 12.5 16.7 17.7 1.2 1.1 2.7 1.9 3.9 3 7.5 6.6 14.9 12.9 22.5 19.3 2.5 2.1 5 4.1 7.3 6.4 2.3 2.3 4.5 5.2 7.3 6.6 2.4 3.7 5.6 6.8 8.7 9.9 9 9.6 17.3 20.5 26.7 29.5zM269.4 16c-10.2-2.8-18.3-3.1-27.3-1.6 4.5.4 8.4-.5 12.6 0 2.6.3 5 1.5 7.3 2.1 4 .9 7.5 1.4 10.8 3 3 1.5 5.7 3.4 8.7 5 6.1 3.3 10.3 8.2 14.2 13.3-4.8-10.7-15-18.7-26.3-21.8zm-40.8.7c-.4.2.6.9.2 1.8-.9 1.1-1.5 2.4-3.2 2.8-.6 4.6-2.9 8.8-2.5 13.5 12.1-.2 21.6 4.3 31.4 7.1 4.7 3.2 9.8 6.2 14 9.6 1.4 1.1 2.7 2.9 4.6 3-1-2.5-3.7-3.9-5.7-5.5-6.4-5-13.8-9.2-21.3-13.1h-2.5c-.6-.6.4-1.3-.5-1.6-5.1-1.7-11.4-3.3-18.1-2.8-.1-3.5 5-3.1 8.7-2.8 4.1.4 8.9 2.3 11.2 3 1-.2 1.4-1.7 2.8-.9.7.6-1.4.7-.5 1.6 12.4 5.4 21.6 14.2 31.2 22.5.7.8 1.1-.6 1.6 0 1 1.6 1.9 3.4 2.8 5.3.8 1.7 1.3 4 3 5-.4-4.1-2.5-7.8-4.6-11-6.3-9.7-15.7-17.4-24.1-24.1 4.6-.5 8.2 3.2 11.7 3.9 7.5 7.4 14.1 16.4 19 25.9.6 1.2.8 3.6 2.8 3.9-4.3-10.9-11-20.7-18.3-28.2-1-1-2.7-1.8-2.8-3.4 2.4-.8 3.9 1.7 5.3 3 4.5 4.3 9.5 8.5 12.6 13.8 6.4 6 7.4 16.7 10.3 25.7-2.3-13.7-4.3-26.4-12.1-35.1-3-3.3-7.4-6.1-11.9-8.5-4.5-2.3-9.6-4.7-14.9-5.7-6.4-1.2-13.8-.7-21.1-1.8.1-1.3.8-2 1.6-2.5 30 .5 49.3 9.2 56.2 30.7 2.7 8.6 3.7 19.4 6 28.4.5 1.9.4 4 .9 5.7.3.9 1.2 1.8 1.4 3 .1.7-.3 1.6-.2 2.3.1 3 1.4 5.8 1.6 8.7.8 10 4 19.5 2.8 31.4-3.3-4.2-8 .1-5.3 4.8.5.5.8 0 1.6.2-.1 0 1.4.6 1.1.7.1 0 .9-1.3 1.1-1.6.5-.5.9-1 1.4-.9.4 13.1-1.2 24-1.8 36 1-4.2 1.6-8.8 1.6-14 .7-.5.7-1.6 1.8-1.6.2 6.2-.9 10.1-1.1 15.6.7.4 1.5.7 2.5.7.1-13.6.6-26.6 0-39.9-.3-7.6-1.8-13.8-2.3-20.6-.5-7.8-1.2-15.1-2.3-22.5-2.5-16.5-5.7-31.8-11-45.8-7.1-11.5-18.9-19.6-33.9-23.2-2.8-.7-5.7-1.7-8.3-2.1-4.4-.7-10.6.1-14.4-.2 0-2.9 2-2.1 3-2.8-6.7.1-9 .8-13.1 2.6zm-20.9 8.9c-8.8 5.1-12.5 14.3-17.7 23.6-5.2 9.5-8.6 20-11.5 31.4-1.1 4.4-2.3 8.9-3.2 13.3-2.2 10.9-2 23-3.9 35.1-.5 3.4-1.1 7.1-1.4 10.5-.3 3.7-1 7.3-1.4 11-1.6 16.3-3.1 33.3-5 48.8 1.5-.1 3.5.3 4.6-.2 1.6-6.8 1.9-14 2.5-21.3.4-5.1 1.8-10.1 2.3-15.4 1-11.1.8-22.5 2.3-33.7.8-5.6 1.4-11.1 1.8-16.5.3-2.9.3-5.6.9-8.3.5-2.5 1.4-4.8 1.8-7.3.3-2 .2-4 .5-6 .2-1.8.9-3.5 1.1-5.3.4-2.2.1-4.5.7-6.6 1.2-4.6 4.2-9 4.1-13.5 0-1.3-.5-2.4-.5-3.7.2-5.8 3.7-7.9 6.2-12.1 3.5-6 4.9-12.6 10.1-15.8.1-3 3.1-4.7 5.7-6.6 2.1-1.5 4.1-3.1 6-3.7 2.4-.7 5.1-.2 7.1-1.8 1.8.2 3.4.2 3-1.1-3.3-.2-13 3.4-16.1 5.2zm11.7 0c-2.1 2.2-1.1 7.5-3.2 9.6-1.8.2-3.7.3-4.1 1.8 1.5-.3 4.3-.5 5.7 0 0 2.7-1.6 3.8-3.2 4.8v3c-.8 1.8-3.1 1.5-4.8 2.3-.7.3-2 1-2.8 1.6-7.4 5.6-11.3 12.8-16.5 21.1-.3 1.6-.4 3.5-2.3 3.4 1.3-6.6 6.4-11.2 9.2-17 4.5-4.7 8.7-9.8 15.1-12.6-.9-2.4 1.8-3.5 1.1-4.1-3.3.3-7.5.8-8 3 1.6-1.1 4.7-2 6.6-2.1 0 3.2-3.2 2.9-5 3.4-2.8.9-6.2 2.8-8.5 4.8-1.1 1-1.7 2.4-2.8 3.4-3.5 3.3-7 6.4-7.8 11.7 2.1-1.8 1.7-6 4.6-6.9-.9 3.7-3 6.8-4.1 10.5-1.1 3.7-2.6 7.6-2.3 12.1.5-1 .9-2.2 1.8-2.8 1.7-6.5 6.1-12.5 10.5-18.1C203.4 53 210 47 218.5 46.9c0 1.3-.6 2-1.4 2.5-2.4-.1-3.3.5-5 1.1-6.7 2.4-10.9 7.4-14.9 12.6-1.4 1.8-3.2 3.5-3.9 4.8-1.2 2.2-2 5.2-3.2 7.8-1.2 2.5-3 4.8-3.9 7.3-2.8 7.8-3.4 19.3-4.4 29.8-.5 5.2-1.2 10.6-.5 16.3.6-2 .1-4 .5-6.6.3-2.5 2.1-4.9 2.8-7.8.5-2.3.7-5 1.1-7.6.4-2.5 1.1-4.9 1.4-7.3 1.3-11.9 4.9-21.4 8.7-30.5 1.9-4.5 3-7.8 5.5-10.8 3.2-3.8 10.5-7.5 17.2-8 2.4-.2 5.6.8 6 2.3.6 2.7-2.9 3.3-3.7 5.3-22.3 2.3-22.4 25.5-25.2 46.8 1.2.6 1.3 2.6 1.8 4.1.5 1.5 1.4 3.1 1.8 4.8.9 3.4.4 7.2.9 11.5.4 3.4 1 8.2 1.6 11.7.5 2.7 1.7 5.3 2.5 8 2 6.6 5 13.3 8.7 18.1 1.2 1.6 3.2 3.7 5 5.3 2 1.7 4.6 4 6.6 5 2.9 1.5 6.6 2.7 10.1 4.4 5 2.4 9.9 5.5 14 6.9 7.6 2.5 15.5.5 22-5.3 7-6.3 12.9-13.5 19.5-19.7 2.5-5.1 6.6-11.6 7.6-18.8 1-8 0-16.3 0-24.5 0-7 2.6-13.8 2.1-20.4-.3-3.6-2.3-6.3-2.3-9.9-1.9-1.8-3.7-4.8-6.6-4.8-3.8-4.4-9.5-6.1-14.4-9.2-6.2-3.8-12.4-7.9-18.1-11.9-8.6-3.6-17.7-6.7-27.3-8.9-3.1-2.2-7.2-3.1-9.2-6.9-.5-.9-.8-2.5-1.4-3.4-.1-.1-.2-.4-.2-.5-1.1-5.8 1.7-11.4 2.3-16.3-.5 1-2.3.8-3.2 1.4zM208.7 30c2.4-.7 4.2-1.9 7.3-1.8-.3-1 1.2-1.4.5-2.1-2.4 1.5-5.4 2.4-7.8 3.9zm.6 4.5c2-.7 4.2-1.3 6.4-1.8v-1.8c-2.8.5-4.2 2.4-6.4 3.6zm-13.9 10.8c-.1.2-.3.6 0 .2 1.4-.9 2.1-2.5 3.7-3.2-.2-.7.4-.7.2-1.4 3.6-3.1 7.1-6.2 10.8-9.2-7.1 2.5-12.2 6.8-14.7 13.6zm27.9-7.8c-.2.1-.3.2-.2.5 5.6 5.4 19.4 6.4 28.9 9.4.5-.6.5-1.6 1.1-2.1 8.5 5.4 17.5 10.8 25.4 16.5 1.1.8 2 2.5 3.7 2.1-1.7-2.7-4.7-4.4-7.3-6.2-8.1-5.5-16.3-10.9-25.2-15.4-1.2-.1-.4 1-1.1.9-7.8-2.5-15.3-5.4-25.3-5.7zm-33 18.6c2.9-3.5 7.8-9 11.5-13.3 2.4-1.1 3.9-3 5.7-4.6-7.7 4-13.7 9.6-17.2 17.9zm106.8-16.5c-.6-.1.5 1.7.9 2.1.2-1.2-.9-1.1-.9-2.1zm-66 7.3c6.7 1.5 13.1 4.3 19.7 6.2 1.3.4 3 .5 4.4 1.1.7.3 1.2 1.1 1.8 1.4.9.4 1.9.2 2.8.7.7.4 1 1.2 1.6 1.6 1.1.7 2.3.9 3.4 1.6 1 .6 1.7 1.6 2.8 2.3 2.9 2 6.4 3.4 9.4 5.3.8.5 1.3 1.8 2.5 1.6-3-3-7.8-4.3-10.5-7.6 0-.6.4-.7 0-1.1-10.2-8.1-25.4-12.5-40.6-14.9 1.1.3 2 1 2.7 1.8zm70.6 6.9c3.9 15.4 6.8 33.5 8.5 52.7.8 9.5 2.3 19 2.5 28.9.2 10.2.7 20.7.2 31.2-.1 1.9-1.4 6 1.8 5.7.9-17.2-.6-36.4-1.8-52.7-.4-5.7-.3-11.5-1.1-16.7-.3-1.9-1.7-4.5-1.1-6.6.4-1.3 1.7-1.2 2.1-2.1-2.8-14.7-6.3-27.8-11.1-40.4zm-118.3 98.1c.7-11.9 3.8-23.7 5-35.3 1.1-10 3.5-19.1 5-28 .5-2.8.7-5.8 1.4-8.7.2-.8 1-2 1.4-3 3.7-9.4 9.5-17.1 16.7-22.5h-.5c-3.1 1.1-7.7 2.4-10.1 4.8-2.8 2.8-3.7 7.2-5.3 11-2.1 5-4.7 9.7-6 15.6-.6 2.9-1.6 6-2.1 8.7-.6 3.3-.4 6.7-1.1 10.1-.7 3.3-.9 6.8-1.8 10.1-.5 1.8-1.6 3.5-2.1 5.3-.6 2.5-.4 5.4-.9 8.3-.4 2.7-1 5.5-1.4 8.3-1.9 14.5.9 29 2.1 40.3 1.1 1.6 1.2 4.2 2.1 6-1-10.5-3-20.4-2.4-31zm29.2-94.2c2.3-.3 4.8-1.8 6.9-1.6-2-1.6-5.1-.1-6.9 1.6zm-2.1 1.4c-2.1 1.7-.1.5 1.4-.9-.9.2-1 .5-1.4.9zm-28.2 34.1c1.1-5.3 2.5-10 2.1-16-.2 5.1-2.5 10.5-2.1 16zm15.1-12.4c.2-.8.8-2.4.5-3-.4.7-.9 2.4-.5 3zM178.9 115c-1.2 12-3.1 24.8-3.4 36.9-.3 8.2-1.5 16.2-2.3 24.1-.8 8.1-1.5 16.1-3.4 23.4 3.7-.3 6.4.5 9.9.5-1.5-16-1.4-34.1-.5-51.3.5-9 0-18.1.2-26.8.2-8.6 2-16.6 2.3-24.3-2.3 5-2.2 11-2.8 17.5zm14.4-12.4c0-1.8 1.1-3.6.7-5-.2 1.5-1.3 3.4-.7 5zm120.6 3.2c1.7 0 .4-2.7 0-3.4v3.4zm1.6 1.2c3.8 18.2 5.2 39.5 5 62.6 0 .2.3.2.2-.2-.1-11.6.2-22.7-.7-33.2-.4-5.3-.3-10.5-1.1-15.4-.8-4.8-2.2-9.5-2.3-14.2-.2 0-.3-.2-.5-.2-.3 0-.5.2-.6.6zM301 125.3c1.4.7 1.3 2.8 3.7 2.5 1.3-7.7-.5-15.1-2.5-20.6-.2 6.2-1.5 11.3-1.2 18.1zm-108.8-4.6c1.1 4.5 2.7 9.6 3.4 15.1 1 .9 1.9 1.9 3.4 2.3.5-1.4.1-3.7-.2-5-.1-.7-1 .8-1.1 0 1.1-4.5-1.6-8.1-2.3-11.9-.5-2.8-.2-5.5-1.1-8.3-.7 3-1.4 5.4-2.1 7.8zm124.7 48.2c0 2.1-.5 5.1 2.1 5.5-.8-19.6 0-40.2-4.1-56.2 1.7 15.2 2 33.5 2 50.7zm-16.1-36.7c.1-.5.6-.4.7-.9-.5 0-.3-.6-.9-.5.1.4-.3 1.4.2 1.4zm-106.1 13.1c2.5 0 3.6-4.5 1.6-6.4-5.5-1.3-4.4 6.3-1.6 6.4zm-8.7 14.6c.5-1.8.1-6.6.2-9.6.3-1.5.5-3.1.5-5 .2-1.3-.4-1.3-.2 0 0 1.5-.5 3.6-.2 4.6-.6 2.8-.2 6.7-.3 10zm117.8 7.1c-.1-2.7.8-6.8.2-8.5.2 3.2-1.5 5.8-.2 8.5zm-117.4-4.8c-.1-.5.4-1.6-.5-1.4.2.5-.3 1.6.5 1.4zm11 6.7c-.6-2.5-.5-5.8-1.8-7.6.6 2.5.9 5.4 1.8 7.6zM181.6 200c1.7-.1 3.1.1 4.6.2-.2-7.6-2.6-14.6-4.1-21.3-1.2-5-.8-10.6-2.1-15.4 0 12.8 1 24.5 1.6 36.5zm91.2-19.9c.5.9-.3 1.9 0 2.3 4.5-3.9 9.8-7 15.4-9.9.2-2.7.6-5.1.5-8-5.8 4.8-10.5 10.5-15.9 15.6zm-85-6.6c0-1.1-.1-2.1-.5-2.8.1 1 .1 2 .5 2.8zm1.4 10.3c.6-2.7-.9-6.7-1.4-9.9.5 3.8.4 6.9 1.4 9.9zm160.4 27.5c-9.9-11.5-17.4-25.4-33-31.2-5.9-6.8-22.3-4.6-29.6-1.8 2 5.7 6.3 11.2 9.9 16 2.2 5.5.5 11.4-2.5 15.1-.7.9-2.7 2.5-4.4 2.1-.7-.2-2.1-2.1-3-3.2-4.6-5.6-9.2-12.3-12.4-18.6-1.7-.5-2.1-2.2-3.4-3-1.6.7-2.4 2.2-4.1 2.8-5.6 7.6-12.1 16.3-13.1 28.4-1 13.5 5 23 10.3 30.3 2.9 5.4 6.8 10.3 9.4 16 1.5 3.2 2.3 6.7 4.1 9.9 2.6-3.6 7.6-8.4 12.6-10.8 1.8-.8 10.9-2.8 13.5-1.4 4.8 2.5 8 5.2 10.8 10.1 2.8 5.1 2.6 15.2-.5 20.6 4 .8 7.4-.9 11-2.3 7.8-3.1 15.7-6.5 23.2-9.4-13.4-19.1-28.9-36-45.4-52-1.9 1.9-5.2 2.5-9.2 2.3-.8-1.2-2.8-1.2-3.9-2.1-.2-2.1 2.2-2.6 3.4-3.7 1.2-1 2.1-2.4 3.4-3.2 1.8-1.1 3.9-1.7 5.5-3 3.2-2.4 6.2-5.3 8.9-8 1.4-1.4 3.2-2.8 4.4-4.1 1.4-1.6 1.6-3.9 4.1-4.4 2.1 3 2.4 12.2-.7 13.1 3.2 5.1 7.6 9.2 11.7 13.5 8.2 8.7 16 17.7 23.4 27 4 5.1 8.8 11.1 13.3 15.1 5.6-2.8 11.3-5.3 16.7-8.3-2.9-3-2.5-7.3-4.6-10.5-1.5-2.4-4.2-4.4-3.2-8.5-2.4 2.4-5.4 5.8-8.9 7.8-3.7 2.1-6.7 3-10.3 1.4-2.4-1.1-5.9-5.7-7.1-7.8-1.9-3.4-2.8-8.5-2.3-12.4 1.1-8 7.3-12.1 11.7-16.3-3.4-1.4-6.1-3.9-9.7-5.5zm-88.4-22.9c-6.7 2.3-14.7-.1-19-2.3-6.7-3.4-14.5-6.8-20.4-9.6.7 6.6.9 14.5.9 22 0 3.3.9 7.4-1.1 8.9-.1-1 .3-2.6-.2-3.2-3.6 13.1.1 26.6 2.3 38.3 1.3 6.7 2.3 13.4 4.1 18.3 1.9 5.1 5.2 9.7 6 15.1 4.7 7.5 7.2 17.2 11.9 24.8 3.6-6.1 6.3-12.9 9.6-19 1.2-2.2 1.6-4.7 2.5-7.1.7-1.9 2.5-3.7 3.2-6.4.4-1.8.3-4.4.9-6.2.4-1.1 2.3-3.6 2.3-4.1 0-.2-1.9-2.5-2.3-3.2-.8-1.4-1.8-2.7-2.3-3.4-1.8-2.6-2.7-4.9-3.9-7.3-1.7-3.5-3.8-7.1-4.8-10.3-3-9.5.8-21.5 3.2-27.7 3.2-8.2 9.9-15.3 14-21.5-2.5 1.3-4.3 2.9-6.9 3.9zm15.1-4.9c2.9 2.1 3.6 6.5 6.2 8.9 2.7 5.6 6.8 9.9 10.8 14.2 2.2-4-.1-8.3-1.8-10.5-3.4-4.5-7.8-11.9-9.4-16.5-1.9 1.5-4.3 2.3-5.8 3.9zm-87.1 21.6c-6.1-.3-12.2-.5-18.3-.9-7.2-.4-14.5.3-21.5-.2-3.4-.3-6.7-.6-10.1-.9-3.2-.3-6.3-1.3-9.4-1.6-5.3-.4-11 .1-16.5-1.1-2.6-.6-5-1.8-7.6-2.3-3.4-.7-7.1-1.2-10.8-1.6-6.4-.8-12.8-1.5-19.9-2.1-2-.1-4-.9-6-1.1-7-.9-15.1-.2-22.9-.2-7.8 0-16-.6-23.2 0-.8.1-2.8.3-3.9.7-2.8 1.1-4.4 4.5-6.4 6.9 2.8 5.2 4.4 11.5 5.7 18.1.8 3.7 1.6 7.4 2.1 11.2 1 8 .9 16.4 2.3 24.5.2 1.3.9 2.6 1.1 3.9.8 4.8 1 8.4 2.3 11.9 1.2 3.4 2.6 6.7 4.1 10.3 2.2 5 5.2 9.3 8 13.5 1 1.5 2.2 2.8 3 4.4 1.7 3.2 2.4 6.9 4.4 9.6 3-2 7.4-2.9 11.9-4.1 1.3-.4 5.7-1.1 6.4-2.1.8-1.2-.3-5.1-.5-7.3-.8-12.6-.6-29.3 1.1-41-4.3-1.5-.1-4.3.5-6.6.5-2.1.2-5.5.2-8.5 0-8.2-.2-15.5-2.8-20.2.8-1.5 1.4-3.4 3.4-3.7 3.8 5 2.9 14.8 3.4 23.2 1.5-4 .6-10.4 5.3-11.2-.2 4.9-1.1 8.4-2.8 11.9-.8 1.7-2.5 2.9-3 4.6-.6 1.9 0 4-.2 6.2 8 2 17.6 5.5 26.8 6.6 3.3.4 7 .2 10.3.9 1.8.4 3.8 1.6 5.7 2.1 2.4.6 4.9.5 6.9 1.1 1.1.4 2 1.3 3.2 1.8 1.3.6 2.7.7 4.1 1.1 2.6.9 5.5 2.6 7.8 2.5 1 0 2-1.2 3.2-.9 3.3 6.7 1.9 16.5 2.5 25 .9 12.3.5 26.2 1.6 39.4.9 11.4 1 22.8 1.4 33.9 11.8-4 23-7.9 33.7-12.8 5.4-2.5 10.7-4.9 16-7.3 3.9-1.8 7.5-4.6 11.2-6.2 1.4-.6 3.1-.7 4.6-1.4 2.2-1 4.2-2.6 6.4-3.7 1.1-.6 2.5-.8 3.7-1.4 9.1-4.2 19.2-7.2 28.7-11.7-1.5-2.7-4.5-3.9-6.9-5.5-2.7-1.7-4.3-3.9-6.6-6-3.9-3.4-9-5.4-12.4-9.4-1.9-1.5-3.5-3.3-5.5-5.3-1.8-1.8-4.2-2.8-6.4-4.6-3.2-2.4-6.4-6.2-9.4-9.2-.9-.9-3.1-2.6-3.2-3.2-.3-1.6 3.6-6.7 4.4-7.6 2-2.2 4.5-3.3 5.5-5.3-4.1-4.2-12.1-4.6-18.3-6.6 7.2-15.5 14.9-30.5 17.9-50.2-5.1 1.3-10.9-.1-16.3-.3zm20.1-.7c-3.5 18-9.6 33.3-17.2 47.2 7.7 1.1 13.7 3.2 19.3 6 1.8-1.6 2.9-3.5 4.4-5.5 1.2-1.6 3.7-3.8 3.9-6.2.2-2.3-1.3-6-2.1-9.2-.8-3.1-1.4-6.7-1.6-9.9-.6-9.4 1-16.6 1.6-24.1-2.5 0-6 .7-8.3 1.7zm87.4 22c11.4.3 12.9-9.3 20.9-12.4 0-1.9-.1-3.6-.7-4.8-6.4 6.1-12.1 12.8-20.2 17.2zm20.6-5.3c4.9 6.2 10.1 12.8 16 17.7 5.6 6.9 11.3 14.9 17.7 20.4-5.5-7-11.7-13.7-17.4-20.6-5-6-10.8-12-15.4-17.9-.7-.9-1.2-2.4-2.1-2.3-.5.9.7 2.1 1.2 2.7zm20.9 26.2c-7.1-9.5-16.6-17-23.2-27-.2 0-.3-.2-.5-.2-.7.7-1.3 1.4-2.3 1.8 2.7 2 4.1 5.1 6.2 7.6 2 2.5 4 5.4 6.2 7.6.7.7 1.8 1.1 2.5 1.8 11.8 11.4 21.1 24.9 32.3 36.7.6-.7 1.7-.9 2.3-1.6-7-9.7-16.4-17.2-23.5-26.7zm70.1 91.2c-2.6-3.3-4.8-7.2-7.3-10.5-3.4-4.5-7.5-8.5-11.2-12.8-7.4-8.6-14.4-17.6-21.5-26.4-10.9-13.3-21.9-26.3-33-39-4.9-5.6-10.4-10.6-14.9-16-3.2-3.9-6-7.8-9.4-11.5h-.5c-.3.1-.5.2-.7.5-.7.1-.2 1.3-.7 1.6 1.2 2.7 3.9 4 6 6 7.9 7.5 15.6 17 22.5 25.2 11.9 14.2 23.3 28.8 35.3 42.9 6.4 7.5 12.4 15.4 18.6 23.2 6.2 7.8 12.6 15.4 17.9 23.8.4-1.6 1.5-2.5 2.1-3.9-1.9-.2-2.4-2.1-3.2-3.1zM308.1 229.2c9.8 9.4 19.1 19.8 28 30 3.2 3.7 6.1 8 9.2 10.5v.5h-.2c0-.3-.3-.1 0 0 .8.4 3 2.9 4.1 4.4 5.7 7.7 11.1 16.9 17.6 25 6.9 8.6 13 18.2 20.4 25.7 1.6 2.5 3.5 4.7 5.5 6.9.6 3.9 4.3 5 6.4 7.6 2.9 3.6 4.7 7.6 7.8 10.8.5-1.3 1.2-2.3 1.6-3.7-2.4-1.7-3.6-4.6-5.3-6.9-1.7-2.4-3.7-4.7-4.8-7.6-20.8-25.5-41.5-51.4-62.6-76.3-7.1-8.4-14.1-17.1-21.8-24.5-1-1-2.5-2-3.7-3.2-1-1-2.5-3.2-3.9-1.8-.3.9 1.1 2 1.7 2.6zm124.3 18.3c-8 2.1-14.7 5.6-21.5 9.2-6.4 3.3-13.3 5.4-19.5 9.2 1.6.9 1.7 3.4 3.4 4.1 8.2-3.4 21.5-7.9 30.9-11.2 1.3-.5 2.4-.5 3.4-1.1.7-.4 4.6-2.9 4.8-3.9.3-1.1-.7-1.2-.9-2.3-.3-1.4.2-2.6 0-3.9h-.5c0-.1 0-.1-.1-.1zm-218 10.3c-2.1 2.3-3.9 4.9-6 6.9-2.5 2.4-6.1 3.9-7.6 7.3 4.2 3 7.3 7.5 11.2 10.8 1.8 1.5 4 2.4 5.7 3.9 5.2 4.4 9.4 10.4 15.8 13.3 3.5 3 6.4 6.6 10.5 8.9-2.5-4.8-5.3-9.4-7.3-14.4-2-5.1-4.6-9.9-6.9-14.9-1.1-2.5-1.8-5.3-2.8-8-.9-2.6-2.5-5-3.4-7.6-1.6-4.3-2.2-9.1-3.2-13.8 0-.1 0-.3-.2-.2-1.4 3-3.6 5.4-5.8 7.8zm222.1-5.3c.5-.1 1-.2 1.1-.7-.3 0-.2-.4-.2-.7-.8 0-1 .5-.9 1.4zm-303.7 18.1c-4.5-1.3-9.4-2-13.8-3.9-1.2-.5-2.2-1.6-3.4-2.1-2.1-.7-4.8-.7-7.3-1.4-1.9-.5-3.7-1.5-5.5-1.8-3.1-.6-6.3-.4-9.4-.7-8.7-.9-16.9-4.5-25-6 0-.1 0-.3-.2-.2v.7c-1.4 10.7-1.5 23.8-.7 35.8.3 4 1.5 8 .9 11.5-.2 1.1-1.3 2.3-1.4 3.4-.1 1.6.7 4.5.9 6.6.3 2.4.6 5 .9 6.9.7 4.8.7 9.2 1.6 13.8.2 1.3 1 2.6 1.4 3.9 1.4 5.1 2.6 8.8 4.6 13.1 3.1 6.6 5.7 14.3 7.3 22-.6 3.1-.2 11.2-1.4 14.7 4.9-.6 8.7-4.1 13.1-5.7 3.7-1.3 7.5-2.1 11-3.9 10.1-5.1 20.9-8.7 31.9-12.8.1-11-.4-22-1.4-33-1.7-20.5.3-40.3-2.5-59.1-.3-.8-2 .1-1.6-1.8zm128.6 1.9c-1.1 2.8-1.7 5.5-3 8-3.8 7.6-7.5 14.8-10.5 22.5 13.1-7.3 27.4-13.4 40.8-20.4-.8-4.4-3.1-7.3-3.7-11.9-1.6 1.1-3.9 2.3-5 4.8-1.1 2.6-.7 6.7-4.4 6.9-2.8-8.1-6.1-15.6-10.1-22.5.4 5.1-2.6 8.6-4.1 12.6zm51.3 14.9c.8-9-3.6-16.2-8.3-19-1.6-.9-3.8-2-6-1.6 7.1 4.6 11.3 12 14.3 20.6zm57.8-11.7c.9.7 1.3 1.9 2.3 2.5 4.9-2.7 10.4-4.7 16.5-6.2-.6-1.8-2.3-2.6-3-4.4-5 3.1-10.8 5.1-15.8 8.1zm-77.5 6.4c-.4 3.1-3.2 3.8-5.7 4.8-2.1.9-3.9 2.6-6 3.4-.9.3-2 .3-3 .7-2.2 1-4.3 2.9-6.6 4.1-2.8 1.4-6.1 2.3-8.9 3.7-5 2.5-9.7 5.3-14.2 7.1 1.6 3 1.2 7.9 3.2 10.5 9.6-1.4 19.1-4.9 28.7-8.5 4.2-1.6 8.6-3.7 13.1-6 5-2.5 13.5-3 16.3-7.3-1.9-8.6-6.5-17.1-12.6-22.2-1.8-1.5-4.8-3-7.8-2.8.7 4.4 4.1 8.1 3.5 12.5zm108.2 21.1c-.8-2.5-.2-5.5-.9-7.6-2.5-7.6-4.8-17-9.6-21.3 0-.1 0-.3-.2-.2-5.4 2.1-11.9 3.3-16.5 6.2 7.2 10.8 15.3 20.8 22.9 31.2 1.6-2.6 3.2-5.2 4.3-8.3zm-39-24.1c.3 1.2 1.5 1.6 1.8 2.8 1-.4 2.2-.6 2.8-1.4-.7-.7-1.1-1.8-1.8-2.5-.9.4-1.7.9-2.8 1.1zm48.6 57.1c-6.3-8.9-12.7-17.3-19.5-25.4-5.9-7.1-11.1-14.8-17-21.5-2-2.2-3.9-4.7-6.4-6.2-.8.1-1.2.6-2.1.7 12.1 14.8 23.9 29.9 36.9 43.8 2.9 4.4 5.7 10 9.6 12.6 1.2-1.7-.7-2.9-1.5-4zm-59.6-51.1c-8.3 4.4-18.2 7.2-26.8 11.2 1.4.4 2.4 1.1 3.4 1.8 8.3-3.7 16.8-7.4 25-11.2-.7-.4-.5-1.7-1.6-1.8zm20.9 29.1c-.7-1-.9-2.2-1.6-3.2-5.1-7.3-11.9-13.6-16-21.8-.2 0-.3-.2-.5-.2-7.9 3.7-16 7.2-24.1 10.8 1.1 1.9 2.8 3.2 4.6 4.4 1.8 2.9 5.1 5.8 7.3 8.3.9.9 1.2 2.2 2.1 3.2 1.7 2 4.6 3.5 6.6 5.7 2.1 2.3 3.9 4.3 6.2 5.5 3.5 1.8 8.9 2.5 14.2 1.8.7-.1 1.3-.6 2.1-.7 3.3-.5 7.7.3 9.9-1.8-3-4.5-7.8-7.5-10.8-12zm-55.2-15.4c-3.3 1.6-7.2 2.7-10.3 4.6 5.1 2.5 10-1 14-3-1.6-.1-2.3-1.3-3.7-1.6zm36.4 32.8c-3.3-1.7-5-4.5-7.8-7.1-5.2-4.8-10.5-10.7-14.2-15.8-3.2-1.5-4.8-4.7-7.8-6.4-3.1 1.1-6.1 2.3-8.9 3.7 7.3 4.8 14.7 9.6 20.2 16.3 1.1 2.4 2.8 4.5 4.8 6.6 2.6 2.8 4.5 6.6 8.7 7.1 3.7 2 8.9 3.7 14.4 2.8 4.1-.7 9.9-4.5 12.8-6.2-7.2.7-16.4 2.1-22.2-1zm-86.2-13c-5.3 1.3-10.3 3-14.9 5-.5-.4-.4-.8-1.1-.5-.2 4-2.3 6-3 9.4 19-7.5 36.8-16.2 55-24.5-.8-.4-1.8-.5-2.8-.7-.4-.8 0-1.1-.2-1.8-11.8 3.5-21.2 9.5-33 13.1zm-204.2 101c.5.1 1.7-1.2 2.1-2.1-.6-.1-1.4.7-1.8 0 .9-1.2 2.3-1.8 3.4-2.8 4.4-6.4 7.8-13.3 10.8-21.3 1.7-4.5 2.1-9.9 2.1-16 .2-.9-1-.4-.7-1.4.2-3.1-1.3-5.8-.7-8-.9-3.2-2.5-6.2-3.4-8.7-.4-1.1-.5-2.5-.9-3.7-1.4-3.6-3.6-7-4.8-10.8-.4-1.4-.5-2.9-.9-4.4-.4-1.4-1.1-2.8-1.4-4.1-.4-2.4-.3-5-.7-7.6-1.1-7.2-1.9-14.3-3-21.8-5.8 1.2-11.9 2.2-16.5 4.6-.5 6.6 2.2 12.5 3.7 18.6 1.2 5.1-.7 9.8-1.1 15.1-1.1 12.1 1.7 23.4.5 34.4-1.8 16-9.2 28.9-9.9 44.2 1.1-4.1 3.6-8.3 4.6-12.6.4-1.6.9-2.9 1.4-4.4 1.8-6.1 2.4-12.8 4.1-18.1.6-2 1.8-4 3.9-4.4.5 3.1-.9 5.9-1.4 8.7-.4 2.3-.2 4.6-.7 6.9-1.5 7.4-5 14.3-5 22.7 4.2-2.5 4.4-10.9 7.3-15.4 1.3-6.2 3.5-13.7 4.6-20.4.5-2.9.3-6.6 3.9-7.1-.5 12.1-1.5 23.4-4.8 33.5-1.2 3.7-3 7.1-3.2 11 1.5-.1 2.1-.9 2.3-2.3-.2-.6-1.7.1-1.4-.9.1-1 1.8-.4 2.5-.9 3.8-10.3 8.6-20.5 10.3-32.6.3-2.1.3-3.3 1.1-5 1.2-.6 2-2.8 3.2-2.1-.4 15.2-7.4 25.4-9.5 39.2zm235.6-84.8c-1.8 1.8-3.5 3.9-5.7 6.4-1.6 1.8-5.3 5.1-5.3 6.9 0 1.1 1.3 2.5 1.6 3.4.2.5-.1 1 0 1.6.2 1.1 1.6 3.1 2.5 5 1.6 3.5 1.9 6.5 4.1 8 .1 2.5.7 4.5 2.1 5.7 7.5-1.6 14.1-5.1 20.9-7.6 6.9-2.5 13.6-5.4 21.1-7.3.5 1 .5 2.4 1.4 3 4.5-2.3 9-4.5 14.2-6.2 3.6-1.2 6.8-2.7 10.3-4.4 8.9-4.3 16.3-9.7 28.2-9.9-2.4-3.6-5.2-6.7-8-9.9-5.5 4.3-14.9 10-22.9 13.1-2.1.8-5.8.9-8.5.7-4.2-.3-6.3-1.6-9.2-2.8-1.5-.6-2.6-.4-3.7-1.1-2.1-1.5-3.7-4.2-5.5-6.2-1.9-2.1-3.7-4.3-4.8-6.9-4.8-5-10-9.6-16-13.3-2.6 10.3-10 15-16.8 21.8zm135.3-7.1c-.4 2.1 0 5.1-.2 8-.2 2.7-1 5.4-1.1 7.8-.2 2.9.3 5.6-.2 7.6-1 3.8-7.2 5.8-10.1 4.8 1-1.5 3.5-1.4 5.3-2.1-1.7-.6-3.7-.9-5-1.8-.4-.7.1-1.4-.2-1.8-1.2.2-1.6-.4-2.8-.2-1 6.6-2.6 12.7-8.7 14.2 10.5.1 26.7 2.6 27.3-6.9.3-1 1.1-1.5 1.4-2.5-2.4-6.5-1.4-21.2-1.4-28.7-3.4-2.4 2.5-5.8 1.8-8.9-2.6 2.6-5.2 5.4-6.1 10.5zm-33.3-7.8c1.2 1.3 2.4 3.7 3.7 4.1-1.2-1-3-3.9-3.7-4.1zm-184.7 16.5c-3.7 1.7-7.1 3.8-10.5 5.3-2.1.9-4.4 1.3-6.4 2.3-3.2 1.6-6 3.8-9.2 5.3-6.8 3.1-13.6 6-19.9 9.2-3.5 1.7-6.9 2.6-10.8 3.9-5.7 1.9-11.2 4.9-17.4 6.4-1.2 4.4-3 8.2-5 11.7 7-.7 13-4.1 19.3-6.4 3.2-1.2 6.6-1.8 9.9-3 3.1-1.1 5.9-3 8.9-4.1 6.2-2.2 11.9-4.2 17.7-6.9 17.7-8.1 34.7-17.3 52.3-25.4.7-3.6 3.1-5.6 2.8-10.3-10.8 3.9-22.3 7.6-31.7 12zm199.2-5.2c.8 1.7 2.1 2.8 3.2 4.1 3.3-.3 5.5-6.3 2.1-8-1.3 1.8-3.4 2.8-5.3 3.9zm46 2.3c-5.1-.1-6.6 4.4-8.5 7.6-.9 1.6-2.5 2.9-3.2 4.4-1.5 3.2-2.2 7-3.9 9.2-1.7 2.2-4.4 2.4-5.5 4.8-.5 1 0 2.1-1.4 3.2-3.1.7-5.4 2.1-8.3 3 6.2 1.7 13.3 2.3 17-1.4 1.5-1.5 3.6-5.5 4.6-7.6 1-2.1 1.9-4.9 3-7.3 1.1-2.5 2.9-5.4 3.2-7.1.3-1.6-.3-2.9.2-4.1.8-2 2.9-2 3.2-4.4-.1-.1-.2-.3-.4-.3zm-46.5 4.3c-.3-1.4-2.5-3.3-2.5-3.4.7 1.2 1.4 2.5 2.5 3.4zm1.6.2c-.2.7-.9.8-.5 1.6-5.1 3.5-4 12.7-11 14.2-2.2.5-4.5 0-6.6.2-2.8.3-4.8 1.8-7.3 1.6 2.2-3.3 8.3-2.8 12.8-3.9-2.6-3.3-5.6-6.3-7.8-10.1-8.5 1.8-18.4 2.2-24.1 6.9.4 0 .8 0 .7.5-3.8 3.6-9.8 4.6-15.1 6.4-5.4 1.8-10.7 3.9-15.4 6.2.4 1.4.8 3.3 2.1 3.2.5 1 .2 1.1 0 2.3.7 3.1 2.8 4.9 3.7 7.8.6.5 1.3-.4 1.8.2.4.4.2 1.5.2 2.3 1.8-.2 2.6-1.7 3.9-2.5 6.7-4.2 15.1-7.1 24.1-8.9 6.5-1.3 13.9-.2 19.5-1.8-.4.6-1.4.6-1.8 1.1 1 .2 2-.2 3-.2 3.9-.3 11.7-1.4 14.2-3 4.7-3 2.1-13.5 5.7-17.7 0-.7-.9-.6-.7-1.6 1-3 4.2-3.8 5.5-6.4-2.9-.9-5.3 0-6.9 1.6zm43.6 1.4c.2-1.2 1.5-2.5 1.1-3.4-.5.9-1.8 2.1-1.1 3.4zm-39.5 6.2c1.2.3 1.4 1.7 2.1 2.5.7-.2 1.3-.6 1.6-1.1-1.2-.8-1.7-2.4-3-3.2-.2.6-.5 1.1-.7 1.8zm21.4 6c.9-.2 1.8-.3 3-.2.5-1.4 1.6-2.1 1.4-4.1-1.2-.9-3.6-1.4-4.1-2.3h-.9c-.2 2.4-.2 4.8.6 6.6zm-17-2.1c0 .4-.6.2-.5.7 1.4.4 3.1.9 4.6 1.8.4-1.3.6-2.9.7-4.6-1.8.3-3.5 3.4-4.8 2.1zm-141.2 4.8c-1.4-.3-1.9 1.8-2.5.9-1.3 2.7-3.8 4.5-5.5 6.9-.6.8-.7 2.1-1.4 3-.6.8-1.6 1.3-2.1 2.1-.8 1.4-1.3 3.4-2.1 5.3-.7 1.6-2 3.3-2.5 4.8-1.1 3.3-1.7 6.8-3 10.1-1.3 3.2-2.7 6.2-3.7 9.4 3.6 2.7 5.3 7.4 8.5 11 3.2 3.6 7.5 6.7 11.2 9.4 1 .7 1.8 1.7 2.8 2.3 4.5 3 14.3 1.6 18.1-.5 1.7-.9 3.2-2.2 5-3.2 1.8-1 3.6-2.2 5-3.4 6-4.9 12.1-10.7 17.2-16.3 4.1-4.4 9-7.7 12.8-11.9 1.2-1.3 2.8-2.5 3.4-4.1-3.9-5.4-5.9-12.6-8.7-19-13.5 5.5-26.4 11.6-41.7 15.4-.8 3.4-.9 7.7-4.6 8.3-.8-3.5 2.2-7.3 2.1-10.5-.1-1.7-1.2-2.8-2.1-4.4-3.4 2-6 4.7-9.4 6.6-.7 1.3-1.3 2.7-3.2 2.8.4-7.2 8.6-8.5 12.1-13.3-1.1-3.4-2.8-6.2-4.1-9.4.2-1.6-.5-2.4-1.1-3.2 0-.1 0-.3-.2-.2.3.5-.6.3-.3 1.1zm140 14c-.4.1-1.3-.3-1.4.2 3.1 2.9 6.4 5.7 9.6 8.5.3-.9.5.1 1.1 0 1.9-1.7 3.4-3.7 6-4.6-.5-1.2-1.5-1.9-2.1-3-5 .1-8.5-2.6-13.8-1.6.4.1.5.3.6.5zm-297.5 6.2c-7.3 3.1-14.9 5.7-21.8 9.2-3.8 1.9-7.8 2.7-11.5 4.1-3.9 1.5-7.2 4.2-11 5.5-.8 2-2.2 3.4-3 5.5 0 .9-1.6.3-1.4 1.4 8.4-1 15.3-6.1 22.7-8.3 3.8-1.1 7.8-1.4 11.5-3 7-3.1 14.1-5.2 21.3-7.3 2.2-3.2 4.6-7.5 5-11.7-3.3 1.9-7.7 2.9-11.8 4.6zm315.2.7h-.5c-2.6 1.6-4.5 3.7-6.9 5.5 2 2.7 4.6 4.2 7.1 6.9 1 1 4.7 4.5 4.6 6.2-.1 1.3-1.1 1.4-1.4 2.5-.3 1.3.4 3 .5 4.4.3 3.5.5 7.3 1.4 9.9 2 6.1 8.5 8.5 13.8 11.5 1.5-.2 2.3.1 4.1 0 1-.9 2.7-1.5 3.9-2.3 1.5-1.1 6.4-5.1 6.6-6.9.3-2.5-2.9-5.6-.2-7.8-1.6-6.1-4.8-11.8-13.1-10.5-1.6 2.1-5.4 4.2-6.4 6.4-1.6 3.7 3.6 6.4 5.7 8 1.9 1.5 3.5 3.1 5 4.1 1.7-1.6 2.2-6.1 1.1-8.9-.8 0-1.1-.6-1.8-.7-1 1.6-2.9 3.4-5.3 3 2-3 4.3-5.6 8.7-6.2.9.5 1.7 1.2 2.5 1.8 2 4.3-.2 9.1-2.3 11.2-1.7 1.8-5.5 4.2-8 3.9-4.2-.4-5.8-4.9-8.3-7.6-1.3-1.3-5.6-2.8-5.7-4.8-.1-1.5 2.1-3.4 3-4.6 1.3-1.7 2.5-2.8 3.7-4.1-4.5-7.1-8.5-13.5-11.8-20.9zm-160.2 88.5c-1.9-1.8-3.9-3.2-5.7-4.8-5.3-4.7-11.5-9-14.7-15.1 0-.1 0-.3-.2-.2-.8.5-2 .8-3 1.1 1.9 4.1 4.9 7.2 7.3 10.8 2.1 3 4.8 5.9 6.9 8.5 1.5 1.9 2.7 3.7 4.1 5.5 2.7 3.4 5.6 6.6 8 10.1 2.9 2.2 5.6 4.6 8.7 6.6 3.9.9 6.1 3.4 8.5 5.7 4 1.1 9.9.3 13.8 1.6-9.7-10.8-22.9-19.9-33.7-29.8z"/><path class="st1" d="M234.1 109.3c.1.7-.3.9-.5 1.4-2.1-1.1-3.5-2.8-6.2-3.2.1 1.8-.2 3.2-1.1 3.9.2.7.6-.3 1.1 0-.3 2.2-3.5 1.3-5 1.4-5.3.2-12.2-.3-16.7-.5-.6-.6-1.7-.7-2.3-1.4.6-1.3 1.7-1.2 2.3-2.3 1.4-.1 1.9.7 2.8 1.1.9-.8-.8-1.2-.7-2.5 1.2-.5 1.9.8 3 1.1.7-1.1-.8-1-.7-2.5 1.3-.8 2 .8 3.2.9.5 0 .3-.6.9-.5 0-.9-1.5-.4-1.4-1.4 1.1-1.4 2.8-.1 4.6-.2 2.1-.1 4-1 6.2-.7 4.4.7 7.7 3.4 10.5 5.4zm-21.5 2c1.8.5 4.7 1.1 6.9.5-1.1-.5-1.2-2.9-1.1-3.9-2 1.2-4.1 2.2-5.8 3.4zm9.1-2.5c-.1.8.3 1.1.5 1.6h1.6c.2-.7.2-.7 0-1.4-.6-.1-1.6-.6-2.1-.2z"/></g><g id="Режим_изоляции"><path class="st0" d="M444 178.6c.1.1 6.1 33.2 4.8 38.1-1.1 3.8-4.1 7.3-8.1 8.8-7.4 2.7-12.7-7.5-6-11.7 4.9-3 10.6 1.1 10.6 1.1s1.8.9 1-6.2-3.4-33.9-3.5-34.1c0 .1 1.3 4 5.7 4.1s8.9.1 10.1 4.1 1.6 9.7 1.6 9.7c-.1 0-3-4.9-7.9-6.3-4.9-1.3-8.3-7.5-8.3-7.6zm43.1 13.8c.1.2 39.7 28.8 43 35.2 2.7 5.1 3 11.8.3 17.4-5 10.3-20.8 4.7-17.9-6.3 2.1-8.1 12.2-9.5 12.2-9.5s2.7-.8-5.2-7.5-37.5-32.1-37.7-32.3c.1 0 5.4 2.9 10-1.4 4.7-4.4 9.4-8.7 14.8-5.8 5.3 2.9 11.4 8.5 11.4 8.6-.1 0-8.1-2.1-14.5 1.2-6.6 3.6-16.3.5-16.4.4zm-7.6 9.8c-.2-.2-.4-.4-.4-.5-.1.1-.4.2-.5.2 3.8 6.6 12.3 21.6 15 26.3 3.6 6.1 1.5 6 1.5 6s-6.8-1.5-10 3.3c-4.4 6.4 4.5 13.7 10.1 8.2 3-3 4.4-7.4 3.8-11.3-.6-4.6-16.7-28.5-19.2-32.2-.1.1-.2 0-.3 0zm43.6-44.8c-2.1-1.7-5.2-1.9-7.7-.3-2.1 1.2-4.1 3.3-5 5.5-1 2.6-.9 6 .8 8.4.6.9 1.6 1.2 2.4 1.8.5.4.8 1.2 1.2 1.8.8 1.2 1.6 2.3 2.4 3.5 1.6 2.3 3.2 4.6 4.8 6.8 3.2 4.6 6.4 9.1 9.6 13.6 2.1 2.9 4.1 5.9 6.1 8.8.2.3.6.1.8-.1.2-.2.5-.4.7-.7-1.6-2.5-3-5.1-4.3-7.7-.3-.4-.4-.8-.7-1.2-.1-.1-.1-.2-.2-.3-.3-.6-.6-1-.8-1.3-1.7-2.9-3.5-5.7-5.3-8.6-2.5-4-5-7.9-7.8-11.7-.6-.9-1.3-1.9-1.9-2.8.5-.2 1-.4 1.5-.8.3-.1.6-.3.9-.5 3.5-2.2 6.2-6.8 4.9-10.9-.6-1.5-1.5-2.6-2.4-3.3zm-1 8.6c-.2.7-.3 1.3-.7 1.8-1.5 2.3-4.8 2.2-6.5.1-1-1.2-2.2-3.8-1.8-5.5.6-2.3 2.5-4.1 5.4-3.2.7.2 1.4.7 2 1.1 1.4 1.5 2 3.8 1.6 5.7z"/><path class="st0" d="M506.6 175.2c7.1-5.8 14.5-11 22.3-15.8 1.5-.9 1.4-5.7-.1-4.9-8 5-15.6 10.4-22.9 16.3-1.2.9-1 5.8.7 4.4z"/></g></svg>