<svg version="1.1" id="L" xmlns="http://www.w3.org/2000/svg" x="0" y="0" viewBox="0 0 437.2 440.7" xml:space="preserve"><style>.st0{fill:#fff}</style><path class="st0" d="M314.6 283.2c-5.5-14.8-15-37.9-17.7-53-2.7-15.1-16.2-32.2-28.3-23.3-12.2 8.8-2.7 23.4-2.7 23.4s-47.9 48.2-67.4 89.4-35.1 68.1-45.8 65.4c-10.8-2.7 2.7-27.7 2.7-27.7s10.8-9.4 9.4-18.5c8.1-7.8 13.5-22.6 11.5-30.7 12.2 1.3 23.6-19.1 20.9-28.8 8.8-9.7 14.2-26.5 14.2-26.5l15.5-29.3 5.4.7s-3.1 3.7.8 5.9c3.9 2.3 10-12.4 9.2-15.1-.8-2.7-5.3-1.8-7.5 2.1-2.8-.3-3.9-2.1-3.9-2.1s6.7-19.3 10-22.1c3.6 1.7 4.2 3.1 4.2 3.1s-3.6 6.1-.6 7.8c3.1 1.7 10.8-10.3 11.1-14.2.3-3.9-3.9-3.9-6.7.3-3.3-1.1-5-2.8-5-2.8l10.6-21.7 5.3 1.4s-3.9 4.8-.8 6.7c3.1 1.9 6.9-2.8 8.9-6.4 2-3.7 2.8-8.9 0-9.4s-6.4 3.6-6.4 3.6l-3.6-2.5 11.1-25.6 4.8.8s-2.8 6.9 1.1 8.3c3.8 1.4 6.9-6.1 9.4-11.4 2.5-5.3-.8-9.4-6.4-4.2-3.9.6-4.8-1.1-4.8-1.1s20.8-40 23.6-50.3c2.8-10.3 7.8-25.6-8.6-31.9-16.4-6.4-35.6-15-40-20.3s-7.5-5-12.3-3.3c-9.2-6.1-13.6-10.3-17.8-11.8-5 8.3 0 12.7 6.8 15.3s13.5 7.4 13.5 7.4-4.1 6.8 0 9.4c4.1 2.7 10.8 0 10.8 0s13.5 15.5 18.3 21.6c4.8 6.1 5.4 14.8-12.8 51.3s-66.8 120-86.4 149.4-43.8 48.9-53.9 71.9c-10.1 22.9-31 44.4-16.8 77.6 14.2 33.1 50.6 33.1 76.2 21.6 25.7-11.5 59.4-53.9 68.1-71.5 8.8-17.5 35.1-47.6 39.8-48.8 4.7-1.2 5.4 2.9 8.8 11.7 3.3 8.8 12 16.9 18.3 13.8 5.8-2.9 11.5-40.8 5.9-55.6zm-123.1-32.3c8.9-.6 11.1 6.4 10.6 11.4-.6 5-8.1 11.8-13.2 10.8-4.8-.8-6.8-5.6-7.1-8.1-.2-2.5.9-13.6 9.7-14.1zm-18 35.5c2.5-3.3 8.9-8.1 12.5-6.7 3.6 1.4 4.2 8.9 0 14.2-4.2 5.3-12.3 9-14.8 4.4-1.8-3.3-.2-8.5 2.3-11.9zm-13.3 20.1c8.1-1.3 16.2 8.9 6.7 17.2-9.5 8.3-19.2 1.8-19.6-4.2-.4-5.6 4.8-11.7 12.9-13zm-2.3 29.6c3.9 12.3-13.5 15.5-17.3 11.4-7.7-8.6 13.5-23.6 17.3-11.4zm-13.3 33.6c-9.9 11-23.5-3.5-18.6-11.4 8.1-13 28.6.4 18.6 11.4z" id="Слой_1_1_"/><path class="st0" d="M85.3 222.8c-.1-1.1 1.3-2.1 1.3-3.3 0-4.3-2.4-10.6-4.5-14.8-6.7-13.1-15.3-23.2-20.8-34.8-2.3 2.5-3.6-2.3-2.3-2-5.3-3.3-5.6-8.9-7.5-11.7-3.6-5.3-8.7-8-7.4-12.5 3-1.3 4-1.4 6.6-4.3-1.5-2-3.2-2.3-4.5-4.9-2.8.1-3.4 3-7.2 2.5-1.3 6.5-9.8 5.9-11 12.3-1.6-1.7-6.4 6.6-9.2 4.8 1.9 3.8-.6 4.5 3.6 8.6 4.8-4.8 4.9-3.3 11.4-8.8.6 2.3 1.8-.9 2.5.3 6.3 8.3 13.8 20.1 24.1 29.3-.5.3-.8.1-1.3.3 3.9 3.5 5.4 7.3 6.5 9.4 3.3 6.3 10.6 10.4 9.7 18.4 2.6 3.9 5.3 12.3.6 15.5 2.8 3.5-5.5 5.6-6.3 8.7-5-1.6-7.3-1.3-11.8-5.3-.6.3-1.3 1.1-1.8.6-6.1-5.7-6.7-6.8-11.8-11.4-.2 1.8-3.8 3.3-5.3 4.9 3 11 18 15.8 27.9 19.5 2.8-2 6.6-1 9.3-2.7 2.1-1.3 7.7-8.3 9.3-11.7 1-2.6 0-5.3-.1-6.9zm42.3-30.2c3.8 1.8 6.8 9.1 11.1 7.4-.4-4.6-.8-8.9-5.3-11.8-1.7-8.8-12.5-17.6-16.8-25.8-3.3-.5-5.5.4-7.2 2.5 2.2 2.3-.2 2.5 2.5 4.2-1.9.6-.6 1.7-1.2 2.4-5.6 1.9-8.4 1.2-15.9 7 1.8 2.1-.1 1.3-1.3 3.3 2 3.3-1.4 6.6 2.3 8.9-2.8.4 4 7.4 1.6 7.9 4.2 7 10.3 7 13.3 10.3 8.1 9 16-12.4 16.9-16.3zm-27.8-7.5c-3.4-2.3 2-3.5-.6-5.7.8-.4 2.4 1.3.9-.8 2.1-.7 5.3-2 9.3-2.7 1.3 3.3 10.1 6.8 9.7 11.5.3.4.8-.1 1.3-.3 1.3 4.4 5.2 7.8.2 12-.5.5.3 1.2.6 1.8-2.8.6-5.2 3.3-8.2 3.3-8.4.1-16.6-11.3-13.2-19.1zm8-66c5.7-.4 10.8-11.2 16.5-8.2 1 3.3 2.8 5.6.1 9 2.2 3.6 2.4 6.9.8 10 3.6 6 1.9 11.6 9.2 15.8 5.5-1.8 12.4-11.3 21.4-16.6-3.1-.6.8-2.1.9-.8-.3-2.7-3-3.3-3.8-6.9-5.3 4.7-14.8 9.3-18.7 15.2-5.3-2.5-3.5-9.3-4.5-14.8 1.3-.9.3-1.5 1.9-1.5-1.8-7.1.2-13.7-.8-20.7-1.3-1.3-2.8-.6-3.9-3.1-4.5 6.8-21.7 13.3-23.3 18 1.5 1.1 2.8 2.7 4.2 4.6zm81.7-26.5c.8 2.4.2 4.6-.8 6.8 2.3-1.1 1.9 5.1.7 4.8 1 5.5 3.5 12.3 2.7 16.3 3 1.8 3.6 9.8 9.3 8.1-.2-.4-.8-.9-.3-1.3 5.8-.5 10.6-10.9 15.6-11.3-.5-2.4 2.9-.5 1.8-3.7 3.9-1.3 3.4-3.6 6.8-6-2.4-.7-.2-2.1-.5-2.7-3.7-6.2-6.5 2.3-11.9 2.3.8.8.3 1.6-.5.3-1.5 1.4.3 2.1-1.9 1.5-1.5 3.7-4.6 5.4-10.8 10.6-2.3-3.8-2.3-4.6-5.8-8.5 2.2-1.4-.9-4.9 1.5-5-2.8-6.8 2.3-10.2 1.3-17 1.8-.9-.7-2.3 1.5-1.9-.8-2.8-.7-5.5-1.1-8.3-1.2.2-2.5-.8-2.3-2-7.7 3-14.2 10.7-24.7 15.3 1.6 1.2.4 2.1 0 3 2 1.6 2.8 2.5 2.8 4.7 4.7 1.5 10-11.1 16.6-6z" id="Режим_изоляции"/></svg>