<svg version="1.1" id="L" xmlns="http://www.w3.org/2000/svg" x="0" y="0" viewBox="0 0 437.2 440.7" xml:space="preserve"><style>.st0{fill:#fff}</style><path class="st0" d="M325.8 101.1c-1.3 8.4-1.3 8.4 4.1 10.7 1.8-2.7 3.6-5.5 5.5-8.3 2.5-3.9 5-7.8 7.6-11.6 4.6-6.7 9.1-13.5 13.8-20.1 4.5-6.3 9.1-12.5 13.8-18.6 4.7-6.1 9.8-11.9 14.2-18.3 3.8-5.5 6.6-11.2 7.9-17.6.4-2.2 1.6-4 2-6.3 7.3.1 13.2 3.2 19.4 6.5 7.5 4 13.1 10.2 19.9 14.9 1.6 1.1 3.5 2.7 3.2 5.5-1.9.8-4 1.7-6.1 2.4-11 3.8-18.6 11.4-24.7 20.9-2.1 3.2-4.3 6.4-6.7 9.8 2.3 1.7 5 2.4 7.5 3.5 4.2 1.8 6.9 4.7 8.9 8.9 3.3 6.9 2.3 13.9 1.3 20.9-.9 5.9-2.4 12-5.6 17.1-2.9 4.6-4.5 9.9-7.6 14.5-2.6 3.7-4.2 8.2-6.2 12.3-2.2 4.4-4.5 8.8-6.7 13.1 4.6 2.3 7.8 5.5 10 9.6 1.5 2.8.5 4.9-2.5 5.2-3.8.3-7.7.8-11.4-.7-3.4-1.4-3.8-1.1-5.3 2.4-.2.5-.4 1-.7 1.6-.7 1.6-.1 2.8 1.3 3.6 4.8 2.6 7.2 6.9 8.8 11.8.7 2-.5 3-2.9 2.9-4.5-.1-8.5-1.8-12.5-3.6-.9-.4-1.9-1.6-2.4-1.4-1 .5-1.8 1.6-2.5 2.6-.6.9-.9 2-1.4 3.1 1.5.9 3.2 1.7 4.5 2.9 1.2 1 2.1 2.4 2.9 3.7.7 1 .7 2.5 2.3 2.9.5.1.9 1.3.9 2 0 1.5.4 3.5-.4 4.4-.9 1.1-2.8 1.7-4.6.5-3.7-2.5-7.5-4.7-11.6-7.3-2.8 3.6-5.8 7.4-8.7 11.3-3.3 4.4-6.4 8.8-9.7 13.2l-15 20.4c-5.3 7.2-10.4 14.5-16.7 20.9-3.9 4-8.5 7.4-14 8.7-4.1.9-8.2 1.4-12.5-.7-5.6-2.7-11.2-5-14.6-10.5-.5-.9-3-.2-3.1.9-.5 5.2-3.1 9.9-4.1 15-1 4.9-2.2 9.8-3.7 14.6-2.3 7.7-2.8 15.6-4.2 23.5-.6 3.2-.5 7 .9 10.4 1.7 4 3 8.1 4.9 12 1.5 3 1.5 6.3 2.4 9.5.6 2.2.1 5-1.6 6.6-3.1 2.7-5.6 6.5-10.8 5.9-2-.2-4.2 1-6.2 1-3.3 0-6.5 0-9.9-.8-9.8-2.4-18.4-7.7-27.3-12-6.5-3.1-12.6-7.1-18.9-10.6-5.9-3.3-11.5-7.1-17.3-10.7-3.6-2.3-12-10-13.8-13.4-1.1-2.1-2.6-3.9-4.2-5.4-1.3-1.3-1.3-2.2-1.1-3.8.5-2.9.5-5.8 3.9-7.2.6-.2.7-1.3 1.3-1.6 1.8-1.2 3.6-2.3 5.4-3.4 5.9-3.6 11.7-7.3 18.2-9.7 3.1-3.4 8.3-4.1 11-8.1 2.9-.3 4.8-2.6 6.9-4.1 5.4-4 11.3-7.1 16.7-11.2 4.9-3.7 10.1-7 14.8-11 4.6-3.8 8.2-8.5 12.1-13 5.8-6.6 11-13.7 15.9-21 5.4-8 10.9-15.9 15.4-24.3 3.4-6.2 7.2-12.1 10.7-18.2 2.8-5.1 6.4-9.8 9.5-14.8.8-1.2 1.2-2.6 2-4.3-1.1-.5-1.8-.9-2.6-1.3-3.9-1.6-3.9-1.6-6.4 1.9-.4.6-1.2.9-1.4 1.5-.4 1.1-1.1.7-1.6.3-.5-.4-1.4-1-1.3-1.5.1-1.4.3-2.8.9-4.1 1.6-4 3.3-8 5.1-11.9.3-.7.5-1.5 1.1-1.9 1.2-.9 1.8-3.4 3.8-2.4s0 2.9.2 4.4c.2 1.2-1 2.7-1.4 3.6 3.1 1.3 5.8 2.5 8.8 3.7 2-2.6 4.8-5.8 5.8-10.1-5-2.7-5-2.7-8.3-2.2 1.1-7.2 4.5-13.2 8.9-18.8 1.4 1 1.7 2.3.8 3.8-.3.5-.5 1-.6 1.6-1 5.1-.4 5.9 5 6.4.4 0 .9-.6 1.3-1 3.6-3.6 5.4-8.3 8.2-12.3-4.9-4.4-4.9-4.4-8.4-1-2.8-1.3-1.6-4-1.1-5.6 1.3-6.1 3.4-11.7 10.6-13.6zM352 199c-1.2-1-2.1-2.2-3.3-2.8-4.4-2.3-8.9-4.4-13.3-6.6-2.9-1.5-5.8-3-8.7-4.6-.9-.5-1.8-1.9-2.5-1.7-1 .2-2.2 1.2-2.8 2.1-5 8.2-10.7 15.8-16.1 23.6-4.6 6.7-9.2 13.4-14.1 19.8-4.9 6.5-8.7 13.5-12.6 20.4-.8 1.4-1.8 3.1-1.7 4.6.1 1.3 2 2.5 2.5 3.9 1.4 3.3 4.5 4.6 7.1 6.1 2.3 1.3 5.7 2 8.1 1.3 5.4-1.5 10.6-3.8 15-7.5 4.8-4.1 8.5-9.2 12.1-14.4 5.1-7.2 10.4-14.3 15.1-21.7 2.7-4.2 6.2-7.8 8.3-12.4 1.7-3.6 4.5-6.6 6.9-10.1zm2.8-61.6c5.9 3.7 11.3 7.1 16.8 10.5 1 .7 1.9 1.6 3 2.1 4.4 2.2 4.6 2.1 7-2.4.2-.3.3-.7.5-1 4.9-7.8 10.5-15.2 15.2-23.2 3.7-6.3 6.6-12.7 8.1-19.7 1.2-5.6-.8-11.1-4-15.8-2-2.9-4.9-5.3-8.4-7-13.1 18.9-26 37.6-38.2 56.5zm15.4 29c-1.1-.5-2.3-.8-3.2-1.4-6.1-4.2-12.7-7.7-18.3-12.7-1.7-1.5-2.4-1.4-3.8.3-1 1.3-3.1 1.9-2.9 3.9.1 2.2 2.5 1.9 3.6 3 .5.5 1 1 1.6 1.3 5.7 3.4 11.6 6.3 16.7 10.6 1.9 1.5 3.6.8 4.8-1.6.5-.9.9-2 1.5-3.4zm-39.6 7.8c1.2 1.1 2.1 2 3.1 2.6 7.2 4.1 14.7 7.7 21.4 12.5.4.3 1.5.2 2-.1 2.9-1.8 2.8-5.2-.1-6.8-1.9-1-3.7-2.2-5.6-3.2-4.4-2.5-8.8-4.9-13.1-7.6-5.2-3.3-5.3-3.4-7.7 2.6zM137.2 95.9c1.2-1.6 2 .2 3.2-.7.1 2 3.4 6.9 5.6 4.8.1 3.7-1.3 3.8-2.8 5.9-2-.3-2.6-4.8-2.3-6.5-4.5-.7-4.5 6.2-9.8 8.7.4 2.7-7.1 7.5 1.1 13 6.2.1 13-5 19.2-5 1.6 2.1 3.3 4.2 4.9 6.3-1.6.1-.5 5.8-.7 6.1-.3.4-4.1 1-5.5 2.4-.9.9-1.2 3.7-1.5 4-2.4 2.1-6.5 1.6-8.2 3.7 5 12.2 13.8-4.4 18-7.7-1.3 5.7-7.9 10.8-14.3 15.9-4.7-3.2-5.8-7.9-8.6-10.9 9.4-.3 16.4-5.3 17.7-13.9-1.2-2.5-2.8-2.2-4.2-4.1-9.1.4-14.5 13.6-23.5 1.9 1.3-4.6-.8-7.7 1.4-11.2 5-3.9 5.5-8.4 11.6-11-.4-.5-.9-1.1-1.3-1.7zm-27.3 24.3c1.9 1.8 3.8 3.1 5.5 5.8-2.1 3.7-6.5 7.2-11.1 10.6-7.4-4-3.7-13 5.6-16.4zm-7.4 10.5c.7.9 1.5 1.9 2.3 2.9 4.3-3.8 4.1-3.4 7.3-4.8-1-1.7.6-3-2-4.9-4.7 2.8-4.5 5.3-7.6 6.8zm-11.7 11c6.1.7 11.8 14.2 14 13 5.7 7 5.2 11.3 6.8 16.8-3.2 5.4-4.6 9.9-10.6 11.2-3.5.8-7.1-2.8-10.2-1.2C82 170.7 78.5 171.7 71 161c3.9-3.8 2.5-3.9 7.6-6.9 4.5 6.3 8.4 7.9 13.8 14.1 9.5-1.2 1.1-12.3-4.5-18.7-1.1-2.8 5.3-4.8 2.9-7.8zm16.2 34.5c3.2-5.3-2.6-14.9-2.9-19-3.8-2.6-7.3-8.5-11-11.7-1 .8-1.9 1.5-2.9 2.3 4.7 5.3 13.6 15.7 11.7 23.1-3.7 1.8-9.5 4.1-14.1-3.8-2 4.6-3.9-4-1-.1-3.4-4.5-6.9-5.3-8.2-9.3-1.3 1.1-2.6 2.1-4 3.1 8.8 15.1 26 25.9 32.4 15.4z"/><path class="st0" d="M136 109.8c.4-.5.7-.2 1 .1.9.6.6-.8 1.7-1.4 1.4 2.1-2.1 3.6-.2 5.7 4.2-1.9 7.4-3.7 10.5-5.5 2.5 2.4 5.4 1.1 8.2 1 4.2 5.5 8.3 13.8 2.1 21.5-.8-3 .8-10.8 2.2-10.1-.8-2.7-2.6-3.7-3.8-7.2-5.6-2.4-11.3-3.9-18 3.1-1.2-1.7-2.7 0-3.9-1.5-1.7-2.1 2.1-3.6.2-5.7zm-79 68.8c8.9-.1 20.2 17.2 20.8 25.2-2 3.5-3.4 7-4.7 9.3-10.6 8.6-22.9 4-27.6-7.9-.3-.8.9-2 .8-2.5-.9-3.7-1.9-3-1.2-7.4.9-5.4 1.2-7.4 6.6-11.7-1.2-3.8 5.9-2.5 5.3-5zm-9.5 18.5c.2 1.1 2.1 1.8 2.3 2.9-.2-1.6-.9 3.5-.9 3.5 1.9 5.8 7 12.2 12.5 12.4 1.8 0 2.1-2 2.9-2.3 3.4-1.2 4.5-1.1 7.7-4.3-2.9-2.2.6-4.2 1.3-6.6.1-.4-1.4-1.3-1.4-1.7.1-.5 1.6 0 1.6-.3 0-1.9-1.9-8.9-3.3-11.3-3.1-5.1-8.3-6.5-10.4-8.5-1.9.5-4 1.7-5.8.9-1.8 4.7-7.3 10.1-6.5 15.3z"/><path class="st0" d="M56.7 185.3c7.6 6.9 11.8 16.1 10.2 23.4-11.5 6.7-20.9-18-10.2-23.4zm-3 7.9c.7 1.2 1.6.7 2.4 1.8-3 1.5.7 10.6 4.7 13 3-1.5 1.6-3.6 4.2-5.2-2.7-5.8-2-10.6-7.8-13.3-2.3 1.1-1.5 2.6-3.5 3.7zM313.1 29.4c1.2-.3 2.8-1.5 2.9-2.3 3.3 4 15 19.5 22.9 25.5-2.2 2.5-4.6 4.1-6.2 8.6-6.5-.6-12.9-1.4-19.1-4.4 6.6-.5 11.3 1.2 16.8 2.5 4-2.7 1.6-4.9 5.9-6.5-10.7-8.6-11.4-16.9-23.2-23.4zM357.5 0c1.9-.3 8.4.9 5.2 4.2-1.5-3.6-3.7-1.1-5.2-4.2zm.3 1.6c.7 1.2-4.6 6-6 6.6.1-1.7 3-5.2 6-6.6zM35.5 233.5c2-2.3 4.8-.9 6.7-4.4 3.2.7-4.3 8.3-6.7 4.4zM285.1 69.1c6.1 4.1 12.4 6.2 17.8 15.6-2.2-.3-1.1 1.1.2 2.6-2.9 5-1.3 8.8-6.2 13.3-16.7 15.1-46.5-20.4-19.1-31.3 2.3 1.1 4.7 1.9 7.3-.2zm-13.7 15.4c-.6.5-1.1.9-1.7 1.4 5 3.4 4.8 9.2 9.2 14 .7-.4 1.5-1.4 2.2-.8 5.1 4.4 9.6-.6 13-1 1.5-4.1.3-8 2.8-10.5-2.6-4.8-6.3-9.5-10.3-13.1-3.4 1.2-6.3-1.5-9.7-.6-1.3 1.4-11.4 5.2-5.5 10.6zm-33.6 17.2c2.2-.7 7.2-4.2 8.6-6.7 5.7.6 5.5-5 11.3-3.3 5.8 4.8 6.6 10.3 6.9 15.8-2.2 1.5-3.7 3-4.7 4.6 2.7 2.3 6.1-1.5 8.4 3.6.6-3 8 3.1 11.4 4-1.7 2-2.9 2-2.6 4.8-1 1.4-5.4-.6-3.3 1.7-4.6-.5-9-2.8-13.5-4.2.3 4.1 3 6.9 6.5 10.6-5 3.5-3 5.3-7.5 6.9-11.2-10.1-17.7-20.2-27.6-29.1 3-2.8 4.1-6.2 7-6.4-1-.9-.4-1.5-.9-2.3zm33.1 17.4c-3.4-3.5-7.2-3-11-3.4-2.1-1.8-1.4-3.3-3-5 6.2-4.6 4.2-11.5-1.6-17.3-8.8 2.9-11.7 7.7-16 12.6 3.3 8.7 14 23.6 22.6 27.5 2.8-4.5-9.7-10.8-4.4-15 5.5 2.8 12.7 5.1 17 5.1-.1-1.1 2.8-4.4.5-4.1.2 2.4-5.3-5.2-4.1-.4z"/><path class="st0" d="M252 99.8c3.3 1.6 5.3 5.7 3.7 8.2-3.1 1.5-6 .8-8.8.5-3.2-3.5 1.2-7.6 5.1-8.7zm-.9 7.2c3.4-1.3 1.1-1.6 3.5-3.7-1.5-2.2-6-1.7-6.2.3 1.2-.9.9 2.4 2.7 3.4zm41.6-14.3c-2.3 1.9-4.6 3.8-6.7 4.4-7.2-1.3-10.3-10.2-9.9-17.2 7.5-5.1 16.4 5.3 16.6 12.8zM280.6 81c-7.7 4.3 2.5 17.2 8.3 12.9 2.2-5.9-2-12.2-8.3-12.9zm-94.7 74.7c1.2 1.1 2.9-1.4 4.1.5.5-.4-.1-1-.3-1.6 2.2 1.1 2-1 3.8-1.1 1.3 1.7 2.7 3.4 4 5.1-3.9 3.9-8.1 3.9-10.6 6.5-1.3.9 1.3 2.2 1.7 3.3 5.3-.5 12.5-3.9 19.2-5 4.8 1.7 7.5 5.7 9.8 8.9-.4 2.7-.7 5.4-1 8.2-2.4-3.2-.2-8.7-3.6-12.8-.6-.7-3.1.9-.9-1.1-9.4-1-14.2 2.4-24.3 4.4-1.4-2.5-3.2-2-4.6-4.7 2.9-2 5.5-7.5 9-6.2 1-.8 1.1-1.6.8-2.5-2.6-2.8-5.7.9-7.4 1.2-2.8-2.6 3-.9.3-3.1z"/><path class="st0" d="M181.6 160.8c-2.2 4.1-5.7 10.1-.7 14.4 3.3 2.8 5.6-1.6 9.1 2.1-1.1.5-4.7-.7-4.3 1.6-3.2-.6-5.7-2.5-9.6-6.3.2-3.8 1.3-10.1 5.5-11.8zm-80.2 74.4c6.4-4.3 11.7 5.3 5.3 7.9-.3-1.6.4-3.4-.3-6.2-7.5-1.9-5.6 8.3.6 7.8-2.8 3.3-4.9.3-7.4 1.2-4.3-5.3 1.3-6.5 1.8-10.7zm-32.7 26.7c13.5 6.9 24.7 14.7 38.5 24.2-.4 1.3.3 2.8-1.5 4-2.2-3.9-8.6-10.9-12.3-9.7-8.3-7.4-16.8-12.3-25.6-16-1.1 1.9-4.3 3.6-4.8 5.6-1.5-1.1 3.3-5.8 5.7-8.1zM54 277.2c1.2-.9 2.3-1.8 3.4-2.7 1.8 1.5-.3 5.1 3 5 .4.8-.7 1.3-1.3 1.9 8.4 8.3 13 18 21.8 30 .8-.7 1.5-1.4 2.2-.8 1.5-5.2-10.3-12.9-5.1-18.2 1.1 1.8-.4 3.4.4 5.2 9.8 8.6 9 18.1 1.4 23-3.9-.1-12.9-10.5-10.9-12.7-7.8-7.5-10.3-20.5-14.9-30.7z"/><path class="st0" d="M69.6 272.3c3.3 4.2 6.9 5.5 10.6 6.5-3.5 3-3.4 6.5-7.3 9.5-4.1-5.1-12.6-10.7-3.3-16zm2 13.2c1.7-1.3 3.4-2.7 5.1-4.1-.4-2-4.4-4.6-6.6-6-.8.6-1.5 1.2-2.3 1.8 1 4.1 2.9 4 3.8 8.3zm130.3-112.9c-1-2 1.7-.4 2.3-1.8 14.9 8.3-4.3 18.9-12.7 23.9 1.9 3.2 4 4.1 6.4 3.3 2.1 2-1.9 1-3 3.3-3-2.4-3.8-6.1-7.7-9.7 1.4-.7.4-1.7-.2-2.6 2.1-.3 3.8.4 4.9-2 1.8 4 1.9-2.5 4 1.5 4.5-5.7 16.2-12.2 6-15.9zm12 8.1c.9-.4 1.6 1.1 2.4 1.8-.8.6-1.5 1.2-2.3 1.8-2.5-1.5 2.5-2.1-.1-3.6zM84.2 283.9c1.3-.6 2.1 2.6 3.6-.1 4.8 4.6 13.1 11.4 15.8 6 2.7 4.4-8.2 5.7-11.8-.9-.6-.6-1.4.4-2.2.8-.3-3.6-6.4-3.7-7.4-2.4-1.9-2.1 2.5-2 2-3.4zm127.1-98.3c.8-.1 1.5-.1 1.1-.9 2.8-.8-.7 1.9 1.2 2.7-1.8 1-4 4.8-5.3 1.4 2.4 0 4.1-.4 3-3.2zm-106.8 75.8c-1.9-4.7 2.3 1.9 2.4 1.8.9-1.1-8.3-10.3-10.9-12.7-2.4-2.1-4.5-2.5-7-6.5 1.2-5.8 5.8-11.4 9-10.8.6-.6-.3-1.4-.8-2.2 2 1.3 7-3.8 9.6-6.6 5.4 1 8.5 2.2 12.4 8.7-1.4 2.3-.2 4.8-.8 7.2 8.2 3.9 16.7 4.5 24.8 9.2-2.2 4.5-2.8 3.3-4.4 6.2-7.8 1.6-18.8-11.4-24.2-1.3 5.5 1 4.7 8.6 9 6.8 2.3 3.5 1.9 3.5 2.9 6-4.3 3.2-4.4 3.8-6.5 7-1.9-.4-3.3-4-5.4-2.2-2.7-2.7-2.4-5.1-5.3-7.9-.3 2-2.6.3-4.8-2.7zm-12-21.1c2.5 3.1 5.6 6.8 1.1 3.8 4.7 6 8.3 7.4 13.2 10.9 3.2 6.1 10.3 14.3 15.9 14.3-2.8 1 .2-3.6.7-1.5-1.2-4.7-7.8-9.8-11.2-14.3 3-1.7 2.9-3.8 4.8-5.6 7.2-.6 15.7 7.7 22.8 4.2-7-7.2-17.1-6.2-26.6-11.4 3.9.4-3-7.5 1.2-5.5-1.5-4.1-3.2-6.8-6.9-7.5-7.8 5.7-10.6 7.4-15 12.6zm24.3-108c7.7 10.6 16.5 16.9 23.2 27.1-1.9 2.5-4.9 4.9-8.1 7.3-9.4-4.7-20.6-19.6-22.5-28.5 1.9.1 5.2 4.7 3.9 6.2.6.6 1.4-.3 2.2-.8 1.8 6.7 7 6.4 9.7 10-4.4-.2 4.9 6.6 6.6 9.6 1.8.7 4.1-2.9 6.2-3.9-6.5-8.1-11.3-13-21.1-23.2-3-1.6-3.9 2.2-5.5 2.4-.9-3.8 3.1-4.1 5.4-6.2zM11.2 210.9c2.1 1.3.2 2.1.7 3.2 6.1 5.7 11.2 20 21.5 23.8-1 .8-1.9 1.5-2.9 2.3-2.5-1.7-5.3-3-8-6.6 0 0 2 .4 1.9 1.2.4-5.4-12.3-13.4-15.7-20-1.1.6-.7 1.3-.2 2-4.1-.5.2-4.4 2.7-5.9z"/><path class="st0" d="M3.5 219.8c5.9 10.2 15.6 19.6 26.1 33.1 10.6-2.7 17.1-16.9 22.2-17.5-.4-2.9-4.9-7.6-7.2-9.1 1.2.1 2.5-.9 3.9-2.1 1.8 1.7 3.1 7.6 6.9 7.5 2.1 3.2-2.4 7.8-6.2 8.6-6 7.9-13.4 19-22.9 18-6.2-9.5-18.4-20.5-22.6-27.5-1.7 1.4-1.7-1-3.7-3.5-.3-2.7 4-4.8 3.5-7.5zM336.9 3.3c2.9-2.5 4.5.3 9.1-2.5 3.5 2.7.4 4.5 1.8 6.9-1.4-.2-2.9 1.4-4.5 2.6-2.1 3.3 1.3 9.1 5.4 11.5 3.6-1.5 1.8-3.6 3.2-5.3-.7-2.4-2.2 1-2.9-1.4-1.3-2.4.8-4.4 2.3-6.4 1.2 1.2 2.6 1.4 3.7 3.6-1.4 3.8-.8 5.3-.6 9.7-2.1 1.4-6.8 2.3-7.2 3.8-2.8-1.5-5.8-2.8-7.1-5.5 1.5-6.1-.3-6.5 3.1-12.6-.9-1.5-1.8-2.1-2.8-2.4-5 5.8-3.5 12.4-2.7 18.8 5 6.4 8.9 6.6 12.6 7.7 3.2-4.6 9.5-4.3 6.5-11.6 1.9.1.7-.6 2.3-1.8 1.7 3.1 4 1.2 5.8 3.8 2.6-3.5-2.1-7.8-4.8-11.9 3.6.5 6.4 7.2 9.8 8.9-2.2 1.5-3.7 3-4.7 4.6-.5-.6-.9-1.1-1.4-1.7-7.6 6.1-10.6 15.8-21.6 7.8 2.5 6.2-6.8-3.8-8.4-8.2-2.6-7.6 2.6-14.3 3.1-18.4zm-26.2 28.9c.5 4 9.6 13.6 12.7 19.6-9 2.1-21.3-10-25.8 3.6 6.2 7.4 12.8 11.6 18.9 19.3 2.3-1.3 2.2-2.8 3.1-4.3-1.6-1.9-7.7-5.7-5.8-8.4-2.2-.4-1.6-.3-4-1.5-1.6-1.3.9-4.6 2.5-3.8-1.1 5.1 8.1 8.9 11.7 14.8-3.8 2.4-2.7 4.8-4.3 6.2-2.2.7-6.5-3.2-7-1.8-.8-.8-2.8-6-4.8-3.7-3.7-7.7-8.1-9.2-13.6-16.1 4.1-6 5-7.5 9.5-10.2 5.5 3.4 9.5 4.4 14.6 3.3-.4-6.5-11.1-11.5-7.7-17zm-87.3 104.1c.4.2 2.9-1.4.9 1.1 1.1 2.3 2.9-1.1 4 1.5.6 5.9 9.1 11.2 14.1 16.7-3.4 2.3-2.9 3.9-6.5 7-7.6-6-14.8-14.7-22.3-21.3-4.5-1.3-8 4.3-10.7 7.5-2.3-1.4-4.5-3.1-6.5-5.9 7.2-7.7 11.9-17.3 19.7-22-.8-3.8 3.1-3.2 8.4-5.7 1.6 2.1 3.3 4.2 4.9 6.3-4.7 4.5-10.1 9.1-6 14.8zm-23.6 6.5c1.7 1.3.4 2.1 1.7 3.3 5.3-4.8 7.4-5.9 10.5-10.1 2.6 1.4 8.5 5.3 10.4 12.1 5.1.3 9 11.7 14.2 11 .5-1.4.8-1.7 2-3.4-3.3-1.8-5.6-7.9-7.9-7.7 2.3-2.3-3.1-5.9-4.6-4.7-3.7-5.1-2.3-6.5-7.6-9.7 2.9-.9 0-2.4.9-3.5 4.4-4.9 3.7-4.4 6.6-8-1.5-1.6-2.8-5-4.7-3.7-10.2 11.1-14.8 16.7-21.5 24.4zm-45.6 39.6c12.2 11.1 21.8 19.7 32.3 29.2-2.6 13.6-16.5-3.4-23.9-8-1.4 3.3 1.8 7.1 2.9 10.7-4.5 8.1-12.1 1-15.9 3.3-.3 3 4.1 3.5 5.4 6.8-6.5-3 5.8 7 8 11.3.1 2.3-3.7.9-.9 3.5-2.2 2.7-4 2-6 2.9-.8-2.7-5.9-4.3-3.5-5.6-10.6-7.6-16.1-16.5-24.9-25.7 1.3-.1 3.5-4.1 4.7-4.6 2 3.2-1.4 2.8-2.1 4.4 5.2 8.9 19.9 20.9 27.1 29.6 1-.7.7-2.1 1.7-1.4-.3-8.2-15.4-16.6-12.6-25.3 4.1 1.9 8.5 1.5 12.5 4 6.9-5.1-.8-11.8-3-18 3.4 1.4-.4-1.8 3-3.3 4 6 15.1 14 20.5 19 2.4-1.4 3.5-3 3.7-4.7-10.1-10.6-18-13.9-28.1-25.1-3.1.7-3.2 4.3-7 6.4.6 6.2 4.7 9.6 5 14.6-3.4 1.6-9.7.7-14.2-2.7.1 1.5-3 2.5-5.4 2.4-2.7-2.1 7.4-3.6 4.8-5.6 3.4 1.8 6.7 4.8 10.5 2.8-2.8-3 1-2.1-3.8-7.2 1.4-3.7 5.7-8.4 9.2-13.7z"/></svg>