<svg version="1.1" id="L" xmlns="http://www.w3.org/2000/svg" x="0" y="0" viewBox="0 0 437.2 440.7" xml:space="preserve"><style>.st0{fill:#fff}</style><path class="st0" d="M283.8 295.6l9.3-3.2c-2 .3-4.5.7-7 1.2-.8.4-1.8.8-2.6 1.2.1.3.2.5.3.8zm-4.1 1.3l.8-.3c0-.1 0-.1-.1-.3-.2.4-.5.5-.7.6z"/><path class="st0" d="M358.2 311.8c-7.7-16.5-24.6-22.9-20.9-43-13.8 11.3-26 12-33.1-6.9-6.2-16.5 9.2-23.5 22.9-20.6-10-7.2-19.4-9.4-25.1-21.5-6.1-12.7-7.7-23.3-18.8-33.6-8.8-8.2-19.3-14.3-31-17.1-2.4-.5-4.7-.7-7.2-.7-9-10.5-20-20-27.8-31.6-7.6-11.3-14.2-24.3-22.7-35.5-7-9.3-14-23.6-23.5-30.4 4-2.7 8.2-4.2 11.2-8.6-8-4.3-18.5-11.2-21.9-20.1-6.9-17.7 13.8-1.2 19.3-2.4 15.8-3.6 3.4-24.4-4.5-28.9-11.3-6.3-25.5-.5-34.9 7.3-10.1 8.4-15.4 20.8-7.6 32.4 5.8 8.6 17.8 17.9 17.8 29.4 4.6-.8 8.8-2.3 13.4-3.6 8.1 19.4 15.4 38.7 24.4 57.7 7.6 15.8 19 43.4-1.5 54.1l-3.6-.4c-.1 5.7 1.9 9.6 5.1 12.5-7.7 4.5-15.4 9-20.1 17.1-7.3 12.4-8.6 29.5-2.6 41.8 6.3 13 17 21.7 9.3 37.1 6.6-4 14.2-12.8 21.9-14 10.4-1.6 14.6 7.4 15.7 16.3.8 7.4.7 18.2-3.4 24.7-5.8 9.2-14.8 9-19.4-.4 4.9 13.5 5.4 22.8 5.8 36.3.4 14.3 1.1 32 6.2 45.9 12.3 33.1 49 34.9 77.2 29.1 27.3-5.5 58.6-18.6 76.9-39.7 21.8-25 15.7-54.1 2.5-82.7zm-75.4-8c-2.7 1.1-5.5 2-8.4 3 9.3 20.9 18.3 42.2 25.2 64-14.7-13.6-19.8-42.2-27.7-63.3-2.6.8-5.1 1.5-7.7 2.2 7.7 19.4 14.6 39.1 20.2 59-11.1-15.1-20.1-36.2-27.7-57.1-6.5 1.5-11.9 2.7-14.6 3.4 1.9-4 6.5-7.6 12-10.7-3.8-11.1-7.2-21.9-10.1-31.6-8.6-27.8-27.3-60.2-30.6-89.1 0-1.5.1-2.8.9-4.3.5.5 1.2.9 1.8 1.5 3.5 13.1 7.4 26.2 12.7 38.6 2.3 17.4 13.2 37.9 19.6 52.4 4.2 9.6 8.4 19.4 12.4 29.3 2.3-.9 4.7-1.9 7.2-2.8 0 0 0-.1-.1-.1-9.2-18.3-17.1-37.1-24.4-56.3-2-5.3-4-10.7-6.1-16.2 0-.7-.1-1.3-.5-2.2-3.2-7-5.9-14.2-8.4-21.5 3.2.1 7.6 6.2 10.5 12.1 10.4 20.9 13.9 44.4 23.2 65.6 2.6 5.9 5.3 11.9 8 17.8 3.2-1.1 6.6-2 9.7-2.8-2.2-6.5-4.3-12.5-6.9-17.7-9.2-18.3-17.1-37.1-24.4-56.3-2-5.3-4-10.7-6.1-16.2 0-.7-.1-1.3-.5-2.2-3.2-7-5.9-14.2-8.4-21.5 3.2.1 7.6 6.2 10.5 12.1 10.4 20.9 13.9 44.4 23.2 65.6 5.1 11.6 10.5 23.3 15.8 35.4.9-.3 1.9-.4 2.8-.5 4-1.8 8.5-3 12.4-3.8.8 4.7-4.3 8.9-11.7 12.4 6.7 15.7 13 31.4 18.1 47.6-10.9-10-16.4-28.4-21.9-45.8zM127.9 189.3s-3.6 60.9-8.2 68.7c-4.6 7.8-14.3 13.5-24.6 11.6-10.3-1.9-8.8-19.7 1.1-22.8s18.1 6.5 18.1 6.5 2.7 2.3 4.5-10.4c1.8-12.7 8.8-61.1 8.8-61.1s.5 7.6 8.2 9.6c7.7 2 15.4 4 15.9 11.6s-1.3 17.8-1.3 17.8-3.1-9.8-11.1-14.4c-8.1-4.7-11.4-17.1-11.4-17.1zm-39.8-40.1s8.1 52.2 5.8 59.6c-2.4 7.6-9.6 14.2-18.6 14.4s-11.1-15-3.4-19.4c7.8-4.5 16.5 2 16.5 2s2.7 1.5 1.8-9.6-3.9-53.4-3.9-53.4 1.8 6.3 8.8 6.6c6.9.3 13.8.5 15.7 6.9s2.2 15.2 2.2 15.2-4.5-7.8-12-10.1c-7.8-2.4-12.9-12.2-12.9-12.2z"/></svg>