<svg version="1.1" id="Слой_1" xmlns="http://www.w3.org/2000/svg" x="0" y="0" viewBox="0 0 272.1 238.1" xml:space="preserve"><style>.st0{fill:#a39d8f}.st1{fill:#626262}.st2{fill:#eb8008}.st3{fill:#fff}</style><path class="st0" d="M1.4.8h1.8v235.9H1.4zM269 .8h1.8v235.9H269zm-33.5 0h1.8V197h-1.8zm0 220.4h1.8v15.5h-1.8zM119.3.8h1.8V197h-1.8z"/><path class="st0" d="M1.9 221.2h235.3v1.8H1.9zM100.2.8h1.8V197h-1.8z"/><path class="st0" d="M1.9 195.2H102v1.8H1.9zm117.4 0h118v1.8h-118zm-67-117.1h37.8v28.8H52.3z"/><path class="st1" d="M37.6 214.9h21.5v22.4H37.6zm34.5-109.6h-.7c-6.8 0-12.4-5.5-12.4-12.4v-.7c0-6.8 5.5-12.4 12.4-12.4h.7c6.8 0 12.4 5.5 12.4 12.4v.7c0 6.9-5.6 12.4-12.4 12.4z"/><path class="st0" d="M16.4 122.1v37H31v-5.7h11.2v5.7h14.5v-37zm127.4-18.4h60.4V119h-60.4z"/><path class="st2" d="M143.8 103.7h14.4V119h-14.4z"/><path class="st0" d="M204.2 166.9v-23.7h-14v23.7h-7.3v-32.8h-14v46.8h35.3zm-40.1 0h-6.3V128h-14v52.9h20.3zm45.9-10.4h14V181h-14z"/><path class="st3" d="M51.5 231.9l-.8-2.7h-4.2l-.8 2.7h-2.6l4-11.5h3l4 11.5h-2.6zm-1.4-4.8c-.8-2.5-1.2-3.9-1.3-4.2-.1-.3-.2-.6-.2-.8-.2.7-.7 2.3-1.5 4.9h3v.1z"/><path d="M17 172.9l-.7-2h-2.7l-.7 2h-1.2l2.7-7.2h1.3l2.7 7.2H17zm-1.1-3l-.7-1.9c0-.1-.1-.3-.2-.6s-.1-.5-.2-.6c-.1.4-.2.8-.4 1.3l-.6 1.9 2.1-.1z"/><path d="M24.2 174.8h-1.1v-1.9h-3.7v1.9h-1.1V172h.4c.4-.5.7-1.2.9-2 .2-.8.4-1.6.4-2.5h3.3v4.5h.8v2.8h.1zm-1.9-2.8v-3.6h-1.2c-.1.7-.2 1.3-.4 2s-.4 1.2-.7 1.7h2.3v-.1zm6-.2l.1-.2c.1-.5.2-.9.3-1.1l1.2-2.9h1.5v5.4h-1.1v-4.4l-.1.3c-.1.5-.3.9-.4 1.2l-1.2 2.9h-.9l-1.2-2.9c-.2-.4-.3-.9-.4-1.4v4.4h-1v-5.4h1.5l1.2 2.9c.2 0 .3.5.5 1.2zm5.9-4.3v2.8c0 .3 0 .8-.1 1.4l2.7-4.2h1.4v5.4h-1.1v-4.1l-2.7 4.2H33v-5.4l1.2-.1zm6.8 0v2.2h2.5v-2.2h1.1v5.4h-1.1v-2.3H41v2.3h-1.1v-5.4H41zm6.4 0v2.8c0 .3 0 .8-.1 1.4l2.7-4.2h1.4v5.4h-1.1v-4.1l-2.7 4.2h-1.4v-5.4l1.2-.1zm7.9 5.5c-.8 0-1.4-.2-1.9-.7-.4-.5-.6-1.2-.6-2.1s.2-1.6.7-2.1 1.1-.7 1.9-.7c.6 0 1.1.1 1.5.3l-.3.9c-.5-.2-.9-.3-1.2-.3-.9 0-1.4.6-1.4 1.9 0 .6.1 1.1.3 1.4.2.3.6.5 1 .5.5 0 1-.1 1.5-.4v1c-.2.1-.4.2-.7.3s-.5 0-.8 0zm6.8-5.5v.9h-1.8v4.5h-1.2v-4.5h-1.8v-.9h4.8zm3.8 5.5c-.7 0-1.2-.2-1.6-.7h-.1c0 .5.1.7.1.8v2.2h-1.1v-7.8h.9c0 .1.1.3.2.7h.1c.4-.5.9-.8 1.6-.8s1.2.2 1.6.7.6 1.2.6 2.1-.2 1.6-.6 2.1-1 .7-1.7.7zm-.3-4.7c-.5 0-.8.1-1 .4s-.3.7-.3 1.3v.2c0 .7.1 1.1.3 1.4.2.3.5.4 1 .4.4 0 .7-.2.9-.5s.3-.8.3-1.4-.1-1.1-.3-1.4c-.2-.2-.5-.4-.9-.4zm7.2 4.6l-.2-.8c-.3.3-.5.6-.8.7s-.6.2-1 .2c-.5 0-.9-.1-1.2-.4s-.4-.7-.4-1.2c0-.6.2-1 .6-1.3s1-.4 1.9-.5h.9v-.3c0-.3-.1-.6-.2-.8-.2-.2-.4-.3-.7-.3-.3 0-.5 0-.8.1s-.5.2-.7.3l-.4-.8c.3-.2.6-.3 1-.3.3-.1.7-.1 1-.1.7 0 1.2.1 1.6.4s.5.8.5 1.4v3.6l-1.1.1zm-1.8-.8c.4 0 .8-.1 1-.3.3-.2.4-.6.4-1v-.5h-.7c-.5 0-.9.1-1.2.3-.2.2-.4.4-.4.7 0 .2.1.4.2.6.2.1.5.2.7.2zm9-.1h.8v2.8h-1.1v-1.9h-4.5v-5.4h1.1v4.5h2.5v-4.5h1.1v4.5h.1zm2.9-4.5v2.8c0 .3 0 .8-.1 1.4l2.7-4.2h1.4v5.4h-1.1v-4.1l-2.7 4.2h-1.4v-5.4l1.2-.1zm6.2 5.4h-1.3l1.5-2.2c-.4-.1-.7-.3-.9-.6-.2-.3-.3-.6-.3-1 0-.5.2-.9.5-1.2.4-.3.9-.4 1.5-.4h2.5v5.4h-1.2v-2.1h-1.1l-1.2 2.1zm.1-3.8c0 .3.1.5.3.6.2.1.5.2.8.2h1.1v-1.6h-1.2c-.3 0-.6.1-.7.2s-.3.4-.3.6zm-73.3 10.4v.9h-2.3v4.5h-1.1v-5.4h3.4zm5.8 2.7c0 .9-.2 1.6-.7 2.1s-1.1.7-1.9.7c-.5 0-1-.1-1.3-.3s-.7-.6-.9-1-.3-.9-.3-1.5c0-.9.2-1.6.7-2.1s1.1-.7 1.9-.7 1.4.3 1.9.8c.4.5.6 1.1.6 2zm-3.9 0c0 1.2.5 1.9 1.4 1.9s1.4-.6 1.4-1.9c0-1.2-.5-1.9-1.4-1.9-.5 0-.8.2-1 .5s-.4.8-.4 1.4zm8 2.8c-.7 0-1.2-.2-1.6-.7h-.1c0 .5.1.7.1.8v2.2H23v-7.8h.9c0 .1.1.3.2.7h.1c.4-.5.9-.8 1.6-.8s1.2.2 1.6.7.6 1.2.6 2.1-.2 1.6-.6 2.1-.9.7-1.6.7zm-.3-4.7c-.5 0-.8.1-1 .4s-.3.7-.3 1.3v.2c0 .7.1 1.1.3 1.4.2.3.5.4 1 .4.4 0 .7-.2.9-.5s.3-.8.3-1.4-.1-1.1-.3-1.4c-.2-.2-.5-.4-.9-.4zm8.6 1.9c0 .9-.2 1.6-.7 2.1s-1.1.7-1.9.7c-.5 0-1-.1-1.3-.3s-.7-.6-.9-1-.3-.9-.3-1.5c0-.9.2-1.6.7-2.1s1.1-.7 1.9-.7 1.4.3 1.9.8c.3.5.6 1.1.6 2zm-4 0c0 1.2.5 1.9 1.4 1.9s1.4-.6 1.4-1.9c0-1.2-.5-1.9-1.4-1.9-.5 0-.8.2-1 .5s-.4.8-.4 1.4zm10.5 4.6h-1.1v-1.9h-3.7v1.9h-1.1V184h.4c.4-.5.7-1.2.9-2 .2-.8.4-1.6.4-2.5h3.3v4.5h.8v2.8h.1zm-2-2.8v-3.6h-1.2c-.1.7-.2 1.3-.4 2s-.4 1.2-.7 1.7h2.3v-.1zm6.3.9l-.2-.8c-.3.3-.5.6-.8.7s-.6.2-1 .2c-.5 0-.9-.1-1.2-.4s-.4-.7-.4-1.2c0-.6.2-1 .6-1.3s1-.4 1.9-.5h.9v-.3c0-.3-.1-.6-.2-.8-.2-.2-.4-.3-.7-.3-.3 0-.5 0-.8.1s-.5.2-.7.3l-.4-.8c.3-.2.6-.3 1-.3.3-.1.7-.1 1-.1.7 0 1.2.1 1.6.4s.5.8.5 1.4v3.6l-1.1.1zm-1.7-.8c.4 0 .8-.1 1-.3.3-.2.4-.6.4-1v-.5h-.7c-.5 0-.9.1-1.2.3-.2.2-.4.4-.4.7 0 .2.1.4.2.6.2.1.4.2.7.2zm91.4 21.8h1.2l1.1 3.1c.2.4.3.8.3 1.2 0-.2.1-.4.2-.7l1.2-3.6h1.2l-2.3 6.1c-.4 1.1-1.1 1.7-2.1 1.7-.3 0-.5 0-.7-.1v-.9c.2 0 .4.1.6.1.6 0 .9-.3 1.2-1l.2-.5-2.1-5.4zm10.6 5.4H144v-4.5h-1.5c-.1 1.2-.2 2.1-.4 2.7s-.4 1.1-.6 1.4-.6.4-1 .4c-.3 0-.5 0-.6-.1v-.9c.1 0 .2.1.4.1.3 0 .6-.4.8-1.1.2-.7.3-1.9.4-3.4h3.6v5.4h.1zm1.5-.6c0-.2.1-.4.2-.5s.3-.2.5-.2.4.1.5.2.2.3.2.5-.1.4-.2.5-.3.2-.5.2-.4-.1-.5-.2-.2-.3-.2-.5zm11.1.6h-1.2v-6.1h-3.1v6.1h-1.2v-7.1h5.5v7.1zm1-5.4h1.2l1.1 3.1c.2.4.3.8.3 1.2 0-.2.1-.4.2-.7l1.2-3.6h1.2l-2.3 6.1c-.4 1.1-1.1 1.7-2.1 1.7-.3 0-.5 0-.7-.1v-.9c.2 0 .4.1.6.1.6 0 .9-.3 1.2-1l.2-.5-2.1-5.4zm13.8 5.4h-7.7v-5.4h1.1v4.5h2.1v-4.5h1.1v4.5h2.1v-4.5h1.2l.1 5.4zm5-5.4h1.3l-2.2 2.6 2.4 2.8h-1.3l-2.3-2.7v2.7h-1.1v-5.4h1.1v2.6l2.1-2.6zm3.4 0v2.8c0 .3 0 .8-.1 1.4l2.7-4.2h1.4v5.4h-1.1v-4.1l-2.7 4.2h-1.4v-5.5h1.2zm6.8 0v2.2h2.5v-2.2h1.1v5.4h-1.1V209h-2.5v2.3h-1.1v-5.4h1.1zm7.5 5.5c-.8 0-1.4-.2-1.9-.7-.4-.5-.6-1.2-.6-2.1s.2-1.6.7-2.1 1.1-.7 1.9-.7c.6 0 1.1.1 1.5.3l-.3.9c-.5-.2-.9-.3-1.2-.3-.9 0-1.4.6-1.4 1.9 0 .6.1 1.1.3 1.4.2.3.6.5 1 .5.5 0 1-.1 1.5-.4v1c-.2.1-.4.2-.7.3h-.8zm6.2-5.5h1.3l-2.2 2.6 2.4 2.8h-1.3l-2.3-2.7v2.7h-1.1v-5.4h1.1v2.6l2.1-2.6zm5.7 5.4l-.2-.8c-.3.3-.5.6-.8.7s-.6.2-1 .2c-.5 0-.9-.1-1.2-.4s-.4-.7-.4-1.2c0-.6.2-1 .6-1.3s1-.4 1.9-.5h.9v-.3c0-.3-.1-.6-.2-.8-.2-.2-.4-.3-.7-.3-.3 0-.5 0-.8.1s-.5.2-.7.3l-.4-.8c.3-.2.6-.3 1-.3.3-.1.7-.1 1-.1.7 0 1.2.1 1.6.4s.5.8.5 1.4v3.6l-1.1.1zm-1.7-.8c.4 0 .8-.1 1-.3.3-.2.4-.6.4-1v-.5h-.7c-.5 0-.9.1-1.2.3-.2.2-.4.4-.4.7 0 .2.1.4.2.6.2.2.4.2.7.2zm4.7.8h-1.3l1.5-2.2c-.4-.1-.7-.3-.9-.6-.2-.3-.3-.6-.3-1 0-.5.2-.9.5-1.2.4-.3.9-.4 1.5-.4h2.5v5.4h-1.2v-2.1h-1.1l-1.2 2.1zm.1-3.8c0 .3.1.5.3.6.2.1.5.2.8.2h1.1v-1.6h-1.2c-.3 0-.6.1-.7.2s-.3.4-.3.6zM41.5 51.5h2.1c1 0 1.7.1 2.1.4s.7.7.7 1.4c0 .4-.1.8-.3 1s-.5.5-.9.5c.5.1.9.3 1.1.6s.4.7.4 1.1c0 .6-.2 1.1-.7 1.5-.4.4-1.1.5-1.9.5h-2.6v-7zm1.1 2.9h1.1c.5 0 .8-.1 1.1-.2.2-.2.3-.4.3-.8 0-.3-.1-.6-.4-.7s-.6-.2-1.2-.2h-1v1.9h.1zm0 1v2.3h1.2c.5 0 .9-.1 1.1-.3s.4-.5.4-.9-.1-.6-.4-.8-.6-.3-1.2-.3h-1.1zm7.7 3.3c-.8 0-1.5-.2-2-.7s-.7-1.2-.7-2c0-.9.2-1.6.7-2.1s1-.8 1.8-.8c.7 0 1.3.2 1.7.6s.6 1 .6 1.8v.6h-3.6c0 .5.2.9.4 1.2.3.3.6.4 1.1.4.3 0 .6 0 .9-.1l.9-.3v.9c-.3.1-.6.2-.8.3s-.6.2-1 .2zm-.2-4.7c-.4 0-.7.1-.9.3s-.4.6-.4 1h2.5c0-.4-.1-.8-.3-1-.3-.2-.6-.3-.9-.3zm6.3 4.7c-.7 0-1.2-.2-1.6-.7h-.1c0 .5.1.7.1.8V61h-1.1v-7.8h.9c0 .1.1.3.2.7h.1c.4-.5.9-.8 1.6-.8s1.2.2 1.6.7.6 1.2.6 2.1-.2 1.6-.6 2.1-1 .7-1.7.7zm-.2-4.6c-.5 0-.8.1-1 .4s-.3.7-.3 1.3v.2c0 .7.1 1.1.3 1.4.2.3.5.4 1 .4.4 0 .7-.2.9-.5s.3-.8.3-1.4c0-.6-.1-1.1-.3-1.4-.2-.3-.5-.4-.9-.4zm4.9 1.8l-1.8-2.6h1.3l1.2 1.9 1.2-1.9h1.3l-1.8 2.6 1.9 2.8h-1.3l-1.3-2-1.3 2h-1.3l1.9-2.8zm9.1 0c0 .9-.2 1.6-.7 2.1s-1.1.7-1.9.7c-.5 0-1-.1-1.3-.3s-.7-.6-.9-1-.3-.9-.3-1.5c0-.9.2-1.6.7-2.1s1.1-.7 1.9-.7 1.4.3 1.9.8c.4.5.6 1.2.6 2zm-3.9 0c0 1.2.5 1.9 1.4 1.9s1.4-.6 1.4-1.9c0-1.2-.5-1.9-1.4-1.9-.5 0-.8.2-1 .5s-.4.8-.4 1.4zm9.9-1.3c0 .6-.4 1-1.1 1.2.4 0 .7.2 1 .4s.3.5.3.8c0 .5-.2.9-.6 1.2s-1 .4-1.7.4h-2.6v-5.4h2.6c1.4 0 2.1.5 2.1 1.4zm-1.1.1c0-.2-.1-.4-.3-.5-.2-.1-.4-.1-.7-.1h-1.4v1.3h1.2c.4 0 .7 0 .9-.1.2-.2.3-.3.3-.6zm.1 2.3c0-.3-.1-.4-.3-.6-.2-.1-.5-.2-.9-.2h-1.3v1.5h1.4c.7.1 1.1-.2 1.1-.7zm3.5-3.8v2.2h2.5v-2.2h1.1v5.4h-1.1v-2.3h-2.5v2.3h-1.1v-5.4h1.1zm6.5 2.2h1.1c.8 0 1.3.1 1.7.4s.5.7.5 1.2c0 .6-.2 1-.6 1.3s-.9.4-1.7.4H84v-5.4h1.1v2.1h.1zm2.2 1.6c0-.3-.1-.5-.3-.6s-.5-.2-.9-.2h-1v1.5h.9c.5 0 .8-.1 1-.2s.3-.3.3-.5zm3.1 1.6h-1.2v-5.4h1.2v5.4zm2.8-5.4V56c0 .3 0 .8-.1 1.4l2.7-4.2h1.4v5.4h-1.1v-4.1l-2.7 4.2h-1.4v-5.4h1.2v-.1zm1.4-.6c-.7 0-1.2-.1-1.5-.4-.3-.2-.5-.7-.5-1.2h1c0 .2.1.4.1.5s.2.2.3.3c.1.1.3.1.6.1s.6-.1.7-.2c.2-.1.3-.4.3-.7h1.1c0 .6-.2 1-.6 1.2s-.8.4-1.5.4zM43.5 70.7c-.8 0-1.4-.2-1.9-.7-.4-.5-.6-1.2-.6-2.1s.2-1.6.7-2.1 1.1-.7 1.9-.7c.6 0 1.1.1 1.5.3l-.3.9c-.5-.2-.9-.3-1.2-.3-.9 0-1.4.6-1.4 1.9 0 .6.1 1.1.3 1.4.2.3.6.5 1 .5.5 0 1-.1 1.5-.4v1c-.2.1-.4.2-.7.3s-.5 0-.8 0zm2-5.5h1.2l1.1 3.1c.2.4.3.8.3 1.2 0-.2.1-.4.2-.7l1.2-3.6h1.2l-2.3 6.1c-.4 1.1-1.1 1.7-2.1 1.7-.3 0-.5 0-.7-.1V72c.2 0 .4.1.6.1.6 0 .9-.3 1.2-1l.2-.5-2.1-5.4zm11.3 7.3h-1.1v-1.9H52v1.9h-1v-2.8h.4c.4-.5.7-1.2.9-2 .2-.8.4-1.6.4-2.5H56v4.5h.8v2.8zm-1.9-2.8v-3.6h-1.2c-.1.7-.2 1.3-.4 2s-.4 1.2-.7 1.7h2.3v-.1zM66 63.5l-2.3 5.1c-.3.6-.5 1.1-.8 1.3-.2.3-.5.5-.8.6s-.7.2-1.1.2-.7 0-1-.1v-1c.3.1.7.2 1 .2s.5-.1.7-.2.4-.4.5-.8l-2.6-5.2h1.3l1.7 3.6c.2.3.3.6.3.7 0-.1.1-.2.1-.4l1.6-3.9H66v-.1zm5.6 2.1c0 .7-.2 1.3-.7 1.7s-1.2.6-2.1.6h-.7v2.7h-1.2v-7.1H69c.9 0 1.6.2 2 .5.4.3.6.9.6 1.6zM68.1 67h.6c.6 0 1-.1 1.3-.3s.4-.5.4-1c0-.4-.1-.7-.4-.9s-.6-.3-1.2-.3H68V67h.1zm40.7 70.3h5.4v1.2h-4.5v2.4h4.5v1.1h-5.4v-4.7zm5.5-4c0 .8-.2 1.5-.7 2s-1.2.7-2 .7c-.9 0-1.6-.2-2.1-.7s-.8-1-.8-1.8c0-.7.2-1.3.6-1.7.4-.4 1-.6 1.8-.6h.6v3.6c.5 0 .9-.2 1.2-.4.3-.3.4-.6.4-1.1 0-.3 0-.6-.1-.9l-.3-.9h.9c.1.3.2.6.3.8.2.3.2.7.2 1zm-4.7.2c0 .4.1.7.3.9s.6.4 1 .4v-2.5c-.4 0-.8.1-1 .3-.2.3-.3.6-.3.9zm4.7-6.3c0 .7-.2 1.2-.7 1.6v.1c.5 0 .7-.1.8-.1h2.2v1.1h-7.8v-.9c.1 0 .3-.1.7-.2v-.1c-.5-.4-.8-.9-.8-1.6s.2-1.2.7-1.6 1.2-.6 2.1-.6 1.6.2 2.1.6.7 1 .7 1.7zm-4.6.3c0 .5.1.8.4 1s.7.3 1.3.3h.2c.7 0 1.1-.1 1.4-.3.3-.2.4-.5.4-1 0-.4-.2-.7-.5-.9s-.8-.3-1.4-.3-1.1.1-1.4.3c-.3.1-.4.5-.4.9zm3.9-3.6c-.2 0-.4-.1-.5-.2s-.2-.3-.2-.5.1-.4.2-.5.3-.2.5-.2.4.1.5.2.2.3.2.5-.1.4-.2.5-.3.2-.5.2zm-4.4-10.4c.7 0 1.3.2 1.7.7s.6 1.2.6 2.1v.7h2.7v1.2h-7.1v-2.1c0-.9.2-1.6.5-2s.9-.6 1.6-.6zm1.4 3.6v-.6c0-.6-.1-1-.3-1.3-.2-.3-.5-.4-1-.4-.4 0-.7.1-.9.4-.2.3-.3.6-.3 1.2v.8h2.5v-.1zm3.6-8.3l-.8.2c.3.3.6.5.7.8s.2.6.2 1c0 .5-.1.9-.4 1.2s-.7.4-1.2.4c-.6 0-1-.2-1.3-.6s-.4-1-.5-1.9v-.9h-.3c-.3 0-.6.1-.8.2-.2.2-.3.4-.3.7 0 .3 0 .5.1.8s.2.5.3.7l-.8.4c-.2-.3-.3-.6-.3-1-.1-.3-.1-.7-.1-1 0-.7.1-1.2.4-1.6s.8-.5 1.4-.5h3.6l.1 1.1zm-.8 1.7c0-.4-.1-.8-.3-1-.2-.3-.6-.4-1-.4h-.5v.7c0 .5.1.9.3 1.2.2.2.4.4.7.4.2 0 .4-.1.6-.2.2-.2.2-.4.2-.7zm-2.4-5.3c0-.5-.1-.9-.2-1.2-.1-.2-.3-.4-.5-.4-.4 0-.7.4-.7 1.2 0 .5.1 1.1.4 1.6l-.9.4c-.3-.6-.4-1.3-.4-2.1 0-.7.1-1.2.4-1.6.2-.4.6-.6 1.1-.6.6 0 1 .3 1.2 1 .1-.4.3-.7.5-.9s.5-.3.8-.3c.5 0 .9.2 1.2.7.3.4.4 1 .4 1.8s-.1 1.5-.3 1.9h-1c.3-.6.4-1.2.4-1.9 0-.5-.1-.8-.2-1.1-.1-.2-.3-.4-.6-.4s-.5.1-.6.4-.2.6-.2 1.2v.7h-.8v-.4zm5.1-9.2v1.1h-1.9v3.7h1.9v1.1h-2.8v-.4c-.5-.4-1.2-.7-2-.9-.8-.2-1.6-.4-2.5-.4v-3.3h4.5v-.8h2.8V96zm-2.8 2h-3.6v1.2c.7.1 1.3.2 2 .4s1.2.4 1.7.7V98h-.1zm1-5.3c0 .8-.2 1.5-.7 2s-1.2.7-2 .7c-.9 0-1.6-.2-2.1-.7s-.8-1-.8-1.8c0-.7.2-1.3.6-1.7s1-.6 1.8-.6h.6v3.6c.5 0 .9-.2 1.2-.4.3-.3.4-.6.4-1.1 0-.3 0-.6-.1-.9l-.3-.9h.9c.1.3.2.6.3.8s.2.6.2 1zm-4.7.2c0 .4.1.7.3.9s.6.4 1 .4v-2.5c-.4 0-.8.1-1 .3-.2.2-.3.5-.3.9zm4.6-8.1V86h-4.5v1.5c1.2.1 2.1.2 2.7.4s1.1.4 1.4.6.4.6.4 1c0 .3 0 .5-.1.6h-.9c0-.1.1-.2.1-.4 0-.3-.4-.6-1.1-.8-.7-.2-1.9-.3-3.4-.4v-3.6h5.4v-.1zM111 82v-1.4c0-1.5.5-2.3 1.6-2.3.5 0 1 .2 1.3.6s.4.9.4 1.7v2.5h-5.4V82h2.1zm1.6-2.4c-.3 0-.5.1-.6.3s-.2.5-.2.9v1.3h1.5v-1.3c0-.4-.1-.7-.2-.9s-.3-.3-.5-.3zm-3.8-3.6h2.2v-2.5h-2.2v-1.1h5.4v1.1h-2.3V76h2.3v1.1h-5.4V76zm5.4-11.8v1.2h-5.4v-1.2h5.4zm-3.2 5.3v-1.1c0-.8.1-1.3.4-1.7.3-.4.7-.5 1.2-.5.6 0 1 .2 1.3.6s.4.9.4 1.7v2.2h-5.4v-1.1h2.1v-.1zm1.6-2.1c-.3 0-.5.1-.6.3s-.2.5-.2.9v1h1.5v-.9c0-.5-.1-.8-.2-1s-.3-.3-.5-.3zm-4.4-7.3c0 .7-.1 1.2-.4 1.5-.2.3-.7.5-1.2.5v-1c.2 0 .4-.1.5-.1s.2-.2.3-.3c.1-.1.1-.3.1-.6s-.1-.6-.2-.7c-.1-.2-.4-.3-.7-.3v-1.2c.6 0 1 .2 1.2.6s.4.9.4 1.6zm.6 1.4h2.8c.3 0 .8 0 1.4.1l-4.2-2.7v-1.4h5.4v1.1h-4.1l4.2 2.7v1.4h-5.4l-.1-1.2zm140.8 81.4v-1.2l3.1-1.1c.4-.2.8-.3 1.2-.3-.2 0-.4-.1-.7-.2l-3.6-1.2v-1.2l6.1 2.3c1.1.4 1.7 1.1 1.7 2.1 0 .3 0 .5-.1.7h-.9c0-.2.1-.4.1-.6 0-.6-.3-.9-1-1.2l-.5-.2-5.4 2.1zm5.4-10.6v1.2h-4.5v1.5c1.2.1 2.1.2 2.7.4s1.1.4 1.4.6.4.6.4 1c0 .2 0 .5-.1.6h-.9c0-.1.1-.2.1-.4 0-.3-.4-.6-1.1-.8-.7-.2-1.9-.3-3.4-.4v-3.6h5.4v-.1zm-.6-1.5c-.2 0-.4-.1-.5-.2s-.2-.3-.2-.5.1-.4.2-.5c.1-.1.3-.2.5-.2s.4.1.5.2.2.3.2.5-.1.4-.2.5-.3.2-.5.2zm.6-11.1v1.4l-3.6 2.9h3.6v1.2h-7.1V124h3.5l-3.5-2.9v-1.3l3.4 2.9 3.7-3zm-5.4-1.9h2.8c.3 0 .8 0 1.4.1l-4.2-2.7v-1.4h5.4v1.1h-4.1l4.2 2.7v1.4h-5.4l-.1-1.2zm5.5-8.5c0 .7-.2 1.2-.7 1.6v.1c.5 0 .7-.1.8-.1h2.2v1.1h-7.8v-.9c.1 0 .3-.1.7-.2-.5-.4-.8-.9-.8-1.6s.2-1.2.7-1.6 1.2-.6 2.1-.6 1.6.2 2.1.6.7 1 .7 1.6zm-4.7.3c0 .5.1.8.4 1s.7.3 1.3.3h.2c.7 0 1.1-.1 1.4-.3.3-.2.4-.5.4-1 0-.4-.2-.7-.5-.9s-.8-.3-1.4-.3c-.6 0-1.1.1-1.4.3-.2.2-.4.5-.4.9zm1.9-8.5c.9 0 1.6.2 2.1.7s.7 1.1.7 1.9c0 .5-.1 1-.3 1.3s-.6.7-1 .9-.9.3-1.5.3c-.9 0-1.6-.2-2.1-.7s-.7-1.1-.7-1.9.3-1.4.8-1.9c.5-.4 1.1-.6 2-.6zm0 3.9c1.2 0 1.9-.5 1.9-1.4s-.6-1.4-1.9-1.4c-1.2 0-1.9.5-1.9 1.4 0 .5.2.8.5 1s.8.4 1.4.4zm-1.3-9.9c.6 0 1 .4 1.2 1.1 0-.4.2-.7.4-1s.5-.3.8-.3c.5 0 .9.2 1.2.6s.4 1 .4 1.7v2.6h-5.4v-2.6c0-1.4.5-2.1 1.4-2.1zm.1 1.1c-.2 0-.4.1-.5.3-.1.2-.1.4-.1.7v1.4h1.3v-1.2c0-.4 0-.7-.1-.9-.2-.2-.4-.3-.6-.3zm2.2-.1c-.3 0-.4.1-.6.3-.1.2-.2.5-.2.9v1.3h1.5v-1.4c.1-.7-.1-1.1-.7-1.1zm1.7-5.8l-.8.2c.3.3.6.5.7.8.1.3.2.6.2 1 0 .5-.1.9-.4 1.2s-.7.4-1.2.4c-.6 0-1-.2-1.3-.6s-.4-1-.5-1.9v-.9h-.3c-.3 0-.6.1-.8.2-.2.2-.3.4-.3.7 0 .3 0 .5.1.8s.2.5.3.7l-.8.4c-.2-.3-.3-.6-.3-1-.1-.3-.1-.7-.1-1 0-.7.1-1.2.4-1.6s.8-.5 1.4-.5h3.6l.1 1.1zm-.8 1.7c0-.4-.1-.8-.3-1-.2-.3-.6-.4-1-.4h-.5v.7c0 .5.1.9.3 1.2.2.2.4.4.7.4.2 0 .4-.1.6-.2.1-.2.2-.4.2-.7z"/><path class="st3" d="M65.9 96.7c-1.5 0-4-.7-4-2.6 0-.3 3.1-5.9 3.5-6.6.1-.2.3-.3.5-.3s.4.1.5.3c.4.7 3.5 6.2 3.5 6.6 0 1.9-2.6 2.6-4 2.6zm-3.5-2.6h6.9l-3.4-6.3-3.5 6.3zm9.8-6.9v11.5h5.4c.2 0 .3.1.3.3v.6c0 .2-.1.3-.3.3h-12c-.2 0-.3-.1-.3-.3V99c0-.2.1-.3.3-.3H71V87.2c-.5-.2-.9-.6-1-1h-4.4c-.2 0-.3-.1-.3-.3v-.6c0-.2.1-.3.3-.3H70c.2-.7.9-1.1 1.6-1.1s1.4.5 1.6 1.1h4.4c.2 0 .3.1.3.3v.6c0 .2-.1.3-.3.3h-4.4c-.2.4-.6.8-1 1zm.1-1.6c0-.4-.3-.7-.7-.7s-.7.3-.7.7.3.7.7.7.7-.3.7-.7zm5 11.1c-1.5 0-4-.7-4-2.6 0-.3 3.1-5.9 3.5-6.6.1-.2.3-.3.5-.3s.4.1.5.3c.4.7 3.5 6.2 3.5 6.6 0 1.9-2.5 2.6-4 2.6zm-3.4-2.6h6.9l-3.4-6.3-3.5 6.3z"/><path class="st1" d="M37.3 150.6h-.7c-6.8 0-12.4-5.5-12.4-12.4v-.7c0-6.8 5.5-12.4 12.4-12.4h.7c6.8 0 12.4 5.5 12.4 12.4v.7c0 6.8-5.6 12.4-12.4 12.4z"/><path class="st3" d="M32.1 132.3v11.3c0 .2-.1.3-.3.3h-.6c-.2 0-.3-.1-.3-.3v-11.3c-.3-.2-.6-.6-.6-1 0-.6.5-1.1 1.1-1.1s1.1.5 1.1 1.1c.1.5-.1.8-.4 1zm13.7 6.4c0 .3-.2.5-.5.6-1 .5-2.1 1-3.3 1-1.6 0-2.4-1.2-4.4-1.2-1.4 0-2.9.6-4.1 1.3-.1.1-.2.1-.3.1-.3 0-.6-.3-.6-.6v-6.6c0-.2.1-.4.3-.5.2-.1.5-.3.7-.4 1.1-.6 2.5-1.1 3.8-1.1 1.4 0 2.5.5 3.7 1 .2.1.5.2.8.2 1.4 0 2.9-1.2 3.3-1.2.3 0 .6.3.6.6v6.8z"/><path class="st2" d="M126.6 111h8.4c3.9 0 4.1 3.7 4.1 4.5 0 .7-.1 1.6-.4 3h-3.3c.2-.6.2-1.2.2-1.3 0-.4-.1-1.5-1.6-1.5h-7.3V111h-.1zm11.1-7.6c1.2.9 1.3 2.3 1.3 3.3 0 2.2-1.2 3.2-2.7 3.2-3.2 0-3.2-3.5-3.2-5.8v-.6h-.3c-1 0-1.1 1.2-1.1 2.1 0 .1 0 1.6.7 3.2H130c-.4-1.4-.6-3-.6-4.3 0-2.4.8-5 3.5-5h5.8v4h-1v-.1zm-2.9.3c0 .6-.1 2 1.1 2 .5 0 .9-.4.9-1s-.4-1.2-1.5-1.2h-.5v.2zm1.3-10.6l.1-4.5h2.6v9.5h-3.7l-2.7-4.6h-.1v4.4h-2.6v-9.2h3.7l2.7 4.4zm0-10.7l.1-4.5h2.6v9.5h-3.7l-2.7-4.6h-.1v4.4h-2.6V78h3.7l2.7 4.4z"/></svg>