<svg version="1.1" id="Слой_1" xmlns="http://www.w3.org/2000/svg" x="0" y="0" viewBox="0 0 272.1 238.1" xml:space="preserve"><style>.st0{fill:#a39d8f}.st1{fill:#626262}.st2{fill:#fff}</style><path class="st0" d="M1 1.1h1.8V237H1zm96.2.5H99v122.8h-1.8zm0 136.5H99V237h-1.8zM124 79.8h1.8v157.3H124zm0-78.2h1.8v53.7H124z"/><path class="st0" d="M1.3 122.6H99v1.8H1.3zm0 15.6H99v1.8H1.3zM124 53.6h147v1.8H124zm0 26.2h147.2v1.8H124zM44 230.1h37v-14.6h-5.7v-32.4H81v-14.5H44zM150.1 89.6h15.2V139h-15.2zm97.5 0h15.2v31.7h-15.2zm-97.5 55.8h15.2v83.2h-15.2z"/><path class="st0" d="M150.1 89.5h112.7v15.6H150.1z"/><path class="st1" d="M82.3 27.5h21.5v22.4H82.3z"/><path class="st2" d="M96.1 44.5l-.8-2.7h-4.2l-.8 2.7h-2.6l4-11.5h3l4 11.5h-2.6zm-1.4-4.7c-.8-2.5-1.2-3.9-1.3-4.2-.1-.3-.2-.6-.2-.8-.2.7-.7 2.3-1.5 4.9h3v.1z"/><path class="st1" d="M119.6 99.7h21.5v22.4h-21.5z"/><path class="st2" d="M133.5 116.8l-.8-2.7h-4.2l-.8 2.7h-2.6l4-11.5h3l4 11.5h-2.6zm-1.4-4.8c-.8-2.5-1.2-3.9-1.3-4.2s-.2-.6-.2-.8c-.2.7-.7 2.3-1.5 4.9h3v.1z"/><path d="M161.6 43.4h-1.2v-6.1h-3.1v6.1h-1.2v-7.1h5.5v7.1zm4.5.1c-.7 0-1.2-.2-1.6-.7h-.1c0 .5.1.7.1.8v2.2h-1.1V38h.9c0 .1.1.3.2.7h.1c.4-.5.9-.8 1.6-.8s1.2.2 1.6.7.6 1.2.6 2.1-.2 1.6-.6 2.1c-.5.4-1 .7-1.7.7zm-.3-4.7c-.5 0-.8.1-1 .4s-.3.7-.3 1.3v.2c0 .7.1 1.1.3 1.4.2.3.5.4 1 .4.4 0 .7-.2.9-.5s.3-.8.3-1.4c0-.6-.1-1.1-.3-1.4-.1-.2-.5-.4-.9-.4zm7.2 4.6l-.2-.8c-.3.3-.5.6-.8.7-.3.1-.6.2-1 .2-.5 0-.9-.1-1.2-.4s-.4-.7-.4-1.2c0-.6.2-1 .6-1.3s1-.4 1.9-.5h.9v-.3c0-.3-.1-.6-.2-.8-.2-.2-.4-.3-.7-.3-.3 0-.5 0-.8.1s-.5.2-.7.3l-.4-.8c.3-.2.6-.3 1-.3.3-.1.7-.1 1-.1.7 0 1.2.1 1.6.4.4.3.5.8.5 1.4v3.6H173v.1zm-1.7-.8c.4 0 .8-.1 1-.3.3-.2.4-.6.4-1v-.5h-.7c-.5 0-.9.1-1.2.3-.2.2-.4.4-.4.7 0 .2.1.4.2.6.2.1.4.2.7.2zm8.8-3.2c0 .6-.4 1-1.1 1.2.4 0 .7.2 1 .4.2.2.3.5.3.8 0 .5-.2.9-.6 1.2s-1 .4-1.7.4h-2.6V38h2.6c1.4 0 2.1.5 2.1 1.4zm-1.2.1c0-.2-.1-.4-.3-.5-.2-.1-.4-.1-.7-.1h-1.4v1.3h1.2c.4 0 .7 0 .9-.1.2-.2.3-.4.3-.6zm.2 2.2c0-.3-.1-.4-.3-.6-.2-.1-.5-.2-.9-.2h-1.3v1.5h1.4c.7.1 1.1-.1 1.1-.7zm3.4-3.7v2.8c0 .3 0 .8-.1 1.4l2.7-4.2h1.4v5.4h-1.1v-4.1l-2.7 4.2h-1.4v-5.4h1.2V38zm9.8 0v.9h-1.8v4.5h-1.2v-4.5h-1.8V38h4.8zm3.4 5.5c-.8 0-1.5-.2-2-.7s-.7-1.2-.7-2c0-.9.2-1.6.7-2.1s1-.8 1.8-.8c.7 0 1.3.2 1.7.6.4.4.6 1 .6 1.8v.6h-3.6c0 .5.2.9.4 1.2.3.3.6.4 1.1.4.3 0 .6 0 .9-.1l.9-.3v.9c-.3.1-.6.2-.8.3-.3.2-.7.2-1 .2zm-.2-4.7c-.4 0-.7.1-.9.3s-.4.6-.4 1h2.5c0-.4-.1-.8-.3-1-.3-.2-.6-.3-.9-.3zm8 4.6h-1.2v-4.5h-1.4c-.1 1.2-.2 2.1-.4 2.7-.2.7-.4 1.1-.6 1.4s-.6.4-1 .4c-.3 0-.5 0-.6-.1v-.8c.1 0 .2.1.4.1.3 0 .6-.4.8-1.1.2-.7.3-1.9.4-3.4h3.6v5.3zm2.8-3.2h1.4c1.5 0 2.3.5 2.3 1.6 0 .5-.2 1-.6 1.3s-.9.4-1.7.4h-2.5v-5.4h1.1v2.1zm2.5 1.5c0-.3-.1-.5-.3-.6s-.5-.2-.9-.2h-1.3v1.5h1.3c.4 0 .7-.1.9-.2.2 0 .3-.2.3-.5zm4.6 1.8c-.8 0-1.4-.2-1.9-.7-.4-.5-.6-1.2-.6-2.1 0-.9.2-1.6.7-2.1s1.1-.7 1.9-.7c.6 0 1.1.1 1.5.3l-.3.9c-.5-.2-.9-.3-1.2-.3-.9 0-1.4.6-1.4 1.9 0 .6.1 1.1.3 1.4.2.3.6.5 1 .5.5 0 1-.1 1.5-.4v1c-.2.1-.4.2-.7.3h-.8zm6.8-5.5v.9h-1.8v4.5h-1.2v-4.5h-1.8V38h4.8zm5.7 1.4c0 .6-.4 1-1.1 1.2.4 0 .7.2 1 .4.2.2.3.5.3.8 0 .5-.2.9-.6 1.2-.4.3-1 .4-1.7.4h-2.6V38h2.6c1.4 0 2.1.5 2.1 1.4zm-1.1.1c0-.2-.1-.4-.3-.5s-.4-.1-.7-.1h-1.4v1.3h1.2c.4 0 .7 0 .9-.1.2-.2.3-.4.3-.6zm.1 2.2c0-.3-.1-.4-.3-.6-.2-.1-.5-.2-.9-.2h-1.3v1.5h1.4c.7.1 1.1-.1 1.1-.7zm7.2-1c0 .9-.2 1.6-.7 2.1s-1.1.7-1.9.7c-.5 0-1-.1-1.3-.3-.4-.2-.7-.6-.9-1s-.3-.9-.3-1.5c0-.9.2-1.6.7-2.1s1.1-.7 1.9-.7c.8 0 1.4.3 1.9.8.3.5.6 1.1.6 2zm-4 0c0 1.2.5 1.9 1.4 1.9s1.4-.6 1.4-1.9c0-1.2-.5-1.9-1.4-1.9-.5 0-.8.2-1 .5-.3.3-.4.8-.4 1.4zm13.4-4.4l-2.3 5.1c-.3.6-.5 1.1-.8 1.3-.2.3-.5.5-.8.6s-.7.2-1.1.2c-.4 0-.7 0-1-.1v-1c.3.1.7.2 1 .2s.5-.1.7-.2c.2-.1.4-.4.5-.8l-2.6-5.2h1.3l1.7 3.6c.2.3.3.6.3.7 0-.1.1-.2.1-.4l1.6-3.9h1.4v-.1zm5.7 2.1c0 .7-.2 1.3-.7 1.7s-1.2.6-2.1.6h-.7v2.7h-1.2v-7.1h2.1c.9 0 1.6.2 2 .5s.6.9.6 1.6zm-3.6 1.3h.6c.6 0 1-.1 1.3-.3s.4-.5.4-1c0-.4-.1-.7-.4-.9-.3-.2-.6-.3-1.2-.3h-.8v2.5h.1zm-88.4 25.5h1.2l1.1 3.1c.2.4.3.8.3 1.2 0-.2.1-.4.2-.7l1.2-3.6h1.2l-2.3 6.1c-.4 1.1-1.1 1.7-2.1 1.7-.3 0-.5 0-.7-.1V72c.2 0 .4.1.6.1.6 0 .9-.3 1.2-1l.2-.5-2.1-5.4zm10.6 5.4h-1.2v-4.5h-1.5c-.1 1.2-.2 2.1-.4 2.7-.2.7-.4 1.1-.6 1.4s-.6.4-1 .4c-.3 0-.5 0-.6-.1v-.9c.1 0 .2.1.4.1.3 0 .6-.4.8-1.1.2-.7.3-1.9.4-3.4h3.6v5.4h.1zm1.5-.6c0-.2.1-.4.2-.5s.3-.2.5-.2.4.1.5.2.2.3.2.5-.1.4-.2.5-.3.2-.5.2-.4-.1-.5-.2c-.2-.1-.2-.2-.2-.5zm11 .6h-1.2v-6.1h-2c-.3 2.1-.5 3.5-.6 4.3-.2.8-.4 1.3-.7 1.6-.3.3-.7.4-1.1.4-.2 0-.5 0-.7-.1v-1c.2.1.4.1.5.1.2 0 .4-.1.5-.4s.3-.9.4-1.9c.2-1 .3-2.3.6-4h4.2v7.1h.1zm2.8-5.4V68c0 .3 0 .8-.1 1.4l2.7-4.2h1.4v5.4H184v-4.1l-2.7 4.2h-1.4v-5.4l1.2-.1zm6.9 2.7l-1.8-2.6h1.3l1.2 1.9 1.2-1.9h1.3l-1.8 2.6 1.9 2.8H190l-1.3-2-1.3 2h-1.3l1.9-2.8zm9-1.3c0 .6-.4 1-1.1 1.2.4 0 .7.2 1 .4.2.2.3.5.3.8 0 .5-.2.9-.6 1.2-.4.3-1 .4-1.7.4h-2.6v-5.4h2.6c1.4 0 2.1.5 2.1 1.4zm-1.2.1c0-.2-.1-.4-.3-.5-.2-.1-.4-.1-.7-.1h-1.4v1.3h1.2c.4 0 .7 0 .9-.1.2-.2.3-.3.3-.6zm.2 2.3c0-.3-.1-.4-.3-.6-.2-.1-.5-.2-.9-.2h-1.3v1.5h1.4c.7.1 1.1-.2 1.1-.7zm3.4-3.8V68c0 .3 0 .8-.1 1.4l2.7-4.2h1.4v5.4h-1.1v-4.1l-2.7 4.2h-1.4v-5.4l1.2-.1zm6.9 0v2.2h2.5v-2.2h1.1v5.4h-1.1v-2.3h-2.5v2.3h-1.1v-5.4h1.1zm10.1 4.5h.8v2.8h-1.1v-1.9h-4.5v-5.4h1.1v4.5h2.5v-4.5h1.1l.1 4.5zm4.1 1c-.8 0-1.5-.2-2-.7s-.7-1.2-.7-2c0-.9.2-1.6.7-2.1s1-.8 1.8-.8c.7 0 1.3.2 1.7.6s.6 1 .6 1.8v.6H219c0 .5.2.9.4 1.2.3.3.6.4 1.1.4.3 0 .6 0 .9-.1l.9-.3v.9c-.3.1-.6.2-.8.3-.3.2-.6.2-1 .2zm-.2-4.7c-.4 0-.7.1-.9.3s-.4.6-.4 1h2.5c0-.4-.1-.8-.3-1-.2-.2-.5-.3-.9-.3zm8.3.6c0 .6-.4 1-1.1 1.2.4 0 .7.2 1 .4.2.2.3.5.3.8 0 .5-.2.9-.6 1.2-.4.3-1 .4-1.7.4h-2.6v-5.4h2.6c1.4 0 2.1.5 2.1 1.4zm-1.1.1c0-.2-.1-.4-.3-.5s-.4-.1-.7-.1h-1.4v1.3h1.2c.4 0 .7 0 .9-.1.2-.2.3-.3.3-.6zm.1 2.3c0-.3-.1-.4-.3-.6-.2-.1-.5-.2-.9-.2h-1.3v1.5h1.4c.7.1 1.1-.2 1.1-.7zm5.7 1.6l-.2-.8c-.3.3-.5.6-.8.7s-.6.2-1 .2c-.5 0-.9-.1-1.2-.4s-.4-.7-.4-1.2c0-.6.2-1 .6-1.3.4-.3 1-.4 1.9-.5h.9V67c0-.3-.1-.6-.2-.8-.2-.2-.4-.3-.7-.3s-.5 0-.8.1-.5.2-.7.3l-.4-.8c.3-.2.6-.3 1-.3.3-.1.7-.1 1-.1.7 0 1.2.1 1.6.4.4.3.5.8.5 1.4v3.6l-1.1.1zm-1.7-.8c.4 0 .8-.1 1-.3.3-.2.4-.6.4-1V68h-.7c-.5 0-.9.1-1.2.3-.2.2-.4.4-.4.7 0 .2.1.4.2.6.2.2.4.2.7.2zM24 85.2h.9v2.9h-1.1v-2h-5.3V79h1.2v6.1h3.1V79H24v6.2zm4.3 1.1c-.8 0-1.5-.2-2-.7s-.7-1.2-.7-2c0-.9.2-1.6.7-2.1s1-.8 1.8-.8c.7 0 1.3.2 1.7.6s.6 1 .6 1.8v.6h-3.6c0 .5.2.9.4 1.2.3.3.6.4 1.1.4.3 0 .6 0 .9-.1l.9-.3v.9c-.3.1-.6.2-.8.3s-.6.2-1 .2zm-.2-4.7c-.4 0-.7.1-.9.3s-.4.6-.4 1h2.5c0-.4-.1-.8-.3-1-.2-.2-.5-.3-.9-.3zm4.8-.8V83h2.5v-2.2h1.1v5.4h-1.1v-2.3h-2.5v2.3h-1.1v-5.4h1.1zm9.4 0v.9h-1.8v4.5h-1.2v-4.5h-1.8v-.9h4.8zm3.8 5.5c-.7 0-1.2-.2-1.6-.7h-.1c0 .5.1.7.1.8v2.2h-1.1v-7.8h.9c0 .1.1.3.2.7h.1c.4-.5.9-.8 1.6-.8s1.2.2 1.6.7.6 1.2.6 2.1-.2 1.6-.6 2.1-1.1.7-1.7.7zm-.3-4.7c-.5 0-.8.1-1 .4s-.3.7-.3 1.3v.2c0 .7.1 1.1.3 1.4.2.3.5.4 1 .4.4 0 .7-.2.9-.5s.3-.8.3-1.4-.1-1.1-.3-1.4c-.2-.2-.5-.4-.9-.4zm7.1 4.6l-.2-.8c-.3.3-.5.6-.8.7s-.6.2-1 .2c-.5 0-.9-.1-1.2-.4s-.4-.7-.4-1.2c0-.6.2-1 .6-1.3s1-.4 1.9-.5h.9v-.3c0-.3-.1-.6-.2-.8-.2-.2-.4-.3-.7-.3-.3 0-.5 0-.8.1s-.5.2-.7.3l-.4-.8c.3-.2.6-.3 1-.3.3-.1.7-.1 1-.1.7 0 1.2.1 1.6.4s.5.8.5 1.4v3.6l-1.1.1zm-1.7-.8c.4 0 .8-.1 1-.3.3-.2.4-.6.4-1v-.5h-.7c-.5 0-.9.1-1.2.3-.2.2-.4.4-.4.7 0 .2.1.4.2.6.2.1.4.2.7.2zm8.6.8h-1.2v-4.5h-1.5c-.1 1.2-.2 2.1-.4 2.7s-.4 1.1-.6 1.4-.6.4-1 .4c-.3 0-.5 0-.6-.1v-.9c.1 0 .2.1.4.1.3 0 .6-.4.8-1.1.2-.7.3-1.9.4-3.4h3.6v5.4h.1zm2.8-3.3H64c1.5 0 2.3.5 2.3 1.6 0 .5-.2 1-.6 1.3s-.9.4-1.7.4h-2.5v-5.4h1.1v2.1zm2.4 1.6c0-.3-.1-.5-.3-.6s-.5-.2-.9-.2h-1.3v1.5h1.3c.4 0 .7-.1.9-.2s.3-.2.3-.5zm3.6-3.7V83h2.5v-2.2h1.1v5.4h-1.1v-2.3h-2.5v2.3h-1.1v-5.4h1.1zm8.7 5.4l-.2-.8c-.3.3-.5.6-.8.7s-.6.2-1 .2c-.5 0-.9-.1-1.2-.4s-.4-.7-.4-1.2c0-.6.2-1 .6-1.3s1-.4 1.9-.5h.9v-.3c0-.3-.1-.6-.2-.8-.2-.2-.4-.3-.7-.3-.3 0-.5 0-.8.1s-.5.2-.7.3l-.4-.8c.3-.2.6-.3 1-.3.3-.1.7-.1 1-.1.7 0 1.2.1 1.6.4s.5.8.5 1.4v3.6l-1.1.1zm-1.7-.8c.4 0 .8-.1 1-.3.3-.2.4-.6.4-1v-.5h-.7c-.5 0-.9.1-1.2.3-.2.2-.4.4-.4.7 0 .2.1.4.2.6.2.1.4.2.7.2zm4.7.8H79l1.5-2.2c-.4-.1-.7-.3-.9-.6-.2-.3-.3-.6-.3-1 0-.5.2-.9.5-1.2.4-.3.9-.4 1.5-.4h2.5v5.4h-1.2v-2.1h-1.1l-1.2 2.1zm.2-3.8c0 .3.1.5.3.6.2.1.5.2.8.2h1.1v-1.6h-1.2c-.3 0-.6.1-.7.2s-.3.4-.3.6zM23.1 92.8v5.4h-1.2v-4.5h-2.4v4.5h-1.1v-5.4h4.7zm6.1 5.4H28v-4.5h-1.5c-.1 1.2-.2 2.1-.4 2.7s-.4 1.1-.6 1.4-.6.4-1 .4c-.3 0-.5 0-.6-.1v-.9c.1 0 .2.1.4.1.3 0 .6-.4.8-1.1.2-.7.3-1.9.4-3.4h3.6v5.4h.1zm6.4-2.7c0 .9-.2 1.6-.7 2.1s-1.1.7-1.9.7c-.5 0-1-.1-1.3-.3s-.7-.6-.9-1-.3-.9-.3-1.5c0-.9.2-1.6.7-2.1s1.1-.7 1.9-.7 1.4.3 1.9.8c.4.4.6 1.1.6 2zm-3.9 0c0 1.2.5 1.9 1.4 1.9s1.4-.6 1.4-1.9c0-1.2-.5-1.9-1.4-1.9-.5 0-.8.2-1 .5s-.4.8-.4 1.4zm12.9 1.8h.8v2.8h-1.1v-1.9h-7.4v-5.4H38v4.5h2.1v-4.5h1.1v4.5h2.1v-4.5h1.2l.1 4.5zm5.1.9l-.2-.8c-.3.3-.5.6-.8.7s-.6.2-1 .2c-.5 0-.9-.1-1.2-.4s-.4-.7-.4-1.2c0-.6.2-1 .6-1.3s1-.4 1.9-.5h.9v-.3c0-.3-.1-.6-.2-.8-.2-.2-.4-.3-.7-.3-.3 0-.5 0-.8.1s-.5.2-.7.3l-.4-.8c.3-.2.6-.3 1-.3.3-.1.7-.1 1-.1.7 0 1.2.1 1.6.4s.5.8.5 1.4v3.6l-1.1.1zm-1.7-.8c.4 0 .8-.1 1-.3.3-.2.4-.6.4-1v-.5h-.7c-.5 0-.9.1-1.2.3-.2.2-.4.4-.4.7 0 .2.1.4.2.6.2.1.4.2.7.2zm9.3 2.7h-1.1v-1.9h-3.7v1.9h-1.1v-2.8h.4c.4-.5.7-1.2.9-2 .2-.8.4-1.6.4-2.5h3.3v4.5h.8v2.8h.1zm-1.9-2.8v-3.6h-1.2c-.1.7-.2 1.3-.4 2s-.4 1.2-.7 1.7h2.3v-.1zm4.1-2.4h1.4c1.5 0 2.3.5 2.3 1.6 0 .5-.2 1-.6 1.3s-.9.4-1.7.4h-2.5v-5.4h1.1v2.1zm2.4 1.6c0-.3-.1-.5-.3-.6s-.5-.2-.9-.2h-1.3v1.5h1.3c.4 0 .7-.1.9-.2s.3-.2.3-.5zM50 153.9v1h-3.1v6.1h-1.2v-7.1H50zm6.6 7.2h-1.4l-2.9-3.6v3.6h-1.2V154h1.2v3.5l2.9-3.5h1.3l-2.9 3.4 3 3.7zm5.8-2.2c0 1.4-.9 2.1-2.8 2.1h-2.1v-7.1h4.4v1h-3.2v1.9h.8c2 0 2.9.7 2.9 2.1zm-3.7 1.2h.8c.6 0 1-.1 1.2-.3.3-.2.4-.5.4-.9s-.1-.7-.4-.9c-.3-.2-.7-.3-1.4-.3h-.7v2.4h.1zm12.8 1h-1.3l-2.9-5.6h-.1c.1.8.1 1.5.1 2v3.6h-1V154h1.3l2.9 5.5h.1c-.1-.8-.1-1.4-.1-1.9V154h1v7.1zm3.8-3.1c0 .5-.1 1-.4 1.3s-.7.5-1.2.5-.8-.2-1.1-.5-.4-.7-.4-1.3.1-1 .4-1.3.7-.5 1.2-.5.9.2 1.1.5.4.8.4 1.3zm-3 3.1v-.8h2.8v.8h-2.8zm.6-3.1c0 .3.1.6.2.8s.3.3.6.3.5-.1.6-.3.2-.4.2-.8-.1-.6-.2-.8c-.1-.2-.3-.3-.6-.3s-.5.1-.6.3-.2.4-.2.8zm8.1 3.1h-4.8v-.9l1.8-1.9c.5-.6.9-1 1.1-1.2s.3-.5.4-.7.1-.4.1-.7c0-.3-.1-.6-.3-.8s-.5-.3-.8-.3-.5.1-.8.2-.6.3-.9.5l-.6-.8c.4-.3.8-.6 1.2-.7s.8-.2 1.2-.2c.7 0 1.2.2 1.6.5s.6.8.6 1.4c0 .3-.1.6-.2.9s-.3.6-.5.9-.6.7-1.2 1.2l-1.2 1.2h3.4v1.4H81zm26.8-10.6v-1.2l3.1-1.1c.4-.2.8-.3 1.2-.3-.2 0-.4-.1-.7-.2l-3.6-1.2v-1.2l6.1 2.3c1.1.4 1.7 1.1 1.7 2.1 0 .3 0 .5-.1.7h-.9c0-.2.1-.4.1-.6 0-.6-.3-.9-1-1.2l-.5-.2-5.4 2.1zm5.4-10.6v1.2h-4.5v1.5c1.2.1 2.1.2 2.7.4s1.1.4 1.4.6.4.6.4 1c0 .2 0 .5-.1.6h-.9c0-.1.1-.2.1-.4 0-.3-.4-.6-1.1-.8-.7-.2-1.9-.3-3.4-.4V140h5.4v-.1zm-.6-1.5c-.2 0-.4-.1-.5-.2s-.2-.3-.2-.5.1-.4.2-.5.3-.2.5-.2.4.1.5.2.2.3.2.5-.1.4-.2.5c-.1.2-.3.2-.5.2zm.6-11.1v1.2h-6.1v3.1h6.1v1.2h-7.1v-5.5h7.1zm-5.4-.9v-1.2l3.1-1.1c.4-.2.8-.3 1.2-.3-.2 0-.4-.1-.7-.2l-3.6-1.2v-1.2l6.1 2.3c1.1.4 1.7 1.1 1.7 2.1 0 .3 0 .5-.1.7h-.9c0-.2.1-.4.1-.6 0-.6-.3-.9-1-1.2l-.5-.2-5.4 2.1zm5.4-13.9v7.7h-5.4v-1.1h4.5V117h-4.5v-1.1h4.5v-2.1h-4.5v-1.3h5.4zm-5.4-5v-1.3l2.6 2.2 2.8-2.4v1.3l-2.7 2.3h2.7v1.1h-5.4v-1.1h2.6l-2.6-2.1zm0-3.4h2.8c.3 0 .8 0 1.4.1l-4.2-2.7v-1.4h5.4v1.1h-4.1l4.2 2.7v1.4h-5.4l-.1-1.2zm0-6.8h2.2v-2.5h-2.2v-1.1h5.4v1.1h-2.3v2.5h2.3v1.1h-5.4v-1.1zm5.5-7.5c0 .8-.2 1.4-.7 1.9-.5.4-1.2.6-2.1.6s-1.6-.2-2.1-.7-.7-1.1-.7-1.9c0-.6.1-1.1.3-1.5l.9.3c-.2.5-.3.9-.3 1.2 0 .9.6 1.4 1.9 1.4.6 0 1.1-.1 1.4-.3.3-.2.5-.6.5-1 0-.5-.1-1-.4-1.5h1c.1.2.2.4.3.7s0 .4 0 .8zm-5.5-6.2v-1.3l2.6 2.2 2.8-2.4v1.3l-2.7 2.3h2.7v1.1h-5.4v-1.1h2.6l-2.6-2.1zm5.4-5.7l-.8.2c.3.3.6.5.7.8s.2.6.2 1c0 .5-.1.9-.4 1.2s-.7.4-1.2.4c-.6 0-1-.2-1.3-.6s-.4-1-.5-1.9v-.9h-.3c-.3 0-.6.1-.8.2-.2.2-.3.4-.3.7 0 .3 0 .5.1.8s.2.5.3.7l-.8.4c-.2-.3-.3-.6-.3-1-.1-.3-.1-.7-.1-1 0-.7.1-1.2.4-1.6s.8-.5 1.4-.5h3.6l.1 1.1zm-.8 1.7c0-.4-.1-.8-.3-1-.2-.3-.6-.4-1-.4h-.5v.7c0 .5.1.9.3 1.2.2.2.4.4.7.4.2 0 .4-.1.6-.2.1-.2.2-.4.2-.7zm.8-4.7v1.3l-2.2-1.5c-.1.4-.3.7-.6.9-.3.2-.6.3-1 .3-.5 0-.9-.2-1.2-.5-.3-.4-.4-.9-.4-1.5v-2.5h5.4v1.2h-2.1v1.1l2.1 1.2zm-3.8-.1c.3 0 .5-.1.6-.3.1-.2.2-.5.2-.8v-1.1h-1.6v1.2c0 .3.1.6.2.7s.4.3.6.3z"/><path class="st0" d="M155.6 1h61.8v31.4h-61.8z"/><path class="st1" d="M187.2 29.5h-.7c-6.8 0-12.4-5.5-12.4-12.4v-.7c0-6.8 5.5-12.4 12.4-12.4h.7c6.8 0 12.4 5.5 12.4 12.4v.7c0 6.8-5.5 12.4-12.4 12.4z"/><path class="st2" d="M182 11.2v11.3c0 .2-.1.3-.3.3h-.6c-.2 0-.3-.1-.3-.3V11.2c-.3-.2-.6-.6-.6-1 0-.6.5-1.1 1.1-1.1s1.1.5 1.1 1.1c.1.5-.1.8-.4 1zm13.7 6.4c0 .3-.2.5-.5.6-1 .5-2.1 1-3.3 1-1.6 0-2.4-1.2-4.4-1.2-1.4 0-2.9.6-4.1 1.3-.1.1-.2.1-.3.1-.3 0-.6-.3-.6-.6v-6.6c0-.2.1-.4.3-.5.2-.1.5-.3.7-.4 1.1-.6 2.5-1.1 3.8-1.1 1.4 0 2.5.5 3.7 1 .2.1.5.2.8.2 1.4 0 2.9-1.2 3.3-1.2.3 0 .6.3.6.6v6.8z"/><path class="st1" d="M59.9 212.2h-.7c-6.8 0-12.4-5.5-12.4-12.4v-.7c0-6.8 5.5-12.4 12.4-12.4h.7c6.8 0 12.4 5.5 12.4 12.4v.7c0 6.8-5.5 12.4-12.4 12.4z"/><path class="st2" d="M66 200.3c0 .5-.4.9-.9.9h-3.7v3.7c0 .5-.4.9-.9.9h-1.7c-.5 0-.9-.4-.9-.9v-3.7h-3.7c-.5 0-.9-.4-.9-.9v-1.7c0-.5.4-.9.9-.9h3.7V194c0-.5.4-.9.9-.9h1.7c.5 0 .9.4.9.9v3.7h3.7c.5 0 .9.4.9.9v1.7z"/><path d="M132.6 220.3h8.4c3.9 0 4.1 3.7 4.1 4.5 0 .7-.1 1.6-.4 3h-3.3c.2-.6.2-1.2.2-1.3 0-.4-.1-1.5-1.6-1.5h-7.3v-4.7h-.1zm11.1-7.6c1.2.9 1.3 2.3 1.3 3.3 0 2.2-1.2 3.2-2.7 3.2-3.2 0-3.2-3.5-3.2-5.8v-.6h-.3c-1 0-1.1 1.2-1.1 2.1 0 .1 0 1.6.7 3.2H136c-.4-1.4-.6-3-.6-4.3 0-2.4.8-5 3.5-5h5.8v4h-1v-.1zm-2.8.2c0 .6-.1 2 1.1 2 .5 0 .9-.4.9-1s-.4-1.2-1.5-1.2h-.5v.2zm1.2-10.5l.1-4.5h2.6v9.5h-3.7l-2.7-4.6h-.1v4.4h-2.6V198h3.7l2.7 4.4zm0-10.8l.1-4.5h2.6v9.5h-3.7l-2.7-4.6h-.1v4.4h-2.6v-9.2h3.7l2.7 4.4zm8.1 22.5h15.3v14.4h-15.3z" fill="#eb8008"/></svg>