<svg version="1.1" id="Слой_1" xmlns="http://www.w3.org/2000/svg" x="0" y="0" viewBox="0 0 272.1 238.1" xml:space="preserve"><style>.st0{fill:#a39d8f}</style><path class="st0" d="M.2 1.1H2V237H.2zm129.1 44.3h1.8V237h-1.8zm28.7 0h1.8V237H158zM129.3 1.7h1.8V21h-1.8zm28.7 0h1.8V21H158z"/><path class="st0" d="M1.5 19.2h129.7V21H1.5zm0 26.2h129.7v1.8H1.5zm156.6-26.2h113.8V21H158.1zm0 26.2h113.8v1.8H158.1zm53.6 41.9h-37v19.8l16.6-.5v44.3l-16.6.5v19.8h37z"/><path d="M73.4 31.2h1.2l1.1 3.1c.2.4.3.8.3 1.2 0-.2.1-.4.2-.7l1.2-3.6h1.2l-2.3 6.1c-.4 1.1-1.1 1.7-2.1 1.7-.3 0-.5 0-.7-.1V38c.2 0 .4.1.6.1.6 0 .9-.3 1.2-1l.2-.5-2.1-5.4zM84 36.6h-1.2v-4.5h-1.5c-.1 1.2-.2 2.1-.4 2.7s-.4 1.1-.6 1.4-.6.4-1 .4c-.3 0-.5 0-.6-.1v-.9c.1 0 .2.1.4.1.3 0 .6-.4.8-1.1.2-.7.3-1.9.4-3.4h3.6v5.4h.1zm1.5-.7c0-.2.1-.4.2-.5s.3-.2.5-.2.4.1.5.2c.1.1.2.3.2.5s-.1.4-.2.5-.3.2-.5.2-.4-.1-.5-.2-.2-.2-.2-.5zm11.1-6.5l-2.3 5.1c-.3.6-.5 1.1-.8 1.3-.2.3-.5.5-.8.6s-.7.2-1.1.2-.7 0-1-.1v-1c.3.1.7.2 1 .2s.5-.1.7-.2c.2-.1.4-.4.5-.8l-2.6-5.2h1.3l1.7 3.6c.2.3.3.6.3.7 0-.1.1-.2.1-.4l1.6-3.9h1.4v-.1zm6 9.1h-1.1v-1.9h-3.7v1.9h-1.1v-2.8h.4c.4-.5.7-1.2.9-2 .2-.8.4-1.6.4-2.5h3.3v4.5h.8v2.8h.1zm-1.9-2.8v-3.6h-1.2c-.1.7-.2 1.3-.4 2s-.4 1.2-.7 1.7l2.3-.1zm6-.2l.1-.2c.1-.5.2-.9.3-1.1l1.2-2.9h1.5v5.4h-1.1v-4.4l-.1.3c-.1.5-.3.9-.4 1.2l-1.2 2.9h-.9l-1.2-2.9c-.2-.4-.3-.9-.4-1.4v4.4h-1v-5.4h1.5l1.2 2.9c.2 0 .3.5.5 1.2zm3.9-4.3h1.2l1.1 3.1c.2.4.3.8.3 1.2 0-.2.1-.4.2-.7l1.2-3.6h1.2l-2.3 6.1c-.4 1.1-1.1 1.7-2.1 1.7-.3 0-.5 0-.7-.1V38c.2 0 .4.1.6.1.6 0 .9-.3 1.2-1l.2-.5-2.1-5.4zm9 5.5c-.7 0-1.2-.2-1.6-.7h-.1c0 .5.1.7.1.8V39h-1.1v-7.8h.9c0 .1.1.3.2.7h.1c.4-.5.9-.8 1.6-.8s1.2.2 1.6.7.6 1.2.6 2.1-.2 1.6-.6 2.1-1.1.7-1.7.7zm-.3-4.7c-.5 0-.8.1-1 .4s-.3.7-.3 1.3v.2c0 .7.1 1.1.3 1.4.2.3.5.4 1 .4.4 0 .7-.2.9-.5s.3-.8.3-1.4c0-.6-.1-1.1-.3-1.4-.2-.2-.5-.4-.9-.4zm7.8-.8v.9h-1.8v4.5h-1.2v-4.5h-1.8v-.9h4.8zm3.2 5.5c-.8 0-1.4-.2-1.9-.7-.4-.5-.6-1.2-.6-2.1 0-.9.2-1.6.7-2.1s1.1-.7 1.9-.7c.6 0 1.1.1 1.5.3l-.3.9c-.5-.2-.9-.3-1.2-.3-.9 0-1.4.6-1.4 1.9 0 .6.1 1.1.3 1.4.2.3.6.5 1 .5.5 0 1-.1 1.5-.4v1c-.2.1-.4.2-.7.3s-.4 0-.8 0zm6.2-5.5h1.3l-2.2 2.6 2.4 2.8h-1.3l-2.3-2.7v2.7h-1.1v-5.4h1.1v2.6l2.1-2.6zm5.7 5.4l-.2-.8c-.3.3-.5.6-.8.7-.3.1-.6.2-1 .2-.5 0-.9-.1-1.2-.4s-.4-.7-.4-1.2c0-.6.2-1 .6-1.3s1-.4 1.9-.5h.9V33c0-.3-.1-.6-.2-.8-.2-.2-.4-.3-.7-.3-.3 0-.5 0-.8.1s-.5.2-.7.3l-.4-.8c.3-.2.6-.3 1-.3.3-.1.7-.1 1-.1.7 0 1.2.1 1.6.4s.5.8.5 1.4v3.6h-1.1v.1zm-1.7-.8c.4 0 .8-.1 1-.3.3-.2.4-.6.4-1V34h-.7c-.5 0-.9.1-1.2.3-.2.2-.4.4-.4.7 0 .2.1.4.2.6.2.1.4.2.7.2zm4.6.8h-1.3l1.5-2.2c-.4-.1-.7-.3-.9-.6-.2-.3-.3-.6-.3-1 0-.5.2-.9.5-1.2.4-.3.9-.4 1.5-.4h2.5v5.4h-1.1v-2.1h-1l-1.4 2.1zm.2-3.8c0 .3.1.5.3.6.2.1.5.2.8.2h1.1V32h-1.2c-.3 0-.6.1-.7.2s-.3.4-.3.6zM44.8 84.7l-2.1-6c.1.9.1 1.7.1 2.5v3.5h-1.1v-7.1h1.6l2 5.7 2-5.7H49v7.1h-1.1v-5.9l-2.1 6h-1v-.1zm9.4 0l-.2-.8c-.3.3-.5.6-.8.7-.3.1-.6.2-1 .2-.5 0-.9-.1-1.2-.4s-.4-.7-.4-1.2c0-.6.2-1 .6-1.3s1-.4 1.9-.5h.9v-.3c0-.3-.1-.6-.2-.8-.2-.2-.4-.3-.7-.3-.3 0-.5 0-.8.1s-.5.2-.7.3l-.4-.8c.3-.2.6-.3 1-.3.3-.1.7-.1 1-.1.7 0 1.2.1 1.6.4s.5.8.5 1.4v3.6h-1.1v.1zm-1.7-.8c.4 0 .8-.1 1-.3.3-.2.4-.6.4-1v-.5h-.7c-.5 0-.9.1-1.2.3-.2.2-.4.4-.4.7 0 .2.1.4.2.6.2.1.4.2.7.2zm7.6-4.6v.9h-2.3v4.5h-1.1v-5.4h3.4zm4.4 5.4l-.2-.8c-.3.3-.5.6-.8.7-.3.1-.6.2-1 .2-.5 0-.9-.1-1.2-.4s-.4-.7-.4-1.2c0-.6.2-1 .6-1.3s1-.4 1.9-.5h.9v-.3c0-.3-.1-.6-.2-.8-.2-.2-.4-.3-.7-.3-.3 0-.5 0-.8.1s-.5.2-.7.3l-.4-.8c.3-.2.6-.3 1-.3.3-.1.7-.1 1-.1.7 0 1.2.1 1.6.4s.5.8.5 1.4v3.6h-1.1v.1zm-1.7-.8c.4 0 .8-.1 1-.3.3-.2.4-.6.4-1v-.5h-.7c-.5 0-.9.1-1.2.3-.2.2-.4.4-.4.7 0 .2.1.4.2.6.2.1.4.2.7.2zm5.3-2.4c.5 0 .9-.1 1.2-.2.2-.1.4-.3.4-.5 0-.4-.4-.7-1.2-.7-.5 0-1.1.1-1.6.4l-.4-.9c.6-.3 1.3-.4 2.1-.4.7 0 1.2.1 1.6.4.4.2.6.6.6 1.1 0 .6-.3 1-1 1.2.4.1.7.3.9.5s.3.5.3.8c0 .5-.2.9-.7 1.2-.4.3-1 .4-1.8.4s-1.5-.1-1.9-.3v-1c.6.3 1.2.4 1.9.4.5 0 .8-.1 1.1-.2.2-.1.4-.3.4-.6s-.1-.5-.4-.6-.6-.2-1.2-.2h-.7v-.9h.4v.1zm5.1-2.2v2.8c0 .3 0 .8-.1 1.4l2.7-4.2h1.4v5.4h-1.1v-4.1l-2.7 4.2H72v-5.4h1.2v-.1zm6.9 0v2.2h2.5v-2.2h1.1v5.4h-1.1v-2.3h-2.5v2.3H79v-5.4h1.1zM41.2 94l1.7-2.1.8.5-1.4 1.7 1.4 1.7-.8.5-1.7-2.1V94zm2.2 0l1.7-2.1.8.5-1.4 1.7 1.4 1.7-.8.5-1.7-2.1V94zm10.2-.9c0 1.2-.3 2.1-.9 2.7s-1.4 1-2.5 1-1.9-.3-2.5-1c-.6-.6-.9-1.5-.9-2.7 0-1.2.3-2.1.9-2.7s1.4-.9 2.5-.9 1.9.3 2.5 1 .9 1.5.9 2.6zm-5.4 0c0 .9.2 1.5.5 2 .4.5.9.7 1.6.7s1.2-.2 1.6-.7.5-1.1.5-2-.2-1.5-.5-2-.9-.7-1.6-.7-1.2.2-1.6.7-.5 1.1-.5 2zm8 .8l-1.8-2.6h1.3l1.2 1.9 1.2-1.9h1.3l-1.8 2.6 1.9 2.8h-1.3l-1.3-2-1.3 2h-1.3l1.9-2.8zm9.1.1c0 .9-.2 1.6-.7 2.1s-1.1.7-1.9.7c-.5 0-1-.1-1.3-.3s-.7-.6-.9-1-.3-.9-.3-1.5c0-.9.2-1.6.7-2.1s1.1-.7 1.9-.7 1.4.3 1.9.8c.4.5.6 1.1.6 2zm-3.9 0c0 1.2.5 1.9 1.4 1.9s1.4-.6 1.4-1.9c0-1.2-.5-1.9-1.4-1.9-.5 0-.8.2-1 .5s-.4.8-.4 1.4zm9.3-2.7v.9h-1.8v4.5h-1.2v-4.5h-1.8v-.9h4.8zm4.4 5.4l-.2-.8c-.3.3-.5.6-.8.7s-.6.2-1 .2c-.5 0-.9-.1-1.2-.4s-.4-.7-.4-1.2c0-.6.2-1 .6-1.3s1-.4 1.9-.5h.9v-.3c0-.3-.1-.6-.2-.8-.2-.2-.4-.3-.7-.3-.3 0-.5 0-.8.1s-.5.2-.7.3l-.4-.8c.3-.2.6-.3 1-.3.3-.1.7-.1 1-.1.7 0 1.2.1 1.6.4s.5.8.5 1.4v3.6h-1.1v.1zm-1.7-.8c.4 0 .8-.1 1-.3.3-.2.4-.6.4-1v-.5h-.7c-.5 0-.9.1-1.2.3-.2.2-.4.4-.4.7 0 .2.1.4.2.6.2.1.4.2.7.2zm6.3-1.8L78 96.2l-.8-.5 1.4-1.7-1.4-1.7.8-.5 1.7 2.1v.2zm2.2 0l-1.8 2.1-.8-.5 1.4-1.7-1.4-1.7.8-.5 1.8 2.1v.2zm-65.1 54.7c0 1.4-.9 2.1-2.8 2.1h-2.1v-7.1h4.4v1h-3.2v1.9h.8c1.9.1 2.9.8 2.9 2.1zm-3.7 1.2h.8c.6 0 1-.1 1.2-.3.3-.2.4-.5.4-.9s-.1-.7-.4-.9c-.3-.2-.7-.3-1.4-.3H13v2.4h.1zm6.1-4.4v2.8c0 .3 0 .8-.1 1.4l2.7-4.2h1.4v5.4h-1.1v-4.1l-2.7 4.2H18v-5.4l1.2-.1zm6.8 2.2c.5 0 .9-.1 1.2-.2.2-.1.4-.3.4-.5 0-.4-.4-.7-1.2-.7-.5 0-1.1.1-1.6.4l-.4-.9c.6-.3 1.3-.4 2.1-.4.7 0 1.2.1 1.6.4.4.2.6.6.6 1.1 0 .6-.3 1-1 1.2.4.1.7.3.9.5s.3.5.3.8c0 .5-.2.9-.7 1.2-.4.3-1 .4-1.8.4s-1.5-.1-1.9-.3v-1c.6.3 1.2.4 1.9.4.5 0 .8-.1 1.1-.2.2-.1.4-.3.4-.6s-.1-.5-.4-.6-.6-.2-1.2-.2h-.7v-.9h.4v.1zm5.2-2.2v2.2h2.5v-2.2h1.1v5.4h-1.1v-2.3h-2.5v2.3h-1.1v-5.4h1.1zm7.6 5.5c-.8 0-1.5-.2-2-.7s-.7-1.2-.7-2c0-.9.2-1.6.7-2.1s1-.8 1.8-.8c.7 0 1.3.2 1.7.6s.6 1 .6 1.8v.6h-3.6c0 .5.2.9.4 1.2.3.3.6.4 1.1.4.3 0 .6 0 .9-.1l.9-.3v.9c-.3.1-.6.2-.8.3s-.6.2-1 .2zm-.2-4.7c-.4 0-.7.1-.9.3s-.4.6-.4 1h2.5c0-.4-.1-.8-.3-1-.2-.2-.5-.3-.9-.3zm5.8 4.7c-.8 0-1.4-.2-1.9-.7-.4-.5-.6-1.2-.6-2.1s.2-1.6.7-2.1 1.1-.7 1.9-.7c.6 0 1.1.1 1.5.3l-.3.9c-.5-.2-.9-.3-1.2-.3-.9 0-1.4.6-1.4 1.9 0 .6.1 1.1.3 1.4.2.3.6.5 1 .5.5 0 1-.1 1.5-.4v1c-.2.1-.4.2-.7.3s-.4 0-.8 0zm2.3-2.3v-1h2.5v1h-2.5zm8.5 1.3h.8v2.8h-1.1V151h-4.5v-5.4h1.1v4.5H54v-4.5h1.1v4.5h.1zm4.2 1c-.8 0-1.5-.2-2-.7s-.7-1.2-.7-2c0-.9.2-1.6.7-2.1s1-.8 1.8-.8c.7 0 1.3.2 1.7.6s.6 1 .6 1.8v.6h-3.6c0 .5.2.9.4 1.2.3.3.6.4 1.1.4.3 0 .6 0 .9-.1l.9-.3v.9c-.3.1-.6.2-.8.3s-.7.2-1 .2zm-.3-4.7c-.4 0-.7.1-.9.3s-.4.6-.4 1h2.5c0-.4-.1-.8-.3-1-.2-.2-.5-.3-.9-.3zm4.8-.8v2.2h2.5v-2.2h1.1v5.4h-1.1v-2.3h-2.5v2.3h-1.1v-5.4h1.1zm9.4 0v.9h-1.8v4.5h-1.2v-4.5h-1.8v-.9h4.8zm3.8 5.5c-.7 0-1.2-.2-1.6-.7h-.1c0 .5.1.7.1.8v2.2h-1.1v-7.8h.9c0 .1.1.3.2.7h.1c.4-.5.9-.8 1.6-.8s1.2.2 1.6.7.6 1.2.6 2.1-.2 1.6-.6 2.1-1.1.7-1.7.7zm-.3-4.7c-.5 0-.8.1-1 .4s-.3.7-.3 1.3v.2c0 .7.1 1.1.3 1.4.2.3.5.4 1 .4.4 0 .7-.2.9-.5s.3-.8.3-1.4-.1-1.1-.3-1.4c-.2-.2-.5-.4-.9-.4zm-65.4 13.9l1.7-2.1.8.5-1.4 1.7 1.4 1.7-.8.5-1.7-2.1v-.2zm2.2 0l1.7-2.1.8.5-1.4 1.7 1.4 1.7-.8.5-1.7-2.1v-.2zm3.9-4.4h2.1c1 0 1.7.1 2.1.4s.7.7.7 1.4c0 .4-.1.8-.3 1s-.5.5-.9.5c.5.1.9.3 1.1.6.2.3.4.7.4 1.1 0 .6-.2 1.1-.7 1.5-.4.4-1.1.5-1.9.5h-2.6v-7zm1.2 2.9h1.1c.5 0 .8-.1 1.1-.2.2-.2.3-.4.3-.8 0-.3-.1-.6-.4-.7s-.6-.2-1.2-.2h-1v1.9h.1zm0 1v2.3h1.2c.5 0 .9-.1 1.1-.3.2-.2.4-.5.4-.9s-.1-.6-.4-.8-.6-.3-1.2-.3h-1.1zm8 3.3c-.7 0-1.2-.2-1.6-.7H25c0 .5.1.7.1.8v2.2H24v-7.8h.9c0 .1.1.3.2.7h.1c.4-.5.9-.8 1.6-.8s1.2.2 1.6.7.6 1.2.6 2.1-.2 1.6-.6 2.1-1 .7-1.7.7zm-.3-4.7c-.5 0-.8.1-1 .4s-.3.7-.3 1.3v.2c0 .7.1 1.1.3 1.4.2.3.5.4 1 .4.4 0 .7-.2.9-.5s.3-.8.3-1.4-.1-1.1-.3-1.4c-.1-.2-.5-.4-.9-.4zm6.2 4.7c-.8 0-1.5-.2-2-.7s-.7-1.2-.7-2c0-.9.2-1.6.7-2.1s1-.8 1.8-.8c.7 0 1.3.2 1.7.6s.6 1 .6 1.8v.6h-3.6c0 .5.2.9.4 1.2.3.3.6.4 1.1.4.3 0 .6 0 .9-.1l.9-.3v.9c-.3.1-.6.2-.8.3s-.7.2-1 .2zm-.3-4.7c-.4 0-.7.1-.9.3s-.4.6-.4 1h2.5c0-.4-.1-.8-.3-1-.2-.2-.5-.3-.9-.3zm6.8 3.5l.1-.2c.1-.5.2-.9.3-1.1l1.2-2.9h1.5v5.4h-1.1v-4.4l-.1.3c-.1.5-.3.9-.4 1.2l-1.2 2.9h-.9l-1-3c-.2-.4-.3-.9-.4-1.4v4.4h-1v-5.4h1.5l1.2 2.9c0 .1.1.6.3 1.3zm5.3 1.1h-1.3l1.5-2.2c-.4-.1-.7-.3-.9-.6-.2-.3-.3-.6-.3-1 0-.5.2-.9.5-1.2.4-.3.9-.4 1.5-.4h2.5v5.4h-1.2v-2.1h-1.1l-1.2 2.1zm.2-3.8c0 .3.1.5.3.6.2.1.5.2.8.2h1.1v-1.6h-1.3c-.3 0-.6.1-.7.2s-.2.4-.2.6zm7.1 1.2l-1.7 2.1-.8-.5 1.4-1.7-1.4-1.7.8-.5 1.7 2.1v.2zm2.2 0l-1.8 2.1-.8-.5 1.4-1.7-1.4-1.7.8-.5 1.8 2.1v.2zM231 208.2h-1.4l-2.9-3.6v3.6h-1.2v-7.1h1.2v3.5l2.9-3.5h1.3l-2.9 3.4 3 3.7zm4.2 0l-.2-.8c-.3.3-.5.6-.8.7s-.6.2-1 .2c-.5 0-.9-.1-1.2-.4s-.4-.7-.4-1.2c0-.6.2-1 .6-1.3s1-.4 1.9-.5h.9v-.3c0-.3-.1-.6-.2-.8-.2-.2-.4-.3-.7-.3-.3 0-.5 0-.8.1s-.5.2-.7.3l-.4-.8c.3-.2.6-.3 1-.3.3-.1.7-.1 1-.1.7 0 1.2.1 1.6.4s.5.8.5 1.4v3.6l-1.1.1zm-1.7-.8c.4 0 .8-.1 1-.3.3-.2.4-.6.4-1v-.5h-.7c-.5 0-.9.1-1.2.3-.2.2-.4.4-.4.7 0 .2.1.4.2.6.2.2.4.2.7.2zm10.4-1.9c0 .8-.2 1.5-.7 1.9-.5.5-1.2.8-2 .8v2.3h-1.1v-2.3c-.9-.1-1.5-.3-2-.8s-.7-1.1-.7-1.9.2-1.5.7-2 1.2-.7 2.1-.8v-2.1h1.1v2.1c.9.1 1.5.4 2 .8.4.6.6 1.2.6 2zm-5.4 0c0 .5.1 1 .4 1.3s.7.5 1.2.6v-3.7c-.5.1-.9.3-1.2.6-.3.2-.4.7-.4 1.2zm4.3 0c0-.5-.1-1-.4-1.3s-.7-.5-1.2-.6v3.7c.5-.1.9-.3 1.2-.6.2-.2.4-.7.4-1.2zm4.8 2.8c-.8 0-1.5-.2-2-.7s-.7-1.2-.7-2c0-.9.2-1.6.7-2.1s1-.8 1.8-.8c.7 0 1.3.2 1.7.6.4.4.6 1 .6 1.8v.6h-3.6c0 .5.2.9.4 1.2.3.3.6.4 1.1.4.3 0 .6 0 .9-.1l.9-.3v.9c-.3.1-.6.2-.8.3-.3.2-.6.2-1 .2zm-.2-4.7c-.4 0-.7.1-.9.3s-.4.6-.4 1h2.5c0-.4-.1-.8-.3-1-.2-.2-.5-.3-.9-.3zM225 217.5l1.7-2.1.8.5-1.4 1.7 1.4 1.7-.8.5-1.7-2.1v-.2zm2.2 0l1.7-2.1.8.5-1.4 1.7 1.4 1.7-.8.5-1.7-2.1v-.2zm10.2-.9c0 1.2-.3 2.1-.9 2.7s-1.4 1-2.5 1-1.9-.3-2.5-1c-.6-.6-.9-1.5-.9-2.7s.3-2.1.9-2.7 1.4-.9 2.5-.9 1.9.3 2.5 1c.6.6.9 1.5.9 2.6zm-5.4 0c0 .9.2 1.5.5 2 .4.5.9.7 1.6.7s1.2-.2 1.6-.7c.4-.4.5-1.1.5-2s-.2-1.5-.5-2-.9-.7-1.6-.7-1.2.2-1.6.7-.5 1.1-.5 2zm14.5 3.6h-7.7v-5.4h1.1v4.5h2.1v-4.5h1.1v4.5h2.1v-4.5h1.2l.1 5.4zm4.7-1.1l.1-.2c.1-.5.2-.9.3-1.1l1.2-2.9h1.5v5.4h-1.1v-4.4l-.1.3c-.1.5-.3.9-.4 1.2l-1.2 2.9h-.9l-1.2-2.9c-.2-.4-.3-.9-.4-1.4v4.4h-1V215h1.5l1.2 2.9c.2 0 .4.5.5 1.2zm7.2 1.2c-.8 0-1.5-.2-2-.7s-.7-1.2-.7-2c0-.9.2-1.6.7-2.1s1-.8 1.8-.8c.7 0 1.3.2 1.7.6s.6 1 .6 1.8v.6h-3.6c0 .5.2.9.4 1.2.3.3.6.4 1.1.4.3 0 .6 0 .9-.1l.9-.3v.9c-.3.1-.6.2-.8.3-.3.2-.7.2-1 .2zm-.2-4.7c-.4 0-.7.1-.9.3s-.4.6-.4 1h2.5c0-.4-.1-.8-.3-1-.3-.2-.6-.3-.9-.3zm5.8 4.7c-.8 0-1.4-.2-1.9-.7-.4-.5-.6-1.2-.6-2.1s.2-1.6.7-2.1 1.1-.7 1.9-.7c.6 0 1.1.1 1.5.3l-.3.9c-.5-.2-.9-.3-1.2-.3-.9 0-1.4.6-1.4 1.9 0 .6.1 1.1.3 1.4s.6.5 1 .5c.5 0 1-.1 1.5-.4v1c-.2.1-.4.2-.7.3h-.8zm4.9-2.7l-1.7 2.1-.8-.5 1.4-1.7-1.4-1.7.8-.5 1.7 2.1v.2zm2.2 0l-1.8 2.1-.8-.5 1.4-1.7-1.4-1.7.8-.5 1.8 2.1v.2zm-128.4-48.2v-1.2l3.1-1.1c.4-.2.8-.3 1.2-.3-.2 0-.4-.1-.7-.2l-3.6-1.2v-1.3l6.1 2.3c1.1.4 1.7 1.1 1.7 2.1 0 .3 0 .5-.1.7h-.9c0-.2.1-.4.1-.6 0-.6-.3-.9-1-1.2l-.5-.2-5.4 2.2zm5.4-10.6v1.2h-4.5v1.5c1.2.1 2.1.2 2.7.4s1.1.4 1.4.6.4.6.4 1c0 .2 0 .5-.1.6h-.9c0-.1.1-.2.1-.4 0-.3-.4-.6-1.1-.8-.7-.2-1.9-.3-3.4-.4v-3.6h5.4v-.1zm-.6-1.5c-.2 0-.4-.1-.5-.2s-.2-.3-.2-.5.1-.4.2-.5.3-.2.5-.2.4.1.5.2.2.3.2.5-.1.4-.2.5c-.1.2-.3.2-.5.2zm.6-11v1.2H142v2c2.1.3 3.5.5 4.3.6s1.3.4 1.6.7c.3.3.4.7.4 1.1 0 .2 0 .5-.1.7h-1c.1-.2.1-.4.1-.5 0-.2-.1-.4-.4-.5s-.9-.3-1.9-.4-2.3-.3-4-.6v-4.2h7.1v-.1zm.1-4.1c0 .8-.2 1.5-.7 2s-1.2.7-2 .7c-.9 0-1.6-.2-2.1-.7s-.8-1-.8-1.8c0-.7.2-1.3.6-1.7.4-.4 1-.6 1.8-.6h.6v3.6c.5 0 .9-.2 1.2-.4.3-.3.4-.6.4-1.1 0-.3 0-.6-.1-.9l-.3-.9h.9c.1.3.2.6.3.8.2.3.2.7.2 1zm-4.7.2c0 .4.1.7.3.9s.6.4 1 .4v-2.5c-.4 0-.8.1-1 .3-.2.3-.3.6-.3.9zm-.8-4.7h2.2v-2.6h-2.2V134h5.4v1.1h-2.3v2.5h2.3v1.1h-5.4v-1zm0-6.5h2.8c.3 0 .8 0 1.4.1l-4.2-2.7v-1.4h5.4v1.1H144l4.2 2.7v1.4h-5.4l-.1-1.2zm0-6.8h2.2v-2.5h-2.2v-1.1h5.4v1.1h-2.3v2.5h2.3v1.1h-5.4v-1.1zm5.4-8.7l-.8.2c.3.3.6.5.7.8s.2.6.2 1c0 .5-.1.9-.4 1.2s-.7.4-1.2.4c-.6 0-1-.2-1.3-.6s-.4-1-.5-1.9v-.9h-.3c-.3 0-.6.1-.8.2-.2.2-.3.4-.3.7 0 .3 0 .5.1.8s.2.5.3.7l-.8.4c-.2-.3-.3-.6-.3-1-.1-.3-.1-.7-.1-1 0-.7.1-1.2.4-1.6s.8-.5 1.4-.5h3.6l.1 1.1zm-.8 1.7c0-.4-.1-.8-.3-1-.2-.3-.6-.4-1-.4h-.5v.7c0 .5.1.9.3 1.2.2.2.4.4.7.4.2 0 .4-.1.6-.2.1-.2.2-.4.2-.7z"/><path class="st0" d="M88.6 58.2h23.1V142H88.6zM72.1 160h33.5v34H72.1zm102.6 36h22.2v40.8h-22.2z"/><path class="st0" d="M174.7 196h44.1v19.2h-44.1z"/><path d="M108.9 189.8h8.4c3.9 0 4.1 3.7 4.1 4.5 0 .7-.1 1.6-.4 3h-3.3c.2-.6.2-1.2.2-1.3 0-.4-.1-1.5-1.6-1.5H109v-4.7h-.1zm11.1-7.6c1.2.9 1.3 2.3 1.3 3.3 0 2.2-1.2 3.2-2.7 3.2-3.2 0-3.2-3.5-3.2-5.8v-.6h-.3c-1 0-1.1 1.2-1.1 2.1 0 .1 0 1.6.7 3.2h-2.4c-.4-1.4-.6-3-.6-4.3 0-2.4.8-5 3.5-5h5.8v4h-1v-.1zm-2.8.2c0 .6-.1 2 1.1 2 .5 0 .9-.4.9-1s-.4-1.2-1.5-1.2h-.5v.2zm1.2-10.5l.1-4.5h2.6v9.5h-3.7l-2.7-4.6h-.1v4.4H112v-9.2h3.7l2.7 4.4zm0-10.8l.1-4.5h2.6v9.5h-3.7l-2.7-4.6h-.1v4.4H112v-9.2h3.7l2.7 4.4zm-27.2 17.6h14.4V194H91.2z" fill="#eb8008"/></svg>