<svg version="1.1" id="Слой_1" xmlns="http://www.w3.org/2000/svg" x="0" y="0" viewBox="0 0 272.1 238.1" xml:space="preserve"><style>.st0{fill:#a39d8f}.st1{fill:#626262}.st2{fill:#fff}.st3{fill:#eb8008}</style><path class="st0" d="M97.6 88.7H1.5v1.8h96.2zM1.5 114.9h96.6v1.8H1.5zM125.9 203h144.9v1.8H125.9zm0 26.2h144.9v1.8H125.9zM1.5 203h96.2v1.8H1.5zm0 26.2h96.2v1.8H1.5zM86.4 140H49.5v14.9h18.7v24.7H49.5v14.9h36.9z"/><path d="M121.7 213.5h1.2l1.1 3.1c.2.4.3.8.3 1.2 0-.2.1-.4.2-.7l1.2-3.6h1.2l-2.3 6.1c-.4 1.1-1.1 1.7-2.1 1.7-.3 0-.5 0-.7-.1v-.9c.2 0 .4.1.6.1.6 0 .9-.3 1.2-1l.2-.5-2.1-5.4zm10.6 5.4h-1.2v-4.5h-1.5c-.1 1.2-.2 2.1-.4 2.7s-.4 1.1-.6 1.4-.6.4-1 .4c-.3 0-.5 0-.6-.1v-.9c.1 0 .2.1.4.1.3 0 .6-.4.8-1.1.2-.7.3-1.9.4-3.4h3.6v5.4h.1zm1.5-.6c0-.2.1-.4.2-.5s.3-.2.5-.2.4.1.5.2.2.3.2.5-.1.4-.2.5-.3.2-.5.2-.4-.1-.5-.2-.2-.2-.2-.5zm11-6.5l-2.3 5.1c-.3.6-.5 1.1-.8 1.3-.2.3-.5.5-.8.6s-.7.2-1.1.2-.7 0-1-.1v-1c.3.1.7.2 1 .2s.5-.1.7-.2.4-.4.5-.8l-2.6-5.2h1.3l1.7 3.6c.2.3.3.6.3.7 0-.1.1-.2.1-.4l1.6-3.9h1.4v-.1zm6.1 9.1h-1.1v-2h-3.7v1.9H145V218h.4c.4-.5.7-1.2.9-2 .2-.8.4-1.6.4-2.5h3.3v4.5h.8v2.9h.1zm-2-2.8v-3.6h-1.2c-.1.7-.2 1.3-.4 2s-.4 1.2-.7 1.7h2.3v-.1zm6.1-.3l.1-.2c.1-.5.2-.9.3-1.1l1.2-2.9h1.5v5.4H157v-4.4l-.1.3c-.1.5-.3.9-.4 1.2l-1.2 2.9h-.9l-1.2-2.9c-.2-.4-.3-.9-.4-1.4v4.4h-1v-5.4h1.5l1.2 2.9c.1.1.3.5.5 1.2zm3.9-4.3h1.2l1.1 3.1c.2.4.3.8.3 1.2 0-.2.1-.4.2-.7l1.2-3.6h1.2l-2.3 6.1c-.4 1.1-1.1 1.7-2.1 1.7-.3 0-.5 0-.7-.1v-.9c.2 0 .4.1.6.1.6 0 .9-.3 1.2-1l.2-.5-2.1-5.4zm8.9 5.5c-.7 0-1.2-.2-1.6-.7h-.1c0 .5.1.7.1.8v2.2h-1.1v-7.8h.9c0 .1.1.3.2.7h.1c.4-.5.9-.8 1.6-.8s1.2.2 1.6.7.6 1.2.6 2.1-.2 1.6-.6 2.1c-.5.5-1 .7-1.7.7zm-.2-4.6c-.5 0-.8.1-1 .4s-.3.7-.3 1.3v.2c0 .7.1 1.1.3 1.4.2.3.5.4 1 .4.4 0 .7-.2.9-.5s.3-.8.3-1.4-.1-1.1-.3-1.4-.5-.4-.9-.4zm7.8-.9v.9h-1.8v4.5h-1.2v-4.5h-1.8v-.9h4.8zm3.2 5.5c-.8 0-1.4-.2-1.9-.7-.4-.5-.6-1.2-.6-2.1s.2-1.6.7-2.1 1.1-.7 1.9-.7c.6 0 1.1.1 1.5.3l-.3.9c-.5-.2-.9-.3-1.2-.3-.9 0-1.4.6-1.4 1.9 0 .6.1 1.1.3 1.4.2.3.6.5 1 .5.5 0 1-.1 1.5-.4v1c-.2.1-.4.2-.7.3h-.8zm6.1-5.5h1.3l-2.2 2.6 2.4 2.8h-1.3l-2.3-2.7v2.7h-1.1v-5.4h1.1v2.6l2.1-2.6zm5.7 5.4l-.2-.8c-.3.3-.5.6-.8.7s-.6.2-1 .2c-.5 0-.9-.1-1.2-.4s-.4-.7-.4-1.2c0-.6.2-1 .6-1.3s1-.4 1.9-.5h.9v-.3c0-.3-.1-.6-.2-.8-.2-.2-.4-.3-.8-.3-.3 0-.5 0-.8.1s-.5.2-.7.3l-.4-.8c.3-.2.6-.3 1-.3.3-.1.7-.1 1-.1.7 0 1.2.1 1.6.4.3.3.5.8.5 1.4v3.6l-1 .1zm-1.7-.7c.4 0 .8-.1 1-.3.3-.2.4-.6.4-1v-.5h-.7c-.5 0-.9.1-1.2.3-.2.2-.4.4-.4.7 0 .2.1.4.2.6.2.1.5.2.7.2zm4.7.7h-1.3l1.5-2.2c-.4-.1-.7-.3-.9-.6-.2-.3-.3-.6-.3-1 0-.5.2-.9.5-1.2.4-.3.9-.4 1.5-.4h2.5v5.4h-1.2v-2h-1.1l-1.2 2zm.2-3.7c0 .3.1.5.3.6.2.1.5.2.8.2h1.1v-1.6h-1.2c-.3 0-.6.1-.7.2s-.3.3-.3.6zM41.1 58.8c0 1.2-.3 2.1-.9 2.7s-1.4 1-2.5 1-1.9-.3-2.5-1c-.6-.6-.9-1.5-.9-2.7s.3-2.1.9-2.7 1.4-.9 2.5-.9 1.9.3 2.5 1 .9 1.4.9 2.6zm-5.4 0c0 .9.2 1.5.5 2 .4.5.9.7 1.6.7s1.2-.2 1.6-.7.5-1.1.5-2-.2-1.5-.5-2-.9-.7-1.6-.7-1.2.2-1.6.7-.5 1.1-.5 2zM46.6 57v.9h-1.8v4.5h-1.2v-4.5h-1.8V57h4.8zm3.4 5.5c-.8 0-1.5-.2-2-.7s-.7-1.2-.7-2c0-.9.2-1.6.7-2.1s1-.8 1.8-.8c.7 0 1.3.2 1.7.6s.6 1 .6 1.8v.6h-3.6c0 .5.2.9.4 1.2.3.3.6.4 1.1.4.3 0 .6 0 .9-.1l.9-.3v.9c-.3.1-.6.2-.8.3s-.6.2-1 .2zm-.2-4.8c-.4 0-.7.1-.9.3s-.4.6-.4 1H51c0-.4-.1-.8-.3-1-.3-.2-.6-.3-.9-.3zm8 4.7h-1.2v-4.5h-1.5c-.1 1.2-.2 2.1-.4 2.7s-.4 1.1-.6 1.4-.6.4-1 .4c-.3 0-.5 0-.6-.1v-.9c.1 0 .2.1.4.1.3 0 .6-.4.8-1.1.2-.7.3-1.9.4-3.4h3.6v5.4h.1zm2.8-3.3H62c1.5 0 2.3.5 2.3 1.6 0 .5-.2 1-.6 1.3-.4.3-.9.4-1.7.4h-2.5V57h1.1v2.1zm2.5 1.6c0-.3-.1-.5-.3-.6s-.5-.2-.9-.2h-1.3v1.5h1.3c.4 0 .7-.1.9-.2s.3-.2.3-.5zM34.2 71.6l1.7-2.1.8.5-1.4 1.7 1.4 1.7-.8.5-1.7-2.1v-.2zm2.2 0l1.7-2.1.8.5-1.4 1.7 1.4 1.7-.8.5-1.7-2.1v-.2zm3.1 1.8h.6c.5-.9.9-1.8 1.2-2.9s.5-2.2.6-3.2h3.7v6.1h.9v3h-1.1v-2h-4.7v2h-1.1v-3h-.1zm3.3-5.2c-.1.7-.3 1.6-.5 2.6-.3 1-.6 1.8-1 2.6h3.1v-5.1h-1.6v-.1zm7 6.3c-.8 0-1.5-.2-2-.7s-.7-1.2-.7-2c0-.9.2-1.6.7-2.1s1-.8 1.8-.8c.7 0 1.3.2 1.7.6s.6 1 .6 1.8v.6h-3.6c0 .5.2.9.4 1.2.3.3.6.4 1.1.4.3 0 .6 0 .9-.1l.9-.3v.9c-.3.1-.6.2-.8.3s-.6.2-1 .2zm-.2-4.8c-.4 0-.7.1-.9.3s-.4.6-.4 1h2.5c0-.4-.1-.8-.3-1-.3-.2-.5-.3-.9-.3zm6.4 4.8c-.7 0-1.2-.2-1.6-.7h-.1c0 .5.1.7.1.8v2.2h-1.1V69h.9c0 .1.1.3.2.7h.1c.4-.5.9-.8 1.6-.8s1.2.2 1.6.7.6 1.2.6 2.1-.2 1.6-.6 2.1-1.1.7-1.7.7zm-.3-4.7c-.5 0-.8.1-1 .4s-.3.7-.3 1.3v.2c0 .7.1 1.1.3 1.4.2.3.5.4 1 .4.4 0 .7-.2.9-.5s.3-.8.3-1.4c0-.6-.1-1.1-.3-1.4-.2-.2-.5-.4-.9-.4zm4.3 4.6h-1.3l1.5-2.2c-.4-.1-.7-.3-.9-.6-.2-.3-.3-.6-.3-1 0-.5.2-.9.5-1.2.4-.3.9-.4 1.5-.4h2.5v5.4h-1.2v-2.1h-1.1L60 74.4zm.2-3.8c0 .3.1.5.3.6.2.1.5.2.8.2h1.1v-1.6h-1.3c-.3 0-.6.1-.7.2s-.2.3-.2.6zm4.7.5c0-1.2.2-2.1.6-2.8s1.1-1.1 2-1.2c.7-.1 1.5-.3 2.3-.4l.2 1c-1.1.2-1.8.3-2.3.4-.5.1-.9.3-1.1.6s-.4.8-.4 1.5h.1c.2-.3.4-.5.7-.6.3-.1.6-.2 1-.2.7 0 1.2.2 1.6.6s.6 1 .6 1.8c0 .9-.2 1.5-.7 2s-1.1.7-1.9.7-1.4-.3-1.9-.9-.8-1.4-.8-2.5zm2.6 2.4c.9 0 1.3-.6 1.3-1.7s-.4-1.6-1.2-1.6c-.2 0-.4 0-.6.1s-.4.2-.5.4-.3.3-.4.5c0 .8.1 1.4.4 1.7.2.4.5.6 1 .6zm4.9-4.5v2.8c0 .3 0 .8-.1 1.4L75 69h1.4v5.4h-1.1v-4.1l-2.7 4.2h-1.4v-5.4h1.2V69zm6.8 0v2.2h2.5V69h1.1v5.4h-1.1v-2.3h-2.5v2.3h-1.1V69h1.1zm7.5 2.7L85 73.8l-.8-.5 1.4-1.7-1.4-1.7.8-.5 1.7 2.1v.2zm2.2 0l-1.8 2.1-.8-.5 1.4-1.7-1.4-1.7.8-.5 1.8 2.1v.2zm-47.6 91.2L39 168c-.3.6-.5 1.1-.8 1.3-.2.3-.5.5-.8.6s-.7.2-1.1.2-.7 0-1-.1v-1c.3.1.7.2 1 .2s.5-.1.7-.2.4-.4.5-.8l-2.6-5.2h1.3l1.7 3.6c.2.3.3.6.3.7 0-.1.1-.2.1-.4l1.6-3.9h1.4v-.1zm6 9.1h-1.1v-1.9h-3.7v1.9h-1.1v-2.8h.4c.4-.5.7-1.2.9-2 .2-.8.4-1.6.4-2.5h3.3v4.5h.8v2.8h.1zm-2-2.8v-3.6h-1.2c-.1.7-.2 1.3-.4 2s-.4 1.2-.7 1.7h2.3v-.1zm7.3-6.3v1h-3.1v6.1h-1.2v-7.1h4.3zm6.6 0l-2.3 5.1c-.3.6-.5 1.1-.8 1.3-.2.3-.5.5-.8.6s-.7.2-1.1.2-.7 0-1-.1v-1c.3.1.7.2 1 .2s.5-.1.7-.2.4-.4.5-.8l-2.6-5.2h1.3l1.7 3.6c.2.3.3.6.3.7 0-.1.1-.2.1-.4l1.6-3.9h1.4v-.1zm49.7 24.4v-1.2l3.1-1.1c.4-.2.8-.3 1.2-.3-.2 0-.4-.1-.7-.2l-3.6-1.2v-1.4l6.1 2.3c1.1.4 1.7 1.1 1.7 2.1 0 .3 0 .5-.1.7h-.9c0-.2.1-.4.1-.6 0-.6-.3-.9-1-1.2l-.5-.2-5.4 2.3zm5.4-10.6v1.2h-4.5v1.5c1.2.1 2.1.2 2.7.4s1.1.4 1.4.6.4.6.4 1c0 .3 0 .5-.1.6h-.9c0-.1.1-.2.1-.4 0-.3-.4-.6-1.1-.8-.7-.2-1.9-.3-3.4-.4v-3.6h5.4v-.1zm-.6-1.5c-.2 0-.4-.1-.5-.2s-.2-.3-.2-.5.1-.4.2-.5.3-.2.5-.2.4.1.5.2.2.3.2.5-.1.4-.2.5c-.1.2-.3.2-.5.2zm.6-11.1v1.4l-3.6 2.9h3.6v1.2h-7.1v-1.2h3.5l-3.5-2.9v-1.3l3.4 2.9 3.7-3zm.1-3.6c0 .7-.2 1.2-.7 1.6v.1c.5 0 .7-.1.8-.1h2.2v1.1h-7.8v-.9c.1 0 .3-.1.7-.2v-.1c-.5-.4-.8-.9-.8-1.6s.2-1.2.7-1.6 1.2-.6 2.1-.6 1.6.2 2.1.6.7 1.1.7 1.7zm-4.7.3c0 .5.1.8.4 1s.7.3 1.3.3h.2c.7 0 1.1-.1 1.4-.3.3-.2.4-.5.4-1 0-.4-.2-.7-.5-.9s-.8-.3-1.4-.3-1.1.1-1.4.3c-.2.2-.4.5-.4.9zm4.6-7.1l-.8.2c.3.3.6.5.7.8s.2.6.2 1c0 .5-.1.9-.4 1.2s-.7.4-1.2.4c-.6 0-1-.2-1.3-.6s-.4-1-.5-1.9v-.9h-.3c-.3 0-.6.1-.8.2-.2.2-.3.4-.3.7 0 .3 0 .5.1.8s.2.5.3.7l-.8.4c-.2-.3-.3-.6-.3-1-.1-.3-.1-.7-.1-1 0-.7.1-1.2.4-1.6s.8-.5 1.4-.5h3.6l.1 1.1zm-.8 1.7c0-.4-.1-.8-.3-1-.2-.3-.6-.4-1-.4h-.5v.7c0 .5.1.9.3 1.2.2.2.4.4.7.4.2 0 .4-.1.6-.2.2-.2.2-.4.2-.7zm.9-6.3c0 .8-.2 1.4-.7 1.9-.5.4-1.2.6-2.1.6s-1.6-.2-2.1-.7-.7-1.1-.7-1.9c0-.6.1-1.1.3-1.5l.9.3c-.2.5-.3.9-.3 1.2 0 .9.6 1.4 1.9 1.4.6 0 1.1-.1 1.4-.3.3-.2.5-.6.5-1 0-.5-.1-1-.4-1.5h1c.1.2.2.4.3.7s0 .4 0 .8zm-5.5-3.9h2.2v-2.5h-2.2v-1.1h5.4v1.1H112v2.5h2.3v1.1h-5.4v-1.1zm2.7-10.2c.9 0 1.6.2 2.1.7s.7 1.1.7 1.9c0 .5-.1 1-.3 1.3-.2.4-.6.7-1 .9-.4.2-.9.3-1.5.3-.9 0-1.6-.2-2.1-.7s-.7-1.1-.7-1.9.3-1.4.8-1.9c.5-.3 1.1-.6 2-.6zm0 4c1.2 0 1.9-.5 1.9-1.4s-.6-1.4-1.9-1.4c-1.2 0-1.9.5-1.9 1.4 0 .5.2.8.5 1s.8.4 1.4.4zm-2.7-8.8h.9v2.3h4.5v1.1h-5.4v-3.4zm5.5-3.4c0 .8-.2 1.5-.7 2s-1.2.7-2 .7c-.9 0-1.6-.2-2.1-.7s-.8-1-.8-1.8c0-.7.2-1.3.6-1.7.4-.4 1-.6 1.8-.6h.6v3.6c.5 0 .9-.2 1.2-.4.3-.3.4-.6.4-1.1 0-.3 0-.6-.1-.9l-.3-.9h.9c.1.3.2.6.3.8.2.3.2.7.2 1zm-4.7.2c0 .4.1.7.3.9.2.2.6.4 1 .4v-2.5c-.4 0-.8.1-1 .3-.2.3-.3.6-.3.9zm4.7-6.3c0 .7-.2 1.2-.7 1.6v.1c.5 0 .7-.1.8-.1h2.2v1.1h-7.8v-.9c.1 0 .3-.1.7-.2v-.1c-.5-.4-.8-.9-.8-1.6s.2-1.2.7-1.6 1.2-.6 2.1-.6 1.6.2 2.1.6.7 1 .7 1.7zm-4.7.3c0 .5.1.8.4 1s.7.3 1.3.3h.2c.7 0 1.1-.1 1.4-.3.3-.2.4-.5.4-1 0-.4-.2-.7-.5-.9s-.8-.3-1.4-.3-1.1.1-1.4.3c-.2.1-.4.4-.4.9zm1.9-8.6c.9 0 1.6.2 2.1.7s.7 1.1.7 1.9c0 .5-.1 1-.3 1.3s-.6.7-1 .9-.9.3-1.5.3c-.9 0-1.6-.2-2.1-.7s-.7-1.1-.7-1.9.3-1.4.8-1.9c.5-.4 1.1-.6 2-.6zm0 3.9c1.2 0 1.9-.5 1.9-1.4s-.6-1.4-1.9-1.4c-1.2 0-1.9.5-1.9 1.4 0 .5.2.8.5 1s.8.4 1.4.4zm-3.4-7.8c0 .7-.1 1.2-.4 1.5-.2.3-.7.5-1.2.5v-1c.2 0 .4-.1.5-.1s.2-.2.3-.3c.1-.1.1-.3.1-.6s-.1-.6-.2-.7c-.1-.2-.4-.3-.7-.3v-1.1c.6 0 1 .2 1.2.6s.4.9.4 1.5zm.7 1.5h2.8c.3 0 .8 0 1.4.1l-4.2-2.7v-1.5h5.4v1.1h-4.1l4.2 2.7v1.4H109l-.1-1.1zm5.5-7.9c0 .8-.2 1.4-.7 1.9-.5.4-1.2.6-2.1.6s-1.6-.2-2.1-.7-.7-1.1-.7-1.9c0-.6.1-1.1.3-1.5l.9.3c-.2.5-.3.9-.3 1.2 0 .9.6 1.4 1.9 1.4.6 0 1.1-.1 1.4-.3.3-.2.5-.6.5-1 0-.5-.1-1-.4-1.5h1c.1.2.2.4.3.7s0 .5 0 .8zm-5.5-6.1v-1.3l2.6 2.2 2.8-2.4v1.3l-2.7 2.3h2.7v1.1h-5.4v-1.1h2.6l-2.6-2.1zm5.4-5.7l-.8.2c.3.3.6.5.7.8s.2.6.2 1c0 .5-.1.9-.4 1.2s-.7.4-1.2.4c-.6 0-1-.2-1.3-.6s-.4-1-.5-1.9v-.9h-.3c-.3 0-.6.1-.8.2-.2.2-.3.4-.3.7 0 .3 0 .5.1.8s.2.5.3.7l-.8.4c-.2-.3-.3-.6-.3-1-.1-.3-.1-.7-.1-1 0-.7.1-1.2.4-1.6s.8-.5 1.4-.5h3.6l.1 1.1zm-.8 1.7c0-.4-.1-.8-.3-1-.2-.3-.6-.4-1-.4h-.5v.7c0 .5.1.9.3 1.2.2.2.4.4.7.4.2 0 .4-.1.6-.2.2-.2.2-.4.2-.7zm.8-4.7v1.3l-2.2-1.5c-.1.4-.3.7-.6.9-.3.2-.6.3-1 .3-.5 0-.9-.2-1.2-.5-.3-.4-.4-.9-.4-1.5v-2.5h5.4V85h-2.1v1.1l2.1 1.2zm-3.8-.1c.3 0 .5-.1.6-.3.1-.2.2-.5.2-.8v-1.2h-1.6v1.2c0 .3.1.6.2.7s.4.4.6.4z"/><path class="st0" d="M96.2 229.2H98v7.8h-1.8zm1.8-24.4v-89.4l-1.8-.1v89.5zm28.7 0V89.1l-1.8 1.9v113.8zm-1.8 24.4h1.8v7.8h-1.8zM147.4 1.5l-51.2 88 1.5 1 51.8-89z"/><path class="st0" d="M176.8 1.5L124.9 91l.5 2.6 53.5-92.1zm53 92.1l-38.5-6.2c-1.8-.3-3.5-.4-5.3-.4-16.4 0-30.2 11.7-32.8 27.9l-.8 4.7c-2.9 18.1 9.4 35.1 27.5 38l38.5 6.2c1.8.3 3.5.4 5.3.4 16.4 0 30.2-11.7 32.8-27.9l.8-4.7c2.9-18-9.4-35-27.5-38zm13.5 35.8l-.8 4.7c-1.7 10.4-11.4 17.4-21.8 15.8l-38.5-6.2c-10.4-1.7-17.4-11.4-15.8-21.8l.8-4.7c1.7-10.4 11.4-17.4 21.8-15.8l38.5 6.2c10.4 1.7 17.5 11.5 15.8 21.8zM230.1 1.9l10 37.2-15.2 4.1L215 6z"/><path transform="rotate(-15.058 219.318 36.74)" class="st0" d="M200 29h38.7v15.4H200z"/><path transform="rotate(-60 93.56 46.374)" class="st0" d="M77.3 30.7h32.6v31.4H77.3z"/><path class="st1" d="M94 59.1h-.7c-6.8 0-12.4-5.5-12.4-12.4V46c0-6.8 5.5-12.4 12.4-12.4h.7c6.8 0 12.4 5.5 12.4 12.4v.7c0 6.9-5.6 12.4-12.4 12.4z"/><path class="st2" d="M102.6 46.8c.3 0 .6.3.6.6v4h-2.3v-2.3H87.2v2.3h-2.3V40.5c0-.3.3-.6.6-.6h1.1c.3 0 .6.3.6.6v6.3h15.4zM90 41.6c-1.3 0-2.3 1-2.3 2.3s1 2.3 2.3 2.3 2.3-1 2.3-2.3-1-2.3-2.3-2.3zm13.2 4c0-1.9-1.5-3.4-3.4-3.4h-6.3c-.3 0-.6.3-.6.6v3.4h10.3v-.6z"/><path class="st1" d="M204.5 137.9h-.7c-6.8 0-12.4-5.5-12.4-12.4v-.7c0-6.8 5.5-12.4 12.4-12.4h.7c6.8 0 12.4 5.5 12.4 12.4v.7c0 6.8-5.5 12.4-12.4 12.4z"/><path class="st2" d="M212.3 125.3c0 4.4-3.6 8-8 8s-8-3.6-8-8 3.6-8 8-8 8 3.6 8 8zm-1.1 0l-.9.8-2.1-2 .6-2.9 1.2.1c-.8-1.2-2.1-2.1-3.5-2.5l.5 1.1-2.6 1.4-2.6-1.4.5-1.1c-1.4.4-2.6 1.3-3.5 2.5l1.2-.1.6 2.9-2.1 2-.9-.8c0 1.5.5 2.9 1.3 4.1l.3-1.2 2.9.4 1.2 2.7-1 .6c.7.2 1.4.3 2.1.3s1.5-.1 2.1-.3l-1-.6 1.2-2.7 2.9-.4.3 1.2c.8-1.2 1.3-2.6 1.3-4.1zm-6.9-2.6l2.6 1.9-1 3h-3.2l-1-3 2.6-1.9z"/><path d="M165.6 165.9c-.7 0-1.2.2-1.6.7s-.6 1.1-.6 2 .2 1.5.6 2c.4.4.9.7 1.6.7.3 0 .6 0 .9-.1s.6-.1.9-.2v1c-.6.2-1.2.3-1.9.3-1 0-1.8-.3-2.4-.9s-.8-1.5-.8-2.7c0-.7.1-1.4.4-1.9.3-.6.7-1 1.2-1.3s1.1-.4 1.8-.4 1.4.2 2 .5l-.4 1c-.2-.1-.5-.2-.8-.3-.4-.4-.6-.4-.9-.4zm7.2.8v.9H171v4.5h-1.2v-4.5h-1.7v-.9h4.7zm4.4 5.4l-.2-.8c-.3.3-.5.6-.8.7s-.6.2-1 .2c-.5 0-.9-.1-1.2-.4s-.4-.7-.4-1.2c0-.6.2-1 .6-1.3s1-.4 1.9-.5h.9v-.3c0-.3-.1-.6-.2-.8-.2-.2-.4-.3-.8-.3-.3 0-.5 0-.8.1s-.5.2-.7.3l-.4-.8c.3-.2.6-.3 1-.3.3-.1.7-.1 1-.1.7 0 1.2.1 1.6.4.3.3.5.8.5 1.4v3.6l-1 .1zm-1.7-.8c.4 0 .8-.1 1-.3.3-.2.4-.6.4-1v-.5h-.7c-.5 0-.9.1-1.2.3-.2.2-.4.4-.4.7 0 .2.1.4.2.6.2.1.4.2.7.2zm9.3 2.7h-1.1v-1.9h-3.6v1.9H179v-2.8h.4c.4-.5.7-1.2.9-2 .2-.8.4-1.6.4-2.5h3.3v4.5h.8v2.8zm-1.9-2.8v-3.6h-1.2c-.1.7-.2 1.3-.4 2s-.4 1.2-.7 1.7h2.3v-.1zm4-4.5v2.8c0 .3 0 .8-.1 1.4l2.7-4.2h1.4v5.4h-1.1V168l-2.7 4.2h-1.4v-5.4l1.2-.1zm10.5 2.7c0 .9-.2 1.6-.7 2.1s-1.1.7-1.9.7c-.5 0-1-.1-1.3-.3-.4-.2-.7-.6-.9-1-.2-.4-.3-.9-.3-1.5 0-.9.2-1.6.7-2.1s1.1-.7 1.9-.7 1.4.3 1.9.8c.4.5.6 1.1.6 2zm-3.9 0c0 1.2.5 1.9 1.4 1.9s1.4-.6 1.4-1.9c0-1.2-.5-1.9-1.4-1.9-.5 0-.8.2-1 .5-.3.3-.4.8-.4 1.4zm6.4-2.7v2.2h2.5v-2.2h1.1v5.4h-1.1v-2.3h-2.5v2.3h-1.1v-5.4h1.1zM162 181.4l1.7-2.1.8.5-1.4 1.7 1.4 1.7-.8.5-1.7-2.1v-.2zm2.2 0l1.7-2.1.8.5-1.4 1.7 1.4 1.7-.8.5-1.7-2.1v-.2zm8.4-2.8c0 .5-.2.8-.5 1.1s-.7.5-1.3.6c.6.1 1.1.3 1.4.6.3.3.5.7.5 1.2 0 .7-.3 1.2-.8 1.6s-1.2.6-2.2.6-1.7-.1-2.3-.4v-1c.3.1.7.3 1.1.3.4.1.8.1 1.1.1 1.3 0 1.9-.4 1.9-1.2 0-.4-.2-.7-.6-.9s-.9-.3-1.7-.3h-.9v-1h.8c1.4 0 2.1-.4 2.1-1.1 0-.3-.1-.5-.4-.7-.2-.2-.6-.3-1-.3-.3 0-.7 0-1 .1s-.6.2-1 .5l-.5-.8c.7-.5 1.6-.8 2.6-.8.8 0 1.4.2 1.8.5s.9.8.9 1.3zm3.9 5.6c-.8 0-1.5-.2-2-.7s-.7-1.2-.7-2c0-.9.2-1.6.7-2.1s1-.8 1.8-.8c.7 0 1.3.2 1.7.6.4.4.6 1 .6 1.8v.6H175c0 .5.2.9.4 1.2.3.3.6.4 1.1.4.3 0 .6 0 .9-.1l.9-.3v.9c-.3.1-.6.2-.8.3-.3.2-.7.2-1 .2zm-.2-4.7c-.4 0-.7.1-.9.3s-.4.6-.4 1h2.5c0-.4-.1-.8-.3-1-.3-.2-.6-.3-.9-.3zm4.7-.8v2.2h2.5v-2.2h1.1v5.4h-1.1v-2.3H181v2.3h-1.1v-5.4h1.1zm6.4 0v2.8c0 .3 0 .8-.1 1.4l2.7-4.2h1.4v5.4h-1.1V180l-2.7 4.2h-1.4v-5.4l1.2-.1zm9.8 0v.9h-1.8v4.5h-1.2v-4.5h-1.8v-.9h4.8zm3.2 2.8l-1.7 2.1-.8-.5 1.4-1.7-1.4-1.7.8-.5 1.7 2.1v.2zm2.2 0l-1.8 2.1-.8-.5 1.4-1.7-1.4-1.7.8-.5 1.8 2.1v.2z"/><path class="st0" d="M1.4 1.1h1.8V237H1.4z"/><path class="st3" d="M179.8 22.8l2.3 8.1c1.1 3.8-2.4 4.9-3.2 5.2-.7.2-1.5.4-3 .4l-.9-3.2c.7 0 1.2-.1 1.3-.1.4-.1 1.4-.5 1-2l-2-7 4.5-1.4zm10.3 8.6c-.6 1.4-1.8 1.9-2.8 2.2-2.1.6-3.4-.3-3.8-1.8-.9-3 2.5-4 4.8-4.7l.6-.2-.1-.3c-.3-.9-1.5-.7-2.4-.5-.1 0-1.5.5-2.9 1.6l-.7-2.3c1.2-.7 2.8-1.4 4-1.7 2.4-.7 5.1-.6 5.8 2l1.6 5.6-3.9 1.1-.2-1zm-1-2.7c-.6.2-2 .5-1.7 1.6.1.5.6.7 1.2.6.6-.2 1.1-.7.8-1.7l-.1-.5h-.2zm10.5-1.6l4.3-1.2.7 2.5-9.1 2.6-1-3.6 3.7-3.9v-.1l-4.3 1.2-.7-2.5 8.9-2.5 1 3.5-3.5 4zm10.3-2.9l4.3-1.2.7 2.5-9.1 2.6-1-3.6 3.7-3.9v-.1l-4.3 1.2-.7-2.5 8.9-2.5 1 3.5-3.5 4z"/><path transform="rotate(-15.05 216.076 37.647)" class="st3" d="M208.9 30h14.4v15.3h-14.4z"/></svg>